<?xml version="1.0" encoding="UTF-8" standalone="no"?>
<!-- Created with Inkscape (http://www.inkscape.org/) -->

<svg
   xmlns:dc="http://purl.org/dc/elements/1.1/"
   xmlns:cc="http://creativecommons.org/ns#"
   xmlns:rdf="http://www.w3.org/1999/02/22-rdf-syntax-ns#"
   xmlns:svg="http://www.w3.org/2000/svg"
   xmlns="http://www.w3.org/2000/svg"
   xmlns:xlink="http://www.w3.org/1999/xlink"
   xmlns:sodipodi="http://sodipodi.sourceforge.net/DTD/sodipodi-0.dtd"
   xmlns:inkscape="http://www.inkscape.org/namespaces/inkscape"
   width="126"
   height="56"
   viewBox="0 0 126 56"
   version="1.1"
   id="svg1087"
   inkscape:version="0.92.2 5c3e80d, 2017-08-06"
   sodipodi:docname="document-open.svg">
  <defs
     id="defs1081">
    <linearGradient
       inkscape:collect="always"
       xlink:href="#linearGradient4540"
       id="linearGradient4347"
       gradientUnits="userSpaceOnUse"
       gradientTransform="matrix(0.47825838,0,0,0.47826068,47.5218,25.174902)"
       x1="7"
       y1="1011.3622"
       x2="41.000019"
       y2="1045.3622" />
    <linearGradient
       id="linearGradient4540"
       inkscape:collect="always">
      <stop
         id="stop4536"
         offset="0"
         style="stop-color:#ffffff;stop-opacity:0.05490196" />
      <stop
         id="stop4538"
         offset="1"
         style="stop-color:#177ed5;stop-opacity:0;" />
    </linearGradient>
    <linearGradient
       inkscape:collect="always"
       xlink:href="#linearGradient4540"
       id="linearGradient1093"
       gradientUnits="userSpaceOnUse"
       gradientTransform="matrix(0.47825838,0,0,0.47826068,86.5218,24.174902)"
       x1="7"
       y1="1011.3622"
       x2="41.000019"
       y2="1045.3622" />
  </defs>
  <sodipodi:namedview
     id="base"
     pagecolor="#c3c3c3"
     bordercolor="#333333"
     borderopacity="1"
     inkscape:pageopacity="0"
     inkscape:pageshadow="2"
     inkscape:zoom="5.6568543"
     inkscape:cx="18.14677"
     inkscape:cy="-16.865173"
     inkscape:document-units="px"
     inkscape:current-layer="layer2"
     showgrid="true"
     units="px"
     inkscape:showpageshadow="false"
     inkscape:window-width="2560"
     inkscape:window-height="1370"
     inkscape:window-x="0"
     inkscape:window-y="34"
     inkscape:window-maximized="1">
    <inkscape:grid
       type="xygrid"
       id="grid4630" />
  </sodipodi:namedview>
  <metadata
     id="metadata1084">
    <rdf:RDF>
      <cc:Work
         rdf:about="">
        <dc:format>image/svg+xml</dc:format>
        <dc:type
           rdf:resource="http://purl.org/dc/dcmitype/StillImage" />
        <dc:title />
        <cc:license
           rdf:resource="http://creativecommons.org/licenses/by-sa/4.0/" />
        <dc:creator>
          <cc:Agent>
            <dc:title>Peter Cornelis</dc:title>
          </cc:Agent>
        </dc:creator>
      </cc:Work>
      <cc:License
         rdf:about="http://creativecommons.org/licenses/by-sa/4.0/">
        <cc:permits
           rdf:resource="http://creativecommons.org/ns#Reproduction" />
        <cc:permits
           rdf:resource="http://creativecommons.org/ns#Distribution" />
        <cc:requires
           rdf:resource="http://creativecommons.org/ns#Notice" />
        <cc:requires
           rdf:resource="http://creativecommons.org/ns#Attribution" />
        <cc:permits
           rdf:resource="http://creativecommons.org/ns#DerivativeWorks" />
        <cc:requires
           rdf:resource="http://creativecommons.org/ns#ShareAlike" />
      </cc:License>
    </rdf:RDF>
  </metadata>
  <g
     inkscape:label="Baseplate"
     inkscape:groupmode="layer"
     id="layer1"
     transform="translate(0,-641.06668)"
     style="display:none">
    <text
       y="733.32251"
       xml:space="preserve"
       x="-0.99316406"
       style="font-style:normal;font-variant:normal;font-weight:normal;font-stretch:normal;line-height:0%;font-family:'DejaVu Sans';-inkscape-font-specification:'DejaVu Sans';display:inline;fill:#000000;fill-opacity:1;stroke:none;enable-background:new"
       inkscape:label="context"
       id="context"><tspan
         style="font-style:normal;font-variant:normal;font-weight:normal;font-stretch:normal;font-size:18px;line-height:1.25;font-family:'DejaVu Sans';-inkscape-font-specification:'DejaVu Sans'"
         y="733.32251"
         x="-0.99316406"
         sodipodi:role="line"
         id="tspan3933">actions</tspan></text>
    <text
       y="733.32251"
       xml:space="preserve"
       x="126.48828"
       style="font-style:normal;font-variant:normal;font-weight:bold;font-stretch:normal;line-height:0%;font-family:'DejaVu Sans';-inkscape-font-specification:'DejaVu Sans Bold';text-align:start;writing-mode:lr-tb;text-anchor:start;display:inline;fill:#000000;fill-opacity:1;stroke:none;enable-background:new"
       inkscape:label="icon-name"
       id="icon-name"><tspan
         style="font-style:normal;font-variant:normal;font-weight:bold;font-stretch:normal;font-size:18px;line-height:1.25;font-family:'DejaVu Sans';-inkscape-font-specification:'DejaVu Sans Bold'"
         y="733.32251"
         x="126.48828"
         sodipodi:role="line"
         id="tspan3937">document-open</tspan></text>
    <rect
       style="display:inline;overflow:visible;visibility:visible;fill:#fefefe;fill-opacity:1;fill-rule:nonzero;stroke:none;stroke-width:2;marker:none;enable-background:accumulate"
       id="rect16x16"
       width="16"
       height="16"
       x="-32"
       y="665.06665"
       inkscape:label="16x16"
       transform="scale(-1,1)" />
    <rect
       style="display:inline;overflow:visible;visibility:visible;fill:#fefefe;fill-opacity:1;fill-rule:nonzero;stroke:none;stroke-width:2;marker:none;enable-background:accumulate"
       id="rect24x24"
       width="24"
       height="24"
       x="-110"
       y="657.06665"
       inkscape:label="24x24"
       transform="scale(-1,1)" />
    <rect
       transform="scale(-1,1)"
       inkscape:label="24x24"
       y="659.06665"
       x="-70"
       height="22"
       width="22"
       id="rect4495"
       style="display:inline;overflow:visible;visibility:visible;fill:#fefefe;fill-opacity:1;fill-rule:nonzero;stroke:none;stroke-width:1.83333325;marker:none;enable-background:accumulate" />
    <path
       style="display:inline;fill:#ffffff;fill-opacity:0.2;stroke:none;enable-background:new"
       d="m 59,659.06668 c -6.094,0 -11,4.906 -11,11 0,0.16899 0.01792,0.33292 0.02539,0.5 0.261766,-5.85817 5.049599,-10.5 10.97461,-10.5 5.925011,0 10.712844,4.64183 10.974609,10.5 0.0075,-0.16708 0.02539,-0.33101 0.02539,-0.5 0,-6.094 -4.906,-11 -10.999999,-11 z"
       id="rect4613"
       inkscape:connector-curvature="0" />
    <path
       id="path4618"
       d="m 98,658.06668 c -6.094,0 -11,4.906 -11,11 0,0.16899 0.01792,0.33292 0.02539,0.5 0.261765,-5.85817 5.049598,-10.5 10.974609,-10.5 5.925011,0 10.712841,4.64183 10.974611,10.5 0.008,-0.16708 0.0254,-0.33101 0.0254,-0.5 0,-6.094 -4.906,-11 -11.000002,-11 z"
       style="display:inline;fill:#ffffff;fill-opacity:0.2;stroke:none;enable-background:new"
       inkscape:connector-curvature="0" />
  </g>
  <g
     inkscape:groupmode="layer"
     id="layer2"
     inkscape:label="Bitmap"
     style="display:inline"
     transform="translate(0,-488)">
    <path
       inkscape:connector-curvature="0"
       id="path863"
       d="m 18,512 c -1.108,0 -2,0.892 -2,2 v 1 1 1 1 1 6 1 c 0,1.108 0.892,2 2,2 h 12 c 1.108,0 2,-0.892 2,-2 v -1 -6 -1 -1 -1 c 0,-1.108 -0.892,-2 -2,-2 h -5 l -2,-2 h -4 z"
       style="display:inline;opacity:1;fill:#000000;fill-opacity:0.1;stroke:none;stroke-opacity:0.2" />
    <path
       style="opacity:1;fill:#404752;fill-opacity:1;stroke:none;stroke-width:3;stroke-linecap:round;stroke-linejoin:round;stroke-miterlimit:4;stroke-dasharray:none;stroke-opacity:1"
       d="M 19 25 C 17.892 25 17 25.892 17 27 L 17 29 L 17 31 L 17.933594 30.689453 C 18.242509 30.884523 18.606129 31 19 31 L 21 31 C 22.108 31 23 30.108 23 29 L 25 27 L 23 25 L 21 25 L 19 25 z "
       transform="translate(0,488)"
       id="rect877" />
    <path
       style="opacity:1;fill:#1685a6;fill-opacity:1;stroke:none;stroke-width:3;stroke-linecap:round;stroke-linejoin:round;stroke-miterlimit:4;stroke-dasharray:none;stroke-opacity:1"
       d="M 25 27 L 23 29 L 19 29 C 17.892 29 17 29.892 17 31 L 17 37 C 17 38.108 17.892 39 19 39 L 29 39 C 30.108 39 31 38.108 31 37 L 31 31 L 31 29 C 31 27.892 30.108 27 29 27 L 27 27 L 26 27 L 25 27 z "
       transform="translate(0,488)"
       id="rect867" />
    <path
       id="path861"
       d="M 50.199219,506 C 48.980419,506 48,506.98042 48,508.19922 v 2.20117 1.09961 0.50781 1.69141 1.10156 1.09961 4.40039 1.70899 0.49023 1.09961 2.20117 C 48,527.01958 48.980419,528 50.199219,528 H 51 c -1.108,0 -2,-0.892 -2,-2 V 522.55469 519 H 69 V 522.53906 526 c 0,1.108 -0.892,2 -2,2 h 0.80078 C 69.01958,528 70,527.01958 70,525.80078 v -2.20117 -1.09961 -0.50781 -3.89258 -2.19922 -1.09961 -1.10156 -1.09961 V 511.5 c 0,-1.2188 -0.98042,-2.19922 -2.19922,-2.19922 h -5.5 -1.10156 -1.099611 L 56.800781,506 h -2.80664 -1.59375 z"
       style="display:inline;fill:#000000;fill-opacity:0.1;stroke:none;stroke-width:2.19999981;stroke-linecap:round;stroke-linejoin:round;stroke-miterlimit:4;stroke-dasharray:none;stroke-opacity:1;enable-background:new"
       inkscape:connector-curvature="0" />
    <path
       style="display:inline;fill:#000000;fill-opacity:0.2;stroke:none;stroke-width:2;stroke-linecap:round;stroke-linejoin:round;stroke-miterlimit:4;stroke-dasharray:none;stroke-opacity:1;enable-background:new"
       d="M 49,519 V 522.55469 526 c 0,1.108 0.892,2 2,2 H 54.460938 63.550781 67 c 1.108,0 2,-0.892 2,-2 V 522.53906 519 Z"
       id="path4543"
       inkscape:connector-curvature="0" />
    <path
       inkscape:connector-curvature="0"
       style="display:inline;opacity:1;fill:#404752;fill-opacity:1;stroke:none;stroke-opacity:0.2"
       d="m 51,507 c -1.108,0 -2,0.892 -2,2 v 2 1 2 6 2 1 2 c 0,1.108 0.892,2 2,2 h 2 13 1 c 1.108,0 2,-0.892 2,-2 v -2 -1 -4 -1 -1 -1 -1 -1 -1 c 0,-1.108 -0.892,-2 -2,-2 h -7 l -3,-3 h -4 z"
       id="rect5020" />
    <path
       inkscape:connector-curvature="0"
       style="display:inline;opacity:1;fill:#ffffff;fill-opacity:0.2;stroke:none;stroke-opacity:0.2"
       d="m 51,507 c -1.108,0 -2,0.892 -2,2 v 1 c 0,-1.108 0.892,-2 2,-2 h 2 4 l 3,3 h 7 c 1.108,0 2,0.892 2,2 v -1 c 0,-1.108 -0.892,-2 -2,-2 h -7 l -3,-3 h -4 z"
       id="path4575" />
    <path
       inkscape:connector-curvature="0"
       style="display:inline;opacity:1;fill:#1685a6;fill-opacity:1;stroke:none;stroke-opacity:0.2"
       d="m 60,510 -3,3 h -6 c -1.108,0 -2,0.892 -2,2 v 1 1 1 1 1 1 1 1 2 c 0,1.108 0.892,2 2,2 h 2 13 1 c 1.108,0 2,-0.892 2,-2 v -2 -5 -1 -1 -1 -1 -1 -1 c 0,-1.108 -0.892,-2 -2,-2 h -5 -1 z"
       id="path4580" />
    <path
       inkscape:connector-curvature="0"
       style="display:inline;opacity:1;fill:#ffffff;fill-opacity:0.2;stroke:none;stroke-opacity:0.2"
       d="m 60,510 -3,3 h -6 c -1.108,0 -2,0.892 -2,2 v 1 c 0,-1.108 0.892,-2 2,-2 h 6 l 3,-3 h 1 1 5 c 1.108,0 2,0.892 2,2 v -1 c 0,-1.108 -0.892,-2 -2,-2 h -5 -1 z"
       id="path4590" />
    <path
       style="display:inline;fill:#000000;fill-opacity:0.1;stroke:none;stroke-width:2.19999981;stroke-linecap:round;stroke-linejoin:round;stroke-miterlimit:4;stroke-dasharray:none;stroke-opacity:1;enable-background:new"
       d="M 89.199219 17 C 87.980419 17 87 17.980419 87 19.199219 L 87 21.400391 L 87 22.5 L 87 23.007812 L 87 24.699219 L 87 25.800781 L 87 26.900391 L 87 31.300781 L 87 33.009766 L 87 33.5 L 87 34.599609 L 87 36.800781 C 87 38.019581 87.980419 39 89.199219 39 L 90 39 C 88.892 39 88 38.108 88 37 L 88 33.554688 L 88 30 L 108 30 L 108 33.539062 L 108 37 C 108 38.108 107.108 39 106 39 L 106.80078 39 C 108.01958 39 109 38.019581 109 36.800781 L 109 34.599609 L 109 33.5 L 109 32.992188 L 109 29.099609 L 109 26.900391 L 109 25.800781 L 109 24.699219 L 109 23.599609 L 109 22.5 C 109 21.2812 108.01958 20.300781 106.80078 20.300781 L 101.30078 20.300781 L 100.19922 20.300781 L 99.099609 20.300781 L 95.800781 17 L 92.994141 17 L 91.400391 17 L 89.199219 17 z "
       transform="translate(0,488)"
       id="path851" />
    <path
       inkscape:connector-curvature="0"
       id="path1077"
       d="M 88,518 V 521.55469 525 c 0,1.108 0.892,2 2,2 H 93.460938 102.55078 106 c 1.108,0 2,-0.892 2,-2 V 521.53906 518 Z"
       style="display:inline;fill:#000000;fill-opacity:0.2;stroke:none;stroke-width:2;stroke-linecap:round;stroke-linejoin:round;stroke-miterlimit:4;stroke-dasharray:none;stroke-opacity:1;enable-background:new" />
    <path
       id="path1079"
       d="m 90,506 c -1.108,0 -2,0.892 -2,2 v 2 1 2 6 2 1 2 c 0,1.108 0.892,2 2,2 h 2 13 1 c 1.108,0 2,-0.892 2,-2 v -2 -1 -4 -1 -1 -1 -1 -1 -1 c 0,-1.108 -0.892,-2 -2,-2 h -7 l -3,-3 h -4 z"
       style="display:inline;opacity:1;fill:#404752;fill-opacity:1;stroke:none;stroke-opacity:0.2"
       inkscape:connector-curvature="0" />
    <path
       id="path1081"
       d="m 90,506 c -1.108,0 -2,0.892 -2,2 v 1 c 0,-1.108 0.892,-2 2,-2 h 2 4 l 3,3 h 7 c 1.108,0 2,0.892 2,2 v -1 c 0,-1.108 -0.892,-2 -2,-2 h -7 l -3,-3 h -4 z"
       style="display:inline;opacity:1;fill:#ffffff;fill-opacity:0.2;stroke:none;stroke-opacity:0.2"
       inkscape:connector-curvature="0" />
    <path
       id="path1083"
       d="m 99,509 -3,3 h -6 c -1.108,0 -2,0.892 -2,2 v 1 1 1 1 1 1 1 1 2 c 0,1.108 0.892,2 2,2 h 2 13 1 c 1.108,0 2,-0.892 2,-2 v -2 -5 -1 -1 -1 -1 -1 -1 c 0,-1.108 -0.892,-2 -2,-2 h -5 -1 z"
       style="display:inline;opacity:1;fill:#1685a6;fill-opacity:1;stroke:none;stroke-opacity:0.2"
       inkscape:connector-curvature="0" />
    <path
       id="path1085"
       d="m 99,509 -3,3 h -6 c -1.108,0 -2,0.892 -2,2 v 1 c 0,-1.108 0.892,-2 2,-2 h 6 l 3,-3 h 1 1 5 c 1.108,0 2,0.892 2,2 v -1 c 0,-1.108 -0.892,-2 -2,-2 h -5 -1 z"
       style="display:inline;opacity:1;fill:#ffffff;fill-opacity:0.2;stroke:none;stroke-opacity:0.2"
       inkscape:connector-curvature="0" />
    <path
       inkscape:connector-curvature="0"
       id="path1253"
       d="m 59,515 -5,5 h 3 v 5 h 4 v -5 h 3 l -5,-5"
       style="display:inline;fill:#000000;fill-opacity:0.2;stroke:none;stroke-width:1px;stroke-linecap:butt;stroke-linejoin:miter;stroke-opacity:1" />
    <path
       style="display:inline;fill:#f5f5f5;fill-opacity:1;stroke:none;stroke-width:1px;stroke-linecap:butt;stroke-linejoin:miter;stroke-opacity:1"
       d="m 59,514 -5,5 h 3 v 5 h 4 v -5 h 3 l -5,-5"
       id="path1249"
       inkscape:connector-curvature="0" />
    <path
       style="display:inline;fill:#000000;fill-opacity:0.2;stroke:none;stroke-width:1px;stroke-linecap:butt;stroke-linejoin:miter;stroke-opacity:1"
       d="m 98,514 -5,5 h 3 v 5 h 4 v -5 h 3 l -5,-5"
       id="path878"
       inkscape:connector-curvature="0" />
    <path
       inkscape:connector-curvature="0"
       id="path880"
       d="m 98,513 -5,5 h 3 v 5 h 4 v -5 h 3 l -5,-5"
       style="display:inline;fill:#f5f5f5;fill-opacity:1;stroke:none;stroke-width:1px;stroke-linecap:butt;stroke-linejoin:miter;stroke-opacity:1" />
    <path
       style="display:inline;fill:url(#linearGradient4347);fill-opacity:1;stroke:none;stroke-width:2;stroke-linecap:round;stroke-linejoin:round;stroke-miterlimit:4;stroke-dasharray:none;stroke-opacity:1;enable-background:new"
       d="m 51,507 c -1.108,0 -2,0.892 -2,2 v 2 1 0.46094 1.53906 6 1.55469 0.44531 1 2 c 0,1.108 0.892,2 2,2 H 53 54.460938 66 67 c 1.108,0 2,-0.892 2,-2 v -2 -1 -0.46094 V 518 v -2 -1 -1 -1 c 0,-1.108 -0.892,-2 -2,-2 h -2 -4 l -4,-4 H 54.449219 53 Z"
       id="path4345"
       inkscape:connector-curvature="0" />
    <path
       inkscape:connector-curvature="0"
       id="path1091"
       d="m 90,506 c -1.108,0 -2,0.892 -2,2 v 2 1 0.46094 1.53906 6 1.55469 0.44531 1 2 c 0,1.108 0.892,2 2,2 H 92 93.460938 105 h 1 c 1.108,0 2,-0.892 2,-2 v -2 -1 -0.46094 V 517 v -2 -1 -1 -1 c 0,-1.108 -0.892,-2 -2,-2 h -2 -4 l -4,-4 H 93.449219 92 Z"
       style="display:inline;fill:url(#linearGradient1093);fill-opacity:1;stroke:none;stroke-width:2;stroke-linecap:round;stroke-linejoin:round;stroke-miterlimit:4;stroke-dasharray:none;stroke-opacity:1;enable-background:new" />
    <path
       style="fill:#f5f5f5;stroke:none;stroke-width:1px;stroke-linecap:butt;stroke-linejoin:miter;stroke-opacity:1;fill-opacity:1"
       d="m 23,525 v -3 h -2 l 3,-3 3,3 h -2 v 3 h -2"
       id="path893"
       inkscape:connector-curvature="0" />
  </g>
</svg>
