<?xml version="1.0" encoding="UTF-8" standalone="no"?>
<!-- Created with Inkscape (http://www.inkscape.org/) -->

<svg
   xmlns:dc="http://purl.org/dc/elements/1.1/"
   xmlns:cc="http://creativecommons.org/ns#"
   xmlns:rdf="http://www.w3.org/1999/02/22-rdf-syntax-ns#"
   xmlns:svg="http://www.w3.org/2000/svg"
   xmlns="http://www.w3.org/2000/svg"
   xmlns:xlink="http://www.w3.org/1999/xlink"
   xmlns:sodipodi="http://sodipodi.sourceforge.net/DTD/sodipodi-0.dtd"
   xmlns:inkscape="http://www.inkscape.org/namespaces/inkscape"
   width="842"
   height="544"
   viewBox="0 0 842 544"
   version="1.1"
   id="svg1087"
   inkscape:version="0.92.2 5c3e80d, 2017-08-06"
   sodipodi:docname="document-open.svg">
  <defs
     id="defs1081">
    <linearGradient
       inkscape:collect="always"
       xlink:href="#linearGradient4540"
       id="linearGradient4347"
       gradientUnits="userSpaceOnUse"
       gradientTransform="matrix(0.47825838,0,0,0.47826068,43.5218,25.174902)"
       x1="7"
       y1="1011.3622"
       x2="41.000019"
       y2="1045.3622" />
    <linearGradient
       id="linearGradient4540"
       inkscape:collect="always">
      <stop
         id="stop4536"
         offset="0"
         style="stop-color:#ffffff;stop-opacity:0.05490196" />
      <stop
         id="stop4538"
         offset="1"
         style="stop-color:#177ed5;stop-opacity:0;" />
    </linearGradient>
    <linearGradient
       inkscape:collect="always"
       xlink:href="#linearGradient4540"
       id="linearGradient4435"
       gradientUnits="userSpaceOnUse"
       gradientTransform="matrix(0.65217041,0,0,0.65217328,122.3479,-158.67021)"
       x1="7"
       y1="1011.3622"
       x2="41.000019"
       y2="1045.3622" />
    <filter
       inkscape:collect="always"
       style="color-interpolation-filters:sRGB"
       id="filter5087"
       x="-0.048"
       width="1.096"
       y="-0.048"
       height="1.096">
      <feGaussianBlur
         inkscape:collect="always"
         stdDeviation="0.8"
         id="feGaussianBlur5089" />
    </filter>
    <linearGradient
       inkscape:collect="always"
       xlink:href="#linearGradient4540"
       id="linearGradient1093"
       gradientUnits="userSpaceOnUse"
       gradientTransform="matrix(0.47825838,0,0,0.47826068,78.5218,24.174902)"
       x1="7"
       y1="1011.3622"
       x2="41.000019"
       y2="1045.3622" />
  </defs>
  <sodipodi:namedview
     id="base"
     pagecolor="#c3c3c3"
     bordercolor="#333333"
     borderopacity="1"
     inkscape:pageopacity="0"
     inkscape:pageshadow="2"
     inkscape:zoom="2.8284271"
     inkscape:cx="175.60539"
     inkscape:cy="-11.166515"
     inkscape:document-units="px"
     inkscape:current-layer="layer2"
     showgrid="true"
     units="px"
     inkscape:showpageshadow="false"
     inkscape:window-width="1920"
     inkscape:window-height="1044"
     inkscape:window-x="2560"
     inkscape:window-y="0"
     inkscape:window-maximized="1">
    <inkscape:grid
       type="xygrid"
       id="grid4630" />
  </sodipodi:namedview>
  <metadata
     id="metadata1084">
    <rdf:RDF>
      <cc:Work
         rdf:about="">
        <dc:format>image/svg+xml</dc:format>
        <dc:type
           rdf:resource="http://purl.org/dc/dcmitype/StillImage" />
        <dc:title />
        <cc:license
           rdf:resource="http://creativecommons.org/licenses/by-sa/4.0/" />
        <dc:creator>
          <cc:Agent>
            <dc:title>Peter Cornelis</dc:title>
          </cc:Agent>
        </dc:creator>
      </cc:Work>
      <cc:License
         rdf:about="http://creativecommons.org/licenses/by-sa/4.0/">
        <cc:permits
           rdf:resource="http://creativecommons.org/ns#Reproduction" />
        <cc:permits
           rdf:resource="http://creativecommons.org/ns#Distribution" />
        <cc:requires
           rdf:resource="http://creativecommons.org/ns#Notice" />
        <cc:requires
           rdf:resource="http://creativecommons.org/ns#Attribution" />
        <cc:permits
           rdf:resource="http://creativecommons.org/ns#DerivativeWorks" />
        <cc:requires
           rdf:resource="http://creativecommons.org/ns#ShareAlike" />
      </cc:License>
    </rdf:RDF>
  </metadata>
  <g
     inkscape:label="Baseplate"
     inkscape:groupmode="layer"
     id="layer1"
     transform="translate(0,-153.06668)"
     style="display:none">
    <text
       y="733.32251"
       xml:space="preserve"
       x="15.006836"
       style="font-style:normal;font-variant:normal;font-weight:normal;font-stretch:normal;line-height:0%;font-family:'DejaVu Sans';-inkscape-font-specification:'DejaVu Sans';display:inline;fill:#000000;fill-opacity:1;stroke:none;enable-background:new"
       inkscape:label="context"
       id="context"><tspan
         style="font-style:normal;font-variant:normal;font-weight:normal;font-stretch:normal;font-size:18px;line-height:1.25;font-family:'DejaVu Sans';-inkscape-font-specification:'DejaVu Sans'"
         y="733.32251"
         x="15.006836"
         sodipodi:role="line"
         id="tspan3933">actions</tspan></text>
    <text
       y="733.32251"
       xml:space="preserve"
       x="142.48828"
       style="font-style:normal;font-variant:normal;font-weight:bold;font-stretch:normal;line-height:0%;font-family:'DejaVu Sans';-inkscape-font-specification:'DejaVu Sans Bold';text-align:start;writing-mode:lr-tb;text-anchor:start;display:inline;fill:#000000;fill-opacity:1;stroke:none;enable-background:new"
       inkscape:label="icon-name"
       id="icon-name"><tspan
         style="font-style:normal;font-variant:normal;font-weight:bold;font-stretch:normal;font-size:18px;line-height:1.25;font-family:'DejaVu Sans';-inkscape-font-specification:'DejaVu Sans Bold'"
         y="733.32251"
         x="142.48828"
         sodipodi:role="line"
         id="tspan3937">document-open</tspan></text>
    <rect
       style="display:inline;overflow:visible;visibility:visible;fill:#fefefe;fill-opacity:1;fill-rule:nonzero;stroke:none;stroke-width:2;marker:none;enable-background:accumulate"
       id="rect16x16"
       width="16"
       height="16"
       x="-32"
       y="665.06665"
       inkscape:label="16x16"
       transform="scale(-1,1)" />
    <rect
       style="display:inline;overflow:visible;visibility:visible;fill:#fefefe;fill-opacity:1;fill-rule:nonzero;stroke:none;stroke-width:2;marker:none;enable-background:accumulate"
       id="rect24x24"
       width="24"
       height="24"
       x="-102"
       y="657.06665"
       inkscape:label="24x24"
       transform="scale(-1,1)" />
    <rect
       style="display:inline;overflow:visible;visibility:visible;fill:#fefefe;fill-opacity:1;fill-rule:nonzero;stroke:none;stroke-width:2;marker:none;enable-background:accumulate"
       id="rect32x32"
       width="32"
       height="32"
       x="-154"
       y="649.06665"
       inkscape:label="32x32"
       transform="scale(-1,1)" />
    <rect
       transform="scale(-1,1)"
       inkscape:label="24x24"
       y="659.06665"
       x="-66"
       height="22"
       width="22"
       id="rect4495"
       style="display:inline;overflow:visible;visibility:visible;fill:#fefefe;fill-opacity:1;fill-rule:nonzero;stroke:none;stroke-width:1.83333325;marker:none;enable-background:accumulate" />
    <path
       style="display:inline;fill:#ffffff;fill-opacity:0.2;stroke:none;enable-background:new"
       d="m 55,506 c -6.094,0 -11,4.906 -11,11 0,0.16899 0.01792,0.33292 0.02539,0.5 C 44.287156,511.64183 49.074989,507 55,507 c 5.925011,0 10.712844,4.64183 10.974609,10.5 C 65.982075,517.33292 66,517.16899 66,517 66,510.906 61.094,506 55,506 Z"
       transform="translate(0,153.06668)"
       id="rect4613"
       inkscape:connector-curvature="0" />
    <path
       id="path4618"
       d="m 90,658.06668 c -6.094,0 -11,4.906 -11,11 0,0.16899 0.01792,0.33292 0.02539,0.5 0.261765,-5.85817 5.049598,-10.5 10.974609,-10.5 5.925011,0 10.712841,4.64183 10.974611,10.5 0.008,-0.16708 0.0254,-0.33101 0.0254,-0.5 0,-6.094 -4.906002,-11 -11.000002,-11 z"
       style="display:inline;fill:#ffffff;fill-opacity:0.2;stroke:none;enable-background:new"
       inkscape:connector-curvature="0" />
    <rect
       transform="scale(-1,1)"
       inkscape:label="16x16"
       y="649.06665"
       x="-154"
       height="32"
       width="32"
       id="rect841"
       style="display:inline;overflow:visible;visibility:visible;fill:#fefefe;fill-opacity:1;fill-rule:nonzero;stroke:none;stroke-width:4;marker:none;enable-background:accumulate" />
  </g>
  <g
     inkscape:groupmode="layer"
     id="layer2"
     inkscape:label="Bitmap"
     style="display:inline">
    <path
       sodipodi:nodetypes="sscsscsscsscs"
       inkscape:connector-curvature="0"
       id="path5069"
       d="m 143,485 c -1.66505,0 -3,1.2912 -3,3 v 17 17 c 0,1.8617 1.34224,3 3,3 h 17 17 c 1.73784,0 3,-1.2767 3,-3 v -17 -17 c 0,-1.6942 -1.29127,-3 -3,-3 h -17 z"
       style="display:inline;fill:none;fill-opacity:0.5;stroke:none;stroke-width:2;stroke-linecap:round;stroke-linejoin:round;stroke-miterlimit:4;stroke-dasharray:none;stroke-opacity:1;filter:url(#filter5087);enable-background:new" />
    <path
       style="display:inline;fill:none;fill-opacity:0.5;stroke:none;stroke-width:2;stroke-linecap:round;stroke-linejoin:round;stroke-miterlimit:4;stroke-dasharray:none;stroke-opacity:1;filter:url(#filter5087);enable-background:new"
       d="m 143,485 c -1.66505,0 -3,1.2912 -3,3 v 17 17 c 0,1.8617 1.34224,3 3,3 h 17 17 c 1.73784,0 3,-1.2767 3,-3 v -17 -17 c 0,-1.6942 -1.29127,-3 -3,-3 h -17 z"
       id="path4506"
       inkscape:connector-curvature="0"
       sodipodi:nodetypes="sscsscsscsscs" />
    <path
       style="display:inline;fill:#000000;fill-opacity:0.2;stroke:none;stroke-width:2;stroke-linecap:round;stroke-linejoin:round;stroke-miterlimit:4;stroke-dasharray:none;stroke-opacity:1;enable-background:new"
       d="m 127,500 c -1.662,0 -3,1.338 -3,3 v 4.66211 10.67578 V 524 c 0,1.662 1.338,3 3,3 h 5.6875 10.64844 H 149 c 1.662,0 3,-1.338 3,-3 V 518.33789 507.66602 507 c 0,-1.662 -1.338,-3 -3,-3 h -9 l -4,-4 h -3 -2 z"
       id="path4547"
       inkscape:connector-curvature="0" />
    <path
       style="display:inline;opacity:1;fill:#e8ebed;fill-opacity:1;stroke:none;stroke-opacity:0.2"
       d="m 138,502 2,2 h 9 c 1.662,0 3,1.338 3,3 v -2 c 0,-1.662 -1.338,-3 -3,-3 z"
       id="rect4565"
       inkscape:connector-curvature="0" />
    <path
       style="display:inline;fill:#404752;fill-opacity:1;stroke:none;enable-background:new"
       d="m 127,498 c -1.662,0 -3,1.338 -3,3 v 1 1 1 1 1 1 5 2 2 2 2 1 1 1 c 0,1.662 1.338,3 3,3 h 22 c 1.662,0 3,-1.338 3,-3 v -1 -1 -3 -1 -2 -2 -1 -1 -1 -0.60938 -2 V 507 505 c 0,-1.662 -1.338,-3 -3,-3 h -9 l -4,-4 h -3 -2 z"
       id="rect4546"
       inkscape:connector-curvature="0" />
    <path
       style="display:inline;fill:#ffffff;fill-opacity:0.2;stroke:none;enable-background:new"
       d="m 127,498 c -1.662,0 -3,1.338 -3,3 v 1 c 0,-1.662 1.338,-3 3,-3 h 4 2 3 l 4,4 h 9 c 1.662,0 3,1.338 3,3 v -1 c 0,-1.662 -1.338,-3 -3,-3 h -9 l -4,-4 h -3 -2 z"
       id="path4594"
       inkscape:connector-curvature="0" />
    <path
       style="display:inline;opacity:1;fill:#404752;fill-opacity:1;stroke:none;stroke-opacity:0.2"
       d="m 18,512 c -1.108,0 -2,0.892 -2,2 v 1 1 1 1 1 6 1 c 0,1.108 0.892,2 2,2 h 12 c 1.108,0 2,-0.892 2,-2 v -1 -6 -1 -1 -1 c 0,-1.108 -0.892,-2 -2,-2 h -5 l -2,-2 h -4 z"
       id="rect5069"
       inkscape:connector-curvature="0" />
    <path
       style="display:inline;fill:#1685a6;fill-opacity:1;stroke:none;stroke-width:1px;stroke-linecap:butt;stroke-linejoin:miter;stroke-opacity:1"
       d="m 140,502 -4,4 h -9 c -1.662,0 -3,1.338 -3,3 v 14 c 0,1.662 1.338,3 3,3 h 16 6 c 1.662,0 3,-1.338 3,-3 v -18 c 0,-1.662 -1.338,-3 -3,-3 h -6 z"
       id="path4588"
       inkscape:connector-curvature="0" />
    <path
       inkscape:connector-curvature="0"
       id="path4601"
       d="m 149,502 c 1.662,0 3,1.338 3,3 v 1 c 0,-1.662 -1.338,-3 -3,-3 h -4 -2 -3 l -4,4 h -9 c -1.662,0 -3,1.338 -3,3 v -1 c 0,-1.662 1.338,-3 3,-3 h 9 l 4,-4 h 3 2 z"
       style="display:inline;fill:#ffffff;fill-opacity:0.2;stroke:none;enable-background:new" />
    <path
       style="display:inline;opacity:1;fill:#1685a6;fill-opacity:1;stroke:none;stroke-opacity:0.2"
       d="m 25,514 -2,2 h -5 c -1.108,0 -2,0.892 -2,2 v 1 1 1 4 1 c 0,1.108 0.892,2 2,2 h 12 c 1.108,0 2,-0.892 2,-2 v -5 -2 -1 -1 -1 c 0,-0.1385 -0.01446,-0.27387 -0.04102,-0.4043 C 31.773102,514.6827 30.9695,514 30,514 h -1 z"
       id="path4611"
       inkscape:connector-curvature="0" />
    <path
       style="display:inline;fill:#000000;fill-opacity:0.2;stroke:none;stroke-width:2;stroke-linecap:round;stroke-linejoin:round;stroke-miterlimit:4;stroke-dasharray:none;stroke-opacity:1;enable-background:new"
       d="M 45,519 V 522.55469 526 c 0,1.108 0.892,2 2,2 H 50.460938 59.550781 63 c 1.108,0 2,-0.892 2,-2 V 522.53906 519 Z"
       id="path4543"
       inkscape:connector-curvature="0" />
    <path
       inkscape:connector-curvature="0"
       style="display:inline;opacity:1;fill:#404752;fill-opacity:1;stroke:none;stroke-opacity:0.2"
       d="m 47,507 c -1.108,0 -2,0.892 -2,2 v 2 1 2 6 2 1 2 c 0,1.108 0.892,2 2,2 h 2 13 1 c 1.108,0 2,-0.892 2,-2 v -2 -1 -4 -1 -1 -1 -1 -1 -1 c 0,-1.108 -0.892,-2 -2,-2 h -7 l -3,-3 h -4 z"
       id="rect5020" />
    <path
       inkscape:connector-curvature="0"
       style="display:inline;opacity:1;fill:#ffffff;fill-opacity:0.2;stroke:none;stroke-opacity:0.2"
       d="m 47,507 c -1.108,0 -2,0.892 -2,2 v 1 c 0,-1.108 0.892,-2 2,-2 h 2 4 l 3,3 h 7 c 1.108,0 2,0.892 2,2 v -1 c 0,-1.108 -0.892,-2 -2,-2 h -7 l -3,-3 h -4 z"
       id="path4575" />
    <path
       inkscape:connector-curvature="0"
       style="display:inline;opacity:1;fill:#1685a6;fill-opacity:1;stroke:none;stroke-opacity:0.2"
       d="m 56,510 -3,3 h -6 c -1.108,0 -2,0.892 -2,2 v 1 1 1 1 1 1 1 1 2 c 0,1.108 0.892,2 2,2 h 2 13 1 c 1.108,0 2,-0.892 2,-2 v -2 -5 -1 -1 -1 -1 -1 -1 c 0,-1.108 -0.892,-2 -2,-2 h -5 -1 z"
       id="path4580" />
    <path
       inkscape:connector-curvature="0"
       style="display:inline;opacity:1;fill:#ffffff;fill-opacity:0.2;stroke:none;stroke-opacity:0.2"
       d="m 56,510 -3,3 h -6 c -1.108,0 -2,0.892 -2,2 v 1 c 0,-1.108 0.892,-2 2,-2 h 6 l 3,-3 h 1 1 5 c 1.108,0 2,0.892 2,2 v -1 c 0,-1.108 -0.892,-2 -2,-2 h -5 -1 z"
       id="path4590" />
    <path
       style="display:inline;fill:#f5f5f5;fill-opacity:1;stroke-width:0.57142818"
       inkscape:connector-curvature="0"
       id="path1069"
       d="M 28,523.05666 27.056664,524 24.000003,520.94333 20.943336,524 20,523.05666 l 4.000002,-3.99999 z" />
    <path
       style="display:inline;fill:url(#linearGradient4347);fill-opacity:1;stroke:none;stroke-width:2;stroke-linecap:round;stroke-linejoin:round;stroke-miterlimit:4;stroke-dasharray:none;stroke-opacity:1;enable-background:new"
       d="m 47,507 c -1.108,0 -2,0.892 -2,2 v 2 1 0.46094 1.53906 6 1.55469 0.44531 1 2 c 0,1.108 0.892,2 2,2 H 49 50.460938 62 63 c 1.108,0 2,-0.892 2,-2 v -2 -1 -0.46094 V 518 v -2 -1 -1 -1 c 0,-1.108 -0.892,-2 -2,-2 h -2 -4 l -4,-4 H 50.449219 49 Z"
       id="path4345"
       inkscape:connector-curvature="0" />
    <path
       inkscape:connector-curvature="0"
       id="path1077"
       d="M 80,518 V 521.55469 525 c 0,1.108 0.892,2 2,2 H 85.460938 94.550781 98 c 1.108,0 2,-0.892 2,-2 V 521.53906 518 Z"
       style="display:inline;fill:#000000;fill-opacity:0.2;stroke:none;stroke-width:2;stroke-linecap:round;stroke-linejoin:round;stroke-miterlimit:4;stroke-dasharray:none;stroke-opacity:1;enable-background:new" />
    <path
       id="path1079"
       d="m 82,506 c -1.108,0 -2,0.892 -2,2 v 2 1 2 6 2 1 2 c 0,1.108 0.892,2 2,2 h 2 13 1 c 1.108,0 2,-0.892 2,-2 v -2 -1 -4 -1 -1 -1 -1 -1 -1 c 0,-1.108 -0.892,-2 -2,-2 h -7 l -3,-3 h -4 z"
       style="display:inline;opacity:1;fill:#404752;fill-opacity:1;stroke:none;stroke-opacity:0.2"
       inkscape:connector-curvature="0" />
    <path
       id="path1081"
       d="m 82,506 c -1.108,0 -2,0.892 -2,2 v 1 c 0,-1.108 0.892,-2 2,-2 h 2 4 l 3,3 h 7 c 1.108,0 2,0.892 2,2 v -1 c 0,-1.108 -0.892,-2 -2,-2 h -7 l -3,-3 h -4 z"
       style="display:inline;opacity:1;fill:#ffffff;fill-opacity:0.2;stroke:none;stroke-opacity:0.2"
       inkscape:connector-curvature="0" />
    <path
       id="path1083"
       d="m 91,509 -3,3 h -6 c -1.108,0 -2,0.892 -2,2 v 1 1 1 1 1 1 1 1 2 c 0,1.108 0.892,2 2,2 h 2 13 1 c 1.108,0 2,-0.892 2,-2 v -2 -5 -1 -1 -1 -1 -1 -1 c 0,-1.108 -0.892,-2 -2,-2 h -5 -1 z"
       style="display:inline;opacity:1;fill:#1685a6;fill-opacity:1;stroke:none;stroke-opacity:0.2"
       inkscape:connector-curvature="0" />
    <path
       id="path1085"
       d="m 91,509 -3,3 h -6 c -1.108,0 -2,0.892 -2,2 v 1 c 0,-1.108 0.892,-2 2,-2 h 6 l 3,-3 h 1 1 5 c 1.108,0 2,0.892 2,2 v -1 c 0,-1.108 -0.892,-2 -2,-2 h -5 -1 z"
       style="display:inline;opacity:1;fill:#ffffff;fill-opacity:0.2;stroke:none;stroke-opacity:0.2"
       inkscape:connector-curvature="0" />
    <path
       inkscape:connector-curvature="0"
       id="path1091"
       d="m 82,506 c -1.108,0 -2,0.892 -2,2 v 2 1 0.46094 1.53906 6 1.55469 0.44531 1 2 c 0,1.108 0.892,2 2,2 H 84 85.460938 97 98 c 1.108,0 2,-0.892 2,-2 v -2 -1 -0.46094 V 517 v -2 -1 -1 -1 c 0,-1.108 -0.892,-2 -2,-2 h -2 -4 l -4,-4 H 85.449219 84 Z"
       style="display:inline;fill:url(#linearGradient1093);fill-opacity:1;stroke:none;stroke-width:2;stroke-linecap:round;stroke-linejoin:round;stroke-miterlimit:4;stroke-dasharray:none;stroke-opacity:1;enable-background:new" />
    <path
       style="display:inline;fill:#000000;fill-opacity:0.2;stroke-width:1.14285636"
       inkscape:connector-curvature="0"
       id="path1099"
       d="M 146,519.11332 144.11332,521 138,514.88666 131.88668,521 130,519.11332 l 8,-7.99998 z" />
    <path
       d="m 146,518.11335 -1.88668,1.88668 L 138,513.88669 131.88668,520.00003 130,518.11335 l 8,-7.99998 z"
       id="path1097"
       inkscape:connector-curvature="0"
       style="display:inline;fill:#f5f5f5;fill-opacity:1;stroke-width:1.14285636" />
    <path
       style="display:inline;fill:#ffffff;fill-opacity:1;stroke-width:1.14285636"
       d="M 138 510.11328 L 130 518.11328 L 130.5 518.61328 L 138 511.11328 L 145.5 518.61328 L 146 518.11328 L 138 510.11328 z "
       id="path1101" />
    <path
       style="display:inline;fill:url(#linearGradient4435);fill-opacity:1;stroke:none;stroke-width:2;stroke-linecap:round;stroke-linejoin:round;stroke-miterlimit:4;stroke-dasharray:none;stroke-opacity:1;enable-background:new"
       d="m 127,498 c -1.662,0 -3,1.338 -3,3 v 1 1 1 1 1 0.66211 0.33789 5 2 2 1.33789 0.66211 2 1 1 1 c 0,1.662 1.338,3 3,3 h 22 c 1.662,0 3,-1.338 3,-3 v -1 -1 -3 -1 -2 -2 -1 -1 -1 -0.60938 -2 V 507 506.66602 505 c 0,-1.662 -1.338,-3 -3,-3 h -9 l -4,-4 H 133 132.66406 131 Z"
       id="path4433"
       inkscape:connector-curvature="0" />
    <path
       style="display:inline;fill:#000000;fill-opacity:0.2;stroke-width:0.57142818"
       inkscape:connector-curvature="0"
       id="path866"
       d="M 59,522.05666 58.056664,523 55.000003,519.94333 51.943336,523 51,522.05666 l 4.000002,-3.99999 z" />
    <path
       d="M 59,521.05666 58.056664,522 55.000003,518.94333 51.943336,522 51,521.05666 l 4.000002,-3.99999 z"
       id="path864"
       inkscape:connector-curvature="0"
       style="display:inline;fill:#f5f5f5;fill-opacity:1;stroke-width:0.57142818" />
    <path
       d="M 94,521.05666 93.056664,522 90.000003,518.94333 86.943336,522 86,521.05666 l 4.000002,-3.99999 z"
       id="path868"
       inkscape:connector-curvature="0"
       style="display:inline;fill:#000000;fill-opacity:0.2;stroke-width:0.57142818" />
    <path
       style="display:inline;fill:#f5f5f5;fill-opacity:1;stroke-width:0.57142818"
       inkscape:connector-curvature="0"
       id="path870"
       d="M 94,520.05666 93.056664,521 90.000003,517.94333 86.943336,521 86,520.05666 l 4.000002,-3.99999 z" />
  </g>
</svg>
