<?xml version="1.0" encoding="UTF-8" standalone="no"?>
<!-- Created with Inkscape (http://www.inkscape.org/) -->

<svg
   xmlns:dc="http://purl.org/dc/elements/1.1/"
   xmlns:cc="http://creativecommons.org/ns#"
   xmlns:rdf="http://www.w3.org/1999/02/22-rdf-syntax-ns#"
   xmlns:svg="http://www.w3.org/2000/svg"
   xmlns="http://www.w3.org/2000/svg"
   xmlns:xlink="http://www.w3.org/1999/xlink"
   xmlns:sodipodi="http://sodipodi.sourceforge.net/DTD/sodipodi-0.dtd"
   xmlns:inkscape="http://www.inkscape.org/namespaces/inkscape"
   width="126"
   height="56"
   viewBox="0 0 126 56"
   version="1.1"
   id="svg1087"
   inkscape:version="0.92.2 5c3e80d, 2017-08-06"
   sodipodi:docname="document-print.svg">
  <defs
     id="defs1081">
    <linearGradient
       inkscape:collect="always"
       xlink:href="#linearGradient4596"
       id="linearGradient4540"
       gradientUnits="userSpaceOnUse"
       gradientTransform="matrix(0.5,0,0,0.5,77.38477,491.40917)"
       x1="-58.769531"
       y1="31.181641"
       x2="-18.769531"
       y2="71.181641" />
    <linearGradient
       id="linearGradient4596"
       inkscape:collect="always">
      <stop
         id="stop4592"
         offset="0"
         style="stop-color:#ffffff;stop-opacity:0.05490196" />
      <stop
         id="stop4594"
         offset="1"
         style="stop-color:#177ed5;stop-opacity:0" />
    </linearGradient>
    <linearGradient
       inkscape:collect="always"
       xlink:href="#linearGradient4596"
       id="linearGradient898"
       gradientUnits="userSpaceOnUse"
       gradientTransform="matrix(0.5,0,0,0.5,116.38477,490.40917)"
       x1="-58.769531"
       y1="31.181641"
       x2="-18.769531"
       y2="71.181641" />
  </defs>
  <sodipodi:namedview
     id="base"
     pagecolor="#c3c3c3"
     bordercolor="#333333"
     borderopacity="1"
     inkscape:pageopacity="0"
     inkscape:pageshadow="2"
     inkscape:zoom="2.8"
     inkscape:cx="159.97824"
     inkscape:cy="-45.091658"
     inkscape:document-units="px"
     inkscape:current-layer="layer1"
     showgrid="true"
     units="px"
     inkscape:showpageshadow="false"
     inkscape:window-width="1280"
     inkscape:window-height="1370"
     inkscape:window-x="0"
     inkscape:window-y="34"
     inkscape:window-maximized="0">
    <inkscape:grid
       type="xygrid"
       id="grid4630" />
  </sodipodi:namedview>
  <metadata
     id="metadata1084">
    <rdf:RDF>
      <cc:Work
         rdf:about="">
        <dc:format>image/svg+xml</dc:format>
        <dc:type
           rdf:resource="http://purl.org/dc/dcmitype/StillImage" />
        <dc:title></dc:title>
        <cc:license
           rdf:resource="http://creativecommons.org/licenses/by-sa/4.0/" />
        <dc:creator>
          <cc:Agent>
            <dc:title>Peter Cornelis</dc:title>
          </cc:Agent>
        </dc:creator>
      </cc:Work>
      <cc:License
         rdf:about="http://creativecommons.org/licenses/by-sa/4.0/">
        <cc:permits
           rdf:resource="http://creativecommons.org/ns#Reproduction" />
        <cc:permits
           rdf:resource="http://creativecommons.org/ns#Distribution" />
        <cc:requires
           rdf:resource="http://creativecommons.org/ns#Notice" />
        <cc:requires
           rdf:resource="http://creativecommons.org/ns#Attribution" />
        <cc:permits
           rdf:resource="http://creativecommons.org/ns#DerivativeWorks" />
        <cc:requires
           rdf:resource="http://creativecommons.org/ns#ShareAlike" />
      </cc:License>
    </rdf:RDF>
  </metadata>
  <g
     inkscape:label="Baseplate"
     inkscape:groupmode="layer"
     id="layer1"
     transform="translate(0,-641.06668)"
     style="display:none">
    <text
       y="733.32251"
       xml:space="preserve"
       x="-0.99316406"
       style="font-style:normal;font-variant:normal;font-weight:normal;font-stretch:normal;line-height:0%;font-family:'DejaVu Sans';-inkscape-font-specification:'DejaVu Sans';display:inline;fill:#000000;fill-opacity:1;stroke:none;enable-background:new"
       inkscape:label="context"
       id="context"><tspan
         style="font-style:normal;font-variant:normal;font-weight:normal;font-stretch:normal;font-size:18px;line-height:1.25;font-family:'DejaVu Sans';-inkscape-font-specification:'DejaVu Sans'"
         y="733.32251"
         x="-0.99316406"
         sodipodi:role="line"
         id="tspan3933">actions</tspan></text>
    <text
       y="733.32251"
       xml:space="preserve"
       x="126.48828"
       style="font-style:normal;font-variant:normal;font-weight:bold;font-stretch:normal;line-height:0%;font-family:'DejaVu Sans';-inkscape-font-specification:'DejaVu Sans Bold';text-align:start;writing-mode:lr-tb;text-anchor:start;display:inline;fill:#000000;fill-opacity:1;stroke:none;enable-background:new"
       inkscape:label="icon-name"
       id="icon-name"><tspan
         style="font-style:normal;font-variant:normal;font-weight:bold;font-stretch:normal;font-size:18px;line-height:1.25;font-family:'DejaVu Sans';-inkscape-font-specification:'DejaVu Sans Bold'"
         y="733.32251"
         x="126.48828"
         sodipodi:role="line"
         id="tspan3937">document-print</tspan></text>
    <rect
       style="display:inline;overflow:visible;visibility:visible;fill:#fefefe;fill-opacity:1;fill-rule:nonzero;stroke:none;stroke-width:2;marker:none;enable-background:accumulate"
       id="rect16x16"
       width="16"
       height="16"
       x="-32"
       y="665.06665"
       inkscape:label="16x16"
       transform="scale(-1,1)" />
    <rect
       transform="scale(-1,1)"
       inkscape:label="16x16"
       y="659.06665"
       x="-70"
       height="22"
       width="22"
       id="rect847"
       style="display:inline;overflow:visible;visibility:visible;fill:#fefefe;fill-opacity:1;fill-rule:nonzero;stroke:none;stroke-width:2.75;marker:none;enable-background:accumulate" />
    <rect
       style="display:inline;overflow:visible;visibility:visible;fill:#fefefe;fill-opacity:1;fill-rule:nonzero;stroke:none;stroke-width:3;marker:none;enable-background:accumulate"
       id="rect851"
       width="24"
       height="24"
       x="-110"
       y="657.06665"
       inkscape:label="16x16"
       transform="scale(-1,1)" />
  </g>
  <g
     inkscape:groupmode="layer"
     id="layer2"
     inkscape:label="Bitmap"
     style="display:inline"
     transform="translate(0,-488)">
    <path
       style="display:inline;opacity:1;fill:#000000;fill-opacity:0.2;stroke:none;stroke-width:0.1;stroke-linecap:round;stroke-linejoin:round;stroke-miterlimit:4;stroke-dasharray:none;stroke-opacity:1;enable-background:new"
       d="m 52.5,508 c -0.831,0 -1.5,0.669 -1.5,1.5 v 0.5 h -1.5 c -0.831,0 -1.5,0.669 -1.5,1.5 v 7 c 0,0.831 0.669,1.5 1.5,1.5 h 2 v 2.5 c 0,0.277 0.223,0.5 0.5,0.5 v 3.5 c 0,0.831 0.669,1.5 1.5,1.5 h 11 c 0.831,0 1.5,-0.669 1.5,-1.5 V 523 c 0.277,0 0.5,-0.223 0.5,-0.5 V 520 h 2 c 0.831,0 1.5,-0.669 1.5,-1.5 v -7 c 0,-0.4155 -0.16735,-0.7904 -0.43847,-1.06155 C 69.2904,510.16735 68.9155,510 68.5,510 H 67 v -0.5 c 0,-0.831 -0.669,-1.5 -1.5,-1.5 z"
       id="path4626"
       inkscape:connector-curvature="0" />
    <path
       sodipodi:nodetypes="sssssssss"
       inkscape:connector-curvature="0"
       id="path4513"
       d="m 52.5,507 h 13 c 0.831,0 1.5,0.669 1.5,1.5 v 5 c 0,0.831 -0.669,1.5 -1.5,1.5 h -13 c -0.831,0 -1.5,-0.669 -1.5,-1.5 v -5 c 0,-0.831 0.669,-1.5 1.5,-1.5 z"
       style="display:inline;opacity:1;fill:#262a30;fill-opacity:1;stroke:none;stroke-width:0.1;stroke-linecap:round;stroke-linejoin:round;stroke-miterlimit:4;stroke-dasharray:none;stroke-opacity:1;enable-background:new" />
    <path
       inkscape:connector-curvature="0"
       style="display:inline;opacity:1;fill:#ffffff;fill-opacity:0.2;stroke:none;stroke-width:0.1;stroke-linecap:round;stroke-linejoin:round;stroke-miterlimit:4;stroke-dasharray:none;stroke-opacity:1;enable-background:new"
       d="m 52.5,507 c -0.831,0 -1.5,0.669 -1.5,1.5 v 1 c 0,-0.831 0.669,-1.5 1.5,-1.5 h 13 c 0.831,0 1.5,0.669 1.5,1.5 v -1 c 0,-0.831 -0.669,-1.5 -1.5,-1.5 z"
       id="path4568" />
    <path
       sodipodi:nodetypes="scscssssssss"
       inkscape:connector-curvature="0"
       id="path4515"
       d="m 49.5,509 h 3.5 6 6 3.5 c 0.831,0 1.5,0.669 1.5,1.5 v 7 c 0,0.831 -0.669,1.5 -1.5,1.5 h -19 c -0.831,0 -1.5,-0.669 -1.5,-1.5 v -7 c 0,-0.831 0.669,-1.5 1.5,-1.5 z"
       style="display:inline;opacity:1;fill:#3b414b;fill-opacity:1;stroke:none;stroke-width:0.1;stroke-linecap:round;stroke-linejoin:round;stroke-miterlimit:4;stroke-dasharray:none;stroke-opacity:1;enable-background:new" />
    <rect
       ry="0.5"
       rx="0.5"
       y="517.5"
       x="51.500015"
       height="4.5000086"
       width="15"
       id="rect4519"
       style="display:inline;opacity:1;fill:#262a30;fill-opacity:1;stroke:none;stroke-width:0.1;stroke-linecap:round;stroke-linejoin:round;stroke-miterlimit:4;stroke-dasharray:none;stroke-opacity:1;enable-background:new" />
    <rect
       ry="0.5"
       rx="0.5"
       y="516"
       x="51.000015"
       height="2"
       width="16"
       id="rect4521"
       style="display:inline;opacity:1;fill:#1a1a1a;fill-opacity:1;stroke:none;stroke-width:0.1;stroke-linecap:round;stroke-linejoin:round;stroke-miterlimit:4;stroke-dasharray:none;stroke-opacity:1;enable-background:new" />
    <path
       sodipodi:nodetypes="csccccc"
       inkscape:connector-curvature="0"
       id="path4523"
       d="m 52,516.5 v 9 c 0,0.831 0.669,1.5 1.5,1.5 3.6065,0 7.56349,0 11,0 0.831,0 1.5,-0.669 1.5,-1.5 0,-3.0382 0,-6.3327 0,-9 z"
       style="display:inline;opacity:1;fill:#ededed;fill-opacity:1;stroke:none;stroke-width:0.1;stroke-linecap:round;stroke-linejoin:round;stroke-miterlimit:4;stroke-dasharray:none;stroke-opacity:1;enable-background:new" />
    <path
       inkscape:connector-curvature="0"
       id="path4525"
       d="m 52,516.5 v 0.5 h 14 v -0.5 z"
       style="display:inline;fill:#000000;fill-opacity:0.2;fill-rule:evenodd;stroke:none;stroke-width:1px;stroke-linecap:butt;stroke-linejoin:miter;stroke-opacity:1;enable-background:new" />
    <circle
       r="1"
       cy="512"
       cx="68.000015"
       id="circle4533"
       style="display:inline;opacity:1;fill:#d5314f;fill-opacity:1;stroke:none;stroke-width:0.1;stroke-linecap:round;stroke-linejoin:round;stroke-miterlimit:4;stroke-dasharray:none;stroke-opacity:1;enable-background:new" />
    <path
       inkscape:connector-curvature="0"
       id="path4537"
       d="m 52.5,507 c -0.831,0 -1.5,0.669 -1.5,1.5 v 0.5 h -1.5 c -0.831,0 -1.5,0.669 -1.5,1.5 v 7 c 0,0.831 0.669,1.5 1.5,1.5 h 2 v 2.5 c 0,0.277 0.223,0.5 0.5,0.5 v 3.5 c 0,0.831 0.669,1.5 1.5,1.5 h 11 c 0.831,0 1.5,-0.669 1.5,-1.5 V 522 c 0.277,0 0.5,-0.223 0.5,-0.5 V 519 h 2 c 0.831,0 1.5,-0.669 1.5,-1.5 v -7 c 0,-0.4155 -0.16735,-0.7904 -0.43847,-1.06155 C 69.2904,509.16735 68.9155,509 68.5,509 H 67 v -0.5 c 0,-0.831 -0.669,-1.5 -1.5,-1.5 z"
       style="display:inline;opacity:1;fill:url(#linearGradient4540);fill-opacity:1;stroke:none;stroke-width:0.1;stroke-linecap:round;stroke-linejoin:round;stroke-miterlimit:4;stroke-dasharray:none;stroke-opacity:1;enable-background:new" />
    <path
       inkscape:connector-curvature="0"
       style="display:inline;opacity:1;fill:#ffffff;fill-opacity:0.2;stroke:none;stroke-width:0.1;stroke-linecap:round;stroke-linejoin:round;stroke-miterlimit:4;stroke-dasharray:none;stroke-opacity:1;enable-background:new"
       d="m 49.5,509 c -0.831,0 -1.5,0.669 -1.5,1.5 v 1 c 0,-0.831 0.669,-1.5 1.5,-1.5 h 3.5 6 6 3.5 c 0.831,0 1.5,0.669 1.5,1.5 v -1 C 70,509.669 69.331,509 68.5,509 H 65 59 53 Z"
       id="path4575" />
    <path
       style="display:inline;opacity:1;fill:#000000;fill-opacity:0.2;stroke:none;stroke-width:0.1;stroke-linecap:round;stroke-linejoin:round;stroke-miterlimit:4;stroke-dasharray:none;stroke-opacity:1;enable-background:new"
       d="m 60,525.5 c 0,0 -0.669,0 -1.5,0 h -11 c -0.831,0 -1.5,0 -1.5,0 0,0 0.76563,0 1.5,0 3.00586,0 11,0 11,0 0.74564,0 1.5,0 1.5,0 z"
       id="path4582"
       inkscape:connector-curvature="0"
       sodipodi:nodetypes="ccccssc" />
    <path
       style="display:inline;opacity:1;fill:#262a30;fill-opacity:1;stroke:none;stroke-width:0.1;stroke-linecap:round;stroke-linejoin:round;stroke-miterlimit:4;stroke-dasharray:none;stroke-opacity:1;enable-background:new"
       d="m 17.5,512 h 13 c 0.831,0 1.5,0.669 1.5,1.5 v 5 c 0,0.831 -0.669,1.5 -1.5,1.5 h -13 c -0.831,0 -1.5,-0.669 -1.5,-1.5 v -5 c 0,-0.831 0.669,-1.5 1.5,-1.5 z"
       id="path4442"
       inkscape:connector-curvature="0"
       sodipodi:nodetypes="sssssssss" />
    <rect
       style="display:inline;opacity:1;fill:#1a1a1a;fill-opacity:1;stroke:none;stroke-width:0.1;stroke-linecap:round;stroke-linejoin:round;stroke-miterlimit:4;stroke-dasharray:none;stroke-opacity:1;enable-background:new"
       id="rect4450"
       width="16"
       height="2"
       x="16.000017"
       y="521"
       rx="0.5"
       ry="0.5" />
    <path
       style="display:inline;fill:#000000;fill-opacity:0.2;fill-rule:evenodd;stroke:none;stroke-width:1px;stroke-linecap:butt;stroke-linejoin:miter;stroke-opacity:1;enable-background:new"
       d="m 17,521.5 v 0.5 h 14 v -0.5 z"
       id="path4457"
       inkscape:connector-curvature="0" />
    <rect
       style="display:inline;fill:#3b414b;fill-opacity:1;stroke:none;enable-background:new"
       id="rect4472"
       width="16"
       height="7"
       x="16.000017"
       y="512"
       rx="1"
       ry="1" />
    <rect
       ry="1"
       rx="1"
       y="516"
       x="16.000017"
       height="10"
       width="16"
       id="rect4477"
       style="display:inline;fill:#2f343c;fill-opacity:1;stroke:none;enable-background:new" />
    <path
       style="display:inline;opacity:1;fill:#ededed;fill-opacity:1;stroke:none;stroke-width:0.1;stroke-linecap:round;stroke-linejoin:round;stroke-miterlimit:4;stroke-dasharray:none;stroke-opacity:1;enable-background:new"
       d="m 17,517.5 v 9 c 0,0.831 0.669,1.5 1.5,1.5 3.6065,0 7.56349,0 11,0 0.831,0 1.5,-0.669 1.5,-1.5 0,-3.0382 0,-6.3327 0,-9 z"
       id="path4454"
       inkscape:connector-curvature="0"
       sodipodi:nodetypes="csccccc" />
    <rect
       style="display:inline;fill:#3b414b;fill-opacity:1;stroke:none;enable-background:new"
       id="rect4474"
       width="16"
       height="10"
       x="16.000017"
       y="513"
       rx="1"
       ry="1" />
    <circle
       style="display:inline;opacity:1;fill:#d5314f;fill-opacity:1;stroke:none;stroke-width:0.1;stroke-linecap:round;stroke-linejoin:round;stroke-miterlimit:4;stroke-dasharray:none;stroke-opacity:1;enable-background:new"
       id="circle4461"
       cx="30.000017"
       cy="516"
       r="1" />
    <path
       inkscape:connector-curvature="0"
       id="path876"
       d="m 91.5,507 c -0.831,0 -1.5,0.669 -1.5,1.5 v 0.5 h -1.5 c -0.831,0 -1.5,0.669 -1.5,1.5 v 7 c 0,0.831 0.669,1.5 1.5,1.5 h 2 v 2.5 c 0,0.277 0.223,0.5 0.5,0.5 v 3.5 c 0,0.831 0.669,1.5 1.5,1.5 h 11 c 0.831,0 1.5,-0.669 1.5,-1.5 V 522 c 0.277,0 0.5,-0.223 0.5,-0.5 V 519 h 2 c 0.831,0 1.5,-0.669 1.5,-1.5 v -7 c 0,-0.4155 -0.16735,-0.7904 -0.43847,-1.06155 C 108.2904,509.16735 107.9155,509 107.5,509 H 106 v -0.5 c 0,-0.831 -0.669,-1.5 -1.5,-1.5 z"
       style="display:inline;opacity:1;fill:#000000;fill-opacity:0.2;stroke:none;stroke-width:0.1;stroke-linecap:round;stroke-linejoin:round;stroke-miterlimit:4;stroke-dasharray:none;stroke-opacity:1;enable-background:new" />
    <path
       style="display:inline;opacity:1;fill:#262a30;fill-opacity:1;stroke:none;stroke-width:0.1;stroke-linecap:round;stroke-linejoin:round;stroke-miterlimit:4;stroke-dasharray:none;stroke-opacity:1;enable-background:new"
       d="m 91.5,506 h 13 c 0.831,0 1.5,0.669 1.5,1.5 v 5 c 0,0.831 -0.669,1.5 -1.5,1.5 h -13 c -0.831,0 -1.5,-0.669 -1.5,-1.5 v -5 c 0,-0.831 0.669,-1.5 1.5,-1.5 z"
       id="path878"
       inkscape:connector-curvature="0"
       sodipodi:nodetypes="sssssssss" />
    <path
       id="path880"
       d="m 91.5,506 c -0.831,0 -1.5,0.669 -1.5,1.5 v 1 c 0,-0.831 0.669,-1.5 1.5,-1.5 h 13 c 0.831,0 1.5,0.669 1.5,1.5 v -1 c 0,-0.831 -0.669,-1.5 -1.5,-1.5 z"
       style="display:inline;opacity:1;fill:#ffffff;fill-opacity:0.2;stroke:none;stroke-width:0.1;stroke-linecap:round;stroke-linejoin:round;stroke-miterlimit:4;stroke-dasharray:none;stroke-opacity:1;enable-background:new"
       inkscape:connector-curvature="0" />
    <path
       style="display:inline;opacity:1;fill:#3b414b;fill-opacity:1;stroke:none;stroke-width:0.1;stroke-linecap:round;stroke-linejoin:round;stroke-miterlimit:4;stroke-dasharray:none;stroke-opacity:1;enable-background:new"
       d="m 88.5,508 h 3.5 6 6 3.5 c 0.831,0 1.5,0.669 1.5,1.5 v 7 c 0,0.831 -0.669,1.5 -1.5,1.5 h -19 c -0.831,0 -1.5,-0.669 -1.5,-1.5 v -7 c 0,-0.831 0.669,-1.5 1.5,-1.5 z"
       id="path882"
       inkscape:connector-curvature="0"
       sodipodi:nodetypes="scscssssssss" />
    <rect
       style="display:inline;opacity:1;fill:#262a30;fill-opacity:1;stroke:none;stroke-width:0.1;stroke-linecap:round;stroke-linejoin:round;stroke-miterlimit:4;stroke-dasharray:none;stroke-opacity:1;enable-background:new"
       id="rect884"
       width="15"
       height="4.5000086"
       x="90.500015"
       y="516.5"
       rx="0.5"
       ry="0.5" />
    <rect
       style="display:inline;opacity:1;fill:#1a1a1a;fill-opacity:1;stroke:none;stroke-width:0.1;stroke-linecap:round;stroke-linejoin:round;stroke-miterlimit:4;stroke-dasharray:none;stroke-opacity:1;enable-background:new"
       id="rect886"
       width="16"
       height="2"
       x="90.000015"
       y="515"
       rx="0.5"
       ry="0.5" />
    <path
       style="display:inline;opacity:1;fill:#ededed;fill-opacity:1;stroke:none;stroke-width:0.1;stroke-linecap:round;stroke-linejoin:round;stroke-miterlimit:4;stroke-dasharray:none;stroke-opacity:1;enable-background:new"
       d="m 91,515.5 v 9 c 0,0.831 0.669,1.5 1.5,1.5 3.6065,0 7.56349,0 11,0 0.831,0 1.5,-0.669 1.5,-1.5 0,-3.0382 0,-6.3327 0,-9 z"
       id="path888"
       inkscape:connector-curvature="0"
       sodipodi:nodetypes="csccccc" />
    <path
       style="display:inline;fill:#000000;fill-opacity:0.2;fill-rule:evenodd;stroke:none;stroke-width:1px;stroke-linecap:butt;stroke-linejoin:miter;stroke-opacity:1;enable-background:new"
       d="m 91,515.5 v 0.5 h 14 v -0.5 z"
       id="path890"
       inkscape:connector-curvature="0" />
    <circle
       style="display:inline;opacity:1;fill:#d5314f;fill-opacity:1;stroke:none;stroke-width:0.1;stroke-linecap:round;stroke-linejoin:round;stroke-miterlimit:4;stroke-dasharray:none;stroke-opacity:1;enable-background:new"
       id="circle892"
       cx="107.00002"
       cy="511"
       r="1" />
    <path
       style="display:inline;opacity:1;fill:url(#linearGradient898);fill-opacity:1;stroke:none;stroke-width:0.1;stroke-linecap:round;stroke-linejoin:round;stroke-miterlimit:4;stroke-dasharray:none;stroke-opacity:1;enable-background:new"
       d="m 91.5,506 c -0.831,0 -1.5,0.669 -1.5,1.5 v 0.5 h -1.5 c -0.831,0 -1.5,0.669 -1.5,1.5 v 7 c 0,0.831 0.669,1.5 1.5,1.5 h 2 v 2.5 c 0,0.277 0.223,0.5 0.5,0.5 v 3.5 c 0,0.831 0.669,1.5 1.5,1.5 h 11 c 0.831,0 1.5,-0.669 1.5,-1.5 V 521 c 0.277,0 0.5,-0.223 0.5,-0.5 V 518 h 2 c 0.831,0 1.5,-0.669 1.5,-1.5 v -7 c 0,-0.4155 -0.16735,-0.7904 -0.43847,-1.06155 C 108.2904,508.16735 107.9155,508 107.5,508 H 106 v -0.5 c 0,-0.831 -0.669,-1.5 -1.5,-1.5 z"
       id="path894"
       inkscape:connector-curvature="0" />
    <path
       id="path896"
       d="m 88.5,508 c -0.831,0 -1.5,0.669 -1.5,1.5 v 1 c 0,-0.831 0.669,-1.5 1.5,-1.5 h 3.5 6 6 3.5 c 0.831,0 1.5,0.669 1.5,1.5 v -1 c 0,-0.831 -0.669,-1.5 -1.5,-1.5 H 104 98 92 Z"
       style="display:inline;opacity:1;fill:#ffffff;fill-opacity:0.2;stroke:none;stroke-width:0.1;stroke-linecap:round;stroke-linejoin:round;stroke-miterlimit:4;stroke-dasharray:none;stroke-opacity:1;enable-background:new"
       inkscape:connector-curvature="0" />
  </g>
</svg>
