<?xml version="1.0" encoding="UTF-8" standalone="no"?>
<!-- Created with Inkscape (http://www.inkscape.org/) -->

<svg
   xmlns:dc="http://purl.org/dc/elements/1.1/"
   xmlns:cc="http://creativecommons.org/ns#"
   xmlns:rdf="http://www.w3.org/1999/02/22-rdf-syntax-ns#"
   xmlns:svg="http://www.w3.org/2000/svg"
   xmlns="http://www.w3.org/2000/svg"
   xmlns:xlink="http://www.w3.org/1999/xlink"
   xmlns:sodipodi="http://sodipodi.sourceforge.net/DTD/sodipodi-0.dtd"
   xmlns:inkscape="http://www.inkscape.org/namespaces/inkscape"
   width="126"
   height="56"
   viewBox="0 0 126 56"
   version="1.1"
   id="svg1087"
   inkscape:version="0.92.2 5c3e80d, 2017-08-06"
   sodipodi:docname="document-print.svg">
  <defs
     id="defs1081">
    <linearGradient
       inkscape:collect="always"
       xlink:href="#linearGradient4596"
       id="linearGradient4540"
       gradientUnits="userSpaceOnUse"
       gradientTransform="matrix(0.5,0,0,0.5,77.38477,491.40917)"
       x1="-58.769531"
       y1="31.181641"
       x2="-18.769531"
       y2="71.181641" />
    <linearGradient
       id="linearGradient4596"
       inkscape:collect="always">
      <stop
         id="stop4592"
         offset="0"
         style="stop-color:#ffffff;stop-opacity:0.05490196" />
      <stop
         id="stop4594"
         offset="1"
         style="stop-color:#177ed5;stop-opacity:0" />
    </linearGradient>
    <linearGradient
       inkscape:collect="always"
       xlink:href="#linearGradient5320"
       id="linearGradient4572"
       gradientUnits="userSpaceOnUse"
       x1="67.646446"
       y1="514.35358"
       x2="72.5"
       y2="514.35358"
       gradientTransform="translate(-43,4)" />
    <linearGradient
       id="linearGradient5320"
       inkscape:collect="always">
      <stop
         id="stop5322"
         offset="0"
         style="stop-color:#000000;stop-opacity:0.15000001" />
      <stop
         id="stop5324"
         offset="1"
         style="stop-color:#000000;stop-opacity:0;" />
    </linearGradient>
    <linearGradient
       inkscape:collect="always"
       xlink:href="#linearGradient5320"
       id="linearGradient4591"
       gradientUnits="userSpaceOnUse"
       x1="67.646446"
       y1="514.35358"
       x2="72.5"
       y2="514.35358"
       gradientTransform="translate(-5,1)" />
    <linearGradient
       inkscape:collect="always"
       xlink:href="#linearGradient5320"
       id="linearGradient992"
       gradientUnits="userSpaceOnUse"
       gradientTransform="translate(34)"
       x1="67.646446"
       y1="514.35358"
       x2="72.5"
       y2="514.35358" />
    <linearGradient
       inkscape:collect="always"
       xlink:href="#linearGradient4596"
       id="linearGradient994"
       gradientUnits="userSpaceOnUse"
       gradientTransform="matrix(0.5,0,0,0.5,116.38477,490.40917)"
       x1="-58.769531"
       y1="31.181641"
       x2="-18.769531"
       y2="71.181641" />
  </defs>
  <sodipodi:namedview
     id="base"
     pagecolor="#c3c3c3"
     bordercolor="#333333"
     borderopacity="1"
     inkscape:pageopacity="0"
     inkscape:pageshadow="2"
     inkscape:zoom="3.959798"
     inkscape:cx="-26.707649"
     inkscape:cy="0.96438724"
     inkscape:document-units="px"
     inkscape:current-layer="layer2"
     showgrid="true"
     units="px"
     inkscape:showpageshadow="false"
     inkscape:window-width="2560"
     inkscape:window-height="1370"
     inkscape:window-x="0"
     inkscape:window-y="34"
     inkscape:window-maximized="1">
    <inkscape:grid
       type="xygrid"
       id="grid4630" />
  </sodipodi:namedview>
  <metadata
     id="metadata1084">
    <rdf:RDF>
      <cc:Work
         rdf:about="">
        <dc:format>image/svg+xml</dc:format>
        <dc:type
           rdf:resource="http://purl.org/dc/dcmitype/StillImage" />
        <dc:title />
        <cc:license
           rdf:resource="http://creativecommons.org/licenses/by-sa/4.0/" />
        <dc:creator>
          <cc:Agent>
            <dc:title>Peter Cornelis</dc:title>
          </cc:Agent>
        </dc:creator>
      </cc:Work>
      <cc:License
         rdf:about="http://creativecommons.org/licenses/by-sa/4.0/">
        <cc:permits
           rdf:resource="http://creativecommons.org/ns#Reproduction" />
        <cc:permits
           rdf:resource="http://creativecommons.org/ns#Distribution" />
        <cc:requires
           rdf:resource="http://creativecommons.org/ns#Notice" />
        <cc:requires
           rdf:resource="http://creativecommons.org/ns#Attribution" />
        <cc:permits
           rdf:resource="http://creativecommons.org/ns#DerivativeWorks" />
        <cc:requires
           rdf:resource="http://creativecommons.org/ns#ShareAlike" />
      </cc:License>
    </rdf:RDF>
  </metadata>
  <g
     inkscape:label="Baseplate"
     inkscape:groupmode="layer"
     id="layer1"
     transform="translate(0,-641.06668)"
     style="display:none">
    <text
       y="733.32251"
       xml:space="preserve"
       x="-0.99316406"
       style="font-style:normal;font-variant:normal;font-weight:normal;font-stretch:normal;line-height:0%;font-family:'DejaVu Sans';-inkscape-font-specification:'DejaVu Sans';display:inline;fill:#000000;fill-opacity:1;stroke:none;enable-background:new"
       inkscape:label="context"
       id="context"><tspan
         style="font-style:normal;font-variant:normal;font-weight:normal;font-stretch:normal;font-size:18px;line-height:1.25;font-family:'DejaVu Sans';-inkscape-font-specification:'DejaVu Sans'"
         y="733.32251"
         x="-0.99316406"
         sodipodi:role="line"
         id="tspan3933">actions</tspan></text>
    <text
       y="733.32251"
       xml:space="preserve"
       x="126.48828"
       style="font-style:normal;font-variant:normal;font-weight:bold;font-stretch:normal;line-height:0%;font-family:'DejaVu Sans';-inkscape-font-specification:'DejaVu Sans Bold';text-align:start;writing-mode:lr-tb;text-anchor:start;display:inline;fill:#000000;fill-opacity:1;stroke:none;enable-background:new"
       inkscape:label="icon-name"
       id="icon-name"><tspan
         style="font-style:normal;font-variant:normal;font-weight:bold;font-stretch:normal;font-size:18px;line-height:1.25;font-family:'DejaVu Sans';-inkscape-font-specification:'DejaVu Sans Bold'"
         y="733.32251"
         x="126.48828"
         sodipodi:role="line"
         id="tspan3937">document-print</tspan></text>
    <rect
       style="display:inline;overflow:visible;visibility:visible;fill:#fefefe;fill-opacity:1;fill-rule:nonzero;stroke:none;stroke-width:2;marker:none;enable-background:accumulate"
       id="rect16x16"
       width="16"
       height="16"
       x="-32"
       y="665.06665"
       inkscape:label="16x16"
       transform="scale(-1,1)" />
    <rect
       transform="scale(-1,1)"
       inkscape:label="16x16"
       y="659.06665"
       x="-70"
       height="22"
       width="22"
       id="rect847"
       style="display:inline;overflow:visible;visibility:visible;fill:#fefefe;fill-opacity:1;fill-rule:nonzero;stroke:none;stroke-width:2.75;marker:none;enable-background:accumulate" />
    <rect
       style="display:inline;overflow:visible;visibility:visible;fill:#fefefe;fill-opacity:1;fill-rule:nonzero;stroke:none;stroke-width:3;marker:none;enable-background:accumulate"
       id="rect851"
       width="24"
       height="24"
       x="-110"
       y="657.06665"
       inkscape:label="16x16"
       transform="scale(-1,1)" />
  </g>
  <g
     inkscape:groupmode="layer"
     id="layer2"
     inkscape:label="Bitmap"
     style="display:inline"
     transform="translate(0,-488)">
    <path
       style="display:inline;fill:none;fill-opacity:1;fill-rule:evenodd;stroke:#000000;stroke-width:1;stroke-linecap:butt;stroke-linejoin:miter;stroke-opacity:0.2;enable-background:new;stroke-miterlimit:4;stroke-dasharray:none"
       d="M 21 25 C 19.892 25 19 25.89199 19 27 L 19 30 L 18 30 C 17.446 30 17 30.446 17 31 L 17 37 C 17 37.554 17.446 38 18 38 L 30 38 C 30.554 38 31 37.554 31 37 L 31 31 C 31 30.446 30.554 30 30 30 L 29 30 L 29 29 L 25 25 L 24 25 L 23 25 L 22 25 L 21 25 z "
       transform="translate(0,488)"
       id="path866" />
    <path
       style="display:inline;fill:#000000;fill-opacity:0.2;fill-rule:evenodd;stroke:none;stroke-width:1px;stroke-linecap:butt;stroke-linejoin:miter;stroke-opacity:1;enable-background:new"
       d="m 17,521.5 v 0.5 h 14 v -0.5 z"
       id="path4457"
       inkscape:connector-curvature="0" />
    <path
       style="display:inline;fill:#ececec;fill-opacity:1;fill-rule:evenodd;stroke:none;stroke-width:4.86648273px;stroke-linecap:butt;stroke-linejoin:miter;stroke-opacity:1;enable-background:new"
       d="M 21 25 C 19.892 25 19 25.89199 19 27 L 19 30 L 29 30 L 29 29 L 25 25 L 24 25 L 23 25 L 22 25 L 21 25 z "
       transform="translate(0,488)"
       id="rect4630-7-2" />
    <path
       style="display:inline;fill:url(#linearGradient4572);fill-opacity:1;stroke:none;stroke-width:1px;stroke-linecap:butt;stroke-linejoin:miter;stroke-opacity:1"
       d="m 27,517 2,2 v -1 -1 z"
       id="path4570"
       inkscape:connector-curvature="0"
       sodipodi:nodetypes="ccccc" />
    <rect
       style="opacity:1;fill:#c5c9cb;fill-opacity:1;stroke:none;stroke-width:5.6500001;stroke-linecap:round;stroke-linejoin:round;stroke-miterlimit:4;stroke-dasharray:none;stroke-opacity:0.1"
       id="rect862"
       width="14"
       height="8"
       x="17"
       y="518"
       rx="1"
       ry="1" />
    <circle
       style="display:inline;opacity:1;fill:#16a3cc;fill-opacity:1;stroke:none;stroke-width:0.1;stroke-linecap:round;stroke-linejoin:round;stroke-miterlimit:4;stroke-dasharray:none;stroke-opacity:1;enable-background:new"
       id="circle4461"
       cx="29"
       cy="520"
       r="1" />
    <rect
       style="opacity:1;fill:#3b414b;fill-opacity:1;stroke:none;stroke-width:5.6500001;stroke-linecap:round;stroke-linejoin:round;stroke-miterlimit:4;stroke-dasharray:none;stroke-opacity:0.1"
       id="rect864"
       width="10"
       height="2"
       x="19"
       y="523"
       rx="1"
       ry="1" />
    <path
       style="fill:#ffffff;fill-opacity:0.80000001;stroke:none;stroke-width:1px;stroke-linecap:butt;stroke-linejoin:miter;stroke-opacity:1"
       d="m 29,517 -4,-4 v 2 c 0,1.10801 0.892,2 2,2 z"
       id="path895"
       inkscape:connector-curvature="0" />
    <path
       inkscape:connector-curvature="0"
       id="path862"
       d="m 53,507 c -1.108,0 -2,0.892 -2,2 v 7 H 50.427734 C 49.636307,516 49,516.63631 49,517.42773 v 1.48047 6.66407 C 49,526.36369 49.636307,527 50.427734,527 H 67.572266 C 68.363693,527 69,526.36369 69,525.57227 v -6.66407 -1.48047 C 69,516.63631 68.363693,516 67.572266,516 H 67 v -3 l -6,-6 z"
       style="display:inline;opacity:1;fill:none;fill-opacity:1;stroke:#000000;stroke-width:1;stroke-linecap:round;stroke-linejoin:round;stroke-miterlimit:4;stroke-dasharray:none;stroke-opacity:0.2;enable-background:new" />
    <rect
       ry="1.42857"
       rx="1.42857"
       y="517"
       x="49"
       height="11"
       width="20"
       id="rect996"
       style="opacity:1;fill:#000000;fill-opacity:0.2;stroke:none;stroke-width:5.6500001;stroke-linecap:round;stroke-linejoin:round;stroke-miterlimit:4;stroke-dasharray:none;stroke-opacity:0.1" />
    <path
       style="display:inline;opacity:1;fill:#ececec;fill-opacity:1;stroke:none"
       d="m 53,507 c -1.108,0 -2,0.892 -2,2 v 7 h 16 v -3 l -6,-6 z"
       id="path4579"
       inkscape:connector-curvature="0" />
    <path
       inkscape:connector-curvature="0"
       id="path4585"
       d="m 63,513 4,4 v -4 h -4"
       style="display:inline;fill:url(#linearGradient4591);fill-opacity:1;stroke:none;stroke-width:1px;stroke-linecap:butt;stroke-linejoin:miter;stroke-opacity:1" />
    <rect
       style="opacity:1;fill:#c5c9cb;fill-opacity:1;stroke:none;stroke-width:5.6500001;stroke-linecap:round;stroke-linejoin:round;stroke-miterlimit:4;stroke-dasharray:none;stroke-opacity:0.1"
       id="rect926"
       width="20"
       height="11"
       x="49"
       y="516"
       rx="1.42857"
       ry="1.42857" />
    <circle
       r="1"
       cy="519"
       cx="66.000015"
       id="circle4533"
       style="display:inline;opacity:1;fill:#16a3cc;fill-opacity:1;stroke:none;stroke-width:0.1;stroke-linecap:round;stroke-linejoin:round;stroke-miterlimit:4;stroke-dasharray:none;stroke-opacity:1;enable-background:new" />
    <path
       inkscape:connector-curvature="0"
       id="path4581"
       d="m 53,507 c -1.108,0 -2,0.892 -2,2 v 1 c 0,-1.108 0.892,-2 2,-2 h 9 l -1,-1 z"
       style="display:inline;opacity:1;fill:#ffffff;fill-opacity:0.5;stroke:none" />
    <path
       inkscape:connector-curvature="0"
       id="path4583"
       d="m 67,513 -6,-6 v 4 c 0,1.108 0.892,2 2,2 z"
       style="display:inline;opacity:1;fill:#ffffff;fill-opacity:0.80000001;stroke:none" />
    <rect
       style="opacity:1;fill:#3b414b;fill-opacity:1;stroke:none;stroke-width:4.31525898;stroke-linecap:round;stroke-linejoin:round;stroke-miterlimit:4;stroke-dasharray:none;stroke-opacity:0.1"
       id="rect948"
       width="14"
       height="2"
       x="52"
       y="523"
       rx="1"
       ry="1" />
    <path
       style="opacity:1;fill:#ffffff;fill-opacity:0.2;stroke:none;stroke-width:5.6500001;stroke-linecap:round;stroke-linejoin:round;stroke-miterlimit:4;stroke-dasharray:none;stroke-opacity:0.1"
       d="M 50.427734 28 C 49.636307 28 49 28.636307 49 29.427734 L 49 30.427734 C 49 29.636307 49.636307 29 50.427734 29 L 67.572266 29 C 68.363693 29 69 29.636307 69 30.427734 L 69 29.427734 C 69 28.636307 68.363693 28 67.572266 28 L 50.427734 28 z "
       transform="translate(0,488)"
       id="rect958" />
    <path
       style="display:inline;opacity:1;fill:url(#linearGradient4540);fill-opacity:1;stroke:none;stroke-width:0.1;stroke-linecap:round;stroke-linejoin:round;stroke-miterlimit:4;stroke-dasharray:none;stroke-opacity:1;enable-background:new"
       d="m 53,507 c -1.108,0 -2,0.892 -2,2 v 7 H 50.427734 C 49.636307,516 49,516.63631 49,517.42773 v 1.48047 6.66407 C 49,526.36369 49.636307,527 50.427734,527 H 67.572266 C 68.363693,527 69,526.36369 69,525.57227 v -6.66407 -1.48047 C 69,516.63631 68.363693,516 67.572266,516 H 67 v -3 l -6,-6 z"
       id="path4537"
       inkscape:connector-curvature="0" />
    <path
       style="display:inline;opacity:1;fill:none;fill-opacity:1;stroke:#000000;stroke-width:1;stroke-linecap:round;stroke-linejoin:round;stroke-miterlimit:4;stroke-dasharray:none;stroke-opacity:0.2;enable-background:new"
       d="m 92,506 c -1.108,0 -2,0.892 -2,2 v 7 H 89.427734 C 88.636307,515 88,515.63631 88,516.42773 v 1.48047 6.66407 C 88,525.36369 88.636307,526 89.427734,526 H 106.57227 C 107.36369,526 108,525.36369 108,524.57227 v -6.66407 -1.48047 C 108,515.63631 107.36369,515 106.57227,515 H 106 v -3 l -6,-6 z"
       id="path864"
       inkscape:connector-curvature="0" />
    <rect
       style="opacity:1;fill:#000000;fill-opacity:0.2;stroke:none;stroke-width:5.6500001;stroke-linecap:round;stroke-linejoin:round;stroke-miterlimit:4;stroke-dasharray:none;stroke-opacity:0.1"
       id="rect1001"
       width="20"
       height="11"
       x="88"
       y="516"
       rx="1.42857"
       ry="1.42857" />
    <path
       inkscape:connector-curvature="0"
       id="path974"
       d="m 92,506 c -1.108,0 -2,0.892 -2,2 v 7 h 16 v -3 l -6,-6 z"
       style="display:inline;opacity:1;fill:#ececec;fill-opacity:1;stroke:none" />
    <path
       style="display:inline;fill:url(#linearGradient992);fill-opacity:1;stroke:none;stroke-width:1px;stroke-linecap:butt;stroke-linejoin:miter;stroke-opacity:1"
       d="m 102,512 4,4 v -4 h -4"
       id="path976"
       inkscape:connector-curvature="0" />
    <rect
       ry="1.42857"
       rx="1.42857"
       y="515"
       x="88"
       height="11"
       width="20"
       id="rect978"
       style="opacity:1;fill:#c5c9cb;fill-opacity:1;stroke:none;stroke-width:5.6500001;stroke-linecap:round;stroke-linejoin:round;stroke-miterlimit:4;stroke-dasharray:none;stroke-opacity:0.1" />
    <circle
       style="display:inline;opacity:1;fill:#16a3cc;fill-opacity:1;stroke:none;stroke-width:0.1;stroke-linecap:round;stroke-linejoin:round;stroke-miterlimit:4;stroke-dasharray:none;stroke-opacity:1;enable-background:new"
       id="circle980"
       cx="105.00002"
       cy="518"
       r="1" />
    <path
       style="display:inline;opacity:1;fill:#ffffff;fill-opacity:0.5;stroke:none"
       d="m 92,506 c -1.108,0 -2,0.892 -2,2 v 1 c 0,-1.108 0.892,-2 2,-2 h 9 l -1,-1 z"
       id="path982"
       inkscape:connector-curvature="0" />
    <path
       style="display:inline;opacity:1;fill:#ffffff;fill-opacity:0.8;stroke:none"
       d="m 106,512 -6,-6 v 4 c 0,1.108 0.892,2 2,2 z"
       id="path984"
       inkscape:connector-curvature="0" />
    <rect
       ry="1"
       rx="1"
       y="522"
       x="91"
       height="2"
       width="14"
       id="rect986"
       style="opacity:1;fill:#3b414b;fill-opacity:1;stroke:none;stroke-width:4.31525898;stroke-linecap:round;stroke-linejoin:round;stroke-miterlimit:4;stroke-dasharray:none;stroke-opacity:0.1" />
    <path
       id="path988"
       d="M 89.427734,515 C 88.636307,515 88,515.63631 88,516.42773 v 1 C 88,516.63631 88.636307,516 89.427734,516 h 17.144536 c 0.79142,0 1.42773,0.63631 1.42773,1.42773 v -1 C 108,515.63631 107.36369,515 106.57227,515 Z"
       style="opacity:1;fill:#ffffff;fill-opacity:0.2;stroke:none;stroke-width:5.6500001;stroke-linecap:round;stroke-linejoin:round;stroke-miterlimit:4;stroke-dasharray:none;stroke-opacity:0.1"
       inkscape:connector-curvature="0" />
    <path
       inkscape:connector-curvature="0"
       id="path990"
       d="m 92,506 c -1.108,0 -2,0.892 -2,2 v 7 H 89.427734 C 88.636307,515 88,515.63631 88,516.42773 v 1.48047 6.66407 C 88,525.36369 88.636307,526 89.427734,526 H 106.57227 C 107.36369,526 108,525.36369 108,524.57227 v -6.66407 -1.48047 C 108,515.63631 107.36369,515 106.57227,515 H 106 v -3 l -6,-6 z"
       style="display:inline;opacity:1;fill:url(#linearGradient994);fill-opacity:1;stroke:none;stroke-width:0.1;stroke-linecap:round;stroke-linejoin:round;stroke-miterlimit:4;stroke-dasharray:none;stroke-opacity:1;enable-background:new" />
  </g>
</svg>
