<?xml version="1.0" encoding="UTF-8" standalone="no"?>
<!-- Created with Inkscape (http://www.inkscape.org/) -->

<svg
   xmlns:dc="http://purl.org/dc/elements/1.1/"
   xmlns:cc="http://creativecommons.org/ns#"
   xmlns:rdf="http://www.w3.org/1999/02/22-rdf-syntax-ns#"
   xmlns:svg="http://www.w3.org/2000/svg"
   xmlns="http://www.w3.org/2000/svg"
   xmlns:xlink="http://www.w3.org/1999/xlink"
   xmlns:sodipodi="http://sodipodi.sourceforge.net/DTD/sodipodi-0.dtd"
   xmlns:inkscape="http://www.inkscape.org/namespaces/inkscape"
   width="126"
   height="56"
   viewBox="0 0 126 56"
   version="1.1"
   id="svg1087"
   inkscape:version="0.92.2 5c3e80d, 2017-08-06"
   sodipodi:docname="edit-find.svg">
  <defs
     id="defs1081">
    <linearGradient
       inkscape:collect="always"
       xlink:href="#linearGradient4981"
       id="linearGradient4583"
       gradientUnits="userSpaceOnUse"
       gradientTransform="matrix(0.47825838,0,0,0.47826068,47.52174,25.17493)"
       x1="7"
       y1="1011.3622"
       x2="41.000019"
       y2="1045.3622" />
    <linearGradient
       id="linearGradient4981"
       inkscape:collect="always">
      <stop
         id="stop4977"
         offset="0"
         style="stop-color:#ffffff;stop-opacity:0.05490196" />
      <stop
         id="stop4979"
         offset="1"
         style="stop-color:#177ed5;stop-opacity:0;" />
    </linearGradient>
    <linearGradient
       inkscape:collect="always"
       xlink:href="#linearGradient4981"
       id="linearGradient1057"
       gradientUnits="userSpaceOnUse"
       gradientTransform="matrix(0.47825838,0,0,0.47826068,86.52174,24.174751)"
       x1="7"
       y1="1011.3622"
       x2="41.000019"
       y2="1045.3622" />
  </defs>
  <sodipodi:namedview
     id="base"
     pagecolor="#c3c3c3"
     bordercolor="#333333"
     borderopacity="1"
     inkscape:pageopacity="0"
     inkscape:pageshadow="2"
     inkscape:zoom="11.313708"
     inkscape:cx="53.289786"
     inkscape:cy="18.278629"
     inkscape:document-units="px"
     inkscape:current-layer="layer2"
     showgrid="true"
     units="px"
     inkscape:showpageshadow="false"
     inkscape:window-width="1920"
     inkscape:window-height="1044"
     inkscape:window-x="2560"
     inkscape:window-y="0"
     inkscape:window-maximized="1">
    <inkscape:grid
       type="xygrid"
       id="grid4630" />
  </sodipodi:namedview>
  <metadata
     id="metadata1084">
    <rdf:RDF>
      <cc:Work
         rdf:about="">
        <dc:format>image/svg+xml</dc:format>
        <dc:type
           rdf:resource="http://purl.org/dc/dcmitype/StillImage" />
        <dc:title />
        <cc:license
           rdf:resource="http://creativecommons.org/licenses/by-sa/4.0/" />
        <dc:creator>
          <cc:Agent>
            <dc:title>Peter Cornelis</dc:title>
          </cc:Agent>
        </dc:creator>
      </cc:Work>
      <cc:License
         rdf:about="http://creativecommons.org/licenses/by-sa/4.0/">
        <cc:permits
           rdf:resource="http://creativecommons.org/ns#Reproduction" />
        <cc:permits
           rdf:resource="http://creativecommons.org/ns#Distribution" />
        <cc:requires
           rdf:resource="http://creativecommons.org/ns#Notice" />
        <cc:requires
           rdf:resource="http://creativecommons.org/ns#Attribution" />
        <cc:permits
           rdf:resource="http://creativecommons.org/ns#DerivativeWorks" />
        <cc:requires
           rdf:resource="http://creativecommons.org/ns#ShareAlike" />
      </cc:License>
    </rdf:RDF>
  </metadata>
  <g
     inkscape:label="Baseplate"
     inkscape:groupmode="layer"
     id="layer1"
     transform="translate(0,-641.06668)"
     style="display:none">
    <text
       y="733.32251"
       xml:space="preserve"
       x="-0.99316406"
       style="font-style:normal;font-variant:normal;font-weight:normal;font-stretch:normal;line-height:0%;font-family:'DejaVu Sans';-inkscape-font-specification:'DejaVu Sans';display:inline;fill:#000000;fill-opacity:1;stroke:none;enable-background:new"
       inkscape:label="context"
       id="context"><tspan
         style="font-style:normal;font-variant:normal;font-weight:normal;font-stretch:normal;font-size:18px;line-height:1.25;font-family:'DejaVu Sans';-inkscape-font-specification:'DejaVu Sans'"
         y="733.32251"
         x="-0.99316406"
         sodipodi:role="line"
         id="tspan3933">actions</tspan></text>
    <text
       y="733.32251"
       xml:space="preserve"
       x="126.48828"
       style="font-style:normal;font-variant:normal;font-weight:bold;font-stretch:normal;line-height:0%;font-family:'DejaVu Sans';-inkscape-font-specification:'DejaVu Sans Bold';text-align:start;writing-mode:lr-tb;text-anchor:start;display:inline;fill:#000000;fill-opacity:1;stroke:none;enable-background:new"
       inkscape:label="icon-name"
       id="icon-name"><tspan
         style="font-style:normal;font-variant:normal;font-weight:bold;font-stretch:normal;font-size:18px;line-height:1.25;font-family:'DejaVu Sans';-inkscape-font-specification:'DejaVu Sans Bold'"
         y="733.32251"
         x="126.48828"
         sodipodi:role="line"
         id="tspan3937">edit-find</tspan></text>
    <rect
       style="display:inline;overflow:visible;visibility:visible;fill:#fefefe;fill-opacity:1;fill-rule:nonzero;stroke:none;stroke-width:2;marker:none;enable-background:accumulate"
       id="rect16x16"
       width="16"
       height="16"
       x="-32"
       y="665.06665"
       inkscape:label="16x16"
       transform="scale(-1,1)" />
    <rect
       transform="scale(-1,1)"
       inkscape:label="16x16"
       y="659.06665"
       x="-70"
       height="22"
       width="22"
       id="rect847"
       style="display:inline;overflow:visible;visibility:visible;fill:#fefefe;fill-opacity:1;fill-rule:nonzero;stroke:none;stroke-width:2.75;marker:none;enable-background:accumulate" />
    <rect
       style="display:inline;overflow:visible;visibility:visible;fill:#fefefe;fill-opacity:1;fill-rule:nonzero;stroke:none;stroke-width:3;marker:none;enable-background:accumulate"
       id="rect851"
       width="24"
       height="24"
       x="-110"
       y="657.06665"
       inkscape:label="16x16"
       transform="scale(-1,1)" />
  </g>
  <g
     inkscape:groupmode="layer"
     id="layer2"
     inkscape:label="Bitmap"
     style="display:inline"
     transform="translate(0,-488)">
    <path
       style="color:#000000;font-style:normal;font-variant:normal;font-weight:normal;font-stretch:normal;font-size:medium;line-height:normal;font-family:Sans;-inkscape-font-specification:Sans;text-indent:0;text-align:start;text-decoration:none;text-decoration-line:none;letter-spacing:normal;word-spacing:normal;text-transform:none;writing-mode:lr-tb;direction:ltr;baseline-shift:baseline;text-anchor:start;display:inline;overflow:visible;visibility:visible;fill:none;fill-opacity:1;stroke:#000000;stroke-width:1;marker:none;enable-background:new;stroke-opacity:0.2;stroke-miterlimit:4;stroke-dasharray:none"
       d="M 22.5 25 A 5.5 5.5 0 0 0 17 30.5 A 5.5 5.5 0 0 0 22.5 36 A 5.5 5.5 0 0 0 25.625 35.025391 A 5.5 5.5 0 0 0 25.964844 34.767578 A 5.5 5.5 0 0 1 25.625 35.025391 L 29.3125 38.712891 A 1.0054796 1.0054796 0 1 0 30.71875 37.275391 L 27.039062 33.595703 A 5.5 5.5 0 0 0 28 30.5 A 5.5 5.5 0 0 0 22.5 25 z M 22.5 27 A 3.5 3.5 0 0 1 26 30.5 A 3.5 3.5 0 0 1 22.5 34 A 3.5 3.5 0 0 1 19 30.5 A 3.5 3.5 0 0 1 22.5 27 z M 26.728516 34.009766 A 5.5 5.5 0 0 1 26.654297 34.09375 A 5.5 5.5 0 0 0 26.728516 34.009766 z "
       transform="translate(0,488)"
       id="path845" />
    <path
       inkscape:connector-curvature="0"
       id="path850"
       d="m 57,507 a 8,8 0 0 0 -1.488281,0.14453 8,8 0 0 0 -0.742188,0.17969 8,8 0 0 0 -0.04102,0.01 8,8 0 0 0 -5.578125,6.16016 8,8 0 0 0 -0.002,0.01 8,8 0 0 0 -0.002,0.004 A 8,8 0 0 0 49,515 a 8,8 0 0 0 8,8 8,8 0 0 0 4.515625,-1.39453 L 63,523.08984 l 3.455078,3.45508 a 1.5001219,1.5001219 0 1 0 2.121094,-2.12109 L 65.152344,521 63.625,519.47266 A 8,8 0 0 0 65,515 8,8 0 0 0 57,507 Z m 0,3 a 5,5 0 0 1 5,5 5,5 0 0 1 -5,5 5,5 0 0 1 -5,-5 5,5 0 0 1 0.419922,-2 5,5 0 0 1 0.002,-0.004 5,5 0 0 1 0.220703,-0.44336 5,5 0 0 1 0.267578,-0.42187 5,5 0 0 1 0.306641,-0.39453 5,5 0 0 1 1.742187,-1.29297 A 5,5 0 0 1 55,510.42383 5,5 0 0 1 57,510 Z"
       style="display:inline;fill:none;fill-opacity:1;stroke:#000000;stroke-width:1;stroke-linecap:round;stroke-linejoin:round;stroke-miterlimit:4;stroke-dasharray:none;stroke-opacity:0.2;enable-background:new" />
    <path
       style="display:inline;fill:none;fill-opacity:1;stroke:#000000;stroke-width:1;stroke-linecap:round;stroke-linejoin:round;stroke-miterlimit:4;stroke-dasharray:none;stroke-opacity:0.2;enable-background:new"
       d="m 96,505.99982 a 8,8 0 0 0 -1.488281,0.14453 8,8 0 0 0 -0.742188,0.17969 8,8 0 0 0 -0.04102,0.01 8,8 0 0 0 -5.578125,6.16016 8,8 0 0 0 -0.002,0.01 8,8 0 0 0 -0.002,0.004 A 8,8 0 0 0 88,513.99982 a 8,8 0 0 0 8,8 8,8 0 0 0 4.51563,-1.39453 l 1.48437,1.48437 3.45508,3.45508 a 1.5001219,1.5001219 0 1 0 2.12109,-2.12109 l -3.42383,-3.42383 -1.52734,-1.52734 a 8,8 0 0 0 1.375,-4.47266 8,8 0 0 0 -8,-8 z m 0,3 a 5,5 0 0 1 5,5 5,5 0 0 1 -5,5 5,5 0 0 1 -5,-5 5,5 0 0 1 0.419922,-2 5,5 0 0 1 0.002,-0.004 5,5 0 0 1 0.220703,-0.44336 5,5 0 0 1 0.267578,-0.42187 5,5 0 0 1 0.306641,-0.39453 5,5 0 0 1 1.742187,-1.29297 5,5 0 0 1 0.04097,-0.0194 5,5 0 0 1 2,-0.42383 z"
       id="path852"
       inkscape:connector-curvature="0" />
    <path
       style="color:#000000;font-style:normal;font-variant:normal;font-weight:normal;font-stretch:normal;font-size:medium;line-height:normal;font-family:Sans;-inkscape-font-specification:Sans;text-indent:0;text-align:start;text-decoration:none;text-decoration-line:none;letter-spacing:normal;word-spacing:normal;text-transform:none;writing-mode:lr-tb;direction:ltr;baseline-shift:baseline;text-anchor:start;display:inline;overflow:visible;visibility:visible;fill:#4b525f;fill-opacity:1;stroke:none;stroke-width:1.55467153;marker:none;enable-background:new"
       d="M 27.039062 33.595703 A 5.5 5.5 0 0 1 25.625 35.025391 L 29.3125 38.712891 A 1.0054796 1.0054796 0 1 0 30.71875 37.275391 L 27.039062 33.595703 z "
       transform="translate(0,488)"
       id="path6876" />
    <path
       style="opacity:1;fill:#1976d2;fill-opacity:1;stroke:none;stroke-width:3;stroke-linecap:round;stroke-linejoin:round;stroke-miterlimit:4;stroke-dasharray:none;stroke-opacity:1"
       d="m 22.5,513 a 5.5,5.5 0 0 0 -5.5,5.5 5.5,5.5 0 0 0 5.5,5.5 5.5,5.5 0 0 0 5.5,-5.5 5.5,5.5 0 0 0 -5.5,-5.5 z m 0,2 a 3.5,3.5 0 0 1 3.5,3.5 3.5,3.5 0 0 1 -3.5,3.5 3.5,3.5 0 0 1 -3.5,-3.5 3.5,3.5 0 0 1 3.5,-3.5 z"
       id="path919"
       inkscape:connector-curvature="0" />
    <path
       style="color:#000000;font-style:normal;font-variant:normal;font-weight:normal;font-stretch:normal;font-size:medium;line-height:normal;font-family:sans-serif;font-variant-ligatures:normal;font-variant-position:normal;font-variant-caps:normal;font-variant-numeric:normal;font-variant-alternates:normal;font-feature-settings:normal;text-indent:0;text-align:start;text-decoration:none;text-decoration-line:none;text-decoration-style:solid;text-decoration-color:#000000;letter-spacing:normal;word-spacing:normal;text-transform:none;writing-mode:lr-tb;direction:ltr;text-orientation:mixed;dominant-baseline:auto;baseline-shift:baseline;text-anchor:start;white-space:normal;shape-padding:0;clip-rule:nonzero;display:inline;overflow:visible;visibility:visible;opacity:1;isolation:auto;mix-blend-mode:normal;color-interpolation:sRGB;color-interpolation-filters:linearRGB;solid-color:#000000;solid-opacity:1;vector-effect:none;fill:#000000;fill-opacity:0.2;fill-rule:nonzero;stroke:none;stroke-width:2.99995589;stroke-linecap:round;stroke-linejoin:miter;stroke-miterlimit:4;stroke-dasharray:none;stroke-dashoffset:0;stroke-opacity:1;color-rendering:auto;image-rendering:auto;shape-rendering:auto;text-rendering:auto;enable-background:accumulate"
       d="m 61.599626,518.99487 -2.099626,2 5.000041,5 -0.002,-0.0117 1.556653,1.55664 a 1.5001342,1.5001219 0 1 0 2.121111,-2.12109 l -5.000041,-5 a 1.5001342,1.5001219 0 0 0 -0.484379,-0.33203 z"
       id="path1013"
       inkscape:connector-curvature="0" />
    <path
       style="color:#000000;font-style:normal;font-variant:normal;font-weight:normal;font-stretch:normal;font-size:medium;line-height:normal;font-family:sans-serif;font-variant-ligatures:normal;font-variant-position:normal;font-variant-caps:normal;font-variant-numeric:normal;font-variant-alternates:normal;font-feature-settings:normal;text-indent:0;text-align:start;text-decoration:none;text-decoration-line:none;text-decoration-style:solid;text-decoration-color:#000000;letter-spacing:normal;word-spacing:normal;text-transform:none;writing-mode:lr-tb;direction:ltr;text-orientation:mixed;dominant-baseline:auto;baseline-shift:baseline;text-anchor:start;white-space:normal;shape-padding:0;clip-rule:nonzero;display:inline;overflow:visible;visibility:visible;opacity:1;isolation:auto;mix-blend-mode:normal;color-interpolation:sRGB;color-interpolation-filters:linearRGB;solid-color:#000000;solid-opacity:1;vector-effect:none;fill:#4b525f;fill-opacity:1;fill-rule:nonzero;stroke:none;stroke-width:2.99994373;stroke-linecap:round;stroke-linejoin:miter;stroke-miterlimit:4;stroke-dasharray:none;stroke-dashoffset:0;stroke-opacity:1;color-rendering:auto;image-rendering:auto;shape-rendering:auto;text-rendering:auto;enable-background:accumulate"
       d="m 62.5,518.96875 a 1.5001219,1.5001219 0 0 0 -1.044922,2.57617 l 5,5 a 1.5001219,1.5001219 0 1 0 2.121094,-2.12109 l -5,-5 A 1.5001219,1.5001219 0 0 0 62.5,518.96875 Z"
       id="path973"
       inkscape:connector-curvature="0" />
    <path
       style="color:#000000;font-style:normal;font-variant:normal;font-weight:normal;font-stretch:normal;font-size:medium;line-height:normal;font-family:sans-serif;font-variant-ligatures:normal;font-variant-position:normal;font-variant-caps:normal;font-variant-numeric:normal;font-variant-alternates:normal;font-feature-settings:normal;text-indent:0;text-align:start;text-decoration:none;text-decoration-line:none;text-decoration-style:solid;text-decoration-color:#000000;letter-spacing:normal;word-spacing:normal;text-transform:none;writing-mode:lr-tb;direction:ltr;text-orientation:mixed;dominant-baseline:auto;baseline-shift:baseline;text-anchor:start;white-space:normal;shape-padding:0;clip-rule:nonzero;display:inline;overflow:visible;visibility:visible;opacity:1;isolation:auto;mix-blend-mode:normal;color-interpolation:sRGB;color-interpolation-filters:linearRGB;solid-color:#000000;solid-opacity:1;vector-effect:none;fill:#ffffff;fill-opacity:0.2;fill-rule:nonzero;stroke:none;stroke-width:3;stroke-linecap:round;stroke-linejoin:miter;stroke-miterlimit:4;stroke-dasharray:none;stroke-dashoffset:0;stroke-opacity:1;color-rendering:auto;image-rendering:auto;shape-rendering:auto;text-rendering:auto;enable-background:accumulate"
       d="M 62.738281 30.585938 A 5 5 0 0 1 62.441406 31.289062 L 68.576172 37.423828 A 1.50015 1.50015 0 0 1 68.949219 38.005859 A 1.50015 1.50015 0 0 0 68.576172 36.423828 L 62.738281 30.585938 z "
       transform="translate(0,488)"
       id="path993" />
    <path
       inkscape:connector-curvature="0"
       id="path1011"
       d="m 57,508 a 8,8 0 0 0 -8,8 8,8 0 0 0 8,8 8,8 0 0 0 8,-8 8,8 0 0 0 -8,-8 z m 0,3 a 5,5 0 0 1 5,5 5,5 0 0 1 -5,5 5,5 0 0 1 -5,-5 5,5 0 0 1 5,-5 z"
       style="opacity:1;fill:#000000;fill-opacity:0.2;stroke:none;stroke-width:4;stroke-linecap:round;stroke-linejoin:round;stroke-miterlimit:4;stroke-dasharray:none;stroke-opacity:1" />
    <path
       style="opacity:1;fill:#1976d2;fill-opacity:1;stroke:none;stroke-width:4;stroke-linecap:round;stroke-linejoin:round;stroke-miterlimit:4;stroke-dasharray:none;stroke-opacity:1"
       d="m 57,507 a 8,8 0 0 0 -8,8 8,8 0 0 0 8,8 8,8 0 0 0 8,-8 8,8 0 0 0 -8,-8 z m 0,3 a 5,5 0 0 1 5,5 5,5 0 0 1 -5,5 5,5 0 0 1 -5,-5 5,5 0 0 1 5,-5 z"
       id="path966"
       inkscape:connector-curvature="0" />
    <path
       style="opacity:1;fill:#ffffff;fill-opacity:0.2;stroke:none;stroke-width:4;stroke-linecap:round;stroke-linejoin:round;stroke-miterlimit:4;stroke-dasharray:none;stroke-opacity:1"
       d="M 57 19 A 8 8 0 0 0 49 27 A 8 8 0 0 0 49.021484 27.423828 A 8 8 0 0 1 57 20 A 8 8 0 0 1 64.978516 27.576172 A 8 8 0 0 0 65 27 A 8 8 0 0 0 57 19 z M 52.027344 27.484375 A 5 5 0 0 0 52 28 A 5 5 0 0 0 57 33 A 5 5 0 0 0 62 28 A 5 5 0 0 0 61.972656 27.515625 A 5 5 0 0 1 57 32 A 5 5 0 0 1 52.027344 27.484375 z "
       transform="translate(0,488)"
       id="path1006" />
    <path
       style="display:inline;fill:url(#linearGradient4583);fill-opacity:1;stroke:none;stroke-width:2;stroke-linecap:round;stroke-linejoin:round;stroke-miterlimit:4;stroke-dasharray:none;stroke-opacity:1;enable-background:new"
       d="m 57,507 a 8,8 0 0 0 -1.488281,0.14453 8,8 0 0 0 -0.742188,0.17969 8,8 0 0 0 -0.04102,0.01 8,8 0 0 0 -5.578125,6.16016 8,8 0 0 0 -0.002,0.01 8,8 0 0 0 -0.002,0.004 A 8,8 0 0 0 49,515 a 8,8 0 0 0 8,8 8,8 0 0 0 4.515625,-1.39453 L 63,523.08984 l 3.455078,3.45508 a 1.5001219,1.5001219 0 1 0 2.121094,-2.12109 L 65.152344,521 63.625,519.47266 A 8,8 0 0 0 65,515 8,8 0 0 0 57,507 Z m 0,3 a 5,5 0 0 1 5,5 5,5 0 0 1 -5,5 5,5 0 0 1 -5,-5 5,5 0 0 1 0.419922,-2 5,5 0 0 1 0.002,-0.004 5,5 0 0 1 0.220703,-0.44336 5,5 0 0 1 0.267578,-0.42187 5,5 0 0 1 0.306641,-0.39453 5,5 0 0 1 1.742187,-1.29297 A 5,5 0 0 1 55,510.42383 5,5 0 0 1 57,510 Z"
       id="path4581"
       inkscape:connector-curvature="0" />
    <path
       inkscape:connector-curvature="0"
       id="path1043"
       d="m 100.59963,517.99469 -2.09963,2 5.00004,5 -0.002,-0.0117 1.55665,1.55664 a 1.5001342,1.5001219 0 1 0 2.12111,-2.12109 l -5.00004,-5 a 1.5001342,1.5001219 0 0 0 -0.48437,-0.33203 z"
       style="color:#000000;font-style:normal;font-variant:normal;font-weight:normal;font-stretch:normal;font-size:medium;line-height:normal;font-family:sans-serif;font-variant-ligatures:normal;font-variant-position:normal;font-variant-caps:normal;font-variant-numeric:normal;font-variant-alternates:normal;font-feature-settings:normal;text-indent:0;text-align:start;text-decoration:none;text-decoration-line:none;text-decoration-style:solid;text-decoration-color:#000000;letter-spacing:normal;word-spacing:normal;text-transform:none;writing-mode:lr-tb;direction:ltr;text-orientation:mixed;dominant-baseline:auto;baseline-shift:baseline;text-anchor:start;white-space:normal;shape-padding:0;clip-rule:nonzero;display:inline;overflow:visible;visibility:visible;opacity:1;isolation:auto;mix-blend-mode:normal;color-interpolation:sRGB;color-interpolation-filters:linearRGB;solid-color:#000000;solid-opacity:1;vector-effect:none;fill:#000000;fill-opacity:0.2;fill-rule:nonzero;stroke:none;stroke-width:2.99995589;stroke-linecap:round;stroke-linejoin:miter;stroke-miterlimit:4;stroke-dasharray:none;stroke-dashoffset:0;stroke-opacity:1;color-rendering:auto;image-rendering:auto;shape-rendering:auto;text-rendering:auto;enable-background:accumulate" />
    <path
       inkscape:connector-curvature="0"
       id="path1045"
       d="m 101.5,517.96857 a 1.5001219,1.5001219 0 0 0 -1.04492,2.57617 l 5,5 a 1.5001219,1.5001219 0 1 0 2.12109,-2.12109 l -5,-5 A 1.5001219,1.5001219 0 0 0 101.5,517.96857 Z"
       style="color:#000000;font-style:normal;font-variant:normal;font-weight:normal;font-stretch:normal;font-size:medium;line-height:normal;font-family:sans-serif;font-variant-ligatures:normal;font-variant-position:normal;font-variant-caps:normal;font-variant-numeric:normal;font-variant-alternates:normal;font-feature-settings:normal;text-indent:0;text-align:start;text-decoration:none;text-decoration-line:none;text-decoration-style:solid;text-decoration-color:#000000;letter-spacing:normal;word-spacing:normal;text-transform:none;writing-mode:lr-tb;direction:ltr;text-orientation:mixed;dominant-baseline:auto;baseline-shift:baseline;text-anchor:start;white-space:normal;shape-padding:0;clip-rule:nonzero;display:inline;overflow:visible;visibility:visible;opacity:1;isolation:auto;mix-blend-mode:normal;color-interpolation:sRGB;color-interpolation-filters:linearRGB;solid-color:#000000;solid-opacity:1;vector-effect:none;fill:#4b525f;fill-opacity:1;fill-rule:nonzero;stroke:none;stroke-width:2.99994373;stroke-linecap:round;stroke-linejoin:miter;stroke-miterlimit:4;stroke-dasharray:none;stroke-dashoffset:0;stroke-opacity:1;color-rendering:auto;image-rendering:auto;shape-rendering:auto;text-rendering:auto;enable-background:accumulate" />
    <path
       id="path1047"
       d="m 101.73828,517.58576 a 5,5 0 0 1 -0.29687,0.70312 l 6.13476,6.13477 a 1.50015,1.50015 0 0 1 0.37305,0.58203 1.50015,1.50015 0 0 0 -0.37305,-1.58203 z"
       style="color:#000000;font-style:normal;font-variant:normal;font-weight:normal;font-stretch:normal;font-size:medium;line-height:normal;font-family:sans-serif;font-variant-ligatures:normal;font-variant-position:normal;font-variant-caps:normal;font-variant-numeric:normal;font-variant-alternates:normal;font-feature-settings:normal;text-indent:0;text-align:start;text-decoration:none;text-decoration-line:none;text-decoration-style:solid;text-decoration-color:#000000;letter-spacing:normal;word-spacing:normal;text-transform:none;writing-mode:lr-tb;direction:ltr;text-orientation:mixed;dominant-baseline:auto;baseline-shift:baseline;text-anchor:start;white-space:normal;shape-padding:0;clip-rule:nonzero;display:inline;overflow:visible;visibility:visible;opacity:1;isolation:auto;mix-blend-mode:normal;color-interpolation:sRGB;color-interpolation-filters:linearRGB;solid-color:#000000;solid-opacity:1;vector-effect:none;fill:#ffffff;fill-opacity:0.2;fill-rule:nonzero;stroke:none;stroke-width:3;stroke-linecap:round;stroke-linejoin:miter;stroke-miterlimit:4;stroke-dasharray:none;stroke-dashoffset:0;stroke-opacity:1;color-rendering:auto;image-rendering:auto;shape-rendering:auto;text-rendering:auto;enable-background:accumulate"
       inkscape:connector-curvature="0" />
    <path
       style="opacity:1;fill:#000000;fill-opacity:0.2;stroke:none;stroke-width:4;stroke-linecap:round;stroke-linejoin:round;stroke-miterlimit:4;stroke-dasharray:none;stroke-opacity:1"
       d="m 96,506.99982 a 8,8 0 0 0 -8,8 8,8 0 0 0 8,8 8,8 0 0 0 8,-8 8,8 0 0 0 -8,-8 z m 0,3 a 5,5 0 0 1 5,5 5,5 0 0 1 -5,5 5,5 0 0 1 -5,-5 5,5 0 0 1 5,-5 z"
       id="path1049"
       inkscape:connector-curvature="0" />
    <path
       inkscape:connector-curvature="0"
       id="path1051"
       d="m 96,505.99982 a 8,8 0 0 0 -8,8 8,8 0 0 0 8,8 8,8 0 0 0 8,-8 8,8 0 0 0 -8,-8 z m 0,3 a 5,5 0 0 1 5,5 5,5 0 0 1 -5,5 5,5 0 0 1 -5,-5 5,5 0 0 1 5,-5 z"
       style="opacity:1;fill:#1976d2;fill-opacity:1;stroke:none;stroke-width:4;stroke-linecap:round;stroke-linejoin:round;stroke-miterlimit:4;stroke-dasharray:none;stroke-opacity:1" />
    <path
       id="path1053"
       d="m 96,505.99982 a 8,8 0 0 0 -8,8 8,8 0 0 0 0.02148,0.42383 8,8 0 0 1 7.97852,-7.42383 8,8 0 0 1 7.97852,7.57617 8,8 0 0 0 0.0215,-0.57617 8,8 0 0 0 -8,-8 z m -4.972656,8.48437 A 5,5 0 0 0 91,514.99982 a 5,5 0 0 0 5,5 5,5 0 0 0 5,-5 5,5 0 0 0 -0.0273,-0.48438 5,5 0 0 1 -4.9727,4.48438 5,5 0 0 1 -4.972656,-4.51563 z"
       style="opacity:1;fill:#ffffff;fill-opacity:0.2;stroke:none;stroke-width:4;stroke-linecap:round;stroke-linejoin:round;stroke-miterlimit:4;stroke-dasharray:none;stroke-opacity:1"
       inkscape:connector-curvature="0" />
    <path
       inkscape:connector-curvature="0"
       id="path1055"
       d="m 96,505.99982 a 8,8 0 0 0 -1.488281,0.14453 8,8 0 0 0 -0.742188,0.17969 8,8 0 0 0 -0.04102,0.01 8,8 0 0 0 -5.578125,6.16016 8,8 0 0 0 -0.002,0.01 8,8 0 0 0 -0.002,0.004 A 8,8 0 0 0 88,513.99982 a 8,8 0 0 0 8,8 8,8 0 0 0 4.51563,-1.39453 l 1.48437,1.48437 3.45508,3.45508 a 1.5001219,1.5001219 0 1 0 2.12109,-2.12109 l -3.42383,-3.42383 -1.52734,-1.52734 a 8,8 0 0 0 1.375,-4.47266 8,8 0 0 0 -8,-8 z m 0,3 a 5,5 0 0 1 5,5 5,5 0 0 1 -5,5 5,5 0 0 1 -5,-5 5,5 0 0 1 0.419922,-2 5,5 0 0 1 0.002,-0.004 5,5 0 0 1 0.220703,-0.44336 5,5 0 0 1 0.267578,-0.42187 5,5 0 0 1 0.306641,-0.39453 5,5 0 0 1 1.742187,-1.29297 5,5 0 0 1 0.04097,-0.0194 5,5 0 0 1 2,-0.42383 z"
       style="display:inline;fill:url(#linearGradient1057);fill-opacity:1;stroke:none;stroke-width:2;stroke-linecap:round;stroke-linejoin:round;stroke-miterlimit:4;stroke-dasharray:none;stroke-opacity:1;enable-background:new" />
  </g>
</svg>
