<?xml version="1.0" encoding="UTF-8" standalone="no"?>
<!-- Created with Inkscape (http://www.inkscape.org/) -->

<svg
   xmlns:dc="http://purl.org/dc/elements/1.1/"
   xmlns:cc="http://creativecommons.org/ns#"
   xmlns:rdf="http://www.w3.org/1999/02/22-rdf-syntax-ns#"
   xmlns:svg="http://www.w3.org/2000/svg"
   xmlns="http://www.w3.org/2000/svg"
   xmlns:xlink="http://www.w3.org/1999/xlink"
   xmlns:sodipodi="http://sodipodi.sourceforge.net/DTD/sodipodi-0.dtd"
   xmlns:inkscape="http://www.inkscape.org/namespaces/inkscape"
   width="126"
   height="56"
   viewBox="0 0 126 56"
   version="1.1"
   id="svg1087"
   inkscape:version="0.92.2 5c3e80d, 2017-08-06"
   sodipodi:docname="edit-cut.svg">
  <defs
     id="defs1081">
    <linearGradient
       id="linearGradient4981"
       inkscape:collect="always">
      <stop
         id="stop4977"
         offset="0"
         style="stop-color:#ffffff;stop-opacity:0.05490196" />
      <stop
         id="stop4979"
         offset="1"
         style="stop-color:#177ed5;stop-opacity:0;" />
    </linearGradient>
    <linearGradient
       inkscape:collect="always"
       xlink:href="#linearGradient4981"
       id="linearGradient858"
       x1="50"
       y1="516"
       x2="68"
       y2="516"
       gradientUnits="userSpaceOnUse"
       gradientTransform="translate(0,1)" />
    <linearGradient
       inkscape:collect="always"
       xlink:href="#linearGradient4981"
       id="linearGradient862"
       gradientUnits="userSpaceOnUse"
       gradientTransform="translate(39)"
       x1="50"
       y1="516"
       x2="68"
       y2="516" />
  </defs>
  <sodipodi:namedview
     id="base"
     pagecolor="#c3c3c3"
     bordercolor="#333333"
     borderopacity="1"
     inkscape:pageopacity="0"
     inkscape:pageshadow="2"
     inkscape:zoom="8"
     inkscape:cx="51.00493"
     inkscape:cy="7.4435976"
     inkscape:document-units="px"
     inkscape:current-layer="layer2"
     showgrid="true"
     units="px"
     inkscape:showpageshadow="false"
     inkscape:window-width="2560"
     inkscape:window-height="1370"
     inkscape:window-x="0"
     inkscape:window-y="34"
     inkscape:window-maximized="1">
    <inkscape:grid
       type="xygrid"
       id="grid4630" />
  </sodipodi:namedview>
  <metadata
     id="metadata1084">
    <rdf:RDF>
      <cc:Work
         rdf:about="">
        <dc:format>image/svg+xml</dc:format>
        <dc:type
           rdf:resource="http://purl.org/dc/dcmitype/StillImage" />
        <dc:title />
        <cc:license
           rdf:resource="http://creativecommons.org/licenses/by-sa/4.0/" />
        <dc:creator>
          <cc:Agent>
            <dc:title>Peter Cornelis</dc:title>
          </cc:Agent>
        </dc:creator>
      </cc:Work>
      <cc:License
         rdf:about="http://creativecommons.org/licenses/by-sa/4.0/">
        <cc:permits
           rdf:resource="http://creativecommons.org/ns#Reproduction" />
        <cc:permits
           rdf:resource="http://creativecommons.org/ns#Distribution" />
        <cc:requires
           rdf:resource="http://creativecommons.org/ns#Notice" />
        <cc:requires
           rdf:resource="http://creativecommons.org/ns#Attribution" />
        <cc:permits
           rdf:resource="http://creativecommons.org/ns#DerivativeWorks" />
        <cc:requires
           rdf:resource="http://creativecommons.org/ns#ShareAlike" />
      </cc:License>
    </rdf:RDF>
  </metadata>
  <g
     inkscape:label="Baseplate"
     inkscape:groupmode="layer"
     id="layer1"
     transform="translate(0,-641.06668)"
     style="display:none">
    <text
       y="733.32251"
       xml:space="preserve"
       x="-0.99316406"
       style="font-style:normal;font-variant:normal;font-weight:normal;font-stretch:normal;line-height:0%;font-family:'DejaVu Sans';-inkscape-font-specification:'DejaVu Sans';display:inline;fill:#000000;fill-opacity:1;stroke:none;enable-background:new"
       inkscape:label="context"
       id="context"><tspan
         style="font-style:normal;font-variant:normal;font-weight:normal;font-stretch:normal;font-size:18px;line-height:1.25;font-family:'DejaVu Sans';-inkscape-font-specification:'DejaVu Sans'"
         y="733.32251"
         x="-0.99316406"
         sodipodi:role="line"
         id="tspan3933">actions</tspan></text>
    <text
       y="733.32251"
       xml:space="preserve"
       x="126.48828"
       style="font-style:normal;font-variant:normal;font-weight:bold;font-stretch:normal;line-height:0%;font-family:'DejaVu Sans';-inkscape-font-specification:'DejaVu Sans Bold';text-align:start;writing-mode:lr-tb;text-anchor:start;display:inline;fill:#000000;fill-opacity:1;stroke:none;enable-background:new"
       inkscape:label="icon-name"
       id="icon-name"><tspan
         style="font-style:normal;font-variant:normal;font-weight:bold;font-stretch:normal;font-size:18px;line-height:1.25;font-family:'DejaVu Sans';-inkscape-font-specification:'DejaVu Sans Bold'"
         y="733.32251"
         x="126.48828"
         sodipodi:role="line"
         id="tspan3937">edit-cut</tspan></text>
    <rect
       style="display:inline;overflow:visible;visibility:visible;fill:#fefefe;fill-opacity:1;fill-rule:nonzero;stroke:none;stroke-width:2;marker:none;enable-background:accumulate"
       id="rect16x16"
       width="16"
       height="16"
       x="-32"
       y="665.06665"
       inkscape:label="16x16"
       transform="scale(-1,1)" />
    <rect
       transform="scale(-1,1)"
       inkscape:label="16x16"
       y="659.06665"
       x="-70"
       height="22"
       width="22"
       id="rect847"
       style="display:inline;overflow:visible;visibility:visible;fill:#fefefe;fill-opacity:1;fill-rule:nonzero;stroke:none;stroke-width:2.75;marker:none;enable-background:accumulate" />
    <rect
       style="display:inline;overflow:visible;visibility:visible;fill:#fefefe;fill-opacity:1;fill-rule:nonzero;stroke:none;stroke-width:3;marker:none;enable-background:accumulate"
       id="rect851"
       width="24"
       height="24"
       x="-110"
       y="657.06665"
       inkscape:label="16x16"
       transform="scale(-1,1)" />
  </g>
  <g
     inkscape:groupmode="layer"
     id="layer2"
     inkscape:label="Bitmap"
     style="display:inline"
     transform="translate(0,-488)">
    <path
       style="display:inline;fill:none;fill-opacity:1;stroke:#000000;stroke-width:1;stroke-linecap:butt;stroke-linejoin:miter;stroke-opacity:0.2;stroke-miterlimit:4;stroke-dasharray:none"
       d="m 50,507 v 3 l 7.601562,8.55273 -1.607421,1.78711 A 3.5,3.5 0 0 0 54.5,520 3.5,3.5 0 0 0 51,523.5 3.5,3.5 0 0 0 54.5,527 3.5,3.5 0 0 0 58,523.5 3.5,3.5 0 0 0 57.539062,521.76953 L 59,520.125 l 1.462891,1.64453 A 3.5,3.5 0 0 0 60,523.5 3.5,3.5 0 0 0 63.5,527 3.5,3.5 0 0 0 67,523.5 3.5,3.5 0 0 0 63.5,520 3.5,3.5 0 0 0 62.005859,520.33984 L 60.398438,518.55273 68,510 v -3 l -9,10 z m 4.5,15 a 1.5,1.5 0 0 1 0.150391,0.008 1.5,1.5 0 0 1 0.433593,0.11133 1.5,1.5 0 0 1 0.382813,0.23438 1.5,1.5 0 0 1 0.109375,0.10351 1.5,1.5 0 0 1 0.185547,0.23242 1.5,1.5 0 0 1 0,0.002 1.5,1.5 0 0 1 0.07422,0.1289 1.5,1.5 0 0 1 0,0.002 1.5,1.5 0 0 1 0.07617,0.17773 1.5,1.5 0 0 1 0.08789,0.5 1.5,1.5 0 0 1 -1.5,1.5 1.5,1.5 0 0 1 -1.5,-1.5 1.5,1.5 0 0 1 1.5,-1.5 z m 9,0 a 1.5,1.5 0 0 1 1.5,1.5 1.5,1.5 0 0 1 -1.5,1.5 1.5,1.5 0 0 1 -1.5,-1.5 1.5,1.5 0 0 1 0.08789,-0.5 1.5,1.5 0 0 1 0.753906,-0.8457 1.5,1.5 0 0 1 0.06836,-0.0312 1.5,1.5 0 0 1 0.21875,-0.0742 1.5,1.5 0 0 1 0.06641,-0.0156 1.5,1.5 0 0 1 0.230469,-0.0312 1.5,1.5 0 0 1 0.07422,-0.002 z"
       id="path861"
       inkscape:connector-curvature="0" />
    <path
       style="display:inline;fill:#000000;fill-opacity:0.2;stroke:none;stroke-width:1.5px;stroke-linecap:butt;stroke-linejoin:miter;stroke-opacity:1"
       d="m 50,508 v 3 l 7.601562,8.55273 -1.607421,1.78711 A 3.5,3.5 0 0 0 54.5,521 3.5,3.5 0 0 0 51,524.5 3.5,3.5 0 0 0 54.5,528 3.5,3.5 0 0 0 58,524.5 3.5,3.5 0 0 0 57.539062,522.76953 L 59,521.125 l 1.462891,1.64453 A 3.5,3.5 0 0 0 60,524.5 3.5,3.5 0 0 0 63.5,528 3.5,3.5 0 0 0 67,524.5 3.5,3.5 0 0 0 63.5,521 3.5,3.5 0 0 0 62.005859,521.33984 L 60.398438,519.55273 68,511 v -3 l -9,10 z m 4.5,15 a 1.5,1.5 0 0 1 0.150391,0.008 1.5,1.5 0 0 1 0.433593,0.11133 1.5,1.5 0 0 1 0.382813,0.23438 1.5,1.5 0 0 1 0.109375,0.10351 1.5,1.5 0 0 1 0.185547,0.23242 1.5,1.5 0 0 1 0,0.002 1.5,1.5 0 0 1 0.07422,0.1289 1.5,1.5 0 0 1 0,0.002 1.5,1.5 0 0 1 0.07617,0.17773 1.5,1.5 0 0 1 0.08789,0.5 1.5,1.5 0 0 1 -1.5,1.5 1.5,1.5 0 0 1 -1.5,-1.5 1.5,1.5 0 0 1 1.5,-1.5 z m 9,0 a 1.5,1.5 0 0 1 1.5,1.5 1.5,1.5 0 0 1 -1.5,1.5 1.5,1.5 0 0 1 -1.5,-1.5 1.5,1.5 0 0 1 0.08789,-0.5 1.5,1.5 0 0 1 0.753906,-0.8457 1.5,1.5 0 0 1 0.06836,-0.0312 1.5,1.5 0 0 1 0.21875,-0.0742 1.5,1.5 0 0 1 0.06641,-0.0156 1.5,1.5 0 0 1 0.230469,-0.0312 1.5,1.5 0 0 1 0.07422,-0.002 z"
       id="path993"
       inkscape:connector-curvature="0" />
    <path
       inkscape:connector-curvature="0"
       style="display:inline;fill:#9da3ab;fill-opacity:1;stroke:none;stroke-width:1.5px;stroke-linecap:butt;stroke-linejoin:miter;stroke-opacity:1"
       d="m 68,507 -13.5,15 a 1.5,1.5 0 0 1 1.412109,1 h 0.533203 L 68,510 Z"
       id="path961" />
    <path
       id="path991"
       d="m 68,507 v 1 L 55.228516,522.19141 A 1.5,1.5 0 0 0 54.5,522 Z"
       style="display:inline;fill:#ffffff;fill-opacity:0.2;stroke:none;stroke-width:1.5px;stroke-linecap:butt;stroke-linejoin:miter;stroke-opacity:1"
       inkscape:connector-curvature="0" />
    <path
       inkscape:connector-curvature="0"
       style="display:inline;fill:#9da3ab;fill-opacity:1;stroke:none;stroke-width:1.5px;stroke-linecap:butt;stroke-linejoin:miter;stroke-opacity:1"
       d="m 50,507 v 3 l 11.554688,13 h 0.533203 A 1.5,1.5 0 0 1 63.5,522 Z"
       id="path963" />
    <path
       inkscape:connector-curvature="0"
       style="display:inline;fill:#ffffff;fill-opacity:0.2;stroke:none;stroke-width:1.5px;stroke-linecap:butt;stroke-linejoin:miter;stroke-opacity:1"
       d="m 50,507 v 1 l 12.771484,14.19141 A 1.5,1.5 0 0 1 63.5,522 Z"
       id="path986" />
    <path
       id="path944"
       d="m 54.5,520 a 3.5,3.5 0 0 0 -3.5,3.5 3.5,3.5 0 0 0 3.5,3.5 3.5,3.5 0 0 0 3.5,-3.5 3.5,3.5 0 0 0 -3.5,-3.5 z m 0,2 a 1.5,1.5 0 0 1 1.5,1.5 1.5,1.5 0 0 1 -1.5,1.5 1.5,1.5 0 0 1 -1.5,-1.5 1.5,1.5 0 0 1 1.5,-1.5 z"
       style="display:inline;opacity:1;fill:#4b525f;fill-opacity:1;stroke:none;stroke-width:2.5;stroke-linecap:butt;stroke-linejoin:round;stroke-miterlimit:4;stroke-dasharray:none;stroke-opacity:1"
       inkscape:connector-curvature="0" />
    <path
       inkscape:connector-curvature="0"
       style="display:inline;opacity:1;fill:#4b525f;fill-opacity:1;stroke:none;stroke-width:2.5;stroke-linecap:butt;stroke-linejoin:round;stroke-miterlimit:4;stroke-dasharray:none;stroke-opacity:1"
       d="m 63.5,520 a 3.5,3.5 0 0 0 -3.5,3.5 3.5,3.5 0 0 0 3.5,3.5 3.5,3.5 0 0 0 3.5,-3.5 3.5,3.5 0 0 0 -3.5,-3.5 z m 0,2 a 1.5,1.5 0 0 1 1.5,1.5 1.5,1.5 0 0 1 -1.5,1.5 1.5,1.5 0 0 1 -1.5,-1.5 1.5,1.5 0 0 1 1.5,-1.5 z"
       id="path971" />
    <path
       inkscape:connector-curvature="0"
       style="display:inline;opacity:1;fill:#ffffff;fill-opacity:0.2;stroke:none;stroke-width:2.5;stroke-linecap:butt;stroke-linejoin:round;stroke-miterlimit:4;stroke-dasharray:none;stroke-opacity:1"
       d="m 54.5,520 a 3.5,3.5 0 0 0 -3.5,3.5 3.5,3.5 0 0 0 0.03906,0.49414 A 3.5,3.5 0 0 1 54.5,521 3.5,3.5 0 0 1 57.960938,524.00586 3.5,3.5 0 0 0 58,523.5 3.5,3.5 0 0 0 54.5,520 Z m -1.412109,4 A 1.5,1.5 0 0 0 53,524.5 1.5,1.5 0 0 0 54.5,526 1.5,1.5 0 0 0 56,524.5 1.5,1.5 0 0 0 55.912109,524 1.5,1.5 0 0 1 54.5,525 1.5,1.5 0 0 1 53.087891,524 Z"
       id="path979" />
    <path
       id="path984"
       d="m 63.5,520 a 3.5,3.5 0 0 0 -3.5,3.5 3.5,3.5 0 0 0 0.03906,0.49414 A 3.5,3.5 0 0 1 63.5,521 3.5,3.5 0 0 1 66.960938,524.00586 3.5,3.5 0 0 0 67,523.5 3.5,3.5 0 0 0 63.5,520 Z m -1.412109,4 A 1.5,1.5 0 0 0 62,524.5 1.5,1.5 0 0 0 63.5,526 1.5,1.5 0 0 0 65,524.5 1.5,1.5 0 0 0 64.912109,524 1.5,1.5 0 0 1 63.5,525 1.5,1.5 0 0 1 62.087891,524 Z"
       style="display:inline;opacity:1;fill:#ffffff;fill-opacity:0.2;stroke:none;stroke-width:2.5;stroke-linecap:butt;stroke-linejoin:round;stroke-miterlimit:4;stroke-dasharray:none;stroke-opacity:1"
       inkscape:connector-curvature="0" />
    <path
       inkscape:connector-curvature="0"
       id="path863"
       d="m 89,506 v 3 l 7.601562,8.55273 -1.607421,1.78711 A 3.5,3.5 0 0 0 93.5,519 3.5,3.5 0 0 0 90,522.5 3.5,3.5 0 0 0 93.5,526 3.5,3.5 0 0 0 97,522.5 3.5,3.5 0 0 0 96.539062,520.76953 L 98,519.125 l 1.46289,1.64453 A 3.5,3.5 0 0 0 99,522.5 a 3.5,3.5 0 0 0 3.5,3.5 3.5,3.5 0 0 0 3.5,-3.5 3.5,3.5 0 0 0 -3.5,-3.5 3.5,3.5 0 0 0 -1.49414,0.33984 L 99.39844,517.55273 107,509 v -3 l -9,10 z m 4.5,15 a 1.5,1.5 0 0 1 0.150391,0.008 1.5,1.5 0 0 1 0.433593,0.11133 1.5,1.5 0 0 1 0.382813,0.23438 1.5,1.5 0 0 1 0.109375,0.10351 1.5,1.5 0 0 1 0.185547,0.23242 1.5,1.5 0 0 1 0,0.002 1.5,1.5 0 0 1 0.07422,0.1289 1.5,1.5 0 0 1 0,0.002 1.5,1.5 0 0 1 0.07617,0.17773 1.5,1.5 0 0 1 0.08789,0.5 1.5,1.5 0 0 1 -1.5,1.5 1.5,1.5 0 0 1 -1.5,-1.5 1.5,1.5 0 0 1 1.5,-1.5 z m 9,0 a 1.5,1.5 0 0 1 1.5,1.5 1.5,1.5 0 0 1 -1.5,1.5 1.5,1.5 0 0 1 -1.5,-1.5 1.5,1.5 0 0 1 0.0879,-0.5 1.5,1.5 0 0 1 0.75391,-0.8457 1.5,1.5 0 0 1 0.0684,-0.0312 1.5,1.5 0 0 1 0.21875,-0.0742 1.5,1.5 0 0 1 0.0664,-0.0156 1.5,1.5 0 0 1 0.23047,-0.0312 1.5,1.5 0 0 1 0.0742,-0.002 z"
       style="display:inline;fill:none;fill-opacity:1;stroke:#000000;stroke-width:1;stroke-linecap:butt;stroke-linejoin:miter;stroke-miterlimit:4;stroke-dasharray:none;stroke-opacity:0.2" />
    <path
       inkscape:connector-curvature="0"
       id="path1079"
       d="m 89,507 v 3 l 7.601562,8.55273 -1.607421,1.78711 A 3.5,3.5 0 0 0 93.5,520 3.5,3.5 0 0 0 90,523.5 3.5,3.5 0 0 0 93.5,527 3.5,3.5 0 0 0 97,523.5 3.5,3.5 0 0 0 96.539062,521.76953 L 98,520.125 l 1.46289,1.64453 A 3.5,3.5 0 0 0 99,523.5 a 3.5,3.5 0 0 0 3.5,3.5 3.5,3.5 0 0 0 3.5,-3.5 3.5,3.5 0 0 0 -3.5,-3.5 3.5,3.5 0 0 0 -1.49414,0.33984 L 99.39844,518.55273 107,510 v -3 l -9,10 z m 4.5,15 a 1.5,1.5 0 0 1 0.150391,0.008 1.5,1.5 0 0 1 0.433593,0.11133 1.5,1.5 0 0 1 0.382813,0.23438 1.5,1.5 0 0 1 0.109375,0.10351 1.5,1.5 0 0 1 0.185547,0.23242 1.5,1.5 0 0 1 0,0.002 1.5,1.5 0 0 1 0.07422,0.1289 1.5,1.5 0 0 1 0,0.002 1.5,1.5 0 0 1 0.07617,0.17773 1.5,1.5 0 0 1 0.08789,0.5 1.5,1.5 0 0 1 -1.5,1.5 1.5,1.5 0 0 1 -1.5,-1.5 1.5,1.5 0 0 1 1.5,-1.5 z m 9,0 a 1.5,1.5 0 0 1 1.5,1.5 1.5,1.5 0 0 1 -1.5,1.5 1.5,1.5 0 0 1 -1.5,-1.5 1.5,1.5 0 0 1 0.0879,-0.5 1.5,1.5 0 0 1 0.75391,-0.8457 1.5,1.5 0 0 1 0.0684,-0.0312 1.5,1.5 0 0 1 0.21875,-0.0742 1.5,1.5 0 0 1 0.0664,-0.0156 1.5,1.5 0 0 1 0.23047,-0.0312 1.5,1.5 0 0 1 0.0742,-0.002 z"
       style="display:inline;fill:#000000;fill-opacity:0.2;stroke:none;stroke-width:1.5px;stroke-linecap:butt;stroke-linejoin:miter;stroke-opacity:1" />
    <path
       id="path1083"
       d="m 107,506 -13.5,15 a 1.5,1.5 0 0 1 1.412109,1 h 0.533203 L 107,509 Z"
       style="display:inline;fill:#9da3ab;fill-opacity:1;stroke:none;stroke-width:1.5px;stroke-linecap:butt;stroke-linejoin:miter;stroke-opacity:1"
       inkscape:connector-curvature="0" />
    <path
       inkscape:connector-curvature="0"
       style="display:inline;fill:#ffffff;fill-opacity:0.2;stroke:none;stroke-width:1.5px;stroke-linecap:butt;stroke-linejoin:miter;stroke-opacity:1"
       d="m 107,506 v 1 L 94.228516,521.19141 A 1.5,1.5 0 0 0 93.5,521 Z"
       id="path1085" />
    <path
       id="path1087"
       d="m 89,506 v 3 l 11.55469,13 h 0.5332 A 1.5,1.5 0 0 1 102.5,521 Z"
       style="display:inline;fill:#9da3ab;fill-opacity:1;stroke:none;stroke-width:1.5px;stroke-linecap:butt;stroke-linejoin:miter;stroke-opacity:1"
       inkscape:connector-curvature="0" />
    <path
       id="path1089"
       d="m 89,506 v 1 l 12.77148,14.19141 A 1.5,1.5 0 0 1 102.5,521 Z"
       style="display:inline;fill:#ffffff;fill-opacity:0.2;stroke:none;stroke-width:1.5px;stroke-linecap:butt;stroke-linejoin:miter;stroke-opacity:1"
       inkscape:connector-curvature="0" />
    <path
       inkscape:connector-curvature="0"
       style="display:inline;opacity:1;fill:#4b525f;fill-opacity:1;stroke:none;stroke-width:2.5;stroke-linecap:butt;stroke-linejoin:round;stroke-miterlimit:4;stroke-dasharray:none;stroke-opacity:1"
       d="m 93.5,519 a 3.5,3.5 0 0 0 -3.5,3.5 3.5,3.5 0 0 0 3.5,3.5 3.5,3.5 0 0 0 3.5,-3.5 3.5,3.5 0 0 0 -3.5,-3.5 z m 0,2 a 1.5,1.5 0 0 1 1.5,1.5 1.5,1.5 0 0 1 -1.5,1.5 1.5,1.5 0 0 1 -1.5,-1.5 1.5,1.5 0 0 1 1.5,-1.5 z"
       id="path1091" />
    <path
       id="path1093"
       d="m 102.5,519 a 3.5,3.5 0 0 0 -3.5,3.5 3.5,3.5 0 0 0 3.5,3.5 3.5,3.5 0 0 0 3.5,-3.5 3.5,3.5 0 0 0 -3.5,-3.5 z m 0,2 a 1.5,1.5 0 0 1 1.5,1.5 1.5,1.5 0 0 1 -1.5,1.5 1.5,1.5 0 0 1 -1.5,-1.5 1.5,1.5 0 0 1 1.5,-1.5 z"
       style="display:inline;opacity:1;fill:#4b525f;fill-opacity:1;stroke:none;stroke-width:2.5;stroke-linecap:butt;stroke-linejoin:round;stroke-miterlimit:4;stroke-dasharray:none;stroke-opacity:1"
       inkscape:connector-curvature="0" />
    <path
       id="path1095"
       d="m 93.5,519 a 3.5,3.5 0 0 0 -3.5,3.5 3.5,3.5 0 0 0 0.03906,0.49414 A 3.5,3.5 0 0 1 93.5,520 3.5,3.5 0 0 1 96.960938,523.00586 3.5,3.5 0 0 0 97,522.5 3.5,3.5 0 0 0 93.5,519 Z m -1.412109,4 A 1.5,1.5 0 0 0 92,523.5 1.5,1.5 0 0 0 93.5,525 1.5,1.5 0 0 0 95,523.5 1.5,1.5 0 0 0 94.912109,523 1.5,1.5 0 0 1 93.5,524 1.5,1.5 0 0 1 92.087891,523 Z"
       style="display:inline;opacity:1;fill:#ffffff;fill-opacity:0.2;stroke:none;stroke-width:2.5;stroke-linecap:butt;stroke-linejoin:round;stroke-miterlimit:4;stroke-dasharray:none;stroke-opacity:1"
       inkscape:connector-curvature="0" />
    <path
       inkscape:connector-curvature="0"
       style="display:inline;opacity:1;fill:#ffffff;fill-opacity:0.2;stroke:none;stroke-width:2.5;stroke-linecap:butt;stroke-linejoin:round;stroke-miterlimit:4;stroke-dasharray:none;stroke-opacity:1"
       d="m 102.5,519 a 3.5,3.5 0 0 0 -3.5,3.5 3.5,3.5 0 0 0 0.0391,0.49414 A 3.5,3.5 0 0 1 102.5,520 3.5,3.5 0 0 1 105.96094,523.00586 3.5,3.5 0 0 0 106,522.5 3.5,3.5 0 0 0 102.5,519 Z m -1.41211,4 a 1.5,1.5 0 0 0 -0.0879,0.5 1.5,1.5 0 0 0 1.5,1.5 1.5,1.5 0 0 0 1.5,-1.5 1.5,1.5 0 0 0 -0.0879,-0.5 1.5,1.5 0 0 1 -1.41211,1 1.5,1.5 0 0 1 -1.41211,-1 z"
       id="path1097" />
    <path
       style="display:inline;fill:none;fill-opacity:1;stroke:#000000;stroke-width:1px;stroke-linecap:butt;stroke-linejoin:miter;stroke-opacity:0.2"
       d="M 18 25 L 18 27 L 23.068359 32.701172 L 21.648438 34.279297 A 2.5 2.5 0 0 0 20.5 34 A 2.5 2.5 0 0 0 18 36.5 A 2.5 2.5 0 0 0 20.5 39 A 2.5 2.5 0 0 0 23 36.5 A 2.5 2.5 0 0 0 22.664062 35.253906 L 24 33.75 L 25.335938 35.253906 A 2.5 2.5 0 0 0 25 36.5 A 2.5 2.5 0 0 0 27.5 39 A 2.5 2.5 0 0 0 30 36.5 A 2.5 2.5 0 0 0 27.5 34 A 2.5 2.5 0 0 0 26.353516 34.28125 L 24.931641 32.703125 L 30 27 L 30 25 L 24 31.666016 L 18 25 z M 20.5 35 A 1.5 1.5 0 0 1 21.152344 35.152344 A 1.5 1.5 0 0 1 21.720703 35.630859 A 1.5 1.5 0 0 1 21.724609 35.638672 A 1.5 1.5 0 0 1 21.800781 35.757812 A 1.5 1.5 0 0 1 21.804688 35.765625 A 1.5 1.5 0 0 1 21.849609 35.849609 A 1.5 1.5 0 0 1 22 36.5 A 1.5 1.5 0 0 1 20.5 38 A 1.5 1.5 0 0 1 19 36.5 A 1.5 1.5 0 0 1 20.5 35 z M 27.5 35 A 1.5 1.5 0 0 1 29 36.5 A 1.5 1.5 0 0 1 27.5 38 A 1.5 1.5 0 0 1 26 36.5 A 1.5 1.5 0 0 1 26.152344 35.847656 A 1.5 1.5 0 0 1 26.308594 35.591797 A 1.5 1.5 0 0 1 26.513672 35.373047 A 1.5 1.5 0 0 1 26.625 35.285156 A 1.5 1.5 0 0 1 26.638672 35.275391 A 1.5 1.5 0 0 1 26.753906 35.201172 A 1.5 1.5 0 0 1 26.765625 35.195312 A 1.5 1.5 0 0 1 26.845703 35.152344 A 1.5 1.5 0 0 1 26.849609 35.150391 A 1.5 1.5 0 0 1 27.5 35 z "
       transform="translate(0,488)"
       id="path852" />
    <path
       style="display:inline;fill:#9da3ab;fill-opacity:1;stroke:none;stroke-width:1px;stroke-linecap:butt;stroke-linejoin:miter;stroke-opacity:1"
       d="m 30,513 -9,10 0.152344,0.15234 a 1.5,1.5 0 0 1 0.697265,0.69727 L 22,524 l 8,-9 z"
       id="path911"
       inkscape:connector-curvature="0" />
    <path
       style="display:inline;opacity:1;fill:#4b525f;fill-opacity:1;stroke:none;stroke-width:2.5;stroke-linecap:butt;stroke-linejoin:round;stroke-miterlimit:4;stroke-dasharray:none;stroke-opacity:1"
       d="m 20.5,522 a 2.5,2.5 0 0 0 -2.5,2.5 2.5,2.5 0 0 0 2.5,2.5 2.5,2.5 0 0 0 2.5,-2.5 2.5,2.5 0 0 0 -2.5,-2.5 z m 0,1 a 1.5,1.5 0 0 1 1.5,1.5 1.5,1.5 0 0 1 -1.5,1.5 1.5,1.5 0 0 1 -1.5,-1.5 1.5,1.5 0 0 1 1.5,-1.5 z"
       id="circle883"
       inkscape:connector-curvature="0" />
    <path
       style="display:inline;fill:#9da3ab;fill-opacity:1;stroke:none;stroke-width:1px;stroke-linecap:butt;stroke-linejoin:miter;stroke-opacity:1"
       d="m 18,513 v 2 l 8,9 0.152344,-0.15234 a 1.5,1.5 0 0 1 0.697265,-0.69727 L 27,523 Z"
       id="path905"
       inkscape:connector-curvature="0" />
    <path
       id="path894"
       d="m 27.5,522 a 2.5,2.5 0 0 0 -2.5,2.5 2.5,2.5 0 0 0 2.5,2.5 2.5,2.5 0 0 0 2.5,-2.5 2.5,2.5 0 0 0 -2.5,-2.5 z m 0,1 a 1.5,1.5 0 0 1 1.5,1.5 1.5,1.5 0 0 1 -1.5,1.5 1.5,1.5 0 0 1 -1.5,-1.5 1.5,1.5 0 0 1 1.5,-1.5 z"
       style="display:inline;opacity:1;fill:#4b525f;fill-opacity:1;stroke:none;stroke-width:2.5;stroke-linecap:butt;stroke-linejoin:round;stroke-miterlimit:4;stroke-dasharray:none;stroke-opacity:1"
       inkscape:connector-curvature="0" />
    <path
       inkscape:connector-curvature="0"
       id="path850"
       d="m 50,507 v 3 l 7.601562,8.55273 -1.607421,1.78711 A 3.5,3.5 0 0 0 54.5,520 3.5,3.5 0 0 0 51,523.5 3.5,3.5 0 0 0 54.5,527 3.5,3.5 0 0 0 58,523.5 3.5,3.5 0 0 0 57.539062,521.76953 L 59,520.125 l 1.462891,1.64453 A 3.5,3.5 0 0 0 60,523.5 3.5,3.5 0 0 0 63.5,527 3.5,3.5 0 0 0 67,523.5 3.5,3.5 0 0 0 63.5,520 3.5,3.5 0 0 0 62.005859,520.33984 L 60.398438,518.55273 68,510 v -3 l -9,10 z m 4.5,15 a 1.5,1.5 0 0 1 0.150391,0.008 1.5,1.5 0 0 1 0.433593,0.11133 1.5,1.5 0 0 1 0.382813,0.23438 1.5,1.5 0 0 1 0.109375,0.10351 1.5,1.5 0 0 1 0.185547,0.23242 1.5,1.5 0 0 1 0,0.002 1.5,1.5 0 0 1 0.07422,0.1289 1.5,1.5 0 0 1 0,0.002 1.5,1.5 0 0 1 0.07617,0.17773 1.5,1.5 0 0 1 0.08789,0.5 1.5,1.5 0 0 1 -1.5,1.5 1.5,1.5 0 0 1 -1.5,-1.5 1.5,1.5 0 0 1 1.5,-1.5 z m 9,0 a 1.5,1.5 0 0 1 1.5,1.5 1.5,1.5 0 0 1 -1.5,1.5 1.5,1.5 0 0 1 -1.5,-1.5 1.5,1.5 0 0 1 0.08789,-0.5 1.5,1.5 0 0 1 0.753906,-0.8457 1.5,1.5 0 0 1 0.06836,-0.0312 1.5,1.5 0 0 1 0.21875,-0.0742 1.5,1.5 0 0 1 0.06641,-0.0156 1.5,1.5 0 0 1 0.230469,-0.0312 1.5,1.5 0 0 1 0.07422,-0.002 z"
       style="display:inline;fill:url(#linearGradient858);fill-opacity:1;stroke:none;stroke-width:1.5px;stroke-linecap:butt;stroke-linejoin:miter;stroke-opacity:1" />
    <path
       style="display:inline;fill:url(#linearGradient862);fill-opacity:1;stroke:none;stroke-width:1.5px;stroke-linecap:butt;stroke-linejoin:miter;stroke-opacity:1"
       d="m 89,506 v 3 l 7.601562,8.55273 -1.607421,1.78711 A 3.5,3.5 0 0 0 93.5,519 3.5,3.5 0 0 0 90,522.5 3.5,3.5 0 0 0 93.5,526 3.5,3.5 0 0 0 97,522.5 3.5,3.5 0 0 0 96.539062,520.76953 L 98,519.125 l 1.46289,1.64453 A 3.5,3.5 0 0 0 99,522.5 a 3.5,3.5 0 0 0 3.5,3.5 3.5,3.5 0 0 0 3.5,-3.5 3.5,3.5 0 0 0 -3.5,-3.5 3.5,3.5 0 0 0 -1.49414,0.33984 L 99.39844,517.55273 107,509 v -3 l -9,10 z m 4.5,15 a 1.5,1.5 0 0 1 0.150391,0.008 1.5,1.5 0 0 1 0.433593,0.11133 1.5,1.5 0 0 1 0.382813,0.23438 1.5,1.5 0 0 1 0.109375,0.10351 1.5,1.5 0 0 1 0.185547,0.23242 1.5,1.5 0 0 1 0,0.002 1.5,1.5 0 0 1 0.07422,0.1289 1.5,1.5 0 0 1 0,0.002 1.5,1.5 0 0 1 0.07617,0.17773 1.5,1.5 0 0 1 0.08789,0.5 1.5,1.5 0 0 1 -1.5,1.5 1.5,1.5 0 0 1 -1.5,-1.5 1.5,1.5 0 0 1 1.5,-1.5 z m 9,0 a 1.5,1.5 0 0 1 1.5,1.5 1.5,1.5 0 0 1 -1.5,1.5 1.5,1.5 0 0 1 -1.5,-1.5 1.5,1.5 0 0 1 0.0879,-0.5 1.5,1.5 0 0 1 0.75391,-0.8457 1.5,1.5 0 0 1 0.0684,-0.0312 1.5,1.5 0 0 1 0.21875,-0.0742 1.5,1.5 0 0 1 0.0664,-0.0156 1.5,1.5 0 0 1 0.23047,-0.0312 1.5,1.5 0 0 1 0.0742,-0.002 z"
       id="path860"
       inkscape:connector-curvature="0" />
  </g>
</svg>
