<?xml version="1.0" encoding="UTF-8" standalone="no"?>
<!-- Created with Inkscape (http://www.inkscape.org/) -->

<svg
   xmlns:dc="http://purl.org/dc/elements/1.1/"
   xmlns:cc="http://creativecommons.org/ns#"
   xmlns:rdf="http://www.w3.org/1999/02/22-rdf-syntax-ns#"
   xmlns:svg="http://www.w3.org/2000/svg"
   xmlns="http://www.w3.org/2000/svg"
   xmlns:xlink="http://www.w3.org/1999/xlink"
   xmlns:sodipodi="http://sodipodi.sourceforge.net/DTD/sodipodi-0.dtd"
   xmlns:inkscape="http://www.inkscape.org/namespaces/inkscape"
   width="126"
   height="56"
   viewBox="0 0 126 56"
   version="1.1"
   id="svg1087"
   inkscape:version="0.92.2 5c3e80d, 2017-08-06"
   sodipodi:docname="edit-select-all.svg">
  <defs
     id="defs1081">
    <linearGradient
       inkscape:collect="always"
       xlink:href="#linearGradient4730"
       id="linearGradient4593"
       gradientUnits="userSpaceOnUse"
       gradientTransform="matrix(0.4782599,0,0,0.47826359,47.52174,25.171867)"
       x1="7"
       y1="1011.3622"
       x2="41.000019"
       y2="1045.3622" />
    <linearGradient
       id="linearGradient4730"
       inkscape:collect="always">
      <stop
         id="stop4726"
         offset="0"
         style="stop-color:#ffffff;stop-opacity:0.05490196" />
      <stop
         id="stop4728"
         offset="1"
         style="stop-color:#177ed5;stop-opacity:0;" />
    </linearGradient>
    <linearGradient
       inkscape:collect="always"
       xlink:href="#linearGradient5320"
       id="linearGradient4591"
       gradientUnits="userSpaceOnUse"
       x1="67.646446"
       y1="514.35358"
       x2="72.5"
       y2="514.35358"
       gradientTransform="translate(-5,0.999997)" />
    <linearGradient
       id="linearGradient5320"
       inkscape:collect="always">
      <stop
         id="stop5322"
         offset="0"
         style="stop-color:#000000;stop-opacity:0.15000001" />
      <stop
         id="stop5324"
         offset="1"
         style="stop-color:#000000;stop-opacity:0;" />
    </linearGradient>
    <linearGradient
       inkscape:collect="always"
       xlink:href="#linearGradient4730"
       id="linearGradient4620"
       gradientUnits="userSpaceOnUse"
       gradientTransform="matrix(0.4782599,0,0,0.47826359,86.52174,24.171867)"
       x1="7"
       y1="1011.3622"
       x2="41.000019"
       y2="1045.3622" />
    <linearGradient
       inkscape:collect="always"
       xlink:href="#linearGradient5320"
       id="linearGradient4584"
       x1="67.646446"
       y1="514.35358"
       x2="72.5"
       y2="514.35358"
       gradientUnits="userSpaceOnUse"
       gradientTransform="translate(34,-3e-6)" />
  </defs>
  <sodipodi:namedview
     id="base"
     pagecolor="#c3c3c3"
     bordercolor="#333333"
     borderopacity="1"
     inkscape:pageopacity="0"
     inkscape:pageshadow="2"
     inkscape:zoom="16"
     inkscape:cx="82.391219"
     inkscape:cy="0.91784491"
     inkscape:document-units="px"
     inkscape:current-layer="layer2"
     showgrid="true"
     units="px"
     inkscape:showpageshadow="false"
     inkscape:window-width="2560"
     inkscape:window-height="1370"
     inkscape:window-x="0"
     inkscape:window-y="34"
     inkscape:window-maximized="1">
    <inkscape:grid
       type="xygrid"
       id="grid4630" />
  </sodipodi:namedview>
  <metadata
     id="metadata1084">
    <rdf:RDF>
      <cc:Work
         rdf:about="">
        <dc:format>image/svg+xml</dc:format>
        <dc:type
           rdf:resource="http://purl.org/dc/dcmitype/StillImage" />
        <dc:title />
        <cc:license
           rdf:resource="http://creativecommons.org/licenses/by-sa/4.0/" />
        <dc:creator>
          <cc:Agent>
            <dc:title>Peter Cornelis</dc:title>
          </cc:Agent>
        </dc:creator>
      </cc:Work>
      <cc:License
         rdf:about="http://creativecommons.org/licenses/by-sa/4.0/">
        <cc:permits
           rdf:resource="http://creativecommons.org/ns#Reproduction" />
        <cc:permits
           rdf:resource="http://creativecommons.org/ns#Distribution" />
        <cc:requires
           rdf:resource="http://creativecommons.org/ns#Notice" />
        <cc:requires
           rdf:resource="http://creativecommons.org/ns#Attribution" />
        <cc:permits
           rdf:resource="http://creativecommons.org/ns#DerivativeWorks" />
        <cc:requires
           rdf:resource="http://creativecommons.org/ns#ShareAlike" />
      </cc:License>
    </rdf:RDF>
  </metadata>
  <g
     inkscape:label="Baseplate"
     inkscape:groupmode="layer"
     id="layer1"
     transform="translate(0,-641.06668)"
     style="display:none">
    <text
       y="733.32251"
       xml:space="preserve"
       x="-0.99316406"
       style="font-style:normal;font-variant:normal;font-weight:normal;font-stretch:normal;line-height:0%;font-family:'DejaVu Sans';-inkscape-font-specification:'DejaVu Sans';display:inline;fill:#000000;fill-opacity:1;stroke:none;enable-background:new"
       inkscape:label="context"
       id="context"><tspan
         style="font-style:normal;font-variant:normal;font-weight:normal;font-stretch:normal;font-size:18px;line-height:1.25;font-family:'DejaVu Sans';-inkscape-font-specification:'DejaVu Sans'"
         y="733.32251"
         x="-0.99316406"
         sodipodi:role="line"
         id="tspan3933">actions</tspan></text>
    <text
       y="733.32251"
       xml:space="preserve"
       x="126.48828"
       style="font-style:normal;font-variant:normal;font-weight:bold;font-stretch:normal;line-height:0%;font-family:'DejaVu Sans';-inkscape-font-specification:'DejaVu Sans Bold';text-align:start;writing-mode:lr-tb;text-anchor:start;display:inline;fill:#000000;fill-opacity:1;stroke:none;enable-background:new"
       inkscape:label="icon-name"
       id="icon-name"><tspan
         style="font-style:normal;font-variant:normal;font-weight:bold;font-stretch:normal;font-size:18px;line-height:1.25;font-family:'DejaVu Sans';-inkscape-font-specification:'DejaVu Sans Bold'"
         y="733.32251"
         x="126.48828"
         sodipodi:role="line"
         id="tspan3937">edit-select-all</tspan></text>
    <rect
       style="display:inline;overflow:visible;visibility:visible;fill:#fefefe;fill-opacity:1;fill-rule:nonzero;stroke:none;stroke-width:2;marker:none;enable-background:accumulate"
       id="rect16x16"
       width="16"
       height="16"
       x="-32"
       y="665.06665"
       inkscape:label="16x16"
       transform="scale(-1,1)" />
    <rect
       style="display:inline;overflow:visible;visibility:visible;fill:#fefefe;fill-opacity:1;fill-rule:nonzero;stroke:none;stroke-width:2;marker:none;enable-background:accumulate"
       id="rect24x24"
       width="24"
       height="24"
       x="-110"
       y="657.06665"
       inkscape:label="24x24"
       transform="scale(-1,1)" />
    <rect
       transform="scale(-1,1)"
       inkscape:label="24x24"
       y="659.06665"
       x="-70"
       height="22"
       width="22"
       id="rect4495"
       style="display:inline;overflow:visible;visibility:visible;fill:#fefefe;fill-opacity:1;fill-rule:nonzero;stroke:none;stroke-width:1.83333325;marker:none;enable-background:accumulate" />
  </g>
  <g
     inkscape:groupmode="layer"
     id="layer2"
     inkscape:label="Bitmap"
     style="display:inline"
     transform="translate(0,-488)">
    <path
       style="display:inline;fill:none;fill-opacity:1;stroke:#000000;stroke-width:1;stroke-linecap:round;stroke-linejoin:round;stroke-miterlimit:4;stroke-dasharray:none;stroke-opacity:0.2;enable-background:new"
       d="m 92,506 c -1.108,0 -2,0.892 -2,2 v 0.47656 15.06641 V 524 c 0,1.108 0.892,2 2,2 H 93.460938 97.333984 100 100.01563 104 c 1.108,0 2,-0.892 2,-2 v -0.47656 -3.50782 -4.03125 V 512 l -6,-6 h -6.550781 z"
       id="path858"
       inkscape:connector-curvature="0" />
    <path
       style="display:inline;fill:none;fill-opacity:1;stroke:#000000;stroke-width:1;stroke-linecap:round;stroke-linejoin:round;stroke-miterlimit:4;stroke-dasharray:none;stroke-opacity:0.2;enable-background:new"
       d="m 53,507 c -1.108,0 -2,0.892 -2,2 v 0.47656 15.06641 V 525 c 0,1.108 0.892,2 2,2 H 54.460938 65 c 1.108,0 2,-0.892 2,-2 v -0.47656 -5.50782 -4.03125 V 513 l -6,-6 h -6.550781 z"
       id="path860"
       inkscape:connector-curvature="0" />
    <path
       style="display:inline;fill:none;fill-opacity:1;fill-rule:evenodd;stroke:#000000;stroke-width:1;stroke-linecap:butt;stroke-linejoin:miter;stroke-miterlimit:4;stroke-dasharray:none;stroke-opacity:0.2;enable-background:new"
       d="M 19 25 C 17.892 25 17 25.89199 17 27 L 17 32 L 17 37 C 17 37.179198 17.029793 37.349302 17.074219 37.513672 C 17.083744 37.54963 17.095983 37.584019 17.107422 37.619141 C 17.158439 37.772891 17.222288 37.921558 17.306641 38.056641 C 17.308484 38.059593 17.308689 38.063464 17.310547 38.066406 C 17.469159 38.317586 17.682414 38.530842 17.933594 38.689453 C 17.936536 38.691311 17.940407 38.691516 17.943359 38.693359 C 18.078442 38.777711 18.227108 38.841561 18.380859 38.892578 C 18.415981 38.904017 18.45037 38.916256 18.486328 38.925781 C 18.650698 38.970207 18.820803 39 19 39 L 20 39 L 22 39 L 25 39 L 27 39 C 27.1385 39 27.273867 38.985539 27.404297 38.958984 C 27.665156 38.905876 27.906406 38.80364 28.119141 38.660156 C 28.438242 38.444931 28.692344 38.138454 28.84375 37.779297 C 28.944688 37.539859 29 37.277003 29 37 L 29 32 L 29 31 L 29 30 L 28.507812 29.507812 L 26.492188 27.492188 L 24 25 L 23 25 L 22 25 L 20 25 L 19 25 z "
       transform="translate(0,488)"
       id="path870" />
    <path
       style="display:inline;fill:#ececec;fill-opacity:1;fill-rule:evenodd;stroke:none;stroke-width:4.86648273px;stroke-linecap:butt;stroke-linejoin:miter;stroke-opacity:1;enable-background:new"
       d="m 19,513 c -1.108,0 -2,0.89199 -2,2 v 5 5 c 0,1.10801 0.892,2 2,2 h 1 2 3 2 c 1.108,0 2,-0.89199 2,-2 v -5 -1 -1 l -5,-5 h -1 -1 -2 z"
       id="rect4630-7-2-3"
       inkscape:connector-curvature="0" />
    <path
       inkscape:connector-curvature="0"
       id="path4533"
       d="m 92,507 c -1.108,0 -2,0.892 -2,2 v 16 c 0,1.108 0.892,2 2,2 h 12 c 1.108,0 2,-0.892 2,-2 v -12 l -6,-6 z"
       style="display:inline;opacity:1;fill:#000000;fill-opacity:0.2;stroke:none" />
    <path
       style="display:inline;opacity:1;fill:#ececec;fill-opacity:1;stroke:none"
       d="m 92,506 c -1.108,0 -2,0.892 -2,2 v 16 c 0,1.108 0.892,2 2,2 h 12 c 1.108,0 2,-0.892 2,-2 v -12 l -6,-6 z"
       id="rect4555"
       inkscape:connector-curvature="0" />
    <path
       style="display:inline;opacity:1;fill:#ffffff;fill-opacity:0.2;stroke:none"
       d="m 92,506 c -1.108,0 -2,0.892 -2,2 v 1 c 0,-1.108 0.892,-2 2,-2 h 9 l -1,-1 z"
       id="path4566"
       inkscape:connector-curvature="0" />
    <path
       style="display:inline;opacity:1;fill:#ffffff;fill-opacity:0.8;stroke:none"
       d="m 106,512 -6,-6 v 4 c 0,1.108 0.892,2 2,2 z"
       id="rect4560"
       inkscape:connector-curvature="0" />
    <path
       style="display:inline;fill:url(#linearGradient4584);fill-opacity:1;stroke:none;stroke-width:1px;stroke-linecap:butt;stroke-linejoin:miter;stroke-opacity:1"
       d="m 102,512 4,4 v -4 h -4"
       id="path4576"
       inkscape:connector-curvature="0" />
    <path
       style="display:inline;fill:url(#linearGradient4620);fill-opacity:1;stroke:none;stroke-width:1.46667397;stroke-linecap:round;stroke-linejoin:round;stroke-miterlimit:4;stroke-dasharray:none;stroke-opacity:1;enable-background:new"
       d="m 92,506 c -1.108,0 -2,0.892 -2,2 v 0.47656 15.06641 V 524 c 0,1.108 0.892,2 2,2 H 93.460938 102.55078 104 c 1.108,0 2,-0.892 2,-2 V 523.52344 512 l -6,-6 h -6.550781 z"
       id="path4618-3"
       inkscape:connector-curvature="0" />
    <path
       style="display:inline;opacity:1;fill:#000000;fill-opacity:0.2;stroke:none"
       d="m 53,508 c -1.108,0 -2,0.892 -2,2 v 16 c 0,1.108 0.892,2 2,2 h 12 c 1.108,0 2,-0.892 2,-2 v -12 l -6,-6 z"
       id="path4577"
       inkscape:connector-curvature="0" />
    <path
       inkscape:connector-curvature="0"
       id="path4579"
       d="m 53,507 c -1.108,0 -2,0.892 -2,2 v 16 c 0,1.108 0.892,2 2,2 h 12 c 1.108,0 2,-0.892 2,-2 v -12 l -6,-6 z"
       style="display:inline;opacity:1;fill:#ececec;fill-opacity:1;stroke:none" />
    <path
       inkscape:connector-curvature="0"
       id="path4581"
       d="m 53,507 c -1.108,0 -2,0.892 -2,2 v 1 c 0,-1.108 0.892,-2 2,-2 h 9 l -1,-1 z"
       style="display:inline;opacity:1;fill:#ffffff;fill-opacity:0.2;stroke:none" />
    <path
       inkscape:connector-curvature="0"
       id="path4583"
       d="m 67,513 -6,-6 v 4 c 0,1.108 0.892,2 2,2 z"
       style="display:inline;opacity:1;fill:#ffffff;fill-opacity:0.8;stroke:none" />
    <path
       inkscape:connector-curvature="0"
       id="path4585"
       d="m 63,513 4,4 v -4 h -4"
       style="display:inline;fill:url(#linearGradient4591);fill-opacity:1;stroke:none;stroke-width:1px;stroke-linecap:butt;stroke-linejoin:miter;stroke-opacity:1" />
    <path
       inkscape:connector-curvature="0"
       id="path4589"
       d="m 53,507 c -1.108,0 -2,0.892 -2,2 v 0.47656 15.06641 V 525 c 0,1.108 0.892,2 2,2 H 54.460938 63.550781 65 c 1.108,0 2,-0.892 2,-2 V 524.52344 513 l -6,-6 h -6.550781 z"
       style="display:inline;fill:url(#linearGradient4593);fill-opacity:1;stroke:none;stroke-width:1.46667397;stroke-linecap:round;stroke-linejoin:round;stroke-miterlimit:4;stroke-dasharray:none;stroke-opacity:1;enable-background:new" />
    <path
       style="display:inline;opacity:1;fill:#00acc1;fill-opacity:1;stroke:none;stroke-width:2.82842708;stroke-linecap:butt;stroke-linejoin:miter;stroke-miterlimit:4;stroke-dasharray:none;stroke-opacity:1;enable-background:new"
       d="M 19 31 L 19 33 L 27 33 L 27 31 L 19 31 z M 19 35 L 19 37 L 24 37 L 24 35 L 19 35 z "
       transform="translate(0,488)"
       id="path4659" />
    <path
       style="display:inline;opacity:1;fill:#00acc1;fill-opacity:1;stroke:none;stroke-width:2.82842708;stroke-linecap:butt;stroke-linejoin:miter;stroke-miterlimit:4;stroke-dasharray:none;stroke-opacity:1;enable-background:new"
       d="m 55,515 v 2 h 8 v -2 z m 0,4 v 2 h 8 v -2 z m 0,4 v 2 h 5 v -2 z"
       id="path4587"
       inkscape:connector-curvature="0" />
    <rect
       style="opacity:1;fill:#4b525f;fill-opacity:1;stroke:none;stroke-width:1.41421354;stroke-linecap:round;stroke-linejoin:round;stroke-miterlimit:4;stroke-dasharray:none;stroke-opacity:0.2"
       id="rect875"
       width="1"
       height="2"
       x="25"
       y="523" />
    <rect
       y="523"
       x="61"
       height="2"
       width="1"
       id="rect881"
       style="opacity:1;fill:#4b525f;fill-opacity:1;stroke:none;stroke-width:1.41421354;stroke-linecap:round;stroke-linejoin:round;stroke-miterlimit:4;stroke-dasharray:none;stroke-opacity:0.2" />
    <path
       inkscape:connector-curvature="0"
       id="path859"
       d="m 94,514 v 2 h 8 v -2 z m 0,4 v 2 h 8 v -2 z m 0,4 v 2 h 5 v -2 z"
       style="display:inline;opacity:1;fill:#00acc1;fill-opacity:1;stroke:none;stroke-width:2.82842708;stroke-linecap:butt;stroke-linejoin:miter;stroke-miterlimit:4;stroke-dasharray:none;stroke-opacity:1;enable-background:new" />
    <rect
       style="opacity:1;fill:#4b525f;fill-opacity:1;stroke:none;stroke-width:1.41421354;stroke-linecap:round;stroke-linejoin:round;stroke-miterlimit:4;stroke-dasharray:none;stroke-opacity:0.2"
       id="rect861"
       width="1"
       height="2"
       x="100"
       y="522" />
  </g>
</svg>
