<?xml version="1.0" encoding="UTF-8" standalone="no"?>
<!-- Created with Inkscape (http://www.inkscape.org/) -->

<svg
   xmlns:dc="http://purl.org/dc/elements/1.1/"
   xmlns:cc="http://creativecommons.org/ns#"
   xmlns:rdf="http://www.w3.org/1999/02/22-rdf-syntax-ns#"
   xmlns:svg="http://www.w3.org/2000/svg"
   xmlns="http://www.w3.org/2000/svg"
   xmlns:sodipodi="http://sodipodi.sourceforge.net/DTD/sodipodi-0.dtd"
   xmlns:inkscape="http://www.inkscape.org/namespaces/inkscape"
   width="126"
   height="56"
   viewBox="0 0 126 56"
   version="1.1"
   id="svg1087"
   inkscape:version="0.92.2 5c3e80d, 2017-08-06"
   sodipodi:docname="object-rotate-left.svg">
  <defs
     id="defs1081" />
  <sodipodi:namedview
     id="base"
     pagecolor="#c3c3c3"
     bordercolor="#333333"
     borderopacity="1"
     inkscape:pageopacity="0"
     inkscape:pageshadow="2"
     inkscape:zoom="5.6568543"
     inkscape:cx="125.17544"
     inkscape:cy="-14.339242"
     inkscape:document-units="px"
     inkscape:current-layer="layer1"
     showgrid="true"
     units="px"
     inkscape:showpageshadow="false"
     inkscape:window-width="2560"
     inkscape:window-height="1370"
     inkscape:window-x="0"
     inkscape:window-y="34"
     inkscape:window-maximized="1">
    <inkscape:grid
       type="xygrid"
       id="grid4630" />
  </sodipodi:namedview>
  <metadata
     id="metadata1084">
    <rdf:RDF>
      <cc:Work
         rdf:about="">
        <dc:format>image/svg+xml</dc:format>
        <dc:type
           rdf:resource="http://purl.org/dc/dcmitype/StillImage" />
        <dc:title></dc:title>
        <cc:license
           rdf:resource="http://creativecommons.org/licenses/by-sa/4.0/" />
        <dc:creator>
          <cc:Agent>
            <dc:title>Peter Cornelis</dc:title>
          </cc:Agent>
        </dc:creator>
      </cc:Work>
      <cc:License
         rdf:about="http://creativecommons.org/licenses/by-sa/4.0/">
        <cc:permits
           rdf:resource="http://creativecommons.org/ns#Reproduction" />
        <cc:permits
           rdf:resource="http://creativecommons.org/ns#Distribution" />
        <cc:requires
           rdf:resource="http://creativecommons.org/ns#Notice" />
        <cc:requires
           rdf:resource="http://creativecommons.org/ns#Attribution" />
        <cc:permits
           rdf:resource="http://creativecommons.org/ns#DerivativeWorks" />
        <cc:requires
           rdf:resource="http://creativecommons.org/ns#ShareAlike" />
      </cc:License>
    </rdf:RDF>
  </metadata>
  <g
     inkscape:label="Baseplate"
     inkscape:groupmode="layer"
     id="layer1"
     transform="translate(0,-641.06668)"
     style="display:none">
    <text
       y="733.32251"
       xml:space="preserve"
       x="-0.99316406"
       style="font-style:normal;font-variant:normal;font-weight:normal;font-stretch:normal;line-height:0%;font-family:'DejaVu Sans';-inkscape-font-specification:'DejaVu Sans';display:inline;fill:#000000;fill-opacity:1;stroke:none;enable-background:new"
       inkscape:label="context"
       id="context"><tspan
         style="font-style:normal;font-variant:normal;font-weight:normal;font-stretch:normal;font-size:18px;line-height:1.25;font-family:'DejaVu Sans';-inkscape-font-specification:'DejaVu Sans'"
         y="733.32251"
         x="-0.99316406"
         sodipodi:role="line"
         id="tspan3933">actions</tspan></text>
    <text
       y="733.32251"
       xml:space="preserve"
       x="126.48828"
       style="font-style:normal;font-variant:normal;font-weight:bold;font-stretch:normal;line-height:0%;font-family:'DejaVu Sans';-inkscape-font-specification:'DejaVu Sans Bold';text-align:start;writing-mode:lr-tb;text-anchor:start;display:inline;fill:#000000;fill-opacity:1;stroke:none;enable-background:new"
       inkscape:label="icon-name"
       id="icon-name"><tspan
         style="font-style:normal;font-variant:normal;font-weight:bold;font-stretch:normal;font-size:18px;line-height:1.25;font-family:'DejaVu Sans';-inkscape-font-specification:'DejaVu Sans Bold'"
         y="733.32251"
         x="126.48828"
         sodipodi:role="line"
         id="tspan3937">object-rotate-left</tspan></text>
    <rect
       style="display:inline;overflow:visible;visibility:visible;fill:#fefefe;fill-opacity:1;fill-rule:nonzero;stroke:none;stroke-width:2;marker:none;enable-background:accumulate"
       id="rect16x16"
       width="16"
       height="16"
       x="-32"
       y="665.06665"
       inkscape:label="16x16"
       transform="scale(-1,1)" />
    <rect
       style="display:inline;overflow:visible;visibility:visible;fill:#fefefe;fill-opacity:1;fill-rule:nonzero;stroke:none;stroke-width:2;marker:none;enable-background:accumulate"
       id="rect24x24"
       width="24"
       height="24"
       x="-110"
       y="657.06665"
       inkscape:label="24x24"
       transform="scale(-1,1)" />
    <rect
       transform="scale(-1,1)"
       inkscape:label="24x24"
       y="659.06665"
       x="-70"
       height="22"
       width="22"
       id="rect4495"
       style="display:inline;overflow:visible;visibility:visible;fill:#fefefe;fill-opacity:1;fill-rule:nonzero;stroke:none;stroke-width:1.83333325;marker:none;enable-background:accumulate" />
    <path
       style="display:inline;fill:#ffffff;fill-opacity:0.2;stroke:none;enable-background:new"
       d="m 59,659.06668 c -6.094,0 -11,4.906 -11,11 0,0.16899 0.01792,0.33292 0.02539,0.5 0.261766,-5.85817 5.049599,-10.5 10.97461,-10.5 5.925011,0 10.712844,4.64183 10.974609,10.5 0.0075,-0.16708 0.02539,-0.33101 0.02539,-0.5 0,-6.094 -4.906,-11 -10.999999,-11 z"
       id="rect4613"
       inkscape:connector-curvature="0" />
  </g>
  <g
     inkscape:groupmode="layer"
     id="layer2"
     inkscape:label="Bitmap"
     style="display:inline"
     transform="translate(0,-488)">
    <path
       inkscape:connector-curvature="0"
       d="m 24.00207,512.00001 -3.562458,2.98242 3.560508,3.01758 v -2 c 2.209114,0 3.999953,1.79086 3.999953,4 0,2.20914 -1.790839,4 -3.999953,4 -2.209114,0 -3.999953,-1.79086 -3.999953,-4 0,-0.006 -0.004,-0.0113 -0.004,-0.0176 H 18.004 c -1.1e-4,0.006 -0.004,0.0113 -0.004,0.0176 0,0.0333 0.004,0.0665 0.008,0.0996 0.0538,3.26723 2.714048,5.90039 5.99407,5.90039 3.313671,0 5.99993,-2.68629 5.99993,-6 0,-3.31371 -2.686259,-6 -5.99993,-6 v -2 z"
       id="path5297"
       style="display:inline;opacity:1;fill:#000000;fill-opacity:0.49803922;stroke:none;stroke-width:1.99998832;stroke-linecap:square;stroke-linejoin:miter;stroke-miterlimit:4;stroke-dasharray:none;stroke-opacity:1;enable-background:new" />
    <path
       style="opacity:1;fill:#000000;fill-opacity:0.49803922;stroke:none;stroke-width:1;stroke-linecap:round;stroke-linejoin:round;stroke-miterlimit:4;stroke-dasharray:none;stroke-opacity:0.2"
       d="M 59 18 L 54 21.5 L 59 25 L 59 23 A 6 6 0 0 1 65 29 A 6 6 0 0 1 59 35 A 6 6 0 0 1 53.085938 30 L 50.060547 30 A 9 9 0 0 0 59 38 A 9 9 0 0 0 68 29 A 9 9 0 0 0 59 20 L 59 18 z "
       transform="translate(0,488)"
       id="path848" />
    <path
       id="path859"
       d="m 98.000229,505.0005 -4.999875,3.49991 4.999875,3.49992 v -1.99995 a 5.9998495,5.9998495 0 0 1 5.999851,5.99985 5.9998495,5.9998495 0 0 1 -5.999851,5.99985 5.9998495,5.9998495 0 0 1 -5.913914,-4.99988 H 89.061 A 8.9997742,8.9997742 0 0 0 98.000229,525 8.9997742,8.9997742 0 0 0 107,516.00023 8.9997742,8.9997742 0 0 0 98.000229,507.00045 Z"
       style="opacity:1;fill:#000000;fill-opacity:0.49803922;stroke:none;stroke-width:0.99997491;stroke-linecap:round;stroke-linejoin:round;stroke-miterlimit:4;stroke-dasharray:none;stroke-opacity:0.2"
       inkscape:connector-curvature="0" />
  </g>
</svg>
