<?xml version="1.0" encoding="UTF-8" standalone="no"?>
<svg
   xmlns:dc="http://purl.org/dc/elements/1.1/"
   xmlns:cc="http://creativecommons.org/ns#"
   xmlns:rdf="http://www.w3.org/1999/02/22-rdf-syntax-ns#"
   xmlns:svg="http://www.w3.org/2000/svg"
   xmlns="http://www.w3.org/2000/svg"
   xmlns:sodipodi="http://sodipodi.sourceforge.net/DTD/sodipodi-0.dtd"
   xmlns:inkscape="http://www.inkscape.org/namespaces/inkscape"
   width="24"
   height="24"
   viewBox="0 0 24 24"
   id="svg2"
   version="1.1"
   inkscape:version="0.91 r13725"
   sodipodi:docname="document-properties.svg">
  <metadata
     id="metadata12">
    <rdf:RDF>
      <cc:Work
         rdf:about="">
        <dc:format>image/svg+xml</dc:format>
        <dc:type
           rdf:resource="http://purl.org/dc/dcmitype/StillImage" />
        <dc:title></dc:title>
      </cc:Work>
    </rdf:RDF>
  </metadata>
  <defs
     id="defs10" />
  <sodipodi:namedview
     pagecolor="#ffffff"
     bordercolor="#666666"
     borderopacity="1"
     objecttolerance="10"
     gridtolerance="10"
     guidetolerance="10"
     inkscape:pageopacity="0"
     inkscape:pageshadow="2"
     inkscape:window-width="959"
     inkscape:window-height="1008"
     id="namedview8"
     showgrid="true"
     inkscape:zoom="15.999999"
     inkscape:cx="11.578929"
     inkscape:cy="5.986703"
     inkscape:window-x="852"
     inkscape:window-y="3"
     inkscape:window-maximized="0"
     inkscape:current-layer="svg2">
    <inkscape:grid
       type="xygrid"
       id="grid3333" />
  </sodipodi:namedview>
  <path
     style="opacity:1;fill:#000000;fill-opacity:0.55000001;stroke:none;stroke-width:1.66600001;stroke-linecap:round;stroke-linejoin:round;stroke-miterlimit:4;stroke-dasharray:none;stroke-opacity:1"
     d="M 6 2 C 4.9 2 4.0097656 2.9 4.0097656 4 L 4 20 C 4 21.1 4.8902344 22 5.9902344 22 L 18 22 C 19.1 22 20 21.1 20 20 L 20 8 L 14 2 L 6 2 z M 10.765625 8 L 13.232422 8 C 13.38659 8 13.513266 8.1109521 13.541016 8.2519531 L 13.771484 9.8417969 C 14.147654 9.9947969 14.496866 10.196594 14.814453 10.433594 L 16.349609 9.8300781 C 16.48836 9.7760781 16.647529 9.8299844 16.724609 9.9589844 L 17.958984 12.037109 C 18.036069 12.169109 18.001933 12.331876 17.884766 12.421875 L 16.580078 13.414062 C 16.604758 13.606063 16.623047 13.802 16.623047 14 C 16.623047 14.198 16.604748 14.393937 16.580078 14.585938 L 17.880859 15.578125 C 17.998019 15.671125 18.032158 15.833891 17.955078 15.962891 L 16.722656 18.041016 C 16.645572 18.170016 16.484456 18.220912 16.345703 18.169922 L 14.810547 17.566406 C 14.492961 17.806406 14.14375 18.005203 13.767578 18.158203 L 13.537109 19.748047 C 13.512441 19.889047 13.38659 20 13.232422 20 L 10.765625 20 C 10.611457 20 10.483654 19.889047 10.458984 19.748047 L 10.228516 18.158203 C 9.8523449 18.005203 9.5031338 17.803406 9.1855469 17.566406 L 7.6503906 18.169922 C 7.5116392 18.223922 7.3524746 18.170016 7.2753906 18.041016 L 6.0410156 15.962891 C 5.9639307 15.830891 5.9980665 15.668125 6.1152344 15.578125 L 7.4160156 14.585938 C 7.3913486 14.393937 7.3730469 14.198 7.3730469 14 C 7.3730469 13.802 7.3913494 13.606063 7.4160156 13.414062 L 6.1152344 12.421875 C 5.9980674 12.328876 5.9639316 12.166109 6.0410156 12.037109 L 7.2753906 9.9589844 C 7.3524749 9.8299844 7.5116392 9.7790681 7.6503906 9.8300781 L 9.1855469 10.433594 C 9.5031337 10.193594 9.8523445 9.9947969 10.228516 9.8417969 L 10.458984 8.2519531 C 10.483651 8.1109521 10.611456 8 10.765625 8 z M 11.998047 11.900391 C 10.804784 11.900391 9.8398438 12.839 9.8398438 14 C 9.8398438 15.161 10.804784 16.099609 11.998047 16.099609 C 13.191311 16.099609 14.15625 15.161 14.15625 14 C 14.15625 12.839 13.191311 11.900391 11.998047 11.900391 z "
     id="rect4144" />
</svg>
