<?xml version="1.0" encoding="UTF-8" standalone="no"?>
<svg
   xmlns:dc="http://purl.org/dc/elements/1.1/"
   xmlns:cc="http://creativecommons.org/ns#"
   xmlns:rdf="http://www.w3.org/1999/02/22-rdf-syntax-ns#"
   xmlns:svg="http://www.w3.org/2000/svg"
   xmlns="http://www.w3.org/2000/svg"
   xmlns:sodipodi="http://sodipodi.sourceforge.net/DTD/sodipodi-0.dtd"
   xmlns:inkscape="http://www.inkscape.org/namespaces/inkscape"
   width="24"
   height="24"
   viewBox="0 0 24 24"
   id="svg2"
   version="1.1"
   inkscape:version="0.91 r13725"
   sodipodi:docname="system-run.svg">
  <metadata
     id="metadata12">
    <rdf:RDF>
      <cc:Work
         rdf:about="">
        <dc:format>image/svg+xml</dc:format>
        <dc:type
           rdf:resource="http://purl.org/dc/dcmitype/StillImage" />
        <dc:title></dc:title>
      </cc:Work>
    </rdf:RDF>
  </metadata>
  <defs
     id="defs10" />
  <sodipodi:namedview
     pagecolor="#ffffff"
     bordercolor="#666666"
     borderopacity="1"
     objecttolerance="10"
     gridtolerance="10"
     guidetolerance="10"
     inkscape:pageopacity="0"
     inkscape:pageshadow="2"
     inkscape:window-width="959"
     inkscape:window-height="1008"
     id="namedview8"
     showgrid="true"
     inkscape:zoom="8"
     inkscape:cx="6.5658952"
     inkscape:cy="-8.5101364"
     inkscape:window-x="960"
     inkscape:window-y="0"
     inkscape:window-maximized="0"
     inkscape:current-layer="svg2">
    <inkscape:grid
       type="xygrid"
       id="grid3333" />
  </sodipodi:namedview>
  <path
     d="m 9.9352569,17.93875 c 0.0185,-0.144 0.032382,-0.29025 0.032382,-0.43875 0,-0.1485 -0.013875,-0.29475 -0.032382,-0.438751 L 10.913455,16.3165 c 0.08788,-0.0675 0.113314,-0.189 0.0555,-0.288 L 10.043946,14.46925 C 9.9861325,14.3725 9.865881,14.332 9.7618175,14.3725 L 8.6101798,14.82475 C 8.3719897,14.647 8.1106743,14.49625 7.8285468,14.3815 L 7.6551069,13.189 C 7.6342961,13.083249 7.5394804,13 7.4238546,13 L 5.573834,13 c -0.1156268,0 -0.2104399,0.08325 -0.22894,0.189 L 5.1714546,14.3815 C 4.8893264,14.49625 4.628011,14.64475 4.3898209,14.82475 L 3.2381832,14.3725 c -0.1040631,-0.03826 -0.224315,0 -0.2821281,0.09675 L 2.031045,16.0285 c -0.057814,0.09675 -0.032376,0.21825 0.0555,0.288 l 0.9758858,0.74475 c -0.0185,0.144 -0.032376,0.29025 -0.032376,0.43875 0,0.1485 0.013876,0.29475 0.032376,0.43875 L 2.0865451,18.6835 c -0.087876,0.0675 -0.1133138,0.189 -0.0555,0.288 l 0.9250101,1.55925 C 3.0138682,20.6275 3.1341193,20.668 3.238183,20.6275 l 1.1516376,-0.45225 c 0.2381902,0.17775 0.4995056,0.3285 0.7816337,0.44325 L 5.3448937,21.811 C 5.3633944,21.91675 5.4582079,22 5.5738343,22 l 1.8500206,0 c 0.1156255,0 0.2104394,-0.08325 0.2289399,-0.189 l 0.1734389,-1.1925 c 0.2821288,-0.11475 0.5434435,-0.26325 0.7816335,-0.44325 l 1.1516377,0.45225 c 0.1040644,0.03825 0.224315,0 0.2821281,-0.09675 l 0.925011,-1.55925 c 0.05781,-0.09675 0.03237,-0.21825 -0.0555,-0.288 L 9.9352575,17.93875 Z M 6.4988442,19.075 c -0.8949475,0 -1.6187678,-0.70425 -1.6187678,-1.575 0,-0.87075 0.7238203,-1.575 1.6187678,-1.575 0.8949476,0 1.6187677,0.70425 1.6187677,1.575 0,0.87075 -0.7238201,1.575 -1.6187677,1.575 z"
     id="path6"
     inkscape:connector-curvature="0"
     style="fill:#000000;fill-opacity:0.54901961" />
  <path
     style="fill:#000000;fill-opacity:0.54901961"
     inkscape:connector-curvature="0"
     id="path4146"
     d="m 20.343736,9.6825 c 0.02878,-0.224 0.05038,-0.4515 0.05038,-0.6825 0,-0.231 -0.02158,-0.4585 -0.05038,-0.682502 L 21.865376,7.159 c 0.136702,-0.105 0.17626,-0.294 0.08633,-0.448 l -1.4389,-2.4255 C 20.422873,4.135 20.235816,4.072 20.07394,4.135 L 18.282503,4.8385 C 17.911985,4.562 17.505495,4.3275 17.066629,4.149 L 16.796835,2.294 C 16.764461,2.1294991 16.616971,2 16.437108,2 l -2.877809,0 c -0.179864,0 -0.327351,0.1295 -0.35613,0.294 L 12.933375,4.149 C 12.494509,4.3275 12.088018,4.5585 11.7175,4.8385 L 9.9260628,4.135 C 9.7641867,4.075484 9.5771283,4.135 9.4871966,4.2855 L 8.0482919,6.711 c -0.089931,0.1505 -0.050363,0.3395 0.086333,0.448 L 9.6526697,8.3175 C 9.6238917,8.5415 9.6023067,8.769 9.6023067,9 c 0,0.231 0.021583,0.4585 0.050363,0.6825 L 8.1346254,10.841 c -0.136696,0.105 -0.1762659,0.294 -0.086333,0.448 l 1.4389041,2.4255 c 0.089932,0.1505 0.2769892,0.2135 0.4388661,0.1505 L 11.7175,13.1615 c 0.370518,0.2765 0.777008,0.511 1.215875,0.6895 l 0.269794,1.855 c 0.02878,0.1645 0.176266,0.294 0.35613,0.294 l 2.877809,0 c 0.179862,0 0.327352,-0.1295 0.356129,-0.294 l 0.269794,-1.855 c 0.438868,-0.1785 0.845356,-0.4095 1.215874,-0.6895 l 1.791439,0.7035 c 0.16188,0.0595 0.348934,0 0.438865,-0.1505 l 1.438905,-2.4255 c 0.08994,-0.1505 0.05035,-0.3395 -0.08635,-0.448 L 20.343736,9.6825 Z M 14.998202,11.45 c -1.39214,0 -2.518082,-1.0955 -2.518082,-2.45 0,-1.3545 1.125942,-2.45 2.518082,-2.45 1.39214,0 2.518086,1.0955 2.518086,2.45 0,1.3545 -1.125946,2.45 -2.518086,2.45 z" />
</svg>
