<?xml version="1.0" encoding="UTF-8" standalone="no"?>
<!-- Created with Inkscape (http://www.inkscape.org/) -->

<svg
   xmlns:dc="http://purl.org/dc/elements/1.1/"
   xmlns:cc="http://creativecommons.org/ns#"
   xmlns:rdf="http://www.w3.org/1999/02/22-rdf-syntax-ns#"
   xmlns:svg="http://www.w3.org/2000/svg"
   xmlns="http://www.w3.org/2000/svg"
   xmlns:xlink="http://www.w3.org/1999/xlink"
   xmlns:sodipodi="http://sodipodi.sourceforge.net/DTD/sodipodi-0.dtd"
   xmlns:inkscape="http://www.inkscape.org/namespaces/inkscape"
   width="48"
   height="48"
   viewBox="0 0 48.000001 48.000001"
   id="svg2"
   version="1.1"
   inkscape:version="0.91 r13725"
   inkscape:export-filename="/home/poltertec/rect4256.png"
   inkscape:export-xdpi="360"
   inkscape:export-ydpi="360"
   sodipodi:docname="application-x-executable.svg">
  <defs
     id="defs4">
    <filter
       style="color-interpolation-filters:sRGB;"
       inkscape:label="Drop Shadow"
       id="filter4244">
      <feFlood
         flood-opacity="0.498039"
         flood-color="rgb(0,0,0)"
         result="flood"
         id="feFlood4246" />
      <feComposite
         in="flood"
         in2="SourceGraphic"
         operator="in"
         result="composite1"
         id="feComposite4248" />
      <feGaussianBlur
         in="composite1"
         stdDeviation="0.5"
         result="blur"
         id="feGaussianBlur4250" />
      <feOffset
         dx="0"
         dy="1.38778e-16"
         result="offset"
         id="feOffset4252" />
      <feComposite
         in="SourceGraphic"
         in2="offset"
         operator="over"
         result="composite2"
         id="feComposite4254" />
    </filter>
    <linearGradient
       inkscape:collect="always"
       xlink:href="#linearGradient4165"
       id="linearGradient4202"
       x1="55"
       y1="1002.3622"
       x2="95"
       y2="1042.3622"
       gradientUnits="userSpaceOnUse"
       gradientTransform="translate(-51,6.0002)" />
    <linearGradient
       inkscape:collect="always"
       id="linearGradient4165">
      <stop
         style="stop-color:#ffffff;stop-opacity:0.15000001"
         offset="0"
         id="stop4167" />
      <stop
         style="stop-color:#177ed5;stop-opacity:0;"
         offset="1"
         id="stop4169" />
    </linearGradient>
  </defs>
  <sodipodi:namedview
     id="base"
     pagecolor="#ffffff"
     bordercolor="#666666"
     borderopacity="1.0"
     inkscape:pageopacity="0.0"
     inkscape:pageshadow="2"
     inkscape:zoom="11.313708"
     inkscape:cx="10.799187"
     inkscape:cy="25.177421"
     inkscape:document-units="px"
     inkscape:current-layer="layer1"
     showgrid="true"
     units="px"
     inkscape:window-width="960"
     inkscape:window-height="1008"
     inkscape:window-x="0"
     inkscape:window-y="0"
     inkscape:window-maximized="0">
    <inkscape:grid
       type="xygrid"
       id="grid3336" />
  </sodipodi:namedview>
  <metadata
     id="metadata7">
    <rdf:RDF>
      <cc:Work
         rdf:about="">
        <dc:format>image/svg+xml</dc:format>
        <dc:type
           rdf:resource="http://purl.org/dc/dcmitype/StillImage" />
        <dc:title />
      </cc:Work>
    </rdf:RDF>
  </metadata>
  <g
     inkscape:label="Laag 1"
     inkscape:groupmode="layer"
     id="layer1"
     transform="translate(0,-1004.3622)">
    <rect
       style="opacity:1;fill:#7986cb;fill-opacity:1;stroke:none;stroke-width:2;stroke-linecap:round;stroke-linejoin:round;stroke-miterlimit:4;stroke-dasharray:none;stroke-opacity:0.55"
       id="rect4182"
       width="30.040115"
       height="30.040115"
       x="729.11237"
       y="695.17133"
       rx="3.0040116"
       ry="3.0040116"
       transform="matrix(0.70710678,0.70710678,-0.70710678,0.70710678,0,0)" />
    <path
       d="m 32.633904,1030.3372 c 0.04111,-0.32 0.07196,-0.645 0.07196,-0.975 0,-0.33 -0.03084,-0.655 -0.07196,-0.975 l 2.173774,-1.655 c 0.19528,-0.15 0.251809,-0.42 0.123334,-0.64 l -2.055578,-3.465 c -0.128473,-0.215 -0.395698,-0.305 -0.626951,-0.215 l -2.559195,1.005 c -0.529311,-0.395 -1.110012,-0.73 -1.736961,-0.985 l -0.385423,-2.65 c -0.04625,-0.235 -0.256947,-0.42 -0.513895,-0.42 l -4.111156,0 c -0.256947,0 -0.467644,0.185 -0.508755,0.42 l -0.385421,2.65 c -0.626951,0.255 -1.207652,0.585 -1.736964,0.985 l -2.559195,-1.005 c -0.231252,-0.086 -0.498477,0 -0.62695,0.215 l -2.055578,3.465 c -0.128475,0.215 -0.07194,0.485 0.123334,0.64 l 2.168635,1.655 c -0.04111,0.32 -0.07194,0.645 -0.07194,0.975 0,0.33 0.03083,0.655 0.07194,0.975 l -2.168636,1.655 c -0.19528,0.15 -0.251809,0.42 -0.123334,0.64 l 2.055578,3.465 c 0.128473,0.215 0.395699,0.305 0.62695,0.215 l 2.559196,-1.005 c 0.529312,0.395 1.110013,0.73 1.736964,0.985 l 0.385421,2.65 c 0.04111,0.235 0.251808,0.42 0.508755,0.42 l 4.111156,0 c 0.256947,0 0.467643,-0.185 0.508756,-0.42 l 0.38542,-2.65 c 0.626952,-0.255 1.207652,-0.585 1.736963,-0.985 l 2.559195,1.005 c 0.231254,0.085 0.498478,0 0.626951,-0.215 l 2.055579,-3.465 c 0.128474,-0.215 0.07193,-0.485 -0.123334,-0.64 l -2.168635,-1.655 z m -7.636473,2.525 c -1.988771,0 -3.597262,-1.565 -3.597262,-3.5 0,-1.935 1.608491,-3.5 3.597262,-3.5 1.988772,0 3.597262,1.565 3.597262,3.5 0,1.935 -1.60849,3.5 -3.597262,3.5 z"
       id="path4238"
       inkscape:connector-curvature="0"
       style="fill:#000000;fill-opacity:0.2" />
    <path
       style="fill:#fffcfc;fill-opacity:1"
       inkscape:connector-curvature="0"
       id="path4209"
       d="m 31.633904,1029.3372 c 0.04111,-0.32 0.07196,-0.645 0.07196,-0.975 0,-0.33 -0.03084,-0.655 -0.07196,-0.975 l 2.173774,-1.655 c 0.19528,-0.15 0.251809,-0.42 0.123334,-0.64 l -2.055578,-3.465 c -0.128473,-0.215 -0.395698,-0.305 -0.626951,-0.215 l -2.559195,1.005 c -0.529311,-0.395 -1.110012,-0.73 -1.736961,-0.985 l -0.385423,-2.65 c -0.04625,-0.235 -0.256947,-0.42 -0.513895,-0.42 l -4.111156,0 c -0.256947,0 -0.467644,0.185 -0.508755,0.42 l -0.385421,2.65 c -0.626951,0.255 -1.207652,0.585 -1.736964,0.985 l -2.559195,-1.005 c -0.231252,-0.086 -0.498477,0 -0.62695,0.215 l -2.055578,3.465 c -0.128475,0.215 -0.07194,0.485 0.123334,0.64 l 2.168635,1.655 c -0.04111,0.32 -0.07194,0.645 -0.07194,0.975 0,0.33 0.03083,0.655 0.07194,0.975 l -2.168636,1.655 c -0.19528,0.15 -0.251809,0.42 -0.123334,0.64 l 2.055578,3.465 c 0.128473,0.215 0.395699,0.305 0.62695,0.215 l 2.559196,-1.005 c 0.529312,0.395 1.110013,0.73 1.736964,0.985 l 0.385421,2.65 c 0.04111,0.235 0.251808,0.42 0.508755,0.42 l 4.111156,0 c 0.256947,0 0.467643,-0.185 0.508756,-0.42 l 0.38542,-2.65 c 0.626952,-0.255 1.207652,-0.585 1.736963,-0.985 l 2.559195,1.005 c 0.231254,0.085 0.498478,0 0.626951,-0.215 l 2.055579,-3.465 c 0.128474,-0.215 0.07193,-0.485 -0.123334,-0.64 l -2.168635,-1.655 z m -7.636473,2.525 c -1.988771,0 -3.597262,-1.565 -3.597262,-3.5 0,-1.935 1.608491,-3.5 3.597262,-3.5 1.988772,0 3.597262,1.565 3.597262,3.5 0,1.935 -1.60849,3.5 -3.597262,3.5 z" />
    <path
       style="fill:#000000;fill-opacity:0.2"
       d="M 14.253906 20.417969 L 14.068359 20.730469 C 13.939884 20.945469 13.996132 21.214141 14.191406 21.369141 L 16.291016 22.972656 C 16.292681 22.652186 16.321371 22.336414 16.361328 22.025391 L 14.253906 20.417969 z M 33.746094 20.417969 L 31.634766 22.025391 C 31.674732 22.336413 31.701459 22.652187 31.703125 22.972656 L 33.808594 21.369141 C 34.003874 21.219141 34.060116 20.950469 33.931641 20.730469 L 33.746094 20.417969 z M 31.705078 23.986328 C 31.687705 23.987152 31.671861 23.98961 31.654297 23.990234 L 31.703125 24.027344 C 31.703173 24.018094 31.705078 24.009258 31.705078 24 C 31.705078 23.995394 31.70511 23.990926 31.705078 23.986328 z M 14.253906 26.582031 L 14.191406 26.630859 C 13.996126 26.780859 13.939884 27.049531 14.068359 27.269531 L 16.125 30.734375 C 16.253473 30.949375 16.520702 31.039219 16.751953 30.949219 L 19.310547 29.945312 C 19.839859 30.340312 20.419924 30.674687 21.046875 30.929688 L 21.433594 33.580078 C 21.474704 33.815078 21.684459 34 21.941406 34 L 26.052734 34 C 26.309681 34 26.521387 33.815078 26.5625 33.580078 L 26.947266 30.929688 C 27.574218 30.674686 28.154283 30.345313 28.683594 29.945312 L 31.244141 30.949219 C 31.475395 31.034219 31.742621 30.949375 31.871094 30.734375 L 33.925781 27.269531 C 34.054255 27.054531 33.997998 26.785859 33.802734 26.630859 L 33.740234 26.582031 L 31.871094 29.734375 C 31.742621 29.949375 31.475395 30.034219 31.244141 29.949219 L 28.683594 28.945312 C 28.154283 29.345312 27.574218 29.674687 26.947266 29.929688 L 26.5625 32.580078 C 26.521387 32.815078 26.309681 33 26.052734 33 L 21.941406 33 C 21.684459 33 21.474704 32.815078 21.433594 32.580078 L 21.046875 29.929688 C 20.419924 29.674688 19.839859 29.340312 19.310547 28.945312 L 16.751953 29.949219 C 16.520702 30.039219 16.253473 29.949375 16.125 29.734375 L 14.253906 26.582031 z "
       id="path6"
       transform="translate(0,1004.3622)" />
    <path
       style="fill:#ffffff;fill-opacity:0.2"
       d="M 21.941406 14 C 21.684459 14 21.474705 14.184922 21.433594 14.419922 L 21.046875 17.070312 C 20.419924 17.325312 19.839859 17.654688 19.310547 18.054688 L 16.751953 17.050781 C 16.520701 16.964781 16.253473 17.050625 16.125 17.265625 L 14.068359 20.730469 C 13.939884 20.945469 13.996132 21.214141 14.191406 21.369141 L 14.253906 21.417969 L 16.125 18.265625 C 16.253473 18.050625 16.520701 17.964781 16.751953 18.050781 L 19.310547 19.054688 C 19.839859 18.654688 20.419924 18.325312 21.046875 18.070312 L 21.433594 15.419922 C 21.474705 15.184922 21.684459 15 21.941406 15 L 26.052734 15 C 26.309682 15 26.520156 15.184922 26.566406 15.419922 L 26.953125 18.070312 C 27.580074 18.325312 28.160142 18.659688 28.689453 19.054688 L 31.248047 18.050781 C 31.4793 17.960781 31.746527 18.050625 31.875 18.265625 L 33.746094 21.417969 L 33.808594 21.369141 C 34.003874 21.219141 34.060116 20.950469 33.931641 20.730469 L 31.875 17.265625 C 31.746527 17.050625 31.4793 16.960781 31.248047 17.050781 L 28.689453 18.054688 C 28.160142 17.659688 27.580074 17.325312 26.953125 17.070312 L 26.566406 14.419922 C 26.520156 14.184922 26.309682 14 26.052734 14 L 21.941406 14 z M 16.291016 25.027344 L 14.191406 26.630859 C 13.996126 26.780859 13.939884 27.049531 14.068359 27.269531 L 14.253906 27.582031 L 16.361328 25.974609 C 16.321371 25.663586 16.292681 25.347814 16.291016 25.027344 z M 31.703125 25.027344 C 31.701458 25.347813 31.674722 25.663587 31.634766 25.974609 L 33.740234 27.582031 L 33.925781 27.269531 C 34.054255 27.054531 33.997998 26.785859 33.802734 26.630859 L 31.703125 25.027344 z "
       id="path4221"
       transform="translate(0,1004.3622)" />
    <path
       style="opacity:1;fill:#ffffff;fill-opacity:0.2;stroke:none;stroke-width:2;stroke-linecap:round;stroke-linejoin:round;stroke-miterlimit:4;stroke-dasharray:none;stroke-opacity:0.55"
       d="M 24 4 C 23.232117 4 22.463391 4.294421 21.875 4.8828125 L 4.8828125 21.875 C 4.1659207 22.591892 3.8903112 23.574848 4.046875 24.5 C 4.1473118 23.906508 4.4229213 23.334891 4.8828125 22.875 L 21.875 5.8828125 C 23.051783 4.7060295 24.948217 4.7060295 26.125 5.8828125 L 43.117188 22.875 C 43.577079 23.334891 43.852688 23.906508 43.953125 24.5 C 44.109689 23.574848 43.834079 22.591892 43.117188 21.875 L 26.125 4.8828125 C 25.536609 4.294421 24.767883 4 24 4 z "
       transform="translate(0,1004.3622)"
       id="rect4240" />
    <path
       id="path4245"
       d="m 24,1048.3622 c -0.767883,0 -1.536609,-0.2944 -2.125,-0.8828 L 4.8828125,1030.4872 c -0.7168918,-0.7169 -0.9925013,-1.6998 -0.8359375,-2.625 0.1004368,0.5935 0.3760463,1.1651 0.8359375,1.625 L 21.875,1046.4794 c 1.176783,1.1768 3.073217,1.1768 4.25,0 l 16.992188,-16.9922 c 0.459891,-0.4599 0.7355,-1.0315 0.835937,-1.625 0.156564,0.9252 -0.119046,1.9081 -0.835937,2.625 L 26.125,1047.4794 c -0.588391,0.5884 -1.357117,0.8828 -2.125,0.8828 z"
       style="opacity:1;fill:#000000;fill-opacity:0.2;stroke:none;stroke-width:2;stroke-linecap:round;stroke-linejoin:round;stroke-miterlimit:4;stroke-dasharray:none;stroke-opacity:0.55"
       inkscape:connector-curvature="0" />
    <path
       style="opacity:1;fill:url(#linearGradient4202);fill-opacity:1;stroke:none;stroke-width:0;stroke-linecap:butt;stroke-linejoin:miter;stroke-miterlimit:0;stroke-dasharray:none;stroke-opacity:1"
       d="m 24,1008.3622 c -0.767883,0 -1.536609,0.2944 -2.125,0.8828 L 4.8828125,1026.2372 C 4.294421,1026.8256 4,1027.5943 4,1028.3622 c 0,0.7679 0.294421,1.5366 0.8828125,2.125 L 21.875,1047.4794 c 0.588391,0.5884 1.357117,0.8828 2.125,0.8828 0.767883,0 1.536609,-0.2944 2.125,-0.8828 l 16.992188,-16.9922 C 43.705579,1029.8988 44,1029.1301 44,1028.3622 c 0,-0.7679 -0.294421,-1.5366 -0.882812,-2.125 L 26.125,1009.245 c -0.588391,-0.5884 -1.357117,-0.8828 -2.125,-0.8828 z"
       id="rect4153-9"
       inkscape:connector-curvature="0" />
  </g>
</svg>
