<?xml version="1.0" encoding="UTF-8" standalone="no"?>
<!-- Created with Inkscape (http://www.inkscape.org/) -->

<svg
   xmlns:dc="http://purl.org/dc/elements/1.1/"
   xmlns:cc="http://creativecommons.org/ns#"
   xmlns:rdf="http://www.w3.org/1999/02/22-rdf-syntax-ns#"
   xmlns:svg="http://www.w3.org/2000/svg"
   xmlns="http://www.w3.org/2000/svg"
   xmlns:xlink="http://www.w3.org/1999/xlink"
   xmlns:sodipodi="http://sodipodi.sourceforge.net/DTD/sodipodi-0.dtd"
   xmlns:inkscape="http://www.inkscape.org/namespaces/inkscape"
   width="48"
   height="48"
   viewBox="0 0 48.000001 48.000001"
   id="svg2"
   version="1.1"
   inkscape:version="0.91 r13725"
   inkscape:export-filename="/home/poltertec/rect4256.png"
   inkscape:export-xdpi="360"
   inkscape:export-ydpi="360"
   sodipodi:docname="audio-x-generic.svg">
  <defs
     id="defs4">
    <filter
       style="color-interpolation-filters:sRGB;"
       inkscape:label="Drop Shadow"
       id="filter4244">
      <feFlood
         flood-opacity="0.498039"
         flood-color="rgb(0,0,0)"
         result="flood"
         id="feFlood4246" />
      <feComposite
         in="flood"
         in2="SourceGraphic"
         operator="in"
         result="composite1"
         id="feComposite4248" />
      <feGaussianBlur
         in="composite1"
         stdDeviation="0.5"
         result="blur"
         id="feGaussianBlur4250" />
      <feOffset
         dx="0"
         dy="1.38778e-16"
         result="offset"
         id="feOffset4252" />
      <feComposite
         in="SourceGraphic"
         in2="offset"
         operator="over"
         result="composite2"
         id="feComposite4254" />
    </filter>
    <linearGradient
       gradientTransform="translate(36,114.50009)"
       gradientUnits="userSpaceOnUse"
       y2="1002.3622"
       x2="15"
       y1="952.36218"
       x1="-34.999981"
       id="linearGradient4194"
       xlink:href="#linearGradient4196"
       inkscape:collect="always" />
    <linearGradient
       id="linearGradient4196">
      <stop
         style="stop-color:#ffffff;stop-opacity:0.15000001"
         offset="0"
         id="stop4198" />
      <stop
         style="stop-color:#177ed5;stop-opacity:0"
         offset="1"
         id="stop4200" />
    </linearGradient>
    <linearGradient
       gradientTransform="translate(35,-953.86211)"
       gradientUnits="userSpaceOnUse"
       y2="1002.3622"
       x2="15"
       y1="952.36218"
       x1="-34.999981"
       id="linearGradient4194-0"
       xlink:href="#linearGradient4196"
       inkscape:collect="always" />
  </defs>
  <sodipodi:namedview
     id="base"
     pagecolor="#ffffff"
     bordercolor="#666666"
     borderopacity="1.0"
     inkscape:pageopacity="0.0"
     inkscape:pageshadow="2"
     inkscape:zoom="7.919596"
     inkscape:cx="-7.2631851"
     inkscape:cy="11.338343"
     inkscape:document-units="px"
     inkscape:current-layer="layer1"
     showgrid="true"
     units="px"
     inkscape:window-width="1286"
     inkscape:window-height="1008"
     inkscape:window-x="0"
     inkscape:window-y="0"
     inkscape:window-maximized="0">
    <inkscape:grid
       type="xygrid"
       id="grid3336" />
  </sodipodi:namedview>
  <metadata
     id="metadata7">
    <rdf:RDF>
      <cc:Work
         rdf:about="">
        <dc:format>image/svg+xml</dc:format>
        <dc:type
           rdf:resource="http://purl.org/dc/dcmitype/StillImage" />
        <dc:title />
      </cc:Work>
    </rdf:RDF>
  </metadata>
  <g
     inkscape:label="Laag 1"
     inkscape:groupmode="layer"
     id="layer1"
     transform="translate(0,-1004.3622)">
    <path
       style="fill:url(#linearGradient4194);fill-opacity:1;stroke:none"
       d="m 12,1070.3622 c -1.669126,0 -3,1.3389 -3,3 l 0,38 c 0,1.7183 1.252615,3 3.015626,3 l 25.984374,0 c 1.758969,0 3,-1.2293 3,-3 l 0,-28.9998 -12,-12.0002 z"
       id="rect3338-0"
       inkscape:connector-curvature="0"
       sodipodi:nodetypes="ssssssccs"
       inkscape:export-filename="/home/peter/Documenten/test.png"
       inkscape:export-xdpi="360"
       inkscape:export-ydpi="360" />
    <path
       d="M 17 10 L 17 26.369141 C 16.37 26.139141 15.71 26 15 26 C 11.69 26 9 28.69 9 32 C 9 35.31 11.69 38 15 38 C 18.31 38 21 35.31 21 32 L 21 14 L 25 14 L 27 14 L 35 14 L 35 26.369141 C 34.37 26.139141 33.71 26 33 26 C 29.69 26 27 28.69 27 32 C 27 35.31 29.69 38 33 38 C 36.31 38 39 35.31 39 32 L 39 28 L 39 14 L 39 10 L 36 10 L 35 10 L 27 10 L 25 10 L 17 10 z "
       transform="translate(0,1004.3622)"
       id="path4"
       style="fill:#0097a7;fill-opacity:1" />
    <path
       d="M 17 10 L 17 11 L 25 11 L 27 11 L 35 11 L 36 11 L 39 11 L 39 10 L 36 10 L 35 10 L 27 10 L 25 10 L 17 10 z M 15 26 C 11.69 26 9 28.69 9 32 C 9 32.168661 9.0116958 32.334832 9.0253906 32.5 C 9.2804589 29.423726 11.858661 27 15 27 C 15.71 27 16.37 27.139141 17 27.369141 L 17 26.369141 C 16.37 26.139141 15.71 26 15 26 z M 33 26 C 29.69 26 27 28.69 27 32 C 27 32.168661 27.011696 32.334832 27.025391 32.5 C 27.280459 29.423726 29.858661 27 33 27 C 33.71 27 34.37 27.139141 35 27.369141 L 35 26.369141 C 34.37 26.139141 33.71 26 33 26 z "
       transform="translate(0,1004.3622)"
       id="path4200"
       style="fill:#ffffff;fill-opacity:0.2" />
    <path
       style="fill:#000000;fill-opacity:0.2"
       d="M 21 13 L 21 14 L 25 14 L 27 14 L 35 14 L 35 13 L 27 13 L 25 13 L 21 13 z M 21 31 C 21 34.31 18.31 37 15 37 C 11.858661 37 9.2804589 34.576274 9.0253906 31.5 C 9.0116958 31.665168 9 31.831339 9 32 C 9 35.31 11.69 38 15 38 C 18.31 38 21 35.31 21 32 L 21 31 z M 39 31 C 39 34.31 36.31 37 33 37 C 29.858661 37 27.280459 34.576274 27.025391 31.5 C 27.011696 31.665168 27 31.831339 27 32 C 27 35.31 29.69 38 33 38 C 36.31 38 39 35.31 39 32 L 39 31 z "
       transform="translate(0,1004.3622)"
       id="path4205" />
    <path
       style="fill:url(#linearGradient4194-0);fill-opacity:1;stroke:none"
       d="M 17 10 L 17 26.369141 C 16.37 26.139141 15.71 26 15 26 C 11.69 26 9 28.69 9 32 C 9 35.31 11.69 38 15 38 C 18.31 38 21 35.31 21 32 L 21 14 L 25 14 L 27 14 L 35 14 L 35 26.369141 C 34.37 26.139141 33.71 26 33 26 C 29.69 26 27 28.69 27 32 C 27 35.31 29.69 38 33 38 C 36.31 38 39 35.31 39 32 L 39 28 L 39 14 L 39 13 L 36 10 L 35 10 L 27 10 L 25 10 L 17 10 z "
       transform="translate(0,1004.3622)"
       id="rect3338-0-3" />
  </g>
</svg>
