<?xml version="1.0" encoding="UTF-8" standalone="no"?>
<!-- Created with Inkscape (http://www.inkscape.org/) -->

<svg
   xmlns:dc="http://purl.org/dc/elements/1.1/"
   xmlns:cc="http://creativecommons.org/ns#"
   xmlns:rdf="http://www.w3.org/1999/02/22-rdf-syntax-ns#"
   xmlns:svg="http://www.w3.org/2000/svg"
   xmlns="http://www.w3.org/2000/svg"
   xmlns:xlink="http://www.w3.org/1999/xlink"
   xmlns:sodipodi="http://sodipodi.sourceforge.net/DTD/sodipodi-0.dtd"
   xmlns:inkscape="http://www.inkscape.org/namespaces/inkscape"
   width="48"
   height="48"
   viewBox="0 0 48.000001 48.000001"
   id="svg2"
   version="1.1"
   inkscape:version="0.91 r13725"
   inkscape:export-filename="/home/peter/Documenten/shades1.png"
   inkscape:export-xdpi="360"
   inkscape:export-ydpi="360"
   sodipodi:docname="image-x-generic.svg">
  <defs
     id="defs4">
    <filter
       style="color-interpolation-filters:sRGB;"
       inkscape:label="Drop Shadow"
       id="filter4244">
      <feFlood
         flood-opacity="0.498039"
         flood-color="rgb(0,0,0)"
         result="flood"
         id="feFlood4246" />
      <feComposite
         in="flood"
         in2="SourceGraphic"
         operator="in"
         result="composite1"
         id="feComposite4248" />
      <feGaussianBlur
         in="composite1"
         stdDeviation="0.5"
         result="blur"
         id="feGaussianBlur4250" />
      <feOffset
         dx="0"
         dy="1.38778e-16"
         result="offset"
         id="feOffset4252" />
      <feComposite
         in="SourceGraphic"
         in2="offset"
         operator="over"
         result="composite2"
         id="feComposite4254" />
    </filter>
    <linearGradient
       id="linearGradient4196">
      <stop
         style="stop-color:#ffffff;stop-opacity:0.15000001"
         offset="0"
         id="stop4198" />
      <stop
         style="stop-color:#fdffff;stop-opacity:0"
         offset="1"
         id="stop4200" />
    </linearGradient>
    <linearGradient
       inkscape:collect="always"
       xlink:href="#linearGradient4196"
       id="linearGradient4191"
       x1="-37"
       y1="959.36218"
       x2="7"
       y2="1003.3622"
       gradientUnits="userSpaceOnUse"
       gradientTransform="translate(39,-957.36216)" />
    <filter
       inkscape:collect="always"
       style="color-interpolation-filters:sRGB"
       id="filter4166"
       x="-0.027319964"
       width="1.0546399"
       y="-0.0213995"
       height="1.042799">
      <feGaussianBlur
         inkscape:collect="always"
         stdDeviation="0.213995"
         id="feGaussianBlur4168" />
    </filter>
    <filter
       inkscape:collect="always"
       style="color-interpolation-filters:sRGB"
       id="filter4181"
       x="-0.011373369"
       width="1.0227467"
       y="-0.012699707"
       height="1.0253994">
      <feGaussianBlur
         inkscape:collect="always"
         stdDeviation="0.12699707"
         id="feGaussianBlur4183" />
    </filter>
  </defs>
  <sodipodi:namedview
     id="base"
     pagecolor="#ffffff"
     bordercolor="#666666"
     borderopacity="1.0"
     inkscape:pageopacity="0.0"
     inkscape:pageshadow="2"
     inkscape:zoom="6.0076662"
     inkscape:cx="-42.013055"
     inkscape:cy="26.916106"
     inkscape:document-units="px"
     inkscape:current-layer="layer1"
     showgrid="true"
     units="px"
     inkscape:window-width="1920"
     inkscape:window-height="1011"
     inkscape:window-x="0"
     inkscape:window-y="0"
     inkscape:window-maximized="1"
     showguides="false">
    <inkscape:grid
       type="xygrid"
       id="grid3336" />
  </sodipodi:namedview>
  <metadata
     id="metadata7">
    <rdf:RDF>
      <cc:Work
         rdf:about="">
        <dc:format>image/svg+xml</dc:format>
        <dc:type
           rdf:resource="http://purl.org/dc/dcmitype/StillImage" />
        <dc:title />
      </cc:Work>
    </rdf:RDF>
  </metadata>
  <g
     inkscape:label="Laag 1"
     inkscape:groupmode="layer"
     id="layer1"
     transform="translate(0,-1004.3622)">
    <path
       style="opacity:1;fill:#e0e0e0;fill-opacity:1;stroke:none;stroke-width:2;stroke-linecap:round;stroke-linejoin:round;stroke-miterlimit:4;stroke-dasharray:none;stroke-opacity:0.55"
       d="m 5,1010.3622 c -1.662,0 -3,1.338 -3,3 l 0,4 0,22 0,4 c 0,1.662 1.338,3 3,3 l 38,0 c 1.662,0 3,-1.338 3,-3 l 0,-4 0,-22 0,-4 c 0,-1.662 -1.338,-3 -3,-3 l -38,0 z"
       id="rect4177"
       inkscape:connector-curvature="0" />
    <path
       style="opacity:1;fill:#ffffff;fill-opacity:0.2;stroke:none;stroke-width:2;stroke-linecap:round;stroke-linejoin:round;stroke-miterlimit:4;stroke-dasharray:none;stroke-opacity:0.55"
       d="m 5,1010.3622 c -1.662,0 -3,1.338 -3,3 l 0,1 c 0,-1.662 1.338,-3 3,-3 l 38,0 c 1.662,0 3,1.338 3,3 l 0,-1 c 0,-1.662 -1.338,-3 -3,-3 l -38,0 z"
       id="rect4175"
       inkscape:connector-curvature="0" />
    <path
       id="path4180"
       d="m 5,1046.3622 c -1.662,0 -3,-1.338 -3,-3 l 0,-1 c 0,1.662 1.338,3 3,3 l 38,0 c 1.662,0 3,-1.338 3,-3 l 0,1 c 0,1.662 -1.338,3 -3,3 l -38,0 z"
       style="opacity:1;fill:#000000;fill-opacity:0.2;stroke:none;stroke-width:2;stroke-linecap:round;stroke-linejoin:round;stroke-miterlimit:4;stroke-dasharray:none;stroke-opacity:0.55"
       inkscape:connector-curvature="0" />
    <rect
       style="opacity:1;fill:#424242;fill-opacity:1;stroke:none;stroke-width:2;stroke-linecap:round;stroke-linejoin:round;stroke-miterlimit:4;stroke-dasharray:none;stroke-opacity:0.55"
       id="rect4156"
       width="36"
       height="28"
       x="6"
       y="1014.3622" />
    <path
       style="opacity:1;fill:#000000;fill-opacity:0.2;stroke:none;stroke-width:2;stroke-linecap:round;stroke-linejoin:round;stroke-miterlimit:4;stroke-dasharray:none;stroke-opacity:0.55;filter:url(#filter4181)"
       d="M 6 12.5 L 6 13 L 6 14.5 L 6 38 L 18.798828 38 L 20.798828 36 L 30.298828 26.5 L 32.298828 24.5 L 20.298828 12.5 L 6 12.5 z "
       transform="translate(0,1004.3622)"
       id="rect4162" />
    <path
       style="opacity:1;fill:#c0ca33;fill-opacity:1;stroke:none;stroke-width:2;stroke-linecap:round;stroke-linejoin:round;stroke-miterlimit:4;stroke-dasharray:none;stroke-opacity:0.55"
       d="M 6 10 L 6 38 L 17.798828 38 L 19.798828 36 L 29.798828 26 L 31.798828 24 L 29.798828 22 L 19.798828 12 L 17.798828 10 L 6 10 z "
       transform="translate(0,1004.3622)"
       id="rect4164" />
    <path
       style="opacity:1;fill:#000000;fill-opacity:0.3;stroke:none;stroke-width:2;stroke-linecap:round;stroke-linejoin:round;stroke-miterlimit:4;stroke-dasharray:none;stroke-opacity:0.55;filter:url(#filter4166)"
       d="M 6 12.5 L 6 14.5 L 6 38 L 10.798828 38 L 12.798828 36 L 22.298828 26.5 L 24.298828 24.5 L 12.298828 12.5 L 6 12.5 z "
       transform="translate(0,1004.3622)"
       id="rect4160" />
    <path
       style="opacity:1;fill:#26a69a;fill-opacity:1;stroke:none;stroke-width:2;stroke-linecap:round;stroke-linejoin:round;stroke-miterlimit:4;stroke-dasharray:none;stroke-opacity:0.55"
       d="M 6 10 L 6 38 L 9.7988281 38 L 11.798828 36 L 21.798828 26 L 23.798828 24 L 21.798828 22 L 11.798828 12 L 9.7988281 10 L 6 10 z "
       transform="translate(0,1004.3622)"
       id="rect4158" />
    <path
       style="opacity:1;fill:#ef5350;fill-opacity:1;stroke:none;stroke-width:2;stroke-linecap:round;stroke-linejoin:round;stroke-miterlimit:4;stroke-dasharray:none;stroke-opacity:0.55"
       d="M 42 24.201172 L 40 26.201172 L 30.201172 36 L 28.201172 38 L 30.201172 38 L 40 38 L 42 38 L 42 36 L 42 26.201172 L 42 24.201172 z "
       transform="translate(0,1004.3622)"
       id="rect4166" />
    <path
       style="opacity:1;fill:url(#linearGradient4191);fill-opacity:1;stroke:none;stroke-width:0;stroke-linecap:butt;stroke-linejoin:miter;stroke-miterlimit:0;stroke-dasharray:none;stroke-opacity:1"
       d="M 5 6 C 3.338 6 2 7.338 2 9 L 2 11 L 2 13 L 2 17 L 2 35 L 2 37 L 2 39 C 2 40.662 3.338 42 5 42 L 43 42 C 44.662 42 46 40.662 46 39 L 46 37 L 46 11 L 46 9 C 46 7.338 44.662 6 43 6 L 5 6 z "
       transform="translate(0,1004.3622)"
       id="rect4151-9" />
  </g>
</svg>
