<?xml version="1.0" encoding="UTF-8" standalone="no"?>
<!-- Created with Inkscape (http://www.inkscape.org/) -->

<svg
   xmlns:dc="http://purl.org/dc/elements/1.1/"
   xmlns:cc="http://creativecommons.org/ns#"
   xmlns:rdf="http://www.w3.org/1999/02/22-rdf-syntax-ns#"
   xmlns:svg="http://www.w3.org/2000/svg"
   xmlns="http://www.w3.org/2000/svg"
   xmlns:xlink="http://www.w3.org/1999/xlink"
   xmlns:sodipodi="http://sodipodi.sourceforge.net/DTD/sodipodi-0.dtd"
   xmlns:inkscape="http://www.inkscape.org/namespaces/inkscape"
   width="48"
   height="48"
   viewBox="0 0 48.000001 48.000001"
   id="svg2"
   version="1.1"
   inkscape:version="0.91 r13725"
   inkscape:export-filename="/home/poltertec/rect4256.png"
   inkscape:export-xdpi="360"
   inkscape:export-ydpi="360"
   sodipodi:docname="application-archive.svg">
  <defs
     id="defs4">
    <filter
       style="color-interpolation-filters:sRGB;"
       inkscape:label="Drop Shadow"
       id="filter4244">
      <feFlood
         flood-opacity="0.498039"
         flood-color="rgb(0,0,0)"
         result="flood"
         id="feFlood4246" />
      <feComposite
         in="flood"
         in2="SourceGraphic"
         operator="in"
         result="composite1"
         id="feComposite4248" />
      <feGaussianBlur
         in="composite1"
         stdDeviation="0.5"
         result="blur"
         id="feGaussianBlur4250" />
      <feOffset
         dx="0"
         dy="1.38778e-16"
         result="offset"
         id="feOffset4252" />
      <feComposite
         in="SourceGraphic"
         in2="offset"
         operator="over"
         result="composite2"
         id="feComposite4254" />
    </filter>
    <linearGradient
       inkscape:collect="always"
       xlink:href="#linearGradient4165"
       id="linearGradient4171-1"
       x1="7"
       y1="1011.3622"
       x2="41.000019"
       y2="1045.3622"
       gradientUnits="userSpaceOnUse"
       gradientTransform="matrix(0.95651664,0,0,0.9565206,1.043485,44.712812)" />
    <linearGradient
       inkscape:collect="always"
       id="linearGradient4165">
      <stop
         style="stop-color:#ffffff;stop-opacity:0.15000001"
         offset="0"
         id="stop4167" />
      <stop
         style="stop-color:#177ed5;stop-opacity:0;"
         offset="1"
         id="stop4169" />
    </linearGradient>
  </defs>
  <sodipodi:namedview
     id="base"
     pagecolor="#ffffff"
     bordercolor="#666666"
     borderopacity="1.0"
     inkscape:pageopacity="0.0"
     inkscape:pageshadow="2"
     inkscape:zoom="1.979899"
     inkscape:cx="-62.196452"
     inkscape:cy="165.0933"
     inkscape:document-units="px"
     inkscape:current-layer="layer1"
     showgrid="false"
     units="px"
     inkscape:window-width="959"
     inkscape:window-height="1000"
     inkscape:window-x="959"
     inkscape:window-y="0"
     inkscape:window-maximized="0">
    <inkscape:grid
       type="xygrid"
       id="grid3336" />
  </sodipodi:namedview>
  <metadata
     id="metadata7">
    <rdf:RDF>
      <cc:Work
         rdf:about="">
        <dc:format>image/svg+xml</dc:format>
        <dc:type
           rdf:resource="http://purl.org/dc/dcmitype/StillImage" />
        <dc:title></dc:title>
      </cc:Work>
    </rdf:RDF>
  </metadata>
  <g
     inkscape:label="Laag 1"
     inkscape:groupmode="layer"
     id="layer1"
     transform="translate(0,-1004.3622)">
    <rect
       style="fill:#eeeeee;fill-opacity:1"
       id="rect4200"
       width="35"
       height="6"
       x="7"
       y="1008.3622" />
    <path
       d="m 44.887778,1011.8011 -3.385556,-4.1067 c -0.684444,-0.8066 -1.698889,-1.3322 -2.835555,-1.3322 l -29.333334,0 c -1.136666,0 -2.151111,0.5256 -2.823333,1.3322 l -3.385556,4.1067 C 2.415555,1012.6566 2,1013.7322 2,1014.9178 l 0,30.5555 c 0,2.7011 2.187778,4.8889 4.888889,4.8889 l 34.222222,0 c 2.701111,0 4.888889,-2.1878 4.888889,-4.8889 l 0,-30.5555 c 0,-1.1856 -0.415556,-2.2612 -1.112222,-3.1167 z M 24,1041.3622 l -13,-13 8,0 0,-5 10,0 0,5 8,0 z m -16.805556,-30.1111 1.992223,-2.4445 29.333333,0 2.285556,2.4445 z"
       id="path4"
       inkscape:connector-curvature="0"
       sodipodi:nodetypes="ccssccsssssscccccccccccccc"
       style="fill:#263238;fill-opacity:1" />
    <path
       style="fill:url(#linearGradient4171-1);fill-opacity:1;stroke:none;stroke-width:2;stroke-linecap:round;stroke-linejoin:round;stroke-miterlimit:4;stroke-dasharray:none;stroke-opacity:1"
       d="m 9.333984,1006.3622 c -1.136666,0 -2.151997,0.5254 -2.824219,1.332 L 3.125,1011.8017 C 2.416111,1012.6572 2,1013.7313 2,1014.9169 l 0,13.4453 0,17.1113 c 0,2.7011 2.18756,4.8887 4.888672,4.8887 l 17.111328,0 17.111328,0 c 2.701111,0 4.888672,-2.1876 4.888672,-4.8887 l 0,-30.5566 c 0,-1.1856 -0.414662,-2.2597 -1.111328,-3.1152 l -3.386719,-4.1075 c -0.684444,-0.8066 -1.699271,-1.332 -2.835937,-1.332 l -14.666016,0 -14.666016,0 z m -0.146484,2.4453 29.332031,0 2.285157,2.4434 -33.609376,0 1.992188,-2.4434 z m 9.8125,14.5547 10,0 0,5 8,0 -13,13 -13,-13 8,0 0,-5 z"
       id="path4155"
       inkscape:connector-curvature="0" />
    <path
       inkscape:connector-curvature="0"
       style="fill:#000000;fill-opacity:0.2"
       d="m 2,1044.9735 0,0.5 c 0,2.7011 2.18756,4.8887 4.888672,4.8887 l 34.222656,0 c 2.701111,0 4.888672,-2.1876 4.888672,-4.8887 l 0,-0.5 c 0,2.7011 -2.187561,4.8887 -4.888672,4.8887 l -34.222656,0 C 4.18756,1049.8622 2,1047.6746 2,1044.9735 Z"
       id="path4159" />
    <path
       inkscape:connector-curvature="0"
       style="fill:#ffffff;fill-opacity:0.2"
       d="m 9.333984,1006.3622 c -1.136666,0 -2.151997,0.5254 -2.824219,1.332 L 3.125,1011.8017 C 2.416111,1012.6572 2,1013.7313 2,1014.9169 l 0,0.5 c 0,-1.1856 0.416111,-2.2597 1.125,-3.1152 l 3.384765,-4.1075 c 0.672222,-0.8066 1.687553,-1.332 2.824219,-1.332 l 29.332032,0 c 1.136666,0 2.151493,0.5254 2.835937,1.332 l 3.386719,4.1075 C 45.585338,1013.1572 46,1014.2313 46,1015.4169 l 0,-0.5 c 0,-1.1856 -0.414662,-2.2597 -1.111328,-3.1152 l -3.386719,-4.1075 c -0.684444,-0.8066 -1.699271,-1.332 -2.835937,-1.332 l -29.332032,0 z"
       id="path4164" />
    <path
       inkscape:connector-curvature="0"
       style="fill:#eeeeee;fill-opacity:1"
       d="m 19,1023.3622 0,5 -8,0 13,13 13,-13 -8,0 0,-5 -10,0 z"
       id="rect4172" />
  </g>
</svg>
