<?xml version="1.0" encoding="UTF-8" standalone="no"?>
<!-- Created with Inkscape (http://www.inkscape.org/) -->

<svg
   xmlns:dc="http://purl.org/dc/elements/1.1/"
   xmlns:cc="http://creativecommons.org/ns#"
   xmlns:rdf="http://www.w3.org/1999/02/22-rdf-syntax-ns#"
   xmlns:svg="http://www.w3.org/2000/svg"
   xmlns="http://www.w3.org/2000/svg"
   xmlns:xlink="http://www.w3.org/1999/xlink"
   xmlns:sodipodi="http://sodipodi.sourceforge.net/DTD/sodipodi-0.dtd"
   xmlns:inkscape="http://www.inkscape.org/namespaces/inkscape"
   width="48"
   height="48"
   viewBox="0 0 48.000001 48.000001"
   id="svg2"
   version="1.1"
   inkscape:version="0.91 r13725"
   inkscape:export-filename="/home/poltertec/rect4256.png"
   inkscape:export-xdpi="360"
   inkscape:export-ydpi="360"
   sodipodi:docname="text-x-script.svg">
  <defs
     id="defs4">
    <linearGradient
       inkscape:collect="always"
       id="linearGradient4168">
      <stop
         style="stop-color:#000000;stop-opacity:0.2"
         offset="0"
         id="stop4170" />
      <stop
         style="stop-color:#000000;stop-opacity:0;"
         offset="1"
         id="stop4172" />
    </linearGradient>
    <linearGradient
       inkscape:collect="always"
       xlink:href="#linearGradient4168"
       id="linearGradient4174"
       x1="36"
       y1="1016.3622"
       x2="45"
       y2="1025.3622"
       gradientUnits="userSpaceOnUse"
       gradientTransform="translate(-1,0)" />
    <filter
       style="color-interpolation-filters:sRGB;"
       inkscape:label="Drop Shadow"
       id="filter4244">
      <feFlood
         flood-opacity="0.498039"
         flood-color="rgb(0,0,0)"
         result="flood"
         id="feFlood4246" />
      <feComposite
         in="flood"
         in2="SourceGraphic"
         operator="in"
         result="composite1"
         id="feComposite4248" />
      <feGaussianBlur
         in="composite1"
         stdDeviation="0.5"
         result="blur"
         id="feGaussianBlur4250" />
      <feOffset
         dx="0"
         dy="1.38778e-16"
         result="offset"
         id="feOffset4252" />
      <feComposite
         in="SourceGraphic"
         in2="offset"
         operator="over"
         result="composite2"
         id="feComposite4254" />
    </filter>
    <linearGradient
       gradientTransform="translate(35,50.50009)"
       gradientUnits="userSpaceOnUse"
       y2="1002.3622"
       x2="15"
       y1="952.36218"
       x1="-34.999981"
       id="linearGradient4194"
       xlink:href="#linearGradient4196"
       inkscape:collect="always" />
    <linearGradient
       id="linearGradient4196">
      <stop
         style="stop-color:#ffffff;stop-opacity:0.15000001"
         offset="0"
         id="stop4198" />
      <stop
         style="stop-color:#177ed5;stop-opacity:0"
         offset="1"
         id="stop4200" />
    </linearGradient>
  </defs>
  <sodipodi:namedview
     id="base"
     pagecolor="#ffffff"
     bordercolor="#666666"
     borderopacity="1.0"
     inkscape:pageopacity="0.0"
     inkscape:pageshadow="2"
     inkscape:zoom="5.6"
     inkscape:cx="16.827057"
     inkscape:cy="6.7127215"
     inkscape:document-units="px"
     inkscape:current-layer="layer1"
     showgrid="true"
     units="px"
     inkscape:window-width="960"
     inkscape:window-height="1008"
     inkscape:window-x="437"
     inkscape:window-y="0"
     inkscape:window-maximized="0">
    <inkscape:grid
       type="xygrid"
       id="grid3336" />
  </sodipodi:namedview>
  <metadata
     id="metadata7">
    <rdf:RDF>
      <cc:Work
         rdf:about="">
        <dc:format>image/svg+xml</dc:format>
        <dc:type
           rdf:resource="http://purl.org/dc/dcmitype/StillImage" />
        <dc:title />
      </cc:Work>
    </rdf:RDF>
  </metadata>
  <g
     inkscape:label="Laag 1"
     inkscape:groupmode="layer"
     id="layer1"
     transform="translate(0,-1004.3622)">
    <path
       style="opacity:1;fill:#f5f0f0;fill-opacity:1;stroke:none;stroke-width:2;stroke-linecap:round;stroke-linejoin:round;stroke-miterlimit:4;stroke-dasharray:none;stroke-opacity:0.55"
       d="m 11,1006.3622 c -1.662,0 -3,1.338 -3,3 l 0,38 c 0,1.662 1.338,3 3,3 l 26,0 c 1.662,0 3,-1.338 3,-3 l 0,-29 -12,-12 -17,0 z m 29,3.8184 c -0.0058,0 -0.01176,0 -0.01758,0.01 0.0026,0.06 0.01758,0.1156 0.01758,0.1758 l 0,-0.1816 z"
       id="rect4157"
       inkscape:connector-curvature="0" />
    <path
       style="fill:url(#linearGradient4174);fill-opacity:1;fill-rule:evenodd;stroke:none;stroke-width:1px;stroke-linecap:butt;stroke-linejoin:miter;stroke-opacity:1"
       d="m 29,1016.3622 11,11 0,-9 -11,-2"
       id="path4166"
       inkscape:connector-curvature="0"
       sodipodi:nodetypes="cccc" />
    <path
       style="opacity:1;fill:#fffcfc;fill-opacity:1;stroke:none;stroke-width:1;stroke-linecap:butt;stroke-linejoin:round;stroke-miterlimit:14.5;stroke-dasharray:none;stroke-opacity:1"
       d="m 28,1006.3622 0,8 c 0,2.216 1.784,4 4,4 l 8,0 -12,-12 z"
       id="rect4156"
       inkscape:connector-curvature="0" />
    <path
       d="m 27.009987,1028.0447 c 0.028,-0.224 0.04901,-0.4515 0.04901,-0.6825 0,-0.231 -0.021,-0.4585 -0.04901,-0.6825 l 1.4805,-1.1585 c 0.133,-0.105 0.1715,-0.294 0.084,-0.448 l -1.4,-2.4255 c -0.0875,-0.1505 -0.2695,-0.2135 -0.427,-0.1505 l -1.743,0.7035 c -0.3605,-0.2765 -0.756,-0.511 -1.182999,-0.6895 l -0.262501,-1.855 c -0.0315,-0.1645 -0.175,-0.294 -0.35,-0.294 l -2.8,0 c -0.175,0 -0.3185,0.1295 -0.3465,0.294 l -0.2625,1.855 c -0.427,0.1785 -0.8225,0.4095 -1.183,0.6895 l -1.743,-0.7035 c -0.1575,-0.06 -0.3395,0 -0.427,0.1505 l -1.4,2.4255 c -0.0875,0.1505 -0.049,0.3395 0.084,0.448 l 1.477,1.1585 c -0.028,0.224 -0.049,0.4515 -0.049,0.6825 0,0.231 0.021,0.4585 0.049,0.6825 l -1.477001,1.1585 c -0.133,0.105 -0.1715,0.294 -0.084,0.448 l 1.4,2.4255 c 0.0875,0.1505 0.269501,0.2135 0.427,0.1505 l 1.743001,-0.7035 c 0.3605,0.2765 0.756,0.511 1.183,0.6895 l 0.2625,1.855 c 0.028,0.1645 0.1715,0.294 0.3465,0.294 l 2.8,0 c 0.174999,0 0.318499,-0.1295 0.3465,-0.294 l 0.262499,-1.855 c 0.427001,-0.1785 0.8225,-0.4095 1.183,-0.6895 l 1.743,0.7035 c 0.157501,0.059 0.3395,0 0.427,-0.1505 l 1.400001,-2.4255 c 0.0875,-0.1505 0.04899,-0.3395 -0.084,-0.448 l -1.477,-1.1585 z m -5.201,1.7675 c -1.3545,0 -2.45,-1.0955 -2.45,-2.45 0,-1.3545 1.0955,-2.45 2.45,-2.45 1.3545,0 2.45,1.0955 2.45,2.45 0,1.3545 -1.0955,2.45 -2.45,2.45 z"
       id="path6"
       inkscape:connector-curvature="0"
       style="fill:#9fa8da;fill-opacity:1" />
    <path
       style="fill:#9fa8da;fill-opacity:1"
       inkscape:connector-curvature="0"
       id="path4157"
       d="m 31.053564,1038.7522 c 0.01644,-0.128 0.02878,-0.258 0.02878,-0.3901 0,-0.132 -0.01233,-0.2619 -0.02878,-0.3899 l 0.86951,-0.6621 c 0.07811,-0.061 0.10072,-0.168 0.04933,-0.2561 l -0.822231,-1.386 c -0.05139,-0.086 -0.15828,-0.1221 -0.250781,-0.086 l -1.023678,0.4021 c -0.211725,-0.1581 -0.444004,-0.292 -0.694786,-0.3941 l -0.154168,-1.0601 c -0.0185,-0.094 -0.102775,-0.168 -0.205557,-0.168 l -1.644463,0 c -0.102775,0 -0.187058,0.074 -0.203502,0.168 l -0.154169,1.0601 c -0.25078,0.1017 -0.483061,0.2341 -0.694785,0.3941 l -1.023679,-0.4021 c -0.0925,-0.034 -0.19939,0 -0.25078,0.086 l -0.822232,1.386 c -0.05139,0.086 -0.02878,0.1941 0.04933,0.2561 l 0.867454,0.6621 c -0.01644,0.128 -0.02878,0.2579 -0.02878,0.3899 0,0.1321 0.01233,0.2621 0.02878,0.3901 l -0.867455,0.662 c -0.07811,0.061 -0.100719,0.168 -0.04933,0.256 l 0.822232,1.3862 c 0.05139,0.086 0.15828,0.1219 0.25078,0.086 l 1.02368,-0.402 c 0.211724,0.158 0.444005,0.2921 0.694785,0.394 l 0.154169,1.0601 c 0.01644,0.094 0.100719,0.168 0.203502,0.168 l 1.644463,0 c 0.102775,0 0.187056,-0.074 0.203501,-0.168 l 0.154168,-1.0601 c 0.250782,-0.1017 0.483061,-0.2339 0.694785,-0.394 l 1.023679,0.402 c 0.0925,0.033 0.199391,0 0.25078,-0.086 l 0.822233,-1.3862 c 0.05139,-0.086 0.02876,-0.1939 -0.04933,-0.256 l -0.867455,-0.662 z m -3.054589,1.01 c -0.79551,0 -1.438906,-0.6259 -1.438906,-1.4001 0,-0.774 0.643396,-1.4001 1.438906,-1.4001 0.795508,0 1.438904,0.6261 1.438904,1.4001 0,0.774 -0.643396,1.4001 -1.438904,1.4001 z" />
    <path
       inkscape:connector-curvature="0"
       style="fill:#ffffff;fill-opacity:0.2;stroke:none"
       d="m 11,1006.3622 c -1.698428,0 -3,1.2973 -3,3 0,-1 1.5353,-2 3,-2 l 17,0 0,-1 z"
       id="path4170-9"
       sodipodi:nodetypes="ccsccc" />
    <path
       inkscape:connector-curvature="0"
       style="fill:#000000;fill-opacity:0.2;stroke:none"
       d="m 8,1047.3622 c 0,1.733 1.289666,3 3,3 l 26,0 c 1.784835,0 3,-1.2578 3,-3 0,1 -1.487125,2 -3,2 l -26,0 c -1.520689,0 -3,-1 -3,-2 z"
       id="rect3338-7"
       sodipodi:nodetypes="ccccssc" />
    <path
       style="fill:url(#linearGradient4194);fill-opacity:1;stroke:none"
       d="m 11,1006.3622 c -1.669126,0 -3,1.3389 -3,3 l 0,38 c 0,1.7183 1.252615,3 3.015626,3 l 25.984374,0 c 1.758969,0 3,-1.2293 3,-3 l 0,-28.9998 -12,-12.0002 z"
       id="rect3338-0"
       inkscape:connector-curvature="0"
       sodipodi:nodetypes="ssssssccs"
       inkscape:export-filename="/home/peter/Documenten/test.png"
       inkscape:export-xdpi="360"
       inkscape:export-ydpi="360" />
  </g>
</svg>
