<?xml version="1.0" encoding="UTF-8" standalone="no"?>
<svg
   xmlns:dc="http://purl.org/dc/elements/1.1/"
   xmlns:cc="http://creativecommons.org/ns#"
   xmlns:rdf="http://www.w3.org/1999/02/22-rdf-syntax-ns#"
   xmlns:svg="http://www.w3.org/2000/svg"
   xmlns="http://www.w3.org/2000/svg"
   xmlns:sodipodi="http://sodipodi.sourceforge.net/DTD/sodipodi-0.dtd"
   xmlns:inkscape="http://www.inkscape.org/namespaces/inkscape"
   width="16"
   height="16"
   viewBox="0 0 16 16"
   id="svg2"
   version="1.1"
   inkscape:version="0.91 r13725"
   sodipodi:docname="folder-music-symbolic.svg">
  <metadata
     id="metadata10">
    <rdf:RDF>
      <cc:Work
         rdf:about="">
        <dc:format>image/svg+xml</dc:format>
        <dc:type
           rdf:resource="http://purl.org/dc/dcmitype/StillImage" />
        <dc:title></dc:title>
      </cc:Work>
    </rdf:RDF>
  </metadata>
  <defs
     id="defs8" />
  <sodipodi:namedview
     pagecolor="#ffffff"
     bordercolor="#666666"
     borderopacity="1"
     objecttolerance="10"
     gridtolerance="10"
     guidetolerance="10"
     inkscape:pageopacity="0"
     inkscape:pageshadow="2"
     inkscape:window-width="1032"
     inkscape:window-height="718"
     id="namedview6"
     showgrid="true"
     inkscape:zoom="24.243661"
     inkscape:cx="2.481046"
     inkscape:cy="2.1456002"
     inkscape:window-x="691"
     inkscape:window-y="260"
     inkscape:window-maximized="0"
     inkscape:current-layer="svg2">
    <inkscape:grid
       type="xygrid"
       id="grid4133" />
  </sodipodi:namedview>
  <path
     style="fill:#bebebe;fill-opacity:1"
     d="M 3 1 C 2.23 1 1 2.0621794 1 3 L 1 13 C 1 13.93782 2.23 15 3 15 L 3.5 15 L 12.5 15 L 13 15 C 13.77 15 15 13.93782 15 13 L 15 5 C 15 4.0621795 13.77077 3 13 3 L 12.5 3 L 9 3 L 7 1 L 3 1 z M 8 5.25 L 11 5.25 L 11 6.75 L 8.75 6.75 L 8.75 10.875 C 8.75 11.91 7.91 12.75 6.875 12.75 C 5.84 12.75 5 11.91 5 10.875 C 5 9.8400003 5.84 9 6.875 9 C 7.3025 9 7.685 9.1428125 8 9.3828125 L 8 5.25 z "
     id="path4" />
</svg>
