<?xml version="1.0" encoding="UTF-8" standalone="no"?>
<!-- Created with Inkscape (http://www.inkscape.org/) -->

<svg
   xmlns:dc="http://purl.org/dc/elements/1.1/"
   xmlns:cc="http://creativecommons.org/ns#"
   xmlns:rdf="http://www.w3.org/1999/02/22-rdf-syntax-ns#"
   xmlns:svg="http://www.w3.org/2000/svg"
   xmlns="http://www.w3.org/2000/svg"
   xmlns:sodipodi="http://sodipodi.sourceforge.net/DTD/sodipodi-0.dtd"
   xmlns:inkscape="http://www.inkscape.org/namespaces/inkscape"
   width="24"
   height="24"
   viewBox="0 0 24.000001 24.000001"
   id="svg4253"
   version="1.1"
   inkscape:version="0.91 r13725"
   sodipodi:docname="folder-videos-symbolic.svg">
  <defs
     id="defs4255" />
  <sodipodi:namedview
     id="base"
     pagecolor="#5e5e5e"
     bordercolor="#959595"
     borderopacity="1"
     inkscape:pageopacity="0"
     inkscape:pageshadow="2"
     inkscape:zoom="11.313709"
     inkscape:cx="18.808399"
     inkscape:cy="9.361261"
     inkscape:document-units="px"
     inkscape:current-layer="layer1"
     showgrid="false"
     inkscape:window-width="1920"
     inkscape:window-height="1001"
     inkscape:window-x="0"
     inkscape:window-y="0"
     inkscape:window-maximized="1"
     units="px" />
  <metadata
     id="metadata4258">
    <rdf:RDF>
      <cc:Work
         rdf:about="">
        <dc:format>image/svg+xml</dc:format>
        <dc:type
           rdf:resource="http://purl.org/dc/dcmitype/StillImage" />
        <dc:title />
      </cc:Work>
    </rdf:RDF>
  </metadata>
  <g
     inkscape:label="Laag 1"
     inkscape:groupmode="layer"
     id="layer1"
     transform="translate(0,-1028.3622)">
    <path
       style="opacity:1;fill:#bebebe;fill-opacity:1;stroke:none;stroke-width:1;stroke-linecap:butt;stroke-linejoin:round;stroke-miterlimit:14.5;stroke-dasharray:none;stroke-opacity:1"
       d="m 2.467383,1031.5622 c -0.8130766,0 -1.4673829,0.7402 -1.4673829,1.6586 l 0,14.2828 c 0,0.9184 0.6543063,1.6586 1.4673829,1.6586 l 19.065236,0 c 0.813076,0 1.467382,-0.7402 1.467382,-1.6586 l 0,-14.2828 c 0,-0.9184 -0.654306,-1.6586 -1.467382,-1.6586 l -19.065236,0 z m 6.6837895,5.0424 c 0.05585,0 0.110734,0.016 0.158985,0.045 l 5.9339845,3.4246 c 0.221289,0.1282 0.221289,0.4471 0,0.5758 l -5.9339845,3.4267 c -0.222118,0.1283 -0.5008434,-0.032 -0.5005864,-0.2878 l 0,-6.8514 c -3.19e-5,-0.1861 0.154685,-0.333 0.3416014,-0.333 z"
       id="rect3334"
       inkscape:connector-curvature="0" />
    <path
       sodipodi:nodetypes="ccccccccc"
       inkscape:connector-curvature="0"
       id="path4156"
       d="m -25.786826,1035.4029 c -0.198245,0 -0.361441,0.1557 -0.361408,0.3531 l 0,7.2669 c -2.72e-4,0.2719 0.294117,0.4422 0.529696,0.3062 l 6.294279,-3.6335 c 0.234701,-0.1365 0.234701,-0.4749 0,-0.6109 l -6.294279,-3.6335 c -0.05118,-0.03 -0.109051,-0.047 -0.168288,-0.047 z"
       style="color:#000000;font-style:normal;font-variant:normal;font-weight:normal;font-stretch:normal;font-size:medium;line-height:normal;font-family:sans-serif;text-indent:0;text-align:start;text-decoration:none;text-decoration-line:none;text-decoration-style:solid;text-decoration-color:#000000;letter-spacing:normal;word-spacing:normal;text-transform:none;direction:ltr;block-progression:tb;writing-mode:lr-tb;baseline-shift:baseline;text-anchor:start;white-space:normal;clip-rule:nonzero;display:inline;overflow:visible;visibility:visible;opacity:1;isolation:auto;mix-blend-mode:normal;color-interpolation:sRGB;color-interpolation-filters:linearRGB;solid-color:#000000;solid-opacity:1;fill:#000000;fill-opacity:1;fill-rule:nonzero;stroke:none;stroke-width:1.00000012;stroke-linecap:butt;stroke-linejoin:round;stroke-miterlimit:14.5;stroke-dasharray:none;stroke-dashoffset:0;stroke-opacity:1;color-rendering:auto;image-rendering:auto;shape-rendering:auto;text-rendering:auto;enable-background:accumulate" />
  </g>
</svg>
