<?xml version="1.0" encoding="UTF-8" standalone="no"?>
<svg
   xmlns:dc="http://purl.org/dc/elements/1.1/"
   xmlns:cc="http://creativecommons.org/ns#"
   xmlns:rdf="http://www.w3.org/1999/02/22-rdf-syntax-ns#"
   xmlns:svg="http://www.w3.org/2000/svg"
   xmlns="http://www.w3.org/2000/svg"
   xmlns:sodipodi="http://sodipodi.sourceforge.net/DTD/sodipodi-0.dtd"
   xmlns:inkscape="http://www.inkscape.org/namespaces/inkscape"
   width="16"
   height="16"
   viewBox="0 0 16 16"
   id="svg2"
   version="1.1"
   inkscape:version="0.91 r13725"
   sodipodi:docname="network-workgroup-symbolic.svg">
  <metadata
     id="metadata10">
    <rdf:RDF>
      <cc:Work
         rdf:about="">
        <dc:format>image/svg+xml</dc:format>
        <dc:type
           rdf:resource="http://purl.org/dc/dcmitype/StillImage" />
        <dc:title />
      </cc:Work>
    </rdf:RDF>
  </metadata>
  <defs
     id="defs8" />
  <sodipodi:namedview
     pagecolor="#ffffff"
     bordercolor="#666666"
     borderopacity="1"
     objecttolerance="10"
     gridtolerance="10"
     guidetolerance="10"
     inkscape:pageopacity="0"
     inkscape:pageshadow="2"
     inkscape:window-width="959"
     inkscape:window-height="1000"
     id="namedview6"
     showgrid="true"
     inkscape:zoom="24.243661"
     inkscape:cx="7.6161256"
     inkscape:cy="15.15334"
     inkscape:window-x="959"
     inkscape:window-y="0"
     inkscape:window-maximized="0"
     inkscape:current-layer="svg2">
    <inkscape:grid
       type="xygrid"
       id="grid4133" />
  </sodipodi:namedview>
  <path
     style="opacity:1;fill:#bebebe;fill-opacity:1;stroke:none;stroke-width:2;stroke-linecap:butt;stroke-linejoin:miter;stroke-miterlimit:4;stroke-dasharray:none;stroke-opacity:1"
     d="M 12.5 1 A 2.5 2.5 0 0 0 10 3.5 A 2.5 2.5 0 0 0 10.205078 4.484375 L 8.2402344 5.6621094 A 4 4 0 0 0 5 4 A 4 4 0 0 0 1 8 A 4 4 0 0 0 5 12 A 4 4 0 0 0 7.828125 10.824219 L 10.064453 11.949219 A 2.5 2.5 0 0 0 10 12.5 A 2.5 2.5 0 0 0 12.5 15 A 2.5 2.5 0 0 0 15 12.5 A 2.5 2.5 0 0 0 12.5 10 A 2.5 2.5 0 0 0 10.476562 11.037109 L 8.4472656 10.017578 A 4 4 0 0 0 9 8 A 4 4 0 0 0 8.7226562 6.5390625 L 10.777344 5.3066406 A 2.5 2.5 0 0 0 12.5 6 A 2.5 2.5 0 0 0 15 3.5 A 2.5 2.5 0 0 0 12.5 1 z "
     id="path4134" />
</svg>
