<?xml version="1.0" encoding="UTF-8" standalone="no"?>
<svg
   xmlns:dc="http://purl.org/dc/elements/1.1/"
   xmlns:cc="http://creativecommons.org/ns#"
   xmlns:rdf="http://www.w3.org/1999/02/22-rdf-syntax-ns#"
   xmlns:svg="http://www.w3.org/2000/svg"
   xmlns="http://www.w3.org/2000/svg"
   xmlns:sodipodi="http://sodipodi.sourceforge.net/DTD/sodipodi-0.dtd"
   xmlns:inkscape="http://www.inkscape.org/namespaces/inkscape"
   width="16"
   height="16"
   viewBox="0 0 16 16"
   id="svg2"
   version="1.1"
   inkscape:version="0.91 r13725"
   sodipodi:docname="network-server-symbolic.svg">
  <metadata
     id="metadata10">
    <rdf:RDF>
      <cc:Work
         rdf:about="">
        <dc:format>image/svg+xml</dc:format>
        <dc:type
           rdf:resource="http://purl.org/dc/dcmitype/StillImage" />
        <dc:title></dc:title>
      </cc:Work>
    </rdf:RDF>
  </metadata>
  <defs
     id="defs8" />
  <sodipodi:namedview
     pagecolor="#ffffff"
     bordercolor="#666666"
     borderopacity="1"
     objecttolerance="10"
     gridtolerance="10"
     guidetolerance="10"
     inkscape:pageopacity="0"
     inkscape:pageshadow="2"
     inkscape:window-width="1294"
     inkscape:window-height="1000"
     id="namedview6"
     showgrid="true"
     inkscape:zoom="34.285714"
     inkscape:cx="8.0595154"
     inkscape:cy="9.1895224"
     inkscape:window-x="624"
     inkscape:window-y="0"
     inkscape:window-maximized="0"
     inkscape:current-layer="svg2">
    <inkscape:grid
       type="xygrid"
       id="grid4133" />
  </sodipodi:namedview>
  <path
     style="opacity:1;fill:#bebebe;fill-opacity:1;stroke:none;stroke-width:2;stroke-linecap:butt;stroke-linejoin:miter;stroke-miterlimit:4;stroke-dasharray:none;stroke-opacity:1"
     d="M 8 1 A 7 7 0 0 0 4.5585938 1.9101562 A 12 12 0 0 1 7.0605469 3.3300781 A 1.5 1.5 0 0 1 8 3 A 1.5 1.5 0 0 1 9.1191406 3.5039062 A 12 12 0 0 1 12.5 3 A 12 12 0 0 1 12.904297 3.0136719 A 7 7 0 0 0 8 1 z M 4.0214844 2.2421875 A 7 7 0 0 0 1 8 A 7 7 0 0 0 1.4296875 10.396484 A 12 12 0 0 1 6.5078125 4.6425781 A 1.5 1.5 0 0 1 6.5 4.5 A 1.5 1.5 0 0 1 6.734375 3.6992188 A 11.5 11.5 0 0 0 4.0214844 2.2421875 z M 12.5 3.5 A 11.5 11.5 0 0 0 9.3964844 3.9511719 A 1.5 1.5 0 0 1 9.5 4.5 A 1.5 1.5 0 0 1 9.2285156 5.359375 A 12 12 0 0 1 10.884766 8.0058594 A 1.5 1.5 0 0 1 11 8 A 1.5 1.5 0 0 1 12.427734 9.0488281 A 12 12 0 0 1 14.832031 9.4785156 A 7 7 0 0 0 15 8 A 7 7 0 0 0 13.390625 3.5429688 A 11.5 11.5 0 0 0 12.5 3.5 z M 6.6425781 5.1308594 A 11.5 11.5 0 0 0 1.7109375 11.0625 A 7 7 0 0 0 2.8320312 12.708984 A 12 12 0 0 1 9.53125 9.1914062 A 1.5 1.5 0 0 1 10.388672 8.1328125 A 11.5 11.5 0 0 0 8.8632812 5.7246094 A 1.5 1.5 0 0 1 8 6 A 1.5 1.5 0 0 1 6.6425781 5.1308594 z M 12.498047 9.5488281 A 1.5 1.5 0 0 1 11.78125 10.779297 A 12 12 0 0 1 12 13 A 12 12 0 0 1 11.974609 13.761719 A 7 7 0 0 0 14.712891 9.9667969 A 11.5 11.5 0 0 0 12.498047 9.5488281 z M 9.5136719 9.6914062 A 11.5 11.5 0 0 0 3.1914062 13.070312 A 7 7 0 0 0 8 15 A 7 7 0 0 0 11.447266 14.087891 A 11.5 11.5 0 0 0 11.5 13 A 11.5 11.5 0 0 0 11.304688 10.966797 A 1.5 1.5 0 0 1 11 11 A 1.5 1.5 0 0 1 9.5136719 9.6914062 z "
     id="path4192" />
</svg>
