<?xml version="1.0" encoding="UTF-8" standalone="no"?>
<!-- Created with Inkscape (http://www.inkscape.org/) -->

<svg
   xmlns:dc="http://purl.org/dc/elements/1.1/"
   xmlns:cc="http://creativecommons.org/ns#"
   xmlns:rdf="http://www.w3.org/1999/02/22-rdf-syntax-ns#"
   xmlns:svg="http://www.w3.org/2000/svg"
   xmlns="http://www.w3.org/2000/svg"
   xmlns:sodipodi="http://sodipodi.sourceforge.net/DTD/sodipodi-0.dtd"
   xmlns:inkscape="http://www.inkscape.org/namespaces/inkscape"
   width="24"
   height="24"
   viewBox="0 0 24.000001 24.000001"
   id="svg4253"
   version="1.1"
   inkscape:version="0.91 r13725"
   sodipodi:docname="user-home-symbolc.svg">
  <defs
     id="defs4255" />
  <sodipodi:namedview
     id="base"
     pagecolor="#5e5e5e"
     bordercolor="#959595"
     borderopacity="1"
     inkscape:pageopacity="0"
     inkscape:pageshadow="2"
     inkscape:zoom="22.627417"
     inkscape:cx="11.184903"
     inkscape:cy="11.358644"
     inkscape:document-units="px"
     inkscape:current-layer="layer1"
     showgrid="false"
     inkscape:window-width="1920"
     inkscape:window-height="1001"
     inkscape:window-x="0"
     inkscape:window-y="0"
     inkscape:window-maximized="1"
     units="px" />
  <metadata
     id="metadata4258">
    <rdf:RDF>
      <cc:Work
         rdf:about="">
        <dc:format>image/svg+xml</dc:format>
        <dc:type
           rdf:resource="http://purl.org/dc/dcmitype/StillImage" />
        <dc:title></dc:title>
      </cc:Work>
    </rdf:RDF>
  </metadata>
  <g
     inkscape:label="Laag 1"
     inkscape:groupmode="layer"
     id="layer1"
     transform="translate(0,-1028.3622)">
    <path
       inkscape:connector-curvature="0"
       style="opacity:1;fill:#bebebe;fill-opacity:1;stroke:none;stroke-width:2;stroke-linecap:butt;stroke-linejoin:miter;stroke-miterlimit:4;stroke-dasharray:none;stroke-opacity:0"
       d="m -83.691648,996.72929 0,44.00001 20.810547,0 0,-10.5684 c 0,-6.9953 5.352,-12.6269 12,-12.6269 6.648,0 12,5.6316 12,12.6269 l 0,10.5684 20.189453,0 0,-44.00001 -65,0 z"
       id="rect4803" />
    <path
       style="fill:#bababa;fill-opacity:1;fill-rule:evenodd;stroke:none;stroke-width:0.26461098px;stroke-linecap:butt;stroke-linejoin:miter;stroke-opacity:1"
       d="M 12.011719 2 L 3 10.521484 L 3 22 L 9 22 L 9 17.837891 C 9 15.956364 10.32023 14.441406 11.958984 14.441406 L 12.041016 14.441406 C 13.67977 14.441406 15 15.956364 15 17.837891 L 15 22 L 21 22 L 21 10.498047 L 12.011719 2 z "
       transform="translate(0,1028.3622)"
       id="path4184" />
  </g>
</svg>
