<?xml version="1.0" encoding="UTF-8" standalone="no"?>
<!-- Created with Inkscape (http://www.inkscape.org/) -->

<svg
   xmlns:dc="http://purl.org/dc/elements/1.1/"
   xmlns:cc="http://creativecommons.org/ns#"
   xmlns:rdf="http://www.w3.org/1999/02/22-rdf-syntax-ns#"
   xmlns:svg="http://www.w3.org/2000/svg"
   xmlns="http://www.w3.org/2000/svg"
   xmlns:xlink="http://www.w3.org/1999/xlink"
   xmlns:sodipodi="http://sodipodi.sourceforge.net/DTD/sodipodi-0.dtd"
   xmlns:inkscape="http://www.inkscape.org/namespaces/inkscape"
   width="48"
   height="48"
   viewBox="0 0 48 48"
   id="svg2"
   version="1.1"
   inkscape:version="0.91 r13725"
   sodipodi:docname="audio-speaker.svg"
   inkscape:export-filename="/home/peter/Bureaublad/speaker.png"
   inkscape:export-xdpi="360"
   inkscape:export-ydpi="360">
  <defs
     id="defs4">
    <filter
       style="color-interpolation-filters:sRGB"
       inkscape:label="Drop Shadow"
       id="filter4630">
      <feFlood
         flood-opacity="1"
         flood-color="rgb(0,0,0)"
         result="flood"
         id="feFlood4632" />
      <feComposite
         in="flood"
         in2="SourceGraphic"
         operator="in"
         result="composite1"
         id="feComposite4634" />
      <feGaussianBlur
         in="composite1"
         stdDeviation="0.5"
         result="blur"
         id="feGaussianBlur4636" />
      <feOffset
         dx="0"
         dy="0.5"
         result="offset"
         id="feOffset4638" />
      <feComposite
         in="SourceGraphic"
         in2="offset"
         operator="over"
         result="composite2"
         id="feComposite4640" />
    </filter>
    <linearGradient
       inkscape:collect="always"
       id="linearGradient4165">
      <stop
         style="stop-color:#ffffff;stop-opacity:0.15000001"
         offset="0"
         id="stop4167" />
      <stop
         style="stop-color:#177ed5;stop-opacity:0;"
         offset="1"
         id="stop4169" />
    </linearGradient>
    <linearGradient
       inkscape:collect="always"
       xlink:href="#linearGradient4165"
       id="linearGradient4171-1"
       x1="0.9999975"
       y1="1001.1801"
       x2="46.792099"
       y2="1047.1801"
       gradientUnits="userSpaceOnUse"
       gradientTransform="matrix(0.96086443,0,0,0.9565206,1.039138,0.71285)" />
    <linearGradient
       inkscape:collect="always"
       xlink:href="#linearGradient4165"
       id="linearGradient4171-1-0"
       x1="7"
       y1="1011.3622"
       x2="41.000019"
       y2="1045.3622"
       gradientUnits="userSpaceOnUse"
       gradientTransform="matrix(0.95652174,0,0,0.95652174,1.04348,-959.65054)" />
  </defs>
  <sodipodi:namedview
     id="base"
     pagecolor="#ffffff"
     bordercolor="#666666"
     borderopacity="1.0"
     inkscape:pageopacity="0"
     inkscape:pageshadow="2"
     inkscape:zoom="8.0000011"
     inkscape:cx="22.981497"
     inkscape:cy="5.1599674"
     inkscape:document-units="px"
     inkscape:current-layer="layer1"
     showgrid="true"
     units="px"
     inkscape:window-width="959"
     inkscape:window-height="1011"
     inkscape:window-x="960"
     inkscape:window-y="0"
     inkscape:window-maximized="0"
     inkscape:showpageshadow="false"
     showguides="true">
    <inkscape:grid
       type="xygrid"
       id="grid4140" />
  </sodipodi:namedview>
  <metadata
     id="metadata7">
    <rdf:RDF>
      <cc:Work
         rdf:about="">
        <dc:format>image/svg+xml</dc:format>
        <dc:type
           rdf:resource="http://purl.org/dc/dcmitype/StillImage" />
        <dc:title></dc:title>
      </cc:Work>
    </rdf:RDF>
  </metadata>
  <g
     inkscape:label="Laag 1"
     inkscape:groupmode="layer"
     id="layer1"
     transform="translate(0,-1004.3622)">
    <path
       style="fill:url(#linearGradient4171-1);fill-opacity:1;stroke:none;stroke-width:2;stroke-linecap:round;stroke-linejoin:round;stroke-miterlimit:4;stroke-dasharray:none;stroke-opacity:1"
       d="m 3,959.3622 c -0.554,0 -1,0.446 -1,1 l 0,8 0,16 0,8 0,8 c 0,0.554 0.446,1 1,1 l 1,0 c 0.554,0 1,-0.446 1,-1 l 0,-4.1426 c 0.3214354,0.083 0.6524641,0.1426 1,0.1426 l 6,0 8,0 8,0 12,0 2,0 c 2.21,0 4,-1.79 4,-4 l 0,-24 c 0,-2.21 -1.79,-4 -4,-4 l -36,0 c -0.3475359,0 -0.6785646,0.059 -1,0.1426 l 0,-4.1426 c 0,-0.554 -0.446,-1 -1,-1 l -1,0 z"
       id="circle4163-3"
       inkscape:connector-curvature="0" />
    <path
       style="opacity:1;fill:#262a30;fill-opacity:1;stroke:none;stroke-width:2;stroke-linecap:round;stroke-linejoin:round;stroke-miterlimit:4;stroke-dasharray:none;stroke-opacity:1"
       d="M 32 5 L 32 15 L 43 13 L 43 8 L 43 7.5 C 43 7.223 42.777 7 42.5 7 C 42.245107 7 42.043482 7.1915 42.011719 7.4375 A 2 2 0 0 1 41.998047 7.4375 A 1.5 1.5 0 0 1 42 7.5039062 A 1.5 1.5 0 0 1 40.5 9.0039062 A 1.5 1.5 0 0 1 39 7.5039062 A 1.5 1.5 0 0 1 40.5 6.0039062 A 1.5 1.5 0 0 1 40.564453 6.0039062 A 2 2 0 0 1 40.560547 5.9882812 C 40.807459 5.9572813 41 5.7556 41 5.5 C 41 5.223 40.777 5 40.5 5 L 40 5 L 32 5 z M 39.158203 10.876953 A 3 3 0 0 0 40 11 A 3 3 0 0 0 40.841797 10.876953 L 40 12 L 39.158203 10.876953 z "
       transform="translate(0,1004.3622)"
       id="path4276" />
    <path
       id="path4296"
       d="m 32,1047.3622 0,-10 11,2 0,5 0,0.5 c 0,0.277 -0.223,0.5 -0.5,0.5 -0.254893,0 -0.456518,-0.1915 -0.488281,-0.4375 a 2,2 0 0 0 -0.01367,0 1.5,1.5 0 0 0 0.002,-0.066 1.5,1.5 0 0 0 -1.5,-1.5 1.5,1.5 0 0 0 -1.5,1.5 1.5,1.5 0 0 0 1.5,1.5 1.5,1.5 0 0 0 0.06445,0 2,2 0 0 0 -0.0039,0.016 c 0.24686,0.03 0.439401,0.2319 0.439401,0.4875 0,0.277 -0.223,0.5 -0.5,0.5 l -0.5,0 -8,0 z m 7.158203,-5.877 A 3,3 0 0 1 40,1041.3622 a 3,3 0 0 1 0.841797,0.123 L 40,1040.3622 l -0.841797,1.123 z"
       style="opacity:1;fill:#262a30;fill-opacity:1;stroke:none;stroke-width:2;stroke-linecap:round;stroke-linejoin:round;stroke-miterlimit:4;stroke-dasharray:none;stroke-opacity:1"
       inkscape:connector-curvature="0" />
    <path
       inkscape:connector-curvature="0"
       style="opacity:1;fill:#262a30;fill-opacity:1;stroke:none;stroke-width:2;stroke-linecap:round;stroke-linejoin:round;stroke-miterlimit:4;stroke-dasharray:none;stroke-opacity:1"
       d="m 16,1047.3622 0,-10 -11,2 0,5 0,0.5 c 0,0.277 0.223,0.5 0.5,0.5 0.254893,0 0.456518,-0.1915 0.488281,-0.4375 a 2,2 0 0 1 0.01367,0 1.5,1.5 0 0 1 -0.002,-0.066 1.5,1.5 0 0 1 1.5,-1.5 1.5,1.5 0 0 1 1.5,1.5 1.5,1.5 0 0 1 -1.5,1.5 1.5,1.5 0 0 1 -0.06445,0 2,2 0 0 1 0.0039,0.016 C 7.192541,1046.4047 7,1046.6066 7,1046.8622 c 0,0.277 0.223,0.5 0.5,0.5 l 0.5,0 8,0 z m -7.158203,-5.877 A 3,3 0 0 0 8,1041.3622 a 3,3 0 0 0 -0.841797,0.123 L 8,1040.3622 l 0.841797,1.123 z"
       id="path4298" />
    <path
       id="path4300"
       d="m 16,1009.3622 0,10 -11,-2 0,-5 0,-0.5 c 0,-0.277 0.223,-0.5 0.5,-0.5 0.254893,0 0.456518,0.1915 0.488281,0.4375 a 2,2 0 0 0 0.01367,0 1.5,1.5 0 0 0 -0.002,0.066 1.5,1.5 0 0 0 1.5,1.5 1.5,1.5 0 0 0 1.5,-1.5 1.5,1.5 0 0 0 -1.5,-1.5 1.5,1.5 0 0 0 -0.06445,0 2,2 0 0 0 0.0039,-0.016 C 7.192541,1010.3197 7,1010.1178 7,1009.8622 c 0,-0.277 0.223,-0.5 0.5,-0.5 l 0.5,0 8,0 z m -7.158203,5.877 A 3,3 0 0 1 8,1015.3622 3,3 0 0 1 7.158203,1015.2392 L 8,1016.3622 l 0.841797,-1.123 z"
       style="opacity:1;fill:#262a30;fill-opacity:1;stroke:none;stroke-width:2;stroke-linecap:round;stroke-linejoin:round;stroke-miterlimit:4;stroke-dasharray:none;stroke-opacity:1"
       inkscape:connector-curvature="0" />
    <circle
       style="opacity:1;fill:#262a30;fill-opacity:1;stroke:none;stroke-width:2;stroke-linecap:round;stroke-linejoin:round;stroke-miterlimit:4;stroke-dasharray:none;stroke-opacity:1"
       id="path4179"
       cx="24"
       cy="1028.3622"
       r="22" />
    <path
       style="opacity:1;fill:#00acc1;fill-opacity:1;stroke:none;stroke-width:2;stroke-linecap:round;stroke-linejoin:round;stroke-miterlimit:4;stroke-dasharray:none;stroke-opacity:1"
       d="M 24 5 A 19 19 0 0 0 5 24 A 19 19 0 0 0 24 43 A 19 19 0 0 0 43 24 A 19 19 0 0 0 24 5 z M 24 17.050781 A 6.9499998 6.9499998 0 0 1 30.949219 24 A 6.9499998 6.9499998 0 0 1 24 30.949219 A 6.9499998 6.9499998 0 0 1 17.050781 24 A 6.9499998 6.9499998 0 0 1 24 17.050781 z "
       transform="translate(0,1004.3622)"
       id="circle4181" />
    <circle
       r="7.5"
       cy="1028.8622"
       cx="24.5"
       id="circle4218"
       style="opacity:1;fill:#000000;fill-opacity:0.2;stroke:none;stroke-width:2;stroke-linecap:round;stroke-linejoin:round;stroke-miterlimit:4;stroke-dasharray:none;stroke-opacity:1" />
    <circle
       style="opacity:1;fill:#262a30;fill-opacity:1;stroke:none;stroke-width:2;stroke-linecap:round;stroke-linejoin:round;stroke-miterlimit:4;stroke-dasharray:none;stroke-opacity:1"
       id="circle4183"
       cx="24"
       cy="1028.3622"
       r="7.5" />
    <path
       style="opacity:1;fill:#000000;fill-opacity:0.2;stroke:none;stroke-width:2;stroke-linecap:round;stroke-linejoin:round;stroke-miterlimit:4;stroke-dasharray:none;stroke-opacity:1"
       d="M 24 5 A 19 19 0 0 0 5 24 A 19 19 0 0 0 11.039062 37.859375 A 19 19 0 0 1 6 25 A 19 19 0 0 1 25 6 A 19 19 0 0 1 37.960938 11.140625 A 19 19 0 0 0 24 5 z "
       transform="translate(0,1004.3622)"
       id="circle4187" />
    <path
       id="path4199"
       d="m 42.959,1028.3122 a 18.999769,19 0 0 1 -18.999769,19 18.999769,19 0 0 1 -13.859231,-6.0391 18.999769,19 0 0 0 12.859243,5.0391 18.999769,19 0 0 0 18.999769,-19 18.999769,19 0 0 0 -5.140537,-12.961 18.999769,19 0 0 1 6.140525,13.961 z"
       style="opacity:1;fill:#ffffff;fill-opacity:0.2;stroke:none;stroke-width:2;stroke-linecap:round;stroke-linejoin:round;stroke-miterlimit:4;stroke-dasharray:none;stroke-opacity:1"
       inkscape:connector-curvature="0" />
    <path
       style="opacity:1;fill:#ffffff;fill-opacity:0.2;stroke:none;stroke-width:2;stroke-linecap:round;stroke-linejoin:round;stroke-miterlimit:4;stroke-dasharray:none;stroke-opacity:1"
       d="M 24 2 A 22 22 0 0 0 2 24 A 22 22 0 0 0 2.0214844 24.585938 A 22 22 0 0 1 24 3 A 22 22 0 0 1 45.978516 24.414062 A 22 22 0 0 0 46 24 A 22 22 0 0 0 24 2 z "
       transform="translate(0,1004.3622)"
       id="circle4208" />
    <path
       id="path4213"
       d="m 24,1050.3622 a 22,22 0 0 1 -22,-22 22,22 0 0 1 0.021484,-0.5859 A 22,22 0 0 0 24,1049.3622 a 22,22 0 0 0 21.978516,-21.414 22,22 0 0 1 0.02148,0.414 22,22 0 0 1 -22,22 z"
       style="opacity:1;fill:#000000;fill-opacity:0.2;stroke:none;stroke-width:2;stroke-linecap:round;stroke-linejoin:round;stroke-miterlimit:4;stroke-dasharray:none;stroke-opacity:1"
       inkscape:connector-curvature="0" />
    <path
       style="opacity:1;fill:#ffffff;fill-opacity:0.2;stroke:none;stroke-width:2;stroke-linecap:round;stroke-linejoin:round;stroke-miterlimit:4;stroke-dasharray:none;stroke-opacity:1"
       d="M 24 16.5 A 7.5 7.5 0 0 0 16.5 24 A 7.5 7.5 0 0 0 16.521484 24.552734 A 7.5 7.5 0 0 1 24 17.5 A 7.5 7.5 0 0 1 31.478516 24.447266 A 7.5 7.5 0 0 0 31.5 24 A 7.5 7.5 0 0 0 24 16.5 z "
       transform="translate(0,1004.3622)"
       id="circle4220" />
    <path
       id="path4225"
       d="m 24,1035.8622 a 7.5,7.5 0 0 1 -7.5,-7.5 7.5,7.5 0 0 1 0.02148,-0.5527 7.5,7.5 0 0 0 7.478516,7.0527 7.5,7.5 0 0 0 7.478516,-6.9473 7.5,7.5 0 0 1 0.02148,0.4473 7.5,7.5 0 0 1 -7.5,7.5 z"
       style="opacity:1;fill:#000000;fill-opacity:0.2;stroke:none;stroke-width:2;stroke-linecap:round;stroke-linejoin:round;stroke-miterlimit:4;stroke-dasharray:none;stroke-opacity:1"
       inkscape:connector-curvature="0" />
    <path
       style="fill:url(#linearGradient4171-1-0);fill-opacity:1;stroke:none;stroke-width:2;stroke-linecap:round;stroke-linejoin:round;stroke-miterlimit:4;stroke-dasharray:none;stroke-opacity:1"
       d="M 24 2 A 21.99977 21.999992 0 0 0 22.109375 2.0957031 A 21.999769 21.999992 0 0 0 21.072266 2.2207031 A 21.99977 21.999992 0 0 0 19.929688 2.3945312 A 21.999769 21.999992 0 0 0 18.908203 2.6230469 A 21.99977 21.999992 0 0 0 17.804688 2.9042969 A 21.999769 21.999992 0 0 0 16.789062 3.2421875 A 21.99977 21.999992 0 0 0 15.724609 3.6308594 A 21.999769 21.999992 0 0 0 14.748047 4.0683594 A 21.99977 21.999992 0 0 0 13.740234 4.5566406 A 21.999769 21.999992 0 0 0 12.964844 5 L 8 5 L 7.5 5 C 7.223 5 7 5.223 7 5.5 C 7 5.7556 7.1925931 5.9582812 7.4394531 5.9882812 A 2 2 0 0 1 7.4355469 6.0039062 A 1.5 1.5 0 0 1 7.5 6.0039062 A 1.5 1.5 0 0 1 9 7.5039062 A 1.5 1.5 0 0 1 8.9023438 8.0371094 A 21.99977 21.999992 0 0 0 8.4414062 8.4648438 A 21.999769 21.999992 0 0 0 8.0507812 8.8964844 A 1.5 1.5 0 0 1 7.5 9.0039062 A 1.5 1.5 0 0 1 6 7.5039062 A 1.5 1.5 0 0 1 6.0019531 7.4375 A 2 2 0 0 1 5.9882812 7.4375 C 5.9565183 7.1915 5.754893 7 5.5 7 C 5.223 7 5 7.223 5 7.5 L 5 8 L 5 12.982422 A 21.999769 21.999992 0 0 0 2 24 A 21.999769 21.999992 0 0 0 5 35.046875 L 5 40 L 5 40.5 C 5 40.777 5.223 41 5.5 41 C 5.754893 41 5.9565183 40.8085 5.9882812 40.5625 A 2 2 0 0 1 6.0019531 40.5625 A 1.5 1.5 0 0 1 6 40.496094 A 1.5 1.5 0 0 1 7.5 38.996094 A 1.5 1.5 0 0 1 7.9980469 39.083984 A 21.999769 21.999992 0 0 0 8.1972656 39.304688 L 8.2285156 39.304688 A 21.99977 21.999992 0 0 0 8.8789062 39.912109 A 1.5 1.5 0 0 1 9 40.496094 A 1.5 1.5 0 0 1 7.5 41.996094 A 1.5 1.5 0 0 1 7.4355469 41.996094 A 2 2 0 0 1 7.4394531 42.011719 C 7.1925931 42.041719 7 42.2444 7 42.5 C 7 42.777 7.223 43 7.5 43 L 8 43 L 12.984375 43 A 21.99977 21.999992 0 0 0 24 46 A 21.99977 21.999992 0 0 0 25.869141 45.90625 A 21.999769 21.999992 0 0 0 26.949219 45.775391 A 21.99977 21.999992 0 0 0 28.070312 45.605469 A 21.999769 21.999992 0 0 0 29.091797 45.375 A 21.99977 21.999992 0 0 0 30.195312 45.095703 A 21.999769 21.999992 0 0 0 31.210938 44.757812 A 21.99977 21.999992 0 0 0 32.275391 44.369141 A 21.999769 21.999992 0 0 0 33.251953 43.931641 A 21.99977 21.999992 0 0 0 34.259766 43.443359 A 21.999769 21.999992 0 0 0 35.035156 43 L 40 43 L 40.5 43 C 40.777 43 41 42.777 41 42.5 C 41 42.2444 40.807407 42.041719 40.560547 42.011719 A 2 2 0 0 1 40.564453 41.996094 A 1.5 1.5 0 0 1 40.5 41.996094 A 1.5 1.5 0 0 1 39 40.496094 A 1.5 1.5 0 0 1 39.097656 39.962891 A 21.99977 21.999992 0 0 0 39.558594 39.533203 A 21.999769 21.999992 0 0 0 39.947266 39.103516 A 1.5 1.5 0 0 1 40.5 38.996094 A 1.5 1.5 0 0 1 42 40.496094 A 1.5 1.5 0 0 1 41.998047 40.5625 A 2 2 0 0 1 42.011719 40.5625 C 42.043482 40.8085 42.245107 41 42.5 41 C 42.777 41 43 40.777 43 40.5 L 43 40 L 43 35.017578 A 21.999769 21.999992 0 0 0 46 24 A 21.999769 21.999992 0 0 0 43 12.955078 L 43 8 L 43 7.5 C 43 7.223 42.777 7 42.5 7 C 42.245107 7 42.043482 7.1915 42.011719 7.4375 A 2 2 0 0 1 41.998047 7.4375 A 1.5 1.5 0 0 1 42 7.5039062 A 1.5 1.5 0 0 1 40.5 9.0039062 A 1.5 1.5 0 0 1 40 8.9160156 A 21.999769 21.999992 0 0 0 39.800781 8.6953125 L 39.771484 8.6953125 A 21.99977 21.999992 0 0 0 39.121094 8.0878906 A 1.5 1.5 0 0 1 39 7.5039062 A 1.5 1.5 0 0 1 40.5 6.0039062 A 1.5 1.5 0 0 1 40.564453 6.0039062 A 2 2 0 0 1 40.560547 5.9882812 C 40.807459 5.9572813 41 5.7556 41 5.5 C 41 5.223 40.777 5 40.5 5 L 40 5 L 35.015625 5 A 21.99977 21.999992 0 0 0 24 2 z "
       transform="translate(0,1004.3622)"
       id="circle4163-3-6" />
  </g>
</svg>
