<?xml version="1.0" encoding="UTF-8" standalone="no"?>
<!-- Created with Inkscape (http://www.inkscape.org/) -->

<svg
   xmlns:dc="http://purl.org/dc/elements/1.1/"
   xmlns:cc="http://creativecommons.org/ns#"
   xmlns:rdf="http://www.w3.org/1999/02/22-rdf-syntax-ns#"
   xmlns:svg="http://www.w3.org/2000/svg"
   xmlns="http://www.w3.org/2000/svg"
   xmlns:xlink="http://www.w3.org/1999/xlink"
   xmlns:sodipodi="http://sodipodi.sourceforge.net/DTD/sodipodi-0.dtd"
   xmlns:inkscape="http://www.inkscape.org/namespaces/inkscape"
   width="48"
   height="48"
   id="svg2"
   version="1.1"
   inkscape:version="0.91 r13725"
   sodipodi:docname="drive-harddisk.svg"
   inkscape:export-filename="/home/afel/Pictures/evos-mockups/personal-app-icons/harddisk.png"
   inkscape:export-xdpi="360"
   inkscape:export-ydpi="360">
  <defs
     id="defs4">
    <linearGradient
       inkscape:collect="always"
       id="linearGradient4526">
      <stop
         style="stop-color:#ffffff;stop-opacity:0.14901961"
         offset="0"
         id="stop4528" />
      <stop
         style="stop-color:#177ed5;stop-opacity:0"
         offset="1"
         id="stop4530" />
    </linearGradient>
    <inkscape:perspective
       sodipodi:type="inkscape:persp3d"
       inkscape:vp_x="0 : 12 : 1"
       inkscape:vp_y="0 : 1000 : 0"
       inkscape:vp_z="24 : 12 : 1"
       inkscape:persp3d-origin="12 : 8 : 1"
       id="perspective3810" />
    <linearGradient
       inkscape:collect="always"
       xlink:href="#linearGradient4526"
       id="linearGradient4532"
       x1="-33.27037"
       y1="1006.3864"
       x2="5.2686601"
       y2="1044.9254"
       gradientUnits="userSpaceOnUse"
       gradientTransform="translate(37.999996,2.000025)" />
  </defs>
  <sodipodi:namedview
     id="base"
     pagecolor="#ffffff"
     bordercolor="#666666"
     borderopacity="1.0"
     inkscape:pageopacity="0.0"
     inkscape:pageshadow="2"
     inkscape:zoom="3.9999998"
     inkscape:cx="17.926465"
     inkscape:cy="-12.080946"
     inkscape:document-units="px"
     inkscape:current-layer="layer1"
     showgrid="false"
     inkscape:snap-grids="true"
     inkscape:object-paths="true"
     inkscape:snap-intersection-paths="true"
     inkscape:snap-smooth-nodes="true"
     inkscape:object-nodes="true"
     inkscape:snap-midpoints="true"
     inkscape:window-width="959"
     inkscape:window-height="1011"
     inkscape:window-x="960"
     inkscape:window-y="0"
     inkscape:window-maximized="0"
     inkscape:showpageshadow="false"
     borderlayer="true"
     inkscape:snap-bbox="true"
     inkscape:snap-nodes="false"
     inkscape:bbox-paths="true"
     inkscape:bbox-nodes="true"
     inkscape:snap-bbox-edge-midpoints="false"
     inkscape:snap-bbox-midpoints="false"
     inkscape:snap-global="true"
     showguides="true"
     inkscape:snap-center="false">
    <inkscape:grid
       type="xygrid"
       id="grid3808"
       empspacing="4"
       visible="true"
       enabled="true"
       snapvisiblegridlinesonly="true" />
  </sodipodi:namedview>
  <metadata
     id="metadata7">
    <rdf:RDF>
      <cc:Work
         rdf:about="">
        <dc:format>image/svg+xml</dc:format>
        <dc:type
           rdf:resource="http://purl.org/dc/dcmitype/StillImage" />
        <dc:title />
      </cc:Work>
    </rdf:RDF>
  </metadata>
  <g
     inkscape:label="Layer 1"
     inkscape:groupmode="layer"
     id="layer1"
     transform="translate(0,-1004.3622)">
    <rect
       style="opacity:1;fill:#3b414b;fill-opacity:1;stroke:none;stroke-width:0.1;stroke-linecap:round;stroke-linejoin:round;stroke-miterlimit:4;stroke-dasharray:none;stroke-opacity:1"
       id="rect4135"
       width="32"
       height="44"
       x="8"
       y="1006.3622"
       rx="3"
       ry="3" />
    <path
       style="fill:#000000;fill-opacity:0.2;fill-rule:evenodd;stroke:none;stroke-width:1px;stroke-linecap:butt;stroke-linejoin:miter;stroke-opacity:1"
       d="m 33.819879,1038.5979 c 0,0 2.432786,1.7839 0.312453,3.9023 -2.120334,2.1184 -3.883541,-0.3345 -3.883541,-0.3345 l -7.233571,-9.9104 c 0,0 -1.235708,-1.6034 -0.98051,-1.8585 0.25527,-0.255 1.868625,0.9834 1.868625,0.9834 z"
       id="path4188-6"
       inkscape:connector-curvature="0"
       sodipodi:nodetypes="czcczcc" />
    <circle
       style="opacity:1;fill:#000000;fill-opacity:0.2;stroke:none;stroke-width:0.2;stroke-linecap:round;stroke-linejoin:round;stroke-miterlimit:4;stroke-dasharray:none;stroke-opacity:0.2"
       id="path4186-1"
       cx="25"
       cy="1023.3622"
       r="14" />
    <circle
       style="opacity:1;fill:#5b6573;fill-opacity:1;stroke:none;stroke-width:0.1;stroke-linecap:round;stroke-linejoin:round;stroke-miterlimit:4;stroke-dasharray:none;stroke-opacity:1"
       id="path4159"
       cx="10.5"
       cy="1008.8622"
       r="0.5" />
    <circle
       style="opacity:1;fill:#5b6573;fill-opacity:1;stroke:none;stroke-width:0.1;stroke-linecap:round;stroke-linejoin:round;stroke-miterlimit:4;stroke-dasharray:none;stroke-opacity:1"
       id="path4159-5"
       cx="37.5"
       cy="1008.8622"
       r="0.5" />
    <circle
       style="opacity:1;fill:#5b6573;fill-opacity:1;stroke:none;stroke-width:0.1;stroke-linecap:round;stroke-linejoin:round;stroke-miterlimit:4;stroke-dasharray:none;stroke-opacity:1"
       id="path4159-5-8"
       cx="37.5"
       cy="1047.8622"
       r="0.5" />
    <circle
       style="opacity:1;fill:#5b6573;fill-opacity:1;stroke:none;stroke-width:0.1;stroke-linecap:round;stroke-linejoin:round;stroke-miterlimit:4;stroke-dasharray:none;stroke-opacity:1"
       id="path4159-5-9"
       cx="10.5"
       cy="1047.8622"
       r="0.5" />
    <circle
       style="opacity:1;fill:#d1d5db;fill-opacity:1;stroke:none;stroke-width:0.2;stroke-linecap:round;stroke-linejoin:round;stroke-miterlimit:4;stroke-dasharray:none;stroke-opacity:0.2"
       id="path4186"
       cx="24"
       cy="1022.3622"
       r="14" />
    <circle
       style="opacity:1;fill:#3b414b;fill-opacity:1;stroke:none;stroke-width:0.2;stroke-linecap:round;stroke-linejoin:round;stroke-miterlimit:4;stroke-dasharray:none;stroke-opacity:0.2"
       id="path4190"
       cx="24"
       cy="1022.3622"
       r="4" />
    <circle
       style="opacity:1;fill:#5b6573;fill-opacity:1;stroke:none;stroke-width:0.2;stroke-linecap:round;stroke-linejoin:round;stroke-miterlimit:4;stroke-dasharray:none;stroke-opacity:0.2"
       id="path4313"
       cx="24"
       cy="1022.3622"
       r="3" />
    <circle
       style="opacity:1;fill:#3b414b;fill-opacity:1;stroke:none;stroke-width:0.2;stroke-linecap:round;stroke-linejoin:round;stroke-miterlimit:4;stroke-dasharray:none;stroke-opacity:0.2"
       id="path4315"
       cx="24"
       cy="1022.3622"
       r="2" />
    <path
       style="opacity:1;fill:#ffffff;fill-opacity:0.2;stroke:none;stroke-width:0.1;stroke-linecap:round;stroke-linejoin:round;stroke-miterlimit:4;stroke-dasharray:none;stroke-opacity:1"
       d="m 11,1006.3622 26,0 c 1.662,0 3,1.338 3,3 0,-1 -1.501631,-2 -3,-2 -8.381299,0 -14.420284,0 -26,0 -1.4330974,0 -3,1 -3,2 0,-1.662 1.338,-3 3,-3 z"
       id="rect4135-8"
       inkscape:connector-curvature="0"
       sodipodi:nodetypes="sscsscs" />
    <path
       style="opacity:1;fill:#000000;fill-opacity:0.2;stroke:none;stroke-width:0.1;stroke-linecap:round;stroke-linejoin:round;stroke-miterlimit:4;stroke-dasharray:none;stroke-opacity:1"
       d="m 11,1050.3622 26,0 c 1.662,0 3,-1.338 3,-3 0,1 -1.501631,2 -3,2 -8.381299,0 -14.420284,0 -26,0 -1.433097,0 -2.9999998,-1 -2.9999998,-2 0,1.662 1.3379998,3 2.9999998,3 z"
       id="rect4135-8-3"
       inkscape:connector-curvature="0"
       sodipodi:nodetypes="sscsscs" />
    <path
       style="opacity:1;fill:#ffffff;fill-opacity:0.2;stroke:none;stroke-width:0.2;stroke-linecap:round;stroke-linejoin:round;stroke-miterlimit:4;stroke-dasharray:none;stroke-opacity:0.2"
       d="m 38,1022.3622 c 0,-6 -6.268014,-13 -14,-13 -7.731986,0 -14,7 -14,13 0,-7.732 6.268014,-14 14,-14 7.731986,0 14,6.268 14,14 z"
       id="path4186-2"
       inkscape:connector-curvature="0"
       sodipodi:nodetypes="cscsc" />
    <path
       style="opacity:1;fill:#000000;fill-opacity:0.2;stroke:none;stroke-width:0.2;stroke-linecap:round;stroke-linejoin:round;stroke-miterlimit:4;stroke-dasharray:none;stroke-opacity:0.2"
       d="m 38,1022.3622 c 0,6 -6.268014,13 -14,13 -7.731986,0 -14,-7 -14,-13 0,7.732 6.268014,14 14,14 7.731986,0 14,-6.268 14,-14 z"
       id="path4186-2-6"
       inkscape:connector-curvature="0"
       sodipodi:nodetypes="cscsc" />
    <path
       style="fill:#5b6573;fill-opacity:1;fill-rule:evenodd;stroke:none;stroke-width:1px;stroke-linecap:butt;stroke-linejoin:miter;stroke-opacity:1"
       d="m 32.819879,1037.5979 c 0,0 2.432786,1.7839 0.312453,3.9023 -2.120334,2.1184 -3.883541,-0.3345 -3.883541,-0.3345 l -7.233571,-9.9104 c 0,0 -1.235708,-1.6034 -0.98051,-1.8585 0.25527,-0.255 1.868625,0.9834 1.868625,0.9834 z"
       id="path4188"
       inkscape:connector-curvature="0"
       sodipodi:nodetypes="czcczcc" />
    <path
       style="opacity:1;fill:#000000;fill-opacity:0.2;stroke:none;stroke-width:0.2;stroke-linecap:round;stroke-linejoin:round;stroke-miterlimit:4;stroke-dasharray:none;stroke-opacity:0.2"
       d="m 28,1022.3622 c 0,-1 -1.790861,-3 -4,-3 -2.209139,0 -4,2 -4,3 0,-2.2091 1.790861,-4 4,-4 2.209139,0 4,1.7909 4,4 z"
       id="path4190-4"
       inkscape:connector-curvature="0"
       sodipodi:nodetypes="cscsc" />
    <path
       style="opacity:1;fill:#ffffff;fill-opacity:0.2;stroke:none;stroke-width:0.2;stroke-linecap:round;stroke-linejoin:round;stroke-miterlimit:4;stroke-dasharray:none;stroke-opacity:0.2"
       d="m 28,1022.3622 c 0,1 -1.790861,3 -4,3 -2.209139,0 -4,-2 -4,-3 0,2.2091 1.790861,4 4,4 2.209139,0 4,-1.7909 4,-4 z"
       id="path4190-4-8"
       inkscape:connector-curvature="0"
       sodipodi:nodetypes="cscsc" />
    <path
       style="fill:#ffffff;fill-opacity:0.2;fill-rule:evenodd;stroke:none;stroke-width:1px;stroke-linecap:butt;stroke-linejoin:miter;stroke-opacity:1"
       d="m 22.01522,1031.2553 c 0,0 -1.235708,-1.6034 -0.98051,-1.8585 0.25527,-0.255 1.868625,0.9834 1.868625,0.9834 l 5.69758,4.147 c -1.814758,-1.3209 -4.347294,-2.2729 -6.585695,-3.2719 z"
       id="path4188-9"
       inkscape:connector-curvature="0"
       sodipodi:nodetypes="czccc" />
    <path
       style="fill:#000000;fill-opacity:0.2;fill-rule:evenodd;stroke:none;stroke-width:1px;stroke-linecap:butt;stroke-linejoin:miter;stroke-opacity:1"
       d="m 33.132332,1041.5002 c -2.12033,2.1184 -3.88354,-0.3345 -3.88354,-0.3345 l -0.866847,-1.1876 c 0.866847,1.1876 1.628153,1.4006 4.750387,1.5221 z"
       id="path4188-4"
       inkscape:connector-curvature="0"
       sodipodi:nodetypes="cccc" />
    <rect
       style="opacity:1;fill:url(#linearGradient4532);fill-opacity:1;stroke:none;stroke-width:0.1;stroke-linecap:round;stroke-linejoin:round;stroke-miterlimit:4;stroke-dasharray:none;stroke-opacity:1"
       id="rect4135-6"
       width="32"
       height="44"
       x="8"
       y="1006.3622"
       rx="3"
       ry="3" />
  </g>
</svg>
