<?xml version="1.0" encoding="UTF-8" standalone="no"?>
<svg
   xmlns:dc="http://purl.org/dc/elements/1.1/"
   xmlns:cc="http://creativecommons.org/ns#"
   xmlns:rdf="http://www.w3.org/1999/02/22-rdf-syntax-ns#"
   xmlns:svg="http://www.w3.org/2000/svg"
   xmlns="http://www.w3.org/2000/svg"
   xmlns:sodipodi="http://sodipodi.sourceforge.net/DTD/sodipodi-0.dtd"
   xmlns:inkscape="http://www.inkscape.org/namespaces/inkscape"
   width="16"
   height="16"
   viewBox="0 0 16 16"
   id="svg2"
   version="1.1"
   inkscape:version="0.91 r13725"
   sodipodi:docname="system-users-symbolic.svg">
  <metadata
     id="metadata10">
    <rdf:RDF>
      <cc:Work
         rdf:about="">
        <dc:format>image/svg+xml</dc:format>
        <dc:type
           rdf:resource="http://purl.org/dc/dcmitype/StillImage" />
        <dc:title></dc:title>
      </cc:Work>
    </rdf:RDF>
  </metadata>
  <defs
     id="defs8" />
  <sodipodi:namedview
     pagecolor="#ffffff"
     bordercolor="#666666"
     borderopacity="1"
     objecttolerance="10"
     gridtolerance="10"
     guidetolerance="10"
     inkscape:pageopacity="0"
     inkscape:pageshadow="2"
     inkscape:window-width="959"
     inkscape:window-height="1011"
     id="namedview6"
     showgrid="true"
     inkscape:zoom="27.812867"
     inkscape:cx="6.6008181"
     inkscape:cy="5.8245951"
     inkscape:window-x="960"
     inkscape:window-y="0"
     inkscape:window-maximized="0"
     inkscape:current-layer="svg2">
    <inkscape:grid
       type="xygrid"
       id="grid3333" />
  </sodipodi:namedview>
  <path
     style="opacity:1;fill:#bebebe;fill-opacity:1;stroke:none;stroke-width:1.66600001;stroke-linecap:round;stroke-linejoin:round;stroke-miterlimit:4;stroke-dasharray:none;stroke-opacity:1"
     d="m 10.929688,4.59375 c -1.0850005,0 -1.9687505,0.88375 -1.9687505,1.96875 0,1.085 0.88375,1.96875 1.9687505,1.96875 1.085,0 1.96875,-0.88375 1.96875,-1.96875 0,-1.085 -0.88375,-1.96875 -1.96875,-1.96875 z m 0,5.46875 C 9.6434375,10.0625 7.09625,10.692187 7,11.960938 7.875,13.194688 9.3021875,14 10.929688,14 c 1.6275,0 3.054688,-0.805312 3.929688,-2.039062 C 14.763125,10.692187 12.215938,10.0625 10.929688,10.0625 Z"
     id="rect4136"
     inkscape:connector-curvature="0" />
  <path
     id="path4139"
     d="m 4.9296875,1.59375 c -1.085,0 -1.96875,0.88375 -1.96875,1.96875 0,1.085 0.88375,1.96875 1.96875,1.96875 1.085,0 1.96875,-0.88375 1.96875,-1.96875 0,-1.085 -0.88375,-1.96875 -1.96875,-1.96875 z m 0,5.46875 C 3.6434375,7.0625 1.09625,7.6921875 1,8.960938 1.875,10.194688 3.3021875,11 4.9296875,11 c 1.6275,0 3.054688,-0.805312 3.929688,-2.039062 C 8.7631245,7.6921875 6.2159375,7.0625 4.9296875,7.0625 Z"
     style="opacity:1;fill:#bebebe;fill-opacity:1;stroke:none;stroke-width:1.66600001;stroke-linecap:round;stroke-linejoin:round;stroke-miterlimit:4;stroke-dasharray:none;stroke-opacity:1"
     inkscape:connector-curvature="0" />
</svg>
