<?xml version="1.0" encoding="UTF-8" standalone="no"?>
<!-- Created with Inkscape (http://www.inkscape.org/) -->

<svg
   xmlns:dc="http://purl.org/dc/elements/1.1/"
   xmlns:cc="http://creativecommons.org/ns#"
   xmlns:rdf="http://www.w3.org/1999/02/22-rdf-syntax-ns#"
   xmlns:svg="http://www.w3.org/2000/svg"
   xmlns="http://www.w3.org/2000/svg"
   xmlns:sodipodi="http://sodipodi.sourceforge.net/DTD/sodipodi-0.dtd"
   xmlns:inkscape="http://www.inkscape.org/namespaces/inkscape"
   width="840"
   height="544"
   viewBox="0 0 840 544"
   version="1.1"
   id="svg1087"
   inkscape:version="0.92.1 r"
   sodipodi:docname="emblem-unreadable.svg">
  <defs
     id="defs1081">
    <filter
       inkscape:collect="always"
       style="color-interpolation-filters:sRGB"
       id="filter5254"
       x="-0.012"
       width="1.024"
       y="-0.012"
       height="1.024">
      <feGaussianBlur
         inkscape:collect="always"
         stdDeviation="0.2"
         id="feGaussianBlur5256" />
    </filter>
    <filter
       inkscape:collect="always"
       style="color-interpolation-filters:sRGB"
       id="filter5279"
       x="-0.012"
       width="1.024"
       y="-0.012"
       height="1.024">
      <feGaussianBlur
         inkscape:collect="always"
         stdDeviation="0.1553516"
         id="feGaussianBlur5281" />
    </filter>
    <filter
       inkscape:collect="always"
       style="color-interpolation-filters:sRGB"
       id="filter5283"
       x="-0.012"
       width="1.024"
       y="-0.012"
       height="1.024">
      <feGaussianBlur
         inkscape:collect="always"
         stdDeviation="0.1047461"
         id="feGaussianBlur5285" />
    </filter>
    <filter
       inkscape:collect="always"
       style="color-interpolation-filters:sRGB"
       id="filter5289"
       x="-0.012"
       width="1.024"
       y="-0.012"
       height="1.024">
      <feGaussianBlur
         inkscape:collect="always"
         stdDeviation="0.28"
         id="feGaussianBlur5291" />
    </filter>
    <filter
       inkscape:collect="always"
       style="color-interpolation-filters:sRGB"
       id="filter5304"
       x="-0.024"
       width="1.048"
       y="-0.024"
       height="1.048">
      <feGaussianBlur
         inkscape:collect="always"
         stdDeviation="4.48"
         id="feGaussianBlur5306" />
    </filter>
    <filter
       inkscape:collect="always"
       style="color-interpolation-filters:sRGB"
       id="filter5325"
       x="-0.024000095"
       width="1.0480002"
       y="-0.023999905"
       height="1.0479998">
      <feGaussianBlur
         inkscape:collect="always"
         stdDeviation="2.4856934"
         id="feGaussianBlur5327" />
    </filter>
  </defs>
  <sodipodi:namedview
     id="base"
     pagecolor="#c3c3c3"
     bordercolor="#333333"
     borderopacity="1"
     inkscape:pageopacity="0"
     inkscape:pageshadow="2"
     inkscape:zoom="1.4142136"
     inkscape:cx="218.11391"
     inkscape:cy="201.48453"
     inkscape:document-units="px"
     inkscape:current-layer="layer2"
     showgrid="true"
     units="px"
     inkscape:showpageshadow="false"
     inkscape:window-width="2560"
     inkscape:window-height="1370"
     inkscape:window-x="0"
     inkscape:window-y="34"
     inkscape:window-maximized="1">
    <inkscape:grid
       type="xygrid"
       id="grid4630" />
  </sodipodi:namedview>
  <metadata
     id="metadata1084">
    <rdf:RDF>
      <cc:Work
         rdf:about="">
        <dc:format>image/svg+xml</dc:format>
        <dc:type
           rdf:resource="http://purl.org/dc/dcmitype/StillImage" />
        <dc:title></dc:title>
        <cc:license
           rdf:resource="http://creativecommons.org/licenses/by-sa/4.0/" />
        <dc:creator>
          <cc:Agent>
            <dc:title>Peter Cornelis</dc:title>
          </cc:Agent>
        </dc:creator>
      </cc:Work>
      <cc:License
         rdf:about="http://creativecommons.org/licenses/by-sa/4.0/">
        <cc:permits
           rdf:resource="http://creativecommons.org/ns#Reproduction" />
        <cc:permits
           rdf:resource="http://creativecommons.org/ns#Distribution" />
        <cc:requires
           rdf:resource="http://creativecommons.org/ns#Notice" />
        <cc:requires
           rdf:resource="http://creativecommons.org/ns#Attribution" />
        <cc:permits
           rdf:resource="http://creativecommons.org/ns#DerivativeWorks" />
        <cc:requires
           rdf:resource="http://creativecommons.org/ns#ShareAlike" />
      </cc:License>
    </rdf:RDF>
  </metadata>
  <g
     inkscape:label="Baseplate"
     inkscape:groupmode="layer"
     id="layer1"
     transform="translate(0,-153.06668)"
     style="display:none">
    <text
       y="733.32251"
       xml:space="preserve"
       x="15.006836"
       style="font-style:normal;font-variant:normal;font-weight:normal;font-stretch:normal;line-height:0%;font-family:'DejaVu Sans';-inkscape-font-specification:'DejaVu Sans';display:inline;fill:#000000;fill-opacity:1;stroke:none;enable-background:new"
       inkscape:label="context"
       id="context"><tspan
         style="font-style:normal;font-variant:normal;font-weight:normal;font-stretch:normal;font-size:18px;line-height:1.25;font-family:'DejaVu Sans';-inkscape-font-specification:'DejaVu Sans'"
         y="733.32251"
         x="15.006836"
         sodipodi:role="line"
         id="tspan3933">emblems</tspan></text>
    <text
       y="733.32251"
       xml:space="preserve"
       x="142.48828"
       style="font-style:normal;font-variant:normal;font-weight:bold;font-stretch:normal;line-height:0%;font-family:'DejaVu Sans';-inkscape-font-specification:'DejaVu Sans Bold';text-align:start;writing-mode:lr-tb;text-anchor:start;display:inline;fill:#000000;fill-opacity:1;stroke:none;enable-background:new"
       inkscape:label="icon-name"
       id="icon-name"><tspan
         style="font-style:normal;font-variant:normal;font-weight:bold;font-stretch:normal;font-size:18px;line-height:1.25;font-family:'DejaVu Sans';-inkscape-font-specification:'DejaVu Sans Bold'"
         y="733.32251"
         x="142.48828"
         sodipodi:role="line"
         id="tspan3937">emblem-unreadable</tspan></text>
    <rect
       style="display:inline;overflow:visible;visibility:visible;fill:#e9e9e9;fill-opacity:1;fill-rule:nonzero;stroke:none;stroke-width:2;marker:none;enable-background:accumulate"
       id="rect16x16"
       width="16"
       height="16"
       x="-47.999969"
       y="665.06665"
       inkscape:label="16x16"
       transform="scale(-1,1)" />
    <rect
       style="display:inline;overflow:visible;visibility:visible;fill:#e9e9e9;fill-opacity:1;fill-rule:nonzero;stroke:none;stroke-width:2;marker:none;enable-background:accumulate"
       id="rect24x24"
       width="24"
       height="24"
       x="-91.999969"
       y="657.06665"
       inkscape:label="24x24"
       transform="scale(-1,1)" />
    <rect
       style="display:inline;overflow:visible;visibility:visible;fill:#e9e9e9;fill-opacity:1;fill-rule:nonzero;stroke:none;stroke-width:2;marker:none;enable-background:accumulate"
       id="rect32x32"
       width="32"
       height="32"
       x="-143.99997"
       y="649.06665"
       inkscape:label="32x32"
       transform="scale(-1,1)" />
    <rect
       inkscape:label="48x48"
       y="633.06665"
       x="-207.99997"
       height="48"
       width="48"
       id="rect48x48"
       style="display:inline;overflow:visible;visibility:visible;fill:#e9e9e9;fill-opacity:1;fill-rule:nonzero;stroke:none;stroke-width:2;marker:none;enable-background:accumulate"
       transform="scale(-1,1)" />
    <rect
       style="display:inline;overflow:visible;visibility:visible;fill:#e9e9e9;fill-opacity:1;fill-rule:nonzero;stroke:none;stroke-width:2;marker:none;enable-background:accumulate"
       id="rect3951"
       width="512"
       height="512"
       x="-816"
       y="169.06668"
       inkscape:label="48x48"
       transform="scale(-1,1)" />
    <rect
       transform="scale(-1,1)"
       inkscape:label="16x16"
       y="673.06665"
       x="-16"
       height="8"
       width="8"
       id="rect4208"
       style="display:inline;overflow:visible;visibility:visible;fill:#e9e9e9;fill-opacity:1;fill-rule:nonzero;stroke:none;stroke-width:2;marker:none;enable-background:accumulate" />
    <rect
       transform="scale(-1,1)"
       inkscape:label="32x32"
       y="617.06665"
       x="-288"
       height="64"
       width="64"
       id="rect4591"
       style="display:inline;overflow:visible;visibility:visible;fill:#e9e9e9;fill-opacity:1;fill-rule:nonzero;stroke:none;stroke-width:4;marker:none;enable-background:accumulate" />
  </g>
  <g
     inkscape:groupmode="layer"
     id="layer2"
     inkscape:label="Bitmap"
     style="display:inline">
    <rect
       transform="matrix(0,-1,-1,0,0,0)"
       style="display:inline;fill:#000000;fill-opacity:0.2;stroke:none;enable-background:new;filter:url(#filter5254)"
       id="rect5252"
       width="40"
       height="40"
       x="-525"
       y="-203.99997"
       rx="20"
       ry="20" />
    <rect
       ry="20"
       rx="20"
       y="-203.99997"
       x="-524"
       height="40"
       width="40"
       id="rect4408"
       style="display:inline;fill:#bf1d37;fill-opacity:1;stroke:none;enable-background:new"
       transform="matrix(0,-1,-1,0,0,0)" />
    <rect
       ry="11"
       rx="11"
       y="-90.999969"
       x="-528"
       height="22"
       width="22"
       id="rect5219"
       style="display:inline;fill:#000000;fill-opacity:0.2;stroke:none;enable-background:new"
       transform="matrix(0,-1,-1,0,0,0)" />
    <rect
       transform="matrix(0,-1,-1,0,0,0)"
       style="display:inline;fill:#bf1d37;fill-opacity:1;stroke:none;enable-background:new"
       id="rect4410"
       width="22"
       height="22"
       x="-527"
       y="-90.999969"
       rx="11"
       ry="11" />
    <rect
       transform="matrix(0,-1,-1,0,0,0)"
       style="display:inline;fill:#000000;fill-opacity:0.2;stroke:none;enable-background:new"
       id="rect5243"
       width="28"
       height="28"
       x="-527"
       y="-141.99997"
       rx="14"
       ry="14" />
    <rect
       ry="14"
       rx="14"
       y="-141.99997"
       x="-526"
       height="28"
       width="28"
       id="rect4412"
       style="display:inline;fill:#bf1d37;fill-opacity:1;stroke:none;enable-background:new"
       transform="matrix(0,-1,-1,0,0,0)" />
    <rect
       ry="8"
       rx="8"
       y="-47.999969"
       x="-528"
       height="16"
       width="16"
       id="rect4414"
       style="display:inline;fill:#bf1d37;fill-opacity:1;stroke:none;enable-background:new"
       transform="matrix(0,-1,-1,0,0,0)" />
    <rect
       transform="matrix(0,-1,-1,0,0,0)"
       style="display:inline;fill:#000000;fill-opacity:0.2;stroke:none;enable-background:new;filter:url(#filter5304)"
       id="rect5298"
       width="448"
       height="448"
       x="-498"
       y="-784"
       rx="224"
       ry="224" />
    <rect
       ry="224"
       rx="224"
       y="-784"
       x="-498"
       height="448"
       width="448"
       id="rect5296"
       style="display:inline;fill:#000000;fill-opacity:0.2;stroke:none;enable-background:new"
       transform="matrix(0,-1,-1,0,0,0)" />
    <rect
       transform="matrix(0,-1,-1,0,0,0)"
       style="display:inline;fill:#bf1d37;fill-opacity:1;stroke:none;enable-background:new"
       id="rect4418"
       width="448"
       height="448"
       x="-495.99997"
       y="-784"
       rx="224"
       ry="224" />
    <rect
       transform="matrix(0,-1,-1,0,0,0)"
       style="display:inline;fill:#bf1d37;fill-opacity:1;stroke:none;enable-background:new"
       id="rect4420"
       width="8"
       height="8"
       x="-528"
       y="-16"
       rx="1"
       ry="1" />
    <path
       inkscape:connector-curvature="0"
       style="display:inline;opacity:1;fill:#ffffff;fill-opacity:0.2;stroke:none;enable-background:new"
       d="m 127.99998,497.99999 c -7.756,0 -14,6.244 -14,14 0,0.16884 0.0195,0.33264 0.0254,0.5 0.26374,-7.52057 6.38745,-13.5 13.97461,-13.5 7.58716,0 13.71087,5.97943 13.97461,13.5 0.006,-0.16736 0.0254,-0.33116 0.0254,-0.5 0,-7.756 -6.244,-14 -14,-14 z"
       id="path4422" />
    <path
       inkscape:connector-curvature="0"
       style="display:inline;opacity:1;fill:#ffffff;fill-opacity:0.2;stroke:none;enable-background:new"
       d="m 183.99998,483.99999 c -11.08,0 -20,8.92 -20,20 0,0.16787 0.008,0.33314 0.0117,0.5 0.26469,-10.84614 9.07617,-19.5 19.9883,-19.5 10.91213,0 19.72361,8.65386 19.98828,19.5 0.004,-0.16686 0.0117,-0.33213 0.0117,-0.5 0,-11.08 -8.92,-20 -20,-20 z"
       id="path4424" />
    <path
       inkscape:connector-curvature="0"
       style="display:inline;opacity:1;fill:#ffffff;fill-opacity:0.2;stroke:none;enable-background:new"
       d="m 79.999982,504.99999 c -6.094,0 -11,4.906 -11,11 0,0.16899 0.0179,0.33292 0.0254,0.5 0.26176,-5.85817 5.0496,-10.5 10.97461,-10.5 5.92501,0 10.71284,4.64183 10.97461,10.5 0.007,-0.16708 0.0254,-0.33101 0.0254,-0.5 0,-6.094 -4.906,-11 -11,-11 z"
       id="path4428" />
    <path
       inkscape:connector-curvature="0"
       style="display:inline;opacity:0.2;fill:#ffffff;fill-opacity:1;stroke:none;enable-background:new"
       d="m 559.99998,47.999995 c -124.096,0 -224,99.903995 -224,223.999995 0,0.33437 0.0103,0.66598 0.0117,1 0.5364,-123.63106 100.22667,-222.999995 223.9883,-222.999995 123.76163,0 223.4519,99.368935 223.98828,222.999995 10e-4,-0.33402 0.0117,-0.66563 0.0117,-1 0,-124.096 -99.904,-223.999995 -224,-223.999995 z"
       id="path4430" />
    <path
       id="path5317"
       d="m 464,149.71468 -28.28516,28.28516 14.14258,14.14258 81.85742,81.85742 -81.85742,81.85742 -14.14258,14.14258 L 464,398.285 478.14258,384.14242 560,302.285 641.85742,384.14242 656,398.285 684.2832,369.99984 670.14258,355.85726 588.28516,273.99984 670.14258,192.14242 684.2832,177.99984 656,149.71468 641.85742,163.85726 560,245.71468 478.14258,163.85726 Z"
       style="color:#000000;font-style:normal;font-variant:normal;font-weight:normal;font-stretch:normal;font-size:medium;line-height:normal;font-family:sans-serif;font-variant-ligatures:normal;font-variant-position:normal;font-variant-caps:normal;font-variant-numeric:normal;font-variant-alternates:normal;font-feature-settings:normal;text-indent:0;text-align:start;text-decoration:none;text-decoration-line:none;text-decoration-style:solid;text-decoration-color:#000000;letter-spacing:normal;word-spacing:normal;text-transform:none;writing-mode:lr-tb;direction:ltr;text-orientation:mixed;dominant-baseline:auto;baseline-shift:baseline;text-anchor:start;white-space:normal;shape-padding:0;clip-rule:nonzero;display:inline;overflow:visible;visibility:visible;opacity:1;isolation:auto;mix-blend-mode:normal;color-interpolation:sRGB;color-interpolation-filters:linearRGB;solid-color:#000000;solid-opacity:1;vector-effect:none;fill:#000000;fill-opacity:0.2;fill-rule:evenodd;stroke:none;stroke-width:40;stroke-linecap:square;stroke-linejoin:miter;stroke-miterlimit:4;stroke-dasharray:none;stroke-dashoffset:0;stroke-opacity:1;color-rendering:auto;image-rendering:auto;shape-rendering:auto;text-rendering:auto;enable-background:accumulate"
       inkscape:connector-curvature="0" />
    <path
       inkscape:connector-curvature="0"
       style="color:#000000;font-style:normal;font-variant:normal;font-weight:normal;font-stretch:normal;font-size:medium;line-height:normal;font-family:sans-serif;font-variant-ligatures:normal;font-variant-position:normal;font-variant-caps:normal;font-variant-numeric:normal;font-variant-alternates:normal;font-feature-settings:normal;text-indent:0;text-align:start;text-decoration:none;text-decoration-line:none;text-decoration-style:solid;text-decoration-color:#000000;letter-spacing:normal;word-spacing:normal;text-transform:none;writing-mode:lr-tb;direction:ltr;text-orientation:mixed;dominant-baseline:auto;baseline-shift:baseline;text-anchor:start;white-space:normal;shape-padding:0;clip-rule:nonzero;display:inline;overflow:visible;visibility:visible;opacity:1;isolation:auto;mix-blend-mode:normal;color-interpolation:sRGB;color-interpolation-filters:linearRGB;solid-color:#000000;solid-opacity:1;vector-effect:none;fill:#000000;fill-opacity:0.2;fill-rule:evenodd;stroke:none;stroke-width:40;stroke-linecap:square;stroke-linejoin:miter;stroke-miterlimit:4;stroke-dasharray:none;stroke-dashoffset:0;stroke-opacity:1;color-rendering:auto;image-rendering:auto;shape-rendering:auto;text-rendering:auto;enable-background:accumulate;filter:url(#filter5325)"
       d="m 464,149.71468 -28.28516,28.28516 14.14258,14.14258 81.85742,81.85742 -81.85742,81.85742 -14.14258,14.14258 L 464,398.285 478.14258,384.14242 560,302.285 641.85742,384.14242 656,398.285 684.2832,369.99984 670.14258,355.85726 588.28516,273.99984 670.14258,192.14242 684.2832,177.99984 656,149.71468 641.85742,163.85726 560,245.71468 478.14258,163.85726 Z"
       id="path5319" />
    <path
       style="color:#000000;font-style:normal;font-variant:normal;font-weight:normal;font-stretch:normal;font-size:medium;line-height:normal;font-family:sans-serif;font-variant-ligatures:normal;font-variant-position:normal;font-variant-caps:normal;font-variant-numeric:normal;font-variant-alternates:normal;font-feature-settings:normal;text-indent:0;text-align:start;text-decoration:none;text-decoration-line:none;text-decoration-style:solid;text-decoration-color:#000000;letter-spacing:normal;word-spacing:normal;text-transform:none;writing-mode:lr-tb;direction:ltr;text-orientation:mixed;dominant-baseline:auto;baseline-shift:baseline;text-anchor:start;white-space:normal;shape-padding:0;clip-rule:nonzero;display:inline;overflow:visible;visibility:visible;opacity:1;isolation:auto;mix-blend-mode:normal;color-interpolation:sRGB;color-interpolation-filters:linearRGB;solid-color:#000000;solid-opacity:1;vector-effect:none;fill:#f5f5f5;fill-opacity:1;fill-rule:evenodd;stroke:none;stroke-width:40;stroke-linecap:square;stroke-linejoin:miter;stroke-miterlimit:4;stroke-dasharray:none;stroke-dashoffset:0;stroke-opacity:1;color-rendering:auto;image-rendering:auto;shape-rendering:auto;text-rendering:auto;enable-background:accumulate"
       d="M 464 147.71484 L 435.71484 176 L 449.85742 190.14258 L 531.71484 272 L 449.85742 353.85742 L 435.71484 368 L 464 396.28516 L 478.14258 382.14258 L 560 300.28516 L 641.85742 382.14258 L 656 396.28516 L 684.2832 368 L 670.14258 353.85742 L 588.28516 272 L 670.14258 190.14258 L 684.2832 176 L 656 147.71484 L 641.85742 161.85742 L 560 243.71484 L 478.14258 161.85742 L 464 147.71484 z "
       id="path4191" />
    <path
       style="color:#000000;font-style:normal;font-variant:normal;font-weight:normal;font-stretch:normal;font-size:medium;line-height:normal;font-family:sans-serif;text-indent:0;text-align:start;text-decoration:none;text-decoration-line:none;text-decoration-style:solid;text-decoration-color:#000000;letter-spacing:normal;word-spacing:normal;text-transform:none;writing-mode:lr-tb;direction:ltr;baseline-shift:baseline;text-anchor:start;white-space:normal;clip-rule:nonzero;display:inline;overflow:visible;visibility:visible;opacity:1;isolation:auto;mix-blend-mode:normal;color-interpolation:sRGB;color-interpolation-filters:linearRGB;solid-color:#000000;solid-opacity:1;fill:#f5f5f5;fill-opacity:1;fill-rule:evenodd;stroke:none;stroke-width:2;stroke-linecap:butt;stroke-linejoin:miter;stroke-miterlimit:4;stroke-dasharray:none;stroke-dashoffset:0;stroke-opacity:1;color-rendering:auto;image-rendering:auto;shape-rendering:auto;text-rendering:auto;enable-background:accumulate"
       d="m 35.999982,515.99999 v 1 a 1,1 0 0 0 0.29297,0.70703 l 2.29297,2.29297 -2.29297,2.29297 a 1,1 0 0 0 -0.29297,0.70703 v 1 h 1 a 1,1 0 0 0 0.70703,-0.29297 l 2.29297,-2.29297 2.2832,2.28321 a 1,1 0 0 0 0.7168,0.30273 h 1 v -1 a 1,1 0 0 0 -0.29297,-0.70703 l -2.29297,-2.29297 2.2832,-2.2832 a 1,1 0 0 0 0.30274,-0.7168 v -1 h -1 a 1,1 0 0 0 -0.70703,0.29297 l -2.29297,2.29297 -2.28321,-2.28321 a 1,1 0 0 0 -0.01,-0.01 1,1 0 0 0 -0.70699,-0.29273 z"
       id="path4285"
       inkscape:connector-curvature="0" />
    <path
       style="color:#000000;font-style:normal;font-variant:normal;font-weight:normal;font-stretch:normal;font-size:medium;line-height:normal;font-family:sans-serif;text-indent:0;text-align:start;text-decoration:none;text-decoration-line:none;text-decoration-style:solid;text-decoration-color:#000000;letter-spacing:normal;word-spacing:normal;text-transform:none;writing-mode:lr-tb;direction:ltr;baseline-shift:baseline;text-anchor:start;white-space:normal;clip-rule:nonzero;display:inline;overflow:visible;visibility:visible;opacity:1;isolation:auto;mix-blend-mode:normal;color-interpolation:sRGB;color-interpolation-filters:linearRGB;solid-color:#000000;solid-opacity:1;fill:#f5f5f5;fill-opacity:1;fill-rule:evenodd;stroke:none;stroke-width:2;stroke-linecap:round;stroke-linejoin:miter;stroke-miterlimit:4;stroke-dasharray:none;stroke-dashoffset:0;stroke-opacity:1;color-rendering:auto;image-rendering:auto;shape-rendering:auto;text-rendering:auto;enable-background:accumulate"
       d="m 9.990212,520.99022 a 1.0001,1.0001 0 0 0 -0.69726,1.7168 l 1.29297,1.29297 -1.29297,1.29297 a 1.0001,1.0001 0 1 0 1.41406,1.41406 l 1.29297,-1.29297 1.29297,1.29297 a 1.0001,1.0001 0 1 0 1.41406,-1.41406 l -1.29297,-1.29297 1.29297,-1.29297 a 1.0001,1.0001 0 0 0 -0.72656,-1.7168 1.0001,1.0001 0 0 0 -0.6875,0.30274 l -1.29297,1.29297 -1.29297,-1.29297 a 1.0001,1.0001 0 0 0 -0.7168,-0.30274 z"
       id="path4291"
       inkscape:connector-curvature="0" />
    <path
       id="path5241"
       d="m 122,505.23284 -1.76758,1.76758 0.88281,0.88477 5.11524,5.11523 -5.11524,5.11523 -0.88281,0.88477 1.76758,1.76758 0.88477,-0.88281 5.11523,-5.11524 5.11523,5.11524 0.88477,0.88281 1.76758,-1.76758 -0.88281,-0.88477 -5.11524,-5.11523 5.11524,-5.11523 0.88281,-0.88477 -1.76758,-1.76758 -0.88477,0.88281 -5.11523,5.11524 -5.11523,-5.11524 z"
       style="color:#000000;font-style:normal;font-variant:normal;font-weight:normal;font-stretch:normal;font-size:medium;line-height:normal;font-family:sans-serif;font-variant-ligatures:normal;font-variant-position:normal;font-variant-caps:normal;font-variant-numeric:normal;font-variant-alternates:normal;font-feature-settings:normal;text-indent:0;text-align:start;text-decoration:none;text-decoration-line:none;text-decoration-style:solid;text-decoration-color:#000000;letter-spacing:normal;word-spacing:normal;text-transform:none;writing-mode:lr-tb;direction:ltr;text-orientation:mixed;dominant-baseline:auto;baseline-shift:baseline;text-anchor:start;white-space:normal;shape-padding:0;clip-rule:nonzero;display:inline;overflow:visible;visibility:visible;opacity:1;isolation:auto;mix-blend-mode:normal;color-interpolation:sRGB;color-interpolation-filters:linearRGB;solid-color:#000000;solid-opacity:1;vector-effect:none;fill:#000000;fill-opacity:0.2;fill-rule:evenodd;stroke:none;stroke-width:2.5;stroke-linecap:square;stroke-linejoin:miter;stroke-miterlimit:4;stroke-dasharray:none;stroke-dashoffset:0;stroke-opacity:1;color-rendering:auto;image-rendering:auto;shape-rendering:auto;text-rendering:auto;enable-background:accumulate"
       inkscape:connector-curvature="0" />
    <path
       style="color:#000000;font-style:normal;font-variant:normal;font-weight:normal;font-stretch:normal;font-size:medium;line-height:normal;font-family:sans-serif;font-variant-ligatures:normal;font-variant-position:normal;font-variant-caps:normal;font-variant-numeric:normal;font-variant-alternates:normal;font-feature-settings:normal;text-indent:0;text-align:start;text-decoration:none;text-decoration-line:none;text-decoration-style:solid;text-decoration-color:#000000;letter-spacing:normal;word-spacing:normal;text-transform:none;writing-mode:lr-tb;direction:ltr;text-orientation:mixed;dominant-baseline:auto;baseline-shift:baseline;text-anchor:start;white-space:normal;shape-padding:0;clip-rule:nonzero;display:inline;overflow:visible;visibility:visible;opacity:1;isolation:auto;mix-blend-mode:normal;color-interpolation:sRGB;color-interpolation-filters:linearRGB;solid-color:#000000;solid-opacity:1;vector-effect:none;fill:#f5f5f5;fill-opacity:1;fill-rule:evenodd;stroke:none;stroke-width:2.5;stroke-linecap:square;stroke-linejoin:miter;stroke-miterlimit:4;stroke-dasharray:none;stroke-dashoffset:0;stroke-opacity:1;color-rendering:auto;image-rendering:auto;shape-rendering:auto;text-rendering:auto;enable-background:accumulate"
       d="M 122 504.23242 L 120.23242 506 L 121.11523 506.88477 L 126.23047 512 L 121.11523 517.11523 L 120.23242 518 L 122 519.76758 L 122.88477 518.88477 L 128 513.76953 L 133.11523 518.88477 L 134 519.76758 L 135.76758 518 L 134.88477 517.11523 L 129.76953 512 L 134.88477 506.88477 L 135.76758 506 L 134 504.23242 L 133.11523 505.11523 L 128 510.23047 L 122.88477 505.11523 L 122 504.23242 z "
       id="path4181" />
    <path
       id="path5250"
       d="m 176,494.52578 -2.47461,2.47461 1.23633,1.23828 6.76172,6.76172 -6.76172,6.76172 -1.23633,1.23828 2.47461,2.47461 1.23828,-1.23633 6.76172,-6.76172 6.76172,6.76172 1.23828,1.23633 2.47461,-2.47461 -1.23633,-1.23828 -6.76172,-6.76172 6.76172,-6.76172 1.23633,-1.23828 -2.47461,-2.47461 -1.23828,1.23633 -6.76172,6.76172 -6.76172,-6.76172 z"
       style="color:#000000;font-style:normal;font-variant:normal;font-weight:normal;font-stretch:normal;font-size:medium;line-height:normal;font-family:sans-serif;font-variant-ligatures:normal;font-variant-position:normal;font-variant-caps:normal;font-variant-numeric:normal;font-variant-alternates:normal;font-feature-settings:normal;text-indent:0;text-align:start;text-decoration:none;text-decoration-line:none;text-decoration-style:solid;text-decoration-color:#000000;letter-spacing:normal;word-spacing:normal;text-transform:none;writing-mode:lr-tb;direction:ltr;text-orientation:mixed;dominant-baseline:auto;baseline-shift:baseline;text-anchor:start;white-space:normal;shape-padding:0;clip-rule:nonzero;display:inline;overflow:visible;visibility:visible;opacity:1;isolation:auto;mix-blend-mode:normal;color-interpolation:sRGB;color-interpolation-filters:linearRGB;solid-color:#000000;solid-opacity:1;vector-effect:none;fill:#000000;fill-opacity:0.2;fill-rule:evenodd;stroke:none;stroke-width:3.5;stroke-linecap:square;stroke-linejoin:miter;stroke-miterlimit:4;stroke-dasharray:none;stroke-dashoffset:0;stroke-opacity:1;color-rendering:auto;image-rendering:auto;shape-rendering:auto;text-rendering:auto;enable-background:new;filter:url(#filter5283)"
       inkscape:connector-curvature="0" />
    <path
       style="color:#000000;font-style:normal;font-variant:normal;font-weight:normal;font-stretch:normal;font-size:medium;line-height:normal;font-family:sans-serif;font-variant-ligatures:normal;font-variant-position:normal;font-variant-caps:normal;font-variant-numeric:normal;font-variant-alternates:normal;font-feature-settings:normal;text-indent:0;text-align:start;text-decoration:none;text-decoration-line:none;text-decoration-style:solid;text-decoration-color:#000000;letter-spacing:normal;word-spacing:normal;text-transform:none;writing-mode:lr-tb;direction:ltr;text-orientation:mixed;dominant-baseline:auto;baseline-shift:baseline;text-anchor:start;white-space:normal;shape-padding:0;clip-rule:nonzero;display:inline;overflow:visible;visibility:visible;opacity:1;isolation:auto;mix-blend-mode:normal;color-interpolation:sRGB;color-interpolation-filters:linearRGB;solid-color:#000000;solid-opacity:1;vector-effect:none;fill:#f5f5f5;fill-opacity:1;fill-rule:evenodd;stroke:none;stroke-width:3.5;stroke-linecap:square;stroke-linejoin:miter;stroke-miterlimit:4;stroke-dasharray:none;stroke-dashoffset:0;stroke-opacity:1;color-rendering:auto;image-rendering:auto;shape-rendering:auto;text-rendering:auto;enable-background:new"
       d="M 176 493.52539 L 173.52539 496 L 174.76172 497.23828 L 181.52344 504 L 174.76172 510.76172 L 173.52539 512 L 176 514.47461 L 177.23828 513.23828 L 184 506.47656 L 190.76172 513.23828 L 192 514.47461 L 194.47461 512 L 193.23828 510.76172 L 186.47656 504 L 193.23828 497.23828 L 194.47461 496 L 192 493.52539 L 190.76172 494.76172 L 184 501.52344 L 177.23828 494.76172 L 176 493.52539 z "
       id="path4197" />
    <path
       style="color:#000000;font-style:normal;font-variant:normal;font-weight:normal;font-stretch:normal;font-size:medium;line-height:normal;font-family:sans-serif;font-variant-ligatures:normal;font-variant-position:normal;font-variant-caps:normal;font-variant-numeric:normal;font-variant-alternates:normal;font-feature-settings:normal;text-indent:0;text-align:start;text-decoration:none;text-decoration-line:none;text-decoration-style:solid;text-decoration-color:#000000;letter-spacing:normal;word-spacing:normal;text-transform:none;writing-mode:lr-tb;direction:ltr;text-orientation:mixed;dominant-baseline:auto;baseline-shift:baseline;text-anchor:start;white-space:normal;shape-padding:0;clip-rule:nonzero;display:inline;overflow:visible;visibility:visible;opacity:1;isolation:auto;mix-blend-mode:normal;color-interpolation:sRGB;color-interpolation-filters:linearRGB;solid-color:#000000;solid-opacity:1;vector-effect:none;fill:#000000;fill-opacity:0.2;fill-rule:evenodd;stroke:none;stroke-width:2.5;stroke-linecap:square;stroke-linejoin:miter;stroke-miterlimit:4;stroke-dasharray:none;stroke-dashoffset:0;stroke-opacity:1;color-rendering:auto;image-rendering:auto;shape-rendering:auto;text-rendering:auto;enable-background:new"
       d="M 76 511.23242 L 74.232422 513 L 75.115234 513.88477 L 78.230469 517 L 75.115234 520.11523 L 74.232422 521 L 76 522.76758 L 76.884766 521.88477 L 80 518.76953 L 83.115234 521.88477 L 84 522.76758 L 85.767578 521 L 84.884766 520.11523 L 81.769531 517 L 84.884766 513.88477 L 85.767578 513 L 84 511.23242 L 83.115234 512.11523 L 80 515.23047 L 76.884766 512.11523 L 76 511.23242 z "
       id="path5225" />
    <path
       inkscape:connector-curvature="0"
       id="path4203"
       d="m 75.999982,511.99999 8,8"
       style="display:inline;fill:none;fill-rule:evenodd;stroke:#f5f5f5;stroke-width:2.5;stroke-linecap:square;stroke-linejoin:miter;stroke-miterlimit:4;stroke-dasharray:none;stroke-opacity:1;enable-background:new;fill-opacity:0.2"
       sodipodi:nodetypes="cc" />
    <path
       style="display:inline;fill:#000000;fill-opacity:1;fill-rule:evenodd;stroke:#f5f5f5;stroke-width:2.5;stroke-linecap:square;stroke-linejoin:miter;stroke-miterlimit:4;stroke-dasharray:none;stroke-opacity:1;enable-background:new"
       d="m 83.999982,511.99999 -8,8"
       id="path4205"
       inkscape:connector-curvature="0"
       sodipodi:nodetypes="cc" />
    <rect
       ry="28"
       rx="28"
       y="-284"
       x="-525"
       height="56"
       width="56"
       id="rect5287"
       style="display:inline;fill:#000000;fill-opacity:0.2;stroke:none;stroke-width:2;enable-background:new;filter:url(#filter5289)"
       transform="matrix(0,-1,-1,0,0,0)" />
    <rect
       transform="matrix(0,-1,-1,0,0,0)"
       style="display:inline;fill:#bf1d37;fill-opacity:1;stroke:none;stroke-width:2;enable-background:new"
       id="rect4595"
       width="56"
       height="56"
       x="-524"
       y="-284"
       rx="28"
       ry="28" />
    <path
       style="display:inline;opacity:1;fill:#ffffff;fill-opacity:0.2;stroke:none;stroke-width:2;enable-background:new"
       d="M 256 468 C 240.488 468 228 480.488 228 496 C 228 496.11345 228.01128 496.22411 228.01758 496.33594 C 228.36912 481.13418 240.71073 469 256 469 C 271.28927 469 283.63088 481.13418 283.98242 496.33594 C 283.98869 496.22411 284 496.11345 284 496 C 284 480.488 271.512 468 256 468 z "
       id="path4597" />
    <path
       style="color:#000000;font-style:normal;font-variant:normal;font-weight:normal;font-stretch:normal;font-size:medium;line-height:normal;font-family:sans-serif;font-variant-ligatures:normal;font-variant-position:normal;font-variant-caps:normal;font-variant-numeric:normal;font-variant-alternates:normal;font-feature-settings:normal;text-indent:0;text-align:start;text-decoration:none;text-decoration-line:none;text-decoration-style:solid;text-decoration-color:#000000;letter-spacing:normal;word-spacing:normal;text-transform:none;writing-mode:lr-tb;direction:ltr;text-orientation:mixed;dominant-baseline:auto;baseline-shift:baseline;text-anchor:start;white-space:normal;shape-padding:0;clip-rule:nonzero;display:inline;overflow:visible;visibility:visible;opacity:1;isolation:auto;mix-blend-mode:normal;color-interpolation:sRGB;color-interpolation-filters:linearRGB;solid-color:#000000;solid-opacity:1;vector-effect:none;fill:#000000;fill-opacity:0.2;fill-rule:evenodd;stroke:none;stroke-width:5;stroke-linecap:square;stroke-linejoin:miter;stroke-miterlimit:4;stroke-dasharray:none;stroke-dashoffset:0;stroke-opacity:1;color-rendering:auto;image-rendering:auto;shape-rendering:auto;text-rendering:auto;enable-background:accumulate;filter:url(#filter5279)"
       d="M 244 481.46484 L 240.46484 485 L 242.23242 486.76758 L 252.46484 497 L 242.23242 507.23242 L 240.46484 509 L 244 512.53516 L 245.76758 510.76758 L 256 500.53516 L 266.23242 510.76758 L 268 512.53516 L 271.53516 509 L 269.76758 507.23242 L 259.53516 497 L 269.76758 486.76758 L 271.53516 485 L 268 481.46484 L 266.23242 483.23242 L 256 493.46484 L 245.76758 483.23242 L 244 481.46484 z "
       id="path5270" />
    <path
       style="color:#000000;font-style:normal;font-variant:normal;font-weight:normal;font-stretch:normal;font-size:medium;line-height:normal;font-family:sans-serif;font-variant-ligatures:normal;font-variant-position:normal;font-variant-caps:normal;font-variant-numeric:normal;font-variant-alternates:normal;font-feature-settings:normal;text-indent:0;text-align:start;text-decoration:none;text-decoration-line:none;text-decoration-style:solid;text-decoration-color:#000000;letter-spacing:normal;word-spacing:normal;text-transform:none;writing-mode:lr-tb;direction:ltr;text-orientation:mixed;dominant-baseline:auto;baseline-shift:baseline;text-anchor:start;white-space:normal;shape-padding:0;clip-rule:nonzero;display:inline;overflow:visible;visibility:visible;opacity:1;isolation:auto;mix-blend-mode:normal;color-interpolation:sRGB;color-interpolation-filters:linearRGB;solid-color:#000000;solid-opacity:1;vector-effect:none;fill:#f5f5f5;fill-opacity:1;fill-rule:evenodd;stroke:none;stroke-width:5;stroke-linecap:square;stroke-linejoin:miter;stroke-miterlimit:4;stroke-dasharray:none;stroke-dashoffset:0;stroke-opacity:1;color-rendering:auto;image-rendering:auto;shape-rendering:auto;text-rendering:auto;enable-background:accumulate"
       d="M 244,480.46484 240.46484,484 l 1.76758,1.76758 24,24 L 268,511.53516 271.53516,508 l -1.76758,-1.76758 -24,-24 z"
       id="path4599"
       inkscape:connector-curvature="0" />
    <path
       style="color:#000000;font-style:normal;font-variant:normal;font-weight:normal;font-stretch:normal;font-size:medium;line-height:normal;font-family:sans-serif;font-variant-ligatures:normal;font-variant-position:normal;font-variant-caps:normal;font-variant-numeric:normal;font-variant-alternates:normal;font-feature-settings:normal;text-indent:0;text-align:start;text-decoration:none;text-decoration-line:none;text-decoration-style:solid;text-decoration-color:#000000;letter-spacing:normal;word-spacing:normal;text-transform:none;writing-mode:lr-tb;direction:ltr;text-orientation:mixed;dominant-baseline:auto;baseline-shift:baseline;text-anchor:start;white-space:normal;shape-padding:0;clip-rule:nonzero;display:inline;overflow:visible;visibility:visible;opacity:1;isolation:auto;mix-blend-mode:normal;color-interpolation:sRGB;color-interpolation-filters:linearRGB;solid-color:#000000;solid-opacity:1;vector-effect:none;fill:#f5f5f5;fill-opacity:1;fill-rule:evenodd;stroke:none;stroke-width:5;stroke-linecap:square;stroke-linejoin:miter;stroke-miterlimit:4;stroke-dasharray:none;stroke-dashoffset:0;stroke-opacity:1;color-rendering:auto;image-rendering:auto;shape-rendering:auto;text-rendering:auto;enable-background:accumulate"
       d="m 268,480.46484 -1.76758,1.76758 -24,24 L 240.46484,508 244,511.53516 l 1.76758,-1.76758 24,-24 L 271.53516,484 Z"
       id="path4601"
       inkscape:connector-curvature="0" />
    <path
       style="color:#000000;font-style:normal;font-variant:normal;font-weight:normal;font-stretch:normal;font-size:medium;line-height:normal;font-family:sans-serif;font-variant-ligatures:normal;font-variant-position:normal;font-variant-caps:normal;font-variant-numeric:normal;font-variant-alternates:normal;font-feature-settings:normal;text-indent:0;text-align:start;text-decoration:none;text-decoration-line:none;text-decoration-style:solid;text-decoration-color:#000000;letter-spacing:normal;word-spacing:normal;text-transform:none;writing-mode:lr-tb;direction:ltr;text-orientation:mixed;dominant-baseline:auto;baseline-shift:baseline;text-anchor:start;white-space:normal;shape-padding:0;clip-rule:nonzero;display:inline;overflow:visible;visibility:visible;opacity:1;isolation:auto;mix-blend-mode:normal;color-interpolation:sRGB;color-interpolation-filters:linearRGB;solid-color:#000000;solid-opacity:1;vector-effect:none;fill:#fafafa;fill-opacity:1;fill-rule:evenodd;stroke:none;stroke-width:40;stroke-linecap:square;stroke-linejoin:miter;stroke-miterlimit:4;stroke-dasharray:none;stroke-dashoffset:0;stroke-opacity:1;color-rendering:auto;image-rendering:auto;shape-rendering:auto;text-rendering:auto;enable-background:accumulate"
       d="M 464 147.71484 L 435.71484 176 L 436.71484 177 L 464 149.71484 L 478.14258 163.85742 L 560 245.71484 L 641.85742 163.85742 L 656 149.71484 L 683.2832 177 L 684.2832 176 L 656 147.71484 L 641.85742 161.85742 L 560 243.71484 L 478.14258 161.85742 L 464 147.71484 z M 530.71484 273 L 449.85742 353.85742 L 435.71484 368 L 436.71484 369 L 449.85742 355.85742 L 531.71484 274 L 530.71484 273 z M 589.28516 273 L 588.28516 274 L 670.14258 355.85742 L 683.2832 369 L 684.2832 368 L 670.14258 353.85742 L 589.28516 273 z "
       id="path5329" />
  </g>
</svg>
