<?xml version="1.0" encoding="UTF-8" standalone="no"?>
<!-- Created with Inkscape (http://www.inkscape.org/) -->

<svg
   xmlns:dc="http://purl.org/dc/elements/1.1/"
   xmlns:cc="http://creativecommons.org/ns#"
   xmlns:rdf="http://www.w3.org/1999/02/22-rdf-syntax-ns#"
   xmlns:svg="http://www.w3.org/2000/svg"
   xmlns="http://www.w3.org/2000/svg"
   xmlns:sodipodi="http://sodipodi.sourceforge.net/DTD/sodipodi-0.dtd"
   xmlns:inkscape="http://www.inkscape.org/namespaces/inkscape"
   width="840"
   height="544"
   viewBox="0 0 840 544"
   version="1.1"
   id="svg1087"
   inkscape:version="0.92.1 r"
   sodipodi:docname="emblem-readonly.svg">
  <defs
     id="defs1081">
    <filter
       inkscape:collect="always"
       style="color-interpolation-filters:sRGB"
       id="filter5254"
       x="-0.012"
       width="1.024"
       y="-0.012"
       height="1.024">
      <feGaussianBlur
         inkscape:collect="always"
         stdDeviation="0.2"
         id="feGaussianBlur5256" />
    </filter>
    <filter
       inkscape:collect="always"
       style="color-interpolation-filters:sRGB"
       id="filter5289"
       x="-0.012"
       width="1.024"
       y="-0.012"
       height="1.024">
      <feGaussianBlur
         inkscape:collect="always"
         stdDeviation="0.28"
         id="feGaussianBlur5291" />
    </filter>
    <filter
       inkscape:collect="always"
       style="color-interpolation-filters:sRGB"
       id="filter5304"
       x="-0.024"
       width="1.048"
       y="-0.024"
       height="1.048">
      <feGaussianBlur
         inkscape:collect="always"
         stdDeviation="4.48"
         id="feGaussianBlur5306" />
    </filter>
    <filter
       inkscape:collect="always"
       style="color-interpolation-filters:sRGB"
       id="filter4585"
       x="-0.028"
       width="1.056"
       y="-0.021"
       height="1.042">
      <feGaussianBlur
         inkscape:collect="always"
         stdDeviation="2.24"
         id="feGaussianBlur4587" />
    </filter>
  </defs>
  <sodipodi:namedview
     id="base"
     pagecolor="#c3c3c3"
     bordercolor="#333333"
     borderopacity="1"
     inkscape:pageopacity="0"
     inkscape:pageshadow="2"
     inkscape:zoom="0.5"
     inkscape:cx="415.34245"
     inkscape:cy="-221.24534"
     inkscape:document-units="px"
     inkscape:current-layer="layer1"
     showgrid="true"
     units="px"
     inkscape:showpageshadow="false"
     inkscape:window-width="1279"
     inkscape:window-height="1370"
     inkscape:window-x="1281"
     inkscape:window-y="34"
     inkscape:window-maximized="0">
    <inkscape:grid
       type="xygrid"
       id="grid4630" />
  </sodipodi:namedview>
  <metadata
     id="metadata1084">
    <rdf:RDF>
      <cc:Work
         rdf:about="">
        <dc:format>image/svg+xml</dc:format>
        <dc:type
           rdf:resource="http://purl.org/dc/dcmitype/StillImage" />
        <dc:title></dc:title>
        <cc:license
           rdf:resource="http://creativecommons.org/licenses/by-sa/4.0/" />
        <dc:creator>
          <cc:Agent>
            <dc:title>Peter Cornelis</dc:title>
          </cc:Agent>
        </dc:creator>
      </cc:Work>
      <cc:License
         rdf:about="http://creativecommons.org/licenses/by-sa/4.0/">
        <cc:permits
           rdf:resource="http://creativecommons.org/ns#Reproduction" />
        <cc:permits
           rdf:resource="http://creativecommons.org/ns#Distribution" />
        <cc:requires
           rdf:resource="http://creativecommons.org/ns#Notice" />
        <cc:requires
           rdf:resource="http://creativecommons.org/ns#Attribution" />
        <cc:permits
           rdf:resource="http://creativecommons.org/ns#DerivativeWorks" />
        <cc:requires
           rdf:resource="http://creativecommons.org/ns#ShareAlike" />
      </cc:License>
    </rdf:RDF>
  </metadata>
  <g
     inkscape:label="Baseplate"
     inkscape:groupmode="layer"
     id="layer1"
     transform="translate(0,-153.06668)"
     style="display:none">
    <text
       y="733.32251"
       xml:space="preserve"
       x="15.006836"
       style="font-style:normal;font-variant:normal;font-weight:normal;font-stretch:normal;line-height:0%;font-family:'DejaVu Sans';-inkscape-font-specification:'DejaVu Sans';display:inline;fill:#000000;fill-opacity:1;stroke:none;enable-background:new"
       inkscape:label="context"
       id="context"><tspan
         style="font-style:normal;font-variant:normal;font-weight:normal;font-stretch:normal;font-size:18px;line-height:1.25;font-family:'DejaVu Sans';-inkscape-font-specification:'DejaVu Sans'"
         y="733.32251"
         x="15.006836"
         sodipodi:role="line"
         id="tspan3933">emblems</tspan></text>
    <text
       y="733.32251"
       xml:space="preserve"
       x="142.48828"
       style="font-style:normal;font-variant:normal;font-weight:bold;font-stretch:normal;line-height:0%;font-family:'DejaVu Sans';-inkscape-font-specification:'DejaVu Sans Bold';text-align:start;writing-mode:lr-tb;text-anchor:start;display:inline;fill:#000000;fill-opacity:1;stroke:none;enable-background:new"
       inkscape:label="icon-name"
       id="icon-name"><tspan
         style="font-style:normal;font-variant:normal;font-weight:bold;font-stretch:normal;font-size:18px;line-height:1.25;font-family:'DejaVu Sans';-inkscape-font-specification:'DejaVu Sans Bold'"
         y="733.32251"
         x="142.48828"
         sodipodi:role="line"
         id="tspan3937">emblem-readonly</tspan></text>
    <rect
       style="display:inline;overflow:visible;visibility:visible;fill:#e9e9e9;fill-opacity:1;fill-rule:nonzero;stroke:none;stroke-width:2;marker:none;enable-background:accumulate"
       id="rect16x16"
       width="16"
       height="16"
       x="-47.999969"
       y="665.06665"
       inkscape:label="16x16"
       transform="scale(-1,1)" />
    <rect
       style="display:inline;overflow:visible;visibility:visible;fill:#e9e9e9;fill-opacity:1;fill-rule:nonzero;stroke:none;stroke-width:2;marker:none;enable-background:accumulate"
       id="rect24x24"
       width="24"
       height="24"
       x="-91.999969"
       y="657.06665"
       inkscape:label="24x24"
       transform="scale(-1,1)" />
    <rect
       style="display:inline;overflow:visible;visibility:visible;fill:#e9e9e9;fill-opacity:1;fill-rule:nonzero;stroke:none;stroke-width:2;marker:none;enable-background:accumulate"
       id="rect32x32"
       width="32"
       height="32"
       x="-143.99997"
       y="649.06665"
       inkscape:label="32x32"
       transform="scale(-1,1)" />
    <rect
       inkscape:label="48x48"
       y="633.06665"
       x="-207.99997"
       height="48"
       width="48"
       id="rect48x48"
       style="display:inline;overflow:visible;visibility:visible;fill:#e9e9e9;fill-opacity:1;fill-rule:nonzero;stroke:none;stroke-width:2;marker:none;enable-background:accumulate"
       transform="scale(-1,1)" />
    <rect
       style="display:inline;overflow:visible;visibility:visible;fill:#e9e9e9;fill-opacity:1;fill-rule:nonzero;stroke:none;stroke-width:2;marker:none;enable-background:accumulate"
       id="rect3951"
       width="512"
       height="512"
       x="-816"
       y="169.06668"
       inkscape:label="48x48"
       transform="scale(-1,1)" />
    <rect
       transform="scale(-1,1)"
       inkscape:label="16x16"
       y="673.06665"
       x="-16"
       height="8"
       width="8"
       id="rect4208"
       style="display:inline;overflow:visible;visibility:visible;fill:#e9e9e9;fill-opacity:1;fill-rule:nonzero;stroke:none;stroke-width:2;marker:none;enable-background:accumulate" />
    <rect
       transform="scale(-1,1)"
       inkscape:label="32x32"
       y="617.06665"
       x="-288"
       height="64"
       width="64"
       id="rect4591"
       style="display:inline;overflow:visible;visibility:visible;fill:#e9e9e9;fill-opacity:1;fill-rule:nonzero;stroke:none;stroke-width:4;marker:none;enable-background:accumulate" />
  </g>
  <g
     inkscape:groupmode="layer"
     id="layer2"
     inkscape:label="Bitmap"
     style="display:inline">
    <rect
       transform="matrix(0,-1,-1,0,0,0)"
       style="display:inline;fill:#000000;fill-opacity:0.2;stroke:none;enable-background:new;filter:url(#filter5254)"
       id="rect5252"
       width="40"
       height="40"
       x="-525"
       y="-203.99997"
       rx="20"
       ry="20" />
    <rect
       ry="20"
       rx="20"
       y="-203.99997"
       x="-524"
       height="40"
       width="40"
       id="rect4408"
       style="display:inline;fill:#ffb300;fill-opacity:1;stroke:none;enable-background:new"
       transform="matrix(0,-1,-1,0,0,0)" />
    <rect
       ry="11"
       rx="11"
       y="-90.999969"
       x="-528"
       height="22"
       width="22"
       id="rect5219"
       style="display:inline;fill:#000000;fill-opacity:0.2;stroke:none;enable-background:new"
       transform="matrix(0,-1,-1,0,0,0)" />
    <rect
       transform="matrix(0,-1,-1,0,0,0)"
       style="display:inline;fill:#ffb300;fill-opacity:1;stroke:none;enable-background:new"
       id="rect4410"
       width="22"
       height="22"
       x="-527"
       y="-90.999969"
       rx="11"
       ry="11" />
    <rect
       transform="matrix(0,-1,-1,0,0,0)"
       style="display:inline;fill:#000000;fill-opacity:0.2;stroke:none;enable-background:new"
       id="rect5243"
       width="28"
       height="28"
       x="-527"
       y="-141.99997"
       rx="14"
       ry="14" />
    <rect
       ry="14"
       rx="14"
       y="-141.99997"
       x="-526"
       height="28"
       width="28"
       id="rect4412"
       style="display:inline;fill:#ffb300;fill-opacity:1;stroke:none;enable-background:new"
       transform="matrix(0,-1,-1,0,0,0)" />
    <rect
       ry="8"
       rx="8"
       y="-47.999969"
       x="-528"
       height="16"
       width="16"
       id="rect4414"
       style="display:inline;fill:#ffb300;fill-opacity:1;stroke:none;enable-background:new"
       transform="matrix(0,-1,-1,0,0,0)" />
    <rect
       transform="matrix(0,-1,-1,0,0,0)"
       style="display:inline;fill:#000000;fill-opacity:0.2;stroke:none;enable-background:new;filter:url(#filter5304)"
       id="rect5298"
       width="448"
       height="448"
       x="-498"
       y="-784"
       rx="224"
       ry="224" />
    <rect
       ry="224"
       rx="224"
       y="-784"
       x="-498"
       height="448"
       width="448"
       id="rect5296"
       style="display:inline;fill:#000000;fill-opacity:0.2;stroke:none;enable-background:new"
       transform="matrix(0,-1,-1,0,0,0)" />
    <rect
       transform="matrix(0,-1,-1,0,0,0)"
       style="display:inline;fill:#ffb300;fill-opacity:1;stroke:none;enable-background:new"
       id="rect4418"
       width="448"
       height="448"
       x="-495.99997"
       y="-784"
       rx="224"
       ry="224" />
    <rect
       transform="matrix(0,-1,-1,0,0,0)"
       style="display:inline;fill:#ffb300;fill-opacity:1;stroke:none;enable-background:new"
       id="rect4420"
       width="8"
       height="8"
       x="-528"
       y="-16"
       rx="1"
       ry="1" />
    <path
       inkscape:connector-curvature="0"
       style="display:inline;opacity:1;fill:#ffffff;fill-opacity:0.2;stroke:none;enable-background:new"
       d="m 127.99998,497.99999 c -7.756,0 -14,6.244 -14,14 0,0.16884 0.0195,0.33264 0.0254,0.5 0.26374,-7.52057 6.38745,-13.5 13.97461,-13.5 7.58716,0 13.71087,5.97943 13.97461,13.5 0.006,-0.16736 0.0254,-0.33116 0.0254,-0.5 0,-7.756 -6.244,-14 -14,-14 z"
       id="path4422" />
    <path
       inkscape:connector-curvature="0"
       style="display:inline;opacity:1;fill:#ffffff;fill-opacity:0.2;stroke:none;enable-background:new"
       d="m 183.99998,483.99999 c -11.08,0 -20,8.92 -20,20 0,0.16787 0.008,0.33314 0.0117,0.5 0.26469,-10.84614 9.07617,-19.5 19.9883,-19.5 10.91213,0 19.72361,8.65386 19.98828,19.5 0.004,-0.16686 0.0117,-0.33213 0.0117,-0.5 0,-11.08 -8.92,-20 -20,-20 z"
       id="path4424" />
    <path
       inkscape:connector-curvature="0"
       style="display:inline;opacity:1;fill:#ffffff;fill-opacity:0.2;stroke:none;enable-background:new"
       d="m 79.999982,504.99999 c -6.094,0 -11,4.906 -11,11 0,0.16899 0.0179,0.33292 0.0254,0.5 0.26176,-5.85817 5.0496,-10.5 10.97461,-10.5 5.92501,0 10.71284,4.64183 10.97461,10.5 0.007,-0.16708 0.0254,-0.33101 0.0254,-0.5 0,-6.094 -4.906,-11 -11,-11 z"
       id="path4428" />
    <path
       inkscape:connector-curvature="0"
       style="display:inline;opacity:0.2;fill:#ffffff;fill-opacity:1;stroke:none;enable-background:new"
       d="m 559.99998,47.999995 c -124.096,0 -224,99.903995 -224,223.999995 0,0.33437 0.0103,0.66598 0.0117,1 0.5364,-123.63106 100.22667,-222.999995 223.9883,-222.999995 123.76163,0 223.4519,99.368935 223.98828,222.999995 10e-4,-0.33402 0.0117,-0.66563 0.0117,-1 0,-124.096 -99.904,-223.999995 -224,-223.999995 z"
       id="path4430" />
    <rect
       ry="28"
       rx="28"
       y="-284"
       x="-525"
       height="56"
       width="56"
       id="rect5287"
       style="display:inline;fill:#000000;fill-opacity:0.2;stroke:none;stroke-width:2;enable-background:new;filter:url(#filter5289)"
       transform="matrix(0,-1,-1,0,0,0)" />
    <rect
       transform="matrix(0,-1,-1,0,0,0)"
       style="display:inline;fill:#ffb300;fill-opacity:1;stroke:none;stroke-width:2;enable-background:new"
       id="rect4595"
       width="56"
       height="56"
       x="-524"
       y="-284"
       rx="28"
       ry="28" />
    <path
       style="display:inline;opacity:1;fill:#ffffff;fill-opacity:0.2;stroke:none;stroke-width:2;enable-background:new"
       d="M 256 468 C 240.488 468 228 480.488 228 496 C 228 496.11345 228.01128 496.22411 228.01758 496.33594 C 228.36912 481.13418 240.71073 469 256 469 C 271.28927 469 283.63088 481.13418 283.98242 496.33594 C 283.98869 496.22411 284 496.11345 284 496 C 284 480.488 271.512 468 256 468 z "
       id="path4597" />
    <rect
       transform="scale(-1)"
       style="color:#bebebe;display:inline;overflow:visible;visibility:visible;fill:none;stroke:none;stroke-width:2;marker:none"
       id="rect35735-0-1-4"
       width="16"
       height="16"
       x="-87.999992"
       y="-525" />
    <path
       inkscape:connector-curvature="0"
       id="path6628"
       d="m 12,521 c -1.108,0 -2,1 -2,2.03125 V 524 H 9 v 1 1 1 h 1 4 1 v -1 -1 -1 h -1 v -0.96875 C 14,521.91135 13.108,521 12,521 Z m 0,1 c 0.554,0 1,0.4424 1,1 v 1 h -2 v -1 c 0,-0.5576 0.446,-1 1,-1 z"
       style="display:inline;fill:#f5f5f5;fill-opacity:1;stroke:none;stroke-opacity:1;enable-background:new"
       sodipodi:nodetypes="ssccccccccccccssssccss" />
    <path
       id="path4568"
       d="m 128,504 c -2.77,0 -5,2.23 -5,5 v 2 h -2 v 9 h 14 v -9 h -2 v -2 c 0,-2.77 -2.23,-5 -5,-5 z m 0,2 c 1.662,0 3,1.338 3,3 v 2 h -6 v -2 c 0,-1.662 1.338,-3 3,-3 z"
       style="display:inline;opacity:1;fill:#000000;fill-opacity:0.2;stroke:none;stroke-width:2;stroke-linecap:round;stroke-linejoin:round;stroke-miterlimit:4;stroke-dasharray:none;stroke-opacity:1;enable-background:new"
       inkscape:connector-curvature="0" />
    <path
       style="display:inline;opacity:1;fill:#f5f5f5;fill-opacity:1;stroke:none;stroke-width:2;stroke-linecap:round;stroke-linejoin:round;stroke-miterlimit:4;stroke-dasharray:none;stroke-opacity:1;enable-background:new"
       d="M 128 503 C 125.23 503 123 505.23 123 508 L 123 510 L 121 510 L 121 519 L 135 519 L 135 510 L 133 510 L 133 508 C 133 505.23 130.77 503 128 503 z M 128 505 C 129.662 505 131 506.338 131 508 L 131 510 L 125 510 L 125 508 C 125 506.338 126.338 505 128 505 z "
       id="rect4246" />
    <path
       sodipodi:nodetypes="ssccccccccccssssccss"
       inkscape:connector-curvature="0"
       id="path4570"
       d="m 184,492 c 3.88371,0 7,3.17595 7,7.125 V 503 h 3 v 1 11 1 h -19 -1 v -13 h 1 2 v -3.875 c 0,-3.95102 3.11602,-7.125 7,-7.125 z m 0,2 c -2.7527,0 -5,2.2473 -5,5 v 4 h 10 v -4 c 0,-2.7527 -2.2473,-5 -5,-5 z"
       style="color:#000000;font-style:normal;font-variant:normal;font-weight:normal;font-stretch:normal;font-size:medium;line-height:normal;font-family:sans-serif;text-indent:0;text-align:start;text-decoration:none;text-decoration-line:none;text-decoration-style:solid;text-decoration-color:#000000;letter-spacing:normal;word-spacing:normal;text-transform:none;writing-mode:lr-tb;direction:ltr;baseline-shift:baseline;text-anchor:start;white-space:normal;clip-rule:nonzero;display:inline;overflow:visible;visibility:visible;opacity:1;isolation:auto;mix-blend-mode:normal;color-interpolation:sRGB;color-interpolation-filters:linearRGB;solid-color:#000000;solid-opacity:1;fill:#000000;fill-opacity:0.2;fill-rule:nonzero;stroke:none;stroke-width:2;stroke-linecap:butt;stroke-linejoin:miter;stroke-miterlimit:4;stroke-dasharray:none;stroke-dashoffset:0;stroke-opacity:1;marker:none;color-rendering:auto;image-rendering:auto;shape-rendering:auto;text-rendering:auto;enable-background:accumulate" />
    <path
       style="color:#000000;font-style:normal;font-variant:normal;font-weight:normal;font-stretch:normal;font-size:medium;line-height:normal;font-family:sans-serif;text-indent:0;text-align:start;text-decoration:none;text-decoration-line:none;text-decoration-style:solid;text-decoration-color:#000000;letter-spacing:normal;word-spacing:normal;text-transform:none;writing-mode:lr-tb;direction:ltr;baseline-shift:baseline;text-anchor:start;white-space:normal;clip-rule:nonzero;display:inline;overflow:visible;visibility:visible;opacity:1;isolation:auto;mix-blend-mode:normal;color-interpolation:sRGB;color-interpolation-filters:linearRGB;solid-color:#000000;solid-opacity:1;fill:#f5f5f5;fill-opacity:1;fill-rule:nonzero;stroke:none;stroke-width:2;stroke-linecap:butt;stroke-linejoin:miter;stroke-miterlimit:4;stroke-dasharray:none;stroke-dashoffset:0;stroke-opacity:1;marker:none;color-rendering:auto;image-rendering:auto;shape-rendering:auto;text-rendering:auto;enable-background:accumulate"
       d="m 184,491 c 3.88371,0 7,3.17595 7,7.125 V 502 h 3 v 1 11 1 h -19 -1 v -13 h 1 2 v -3.875 c 0,-3.95102 3.11602,-7.125 7,-7.125 z m 0,2 c -2.7527,0 -5,2.2473 -5,5 v 4 h 10 v -4 c 0,-2.7527 -2.2473,-5 -5,-5 z"
       id="path4239"
       inkscape:connector-curvature="0"
       sodipodi:nodetypes="ssccccccccccssssccss" />
    <path
       inkscape:connector-curvature="0"
       id="path4577"
       d="m 560,130 c -35.456,0 -64,28.544 -64,64 v 48 H 464 V 386 H 656 V 242 h -32 v -48 c 0,-35.456 -28.544,-64 -64,-64 z m 0,16 c 26.592,0 48,21.408 48,48 v 48 h -96 v -48 c 0,-26.592 21.408,-48 48,-48 z"
       style="display:inline;opacity:1;fill:#000000;fill-opacity:0.2;stroke:none;stroke-width:2;stroke-linecap:butt;stroke-linejoin:round;stroke-miterlimit:4;stroke-dasharray:none;stroke-opacity:1;enable-background:new" />
    <path
       style="display:inline;opacity:1;fill:#000000;fill-opacity:0.2;stroke:none;stroke-width:2;stroke-linecap:butt;stroke-linejoin:round;stroke-miterlimit:4;stroke-dasharray:none;stroke-opacity:1;enable-background:new;filter:url(#filter4585)"
       d="m 560,130 c -35.456,0 -64,28.544 -64,64 v 48 H 464 V 386 H 656 V 242 h -32 v -48 c 0,-35.456 -28.544,-64 -64,-64 z m 0,16 c 26.592,0 48,21.408 48,48 v 48 h -96 v -48 c 0,-26.592 21.408,-48 48,-48 z"
       id="path4579"
       inkscape:connector-curvature="0" />
    <path
       style="display:inline;opacity:1;fill:#f5f5f5;fill-opacity:1;stroke:none;stroke-width:2;stroke-linecap:butt;stroke-linejoin:round;stroke-miterlimit:4;stroke-dasharray:none;stroke-opacity:1;enable-background:new"
       d="m 560,128 c -35.456,0 -64,28.544 -64,64 v 48 H 464 V 384 H 656 V 240 h -32 v -48 c 0,-35.456 -28.544,-64 -64,-64 z m 0,16 c 26.592,0 48,21.408 48,48 v 48 h -96 v -48 c 0,-26.592 21.408,-48 48,-48 z"
       id="rect4343"
       inkscape:connector-curvature="0" />
    <path
       id="path4565"
       d="m 80,510 c -2.216,0 -4,1.784 -4,4 v 2 h -1 v 7 h 10 v -7 h -1 v -2 c 0,-2.216 -1.784,-4 -4,-4 z m 0,1 c 1.662,0 3,1.338 3,3 v 2 h -6 v -2 c 0,-1.662 1.338,-3 3,-3 z"
       style="display:inline;opacity:1;fill:#000000;fill-opacity:0.2;stroke:none;stroke-width:2;stroke-linecap:butt;stroke-linejoin:round;stroke-miterlimit:4;stroke-dasharray:none;stroke-opacity:1;enable-background:new"
       inkscape:connector-curvature="0" />
    <path
       style="display:inline;opacity:1;fill:#f5f5f5;fill-opacity:1;stroke:none;stroke-width:2;stroke-linecap:butt;stroke-linejoin:round;stroke-miterlimit:4;stroke-dasharray:none;stroke-opacity:1;enable-background:new"
       d="M 80 509 C 77.784 509 76 510.784 76 513 L 76 515 L 75 515 L 75 522 L 85 522 L 85 515 L 84 515 L 84 513 C 84 510.784 82.216 509 80 509 z M 80 510 C 81.662 510 83 511.338 83 513 L 83 515 L 77 515 L 77 513 C 77 511.338 78.338 510 80 510 z "
       id="rect4362" />
    <path
       style="display:inline;opacity:1;fill:#f5f5f5;fill-opacity:1;stroke:none;stroke-width:2;stroke-linecap:butt;stroke-linejoin:round;stroke-miterlimit:4;stroke-dasharray:none;stroke-opacity:1;enable-background:new"
       d="M 40 515 C 38.346649 515 37 516.34665 37 518 L 37 519 L 36 519 L 36 524 L 44 524 L 44 519 L 43 519 L 43 518 C 43 516.34665 41.653351 515 40 515 z M 40 516 C 41.116649 516 42 516.88335 42 518 L 42 519 L 38 519 L 38 518 C 38 516.88335 38.883351 516 40 516 z "
       id="rect4375" />
    <path
       inkscape:connector-curvature="0"
       style="display:inline;opacity:1;fill:#000000;fill-opacity:0.2;stroke:none;stroke-width:4;stroke-linecap:round;stroke-linejoin:round;stroke-miterlimit:4;stroke-dasharray:none;stroke-opacity:1;enable-background:new"
       d="m 256,481 c -5.54,0 -10,4.46 -10,10 v 4 h -4 v 18 h 28 v -18 h -4 v -4 c 0,-5.54 -4.46,-10 -10,-10 z m 0,4 c 3.324,0 6,2.676 6,6 v 4 h -12 v -4 c 0,-3.324 2.676,-6 6,-6 z"
       id="path4574" />
    <path
       id="path4572"
       d="m 256,480 c -5.54,0 -10,4.46 -10,10 v 4 h -4 v 18 h 28 v -18 h -4 v -4 c 0,-5.54 -4.46,-10 -10,-10 z m 0,4 c 3.324,0 6,2.676 6,6 v 4 h -12 v -4 c 0,-3.324 2.676,-6 6,-6 z"
       style="display:inline;opacity:1;fill:#f5f5f5;fill-opacity:1;stroke:none;stroke-width:4;stroke-linecap:round;stroke-linejoin:round;stroke-miterlimit:4;stroke-dasharray:none;stroke-opacity:1;enable-background:new"
       inkscape:connector-curvature="0" />
    <path
       style="display:inline;opacity:1;fill:#ffffff;fill-opacity:1;stroke:none;stroke-width:2;stroke-linecap:butt;stroke-linejoin:round;stroke-miterlimit:4;stroke-dasharray:none;stroke-opacity:1;enable-background:new"
       d="M 560 128 C 524.544 128 496 156.544 496 192 L 496 194 C 496 158.544 524.544 130 560 130 C 595.456 130 624 158.544 624 194 L 624 192 C 624 156.544 595.456 128 560 128 z M 464 240 L 464 242 L 496 242 L 496 240 L 464 240 z M 512 240 L 512 242 L 608 242 L 608 240 L 512 240 z M 624 240 L 624 242 L 656 242 L 656 240 L 624 240 z "
       id="path4589" />
  </g>
</svg>
