<?xml version="1.0" encoding="UTF-8" standalone="no"?>
<!-- Created with Inkscape (http://www.inkscape.org/) -->

<svg
   xmlns:dc="http://purl.org/dc/elements/1.1/"
   xmlns:cc="http://creativecommons.org/ns#"
   xmlns:rdf="http://www.w3.org/1999/02/22-rdf-syntax-ns#"
   xmlns:svg="http://www.w3.org/2000/svg"
   xmlns="http://www.w3.org/2000/svg"
   xmlns:xlink="http://www.w3.org/1999/xlink"
   xmlns:sodipodi="http://sodipodi.sourceforge.net/DTD/sodipodi-0.dtd"
   xmlns:inkscape="http://www.inkscape.org/namespaces/inkscape"
   width="816"
   height="544"
   viewBox="0 0 816 544"
   version="1.1"
   id="svg1087"
   inkscape:version="0.92.1 r"
   sodipodi:docname="applications-system.svg">
  <defs
     id="defs1081">
    <linearGradient
       id="linearGradient4987"
       inkscape:collect="always">
      <stop
         id="stop4983"
         offset="0"
         style="stop-color:#ffffff;stop-opacity:0.05490196" />
      <stop
         id="stop4985"
         offset="1"
         style="stop-color:#177ed5;stop-opacity:0;" />
    </linearGradient>
    <linearGradient
       id="linearGradient4981"
       inkscape:collect="always">
      <stop
         id="stop4977"
         offset="0"
         style="stop-color:#ffffff;stop-opacity:0.05490196" />
      <stop
         id="stop4979"
         offset="1"
         style="stop-color:#177ed5;stop-opacity:0;" />
    </linearGradient>
    <linearGradient
       id="linearGradient4628"
       inkscape:collect="always">
      <stop
         id="stop4624"
         offset="0"
         style="stop-color:#ffffff;stop-opacity:0.05490196" />
      <stop
         id="stop4626"
         offset="1"
         style="stop-color:#177ed5;stop-opacity:0;" />
    </linearGradient>
    <linearGradient
       inkscape:collect="always"
       xlink:href="#linearGradient4165-5"
       id="linearGradient4264"
       gradientUnits="userSpaceOnUse"
       gradientTransform="matrix(0.47825256,0,0,0.47826087,53.213964,23.98502)"
       x1="7"
       y1="1011.3622"
       x2="41.000019"
       y2="1045.3622" />
    <linearGradient
       inkscape:collect="always"
       id="linearGradient4165-5">
      <stop
         style="stop-color:#ffffff;stop-opacity:0.05490196"
         offset="0"
         id="stop4167-3" />
      <stop
         style="stop-color:#177ed5;stop-opacity:0;"
         offset="1"
         id="stop4169-5" />
    </linearGradient>
    <linearGradient
       inkscape:collect="always"
       xlink:href="#linearGradient4981"
       id="linearGradient5224"
       gradientUnits="userSpaceOnUse"
       gradientTransform="matrix(0.95652174,0,0,0.95652174,145.24321,-479.6505)"
       x1="7"
       y1="1011.3622"
       x2="41.000019"
       y2="1045.3622" />
    <linearGradient
       inkscape:collect="always"
       xlink:href="#linearGradient4987"
       id="linearGradient5226"
       gradientUnits="userSpaceOnUse"
       gradientTransform="matrix(0.65217041,0,0,0.65217328,96.547601,-158.67017)"
       x1="7"
       y1="1011.3622"
       x2="41.000019"
       y2="1045.3622" />
    <linearGradient
       inkscape:collect="always"
       xlink:href="#linearGradient4628"
       id="linearGradient5228"
       gradientUnits="userSpaceOnUse"
       gradientTransform="matrix(10.434724,0,0,10.434772,293.56535,-10458.721)"
       x1="7"
       y1="1011.3622"
       x2="41.000019"
       y2="1045.3622" />
    <linearGradient
       inkscape:collect="always"
       xlink:href="#linearGradient4987"
       id="linearGradient5326"
       gradientUnits="userSpaceOnUse"
       gradientTransform="matrix(1.3043408,0,0,1.3043466,209.1958,-845.3403)"
       x1="7"
       y1="1011.3622"
       x2="41.000019"
       y2="1045.3622" />
    <filter
       inkscape:collect="always"
       style="color-interpolation-filters:sRGB"
       id="filter5337"
       x="-0.01005813"
       width="1.0201163"
       y="-0.014871082"
       height="1.0297422">
      <feGaussianBlur
         inkscape:collect="always"
         stdDeviation="0.22810598"
         id="feGaussianBlur5339" />
    </filter>
    <filter
       inkscape:collect="always"
       style="color-interpolation-filters:sRGB"
       id="filter4595"
       x="-0.010931949"
       width="1.0218639"
       y="-0.013299345"
       height="1.0265987">
      <feGaussianBlur
         inkscape:collect="always"
         stdDeviation="0.24825876"
         id="feGaussianBlur4597" />
    </filter>
    <filter
       inkscape:collect="always"
       style="color-interpolation-filters:sRGB"
       id="filter4601"
       x="-0.010931957"
       width="1.0218639"
       y="-0.013299334"
       height="1.0265987">
      <feGaussianBlur
         inkscape:collect="always"
         stdDeviation="0.24825884"
         id="feGaussianBlur4603" />
    </filter>
    <filter
       inkscape:collect="always"
       style="color-interpolation-filters:sRGB"
       id="filter4588"
       x="-0.010932254"
       width="1.0218645"
       y="-0.013298895"
       height="1.0265978">
      <feGaussianBlur
         inkscape:collect="always"
         stdDeviation="0.1773294"
         id="feGaussianBlur4590" />
    </filter>
    <filter
       inkscape:collect="always"
       style="color-interpolation-filters:sRGB"
       id="filter4608"
       x="-0.012164835"
       width="1.0243297"
       y="-0.011839572"
       height="1.0236791">
      <feGaussianBlur
         inkscape:collect="always"
         stdDeviation="0.1973262"
         id="feGaussianBlur4610" />
    </filter>
    <filter
       inkscape:collect="always"
       style="color-interpolation-filters:sRGB"
       id="filter4652"
       x="-0.010931842"
       width="1.0218637"
       y="-0.013299504"
       height="1.026599">
      <feGaussianBlur
         inkscape:collect="always"
         stdDeviation="0.12413086"
         id="feGaussianBlur4654" />
    </filter>
    <filter
       inkscape:collect="always"
       style="color-interpolation-filters:sRGB"
       id="filter4662"
       x="-0.010931529"
       width="1.0218631"
       y="-0.013299968"
       height="1.0265999">
      <feGaussianBlur
         inkscape:collect="always"
         stdDeviation="0.088666453"
         id="feGaussianBlur4664" />
    </filter>
    <filter
       inkscape:collect="always"
       style="color-interpolation-filters:sRGB"
       id="filter4684"
       x="-0.021866033"
       width="1.0437321"
       y="-0.026595531"
       height="1.0531911">
      <feGaussianBlur
         inkscape:collect="always"
         stdDeviation="3.971582"
         id="feGaussianBlur4686" />
    </filter>
    <filter
       inkscape:collect="always"
       style="color-interpolation-filters:sRGB"
       id="filter4706"
       x="-0.024329883"
       width="1.0486598"
       y="-0.023678943"
       height="1.0473579">
      <feGaussianBlur
         inkscape:collect="always"
         stdDeviation="4.4200605"
         id="feGaussianBlur4708" />
    </filter>
    <filter
       inkscape:collect="always"
       style="color-interpolation-filters:sRGB"
       id="filter4591"
       x="-0.010965647"
       width="1.0219313"
       y="-0.01324981"
       height="1.0264996">
      <feGaussianBlur
         inkscape:collect="always"
         stdDeviation="0.1766744"
         id="feGaussianBlur4593" />
    </filter>
  </defs>
  <sodipodi:namedview
     id="base"
     pagecolor="#c3c3c3"
     bordercolor="#333333"
     borderopacity="1"
     inkscape:pageopacity="0"
     inkscape:pageshadow="2"
     inkscape:zoom="1.4142135"
     inkscape:cx="301.98371"
     inkscape:cy="-15.433212"
     inkscape:document-units="px"
     inkscape:current-layer="layer2"
     showgrid="false"
     units="px"
     inkscape:showpageshadow="false"
     inkscape:window-width="1640"
     inkscape:window-height="1370"
     inkscape:window-x="543"
     inkscape:window-y="34"
     inkscape:window-maximized="0">
    <inkscape:grid
       type="xygrid"
       id="grid4630" />
  </sodipodi:namedview>
  <metadata
     id="metadata1084">
    <rdf:RDF>
      <cc:Work
         rdf:about="">
        <dc:format>image/svg+xml</dc:format>
        <dc:type
           rdf:resource="http://purl.org/dc/dcmitype/StillImage" />
        <dc:title />
        <cc:license
           rdf:resource="http://creativecommons.org/licenses/by-sa/4.0/" />
        <dc:creator>
          <cc:Agent>
            <dc:title>Peter Cornelis</dc:title>
          </cc:Agent>
        </dc:creator>
      </cc:Work>
      <cc:License
         rdf:about="http://creativecommons.org/licenses/by-sa/4.0/">
        <cc:permits
           rdf:resource="http://creativecommons.org/ns#Reproduction" />
        <cc:permits
           rdf:resource="http://creativecommons.org/ns#Distribution" />
        <cc:requires
           rdf:resource="http://creativecommons.org/ns#Notice" />
        <cc:requires
           rdf:resource="http://creativecommons.org/ns#Attribution" />
        <cc:permits
           rdf:resource="http://creativecommons.org/ns#DerivativeWorks" />
        <cc:requires
           rdf:resource="http://creativecommons.org/ns#ShareAlike" />
      </cc:License>
    </rdf:RDF>
  </metadata>
  <g
     inkscape:label="Baseplate"
     inkscape:groupmode="layer"
     id="layer1"
     transform="translate(0,-153.06668)"
     style="display:none">
    <rect
       style="display:inline;overflow:visible;visibility:visible;fill:#fefefe;fill-opacity:1;fill-rule:nonzero;stroke:none;stroke-width:2;marker:none;enable-background:accumulate"
       id="rect3951"
       width="512"
       height="512"
       x="-800"
       y="169.06668"
       inkscape:label="48x48"
       transform="scale(-1,1)" />
    <text
       y="733.32251"
       xml:space="preserve"
       x="15.006836"
       style="font-style:normal;font-variant:normal;font-weight:normal;font-stretch:normal;line-height:0%;font-family:'DejaVu Sans';-inkscape-font-specification:'DejaVu Sans';display:inline;fill:#000000;fill-opacity:1;stroke:none;enable-background:new"
       inkscape:label="context"
       id="context"><tspan
         style="font-style:normal;font-variant:normal;font-weight:normal;font-stretch:normal;font-size:18px;line-height:1.25;font-family:'DejaVu Sans';-inkscape-font-specification:'DejaVu Sans'"
         y="733.32251"
         x="15.006836"
         sodipodi:role="line"
         id="tspan3933">categories</tspan></text>
    <text
       y="733.32251"
       xml:space="preserve"
       x="142.48828"
       style="font-style:normal;font-variant:normal;font-weight:bold;font-stretch:normal;line-height:0%;font-family:'DejaVu Sans';-inkscape-font-specification:'DejaVu Sans Bold';text-align:start;writing-mode:lr-tb;text-anchor:start;display:inline;fill:#000000;fill-opacity:1;stroke:none;enable-background:new"
       inkscape:label="icon-name"
       id="icon-name"><tspan
         style="font-style:normal;font-variant:normal;font-weight:bold;font-stretch:normal;font-size:18px;line-height:1.25;font-family:'DejaVu Sans';-inkscape-font-specification:'DejaVu Sans Bold'"
         y="733.32251"
         x="142.48828"
         sodipodi:role="line"
         id="tspan3937">applications-system</tspan></text>
    <rect
       style="display:inline;overflow:visible;visibility:visible;fill:#fefefe;fill-opacity:1;fill-rule:nonzero;stroke:none;stroke-width:2;marker:none;enable-background:accumulate"
       id="rect16x16"
       width="16"
       height="16"
       x="-32"
       y="665.06665"
       inkscape:label="16x16"
       transform="scale(-1,1)" />
    <rect
       style="display:inline;overflow:visible;visibility:visible;fill:#fefefe;fill-opacity:1;fill-rule:nonzero;stroke:none;stroke-width:2;marker:none;enable-background:accumulate"
       id="rect24x24"
       width="24"
       height="24"
       x="-76"
       y="657.06665"
       inkscape:label="24x24"
       transform="scale(-1,1)" />
    <rect
       style="display:inline;overflow:visible;visibility:visible;fill:#fefefe;fill-opacity:1;fill-rule:nonzero;stroke:none;stroke-width:2;marker:none;enable-background:accumulate"
       id="rect32x32"
       width="32"
       height="32"
       x="-128"
       y="649.06665"
       inkscape:label="32x32"
       transform="scale(-1,1)" />
    <rect
       inkscape:label="48x48"
       y="633.06665"
       x="-192"
       height="48"
       width="48"
       id="rect48x48"
       style="display:inline;overflow:visible;visibility:visible;fill:#fefefe;fill-opacity:1;fill-rule:nonzero;stroke:none;stroke-width:2;marker:none;enable-background:accumulate"
       transform="scale(-1,1)" />
    <rect
       transform="scale(-1,1)"
       inkscape:label="32x32"
       y="617.06665"
       x="-272"
       height="64"
       width="64"
       id="rect5310"
       style="display:inline;overflow:visible;visibility:visible;fill:#fefefe;fill-opacity:1;fill-rule:nonzero;stroke:none;stroke-width:4;marker:none;enable-background:accumulate" />
  </g>
  <g
     inkscape:groupmode="layer"
     id="layer2"
     inkscape:label="Bitmap"
     style="display:inline">
    <path
       id="path4399"
       d="m 163.901,485.0046 c -0.424,0.046 -0.7975,0.393 -0.875,0.8125 l -0.8438,4.2812 c -1.5147,0.5924 -2.9383,1.4063 -4.1875,2.4063 l -4.1562,-1.4063 c -0.4318,-0.1489 -0.9555,0.044 -1.1875,0.4375 l -4,6.9375 c -0.2253,0.399 -0.1287,0.9512 0.2187,1.25 l 3.3125,2.9063 c -0.1166,0.7792 -0.1875,1.5632 -0.1875,2.375 0,0.8117 0.071,1.5957 0.1875,2.375 l -3.3125,2.9062 c -0.3474,0.2988 -0.444,0.851 -0.2187,1.25 l 4,6.9375 c 0.232,0.3934 0.7557,0.5864 1.1875,0.4375 l 4.1562,-1.4062 c 1.2492,0.9999 2.6728,1.8138 4.1875,2.4062 l 0.8438,4.2813 c 0.085,0.4481 0.5125,0.8062 0.9687,0.8125 h 8 c 0.4562,-0.01 0.8832,-0.3644 0.9688,-0.8125 l 0.8437,-4.2813 c 1.5147,-0.5924 2.9384,-1.4063 4.1875,-2.4062 l 4.1563,1.4062 c 0.4318,0.1489 0.9555,-0.044 1.1875,-0.4375 l 4,-6.9375 c 0.2253,-0.399 0.1286,-0.9512 -0.2188,-1.25 l -3.3125,-2.9062 c 0.1167,-0.7793 0.1875,-1.5633 0.1875,-2.375 0,-0.8118 -0.071,-1.5958 -0.1875,-2.375 l 3.3125,-2.9063 c 0.3474,-0.2988 0.4441,-0.851 0.2188,-1.25 l -4,-6.9375 c -0.232,-0.3934 -0.7557,-0.5864 -1.1875,-0.4375 l -4.1563,1.4063 c -1.2491,-1 -2.6728,-1.8139 -4.1875,-2.4063 l -0.8437,-4.2812 c -0.086,-0.4482 -0.5126,-0.8063 -0.9688,-0.8125 h -8 c -0.031,0 -0.062,0 -0.094,0 z"
       style="display:inline;opacity:0.2;fill:#000000;fill-opacity:1;stroke:none;enable-background:new;filter:url(#filter4608)"
       inkscape:connector-curvature="0" />
    <path
       inkscape:connector-curvature="0"
       style="display:inline;fill:#7c8898;fill-opacity:1;stroke:none;enable-background:new"
       d="m 22.148483,512.0003 c -0.16959,0.019 -0.319,0.1572 -0.34999,0.325 l -0.33749,1.7125 c -0.60588,0.2369 -1.17531,0.5625 -1.67497,0.9624 l -1.66247,-0.5624 c -0.17271,-0.06 -0.3822,0.018 -0.47499,0.1749 l -1.59997,2.775 c -0.0901,0.1596 -0.0514,0.3805 0.0875,0.5 l 1.32497,1.1625 c -0.0466,0.3117 -0.075,0.6253 -0.075,0.9499 0,0.3247 0.0283,0.6383 0.075,0.95 l -1.32497,1.1625 c -0.13897,0.1195 -0.17763,0.3404 -0.0875,0.5 l 1.59997,2.7749 c 0.0928,0.1574 0.30228,0.2346 0.47499,0.175 L 19.786033,525 c 0.49966,0.4 1.06909,0.7256 1.67497,0.9625 l 0.33749,1.7125 c 0.0342,0.1793 0.20502,0.3225 0.3875,0.325 h 3.19993 c 0.18248,0 0.35328,-0.1457 0.38749,-0.325 l 0.3375,-1.7125 c 0.60587,-0.2369 1.17531,-0.5625 1.67497,-0.9625 l 1.66247,0.5625 c 0.17271,0.06 0.3822,-0.018 0.47499,-0.175 l 1.59997,-2.7749 c 0.0901,-0.1596 0.0514,-0.3805 -0.0875,-0.5 l -1.32497,-1.1625 c 0.0466,-0.3117 0.075,-0.6253 0.075,-0.95 0,-0.3246 -0.0283,-0.6382 -0.075,-0.9499 l 1.32497,-1.1625 c 0.13896,-0.1195 0.17762,-0.3404 0.0875,-0.5 l -1.59997,-2.775 c -0.0928,-0.1573 -0.30228,-0.2345 -0.47499,-0.1749 l -1.66247,0.5624 c -0.49966,-0.3999 -1.0691,-0.7255 -1.67497,-0.9624 l -0.3375,-1.7125 c -0.0342,-0.1793 -0.20501,-0.3225 -0.38749,-0.325 h -3.19993 c -0.0125,-4e-4 -0.025,-4e-4 -0.0375,0 z"
       id="path4401" />
    <path
       style="display:inline;opacity:1;fill:#7c8898;fill-opacity:1;stroke:none;enable-background:new"
       d="m 163.901,484.0046 c -0.424,0.046 -0.7975,0.393 -0.875,0.8125 l -0.8438,4.2812 c -1.5147,0.5924 -2.9383,1.4063 -4.1875,2.4063 l -4.1562,-1.4063 c -0.4318,-0.1489 -0.9555,0.044 -1.1875,0.4375 l -4,6.9375 c -0.2253,0.399 -0.1287,0.9512 0.2187,1.25 l 3.3125,2.9063 c -0.1166,0.7792 -0.1875,1.5632 -0.1875,2.375 0,0.8117 0.071,1.5957 0.1875,2.375 l -3.3125,2.9062 c -0.3474,0.2988 -0.444,0.851 -0.2187,1.25 l 4,6.9375 c 0.232,0.3934 0.7557,0.5864 1.1875,0.4375 l 4.1562,-1.4062 c 1.2492,0.9999 2.6728,1.8138 4.1875,2.4062 l 0.8438,4.2813 c 0.085,0.4481 0.5125,0.8062 0.9687,0.8125 h 8 c 0.4562,-0.01 0.8832,-0.3644 0.9688,-0.8125 l 0.8437,-4.2813 c 1.5147,-0.5924 2.9384,-1.4063 4.1875,-2.4062 l 4.1563,1.4062 c 0.4318,0.1489 0.9555,-0.044 1.1875,-0.4375 l 4,-6.9375 c 0.2253,-0.399 0.1286,-0.9512 -0.2188,-1.25 l -3.3125,-2.9062 c 0.1167,-0.7793 0.1875,-1.5633 0.1875,-2.375 0,-0.8118 -0.071,-1.5958 -0.1875,-2.375 l 3.3125,-2.9063 c 0.3474,-0.2988 0.4441,-0.851 0.2188,-1.25 l -4,-6.9375 c -0.232,-0.3934 -0.7557,-0.5864 -1.1875,-0.4375 l -4.1563,1.4063 c -1.2491,-1 -2.6728,-1.8139 -4.1875,-2.4063 l -0.8437,-4.2812 c -0.086,-0.4482 -0.5126,-0.8063 -0.9688,-0.8125 h -8 c -0.031,0 -0.062,0 -0.094,0 z"
       id="path4081"
       inkscape:connector-curvature="0" />
    <path
       style="display:inline;opacity:1;fill:#ffffff;fill-opacity:0.2;stroke:none;enable-background:new"
       d="m 163.901,484.0046 c -0.424,0.046 -0.7975,0.393 -0.875,0.8125 l -0.8438,4.2812 c -1.5147,0.5924 -2.9383,1.4063 -4.1875,2.4063 l -4.1562,-1.4063 c -0.4318,-0.1489 -0.9555,0.044 -1.1875,0.4375 l -4,6.9375 c 0.054,0.1 0.1319,0.1753 0.2187,0.25 l 0.1563,0.125 3.625,-6.3125 c 0.232,-0.3934 0.7557,-0.5864 1.1875,-0.4375 l 4.1562,1.4063 c 1.2492,-1 2.6728,-1.8139 4.1875,-2.4063 l 0.8438,-4.2812 c 0.077,-0.4195 0.451,-0.7663 0.875,-0.8125 0.031,0 0.062,0 0.094,0 h 8 c 0.4562,0.01 0.8832,0.3643 0.9687,0.8125 l 0.8438,4.2812 c 1.5147,0.5924 2.9383,1.4063 4.1875,2.4063 l 4.1562,-1.4063 c 0.4318,-0.1489 0.9555,0.044 1.1875,0.4375 l 3.625,6.3125 0.1563,-0.125 c 0.087,-0.075 0.1643,-0.15 0.2187,-0.25 l -4,-6.9375 c -0.232,-0.3934 -0.7557,-0.5864 -1.1875,-0.4375 l -4.1562,1.4063 c -1.2491,-1 -2.6728,-1.8139 -4.1875,-2.4063 l -0.8437,-4.2812 c -0.086,-0.4482 -0.5126,-0.8063 -0.9688,-0.8125 h -8 c -0.031,0 -0.062,0 -0.094,0 z m -15.3438,14.125 c 0.018,0.1181 0.038,0.241 0.094,0.3437 -0.054,-0.1 -0.074,-0.2311 -0.094,-0.3437 z m 38.875,0 c -0.02,0.1126 -0.039,0.2437 -0.094,0.3437 0.056,-0.1027 0.075,-0.2256 0.094,-0.3437 z m -35.3437,4.4062 c -0.032,0.3208 -0.045,0.6452 -0.062,0.9688 0.01,0.1685 0.022,0.3322 0.031,0.5 0.026,-0.4615 0.058,-0.9239 0.125,-1.375 l -0.094,-0.094 z m 31.8125,0 -0.094,0.094 c 0.068,0.4511 0.099,0.9135 0.125,1.375 0.01,-0.1677 0.025,-0.3314 0.031,-0.5 -0.017,-0.3235 -0.031,-0.648 -0.062,-0.9687 z m -31.8125,3.9375 -3.2188,2.8125 c -0.087,0.075 -0.1643,0.15 -0.2187,0.25 l 0.375,0.625 3.1562,-2.7812 c -0.044,-0.2973 -0.064,-0.6063 -0.094,-0.9063 z m 31.8125,0 c -0.03,0.3 -0.049,0.609 -0.094,0.9063 l 3.1562,2.7812 0.375,-0.625 c -0.054,-0.1 -0.1319,-0.1753 -0.2187,-0.25 l -3.2188,-2.8125 z m -35.375,3.6563 c 0,0.054 0.019,0.1032 0.031,0.1562 -0.013,-0.053 -0.027,-0.1013 -0.031,-0.1562 z m 38.9375,0 c -0.01,0.055 -0.018,0.103 -0.031,0.1562 0.012,-0.053 0.028,-0.1019 0.031,-0.1562 z"
       id="path4258"
       inkscape:connector-curvature="0" />
    <path
       inkscape:connector-curvature="0"
       id="path4700"
       d="m 497.94541,50.0134 c -4.7489,0.5176 -8.93199,4.4024 -9.79979,9.0998 l -9.44989,47.9491 c -16.96449,6.6344 -32.90857,15.75 -46.89906,26.9495 l -46.54905,-15.7497 c -4.8359,-1.6675 -10.70149,0.4936 -13.29979,4.8999 l -44.79906,77.6986 c -2.5234,4.4688 -1.4411,10.6533 2.4499,13.9997 l 37.09926,32.5494 c -1.3064,8.7275 -2.09989,17.5081 -2.09989,26.5995 0,9.0914 0.79439,17.8719 2.09989,26.5994 l -37.09926,32.5495 c -3.891,3.3464 -4.9733,9.5309 -2.4499,13.9997 l 44.79906,77.6985 c 2.5983,4.4064 8.46389,6.5675 13.29979,4.8999 l 46.54905,-15.7496 c 13.99049,11.1994 29.93457,20.315 46.89906,26.9495 l 9.44989,47.949 c 0.9576,5.0192 5.74039,9.0303 10.84969,9.0999 h 89.59831 c 5.1093,-0.064 9.89179,-4.0807 10.84979,-9.0999 l 9.44979,-47.949 c 16.96459,-6.6345 32.90867,-15.7501 46.89906,-26.9495 l 46.54915,15.7496 c 4.8359,1.6676 10.70149,-0.4936 13.29969,-4.8999 l 44.79906,-77.6985 c 2.5235,-4.4688 1.4412,-10.6533 -2.4499,-13.9997 L 720.891,300.6086 c 1.3064,-8.7275 2.1,-17.508 2.1,-26.5994 0,-9.0914 -0.7944,-17.872 -2.1,-26.5995 l 37.09926,-32.5494 c 3.8911,-3.3464 4.9734,-9.5309 2.4499,-13.9997 L 715.6411,123.162 c -2.5982,-4.4063 -8.46379,-6.5674 -13.29969,-4.8999 l -46.54915,15.7497 C 641.80187,122.8123 625.85779,113.6967 608.8932,107.0623 l -9.44979,-47.9491 c -0.958,-5.0192 -5.74049,-9.0303 -10.84979,-9.0998 h -89.59831 c -0.3496,-0.01 -0.7,-0.01 -1.0493,0 z"
       style="display:inline;fill:#000000;fill-opacity:0.2;stroke:none;enable-background:new;filter:url(#filter4706)" />
    <path
       style="display:inline;fill:#000000;fill-opacity:0.2;stroke:none;enable-background:new"
       d="m 497.94541,50.0134 c -4.7489,0.5176 -8.93199,4.4024 -9.79979,9.0998 l -9.44989,47.9491 c -16.96449,6.6344 -32.90857,15.75 -46.89906,26.9495 l -46.54905,-15.7497 c -4.8359,-1.6675 -10.70149,0.4936 -13.29979,4.8999 l -44.79906,77.6986 c -2.5234,4.4688 -1.4411,10.6533 2.4499,13.9997 l 37.09926,32.5494 c -1.3064,8.7275 -2.09989,17.5081 -2.09989,26.5995 0,9.0914 0.79439,17.8719 2.09989,26.5994 l -37.09926,32.5495 c -3.891,3.3464 -4.9733,9.5309 -2.4499,13.9997 l 44.79906,77.6985 c 2.5983,4.4064 8.46389,6.5675 13.29979,4.8999 l 46.54905,-15.7496 c 13.99049,11.1994 29.93457,20.315 46.89906,26.9495 l 9.44989,47.949 c 0.9576,5.0192 5.74039,9.0303 10.84969,9.0999 h 89.59831 c 5.1093,-0.064 9.89179,-4.0807 10.84979,-9.0999 l 9.44979,-47.949 c 16.96459,-6.6345 32.90867,-15.7501 46.89906,-26.9495 l 46.54915,15.7496 c 4.8359,1.6676 10.70149,-0.4936 13.29969,-4.8999 l 44.79906,-77.6985 c 2.5235,-4.4688 1.4412,-10.6533 -2.4499,-13.9997 L 720.891,300.6086 c 1.3064,-8.7275 2.1,-17.508 2.1,-26.5994 0,-9.0914 -0.7944,-17.872 -2.1,-26.5995 l 37.09926,-32.5494 c 3.8911,-3.3464 4.9734,-9.5309 2.4499,-13.9997 L 715.6411,123.162 c -2.5982,-4.4063 -8.46379,-6.5674 -13.29969,-4.8999 l -46.54915,15.7497 C 641.80187,122.8123 625.85779,113.6967 608.8932,107.0623 l -9.44979,-47.9491 c -0.958,-5.0192 -5.74049,-9.0303 -10.84979,-9.0998 h -89.59831 c -0.3496,-0.01 -0.7,-0.01 -1.0493,0 z"
       id="path4698"
       inkscape:connector-curvature="0" />
    <path
       inkscape:connector-curvature="0"
       id="path4264"
       d="m 497.94541,48.013 c -4.7489,0.5176 -8.93199,4.4024 -9.79979,9.0998 l -9.44989,47.9491 c -16.96449,6.6344 -32.90857,15.75 -46.89906,26.9495 l -46.54905,-15.7497 c -4.8359,-1.6675 -10.70149,0.4936 -13.29979,4.8999 l -44.79906,77.6986 c -2.5234,4.4688 -1.4411,10.6533 2.4499,13.9997 l 37.09926,32.5494 c -1.3064,8.7275 -2.09989,17.5081 -2.09989,26.5995 0,9.0914 0.79439,17.8719 2.09989,26.5994 l -37.09926,32.5495 c -3.891,3.3464 -4.9733,9.5309 -2.4499,13.9997 l 44.79906,77.6985 c 2.5983,4.4064 8.46389,6.5675 13.29979,4.8999 l 46.54905,-15.7496 c 13.99049,11.1994 29.93457,20.315 46.89906,26.9495 l 9.44989,47.949 c 0.9576,5.0192 5.74039,9.0303 10.84969,9.0999 h 89.59831 c 5.1093,-0.064 9.89179,-4.0807 10.84979,-9.0999 l 9.44979,-47.949 c 16.96459,-6.6345 32.90867,-15.7501 46.89906,-26.9495 l 46.54915,15.7496 c 4.8359,1.6676 10.70149,-0.4936 13.29969,-4.8999 l 44.79906,-77.6985 c 2.5235,-4.4688 1.4412,-10.6533 -2.4499,-13.9997 L 720.891,298.6082 c 1.3064,-8.7275 2.1,-17.508 2.1,-26.5994 0,-9.0914 -0.7944,-17.872 -2.1,-26.5995 l 37.09926,-32.5494 c 3.8911,-3.3464 4.9734,-9.5309 2.4499,-13.9997 L 715.6411,121.1616 c -2.5982,-4.4063 -8.46379,-6.5674 -13.29969,-4.8999 l -46.54915,15.7497 C 641.80187,120.8119 625.85779,111.6963 608.8932,105.0619 l -9.44979,-47.9491 c -0.958,-5.0192 -5.74049,-9.0303 -10.84979,-9.0998 h -89.59831 c -0.3496,-0.01 -0.7,-0.01 -1.0493,0 z"
       style="display:inline;fill:#7c8898;fill-opacity:1;stroke:none;enable-background:new" />
    <path
       id="path4678"
       d="M 543.87305 94.751953 A 179.19645 179.19645 0 0 0 456.4375 117.78125 L 456.32812 117.70117 C 455.0091 118.43476 453.76888 119.28206 452.46875 120.04492 A 179.19645 179.19645 0 0 0 445.26562 124.43555 C 440.62147 127.45037 436.08772 130.60994 431.79688 134.04492 L 385.26562 118.26367 C 380.42892 116.5965 374.55343 118.76617 371.95508 123.16992 L 327.14258 200.88867 C 326.38649 202.22777 325.96345 203.72149 325.83594 205.24609 C 326.08776 208.14349 327.38963 210.95871 329.59961 212.85938 L 366.69727 245.41016 C 366.60856 246.00276 366.5292 246.59628 366.44531 247.18945 L 366.70508 247.41797 C 366.49308 248.82546 366.41392 250.256 366.23633 251.66797 A 179.19645 179.19645 0 0 0 365.42383 258.93359 C 365.35183 259.77101 365.20544 260.59329 365.14062 261.43359 L 365.29688 261.49805 A 179.19645 179.19645 0 0 0 364.67188 273.95117 A 179.19645 179.19645 0 0 0 365.35547 287.60742 C 365.70197 291.29567 366.15116 294.9566 366.69727 298.60742 L 366.60156 298.69141 A 179.19645 179.19645 0 0 0 430.38477 412.48438 L 431.79688 412.00586 C 445.78737 423.20526 461.73082 432.32058 478.69531 438.95508 L 479.10352 441.02734 A 179.19645 179.19645 0 0 0 543.87305 453.15039 A 179.19645 179.19645 0 0 0 608.52344 440.82812 L 608.89258 438.95508 C 625.85717 432.32058 641.80258 423.20526 655.79297 412.00586 L 702.3418 427.75586 C 707.1777 429.42346 713.04242 427.26177 715.64062 422.85547 L 760.43945 345.1582 C 761.19729 343.81617 761.62488 342.31723 761.75391 340.78906 C 761.49827 337.88866 760.18965 335.06985 757.97852 333.16797 L 720.88477 300.63672 C 720.94877 300.18633 720.97707 299.72805 721.04102 299.27734 A 179.19645 179.19645 0 0 0 721.09766 298.78906 L 720.89062 298.60742 C 721.67079 293.3955 722.26454 288.16402 722.61914 282.85938 A 179.19645 179.19645 0 0 0 722.87891 277.73828 C 722.94433 275.92257 722.98533 274.09861 722.98828 272.25977 A 179.19645 179.19645 0 0 0 543.87305 94.751953 z M 522 188 L 566 188 L 566 232 L 522 232 L 522 188 z M 522 253 L 566 253 L 566 360 L 522 360 L 522 253 z "
       style="display:inline;fill:#000000;fill-opacity:0.2;stroke:none;stroke-width:31.99936485;stroke-linecap:round;stroke-linejoin:round;stroke-miterlimit:4;stroke-dasharray:none;stroke-opacity:1;enable-background:new;filter:url(#filter4684)" />
    <path
       style="display:inline;fill:#000000;fill-opacity:0.2;stroke:none;stroke-width:1.99998188;stroke-linecap:round;stroke-linejoin:round;stroke-miterlimit:4;stroke-dasharray:none;stroke-opacity:1;enable-background:new"
       d="M 112 501.80078 A 11.199898 11.199898 0 0 0 106.53516 503.24023 L 106.52734 503.23438 C 106.44494 503.28028 106.36837 503.33318 106.28711 503.38086 A 11.199898 11.199898 0 0 0 105.83594 503.6543 C 105.54567 503.84273 105.26426 504.04117 104.99609 504.25586 L 102.08594 503.26953 C 101.78364 503.16534 101.41826 503.30103 101.25586 503.57617 L 98.453125 508.43359 C 98.307878 508.69084 98.362283 509.03323 98.560547 509.25 L 98.558594 509.25391 C 98.567639 509.2639 98.578047 509.27318 98.587891 509.2832 C 98.595684 509.29064 98.599231 509.30155 98.607422 509.30859 L 100.92773 511.3418 C 100.91453 511.4298 100.90748 511.51917 100.89648 511.60742 A 11.199898 11.199898 0 0 0 100.8457 512.0625 C 100.8417 512.1149 100.83408 512.16428 100.83008 512.2168 L 100.83984 512.2207 A 11.199898 11.199898 0 0 0 100.80078 513 A 11.199898 11.199898 0 0 0 100.83789 513.73242 C 100.83847 513.73951 100.83703 513.74686 100.83789 513.75391 L 100.83984 513.75195 A 11.199898 11.199898 0 0 0 104.18555 521.02344 L 102.08789 521.72266 C 101.78559 521.82686 101.40654 521.71681 101.24414 521.44141 L 98.931641 517.41016 L 98.619141 517.69141 C 98.598141 517.70941 98.575641 517.73191 98.556641 517.75391 L 101.24414 522.44141 C 101.40654 522.71261 101.78559 522.82686 102.08789 522.72266 L 104.99414 521.75391 C 105.57753 522.22087 106.2218 522.62607 106.89844 522.9707 A 11.199898 11.199898 0 0 0 106.93359 522.98828 C 107.26003 523.15314 107.59098 523.30817 107.93164 523.44141 L 108.52539 526.44141 C 108.57959 526.73501 108.82234 526.97191 109.11914 527.00391 C 109.14014 527.00441 109.15769 527.00441 109.17969 527.00391 L 114.80469 527.00391 C 115.12409 526.99951 115.40289 526.75511 115.46289 526.44141 L 116.05469 523.44141 C 116.12922 523.41226 116.20145 523.37641 116.27539 523.3457 A 11.199898 11.199898 0 0 0 116.47266 523.25977 C 116.75276 523.13731 117.02778 523.00537 117.29688 522.86133 A 11.199898 11.199898 0 0 0 117.41602 522.79883 C 117.57931 522.70894 117.73828 522.61314 117.89648 522.51562 A 11.199898 11.199898 0 0 0 117.97266 522.4707 A 11.199898 11.199898 0 0 0 117.97266 522.46875 A 11.199898 11.199898 0 0 0 118.02539 522.43555 C 118.3404 522.23544 118.64558 522.02388 118.93555 521.79492 C 118.95381 521.7805 118.97404 521.76843 118.99219 521.75391 L 119.12695 521.79883 L 121.90625 522.73828 C 122.08439 522.7997 122.27971 522.77109 122.44727 522.6875 C 122.56758 522.63362 122.67512 522.55515 122.74219 522.44141 L 124.5918 519.21484 L 125.53516 517.57812 C 125.69286 517.29886 125.62596 516.91224 125.38281 516.70312 L 123.06445 514.66992 C 123.06845 514.64182 123.07022 514.61218 123.07422 514.58398 A 11.199898 11.199898 0 0 0 123.15625 513.88281 A 11.199898 11.199898 0 0 0 123.20117 513.00195 A 11.199898 11.199898 0 0 0 112 501.80078 z M 110 506 L 114 506 L 114 510 L 113 510 L 111 510 L 110 510 L 110 506 z M 125.05664 508.59766 L 123.05664 510.34766 C 123.10264 510.65066 123.12739 510.94611 123.15039 511.25391 L 125.36914 509.31641 C 125.39014 509.29841 125.41264 509.27491 125.43164 509.25391 L 125.05664 508.59766 z M 110 512 L 111 512 L 113 512 L 114 512 L 114 520 L 110 520 L 110 512 z M 98.400391 517.09766 C 98.386391 517.17666 98.388391 517.26886 98.400391 517.34766 C 98.383391 517.25466 98.381391 517.19026 98.400391 517.09766 z M 115.8457 523.50195 L 115.46289 525.44141 C 115.40299 525.75511 115.12604 526.00391 114.80664 526.00391 L 109.18164 526.00391 C 109.16064 526.00441 109.14114 526.00441 109.11914 526.00391 C 108.82234 525.97161 108.57939 525.73501 108.52539 525.44141 L 108.14258 523.50586 A 11.199898 11.199898 0 0 0 112 524.20117 A 11.199898 11.199898 0 0 0 115.8457 523.50195 z "
       id="path4630" />
    <path
       style="display:inline;fill:#7c8898;fill-opacity:1;stroke:none;enable-background:new"
       d="m 109.12915,498.0049 c -0.2968,0.032 -0.5582,0.2752 -0.6125,0.5688 l -0.5906,2.9968 c -1.0603,0.4147 -2.0568,0.9844 -2.9312,1.6844 l -2.9093,-0.9844 c -0.3023,-0.1042 -0.6689,0.031 -0.8313,0.3062 l -2.799902,4.8562 c -0.1577,0.2793 -0.09,0.6659 0.1531,0.875 l 2.318702,2.0344 c -0.082,0.5454 -0.1312,1.0942 -0.1312,1.6624 0,0.5683 0.05,1.117 0.1312,1.6625 l -2.318702,2.0344 c -0.2432,0.2091 -0.3108,0.5957 -0.1531,0.875 l 2.799902,4.8561 c 0.1624,0.2754 0.529,0.4105 0.8313,0.3063 l 2.9093,-0.9844 c 0.8744,0.7 1.8709,1.2697 2.9312,1.6844 l 0.5906,2.9968 c 0.06,0.3137 0.3588,0.5644 0.6782,0.5688 h 5.5999 c 0.3193,0 0.6182,-0.2551 0.6781,-0.5688 l 0.5906,-2.9968 c 1.0603,-0.4147 2.0568,-0.9844 2.9312,-1.6844 l 2.9094,0.9844 c 0.3022,0.1042 0.6688,-0.031 0.8312,-0.3063 l 2.8,-4.8561 c 0.1577,-0.2793 0.09,-0.6659 -0.1531,-0.875 l -2.3188,-2.0344 c 0.082,-0.5455 0.1313,-1.0942 0.1313,-1.6625 0,-0.5682 -0.05,-1.117 -0.1313,-1.6624 l 2.3188,-2.0344 c 0.2431,-0.2091 0.3108,-0.5957 0.1531,-0.875 l -2.8,-4.8562 c -0.1624,-0.2754 -0.529,-0.4104 -0.8312,-0.3062 l -2.9094,0.9844 c -0.8744,-0.7 -1.8709,-1.2697 -2.9312,-1.6844 l -0.5906,-2.9968 c -0.06,-0.3137 -0.3588,-0.5644 -0.6781,-0.5688 h -5.5999 c -0.022,-5e-4 -0.044,-5e-4 -0.066,0 z"
       id="path4321"
       inkscape:connector-curvature="0" />
    <path
       style="display:inline;opacity:1;fill:#ffffff;fill-opacity:0.2;stroke:none;enable-background:new"
       d="m 109.11965,498.0049 c -0.2968,0.032 -0.5395,0.2689 -0.5937,0.5625 l -0.5938,3 c -1.0603,0.4146 -2.0631,0.9875 -2.9375,1.6875 l -2.9062,-0.9688 c -0.3023,-0.1042 -0.6814,0.01 -0.8438,0.2813 l -2.687502,4.6875 c 0.019,0.021 0.041,0.044 0.062,0.062 l 0.3125,0.2812 2.312502,-4.0312 c 0.1624,-0.2755 0.5415,-0.3855 0.8438,-0.2813 l 2.9062,0.9688 c 0.8744,-0.7 1.8772,-1.2729 2.9375,-1.6875 l 0.5938,-3 c 0.054,-0.2936 0.2969,-0.5302 0.5937,-0.5625 0.022,-6e-4 0.041,-6e-4 0.062,0 h 5.625 c 0.3194,0 0.5964,0.2488 0.6563,0.5625 l 0.5937,3 c 1.0603,0.4146 2.0631,0.9875 2.9375,1.6875 l 2.9063,-0.9688 c 0.3022,-0.1042 0.6813,0.01 0.8437,0.2813 l 2.3125,4.0312 0.3125,-0.2812 c 0.022,-0.019 0.043,-0.041 0.062,-0.062 l -2.6875,-4.6875 c -0.1624,-0.2754 -0.5415,-0.3855 -0.8437,-0.2813 l -2.9063,0.9688 c -0.8744,-0.7 -1.8772,-1.2729 -2.9375,-1.6875 l -0.5937,-3 c -0.06,-0.3137 -0.3369,-0.5582 -0.6563,-0.5625 h -5.625 c -0.022,-6e-4 -0.041,-6e-4 -0.062,0 z m -10.718702,9.6562 c -0.017,0.093 -0.019,0.1574 0,0.25 -0.014,-0.079 -0.012,-0.1712 0,-0.25 z m 27.187502,0 c 0.012,0.079 0.014,0.1712 0,0.25 0.019,-0.093 0.017,-0.1574 0,-0.25 z m -24.75,3.5938 c -0.01,0.082 0,0.1671 0,0.25 0.01,0.1695 0.02,0.3338 0.031,0.5 0.014,-0.2187 0.03,-0.4383 0.062,-0.6563 l -0.094,-0.094 z m 22.3125,0 -0.094,0.094 c 0.033,0.218 0.048,0.4376 0.062,0.6562 0.011,-0.1661 0.023,-0.3305 0.031,-0.5 -0.01,-0.083 0.01,-0.168 0,-0.25 z m -22.3125,2.5 -2.218802,1.9375 c -0.022,0.019 -0.043,0.041 -0.062,0.062 l 0.375,0.6562 2.000002,-1.75 c -0.045,-0.303 -0.071,-0.5984 -0.094,-0.9062 z m 22.3125,0 c -0.023,0.3078 -0.048,0.6032 -0.094,0.9062 l 2,1.75 0.375,-0.6562 c -0.019,-0.022 -0.041,-0.044 -0.062,-0.062 l -2.2188,-1.9375 z"
       id="path4360"
       inkscape:connector-curvature="0" />
    <path
       id="path4027"
       d="m 61.947993,506.0039 c -0.21201,0.023 -0.39877,0.1966 -0.43751,0.4063 l -0.42189,2.1407 c -0.75739,0.2962 -1.46921,0.7031 -2.09382,1.2031 l -2.07819,-0.7031 c -0.2159,-0.075 -0.47777,0.022 -0.59377,0.2188 l -2.00006,3.4688 c -0.11266,0.1995 -0.0643,0.4756 0.10938,0.625 l 1.6563,1.4532 c -0.0583,0.3896 -0.0937,0.7817 -0.0937,1.1875 0,0.4059 0.0354,0.7979 0.0937,1.1876 l -1.6563,1.4532 c -0.17372,0.1493 -0.22204,0.4255 -0.10938,0.625 l 2.00006,3.4688 c 0.116,0.1967 0.37787,0.2932 0.59377,0.2188 l 2.07819,-0.7032 c 0.62461,0.5 1.33643,0.907 2.09382,1.2032 l 0.42189,2.1407 c 0.0427,0.2241 0.25628,0.4031 0.48439,0.4063 h 4.00012 c 0.22811,0 0.44162,-0.1822 0.48439,-0.4063 l 0.42189,-2.1407 c 0.75738,-0.2962 1.46921,-0.7032 2.09382,-1.2032 l 2.07819,0.7032 c 0.2159,0.075 0.47777,-0.022 0.59376,-0.2188 l 2.00007,-3.4688 c 0.11265,-0.1995 0.0643,-0.4757 -0.10938,-0.625 l -1.6563,-1.4532 c 0.0583,-0.3897 0.0937,-0.7817 0.0937,-1.1876 0,-0.4058 -0.0354,-0.7979 -0.0937,-1.1875 l 1.6563,-1.4532 c 0.17371,-0.1494 0.22203,-0.4255 0.10938,-0.625 l -2.00007,-3.4688 c -0.11599,-0.1968 -0.37786,-0.2932 -0.59376,-0.2188 l -2.07819,0.7031 c -0.62461,-0.5 -1.33644,-0.9069 -2.09382,-1.2031 l -0.42189,-2.1407 c -0.0428,-0.2241 -0.25628,-0.4032 -0.48439,-0.4063 h -4.00012 c -0.0156,-5e-4 -0.0313,-5e-4 -0.0469,0 z"
       style="display:inline;fill:#7c8898;fill-opacity:1;stroke:none;enable-background:new"
       inkscape:connector-curvature="0" />
    <path
       style="display:inline;opacity:1;fill:#ffffff;fill-opacity:0.2;stroke:none;enable-background:new"
       d="m 61.932433,506.0046 c -0.21201,0.023 -0.39876,0.1965 -0.4375,0.4062 l -0.40625,2.125 c -0.75739,0.2962 -1.46914,0.7188 -2.09375,1.2188 l -2.09375,-0.7188 c -0.2159,-0.075 -0.47775,0.022 -0.59375,0.2188 l -2,3.4687 0.1875,-0.2812 0.375,0.3125 1.4375,-2.5 c 0.116,-0.1968 0.37785,-0.2933 0.59375,-0.2188 l 2.09375,0.7188 c 0.62461,-0.5 1.33636,-0.9226 2.09375,-1.2188 l 0.40625,-2.125 c 0.0387,-0.2097 0.22549,-0.3831 0.4375,-0.4062 0.0156,-6e-4 0.0469,-6e-4 0.0625,0 h 4 c 0.22811,0 0.4572,0.1821 0.5,0.4062 l 0.40625,2.125 c 0.75738,0.2962 1.46914,0.7188 2.09375,1.2188 l 2.09375,-0.7188 c 0.2159,-0.075 0.47776,0.022 0.59375,0.2188 l 1.4375,2.5 0.375,-0.3125 0.1875,0.2812 -2,-3.4687 c -0.11599,-0.1968 -0.37785,-0.2932 -0.59375,-0.2188 l -2.09375,0.7188 c -0.62461,-0.5 -1.33637,-0.9226 -2.09375,-1.2188 l -0.40625,-2.125 c -0.0428,-0.2241 -0.27189,-0.4031 -0.5,-0.4062 h -4 c -0.0156,-6e-4 -0.0469,-6e-4 -0.0625,0 z m -5.875,9.7812 c 0.005,0.073 -0.008,0.1466 0,0.2188 0.007,-0.063 0.022,-0.1255 0.0312,-0.1875 l -0.0312,-0.031 z m 15.875,0 -0.0312,0.031 c 0.009,0.062 0.0246,0.1247 0.0312,0.1875 0.008,-0.072 -0.005,-0.1461 0,-0.2187 z m -15.875,0.4375 -0.0312,0.031 c 0.006,0.082 -0.006,0.167 0,0.25 0.006,-0.094 0.0241,-0.1869 0.0312,-0.2812 z m 15.875,0 c 0.007,0.094 0.0247,0.1871 0.0312,0.2813 0.006,-0.083 -0.006,-0.1675 0,-0.25 l -0.0312,-0.031 z m -15.90625,1.0313 -1.53125,1.3437 0.375,0.6563 1.21875,-1.0625 c -0.046,-0.3074 -0.0511,-0.6216 -0.0625,-0.9375 z m 15.9375,0 c -0.0114,0.3159 -0.0165,0.6301 -0.0625,0.9375 l 1.21875,1.0625 0.375,-0.6563 z"
       id="path4031"
       inkscape:connector-curvature="0" />
    <path
       id="path4395"
       d="m 61.932433,527.0042 c -0.21201,-0.023 -0.39876,-0.1966 -0.4375,-0.4063 l -0.40625,-2.125 c -0.75739,-0.2962 -1.46914,-0.7187 -2.09375,-1.2187 l -2.09375,0.7187 c -0.2159,0.075 -0.47775,-0.022 -0.59375,-0.2187 l -2,-3.4688 0.1875,0.2813 0.375,-0.3125 1.4375,2.5 c 0.116,0.1967 0.37785,0.2932 0.59375,0.2187 l 2.09375,-0.7187 c 0.62461,0.5 1.33636,0.9225 2.09375,1.2187 l 0.40625,2.125 c 0.0387,0.2097 0.22549,0.3832 0.4375,0.4063 0.0156,5e-4 0.0469,5e-4 0.0625,0 h 4 c 0.22811,0 0.4572,-0.1822 0.5,-0.4063 l 0.40625,-2.125 c 0.75738,-0.2962 1.46914,-0.7187 2.09375,-1.2187 l 2.09375,0.7187 c 0.2159,0.075 0.47776,-0.022 0.59375,-0.2187 l 1.4375,-2.5 0.375,0.3125 0.1875,-0.2813 -2,3.4688 c -0.11599,0.1967 -0.37785,0.2932 -0.59375,0.2187 l -2.09375,-0.7187 c -0.62461,0.5 -1.33637,0.9225 -2.09375,1.2187 l -0.40625,2.125 c -0.0428,0.2241 -0.27189,0.4032 -0.5,0.4063 h -4 c -0.0156,5e-4 -0.0469,5e-4 -0.0625,0 z m -5.875,-9.7813 c 0.005,-0.073 -0.008,-0.1466 0,-0.2187 0.007,0.063 0.022,0.1255 0.0312,0.1875 l -0.0312,0.031 z m 15.875,0 -0.0312,-0.031 c 0.009,-0.062 0.0246,-0.1247 0.0312,-0.1875 0.008,0.072 -0.005,0.1461 0,0.2188 z m -15.875,-0.4375 -0.0312,-0.031 c 0.006,-0.082 -0.006,-0.167 0,-0.25 0.006,0.094 0.0241,0.1869 0.0312,0.2813 z m 15.875,0 c 0.007,-0.094 0.0247,-0.1871 0.0312,-0.2812 0.006,0.083 -0.006,0.1675 0,0.25 l -0.0312,0.031 z m -15.90625,-1.0312 -1.53125,-1.3438 0.375,-0.6562 1.21875,1.0625 c -0.046,0.3073 -0.0511,0.6216 -0.0625,0.9375 z m 15.9375,0 c -0.0114,-0.3159 -0.0165,-0.6302 -0.0625,-0.9375 l 1.21875,-1.0625 0.375,0.6562 z"
       style="display:inline;opacity:1;fill:#000000;fill-opacity:0.2;stroke:none;enable-background:new"
       inkscape:connector-curvature="0" />
    <path
       style="display:inline;fill:url(#linearGradient4264);fill-opacity:1;stroke:none;stroke-width:2;stroke-linecap:round;stroke-linejoin:round;stroke-miterlimit:4;stroke-dasharray:none;stroke-opacity:1;enable-background:new"
       d="m 61.947987,506.004 c -0.21201,0.023 -0.39876,0.19655 -0.4375,0.40625 l -0.421875,2.14062 c -0.75739,0.2962 -1.46914,0.70313 -2.09375,1.20313 l -2.078125,-0.70313 c -0.2159,-0.075 -0.47775,0.022 -0.59375,0.21875 l -2,3.46875 c -0.11266,0.1995 -0.0643,0.4756 0.109375,0.625 l 1.65625,1.45313 c -0.0583,0.3896 -0.09375,0.7817 -0.09375,1.1875 0,0.4059 0.03545,0.7978 0.09375,1.1875 l -1.65625,1.45312 c -0.17372,0.1493 -0.222035,0.4255 -0.109375,0.625 l 2,3.46875 c 0.116,0.1967 0.37785,0.29315 0.59375,0.21875 l 2.078125,-0.70312 c 0.62461,0.5 1.33636,0.90692 2.09375,1.20312 l 0.421875,2.14063 c 0.0427,0.2241 0.256265,0.40305 0.484375,0.40625 h 4 c 0.22811,0 0.441605,-0.18215 0.484375,-0.40625 l 0.421875,-2.14063 c 0.75738,-0.2962 1.46914,-0.70312 2.09375,-1.20312 l 2.078125,0.70312 c 0.2159,0.075 0.47776,-0.022 0.59375,-0.21875 l 2,-3.46875 c 0.11265,-0.1995 0.06431,-0.4757 -0.109375,-0.625 l -1.65625,-1.45312 c 0.0583,-0.3897 0.09375,-0.7816 0.09375,-1.1875 0,-0.4058 -0.03545,-0.7979 -0.09375,-1.1875 l 1.65625,-1.45313 c 0.17371,-0.1494 0.222025,-0.4255 0.109375,-0.625 l -2,-3.46875 c -0.11599,-0.1968 -0.37785,-0.29315 -0.59375,-0.21875 l -2.078125,0.70313 c -0.62461,-0.5 -1.33637,-0.90693 -2.09375,-1.20313 l -0.421875,-2.14062 c -0.0428,-0.2241 -0.256265,-0.40315 -0.484375,-0.40625 h -4 c -0.0156,-5e-4 -0.03128,-5e-4 -0.04687,0 z"
       id="path4262"
       inkscape:connector-curvature="0" />
    <path
       style="display:inline;fill:url(#linearGradient5224);fill-opacity:1;stroke:none;stroke-width:2;stroke-linecap:round;stroke-linejoin:round;stroke-miterlimit:4;stroke-dasharray:none;stroke-opacity:1;enable-background:new"
       d="m 163.90091,484.004 c -0.424,0.046 -0.7975,0.393 -0.875,0.8125 l -0.84375,4.28125 c -1.5147,0.5924 -2.9383,1.40625 -4.1875,2.40625 l -4.15625,-1.40625 c -0.4318,-0.1489 -0.9555,0.044 -1.1875,0.4375 l -4,6.9375 c -0.2253,0.399 -0.12865,0.9512 0.21875,1.25 l 3.3125,2.90625 c -0.1166,0.7792 -0.1875,1.5632 -0.1875,2.375 0,0.8117 0.071,1.5957 0.1875,2.375 l -3.3125,2.90625 c -0.3474,0.2988 -0.44405,0.851 -0.21875,1.25 l 4,6.9375 c 0.232,0.3934 0.7557,0.5864 1.1875,0.4375 l 4.15625,-1.40625 c 1.2492,0.9999 2.6728,1.81385 4.1875,2.40625 l 0.84375,4.28125 c 0.085,0.4481 0.51255,0.8062 0.96875,0.8125 h 8 c 0.4562,-0.01 0.88315,-0.3644 0.96875,-0.8125 l 0.84375,-4.28125 c 1.5147,-0.5924 2.9384,-1.40635 4.1875,-2.40625 l 4.15625,1.40625 c 0.4318,0.1489 0.9555,-0.044 1.1875,-0.4375 l 4,-6.9375 c 0.2253,-0.399 0.12865,-0.9512 -0.21875,-1.25 l -3.3125,-2.90625 c 0.1167,-0.7793 0.1875,-1.5633 0.1875,-2.375 0,-0.8118 -0.071,-1.5958 -0.1875,-2.375 l 3.3125,-2.90625 c 0.3474,-0.2988 0.44405,-0.851 0.21875,-1.25 l -4,-6.9375 c -0.232,-0.3934 -0.7557,-0.5864 -1.1875,-0.4375 l -4.15625,1.40625 c -1.2491,-1 -2.6728,-1.81385 -4.1875,-2.40625 l -0.84375,-4.28125 c -0.086,-0.4482 -0.51255,-0.8063 -0.96875,-0.8125 h -8 z"
       id="path5218"
       inkscape:connector-curvature="0" />
    <path
       style="display:inline;fill:url(#linearGradient5226);fill-opacity:1;stroke:none;stroke-width:2;stroke-linecap:round;stroke-linejoin:round;stroke-miterlimit:4;stroke-dasharray:none;stroke-opacity:1;enable-background:new"
       d="m 109.12948,498.00595 c -0.2968,0.032 -0.55898,0.27476 -0.61328,0.56836 l -0.58985,2.99609 c -1.0603,0.4147 -2.05724,0.98555 -2.93164,1.68555 l -2.9082,-0.98633 c -0.3023,-0.1042 -0.66963,0.0314 -0.83203,0.30664 l -2.800789,4.85742 c -0.1577,0.2793 -0.0888,0.6659 0.154297,0.875 l 2.318362,2.03321 c -0.082,0.5454 -0.13086,1.09391 -0.13086,1.66211 0,0.5683 0.0497,1.11856 0.13086,1.66406 l -2.318362,2.0332 c -0.2432,0.2091 -0.311997,0.5957 -0.154297,0.875 l 2.800789,4.85742 c 0.1624,0.2754 0.52973,0.40889 0.83203,0.30469 l 2.9082,-0.98437 c 0.8744,0.7 1.87134,1.27084 2.93164,1.68554 l 0.58985,2.9961 c 0.06,0.3137 0.35833,0.56396 0.67773,0.56836 h 5.60156 c 0.3193,0 0.61784,-0.25466 0.67774,-0.56836 l 0.58984,-2.9961 c 1.0603,-0.4147 2.05724,-0.98554 2.93164,-1.68554 l 2.91016,0.98437 c 0.3022,0.1042 0.66768,-0.0294 0.83008,-0.30469 l 2.80078,-4.85742 c 0.1577,-0.2793 0.0888,-0.6659 -0.1543,-0.875 l -2.31836,-2.0332 c 0.082,-0.5455 0.13086,-1.09576 0.13086,-1.66406 0,-0.5682 -0.0496,-1.11671 -0.13086,-1.66211 l 2.31836,-2.03321 c 0.2431,-0.2091 0.312,-0.5957 0.1543,-0.875 l -2.80078,-4.85742 c -0.1624,-0.2754 -0.52788,-0.41084 -0.83008,-0.30664 l -2.91016,0.98633 c -0.8744,-0.7 -1.87134,-1.27085 -2.93164,-1.68555 l -0.58984,-2.99609 c -0.06,-0.3137 -0.35844,-0.56396 -0.67774,-0.56836 h -5.60156 c -0.022,-5e-4 -0.0425,-5e-4 -0.0645,0 z"
       id="path5220"
       inkscape:connector-curvature="0" />
    <path
       style="display:inline;fill:url(#linearGradient5228);fill-opacity:1;stroke:none;stroke-width:15.99999523;stroke-linecap:round;stroke-linejoin:round;stroke-miterlimit:4;stroke-dasharray:none;stroke-opacity:1;enable-background:new"
       d="m 497.94531,48.01476 c -4.7489,0.5176 -8.93103,4.40221 -9.79883,9.09961 l -9.45117,47.94922 c -16.9645,6.6344 -32.90794,15.74972 -46.89843,26.94922 l -46.54883,-15.75 c -4.8359,-1.6675 -10.70248,0.49409 -13.30078,4.90039 l -44.79883,77.6973 c -2.5234,4.4688 -1.43983,10.6536 2.45117,14 l 37.09961,32.5508 c -1.3064,8.7275 -2.10156,17.5082 -2.10156,26.5996 0,9.0914 0.79606,17.8701 2.10156,26.5976 l -37.09961,32.5508 c -3.891,3.3464 -4.97457,9.5312 -2.45117,14 l 44.79883,77.6973 c 2.5983,4.4064 8.46488,6.568 13.30078,4.9004 l 46.54883,-15.75 c 13.99049,11.1994 29.93393,20.3147 46.89843,26.9492 l 9.45117,47.9492 c 0.9576,5.0192 5.74031,9.03 10.84961,9.0996 h 89.59766 c 5.1093,-0.064 9.89161,-4.0804 10.84961,-9.0996 l 9.45117,-47.9492 c 16.9646,-6.6345 32.90804,-15.7498 46.89844,-26.9492 l 46.54883,15.75 c 4.8359,1.6676 10.70258,-0.4941 13.30078,-4.9004 l 44.79883,-77.6973 c 2.5235,-4.4688 1.43992,-10.6536 -2.45118,-14 l -37.09765,-32.5508 c 1.3064,-8.7275 2.09961,-17.5062 2.09961,-26.5976 0,-9.0914 -0.79401,-17.8721 -2.09961,-26.5996 l 37.09765,-32.5508 c 3.8911,-3.3464 4.97468,-9.5312 2.45118,-14 l -44.79883,-77.6973 c -2.5982,-4.4063 -8.46488,-6.56789 -13.30078,-4.90039 l -46.54883,15.75 c -13.9904,-11.1995 -29.93384,-20.31482 -46.89844,-26.94922 l -9.45117,-47.94922 c -0.958,-5.0192 -5.74031,-9.03011 -10.84961,-9.09961 h -89.59766 c -0.3496,-0.01 -0.69952,-0.01 -1.04882,0 z"
       id="path5222"
       inkscape:connector-curvature="0" />
    <path
       style="display:inline;opacity:1;fill:#000000;fill-opacity:0.2;stroke:none;stroke-width:2;filter:url(#filter5337);enable-background:new"
       d="m 234.33988,525.00825 c -0.5936,-0.064 -1.079,-0.5378 -1.1874,-1.125 l -1.1876,-6 c -2.1206,-0.8294 -4.1262,-1.9752 -5.875,-3.375 l -5.8124,1.9374 c -0.6046,0.2084 -1.3628,-0.02 -1.6876,-0.5624 l -5.375,-9.375 c 0.038,-0.044 0.082,-0.088 0.124,-0.124 l 0.625,-0.5626 4.625,8.0626 c 0.3248,0.5508 1.083,0.7708 1.6876,0.5624 l 5.8124,-1.9374 c 1.7488,1.3998 3.7544,2.5456 5.875,3.375 l 1.1876,6 c 0.108,0.5872 0.5938,1.0604 1.1874,1.125 0.044,0.001 0.082,0.001 0.124,0 h 11.25 c 0.6388,0 1.1928,-0.4976 1.3126,-1.125 l 1.1874,-6 c 2.1206,-0.8294 4.1262,-1.9752 5.875,-3.375 l 5.8126,1.9374 c 0.6044,0.2084 1.3626,-0.02 1.6874,-0.5624 l 4.625,-8.0626 0.625,0.5626 c 0.044,0.038 0.086,0.082 0.124,0.124 l -5.375,9.375 c -0.3248,0.5508 -1.083,0.7708 -1.6874,0.5624 l -5.8126,-1.9374 c -1.7488,1.3998 -3.7544,2.5456 -5.875,3.375 l -1.1874,6 c -0.12,0.6274 -0.6738,1.1162 -1.3126,1.125 h -11.25 c -0.044,10e-4 -0.082,10e-4 -0.124,0 z m -21.4374,-19.3126 c -0.034,-0.186 -0.038,-0.3148 0,-0.5 -0.028,0.158 -0.024,0.3424 0,0.5 z m 54.375,0 c 0.024,-0.158 0.028,-0.3422 0,-0.5 0.038,0.186 0.034,0.315 0,0.5 z m -49.5,-7.1874 c -0.02,-0.164 0,-0.3342 0,-0.5 0.02,-0.339 0.04,-0.6678 0.062,-1 0.028,0.4372 0.06,0.8764 0.124,1.3124 l -0.188,0.188 z m 44.625,0 -0.188,-0.188 c 0.066,-0.436 0.096,-0.8754 0.124,-1.3126 0.022,0.3322 0.046,0.661 0.062,1 -0.02,0.166 0.02,0.3362 0,0.5 z m -44.625,-5 -4.4376,-3.875 c -0.044,-0.038 -0.086,-0.082 -0.124,-0.124 l 0.75,-1.3126 4,3.5 c -0.09,0.606 -0.142,1.197 -0.188,1.8126 z m 44.625,0 c -0.046,-0.6156 -0.096,-1.2066 -0.188,-1.8126 l 4,-3.5 0.75,1.3126 c -0.038,0.042 -0.082,0.088 -0.124,0.124 l -4.4376,3.875 z"
       id="path5320"
       inkscape:connector-curvature="0" />
    <path
       inkscape:connector-curvature="0"
       id="path5312"
       d="m 234.35888,468.00989 c -0.5936,0.064 -1.1164,0.5504 -1.225,1.1376 l -1.1812,5.9936 c -2.1206,0.8294 -4.1136,1.9688 -5.8624,3.3688 l -5.8186,-1.9688 c -0.6046,-0.2084 -1.3378,0.062 -1.6626,0.6124 l -5.5998,9.7124 c -0.3154,0.5586 -0.18,1.3318 0.3062,1.75 l 4.6374,4.0688 c -0.164,1.0908 -0.2624,2.1884 -0.2624,3.3248 0,1.1366 0.1,2.234 0.2624,3.325 l -4.6374,4.0688 c -0.4864,0.4182 -0.6216,1.1914 -0.3062,1.75 l 5.5998,9.7122 c 0.3248,0.5508 1.058,0.821 1.6626,0.6126 l 5.8186,-1.9688 c 1.7488,1.4 3.7418,2.5394 5.8624,3.3688 l 1.1812,5.9936 c 0.12,0.6274 0.7176,1.1288 1.3564,1.1376 h 11.1998 c 0.6386,0 1.2364,-0.5102 1.3562,-1.1376 l 1.1812,-5.9936 c 2.1206,-0.8294 4.1136,-1.9688 5.8624,-3.3688 l 5.8188,1.9688 c 0.6044,0.2084 1.3376,-0.062 1.6624,-0.6126 l 5.6,-9.7122 c 0.3154,-0.5586 0.18,-1.3318 -0.3062,-1.75 l -4.6376,-4.0688 c 0.164,-1.091 0.2626,-2.1884 0.2626,-3.325 0,-1.1364 -0.1,-2.234 -0.2626,-3.3248 l 4.6376,-4.0688 c 0.4862,-0.4182 0.6216,-1.1914 0.3062,-1.75 l -5.6,-9.7124 c -0.3248,-0.5508 -1.058,-0.8208 -1.6624,-0.6124 l -5.8188,1.9688 c -1.7488,-1.4 -3.7418,-2.5394 -5.8624,-3.3688 l -1.1812,-5.9936 c -0.12,-0.6274 -0.7176,-1.1288 -1.3562,-1.1376 h -11.1998 c -0.044,-10e-4 -0.088,-10e-4 -0.132,0 z"
       style="display:inline;fill:#7c8898;fill-opacity:1;stroke:none;stroke-width:2;enable-background:new" />
    <path
       style="display:inline;opacity:1;fill:#ffffff;fill-opacity:0.2;stroke:none;stroke-width:2;enable-background:new"
       d="m 234.33805,468.00977 c -0.59273,0.0648 -1.07726,0.53843 -1.18555,1.125 l -1.1875,6 c -2.1206,0.8292 -4.1262,1.975 -5.875,3.375 l -5.8125,-1.9375 c -0.6046,-0.2084 -1.3627,0.0199 -1.6875,0.5625 l -5.375,9.375 c 0.038,0.042 0.0811,0.089 0.12305,0.125 l 0.25,0.22461 5.00195,-8.72461 c 0.3248,-0.5426 1.0829,-0.7709 1.6875,-0.5625 l 5.8125,1.9375 c 1.7488,-1.4 3.7544,-2.5458 5.875,-3.375 l 1.1875,-6 c 0.10829,-0.58657 0.59282,-1.06019 1.18555,-1.125 h 0.002 c 0.0412,-9.6e-4 0.0778,-9.9e-4 0.1211,0 h 11.25 c 0.6388,0.009 1.1925,0.4976 1.3125,1.125 l 1.1875,6 c 2.1206,0.8292 4.1262,1.975 5.875,3.375 l 5.8125,-1.9375 c 0.6044,-0.2084 1.3627,0.0117 1.6875,0.5625 l 5.00195,8.72461 0.25,-0.22461 c 0.044,-0.038 0.0851,-0.083 0.12305,-0.125 l -5.375,-9.375 c -0.3248,-0.5508 -1.0831,-0.7709 -1.6875,-0.5625 l -5.8125,1.9375 c -1.7488,-1.4 -3.7544,-2.5458 -5.875,-3.375 l -1.1875,-6 c -0.12,-0.6274 -0.6737,-1.1164 -1.3125,-1.125 h -11.25 c -0.0433,-9.9e-4 -0.0799,-9.6e-4 -0.1211,0 z m -21.43555,19.3125 c -0.034,0.186 -0.038,0.3148 0,0.5 -0.028,-0.158 -0.024,-0.3424 0,-0.5 z m 54.375,0 c 0.024,0.158 0.028,0.3424 0,0.5 0.038,-0.186 0.034,-0.3148 0,-0.5 z m -49.5,7.18945 c -0.0196,0.16341 0,0.33289 0,0.49805 0.0107,0.18141 0.0222,0.35752 0.0332,0.53515 l 0.0664,0.0664 c 0.023,-0.30507 0.0414,-0.61041 0.0859,-0.91406 z m 44.62305,0 -0.18555,0.18555 c 0.046,0.30365 0.0634,0.60906 0.0859,0.91406 l 0.0664,-0.0664 c 0.0116,-0.17765 0.0246,-0.35374 0.0332,-0.53515 -0.0199,-0.16536 0.0195,-0.33465 0,-0.49805 z m -44.62305,4.99805 -4.4375,3.875 c -0.044,0.038 -0.087,0.083 -0.125,0.125 l 0.375,0.65625 4.1875,-3.65625 c 0.0227,0.30376 0.0623,0.59801 0.0918,0.89453 l 0.0957,-0.082 c -0.09,-0.606 -0.1415,-1.1969 -0.1875,-1.8125 z m 44.625,0.002 c -0.046,0.61489 -0.0956,1.20519 -0.1875,1.81055 l 0.0957,0.082 c 0.0292,-0.29653 0.0691,-0.59074 0.0918,-0.89453 l 4.1875,3.65625 0.375,-0.65625 c -0.038,-0.044 -0.083,-0.087 -0.125,-0.12305 z"
       id="path5318"
       inkscape:connector-curvature="0" />
    <path
       inkscape:connector-curvature="0"
       id="path5324"
       d="m 234.35954,468.0119 c -0.5936,0.064 -1.11796,0.54952 -1.22656,1.13672 l -1.1797,5.99218 c -2.1206,0.8294 -4.11448,1.9711 -5.86328,3.3711 l -5.8164,-1.97266 c -0.6046,-0.2084 -1.33926,0.0628 -1.66406,0.61328 l -5.60156,9.71484 c -0.3154,0.5586 -0.1776,1.3318 0.30858,1.75 l 4.63672,4.06642 c -0.164,1.0908 -0.26172,2.18782 -0.26172,3.32422 0,1.1366 0.0994,2.23712 0.26172,3.32812 l -4.63672,4.0664 c -0.4864,0.4182 -0.62398,1.1914 -0.30858,1.75 l 5.60156,9.71484 c 0.3248,0.5508 1.05946,0.81778 1.66406,0.60938 L 226.09,513.508 c 1.7488,1.4 3.74268,2.54168 5.86328,3.37108 l 1.1797,5.9922 c 0.12,0.6274 0.71666,1.12792 1.35546,1.13672 h 11.20312 c 0.6386,0 1.23568,-0.50932 1.35548,-1.13672 l 1.17968,-5.9922 c 2.1206,-0.8294 4.11448,-1.97108 5.86328,-3.37108 l 5.82032,1.96874 c 0.6044,0.2084 1.33536,-0.0588 1.66016,-0.60938 l 5.60156,-9.71484 c 0.3154,-0.5586 0.1776,-1.3318 -0.3086,-1.75 l -4.63672,-4.0664 c 0.164,-1.091 0.26172,-2.19152 0.26172,-3.32812 0,-1.1364 -0.0992,-2.23342 -0.26172,-3.32422 l 4.63672,-4.06642 c 0.4862,-0.4182 0.624,-1.1914 0.3086,-1.75 l -5.60156,-9.71484 c -0.3248,-0.5508 -1.05576,-0.82168 -1.66016,-0.61328 L 254.09,478.5119 c -1.7488,-1.4 -3.74268,-2.5417 -5.86328,-3.3711 l -1.17968,-5.99218 c -0.12,-0.6274 -0.71688,-1.12792 -1.35548,-1.13672 h -11.20312 c -0.044,-0.001 -0.085,-0.001 -0.129,0 z"
       style="display:inline;fill:url(#linearGradient5326);fill-opacity:1;stroke:none;stroke-width:4;stroke-linecap:round;stroke-linejoin:round;stroke-miterlimit:4;stroke-dasharray:none;stroke-opacity:1;enable-background:new" />
    <rect
       style="display:inline;opacity:1;fill:#f5f5f5;fill-opacity:1;stroke:none;stroke-width:2;stroke-linecap:round;stroke-linejoin:round;stroke-miterlimit:4;stroke-dasharray:none;stroke-opacity:1;enable-background:new"
       id="rect4406"
       width="1.99998"
       height="2"
       x="23"
       y="516"
       inkscape:export-filename="/home/peter/Bureaublad/applications-system.png"
       inkscape:export-xdpi="90"
       inkscape:export-ydpi="90" />
    <rect
       y="519"
       x="23"
       height="5"
       width="1.99998"
       id="rect4408"
       style="display:inline;opacity:1;fill:#f5f5f5;fill-opacity:1;stroke:none;stroke-width:2;stroke-linecap:round;stroke-linejoin:round;stroke-miterlimit:4;stroke-dasharray:none;stroke-opacity:1;enable-background:new"
       inkscape:export-filename="/home/peter/Bureaublad/applications-system.png"
       inkscape:export-xdpi="90"
       inkscape:export-ydpi="90" />
    <path
       id="path4593"
       d="M 240.09961 473.59961 A 22.4 22.4 0 0 0 229.16992 476.47852 L 229.15625 476.46875 C 228.99137 476.56049 228.83635 476.66636 228.67383 476.76172 A 22.4 22.4 0 0 0 227.77344 477.31055 C 227.19291 477.68741 226.62621 478.08234 226.08984 478.51172 L 220.27344 476.53906 C 219.66884 476.33066 218.93418 476.60186 218.60938 477.15234 L 213.00781 486.86719 C 212.69241 487.42579 212.83023 488.19899 213.31641 488.61719 L 217.95312 492.68359 C 217.92667 492.85953 217.91671 493.03834 217.89453 493.21484 A 22.4 22.4 0 0 0 217.79297 494.12305 C 217.78376 494.22773 217.76584 494.33051 217.75781 494.43555 L 217.77734 494.44336 A 22.4 22.4 0 0 0 217.69922 496 A 22.4 22.4 0 0 0 240.09961 518.40039 A 22.4 22.4 0 0 0 252.04492 514.93945 A 22.4 22.4 0 0 0 252.04688 514.9375 A 22.4 22.4 0 0 0 252.42969 514.6875 C 253.00142 514.31665 253.56191 513.93046 254.08984 513.50781 L 259.91016 515.47656 C 260.51456 515.68496 261.24551 515.41777 261.57031 514.86719 L 267.17188 505.15234 C 267.48728 504.59374 267.34948 503.82054 266.86328 503.40234 L 262.22656 499.33594 C 262.23502 499.27966 262.23804 499.22236 262.24609 499.16602 A 22.4 22.4 0 0 0 262.41016 497.76367 A 22.4 22.4 0 0 0 262.5 496 A 22.4 22.4 0 0 0 240.09961 473.59961 z M 237 484 L 243 484 L 243 490 L 237 490 L 237 484 z M 237 493 L 243 493 L 243 508 L 237 508 L 237 493 z "
       style="display:inline;fill:#000000;fill-opacity:0.2;stroke:none;stroke-width:4;stroke-linecap:round;stroke-linejoin:round;stroke-miterlimit:4;stroke-dasharray:none;stroke-opacity:1;enable-background:new;filter:url(#filter4595)" />
    <path
       style="display:inline;fill:#000000;fill-opacity:0.1;stroke:none;stroke-width:4;stroke-linecap:round;stroke-linejoin:round;stroke-miterlimit:4;stroke-dasharray:none;stroke-opacity:1;enable-background:new;filter:url(#filter4601)"
       d="m 240.09961,474.59922 a 22.4,22.4 0 0 0 -10.92969,2.87891 l -0.0137,-0.01 c -0.16488,0.0917 -0.3199,0.19761 -0.48242,0.29297 a 22.4,22.4 0 0 0 -0.90039,0.54883 c -0.58053,0.37686 -1.14723,0.77179 -1.6836,1.20117 l -5.8164,-1.97266 c -0.6046,-0.2084 -1.33926,0.0628 -1.66406,0.61328 l -5.60157,9.71485 c -0.3154,0.5586 -0.17758,1.3318 0.3086,1.75 l 4.63671,4.0664 c -0.0265,0.17594 -0.0364,0.35475 -0.0586,0.53125 a 22.4,22.4 0 0 0 -0.10156,0.90821 c -0.009,0.10468 -0.0271,0.20746 -0.0352,0.3125 l 0.0195,0.008 a 22.4,22.4 0 0 0 -0.0781,1.55664 22.4,22.4 0 0 0 22.40039,22.40039 22.4,22.4 0 0 0 11.94531,-3.46094 22.4,22.4 0 0 0 0.002,-0.002 22.4,22.4 0 0 0 0.38281,-0.25 c 0.57173,-0.37085 1.13222,-0.75704 1.66015,-1.17969 l 5.82032,1.96875 c 0.6044,0.2084 1.33535,-0.0588 1.66015,-0.60937 l 5.60157,-9.71485 c 0.3154,-0.5586 0.1776,-1.3318 -0.3086,-1.75 l -4.63672,-4.0664 c 0.008,-0.0563 0.0115,-0.11358 0.0195,-0.16992 a 22.4,22.4 0 0 0 0.16407,-1.40235 22.4,22.4 0 0 0 0.0898,-1.76367 22.4,22.4 0 0 0 -22.40039,-22.40039 z M 237,484.99961 h 6 v 6 h -6 z m 0,9 h 6 v 15 h -6 z"
       id="path4599"
       inkscape:connector-curvature="0" />
    <path
       style="display:inline;fill:#ededed;fill-opacity:1;stroke:none;stroke-width:4;stroke-linecap:round;stroke-linejoin:round;stroke-miterlimit:4;stroke-dasharray:none;stroke-opacity:1;enable-background:new"
       d="M 240.09961 473.59961 A 22.4 22.4 0 0 0 229.16992 476.47852 L 229.15625 476.46875 C 228.99137 476.56049 228.83635 476.66636 228.67383 476.76172 A 22.4 22.4 0 0 0 227.77344 477.31055 C 227.19291 477.68741 226.62621 478.08234 226.08984 478.51172 L 220.27344 476.53906 C 219.66884 476.33066 218.93418 476.60186 218.60938 477.15234 L 213.00781 486.86719 C 212.69241 487.42579 212.83023 488.19899 213.31641 488.61719 L 217.95312 492.68359 C 217.92667 492.85953 217.91671 493.03834 217.89453 493.21484 A 22.4 22.4 0 0 0 217.79297 494.12305 C 217.78376 494.22773 217.76584 494.33051 217.75781 494.43555 L 217.77734 494.44336 A 22.4 22.4 0 0 0 217.69922 496 A 22.4 22.4 0 0 0 240.09961 518.40039 A 22.4 22.4 0 0 0 252.04492 514.93945 A 22.4 22.4 0 0 0 252.04688 514.9375 A 22.4 22.4 0 0 0 252.42969 514.6875 C 253.00142 514.31665 253.56191 513.93046 254.08984 513.50781 L 259.91016 515.47656 C 260.51456 515.68496 261.24551 515.41777 261.57031 514.86719 L 267.17188 505.15234 C 267.48728 504.59374 267.34948 503.82054 266.86328 503.40234 L 262.22656 499.33594 C 262.23502 499.27966 262.23804 499.22236 262.24609 499.16602 A 22.4 22.4 0 0 0 262.41016 497.76367 A 22.4 22.4 0 0 0 262.5 496 A 22.4 22.4 0 0 0 240.09961 473.59961 z M 237 484 L 243 484 L 243 490 L 237 490 L 237 484 z M 237 493 L 243 493 L 243 508 L 237 508 L 237 493 z "
       id="path4567" />
    <path
       style="display:inline;fill:#ffffff;fill-opacity:0.2;stroke:none;stroke-width:4;stroke-linecap:round;stroke-linejoin:round;stroke-miterlimit:4;stroke-dasharray:none;stroke-opacity:1;enable-background:new"
       d="M 240.09961 473.59961 A 22.4 22.4 0 0 0 229.16992 476.47852 L 229.15625 476.46875 C 228.99137 476.56049 228.83635 476.66636 228.67383 476.76172 A 22.4 22.4 0 0 0 227.77344 477.31055 C 227.19291 477.68741 226.62621 478.08234 226.08984 478.51172 L 220.27344 476.53906 C 219.66884 476.33066 218.93418 476.60186 218.60938 477.15234 L 213.00781 486.86719 C 212.80671 487.22335 212.809 487.65996 212.94922 488.04297 C 212.97147 487.98486 212.97701 487.92174 213.00781 487.86719 L 218.60938 478.15234 C 218.93418 477.60186 219.66884 477.33066 220.27344 477.53906 L 226.08984 479.51172 C 226.62621 479.08234 227.19291 478.68741 227.77344 478.31055 A 22.4 22.4 0 0 1 228.67383 477.76172 C 228.83635 477.66636 228.99137 477.56045 229.15625 477.46875 L 229.16992 477.47852 A 22.4 22.4 0 0 1 240.09961 474.59961 A 22.4 22.4 0 0 1 262.47461 496.49414 A 22.4 22.4 0 0 0 262.5 496 A 22.4 22.4 0 0 0 240.09961 473.59961 z M 237 490 L 237 491 L 243 491 L 243 490 L 237 490 z M 217.85156 493.5957 A 22.4 22.4 0 0 0 217.79297 494.12305 C 217.78376 494.22773 217.76584 494.33051 217.75781 494.43555 L 217.77734 494.44336 A 22.4 22.4 0 0 0 217.69922 496 A 22.4 22.4 0 0 0 217.72461 496.50195 A 22.4 22.4 0 0 1 217.77734 495.44336 L 217.75781 495.43555 C 217.76591 495.33051 217.78397 495.22773 217.79297 495.12305 A 22.4 22.4 0 0 1 217.89453 494.21484 C 217.91673 494.03834 217.92663 493.85953 217.95312 493.68359 L 217.85156 493.5957 z M 262.33203 499.42969 A 22.4 22.4 0 0 1 262.24609 500.16602 C 262.23809 500.22236 262.23456 500.27964 262.22656 500.33594 L 266.86328 504.40234 C 267.03948 504.5539 267.15077 504.75887 267.23047 504.97656 C 267.43649 504.43948 267.30219 503.77986 266.86328 503.40234 L 262.33203 499.42969 z M 237 508 L 237 509 L 243 509 L 243 508 L 237 508 z "
       id="path4605" />
    <path
       id="path4586"
       d="M 168.00977 488 A 15.999793 15.999793 0 0 0 160.20312 490.05664 L 160.19336 490.04883 C 160.07559 490.11433 159.96569 490.19166 159.84961 490.25977 A 15.999793 15.999793 0 0 0 159.20508 490.65039 C 158.79042 490.91957 158.38702 491.20307 158.00391 491.50977 L 153.84766 490.09961 C 153.41581 489.95076 152.89216 490.14396 152.66016 490.53711 L 148.6582 497.47656 C 148.43292 497.87556 148.53164 498.42785 148.87891 498.72656 L 152.19141 501.63086 C 152.17251 501.75653 152.16434 501.88565 152.14844 502.01172 A 15.999793 15.999793 0 0 0 152.07617 502.66016 C 152.07017 502.73496 152.05843 502.80779 152.05273 502.88281 L 152.06641 502.88867 A 15.999793 15.999793 0 0 0 152.00977 504 A 15.999793 15.999793 0 0 0 168.00977 520.00195 A 15.999793 15.999793 0 0 0 176.54297 517.5293 A 15.999793 15.999793 0 0 0 176.54297 517.52734 A 15.999793 15.999793 0 0 0 176.81641 517.34961 C 177.22478 517.08472 177.62486 516.80775 178.00195 516.50586 L 182.16016 517.91211 C 182.59187 518.06097 183.1137 517.87178 183.3457 517.47852 L 187.3457 510.53906 C 187.57098 510.14007 187.47423 509.58777 187.12695 509.28906 L 183.81445 506.38477 C 183.82045 506.34457 183.82222 506.30394 183.82812 506.26367 A 15.999793 15.999793 0 0 0 183.94531 505.26172 A 15.999793 15.999793 0 0 0 184.00977 504.00195 A 15.999793 15.999793 0 0 0 168.00977 488.00195 L 168.00977 488 z M 166 496 L 170 496 L 170 500 L 166 500 L 166 496 z M 166 502 L 170 502 L 170 512 L 166 512 L 166 502 z "
       style="display:inline;fill:#000000;fill-opacity:0.2;stroke:none;stroke-width:2.85710597;stroke-linecap:round;stroke-linejoin:round;stroke-miterlimit:4;stroke-dasharray:none;stroke-opacity:1;enable-background:new;filter:url(#filter4588)" />
    <path
       style="display:inline;fill:#000000;fill-opacity:0.2;stroke:none;stroke-width:2.85710597;stroke-linecap:round;stroke-linejoin:round;stroke-miterlimit:4;stroke-dasharray:none;stroke-opacity:1;enable-background:new;filter:url(#filter4591)"
       d="m 168.00977,489 a 15.999793,15.999793 0 0 0 -7.80665,2.05664 l -0.01,-0.008 c -0.11777,0.0655 -0.22767,0.14283 -0.34375,0.21094 a 15.999793,15.999793 0 0 0 -0.64453,0.39062 c -0.41466,0.26918 -0.81806,0.55268 -1.20117,0.85938 l -4.15625,-1.41016 c -0.43185,-0.14885 -0.9555,0.0444 -1.1875,0.4375 l -3.9961,6.92969 c 0.0538,0.0966 0.12074,0.18332 0.20508,0.25586 l 3.3125,2.90625 c -0.0447,0.29901 -0.0756,0.60061 -0.10547,0.90234 l 0.11524,0.0996 c -0.0189,0.12567 -0.0271,0.25479 -0.043,0.38086 a 15.999793,15.999793 0 0 0 -0.0723,0.64844 c -0.006,0.0748 -0.0177,0.14763 -0.0234,0.22265 l 0.0137,0.006 a 15.999793,15.999793 0 0 0 -0.043,0.82813 c 0.0281,0.5607 0.0763,1.11405 0.1582,1.66211 l -0.0977,0.0859 a 15.999793,15.999793 0 0 0 5.11329,10.3086 l 0.79687,-0.26953 c 1.2492,0.9999 2.6728,1.81385 4.1875,2.40625 l 0.20898,1.06445 a 15.999793,15.999793 0 0 0 5.61915,1.02734 15.999793,15.999793 0 0 0 5.58789,-1.0332 l 0.20898,-1.05859 c 1.5147,-0.5924 2.9384,-1.40635 4.1875,-2.40625 l 4.15625,1.40625 c 0.4318,0.1489 0.9555,-0.044 1.1875,-0.4375 l 3.99414,-6.92774 c -0.0536,-0.0957 -0.12145,-0.18392 -0.20508,-0.25586 l -3.3125,-2.90429 c 0.006,-0.0402 0.008,-0.0808 0.0137,-0.1211 a 15.999793,15.999793 0 0 0 0.0918,-0.78515 l -0.11328,-0.0996 c 0.0983,-0.65639 0.15359,-1.3193 0.17188,-1.9961 A 15.999793,15.999793 0 0 0 168.00977,489.00195 Z M 166,497 h 4 v 4 h -4 z m 0,6 h 4 v 10 h -4 z"
       id="path4596"
       inkscape:connector-curvature="0" />
    <path
       style="display:inline;fill:#ededed;fill-opacity:1;stroke:none;stroke-width:2.85710597;stroke-linecap:round;stroke-linejoin:round;stroke-miterlimit:4;stroke-dasharray:none;stroke-opacity:1;enable-background:new"
       d="m 168.00977,488 a 15.999793,15.999793 0 0 0 -7.80665,2.05664 l -0.01,-0.008 c -0.11777,0.0655 -0.22767,0.14283 -0.34375,0.21094 a 15.999793,15.999793 0 0 0 -0.64453,0.39062 c -0.41466,0.26918 -0.81806,0.55268 -1.20117,0.85938 l -4.15625,-1.41016 c -0.43185,-0.14885 -0.9555,0.0444 -1.1875,0.4375 l -4.00196,6.93945 c -0.22528,0.399 -0.12656,0.95129 0.22071,1.25 l 3.3125,2.9043 c -0.0189,0.12567 -0.0271,0.25479 -0.043,0.38086 a 15.999793,15.999793 0 0 0 -0.0723,0.64844 c -0.006,0.0748 -0.0177,0.14763 -0.0234,0.22265 l 0.0137,0.006 a 15.999793,15.999793 0 0 0 -0.0566,1.11133 15.999793,15.999793 0 0 0 16,16.00195 15.999793,15.999793 0 0 0 8.5332,-2.47265 15.999793,15.999793 0 0 0 0,-0.002 15.999793,15.999793 0 0 0 0.27344,-0.17773 c 0.40837,-0.26489 0.80845,-0.54186 1.18554,-0.84375 l 4.15821,1.40625 c 0.43171,0.14886 0.95354,-0.0403 1.18554,-0.43359 l 4,-6.93946 c 0.22528,-0.39899 0.12853,-0.95129 -0.21875,-1.25 l -3.3125,-2.90429 c 0.006,-0.0402 0.008,-0.0808 0.0137,-0.1211 a 15.999793,15.999793 0 0 0 0.11719,-1.00195 15.999793,15.999793 0 0 0 0.0645,-1.25977 15.999793,15.999793 0 0 0 -16,-16 z M 166,496 h 4 v 4 h -4 z m 0,6 h 4 v 10 h -4 z"
       id="path4574"
       inkscape:connector-curvature="0" />
    <path
       style="display:inline;fill:#ffffff;fill-opacity:0.2;stroke:none;stroke-width:2.85710597;stroke-linecap:round;stroke-linejoin:round;stroke-miterlimit:4;stroke-dasharray:none;stroke-opacity:1;enable-background:new"
       d="M 168.00977 488 A 15.999793 15.999793 0 0 0 160.20312 490.05664 L 160.19336 490.04883 C 160.07559 490.11433 159.96569 490.19166 159.84961 490.25977 A 15.999793 15.999793 0 0 0 159.20508 490.65039 C 158.79042 490.91957 158.38702 491.20307 158.00391 491.50977 L 153.84766 490.09961 C 153.41581 489.95076 152.89216 490.14396 152.66016 490.53711 L 148.6582 497.47656 C 148.48924 497.77581 148.50231 498.16088 148.66602 498.46094 L 152.66016 491.53711 C 152.89216 491.14401 153.41581 490.95076 153.84766 491.09961 L 158.00391 492.50977 C 158.38702 492.20307 158.79042 491.91957 159.20508 491.65039 A 15.999854 15.999793 0 0 1 159.84961 491.25977 C 159.96569 491.19166 160.07559 491.11433 160.19336 491.04883 L 160.20312 491.05664 A 15.999854 15.999793 0 0 1 168.00977 489 L 168.00977 489.00195 A 15.999854 15.999793 0 0 1 183.98438 504.49609 A 15.999793 15.999793 0 0 0 184.00977 504.00195 A 15.999793 15.999793 0 0 0 168.00977 488.00195 L 168.00977 488 z M 166 500 L 166 501 L 170 501 L 170 500 L 166 500 z M 152.08984 502.54102 A 15.999793 15.999793 0 0 0 152.07617 502.66016 C 152.07017 502.73496 152.05843 502.80779 152.05273 502.88281 L 152.06641 502.88867 A 15.999793 15.999793 0 0 0 152.00977 504 A 15.999793 15.999793 0 0 0 152.03516 504.50391 A 15.999854 15.999793 0 0 1 152.06641 503.88867 L 152.05273 503.88281 C 152.05843 503.80779 152.07017 503.73496 152.07617 503.66016 A 15.999854 15.999793 0 0 1 152.14844 503.01172 C 152.16434 502.88565 152.17251 502.75653 152.19141 502.63086 L 152.08984 502.54102 z M 183.91992 506.47656 A 15.999854 15.999793 0 0 1 183.82812 507.26367 C 183.82243 507.30397 183.82045 507.34457 183.81445 507.38477 L 187.12695 510.28906 C 187.21307 510.36314 187.28367 510.45367 187.33789 510.55273 L 187.3457 510.53906 C 187.57098 510.14007 187.47423 509.58777 187.12695 509.28906 L 183.91992 506.47656 z M 166 512 L 166 513 L 170 513 L 170 512 L 166 512 z "
       id="path4601" />
    <path
       style="display:inline;fill:#000000;fill-opacity:0.2;stroke:none;stroke-width:1.99998188;stroke-linecap:round;stroke-linejoin:round;stroke-miterlimit:4;stroke-dasharray:none;stroke-opacity:1;enable-background:new"
       d="M 112 501.80078 A 11.199898 11.199898 0 0 0 106.53516 503.24023 L 106.52734 503.23438 C 106.44494 503.28028 106.36837 503.33318 106.28711 503.38086 A 11.199898 11.199898 0 0 0 105.83594 503.6543 C 105.54567 503.84273 105.26426 504.04117 104.99609 504.25586 L 102.08594 503.26953 C 101.78364 503.16534 101.41826 503.30103 101.25586 503.57617 L 98.560547 508.24805 C 98.577827 508.26704 98.58784 508.29175 98.607422 508.30859 L 100.92578 510.3418 C 100.88039 510.64367 100.84868 510.94724 100.82617 511.25391 L 100.92773 511.3418 C 100.91453 511.4298 100.90748 511.51917 100.89648 511.60742 A 11.199898 11.199898 0 0 0 100.8457 512.0625 C 100.8417 512.1149 100.83408 512.16428 100.83008 512.2168 L 100.83984 512.2207 A 11.199898 11.199898 0 0 0 100.82031 512.61133 C 100.84183 512.96644 100.87395 513.31974 100.92578 513.66797 L 100.83789 513.74414 A 11.199898 11.199898 0 0 0 104.18945 521.02734 L 104.99414 520.75391 C 105.86854 521.45391 106.86548 522.02475 107.92578 522.43945 L 108.13672 523.50391 A 11.199898 11.199898 0 0 0 112 524.20117 A 11.199898 11.199898 0 0 0 115.85352 523.5 L 116.0625 522.43945 C 117.1228 522.02475 118.11974 521.45391 118.99414 520.75391 L 121.9043 521.73828 C 122.2065 521.84248 122.57198 521.70889 122.73438 521.43359 L 125.42969 516.75977 C 125.41301 516.7416 125.40162 516.7193 125.38281 516.70312 L 123.06445 514.66992 C 123.06845 514.64182 123.07022 514.61218 123.07422 514.58398 A 11.199898 11.199898 0 0 0 123.15625 513.88281 A 11.199898 11.199898 0 0 0 123.16211 513.75586 L 123.0625 513.66797 C 123.12143 513.27597 123.15679 512.87796 123.17578 512.47656 A 11.199898 11.199898 0 0 0 112 501.80078 z M 110 506 L 114 506 L 114 510 L 113 510 L 111 510 L 110 510 L 110 506 z M 110 512 L 111 512 L 113 512 L 114 512 L 114 520 L 110 520 L 110 512 z "
       id="path4625" />
    <path
       id="path4650"
       d="M 112 500.80078 A 11.199898 11.199898 0 0 0 106.53516 502.24023 L 106.52734 502.23438 C 106.44494 502.28028 106.36837 502.3332 106.28711 502.38086 A 11.199898 11.199898 0 0 0 105.83594 502.6543 C 105.54567 502.84273 105.26426 503.04117 104.99609 503.25586 L 102.08594 502.26953 C 101.78364 502.16534 101.41826 502.30102 101.25586 502.57617 L 98.453125 507.43359 C 98.295428 507.71289 98.364335 508.09949 98.607422 508.30859 L 100.92773 510.3418 C 100.91453 510.4298 100.90758 510.51917 100.89648 510.60742 A 11.199898 11.199898 0 0 0 100.8457 511.0625 C 100.8417 511.1149 100.83408 511.16428 100.83008 511.2168 L 100.83984 511.2207 A 11.199898 11.199898 0 0 0 100.80078 512 A 11.199898 11.199898 0 0 0 112 523.20117 A 11.199898 11.199898 0 0 0 117.97266 521.4707 A 11.199898 11.199898 0 0 0 117.97266 521.46875 A 11.199898 11.199898 0 0 0 118.16406 521.3457 C 118.44992 521.16027 118.73018 520.96523 118.99414 520.75391 L 121.90625 521.73828 C 122.20845 521.84248 122.57393 521.71087 122.73633 521.43555 L 125.53516 516.57812 C 125.69286 516.29885 125.62593 515.91224 125.38281 515.70312 L 123.06445 513.66992 C 123.06845 513.64182 123.07022 513.61218 123.07422 513.58398 A 11.199898 11.199898 0 0 0 123.15625 512.88281 A 11.199898 11.199898 0 0 0 123.20117 512.00195 A 11.199898 11.199898 0 0 0 112 500.80078 z M 110 505 L 114 505 L 114 509 L 113 509 L 111 509 L 110 509 L 110 505 z M 110 511 L 111 511 L 113 511 L 114 511 L 114 519 L 110 519 L 110 511 z "
       style="display:inline;fill:#000000;fill-opacity:0.2;stroke:none;stroke-width:1.99998188;stroke-linecap:round;stroke-linejoin:round;stroke-miterlimit:4;stroke-dasharray:none;stroke-opacity:1;enable-background:new;filter:url(#filter4652)" />
    <path
       style="display:inline;fill:#ededed;fill-opacity:1;stroke:none;stroke-width:1.99998188;stroke-linecap:round;stroke-linejoin:round;stroke-miterlimit:4;stroke-dasharray:none;stroke-opacity:1;enable-background:new"
       d="M 112 500.80078 A 11.199898 11.199898 0 0 0 106.53516 502.24023 L 106.52734 502.23438 C 106.44494 502.28028 106.36837 502.3332 106.28711 502.38086 A 11.199898 11.199898 0 0 0 105.83594 502.6543 C 105.54567 502.84273 105.26426 503.04117 104.99609 503.25586 L 102.08594 502.26953 C 101.78364 502.16534 101.41826 502.30102 101.25586 502.57617 L 98.453125 507.43359 C 98.295428 507.71289 98.364335 508.09949 98.607422 508.30859 L 100.92773 510.3418 C 100.91453 510.4298 100.90758 510.51917 100.89648 510.60742 A 11.199898 11.199898 0 0 0 100.8457 511.0625 C 100.8417 511.1149 100.83408 511.16428 100.83008 511.2168 L 100.83984 511.2207 A 11.199898 11.199898 0 0 0 100.80078 512 A 11.199898 11.199898 0 0 0 112 523.20117 A 11.199898 11.199898 0 0 0 117.97266 521.4707 A 11.199898 11.199898 0 0 0 117.97266 521.46875 A 11.199898 11.199898 0 0 0 118.16406 521.3457 C 118.44992 521.16027 118.73018 520.96523 118.99414 520.75391 L 121.90625 521.73828 C 122.20845 521.84248 122.57393 521.71087 122.73633 521.43555 L 125.53516 516.57812 C 125.69286 516.29885 125.62593 515.91224 125.38281 515.70312 L 123.06445 513.66992 C 123.06845 513.64182 123.07022 513.61218 123.07422 513.58398 A 11.199898 11.199898 0 0 0 123.15625 512.88281 A 11.199898 11.199898 0 0 0 123.20117 512.00195 A 11.199898 11.199898 0 0 0 112 500.80078 z M 110 505 L 114 505 L 114 509 L 113 509 L 111 509 L 110 509 L 110 505 z M 110 511 L 111 511 L 113 511 L 114 511 L 114 519 L 110 519 L 110 511 z "
       id="path4606" />
    <path
       style="display:inline;fill:#ffffff;fill-opacity:0.2;stroke:none;stroke-width:1.99998188;stroke-linecap:round;stroke-linejoin:round;stroke-miterlimit:4;stroke-dasharray:none;stroke-opacity:1;enable-background:new"
       d="M 112 500.80078 A 11.199898 11.199898 0 0 0 106.53516 502.24023 L 106.52734 502.23438 C 106.44494 502.28028 106.36837 502.3332 106.28711 502.38086 A 11.199898 11.199898 0 0 0 105.83594 502.6543 C 105.54567 502.84273 105.26426 503.04117 104.99609 503.25586 L 102.08594 502.26953 C 101.78364 502.16534 101.41826 502.30102 101.25586 502.57617 L 98.453125 507.43359 C 98.308131 507.6904 98.363154 508.0312 98.560547 508.24805 L 101.25586 503.57617 C 101.41826 503.30103 101.78364 503.16534 102.08594 503.26953 L 104.99609 504.25586 C 105.26426 504.04117 105.54567 503.84273 105.83594 503.6543 A 11.199898 11.199898 0 0 1 106.28711 503.38086 C 106.36837 503.33318 106.44494 503.28028 106.52734 503.23438 L 106.53516 503.24023 A 11.199898 11.199898 0 0 1 112 501.80078 A 11.199898 11.199898 0 0 1 123.17578 512.49219 A 11.199898 11.199898 0 0 0 123.20117 512.00195 A 11.199898 11.199898 0 0 0 112 500.80078 z M 110 509 L 110 510 L 111 510 L 113 510 L 114 510 L 114 509 L 113 509 L 111 509 L 110 509 z M 100.83789 511.26367 A 11.199898 11.199898 0 0 0 100.80078 512 A 11.199898 11.199898 0 0 0 100.82617 512.49805 A 11.199898 11.199898 0 0 1 100.83984 512.2207 L 100.83008 512.2168 C 100.83408 512.16428 100.8417 512.1149 100.8457 512.0625 A 11.199898 11.199898 0 0 1 100.89648 511.60742 C 100.90748 511.51917 100.91453 511.4298 100.92773 511.3418 L 100.83789 511.26367 z M 123.16211 513.75586 A 11.199898 11.199898 0 0 1 123.15625 513.88281 A 11.199898 11.199898 0 0 1 123.07422 514.58398 C 123.07022 514.61218 123.06845 514.64182 123.06445 514.66992 L 125.38281 516.70312 C 125.40201 516.71963 125.41271 516.74314 125.42969 516.76172 L 125.53516 516.57812 C 125.69286 516.29886 125.62593 515.91224 125.38281 515.70312 L 123.16211 513.75586 z M 110 519 L 110 520 L 114 520 L 114 519 L 110 519 z "
       id="path4620" />
    <path
       style="display:inline;fill:#000000;fill-opacity:0.2;stroke:none;stroke-width:1.42857206;stroke-linecap:round;stroke-linejoin:round;stroke-miterlimit:4;stroke-dasharray:none;stroke-opacity:1;enable-background:new"
       d="M 63.998047 509.00195 A 8.0000028 8.0000028 0 0 0 60.095703 510.0293 L 60.089844 510.02539 C 60.030984 510.05819 59.976012 510.09679 59.917969 510.13086 A 8.0000028 8.0000028 0 0 0 59.595703 510.32617 C 59.388365 510.46076 59.187646 510.60251 58.996094 510.75586 L 56.917969 510.05078 C 56.702038 509.97638 56.44022 510.07298 56.324219 510.26953 L 54.501953 513.42578 L 56.087891 514.81641 C 56.042054 515.12272 56.025123 515.43516 56.013672 515.75 L 56.089844 515.81641 C 56.080444 515.87931 56.076289 515.94283 56.068359 516.00586 A 8.0000028 8.0000028 0 0 0 56.03125 516.33203 C 56.029646 516.35271 56.027828 516.37268 56.025391 516.39258 C 56.040079 516.66033 56.048675 516.92927 56.087891 517.19141 L 56.011719 517.25781 A 8.0000028 8.0000028 0 0 0 58.216797 522.51758 L 58.994141 522.25391 C 59.618751 522.75391 60.330501 523.16083 61.087891 523.45703 L 61.298828 524.52344 A 8.0000028 8.0000028 0 0 0 64 525.00195 A 8.0000028 8.0000028 0 0 0 66.689453 524.52344 L 66.900391 523.45703 C 67.657771 523.16083 68.369531 522.75391 68.994141 522.25391 L 71.074219 522.95703 C 71.290119 523.03203 71.551979 522.93508 71.667969 522.73828 L 73.486328 519.58398 L 71.902344 518.19336 C 71.905244 518.17326 71.907356 518.15301 71.910156 518.13281 A 8.0000028 8.0000028 0 0 0 71.96875 517.63281 A 8.0000028 8.0000028 0 0 0 71.986328 517.26562 L 71.902344 517.19141 C 71.943385 516.91707 71.954767 516.63613 71.96875 516.35547 A 8.0000028 8.0000028 0 0 0 63.998047 509.00195 z M 63 513 L 65 513 L 65 515 L 63 515 L 63 513 z M 63 516 L 65 516 L 65 521 L 63 521 L 63 516 z "
       id="path4645" />
    <path
       id="path4656"
       d="M 63.998047 508.00195 A 8.0000028 8.0000028 0 0 0 60.095703 509.0293 L 60.089844 509.02539 C 60.030984 509.05819 59.976012 509.09683 59.917969 509.13086 A 8.0000028 8.0000028 0 0 0 59.595703 509.32617 C 59.388365 509.46076 59.187646 509.60251 58.996094 509.75586 L 56.917969 509.05078 C 56.702038 508.97638 56.44022 509.073 56.324219 509.26953 L 54.322266 512.73828 C 54.209624 512.93778 54.259961 513.21392 54.433594 513.36328 L 56.089844 514.81641 C 56.080444 514.87931 56.076289 514.94283 56.068359 515.00586 A 8.0000028 8.0000028 0 0 0 56.03125 515.33203 C 56.02835 515.36943 56.022391 515.40389 56.019531 515.44141 L 56.027344 515.44531 A 8.0000028 8.0000028 0 0 0 56 516.00195 A 8.0000028 8.0000028 0 0 0 64 524.00195 A 8.0000028 8.0000028 0 0 0 68.265625 522.76562 A 8.0000028 8.0000028 0 0 0 68.402344 522.67773 C 68.606531 522.54527 68.805596 522.40486 68.994141 522.25391 L 71.074219 522.95703 C 71.290078 523.03143 71.551968 522.93882 71.667969 522.74219 L 73.667969 519.27148 C 73.780613 519.072 73.732277 518.79586 73.558594 518.64648 L 71.902344 517.19336 C 71.905244 517.17326 71.907356 517.15301 71.910156 517.13281 A 8.0000028 8.0000028 0 0 0 71.96875 516.63281 A 8.0000028 8.0000028 0 0 0 72 516.00195 A 8.0000028 8.0000028 0 0 0 63.998047 508.00195 z M 63 512 L 65 512 L 65 514 L 63 514 L 63 512 z M 63 515 L 65 515 L 65 520 L 63 520 L 63 515 z "
       style="display:inline;fill:#000000;fill-opacity:0.2;stroke:none;stroke-width:1.42857206;stroke-linecap:round;stroke-linejoin:round;stroke-miterlimit:4;stroke-dasharray:none;stroke-opacity:1;enable-background:new;filter:url(#filter4662)" />
    <path
       style="display:inline;fill:#ededed;fill-opacity:1;stroke:none;stroke-width:1.42857206;stroke-linecap:round;stroke-linejoin:round;stroke-miterlimit:4;stroke-dasharray:none;stroke-opacity:1;enable-background:new"
       d="M 63.998047 508.00195 A 8.0000028 8.0000028 0 0 0 60.095703 509.0293 L 60.089844 509.02539 C 60.030984 509.05819 59.976012 509.09683 59.917969 509.13086 A 8.0000028 8.0000028 0 0 0 59.595703 509.32617 C 59.388365 509.46076 59.187646 509.60251 58.996094 509.75586 L 56.917969 509.05078 C 56.702038 508.97638 56.44022 509.073 56.324219 509.26953 L 54.322266 512.73828 C 54.209624 512.93778 54.259961 513.21392 54.433594 513.36328 L 56.089844 514.81641 C 56.080444 514.87931 56.076289 514.94283 56.068359 515.00586 A 8.0000028 8.0000028 0 0 0 56.03125 515.33203 C 56.02835 515.36943 56.022391 515.40389 56.019531 515.44141 L 56.027344 515.44531 A 8.0000028 8.0000028 0 0 0 56 516.00195 A 8.0000028 8.0000028 0 0 0 64 524.00195 A 8.0000028 8.0000028 0 0 0 68.265625 522.76562 A 8.0000028 8.0000028 0 0 0 68.402344 522.67773 C 68.606531 522.54527 68.805596 522.40486 68.994141 522.25391 L 71.074219 522.95703 C 71.290078 523.03143 71.551968 522.93882 71.667969 522.74219 L 73.667969 519.27148 C 73.780613 519.072 73.732277 518.79586 73.558594 518.64648 L 71.902344 517.19336 C 71.905244 517.17326 71.907356 517.15301 71.910156 517.13281 A 8.0000028 8.0000028 0 0 0 71.96875 516.63281 A 8.0000028 8.0000028 0 0 0 72 516.00195 A 8.0000028 8.0000028 0 0 0 63.998047 508.00195 z M 63 512 L 65 512 L 65 514 L 63 514 L 63 512 z M 63 515 L 65 515 L 65 520 L 63 520 L 63 515 z "
       id="path4633" />
    <path
       style="display:inline;fill:#ffffff;fill-opacity:0.2;stroke:none;stroke-width:1.42857206;stroke-linecap:round;stroke-linejoin:round;stroke-miterlimit:4;stroke-dasharray:none;stroke-opacity:1;enable-background:new"
       d="M 63.998047 508.00195 A 8.0000028 8.0000028 0 0 0 60.095703 509.0293 L 60.089844 509.02539 C 60.030984 509.05819 59.976012 509.09683 59.917969 509.13086 A 8.0000028 8.0000028 0 0 0 59.595703 509.32617 C 59.388365 509.46076 59.187646 509.60251 58.996094 509.75586 L 56.917969 509.05078 C 56.702038 508.97638 56.44022 509.073 56.324219 509.26953 L 54.322266 512.73828 C 54.209624 512.93778 54.259961 513.21392 54.433594 513.36328 L 54.503906 513.42383 L 56.324219 510.26953 C 56.44022 510.07298 56.702038 509.97638 56.917969 510.05078 L 58.996094 510.75586 C 59.187646 510.60251 59.388365 510.46076 59.595703 510.32617 A 8.0000028 8.0000028 0 0 1 59.917969 510.13086 C 59.976012 510.09679 60.030984 510.05819 60.089844 510.02539 L 60.095703 510.0293 A 8.0000028 8.0000028 0 0 1 63.998047 509.00195 A 8.0000028 8.0000028 0 0 1 71.974609 516.49805 A 8.0000028 8.0000028 0 0 0 72 516.00195 A 8.0000028 8.0000028 0 0 0 63.998047 508.00195 z M 63 514 L 63 515 L 65 515 L 65 514 L 63 514 z M 56.011719 515.74805 A 8.0000028 8.0000028 0 0 0 56 516.00195 A 8.0000028 8.0000028 0 0 0 56.021484 516.42969 C 56.024547 516.39676 56.028663 516.3654 56.03125 516.33203 A 8.0000028 8.0000028 0 0 1 56.068359 516.00586 C 56.076289 515.94283 56.080444 515.87931 56.089844 515.81641 L 56.011719 515.74805 z M 56.021484 516.44336 A 8.0000028 8.0000028 0 0 0 56.025391 516.50391 A 8.0000028 8.0000028 0 0 1 56.027344 516.44531 L 56.021484 516.44336 z M 71.986328 517.26758 A 8.0000028 8.0000028 0 0 1 71.96875 517.63281 A 8.0000028 8.0000028 0 0 1 71.910156 518.13281 C 71.907356 518.15301 71.905244 518.17326 71.902344 518.19336 L 73.488281 519.58398 L 73.667969 519.27148 C 73.780613 519.072 73.732277 518.79586 73.558594 518.64648 L 71.986328 517.26758 z M 63 520 L 63 521 L 65 521 L 65 520 L 63 520 z "
       id="path4640" />
    <path
       style="display:inline;fill:#000000;fill-opacity:0.2;stroke:none;stroke-width:31.99936485;stroke-linecap:round;stroke-linejoin:round;stroke-miterlimit:4;stroke-dasharray:none;stroke-opacity:1;enable-background:new"
       d="M 543.87305 94.751953 A 179.19645 179.19645 0 0 0 456.4375 117.78125 L 456.32812 117.70117 C 455.0091 118.43476 453.76888 119.28206 452.46875 120.04492 A 179.19645 179.19645 0 0 0 445.26562 124.43555 C 440.62147 127.45037 436.08772 130.60994 431.79688 134.04492 L 385.26562 118.26367 C 380.42892 116.5965 374.55343 118.76617 371.95508 123.16992 L 327.14258 200.88867 C 326.38649 202.22777 325.96345 203.72149 325.83594 205.24609 C 326.08776 208.14349 327.38963 210.95871 329.59961 212.85938 L 366.69727 245.41016 C 366.60856 246.00276 366.5292 246.59628 366.44531 247.18945 L 366.70508 247.41797 C 366.49308 248.82546 366.41392 250.256 366.23633 251.66797 A 179.19645 179.19645 0 0 0 365.42383 258.93359 C 365.35183 259.77101 365.20544 260.59329 365.14062 261.43359 L 365.29688 261.49805 A 179.19645 179.19645 0 0 0 364.67188 273.95117 A 179.19645 179.19645 0 0 0 365.35547 287.60742 C 365.70197 291.29567 366.15116 294.9566 366.69727 298.60742 L 366.60156 298.69141 A 179.19645 179.19645 0 0 0 430.38477 412.48438 L 431.79688 412.00586 C 445.78737 423.20526 461.73082 432.32058 478.69531 438.95508 L 479.10352 441.02734 A 179.19645 179.19645 0 0 0 543.87305 453.15039 A 179.19645 179.19645 0 0 0 608.52344 440.82812 L 608.89258 438.95508 C 625.85717 432.32058 641.80258 423.20526 655.79297 412.00586 L 702.3418 427.75586 C 707.1777 429.42346 713.04242 427.26177 715.64062 422.85547 L 760.43945 345.1582 C 761.19729 343.81617 761.62488 342.31723 761.75391 340.78906 C 761.49827 337.88866 760.18965 335.06985 757.97852 333.16797 L 720.88477 300.63672 C 720.94877 300.18633 720.97707 299.72805 721.04102 299.27734 A 179.19645 179.19645 0 0 0 721.09766 298.78906 L 720.89062 298.60742 C 721.67079 293.3955 722.26454 288.16402 722.61914 282.85938 A 179.19645 179.19645 0 0 0 722.87891 277.73828 C 722.94433 275.92257 722.98533 274.09861 722.98828 272.25977 A 179.19645 179.19645 0 0 0 543.87305 94.751953 z M 522 188 L 566 188 L 566 232 L 522 232 L 522 188 z M 522 253 L 566 253 L 566 360 L 522 360 L 522 253 z "
       id="path4673" />
    <path
       style="display:inline;fill:#ededed;fill-opacity:1;stroke:none;stroke-width:31.99936485;stroke-linecap:round;stroke-linejoin:round;stroke-miterlimit:4;stroke-dasharray:none;stroke-opacity:1;enable-background:new"
       d="M 543.87305 92.751953 A 179.19645 179.19645 0 0 0 456.4375 115.78125 L 456.32812 115.70117 C 455.0091 116.43476 453.76888 117.28206 452.46875 118.04492 A 179.19645 179.19645 0 0 0 445.26562 122.43555 C 440.62147 125.45037 436.08773 128.60994 431.79688 132.04492 L 385.26562 116.26367 C 380.42892 114.5965 374.55343 116.76617 371.95508 121.16992 L 327.14258 198.88867 C 324.61943 203.35738 325.72197 209.54119 329.61133 212.88672 L 366.70508 245.41797 C 366.49308 246.82546 366.41392 248.256 366.23633 249.66797 A 179.19645 179.19645 0 0 0 365.42383 256.93359 C 365.35183 257.77101 365.20543 258.59329 365.14062 259.43359 L 365.29688 259.49805 A 179.19645 179.19645 0 0 0 364.67188 271.95117 A 179.19645 179.19645 0 0 0 543.87305 451.15039 A 179.19645 179.19645 0 0 0 639.43359 423.46289 A 179.19645 179.19645 0 0 0 639.44922 423.44727 A 179.19645 179.19645 0 0 0 642.51172 421.44727 C 647.08547 418.48053 651.56962 415.3909 655.79297 412.00977 L 702.35352 427.75977 C 707.18862 429.42694 713.03642 427.28924 715.63477 422.88477 L 760.44727 345.16797 C 762.97042 340.69926 761.86804 334.5135 757.97852 331.16797 L 720.88477 298.63672 C 720.94877 298.18633 720.97702 297.72805 721.04102 297.27734 A 179.19645 179.19645 0 0 0 722.35352 286.05859 A 179.19645 179.19645 0 0 0 723.07227 271.95117 A 179.19645 179.19645 0 0 0 543.87305 92.751953 z M 522 186 L 566 186 L 566 230 L 522 230 L 522 186 z M 522 251 L 566 251 L 566 358 L 522 358 L 522 251 z "
       id="path4666" />
    <path
       style="display:inline;fill:#ffffff;fill-opacity:0.2;stroke:none;stroke-width:31.99936485;stroke-linecap:round;stroke-linejoin:round;stroke-miterlimit:4;stroke-dasharray:none;stroke-opacity:1;enable-background:new"
       d="M 543.87305 92.751953 A 179.19645 179.19645 0 0 0 456.4375 115.78125 L 456.32812 115.70117 C 455.0091 116.43476 453.76888 117.28206 452.46875 118.04492 A 179.19645 179.19645 0 0 0 445.26562 122.43555 C 440.62147 125.45037 436.08772 128.60994 431.79688 132.04492 L 385.26562 116.26367 C 380.42892 114.5965 374.55343 116.76617 371.95508 121.16992 L 327.14258 198.88867 C 326.06825 200.7914 325.65647 203.00461 325.83203 205.17773 C 325.95623 203.64224 326.3813 202.13736 327.14258 200.78906 L 371.95508 123.07031 C 374.55343 118.66656 380.42892 116.49689 385.26562 118.16406 L 431.79688 133.94531 C 436.08773 130.51033 440.62147 127.35076 445.26562 124.33594 A 179.19651 179.19645 0 0 1 452.46875 119.94531 C 453.76888 119.18245 455.0091 118.33515 456.32812 117.60156 L 456.4375 117.68164 A 179.19651 179.19645 0 0 1 543.87305 94.652344 A 179.19651 179.19645 0 0 1 723.02344 272.89258 A 179.19645 179.19645 0 0 0 723.07227 271.95117 A 179.19645 179.19645 0 0 0 543.87305 92.751953 z M 522 230 L 522 231.90039 L 566 231.90039 L 566 230 L 522 230 z M 366.50391 247.14258 C 366.41944 247.98545 366.34179 248.82948 366.23633 249.66797 A 179.19645 179.19645 0 0 0 365.42383 256.93359 C 365.35183 257.77101 365.20544 258.59329 365.14062 259.43359 L 365.29688 259.49805 A 179.19645 179.19645 0 0 0 365.25586 260.31836 C 365.31841 259.82488 365.38108 259.3312 365.42383 258.83398 A 179.19651 179.19645 0 0 1 366.23633 251.56836 C 366.41392 250.15639 366.49308 248.72585 366.70508 247.31836 L 366.50391 247.14258 z M 365.20312 261.35938 A 179.19645 179.19645 0 0 0 364.67188 271.95117 A 179.19645 179.19645 0 0 0 364.71875 272.90234 A 179.19651 179.19645 0 0 1 365.29688 261.39844 L 365.20312 261.35938 z M 721.08398 298.81055 A 179.19651 179.19645 0 0 1 721.04102 299.17773 C 720.97707 299.62844 720.94877 300.08672 720.88477 300.53711 L 757.97852 333.06836 C 760.21192 334.9894 761.52108 337.84618 761.75781 340.77734 C 762.04464 337.2237 760.694 333.50366 757.97852 331.16797 L 721.08398 298.81055 z M 522 358 L 522 359.90039 L 566 359.90039 L 566 358 L 522 358 z "
       id="path4688" />
    <path
       style="display:inline;fill:#ffffff;fill-opacity:0.2;stroke:none;enable-background:new"
       d="M 497.94531 48.013672 C 493.19641 48.531272 489.01428 52.415881 488.14648 57.113281 L 478.69531 105.0625 C 461.73082 111.6969 445.78737 120.81222 431.79688 132.01172 L 385.24805 116.26172 C 380.41215 114.59422 374.54557 116.75581 371.94727 121.16211 L 327.14844 198.85938 C 326.06052 200.78602 325.64535 203.03289 325.83398 205.23242 C 325.96259 203.70289 326.38998 202.20451 327.14844 200.86133 L 371.94727 123.16211 C 374.54557 118.75581 380.41215 116.59422 385.24805 118.26172 L 431.79688 134.01172 C 445.78737 122.81222 461.73082 113.6969 478.69531 107.0625 L 488.14648 59.113281 C 489.01428 54.415881 493.19641 50.531272 497.94531 50.013672 C 498.29461 50.003672 498.64649 50.003672 498.99609 50.013672 L 588.59375 50.013672 C 593.70305 50.083172 598.48536 54.094081 599.44336 59.113281 L 608.89258 107.0625 C 625.85717 113.6969 641.80258 122.81222 655.79297 134.01172 L 702.3418 118.26172 C 707.1777 116.59422 713.04242 118.75581 715.64062 123.16211 L 760.43945 200.86133 C 761.19761 202.20393 761.62508 203.70163 761.75391 205.23047 C 761.94212 203.03155 761.5271 200.78546 760.43945 198.85938 L 715.64062 121.16211 C 713.04242 116.75581 707.1777 114.59422 702.3418 116.26172 L 655.79297 132.01172 C 641.80258 120.81222 625.85717 111.6969 608.89258 105.0625 L 599.44336 57.113281 C 598.48536 52.094081 593.70305 48.083172 588.59375 48.013672 L 498.99609 48.013672 C 498.64649 48.003672 498.29461 48.003672 497.94531 48.013672 z M 366.44531 247.18945 C 365.29375 255.33218 364.59766 263.53568 364.59766 272.00977 C 364.59766 272.34455 364.60723 272.67581 364.60938 273.00977 C 364.66527 264.27466 365.43895 255.81646 366.69727 247.41016 L 366.44531 247.18945 z M 721.14258 247.18945 L 720.89062 247.41016 C 722.14818 255.81646 722.92452 264.27465 722.98047 273.00977 C 722.98261 272.67582 722.99023 272.34454 722.99023 272.00977 C 722.99023 263.53568 722.2936 255.33218 721.14258 247.18945 z M 366.44531 298.82812 L 329.59961 331.1582 C 326.87763 333.4992 325.53406 337.22728 325.83398 340.78711 C 326.08284 337.88482 327.3861 335.0619 329.59961 333.1582 L 366.69727 300.60938 C 366.60858 300.01648 366.52919 299.42159 366.44531 298.82812 z M 721.14258 298.82812 C 721.05865 299.42159 720.97937 300.01648 720.89062 300.60938 L 757.99023 333.1582 C 760.2038 335.0619 761.50506 337.88483 761.75391 340.78711 C 762.05387 337.22727 760.71229 333.49921 757.99023 331.1582 L 721.14258 298.82812 z "
       id="path4693" />
  </g>
</svg>
