<?xml version="1.0" encoding="UTF-8" standalone="no"?>
<!-- Created with Inkscape (http://www.inkscape.org/) -->

<svg
   xmlns:dc="http://purl.org/dc/elements/1.1/"
   xmlns:cc="http://creativecommons.org/ns#"
   xmlns:rdf="http://www.w3.org/1999/02/22-rdf-syntax-ns#"
   xmlns:svg="http://www.w3.org/2000/svg"
   xmlns="http://www.w3.org/2000/svg"
   xmlns:xlink="http://www.w3.org/1999/xlink"
   xmlns:sodipodi="http://sodipodi.sourceforge.net/DTD/sodipodi-0.dtd"
   xmlns:inkscape="http://www.inkscape.org/namespaces/inkscape"
   width="816"
   height="544"
   viewBox="0 0 816 544"
   version="1.1"
   id="svg1087"
   inkscape:version="0.92.1 r"
   sodipodi:docname="preferences-system-network.svg">
  <defs
     id="defs1081">
    <linearGradient
       id="linearGradient4730"
       inkscape:collect="always">
      <stop
         id="stop4726"
         offset="0"
         style="stop-color:#ffffff;stop-opacity:0.05490196" />
      <stop
         id="stop4728"
         offset="1"
         style="stop-color:#177ed5;stop-opacity:0;" />
    </linearGradient>
    <linearGradient
       id="linearGradient4724"
       inkscape:collect="always">
      <stop
         id="stop4720"
         offset="0"
         style="stop-color:#ffffff;stop-opacity:0.05490196" />
      <stop
         id="stop4722"
         offset="1"
         style="stop-color:#177ed5;stop-opacity:0;" />
    </linearGradient>
    <filter
       inkscape:collect="always"
       style="color-interpolation-filters:sRGB"
       id="filter5087"
       x="-0.048"
       width="1.096"
       y="-0.048"
       height="1.096">
      <feGaussianBlur
         inkscape:collect="always"
         stdDeviation="0.8"
         id="feGaussianBlur5089" />
    </filter>
    <linearGradient
       inkscape:collect="always"
       id="linearGradient4165">
      <stop
         style="stop-color:#ffffff;stop-opacity:0.05490196"
         offset="0"
         id="stop4167" />
      <stop
         style="stop-color:#177ed5;stop-opacity:0;"
         offset="1"
         id="stop4169" />
    </linearGradient>
    <linearGradient
       inkscape:collect="always"
       xlink:href="#linearGradient4724"
       id="linearGradient4435"
       gradientUnits="userSpaceOnUse"
       gradientTransform="matrix(0.65217041,0,0,0.65217328,96.34777,-158.67016)"
       x1="7"
       y1="1011.3622"
       x2="41.000019"
       y2="1045.3622" />
    <linearGradient
       inkscape:collect="always"
       xlink:href="#linearGradient4165"
       id="linearGradient4171-1-0"
       x1="7"
       y1="1011.3622"
       x2="41.000019"
       y2="1045.3622"
       gradientUnits="userSpaceOnUse"
       gradientTransform="matrix(0.95652174,0,0,0.95652174,145.0435,-479.65)" />
    <linearGradient
       inkscape:collect="always"
       xlink:href="#linearGradient4165-3"
       id="linearGradient4449-0"
       gradientUnits="userSpaceOnUse"
       gradientTransform="matrix(10.43473,0,0,10.434772,293.56521,-10458.722)"
       x1="7"
       y1="1011.3622"
       x2="41.000019"
       y2="1045.3622" />
    <linearGradient
       inkscape:collect="always"
       id="linearGradient4165-3">
      <stop
         style="stop-color:#ffffff;stop-opacity:0.05490196"
         offset="0"
         id="stop4167-6" />
      <stop
         style="stop-color:#177ed5;stop-opacity:0;"
         offset="1"
         id="stop4169-7" />
    </linearGradient>
    <linearGradient
       inkscape:collect="always"
       xlink:href="#linearGradient4165-3"
       id="linearGradient4537"
       gradientUnits="userSpaceOnUse"
       gradientTransform="matrix(1.3043412,0,0,1.3043465,208.69565,-845.3399)"
       x1="7"
       y1="1011.3622"
       x2="41.000019"
       y2="1045.3622" />
    <filter
       inkscape:collect="always"
       style="color-interpolation-filters:sRGB"
       id="filter4542"
       x="-0.011999969"
       width="1.0239999"
       y="-0.012000031"
       height="1.0240001">
      <feGaussianBlur
         inkscape:collect="always"
         stdDeviation="0.21999957"
         id="feGaussianBlur4544" />
    </filter>
    <filter
       inkscape:collect="always"
       style="color-interpolation-filters:sRGB"
       id="filter4606"
       x="-0.02399996"
       width="1.0479999"
       y="-0.02400004"
       height="1.0480001">
      <feGaussianBlur
         inkscape:collect="always"
         stdDeviation="4.799976"
         id="feGaussianBlur4608" />
    </filter>
    <linearGradient
       inkscape:collect="always"
       xlink:href="#linearGradient4730"
       id="linearGradient4620"
       gradientUnits="userSpaceOnUse"
       gradientTransform="matrix(0.4782599,0,0,0.47826359,52.521741,24.171867)"
       x1="7"
       y1="1011.3622"
       x2="41.000019"
       y2="1045.3622" />
    <filter
       inkscape:collect="always"
       style="color-interpolation-filters:sRGB"
       id="filter4541"
       x="-0.01199998"
       width="1.024"
       y="-0.01200002"
       height="1.024">
      <feGaussianBlur
         inkscape:collect="always"
         stdDeviation="0.2999985"
         id="feGaussianBlur4543" />
    </filter>
    <filter
       inkscape:collect="always"
       style="color-interpolation-filters:sRGB"
       id="filter4967"
       x="-0.02460705"
       width="1.0492141"
       y="-0.023422181"
       height="1.0468444">
      <feGaussianBlur
         inkscape:collect="always"
         stdDeviation="3.8192192"
         id="feGaussianBlur4969" />
    </filter>
    <filter
       inkscape:collect="always"
       style="color-interpolation-filters:sRGB"
       id="filter4977"
       x="-0.012303526"
       width="1.0246071"
       y="-0.01171109"
       height="1.0234222">
      <feGaussianBlur
         inkscape:collect="always"
         stdDeviation="0.23870377"
         id="feGaussianBlur4979" />
    </filter>
    <filter
       inkscape:collect="always"
       style="color-interpolation-filters:sRGB"
       id="filter5003"
       x="-0.012193885"
       width="1.0243878"
       y="-0.011812184"
       height="1.0236244">
      <feGaussianBlur
         inkscape:collect="always"
         stdDeviation="0.1817969"
         id="feGaussianBlur5005" />
    </filter>
  </defs>
  <sodipodi:namedview
     id="base"
     pagecolor="#c3c3c3"
     bordercolor="#333333"
     borderopacity="1"
     inkscape:pageopacity="0"
     inkscape:pageshadow="2"
     inkscape:zoom="2.8284271"
     inkscape:cx="139.99287"
     inkscape:cy="139.89322"
     inkscape:document-units="px"
     inkscape:current-layer="layer2"
     showgrid="false"
     units="px"
     inkscape:showpageshadow="false"
     inkscape:window-width="1280"
     inkscape:window-height="1370"
     inkscape:window-x="1280"
     inkscape:window-y="34"
     inkscape:window-maximized="0">
    <inkscape:grid
       type="xygrid"
       id="grid4630" />
  </sodipodi:namedview>
  <metadata
     id="metadata1084">
    <rdf:RDF>
      <cc:Work
         rdf:about="">
        <dc:format>image/svg+xml</dc:format>
        <dc:type
           rdf:resource="http://purl.org/dc/dcmitype/StillImage" />
        <dc:title />
        <cc:license
           rdf:resource="http://creativecommons.org/licenses/by-sa/4.0/" />
        <dc:creator>
          <cc:Agent>
            <dc:title>Peter Cornelis</dc:title>
          </cc:Agent>
        </dc:creator>
      </cc:Work>
      <cc:License
         rdf:about="http://creativecommons.org/licenses/by-sa/4.0/">
        <cc:permits
           rdf:resource="http://creativecommons.org/ns#Reproduction" />
        <cc:permits
           rdf:resource="http://creativecommons.org/ns#Distribution" />
        <cc:requires
           rdf:resource="http://creativecommons.org/ns#Notice" />
        <cc:requires
           rdf:resource="http://creativecommons.org/ns#Attribution" />
        <cc:permits
           rdf:resource="http://creativecommons.org/ns#DerivativeWorks" />
        <cc:requires
           rdf:resource="http://creativecommons.org/ns#ShareAlike" />
      </cc:License>
    </rdf:RDF>
  </metadata>
  <g
     inkscape:label="Baseplate"
     inkscape:groupmode="layer"
     id="layer1"
     transform="translate(0,-153.06668)"
     style="display:none">
    <rect
       style="display:inline;overflow:visible;visibility:visible;fill:#fefefe;fill-opacity:1;fill-rule:nonzero;stroke:none;stroke-width:2;marker:none;enable-background:accumulate"
       id="rect3951"
       width="512"
       height="512"
       x="-800"
       y="169.06668"
       inkscape:label="48x48"
       transform="scale(-1,1)" />
    <text
       y="733.32251"
       xml:space="preserve"
       x="15.006836"
       style="font-style:normal;font-variant:normal;font-weight:normal;font-stretch:normal;line-height:0%;font-family:'DejaVu Sans';-inkscape-font-specification:'DejaVu Sans';display:inline;fill:#000000;fill-opacity:1;stroke:none;enable-background:new"
       inkscape:label="context"
       id="context"><tspan
         style="font-style:normal;font-variant:normal;font-weight:normal;font-stretch:normal;font-size:18px;line-height:1.25;font-family:'DejaVu Sans';-inkscape-font-specification:'DejaVu Sans'"
         y="733.32251"
         x="15.006836"
         sodipodi:role="line"
         id="tspan3933">categories</tspan></text>
    <text
       y="733.32251"
       xml:space="preserve"
       x="142.48828"
       style="font-style:normal;font-variant:normal;font-weight:bold;font-stretch:normal;line-height:0%;font-family:'DejaVu Sans';-inkscape-font-specification:'DejaVu Sans Bold';text-align:start;writing-mode:lr-tb;text-anchor:start;display:inline;fill:#000000;fill-opacity:1;stroke:none;enable-background:new"
       inkscape:label="icon-name"
       id="icon-name"><tspan
         style="font-style:normal;font-variant:normal;font-weight:bold;font-stretch:normal;font-size:18px;line-height:1.25;font-family:'DejaVu Sans';-inkscape-font-specification:'DejaVu Sans Bold'"
         y="733.32251"
         x="142.48828"
         sodipodi:role="line"
         id="tspan3937">preferences-system-network</tspan></text>
    <rect
       style="display:inline;overflow:visible;visibility:visible;fill:#fefefe;fill-opacity:1;fill-rule:nonzero;stroke:none;stroke-width:2;marker:none;enable-background:accumulate"
       id="rect16x16"
       width="16"
       height="16"
       x="-32"
       y="665.06665"
       inkscape:label="16x16"
       transform="scale(-1,1)" />
    <rect
       style="display:inline;overflow:visible;visibility:visible;fill:#fefefe;fill-opacity:1;fill-rule:nonzero;stroke:none;stroke-width:2;marker:none;enable-background:accumulate"
       id="rect24x24"
       width="24"
       height="24"
       x="-76"
       y="657.06665"
       inkscape:label="24x24"
       transform="scale(-1,1)" />
    <rect
       style="display:inline;overflow:visible;visibility:visible;fill:#fefefe;fill-opacity:1;fill-rule:nonzero;stroke:none;stroke-width:2;marker:none;enable-background:accumulate"
       id="rect32x32"
       width="32"
       height="32"
       x="-128"
       y="649.06665"
       inkscape:label="32x32"
       transform="scale(-1,1)" />
    <rect
       inkscape:label="48x48"
       y="633.06665"
       x="-192"
       height="48"
       width="48"
       id="rect48x48"
       style="display:inline;overflow:visible;visibility:visible;fill:#fefefe;fill-opacity:1;fill-rule:nonzero;stroke:none;stroke-width:2;marker:none;enable-background:accumulate"
       transform="scale(-1,1)" />
    <rect
       transform="scale(-1,1)"
       inkscape:label="48x48"
       y="617.06665"
       x="-272"
       height="64"
       width="64"
       id="rect4524"
       style="display:inline;overflow:visible;visibility:visible;fill:#fefefe;fill-opacity:1;fill-rule:nonzero;stroke:none;stroke-width:0.25;marker:none;enable-background:accumulate" />
  </g>
  <g
     inkscape:groupmode="layer"
     id="layer2"
     inkscape:label="Bitmap"
     style="display:inline">
    <path
       style="display:inline;fill:none;fill-opacity:0.5;stroke:none;stroke-width:2;stroke-linecap:round;stroke-linejoin:round;stroke-miterlimit:4;stroke-dasharray:none;stroke-opacity:1;filter:url(#filter5087);enable-background:new"
       d="m 143,485 c -1.66505,0 -3,1.2912 -3,3 v 17 17 c 0,1.8617 1.34224,3 3,3 h 17 17 c 1.73784,0 3,-1.2767 3,-3 v -17 -17 c 0,-1.6942 -1.29127,-3 -3,-3 h -17 z"
       id="path4506"
       inkscape:connector-curvature="0"
       sodipodi:nodetypes="sscsscsscsscs" />
    <circle
       r="8"
       cy="520"
       cx="24"
       id="circle4526"
       style="display:inline;opacity:1;fill:#435cbf;fill-opacity:1;stroke:none;stroke-width:2;stroke-miterlimit:4;stroke-dasharray:none;stroke-opacity:1;enable-background:new" />
    <path
       style="display:inline;fill:#000000;fill-opacity:0.2;stroke:none;stroke-width:2;stroke-linecap:round;stroke-linejoin:round;stroke-miterlimit:4;stroke-dasharray:none;stroke-opacity:1;enable-background:new"
       d="m 63.99994,506.0001 a 10.999828,10.999992 0 0 0 -0.94531,0.047 10.999827,10.999992 0 0 0 -0.51842,0.063 10.999828,10.999992 0 0 0 -0.57167,0.087 10.999827,10.999992 0 0 0 -0.51095,0.1149 10.999828,10.999992 0 0 0 -0.55112,0.1401 10.999827,10.999992 0 0 0 -0.50815,0.1691 10.999828,10.999992 0 0 0 -0.53244,0.1943 10.999827,10.999992 0 0 0 -0.48759,0.2186 10.999828,10.999992 0 0 0 -0.50442,0.2438 10.999827,10.999992 0 0 0 -0.46985,0.269 10.999828,10.999992 0 0 0 -0.47732,0.2924 10.999827,10.999992 0 0 0 -0.43809,0.3138 10.999828,10.999992 0 0 0 -0.44651,0.34 10.999827,10.999992 0 0 0 -0.39418,0.3456 10.999828,10.999992 0 0 0 -0.42315,0.3941 A 10.999827,10.999992 0 0 0 53,517 a 10.999827,10.999992 0 0 0 3.0984,7.6522 h 0.0159 a 10.999828,10.999992 0 0 0 7.88566,3.3478 10.999828,10.999992 0 0 0 0.9341,-0.047 10.999827,10.999992 0 0 0 0.54085,-0.065 10.999828,10.999992 0 0 0 0.56045,-0.085 10.999827,10.999992 0 0 0 0.51095,-0.1148 10.999828,10.999992 0 0 0 0.55112,-0.1402 10.999827,10.999992 0 0 0 0.50815,-0.169 10.999828,10.999992 0 0 0 0.53244,-0.1944 10.999827,10.999992 0 0 0 0.4876,-0.2185 10.999828,10.999992 0 0 0 0.50441,-0.2438 10.999827,10.999992 0 0 0 0.46985,-0.2691 10.999828,10.999992 0 0 0 0.47733,-0.2923 10.999827,10.999992 0 0 0 0.43809,-0.3139 10.999828,10.999992 0 0 0 0.4465,-0.34 10.999827,10.999992 0 0 0 0.39419,-0.3456 10.999828,10.999992 0 0 0 0.42314,-0.3942 10.999827,10.999992 0 0 0 3.22078,-7.7667 10.999827,10.999992 0 0 0 -3.09934,-7.6522 h -0.0149 a 10.999828,10.999992 0 0 0 -7.88566,-3.3478 z"
       id="path4530"
       inkscape:connector-curvature="0" />
    <circle
       style="display:inline;opacity:1;fill:#435cbf;fill-opacity:1;stroke:none;stroke-width:2;stroke-miterlimit:4;stroke-dasharray:none;stroke-opacity:1;enable-background:new"
       id="path4524"
       cx="64"
       cy="516"
       r="11" />
    <path
       inkscape:connector-curvature="0"
       id="path4534"
       d="m 168.00001,483.0002 a 21.99977,21.999992 0 0 0 -1.89063,0.095 21.999769,21.999992 0 0 0 -1.03685,0.1252 21.99977,21.999992 0 0 0 -1.14334,0.1737 21.999769,21.999992 0 0 0 -1.02191,0.2298 21.99977,21.999992 0 0 0 -1.10224,0.2803 21.999769,21.999992 0 0 0 -1.01631,0.3381 21.99977,21.999992 0 0 0 -1.06488,0.3886 21.999769,21.999992 0 0 0 -0.9752,0.4372 21.99977,21.999992 0 0 0 -1.00883,0.4876 21.999769,21.999992 0 0 0 -0.93971,0.538 21.99977,21.999992 0 0 0 -0.95465,0.5848 21.999769,21.999992 0 0 0 -0.87619,0.6277 21.99977,21.999992 0 0 0 -0.89301,0.68 21.999769,21.999992 0 0 0 -0.78838,0.6912 21.99977,21.999992 0 0 0 -0.84629,0.7881 21.999769,21.999992 0 0 0 -6.44157,15.5345 21.999769,21.999992 0 0 0 6.19684,15.3043 h 0.0318 a 21.99977,21.999992 0 0 0 15.77139,6.6957 21.99977,21.999992 0 0 0 1.86821,-0.094 21.999769,21.999992 0 0 0 1.08169,-0.1308 21.99977,21.999992 0 0 0 1.12092,-0.17 21.999769,21.999992 0 0 0 1.02191,-0.2297 21.99977,21.999992 0 0 0 1.10224,-0.2803 21.999769,21.999992 0 0 0 1.01631,-0.3381 21.99977,21.999992 0 0 0 1.06488,-0.3887 21.999769,21.999992 0 0 0 0.9752,-0.4371 21.99977,21.999992 0 0 0 1.00883,-0.4876 21.999769,21.999992 0 0 0 0.93971,-0.5381 21.99977,21.999992 0 0 0 0.95465,-0.5847 21.999769,21.999992 0 0 0 0.87619,-0.6277 21.99977,21.999992 0 0 0 0.893,-0.68 21.999769,21.999992 0 0 0 0.78839,-0.6912 21.99977,21.999992 0 0 0 0.84629,-0.7885 21.999769,21.999992 0 0 0 6.44158,-15.5333 21.999769,21.999992 0 0 0 -6.19871,-15.3044 h -0.0299 a 21.99977,21.999992 0 0 0 -15.7714,-6.6956 z"
       style="display:inline;fill:#000000;fill-opacity:0.2;stroke:none;stroke-width:2;stroke-linecap:round;stroke-linejoin:round;stroke-miterlimit:4;stroke-dasharray:none;stroke-opacity:1;enable-background:new;filter:url(#filter4542)" />
    <circle
       style="display:inline;opacity:1;fill:#3f51b5;fill-opacity:1;stroke:none;stroke-width:2;stroke-miterlimit:4;stroke-dasharray:none;stroke-opacity:1;enable-background:new"
       id="path4520"
       cx="168"
       cy="504"
       r="22" />
    <path
       style="display:inline;fill:#000000;fill-opacity:0.2;stroke:none;stroke-width:16;stroke-linecap:round;stroke-linejoin:round;stroke-miterlimit:4;stroke-dasharray:none;stroke-opacity:1;enable-background:new"
       d="m 543.99874,34.0032 a 239.9963,239.99966 0 0 0 -20.62496,1.024 239.99626,239.99966 0 0 0 -11.31104,1.376 239.9963,239.99966 0 0 0 -12.4728,1.8976 239.99626,239.99966 0 0 0 -11.148,2.5072 239.9963,239.99966 0 0 0 -12.0244,3.056 239.99626,239.99966 0 0 0 -11.08688,3.6896 239.9963,239.99966 0 0 0 -11.61688,4.24 239.99626,239.99966 0 0 0 -10.63832,4.7696 239.9963,239.99966 0 0 0 -11.00552,5.3184 239.99626,239.99966 0 0 0 -10.25128,5.8688 239.9963,239.99966 0 0 0 -10.41425,6.3808 239.99626,239.99966 0 0 0 -9.5584,6.8464 239.9963,239.99966 0 0 0 -9.74208,7.4176 239.99626,239.99966 0 0 0 -8.60024,7.5408 239.9963,239.99966 0 0 0 -9.23232,8.5984 A 239.99626,239.99966 0 0 0 304.00001,274 239.99626,239.99966 0 0 0 371.60145,440.9568 h 0.3472 A 239.9963,239.99966 0 0 0 543.99938,514 a 239.9963,239.99966 0 0 0 20.3804,-1.024 239.99626,239.99966 0 0 0 11.80048,-1.424 239.9963,239.99966 0 0 0 12.228,-1.8544 239.99626,239.99966 0 0 0 11.148,-2.5056 239.9963,239.99966 0 0 0 12.02432,-3.0592 239.99626,239.99966 0 0 0 11.08687,-3.6864 239.9963,239.99966 0 0 0 11.61696,-4.2416 239.99626,239.99966 0 0 0 10.63856,-4.768 239.9963,239.99966 0 0 0 11.00528,-5.3184 239.99626,239.99966 0 0 0 10.25121,-5.872 239.9963,239.99966 0 0 0 10.41456,-6.3776 239.99626,239.99966 0 0 0 9.55824,-6.848 239.9963,239.99966 0 0 0 9.74192,-7.4176 239.99626,239.99966 0 0 0 8.60048,-7.5408 239.9963,239.99966 0 0 0 9.23216,-8.6016 239.99626,239.99966 0 0 0 70.2716,-169.4544 239.99626,239.99966 0 0 0 -67.622,-166.9568 h -0.3248 A 239.9963,239.99966 0 0 0 544.00082,34.0064 Z"
       id="path4550"
       inkscape:connector-curvature="0" />
    <path
       inkscape:connector-curvature="0"
       id="path4554"
       d="m 543.99874,34.0032 a 239.9963,239.99966 0 0 0 -20.62496,1.024 239.99626,239.99966 0 0 0 -11.31104,1.376 239.9963,239.99966 0 0 0 -12.4728,1.8976 239.99626,239.99966 0 0 0 -11.148,2.5072 239.9963,239.99966 0 0 0 -12.0244,3.056 239.99626,239.99966 0 0 0 -11.08688,3.6896 239.9963,239.99966 0 0 0 -11.61688,4.24 239.99626,239.99966 0 0 0 -10.63832,4.7696 239.9963,239.99966 0 0 0 -11.00552,5.3184 239.99626,239.99966 0 0 0 -10.25128,5.8688 239.9963,239.99966 0 0 0 -10.41425,6.3808 239.99626,239.99966 0 0 0 -9.5584,6.8464 239.9963,239.99966 0 0 0 -9.74208,7.4176 239.99626,239.99966 0 0 0 -8.60024,7.5408 239.9963,239.99966 0 0 0 -9.23232,8.5984 A 239.99626,239.99966 0 0 0 304.00001,274 239.99626,239.99966 0 0 0 371.60145,440.9568 h 0.3472 A 239.9963,239.99966 0 0 0 543.99938,514 a 239.9963,239.99966 0 0 0 20.3804,-1.024 239.99626,239.99966 0 0 0 11.80048,-1.424 239.9963,239.99966 0 0 0 12.228,-1.8544 239.99626,239.99966 0 0 0 11.148,-2.5056 239.9963,239.99966 0 0 0 12.02432,-3.0592 239.99626,239.99966 0 0 0 11.08687,-3.6864 239.9963,239.99966 0 0 0 11.61696,-4.2416 239.99626,239.99966 0 0 0 10.63856,-4.768 239.9963,239.99966 0 0 0 11.00528,-5.3184 239.99626,239.99966 0 0 0 10.25121,-5.872 239.9963,239.99966 0 0 0 10.41456,-6.3776 239.99626,239.99966 0 0 0 9.55824,-6.848 239.9963,239.99966 0 0 0 9.74192,-7.4176 239.99626,239.99966 0 0 0 8.60048,-7.5408 239.9963,239.99966 0 0 0 9.23216,-8.6016 239.99626,239.99966 0 0 0 70.2716,-169.4544 239.99626,239.99966 0 0 0 -67.622,-166.9568 h -0.3248 A 239.9963,239.99966 0 0 0 544.00082,34.0064 Z"
       style="display:inline;fill:#000000;fill-opacity:0.2;stroke:none;stroke-width:16;stroke-linecap:round;stroke-linejoin:round;stroke-miterlimit:4;stroke-dasharray:none;stroke-opacity:1;enable-background:new;filter:url(#filter4606)" />
    <circle
       style="display:inline;opacity:1;fill:#435cbf;fill-opacity:1;stroke:none;stroke-width:2;stroke-miterlimit:4;stroke-dasharray:none;stroke-opacity:1;enable-background:new"
       id="path4518"
       cx="544"
       cy="272"
       r="240" />
    <path
       inkscape:connector-curvature="0"
       id="path4532"
       d="m 111.99993,498.0002 a 14.999763,14.99998 0 0 0 -1.28906,0.064 14.999761,14.99998 0 0 0 -0.70694,0.086 14.999763,14.99998 0 0 0 -0.77955,0.1186 14.999761,14.99998 0 0 0 -0.69675,0.1567 14.999763,14.99998 0 0 0 -0.75153,0.191 14.999761,14.99998 0 0 0 -0.69293,0.2306 14.999763,14.99998 0 0 0 -0.72605,0.265 14.999761,14.99998 0 0 0 -0.6649,0.2981 14.999763,14.99998 0 0 0 -0.68784,0.3324 14.999761,14.99998 0 0 0 -0.64071,0.3668 14.999763,14.99998 0 0 0 -0.65089,0.3988 14.999761,14.99998 0 0 0 -0.5974,0.4279 14.999763,14.99998 0 0 0 -0.60887,0.4636 14.999761,14.99998 0 0 0 -0.53752,0.4713 14.999763,14.99998 0 0 0 -0.57702,0.5374 A 14.999761,14.99998 0 0 0 97,513 a 14.999761,14.99998 0 0 0 4.2251,10.4348 h 0.0217 a 14.999763,14.99998 0 0 0 10.75317,4.5652 14.999763,14.99998 0 0 0 1.27377,-0.064 14.999761,14.99998 0 0 0 0.73753,-0.089 14.999763,14.99998 0 0 0 0.76425,-0.1159 14.999761,14.99998 0 0 0 0.69675,-0.1566 14.999763,14.99998 0 0 0 0.75152,-0.1912 14.999761,14.99998 0 0 0 0.69293,-0.2304 14.999763,14.99998 0 0 0 0.72606,-0.2651 14.999761,14.99998 0 0 0 0.66491,-0.298 14.999763,14.99998 0 0 0 0.68783,-0.3324 14.999761,14.99998 0 0 0 0.6407,-0.367 14.999763,14.99998 0 0 0 0.65091,-0.3986 14.999761,14.99998 0 0 0 0.59739,-0.428 14.999763,14.99998 0 0 0 0.60887,-0.4636 14.999761,14.99998 0 0 0 0.53753,-0.4713 14.999763,14.99998 0 0 0 0.57701,-0.5376 14.999761,14.99998 0 0 0 4.39197,-10.5909 14.999761,14.99998 0 0 0 -4.22637,-10.4348 h -0.0203 a 14.999763,14.99998 0 0 0 -10.75317,-4.5652 z"
       style="display:inline;fill:#000000;fill-opacity:0.2;stroke:none;stroke-width:2;stroke-linecap:round;stroke-linejoin:round;stroke-miterlimit:4;stroke-dasharray:none;stroke-opacity:1;enable-background:new" />
    <circle
       style="display:inline;opacity:1;fill:#435cbf;fill-opacity:1;stroke:none;stroke-width:2;stroke-miterlimit:4;stroke-dasharray:none;stroke-opacity:1;enable-background:new"
       id="path4522"
       cx="112"
       cy="512"
       r="15" />
    <path
       id="path4507"
       d="M 783.95898,273.17 A 240,240 0 0 0 544,33.99812 240,240 0 0 0 304.04102,272.82624 240,240 0 0 1 304,271.99812 a 240,240 0 0 1 240,-240 240,240 0 0 1 240,240 240,240 0 0 1 -0.041,1.17188 z"
       style="display:inline;opacity:1;fill:#ffffff;fill-opacity:0.2;stroke:none;stroke-width:2;stroke-miterlimit:4;stroke-dasharray:none;stroke-opacity:1;enable-background:new"
       inkscape:connector-curvature="0" />
    <path
       id="path4514"
       d="M 189.97852,504.588 A 22,22 0 0 0 168,483.00206 22,22 0 0 0 146.02148,504.41612 22,22 0 0 1 146,504.00206 a 22,22 0 0 1 22,-22 22,22 0 0 1 22,22 22,22 0 0 1 -0.0215,0.58594 z"
       style="display:inline;opacity:1;fill:#ffffff;fill-opacity:0.2;stroke:none;stroke-width:2;stroke-miterlimit:4;stroke-dasharray:none;stroke-opacity:1;enable-background:new"
       inkscape:connector-curvature="0" />
    <path
       style="display:inline;opacity:1;fill:#ffffff;fill-opacity:0.2;stroke:none;stroke-width:2;stroke-miterlimit:4;stroke-dasharray:none;stroke-opacity:1;enable-background:new"
       d="m 112,497 a 15,15 0 0 0 -15,15 15,15 0 0 0 0.01953,0.58594 A 15,15 0 0 1 112,498 15,15 0 0 1 126.98047,512.41406 15,15 0 0 0 127,512 15,15 0 0 0 112,497 Z"
       id="circle4521"
       inkscape:connector-curvature="0" />
    <path
       style="display:inline;opacity:1;fill:#ffffff;fill-opacity:0.2;stroke:none;stroke-width:2;stroke-miterlimit:4;stroke-dasharray:none;stroke-opacity:1;enable-background:new"
       d="m 64,505 a 11,11 0 0 0 -11,11 11,11 0 0 0 0.02148,0.58594 A 11,11 0 0 1 64,506 11,11 0 0 1 74.978516,516.41406 11,11 0 0 0 75,516 11,11 0 0 0 64,505 Z"
       id="circle4527"
       inkscape:connector-curvature="0" />
    <path
       id="path4951"
       d="m 467.0312,80.844162 a 208,208 0 0 0 -22.12496,10.5 336,336 0 0 1 110.34368,47.812638 352,352 0 0 0 -154.71872,164.09361 336,336 0 0 1 -43.78112,-119.24993 208,208 0 0 0 -10.81264,26.78128 352,352 0 0 0 46.68752,110.09376 352,352 0 0 0 -19.59376,71.15616 208,208 0 0 0 13.81248,17.81248 336,336 0 0 1 17.09376,-72.62496 352,352 0 0 0 202.37504,134.9688 208,208 0 0 0 27.9688,-11 A 336,336 0 0 1 410.62496,319.00048 336,336 0 0 1 569.56256,149.688 336,336 0 0 1 703.71873,407.188 208,208 0 0 0 718.43744,386.87552 352,352 0 0 0 586.5312,142.09424 336,336 0 0 1 679.90624,116.688 208,208 0 0 0 662.65632,103.28176 352,352 0 0 0 571.4688,131.31296 352,352 0 0 0 467.0312,80.844162 Z"
       style="display:inline;opacity:1;fill:#000000;fill-opacity:0.2;stroke:none;stroke-width:32;stroke-miterlimit:4;stroke-dasharray:none;stroke-opacity:1;enable-background:new"
       inkscape:connector-curvature="0" />
    <path
       inkscape:connector-curvature="0"
       style="display:inline;opacity:1;fill:#000000;fill-opacity:0.2;stroke:none;stroke-width:32;stroke-miterlimit:4;stroke-dasharray:none;stroke-opacity:1;enable-background:new;filter:url(#filter4967)"
       d="m 467.0312,80.844162 a 208,208 0 0 0 -22.12496,10.5 336,336 0 0 1 110.34368,47.812638 352,352 0 0 0 -154.71872,164.09361 336,336 0 0 1 -43.78112,-119.24993 208,208 0 0 0 -10.81264,26.78128 352,352 0 0 0 46.68752,110.09376 352,352 0 0 0 -19.59376,71.15616 208,208 0 0 0 13.81248,17.81248 336,336 0 0 1 17.09376,-72.62496 352,352 0 0 0 202.37504,134.9688 208,208 0 0 0 27.9688,-11 A 336,336 0 0 1 410.62496,319.00048 336,336 0 0 1 569.56256,149.688 336,336 0 0 1 703.71873,407.188 208,208 0 0 0 718.43744,386.87552 352,352 0 0 0 586.5312,142.09424 336,336 0 0 1 679.90624,116.688 208,208 0 0 0 662.65632,103.28176 352,352 0 0 0 571.4688,131.31296 352,352 0 0 0 467.0312,80.844162 Z"
       id="path4953" />
    <path
       inkscape:connector-curvature="0"
       style="display:inline;opacity:1;fill:#f5f5f5;fill-opacity:1;stroke:none;stroke-width:32;stroke-miterlimit:4;stroke-dasharray:none;stroke-opacity:1;enable-background:new"
       d="m 467.0312,78.843682 a 208,208 0 0 0 -22.12496,10.5 A 336,336 0 0 1 555.24992,137.15632 352,352 0 0 0 400.5312,301.24993 336,336 0 0 1 356.75008,182 a 208,208 0 0 0 -10.81264,26.78128 352,352 0 0 0 46.68752,110.09376 352,352 0 0 0 -19.59376,71.15616 208,208 0 0 0 13.81248,17.81248 336,336 0 0 1 17.09376,-72.62496 352,352 0 0 0 202.37504,134.9688 208,208 0 0 0 27.9688,-11 A 336,336 0 0 1 410.62496,317 a 336,336 0 0 1 158.9376,-169.31248 336,336 0 0 1 134.15617,257.5 208,208 0 0 0 14.71871,-20.31248 A 352,352 0 0 0 586.5312,140.09376 336,336 0 0 1 679.90624,114.68752 208,208 0 0 0 662.65632,101.28128 352,352 0 0 0 571.4688,129.31248 352,352 0 0 0 467.0312,78.843682 Z"
       id="path4949" />
    <path
       inkscape:connector-curvature="0"
       id="path4447"
       d="m 543.99874,32.00298 a 239.9963,239.99966 0 0 0 -20.62496,1.024 239.99626,239.99966 0 0 0 -11.31104,1.376 239.9963,239.99966 0 0 0 -12.4728,1.8976 239.99626,239.99966 0 0 0 -11.148,2.5072 239.9963,239.99966 0 0 0 -12.0244,3.056 239.99626,239.99966 0 0 0 -11.08688,3.6896 239.9963,239.99966 0 0 0 -11.61688,4.24 239.99626,239.99966 0 0 0 -10.63832,4.7696 239.9963,239.99966 0 0 0 -11.00552,5.3184 239.99626,239.99966 0 0 0 -10.25128,5.8688 239.9963,239.99966 0 0 0 -10.41425,6.3808 239.99626,239.99966 0 0 0 -9.5584,6.8464 239.9963,239.99966 0 0 0 -9.74208,7.4176 239.99626,239.99966 0 0 0 -8.60024,7.5408 239.9963,239.99966 0 0 0 -9.23232,8.5984 239.99626,239.99966 0 0 0 -70.27136,169.4656 239.99626,239.99966 0 0 0 67.60144,166.9568 h 0.3472 a 239.9963,239.99966 0 0 0 172.05073,73.0432 239.9963,239.99966 0 0 0 20.3804,-1.024 239.99626,239.99966 0 0 0 11.80048,-1.424 239.9963,239.99966 0 0 0 12.228,-1.8544 239.99626,239.99966 0 0 0 11.148,-2.5056 239.9963,239.99966 0 0 0 12.02432,-3.0592 239.99626,239.99966 0 0 0 11.08687,-3.6864 239.9963,239.99966 0 0 0 11.61696,-4.2416 239.99626,239.99966 0 0 0 10.63856,-4.768 239.9963,239.99966 0 0 0 11.00528,-5.3184 239.99626,239.99966 0 0 0 10.25121,-5.872 239.9963,239.99966 0 0 0 10.41456,-6.3776 239.99626,239.99966 0 0 0 9.55824,-6.848 239.9963,239.99966 0 0 0 9.74192,-7.4176 239.99626,239.99966 0 0 0 8.60048,-7.5408 239.9963,239.99966 0 0 0 9.23216,-8.6016 239.99626,239.99966 0 0 0 70.2716,-169.4544 239.99626,239.99966 0 0 0 -67.622,-166.9568 h -0.3248 a 239.9963,239.99966 0 0 0 -172.0508,-73.0432 z"
       style="display:inline;fill:url(#linearGradient4449-0);fill-opacity:1;stroke:none;stroke-width:16;stroke-linecap:round;stroke-linejoin:round;stroke-miterlimit:4;stroke-dasharray:none;stroke-opacity:1;enable-background:new" />
    <path
       inkscape:connector-curvature="0"
       id="path4546"
       d="m 239.99984,467.0004 a 29.999537,29.999957 0 0 0 -2.57812,0.128 29.999532,29.999957 0 0 0 -1.41388,0.172 29.999537,29.999957 0 0 0 -1.5591,0.2372 29.999532,29.999957 0 0 0 -1.3935,0.3134 29.999537,29.999957 0 0 0 -1.50305,0.382 29.999532,29.999957 0 0 0 -1.38586,0.4612 29.999537,29.999957 0 0 0 -1.45211,0.53 29.999532,29.999957 0 0 0 -1.32979,0.5962 29.999537,29.999957 0 0 0 -1.37569,0.6648 29.999532,29.999957 0 0 0 -1.28141,0.7336 29.999537,29.999957 0 0 0 -1.30178,0.7976 29.999532,29.999957 0 0 0 -1.1948,0.8558 29.999537,29.999957 0 0 0 -1.21776,0.9272 29.999532,29.999957 0 0 0 -1.07503,0.9426 29.999537,29.999957 0 0 0 -1.15404,1.0748 A 29.999532,29.999957 0 0 0 210,497 a 29.999532,29.999957 0 0 0 8.45018,20.8696 h 0.0434 a 29.999537,29.999957 0 0 0 21.50634,9.1304 29.999537,29.999957 0 0 0 2.54755,-0.128 29.999532,29.999957 0 0 0 1.47506,-0.178 29.999537,29.999957 0 0 0 1.5285,-0.2318 29.999532,29.999957 0 0 0 1.3935,-0.3132 29.999537,29.999957 0 0 0 1.50304,-0.3824 29.999532,29.999957 0 0 0 1.38586,-0.4608 29.999537,29.999957 0 0 0 1.45212,-0.5302 29.999532,29.999957 0 0 0 1.32982,-0.596 29.999537,29.999957 0 0 0 1.37566,-0.6648 29.999532,29.999957 0 0 0 1.2814,-0.734 29.999537,29.999957 0 0 0 1.30182,-0.7972 29.999532,29.999957 0 0 0 1.19478,-0.856 29.999537,29.999957 0 0 0 1.21774,-0.9272 29.999532,29.999957 0 0 0 1.07506,-0.9426 29.999537,29.999957 0 0 0 1.15402,-1.0752 29.999532,29.999957 0 0 0 8.78395,-21.1818 29.999532,29.999957 0 0 0 -8.45275,-20.8696 h -0.0406 a 29.999537,29.999957 0 0 0 -21.50635,-9.1304 z"
       style="display:inline;fill:#000000;fill-opacity:0.2;stroke:none;stroke-width:2;stroke-linecap:round;stroke-linejoin:round;stroke-miterlimit:4;stroke-dasharray:none;stroke-opacity:1;enable-background:new;filter:url(#filter4541)" />
    <circle
       cy="496"
       cx="240"
       id="circle4528"
       style="display:inline;opacity:1;fill:#435cbf;fill-opacity:1;stroke:none;stroke-width:0.25;stroke-miterlimit:4;stroke-dasharray:none;stroke-opacity:1;enable-background:new"
       r="30" />
    <path
       style="display:inline;opacity:1;fill:#ffffff;fill-opacity:0.2;stroke:none;stroke-width:0.25;stroke-miterlimit:4;stroke-dasharray:none;stroke-opacity:1;enable-background:new"
       d="m 240,466 a 30,30 0 0 0 -30,30 30,30 0 0 0 0.0215,0.58984 A 30,30 0 0 1 240,467 30,30 0 0 1 269.97852,496.41016 30,30 0 0 0 270,496 30,30 0 0 0 240,466 Z"
       id="circle4539"
       inkscape:connector-curvature="0" />
    <path
       id="path4981"
       d="m 107.18945,500.92801 a 13,13 0 0 0 -1.38281,0.65625 21,21 0 0 1 6.89648,2.98829 22,22 0 0 0 -9.66992,10.25585 21,21 0 0 1 -2.73632,-7.45312 13,13 0 0 0 -0.675786,1.67383 22,22 0 0 0 2.917966,6.88086 22,22 0 0 0 -1.22461,4.44726 13,13 0 0 0 0.86328,1.11328 21,21 0 0 1 1.06836,-4.53906 22,22 0 0 0 12.64844,8.43555 13,13 0 0 0 1.74805,-0.6875 21,21 0 0 1 -13.97852,-8.88672 21,21 0 0 1 9.9336,-10.58203 21,21 0 0 1 8.38476,16.09375 13,13 0 0 0 0.91992,-1.26953 22,22 0 0 0 -8.24414,-15.29883 21,21 0 0 1 5.83594,-1.58789 13,13 0 0 0 -1.07812,-0.83789 22,22 0 0 0 -5.69922,1.75195 22,22 0 0 0 -6.52735,-3.1543 z"
       style="display:inline;opacity:1;fill:#000000;fill-opacity:0.2;stroke:none;stroke-width:2;stroke-miterlimit:4;stroke-dasharray:none;stroke-opacity:1;enable-background:new;"
       inkscape:connector-curvature="0" />
    <path
       style="display:inline;opacity:1;fill:#f5f5f5;fill-opacity:1;stroke:none;stroke-width:2;stroke-miterlimit:4;stroke-dasharray:none;stroke-opacity:1;enable-background:new"
       d="M 107.18945 499.92773 A 13 13 0 0 0 105.80664 500.58398 A 21 21 0 0 1 112.70312 503.57227 A 22 22 0 0 0 103.0332 513.82812 A 21 21 0 0 1 100.29688 506.375 A 13 13 0 0 0 99.621094 508.04883 A 22 22 0 0 0 102.53906 514.92969 A 22 22 0 0 0 101.31445 519.37695 A 13 13 0 0 0 102.17773 520.49023 A 21 21 0 0 1 103.24609 515.95117 A 22 22 0 0 0 115.89453 524.38672 A 13 13 0 0 0 117.64258 523.69922 A 21 21 0 0 1 103.66406 514.8125 A 21 21 0 0 1 113.59766 504.23047 A 21 21 0 0 1 121.98242 520.32422 A 13 13 0 0 0 122.90234 519.05469 A 22 22 0 0 0 114.6582 503.75586 A 21 21 0 0 1 120.49414 502.16797 A 13 13 0 0 0 119.41602 501.33008 A 22 22 0 0 0 113.7168 503.08203 A 22 22 0 0 0 107.18945 499.92773 z "
       id="circle4547" />
    <path
       style="display:inline;fill:url(#linearGradient4435);fill-opacity:1;stroke:none;stroke-width:2;stroke-linecap:round;stroke-linejoin:round;stroke-miterlimit:4;stroke-dasharray:none;stroke-opacity:1;enable-background:new"
       d="m 111.99987,497.0002 a 14.999763,14.99998 0 0 0 -1.28906,0.064 14.999761,14.99998 0 0 0 -0.70694,0.086 14.999763,14.99998 0 0 0 -0.77955,0.1186 14.999761,14.99998 0 0 0 -0.69675,0.1567 14.999763,14.99998 0 0 0 -0.75153,0.191 14.999761,14.99998 0 0 0 -0.69293,0.2306 14.999763,14.99998 0 0 0 -0.72605,0.265 14.999761,14.99998 0 0 0 -0.6649,0.2981 14.999763,14.99998 0 0 0 -0.68784,0.3324 14.999761,14.99998 0 0 0 -0.64071,0.3668 14.999763,14.99998 0 0 0 -0.65089,0.3988 14.999761,14.99998 0 0 0 -0.5974,0.4279 14.999763,14.99998 0 0 0 -0.60887,0.4636 14.999761,14.99998 0 0 0 -0.53752,0.4713 14.999763,14.99998 0 0 0 -0.57702,0.5374 14.999761,14.99998 0 0 0 -4.39197,10.5916 14.999761,14.99998 0 0 0 4.2251,10.4348 h 0.0217 a 14.999763,14.99998 0 0 0 10.75317,4.5652 14.999763,14.99998 0 0 0 1.27377,-0.064 14.999761,14.99998 0 0 0 0.73753,-0.089 14.999763,14.99998 0 0 0 0.76425,-0.1159 14.999761,14.99998 0 0 0 0.69675,-0.1566 14.999763,14.99998 0 0 0 0.75152,-0.1912 14.999761,14.99998 0 0 0 0.69293,-0.2304 14.999763,14.99998 0 0 0 0.72606,-0.2651 14.999761,14.99998 0 0 0 0.66491,-0.298 14.999763,14.99998 0 0 0 0.68783,-0.3324 14.999761,14.99998 0 0 0 0.6407,-0.367 14.999763,14.99998 0 0 0 0.65091,-0.3986 14.999761,14.99998 0 0 0 0.59739,-0.428 14.999763,14.99998 0 0 0 0.60887,-0.4636 14.999761,14.99998 0 0 0 0.53753,-0.4713 14.999763,14.99998 0 0 0 0.57701,-0.5376 14.999761,14.99998 0 0 0 4.39197,-10.5909 14.999761,14.99998 0 0 0 -4.22637,-10.4348 h -0.0203 A 14.999763,14.99998 0 0 0 112,497.0004 Z"
       id="path4433"
       inkscape:connector-curvature="0" />
    <path
       id="path4991"
       d="m 59.199219,508.24025 a 10,10 0 0 0 -1.115235,0.71289 21,21 0 0 1 6.091797,2.95704 22,22 0 0 0 -5.595703,6.78515 21,21 0 0 1 -3.021484,-7.03515 10,10 0 0 0 -0.69336,1.28906 22,22 0 0 0 3.210938,6.78125 22,22 0 0 0 -1.425781,4.03711 10,10 0 0 0 0.835937,0.81445 21,21 0 0 1 1.269531,-3.96094 22,22 0 0 0 7.589844,6.08789 10,10 0 0 0 1.412109,-0.44921 21,21 0 0 1 -8.519531,-6.64063 21,21 0 0 1 5.746094,-7.0957 21,21 0 0 1 7.085937,10.36523 10,10 0 0 0 0.685547,-1.0625 22,22 0 0 0 -6.916015,-9.91406 21,21 0 0 1 4.679687,-2.48828 10,10 0 0 0 -0.945312,-0.72266 22,22 0 0 0 -4.576172,2.58203 22,22 0 0 0 -5.798828,-3.04297 z"
       style="display:inline;opacity:1;fill:#000000;fill-opacity:0.2;stroke:none;stroke-width:2;stroke-miterlimit:4;stroke-dasharray:none;stroke-opacity:1;enable-background:new"
       inkscape:connector-curvature="0" />
    <path
       style="display:inline;opacity:1;fill:#f5f5f5;fill-opacity:1;stroke:none;stroke-width:2;stroke-miterlimit:4;stroke-dasharray:none;stroke-opacity:1;enable-background:new"
       d="M 59.199219 507.24023 A 10 10 0 0 0 58.083984 507.95312 A 21 21 0 0 1 64.175781 510.91016 A 22 22 0 0 0 58.580078 517.69531 A 21 21 0 0 1 55.558594 510.66016 A 10 10 0 0 0 54.865234 511.94922 A 22 22 0 0 0 58.076172 518.73047 A 22 22 0 0 0 56.650391 522.76758 A 10 10 0 0 0 57.486328 523.58203 A 21 21 0 0 1 58.755859 519.62109 A 22 22 0 0 0 66.345703 525.70898 A 10 10 0 0 0 67.757812 525.25977 A 21 21 0 0 1 59.238281 518.61914 A 21 21 0 0 1 64.984375 511.52344 A 21 21 0 0 1 72.070312 521.88867 A 10 10 0 0 0 72.755859 520.82617 A 22 22 0 0 0 65.839844 510.91211 A 21 21 0 0 1 70.519531 508.42383 A 10 10 0 0 0 69.574219 507.70117 A 22 22 0 0 0 64.998047 510.2832 A 22 22 0 0 0 59.199219 507.24023 z "
       id="path4559" />
    <path
       inkscape:connector-curvature="0"
       id="path4618"
       d="m 63.999985,505 a 10.999863,11.000059 0 0 0 -0.945313,0.0469 10.999861,11.000059 0 0 0 -0.518425,0.0631 10.999863,11.000059 0 0 0 -0.571672,0.087 10.999861,11.000059 0 0 0 -0.510951,0.11492 10.999863,11.000059 0 0 0 -0.551124,0.14007 10.999861,11.000059 0 0 0 -0.508151,0.1691 10.999863,11.000059 0 0 0 -0.532438,0.19434 10.999861,11.000059 0 0 0 -0.487595,0.21861 10.999863,11.000059 0 0 0 -0.504418,0.24376 10.999861,11.000059 0 0 0 -0.469855,0.26899 10.999863,11.000059 0 0 0 -0.477321,0.29245 10.999861,11.000059 0 0 0 -0.438095,0.3138 10.999863,11.000059 0 0 0 -0.446506,0.33997 10.999861,11.000059 0 0 0 -0.394183,0.34563 10.999863,11.000059 0 0 0 -0.423149,0.39409 10.999861,11.000059 0 0 0 -3.220789,7.7672 10.999861,11.000059 0 0 0 3.098417,7.65223 h 0.01591 A 10.999863,11.000059 0 0 0 64.000012,527 a 10.999863,11.000059 0 0 0 0.934101,-0.0469 10.999861,11.000059 0 0 0 0.540857,-0.0653 10.999863,11.000059 0 0 0 0.560452,-0.085 10.999861,11.000059 0 0 0 0.510951,-0.11485 10.999863,11.000059 0 0 0 0.551117,-0.14021 10.999861,11.000059 0 0 0 0.50815,-0.16896 10.999863,11.000059 0 0 0 0.532446,-0.19441 10.999861,11.000059 0 0 0 0.487602,-0.21853 10.999863,11.000059 0 0 0 0.504411,-0.24377 10.999861,11.000059 0 0 0 0.469848,-0.26913 10.999863,11.000059 0 0 0 0.477336,-0.29231 10.999861,11.000059 0 0 0 0.438087,-0.31387 10.999863,11.000059 0 0 0 0.446506,-0.33997 10.999861,11.000059 0 0 0 0.39419,-0.34563 10.999863,11.000059 0 0 0 0.423142,-0.39424 A 10.999861,11.000059 0 0 0 75,516.00022 10.999861,11.000059 0 0 0 71.900652,508.34798 h -0.01489 a 10.999863,11.000059 0 0 0 -7.885684,-3.34783 z"
       style="display:inline;fill:url(#linearGradient4620);fill-opacity:1;stroke:none;stroke-width:1.46667397;stroke-linecap:round;stroke-linejoin:round;stroke-miterlimit:4;stroke-dasharray:none;stroke-opacity:1;enable-background:new" />
    <path
       style="display:inline;opacity:1;fill:#ededed;fill-opacity:1;stroke:none;stroke-width:2;stroke-miterlimit:4;stroke-dasharray:none;stroke-opacity:1;enable-background:new"
       d="M 22.429688 512.16406 A 8 8 0 0 0 20.947266 512.61328 A 21 21 0 0 1 25.175781 514.91016 A 22 22 0 0 0 19.580078 521.69531 A 21 21 0 0 1 16.958984 516.20312 A 8 8 0 0 0 16.375 517.58789 A 22 22 0 0 0 19.076172 522.73047 A 22 22 0 0 0 18.070312 525.35547 A 8 8 0 0 0 18.859375 526.12891 A 21 21 0 0 1 19.755859 523.62109 A 22 22 0 0 0 24.394531 527.98633 A 8 8 0 0 0 25.875 527.76758 A 21 21 0 0 1 20.238281 522.61914 A 21 21 0 0 1 25.984375 515.52344 A 21 21 0 0 1 31.632812 522.39258 A 8 8 0 0 0 31.947266 520.89258 A 22 22 0 0 0 26.839844 514.91211 A 21 21 0 0 1 28.855469 513.6543 A 8 8 0 0 0 27.931641 513.03711 A 22 22 0 0 0 25.998047 514.2832 A 22 22 0 0 0 22.429688 512.16406 z "
       id="path4902" />
    <circle
       r="20"
       cy="504"
       cx="168"
       id="circle4915"
       style="display:inline;opacity:1;fill:#435cbf;fill-opacity:1;stroke:none;stroke-width:1.81818187;stroke-miterlimit:4;stroke-dasharray:none;stroke-opacity:1;enable-background:new" />
    <path
       inkscape:connector-curvature="0"
       style="display:inline;opacity:1;fill:#000000;fill-opacity:0.2;stroke:none;stroke-width:4;stroke-miterlimit:4;stroke-dasharray:none;stroke-opacity:1;enable-background:new;filter:url(#filter5003)"
       d="m 158.39844,487.4805 a 20,20 0 0 0 -2.23048,1.42578 42,42 0 0 1 12.1836,5.91408 44,44 0 0 0 -11.1914,13.5703 42,42 0 0 1 -6.04298,-14.0703 20,20 0 0 0 -1.38672,2.57812 44,44 0 0 0 6.42188,13.5625 44,44 0 0 0 -2.85156,8.07422 20,20 0 0 0 1.67188,1.6289 42,42 0 0 1 2.53906,-7.92188 44,44 0 0 0 15.17968,12.17578 20,20 0 0 0 2.82422,-0.89842 42,42 0 0 1 -17.03906,-13.28126 42,42 0 0 1 11.49218,-14.1914 42,42 0 0 1 14.17188,20.73046 20,20 0 0 0 1.3711,-2.125 44,44 0 0 0 -13.83204,-19.82812 42,42 0 0 1 9.35938,-4.97656 20,20 0 0 0 -1.89062,-1.44532 44,44 0 0 0 -9.15234,5.16406 44,44 0 0 0 -11.59766,-6.08594 z"
       id="path4997" />
    <path
       id="path4935"
       d="m 158.39844,486.48046 a 20,20 0 0 0 -2.23048,1.42578 42,42 0 0 1 12.1836,5.91408 44,44 0 0 0 -11.1914,13.5703 42,42 0 0 1 -6.04298,-14.0703 20,20 0 0 0 -1.38672,2.57812 44,44 0 0 0 6.42188,13.5625 44,44 0 0 0 -2.85156,8.07422 20,20 0 0 0 1.67188,1.6289 42,42 0 0 1 2.53906,-7.92188 44,44 0 0 0 15.17968,12.17578 20,20 0 0 0 2.82422,-0.89842 42,42 0 0 1 -17.03906,-13.28126 42,42 0 0 1 11.49218,-14.1914 42,42 0 0 1 14.17188,20.73046 20,20 0 0 0 1.3711,-2.125 44,44 0 0 0 -13.83204,-19.82812 42,42 0 0 1 9.35938,-4.97656 20,20 0 0 0 -1.89062,-1.44532 44,44 0 0 0 -9.15234,5.16406 44,44 0 0 0 -11.59766,-6.08594 z"
       style="display:inline;opacity:1;fill:#f5f5f5;fill-opacity:1;stroke:none;stroke-width:4;stroke-miterlimit:4;stroke-dasharray:none;stroke-opacity:1;enable-background:new"
       inkscape:connector-curvature="0" />
    <path
       style="display:inline;fill:url(#linearGradient4171-1-0);fill-opacity:1;stroke:none;stroke-width:2;stroke-linecap:round;stroke-linejoin:round;stroke-miterlimit:4;stroke-dasharray:none;stroke-opacity:1;enable-background:new"
       d="m 168.00001,482.0007 a 21.99977,21.999992 0 0 0 -1.89063,0.095 21.999769,21.999992 0 0 0 -1.03685,0.1252 21.99977,21.999992 0 0 0 -1.14334,0.1737 21.999769,21.999992 0 0 0 -1.02191,0.2298 21.99977,21.999992 0 0 0 -1.10224,0.2803 21.999769,21.999992 0 0 0 -1.01631,0.3381 21.99977,21.999992 0 0 0 -1.06488,0.3886 21.999769,21.999992 0 0 0 -0.9752,0.4372 21.99977,21.999992 0 0 0 -1.00883,0.4876 21.999769,21.999992 0 0 0 -0.93971,0.538 21.99977,21.999992 0 0 0 -0.95465,0.5848 21.999769,21.999992 0 0 0 -0.87619,0.6277 21.99977,21.999992 0 0 0 -0.89301,0.68 21.999769,21.999992 0 0 0 -0.78838,0.6912 21.99977,21.999992 0 0 0 -0.84629,0.7881 21.999769,21.999992 0 0 0 -6.44157,15.5345 21.999769,21.999992 0 0 0 6.19684,15.3043 h 0.0318 a 21.99977,21.999992 0 0 0 15.77139,6.6957 21.99977,21.999992 0 0 0 1.86821,-0.094 21.999769,21.999992 0 0 0 1.08169,-0.1308 21.99977,21.999992 0 0 0 1.12092,-0.17 21.999769,21.999992 0 0 0 1.02191,-0.2297 21.99977,21.999992 0 0 0 1.10224,-0.2803 21.999769,21.999992 0 0 0 1.01631,-0.3381 21.99977,21.999992 0 0 0 1.06488,-0.3887 21.999769,21.999992 0 0 0 0.9752,-0.4371 21.99977,21.999992 0 0 0 1.00883,-0.4876 21.999769,21.999992 0 0 0 0.93971,-0.5381 21.99977,21.999992 0 0 0 0.95465,-0.5847 21.999769,21.999992 0 0 0 0.87619,-0.6277 21.99977,21.999992 0 0 0 0.893,-0.68 21.999769,21.999992 0 0 0 0.78839,-0.6912 21.99977,21.999992 0 0 0 0.84629,-0.7885 21.999769,21.999992 0 0 0 6.44158,-15.5333 21.999769,21.999992 0 0 0 -6.19871,-15.3044 h -0.0299 a 21.99977,21.999992 0 0 0 -15.7714,-6.6956 z"
       id="circle4163-3-4"
       inkscape:connector-curvature="0" />
    <path
       inkscape:connector-curvature="0"
       style="display:inline;opacity:1;fill:#000000;fill-opacity:0.2;stroke:none;stroke-width:4.00004292;stroke-miterlimit:4;stroke-dasharray:none;stroke-opacity:1;enable-background:new;filter:url(#filter4977)"
       d="m 230.37906,472.85449 a 26.000279,26.000279 0 0 0 -2.76565,1.31252 42.000451,42.000451 0 0 1 13.79311,5.97664 44.000472,44.000472 0 0 0 -19.34005,20.51192 42.000451,42.000451 0 0 1 -5.4727,-14.9064 26.000279,26.000279 0 0 0 -1.35159,3.3477 44.000472,44.000472 0 0 0 5.836,13.76187 44.000472,44.000472 0 0 0 -2.44924,8.89461 26.000279,26.000279 0 0 0 1.72657,2.22659 42.000451,42.000451 0 0 1 2.13675,-9.07822 44.000472,44.000472 0 0 0 25.29715,16.87128 26.000279,26.000279 0 0 0 3.49614,-1.37501 42.000451,42.000451 0 0 1 -27.95734,-17.77364 42.000451,42.000451 0 0 1 19.86741,-21.16428 42.000451,42.000451 0 0 1 16.7697,32.18784 26.000279,26.000279 0 0 0 1.83986,-2.53908 44.000472,44.000472 0 0 0 -16.48846,-30.59799 42.000451,42.000451 0 0 1 11.67201,-3.17582 26.000279,26.000279 0 0 0 -2.15626,-1.6758 44.000472,44.000472 0 0 0 -11.39857,3.50394 44.000472,44.000472 0 0 0 -13.05484,-6.30867 z"
       id="path4971" />
    <path
       id="path4945"
       d="m 230.3789,471.85546 a 26,26 0 0 0 -2.76562,1.3125 42,42 0 0 1 13.79296,5.97658 44,44 0 0 0 -19.33984,20.5117 42,42 0 0 1 -5.47264,-14.90624 26,26 0 0 0 -1.35158,3.34766 44,44 0 0 0 5.83594,13.76172 44,44 0 0 0 -2.44922,8.89452 26,26 0 0 0 1.72656,2.22656 42,42 0 0 1 2.13672,-9.07812 44,44 0 0 0 25.29688,16.8711 26,26 0 0 0 3.4961,-1.375 42,42 0 0 1 -27.95704,-17.77344 42,42 0 0 1 19.8672,-21.16406 42,42 0 0 1 16.76952,32.1875 26,26 0 0 0 1.83984,-2.53906 44,44 0 0 0 -16.48828,-30.59766 42,42 0 0 1 11.67188,-3.17578 26,26 0 0 0 -2.15624,-1.67578 44,44 0 0 0 -11.39844,3.5039 44,44 0 0 0 -13.0547,-6.3086 z"
       style="display:inline;opacity:1;fill:#f5f5f5;fill-opacity:1;stroke:none;stroke-width:4;stroke-miterlimit:4;stroke-dasharray:none;stroke-opacity:1;enable-background:new"
       inkscape:connector-curvature="0" />
    <path
       style="display:inline;fill:url(#linearGradient4537);fill-opacity:1;stroke:none;stroke-width:2;stroke-linecap:round;stroke-linejoin:round;stroke-miterlimit:4;stroke-dasharray:none;stroke-opacity:1;enable-background:new"
       d="m 239.99984,466.00072 a 29.999537,29.999957 0 0 0 -2.57812,0.128 29.999532,29.999957 0 0 0 -1.41388,0.172 29.999537,29.999957 0 0 0 -1.5591,0.2372 29.999532,29.999957 0 0 0 -1.3935,0.3134 29.999537,29.999957 0 0 0 -1.50305,0.382 29.999532,29.999957 0 0 0 -1.38586,0.4612 29.999537,29.999957 0 0 0 -1.45211,0.53 29.999532,29.999957 0 0 0 -1.32979,0.5962 29.999537,29.999957 0 0 0 -1.37569,0.6648 29.999532,29.999957 0 0 0 -1.28141,0.7336 29.999537,29.999957 0 0 0 -1.30178,0.7976 29.999532,29.999957 0 0 0 -1.1948,0.8558 29.999537,29.999957 0 0 0 -1.21776,0.9272 29.999532,29.999957 0 0 0 -1.07503,0.9426 29.999537,29.999957 0 0 0 -1.15404,1.0748 29.999532,29.999957 0 0 0 -8.78392,21.1832 29.999532,29.999957 0 0 0 8.45018,20.8696 h 0.0434 a 29.999537,29.999957 0 0 0 21.50634,9.1304 29.999537,29.999957 0 0 0 2.54755,-0.128 29.999532,29.999957 0 0 0 1.47506,-0.178 29.999537,29.999957 0 0 0 1.5285,-0.2318 29.999532,29.999957 0 0 0 1.3935,-0.3132 29.999537,29.999957 0 0 0 1.50304,-0.3824 29.999532,29.999957 0 0 0 1.38586,-0.4608 29.999537,29.999957 0 0 0 1.45212,-0.5302 29.999532,29.999957 0 0 0 1.32982,-0.596 29.999537,29.999957 0 0 0 1.37566,-0.6648 29.999532,29.999957 0 0 0 1.2814,-0.734 29.999537,29.999957 0 0 0 1.30182,-0.7972 29.999532,29.999957 0 0 0 1.19478,-0.856 29.999537,29.999957 0 0 0 1.21774,-0.9272 29.999532,29.999957 0 0 0 1.07506,-0.9426 29.999537,29.999957 0 0 0 1.15402,-1.0752 29.999532,29.999957 0 0 0 8.78395,-21.1818 29.999532,29.999957 0 0 0 -8.45275,-20.8696 h -0.0406 a 29.999537,29.999957 0 0 0 -21.50635,-9.1304 z"
       id="path4535"
       inkscape:connector-curvature="0" />
  </g>
</svg>
