<?xml version="1.0" encoding="UTF-8" standalone="no"?>
<!-- Created with Inkscape (http://www.inkscape.org/) -->

<svg
   xmlns:dc="http://purl.org/dc/elements/1.1/"
   xmlns:cc="http://creativecommons.org/ns#"
   xmlns:rdf="http://www.w3.org/1999/02/22-rdf-syntax-ns#"
   xmlns:svg="http://www.w3.org/2000/svg"
   xmlns="http://www.w3.org/2000/svg"
   xmlns:xlink="http://www.w3.org/1999/xlink"
   xmlns:sodipodi="http://sodipodi.sourceforge.net/DTD/sodipodi-0.dtd"
   xmlns:inkscape="http://www.inkscape.org/namespaces/inkscape"
   width="48"
   height="48"
   viewBox="0 0 48 48"
   id="svg2"
   version="1.1"
   inkscape:version="0.91 r13725"
   sodipodi:docname="accessories-calculator.svg"
   inkscape:export-filename="/home/poltertec/Downloads/testikel2.png"
   inkscape:export-xdpi="360"
   inkscape:export-ydpi="360">
  <defs
     id="defs4">
    <filter
       style="color-interpolation-filters:sRGB"
       inkscape:label="Drop Shadow"
       id="filter4630">
      <feFlood
         flood-opacity="1"
         flood-color="rgb(0,0,0)"
         result="flood"
         id="feFlood4632" />
      <feComposite
         in="flood"
         in2="SourceGraphic"
         operator="in"
         result="composite1"
         id="feComposite4634" />
      <feGaussianBlur
         in="composite1"
         stdDeviation="0.5"
         result="blur"
         id="feGaussianBlur4636" />
      <feOffset
         dx="0"
         dy="0.5"
         result="offset"
         id="feOffset4638" />
      <feComposite
         in="SourceGraphic"
         in2="offset"
         operator="over"
         result="composite2"
         id="feComposite4640" />
    </filter>
    <linearGradient
       inkscape:collect="always"
       id="linearGradient4165">
      <stop
         style="stop-color:#ffffff;stop-opacity:0.15000001"
         offset="0"
         id="stop4167" />
      <stop
         style="stop-color:#177ed5;stop-opacity:0;"
         offset="1"
         id="stop4169" />
    </linearGradient>
    <linearGradient
       inkscape:collect="always"
       xlink:href="#linearGradient4165"
       id="linearGradient4171-1"
       x1="7"
       y1="1011.3622"
       x2="41.000019"
       y2="1045.3622"
       gradientUnits="userSpaceOnUse"
       gradientTransform="matrix(0.86956058,0,0,0.86956418,3.1304418,134.13552)" />
  </defs>
  <sodipodi:namedview
     id="base"
     pagecolor="#565656"
     bordercolor="#666666"
     borderopacity="1.0"
     inkscape:pageopacity="0"
     inkscape:pageshadow="2"
     inkscape:zoom="3.0347223"
     inkscape:cx="6.5765685"
     inkscape:cy="-11.497666"
     inkscape:document-units="px"
     inkscape:current-layer="layer1"
     showgrid="true"
     units="px"
     inkscape:window-width="959"
     inkscape:window-height="987"
     inkscape:window-x="959"
     inkscape:window-y="0"
     inkscape:window-maximized="0"
     inkscape:showpageshadow="false"
     showguides="false">
    <inkscape:grid
       type="xygrid"
       id="grid4140" />
  </sodipodi:namedview>
  <metadata
     id="metadata7">
    <rdf:RDF>
      <cc:Work
         rdf:about="">
        <dc:format>image/svg+xml</dc:format>
        <dc:type
           rdf:resource="http://purl.org/dc/dcmitype/StillImage" />
        <dc:title />
      </cc:Work>
    </rdf:RDF>
  </metadata>
  <g
     inkscape:label="Laag 1"
     inkscape:groupmode="layer"
     id="layer1"
     transform="translate(0,-1004.3622)">
    <path
       style="opacity:1;fill:#607d8b;fill-opacity:1;stroke:none;stroke-width:0;stroke-linecap:butt;stroke-linejoin:miter;stroke-miterlimit:0;stroke-dasharray:none;stroke-opacity:1"
       d="m 4,1028.3622 0,16.3636 c 0,2.0146 1.6218182,3.6364 3.6363636,3.6364 l 16.3636364,0 0,-20 -20,0 z"
       id="rect4174"
       inkscape:connector-curvature="0" />
    <path
       id="path4179"
       d="m 24,1008.3622 -16.3636364,0 C 5.6218182,1008.3622 4,1009.984 4,1011.9986 l 0,16.3636 20,0 0,-20 z"
       style="opacity:1;fill:#90a4ae;fill-opacity:1;stroke:none;stroke-width:0;stroke-linecap:butt;stroke-linejoin:miter;stroke-miterlimit:0;stroke-dasharray:none;stroke-opacity:1"
       inkscape:connector-curvature="0" />
    <path
       style="fill:#000000;fill-opacity:0.2;stroke:none;stroke-width:0.40000001;stroke-miterlimit:4;stroke-dasharray:none;stroke-opacity:0.1"
       d="m 31.878196,1014.2258 -1.51456,1.5146 3.030895,3.0309 -3.030895,3.0309 1.51456,1.5145 3.030895,-3.0309 3.030894,3.0309 1.51456,-1.5145 -3.030894,-3.0309 3.030894,-3.0309 -1.51456,-1.5146 -3.030894,3.0309 -3.030895,-3.0309 z"
       id="rect4195"
       inkscape:connector-curvature="0" />
    <path
       id="path4166"
       d="m 30.969105,1013.3167 -1.51456,1.5146 3.030895,3.0309 -3.030895,3.0309 1.51456,1.5146 3.030895,-3.031 3.030895,3.031 1.51456,-1.5146 -3.030895,-3.0309 3.030895,-3.0309 -1.51456,-1.5146 -3.030895,3.031 -3.030895,-3.031 z"
       style="fill:#ffffff;fill-opacity:1;stroke:none;stroke-width:0.40000001;stroke-miterlimit:4;stroke-dasharray:none;stroke-opacity:0.1"
       inkscape:connector-curvature="0" />
    <path
       inkscape:connector-curvature="0"
       style="opacity:1;fill:#455a64;fill-opacity:1;stroke:none;stroke-width:0;stroke-linecap:butt;stroke-linejoin:miter;stroke-miterlimit:0;stroke-dasharray:none;stroke-opacity:1"
       d="m 44,1028.3622 0,-16.3636 c 0,-2.0146 -1.621818,-3.6364 -3.636364,-3.6364 l -16.363636,0 0,20 20,0 z"
       id="path4181" />
    <path
       style="opacity:1;fill:#ffffff;fill-opacity:0.2;stroke:none;stroke-width:0;stroke-linecap:butt;stroke-linejoin:miter;stroke-miterlimit:0;stroke-dasharray:none;stroke-opacity:1"
       d="M 7.6363636,1008.3622 C 5.6218182,1008.3622 4,1009.984 4,1011.9986 l 0,0.9091 c 0,-2.0146 1.6218182,-3.6364 3.6363636,-3.6364 l 32.7272724,0 c 2.014546,0 3.636364,1.6218 3.636364,3.6364 l 0,-0.9091 c 0,-2.0146 -1.621818,-3.6364 -3.636364,-3.6364 l -32.7272724,0 z"
       id="rect4167"
       inkscape:connector-curvature="0" />
    <path
       id="path4183"
       d="m 24,1048.3622 16.363636,0 c 2.014546,0 3.636364,-1.6218 3.636364,-3.6364 l 0,-16.3636 -20,0 0,20 z"
       style="opacity:1;fill:#03a9f4;fill-opacity:1;stroke:none;stroke-width:0;stroke-linecap:butt;stroke-linejoin:miter;stroke-miterlimit:0;stroke-dasharray:none;stroke-opacity:1"
       inkscape:connector-curvature="0" />
    <path
       id="path4173"
       d="M 7.6363636,1048.3622 C 5.6218182,1048.3622 4,1046.7404 4,1044.7258 l 0,-0.9091 c 0,2.0146 1.6218182,3.6364 3.6363636,3.6364 l 32.7272724,0 c 2.014546,0 3.636364,-1.6218 3.636364,-3.6364 l 0,0.9091 c 0,2.0146 -1.621818,3.6364 -3.636364,3.6364 l -32.7272724,0 z"
       style="opacity:1;fill:#000000;fill-opacity:0.2;stroke:none;stroke-width:0;stroke-linecap:butt;stroke-linejoin:miter;stroke-miterlimit:0;stroke-dasharray:none;stroke-opacity:1"
       inkscape:connector-curvature="0" />
    <rect
       y="1018.3622"
       x="11"
       height="2"
       width="8"
       id="rect4189"
       style="fill:#000000;fill-opacity:0.2;stroke:none;stroke-width:0.40000001;stroke-miterlimit:4;stroke-dasharray:none;stroke-opacity:0.1" />
    <rect
       style="fill:#ffffff;fill-opacity:1;stroke:none;stroke-width:0.40000001;stroke-miterlimit:4;stroke-dasharray:none;stroke-opacity:0.1"
       id="rect4168"
       width="8"
       height="2"
       x="10"
       y="1017.3622" />
    <path
       sodipodi:nodetypes="ccccccccccccc"
       style="fill:#000000;fill-opacity:0.2;fill-rule:evenodd;stroke:none;stroke-width:1px;stroke-linecap:butt;stroke-linejoin:miter;stroke-opacity:1"
       d="m 39,1016.8622 -1.5,-1.5 -2.5,2.5 -2.5,-2.5 -1.5,1.5 2.5,2.5 -2.5,2.5 1.5,1.5 2.5,-2.5 2.5,2.5 1.5,-1.5 -2.5,-2.5 2.5,-2.5"
       id="path4202"
       inkscape:connector-curvature="0" />
    <path
       style="fill:url(#linearGradient4171-1);fill-opacity:1;stroke:none;stroke-width:2;stroke-linecap:round;stroke-linejoin:round;stroke-miterlimit:4;stroke-dasharray:none;stroke-opacity:1"
       d="M 7.6363636,1008.3622 C 5.6218182,1008.3622 4,1009.984 4,1011.9986 l 0,16.3636 0,16.3636 c 0,2.0146 1.6218182,3.6364 3.6363636,3.6364 l 16.3636364,0 16.363636,0 c 2.014546,0 3.636364,-1.6218 3.636364,-3.6364 l 0,-16.3636 0,-16.3636 c 0,-2.0146 -1.621818,-3.6364 -3.636364,-3.6364 l -16.363636,0 -16.3636364,0 z"
       id="circle4163-3"
       inkscape:connector-curvature="0" />
    <rect
       style="fill:#000000;fill-opacity:0.2;stroke:none;stroke-width:0.40000001;stroke-miterlimit:4;stroke-dasharray:none;stroke-opacity:0.1"
       id="rect4170"
       width="8"
       height="2"
       x="31"
       y="1036.3622" />
    <rect
       y="1035.3622"
       x="30"
       height="2"
       width="8"
       id="rect4172"
       style="fill:#ffffff;fill-opacity:1;stroke:none;stroke-width:0.40000001;stroke-miterlimit:4;stroke-dasharray:none;stroke-opacity:0.1" />
    <rect
       y="1040.3622"
       x="31"
       height="2"
       width="8"
       id="rect4175"
       style="fill:#000000;fill-opacity:0.2;stroke:none;stroke-width:0.40000001;stroke-miterlimit:4;stroke-dasharray:none;stroke-opacity:0.1" />
    <rect
       style="fill:#ffffff;fill-opacity:1;stroke:none;stroke-width:0.40000001;stroke-miterlimit:4;stroke-dasharray:none;stroke-opacity:0.1"
       id="rect4177"
       width="8"
       height="2"
       x="30"
       y="1039.3622" />
    <rect
       style="fill:#000000;fill-opacity:0.2;stroke:none;stroke-width:0.40000001;stroke-miterlimit:4;stroke-dasharray:none;stroke-opacity:0.1"
       id="rect4179"
       width="8"
       height="2"
       x="11"
       y="1038.3622" />
    <rect
       y="-16"
       x="1035.3622"
       height="2"
       width="8"
       id="rect4183"
       style="fill:#000000;fill-opacity:0.2;stroke:none;stroke-width:0.40000001;stroke-miterlimit:4;stroke-dasharray:none;stroke-opacity:0.1"
       transform="matrix(0,1,-1,0,0,0)" />
    <rect
       y="1037.3622"
       x="10"
       height="2"
       width="8"
       id="rect4181"
       style="fill:#ffffff;fill-opacity:1;stroke:none;stroke-width:0.40000001;stroke-miterlimit:4;stroke-dasharray:none;stroke-opacity:0.1" />
    <rect
       style="fill:#ffffff;fill-opacity:1;stroke:none;stroke-width:0.40000001;stroke-miterlimit:4;stroke-dasharray:none;stroke-opacity:0.1"
       id="rect4185"
       width="8"
       height="2"
       x="1034.3622"
       y="-15"
       transform="matrix(0,1,-1,0,0,0)" />
    <path
       inkscape:connector-curvature="0"
       id="path4200"
       d="m 38,1015.8622 -1.5,-1.5 -2.5,2.5 -2.5,-2.5 -1.5,1.5 2.5,2.5 -2.5,2.5 1.5,1.5 2.5,-2.5 2.5,2.5 1.5,-1.5 -2.5,-2.5 2.5,-2.5"
       style="fill:#ffffff;fill-opacity:1;fill-rule:evenodd;stroke:none;stroke-width:1px;stroke-linecap:butt;stroke-linejoin:miter;stroke-opacity:1"
       sodipodi:nodetypes="ccccccccccccc" />
  </g>
</svg>
