<?xml version="1.0" encoding="UTF-8" standalone="no"?>
<!-- Created with Inkscape (http://www.inkscape.org/) -->

<svg
   xmlns:dc="http://purl.org/dc/elements/1.1/"
   xmlns:cc="http://creativecommons.org/ns#"
   xmlns:rdf="http://www.w3.org/1999/02/22-rdf-syntax-ns#"
   xmlns:svg="http://www.w3.org/2000/svg"
   xmlns="http://www.w3.org/2000/svg"
   xmlns:xlink="http://www.w3.org/1999/xlink"
   xmlns:sodipodi="http://sodipodi.sourceforge.net/DTD/sodipodi-0.dtd"
   xmlns:inkscape="http://www.inkscape.org/namespaces/inkscape"
   width="48"
   height="48"
   id="svg2"
   version="1.1"
   inkscape:version="0.91 r13725"
   sodipodi:docname="california.svg"
   inkscape:export-filename="/home/afel/Pictures/evos-mockups/personal-app-icons/california.png"
   inkscape:export-xdpi="360"
   inkscape:export-ydpi="360">
  <defs
     id="defs4">
    <inkscape:perspective
       sodipodi:type="inkscape:persp3d"
       inkscape:vp_x="0 : 12 : 1"
       inkscape:vp_y="0 : 1000 : 0"
       inkscape:vp_z="24 : 12 : 1"
       inkscape:persp3d-origin="12 : 8 : 1"
       id="perspective3810" />
    <linearGradient
       inkscape:collect="always"
       xlink:href="#linearGradient3914"
       id="linearGradient3010"
       gradientUnits="userSpaceOnUse"
       gradientTransform="translate(43.999999,-16.707918)"
       x1="315.875"
       y1="-244.04208"
       x2="347.93805"
       y2="-211.97903" />
    <linearGradient
       id="linearGradient3914">
      <stop
         style="stop-color:#ffffff;stop-opacity:0.14901961;"
         offset="0"
         id="stop3916" />
      <stop
         style="stop-color:#177ed5;stop-opacity:0;"
         offset="1"
         id="stop3918" />
    </linearGradient>
    <linearGradient
       inkscape:collect="always"
       xlink:href="#linearGradient3914"
       id="linearGradient3036"
       gradientUnits="userSpaceOnUse"
       gradientTransform="translate(-307.99999,1255.6545)"
       x1="315.875"
       y1="-244.04208"
       x2="347.93805"
       y2="-211.97903" />
    <linearGradient
       inkscape:collect="always"
       xlink:href="#linearGradient3914"
       id="linearGradient3012"
       gradientUnits="userSpaceOnUse"
       gradientTransform="matrix(0.90909091,0,0,0.90909091,-277.81817,1234.9916)"
       x1="315.875"
       y1="-244.04208"
       x2="347.93805"
       y2="-211.97903" />
  </defs>
  <sodipodi:namedview
     id="base"
     pagecolor="#ffffff"
     bordercolor="#666666"
     borderopacity="1.0"
     inkscape:pageopacity="0.0"
     inkscape:pageshadow="2"
     inkscape:zoom="8"
     inkscape:cx="52.941494"
     inkscape:cy="10.643756"
     inkscape:document-units="px"
     inkscape:current-layer="layer1"
     showgrid="true"
     inkscape:snap-grids="true"
     inkscape:object-paths="true"
     inkscape:snap-intersection-paths="true"
     inkscape:snap-smooth-nodes="true"
     inkscape:object-nodes="true"
     inkscape:snap-midpoints="true"
     inkscape:window-width="1680"
     inkscape:window-height="996"
     inkscape:window-x="0"
     inkscape:window-y="27"
     inkscape:window-maximized="1"
     inkscape:showpageshadow="false"
     borderlayer="true"
     inkscape:snap-bbox="true"
     inkscape:snap-nodes="false"
     inkscape:bbox-paths="true"
     inkscape:bbox-nodes="true"
     inkscape:snap-bbox-edge-midpoints="false"
     inkscape:snap-bbox-midpoints="false"
     inkscape:snap-global="true">
    <inkscape:grid
       type="xygrid"
       id="grid3808"
       empspacing="4"
       visible="true"
       enabled="true"
       snapvisiblegridlinesonly="true" />
  </sodipodi:namedview>
  <metadata
     id="metadata7">
    <rdf:RDF>
      <cc:Work
         rdf:about="">
        <dc:format>image/svg+xml</dc:format>
        <dc:type
           rdf:resource="http://purl.org/dc/dcmitype/StillImage" />
        <dc:title />
      </cc:Work>
    </rdf:RDF>
  </metadata>
  <g
     inkscape:label="Layer 1"
     inkscape:groupmode="layer"
     id="layer1"
     transform="translate(0,-1004.3622)">
    <g
       id="g4199">
      <path
         sodipodi:nodetypes="sssssssss"
         inkscape:connector-curvature="0"
         id="rect2984"
         d="m 7,1008.3622 34,0 c 1.662,0 3,1.338 3,3 l 0,34 c 0,1.662 -1.338,3 -3,3 l -34,0 c -1.662,0 -3,-1.338 -3,-3 l 0,-34 c 0,-1.662 1.338,-3 3,-3 z"
         style="fill:#8d6e63;fill-opacity:1;stroke:none" />
      <rect
         ry="3"
         rx="3"
         y="1037.3622"
         x="6"
         height="9"
         width="36"
         id="rect3754"
         style="fill:#cccccc;fill-opacity:1;stroke:none" />
      <path
         sodipodi:nodetypes="cscsscsc"
         inkscape:connector-curvature="0"
         id="rect2984-4"
         d="m 7,1008.3622 34,0 c 1.662,0 3,1.338 3,3 0,-0.9723 -1.492628,-2 -3,-2 l -34,0 c -1.4380375,0 -3,1 -3,1.9998 0,-1.662 1.338,-3 3,-3 z"
         style="opacity:0.2;fill:#ffffff;fill-opacity:1;stroke:none" />
      <path
         sodipodi:nodetypes="cscsscsc"
         inkscape:connector-curvature="0"
         id="rect2984-4-2"
         d="m 7,1048.3622 34,0 c 1.662,0 3,-1.338 3,-3 0,0.9723 -1.492628,2 -3,2 l -34,0 c -1.438037,0 -3,-1 -3,-1.9998 0,1.662 1.338,3 3,3 z"
         style="opacity:0.2;fill:#000000;fill-opacity:1;stroke:none" />
      <path
         inkscape:connector-curvature="0"
         id="path4057"
         d="m 35,1044.3622 7,-8 -8,8 z"
         style="fill:none;stroke:none" />
      <rect
         ry="3"
         rx="3"
         y="1036.3622"
         x="6"
         height="9"
         width="36"
         id="rect3754-99"
         style="fill:#d9d9d9;fill-opacity:1;stroke:none" />
      <path
         sodipodi:nodetypes="cssccsccc"
         inkscape:connector-curvature="0"
         id="rect3754-4-2"
         d="m 42,1043.3231 c 0,1.662 -1.338,3 -3,3 l -30,0 c -1.662,0 -3,-1.338 -3,-3 l 0,-1.9609 c 0,2.4091 2.4096669,2.9993 3,3 l 30.015625,0.033 c 0.806428,0 2.984375,-0.704 2.984375,-3.0331 z"
         style="opacity:0.1;fill:#000000;fill-opacity:1;stroke:none" />
      <path
         sodipodi:nodetypes="csssscc"
         inkscape:connector-curvature="0"
         id="rect3754-4"
         d="m 41.992187,1013.3622 0,28 c 0,1.662 -1.338,3 -3,3 l -29.9999995,0 c -1.662,0 -3,-1.338 -3,-3 l 0,-28 c 3.3324197,0 32.9127135,0 35.9999995,0 z"
         style="fill:#e5e5e5;fill-opacity:1;stroke:none" />
      <path
         sodipodi:nodetypes="csscc"
         inkscape:connector-curvature="0"
         id="rect3754-9"
         d="m 34,1044.3622 0,-5 c 0,-1.662 1.338,-3 3,-3 l 5,0 c -3.545146,3.5451 -4.834446,4.8344 -8,8 z"
         style="fill:#fafafa;fill-opacity:1;stroke:none" />
      <path
         sodipodi:nodetypes="ssccccs"
         inkscape:connector-curvature="0"
         id="rect3915"
         d="m 8.9921875,1010.3622 29.9999995,0 c 1.662,0 3,1.338 3,3 l 0,3 c -10.93206,0 -33.5383975,0 -35.9999995,0 l 0,-3 c 0,-1.662 1.338,-3 3,-3 z"
         style="fill:#29b6f6;fill-opacity:1;stroke:none" />
      <path
         sodipodi:nodetypes="sscsscs"
         inkscape:connector-curvature="0"
         id="rect3915-7"
         d="m 9,1010.3622 30,0 c 1.662,0 3,1.338 3,3 0,-1 -1.489382,-2 -3,-2 l -30,0 c -1.5151027,0 -3,1 -3,2 0,-1.662 1.338,-3 3,-3 z"
         style="opacity:0.1;fill:#ffffff;fill-opacity:1;stroke:none" />
      <path
         inkscape:connector-curvature="0"
         id="path4055"
         d="m 6,1016.3622 0,1 36,0 0,-1 z"
         style="opacity:0.1;fill:#000000;fill-opacity:1;stroke:none" />
      <g
         id="text3938"
         style="font-style:normal;font-weight:normal;font-size:40px;line-height:125%;font-family:Sans;letter-spacing:0px;word-spacing:0px;fill:#000000;fill-opacity:1;stroke:none">
        <path
           id="path3035"
           style="font-variant:normal;font-stretch:normal;font-size:22px;font-family:'Droid Sans';-inkscape-font-specification:'Droid Sans';fill:#4d4d4d"
           d="m 22.359375,1037.1073 -9.796875,0 0,-1.6758 3.759766,-4.0928 c 0.537104,-0.58 1.016921,-1.11 1.439453,-1.5898 0.422519,-0.4798 0.780592,-0.9489 1.074218,-1.4072 0.300774,-0.4583 0.529941,-0.9167 0.6875,-1.375 0.157544,-0.4655 0.23632,-0.9704 0.236329,-1.5147 -9e-6,-0.4225 -0.06088,-0.7949 -0.182618,-1.1172 -0.121752,-0.3222 -0.297208,-0.5943 -0.526367,-0.8164 -0.222012,-0.2291 -0.486986,-0.401 -0.794922,-0.5156 -0.307949,-0.1146 -0.651698,-0.1719 -1.03125,-0.1719 -0.680343,0 -1.296228,0.1397 -1.847656,0.419 -0.544274,0.2721 -1.063479,0.623 -1.557617,1.0527 l -1.095703,-1.2783 c 0.286457,-0.2578 0.594399,-0.4977 0.923828,-0.7197 0.329425,-0.2292 0.683916,-0.4261 1.063477,-0.5909 0.379553,-0.1647 0.780594,-0.2936 1.203125,-0.3867 0.422521,-0.1002 0.866531,-0.1503 1.332031,-0.1504 0.687493,10e-5 1.306959,0.097 1.858398,0.2901 0.558586,0.1933 1.031242,0.4726 1.417969,0.8379 0.386709,0.3581 0.68391,0.7985 0.891601,1.3213 0.214834,0.5156 0.322256,1.0993 0.322266,1.7509 -10e-6,0.6088 -0.09669,1.1888 -0.290039,1.7403 -0.186208,0.5514 -0.447601,1.0957 -0.78418,1.6328 -0.329436,0.5299 -0.726896,1.0635 -1.192382,1.6006 -0.458341,0.5371 -0.956062,1.0957 -1.493165,1.6757 l -3.018554,3.212 0,0.086 7.401367,0 0,1.7832"
           inkscape:connector-curvature="0" />
        <path
           id="path3037"
           style="font-variant:normal;font-stretch:normal;font-size:22px;font-family:'Droid Sans';-inkscape-font-specification:'Droid Sans';fill:#4d4d4d"
           d="m 29.50293,1027.4716 c 0.708977,0 1.367831,0.1002 1.976562,0.3007 0.615877,0.1934 1.149405,0.4834 1.600586,0.8702 0.458324,0.3867 0.816396,0.8665 1.074219,1.4394 0.257802,0.5729 0.386708,1.2354 0.386719,1.9873 -1.1e-5,0.8164 -0.121756,1.5505 -0.365235,2.2022 -0.2435,0.6517 -0.605153,1.2031 -1.084961,1.6543 -0.479826,0.4511 -1.074227,0.7985 -1.783203,1.042 -0.70183,0.2363 -1.511074,0.3544 -2.427734,0.3544 -0.365239,0 -0.726893,-0.018 -1.084961,-0.054 -0.350915,-0.036 -0.691084,-0.089 -1.020508,-0.1611 -0.322268,-0.064 -0.630211,-0.1504 -0.923828,-0.2578 -0.293622,-0.1074 -0.558595,-0.2328 -0.794922,-0.376 l 0,-1.8476 c 0.236327,0.1647 0.512042,0.3115 0.827148,0.4404 0.322264,0.1289 0.658852,0.2363 1.009766,0.3222 0.350908,0.086 0.701819,0.154 1.052734,0.2042 0.358069,0.043 0.687496,0.064 0.988282,0.064 0.565749,0 1.070631,-0.064 1.514648,-0.1934 0.444003,-0.136 0.81998,-0.3437 1.12793,-0.623 0.307934,-0.2793 0.544262,-0.6302 0.708984,-1.0527 0.164705,-0.4226 0.247062,-0.9239 0.247071,-1.5039 -9e-6,-1.0241 -0.315113,-1.8047 -0.945313,-2.3418 -0.630216,-0.5443 -1.546881,-0.8164 -2.75,-0.8164 -0.193364,0 -0.404627,0.011 -0.633789,0.032 -0.22201,0.014 -0.447595,0.036 -0.676758,0.064 -0.222009,0.029 -0.436852,0.061 -0.644531,0.097 -0.200524,0.029 -0.375979,0.057 -0.526367,0.086 l -0.966797,-0.6124 0.59082,-7.3906 7.41211,0 0,1.7832 -5.714844,0 -0.418946,4.501 c 0.229163,-0.043 0.529944,-0.09 0.902344,-0.1396 0.379553,-0.05 0.827143,-0.075 1.342774,-0.075"
           inkscape:connector-curvature="0" />
      </g>
      <path
         sodipodi:nodetypes="csscc"
         inkscape:connector-curvature="0"
         id="rect3754-9-7"
         d="m 42,1036.3622 0,5 c 0,1.662 -1.338,3 -3,3 l -5,0 c 3.545146,-3.5451 4.834446,-4.8344 8,-8 z"
         style="fill:#d9d9d9;fill-opacity:1;stroke:none" />
      <circle
         id="path3918"
         style="fill:#e6e6e6;fill-opacity:1;stroke:none"
         cx="16.5"
         cy="1013.8622"
         r="1.5" />
      <path
         sodipodi:nodetypes="ccccc"
         inkscape:connector-curvature="0"
         id="path3918-6"
         d="m 18,1013.8622 c 0,-0.5085 -0.671573,-0.9585 -1.5,-0.9585 -0.828427,0 -1.5,0.4611 -1.5,0.9585 0,-0.8284 0.671573,-1.5 1.5,-1.5 0.828427,0 1.5,0.6716 1.5,1.5 z"
         style="opacity:0.1;fill:#000000;fill-opacity:1;stroke:none" />
      <circle
         id="path3918-5"
         style="fill:#e6e6e6;fill-opacity:1;stroke:none"
         cx="31.5"
         cy="1013.8622"
         r="1.5" />
      <path
         sodipodi:nodetypes="ccccc"
         inkscape:connector-curvature="0"
         id="path3918-6-4"
         d="m 33,1013.8622 c 0,-0.5085 -0.671573,-0.9585 -1.5,-0.9585 -0.828427,0 -1.5,0.4611 -1.5,0.9585 0,-0.8284 0.671573,-1.5 1.5,-1.5 0.828427,0 1.5,0.6716 1.5,1.5 z"
         style="opacity:0.1;fill:#000000;fill-opacity:1;stroke:none" />
      <rect
         ry="0.390625"
         rx="0.390625"
         y="1013.3622"
         x="17"
         height="1"
         width="14"
         id="rect3015"
         style="fill:#999999;fill-opacity:1;stroke:none" />
      <rect
         ry="3"
         rx="3"
         y="1008.3622"
         x="4"
         height="40"
         width="40"
         id="rect4064-0-3"
         style="fill:url(#linearGradient3012);fill-opacity:1;stroke:none" />
    </g>
  </g>
</svg>
