<?xml version="1.0" encoding="UTF-8" standalone="no"?>
<!-- Created with Inkscape (http://www.inkscape.org/) -->

<svg
   xmlns:dc="http://purl.org/dc/elements/1.1/"
   xmlns:cc="http://creativecommons.org/ns#"
   xmlns:rdf="http://www.w3.org/1999/02/22-rdf-syntax-ns#"
   xmlns:svg="http://www.w3.org/2000/svg"
   xmlns="http://www.w3.org/2000/svg"
   xmlns:xlink="http://www.w3.org/1999/xlink"
   xmlns:sodipodi="http://sodipodi.sourceforge.net/DTD/sodipodi-0.dtd"
   xmlns:inkscape="http://www.inkscape.org/namespaces/inkscape"
   width="48"
   height="48"
   id="svg2"
   version="1.1"
   inkscape:version="0.48.5 r10040"
   sodipodi:docname="california.svg"
   inkscape:export-filename="/home/afel/Pictures/evos-mockups/personal-app-icons/california.png"
   inkscape:export-xdpi="360"
   inkscape:export-ydpi="360">
  <defs
     id="defs4">
    <inkscape:perspective
       sodipodi:type="inkscape:persp3d"
       inkscape:vp_x="0 : 12 : 1"
       inkscape:vp_y="0 : 1000 : 0"
       inkscape:vp_z="24 : 12 : 1"
       inkscape:persp3d-origin="12 : 8 : 1"
       id="perspective3810" />
    <linearGradient
       inkscape:collect="always"
       xlink:href="#linearGradient3914"
       id="linearGradient3010"
       gradientUnits="userSpaceOnUse"
       gradientTransform="translate(43.999999,-16.707918)"
       x1="315.875"
       y1="-244.04208"
       x2="347.93805"
       y2="-211.97903" />
    <linearGradient
       id="linearGradient3914">
      <stop
         style="stop-color:#ffffff;stop-opacity:0.14901961;"
         offset="0"
         id="stop3916" />
      <stop
         style="stop-color:#177ed5;stop-opacity:0;"
         offset="1"
         id="stop3918" />
    </linearGradient>
    <linearGradient
       inkscape:collect="always"
       xlink:href="#linearGradient3914"
       id="linearGradient3036"
       gradientUnits="userSpaceOnUse"
       gradientTransform="translate(-307.99999,1255.6545)"
       x1="315.875"
       y1="-244.04208"
       x2="347.93805"
       y2="-211.97903" />
  </defs>
  <sodipodi:namedview
     id="base"
     pagecolor="#ffffff"
     bordercolor="#666666"
     borderopacity="1.0"
     inkscape:pageopacity="0.0"
     inkscape:pageshadow="2"
     inkscape:zoom="7.9999996"
     inkscape:cx="39.103455"
     inkscape:cy="25.490981"
     inkscape:document-units="px"
     inkscape:current-layer="layer1"
     showgrid="true"
     inkscape:snap-grids="true"
     inkscape:object-paths="true"
     inkscape:snap-intersection-paths="true"
     inkscape:snap-smooth-nodes="true"
     inkscape:object-nodes="true"
     inkscape:snap-midpoints="true"
     inkscape:window-width="1680"
     inkscape:window-height="1026"
     inkscape:window-x="0"
     inkscape:window-y="24"
     inkscape:window-maximized="1"
     inkscape:showpageshadow="false"
     borderlayer="true"
     inkscape:snap-bbox="true"
     inkscape:snap-nodes="true"
     inkscape:bbox-paths="true"
     inkscape:bbox-nodes="true"
     inkscape:snap-bbox-edge-midpoints="false"
     inkscape:snap-bbox-midpoints="false"
     inkscape:snap-global="false">
    <inkscape:grid
       type="xygrid"
       id="grid3808"
       empspacing="4"
       visible="true"
       enabled="true"
       snapvisiblegridlinesonly="true" />
  </sodipodi:namedview>
  <metadata
     id="metadata7">
    <rdf:RDF>
      <cc:Work
         rdf:about="">
        <dc:format>image/svg+xml</dc:format>
        <dc:type
           rdf:resource="http://purl.org/dc/dcmitype/StillImage" />
        <dc:title />
      </cc:Work>
    </rdf:RDF>
  </metadata>
  <g
     inkscape:label="Layer 1"
     inkscape:groupmode="layer"
     id="layer1"
     transform="translate(0,-1004.3622)">
    <g
       id="g3854">
      <rect
         ry="3"
         rx="3"
         y="1006.3622"
         x="2"
         height="44"
         width="44"
         id="rect2984"
         style="fill:#8d6e63;fill-opacity:1;stroke:none" />
      <rect
         ry="3"
         rx="3"
         y="1037.3622"
         x="6"
         height="9"
         width="36"
         id="rect3754"
         style="fill:#cccccc;fill-opacity:1;stroke:none" />
      <path
         sodipodi:nodetypes="cscsscsc"
         inkscape:connector-curvature="0"
         id="rect2984-4"
         d="m 5,1006.3622 38,0 c 1.662,0 3,1.338 3,3 0,-0.9723 -1.492628,-2 -3,-2 -12.119755,0 -38,0 -38,0 -1.4380375,0 -3,1 -3,1.9998 0,-1.662 1.338,-3 3,-3 z"
         style="opacity:0.2;fill:#ffffff;fill-opacity:1;stroke:none" />
      <path
         sodipodi:nodetypes="cscsscsc"
         inkscape:connector-curvature="0"
         id="rect2984-4-2"
         d="m 5,1050.362 38,0 c 1.662,0 3,-1.338 3,-3 0,0.9723 -1.492628,2 -3,2 -12.119755,0 -38,0 -38,0 -1.438037,0 -3,-1 -3,-1.9998 0,1.662 1.338,3 3,3 z"
         style="opacity:0.2;fill:#000000;fill-opacity:1;stroke:none" />
      <path
         inkscape:connector-curvature="0"
         id="path4057"
         d="m 35,1044.3622 7,-8 -8,8 z"
         style="fill:none;stroke:none" />
      <rect
         ry="3"
         rx="3"
         y="1036.3622"
         x="6"
         height="9"
         width="36"
         id="rect3754-99"
         style="fill:#d9d9d9;fill-opacity:1;stroke:none" />
      <path
         sodipodi:nodetypes="cssccsccc"
         inkscape:connector-curvature="0"
         id="rect3754-4-2"
         d="m 42,1043.3231 c 0,1.662 -1.338,3 -3,3 l -30,0 c -1.662,0 -3,-1.338 -3,-3 l 0,-1.9609 c 0,2.4091 2.4096669,2.9993 3,3 l 30.015625,0.033 c 0.806428,0 2.984375,-0.704 2.984375,-3.0331 z"
         style="opacity:0.1;fill:#000000;fill-opacity:1;stroke:none" />
      <path
         sodipodi:nodetypes="csssscc"
         inkscape:connector-curvature="0"
         id="rect3754-4"
         d="m 41.992187,1013.3622 0,28 c 0,1.662 -1.338,3 -3,3 l -29.9999995,0 c -1.662,0 -3,-1.338 -3,-3 l 0,-28 c 3.3324197,0 32.9127135,0 35.9999995,0 z"
         style="fill:#e5e5e5;fill-opacity:1;stroke:none" />
      <path
         sodipodi:nodetypes="csscc"
         inkscape:connector-curvature="0"
         id="rect3754-9"
         d="m 34,1044.3622 0,-5 c 0,-1.662 1.338,-3 3,-3 l 5,0 c -3.545146,3.5451 -4.834446,4.8344 -8,8 z"
         style="fill:#fafafa;fill-opacity:1;stroke:none" />
      <path
         sodipodi:nodetypes="ssccccs"
         inkscape:connector-curvature="0"
         id="rect3915"
         d="m 8.9921875,1010.3622 29.9999995,0 c 1.662,0 3,1.338 3,3 l 0,3 c -10.93206,0 -33.5383975,0 -35.9999995,0 l 0,-3 c 0,-1.662 1.338,-3 3,-3 z"
         style="fill:#29b6f6;fill-opacity:1;stroke:none" />
      <path
         sodipodi:nodetypes="sscsscs"
         inkscape:connector-curvature="0"
         id="rect3915-7"
         d="m 9,1010.3622 30,0 c 1.662,0 3,1.338 3,3 0,-1 -1.489382,-2 -3,-2 l -30,0 c -1.5151027,0 -3,1 -3,2 0,-1.662 1.338,-3 3,-3 z"
         style="opacity:0.1;fill:#ffffff;fill-opacity:1;stroke:none" />
      <path
         transform="translate(8.5,1020.8622)"
         d="m 10,-7.5 a 1.5,1.5 0 1 1 -3,0 1.5,1.5 0 1 1 3,0 z"
         sodipodi:ry="1.5"
         sodipodi:rx="1.5"
         sodipodi:cy="-7.5"
         sodipodi:cx="8.5"
         id="path3918"
         style="fill:#e6e6e6;fill-opacity:1;stroke:none"
         sodipodi:type="arc" />
      <path
         sodipodi:nodetypes="ccccc"
         inkscape:connector-curvature="0"
         id="path3918-6"
         d="m 18.5,1013.3622 c 0,-0.5085 -0.671573,-0.9585 -1.5,-0.9585 -0.828427,0 -1.5,0.4611 -1.5,0.9585 0,-0.8284 0.671573,-1.5 1.5,-1.5 0.828427,0 1.5,0.6716 1.5,1.5 z"
         style="opacity:0.1;fill:#000000;fill-opacity:1;stroke:none" />
      <path
         transform="translate(22.5,1020.8622)"
         d="m 10,-7.5 a 1.5,1.5 0 1 1 -3,0 1.5,1.5 0 1 1 3,0 z"
         sodipodi:ry="1.5"
         sodipodi:rx="1.5"
         sodipodi:cy="-7.5"
         sodipodi:cx="8.5"
         id="path3918-5"
         style="fill:#e6e6e6;fill-opacity:1;stroke:none"
         sodipodi:type="arc" />
      <path
         sodipodi:nodetypes="ccccc"
         inkscape:connector-curvature="0"
         id="path3918-6-4"
         d="m 32.5,1013.3622 c 0,-0.5085 -0.671573,-0.9585 -1.5,-0.9585 -0.828427,0 -1.5,0.4611 -1.5,0.9585 0,-0.8284 0.671573,-1.5 1.5,-1.5 0.828427,0 1.5,0.6716 1.5,1.5 z"
         style="opacity:0.1;fill:#000000;fill-opacity:1;stroke:none" />
      <path
         inkscape:connector-curvature="0"
         id="path4055"
         d="m 6,1016.3622 0,1 36,0 0,-1 z"
         style="opacity:0.1;fill:#000000;fill-opacity:1;stroke:none" />
      <text
         sodipodi:linespacing="125%"
         id="text3938"
         y="1037.1073"
         x="11.53125"
         style="font-size:40px;font-style:normal;font-weight:normal;line-height:125%;letter-spacing:0px;word-spacing:0px;fill:#000000;fill-opacity:1;stroke:none;font-family:Sans"
         xml:space="preserve"><tspan
           style="font-size:22px;font-style:normal;font-variant:normal;font-weight:normal;font-stretch:normal;fill:#4d4d4d;font-family:Droid Sans;-inkscape-font-specification:Droid Sans"
           y="1037.1073"
           x="11.53125"
           id="tspan3940"
           sodipodi:role="line">25</tspan></text>
      <path
         sodipodi:nodetypes="csscc"
         inkscape:connector-curvature="0"
         id="rect3754-9-7"
         d="m 42,1036.3622 0,5 c 0,1.662 -1.338,3 -3,3 l -5,0 c 3.545146,-3.5451 4.834446,-4.8344 8,-8 z"
         style="fill:#d9d9d9;fill-opacity:1;stroke:none" />
      <rect
         ry="0.390625"
         rx="0.390625"
         y="1012.8622"
         x="18"
         height="1"
         width="12"
         id="rect3015"
         style="fill:#999999;fill-opacity:1;stroke:none" />
      <rect
         ry="3"
         rx="3"
         y="1006.3622"
         x="2"
         height="44"
         width="44"
         id="rect4064-0-3"
         style="fill:url(#linearGradient3036);fill-opacity:1;stroke:none" />
    </g>
  </g>
</svg>
