<?xml version="1.0" encoding="UTF-8" standalone="no"?>
<!-- Created with Inkscape (http://www.inkscape.org/) -->

<svg
   xmlns:dc="http://purl.org/dc/elements/1.1/"
   xmlns:cc="http://creativecommons.org/ns#"
   xmlns:rdf="http://www.w3.org/1999/02/22-rdf-syntax-ns#"
   xmlns:svg="http://www.w3.org/2000/svg"
   xmlns="http://www.w3.org/2000/svg"
   xmlns:xlink="http://www.w3.org/1999/xlink"
   xmlns:sodipodi="http://sodipodi.sourceforge.net/DTD/sodipodi-0.dtd"
   xmlns:inkscape="http://www.inkscape.org/namespaces/inkscape"
   width="48"
   height="48"
   viewBox="0 0 48 48"
   id="svg2"
   version="1.1"
   inkscape:version="0.91 r13725"
   sodipodi:docname="firefox.svg"
   inkscape:export-filename="/home/peter/Afbeeldingen/fifo.png"
   inkscape:export-xdpi="360"
   inkscape:export-ydpi="360">
  <defs
     id="defs4">
    <filter
       style="color-interpolation-filters:sRGB"
       inkscape:label="Drop Shadow"
       id="filter4630">
      <feFlood
         flood-opacity="1"
         flood-color="rgb(0,0,0)"
         result="flood"
         id="feFlood4632" />
      <feComposite
         in="flood"
         in2="SourceGraphic"
         operator="in"
         result="composite1"
         id="feComposite4634" />
      <feGaussianBlur
         in="composite1"
         stdDeviation="0.5"
         result="blur"
         id="feGaussianBlur4636" />
      <feOffset
         dx="0"
         dy="0.5"
         result="offset"
         id="feOffset4638" />
      <feComposite
         in="SourceGraphic"
         in2="offset"
         operator="over"
         result="composite2"
         id="feComposite4640" />
    </filter>
    <linearGradient
       inkscape:collect="always"
       id="linearGradient4165">
      <stop
         style="stop-color:#ffffff;stop-opacity:0.15000001"
         offset="0"
         id="stop4167" />
      <stop
         style="stop-color:#177ed5;stop-opacity:0;"
         offset="1"
         id="stop4169" />
    </linearGradient>
    <linearGradient
       inkscape:collect="always"
       xlink:href="#linearGradient4165"
       id="linearGradient4171-1"
       x1="-1.090923"
       y1="1003.585"
       x2="49.091164"
       y2="1053.7668"
       gradientUnits="userSpaceOnUse"
       gradientTransform="matrix(0.95651664,0,0,0.9565206,1.043486,44.4125)" />
    <clipPath
       id="XMLID_68_-5">
      <ellipse
         ry="58.254002"
         rx="58.215"
         cy="59.375"
         cx="63.755001"
         id="use99-3" />
    </clipPath>
    <clipPath
       id="clipPath6658">
      <ellipse
         ry="58.254002"
         rx="58.215"
         cy="59.375"
         cx="63.755001"
         id="use6660" />
    </clipPath>
    <linearGradient
       y2="48.0854"
       x2="78.466103"
       y1="56.3008"
       x1="64.477501"
       gradientUnits="userSpaceOnUse"
       id="XMLID_74_">
      <stop
         id="stop149"
         style="stop-color:#DF731B"
         offset="0" />
      <stop
         id="stop151"
         style="stop-color:#DF731B"
         offset="0.5449" />
      <stop
         id="stop153"
         style="stop-color:#EC8811"
         offset="0.7014" />
      <stop
         id="stop155"
         style="stop-color:#F4950B"
         offset="0.8593" />
      <stop
         id="stop157"
         style="stop-color:#F79A09"
         offset="1" />
    </linearGradient>
  </defs>
  <sodipodi:namedview
     id="base"
     pagecolor="#565656"
     bordercolor="#666666"
     borderopacity="1.0"
     inkscape:pageopacity="0"
     inkscape:pageshadow="2"
     inkscape:zoom="4.0000002"
     inkscape:cx="54.875002"
     inkscape:cy="72.597116"
     inkscape:document-units="px"
     inkscape:current-layer="layer1"
     showgrid="true"
     units="px"
     inkscape:window-width="959"
     inkscape:window-height="1008"
     inkscape:window-x="960"
     inkscape:window-y="0"
     inkscape:window-maximized="0"
     inkscape:showpageshadow="false"
     showguides="true">
    <inkscape:grid
       type="xygrid"
       id="grid4140" />
  </sodipodi:namedview>
  <metadata
     id="metadata7">
    <rdf:RDF>
      <cc:Work
         rdf:about="">
        <dc:format>image/svg+xml</dc:format>
        <dc:type
           rdf:resource="http://purl.org/dc/dcmitype/StillImage" />
        <dc:title />
      </cc:Work>
    </rdf:RDF>
  </metadata>
  <g
     inkscape:label="Laag 1"
     inkscape:groupmode="layer"
     id="layer1"
     transform="translate(0,-1004.3622)">
    <circle
       style="fill:#11548c;fill-opacity:1;stroke:none;stroke-opacity:1"
       id="ellipse4216"
       cy="1028.3622"
       cx="24"
       r="22" />
    <path
       style="fill:#ffffff;fill-opacity:0.2;stroke:none;stroke-opacity:1"
       d="m 24,1006.3622 a 22,22 0 0 0 -22,22 22,22 0 0 0 0.021484,0.5859 A 22,22 0 0 1 24,1007.3622 22,22 0 0 1 45.97852,1028.7763 22,22 0 0 0 46,1028.3622 a 22,22 0 0 0 -22,-22 z"
       id="circle4325"
       inkscape:connector-curvature="0" />
    <path
       style="fill:#d96615;fill-opacity:1"
       d="m 24,1006.3622 a 22,22 0 0 0 -1.171875,0.041 22,22 0 0 1 13.210937,5.0801 c -3.020393,-0.9424 -5.141165,-1.0953 -6.314453,-1.0606 -0.736516,0.022 -1.10505,0.1142 -1.097656,0.1231 0.01972,0.024 5.371285,0.9362 6.320313,2.2402 0,0 -2.273046,6e-4 -4.535157,0.6524 -0.102242,0.029 8.322501,1.0518 10.044921,9.4707 0,0 -0.92226,-1.9267 -2.06445,-2.2539 0.75111,2.2852 0.55712,6.6203 -0.1582,8.7754 -0.092,0.2772 -0.18464,-1.1967 -1.593755,-1.8321 0.451327,3.2341 -0.02763,8.3623 -2.271484,9.7754 -0.174908,0.1099 1.406874,-5.0628 0.318359,-3.0625 -6.498592,9.9639 -14.225649,4.0306 -17.359375,1.916 2.51516,0.6164 5.187595,0.1725 6.734375,-0.8847 1.56102,-1.0669 2.485195,-1.8465 3.314453,-1.6621 0.828893,0.1852 1.380089,-0.6469 0.736328,-1.3848 -0.644491,-0.7395 -2.209026,-1.7551 -4.326172,-1.2012 -1.493102,0.3911 -3.343526,2.042 -6.167968,0.3692 -2.409632,-1.4277 -2.394532,-2.5856 -2.394532,-3.3243 0,-0.739 0.657281,-1.864 1.853516,-1.6796 1.071353,0.1654 0.507375,-0.4637 1.660156,0 0.31403,0.1264 -0.03157,-1.5059 -0.478515,-2.5528 0.86066,-1.7962 3.652827,-2.3309 3.861328,-2.4883 0.377566,-0.2855 0.16993,-0.4273 0.298828,-0.8574 0.1205,-0.4006 0.197226,-1.4845 -2.927734,-1.1855 -1.437968,0.1377 -2.352555,-1.7254 -2.652344,-2.1778 0.09713,-0.5758 0.253786,-1.1019 0.464844,-1.5839 0.214342,-0.4393 0.447944,-0.8419 0.68164,-1.1465 0.07303,-0.095 0.137619,-0.1781 0.195313,-0.2559 0.465932,-0.5434 1.036172,-1.0082 1.722656,-1.3945 0.358213,-0.2023 -4.005333,-0.013 -5.96875,2.5469 -0.526913,0.069 -1.248562,-0.084 -2.056641,-0.084 -1.012929,0 -1.808412,0.1117 -2.544922,0.2968 -0.117943,0.03 -0.308414,0.013 -0.541015,-0.043 -0.648143,-0.6716 -2.482422,-2.2855 -2.566407,-4.4746 0,0 -2.666688,2.0498 -2.267578,7.6367 -0.00356,0.3172 -0.027412,0.541 -0.050781,0.7695 a 22,22 0 0 0 -1.677734,5.9004 22,22 0 0 0 0,0.01 22,22 0 0 0 -0.160157,1.6758 22,22 0 0 0 -0.05664,0.8085 22,22 0 0 0 -0.013672,0.502 22,22 0 0 0 22,22 22,22 0 0 0 9.791016,-2.3281 c 0.108504,-0.053 0.219568,-0.1039 0.326172,-0.1582 a 22,22 0 0 0 0.939453,-0.5196 c 0.240822,-0.1399 0.474641,-0.2842 0.705078,-0.4316 a 22,22 0 0 0 1.761719,-1.2422 22,22 0 0 0 0.05273,-0.041 22,22 0 0 0 1.558598,-1.3496 22,22 0 0 0 0.1289,-0.1192 22,22 0 0 0 1.35938,-1.4394 22,22 0 0 0 0.16211,-0.1856 22,22 0 0 0 1.14062,-1.4804 22,22 0 0 0 0.2207,-0.3086 22,22 0 0 0 0.91602,-1.4707 22,22 0 0 0 0.25391,-0.4395 22,22 0 0 0 0.72461,-1.4785 22,22 0 0 0 0.23632,-0.5293 22,22 0 0 0 0.54297,-1.459 22,22 0 0 0 0.21289,-0.6347 22,22 0 0 0 0.3711,-1.4141 22,22 0 0 0 0.17187,-0.7695 22,22 0 0 0 0.20508,-1.2891 22,22 0 0 0 0.11328,-0.9355 22,22 0 0 0 0.09375,-1.6661 22,22 0 0 0 0.01172,-0.3105 22,22 0 0 0 -22,-22 z"
       id="path159"
       inkscape:connector-curvature="0" />
    <path
       id="path4330"
       d="m 24,1050.3622 a 22,22 0 0 1 -22,-22 22,22 0 0 1 0.02148,-0.5859 22,22 0 0 0 21.97852,21.5859 22,22 0 0 0 21.97852,-21.414 22,22 0 0 1 0.0215,0.414 22,22 0 0 1 -22,22 z"
       style="fill:#000000;fill-opacity:0.2;stroke:none;stroke-opacity:1"
       inkscape:connector-curvature="0" />
    <path
       style="fill:#ffffff;fill-opacity:0.2"
       d="m 24,1006.3622 a 22,22 0 0 0 -1.171875,0.041 22,22 0 0 1 9.521484,2.6231 22,22 0 0 1 13.626951,19.8593 22,22 0 0 0 0.01172,-0.2129 22,22 0 0 0 0.01172,-0.3105 22,22 0 0 0 -22,-22 z m 5.724609,4.0605 c -0.736516,0.022 -1.10505,0.1142 -1.097656,0.1231 0.01419,0.017 2.774845,0.4983 4.683594,1.25 0.817451,0.1616 1.700918,0.3669 2.728515,0.6875 a 22,22 0 0 0 -2.208984,-1.5898 c -1.862592,-0.4145 -3.244457,-0.4963 -4.105469,-0.4708 z m -23.498047,0.6368 c 0,0 -2.4567,1.9041 -2.292968,7.0136 0.158917,-4.3592 2.292968,-6.0136 2.292968,-6.0136 0.083985,2.1891 1.918264,3.803 2.566407,4.4746 0.232601,0.056 0.423072,0.073 0.541015,0.043 0.73651,-0.1851 1.531993,-0.2968 2.544922,-0.2968 0.808079,0 1.529728,0.153 2.056641,0.084 1.175499,-1.5327 3.198646,-2.2051 4.566406,-2.4629 0.404654,-0.4061 0.856913,-0.7771 1.402344,-1.084 0.358213,-0.2023 -4.005333,-0.013 -5.96875,2.5469 -0.526913,0.069 -1.248562,-0.084 -2.056641,-0.084 -1.012929,0 -1.808412,0.1117 -2.544922,0.2968 -0.117943,0.03 -0.308414,0.013 -0.541015,-0.043 -0.648143,-0.6716 -2.482422,-2.2855 -2.566407,-4.4746 z m 27.283204,1.8105 c -0.849273,0.082 -1.973423,0.2444 -3.097657,0.5684 -0.03257,0.01 0.843213,0.1544 2.048829,0.5722 1.394453,-0.2083 2.486328,-0.2246 2.486328,-0.2246 -0.24335,-0.3343 -0.779329,-0.6415 -1.4375,-0.916 z m -16.503907,4.5996 c -0.0653,0.2345 -0.1233,0.4753 -0.166015,0.7285 0.299789,0.4524 1.214376,2.3155 2.652344,2.1778 1.945896,-0.1862 2.649528,0.1634 2.875,0.5508 0.0022,-0.1 0.0065,-0.2111 0.05273,-0.3653 0.1205,-0.4006 0.197226,-1.4845 -2.927734,-1.1855 -1.260927,0.1207 -2.091916,-1.2503 -2.486329,-1.9063 z m -13.072265,1.6094 c -0.00935,0.1249 -0.013647,0.2719 -0.025391,0.3867 a 22,22 0 0 0 -1.677734,5.9004 22,22 0 0 0 0,0.01 22,22 0 0 0 -0.160157,1.6758 22,22 0 0 0 -0.05664,0.8085 22,22 0 0 0 -0.013672,0.502 22,22 0 0 0 0.019531,0.4043 22,22 0 0 1 0.050781,-0.7148 22,22 0 0 1 0.160157,-1.6758 22,22 0 0 1 0,-0.01 22,22 0 0 1 1.677734,-5.9004 c 0.02337,-0.2285 0.047181,-0.4523 0.050781,-0.7695 -0.015306,-0.2143 -0.018779,-0.4133 -0.02539,-0.6172 z m 34.458986,1.5762 c 0.10909,0.3319 0.19315,0.7156 0.26367,1.1211 1.01559,0.5142 1.80078,2.1328 1.80078,2.1328 -0.14848,-0.7258 -0.36126,-1.3781 -0.59961,-1.9981 -0.0016,0 -0.0023,0 -0.0039,-0.01 -0.37334,-0.5226 -0.88985,-1.0864 -1.46094,-1.25 z m -19.900392,3.9004 c -0.07972,0.1159 -0.170835,0.223 -0.232422,0.3515 0.201865,0.4729 0.373341,1.0551 0.482422,1.5508 0.246663,0.085 0.06289,-0.9488 -0.25,-1.9023 z m 20.369142,0.5644 c -0.04595,1.6288 -0.27145,3.2395 -0.62695,4.3106 -0.092,0.2772 -0.18464,-1.1967 -1.593755,-1.8321 0.04626,0.3315 0.07575,0.6934 0.101563,1.0586 1.302802,0.6605 1.402672,2.0432 1.492192,1.7735 0.42864,-1.2915 0.6639,-3.3637 0.62695,-5.3106 z m -23.593752,3.6856 c -0.02628,0.1159 -0.04297,0.2288 -0.04297,0.3339 0,0.7387 -0.0151,1.8966 2.394532,3.3243 2.824442,1.6728 4.674866,0.022 6.167968,-0.3692 2.117146,-0.5539 3.681681,0.4617 4.326172,1.2012 0.04146,0.047 0.06391,0.096 0.0957,0.1445 0.241967,-0.2757 0.272486,-0.7225 -0.0957,-1.1445 -0.644491,-0.7395 -2.209026,-1.7551 -4.326172,-1.2012 -1.493102,0.3911 -3.343526,2.042 -6.167968,0.3692 -1.778641,-1.0539 -2.233907,-1.9585 -2.351563,-2.6582 z m 21.509766,1.748 c -0.08121,2.6537 -0.709399,5.469 -2.164063,6.6328 -0.164157,0.6601 -0.301451,1.2235 -0.24414,1.1875 1.83055,-1.1528 2.473717,-4.7679 2.408203,-7.8203 z m -1.730469,3.3066 c -0.04552,-0.047 -0.155278,0.076 -0.359375,0.4512 -5.428657,8.3235 -11.678294,5.556 -15.427734,3.1856 -0.639861,-0.027 -1.290987,-0.1126 -1.931641,-0.2696 3.133726,2.1146 10.860783,8.0479 17.359375,-1.916 0.100295,-0.1843 0.156426,-0.25 0.214844,-0.3222 0.128651,-0.5742 0.214158,-1.0568 0.144531,-1.129 z"
       id="path4332"
       inkscape:connector-curvature="0" />
    <path
       style="fill:url(#linearGradient4171-1);fill-opacity:1;stroke:none;stroke-width:2;stroke-linecap:round;stroke-linejoin:round;stroke-miterlimit:4;stroke-dasharray:none;stroke-opacity:1"
       d="m 24,1006.3622 a 22,22 0 0 0 -1.171875,0.041 22,22 0 0 1 0.130859,0.012 22,22 0 0 0 -15.5175778,7.4883 22,22 0 0 0 -0.056641,0.072 c -0.5848538,-0.7795 -1.1140591,-1.7654 -1.1582031,-2.916 0,0 -2.6666881,2.0498 -2.2675781,7.6367 -0.00342,0.3051 -0.026342,0.5206 -0.048828,0.7402 a 22,22 0 0 0 -0.03125,0.066 22,22 0 0 0 -0.6425781,1.6641 22,22 0 0 0 -0.056641,0.1933 22,22 0 0 0 -0.2851563,0.9805 22,22 0 0 0 -0.2734374,0.9375 22,22 0 0 0 -0.00977,0.041 22,22 0 0 0 -0.035156,0.1817 22,22 0 0 0 -0.2460938,1.3105 A 22,22 0 0 0 2,1028.3622 a 22,22 0 0 0 0.025391,0.7285 22,22 0 0 0 0,0.01 22,22 0 0 0 0.027344,0.3242 22,22 0 0 0 0.1757812,1.9141 22,22 0 0 0 0.011719,0.1015 22,22 0 0 0 0.015625,0.084 22,22 0 0 0 0.3730468,1.9551 22,22 0 0 0 0.021484,0.094 22,22 0 0 0 0.025391,0.086 22,22 0 0 0 0.5820313,1.957 22,22 0 0 0 0.023437,0.072 22,22 0 0 0 0.021484,0.055 22,22 0 0 0 0.7851562,1.914 22,22 0 0 0 0.019531,0.043 22,22 0 0 0 0.021484,0.041 22,22 0 0 0 0.9785157,1.8438 22,22 0 0 0 0.023437,0.041 22,22 0 0 0 0.021484,0.031 22,22 0 0 0 1.1894531,1.7832 22,22 0 0 0 1.3847656,1.6875 22,22 0 0 0 1.5546875,1.5508 22,22 0 0 0 0.00195,0 22,22 0 0 0 0.00391,0 22,22 0 0 0 1.6972656,1.3848 22,22 0 0 0 0.0059,0 22,22 0 0 0 0.0059,0 22,22 0 0 0 1.820312,1.2012 22,22 0 0 0 1.960938,1.0312 22,22 0 0 0 2.070312,0.832 22,22 0 0 0 0.134766,0.051 22,22 0 0 0 0.01953,0.01 22,22 0 0 0 0.175781,0.051 22,22 0 0 0 1.677735,0.4765 22,22 0 0 0 0.609375,0.1368 22,22 0 0 0 1.427734,0.2539 22,22 0 0 0 0.882813,0.1074 22,22 0 0 0 1.394531,0.1074 22,22 0 0 0 0.830078,0.031 22,22 0 0 0 16.623047,-7.6309 22,22 0 0 0 0.162109,-0.1856 22,22 0 0 0 2.53125,-3.6992 22,22 0 0 0 1.716797,-4.1015 22,22 0 0 0 0.371094,-1.4141 22,22 0 0 0 0.171875,-0.7695 22,22 0 0 0 0.203125,-1.2735 22,22 0 0 0 0.002,-0.016 22,22 0 0 0 0.113281,-0.9355 22,22 0 0 0 0.09375,-1.6661 22,22 0 0 0 0.01172,-0.3085 22,22 0 0 0 -15.726562,-21.0684 22,22 0 0 0 -0.22461,-0.074 22,22 0 0 0 -1.691406,-0.3984 22,22 0 0 0 -0.470703,-0.1055 22,22 0 0 0 -1.513672,-0.1992 22,22 0 0 0 -0.697266,-0.086 A 22,22 0 0 0 24,1006.3622 Z"
       id="circle4163-3"
       inkscape:connector-curvature="0"
       inkscape:export-filename="/home/peter/Afbeeldingen/circle4163-3.png"
       inkscape:export-xdpi="360"
       inkscape:export-ydpi="360" />
  </g>
</svg>
