<?xml version="1.0" encoding="UTF-8" standalone="no"?>
<!-- Created with Inkscape (http://www.inkscape.org/) -->

<svg
   xmlns:dc="http://purl.org/dc/elements/1.1/"
   xmlns:cc="http://creativecommons.org/ns#"
   xmlns:rdf="http://www.w3.org/1999/02/22-rdf-syntax-ns#"
   xmlns:svg="http://www.w3.org/2000/svg"
   xmlns="http://www.w3.org/2000/svg"
   xmlns:xlink="http://www.w3.org/1999/xlink"
   xmlns:sodipodi="http://sodipodi.sourceforge.net/DTD/sodipodi-0.dtd"
   xmlns:inkscape="http://www.inkscape.org/namespaces/inkscape"
   width="48"
   height="48"
   viewBox="0 0 48 48"
   id="svg2"
   version="1.1"
   inkscape:version="0.91 r13725"
   sodipodi:docname="firefox.svg"
   inkscape:export-filename="/home/peter/Documenten/shades3.png"
   inkscape:export-xdpi="360"
   inkscape:export-ydpi="360">
  <defs
     id="defs4">
    <filter
       style="color-interpolation-filters:sRGB"
       inkscape:label="Drop Shadow"
       id="filter4630">
      <feFlood
         flood-opacity="1"
         flood-color="rgb(0,0,0)"
         result="flood"
         id="feFlood4632" />
      <feComposite
         in="flood"
         in2="SourceGraphic"
         operator="in"
         result="composite1"
         id="feComposite4634" />
      <feGaussianBlur
         in="composite1"
         stdDeviation="0.5"
         result="blur"
         id="feGaussianBlur4636" />
      <feOffset
         dx="0"
         dy="0.5"
         result="offset"
         id="feOffset4638" />
      <feComposite
         in="SourceGraphic"
         in2="offset"
         operator="over"
         result="composite2"
         id="feComposite4640" />
    </filter>
    <linearGradient
       inkscape:collect="always"
       id="linearGradient4165">
      <stop
         style="stop-color:#ffffff;stop-opacity:0.15000001"
         offset="0"
         id="stop4167" />
      <stop
         style="stop-color:#177ed5;stop-opacity:0;"
         offset="1"
         id="stop4169" />
    </linearGradient>
    <linearGradient
       inkscape:collect="always"
       xlink:href="#linearGradient4165"
       id="linearGradient4171-1"
       x1="-1.090923"
       y1="1003.585"
       x2="49.091164"
       y2="1053.7668"
       gradientUnits="userSpaceOnUse"
       gradientTransform="matrix(0.95651664,0,0,0.9565206,1.043486,44.4125)" />
    <clipPath
       id="XMLID_68_-5">
      <ellipse
         ry="58.254002"
         rx="58.215"
         cy="59.375"
         cx="63.755001"
         id="use99-3" />
    </clipPath>
    <clipPath
       id="clipPath6658">
      <ellipse
         ry="58.254002"
         rx="58.215"
         cy="59.375"
         cx="63.755001"
         id="use6660" />
    </clipPath>
    <linearGradient
       y2="48.0854"
       x2="78.466103"
       y1="56.3008"
       x1="64.477501"
       gradientUnits="userSpaceOnUse"
       id="XMLID_74_">
      <stop
         id="stop149"
         style="stop-color:#DF731B"
         offset="0" />
      <stop
         id="stop151"
         style="stop-color:#DF731B"
         offset="0.5449" />
      <stop
         id="stop153"
         style="stop-color:#EC8811"
         offset="0.7014" />
      <stop
         id="stop155"
         style="stop-color:#F4950B"
         offset="0.8593" />
      <stop
         id="stop157"
         style="stop-color:#F79A09"
         offset="1" />
    </linearGradient>
  </defs>
  <sodipodi:namedview
     id="base"
     pagecolor="#565656"
     bordercolor="#666666"
     borderopacity="1.0"
     inkscape:pageopacity="0"
     inkscape:pageshadow="2"
     inkscape:zoom="16.000001"
     inkscape:cx="12.564615"
     inkscape:cy="21.396097"
     inkscape:document-units="px"
     inkscape:current-layer="layer1"
     showgrid="true"
     units="px"
     inkscape:window-width="1920"
     inkscape:window-height="1011"
     inkscape:window-x="0"
     inkscape:window-y="0"
     inkscape:window-maximized="1"
     inkscape:showpageshadow="false"
     showguides="true">
    <inkscape:grid
       type="xygrid"
       id="grid4140" />
  </sodipodi:namedview>
  <metadata
     id="metadata7">
    <rdf:RDF>
      <cc:Work
         rdf:about="">
        <dc:format>image/svg+xml</dc:format>
        <dc:type
           rdf:resource="http://purl.org/dc/dcmitype/StillImage" />
        <dc:title />
      </cc:Work>
    </rdf:RDF>
  </metadata>
  <g
     inkscape:label="Laag 1"
     inkscape:groupmode="layer"
     id="layer1"
     transform="translate(0,-1004.3622)">
    <path
       style="fill:#0277bd;fill-opacity:1;stroke:none;stroke-opacity:1"
       d="M 24 2 A 22 22 0 0 0 2.3808594 20.011719 A 22 22 0 0 0 2.3808594 20.013672 A 22 22 0 0 0 24 38 A 22 22 0 0 0 45.619141 19.992188 A 22 22 0 0 0 24 2 z M 45.619141 19.992188 A 22 22 0 0 1 45.789062 21.158203 A 22 22 0 0 0 45.619141 19.992188 z M 2.3769531 20.042969 A 22 22 0 0 0 2.0957031 22.097656 A 22 22 0 0 1 2.3769531 20.042969 z M 45.894531 22.027344 A 22 22 0 0 1 46 24 A 22 22 0 0 0 45.894531 22.027344 z M 2 24 A 22 22 0 0 0 2.09375 25.873047 A 22 22 0 0 1 2 24 z M 45.90625 25.873047 A 22 22 0 0 1 45.773438 26.966797 A 22 22 0 0 0 45.90625 25.873047 z M 2.2265625 26.966797 A 22 22 0 0 0 2.3925781 28.064453 A 22 22 0 0 1 2.2265625 26.966797 z M 45.607422 28.064453 A 22 22 0 0 1 45.376953 29.091797 A 22 22 0 0 0 45.607422 28.064453 z M 2.6230469 29.091797 A 22 22 0 0 0 2.9042969 30.197266 A 22 22 0 0 1 2.6230469 29.091797 z M 45.095703 30.197266 A 22 22 0 0 1 44.746094 31.244141 A 22 22 0 0 0 45.095703 30.197266 z M 3.2539062 31.244141 A 22 22 0 0 0 3.625 32.259766 A 22 22 0 0 1 3.2539062 31.244141 z M 44.375 32.259766 A 22 22 0 0 1 43.929688 33.257812 A 22 22 0 0 0 44.375 32.259766 z M 4.0703125 33.257812 A 22 22 0 0 0 4.5566406 34.265625 A 22 22 0 0 1 4.0703125 33.257812 z M 43.443359 34.265625 A 22 22 0 0 1 42.898438 35.214844 A 22 22 0 0 0 43.443359 34.265625 z M 5.1015625 35.214844 A 22 22 0 0 0 5.6679688 36.136719 A 22 22 0 0 1 5.1015625 35.214844 z M 42.332031 36.136719 A 22 22 0 0 1 41.675781 37.054688 A 22 22 0 0 0 42.332031 36.136719 z M 6.3242188 37.054688 A 22 22 0 0 0 6.9824219 37.919922 A 22 22 0 0 1 6.3242188 37.054688 z M 41.017578 37.919922 A 22 22 0 0 1 40.304688 38.732422 A 22 22 0 0 0 41.017578 37.919922 z M 7.6953125 38.732422 A 22 22 0 0 0 8.453125 39.546875 A 22 22 0 0 1 7.6953125 38.732422 z M 39.546875 39.546875 A 22 22 0 0 1 38.732422 40.304688 A 22 22 0 0 0 39.546875 39.546875 z M 9.2675781 40.304688 A 22 22 0 0 0 10.080078 41.017578 A 22 22 0 0 1 9.2675781 40.304688 z M 37.919922 41.017578 A 22 22 0 0 1 37.054688 41.675781 A 22 22 0 0 0 37.919922 41.017578 z M 10.945312 41.675781 A 22 22 0 0 0 11.863281 42.332031 A 22 22 0 0 1 10.945312 41.675781 z M 36.136719 42.332031 A 22 22 0 0 1 35.214844 42.898438 A 22 22 0 0 0 36.136719 42.332031 z M 12.785156 42.898438 A 22 22 0 0 0 13.734375 43.443359 A 22 22 0 0 1 12.785156 42.898438 z M 34.265625 43.443359 A 22 22 0 0 1 33.257812 43.929688 A 22 22 0 0 0 34.265625 43.443359 z M 14.742188 43.929688 A 22 22 0 0 0 15.740234 44.375 A 22 22 0 0 1 14.742188 43.929688 z M 32.259766 44.375 A 22 22 0 0 1 31.244141 44.746094 A 22 22 0 0 0 32.259766 44.375 z M 16.755859 44.746094 A 22 22 0 0 0 17.802734 45.095703 A 22 22 0 0 1 16.755859 44.746094 z M 30.197266 45.095703 A 22 22 0 0 1 29.091797 45.376953 A 22 22 0 0 0 30.197266 45.095703 z M 18.908203 45.376953 A 22 22 0 0 0 19.935547 45.607422 A 22 22 0 0 1 18.908203 45.376953 z M 28.064453 45.607422 A 22 22 0 0 1 26.966797 45.773438 A 22 22 0 0 0 28.064453 45.607422 z M 21.033203 45.773438 A 22 22 0 0 0 22.126953 45.90625 A 22 22 0 0 1 21.033203 45.773438 z M 25.873047 45.90625 A 22 22 0 0 1 24 46 A 22 22 0 0 0 25.873047 45.90625 z "
       transform="translate(0,1004.3622)"
       id="ellipse4216" />
    <path
       style="fill:#000000;fill-opacity:0.2"
       d="M 25 3 A 22 22 0 0 0 23.828125 3.0410156 A 22 22 0 0 1 37.039062 8.1210938 C 34.01867 7.1786937 31.897897 7.0258469 30.724609 7.0605469 C 29.988093 7.0825469 29.619559 7.1746937 29.626953 7.1835938 C 29.646673 7.2075938 34.998238 8.1198281 35.947266 9.4238281 C 35.947266 9.4238281 33.67422 9.4243719 31.412109 10.076172 C 31.309867 10.105172 39.734611 11.127975 41.457031 19.546875 C 41.457031 19.546875 40.534768 17.620169 39.392578 17.292969 C 40.143688 19.578169 39.949695 23.913259 39.234375 26.068359 C 39.142375 26.345559 39.04974 24.871728 37.640625 24.236328 C 38.091952 27.470428 37.612995 32.598619 35.369141 34.011719 C 35.194233 34.121619 36.776015 28.948919 35.6875 30.949219 C 29.188908 40.913119 21.461851 34.979834 18.328125 32.865234 C 20.843285 33.481634 23.51572 33.037669 25.0625 31.980469 C 26.62352 30.913569 27.547695 30.133959 28.376953 30.318359 C 29.205846 30.503559 29.757042 29.671494 29.113281 28.933594 C 28.46879 28.194094 26.904255 27.178522 24.787109 27.732422 C 23.294007 28.123522 21.443583 29.774362 18.619141 28.101562 C 16.209509 26.673863 16.224609 25.516044 16.224609 24.777344 C 16.224609 24.038344 16.88189 22.913256 18.078125 23.097656 C 19.149478 23.263056 18.5855 22.633956 19.738281 23.097656 C 20.052311 23.224056 19.706711 21.591822 19.259766 20.544922 C 20.120426 18.748722 22.912593 18.214041 23.121094 18.056641 C 23.49866 17.771141 23.291024 17.629319 23.419922 17.199219 C 23.540422 16.798619 23.617148 15.714672 20.492188 16.013672 C 19.054219 16.151372 18.139633 14.288338 17.839844 13.835938 C 17.936974 13.260138 18.09363 12.733953 18.304688 12.251953 C 18.519029 11.812653 18.752632 11.410069 18.986328 11.105469 C 19.059358 11.010469 19.123947 10.927409 19.181641 10.849609 C 19.647573 10.306209 20.217813 9.8413781 20.904297 9.4550781 C 21.26251 9.2527781 16.898964 9.4420531 14.935547 12.001953 C 14.408634 12.070953 13.686985 11.917969 12.878906 11.917969 C 11.865977 11.917969 11.070494 12.029744 10.333984 12.214844 C 10.216041 12.244844 10.02557 12.227875 9.7929688 12.171875 C 9.1448258 11.500275 7.3105475 9.8863656 7.2265625 7.6972656 C 7.2265625 7.6972656 5.7261627 8.8497234 5.1445312 11.783203 A 4.5 4.5 0 0 0 5.6464844 11.916016 A 22 22 0 0 0 4.9726562 13.058594 C 4.9135475 13.7437 4.8989811 14.494035 4.9589844 15.333984 C 4.9554244 15.651184 4.9315721 15.875016 4.9082031 16.103516 A 22 22 0 0 0 3.2304688 22.003906 A 22 22 0 0 0 3.2304688 22.013672 A 22 22 0 0 0 3.1464844 22.894531 A 22 22 0 0 0 24 38 A 22 22 0 0 0 45.619141 19.992188 A 22 22 0 0 0 39.929688 8.8691406 A 22 22 0 0 0 25 3 z M 45.894531 22.027344 A 22 22 0 0 1 46 24 A 22 22 0 0 0 45.894531 22.027344 z M 45.90625 25.873047 A 22 22 0 0 1 45.773438 26.966797 A 22 22 0 0 0 45.90625 25.873047 z M 45.607422 28.064453 A 22 22 0 0 1 45.376953 29.091797 A 22 22 0 0 0 45.607422 28.064453 z M 45.095703 30.197266 A 22 22 0 0 1 44.746094 31.244141 A 22 22 0 0 0 45.095703 30.197266 z M 44.375 32.259766 A 22 22 0 0 1 43.929688 33.257812 A 22 22 0 0 0 44.375 32.259766 z M 43.443359 34.265625 A 22 22 0 0 1 42.898438 35.214844 A 22 22 0 0 0 43.443359 34.265625 z M 42.332031 36.136719 A 22 22 0 0 1 41.675781 37.054688 A 22 22 0 0 0 42.332031 36.136719 z M 41.017578 37.919922 A 22 22 0 0 1 40.304688 38.732422 A 22 22 0 0 0 41.017578 37.919922 z M 39.546875 39.546875 A 22 22 0 0 1 38.732422 40.304688 A 22 22 0 0 0 39.546875 39.546875 z M 9.2675781 40.304688 A 22 22 0 0 0 10.080078 41.017578 A 22 22 0 0 1 9.2675781 40.304688 z M 37.919922 41.017578 A 22 22 0 0 1 37.054688 41.675781 A 22 22 0 0 0 37.919922 41.017578 z M 10.945312 41.675781 A 22 22 0 0 0 11.863281 42.332031 A 22 22 0 0 1 10.945312 41.675781 z M 36.136719 42.332031 A 22 22 0 0 1 35.214844 42.898438 A 22 22 0 0 0 36.136719 42.332031 z M 12.785156 42.898438 A 22 22 0 0 0 13.734375 43.443359 A 22 22 0 0 1 12.785156 42.898438 z M 34.265625 43.443359 A 22 22 0 0 1 33.257812 43.929688 A 22 22 0 0 0 34.265625 43.443359 z M 14.742188 43.929688 A 22 22 0 0 0 15.740234 44.375 A 22 22 0 0 1 14.742188 43.929688 z M 32.259766 44.375 A 22 22 0 0 1 31.244141 44.746094 A 22 22 0 0 0 32.259766 44.375 z M 16.755859 44.746094 A 22 22 0 0 0 17.802734 45.095703 A 22 22 0 0 1 16.755859 44.746094 z M 30.197266 45.095703 A 22 22 0 0 1 29.091797 45.376953 A 22 22 0 0 0 30.197266 45.095703 z M 18.908203 45.376953 A 22 22 0 0 0 19.935547 45.607422 A 22 22 0 0 1 18.908203 45.376953 z M 28.064453 45.607422 A 22 22 0 0 1 26.966797 45.773438 A 22 22 0 0 0 28.064453 45.607422 z M 21.033203 45.773438 A 22 22 0 0 0 22.126953 45.90625 A 22 22 0 0 1 21.033203 45.773438 z M 25.873047 45.90625 A 22 22 0 0 1 24 46 A 22 22 0 0 0 25.873047 45.90625 z "
       transform="translate(0,1004.3622)"
       id="path4173" />
    <path
       style="fill:#ffffff;fill-opacity:0.2;stroke:none;stroke-opacity:1"
       d="m 24,1006.3622 a 22,22 0 0 0 -22,22 22,22 0 0 0 0.021484,0.5859 A 22,22 0 0 1 24,1007.3622 22,22 0 0 1 45.97852,1028.7763 22,22 0 0 0 46,1028.3622 a 22,22 0 0 0 -22,-22 z"
       id="circle4325"
       inkscape:connector-curvature="0" />
    <path
       style="fill:#ef6200;fill-opacity:1"
       d="m 24,1006.3622 a 22,22 0 0 0 -1.171875,0.041 22,22 0 0 1 13.210937,5.0801 c -3.020393,-0.9424 -5.141165,-1.0953 -6.314453,-1.0606 -0.736516,0.022 -1.10505,0.1142 -1.097656,0.1231 0.01972,0.024 5.371285,0.9362 6.320313,2.2402 0,0 -2.273046,6e-4 -4.535157,0.6524 -0.102242,0.029 8.322501,1.0518 10.044921,9.4707 0,0 -0.92226,-1.9267 -2.06445,-2.2539 0.75111,2.2852 0.55712,6.6203 -0.1582,8.7754 -0.092,0.2772 -0.18464,-1.1967 -1.593755,-1.8321 0.451327,3.2341 -0.02763,8.3623 -2.271484,9.7754 -0.174908,0.1099 1.406874,-5.0628 0.318359,-3.0625 -6.498592,9.9639 -14.225649,4.0306 -17.359375,1.916 2.51516,0.6164 5.187595,0.1725 6.734375,-0.8847 1.56102,-1.0669 2.485195,-1.8465 3.314453,-1.6621 0.828893,0.1852 1.380089,-0.6469 0.736328,-1.3848 -0.644491,-0.7395 -2.209026,-1.7551 -4.326172,-1.2012 -1.493102,0.3911 -3.343526,2.042 -6.167968,0.3692 -2.409632,-1.4277 -2.394532,-2.5856 -2.394532,-3.3243 0,-0.739 0.657281,-1.864 1.853516,-1.6796 1.071353,0.1654 0.507375,-0.4637 1.660156,0 0.31403,0.1264 -0.03157,-1.5059 -0.478515,-2.5528 0.86066,-1.7962 3.652827,-2.3309 3.861328,-2.4883 0.377566,-0.2855 0.16993,-0.4273 0.298828,-0.8574 0.1205,-0.4006 0.197226,-1.4845 -2.927734,-1.1855 -1.437968,0.1377 -2.352555,-1.7254 -2.652344,-2.1778 0.09713,-0.5758 0.253786,-1.1019 0.464844,-1.5839 0.214342,-0.4393 0.447944,-0.8419 0.68164,-1.1465 0.07303,-0.095 0.137619,-0.1781 0.195313,-0.2559 0.465932,-0.5434 1.036172,-1.0082 1.722656,-1.3945 0.358213,-0.2023 -4.005333,-0.013 -5.96875,2.5469 -0.526913,0.069 -1.248562,-0.084 -2.056641,-0.084 -1.012929,0 -1.808412,0.1117 -2.544922,0.2968 -0.117943,0.03 -0.308414,0.013 -0.541015,-0.043 -0.648143,-0.6716 -2.482422,-2.2855 -2.566407,-4.4746 0,0 -2.666688,2.0498 -2.267578,7.6367 -0.00356,0.3172 -0.027412,0.541 -0.050781,0.7695 a 22,22 0 0 0 -1.677734,5.9004 22,22 0 0 0 0,0.01 22,22 0 0 0 -0.160157,1.6758 22,22 0 0 0 -0.05664,0.8085 22,22 0 0 0 -0.013672,0.502 22,22 0 0 0 22,22 22,22 0 0 0 9.791016,-2.3281 c 0.108504,-0.053 0.219568,-0.1039 0.326172,-0.1582 a 22,22 0 0 0 0.939453,-0.5196 c 0.240822,-0.1399 0.474641,-0.2842 0.705078,-0.4316 a 22,22 0 0 0 1.761719,-1.2422 22,22 0 0 0 0.05273,-0.041 22,22 0 0 0 1.558598,-1.3496 22,22 0 0 0 0.1289,-0.1192 22,22 0 0 0 1.35938,-1.4394 22,22 0 0 0 0.16211,-0.1856 22,22 0 0 0 1.14062,-1.4804 22,22 0 0 0 0.2207,-0.3086 22,22 0 0 0 0.91602,-1.4707 22,22 0 0 0 0.25391,-0.4395 22,22 0 0 0 0.72461,-1.4785 22,22 0 0 0 0.23632,-0.5293 22,22 0 0 0 0.54297,-1.459 22,22 0 0 0 0.21289,-0.6347 22,22 0 0 0 0.3711,-1.4141 22,22 0 0 0 0.17187,-0.7695 22,22 0 0 0 0.20508,-1.2891 22,22 0 0 0 0.11328,-0.9355 22,22 0 0 0 0.09375,-1.6661 22,22 0 0 0 0.01172,-0.3105 22,22 0 0 0 -22,-22 z"
       id="path159"
       inkscape:connector-curvature="0" />
    <path
       id="path4330"
       d="m 24,1050.3622 a 22,22 0 0 1 -22,-22 22,22 0 0 1 0.02148,-0.5859 22,22 0 0 0 21.97852,21.5859 22,22 0 0 0 21.97852,-21.414 22,22 0 0 1 0.0215,0.414 22,22 0 0 1 -22,22 z"
       style="fill:#000000;fill-opacity:0.2;stroke:none;stroke-opacity:1"
       inkscape:connector-curvature="0" />
    <path
       style="fill:#ffffff;fill-opacity:0.2"
       d="M 24 2 A 22 22 0 0 0 22.828125 2.0410156 A 22 22 0 0 1 32.349609 4.6640625 A 22 22 0 0 1 45.976562 24.523438 A 22 22 0 0 0 45.988281 24.310547 A 22 22 0 0 0 46 24 A 22 22 0 0 0 24 2 z M 29.724609 6.0605469 C 28.988093 6.0825469 28.619559 6.1746937 28.626953 6.1835938 C 28.641143 6.2005938 31.401798 6.6818936 33.310547 7.4335938 C 34.127998 7.5951937 35.011465 7.8004936 36.039062 8.1210938 A 22 22 0 0 0 33.830078 6.53125 C 31.967486 6.11675 30.585621 6.0350469 29.724609 6.0605469 z M 6.2265625 6.6972656 C 6.2265625 6.6972656 3.7698618 8.601437 3.9335938 13.710938 C 4.0925106 9.351737 6.2265625 7.6972656 6.2265625 7.6972656 C 6.3105475 9.8863656 8.1448257 11.500275 8.7929688 12.171875 C 9.0255697 12.227875 9.2160414 12.244844 9.3339844 12.214844 C 10.070494 12.029744 10.865977 11.917969 11.878906 11.917969 C 12.686985 11.917969 13.408634 12.070953 13.935547 12.001953 C 15.111046 10.469253 17.134193 9.7968625 18.501953 9.5390625 C 18.906607 9.1329625 19.358866 8.7619781 19.904297 8.4550781 C 20.26251 8.2527781 15.898964 8.4420532 13.935547 11.001953 C 13.408634 11.070953 12.686985 10.917969 11.878906 10.917969 C 10.865977 10.917969 10.070494 11.029744 9.3339844 11.214844 C 9.2160414 11.244844 9.0255696 11.227875 8.7929688 11.171875 C 8.1448257 10.500275 6.3105475 8.8863656 6.2265625 6.6972656 z M 33.509766 8.5078125 C 32.660493 8.5898125 31.536343 8.7521719 30.412109 9.0761719 C 30.379539 9.0861719 31.255322 9.2306375 32.460938 9.6484375 C 33.85539 9.4401375 34.947266 9.4238281 34.947266 9.4238281 C 34.703916 9.0895281 34.167937 8.7823125 33.509766 8.5078125 z M 3.9335938 14.716797 C 3.9242438 14.841697 3.9199471 14.988716 3.9082031 15.103516 A 22 22 0 0 0 2.2304688 21.003906 A 22 22 0 0 0 2.2304688 21.013672 A 22 22 0 0 0 2.0703125 22.689453 A 22 22 0 0 0 2.0136719 23.498047 A 22 22 0 0 0 2 24 A 22 22 0 0 0 2.0195312 24.404297 A 22 22 0 0 1 2.0703125 23.689453 A 22 22 0 0 1 2.2304688 22.013672 A 22 22 0 0 1 2.2304688 22.003906 A 22 22 0 0 1 3.9082031 16.103516 C 3.9315731 15.875016 3.9553844 15.651184 3.9589844 15.333984 C 3.9436784 15.119684 3.9402047 14.920697 3.9335938 14.716797 z M 38.392578 16.289062 L 38.392578 16.292969 C 38.501668 16.624869 38.58573 17.008563 38.65625 17.414062 C 39.67184 17.928262 40.457031 19.546875 40.457031 19.546875 C 40.308551 18.821075 40.095772 18.168828 39.857422 17.548828 C 39.855822 17.548828 39.855116 17.549062 39.853516 17.539062 C 39.480176 17.016462 38.963668 16.452662 38.392578 16.289062 z M 38.861328 20.757812 C 38.815378 22.386612 38.589875 23.997259 38.234375 25.068359 C 38.142375 25.345559 38.04974 23.871728 36.640625 23.236328 C 36.686885 23.567828 36.716375 23.929722 36.742188 24.294922 C 38.044989 24.955422 38.144855 26.338059 38.234375 26.068359 C 38.663015 24.776859 38.898278 22.704712 38.861328 20.757812 z M 36.777344 26.191406 C 36.696134 28.845106 36.067945 31.660419 34.613281 32.824219 C 34.449124 33.484319 34.31183 34.047719 34.369141 34.011719 C 36.199691 32.858919 36.842858 29.243806 36.777344 26.191406 z "
       transform="translate(0,1004.3622)"
       id="path4332" />
    <path
       style="fill:url(#linearGradient4171-1);fill-opacity:1;stroke:none;stroke-width:2;stroke-linecap:round;stroke-linejoin:round;stroke-miterlimit:4;stroke-dasharray:none;stroke-opacity:1"
       d="m 24,1006.3622 a 22,22 0 0 0 -1.171875,0.041 22,22 0 0 1 0.130859,0.012 22,22 0 0 0 -15.517578,7.4883 22,22 0 0 0 -0.05664,0.072 c -0.584854,-0.7795 -1.114059,-1.7654 -1.158203,-2.916 0,0 -2.666688,2.0498 -2.267578,7.6367 -0.0034,0.3051 -0.02634,0.5206 -0.04883,0.7402 a 22,22 0 0 0 -0.03125,0.066 22,22 0 0 0 -0.642578,1.6641 22,22 0 0 0 -0.05664,0.1933 22,22 0 0 0 -0.285156,0.9805 22,22 0 0 0 -0.273438,0.9375 22,22 0 0 0 -0.0098,0.041 22,22 0 0 0 -0.03516,0.1817 22,22 0 0 0 -0.246094,1.3105 22,22 0 0 0 -0.330073,3.5512 22,22 0 0 0 0.02539,0.7285 22,22 0 0 0 0,0.01 22,22 0 0 0 0.02734,0.3242 22,22 0 0 0 0.175781,1.9141 22,22 0 0 0 0.01172,0.1015 22,22 0 0 0 0.01563,0.084 22,22 0 0 0 0.373047,1.9551 22,22 0 0 0 0.02148,0.094 22,22 0 0 0 0.02539,0.086 22,22 0 0 0 0.582031,1.957 22,22 0 0 0 0.02344,0.072 22,22 0 0 0 0.02148,0.055 22,22 0 0 0 0.785156,1.914 22,22 0 0 0 0.01953,0.043 22,22 0 0 0 0.02148,0.041 22,22 0 0 0 0.978516,1.8438 22,22 0 0 0 0.02344,0.041 22,22 0 0 0 0.02148,0.031 22,22 0 0 0 1.189453,1.7832 22,22 0 0 0 1.384766,1.6875 22,22 0 0 0 1.554687,1.5508 22,22 0 0 0 0.002,0 22,22 0 0 0 0.0039,0 22,22 0 0 0 1.697266,1.3848 22,22 0 0 0 0.0059,0 22,22 0 0 0 0.0059,0 22,22 0 0 0 1.820312,1.2012 22,22 0 0 0 1.960938,1.0312 22,22 0 0 0 2.070312,0.832 22,22 0 0 0 0.134766,0.051 22,22 0 0 0 0.01953,0.01 22,22 0 0 0 0.175781,0.051 22,22 0 0 0 1.677735,0.4765 22,22 0 0 0 0.609375,0.1368 22,22 0 0 0 1.427734,0.2539 22,22 0 0 0 0.882813,0.1074 22,22 0 0 0 1.394531,0.1074 22,22 0 0 0 0.830078,0.031 22,22 0 0 0 16.623047,-7.6309 22,22 0 0 0 0.162109,-0.1856 22,22 0 0 0 2.53125,-3.6992 22,22 0 0 0 1.716797,-4.1015 22,22 0 0 0 0.371094,-1.4141 22,22 0 0 0 0.171875,-0.7695 22,22 0 0 0 0.203125,-1.2735 22,22 0 0 0 0.002,-0.016 22,22 0 0 0 0.113281,-0.9355 22,22 0 0 0 0.09375,-1.6661 22,22 0 0 0 0.01172,-0.3085 22,22 0 0 0 -15.726562,-21.0684 22,22 0 0 0 -0.22461,-0.074 22,22 0 0 0 -1.691406,-0.3984 22,22 0 0 0 -0.470703,-0.1055 22,22 0 0 0 -1.513672,-0.1992 22,22 0 0 0 -0.697266,-0.086 A 22,22 0 0 0 24,1006.3622 Z"
       id="circle4163-3"
       inkscape:connector-curvature="0"
       inkscape:export-filename="/home/peter/Afbeeldingen/circle4163-3.png"
       inkscape:export-xdpi="360"
       inkscape:export-ydpi="360" />
  </g>
</svg>
