<?xml version="1.0" encoding="UTF-8" standalone="no"?>
<!-- Created with Inkscape (http://www.inkscape.org/) -->

<svg
   xmlns:dc="http://purl.org/dc/elements/1.1/"
   xmlns:cc="http://creativecommons.org/ns#"
   xmlns:rdf="http://www.w3.org/1999/02/22-rdf-syntax-ns#"
   xmlns:svg="http://www.w3.org/2000/svg"
   xmlns="http://www.w3.org/2000/svg"
   xmlns:xlink="http://www.w3.org/1999/xlink"
   xmlns:sodipodi="http://sodipodi.sourceforge.net/DTD/sodipodi-0.dtd"
   xmlns:inkscape="http://www.inkscape.org/namespaces/inkscape"
   width="48"
   height="48"
   id="svg2"
   version="1.1"
   inkscape:version="0.91 r13725"
   sodipodi:docname="geary.svg"
   inkscape:export-filename="/home/afel/Pictures/evos-mockups/personal-app-icons/geary.png"
   inkscape:export-xdpi="360"
   inkscape:export-ydpi="360">
  <defs
     id="defs4">
    <linearGradient
       id="linearGradient4174">
      <stop
         style="stop-color:#ffffff;stop-opacity:0.14901961;"
         offset="0"
         id="stop4176" />
      <stop
         style="stop-color:#177ed5;stop-opacity:0;"
         offset="1"
         id="stop4178" />
    </linearGradient>
    <linearGradient
       id="linearGradient4010">
      <stop
         style="stop-color:#e5e5e5;stop-opacity:1;"
         offset="0"
         id="stop4012" />
      <stop
         style="stop-color:#cccccc;stop-opacity:1;"
         offset="1"
         id="stop4014" />
    </linearGradient>
    <inkscape:perspective
       sodipodi:type="inkscape:persp3d"
       inkscape:vp_x="0 : 12 : 1"
       inkscape:vp_y="0 : 1000 : 0"
       inkscape:vp_z="24 : 12 : 1"
       inkscape:persp3d-origin="12 : 8 : 1"
       id="perspective3810" />
    <linearGradient
       inkscape:collect="always"
       xlink:href="#linearGradient4174"
       id="linearGradient4180"
       x1="-49.656364"
       y1="1010.9361"
       x2="-8.8997345"
       y2="1051.6927"
       gradientUnits="userSpaceOnUse"
       gradientTransform="translate(-16.406593,0.48069452)" />
    <linearGradient
       inkscape:collect="always"
       xlink:href="#linearGradient4174"
       id="linearGradient4210"
       x1="6.875"
       y1="94.5"
       x2="-35.125"
       y2="52.5"
       gradientUnits="userSpaceOnUse"
       gradientTransform="translate(37.125,954.86215)" />
    <linearGradient
       inkscape:collect="always"
       xlink:href="#linearGradient4174"
       id="linearGradient4244"
       gradientUnits="userSpaceOnUse"
       gradientTransform="translate(37.125,954.86215)"
       x1="6.875"
       y1="94.5"
       x2="-35.125"
       y2="52.5" />
    <linearGradient
       inkscape:collect="always"
       xlink:href="#linearGradient4174"
       id="linearGradient4500"
       x1="76"
       y1="2"
       x2="118.03516"
       y2="44.035168"
       gradientUnits="userSpaceOnUse"
       gradientTransform="translate(-71.999898,1004.371)" />
  </defs>
  <sodipodi:namedview
     id="base"
     pagecolor="#ffffff"
     bordercolor="#0a0a0a"
     borderopacity="1"
     inkscape:pageopacity="0"
     inkscape:pageshadow="2"
     inkscape:zoom="2.8284271"
     inkscape:cx="58.473411"
     inkscape:cy="75.833846"
     inkscape:document-units="px"
     inkscape:current-layer="layer1"
     showgrid="false"
     inkscape:snap-grids="false"
     inkscape:object-paths="true"
     inkscape:snap-intersection-paths="true"
     inkscape:snap-smooth-nodes="true"
     inkscape:object-nodes="true"
     inkscape:snap-midpoints="true"
     inkscape:window-width="1680"
     inkscape:window-height="998"
     inkscape:window-x="0"
     inkscape:window-y="25"
     inkscape:window-maximized="1"
     inkscape:showpageshadow="false"
     borderlayer="true"
     inkscape:snap-bbox="true"
     inkscape:snap-nodes="true"
     inkscape:bbox-paths="true"
     inkscape:bbox-nodes="true"
     inkscape:snap-bbox-edge-midpoints="true"
     inkscape:snap-bbox-midpoints="false"
     inkscape:snap-object-midpoints="false"
     inkscape:snap-center="false"
     inkscape:snap-global="true">
    <inkscape:grid
       type="xygrid"
       id="grid3808"
       empspacing="4"
       visible="true"
       enabled="true"
       snapvisiblegridlinesonly="true" />
  </sodipodi:namedview>
  <metadata
     id="metadata7">
    <rdf:RDF>
      <cc:Work
         rdf:about="">
        <dc:format>image/svg+xml</dc:format>
        <dc:type
           rdf:resource="http://purl.org/dc/dcmitype/StillImage" />
        <dc:title />
      </cc:Work>
    </rdf:RDF>
  </metadata>
  <g
     inkscape:label="Layer 1"
     inkscape:groupmode="layer"
     id="layer1"
     transform="translate(0,-1004.3622)">
    <g
       id="g4559">
      <path
         sodipodi:nodetypes="cccsssssscczc"
         inkscape:connector-curvature="0"
         id="rect2986"
         d="m 24,1006.3676 c -2.66571,0 -5,1.9946 -5,1.9946 -5.3383,4.3452 -8.991612,8.7122 -14.25,13 -0.4707555,0.5294 -0.75,1.2325 -0.75,2 l 0,22 c 0,1.662 1.338,3 3,3 l 34,0 c 1.662,0 3,-1.338 3,-3 l 0,-22 c 0,-0.7748 -0.302428,-1.4688 -0.78125,-2 -5.30584,-4.2902 -8.829012,-8.6893 -14.21875,-13.0054 0,0 -2.33429,-1.9946 -5,-1.9946 z"
         style="fill:#b2b2b2;fill-opacity:1;stroke:none" />
      <path
         sodipodi:nodetypes="cccscczszszccsssc"
         inkscape:connector-curvature="0"
         id="path3959"
         d="m 24,1006.3649 c -1.905852,0.024 -3.745248,0.992 -5,2 -1.442921,1.1592 -3.156495,2.5502 -4.993457,4.0091 -4.4047855,3.4985 -7.2211284,7.3361 -7.9392036,7.9188 C 4.8706338,1021.2639 4.135885,1021.5513 4,1023.3622 l 1.0020452,0.6485 c 0,-1.6395 0.2398914,-1.9364 0.9918605,-2.6155 0.7519691,-0.6791 13.4019423,-12.2832 14.9123443,-13.1553 1.769422,-1.0216 2.802836,-0.875 3.09375,-0.875 0.290914,0 1.310495,-0.1458 3.09375,0.875 1.501932,0.8598 13.698954,12.0532 14.903374,13.1349 1.20442,1.0817 1.003345,2.0001 1.00506,2.6387 C 43.8125,1023.4899 44,1023.3622 44,1023.3622 c -0.07734,-1.8232 -1.27669,-2.4238 -2,-3 -0.72331,-0.5762 -3.595215,-4.4989 -8,-7.9973 -1.836962,-1.459 -3.557079,-2.8408 -5,-4 -1.254752,-1.008 -3.094148,-1.9761 -5,-2 z"
         style="opacity:0.2;fill:#ffffff;fill-opacity:1;stroke:none" />
      <path
         id="rect4018"
         d="m 11,1010.3649 26,0 c 1.662,0 3,1.338 3,3 l 0,18.9999 c 0,1.662 -1.338,3 -3,3 l -26,0 c -1.662,0 -3,-1.338 -3,-3 l 0,-18.9999 c 0,-1.662 1.338,-3 3,-3 z"
         style="fill:#f2edda;fill-opacity:1;stroke:none"
         inkscape:connector-curvature="0" />
      <path
         sodipodi:nodetypes="cccsssscccc"
         inkscape:connector-curvature="0"
         id="rect3764"
         d="m 24,1034.3622 c 1.646683,7e-4 3,0 3,0 5.790234,-3.7447 17,-10.9973 17,-10.9973 l 0,22 c 0,1.662 -1.338,3.0001 -3,3 l -34,0 c -1.662,-10e-5 -3,-1.338 -3,-3 l 0,-22 c 0,0 15.216334,9.9729 17,11.0027 0,0 1.353317,-7e-4 3,0 z"
         style="fill:#cccccc;fill-opacity:1;stroke:none" />
      <path
         inkscape:connector-curvature="0"
         id="path3773"
         d="m 6,1025.3622 -2,-2 0,4 2,2 z"
         style="fill:#f44336;fill-opacity:1;stroke:none" />
      <path
         inkscape:connector-curvature="0"
         id="path3773-4"
         d="m 6,1033.3622 -2,-2 0,4 2,2 z"
         style="fill:#2196f3;fill-opacity:1;stroke:none" />
      <path
         inkscape:connector-curvature="0"
         id="path3773-6"
         d="m 6,1041.3622 -2,-2 0,4 2,2 z"
         style="fill:#f44336;fill-opacity:1;stroke:none" />
      <path
         sodipodi:nodetypes="cccccc"
         inkscape:connector-curvature="0"
         id="path3773-8"
         d="m 7.1266574,1046.3622 -1.6115537,1.6116 c 0.2809854,0.1515 0.8393956,0.3921 1.4888026,0.3884 l 2.1227511,0 1.9999996,-2 z"
         style="fill:#2196f3;fill-opacity:1;stroke:none" />
      <path
         sodipodi:nodetypes="ccccc"
         inkscape:connector-curvature="0"
         id="path3773-8-7"
         d="m 15.126657,1046.3622 -2,2 4,0 2,-2 z"
         style="fill:#f44336;fill-opacity:1;stroke:none" />
      <path
         sodipodi:nodetypes="ccccc"
         inkscape:connector-curvature="0"
         id="path3773-8-7-3"
         d="m 23.126657,1046.3622 -2,2 4,0 2,-2 z"
         style="fill:#2196f3;fill-opacity:1;stroke:none" />
      <path
         sodipodi:nodetypes="ccccc"
         inkscape:connector-curvature="0"
         id="path3773-8-7-1"
         d="m 31.126657,1046.3622 -2,2 4,0 2,-2 z"
         style="fill:#f44336;fill-opacity:1;stroke:none" />
      <path
         sodipodi:nodetypes="ccccc"
         inkscape:connector-curvature="0"
         id="path3773-8-7-1-8"
         d="m 39.126657,1046.3622 -2,2 4,0 2,-2 z"
         style="fill:#2196f3;fill-opacity:1;stroke:none" />
      <g
         transform="translate(-2,-0.9973)"
         id="g4316">
        <path
           style="fill:#f44336;fill-opacity:1;stroke:none"
           d="m 44,1044.3595 2,2 0,-4 -2,-2 z"
           id="path3773-8-7-1-2"
           inkscape:connector-curvature="0" />
        <path
           style="fill:#2196f3;fill-opacity:1;stroke:none"
           d="m 44,1036.3595 2,2 0,-4 -2,-2 z"
           id="path3773-8-7-1-3"
           inkscape:connector-curvature="0" />
        <path
           style="fill:#f44336;fill-opacity:1;stroke:none"
           d="m 44,1028.3595 2,2 0,-4 -1.215985,-1.2113 c -0.776982,0.5026 -0.77832,0.5034 -0.77832,0.5034 z"
           id="path3773-8-7-1-3-8"
           inkscape:connector-curvature="0"
           sodipodi:nodetypes="cccccc" />
      </g>
      <path
         sodipodi:nodetypes="ccccccccc"
         inkscape:connector-curvature="0"
         id="path3957"
         d="m 21,1034.3649 6,0 c 17,-11.0027 17,-11 17,-11 l 0,1 -16,11 -8,0 -16,-11.0027 0,-1 z"
         style="opacity:0.2;fill:#ffffff;fill-opacity:1;stroke:none" />
      <path
         sodipodi:nodetypes="cscsscszc"
         inkscape:connector-curvature="0"
         id="rect3764-4"
         d="m 24,1047.3649 c 6.69596,0 17,0 17,0 1.554687,0 3,-1.5163 3,-2.0001 0,1.662 -1.338,3 -3,3 l -34,10e-5 c -1.6620001,0 -3,-1.338 -3,-3 0,0.3773 1.527675,1.9998 3,2 l 17,0 z"
         style="opacity:0.2;fill:#000000;fill-opacity:1;stroke:none" />
      <g
         transform="translate(0,-0.9973)"
         style="fill:#999999;fill-opacity:1"
         id="g4183">
        <rect
           style="fill:#999999;fill-opacity:1;stroke:none"
           id="rect4021"
           width="20"
           height="1"
           x="12"
           y="1018.3622"
           rx="0"
           ry="0" />
        <rect
           style="fill:#999999;fill-opacity:1;stroke:none"
           id="rect4021-4"
           width="16"
           height="1"
           x="12"
           y="1020.3622"
           rx="0"
           ry="0" />
        <rect
           style="fill:#999999;fill-opacity:1;stroke:none"
           id="rect4021-4-2"
           width="18"
           height="1"
           x="12"
           y="1022.3622"
           rx="0"
           ry="0" />
        <rect
           style="fill:#999999;fill-opacity:1;stroke:none"
           id="rect4021-4-2-9"
           width="12"
           height="1"
           x="12"
           y="1024.3622"
           rx="0"
           ry="0" />
        <rect
           style="fill:#999999;fill-opacity:1;stroke:none"
           id="rect4021-4-2-9-7"
           width="16"
           height="1"
           x="12"
           y="1026.3622"
           rx="0"
           ry="0" />
        <rect
           style="fill:#999999;fill-opacity:1;stroke:none"
           id="rect4021-4-2-9-7-6"
           width="10"
           height="1"
           x="12"
           y="1028.3622"
           rx="0"
           ry="0" />
        <rect
           style="fill:#999999;fill-opacity:1;stroke:none"
           id="rect4021-4-2-9-7-5"
           width="6"
           height="1"
           x="12"
           y="1015.3622"
           rx="0"
           ry="0" />
      </g>
      <path
         sodipodi:nodetypes="sscsscs"
         id="rect4018-8"
         d="m 11,1010.3649 26,0 c 1.662,0 3,1.338 3,3 0,-1.0166 -1.453125,-2 -4,-2 l -24,0 c -2.515625,0 -4,1.7114 -4,2 0,-1.662 1.338,-3 3,-3 z"
         style="opacity:0.2;fill:#ffffff;fill-opacity:1;stroke:none"
         inkscape:connector-curvature="0" />
      <path
         inkscape:connector-curvature="0"
         id="rect2986-3"
         d="m 24.000102,1006.371 0,0 c -0.2856,0 -0.56874,0.035 -0.84961,0.078 -0.11942,0.018 -0.23471,0.04 -0.35156,0.064 -0.15469,0.032 -0.30705,0.069 -0.45899,0.1114 -0.12897,0.036 -0.2565,0.069 -0.38086,0.1113 -0.23886,0.079 -0.4766,0.1684 -0.70507,0.2676 -0.0366,0.016 -0.0675,0.033 -0.10352,0.049 -0.19596,0.088 -0.38804,0.1819 -0.57422,0.2812 -0.0673,0.036 -0.11392,0.066 -0.17773,0.1016 -0.22139,0.1241 -0.42136,0.2559 -0.625,0.3906 -0.44609,0.2964 -0.77344,0.543 -0.77344,0.543 -0.0161,0.013 -0.0308,0.026 -0.0469,0.039 -0.70857,0.5693 -1.623081,1.3024 -2.44336,1.9629 l -5.509765,0 c -1.6620005,0 -3.0000005,1.338 -3.0000005,3 l 0,4.8007 c -0.806094,0.909 -1.404452,1.5907 -1.732422,1.9121 -0.301184,0.2607 -0.610584,0.5211 -0.921875,0.7813 -0.04894,0.039 -0.09805,0.083 -0.144531,0.1211 -0.153262,0.1273 -0.295171,0.2556 -0.451172,0.3828 -0.03983,0.045 -0.07038,0.097 -0.107422,0.1445 -0.01691,0.02 -0.03058,0.044 -0.04687,0.064 -0.06182,0.083 -0.126791,0.164 -0.179687,0.2539 -0.04329,0.073 -0.07818,0.1571 -0.115235,0.2383 -0.186918,0.3975 -0.300786,0.8348 -0.300786,1.3017 l 0,0 0,0.998 0,3 0,4 0,4 0,4 0,4 0,2 0,0 c 1.33e-4,0.207 0.02084,0.4084 0.06055,0.6035 2.52e-4,0 -2.54e-4,0 0,0 0.03982,0.1943 0.0986,0.3821 0.173828,0.5605 0,0 0,0 0,0 0.07558,0.179 0.170049,0.3487 0.277344,0.5078 0,0 0,0 0,0 0.107409,0.1591 0.230027,0.3062 0.365234,0.4414 0,0 0,0 0,0 0.189942,0.1899 0.412962,0.3431 0.648438,0.4766 l -0.0098,0.01 c 0.02533,0.014 0.07967,0.03 0.109375,0.045 0.140688,0.073 0.286705,0.1334 0.439453,0.1835 0.04923,0.016 0.09166,0.03 0.144531,0.045 0.09101,0.025 0.181094,0.05 0.275391,0.066 0.128243,0.024 0.264167,0.034 0.404297,0.039 0.03786,0 0.07311,0.012 0.111328,0.012 l 34.0000045,0 c 0.007,0 0.0128,0 0.0195,0 l 0.107419,0 0.0117,-0.012 c 0.15831,-0.01 0.31596,-0.016 0.4668,-0.047 0.39129,-0.08 0.75512,-0.234 1.07422,-0.4492 0.15955,-0.1076 0.307791,-0.2316 0.443361,-0.3672 0,0 0,0 0,0 0.1352,-0.1352 0.25782,-0.2842 0.365229,-0.4433 0.107301,-0.1591 0.201771,-0.3308 0.277341,-0.5098 0.15117,-0.3586 0.234109,-0.7551 0.234379,-1.1699 l 0,-4 0,-4 0,-4 0,-4 0,-4 0,-0.998 0,-1 0,0 c 0,-0.7748 -0.302429,-1.4688 -0.78125,-2 -0.0602,-0.049 -0.114049,-0.098 -0.17383,-0.1465 -0.25412,-0.2451 -0.50761,-0.4535 -0.7539,-0.6347 -0.161429,-0.1361 -0.32597,-0.272 -0.484379,-0.4083 -0.34309,-0.3414 -0.991981,-1.0943 -1.80664,-2.0136 l 0,-4.7949 c 0,-1.662 -1.338,-3 -3,-3 l -5.5,0 c -0.76711,-0.6144 -1.61351,-1.2882 -2.2832,-1.8262 -0.0746,-0.06 -0.1415,-0.1214 -0.2168,-0.1817 0,0 -0.34951,-0.2605 -0.82422,-0.5722 -0.16694,-0.109 -0.32912,-0.2164 -0.50781,-0.3184 -0.10429,-0.06 -0.18473,-0.1098 -0.29883,-0.1699 -0.001,-7e-4 -0.003,0 -0.004,0 -0.51829,-0.2725 -1.13248,-0.526 -1.80274,-0.7031 -0.0903,-0.024 -0.1802,-0.046 -0.27148,-0.066 -0.16582,-0.037 -0.33086,-0.07 -0.50195,-0.094 -0.21319,-0.031 -0.42854,-0.047 -0.64454,-0.055 -0.0489,0 -0.0954,-0.014 -0.14453,-0.014 z"
         style="fill:url(#linearGradient4500);fill-opacity:1;stroke:none" />
    </g>
  </g>
</svg>
