<?xml version="1.0" encoding="UTF-8" standalone="no"?>
<!-- Created with Inkscape (http://www.inkscape.org/) -->

<svg
   xmlns:dc="http://purl.org/dc/elements/1.1/"
   xmlns:cc="http://creativecommons.org/ns#"
   xmlns:rdf="http://www.w3.org/1999/02/22-rdf-syntax-ns#"
   xmlns:svg="http://www.w3.org/2000/svg"
   xmlns="http://www.w3.org/2000/svg"
   xmlns:xlink="http://www.w3.org/1999/xlink"
   xmlns:sodipodi="http://sodipodi.sourceforge.net/DTD/sodipodi-0.dtd"
   xmlns:inkscape="http://www.inkscape.org/namespaces/inkscape"
   width="48"
   height="48"
   id="svg2"
   version="1.1"
   inkscape:version="0.48.5 r10040"
   sodipodi:docname="geary.svg"
   inkscape:export-filename="/home/afel/Pictures/evos-mockups/personal-app-icons/geary.png"
   inkscape:export-xdpi="360"
   inkscape:export-ydpi="360">
  <defs
     id="defs4">
    <linearGradient
       id="linearGradient4174">
      <stop
         style="stop-color:#ffffff;stop-opacity:0.14901961;"
         offset="0"
         id="stop4176" />
      <stop
         style="stop-color:#177ed5;stop-opacity:0;"
         offset="1"
         id="stop4178" />
    </linearGradient>
    <linearGradient
       id="linearGradient4010">
      <stop
         style="stop-color:#e5e5e5;stop-opacity:1;"
         offset="0"
         id="stop4012" />
      <stop
         style="stop-color:#cccccc;stop-opacity:1;"
         offset="1"
         id="stop4014" />
    </linearGradient>
    <inkscape:perspective
       sodipodi:type="inkscape:persp3d"
       inkscape:vp_x="0 : 12 : 1"
       inkscape:vp_y="0 : 1000 : 0"
       inkscape:vp_z="24 : 12 : 1"
       inkscape:persp3d-origin="12 : 8 : 1"
       id="perspective3810" />
    <linearGradient
       inkscape:collect="always"
       xlink:href="#linearGradient4174"
       id="linearGradient4180"
       x1="-49.656364"
       y1="1010.9361"
       x2="-8.8997345"
       y2="1051.6927"
       gradientUnits="userSpaceOnUse"
       gradientTransform="translate(-16.406593,0.48069452)" />
    <linearGradient
       inkscape:collect="always"
       xlink:href="#linearGradient4174"
       id="linearGradient4210"
       x1="6.875"
       y1="94.5"
       x2="-35.125"
       y2="52.5"
       gradientUnits="userSpaceOnUse"
       gradientTransform="translate(37.125,954.86215)" />
    <linearGradient
       inkscape:collect="always"
       xlink:href="#linearGradient4174"
       id="linearGradient4244"
       gradientUnits="userSpaceOnUse"
       gradientTransform="translate(37.125,954.86215)"
       x1="6.875"
       y1="94.5"
       x2="-35.125"
       y2="52.5" />
    <linearGradient
       inkscape:collect="always"
       xlink:href="#linearGradient4174"
       id="linearGradient4247"
       gradientUnits="userSpaceOnUse"
       gradientTransform="translate(37.125,954.86212)"
       x1="6.875"
       y1="94.5"
       x2="-35.125"
       y2="52.5" />
  </defs>
  <sodipodi:namedview
     id="base"
     pagecolor="#000000"
     bordercolor="#0a0a0a"
     borderopacity="1"
     inkscape:pageopacity="0"
     inkscape:pageshadow="2"
     inkscape:zoom="6.533372"
     inkscape:cx="18.210246"
     inkscape:cy="25.741742"
     inkscape:document-units="px"
     inkscape:current-layer="layer1"
     showgrid="false"
     inkscape:snap-grids="true"
     inkscape:object-paths="true"
     inkscape:snap-intersection-paths="true"
     inkscape:snap-smooth-nodes="true"
     inkscape:object-nodes="true"
     inkscape:snap-midpoints="true"
     inkscape:window-width="1615"
     inkscape:window-height="1026"
     inkscape:window-x="65"
     inkscape:window-y="24"
     inkscape:window-maximized="1"
     inkscape:showpageshadow="false"
     borderlayer="true"
     inkscape:snap-bbox="true"
     inkscape:snap-nodes="true"
     inkscape:bbox-paths="true"
     inkscape:bbox-nodes="true"
     inkscape:snap-bbox-edge-midpoints="false"
     inkscape:snap-bbox-midpoints="false"
     inkscape:snap-object-midpoints="false"
     inkscape:snap-center="false"
     inkscape:snap-global="true">
    <inkscape:grid
       type="xygrid"
       id="grid3808"
       empspacing="4"
       visible="true"
       enabled="true"
       snapvisiblegridlinesonly="true" />
  </sodipodi:namedview>
  <metadata
     id="metadata7">
    <rdf:RDF>
      <cc:Work
         rdf:about="">
        <dc:format>image/svg+xml</dc:format>
        <dc:type
           rdf:resource="http://purl.org/dc/dcmitype/StillImage" />
        <dc:title />
      </cc:Work>
    </rdf:RDF>
  </metadata>
  <g
     inkscape:label="Layer 1"
     inkscape:groupmode="layer"
     id="layer1"
     transform="translate(0,-1004.3622)">
    <g
       id="g4287">
      <path
         sodipodi:nodetypes="zccssssssccz"
         inkscape:connector-curvature="0"
         id="rect2986"
         d="m 24,1007.3649 c -2.66571,0 -5,1.9946 -5,1.9946 -5.3383,4.3452 -10.9916117,8.7122 -16.25,13 -0.4707555,0.5294 -0.75,1.2325 -0.75,2 l 0,22 c 0,1.662 1.338,3 3,3 l 38,0 c 1.662,0 3,-1.338 3,-3 l 0,-22 c 0,-0.7748 -0.302428,-1.4688 -0.78125,-2 -5.30584,-4.2902 -10.829012,-8.6839 -16.21875,-13 0,0 -2.33429,-1.9946 -5,-1.9946 z"
         style="fill:#cccccc;fill-opacity:1;stroke:none" />
      <path
         sodipodi:nodetypes="cccscczssszccsssc"
         inkscape:connector-curvature="0"
         id="path3959"
         d="m 24,1007.3622 c -1.905852,0.024 -3.745248,0.992 -5,2 -1.442921,1.1592 -3.156495,2.5502 -4.993457,4.0091 -4.4047855,3.4985 -9.2211284,7.3361 -9.9392036,7.9188 C 2.8706338,1022.2612 2.135885,1022.5486 2,1024.3595 l 0.8145585,0.4743 c 0,-1.1356 0.2367191,-1.6934 1.1793472,-2.4413 0.942628,-0.7479 15.4019423,-12.2832 16.9123443,-13.1553 1.769422,-1.0216 2.498712,-0.875 3.09375,-0.875 0.595038,0 1.324328,-0.1466 3.09375,0.875 1.498762,0.8653 15.576802,12.043 16.903374,13.1376 1.326573,1.0945 1.181255,2.1808 1.174494,2.467 C 45.654194,1024.5597 46,1024.3622 46,1024.3622 c -0.07734,-1.8232 -1.27669,-2.4238 -2,-3 -0.72331,-0.5762 -5.595215,-4.5016 -10,-8 -1.836962,-1.459 -3.557079,-2.8408 -5,-4 -1.254752,-1.008 -3.094148,-1.9761 -5,-2 z"
         style="opacity:0.2;fill:#ffffff;fill-opacity:1;stroke:none" />
      <path
         id="rect4018"
         d="m 11,1011.3622 26,0 c 1.662,0 3,1.338 3,3 l 0,18.9999 c 0,1.662 -1.338,3 -3,3 l -26,0 c -1.662,0 -3,-1.338 -3,-3 l 0,-18.9999 c 0,-1.662 1.338,-3 3,-3 z"
         style="fill:#f7f7f0;fill-opacity:1;stroke:none"
         inkscape:connector-curvature="0" />
      <g
         style="fill:#f2f2f2"
         id="g3939">
        <path
           style="fill:#f2f2f2;fill-opacity:1;stroke:none"
           d="m 24,1035.3595 c 1.646683,7e-4 3,0 3,0 6.025863,-3.479 19,-11 19,-11 l 0,22 c 0,1.662 -1.338,3 -3,3 l -38.0000001,0 c -1.662,0 -3,-1.338 -3,-3 l 0,-22 c 0,0 17.2163341,9.9702 19.0000001,11 0,0 1.353317,-7e-4 3,0 z"
           id="rect3764"
           inkscape:connector-curvature="0"
           sodipodi:nodetypes="cccssssccc" />
        <path
           style="fill:#f2f2f2;stroke:#cccccc;stroke-width:0.1;stroke-linecap:round;stroke-linejoin:round;stroke-miterlimit:4;stroke-opacity:1;stroke-dasharray:none"
           d="M 20.925781,1035.3817 1.9765625,1046.3556"
           id="path3769"
           inkscape:connector-curvature="0"
           sodipodi:nodetypes="cc" />
        <path
           style="fill:#f2f2f2;stroke:#cccccc;stroke-width:0.1;stroke-linecap:round;stroke-linejoin:round;stroke-miterlimit:4;stroke-opacity:1;stroke-dasharray:none"
           d="m 27.081436,1035.3762 18.867783,10.9794"
           id="path3771"
           inkscape:connector-curvature="0"
           sodipodi:nodetypes="cc" />
      </g>
      <g
         id="g3944">
        <path
           style="fill:#f44336;fill-opacity:1;stroke:none"
           d="m 4,1026.3595 -2,-2 0,4 2,2 z"
           id="path3773"
           inkscape:connector-curvature="0" />
        <path
           style="fill:#2196f3;fill-opacity:1;stroke:none"
           d="m 4,1034.3595 -2,-2 0,4 2,2 z"
           id="path3773-4"
           inkscape:connector-curvature="0" />
        <path
           style="fill:#f44336;fill-opacity:1;stroke:none"
           d="m 4,1042.3595 -2,-2 0,4 2,2 z"
           id="path3773-6"
           inkscape:connector-curvature="0" />
        <path
           style="fill:#2196f3;fill-opacity:1;stroke:none"
           d="m 7,1047.3595 -2,2 4,0 2,-2 z"
           id="path3773-8"
           inkscape:connector-curvature="0" />
        <path
           style="fill:#f44336;fill-opacity:1;stroke:none"
           d="m 15,1047.3595 -2,2 4,0 2,-2 z"
           id="path3773-8-7"
           inkscape:connector-curvature="0" />
        <path
           style="fill:#2196f3;fill-opacity:1;stroke:none"
           d="m 23,1047.3595 -2,2 4,0 2,-2 z"
           id="path3773-8-7-3"
           inkscape:connector-curvature="0" />
        <path
           style="fill:#f44336;fill-opacity:1;stroke:none"
           d="m 31,1047.3595 -2,2 4,0 2,-2 z"
           id="path3773-8-7-1"
           inkscape:connector-curvature="0" />
        <path
           style="fill:#2196f3;fill-opacity:1;stroke:none"
           d="m 39,1047.3595 -2,2 4,0 2,-2 z"
           id="path3773-8-7-1-8"
           inkscape:connector-curvature="0" />
        <path
           style="fill:#f44336;fill-opacity:1;stroke:none"
           d="m 44,1044.3595 2,2 0,-4 -2,-2 z"
           id="path3773-8-7-1-2"
           inkscape:connector-curvature="0" />
        <path
           style="fill:#2196f3;fill-opacity:1;stroke:none"
           d="m 44,1036.3595 2,2 0,-4 -2,-2 z"
           id="path3773-8-7-1-3"
           inkscape:connector-curvature="0" />
        <path
           style="fill:#f44336;fill-opacity:1;stroke:none"
           d="m 44,1028.3595 2,2 0,-4 -1.263672,-1.2637 c -0.141529,0.082 -0.543244,0.3046 -0.736328,0.416 z"
           id="path3773-8-7-1-3-8"
           inkscape:connector-curvature="0"
           sodipodi:nodetypes="cccccc" />
      </g>
      <path
         sodipodi:nodetypes="ccccccccc"
         inkscape:connector-curvature="0"
         id="path3957"
         d="m 21,1035.3622 6,0 19,-11 c 0,0 0,0.019 0,1 l -18,11 -8,0 -18,-11 c 0,-0.3536 0,-0.7431 0,-1 z"
         style="opacity:0.2;fill:#ffffff;fill-opacity:1;stroke:none" />
      <path
         sodipodi:nodetypes="cscsscszc"
         inkscape:connector-curvature="0"
         id="rect3764-4"
         d="m 24,1048.3622 c 6.69596,0 18,0.01 18,0.01 3,-0.01 3.999997,-1.5263 3.999997,-2.0101 0,1.662 -1.338,3 -3,3 l -37.9999938,0 c -1.6620001,0 -3,-1.338 -3,-3 0,0.3773 0.9697982,2.0027 3.9999968,2.0027 0,0 11.30404,0 18,0 z"
         style="opacity:0.2;fill:#000000;fill-opacity:1;stroke:none" />
      <g
         style="fill:#cccccc;fill-opacity:1"
         id="g4278">
        <rect
           style="fill:#cccccc;fill-opacity:1;stroke:none"
           id="rect4021"
           width="20"
           height="1"
           x="12"
           y="1018.3622"
           rx="1"
           ry="0" />
        <rect
           style="fill:#cccccc;fill-opacity:1;stroke:none"
           id="rect4021-4"
           width="16"
           height="1"
           x="12"
           y="1020.3622"
           rx="0"
           ry="0" />
        <rect
           style="fill:#cccccc;fill-opacity:1;stroke:none"
           id="rect4021-4-2"
           width="18"
           height="1"
           x="12"
           y="1022.3622"
           rx="0"
           ry="0" />
        <rect
           style="fill:#cccccc;fill-opacity:1;stroke:none"
           id="rect4021-4-2-9"
           width="12"
           height="1"
           x="12"
           y="1024.3622"
           rx="0"
           ry="0" />
        <rect
           style="fill:#cccccc;fill-opacity:1;stroke:none"
           id="rect4021-4-2-9-7"
           width="16"
           height="1"
           x="12"
           y="1026.3622"
           rx="0"
           ry="0" />
        <rect
           style="fill:#cccccc;fill-opacity:1;stroke:none"
           id="rect4021-4-2-9-7-6"
           width="10"
           height="1"
           x="12"
           y="1028.3622"
           rx="0"
           ry="0" />
        <rect
           style="fill:#cccccc;fill-opacity:1;stroke:none"
           id="rect4021-4-2-9-7-5"
           width="6"
           height="1"
           x="12"
           y="1015.3622"
           rx="0"
           ry="0" />
      </g>
      <path
         sodipodi:nodetypes="sscsscs"
         id="rect4018-8"
         d="m 11,1011.3622 26,0 c 1.662,0 3,1.338 3,3 0,-1.0166 -1.453125,-2 -4,-2 l -24,0 c -2.515625,0 -4,1.7114 -4,2 0,-1.662 1.338,-3 3,-3 z"
         style="opacity:0.2;fill:#ffffff;fill-opacity:1;stroke:none"
         inkscape:connector-curvature="0" />
      <path
         inkscape:connector-curvature="0"
         id="rect2986-6"
         d="m 24,1007.3622 c -2.66571,0 -5,2 -5,2 -0.817824,0.6657 -1.669942,1.3337 -2.5,2 l -5.5,0 c -1.662,0 -3,1.338 -3,3 l 0,3.8125 c -1.762874,1.4027 -3.545915,2.798 -5.25,4.1875 -0.470755,0.5294 -0.75,1.2325 -0.75,2 l 0,22 c 0,1.662 1.338,3 3,3 l 38,0 c 1.662,0 3,-1.338 3,-3 l 0,-22 c 0,-0.7749 -0.302428,-1.4688 -0.78125,-2 -1.707986,-1.381 -3.477424,-2.7911 -5.21875,-4.1875 l 0,-3.8125 c 0,-1.662 -1.338,-3 -3,-3 l -5.5,0 c -0.835213,-0.6679 -1.669837,-1.3352 -2.5,-2 0,0 -2.33429,-2 -5,-2 z"
         style="fill:url(#linearGradient4247);fill-opacity:1;stroke:none" />
    </g>
  </g>
</svg>
