<?xml version="1.0" encoding="UTF-8" standalone="no"?>
<!-- Created with Inkscape (http://www.inkscape.org/) -->

<svg
   xmlns:dc="http://purl.org/dc/elements/1.1/"
   xmlns:cc="http://creativecommons.org/ns#"
   xmlns:rdf="http://www.w3.org/1999/02/22-rdf-syntax-ns#"
   xmlns:svg="http://www.w3.org/2000/svg"
   xmlns="http://www.w3.org/2000/svg"
   xmlns:xlink="http://www.w3.org/1999/xlink"
   xmlns:sodipodi="http://sodipodi.sourceforge.net/DTD/sodipodi-0.dtd"
   xmlns:inkscape="http://www.inkscape.org/namespaces/inkscape"
   width="48"
   height="48"
   id="svg2985"
   version="1.1"
   inkscape:version="0.48.5 r10040"
   sodipodi:docname="gitg.svg"
   inkscape:export-filename="/home/afel/Pictures/evos-mockups/personal-app-icons/gitg.png"
   inkscape:export-xdpi="360"
   inkscape:export-ydpi="360">
  <defs
     id="defs2987">
    <linearGradient
       id="linearGradient3792">
      <stop
         style="stop-color:#ffffff;stop-opacity:0.14901961;"
         offset="0"
         id="stop3794" />
      <stop
         style="stop-color:#177ed5;stop-opacity:0;"
         offset="1"
         id="stop3796" />
    </linearGradient>
    <filter
       inkscape:collect="always"
       id="filter4148"
       color-interpolation-filters="sRGB">
      <feGaussianBlur
         inkscape:collect="always"
         stdDeviation="1.6197124"
         id="feGaussianBlur4150" />
    </filter>
    <linearGradient
       inkscape:collect="always"
       xlink:href="#linearGradient3792"
       id="linearGradient3798"
       x1="-44"
       y1="40"
       x2="-12"
       y2="72"
       gradientUnits="userSpaceOnUse"
       gradientTransform="translate(50.625,-14.875)" />
  </defs>
  <sodipodi:namedview
     id="base"
     pagecolor="#ffffff"
     bordercolor="#666666"
     borderopacity="1.0"
     inkscape:pageopacity="0"
     inkscape:pageshadow="2"
     inkscape:zoom="5.6568543"
     inkscape:cx="8.2703133"
     inkscape:cy="-10.787957"
     inkscape:current-layer="layer1"
     showgrid="true"
     inkscape:document-units="px"
     inkscape:grid-bbox="true"
     inkscape:snap-nodes="true"
     inkscape:snap-grids="true"
     inkscape:window-width="1615"
     inkscape:window-height="1026"
     inkscape:window-x="65"
     inkscape:window-y="24"
     inkscape:window-maximized="1"
     inkscape:showpageshadow="false"
     borderlayer="true"
     inkscape:snap-bbox="true"
     inkscape:snap-midpoints="true"
     inkscape:snap-smooth-nodes="true"
     inkscape:object-nodes="true"
     inkscape:object-paths="true"
     inkscape:snap-object-midpoints="false"
     inkscape:snap-intersection-paths="true">
    <inkscape:grid
       type="xygrid"
       id="grid3947"
       empspacing="4"
       visible="true"
       enabled="true"
       snapvisiblegridlinesonly="true" />
  </sodipodi:namedview>
  <metadata
     id="metadata2990">
    <rdf:RDF>
      <cc:Work
         rdf:about="">
        <dc:format>image/svg+xml</dc:format>
        <dc:type
           rdf:resource="http://purl.org/dc/dcmitype/StillImage" />
        <dc:title></dc:title>
      </cc:Work>
    </rdf:RDF>
  </metadata>
  <g
     id="layer1"
     inkscape:label="Layer 1"
     inkscape:groupmode="layer"
     transform="translate(0,-16)">
    <g
       id="g3800">
      <path
         id="rect2993"
         d="m 23.987268,18.005887 c -0.829962,10e-7 -1.655807,0.306215 -2.291767,0.942171 L 2.9539401,37.715083 c -1.2719204,1.271914 -1.2719199,3.311621 0,4.583534 l 12.1972929,12.197293 0,-4.405285 c -0.965748,-0.565722 -1.629701,-1.60097 -1.629701,-2.801048 0,-1.200079 0.663953,-2.235327 1.629701,-2.801049 l 0,-8.606858 c -0.965748,-0.565722 -1.629701,-1.60097 -1.629701,-2.801049 0,-1.800118 1.459284,-3.259402 3.259402,-3.259402 1.800118,0 3.259402,1.459284 3.259402,3.259402 0,1.205334 -0.65694,2.237103 -1.629701,2.801049 l 0,8.428609 10.389344,-10.389343 c -0.285312,-1.08438 -0.0097,-2.28203 0.840314,-3.132082 1.272876,-1.272875 3.336123,-1.272875 4.608998,0 1.272876,1.272876 1.272876,3.336122 0,4.608998 -0.850052,0.850052 -2.047702,1.125627 -3.132081,0.840315 l -11.076874,11.05141 c 0,1.205334 -0.65694,2.237102 -1.629701,2.801048 l 0,7.664687 3.284866,3.284866 c 1.27192,1.271914 3.337078,1.271914 4.608998,0 L 45.04606,42.298617 c 1.27192,-1.271913 1.27192,-3.31162 0,-4.583534 L 26.304499,18.948058 c -0.63596,-0.635956 -1.487269,-0.942171 -2.317231,-0.942171 z"
         style="fill:#e53935;fill-opacity:1;stroke:none"
         inkscape:connector-curvature="0" />
      <path
         sodipodi:nodetypes="scczccs"
         id="rect2993-2"
         d="m 23.987267,18.005887 c -0.829962,0 -1.655807,0.306215 -2.291767,0.942171 l -3.050233,3.054379 c 0.814851,-0.814851 3.185153,-2.985646 5.344204,-2.985646 2.15905,0 4.587228,2.207662 5.402079,3.022512 l -3.087052,-3.091245 c -0.63596,-0.635956 -1.487269,-0.942171 -2.317231,-0.942171 z"
         style="opacity:0.2;fill:#ffffff;fill-opacity:1;stroke:none"
         inkscape:connector-curvature="0" />
      <path
         sodipodi:nodetypes="scczccs"
         id="rect2993-2-1"
         d="m 24.025463,61.994113 c -0.829961,0 -1.655807,-0.306214 -2.291767,-0.942171 l -3.077231,-3.0508 c 0.81485,0.814851 3.319495,3.118431 5.371202,3.118431 2.051706,0 4.474384,-2.276946 5.289234,-3.091797 l -2.974207,3.024166 c -0.635959,0.635957 -1.487269,0.942171 -2.317231,0.942171 z"
         style="opacity:0.2;fill:#000000;fill-opacity:1;stroke:none"
         inkscape:connector-curvature="0" />
      <path
         id="rect2993-4"
         d="m 23.987268,18.005887 c -0.829962,10e-7 -1.655807,0.306215 -2.291767,0.942171 L 2.95394,37.715083 c -1.27192,1.271914 -1.27192,3.311621 0,4.583534 l 12.197293,12.197293 0,-4.405285 c -0.965748,-0.565722 -1.629701,-1.60097 -1.629701,-2.801048 0,-1.200079 0.663953,-2.235327 1.629701,-2.801049 l 0,-8.606858 c -0.965748,-0.565722 -1.629701,-1.60097 -1.629701,-2.801049 0,-1.800118 1.459284,-3.259402 3.259402,-3.259402 1.800118,0 3.259402,1.459284 3.259402,3.259402 0,1.205334 -0.65694,2.237103 -1.629701,2.801049 l 0,8.428609 10.389344,-10.389343 c -0.285312,-1.08438 -0.0097,-2.28203 0.840314,-3.132082 1.272876,-1.272875 3.336123,-1.272875 4.608998,0 1.272876,1.272876 1.272876,3.336122 0,4.608998 -0.850052,0.850052 -2.047702,1.125627 -3.132081,0.840315 l -11.076874,11.05141 c 0,1.205334 -0.65694,2.237102 -1.629701,2.801048 l 0,7.664687 3.284866,3.284866 c 1.27192,1.271914 3.337078,1.271914 4.608998,0 L 45.04606,42.298617 c 1.27192,-1.271913 1.27192,-3.31162 0,-4.583534 L 26.304499,18.948058 c -0.63596,-0.635956 -1.487269,-0.942171 -2.317231,-0.942171 z"
         style="fill:url(#linearGradient3798);fill-opacity:1;stroke:none"
         inkscape:connector-curvature="0" />
    </g>
  </g>
</svg>
