<?xml version="1.0" encoding="UTF-8" standalone="no"?>
<!-- Created with Inkscape (http://www.inkscape.org/) -->

<svg
   xmlns:dc="http://purl.org/dc/elements/1.1/"
   xmlns:cc="http://creativecommons.org/ns#"
   xmlns:rdf="http://www.w3.org/1999/02/22-rdf-syntax-ns#"
   xmlns:svg="http://www.w3.org/2000/svg"
   xmlns="http://www.w3.org/2000/svg"
   xmlns:xlink="http://www.w3.org/1999/xlink"
   xmlns:sodipodi="http://sodipodi.sourceforge.net/DTD/sodipodi-0.dtd"
   xmlns:inkscape="http://www.inkscape.org/namespaces/inkscape"
   width="48"
   height="48"
   viewBox="0 0 48 48.000001"
   id="svg2"
   version="1.1"
   inkscape:version="0.91 r13725"
   inkscape:export-filename="/home/peter/Bureaublad/gnome-clock.png"
   inkscape:export-xdpi="90"
   inkscape:export-ydpi="90"
   sodipodi:docname="gnome-clocks.svg">
  <defs
     id="defs4">
    <linearGradient
       inkscape:collect="always"
       xlink:href="#linearGradient4165"
       id="linearGradient4202"
       x1="53"
       y1="1000.3622"
       x2="97"
       y2="1044.3619"
       gradientUnits="userSpaceOnUse"
       gradientTransform="translate(-51,6.0002636)" />
    <linearGradient
       inkscape:collect="always"
       id="linearGradient4165">
      <stop
         style="stop-color:#ffffff;stop-opacity:0.15000001"
         offset="0"
         id="stop4167" />
      <stop
         style="stop-color:#177ed5;stop-opacity:0;"
         offset="1"
         id="stop4169" />
    </linearGradient>
  </defs>
  <sodipodi:namedview
     id="base"
     pagecolor="#ffffff"
     bordercolor="#666666"
     borderopacity="1.0"
     inkscape:pageopacity="0.0"
     inkscape:pageshadow="2"
     inkscape:zoom="3.959798"
     inkscape:cx="68.26213"
     inkscape:cy="62.951826"
     inkscape:document-units="px"
     inkscape:current-layer="layer1"
     showgrid="true"
     units="px"
     inkscape:window-width="959"
     inkscape:window-height="1011"
     inkscape:window-x="960"
     inkscape:window-y="0"
     inkscape:window-maximized="0">
    <inkscape:grid
       type="xygrid"
       id="grid4136" />
  </sodipodi:namedview>
  <metadata
     id="metadata7">
    <rdf:RDF>
      <cc:Work
         rdf:about="">
        <dc:format>image/svg+xml</dc:format>
        <dc:type
           rdf:resource="http://purl.org/dc/dcmitype/StillImage" />
        <dc:title />
      </cc:Work>
    </rdf:RDF>
  </metadata>
  <g
     inkscape:label="Laag 1"
     inkscape:groupmode="layer"
     id="layer1"
     transform="translate(0,-1004.3622)">
    <rect
       style="opacity:1;fill:#b39ddb;fill-opacity:1;stroke:none;stroke-width:2;stroke-linecap:round;stroke-linejoin:round;stroke-miterlimit:4;stroke-dasharray:none;stroke-opacity:1"
       id="rect4171"
       width="40"
       height="40"
       x="4"
       y="1008.3622"
       rx="3"
       ry="3" />
    <path
       style="fill:#9575cd;fill-rule:evenodd;stroke:none;stroke-width:1px;stroke-linecap:butt;stroke-linejoin:miter;stroke-opacity:1;fill-opacity:1"
       d="M 44 12.333984 L 24 24 L 24 44 L 41 44 C 42.662 44 44 42.662 44 41 L 44 12.333984 z "
       transform="translate(0,1004.3622)"
       id="path4193" />
    <path
       style="opacity:1;fill:#f5f5f5;fill-opacity:1;stroke:none;stroke-width:2.27600002;stroke-linecap:round;stroke-linejoin:round;stroke-miterlimit:4;stroke-dasharray:none;stroke-opacity:0.19607843"
       d="M 24 41 C 23.446 41 23 41.446005 23 42 L 23 42.964844 L 23 44 L 25 44 L 25 42.941406 L 25 42 C 25 41.446005 24.554 41 24 41 z "
       transform="translate(0,1004.3622)"
       id="rect4194" />
    <rect
       style="opacity:1;fill:#212121;fill-opacity:1;stroke:none;stroke-width:2.27600002;stroke-linecap:round;stroke-linejoin:round;stroke-miterlimit:4;stroke-dasharray:none;stroke-opacity:0.19607843"
       id="rect4148"
       width="0.90259612"
       height="16.246702"
       x="23.574472"
       y="1028.4034"
       rx="0.90259612"
       ry="0.90259457" />
    <path
       style="opacity:1;fill:#f5f5f5;fill-opacity:1;stroke:none;stroke-width:2.27600002;stroke-linecap:round;stroke-linejoin:round;stroke-miterlimit:4;stroke-dasharray:none;stroke-opacity:0.19607843"
       d="M 23 4 L 23 5.0507812 L 23 6 C 23 6.553995 23.446 7 24 7 C 24.554 7 25 6.553995 25 6 L 25 5.0332031 L 25 4 L 23 4 z "
       transform="translate(0,1004.3622)"
       id="rect4196" />
    <path
       style="opacity:1;fill:#000000;fill-opacity:0.2;stroke:none;stroke-width:2.27600002;stroke-linecap:round;stroke-linejoin:round;stroke-miterlimit:4;stroke-dasharray:none;stroke-opacity:0.19607843"
       d="m 16.804845,1020.4662 c -0.230716,0 -0.461376,0.088 -0.638163,0.2645 -0.353574,0.3536 -0.353574,0.9227 0,1.2764 l 6.593181,6.5932 a 2.2564903,2.2564865 0 0 0 -0.08815,0.6152 2.2564903,2.2564865 0 0 0 1.805192,2.2106 l 0,13.1335 c 0,0.5 0.201279,0.9026 0.451298,0.9026 0.250019,0 0.451298,-0.4026 0.451298,-0.9026 l 0,-13.137 a 2.2564903,2.2564865 0 0 0 1.805192,-2.2071 2.2564903,2.2564865 0 0 0 -0.02468,-0.3174 l 11.388225,-6.5738 c 0.433042,-0.25 0.579676,-0.7991 0.329659,-1.2322 -0.250016,-0.4331 -0.799214,-0.5814 -1.232255,-0.3314 l -11.43406,6.6002 a 2.2564903,2.2564865 0 0 0 -1.283378,-0.4019 2.2564903,2.2564865 0 0 0 -1.015421,0.2415 l -6.469781,-6.4698 c -0.176786,-0.1768 -0.407447,-0.2645 -0.638163,-0.2645 z"
       id="rect4170"
       inkscape:connector-curvature="0" />
    <path
       style="opacity:1;fill:#f5f5f5;fill-opacity:1;stroke:none;stroke-width:2.27600002;stroke-linecap:round;stroke-linejoin:round;stroke-miterlimit:4;stroke-dasharray:none;stroke-opacity:0.19607843"
       d="M 42 23 C 41.446005 23 41 23.446 41 24 C 41 24.554 41.446005 25 42 25 L 42.964844 25 L 44 25 L 44 23 L 42.947266 23 L 42 23 z "
       transform="translate(0,1004.3622)"
       id="rect4198" />
    <ellipse
       style="opacity:1;fill:#f5f5f5;fill-opacity:1;stroke:none;stroke-width:2.27600002;stroke-linecap:round;stroke-linejoin:round;stroke-miterlimit:4;stroke-dasharray:none;stroke-opacity:0.19607843"
       id="path4142"
       cx="24.02577"
       cy="1028.4034"
       rx="2.2564902"
       ry="2.2564864" />
    <path
       style="opacity:1;fill:#f5f5f5;fill-opacity:1;stroke:none;stroke-width:2.27600002;stroke-linecap:round;stroke-linejoin:round;stroke-miterlimit:4;stroke-dasharray:none;stroke-opacity:0.19607843"
       d="M 4 23 L 4 25 L 5.0507812 25 L 6 25 C 6.553995 25 7 24.554 7 24 C 7 23.446 6.553995 23 6 23 L 5.0351562 23 L 4 23 z "
       transform="translate(0,1004.3622)"
       id="rect4200" />
    <rect
       style="opacity:1;fill:#f5f5f5;fill-opacity:1;stroke:none;stroke-width:2.27600002;stroke-linecap:round;stroke-linejoin:round;stroke-miterlimit:4;stroke-dasharray:none;stroke-opacity:0.19607843"
       id="rect4144"
       width="1.805174"
       height="13.538805"
       x="-711.29321"
       y="731.979"
       rx="0.902587"
       ry="0.902587"
       transform="matrix(0.70710083,-0.70711273,0.70710083,0.70711273,0,0)" />
    <rect
       style="opacity:1;fill:#f5f5f5;fill-opacity:1;stroke:none;stroke-width:2.27600002;stroke-linecap:round;stroke-linejoin:round;stroke-miterlimit:4;stroke-dasharray:none;stroke-opacity:0.19607843"
       id="rect4146"
       width="1.8051848"
       height="18.051758"
       x="901.67065"
       y="477.24802"
       rx="0.90259242"
       ry="0.90258795"
       transform="matrix(0.49999632,0.86602753,-0.86602328,0.50000368,0,0)" />
    <path
       style="opacity:1;fill:#ffffff;fill-opacity:0.2;stroke:none;stroke-width:2;stroke-linecap:round;stroke-linejoin:round;stroke-miterlimit:4;stroke-dasharray:none;stroke-opacity:1"
       d="M 7 4 C 5.338 4 4 5.338 4 7 L 4 8 C 4 6.338 5.338 5 7 5 L 41 5 C 42.662 5 44 6.338 44 8 L 44 7 C 44 5.338 42.662 4 41 4 L 7 4 z "
       transform="translate(0,1004.3622)"
       id="rect4185" />
    <path
       id="path4191"
       d="m 7,1048.3622 c -1.662,0 -3,-1.338 -3,-3 l 0,-1 c 0,1.662 1.338,3 3,3 l 34,0 c 1.662,0 3,-1.338 3,-3 l 0,1 c 0,1.662 -1.338,3 -3,3 l -34,0 z"
       style="opacity:1;fill:#000000;fill-opacity:0.2;stroke:none;stroke-width:2;stroke-linecap:round;stroke-linejoin:round;stroke-miterlimit:4;stroke-dasharray:none;stroke-opacity:1"
       inkscape:connector-curvature="0" />
    <rect
       style="opacity:1;fill:url(#linearGradient4202);fill-opacity:1;stroke:none;stroke-width:0;stroke-linecap:butt;stroke-linejoin:miter;stroke-miterlimit:0;stroke-dasharray:none;stroke-opacity:1"
       id="rect4153-9"
       width="40"
       height="39.999954"
       x="4"
       y="1008.3622"
       rx="3"
       ry="3" />
  </g>
</svg>
