<?xml version="1.0" encoding="UTF-8" standalone="no"?>
<!-- Created with Inkscape (http://www.inkscape.org/) -->

<svg
   xmlns:dc="http://purl.org/dc/elements/1.1/"
   xmlns:cc="http://creativecommons.org/ns#"
   xmlns:rdf="http://www.w3.org/1999/02/22-rdf-syntax-ns#"
   xmlns:svg="http://www.w3.org/2000/svg"
   xmlns="http://www.w3.org/2000/svg"
   xmlns:xlink="http://www.w3.org/1999/xlink"
   xmlns:sodipodi="http://sodipodi.sourceforge.net/DTD/sodipodi-0.dtd"
   xmlns:inkscape="http://www.inkscape.org/namespaces/inkscape"
   width="48"
   height="48"
   id="svg2"
   version="1.1"
   inkscape:version="0.91 r13725"
   sodipodi:docname="font-viewer.svg"
   inkscape:export-filename="/home/afel/Pictures/evos-mockups/personal-app-icons/font-viewer.png"
   inkscape:export-xdpi="360"
   inkscape:export-ydpi="360">
  <defs
     id="defs4">
    <linearGradient
       inkscape:collect="always"
       id="linearGradient4226">
      <stop
         style="stop-color:#ffffff;stop-opacity:0.14901961"
         offset="0"
         id="stop4228" />
      <stop
         style="stop-color:#177ed5;stop-opacity:0"
         offset="1"
         id="stop4230" />
    </linearGradient>
    <inkscape:perspective
       sodipodi:type="inkscape:persp3d"
       inkscape:vp_x="0 : 12 : 1"
       inkscape:vp_y="0 : 1000 : 0"
       inkscape:vp_z="24 : 12 : 1"
       inkscape:persp3d-origin="12 : 8 : 1"
       id="perspective3810" />
    <linearGradient
       inkscape:collect="always"
       xlink:href="#linearGradient4226"
       id="linearGradient4232"
       x1="-66.492271"
       y1="1008.3206"
       x2="-26.492271"
       y2="1048.3206"
       gradientUnits="userSpaceOnUse"
       gradientTransform="translate(70.492271,0.04165184)" />
  </defs>
  <sodipodi:namedview
     id="base"
     pagecolor="#ffffff"
     bordercolor="#666666"
     borderopacity="1.0"
     inkscape:pageopacity="0.0"
     inkscape:pageshadow="2"
     inkscape:zoom="5.6568542"
     inkscape:cx="-1.6073766"
     inkscape:cy="28.039361"
     inkscape:document-units="px"
     inkscape:current-layer="layer1"
     showgrid="false"
     inkscape:snap-grids="true"
     inkscape:object-paths="true"
     inkscape:snap-intersection-paths="true"
     inkscape:snap-smooth-nodes="true"
     inkscape:object-nodes="true"
     inkscape:snap-midpoints="true"
     inkscape:window-width="1680"
     inkscape:window-height="998"
     inkscape:window-x="0"
     inkscape:window-y="25"
     inkscape:window-maximized="1"
     inkscape:showpageshadow="false"
     borderlayer="true"
     inkscape:snap-bbox="true"
     inkscape:snap-nodes="false"
     inkscape:bbox-paths="true"
     inkscape:bbox-nodes="true"
     inkscape:snap-bbox-edge-midpoints="false"
     inkscape:snap-bbox-midpoints="false"
     inkscape:snap-global="true">
    <inkscape:grid
       type="xygrid"
       id="grid3808"
       empspacing="4"
       visible="true"
       enabled="true"
       snapvisiblegridlinesonly="true" />
  </sodipodi:namedview>
  <metadata
     id="metadata7">
    <rdf:RDF>
      <cc:Work
         rdf:about="">
        <dc:format>image/svg+xml</dc:format>
        <dc:type
           rdf:resource="http://purl.org/dc/dcmitype/StillImage" />
        <dc:title />
      </cc:Work>
    </rdf:RDF>
  </metadata>
  <g
     inkscape:label="Layer 1"
     inkscape:groupmode="layer"
     id="layer1"
     transform="translate(0,-1004.3622)">
    <text
       xml:space="preserve"
       style="font-style:normal;font-weight:normal;font-size:40px;line-height:125%;font-family:Sans;letter-spacing:0px;word-spacing:0px;fill:#000000;fill-opacity:1;stroke:none;stroke-width:1px;stroke-linecap:butt;stroke-linejoin:miter;stroke-opacity:1"
       x="39.25"
       y="1025.4247"
       id="text4153"
       sodipodi:linespacing="125%"><tspan
         sodipodi:role="line"
         id="tspan4155"
         x="39.25"
         y="1025.4247" /></text>
    <g
       id="g3380">
      <rect
         ry="3"
         rx="3"
         y="1008.3622"
         x="4"
         height="40"
         width="40"
         id="rect4135"
         style="opacity:1;fill:#333333;fill-opacity:1;stroke:none;stroke-width:0.2;stroke-linecap:round;stroke-linejoin:round;stroke-miterlimit:4;stroke-dasharray:none;stroke-opacity:1" />
      <g
         id="text4137"
         style="font-style:normal;font-weight:normal;font-size:40px;line-height:120.00000477%;font-family:Sans;letter-spacing:0px;word-spacing:0px;fill:#ececec;fill-opacity:1;stroke:none;stroke-width:1px;stroke-linecap:butt;stroke-linejoin:miter;stroke-opacity:1">
        <path
           id="path3378"
           style="font-style:normal;font-variant:normal;font-weight:normal;font-stretch:normal;font-size:20px;line-height:120.00000477%;font-family:NanumBarunGothic;-inkscape-font-specification:'NanumBarunGothic, Normal';text-align:start;writing-mode:lr-tb;text-anchor:start;fill:#ececec"
           d="m 17.36,1020.6804 0,-1.44 -2.9,0.36 q -1.12,0.16 -1.82,0.76 -0.7,0.58 -0.7,1.7 0,0.9 0.6,1.38 0.62,0.48 1.58,0.48 0.64,0 1.22,-0.28 0.6,-0.28 1.04,-0.72 0.46,-0.46 0.72,-1.04 0.26,-0.58 0.26,-1.2 z m -5.9,-4.14 q -0.1,0.1 -0.18,0.08 -0.08,-0.04 -0.08,-0.2 l 0,-1.46 q 0.84,-0.56 1.88,-0.88 1.04,-0.32 2.14,-0.32 1.96,0 2.86,0.9 0.92,0.9 0.92,2.96 l 0,7.5 -1.66,0 -0.08,-1.58 -0.02,0 q -0.26,0.44 -0.66,0.78 -0.38,0.34 -0.86,0.56 -0.46,0.24 -0.98,0.36 -0.5,0.12 -1,0.12 -0.8,0.02 -1.48,-0.18 -0.66,-0.2 -1.14,-0.6 -0.48,-0.4 -0.74,-1 -0.26,-0.6 -0.26,-1.38 0,-1.52 0.94,-2.52 0.94,-1.02 2.8,-1.3 l 3.44,-0.5 0,-0.18 q 0,-0.72 -0.14,-1.2 -0.14,-0.48 -0.42,-0.74 -0.28,-0.28 -0.72,-0.38 -0.42,-0.12 -1,-0.12 -0.96,0 -1.82,0.32 -0.84,0.32 -1.74,0.96 z" />
      </g>
      <g
         id="text4141"
         style="font-style:normal;font-variant:normal;font-weight:normal;font-stretch:normal;font-size:20px;line-height:125%;font-family:Mallige;-inkscape-font-specification:'Mallige, Normal';text-align:start;letter-spacing:0px;word-spacing:0px;writing-mode:lr-tb;text-anchor:start;fill:#e6e6e6;fill-opacity:1;stroke:none;stroke-width:1px;stroke-linecap:butt;stroke-linejoin:miter;stroke-opacity:1">
        <path
           id="path3375"
           style="font-style:normal;font-variant:normal;font-weight:normal;font-stretch:normal;font-size:20px;line-height:125%;font-family:'Ubuntu Mono';-inkscape-font-specification:'Ubuntu Mono, Normal';text-align:start;writing-mode:lr-tb;text-anchor:start;fill:#e6e6e6"
           d="m 30.879999,1016.2022 q 0.3,-0.18 0.86,-0.36 0.58,-0.2 1.28,-0.2 0.94,0 1.68,0.36 0.74,0.36 1.24,1 0.52,0.64 0.78,1.54 0.28,0.88 0.28,1.96 0,1.12 -0.32,2.02 -0.32,0.9 -0.9,1.54 -0.58,0.62 -1.4,0.96 -0.82,0.34 -1.82,0.34 -1.1,0 -1.96,-0.16 -0.86,-0.16 -1.38,-0.32 l 0,-13.32 1.66,-0.28 0,4.92 z m 0,7.5 q 0.38,0.1 0.76,0.16 0.38,0.04 0.72,0.04 1.38,0 2.16,-0.84 0.78,-0.86 0.78,-2.56 0,-0.72 -0.14,-1.34 -0.14,-0.64 -0.44,-1.08 -0.3,-0.46 -0.78,-0.72 -0.46,-0.26 -1.12,-0.26 -0.58,0 -1.12,0.24 -0.54,0.22 -0.82,0.48 l 0,5.88 z" />
      </g>
      <g
         id="text4145"
         style="font-style:normal;font-weight:normal;font-size:40px;line-height:125%;font-family:Sans;letter-spacing:0px;word-spacing:0px;fill:#000000;fill-opacity:1;stroke:none;stroke-width:1px;stroke-linecap:butt;stroke-linejoin:miter;stroke-opacity:1">
        <path
           id="path3372"
           style="font-style:normal;font-variant:normal;font-weight:500;font-stretch:normal;font-size:25px;line-height:125%;font-family:Kinnari;-inkscape-font-specification:'Kinnari, Medium';text-align:start;writing-mode:lr-tb;text-anchor:start;fill:#e6e6e6"
           d="m 19.675,1038.3622 q -0.925,1.875 -2.075,2.95 -1.15,1.05 -2.925,1.05 -2,0 -3.35,-1.65 -1.325,-1.65 -1.325,-3.975 0,-2.6 1.45,-4.35 1.475,-1.75 4.15,-1.75 0.775,0 1.575,0.25 0.8,0.25 1.45,0.85 0.65,0.575 0.7,1.375 0,0.425 -0.35,0.75 -0.35,0.325 -0.775,0.325 -0.425,0 -0.8,-0.325 -0.35,-0.35 -0.35,-0.75 0,-0.8 -0.475,-1.275 -0.475,-0.475 -1.45,-0.475 -1.5,0 -2.35,1.325 -0.825,1.3 -0.825,3.025 0,1.9 1.025,3.4 1.025,1.475 2.825,1.475 1.125,0 1.95,-0.65 0.825,-0.65 1.575,-1.775 l 0.35,0.2 z" />
      </g>
      <g
         id="text4149"
         style="font-style:normal;font-variant:normal;font-weight:500;font-stretch:normal;font-size:25px;line-height:125%;font-family:TlwgTypewriter;-inkscape-font-specification:'TlwgTypewriter, Medium';text-align:start;letter-spacing:0px;word-spacing:0px;writing-mode:lr-tb;text-anchor:start;fill:#000000;fill-opacity:1;stroke:none;stroke-width:1px;stroke-linecap:butt;stroke-linejoin:miter;stroke-opacity:1">
        <path
           id="path3369"
           style="font-style:normal;font-variant:normal;font-weight:normal;font-stretch:normal;font-size:20px;line-height:125%;font-family:'Courier 10 Pitch';-inkscape-font-specification:'Courier 10 Pitch, Normal';text-align:start;writing-mode:lr-tb;text-anchor:start;fill:#e6e6e6"
           d="m 30.04,1037.7622 c 0,-1.94 1.24,-3.22 3.08,-3.22 1.82,0 3.08,1.32 3.08,3.12 0,1.8 -1.3,3.16 -3.1,3.16 -1.74,0 -3.06,-1.22 -3.06,-3.06 z m 6.4,4.38 1.86,0 c 0.42,0 0.7,-0.26 0.7,-0.7 0,-0.5 -0.28,-0.68 -0.9,-0.68 -0.14,0 -0.3,0 -0.44,0 l 0,-11 c 0,-0.28 -0.18,-0.4 -0.56,-0.4 l -2,0 c -0.52,0 -0.78,0.24 -0.78,0.7 0,0.64 0.42,0.7 1.34,0.7 l 0.52,0 0,3.74 c -0.76,-0.94 -1.84,-1.4 -3.18,-1.4 -2.64,0 -4.64,2.04 -4.64,4.62 0,2.74 1.88,4.66 4.34,4.66 1.38,0 2.58,-0.56 3.36,-1.54 l 0,0.8 c 0,0.34 0.08,0.5 0.38,0.5 z" />
      </g>
      <path
         sodipodi:nodetypes="sscsscs"
         inkscape:connector-curvature="0"
         id="rect4135-0"
         d="m 7,1008.3622 34,0 c 1.662,0 3,1.338 3,3 0,-1 -1.556089,-2 -3,-2 -10.492756,0 -34.0201121,0 -34.0201121,0 -1.4408254,0 -2.9798879,1 -2.9798879,2 0,-1.662 1.338,-3 3,-3 z"
         style="opacity:1;fill:#ffffff;fill-opacity:0.2;stroke:none;stroke-width:0.2;stroke-linecap:round;stroke-linejoin:round;stroke-miterlimit:4;stroke-dasharray:none;stroke-opacity:1" />
      <path
         sodipodi:nodetypes="sscsscs"
         inkscape:connector-curvature="0"
         id="rect4135-0-3"
         d="m 7.0000002,1048.3622 33.9999998,0 c 1.662,0 3,-1.338 3,-3 0,1 -1.556089,2 -3,2 -10.492756,0 -34.0201118,0 -34.0201118,0 -1.440825,0 -2.979888,-1 -2.979888,-2 0,1.662 1.338,3 3,3 z"
         style="opacity:1;fill:#000000;fill-opacity:0.2;stroke:none;stroke-width:0.2;stroke-linecap:round;stroke-linejoin:round;stroke-miterlimit:4;stroke-dasharray:none;stroke-opacity:1" />
      <rect
         ry="3"
         rx="3"
         y="1008.3622"
         x="4"
         height="40"
         width="40"
         id="rect4135-8"
         style="opacity:1;fill:url(#linearGradient4232);fill-opacity:1;stroke:none;stroke-width:0.2;stroke-linecap:round;stroke-linejoin:round;stroke-miterlimit:4;stroke-dasharray:none;stroke-opacity:1" />
    </g>
  </g>
</svg>
