<?xml version="1.0" encoding="UTF-8" standalone="no"?>
<!-- Created with Inkscape (http://www.inkscape.org/) -->

<svg
   xmlns:dc="http://purl.org/dc/elements/1.1/"
   xmlns:cc="http://creativecommons.org/ns#"
   xmlns:rdf="http://www.w3.org/1999/02/22-rdf-syntax-ns#"
   xmlns:svg="http://www.w3.org/2000/svg"
   xmlns="http://www.w3.org/2000/svg"
   xmlns:xlink="http://www.w3.org/1999/xlink"
   xmlns:sodipodi="http://sodipodi.sourceforge.net/DTD/sodipodi-0.dtd"
   xmlns:inkscape="http://www.inkscape.org/namespaces/inkscape"
   width="48"
   height="48"
   id="svg2"
   version="1.1"
   inkscape:version="0.91 r13725"
   sodipodi:docname="gnome-disks.svg"
   inkscape:export-filename="/home/afel/Pictures/evos-mockups/personal-app-icons/gnome-disks.png"
   inkscape:export-xdpi="360"
   inkscape:export-ydpi="360">
  <defs
     id="defs4">
    <linearGradient
       inkscape:collect="always"
       id="linearGradient4422">
      <stop
         style="stop-color:#ffffff;stop-opacity:0.14901961"
         offset="0"
         id="stop4424" />
      <stop
         style="stop-color:#177ed5;stop-opacity:0"
         offset="1"
         id="stop4426" />
    </linearGradient>
    <inkscape:perspective
       sodipodi:type="inkscape:persp3d"
       inkscape:vp_x="0 : 12 : 1"
       inkscape:vp_y="0 : 1000 : 0"
       inkscape:vp_z="24 : 12 : 1"
       inkscape:persp3d-origin="12 : 8 : 1"
       id="perspective3810" />
    <linearGradient
       inkscape:collect="always"
       xlink:href="#linearGradient4422"
       id="linearGradient4428"
       x1="60"
       y1="-68"
       x2="104"
       y2="-24"
       gradientUnits="userSpaceOnUse"
       gradientTransform="translate(-56,1072.3744)" />
  </defs>
  <sodipodi:namedview
     id="base"
     pagecolor="#ffffff"
     bordercolor="#666666"
     borderopacity="1.0"
     inkscape:pageopacity="0.0"
     inkscape:pageshadow="2"
     inkscape:zoom="5.6568542"
     inkscape:cx="49.094202"
     inkscape:cy="18.006513"
     inkscape:document-units="px"
     inkscape:current-layer="layer1"
     showgrid="true"
     inkscape:snap-grids="true"
     inkscape:object-paths="true"
     inkscape:snap-intersection-paths="true"
     inkscape:snap-smooth-nodes="true"
     inkscape:object-nodes="true"
     inkscape:snap-midpoints="true"
     inkscape:window-width="1680"
     inkscape:window-height="998"
     inkscape:window-x="0"
     inkscape:window-y="25"
     inkscape:window-maximized="1"
     inkscape:showpageshadow="false"
     borderlayer="true"
     inkscape:snap-bbox="false"
     inkscape:snap-nodes="true"
     inkscape:bbox-paths="false"
     inkscape:bbox-nodes="true"
     inkscape:snap-bbox-edge-midpoints="false"
     inkscape:snap-bbox-midpoints="false"
     inkscape:snap-global="true"
     showguides="true"
     inkscape:snap-center="false">
    <inkscape:grid
       type="xygrid"
       id="grid3808"
       empspacing="4"
       visible="true"
       enabled="true"
       snapvisiblegridlinesonly="true" />
  </sodipodi:namedview>
  <metadata
     id="metadata7">
    <rdf:RDF>
      <cc:Work
         rdf:about="">
        <dc:format>image/svg+xml</dc:format>
        <dc:type
           rdf:resource="http://purl.org/dc/dcmitype/StillImage" />
        <dc:title />
      </cc:Work>
    </rdf:RDF>
  </metadata>
  <g
     inkscape:label="Layer 1"
     inkscape:groupmode="layer"
     id="layer1"
     transform="translate(0,-1004.3622)">
    <g
       id="g4460">
      <rect
         ry="3"
         rx="3"
         y="1006.3622"
         x="12"
         height="44"
         width="32"
         id="rect4135"
         style="opacity:1;fill:#cccccc;fill-opacity:1;stroke:none;stroke-width:0.1;stroke-linecap:round;stroke-linejoin:round;stroke-miterlimit:4;stroke-dasharray:none;stroke-opacity:1" />
      <path
         id="path4137"
         d="m 38.662109,1010.3642 c -0.479265,0.041 -1.051593,0.3632 -1.658203,0.9941 L 28,1020.3622 c -7.731986,0 -14,6.268 -14,14 0,7.732 6.268014,14 14,14 7.731986,0 14,-6.268 14,-14 -5e-6,-2.64 -2,-7.2168 -2,-7.2168 0,0 0,-11.0001 0,-14.7832 0,-1.3574 -0.539114,-2.0672 -1.337891,-1.998 z M 28,1029.3622 a 5,5 0 0 1 5,5 5,5 0 0 1 -5,5 5,5 0 0 1 -5,-5 5,5 0 0 1 5,-5 z"
         style="opacity:1;fill:#999999;fill-opacity:1;stroke:none;stroke-width:0.1;stroke-linecap:round;stroke-linejoin:round;stroke-miterlimit:4;stroke-dasharray:none;stroke-opacity:1"
         inkscape:connector-curvature="0" />
      <circle
         r="0.5"
         cy="1008.8622"
         cx="14.5"
         id="path4159"
         style="opacity:1;fill:#666666;fill-opacity:1;stroke:none;stroke-width:0.1;stroke-linecap:round;stroke-linejoin:round;stroke-miterlimit:4;stroke-dasharray:none;stroke-opacity:1" />
      <circle
         r="0.5"
         cy="1008.8622"
         cx="41.5"
         id="path4159-5"
         style="opacity:1;fill:#666666;fill-opacity:1;stroke:none;stroke-width:0.1;stroke-linecap:round;stroke-linejoin:round;stroke-miterlimit:4;stroke-dasharray:none;stroke-opacity:1" />
      <circle
         r="0.5"
         cy="1047.8622"
         cx="41.5"
         id="path4159-5-8"
         style="opacity:1;fill:#666666;fill-opacity:1;stroke:none;stroke-width:0.1;stroke-linecap:round;stroke-linejoin:round;stroke-miterlimit:4;stroke-dasharray:none;stroke-opacity:1" />
      <circle
         r="0.5"
         cy="1047.8622"
         cx="14.5"
         id="path4159-5-9"
         style="opacity:1;fill:#666666;fill-opacity:1;stroke:none;stroke-width:0.1;stroke-linecap:round;stroke-linejoin:round;stroke-miterlimit:4;stroke-dasharray:none;stroke-opacity:1" />
      <path
         sodipodi:nodetypes="sccssss"
         inkscape:connector-curvature="0"
         id="rect4254"
         d="m 17,1010.3622 16,0 c -2,2 -6.015844,5.9888 -7,7 l -9,0 c -0.554,0 -1,-0.446 -1,-1 l 0,-5 c 0,-0.554 0.446,-1 1,-1 z"
         style="opacity:1;fill:#999999;fill-opacity:1;stroke:none;stroke-width:0.1;stroke-linecap:round;stroke-linejoin:round;stroke-miterlimit:4;stroke-dasharray:none;stroke-opacity:1" />
      <path
         sodipodi:nodetypes="sccccs"
         inkscape:connector-curvature="0"
         id="rect4254-3"
         d="m 17,1010.3622 16,0 -1,1 -15.007812,0 -0.992188,0 c 0,-0.554 0.446,-1 1,-1 z"
         style="opacity:1;fill:#000000;fill-opacity:0.2;stroke:none;stroke-width:0.1;stroke-linecap:round;stroke-linejoin:round;stroke-miterlimit:4;stroke-dasharray:none;stroke-opacity:1" />
      <path
         sodipodi:nodetypes="cscsc"
         inkscape:connector-curvature="0"
         id="rect4254-5"
         d="m 26,1017.3622 -9,0 c -0.554,0 -1,-0.446 -1,-1 4.781228,0 7,0 11,0 0,0 0,0 -1,1 z"
         style="opacity:1;fill:#ffffff;fill-opacity:0.2;stroke:none;stroke-width:0.1;stroke-linecap:round;stroke-linejoin:round;stroke-miterlimit:4;stroke-dasharray:none;stroke-opacity:1" />
      <path
         sodipodi:nodetypes="cscsccccc"
         id="path4137-0"
         d="m 28,1021.3622 c 4,-4 8.946687,-9 10,-9 1,0 2,1 2,2.9944 l 0,-2.9944 c 0,-1.3575 -0.539114,-2.0672 -1.337891,-1.9981 -0.479265,0.042 -1.051593,0.3633 -1.658203,0.9942 L 28,1020.3622 c -7.731986,0 -14,6.268 -14,14 0,-6 6,-13 14,-13 z"
         style="opacity:1;fill:#000000;fill-opacity:0.2;stroke:none;stroke-width:0.1;stroke-linecap:round;stroke-linejoin:round;stroke-miterlimit:4;stroke-dasharray:none;stroke-opacity:1"
         inkscape:connector-curvature="0" />
      <path
         sodipodi:nodetypes="csczc"
         id="path4137-2"
         d="m 14,1034.3622 c 0,7.732 6.268014,14 14,14 7.731986,0 14,-6.268 14,-14 0,6 -6,13 -14,13 -8,0 -14,-7 -14,-13 z"
         style="opacity:1;fill:#ffffff;fill-opacity:0.2;stroke:none;stroke-width:0.1;stroke-linecap:round;stroke-linejoin:round;stroke-miterlimit:4;stroke-dasharray:none;stroke-opacity:1"
         inkscape:connector-curvature="0" />
      <g
         transform="translate(13,1.7365625e-5)"
         id="g4419">
        <g
           id="g4379"
           transform="translate(-9,6.0000174)">
          <circle
             r="5"
             cy="1028.3622"
             cx="24"
             id="path4373"
             style="opacity:1;fill:#cccccc;fill-opacity:1;stroke:none;stroke-width:0.1;stroke-linecap:round;stroke-linejoin:round;stroke-miterlimit:4;stroke-dasharray:none;stroke-opacity:1" />
        </g>
        <g
           id="g4375"
           transform="translate(-9,1.7187631e-8)">
          <path
             sodipodi:nodetypes="cscsc"
             inkscape:connector-curvature="0"
             id="path4334"
             d="m 29,1034.3622 c 0,2 -2.238576,4 -5,4 -2.761424,0 -5,-2 -5,-4 0,2.7614 2.238576,5 5,5 2.761424,0 5,-2.2386 5,-5 z"
             style="opacity:1;fill:#000000;fill-opacity:0.1;stroke:none;stroke-width:0.1;stroke-linecap:round;stroke-linejoin:round;stroke-miterlimit:4;stroke-dasharray:none;stroke-opacity:1" />
          <path
             sodipodi:nodetypes="cscsc"
             inkscape:connector-curvature="0"
             id="path4334-4"
             d="m 29,1034.3622 c 0,-2 -2.238576,-4 -5,-4 -2.761424,0 -5,2 -5,4 0,-2.7614 2.238576,-5 5,-5 2.761424,0 5,2.2386 5,5 z"
             style="opacity:1;fill:#ffffff;fill-opacity:0.2;stroke:none;stroke-width:0.1;stroke-linecap:round;stroke-linejoin:round;stroke-miterlimit:4;stroke-dasharray:none;stroke-opacity:1" />
        </g>
      </g>
      <path
         sodipodi:nodetypes="csccscscsccscsc"
         inkscape:connector-curvature="0"
         id="rect4426-8"
         d="m 32.743829,1006.339 c -1.551061,-1.1436 -3.694255,-1.3312 -5.469846,-0.3061 -1.774402,1.0245 -2.677829,2.9734 -2.46477,4.8872 l -11.843577,6.8379 c -1.550911,-1.1414 -3.690354,-1.3335 -5.4647557,-0.3091 -1.775617,1.0252 -2.684661,2.9751 -2.469861,4.8901 3.103749,-1.7919 3.9698657,-2.292 4.9698697,-0.56 1.000007,1.7322 0.135817,2.2333 -2.9671627,4.0248 1.550948,1.1424 3.6922317,1.3302 5.4671467,0.3054 1.777088,-1.026 2.681101,-2.9793 2.46422,-4.8958 l 11.836852,-6.8341 c 1.551413,1.1461 3.694941,1.3399 5.47203,0.3139 1.774914,-1.0247 2.682902,-2.973 2.469104,-4.8874 -3.102979,1.7916 -3.969073,2.2894 -4.969113,0.5573 -1.000004,-1.732 -0.133886,-2.2321 2.969863,-4.0241 z"
         style="opacity:1;fill:#000000;fill-opacity:0.2;stroke:none;stroke-width:0.1;stroke-linecap:round;stroke-linejoin:round;stroke-miterlimit:4;stroke-dasharray:none;stroke-opacity:1" />
      <path
         sodipodi:nodetypes="csccscscsccscsc"
         inkscape:connector-curvature="0"
         id="rect4426"
         d="m 31.743828,1005.339 c -1.551061,-1.1436 -3.694255,-1.3312 -5.469846,-0.3061 -1.774402,1.0245 -2.677829,2.9734 -2.46477,4.8872 l -11.843577,6.8379 c -1.550911,-1.1414 -3.6903527,-1.3335 -5.4647547,-0.3091 -1.775617,1.0252 -2.684661,2.9751 -2.469861,4.8901 3.103749,-1.7919 3.969866,-2.292 4.96987,-0.56 1.0000057,1.7322 0.135816,2.2333 -2.967163,4.0248 1.550948,1.1424 3.692231,1.3302 5.4671457,0.3054 1.777088,-1.026 2.681101,-2.9793 2.46422,-4.8958 l 11.836852,-6.8341 c 1.551413,1.1461 3.694941,1.3399 5.47203,0.3139 1.774914,-1.0247 2.682902,-2.973 2.469104,-4.8874 -3.102979,1.7916 -3.969073,2.2894 -4.969113,0.5573 -1.000004,-1.732 -0.133886,-2.2321 2.969863,-4.0241 z"
         style="opacity:1;fill:#666666;fill-opacity:1;stroke:none;stroke-width:0.1;stroke-linecap:round;stroke-linejoin:round;stroke-miterlimit:4;stroke-dasharray:none;stroke-opacity:1" />
      <path
         sodipodi:nodetypes="csczc"
         inkscape:connector-curvature="0"
         id="rect4426-6"
         d="m 31.743828,1005.339 c -1.551061,-1.1436 -3.694255,-1.3312 -5.469846,-0.3061 -1.774402,1.0245 -2.677829,2.9734 -2.46477,4.8872 0.419935,-1.5672 0.983605,-2.8541 2.202617,-3.5579 1.219012,-0.7038 2.981482,-1.0232 5.731999,-1.0232 z"
         style="opacity:1;fill:#ffffff;fill-opacity:0.2;stroke:none;stroke-width:0.1;stroke-linecap:round;stroke-linejoin:round;stroke-miterlimit:4;stroke-dasharray:none;stroke-opacity:1" />
      <path
         sodipodi:nodetypes="csczc"
         inkscape:connector-curvature="0"
         id="rect4426-6-7"
         d="m 6.0337263,1024.8038 c 1.551061,1.1436 3.694255,1.3312 5.4698457,0.3061 1.774402,-1.0245 2.677829,-2.9734 2.46477,-4.8872 -0.419935,1.5672 -0.983605,2.8541 -2.202617,3.5579 -1.219012,0.7038 -2.9814817,1.0232 -5.7319987,1.0232 z"
         style="opacity:1;fill:#000000;fill-opacity:0.2;stroke:none;stroke-width:0.1;stroke-linecap:round;stroke-linejoin:round;stroke-miterlimit:4;stroke-dasharray:none;stroke-opacity:1" />
      <path
         inkscape:connector-curvature="0"
         id="rect4135-0"
         d="m 29.09375,1004.3842 c -0.95163,-0.062 -1.932517,0.1476 -2.820312,0.6601 -0.601829,0.3475 -1.09447,0.8074 -1.486329,1.3301 l -9.787109,0 c -1.662,0 -3,1.338 -3,3 l 0,7.377 -0.03516,0.019 c -1.550911,-1.1414 -3.690442,-1.3349 -5.464844,-0.3105 -1.775617,1.0252 -2.68355,2.9756 -2.46875,4.8906 0.43488,-0.2511 0.736299,-0.4116 1.089844,-0.6094 -0.113204,0.5255 -0.150591,1.0678 -0.089844,1.6094 2.122652,-1.2255 3.190443,-1.8228 3.978516,-1.5391 0.979039,1.7137 0.112614,2.2204 -2.976563,4.0039 0.443045,0.3264 0.93799,0.564 1.455078,0.7285 -0.16874,0.098 -0.270588,0.165 -0.455078,0.2715 1.408242,1.0373 3.301333,1.2768 4.966797,0.5469 l 0,21.0117 c 0,1.662 1.338,3 3,3 l 26,0 c 1.662,0 3,-1.338 3,-3 l 0,-38 c 0,-1.662 -1.338,-3 -3,-3 l -8.294922,0 c 0.01575,-0.01 0.0232,-0.014 0.03906,-0.023 -0.442932,-0.3266 -0.937922,-0.5639 -1.455079,-0.7285 0.168794,-0.098 0.270543,-0.165 0.455079,-0.2715 -0.775531,-0.5718 -1.698761,-0.9051 -2.650391,-0.9668 z"
         style="opacity:1;fill:url(#linearGradient4428);fill-opacity:1;stroke:none;stroke-width:0.1;stroke-linecap:round;stroke-linejoin:round;stroke-miterlimit:4;stroke-dasharray:none;stroke-opacity:1" />
    </g>
  </g>
</svg>
