<?xml version="1.0" encoding="UTF-8" standalone="no"?>
<!-- Created with Inkscape (http://www.inkscape.org/) -->

<svg
   xmlns:dc="http://purl.org/dc/elements/1.1/"
   xmlns:cc="http://creativecommons.org/ns#"
   xmlns:rdf="http://www.w3.org/1999/02/22-rdf-syntax-ns#"
   xmlns:svg="http://www.w3.org/2000/svg"
   xmlns="http://www.w3.org/2000/svg"
   xmlns:xlink="http://www.w3.org/1999/xlink"
   xmlns:sodipodi="http://sodipodi.sourceforge.net/DTD/sodipodi-0.dtd"
   xmlns:inkscape="http://www.inkscape.org/namespaces/inkscape"
   width="48"
   height="48"
   viewBox="0 0 48 48"
   id="svg2"
   version="1.1"
   inkscape:version="0.91 r13725"
   sodipodi:docname="goa-panel.svg"
   inkscape:export-filename="/home/poltertec/Downloads/testikel2.png"
   inkscape:export-xdpi="360"
   inkscape:export-ydpi="360">
  <defs
     id="defs4">
    <filter
       style="color-interpolation-filters:sRGB"
       inkscape:label="Drop Shadow"
       id="filter4630">
      <feFlood
         flood-opacity="1"
         flood-color="rgb(0,0,0)"
         result="flood"
         id="feFlood4632" />
      <feComposite
         in="flood"
         in2="SourceGraphic"
         operator="in"
         result="composite1"
         id="feComposite4634" />
      <feGaussianBlur
         in="composite1"
         stdDeviation="0.5"
         result="blur"
         id="feGaussianBlur4636" />
      <feOffset
         dx="0"
         dy="0.5"
         result="offset"
         id="feOffset4638" />
      <feComposite
         in="SourceGraphic"
         in2="offset"
         operator="over"
         result="composite2"
         id="feComposite4640" />
    </filter>
    <linearGradient
       inkscape:collect="always"
       xlink:href="#linearGradient4165"
       id="linearGradient4171-1"
       x1="7"
       y1="1011.3622"
       x2="41.000019"
       y2="1045.3622"
       gradientUnits="userSpaceOnUse"
       gradientTransform="matrix(0.95651664,0,0,0.9565206,1.043486,-959.64935)" />
    <linearGradient
       inkscape:collect="always"
       id="linearGradient4165">
      <stop
         style="stop-color:#ffffff;stop-opacity:0.15000001"
         offset="0"
         id="stop4167" />
      <stop
         style="stop-color:#177ed5;stop-opacity:0;"
         offset="1"
         id="stop4169" />
    </linearGradient>
  </defs>
  <sodipodi:namedview
     id="base"
     pagecolor="#000000"
     bordercolor="#666666"
     borderopacity="1.0"
     inkscape:pageopacity="0"
     inkscape:pageshadow="2"
     inkscape:zoom="8.0000005"
     inkscape:cx="21.639862"
     inkscape:cy="23.151409"
     inkscape:document-units="px"
     inkscape:current-layer="layer1"
     showgrid="true"
     units="px"
     inkscape:window-width="960"
     inkscape:window-height="688"
     inkscape:window-x="135"
     inkscape:window-y="0"
     inkscape:window-maximized="0"
     inkscape:showpageshadow="false"
     showguides="false">
    <inkscape:grid
       type="xygrid"
       id="grid4140" />
  </sodipodi:namedview>
  <metadata
     id="metadata7">
    <rdf:RDF>
      <cc:Work
         rdf:about="">
        <dc:format>image/svg+xml</dc:format>
        <dc:type
           rdf:resource="http://purl.org/dc/dcmitype/StillImage" />
        <dc:title />
      </cc:Work>
    </rdf:RDF>
  </metadata>
  <g
     inkscape:label="Laag 1"
     inkscape:groupmode="layer"
     id="layer1"
     transform="translate(0,-1004.3622)">
    <path
       style="fill:#1976d2;fill-opacity:1"
       id="path4197"
       d="m 36.871251,1024.9235 c -1.190001,-6.02 -6.50125,-10.5613 -12.87125,-10.5613 -5.0575,0 -9.441252,2.87 -11.637501,7.0613 C 7.10375,1021.9922 3,1026.446 3,1031.8622 c 0,5.8012 4.6987503,10.5 10.5,10.5 l 22.750001,0 c 4.829999,0 8.749999,-3.92 8.749999,-8.75 0,-4.6201 -3.59625,-8.365 -8.128749,-8.6887 z"
       inkscape:connector-curvature="0" />
    <path
       style="fill:#000000;fill-opacity:0.2"
       d="M 3.0234375 26.978516 C 3.0148888 27.152215 3 27.324172 3 27.5 C 3 33.3012 7.6987503 38 13.5 38 L 36.25 38 C 41.079999 38 45 34.08 45 29.25 C 45 29.07726 44.984525 28.908441 44.974609 28.738281 C 44.719629 33.340126 40.915205 37 36.25 37 L 13.5 37 C 7.8602465 37 3.2750547 32.555842 3.0234375 26.978516 z "
       transform="translate(0,1004.3622)"
       id="path4143" />
    <path
       style="fill:#ffffff;fill-opacity:0.2"
       d="M 24 10 C 18.9425 10 14.55953 12.869247 12.363281 17.060547 C 7.1045312 17.629247 3 22.0838 3 27.5 C 3 27.661495 3.0162324 27.818807 3.0234375 27.978516 C 3.2782238 22.80158 7.2752477 18.610785 12.363281 18.060547 C 14.55953 13.869247 18.9425 11 24 11 C 30.37 11 35.681093 15.540547 36.871094 21.560547 C 41.234128 21.872144 44.719324 25.357346 44.974609 29.738281 C 44.983616 29.575726 45 29.414794 45 29.25 C 45 24.6299 41.403593 20.884247 36.871094 20.560547 C 35.681093 14.540547 30.37 10 24 10 z "
       transform="translate(0,1004.3622)"
       id="path4148" />
    <path
       style="fill:url(#linearGradient4171-1);fill-opacity:1;stroke:none;stroke-width:2;stroke-linecap:round;stroke-linejoin:round;stroke-miterlimit:4;stroke-dasharray:none;stroke-opacity:1"
       d="M 24 10 C 18.9425 10 14.55953 12.869247 12.363281 17.060547 C 7.1045312 17.629247 3 22.0838 3 27.5 C 3 33.3012 7.6987503 38 13.5 38 L 36.25 38 C 41.079999 38 45 34.08 45 29.25 C 45 24.6299 41.403593 20.884247 36.871094 20.560547 C 35.681093 14.540547 30.37 10 24 10 z "
       transform="translate(0,1004.3622)"
       id="circle4163-3" />
  </g>
</svg>
