<?xml version="1.0" encoding="UTF-8" standalone="no"?>
<!-- Created with Inkscape (http://www.inkscape.org/) -->

<svg
   xmlns:dc="http://purl.org/dc/elements/1.1/"
   xmlns:cc="http://creativecommons.org/ns#"
   xmlns:rdf="http://www.w3.org/1999/02/22-rdf-syntax-ns#"
   xmlns:svg="http://www.w3.org/2000/svg"
   xmlns="http://www.w3.org/2000/svg"
   xmlns:xlink="http://www.w3.org/1999/xlink"
   xmlns:sodipodi="http://sodipodi.sourceforge.net/DTD/sodipodi-0.dtd"
   xmlns:inkscape="http://www.inkscape.org/namespaces/inkscape"
   width="48"
   height="48"
   viewBox="0 0 48 48.000001"
   id="svg2"
   version="1.1"
   inkscape:version="0.91 r13725"
   sodipodi:docname="google-chrome.svg"
   inkscape:export-filename="/home/poltertec/Downloads/testikel2.png"
   inkscape:export-xdpi="360"
   inkscape:export-ydpi="360">
  <defs
     id="defs4">
    <linearGradient
       id="linearGradient4182"
       inkscape:collect="always">
      <stop
         id="stop4184"
         offset="0"
         style="stop-color:#000000;stop-opacity:0.2" />
      <stop
         id="stop4186"
         offset="1"
         style="stop-color:#000000;stop-opacity:0" />
    </linearGradient>
    <linearGradient
       inkscape:collect="always"
       xlink:href="#linearGradient4165"
       id="linearGradient3378"
       gradientUnits="userSpaceOnUse"
       gradientTransform="matrix(0.91666666,0,0,0.91667248,2.0000031,85.69077)"
       x1="-3.3818183e-06"
       y1="1004.3625"
       x2="47.999996"
       y2="1052.3622" />
    <linearGradient
       inkscape:collect="always"
       id="linearGradient4165">
      <stop
         style="stop-color:#ffffff;stop-opacity:0.25"
         offset="0"
         id="stop4167" />
      <stop
         style="stop-color:#177ed5;stop-opacity:0;"
         offset="1"
         id="stop4169" />
    </linearGradient>
    <linearGradient
       inkscape:collect="always"
       xlink:href="#linearGradient4182"
       id="linearGradient4180"
       x1="30"
       y1="1018.3622"
       x2="41.563263"
       y2="1032.6326"
       gradientUnits="userSpaceOnUse" />
    <linearGradient
       inkscape:collect="always"
       xlink:href="#linearGradient4182"
       id="linearGradient4200"
       x1="29"
       y1="1039.3622"
       x2="25"
       y2="1038.3622"
       gradientUnits="userSpaceOnUse" />
    <linearGradient
       inkscape:collect="always"
       xlink:href="#linearGradient4182"
       id="linearGradient4208"
       x1="11"
       y1="1026.3622"
       x2="15"
       y2="1020.3622"
       gradientUnits="userSpaceOnUse" />
  </defs>
  <sodipodi:namedview
     id="base"
     pagecolor="#ffffff"
     bordercolor="#666666"
     borderopacity="1.0"
     inkscape:pageopacity="0"
     inkscape:pageshadow="2"
     inkscape:zoom="22.627416"
     inkscape:cx="38.396359"
     inkscape:cy="10.82629"
     inkscape:document-units="px"
     inkscape:current-layer="layer1"
     showgrid="true"
     units="px"
     inkscape:window-width="1093"
     inkscape:window-height="1000"
     inkscape:window-x="825"
     inkscape:window-y="0"
     inkscape:window-maximized="0"
     showguides="false">
    <inkscape:grid
       type="xygrid"
       id="grid4140" />
  </sodipodi:namedview>
  <metadata
     id="metadata7">
    <rdf:RDF>
      <cc:Work
         rdf:about="">
        <dc:format>image/svg+xml</dc:format>
        <dc:type
           rdf:resource="http://purl.org/dc/dcmitype/StillImage" />
        <dc:title />
      </cc:Work>
    </rdf:RDF>
  </metadata>
  <g
     inkscape:label="Laag 1"
     inkscape:groupmode="layer"
     id="layer1"
     transform="translate(0,-1004.3622)">
    <circle
       style="opacity:1;fill:#ffffff;fill-opacity:1;stroke:none;stroke-width:2;stroke-linecap:butt;stroke-linejoin:miter;stroke-miterlimit:4;stroke-dasharray:none;stroke-opacity:1"
       id="path4170"
       cx="24"
       cy="1028.3622"
       r="21" />
    <path
       style="opacity:1;fill:#fdd835;fill-opacity:1;stroke:none;stroke-width:2;stroke-linecap:butt;stroke-linejoin:miter;stroke-miterlimit:4;stroke-dasharray:none;stroke-opacity:1"
       d="M 24 14 L 32 30 L 23.027344 45.951172 A 22 22 0 0 0 24 46 A 22 22 0 0 0 46 24 A 22 22 0 0 0 43.595703 14 L 24 14 z "
       id="path4161"
       transform="translate(0,1004.3622)" />
    <path
       id="path4166"
       d="m 32.647935,1033.2381 -17.866756,-0.8827 -9.4940419,-15.6465 a 22,22 0 0 0 -0.5200722,0.8234 22,22 0 0 0 8.3703581,29.9657 22,22 0 0 0 9.892748,2.8132 l 9.617589,-17.0732 z"
       style="opacity:1;fill:#43a047;fill-opacity:1;stroke:none;stroke-width:2;stroke-linecap:butt;stroke-linejoin:miter;stroke-miterlimit:4;stroke-dasharray:none;stroke-opacity:1"
       inkscape:connector-curvature="0" />
    <path
       style="fill:url(#linearGradient4180);fill-rule:evenodd;stroke:none;stroke-width:1px;stroke-linecap:butt;stroke-linejoin:miter;stroke-opacity:1;fill-opacity:1"
       d="m 24,1018.3622 6,4 13.708038,-3.9853 z"
       id="path4172"
       inkscape:connector-curvature="0" />
    <path
       inkscape:connector-curvature="0"
       style="opacity:1;fill:#e53935;fill-opacity:1;stroke:none;stroke-width:2;stroke-linecap:butt;stroke-linejoin:miter;stroke-miterlimit:4;stroke-dasharray:none;stroke-opacity:1"
       d="m 15.429642,1033.4891 9.526264,-15.141 18.650973,0.018 c -0.147927,-0.289 -0.661608,-1.1996 -0.822179,-1.4818 -6.304697,-10.3866 -19.835695,-13.6956 -30.222241,-7.3908 -2.9717907,1.804 -5.4737595,4.2865 -7.3008111,7.2442 l 10.1681811,16.7512 z"
       id="path4168"
       sodipodi:nodetypes="cccccccc" />
    <path
       inkscape:connector-curvature="0"
       id="path4188"
       d="m 32.693394,1033.1674 -6.428759,3.2667 -3.250818,13.9005 z"
       style="fill:url(#linearGradient4200);fill-opacity:1;fill-rule:evenodd;stroke:none;stroke-width:1px;stroke-linecap:butt;stroke-linejoin:miter;stroke-opacity:1" />
    <path
       style="fill:url(#linearGradient4208);fill-opacity:1;fill-rule:evenodd;stroke:none;stroke-width:1px;stroke-linecap:butt;stroke-linejoin:miter;stroke-opacity:1"
       d="m 15.477609,1033.5754 0.304064,-7.2047 -10.522298,-9.6473 z"
       id="path4192"
       inkscape:connector-curvature="0" />
    <circle
       style="fill:#ffffff;fill-opacity:1;stroke:none;stroke-width:2;stroke-linecap:round;stroke-linejoin:round;stroke-miterlimit:4;stroke-dasharray:none;stroke-opacity:1"
       id="path4699"
       cx="24"
       cy="1028.3622"
       r="10" />
    <circle
       r="8"
       cy="1028.3622"
       cx="24"
       id="circle4159"
       style="fill:#0288d1;fill-opacity:1;stroke:none;stroke-width:2;stroke-linecap:round;stroke-linejoin:round;stroke-miterlimit:4;stroke-dasharray:none;stroke-opacity:1" />
    <ellipse
       style="fill:url(#linearGradient3378);fill-opacity:1;stroke:none;stroke-width:2;stroke-linecap:round;stroke-linejoin:round;stroke-miterlimit:4;stroke-dasharray:none;stroke-opacity:1"
       id="circle3374"
       cx="24"
       cy="1028.3621"
       rx="22"
       ry="22.000139" />
    <path
       style="fill:#ffffff;fill-opacity:0.2;stroke:none;stroke-width:2;stroke-linecap:round;stroke-linejoin:round;stroke-miterlimit:4;stroke-dasharray:none;stroke-opacity:1"
       d="m 24.000002,1006.2963 a 22.000002,22 0 0 0 -22.000002,22 22.000002,22 0 0 0 0.02148,0.5859 22.000002,22 0 0 1 21.978522,-21.5859 22.000002,22 0 0 1 21.978518,21.4141 22.000002,22 0 0 0 0.02148,-0.4141 22.000002,22 0 0 0 -22.000002,-22 z"
       id="circle4149"
       inkscape:connector-curvature="0" />
    <path
       id="path4154"
       d="M 24.000002,1050.3622 A 22.000002,22 0 0 1 2,1028.3622 a 22.000002,22 0 0 1 0.02148,-0.5859 22.000002,22 0 0 0 21.978522,21.5859 22.000002,22 0 0 0 21.978518,-21.414 22.000002,22 0 0 1 0.02148,0.414 22.000002,22 0 0 1 -22.000002,22 z"
       style="fill:#000000;fill-opacity:0.2;stroke:none;stroke-width:2;stroke-linecap:round;stroke-linejoin:round;stroke-miterlimit:4;stroke-dasharray:none;stroke-opacity:1"
       inkscape:connector-curvature="0" />
  </g>
</svg>
