<?xml version="1.0" encoding="UTF-8" standalone="no"?>
<!-- Created with Inkscape (http://www.inkscape.org/) -->

<svg
   xmlns:dc="http://purl.org/dc/elements/1.1/"
   xmlns:cc="http://creativecommons.org/ns#"
   xmlns:rdf="http://www.w3.org/1999/02/22-rdf-syntax-ns#"
   xmlns:svg="http://www.w3.org/2000/svg"
   xmlns="http://www.w3.org/2000/svg"
   xmlns:xlink="http://www.w3.org/1999/xlink"
   xmlns:sodipodi="http://sodipodi.sourceforge.net/DTD/sodipodi-0.dtd"
   xmlns:inkscape="http://www.inkscape.org/namespaces/inkscape"
   width="48"
   height="48"
   id="svg2"
   version="1.1"
   inkscape:version="0.48.5 r10040"
   sodipodi:docname="hydrogen.svg">
  <defs
     id="defs4">
    <linearGradient
       id="linearGradient3921">
      <stop
         style="stop-color:#ffffff;stop-opacity:0.14901961;"
         offset="0"
         id="stop3923" />
      <stop
         style="stop-color:#cccccc;stop-opacity:0;"
         offset="1"
         id="stop3925" />
    </linearGradient>
    <inkscape:perspective
       sodipodi:type="inkscape:persp3d"
       inkscape:vp_x="0 : 12 : 1"
       inkscape:vp_y="0 : 1000 : 0"
       inkscape:vp_z="24 : 12 : 1"
       inkscape:persp3d-origin="12 : 8 : 1"
       id="perspective3810" />
    <linearGradient
       inkscape:collect="always"
       xlink:href="#linearGradient3921"
       id="linearGradient3927"
       x1="-56"
       y1="998.36218"
       x2="-4"
       y2="1050.3622"
       gradientUnits="userSpaceOnUse"
       gradientTransform="translate(-4,-1.9999652)" />
    <linearGradient
       inkscape:collect="always"
       xlink:href="#linearGradient3914"
       id="linearGradient3011"
       gradientUnits="userSpaceOnUse"
       gradientTransform="translate(43.999999,-16.707918)"
       x1="315.875"
       y1="-244.04208"
       x2="347.93805"
       y2="-211.97903" />
    <linearGradient
       id="linearGradient3914">
      <stop
         style="stop-color:#ffffff;stop-opacity:0.14901961;"
         offset="0"
         id="stop3916" />
      <stop
         style="stop-color:#177ed5;stop-opacity:0;"
         offset="1"
         id="stop3918" />
    </linearGradient>
    <linearGradient
       y2="-211.97903"
       x2="347.93805"
       y1="-244.04208"
       x1="315.875"
       gradientTransform="translate(-308,1255.6543)"
       gradientUnits="userSpaceOnUse"
       id="linearGradient3037"
       xlink:href="#linearGradient3914"
       inkscape:collect="always" />
    <linearGradient
       inkscape:collect="always"
       xlink:href="#linearGradient3914"
       id="linearGradient3006"
       gradientUnits="userSpaceOnUse"
       gradientTransform="translate(-308,1255.6543)"
       x1="315.875"
       y1="-244.04208"
       x2="347.93805"
       y2="-211.97903" />
  </defs>
  <sodipodi:namedview
     id="base"
     pagecolor="#ffffff"
     bordercolor="#666666"
     borderopacity="1.0"
     inkscape:pageopacity="0.0"
     inkscape:pageshadow="2"
     inkscape:zoom="8"
     inkscape:cx="0.76740982"
     inkscape:cy="2.9727004"
     inkscape:document-units="px"
     inkscape:current-layer="layer1"
     showgrid="false"
     inkscape:snap-grids="true"
     inkscape:object-paths="true"
     inkscape:snap-intersection-paths="true"
     inkscape:snap-smooth-nodes="true"
     inkscape:object-nodes="true"
     inkscape:snap-midpoints="true"
     inkscape:window-width="1680"
     inkscape:window-height="1026"
     inkscape:window-x="0"
     inkscape:window-y="24"
     inkscape:window-maximized="1"
     inkscape:showpageshadow="false"
     borderlayer="true"
     inkscape:snap-bbox="true"
     inkscape:snap-nodes="false"
     inkscape:bbox-paths="true"
     inkscape:bbox-nodes="true"
     inkscape:snap-bbox-edge-midpoints="false"
     inkscape:snap-bbox-midpoints="false">
    <inkscape:grid
       type="xygrid"
       id="grid3808"
       empspacing="4"
       visible="true"
       enabled="true"
       snapvisiblegridlinesonly="true" />
  </sodipodi:namedview>
  <metadata
     id="metadata7">
    <rdf:RDF>
      <cc:Work
         rdf:about="">
        <dc:format>image/svg+xml</dc:format>
        <dc:type
           rdf:resource="http://purl.org/dc/dcmitype/StillImage" />
        <dc:title />
      </cc:Work>
    </rdf:RDF>
  </metadata>
  <g
     inkscape:label="Layer 1"
     inkscape:groupmode="layer"
     id="layer1"
     transform="translate(0,-1004.3622)">
    <g
       id="g3798">
      <g
         id="g3786">
        <rect
           style="fill:#cccccc;fill-opacity:1;stroke:none"
           id="rect2984"
           width="44"
           height="44"
           x="2"
           y="1006.3622"
           rx="3"
           ry="3" />
        <path
           inkscape:connector-curvature="0"
           id="rect3023"
           style="fill:#3f51b5;fill-opacity:1;stroke:none"
           d="m 11,1025.3622 8,0 0,6 -8,0 z m -5,-15 3,0 c 1,0 2,1 2,2 l 0,32 c 0,1 -1,2 -2,2 l -3,0 c -1.0072727,0 -2,-1.0029 -2,-2 l 0,-32 c 0,-1 1,-2 2,-2 z m 15,0 21,0 c 1.007274,0 2,1 2,2 l 0,32.2001 c 0,1 -1,1.7999 -2,1.7999 l -21,0 c -1,0 -2,-1 -2,-2 l 0,-32 c 0,-1.0001 1,-2 2,-2 z"
           sodipodi:nodetypes="cccccssssssssssssssssss" />
        <g
           style="font-size:24px;font-style:normal;font-variant:normal;font-weight:600;font-stretch:normal;line-height:125%;letter-spacing:0px;word-spacing:0px;fill:#e1f5fe;fill-opacity:1;stroke:none;font-family:FreeSans;-inkscape-font-specification:FreeSans Semi-Bold"
           id="text3001"
           transform="matrix(1.8386205,0,0,1.8415763,1.8856973,-887.54326)">
          <path
             d="m 21.82,1037.0742 c -1.2e-5,0.944 -0.208012,1.8 -0.624,2.568 -0.400011,0.768 -0.912011,1.416 -1.536,1.944 -0.62401,0.512 -1.264009,0.992 -1.92,1.44 -0.656008,0.432 -1.288007,0.912 -1.896,1.44 -0.876494,0.7381 -1.269564,1.5858 -0.413187,1.584 0.856376,0 4.815762,0.031 5.614062,0.031 0.7983,0 0.792691,0.6722 0.792691,1.4052 0,0.7718 0.05768,1.5635 -0.808316,1.5635 -0.865995,0 -8.824455,-0.011 -9.755444,-0.011 -0.613785,0 -0.877804,-0.4599 -0.877804,-1.075 0,-1.086 0.620105,-2.0117 0.985625,-2.634 0.630666,-1.0451 1.294372,-1.896 2.734375,-2.904 1.871994,-1.312 3.063992,-2.28 3.576,-2.904 0.511991,-0.64 0.767991,-1.432 0.768,-2.376 -9e-6,-0.848 -0.216009,-1.512 -0.648,-1.992 -0.416008,-0.496 -1.000007,-0.744 -1.752,-0.744 -0.768006,0 -1.368005,0.264 -1.8,0.792 -0.416004,0.528 -0.624002,1.4487 -0.624,1.9207 2e-6,0.472 -0.230735,0.8549 -0.636,0.8549 -0.405265,0 -1.560867,-0.016 -2,-0.016 -0.439133,0 -0.604,-0.376 -0.604,-0.6 -10e-7,-1.792 0.487999,-3.184 1.464,-4.176 0.991997,-1.008 2.367995,-1.512 4.128,-1.512 1.791992,0 3.20799,0.488 4.248,1.464 1.055988,0.976 1.583988,2.288 1.584,3.936"
             id="path3806"
             inkscape:connector-curvature="0"
             sodipodi:nodetypes="ccccczzszcscccccsczzzscscc"
             style="fill:#e1f5fe;fill-opacity:1" />
        </g>
        <path
           style="opacity:0.2;fill:#ffffff;fill-opacity:1;stroke:none"
           d="m 5,1006.3622 38,0 c 1.662,0 3,1.338 3,3 0,-1 -1.523074,-2 -3,-2 l -38,0 c -1.48697,0 -3,1 -3,2 0,-1.662 1.338,-3 3,-3 z"
           id="rect2984-3"
           inkscape:connector-curvature="0"
           sodipodi:nodetypes="sscsscs" />
        <path
           style="opacity:0.2;fill:#000000;fill-opacity:1;stroke:none"
           d="m 5,1050.3622 38,0 c 1.662,0 3,-1.338 3,-3 0,1 -1.523074,2 -3,2 l -38,0 c -1.48697,0 -3,-1 -3,-2 0,1.662 1.338,3 3,3 z"
           id="rect2984-3-2"
           inkscape:connector-curvature="0"
           sodipodi:nodetypes="sscsscs" />
        <path
           style="opacity:0.1;fill:#ffffff;fill-opacity:1;stroke:none"
           d="m 21,1010.3622 21,0 c 1,0 2,1 2,2 0,-0.5326 -1,-1 -2,-1 l -21,0 c -1,0 -2,0.4882 -2,1 0,-1 1,-2 2,-2 z"
           id="rect2984-3-9"
           inkscape:connector-curvature="0"
           sodipodi:nodetypes="sscsscs" />
        <path
           inkscape:connector-curvature="0"
           id="rect3023-3"
           style="opacity:0.1;fill:#ffffff;fill-opacity:1;stroke:none"
           d="m 6,1010.3622 3,0 c 1,0 2,1 2,2 0,-0.4844 -1,-1 -2,-1 -1.2091972,0 -2.1220887,0 -3,0 -1,0 -2,0.4139 -2,1 0,-1 1,-2 2,-2 z"
           sodipodi:nodetypes="sscsscs" />
        <path
           style="opacity:0.1;fill:#000000;fill-opacity:1;stroke:none"
           d="m 21,1046.3622 21,0 c 1,0 2,-1 2,-2 0,0.5326 -1,1 -2,1 l -21,0 c -1,0 -2,-0.4882 -2,-1 0,1 1,2 2,2 z"
           id="rect2984-3-9-6"
           inkscape:connector-curvature="0"
           sodipodi:nodetypes="sscsscs" />
        <path
           inkscape:connector-curvature="0"
           id="rect3023-3-5"
           style="opacity:0.1;fill:#000000;fill-opacity:1;stroke:none"
           d="m 6,1046.3622 3,0 c 1,0 2,-1 2,-2 0,0.4844 -1,1 -2,1 -1.2091972,0 -2.1220887,0 -3,0 -1,0 -2,-0.4139 -2,-1 0,1 1,2 2,2 z"
           sodipodi:nodetypes="sscsscs" />
      </g>
      <rect
         ry="3"
         rx="3"
         y="1006.3622"
         x="2"
         height="44"
         width="44"
         id="rect4064-0-3"
         style="fill:url(#linearGradient3006);fill-opacity:1;stroke:none" />
    </g>
  </g>
</svg>
