<?xml version="1.0" encoding="UTF-8" standalone="no"?>
<!-- Created with Inkscape (http://www.inkscape.org/) -->

<svg
   xmlns:dc="http://purl.org/dc/elements/1.1/"
   xmlns:cc="http://creativecommons.org/ns#"
   xmlns:rdf="http://www.w3.org/1999/02/22-rdf-syntax-ns#"
   xmlns:svg="http://www.w3.org/2000/svg"
   xmlns="http://www.w3.org/2000/svg"
   xmlns:xlink="http://www.w3.org/1999/xlink"
   xmlns:sodipodi="http://sodipodi.sourceforge.net/DTD/sodipodi-0.dtd"
   xmlns:inkscape="http://www.inkscape.org/namespaces/inkscape"
   width="48"
   height="48"
   viewBox="0 0 48 48"
   id="svg2"
   version="1.1"
   inkscape:version="0.91 r13725"
   sodipodi:docname="journal.svg"
   inkscape:export-filename="/home/poltertec/Downloads/journal.png"
   inkscape:export-xdpi="360"
   inkscape:export-ydpi="360">
  <defs
     id="defs4">
    <filter
       style="color-interpolation-filters:sRGB"
       inkscape:label="Drop Shadow"
       id="filter4630">
      <feFlood
         flood-opacity="1"
         flood-color="rgb(0,0,0)"
         result="flood"
         id="feFlood4632" />
      <feComposite
         in="flood"
         in2="SourceGraphic"
         operator="in"
         result="composite1"
         id="feComposite4634" />
      <feGaussianBlur
         in="composite1"
         stdDeviation="0.5"
         result="blur"
         id="feGaussianBlur4636" />
      <feOffset
         dx="0"
         dy="0.5"
         result="offset"
         id="feOffset4638" />
      <feComposite
         in="SourceGraphic"
         in2="offset"
         operator="over"
         result="composite2"
         id="feComposite4640" />
    </filter>
    <linearGradient
       inkscape:collect="always"
       id="linearGradient4165">
      <stop
         style="stop-color:#ffffff;stop-opacity:0.15000001"
         offset="0"
         id="stop4167" />
      <stop
         style="stop-color:#177ed5;stop-opacity:0;"
         offset="1"
         id="stop4169" />
    </linearGradient>
    <linearGradient
       inkscape:collect="always"
       xlink:href="#linearGradient4165"
       id="linearGradient4171-1"
       x1="7"
       y1="1011.3622"
       x2="41.000019"
       y2="1045.3622"
       gradientUnits="userSpaceOnUse"
       gradientTransform="matrix(0.92753624,0,0,0.95788454,2.223981,43.27886)" />
    <linearGradient
       inkscape:collect="always"
       xlink:href="#linearGradient4168"
       id="linearGradient4174"
       x1="36"
       y1="1016.3622"
       x2="45"
       y2="1025.3622"
       gradientUnits="userSpaceOnUse"
       gradientTransform="matrix(1.03125,0,0,0.99858154,-1.28125,1.42748)" />
    <linearGradient
       inkscape:collect="always"
       id="linearGradient4168">
      <stop
         style="stop-color:#000000;stop-opacity:0.2"
         offset="0"
         id="stop4170" />
      <stop
         style="stop-color:#000000;stop-opacity:0;"
         offset="1"
         id="stop4172" />
    </linearGradient>
  </defs>
  <sodipodi:namedview
     id="base"
     pagecolor="#000000"
     bordercolor="#666666"
     borderopacity="1.0"
     inkscape:pageopacity="0"
     inkscape:pageshadow="2"
     inkscape:zoom="8.40625"
     inkscape:cx="36.161879"
     inkscape:cy="20.420662"
     inkscape:document-units="px"
     inkscape:current-layer="layer1"
     showgrid="true"
     units="px"
     inkscape:window-width="758"
     inkscape:window-height="610"
     inkscape:window-x="535"
     inkscape:window-y="115"
     inkscape:window-maximized="0"
     inkscape:showpageshadow="false"
     showguides="true">
    <inkscape:grid
       type="xygrid"
       id="grid4140" />
  </sodipodi:namedview>
  <metadata
     id="metadata7">
    <rdf:RDF>
      <cc:Work
         rdf:about="">
        <dc:format>image/svg+xml</dc:format>
        <dc:type
           rdf:resource="http://purl.org/dc/dcmitype/StillImage" />
        <dc:title />
      </cc:Work>
    </rdf:RDF>
  </metadata>
  <g
     inkscape:label="Laag 1"
     inkscape:groupmode="layer"
     id="layer1"
     transform="translate(0,-1004.3622)">
    <path
       style="opacity:1;fill:#37474f;fill-opacity:1;stroke:none;stroke-width:1;stroke-linecap:butt;stroke-linejoin:round;stroke-miterlimit:14.5;stroke-dasharray:none;stroke-opacity:1"
       d="M 12.000001,1006.3622 C 9.784,1006.3622 8,1008.1466 8,1010.3624 l 0,35.9998 c 0,2.216 1.784,4 4.000001,4 l 23.999999,0 c 2.216,0 4,-1.784 4,-4 l 0,-27.9998 -12,-12.0002 -15.999999,0 z"
       id="rect3338"
       inkscape:connector-curvature="0" />
    <path
       style="fill:url(#linearGradient4174);fill-opacity:1;fill-rule:evenodd;stroke:none;stroke-width:1px;stroke-linecap:butt;stroke-linejoin:miter;stroke-opacity:1"
       d="M 30.271456,1016.639 40,1026.3622 l 0,-8 -8.892736,-1.867"
       id="path4166"
       inkscape:connector-curvature="0"
       sodipodi:nodetypes="cccc" />
    <path
       style="opacity:1;fill:#455a64;fill-opacity:1;stroke:none;stroke-width:1;stroke-linecap:butt;stroke-linejoin:round;stroke-miterlimit:14.5;stroke-dasharray:none;stroke-opacity:1"
       d="m 28,1006.3622 0,7.9998 c 0,2.216 1.783998,4.0002 4,4.0002 l 8,0 -12,-12 z"
       id="rect4156"
       inkscape:connector-curvature="0" />
    <rect
       style="opacity:1;fill:#00acc1;fill-opacity:1;stroke:none;stroke-width:2;stroke-linecap:butt;stroke-linejoin:miter;stroke-miterlimit:4;stroke-dasharray:none;stroke-opacity:1"
       id="rect4188"
       width="16"
       height="2"
       x="16"
       y="1024.3622" />
    <rect
       style="opacity:1;fill:#00acc1;fill-opacity:1;stroke:none;stroke-width:2;stroke-linecap:butt;stroke-linejoin:miter;stroke-miterlimit:4;stroke-dasharray:none;stroke-opacity:1"
       id="rect4190"
       width="16"
       height="2"
       x="16"
       y="1028.3622" />
    <rect
       style="opacity:1;fill:#00acc1;fill-opacity:1;stroke:none;stroke-width:2;stroke-linecap:butt;stroke-linejoin:miter;stroke-miterlimit:4;stroke-dasharray:none;stroke-opacity:1"
       id="rect4192"
       width="16"
       height="2"
       x="16"
       y="1032.3622" />
    <rect
       style="opacity:1;fill:#00acc1;fill-opacity:1;stroke:none;stroke-width:2;stroke-linecap:butt;stroke-linejoin:miter;stroke-miterlimit:4;stroke-dasharray:none;stroke-opacity:1"
       id="rect4194"
       width="10"
       height="2"
       x="16"
       y="1036.3622" />
    <path
       style="fill:url(#linearGradient4171-1);fill-opacity:1;stroke:none;stroke-width:2;stroke-linecap:round;stroke-linejoin:round;stroke-miterlimit:4;stroke-dasharray:none;stroke-opacity:1"
       d="m 12,1006.3622 c -0.831,0 -1.600078,0.2492 -2.238281,0.6796 -0.212735,0.144 -0.413,0.3076 -0.59375,0.4884 -0.18075,0.18 -0.340891,0.381 -0.484375,0.5938 -0.143484,0.2126 -0.270157,0.4366 -0.371094,0.6758 C 8.110206,1009.2794 8,1009.8076 8,1010.3622 l 0,4.0078 0,27.9258 0,4.0664 c 0,1.1078 0.444969,2.1092 1.167969,2.832 0.3615,0.3614 0.790656,0.6534 1.269531,0.8556 0.478875,0.2018 1.0085,0.3124 1.5625,0.3124 l 24,0 c 0.1138,0 0.22065,-0.026 0.332032,-0.036 a 7,7 0 0 0 0.667968,0.036 7,7 0 0 0 7,-7 7,7 0 0 0 -4,-6.3164 L 40,1018.3622 28.320312,1006.6826 28,1006.3622 l -2.339844,0 -2.371094,0 -11.289062,0 z"
       id="circle4163-3"
       inkscape:connector-curvature="0" />
    <path
       inkscape:connector-curvature="0"
       style="fill:#000000;fill-opacity:0.2;stroke:none"
       d="m 8,1045.3622 0,1 c 0,2.216 1.783999,4 4,4 l 24,0 c 2.216,0 4,-1.784 4,-4 l 0,-1 c 0,2.216 -1.784,4 -4,4 l -24,0 c -2.216001,0 -4,-1.784 -4,-4 z"
       id="rect3338-8" />
    <circle
       style="opacity:1;fill:#8bc34a;fill-opacity:1;stroke:none;stroke-width:2;stroke-linecap:butt;stroke-linejoin:miter;stroke-miterlimit:4;stroke-dasharray:none;stroke-opacity:1"
       id="path4169"
       cx="37"
       cy="1043.3622"
       r="7" />
    <rect
       style="opacity:1;fill:#558b2f;fill-opacity:1;stroke:none;stroke-width:2;stroke-linecap:butt;stroke-linejoin:miter;stroke-miterlimit:4;stroke-dasharray:none;stroke-opacity:1"
       id="rect4173"
       width="2"
       height="6"
       x="36"
       y="1040.3622" />
    <rect
       style="opacity:1;fill:#558b2f;fill-opacity:1;stroke:none;stroke-width:2;stroke-linecap:butt;stroke-linejoin:miter;stroke-miterlimit:4;stroke-dasharray:none;stroke-opacity:1"
       id="rect4175"
       width="6"
       height="2"
       x="34"
       y="1042.3622" />
    <path
       style="opacity:1;fill:#ffffff;fill-opacity:0.2;stroke:none;stroke-width:2;stroke-linecap:butt;stroke-linejoin:miter;stroke-miterlimit:4;stroke-dasharray:none;stroke-opacity:1"
       d="m 37,1036.3622 a 7,7 0 0 0 -7,7 7,7 0 0 0 0.0078,0.2774 7,7 0 0 1 6.992188,-6.7774 7,7 0 0 1 7,7 7,7 0 0 0 -0.0078,-0.3086 7,7 0 0 0 0.0078,-0.192 7,7 0 0 0 -7,-7 z"
       id="circle4180"
       inkscape:connector-curvature="0" />
    <path
       inkscape:connector-curvature="0"
       id="path4188"
       d="m 37,1050.3616 a 7,7 0 0 1 -7,-7 7,7 0 0 1 0.0078,-0.2774 7,7 0 0 0 6.992188,6.7774 7,7 0 0 0 7,-7 7,7 0 0 1 -0.0078,0.3086 7,7 0 0 1 0.0078,0.192 7,7 0 0 1 -7,7 z"
       style="opacity:1;fill:#000000;fill-opacity:0.2;stroke:none;stroke-width:2;stroke-linecap:butt;stroke-linejoin:miter;stroke-miterlimit:4;stroke-dasharray:none;stroke-opacity:1" />
    <path
       inkscape:connector-curvature="0"
       style="fill:#ffffff;fill-opacity:0.2;stroke:none"
       d="m 12,1006.3622 c -2.216001,0 -4,1.7842 -4,4 l 0,1 c 0,-2.2158 1.783999,-4 4,-4 l 16,0 0,-1 -16,0 z"
       id="path4170" />
  </g>
</svg>
