<?xml version="1.0" encoding="UTF-8" standalone="no"?>
<!-- Generator: Adobe Illustrator 18.1.1, SVG Export Plug-In . SVG Version: 6.00 Build 0)  -->

<svg
   xmlns:dc="http://purl.org/dc/elements/1.1/"
   xmlns:cc="http://creativecommons.org/ns#"
   xmlns:rdf="http://www.w3.org/1999/02/22-rdf-syntax-ns#"
   xmlns:svg="http://www.w3.org/2000/svg"
   xmlns="http://www.w3.org/2000/svg"
   xmlns:sodipodi="http://sodipodi.sourceforge.net/DTD/sodipodi-0.dtd"
   xmlns:inkscape="http://www.inkscape.org/namespaces/inkscape"
   version="1.1"
   id="svg2"
   sodipodi:docname="libreoffice-impress.svg"
   inkscape:version="0.91 r13725"
   x="0px"
   y="0px"
   viewBox="0 0 48 48"
   enable-background="new 0 0 48 48"
   xml:space="preserve"><metadata
     id="metadata50"><rdf:RDF><cc:Work
         rdf:about=""><dc:format>image/svg+xml</dc:format><dc:type
           rdf:resource="http://purl.org/dc/dcmitype/StillImage" /></cc:Work></rdf:RDF></metadata><defs
     id="defs48" /><sodipodi:namedview
     inkscape:cy="18.940122"
     inkscape:cx="-9.8733176"
     inkscape:zoom="6.9532165"
     showgrid="true"
     guidetolerance="10"
     gridtolerance="10"
     pagecolor="#ffffff"
     borderopacity="1"
     bordercolor="#666666"
     objecttolerance="10"
     id="namedview61"
     inkscape:current-layer="svg2"
     inkscape:window-maximized="1"
     inkscape:window-y="27"
     inkscape:window-x="0"
     inkscape:window-height="996"
     inkscape:window-width="1680"
     inkscape:pageshadow="2"
     inkscape:pageopacity="0"
     inkscape:snap-global="true"
     inkscape:snap-bbox-midpoints="true"
     inkscape:bbox-paths="true"
     inkscape:bbox-nodes="true"
     inkscape:snap-bbox="true"
     inkscape:snap-nodes="false"
     inkscape:snap-bbox-edge-midpoints="true"><inkscape:grid
       type="xygrid"
       id="grid3422" /></sodipodi:namedview><linearGradient
     id="rect4342_1_"
     gradientUnits="userSpaceOnUse"
     x1="-68.0188"
     y1="1.879302e-002"
     x2="-24.0188"
     y2="44.0188"
     gradientTransform="translate(70,2.0002)"><stop
       offset="0"
       style="stop-color:#FFFFFF;stop-opacity:0.149"
       id="stop43" /><stop
       offset="1"
       style="stop-color:#177ED5;stop-opacity:0"
       id="stop45" /></linearGradient><g
     id="g4229"><g
       inkscape:export-xdpi="360"
       inkscape:export-filename="/home/afel/Pictures/evos-mockups/personal-app-icons/libreoffice-writer.png"
       inkscape:export-ydpi="360"
       inkscape:version="0.91 r13725"
       sodipodi:docname="libreoffice-writer.svg"
       id="g4"><defs
         id="defs6"><inkscape:perspective
           inkscape:persp3d-origin="12 : 8 : 1"
           id="perspective3810"
           sodipodi:type="inkscape:persp3d"
           inkscape:vp_x="0 : 12 : 1"
           inkscape:vp_y="0 : 1000 : 0"
           inkscape:vp_z="24 : 12 : 1" /></defs><sodipodi:namedview
         inkscape:snap-bbox-edge-midpoints="false"
         inkscape:snap-grids="true"
         inkscape:snap-nodes="true"
         borderlayer="true"
         inkscape:snap-intersection-paths="true"
         inkscape:object-nodes="true"
         inkscape:object-paths="true"
         inkscape:snap-smooth-nodes="true"
         inkscape:document-units="px"
         inkscape:snap-bbox="true"
         inkscape:bbox-nodes="true"
         inkscape:bbox-paths="true"
         inkscape:snap-bbox-midpoints="false"
         inkscape:showpageshadow="false"
         inkscape:snap-global="true"
         inkscape:snap-midpoints="false"
         inkscape:pageopacity="0.0"
         inkscape:pageshadow="2"
         inkscape:window-width="1680"
         inkscape:window-height="996"
         inkscape:window-x="0"
         inkscape:window-y="27"
         inkscape:window-maximized="1"
         inkscape:current-layer="layer1"
         id="base"
         bordercolor="#666666"
         borderopacity="1.0"
         pagecolor="#ffffff"
         showgrid="true"
         inkscape:zoom="7.9999996"
         inkscape:cx="2.2469276"
         inkscape:cy="16.647939"><inkscape:grid
           snapvisiblegridlinesonly="true"
           visible="true"
           enabled="true"
           empspacing="4"
           id="grid3808"
           type="xygrid" /></sodipodi:namedview><g
         inkscape:label="Layer 1"
         inkscape:groupmode="layer"
         transform="translate(0,-1004.3622)"
         id="layer1"><g
           id="g4263"><path
             d="M9,1006.4c-1.7,0-3,1.3-3,3v38c0,1.7,1.3,3,3,3h30     c1.7,0,3-1.3,3-3v-18c0-3-1-4-3-6l-14-14c-2-2-3-3-6-3H9z"
             fill="#BF360C"
             inkscape:connector-curvature="0"
             id="path3371" /><g
             id="g4178"><g
               id="g4166"><path
                 d="M29,1007.4c0,1,1,2,2,3s2.1,2.1,3,3c2,2,2.9,2.9,4,4       c1,1,2,2,3,2s1-1,1-2v-8c0-1.7-1.3-3-3-3h-8C31,1006.4,29,1006.4,29,1007.4z"
                 fill="#BF360C"
                 inkscape:connector-curvature="0"
                 id="rect3362" /><path
                 d="       M29,1007.4c11,0,13,0,13,2c0-1.7-1.3-3-3-3h-8C31,1006.4,29,1006.4,29,1007.4z"
                 enable-background="new    "
                 fill="#FFFFFF"
                 opacity="0.2"
                 sodipodi:nodetypes="ccscc"
                 inkscape:connector-curvature="0"
                 id="rect3362-5" /></g><g
               id="g4170"><path
                 d="       M9,1006.4c-1.7,0-3,1.3-3,3c0-1,1.5-2,3-2c0,0,6.7,0,10,0c3,0,5,1,6,2c-2-2-3-3-6-3H9z"
                 enable-background="new    "
                 fill="#FFFFFF"
                 opacity="0.2"
                 sodipodi:nodetypes="scsscss"
                 inkscape:connector-curvature="0"
                 id="path3371-64" /><path
                 d="       M6,1047.4c0,1.7,1.3,3,3,3h30c1.7,0,3-1.3,3-3c0,1-1.5,2-3,2c-7.9-0.1-28.8,0-30,0C7.5,1049.4,6,1048.4,6,1047.4z"
                 enable-background="new    "
                 opacity="0.2"
                 sodipodi:nodetypes="csscssc"
                 inkscape:connector-curvature="0"
                 id="path3371-0" /><g
                 id="g4360"><path
                   d="M11.5,1009.4        c-1.4,0-2.5,1.2-2.5,2.6v32.8c0,1.4,1.1,2.6,2.5,2.6h25c1.4,0,2.5-1.2,2.5-2.6v-14.4c0-3-1-4-3-6l-12-12c-2-2-3-3-6-3H11.5z"
                   fill="#D9D9D9"
                   sodipodi:nodetypes="sssssssscss"
                   inkscape:connector-curvature="0"
                   id="path3371-6" /><path
                   d="        M11.5,1009.4c-1.4,0-2.5,1.2-2.5,2.6c0-1,1.2-1.6,2.5-1.6c0.5,0,3.4,0,6.5,0c3,0,4.5,0.5,6,2c-2-2-3-3-6-3H11.5z"
                   enable-background="new    "
                   opacity="0.1"
                   sodipodi:nodetypes="scsscss"
                   inkscape:connector-curvature="0"
                   id="path3371-6-5" /><path
                   d="        M9,1044.8c0,1.4,1.1,2.6,2.5,2.6h25c1.4,0,2.5-1.2,2.5-2.6c0,1.2-1.3,1.6-2.5,1.6c-6.6,0-24,0-25,0        C10.3,1046.4,9,1045.9,9,1044.8z"
                   enable-background="new    "
                   fill="#FFFFFF"
                   opacity="0.2"
                   sodipodi:nodetypes="csscssc"
                   inkscape:connector-curvature="0"
                   id="path3371-6-6" /></g></g></g></g></g></g><path
       style="fill:#d9d9d9"
       d="m 12.027668,22.626373 23.944665,0 c 0.205533,0 0.411067,0.208791 0.411067,0.417583 l 0,16.912087 c 0,0.208791 -0.205534,0.417582 -0.411067,0.417582 l -23.944665,0 c -0.205533,0 -0.411067,-0.208791 -0.411067,-0.417582 l 0,-17.016483 c 0,-0.208791 0.205534,-0.313187 0.411067,-0.313187 z"
       inkscape:connector-curvature="0"
       id="rect9904" /><rect
       style="fill:#757575"
       height="1"
       width="6"
       y="30"
       x="15.968379"
       id="rect9910" /><circle
       r="0.5"
       style="fill:#757575"
       cy="30.5"
       cx="14.5"
       id="path9916" /><rect
       style="fill:#757575"
       height="1.043956"
       width="20"
       y="24.956043"
       x="14"
       id="rect9922" /><rect
       style="fill:#757575"
       height="9"
       width="11"
       y="30"
       x="24"
       id="rect9926" /><rect
       style="fill:#d9d9d9"
       height="7.07967"
       width="9"
       y="30.92033"
       x="25"
       id="rect9930" /><rect
       style="fill:#757575"
       height="1.043956"
       width="11.948616"
       y="26.956043"
       x="18.051384"
       id="rect9948" /><rect
       style="fill:#757575"
       height="1"
       width="6"
       y="32"
       x="15.968379"
       id="rect10156" /><circle
       r="0.5"
       style="fill:#757575"
       cy="32.5"
       cx="14.5"
       id="path10158" /><rect
       style="fill:#757575"
       height="1"
       width="6"
       y="34"
       x="16"
       id="rect10162" /><circle
       r="0.5"
       style="fill:#757575"
       cy="34.5"
       cx="14.5"
       id="path10164" /><rect
       style="fill:#757575"
       height="1"
       width="6"
       y="36"
       x="16"
       id="rect10168" /><circle
       r="0.5"
       style="fill:#757575"
       cy="36.5"
       cx="14.5"
       id="path10170" /><path
       style="fill:none;stroke:#424242;stroke-width:0.99999994;stroke-linecap:round;stroke-linejoin:round;stroke-miterlimit:4;stroke-dasharray:none"
       d="m 26.005376,36.455453 2.301375,-2.428982 1.619487,1.821736 3.068499,-3.383225"
       inkscape:connector-curvature="0"
       id="path9945" /><path
       inkscape:connector-curvature="0"
       style="fill:url(#rect4342_1_)"
       d="m 9,2 30,0 c 1.7,0 3,1.3 3,3 l 0,38 c 0,1.7 -1.3,3 -3,3 L 9,46 C 7.3,46 6,44.7 6,43 L 6,5 C 6,3.3 7.3,2 9,2 Z"
       id="rect4342" /><rect
       ry="0.99999994"
       rx="0.99999994"
       y="23.5"
       x="11.5"
       height="17"
       width="25"
       id="rect4209"
       style="opacity:1;fill:none;fill-opacity:1;stroke:#808080;stroke-width:0.99999994;stroke-linecap:round;stroke-linejoin:round;stroke-miterlimit:4;stroke-dasharray:none;stroke-opacity:1" /><rect
       style="fill:#757575"
       height="1"
       width="6"
       y="38"
       x="16"
       id="rect10168-3" /><circle
       r="0.5"
       style="fill:#757575"
       cy="38.5"
       cx="14.5"
       id="path10170-4" /></g></svg>