<?xml version="1.0" encoding="UTF-8" standalone="no"?>
<!-- Created with Inkscape (http://www.inkscape.org/) -->

<svg
   xmlns:dc="http://purl.org/dc/elements/1.1/"
   xmlns:cc="http://creativecommons.org/ns#"
   xmlns:rdf="http://www.w3.org/1999/02/22-rdf-syntax-ns#"
   xmlns:svg="http://www.w3.org/2000/svg"
   xmlns="http://www.w3.org/2000/svg"
   xmlns:xlink="http://www.w3.org/1999/xlink"
   xmlns:sodipodi="http://sodipodi.sourceforge.net/DTD/sodipodi-0.dtd"
   xmlns:inkscape="http://www.inkscape.org/namespaces/inkscape"
   width="48"
   height="48"
   viewBox="0 0 48 48"
   id="svg2"
   version="1.1"
   inkscape:version="0.91 r13725"
   sodipodi:docname="libreoffice-calc.svg"
   inkscape:export-filename="/home/poltertec/Downloads/journal.png"
   inkscape:export-xdpi="360"
   inkscape:export-ydpi="360">
  <defs
     id="defs4">
    <filter
       style="color-interpolation-filters:sRGB"
       inkscape:label="Drop Shadow"
       id="filter4630">
      <feFlood
         flood-opacity="1"
         flood-color="rgb(0,0,0)"
         result="flood"
         id="feFlood4632" />
      <feComposite
         in="flood"
         in2="SourceGraphic"
         operator="in"
         result="composite1"
         id="feComposite4634" />
      <feGaussianBlur
         in="composite1"
         stdDeviation="0.5"
         result="blur"
         id="feGaussianBlur4636" />
      <feOffset
         dx="0"
         dy="0.5"
         result="offset"
         id="feOffset4638" />
      <feComposite
         in="SourceGraphic"
         in2="offset"
         operator="over"
         result="composite2"
         id="feComposite4640" />
    </filter>
    <linearGradient
       inkscape:collect="always"
       id="linearGradient4165">
      <stop
         style="stop-color:#ffffff;stop-opacity:0.15000001"
         offset="0"
         id="stop4167" />
      <stop
         style="stop-color:#177ed5;stop-opacity:0;"
         offset="1"
         id="stop4169" />
    </linearGradient>
    <linearGradient
       inkscape:collect="always"
       xlink:href="#linearGradient4165"
       id="linearGradient4171-1"
       x1="7"
       y1="1011.3622"
       x2="41.000019"
       y2="1045.3622"
       gradientUnits="userSpaceOnUse"
       gradientTransform="matrix(0.92753624,0,0,0.95788454,2.223981,-961.08337)" />
  </defs>
  <sodipodi:namedview
     id="base"
     pagecolor="#000000"
     bordercolor="#666666"
     borderopacity="1.0"
     inkscape:pageopacity="0"
     inkscape:pageshadow="2"
     inkscape:zoom="2.8284271"
     inkscape:cx="-12.278027"
     inkscape:cy="-34.337281"
     inkscape:document-units="px"
     inkscape:current-layer="layer1"
     showgrid="true"
     units="px"
     inkscape:window-width="959"
     inkscape:window-height="1011"
     inkscape:window-x="939"
     inkscape:window-y="0"
     inkscape:window-maximized="0"
     inkscape:showpageshadow="false"
     showguides="true">
    <inkscape:grid
       type="xygrid"
       id="grid4140" />
  </sodipodi:namedview>
  <metadata
     id="metadata7">
    <rdf:RDF>
      <cc:Work
         rdf:about="">
        <dc:format>image/svg+xml</dc:format>
        <dc:type
           rdf:resource="http://purl.org/dc/dcmitype/StillImage" />
        <dc:title />
      </cc:Work>
    </rdf:RDF>
  </metadata>
  <g
     inkscape:label="Laag 1"
     inkscape:groupmode="layer"
     id="layer1"
     transform="translate(0,-1004.3622)">
    <path
       style="opacity:1;fill:#43a047;fill-opacity:1;stroke:none;stroke-width:1;stroke-linecap:butt;stroke-linejoin:round;stroke-miterlimit:14.5;stroke-dasharray:none;stroke-opacity:1"
       d="M 12 2 C 9.783999 2 8 3.7842 8 6 L 8 42 C 8 44.216 9.783999 46 12 46 L 36 46 C 38.216 46 40 44.216 40 42 L 40 20.824219 L 40 20.744141 C 39.997204 20.744017 39.994976 20.742331 39.992188 20.742188 C 39.969718 20.194636 39.731957 19.708417 39.357422 19.361328 L 39.359375 19.359375 L 22.617188 2.6171875 C 22.255308 2.2394494 21.749898 2.0021904 21.183594 2 L 21.175781 2 L 12 2 z "
       transform="translate(0,1004.3622)"
       id="rect3338" />
    <path
       style="opacity:1;fill:#43a047;fill-opacity:1;stroke:none;stroke-width:1;stroke-linecap:butt;stroke-linejoin:round;stroke-miterlimit:14.5;stroke-dasharray:none;stroke-opacity:1"
       d="M 30.384766 2 A 1 1 0 0 0 29.400391 3 A 1 1 0 0 0 29.607422 3.6074219 L 38.275391 12.273438 A 1 1 0 0 0 39 12.585938 A 1 1 0 0 0 39.986328 11.755859 L 39.986328 6 C 39.986328 3.784 38.202328 2 35.986328 2 L 30.384766 2 z "
       transform="translate(0,1004.3622)"
       id="rect4156" />
    <path
       style="fill:url(#linearGradient4171-1);fill-opacity:1;stroke:none;stroke-width:2;stroke-linecap:round;stroke-linejoin:round;stroke-miterlimit:4;stroke-dasharray:none;stroke-opacity:1"
       d="M 12 2 C 11.749103 2 11.505437 2.0292656 11.267578 2.0722656 C 11.267578 2.0722656 11.265625 2.0722656 11.265625 2.0722656 C 11.264368 2.0725072 11.262974 2.0720207 11.261719 2.0722656 C 11.195415 2.0852041 11.131582 2.1034379 11.066406 2.1191406 C 10.895102 2.1601406 10.728244 2.2111375 10.566406 2.2734375 C 10.500346 2.2994375 10.433481 2.3235625 10.369141 2.3515625 C 10.368615 2.3517969 10.367713 2.3513279 10.367188 2.3515625 C 10.156301 2.4455625 9.95122 2.5519875 9.7617188 2.6796875 C 9.76099 2.6801784 9.7604941 2.6811493 9.7597656 2.6816406 C 9.5864754 2.7986274 9.4317479 2.9380041 9.2792969 3.0800781 C 9.1629577 3.1940494 9.0520893 3.3138022 8.9472656 3.4394531 C 8.9454917 3.4415795 8.9431764 3.4431824 8.9414062 3.4453125 C 8.9363763 3.4553125 8.9307863 3.4558906 8.9257812 3.4628906 C 8.8892842 3.5078906 8.8541742 3.5538562 8.8164062 3.5976562 C 8.7708033 3.6506562 8.7228352 3.7015656 8.6835938 3.7597656 C 8.6448634 3.8171248 8.6138818 3.8795834 8.5820312 3.9414062 C 8.5694592 3.965809 8.5559063 3.9895028 8.5429688 4.0136719 C 8.4627281 4.1534738 8.3756827 4.289578 8.3125 4.4394531 C 8.2120441 4.6791531 8.1326661 4.9289531 8.0800781 5.1894531 C 8.0267229 5.4508726 8 5.7223683 8 6 L 8 10.007812 L 8 37.933594 L 8 42 C 8 42.554 8.1106251 43.081672 8.3125 43.560547 C 8.7160259 44.517766 9.4804947 45.283573 10.4375 45.6875 C 10.916799 45.8898 11.445385 46 12 46 L 36 46 C 36.1138 46 36.220649 45.974844 36.332031 45.964844 A 7 7 0 0 0 36.347656 45.964844 C 36.91313 45.915925 37.442959 45.750626 37.916016 45.494141 C 37.921622 45.49107 37.928004 45.489425 37.933594 45.486328 C 37.938511 45.483631 37.942361 45.479279 37.947266 45.476562 C 38.101041 45.391394 38.250216 45.297149 38.390625 45.193359 C 38.409575 45.179359 38.426623 45.163438 38.445312 45.148438 C 38.616276 45.017337 38.77657 44.873397 38.923828 44.716797 C 38.927294 44.713055 38.930235 44.708912 38.933594 44.705078 C 38.960589 44.675796 38.983648 44.643366 39.009766 44.613281 C 39.010971 44.611909 39.012467 44.610748 39.013672 44.609375 C 39.140075 44.465252 39.260722 44.315857 39.365234 44.154297 C 39.407464 44.088297 39.440144 44.015866 39.478516 43.947266 C 39.484235 43.937138 39.48843 43.926148 39.494141 43.916016 C 39.570531 43.780487 39.647793 43.645505 39.707031 43.5 C 39.707262 43.499428 39.706801 43.498619 39.707031 43.498047 C 39.748141 43.395947 39.771948 43.285887 39.804688 43.179688 C 39.845597 43.048088 39.894638 42.920503 39.921875 42.783203 C 39.971785 42.530003 40 42.2683 40 42 L 40 32.683594 L 40 20.824219 L 40 20.744141 C 39.997204 20.744017 39.994976 20.742331 39.992188 20.742188 C 39.969718 20.194636 39.731957 19.708417 39.357422 19.361328 L 39.359375 19.359375 L 22.617188 2.6171875 C 22.255308 2.2394494 21.749898 2.0021904 21.183594 2 L 21.175781 2 L 12 2 z M 30.384766 2 A 1 1 0 0 0 29.400391 3 A 1 1 0 0 0 29.607422 3.6074219 L 38.275391 12.273438 A 1 1 0 0 0 39 12.585938 A 1 1 0 0 0 39.986328 11.755859 L 39.986328 6 C 39.986328 3.784 38.202328 2 35.986328 2 L 30.384766 2 z "
       transform="translate(0,1004.3622)"
       id="circle4163-3" />
    <path
       inkscape:connector-curvature="0"
       style="fill:#000000;fill-opacity:0.2;stroke:none"
       d="m 8,1045.3622 0,1 c 0,2.216 1.783999,4 4,4 l 24,0 c 2.216,0 4,-1.784 4,-4 l 0,-1 c 0,2.216 -1.784,4 -4,4 l -24,0 c -2.216001,0 -4,-1.784 -4,-4 z"
       id="rect3338-8" />
    <path
       style="opacity:1;fill:#ffffff;fill-opacity:0.2;stroke:none;stroke-width:1;stroke-linecap:butt;stroke-linejoin:round;stroke-miterlimit:14.5;stroke-dasharray:none;stroke-opacity:1"
       d="M 12 2 C 9.783999 2 8 3.7842 8 6 L 8 7 C 8 4.7842 9.783999 3 12 3 L 17 3 L 22 3 L 23 3 L 22.617188 2.6171875 C 22.255308 2.2394494 21.749898 2.0021904 21.183594 2 L 21.175781 2 L 12 2 z "
       transform="translate(0,1004.3622)"
       id="path4370" />
    <path
       style="opacity:1;fill:#ffffff;fill-opacity:0.2;stroke:none;stroke-width:1;stroke-linecap:butt;stroke-linejoin:round;stroke-miterlimit:14.5;stroke-dasharray:none;stroke-opacity:1"
       d="M 30.384766 2 A 1 1 0 0 0 29.400391 3 A 1 1 0 0 0 29.535156 3.5 A 1 1 0 0 1 30.384766 3 L 35.986328 3 C 38.202328 3 39.986328 4.784 39.986328 7 L 39.986328 6 C 39.986328 3.784 38.202328 2 35.986328 2 L 30.384766 2 z "
       transform="translate(0,1004.3622)"
       id="path4193" />
    <path
       id="path4172"
       d="m 18,1029.3622 0,2 0,4 0,2 0,4 0,2 12,0 2,0 0,-2 0,-4 0,-2 0,-4 0,-2 -2,0 -10,0 -2,0 z m 2,2 4,0 0,4 -4,0 0,-4 z m 6,0 4,0 0,4 -4,0 0,-4 z m -6,6 4,0 0,4 -4,0 0,-4 z m 6,0 4,0 0,4 -4,0 0,-4 z"
       style="opacity:1;fill:#000000;fill-opacity:0.2;stroke:none;stroke-width:1.66600001;stroke-linecap:round;stroke-linejoin:round;stroke-miterlimit:4;stroke-dasharray:none;stroke-opacity:1"
       inkscape:connector-curvature="0" />
    <path
       style="opacity:1;fill:#f5f5f5;fill-opacity:1;stroke:none;stroke-width:1.66600001;stroke-linecap:round;stroke-linejoin:round;stroke-miterlimit:4;stroke-dasharray:none;stroke-opacity:1"
       d="m 17,1028.3622 0,2 0,4 0,2 0,4 0,2 12,0 2,0 0,-2 0,-4 0,-2 0,-4 0,-2 -2,0 -10,0 -2,0 z m 2,2 4,0 0,4 -4,0 0,-4 z m 6,0 4,0 0,4 -4,0 0,-4 z m -6,6 4,0 0,4 -4,0 0,-4 z m 6,0 4,0 0,4 -4,0 0,-4 z"
       id="rect4159"
       inkscape:connector-curvature="0" />
  </g>
</svg>
