<?xml version="1.0" encoding="utf-8"?>
<!-- Generator: Adobe Illustrator 18.1.1, SVG Export Plug-In . SVG Version: 6.00 Build 0)  -->
<svg version="1.1"
	 id="svg2" xmlns:dc="http://purl.org/dc/elements/1.1/" xmlns:cc="http://creativecommons.org/ns#" xmlns:rdf="http://www.w3.org/1999/02/22-rdf-syntax-ns#" xmlns:svg="http://www.w3.org/2000/svg" xmlns:sodipodi="http://sodipodi.sourceforge.net/DTD/sodipodi-0.dtd" xmlns:inkscape="http://www.inkscape.org/namespaces/inkscape" sodipodi:docname="libreoffice-impress.svg" inkscape:version="0.48.4 r9939"
	 xmlns="http://www.w3.org/2000/svg" xmlns:xlink="http://www.w3.org/1999/xlink" x="0px" y="0px" viewBox="0 0 48 48"
	 enable-background="new 0 0 48 48" xml:space="preserve">
<sodipodi:namedview  inkscape:cy="28.402254" inkscape:cx="16.216455" inkscape:zoom="13.906433" showgrid="true" guidetolerance="10" gridtolerance="10" pagecolor="#ffffff" borderopacity="1" bordercolor="#666666" objecttolerance="10" id="namedview61" inkscape:current-layer="g21475" inkscape:window-maximized="1" inkscape:window-y="30" inkscape:window-x="0" inkscape:window-height="745" inkscape:window-width="1280" inkscape:pageshadow="2" inkscape:pageopacity="0" inkscape:snap-global="true" inkscape:snap-bbox-midpoints="true" inkscape:bbox-paths="true" inkscape:bbox-nodes="true" inkscape:snap-bbox="true" inkscape:snap-nodes="false" inkscape:snap-bbox-edge-midpoints="true">
	<inkscape:grid  type="xygrid" id="grid3422"></inkscape:grid>
</sodipodi:namedview>
<g id="g4" sodipodi:docname="libreoffice-writer.svg" inkscape:version="0.91 r13725" inkscape:export-ydpi="360" inkscape:export-filename="/home/afel/Pictures/evos-mockups/personal-app-icons/libreoffice-writer.png" inkscape:export-xdpi="360">
	<defs>
		
		
			<inkscape:perspective  inkscape:vp_z="24 : 12 : 1" inkscape:vp_y="0 : 1000 : 0" inkscape:vp_x="0 : 12 : 1" sodipodi:type="inkscape:persp3d" id="perspective3810" inkscape:persp3d-origin="12 : 8 : 1">
			</inkscape:perspective>
	</defs>
	
		<sodipodi:namedview  inkscape:cy="16.647939" inkscape:cx="2.2469276" inkscape:zoom="7.9999996" showgrid="true" pagecolor="#ffffff" borderopacity="1.0" bordercolor="#666666" id="base" inkscape:current-layer="layer1" inkscape:window-maximized="1" inkscape:window-y="27" inkscape:window-x="0" inkscape:window-height="996" inkscape:window-width="1680" inkscape:pageshadow="2" inkscape:pageopacity="0.0" inkscape:snap-midpoints="false" inkscape:snap-global="true" inkscape:showpageshadow="false" inkscape:snap-bbox-midpoints="false" inkscape:bbox-paths="true" inkscape:bbox-nodes="true" inkscape:snap-bbox="true" inkscape:document-units="px" inkscape:snap-smooth-nodes="true" inkscape:object-paths="true" inkscape:object-nodes="true" inkscape:snap-intersection-paths="true" borderlayer="true" inkscape:snap-nodes="true" inkscape:snap-grids="true" inkscape:snap-bbox-edge-midpoints="false">
		<inkscape:grid  type="xygrid" id="grid3808" empspacing="4" enabled="true" visible="true" snapvisiblegridlinesonly="true">
			</inkscape:grid>
	</sodipodi:namedview>
	<g id="layer1" transform="translate(0,-1004.3622)" inkscape:groupmode="layer" inkscape:label="Layer 1">
		<g id="g4263">
			<path id="path3371" inkscape:connector-curvature="0" fill="#BF360C" d="M9,1006.4c-1.7,0-3,1.3-3,3v38c0,1.7,1.3,3,3,3h30
				c1.7,0,3-1.3,3-3v-18c0-3-1-4-3-6l-14-14c-2-2-3-3-6-3H9z"/>
			<g id="g4178">
				<g id="g4166">
					<path id="rect3362" inkscape:connector-curvature="0" fill="#BF360C" d="M29,1007.4c0,1,1,2,2,3s2.1,2.1,3,3c2,2,2.9,2.9,4,4
						c1,1,2,2,3,2s1-1,1-2v-8c0-1.7-1.3-3-3-3h-8C31,1006.4,29,1006.4,29,1007.4z"/>
					
						<path id="rect3362-5" inkscape:connector-curvature="0" sodipodi:nodetypes="ccscc" opacity="0.2" fill="#FFFFFF" enable-background="new    " d="
						M29,1007.4c11,0,13,0,13,2c0-1.7-1.3-3-3-3h-8C31,1006.4,29,1006.4,29,1007.4z"/>
				</g>
				<g id="g4170">
					
						<path id="path3371-64" inkscape:connector-curvature="0" sodipodi:nodetypes="scsscss" opacity="0.2" fill="#FFFFFF" enable-background="new    " d="
						M9,1006.4c-1.7,0-3,1.3-3,3c0-1,1.5-2,3-2c0,0,6.7,0,10,0c3,0,5,1,6,2c-2-2-3-3-6-3H9z"/>
					
						<path id="path3371-0" inkscape:connector-curvature="0" sodipodi:nodetypes="csscssc" opacity="0.2" enable-background="new    " d="
						M6,1047.4c0,1.7,1.3,3,3,3h30c1.7,0,3-1.3,3-3c0,1-1.5,2-3,2c-7.9-0.1-28.8,0-30,0C7.5,1049.4,6,1048.4,6,1047.4z"/>
					<g id="g4360">
						<path id="path3371-6" inkscape:connector-curvature="0" sodipodi:nodetypes="sssssssscss" fill="#D9D9D9" d="M11.5,1009.4
							c-1.4,0-2.5,1.2-2.5,2.6v32.8c0,1.4,1.1,2.6,2.5,2.6h25c1.4,0,2.5-1.2,2.5-2.6v-14.4c0-3-1-4-3-6l-12-12c-2-2-3-3-6-3H11.5z"
							/>
						
							<path id="path3371-6-5" inkscape:connector-curvature="0" sodipodi:nodetypes="scsscss" opacity="0.1" enable-background="new    " d="
							M11.5,1009.4c-1.4,0-2.5,1.2-2.5,2.6c0-1,1.2-1.6,2.5-1.6c0.5,0,3.4,0,6.5,0c3,0,4.5,0.5,6,2c-2-2-3-3-6-3H11.5z"/>
						
							<path id="path3371-6-6" inkscape:connector-curvature="0" sodipodi:nodetypes="csscssc" opacity="0.2" fill="#FFFFFF" enable-background="new    " d="
							M9,1044.8c0,1.4,1.1,2.6,2.5,2.6h25c1.4,0,2.5-1.2,2.5-2.6c0,1.2-1.3,1.6-2.5,1.6c-6.6,0-24,0-25,0
							C10.3,1046.4,9,1045.9,9,1044.8z"/>
					</g>
				</g>
			</g>
		</g>
	</g>
</g>
<g id="g21475" transform="translate(0.6804038,15.319734)">
	<g id="g3424" transform="matrix(1.027668,0,0,1.043956,-0.67645123,-1.2537999)">
		<path id="rect9902" inkscape:connector-curvature="0" fill="#757575" d="M10.9,7.6h24.9c0.1,0,0.2,0.1,0.2,0.2v17.8
			c0,0.1-0.1,0.2-0.2,0.2H10.9c-0.1,0-0.2-0.1-0.2-0.2V7.8C10.7,7.6,10.8,7.6,10.9,7.6z"/>
		<path id="rect9904" inkscape:connector-curvature="0" fill="#D9D9D9" d="M11.7,8.2H35c0.2,0,0.4,0.2,0.4,0.4v16.2
			c0,0.2-0.2,0.4-0.4,0.4H11.7c-0.2,0-0.4-0.2-0.4-0.4V8.5C11.3,8.3,11.5,8.2,11.7,8.2z"/>
		<rect id="rect9910" x="15.4" y="16" fill="#757575" width="5.9" height="0.8"/>
		
			<ellipse id="path9916" sodipodi:cy="16.4" sodipodi:cx="13.8" sodipodi:rx="0.40000001" sodipodi:ry="0.40000001" fill="#757575" cx="13.8" cy="16.4" rx="0.4" ry="0.4">
		</ellipse>
		<rect id="rect9922" x="13.1" y="9.9" fill="#757575" width="20.5" height="1"/>
		<rect id="rect9926" x="23.3" y="15.8" fill="#757575" width="10.3" height="7.1"/>
		<rect id="rect9930" x="23.9" y="16.4" fill="#D9D9D9" width="9.1" height="5.9"/>
		<rect id="rect9948" x="17" y="11.9" fill="#757575" width="12.6" height="1"/>
		<rect id="rect10156" x="15.4" y="18" fill="#757575" width="5.9" height="0.8"/>
		
			<ellipse id="path10158" sodipodi:cy="18.4" sodipodi:cx="13.8" sodipodi:rx="0.40000001" sodipodi:ry="0.40000001" fill="#757575" cx="13.8" cy="18.4" rx="0.4" ry="0.4">
		</ellipse>
		<rect id="rect10162" x="15.4" y="20" fill="#757575" width="5.9" height="0.8"/>
		
			<ellipse id="path10164" sodipodi:cy="20.4" sodipodi:cx="13.8" sodipodi:rx="0.40000001" sodipodi:ry="0.40000001" fill="#757575" cx="13.8" cy="20.4" rx="0.4" ry="0.4">
		</ellipse>
		<rect id="rect10168" x="15.4" y="22" fill="#757575" width="5.9" height="0.8"/>
		
			<ellipse id="path10170" sodipodi:cy="22.4" sodipodi:cx="13.8" sodipodi:rx="0.40000001" sodipodi:ry="0.40000001" fill="#757575" cx="13.8" cy="22.4" rx="0.4" ry="0.4">
		</ellipse>
		
			<path id="path9945" inkscape:connector-curvature="0" fill="none" stroke="#424242" stroke-width="0.5857" stroke-linecap="round" stroke-linejoin="round" d="
			M24.4,21.6l2.7-2.8l1.9,2.1l3.6-3.9"/>
	</g>
</g>
<linearGradient id="rect4342_1_" gradientUnits="userSpaceOnUse" x1="-68.0188" y1="1.879302e-002" x2="-24.0188" y2="44.0188" gradientTransform="matrix(1 0 0 1 70 2.0002)">
	<stop  offset="0" style="stop-color:#FFFFFF;stop-opacity:0.149"/>
	<stop  offset="1" style="stop-color:#177ED5;stop-opacity:0"/>
</linearGradient>
<path id="rect4342" fill="url(#rect4342_1_)" d="M9,2h30c1.7,0,3,1.3,3,3v38c0,1.7-1.3,3-3,3H9c-1.7,0-3-1.3-3-3V5C6,3.3,7.3,2,9,2z
	"/>
</svg>
