<?xml version="1.0" encoding="UTF-8" standalone="no"?>
<!-- Generator: Adobe Illustrator 18.1.1, SVG Export Plug-In . SVG Version: 6.00 Build 0)  -->

<svg
   xmlns:dc="http://purl.org/dc/elements/1.1/"
   xmlns:cc="http://creativecommons.org/ns#"
   xmlns:rdf="http://www.w3.org/1999/02/22-rdf-syntax-ns#"
   xmlns:svg="http://www.w3.org/2000/svg"
   xmlns="http://www.w3.org/2000/svg"
   xmlns:sodipodi="http://sodipodi.sourceforge.net/DTD/sodipodi-0.dtd"
   xmlns:inkscape="http://www.inkscape.org/namespaces/inkscape"
   version="1.1"
   id="svg2"
   sodipodi:docname="libreoffice-impress.svg"
   inkscape:version="0.91 r13725"
   x="0px"
   y="0px"
   viewBox="0 0 48 48"
   enable-background="new 0 0 48 48"
   xml:space="preserve"
   inkscape:export-filename="/home/peter/Documenten/test.png"
   inkscape:export-xdpi="360"
   inkscape:export-ydpi="360"><metadata
     id="metadata50"><rdf:RDF><cc:Work
         rdf:about=""><dc:format>image/svg+xml</dc:format><dc:type
           rdf:resource="http://purl.org/dc/dcmitype/StillImage" /></cc:Work></rdf:RDF></metadata><defs
     id="defs48"><defs
       id="defs6"><inkscape:perspective
         inkscape:persp3d-origin="0.25 : 0.16666667 : 1"
         id="perspective3810"
         sodipodi:type="inkscape:persp3d"
         inkscape:vp_x="0 : 0.25 : 1"
         inkscape:vp_y="0 : 20.833333 : 0"
         inkscape:vp_z="0.5 : 0.25 : 1" /></defs><sodipodi:namedview
       inkscape:snap-bbox-edge-midpoints="false"
       inkscape:snap-grids="true"
       inkscape:snap-nodes="true"
       borderlayer="true"
       inkscape:snap-intersection-paths="true"
       inkscape:object-nodes="true"
       inkscape:object-paths="true"
       inkscape:snap-smooth-nodes="true"
       inkscape:document-units="px"
       inkscape:snap-bbox="true"
       inkscape:bbox-nodes="true"
       inkscape:bbox-paths="true"
       inkscape:snap-bbox-midpoints="false"
       inkscape:showpageshadow="false"
       inkscape:snap-global="true"
       inkscape:snap-midpoints="false"
       inkscape:pageopacity="0.0"
       inkscape:pageshadow="2"
       inkscape:window-width="1680"
       inkscape:window-height="996"
       inkscape:window-x="0"
       inkscape:window-y="27"
       inkscape:window-maximized="1"
       inkscape:current-layer="layer1"
       id="base"
       bordercolor="#666666"
       borderopacity="1.0"
       pagecolor="#ffffff"
       showgrid="true"
       inkscape:zoom="7.9999996"
       inkscape:cx="2.2469276"
       inkscape:cy="16.647939"><inkscape:grid
         snapvisiblegridlinesonly="true"
         visible="true"
         enabled="true"
         empspacing="4"
         id="grid3808"
         type="xygrid" /></sodipodi:namedview></defs><sodipodi:namedview
     inkscape:cy="8.6800893"
     inkscape:cx="-12.942386"
     inkscape:zoom="6.9532165"
     showgrid="true"
     guidetolerance="10"
     gridtolerance="10"
     pagecolor="#ffffff"
     borderopacity="1"
     bordercolor="#666666"
     objecttolerance="10"
     id="namedview61"
     inkscape:current-layer="svg2"
     inkscape:window-maximized="0"
     inkscape:window-y="0"
     inkscape:window-x="960"
     inkscape:window-height="1008"
     inkscape:window-width="959"
     inkscape:pageshadow="2"
     inkscape:pageopacity="0"
     inkscape:snap-global="true"
     inkscape:snap-bbox-midpoints="true"
     inkscape:bbox-paths="true"
     inkscape:bbox-nodes="true"
     inkscape:snap-bbox="true"
     inkscape:snap-nodes="false"
     inkscape:snap-bbox-edge-midpoints="true"><inkscape:grid
       type="xygrid"
       id="grid3422" /></sodipodi:namedview><linearGradient
     id="rect4342_1_"
     gradientUnits="userSpaceOnUse"
     x1="-68.0188"
     y1="1.879302e-002"
     x2="-24.0188"
     y2="44.0188"
     gradientTransform="translate(70,2.0002)"><stop
       offset="0"
       style="stop-color:#FFFFFF;stop-opacity:0.149"
       id="stop43" /><stop
       offset="1"
       style="stop-color:#177ED5;stop-opacity:0"
       id="stop45" /></linearGradient><g
     inkscape:label="Layer 1"
     inkscape:groupmode="layer"
     transform="translate(0,-1004.3622)"
     id="layer1"><path
       style="fill:#f4511e;fill-opacity:1"
       id="path3371"
       inkscape:connector-curvature="0"
       d="m 9,1006.4 c -1.7,0 -3,1.3 -3,3 l 0,38 c 0,1.7 1.3,3 3,3 l 30,0 c 1.7,0 3,-1.3 3,-3 l 0,-18 c 0,-3 -1,-4 -3,-6 l -14,-14 c -2,-2 -3,-3 -6,-3 l -10,0 z" /><path
       style="fill:#f4511e;fill-opacity:1"
       id="rect3362"
       inkscape:connector-curvature="0"
       d="m 29,1007.4 c 0,1 1,2 2,3 1,1 2.1,2.1 3,3 2,2 2.9,2.9 4,4 1,1 2,2 3,2 1,0 1,-1 1,-2 l 0,-8 c 0,-1.7 -1.3,-3 -3,-3 l -8,0 c 0,0 -2,0 -2,1 z" /><path
       style="opacity:0.2;fill:#ffffff"
       id="rect3362-5"
       inkscape:connector-curvature="0"
       sodipodi:nodetypes="ccscc"
       enable-background="new    "
       d="m 29,1007.4 c 11,0 13,0 13,2 0,-1.7 -1.3,-3 -3,-3 l -8,0 c 0,0 -2,0 -2,1 z" /><path
       style="opacity:0.2;fill:#ffffff"
       id="path3371-64"
       inkscape:connector-curvature="0"
       sodipodi:nodetypes="scsscss"
       enable-background="new    "
       d="m 9,1006.4 c -1.7,0 -3,1.3 -3,3 0,-1 1.5,-2 3,-2 0,0 6.7,0 10,0 3,0 5,1 6,2 -2,-2 -3,-3 -6,-3 l -10,0 z" /><path
       style="opacity:0.2"
       id="path3371-0"
       inkscape:connector-curvature="0"
       sodipodi:nodetypes="csscssc"
       enable-background="new    "
       d="m 6,1047.4 c 0,1.7 1.3,3 3,3 l 30,0 c 1.7,0 3,-1.3 3,-3 0,1 -1.5,2 -3,2 -7.9,-0.1 -28.8,0 -30,0 -1.5,0 -3,-1 -3,-2 z" /></g><path
     id="rect4342"
     d="m 9,2 30,0 c 1.7,0 3,1.3 3,3 l 0,38 c 0,1.7 -1.3,3 -3,3 L 9,46 C 7.3,46 6,44.7 6,43 L 6,5 C 6,3.3 7.3,2 9,2 Z"
     style="fill:url(#rect4342_1_)"
     inkscape:connector-curvature="0" /><g
     id="g4182"
     transform="translate(1,0)"
     style="fill:#000000;fill-opacity:0.2"><path
       style="opacity:1;fill:#000000;fill-opacity:0.2;stroke:none;stroke-width:3;stroke-linecap:round;stroke-linejoin:round;stroke-miterlimit:4;stroke-dasharray:none;stroke-opacity:1"
       d="m 19,27 a 5,5 0 0 0 -5,5 5,5 0 0 0 5,5 5,5 0 0 0 5,-5 l -5,0 0,-5 z"
       id="path4184"
       inkscape:connector-curvature="0" /><rect
       style="opacity:1;fill:#000000;fill-opacity:0.2;stroke:none;stroke-width:3;stroke-linecap:round;stroke-linejoin:round;stroke-miterlimit:4;stroke-dasharray:none;stroke-opacity:1"
       id="rect4186"
       width="8"
       height="2"
       x="26"
       y="27" /><rect
       y="33"
       x="26"
       height="2"
       width="8"
       id="rect4188"
       style="opacity:1;fill:#000000;fill-opacity:0.2;stroke:none;stroke-width:3;stroke-linecap:round;stroke-linejoin:round;stroke-miterlimit:4;stroke-dasharray:none;stroke-opacity:1" /><rect
       style="opacity:1;fill:#000000;fill-opacity:0.2;stroke:none;stroke-width:3;stroke-linecap:round;stroke-linejoin:round;stroke-miterlimit:4;stroke-dasharray:none;stroke-opacity:1"
       id="rect4190"
       width="20"
       height="2"
       x="14"
       y="39" /></g><g
     id="g4176"
     transform="translate(0,-1)"><path
       inkscape:connector-curvature="0"
       id="path4165"
       d="m 19,27 a 5,5 0 0 0 -5,5 5,5 0 0 0 5,5 5,5 0 0 0 5,-5 l -5,0 0,-5 z"
       style="opacity:1;fill:#fafafa;fill-opacity:1;stroke:none;stroke-width:3;stroke-linecap:round;stroke-linejoin:round;stroke-miterlimit:4;stroke-dasharray:none;stroke-opacity:1" /><rect
       y="27"
       x="26"
       height="2"
       width="8"
       id="rect4170"
       style="opacity:1;fill:#fafafa;fill-opacity:1;stroke:none;stroke-width:3;stroke-linecap:round;stroke-linejoin:round;stroke-miterlimit:4;stroke-dasharray:none;stroke-opacity:1" /><rect
       style="opacity:1;fill:#fafafa;fill-opacity:1;stroke:none;stroke-width:3;stroke-linecap:round;stroke-linejoin:round;stroke-miterlimit:4;stroke-dasharray:none;stroke-opacity:1"
       id="rect4172"
       width="8"
       height="2"
       x="26"
       y="33" /><rect
       y="39"
       x="14"
       height="2"
       width="20"
       id="rect4174"
       style="opacity:1;fill:#fafafa;fill-opacity:1;stroke:none;stroke-width:3;stroke-linecap:round;stroke-linejoin:round;stroke-miterlimit:4;stroke-dasharray:none;stroke-opacity:1" /></g></svg>