<?xml version="1.0" encoding="UTF-8" standalone="no"?>
<!-- Generator: Adobe Illustrator 18.1.1, SVG Export Plug-In . SVG Version: 6.00 Build 0)  -->

<svg
   xmlns:dc="http://purl.org/dc/elements/1.1/"
   xmlns:cc="http://creativecommons.org/ns#"
   xmlns:rdf="http://www.w3.org/1999/02/22-rdf-syntax-ns#"
   xmlns:svg="http://www.w3.org/2000/svg"
   xmlns="http://www.w3.org/2000/svg"
   xmlns:xlink="http://www.w3.org/1999/xlink"
   xmlns:sodipodi="http://sodipodi.sourceforge.net/DTD/sodipodi-0.dtd"
   xmlns:inkscape="http://www.inkscape.org/namespaces/inkscape"
   version="1.1"
   id="svg2"
   sodipodi:docname="libreoffice-draw.svg"
   inkscape:version="0.91 r13725"
   inkscape:export-ydpi="360"
   inkscape:export-filename="/home/peter/Documenten/test.png"
   inkscape:export-xdpi="360"
   x="0px"
   y="0px"
   viewBox="0 0 48 48"
   enable-background="new 0 0 48 48"
   xml:space="preserve"
   width="100%"
   height="100%"><metadata
     id="metadata34"><rdf:RDF><cc:Work
         rdf:about=""><dc:format>image/svg+xml</dc:format><dc:type
           rdf:resource="http://purl.org/dc/dcmitype/StillImage" /></cc:Work></rdf:RDF></metadata><defs
     id="defs3"><inkscape:perspective
       inkscape:vp_z="24 : 12 : 1"
       inkscape:vp_y="0 : 1000 : 0"
       inkscape:vp_x="0 : 12 : 1"
       sodipodi:type="inkscape:persp3d"
       id="perspective3810"
       inkscape:persp3d-origin="12 : 8 : 1" /><linearGradient
       gradientTransform="matrix(1,0,0,-1,70,1054.3624)"
       y2="4.0001"
       x2="-23.9999"
       y1="48.0001"
       x1="-67.9999"
       gradientUnits="userSpaceOnUse"
       id="rect4342_1_"><stop
         id="stop29"
         style="stop-color:#FFFFFF;stop-opacity:0.149"
         offset="0" /><stop
         id="stop31"
         style="stop-color:#177ED5;stop-opacity:0"
         offset="1" /></linearGradient><linearGradient
       inkscape:collect="always"
       xlink:href="#rect4342_1_"
       id="linearGradient3015"
       gradientUnits="userSpaceOnUse"
       gradientTransform="matrix(1,0,0,-1,70,1054.3624)"
       x1="-67.9999"
       y1="48.0001"
       x2="-23.9999"
       y2="4.0001" /><linearGradient
       id="rect4342_1_-6"
       gradientUnits="userSpaceOnUse"
       x1="-68.018799"
       y1="0.01879302"
       x2="-24.018801"
       y2="44.018799"
       gradientTransform="translate(78,3.0002)"><stop
         offset="0"
         style="stop-color:#FFFFFF;stop-opacity:0.149"
         id="stop43" /><stop
         offset="1"
         style="stop-color:#177ED5;stop-opacity:0"
         id="stop45" /></linearGradient><linearGradient
       y2="44.018799"
       x2="-24.018801"
       y1="0.01879302"
       x1="-68.018799"
       gradientTransform="translate(70,946.3624)"
       gradientUnits="userSpaceOnUse"
       id="linearGradient3041"
       xlink:href="#rect4342_1_-6"
       inkscape:collect="always" /></defs><sodipodi:namedview
     inkscape:cy="1.5117769"
     inkscape:cx="-69.69338"
     inkscape:zoom="1.4142135"
     showgrid="true"
     pagecolor="#ffffff"
     borderopacity="1.0"
     bordercolor="#666666"
     id="base"
     inkscape:current-layer="layer1"
     inkscape:window-maximized="0"
     inkscape:window-y="0"
     inkscape:window-x="960"
     inkscape:window-height="1008"
     inkscape:window-width="959"
     inkscape:pageshadow="2"
     inkscape:pageopacity="0.0"
     inkscape:snap-midpoints="false"
     inkscape:snap-global="true"
     inkscape:showpageshadow="false"
     inkscape:snap-bbox-midpoints="false"
     inkscape:bbox-paths="true"
     inkscape:bbox-nodes="true"
     inkscape:snap-bbox="true"
     inkscape:document-units="px"
     inkscape:snap-smooth-nodes="true"
     inkscape:object-paths="true"
     inkscape:object-nodes="true"
     inkscape:snap-intersection-paths="true"
     borderlayer="true"
     inkscape:snap-nodes="false"
     inkscape:snap-grids="true"
     inkscape:snap-bbox-edge-midpoints="false"><inkscape:grid
       type="xygrid"
       id="grid3808"
       empspacing="4"
       enabled="true"
       visible="true"
       snapvisiblegridlinesonly="true" /></sodipodi:namedview><g
     id="layer1"
     transform="translate(0,-1004.3622)"
     inkscape:groupmode="layer"
     inkscape:label="Layer 1"><path
       inkscape:connector-curvature="0"
       style="fill:url(#linearGradient3015);display:none"
       d="m 9,1006.4 h 30 c 1.7,0 3,1.3 3,3 v 38 c 0,1.7 -1.3,3 -3,3 H 9 c -1.7,0 -3,-1.3 -3,-3 v -38 c 0,-1.7 1.3,-3 3,-3 z"
       display="none"
       id="rect4342" /><path
       style="fill:#ffb300;fill-opacity:1"
       d="m 9,1006.4 c -1.7,0 -3,1.3 -3,3 l 0,38 c 0,1.7 1.3,3 3,3 l 30,0 c 1.7,0 3,-1.3 3,-3 l 0,-18 c 0,-3 -1,-4 -3,-6 l -14,-14 c -2,-2 -3,-3 -6,-3 l -10,0 z"
       inkscape:connector-curvature="0"
       id="path3371" /><path
       id="path4159"
       d="M 18.173828,982.3622 C 16.415524,982.3622 15,983.6972 15,985.3563 l 0,14.0118 c 0,1.6591 1.415524,2.9941 3.173828,2.9941 l 13.652344,0 c 1.758304,0 3.173828,-1.335 3.173828,-2.9941 l 0,-14.0118 c 0,-1.6591 -1.415524,-2.9941 -3.173828,-2.9941 l -13.652344,0 z m 6.761719,2 c 4.754863,-0.029 8.609362,4.1661 8.001953,9.0254 -0.431933,3.5637 -3.348651,6.4801 -6.912109,6.9121 -5.183214,0.6479 -9.610793,-3.7796 -8.962891,-8.9629 0.539916,-3.6715 3.348648,-6.4802 6.912109,-6.9121 0.323951,-0.041 0.643947,-0.061 0.960938,-0.062 z m 0.06445,2.875 -5,8.0977 10,0.027 -5,-8.125 z"
       style="opacity:1;fill:#000000;fill-opacity:0.2;stroke:none;stroke-opacity:0.2"
       inkscape:connector-curvature="0" /><path
       style="fill:#ffb300;fill-opacity:1"
       d="m 29,1007.4 c 0,1 1,2 2,3 1,1 2.1,2.1 3,3 2,2 2.9,2.9 4,4 1,1 2,2 3,2 1,0 1,-1 1,-2 l 0,-8 c 0,-1.7 -1.3,-3 -3,-3 l -8,0 c 0,0 -2,0 -2,1 z"
       inkscape:connector-curvature="0"
       id="rect3362" /><path
       style="opacity:0.2;fill:#ffffff"
       d="m 29,1007.4 c 11,0 13,0 13,2 0,-1.7 -1.3,-3 -3,-3 l -8,0 c 0,0 -2,0 -2,1 z"
       enable-background="new    "
       sodipodi:nodetypes="ccscc"
       inkscape:connector-curvature="0"
       id="rect3362-5" /><path
       style="opacity:0.2;fill:#ffffff"
       d="m 9,1006.4 c -1.7,0 -3,1.3 -3,3 0,-1 1.5,-2 3,-2 0,0 6.7,0 10,0 3,0 5,1 6,2 -2,-2 -3,-3 -6,-3 l -10,0 z"
       enable-background="new    "
       sodipodi:nodetypes="scsscss"
       inkscape:connector-curvature="0"
       id="path3371-64" /><path
       style="opacity:0.2"
       d="m 6,1047.4 c 0,1.7 1.3,3 3,3 l 30,0 c 1.7,0 3,-1.3 3,-3 0,1 -1.5,2 -3,2 -7.9,-0.1 -28.8,0 -30,0 -1.5,0 -3,-1 -3,-2 z"
       enable-background="new    "
       sodipodi:nodetypes="csscssc"
       inkscape:connector-curvature="0"
       id="path3371-0" /><path
       id="rect4342-3"
       d="m 9,946.3622 30,0 c 1.7,0 3,1.3 3,3 l 0,38 c 0,1.7 -1.3,3 -3,3 l -30,0 c -1.7,0 -3,-1.3 -3,-3 l 0,-38 c 0,-1.7 1.3,-3 3,-3 z"
       style="fill:url(#linearGradient3041)"
       inkscape:connector-curvature="0" /><path
       style="opacity:1;fill:#edf1f4;fill-opacity:1;stroke:none;stroke-opacity:0.2"
       d="M 17.173828,981.3622 C 15.415524,981.3622 14,982.6972 14,984.3563 l 0,14.0118 c 0,1.6591 1.415524,2.9941 3.173828,2.9941 l 13.652344,0 c 1.758304,0 3.173828,-1.335 3.173828,-2.9941 l 0,-14.0118 c 0,-1.6591 -1.415524,-2.9941 -3.173828,-2.9941 l -13.652344,0 z m 6.761719,2 c 4.754863,-0.029 8.609362,4.1661 8.001953,9.0254 -0.431933,3.5637 -3.348651,6.4801 -6.912109,6.9121 -5.183214,0.6479 -9.610793,-3.7796 -8.962891,-8.9629 0.539916,-3.6715 3.348648,-6.4802 6.912109,-6.9121 0.323951,-0.041 0.643947,-0.061 0.960938,-0.062 z m 0.06445,2.875 -5,8.0977 10,0.027 -5,-8.125 z"
       id="rect4155"
       inkscape:connector-curvature="0" /><path
       id="path8594"
       inkscape:export-ydpi="90"
       inkscape:export-filename="/home/paulo/LibreOffice Work/Icons/LibreOffice_Initial_Icons-Paulo-3-256.png"
       inkscape:export-xdpi="90"
       d="m -11.461728,983.4215 c 4.859262,-0.6074 9.009882,3.5432 8.402473,8.4024 -0.404937,3.3409 -3.138273,6.0741 -6.479015,6.4791 -4.859263,0.6074 -9.009883,-3.5432 -8.402475,-8.4025 0.506172,-3.442 3.138273,-6.0741 6.479017,-6.479 z"
       inkscape:connector-curvature="0"
       style="fill:#edf1f4;fill-opacity:1" /><path
       style="fill:#ffca28;fill-opacity:1"
       d="m -17,1004.3197 16,0.042 -8,-12.9998 z"
       id="polygon24"
       inkscape:connector-curvature="0"
       sodipodi:nodetypes="cccc" /><path
       d="m 6,988.5622 c 0,-0.1 -0.1,-0.2 -0.2,-0.2 l -13.6,0 c -0.1,0 -0.2,0.1 -0.2,0.2 l 0,13.6 c 0,0.1 0.1,0.2 0.2,0.2 l 13.6,0 c 0.1,0 0.2,-0.1 0.2,-0.2 l 0,-13.6 z"
       id="path26"
       inkscape:connector-curvature="0"
       style="fill:#ffe082;fill-opacity:1" /><path
       sodipodi:nodetypes="cscc"
       inkscape:connector-curvature="0"
       id="path4162"
       d="m 15.875911,1029.7399 c 3.181981,-7.0711 14.495689,-1.0607 4.684582,4.4194 -9.939845,5.552 -2.740039,9.5459 0,9.6343 0,0 4.065865,0.6187 14.49569,-1.7677"
       style="fill:none;fill-rule:evenodd;stroke:#000000;stroke-width:3;stroke-linecap:round;stroke-linejoin:round;stroke-miterlimit:4;stroke-dasharray:none;stroke-opacity:0.2" /><path
       style="fill:none;fill-rule:evenodd;stroke:#f5f5f5;stroke-width:3;stroke-linecap:round;stroke-linejoin:round;stroke-miterlimit:4;stroke-dasharray:none;stroke-opacity:1"
       d="m 14.875911,1028.7399 c 3.181981,-7.0711 14.495689,-1.0607 4.684582,4.4194 -9.9398455,5.552 -2.740039,9.5459 0,9.6343 0,0 4.065865,0.6187 14.49569,-1.7677"
       id="path4160"
       inkscape:connector-curvature="0"
       sodipodi:nodetypes="cscc" /></g></svg>