<?xml version="1.0" encoding="UTF-8" standalone="no"?>
<!-- Created with Inkscape (http://www.inkscape.org/) -->

<svg
   xmlns:dc="http://purl.org/dc/elements/1.1/"
   xmlns:cc="http://creativecommons.org/ns#"
   xmlns:rdf="http://www.w3.org/1999/02/22-rdf-syntax-ns#"
   xmlns:svg="http://www.w3.org/2000/svg"
   xmlns="http://www.w3.org/2000/svg"
   xmlns:xlink="http://www.w3.org/1999/xlink"
   xmlns:sodipodi="http://sodipodi.sourceforge.net/DTD/sodipodi-0.dtd"
   xmlns:inkscape="http://www.inkscape.org/namespaces/inkscape"
   width="48"
   height="48"
   id="svg2"
   version="1.1"
   inkscape:version="0.91 r13725"
   sodipodi:docname="libreoffice-writer.svg"
   inkscape:export-filename="/home/afel/Pictures/evos-mockups/personal-app-icons/libreoffice-writer.png"
   inkscape:export-xdpi="360"
   inkscape:export-ydpi="360">
  <defs
     id="defs4">
    <linearGradient
       inkscape:collect="always"
       id="linearGradient4396">
      <stop
         style="stop-color:#ffffff;stop-opacity:0.14901961"
         offset="0"
         id="stop4376" />
      <stop
         style="stop-color:#177ed5;stop-opacity:0"
         offset="1"
         id="stop4378" />
    </linearGradient>
    <inkscape:perspective
       sodipodi:type="inkscape:persp3d"
       inkscape:vp_x="0 : 12 : 1"
       inkscape:vp_y="0 : 1000 : 0"
       inkscape:vp_z="24 : 12 : 1"
       inkscape:persp3d-origin="12 : 8 : 1"
       id="perspective3810" />
    <linearGradient
       inkscape:collect="always"
       xlink:href="#linearGradient4396"
       id="linearGradient4380"
       x1="-68"
       y1="1004.3622"
       x2="-23.999983"
       y2="1048.3622"
       gradientUnits="userSpaceOnUse"
       gradientTransform="translate(70,2.0000522)" />
  </defs>
  <sodipodi:namedview
     id="base"
     pagecolor="#ffffff"
     bordercolor="#666666"
     borderopacity="1.0"
     inkscape:pageopacity="0.0"
     inkscape:pageshadow="2"
     inkscape:zoom="11.313708"
     inkscape:cx="27.349364"
     inkscape:cy="22.163171"
     inkscape:document-units="px"
     inkscape:current-layer="layer1"
     showgrid="true"
     inkscape:snap-grids="true"
     inkscape:object-paths="true"
     inkscape:snap-intersection-paths="true"
     inkscape:snap-smooth-nodes="true"
     inkscape:object-nodes="true"
     inkscape:snap-midpoints="false"
     inkscape:window-width="1680"
     inkscape:window-height="996"
     inkscape:window-x="0"
     inkscape:window-y="27"
     inkscape:window-maximized="1"
     inkscape:showpageshadow="false"
     borderlayer="true"
     inkscape:snap-bbox="true"
     inkscape:snap-nodes="true"
     inkscape:bbox-paths="true"
     inkscape:bbox-nodes="true"
     inkscape:snap-bbox-edge-midpoints="false"
     inkscape:snap-bbox-midpoints="false"
     inkscape:snap-global="true">
    <inkscape:grid
       type="xygrid"
       id="grid3808"
       empspacing="4"
       visible="true"
       enabled="true"
       snapvisiblegridlinesonly="true" />
  </sodipodi:namedview>
  <metadata
     id="metadata7">
    <rdf:RDF>
      <cc:Work
         rdf:about="">
        <dc:format>image/svg+xml</dc:format>
        <dc:type
           rdf:resource="http://purl.org/dc/dcmitype/StillImage" />
        <dc:title></dc:title>
      </cc:Work>
    </rdf:RDF>
  </metadata>
  <g
     inkscape:label="Layer 1"
     inkscape:groupmode="layer"
     id="layer1"
     transform="translate(0,-1004.3622)">
    <g
       id="g4370">
      <path
         id="rect3362"
         d="m 29,1007.3622 c 0,1 1,2 2,3 1.024612,1.0246 2.076659,2.0882 3.019209,3.031 1.980791,1.9808 2.925788,2.9175 3.980791,3.969 1,1 2,2 3,2 1,0 1,-0.9843 1,-1.9797 l 0,-8.0203 c 0,-1.662 -1.338,-3 -3,-3 l -8,0 c 0,0 -2,0 -2,1 z"
         style="opacity:1;fill:#039be5;fill-opacity:1;stroke:none;stroke-width:0.5;stroke-linecap:round;stroke-miterlimit:4;stroke-dasharray:none;stroke-opacity:1" />
      <path
         sodipodi:nodetypes="ccscc"
         id="rect3362-5"
         d="m 29,1007.3622 c 11,0 13,0 13,2 0,-1.6797 -1.338,-3 -3,-3 l -8,0 c 0,0 -2.015739,10e-5 -2,1 z"
         style="opacity:0.2;fill:#ffffff;fill-opacity:1;stroke:none;stroke-width:0.5;stroke-linecap:round;stroke-miterlimit:4;stroke-dasharray:none;stroke-opacity:1"
         inkscape:connector-curvature="0" />
    </g>
    <g
       id="g4365">
      <path
         id="path3371"
         d="m 9,1006.3622 c -1.662,0 -3,1.338 -3,3 l 0,38 c 0,1.662 1.338,3 3,3 l 30,0 c 1.662,0 3,-1.338 3,-3 l 0,-18 c 0,-3 -1,-4 -3.000534,-6.0005 L 25.01201,1009.3742 C 23,1007.3622 22,1006.3622 18.992446,1006.3622 Z"
         style="opacity:1;fill:#039be5;fill-opacity:1;stroke:none;stroke-width:0.5;stroke-linecap:round;stroke-miterlimit:4;stroke-dasharray:none;stroke-opacity:1" />
      <path
         sodipodi:nodetypes="scsscss"
         id="path3371-64"
         d="m 9.003777,1006.3622 c -1.662,0 -3,1.338 -3,3 -0.00378,-1 1.4829289,-2 2.996223,-2 0,0 6.677277,0 10,0 3,0 5,1 6.015787,2.012 -2.01201,-2.012 -3.01201,-3.012 -6.019564,-3.012 z"
         style="opacity:0.2;fill:#ffffff;fill-opacity:1;stroke:none;stroke-width:0.5;stroke-linecap:round;stroke-miterlimit:4;stroke-dasharray:none;stroke-opacity:1"
         inkscape:connector-curvature="0" />
      <path
         sodipodi:nodetypes="csscssc"
         id="path3371-0"
         d="m 6,1047.3622 c 0,1.6507 1.338,3 3,3 l 30,0 c 1.662,0 3,-1.3164 3,-3 0,1 -1.462273,2.0205 -3,2 -7.913577,-0.1057 -28.771419,0 -30,0 -1.5171813,0 -3,-1 -3,-2 z"
         style="opacity:0.2;fill:#000000;fill-opacity:1;stroke:none;stroke-width:0.5;stroke-linecap:round;stroke-miterlimit:4;stroke-dasharray:none;stroke-opacity:1"
         inkscape:connector-curvature="0" />
    </g>
    <g
       id="g4360">
      <path
         sodipodi:nodetypes="sssssssscss"
         id="path3371-6"
         d="m 11.5,1009.3622 c -1.385,0 -2.5,1.1555 -2.5,2.5909 l 0,32.8182 c 0,1.4354 1.115,2.5909 2.5,2.5909 l 25,0 c 1.385,0 2.5,-1.1555 2.5,-2.5909 l 0,-14.4091 c 0,-3 -1,-4 -3,-6 l -12,-12 c -2,-2 -3,-3 -6,-3 z"
         style="opacity:1;fill:#d9d9d9;fill-opacity:1;stroke:none;stroke-width:0.5;stroke-linecap:round;stroke-miterlimit:4;stroke-dasharray:none;stroke-opacity:1"
         inkscape:connector-curvature="0" />
      <path
         sodipodi:nodetypes="scsscss"
         id="path3371-6-5"
         d="m 11.5,1009.3622 c -1.385,0 -2.5,1.1555 -2.5,2.5909 0,-0.9893 1.163294,-1.5785 2.505582,-1.5785 0.467834,0 3.409607,-0.013 6.494418,-0.013 3,0 4.515625,0.5156 6,2 -2,-2 -3,-3 -6,-3 z"
         style="opacity:0.1;fill:#000000;fill-opacity:1;stroke:none;stroke-width:0.5;stroke-linecap:round;stroke-miterlimit:4;stroke-dasharray:none;stroke-opacity:1"
         inkscape:connector-curvature="0" />
      <path
         sodipodi:nodetypes="csscssc"
         id="path3371-6-6"
         d="m 9,1044.7713 c 0.00553,1.4027 1.115,2.5909 2.5,2.5909 l 25,0 c 1.385,0 2.5,-1.1701 2.5,-2.5909 0,1.1534 -1.334798,1.5865 -2.494581,1.5865 -6.58422,0 -24.022001,0.015 -25.021044,0.015 -1.232017,0 -2.4788507,-0.5184 -2.484375,-1.6016 z"
         style="opacity:0.2;fill:#ffffff;fill-opacity:1;stroke:none;stroke-width:0.5;stroke-linecap:round;stroke-miterlimit:4;stroke-dasharray:none;stroke-opacity:1"
         inkscape:connector-curvature="0" />
    </g>
    <g
       id="g4344"
       style="fill:#808080">
      <rect
         y="1026.3622"
         x="12"
         height="1"
         width="10"
         id="rect4263"
         style="opacity:1;fill:#808080;fill-opacity:1;stroke:none;stroke-width:0.5;stroke-linecap:round;stroke-miterlimit:4;stroke-dasharray:none;stroke-opacity:1" />
      <rect
         y="1024.3622"
         x="12"
         height="1"
         width="12"
         id="rect4263-3"
         style="opacity:1;fill:#808080;fill-opacity:1;stroke:none;stroke-width:0.5;stroke-linecap:round;stroke-miterlimit:4;stroke-dasharray:none;stroke-opacity:1" />
      <rect
         y="1028.3622"
         x="12"
         height="1"
         width="12"
         id="rect4263-8"
         style="opacity:1;fill:#808080;fill-opacity:1;stroke:none;stroke-width:0.5;stroke-linecap:round;stroke-miterlimit:4;stroke-dasharray:none;stroke-opacity:1" />
      <rect
         y="1030.3622"
         x="12"
         height="1"
         width="12"
         id="rect4263-5"
         style="opacity:1;fill:#808080;fill-opacity:1;stroke:none;stroke-width:0.5;stroke-linecap:round;stroke-miterlimit:4;stroke-dasharray:none;stroke-opacity:1" />
      <rect
         y="1032.3622"
         x="12"
         height="1"
         width="22"
         id="rect4263-0"
         style="opacity:1;fill:#808080;fill-opacity:1;stroke:none;stroke-width:0.5;stroke-linecap:round;stroke-miterlimit:4;stroke-dasharray:none;stroke-opacity:1" />
      <rect
         y="1034.3622"
         x="12"
         height="1"
         width="18"
         id="rect4263-4"
         style="opacity:1;fill:#808080;fill-opacity:1;stroke:none;stroke-width:0.5;stroke-linecap:round;stroke-miterlimit:4;stroke-dasharray:none;stroke-opacity:1" />
      <rect
         y="1036.3622"
         x="12"
         height="1"
         width="20"
         id="rect4263-89"
         style="opacity:1;fill:#808080;fill-opacity:1;stroke:none;stroke-width:0.5;stroke-linecap:round;stroke-miterlimit:4;stroke-dasharray:none;stroke-opacity:1" />
      <rect
         y="1038.3622"
         x="12"
         height="1"
         width="16"
         id="rect4263-89-0"
         style="opacity:1;fill:#808080;fill-opacity:1;stroke:none;stroke-width:0.5;stroke-linecap:round;stroke-miterlimit:4;stroke-dasharray:none;stroke-opacity:1" />
      <rect
         y="1024.3622"
         x="25"
         height="6.9999828"
         width="9"
         id="rect4325"
         style="opacity:1;fill:#808080;fill-opacity:1;stroke:none;stroke-width:0.5;stroke-linecap:round;stroke-miterlimit:4;stroke-dasharray:none;stroke-opacity:1" />
    </g>
    <rect
       style="opacity:1;fill:url(#linearGradient4380);fill-opacity:1;stroke:none;stroke-width:0.5;stroke-linecap:round;stroke-miterlimit:4;stroke-dasharray:none;stroke-opacity:1"
       id="rect4342"
       width="36"
       height="44"
       x="6"
       y="1006.3622"
       rx="3"
       ry="3" />
  </g>
</svg>
