<?xml version="1.0" encoding="UTF-8" standalone="no"?>
<!-- Generator: Adobe Illustrator 18.1.1, SVG Export Plug-In . SVG Version: 6.00 Build 0)  -->

<svg
   xmlns:dc="http://purl.org/dc/elements/1.1/"
   xmlns:cc="http://creativecommons.org/ns#"
   xmlns:rdf="http://www.w3.org/1999/02/22-rdf-syntax-ns#"
   xmlns:svg="http://www.w3.org/2000/svg"
   xmlns="http://www.w3.org/2000/svg"
   xmlns:sodipodi="http://sodipodi.sourceforge.net/DTD/sodipodi-0.dtd"
   xmlns:inkscape="http://www.inkscape.org/namespaces/inkscape"
   version="1.1"
   id="Layer_1"
   x="0px"
   y="0px"
   viewBox="0 0 48 48"
   enable-background="new 0 0 48 48"
   xml:space="preserve"
   inkscape:version="0.91 r13725"
   sodipodi:docname="MCLogo.svg"><metadata
   id="metadata534"><rdf:RDF><cc:Work
       rdf:about=""><dc:format>image/svg+xml</dc:format><dc:type
         rdf:resource="http://purl.org/dc/dcmitype/StillImage" /></cc:Work></rdf:RDF></metadata><defs
   id="defs532"><linearGradient
     id="rect4064-0-3_1_-8"
     gradientUnits="userSpaceOnUse"
     x1="-36.4375"
     y1="25.729601"
     x2="-4.3744001"
     y2="-6.3334999"
     gradientTransform="matrix(1,0,0,-1,43.991631,33.162081)"><stop
       offset="0"
       style="stop-color:#FFFFFF;stop-opacity:0.149"
       id="stop525-4" /><stop
       offset="1"
       style="stop-color:#177ED5;stop-opacity:0"
       id="stop527-2" /></linearGradient></defs><sodipodi:namedview
   pagecolor="#ffffff"
   bordercolor="#666666"
   borderopacity="1"
   objecttolerance="10"
   gridtolerance="10"
   guidetolerance="10"
   inkscape:pageopacity="0"
   inkscape:pageshadow="2"
   inkscape:window-width="1600"
   inkscape:window-height="837"
   id="namedview530"
   showgrid="false"
   inkscape:zoom="5.6568543"
   inkscape:cx="20.633392"
   inkscape:cy="27.709855"
   inkscape:window-x="-8"
   inkscape:window-y="-8"
   inkscape:window-maximized="1"
   inkscape:current-layer="Layer_1" />



<linearGradient
   id="rect4064-0-3_1_"
   gradientUnits="userSpaceOnUse"
   x1="-36.4375"
   y1="25.7296"
   x2="-4.3744"
   y2="-6.3335"
   gradientTransform="matrix(1 0 0 -1 44 33.2921)">
	<stop
   offset="0"
   style="stop-color:#FFFFFF;stop-opacity:0.149"
   id="stop525" />
	<stop
   offset="1"
   style="stop-color:#177ED5;stop-opacity:0"
   id="stop527" />
</linearGradient>

<g
   inkscape:groupmode="layer"
   id="layer2"
   inkscape:label="Layer 1"><rect
     style="fill:#5c413b;fill-opacity:1"
     id="rect4999"
     width="44.000313"
     height="38.101498"
     x="1.9899633"
     y="4.8272667"
     ry="0" /><rect
     style="fill:#5c413b;fill-opacity:1"
     id="rect5001"
     width="4.9055533"
     height="3.0052037"
     x="39.59798"
     y="41.547649"
     ry="0.0234375" /><rect
     style="fill:#5c413b;fill-opacity:1"
     id="rect5003"
     width="11.534679"
     height="5.6568542"
     x="31.77561"
     y="40.177631"
     ry="0.0234375" /><rect
     style="fill:#5c413b;fill-opacity:1"
     id="rect5007"
     width="31.375"
     height="7.375"
     x="4.5625"
     y="38.4375"
     ry="0.0234375" /><rect
     style="fill:#78a951;fill-opacity:1"
     id="rect5011"
     width="18.937204"
     height="2.5853591"
     x="3.7565048"
     y="3.3196902"
     ry="0.0234375" /><rect
     style="fill:#78a951;fill-opacity:1"
     id="rect5015"
     width="2.7179418"
     height="1.8782524"
     x="13.037281"
     y="8.4683113"
     ry="0.0234375" /><rect
     style="fill:#78a951;fill-opacity:1"
     id="rect5017"
     width="3.557631"
     height="4.839262"
     x="8.3085051"
     y="3.8942146"
     ry="0.0234375" /><rect
     style="fill:#78a951;fill-opacity:1"
     id="rect5019"
     width="1.7456698"
     height="8.3526993"
     x="4.1542525"
     y="2.8556516"
     ry="0.0234375" /><rect
     style="fill:#78a951;fill-opacity:1"
     id="rect5021"
     width="2.4358113"
     height="0.45879215"
     x="2.0940917"
     y="4.142529"
     ry="0.0234375" /><rect
     style="fill:#78a951;fill-opacity:1"
     id="rect5023"
     width="1.7235727"
     height="2.7731843"
     x="20.594484"
     y="4.6344671"
     ry="0.0234375" /><rect
     style="fill:#78a951;fill-opacity:1"
     id="rect5025"
     width="5.75"
     height="0.359375"
     x="40.046875"
     y="3.953125"
     ry="0.0234375" /><rect
     style="fill:#78a951;fill-opacity:1"
     id="rect5027"
     width="20.660772"
     height="2.8726223"
     x="21.036427"
     y="1.8833797"
     ry="0.0234375" /><rect
     style="fill:#78a951;fill-opacity:1"
     id="rect5029"
     width="4.5520034"
     height="5.92202"
     x="29.389126"
     y="3.9384086"
     ry="0.0234375" /><rect
     style="fill:#4d3c3a;fill-opacity:1"
     id="rect5033"
     width="1.4765625"
     height="2.9296875"
     x="20.585938"
     y="9.84375"
     ry="0.0234375" /></g><g
   inkscape:groupmode="layer"
   id="layer3"
   inkscape:label="Layer 2"
   style="display:inline"><g
     transform="translate(-0.00836906,-0.13001922)"
     id="g3"><g
       id="XMLID_1_"><g
         id="g6"><path
           style="fill:#795548"
           inkscape:connector-curvature="0"
           d="m 46,40.9 0,2.1 c 0,0.3 -0.1,0.5 -0.1,0.7 l -2.6,0 0,-2.9 2.7,0 z"
           id="path8" /><rect
           style="fill:#795548"
           x="43.299999"
           y="38"
           width="2.8"
           height="2.9000001"
           id="rect10" /><rect
           style="fill:#a1887f"
           x="43.299999"
           y="35.099998"
           width="2.8"
           height="2.9000001"
           id="rect12" /><rect
           style="fill:#3e2723"
           x="43.299999"
           y="32.299999"
           width="2.8"
           height="2.9000001"
           id="rect14" /><rect
           style="fill:#795548"
           x="43.299999"
           y="29.4"
           width="2.8"
           height="2.9000001"
           id="rect16" /><rect
           style="fill:#a1887f"
           x="43.299999"
           y="26.6"
           width="2.8"
           height="2.9000001"
           id="rect18" /><rect
           style="fill:#5d4037"
           x="43.299999"
           y="24.299999"
           width="2.8"
           height="2.3"
           id="rect20" /><rect
           style="fill:#795548"
           x="43.299999"
           y="21.4"
           width="2.8"
           height="2.9000001"
           id="rect22" /><rect
           style="fill:#795548"
           x="43.299999"
           y="18.6"
           width="2.8"
           height="2.9000001"
           id="rect24" /><rect
           style="fill:#a1887f"
           x="43.299999"
           y="15.7"
           width="2.8"
           height="2.9000001"
           id="rect26" /><rect
           style="fill:#5d4037"
           x="43.299999"
           y="12.9"
           width="2.8"
           height="2.9000001"
           id="rect28" /><rect
           style="fill:#5d4037"
           x="43.299999"
           y="10"
           width="2.8"
           height="2.9000001"
           id="rect30" /><rect
           style="fill:#3e2723"
           x="43.299999"
           y="7.0999999"
           width="2.8"
           height="2.9000001"
           id="rect32" /><path
           style="fill:#aed581"
           inkscape:connector-curvature="0"
           d="m 46,5 0,2.1 -2.8,0 0,-2.8 2.6,0 C 45.9,4.5 46,4.8 46,5 Z"
           id="path34" /><path
           style="fill:#3e2723"
           inkscape:connector-curvature="0"
           d="m 43.3,43.7 2.6,0 c -0.3,1.4 -1.3,2 -2.6,2.3 l 0,-2.3 z"
           id="path36" /><path
           style="fill:#aed581"
           inkscape:connector-curvature="0"
           d="m 45.9,4.3 -2.6,0 0,-2.3 c 1.5,0.2 2.3,1.1 2.6,2.3 z"
           id="path38" /><path
           style="fill:#5d4037"
           inkscape:connector-curvature="0"
           d="m 43.3,43.7 0,2.3 c 0,0 -0.1,0 -0.1,0 l -2.7,0 0,-2.3 2.8,0 z"
           id="path40" /><rect
           style="fill:#795548"
           x="40.5"
           y="40.900002"
           width="2.8"
           height="2.9000001"
           id="rect42" /><rect
           style="fill:#795548"
           x="40.5"
           y="38"
           width="2.8"
           height="2.9000001"
           id="rect44" /><rect
           style="fill:#a1887f"
           x="40.5"
           y="35.099998"
           width="2.8"
           height="2.9000001"
           id="rect46" /><rect
           style="fill:#5d4037"
           x="40.5"
           y="32.299999"
           width="2.8"
           height="2.9000001"
           id="rect48" /><rect
           style="fill:#78909c"
           x="40.5"
           y="29.4"
           width="2.8"
           height="2.9000001"
           id="rect50" /><rect
           style="fill:#5d4037"
           x="40.5"
           y="26.6"
           width="2.8"
           height="2.9000001"
           id="rect52" /><rect
           style="fill:#3e2723"
           x="40.5"
           y="24.299999"
           width="2.8"
           height="2.3"
           id="rect54" /><rect
           style="fill:#795548"
           x="40.5"
           y="21.4"
           width="2.8"
           height="2.9000001"
           id="rect56" /><rect
           style="fill:#5d4037"
           x="40.5"
           y="18.6"
           width="2.8"
           height="2.9000001"
           id="rect58" /><rect
           style="fill:#5d4037"
           x="40.5"
           y="15.7"
           width="2.8"
           height="2.9000001"
           id="rect60" /><rect
           style="fill:#3e2723"
           x="40.5"
           y="12.9"
           width="2.8"
           height="2.9000001"
           id="rect62" /><rect
           style="fill:#3e2723"
           x="40.5"
           y="10"
           width="2.8"
           height="2.9000001"
           id="rect64" /><rect
           style="fill:#689f38"
           x="40.5"
           y="7.0999999"
           width="2.8"
           height="2.9000001"
           id="rect66" /><rect
           style="fill:#8bc34a"
           x="40.5"
           y="4.3000002"
           width="2.8"
           height="2.9000001"
           id="rect68" /><path
           style="fill:#8bc34a"
           inkscape:connector-curvature="0"
           d="m 43.3,2 0,2.3 -2.8,0 0,-2.3 2.8,0 c -0.1,0 -0.1,0 0,0 z"
           id="path70" /><rect
           style="fill:#795548"
           x="37.799999"
           y="43.700001"
           width="2.8"
           height="2.3"
           id="rect72" /><rect
           style="fill:#5d4037"
           x="37.799999"
           y="40.900002"
           width="2.8"
           height="2.9000001"
           id="rect74" /><rect
           style="fill:#a1887f"
           x="37.799999"
           y="38"
           width="2.8"
           height="2.9000001"
           id="rect76" /><rect
           style="fill:#5d4037"
           x="37.799999"
           y="35.099998"
           width="2.8"
           height="2.9000001"
           id="rect78" /><rect
           style="fill:#795548"
           x="37.799999"
           y="32.299999"
           width="2.8"
           height="2.9000001"
           id="rect80" /><rect
           style="fill:#795548"
           x="37.799999"
           y="29.4"
           width="2.8"
           height="2.9000001"
           id="rect82" /><rect
           style="fill:#a1887f"
           x="37.799999"
           y="26.6"
           width="2.8"
           height="2.9000001"
           id="rect84" /><rect
           style="fill:#5d4037"
           x="37.799999"
           y="24.299999"
           width="2.8"
           height="2.3"
           id="rect86" /><rect
           style="fill:#5d4037"
           x="37.799999"
           y="21.4"
           width="2.8"
           height="2.9000001"
           id="rect88" /><rect
           style="fill:#795548"
           x="37.799999"
           y="18.6"
           width="2.8"
           height="2.9000001"
           id="rect90" /><rect
           style="fill:#5d4037"
           x="37.799999"
           y="15.7"
           width="2.8"
           height="2.9000001"
           id="rect92" /><rect
           style="fill:#795548"
           x="37.799999"
           y="12.9"
           width="2.8"
           height="2.9000001"
           id="rect94" /><rect
           style="fill:#3e2723"
           x="37.799999"
           y="10"
           width="2.8"
           height="2.9000001"
           id="rect96" /><rect
           style="fill:#558b2f"
           x="37.799999"
           y="7.0999999"
           width="2.8"
           height="2.9000001"
           id="rect98" /><rect
           style="fill:#7cb342"
           x="37.799999"
           y="4.3000002"
           width="2.8"
           height="2.9000001"
           id="rect100" /><rect
           style="fill:#7cb342"
           x="37.799999"
           y="2"
           width="2.8"
           height="2.3"
           id="rect102" /><rect
           style="fill:#795548"
           x="35"
           y="43.700001"
           width="2.8"
           height="2.3"
           id="rect104" /><rect
           style="fill:#5d4037"
           x="35"
           y="40.900002"
           width="2.8"
           height="2.9000001"
           id="rect106" /><rect
           style="fill:#5d4037"
           x="35"
           y="38"
           width="2.8"
           height="2.9000001"
           id="rect108" /><rect
           style="fill:#5d4037"
           x="35"
           y="35.099998"
           width="2.8"
           height="2.9000001"
           id="rect110" /><rect
           style="fill:#3e2723"
           x="35"
           y="32.299999"
           width="2.8"
           height="2.9000001"
           id="rect112" /><rect
           style="fill:#795548"
           x="35"
           y="29.4"
           width="2.8"
           height="2.9000001"
           id="rect114" /><rect
           style="fill:#a1887f"
           x="35"
           y="26.6"
           width="2.8"
           height="2.9000001"
           id="rect116" /><rect
           style="fill:#5d4037"
           x="35"
           y="24.299999"
           width="2.8"
           height="2.3"
           id="rect118" /><rect
           style="fill:#5d4037"
           x="35"
           y="21.4"
           width="2.8"
           height="2.9000001"
           id="rect120" /><rect
           style="fill:#5d4037"
           x="35"
           y="18.6"
           width="2.8"
           height="2.9000001"
           id="rect122" /><rect
           style="fill:#5d4037"
           x="35"
           y="15.7"
           width="2.8"
           height="2.9000001"
           id="rect124" /><rect
           style="fill:#5d4037"
           x="35"
           y="12.9"
           width="2.8"
           height="2.9000001"
           id="rect126" /><rect
           style="fill:#5d4037"
           x="35"
           y="10"
           width="2.8"
           height="2.9000001"
           id="rect128" /><rect
           style="fill:#3e2723"
           x="35"
           y="7.0999999"
           width="2.8"
           height="2.9000001"
           id="rect130" /><rect
           style="fill:#689f38"
           x="35"
           y="4.3000002"
           width="2.8"
           height="2.9000001"
           id="rect132" /><rect
           style="fill:#8bc34a"
           x="35"
           y="2"
           width="2.8"
           height="2.3"
           id="rect134" /><rect
           style="fill:#5d4037"
           x="32.299999"
           y="43.700001"
           width="2.8"
           height="2.3"
           id="rect136" /><rect
           style="fill:#795548"
           x="32.299999"
           y="40.900002"
           width="2.8"
           height="2.9000001"
           id="rect138" /><rect
           style="fill:#3e2723"
           x="32.299999"
           y="38"
           width="2.8"
           height="2.9000001"
           id="rect140" /><rect
           style="fill:#5d4037"
           x="32.299999"
           y="35.099998"
           width="2.8"
           height="2.9000001"
           id="rect142" /><rect
           style="fill:#5d4037"
           x="32.299999"
           y="32.299999"
           width="2.8"
           height="2.9000001"
           id="rect144" /><rect
           style="fill:#3e2723"
           x="32.299999"
           y="29.4"
           width="2.8"
           height="2.9000001"
           id="rect146" /><rect
           style="fill:#5d4037"
           x="32.299999"
           y="26.6"
           width="2.8"
           height="2.9000001"
           id="rect148" /><rect
           style="fill:#5d4037"
           x="32.299999"
           y="24.299999"
           width="2.8"
           height="2.3"
           id="rect150" /><rect
           style="fill:#795548"
           x="32.299999"
           y="21.4"
           width="2.8"
           height="2.9000001"
           id="rect152" /><rect
           style="fill:#a1887f"
           x="32.299999"
           y="18.6"
           width="2.8"
           height="2.9000001"
           id="rect154" /><rect
           style="fill:#3e2723"
           x="32.299999"
           y="15.7"
           width="2.8"
           height="2.9000001"
           id="rect156" /><rect
           style="fill:#757575"
           x="32.299999"
           y="12.9"
           width="2.8"
           height="2.9000001"
           id="rect158" /><rect
           style="fill:#3e2723"
           x="32.299999"
           y="10"
           width="2.8"
           height="2.9000001"
           id="rect160" /><rect
           style="fill:#9ccc65"
           x="32.299999"
           y="7.0999999"
           width="2.8"
           height="2.9000001"
           id="rect162" /><rect
           style="fill:#7cb342"
           x="32.299999"
           y="4.3000002"
           width="2.8"
           height="2.9000001"
           id="rect164" /><rect
           style="fill:#7cb342"
           x="32.299999"
           y="2"
           width="2.8"
           height="2.3"
           id="rect166" /><rect
           style="fill:#5d4037"
           x="29.5"
           y="43.700001"
           width="2.8"
           height="2.3"
           id="rect168" /><rect
           style="fill:#5d4037"
           x="29.5"
           y="40.900002"
           width="2.8"
           height="2.9000001"
           id="rect170" /><rect
           style="fill:#a1887f"
           x="29.5"
           y="38"
           width="2.8"
           height="2.9000001"
           id="rect172" /><rect
           style="fill:#5d4037"
           x="29.5"
           y="35.099998"
           width="2.8"
           height="2.9000001"
           id="rect174" /><rect
           style="fill:#795548"
           x="29.5"
           y="32.299999"
           width="2.8"
           height="2.9000001"
           id="rect176" /><rect
           style="fill:#a1887f"
           x="29.5"
           y="29.4"
           width="2.8"
           height="2.9000001"
           id="rect178" /><rect
           style="fill:#5d4037"
           x="29.5"
           y="26.6"
           width="2.8"
           height="2.9000001"
           id="rect180" /><rect
           style="fill:#795548"
           x="29.5"
           y="24.299999"
           width="2.8"
           height="2.3"
           id="rect182" /><rect
           style="fill:#795548"
           x="29.5"
           y="21.4"
           width="2.8"
           height="2.9000001"
           id="rect184" /><rect
           style="fill:#a1887f"
           x="29.5"
           y="18.6"
           width="2.8"
           height="2.9000001"
           id="rect186" /><rect
           style="fill:#5d4037"
           x="29.5"
           y="15.7"
           width="2.8"
           height="2.9000001"
           id="rect188" /><rect
           style="fill:#3e2723"
           x="29.5"
           y="12.9"
           width="2.8"
           height="2.9000001"
           id="rect190" /><rect
           style="fill:#7cb342"
           x="29.5"
           y="10"
           width="2.8"
           height="2.9000001"
           id="rect192" /><rect
           style="fill:#9ccc65"
           x="29.5"
           y="7.0999999"
           width="2.8"
           height="2.9000001"
           id="rect194" /><rect
           style="fill:#9ccc65"
           x="29.5"
           y="4.3000002"
           width="2.8"
           height="2.9000001"
           id="rect196" /><rect
           style="fill:#8bc34a"
           x="29.5"
           y="2"
           width="2.8"
           height="2.3"
           id="rect198" /><rect
           style="fill:#8d6e63"
           x="26.799999"
           y="43.700001"
           width="2.8"
           height="2.3"
           id="rect200" /><rect
           style="fill:#a1887f"
           x="26.799999"
           y="40.900002"
           width="2.8"
           height="2.9000001"
           id="rect202" /><rect
           style="fill:#3e2723"
           x="26.799999"
           y="38"
           width="2.8"
           height="2.9000001"
           id="rect204" /><rect
           style="fill:#5d4037"
           x="26.799999"
           y="35.099998"
           width="2.8"
           height="2.9000001"
           id="rect206" /><rect
           style="fill:#795548"
           x="26.799999"
           y="32.299999"
           width="2.8"
           height="2.9000001"
           id="rect208" /><rect
           style="fill:#a1887f"
           x="26.799999"
           y="29.4"
           width="2.8"
           height="2.9000001"
           id="rect210" /><rect
           style="fill:#5d4037"
           x="26.799999"
           y="26.6"
           width="2.8"
           height="2.9000001"
           id="rect212" /><rect
           style="fill:#795548"
           x="26.799999"
           y="24.299999"
           width="2.8"
           height="2.3"
           id="rect214" /><rect
           style="fill:#3e2723"
           x="26.799999"
           y="21.4"
           width="2.8"
           height="2.9000001"
           id="rect216" /><rect
           style="fill:#5d4037"
           x="26.799999"
           y="18.6"
           width="2.8"
           height="2.9000001"
           id="rect218" /><rect
           style="fill:#5d4037"
           x="26.799999"
           y="15.7"
           width="2.8"
           height="2.9000001"
           id="rect220" /><rect
           style="fill:#3e2723"
           x="26.799999"
           y="12.9"
           width="2.8"
           height="2.9000001"
           id="rect222" /><rect
           style="fill:#3e2723"
           x="26.799999"
           y="10"
           width="2.8"
           height="2.9000001"
           id="rect224" /><rect
           style="fill:#8bc34a"
           x="26.799999"
           y="7.0999999"
           width="2.8"
           height="2.9000001"
           id="rect226" /><rect
           style="fill:#9ccc65"
           x="26.799999"
           y="4.3000002"
           width="2.8"
           height="2.9000001"
           id="rect228" /><rect
           style="fill:#9ccc65"
           x="26.799999"
           y="2"
           width="2.8"
           height="2.3"
           id="rect230" /><rect
           style="fill:#8d6e63"
           x="24"
           y="43.700001"
           width="2.8"
           height="2.3"
           id="rect232" /><rect
           style="fill:#a1887f"
           x="24"
           y="40.900002"
           width="2.8"
           height="2.9000001"
           id="rect234" /><rect
           style="fill:#5d4037"
           x="24"
           y="38"
           width="2.8"
           height="2.9000001"
           id="rect236" /><rect
           style="fill:#5d4037"
           x="24"
           y="35.099998"
           width="2.8"
           height="2.9000001"
           id="rect238" /><rect
           style="fill:#757575"
           x="24"
           y="32.299999"
           width="2.8"
           height="2.9000001"
           id="rect240" /><rect
           style="fill:#3e2723"
           x="24"
           y="29.4"
           width="2.8"
           height="2.9000001"
           id="rect242" /><rect
           style="fill:#5d4037"
           x="24"
           y="26.6"
           width="2.8"
           height="2.9000001"
           id="rect244" /><rect
           style="fill:#5d4037"
           x="24"
           y="24.299999"
           width="2.8"
           height="2.3"
           id="rect246" /><rect
           style="fill:#795548"
           x="24"
           y="21.4"
           width="2.8"
           height="2.9000001"
           id="rect248" /><rect
           style="fill:#a1887f"
           x="24"
           y="18.6"
           width="2.8"
           height="2.9000001"
           id="rect250" /><rect
           style="fill:#3e2723"
           x="24"
           y="15.7"
           width="2.8"
           height="2.9000001"
           id="rect252" /><rect
           style="fill:#3e2723"
           x="24"
           y="12.9"
           width="2.8"
           height="2.9000001"
           id="rect254" /><rect
           style="fill:#689f38"
           x="24"
           y="10"
           width="2.8"
           height="2.9000001"
           id="rect256" /><rect
           style="fill:#7cb342"
           x="24"
           y="7.0999999"
           width="2.8"
           height="2.9000001"
           id="rect258" /><rect
           style="fill:#689f38"
           x="24"
           y="4.3000002"
           width="2.8"
           height="2.9000001"
           id="rect260" /><rect
           style="fill:#9ccc65"
           x="24"
           y="2"
           width="2.8"
           height="2.3"
           id="rect262" /><rect
           style="fill:#5d4037"
           x="21.299999"
           y="43.700001"
           width="2.8"
           height="2.3"
           id="rect264" /><rect
           style="fill:#3e2723"
           x="21.299999"
           y="40.900002"
           width="2.8"
           height="2.9000001"
           id="rect266" /><rect
           style="fill:#795548"
           x="21.299999"
           y="38"
           width="2.8"
           height="2.9000001"
           id="rect268" /><rect
           style="fill:#5d4037"
           x="21.299999"
           y="35.099998"
           width="2.8"
           height="2.9000001"
           id="rect270" /><rect
           style="fill:#795548"
           x="21.299999"
           y="32.299999"
           width="2.8"
           height="2.9000001"
           id="rect272" /><rect
           style="fill:#795548"
           x="21.299999"
           y="29.4"
           width="2.8"
           height="2.9000001"
           id="rect274" /><rect
           style="fill:#5d4037"
           x="21.299999"
           y="26.6"
           width="2.8"
           height="2.9000001"
           id="rect276" /><rect
           style="fill:#3e2723"
           x="21.299999"
           y="24.299999"
           width="2.8"
           height="2.3"
           id="rect278" /><rect
           style="fill:#5d4037"
           x="21.299999"
           y="21.4"
           width="2.8"
           height="2.9000001"
           id="rect280" /><rect
           style="fill:#a1887f"
           x="21.299999"
           y="18.6"
           width="2.8"
           height="2.9000001"
           id="rect282" /><rect
           style="fill:#3e2723"
           x="21.299999"
           y="15.7"
           width="2.8"
           height="2.9000001"
           id="rect284" /><rect
           style="fill:#5d4037"
           x="21.299999"
           y="12.9"
           width="2.8"
           height="2.9000001"
           id="rect286" /><rect
           style="fill:#3e2723"
           x="21.299999"
           y="10"
           width="2.8"
           height="2.9000001"
           id="rect288" /><rect
           style="fill:#3e2723"
           x="21.299999"
           y="7.0999999"
           width="2.8"
           height="2.9000001"
           id="rect290" /><rect
           style="fill:#689f38"
           x="21.299999"
           y="4.3000002"
           width="2.8"
           height="2.9000001"
           id="rect292" /><rect
           style="fill:#8bc34a"
           x="21.299999"
           y="2"
           width="2.8"
           height="2.3"
           id="rect294" /><rect
           style="fill:#78909c"
           x="18.5"
           y="43.700001"
           width="2.8"
           height="2.3"
           id="rect296" /><rect
           style="fill:#5d4037"
           x="18.5"
           y="40.900002"
           width="2.8"
           height="2.9000001"
           id="rect298" /><rect
           style="fill:#795548"
           x="18.5"
           y="38"
           width="2.8"
           height="2.9000001"
           id="rect300" /><rect
           style="fill:#a1887f"
           x="18.5"
           y="35.099998"
           width="2.8"
           height="2.9000001"
           id="rect302" /><rect
           style="fill:#5d4037"
           x="18.5"
           y="32.299999"
           width="2.8"
           height="2.9000001"
           id="rect304" /><rect
           style="fill:#a1887f"
           x="18.5"
           y="29.4"
           width="2.8"
           height="2.9000001"
           id="rect306" /><rect
           style="fill:#3e2723"
           x="18.5"
           y="26.6"
           width="2.8"
           height="2.9000001"
           id="rect308" /><rect
           style="fill:#5d4037"
           x="18.5"
           y="24.299999"
           width="2.8"
           height="2.3"
           id="rect310" /><rect
           style="fill:#5d4037"
           x="18.5"
           y="21.4"
           width="2.8"
           height="2.9000001"
           id="rect312" /><rect
           style="fill:#5d4037"
           x="18.5"
           y="18.6"
           width="2.8"
           height="2.9000001"
           id="rect314" /><rect
           style="fill:#3e2723"
           x="18.5"
           y="15.7"
           width="2.8"
           height="2.9000001"
           id="rect316" /><rect
           style="fill:#5d4037"
           x="18.5"
           y="12.9"
           width="2.8"
           height="2.9000001"
           id="rect318" /><rect
           style="fill:#3e2723"
           x="18.5"
           y="10"
           width="2.8"
           height="2.9000001"
           id="rect320" /><rect
           style="fill:#7cb342"
           x="18.5"
           y="7.0999999"
           width="2.8"
           height="2.9000001"
           id="rect322" /><rect
           style="fill:#689f38"
           x="18.5"
           y="4.3000002"
           width="2.8"
           height="2.9000001"
           id="rect324" /><rect
           style="fill:#7cb342"
           x="18.5"
           y="2"
           width="2.8"
           height="2.3"
           id="rect326" /><rect
           style="fill:#5d4037"
           x="15.8"
           y="43.700001"
           width="2.8"
           height="2.3"
           id="rect328" /><rect
           style="fill:#3e2723"
           x="15.8"
           y="40.900002"
           width="2.8"
           height="2.9000001"
           id="rect330" /><rect
           style="fill:#6d4c41"
           x="15.8"
           y="38"
           width="2.8"
           height="2.9000001"
           id="rect332" /><rect
           style="fill:#795548"
           x="15.8"
           y="35.099998"
           width="2.8"
           height="2.9000001"
           id="rect334" /><rect
           style="fill:#a1887f"
           x="15.8"
           y="32.299999"
           width="2.8"
           height="2.9000001"
           id="rect336" /><rect
           style="fill:#5d4037"
           x="15.8"
           y="29.4"
           width="2.8"
           height="2.9000001"
           id="rect338" /><rect
           style="fill:#3e2723"
           x="15.8"
           y="26.6"
           width="2.8"
           height="2.9000001"
           id="rect340" /><rect
           style="fill:#795548"
           x="15.8"
           y="24.299999"
           width="2.8"
           height="2.3"
           id="rect342" /><rect
           style="fill:#795548"
           x="15.8"
           y="21.4"
           width="2.8"
           height="2.9000001"
           id="rect344" /><rect
           style="fill:#5d4037"
           x="15.8"
           y="18.6"
           width="2.8"
           height="2.9000001"
           id="rect346" /><rect
           style="fill:#795548"
           x="15.8"
           y="15.7"
           width="2.8"
           height="2.9000001"
           id="rect348" /><rect
           style="fill:#795548"
           x="15.8"
           y="12.9"
           width="2.8"
           height="2.9000001"
           id="rect350" /><rect
           style="fill:#3e2723"
           x="15.8"
           y="10"
           width="2.8"
           height="2.9000001"
           id="rect352" /><rect
           style="fill:#3e2723"
           x="15.8"
           y="7.0999999"
           width="2.8"
           height="2.9000001"
           id="rect354" /><rect
           style="fill:#3e2723"
           x="15.8"
           y="4.3000002"
           width="2.8"
           height="2.9000001"
           id="rect356" /><rect
           style="fill:#9ccc65"
           x="15.8"
           y="2"
           width="2.8"
           height="2.3"
           id="rect358" /><rect
           style="fill:#8d6e63"
           x="13"
           y="43.700001"
           width="2.8"
           height="2.3"
           id="rect360" /><rect
           style="fill:#6d4c41"
           x="13"
           y="40.900002"
           width="2.8"
           height="2.9000001"
           id="rect362" /><rect
           style="fill:#757575"
           x="13"
           y="38"
           width="2.8"
           height="2.9000001"
           id="rect364" /><rect
           style="fill:#795548"
           x="13"
           y="35.099998"
           width="2.8"
           height="2.9000001"
           id="rect366" /><rect
           style="fill:#795548"
           x="13"
           y="32.299999"
           width="2.8"
           height="2.9000001"
           id="rect368" /><rect
           style="fill:#a1887f"
           x="13"
           y="29.4"
           width="2.8"
           height="2.9000001"
           id="rect370" /><rect
           style="fill:#5d4037"
           x="13"
           y="26.6"
           width="2.8"
           height="2.9000001"
           id="rect372" /><rect
           style="fill:#5d4037"
           x="13"
           y="24.299999"
           width="2.8"
           height="2.3"
           id="rect374" /><rect
           style="fill:#795548"
           x="13"
           y="21.4"
           width="2.8"
           height="2.9000001"
           id="rect376" /><rect
           style="fill:#78909c"
           x="13"
           y="18.6"
           width="2.8"
           height="2.9000001"
           id="rect378" /><rect
           style="fill:#5d4037"
           x="13"
           y="15.7"
           width="2.8"
           height="2.9000001"
           id="rect380" /><rect
           style="fill:#3e2723"
           x="13"
           y="12.9"
           width="2.8"
           height="2.9000001"
           id="rect382" /><rect
           style="fill:#7cb342"
           x="13"
           y="10"
           width="2.8"
           height="2.9000001"
           id="rect384" /><rect
           style="fill:#689f38"
           x="13"
           y="7.0999999"
           width="2.8"
           height="2.9000001"
           id="rect386" /><rect
           style="fill:#7cb342"
           x="13"
           y="4.3000002"
           width="2.8"
           height="2.9000001"
           id="rect388" /><rect
           style="fill:#8bc34a"
           x="13"
           y="2"
           width="2.8"
           height="2.3"
           id="rect390" /><rect
           style="fill:#8d6e63"
           x="10.3"
           y="43.700001"
           width="2.8"
           height="2.3"
           id="rect392" /><rect
           style="fill:#a1887f"
           x="10.3"
           y="40.900002"
           width="2.8"
           height="2.9000001"
           id="rect394" /><rect
           style="fill:#6d4c41"
           x="10.3"
           y="38"
           width="2.8"
           height="2.9000001"
           id="rect396" /><rect
           style="fill:#6d4c41"
           x="10.3"
           y="35.099998"
           width="2.8"
           height="2.9000001"
           id="rect398" /><rect
           style="fill:#795548"
           x="10.3"
           y="32.299999"
           width="2.8"
           height="2.9000001"
           id="rect400" /><rect
           style="fill:#a1887f"
           x="10.3"
           y="29.4"
           width="2.8"
           height="2.9000001"
           id="rect402" /><rect
           style="fill:#5d4037"
           x="10.3"
           y="26.6"
           width="2.8"
           height="2.9000001"
           id="rect404" /><rect
           style="fill:#795548"
           x="10.3"
           y="24.299999"
           width="2.8"
           height="2.3"
           id="rect406" /><rect
           style="fill:#a1887f"
           x="10.3"
           y="21.4"
           width="2.8"
           height="2.9000001"
           id="rect408" /><rect
           style="fill:#5d4037"
           x="10.3"
           y="18.6"
           width="2.8"
           height="2.9000001"
           id="rect410" /><rect
           style="fill:#795548"
           x="10.3"
           y="15.7"
           width="2.8"
           height="2.9000001"
           id="rect412" /><rect
           style="fill:#a1887f"
           x="10.3"
           y="12.9"
           width="2.8"
           height="2.9000001"
           id="rect414" /><rect
           style="fill:#3e2723"
           x="10.3"
           y="10"
           width="2.8"
           height="2.9000001"
           id="rect416" /><rect
           style="fill:#689f38"
           x="10.3"
           y="7.0999999"
           width="2.8"
           height="2.9000001"
           id="rect418" /><rect
           style="fill:#7cb342"
           x="10.3"
           y="4.3000002"
           width="2.8"
           height="2.9000001"
           id="rect420" /><rect
           style="fill:#8bc34a"
           x="10.3"
           y="2"
           width="2.8"
           height="2.3"
           id="rect422" /><rect
           style="fill:#a1887f"
           x="7.5"
           y="43.700001"
           width="2.8"
           height="2.3"
           id="rect424" /><rect
           style="fill:#3e2723"
           x="7.5"
           y="40.900002"
           width="2.8"
           height="2.9000001"
           id="rect426" /><rect
           style="fill:#6d4c41"
           x="7.5"
           y="38"
           width="2.8"
           height="2.9000001"
           id="rect428" /><rect
           style="fill:#795548"
           x="7.5"
           y="35.099998"
           width="2.8"
           height="2.9000001"
           id="rect430" /><rect
           style="fill:#5d4037"
           x="7.5"
           y="32.299999"
           width="2.8"
           height="2.9000001"
           id="rect432" /><rect
           style="fill:#5d4037"
           x="7.5"
           y="29.4"
           width="2.8"
           height="2.9000001"
           id="rect434" /><rect
           style="fill:#3e2723"
           x="7.5"
           y="26.6"
           width="2.8"
           height="2.9000001"
           id="rect436" /><rect
           style="fill:#5d4037"
           x="7.5"
           y="24.299999"
           width="2.8"
           height="2.3"
           id="rect438" /><rect
           style="fill:#a1887f"
           x="7.5"
           y="21.4"
           width="2.8"
           height="2.9000001"
           id="rect440" /><rect
           style="fill:#5d4037"
           x="7.5"
           y="18.6"
           width="2.8"
           height="2.9000001"
           id="rect442" /><rect
           style="fill:#795548"
           x="7.5"
           y="15.7"
           width="2.8"
           height="2.9000001"
           id="rect444" /><rect
           style="fill:#795548"
           x="7.5"
           y="12.9"
           width="2.8"
           height="2.9000001"
           id="rect446" /><rect
           style="fill:#3e2723"
           x="7.5"
           y="10"
           width="2.8"
           height="2.9000001"
           id="rect448" /><rect
           style="fill:#aed581"
           x="7.5"
           y="7.0999999"
           width="2.8"
           height="2.9000001"
           id="rect450" /><rect
           style="fill:#7cb342"
           x="7.5"
           y="4.3000002"
           width="2.8"
           height="2.9000001"
           id="rect452" /><rect
           style="fill:#7cb342"
           x="7.5"
           y="2"
           width="2.8"
           height="2.3"
           id="rect454" /><path
           style="fill:#5d4037"
           inkscape:connector-curvature="0"
           d="M 7.5,43.7 7.5,46 5,46 c -0.1,0 -0.2,0 -0.2,0 l 0,-2.3 2.7,0 z"
           id="path456" /><rect
           style="fill:#5d4037"
           x="4.8000002"
           y="40.900002"
           width="2.8"
           height="2.9000001"
           id="rect458" /><rect
           style="fill:#795548"
           x="4.8000002"
           y="38"
           width="2.8"
           height="2.9000001"
           id="rect460" /><rect
           style="fill:#3e2723"
           x="4.8000002"
           y="35.099998"
           width="2.8"
           height="2.9000001"
           id="rect462" /><rect
           style="fill:#5d4037"
           x="4.8000002"
           y="32.299999"
           width="2.8"
           height="2.9000001"
           id="rect464" /><rect
           style="fill:#795548"
           x="4.8000002"
           y="29.4"
           width="2.8"
           height="2.9000001"
           id="rect466" /><rect
           style="fill:#795548"
           x="4.8000002"
           y="26.6"
           width="2.8"
           height="2.9000001"
           id="rect468" /><rect
           style="fill:#5d4037"
           x="4.8000002"
           y="24.299999"
           width="2.8"
           height="2.3"
           id="rect470" /><rect
           style="fill:#5d4037"
           x="4.8000002"
           y="21.4"
           width="2.8"
           height="2.9000001"
           id="rect472" /><rect
           style="fill:#5d4037"
           x="4.8000002"
           y="18.6"
           width="2.8"
           height="2.9000001"
           id="rect474" /><rect
           style="fill:#3e2723"
           x="4.8000002"
           y="15.7"
           width="2.8"
           height="2.9000001"
           id="rect476" /><rect
           style="fill:#5d4037"
           x="4.8000002"
           y="12.9"
           width="2.8"
           height="2.9000001"
           id="rect478" /><rect
           style="fill:#a1887f"
           x="4.8000002"
           y="10"
           width="2.8"
           height="2.9000001"
           id="rect480" /><rect
           style="fill:#3e2723"
           x="4.8000002"
           y="7.0999999"
           width="2.8"
           height="2.9000001"
           id="rect482" /><rect
           style="fill:#558b2f"
           x="4.8000002"
           y="4.3000002"
           width="2.8"
           height="2.9000001"
           id="rect484" /><rect
           style="fill:#7cb342"
           x="4.8000002"
           y="2"
           width="2.8"
           height="2.3"
           id="rect486" /><path
           style="fill:#795548"
           inkscape:connector-curvature="0"
           d="m 4.8,43.7 0,2.3 C 3.2,45.8 2.5,44.9 2.2,43.7 l 2.6,0 z"
           id="path488" /><path
           style="fill:#795548"
           inkscape:connector-curvature="0"
           d="m 4.8,40.9 0,2.9 -2.7,0 C 2.1,43.5 2,43.3 2,43.1 l 0,-2.3 2.8,0 z"
           id="path490" /><rect
           style="fill:#5d4037"
           x="2"
           y="38"
           width="2.8"
           height="2.9000001"
           id="rect492" /><rect
           style="fill:#5d4037"
           x="2"
           y="35.099998"
           width="2.8"
           height="2.9000001"
           id="rect494" /><rect
           style="fill:#795548"
           x="2"
           y="32.299999"
           width="2.8"
           height="2.9000001"
           id="rect496" /><rect
           style="fill:#5d4037"
           x="2"
           y="29.4"
           width="2.8"
           height="2.9000001"
           id="rect498" /><rect
           style="fill:#5d4037"
           x="2"
           y="26.6"
           width="2.8"
           height="2.9000001"
           id="rect500" /><rect
           style="fill:#795548"
           x="2"
           y="24.299999"
           width="2.8"
           height="2.3"
           id="rect502" /><rect
           style="fill:#5d4037"
           x="2"
           y="21.4"
           width="2.8"
           height="2.9000001"
           id="rect504" /><rect
           style="fill:#bcaaa4"
           x="2"
           y="18.6"
           width="2.8"
           height="2.9000001"
           id="rect506" /><rect
           style="fill:#5d4037"
           x="2"
           y="15.7"
           width="2.8"
           height="2.9000001"
           id="rect508" /><rect
           style="fill:#795548"
           x="2"
           y="12.9"
           width="2.8"
           height="2.9000001"
           id="rect510" /><rect
           style="fill:#3e2723"
           x="2"
           y="10"
           width="2.8"
           height="2.9000001"
           id="rect512" /><rect
           style="fill:#558b2f"
           x="2"
           y="7.0999999"
           width="2.8"
           height="2.9000001"
           id="rect514" /><path
           style="fill:#558b2f"
           inkscape:connector-curvature="0"
           d="M 4.8,4.3 4.8,7.2 2,7.2 2,5 C 2,4.7 2.1,4.5 2.1,4.3 l 2.7,0 z"
           id="path516" /><path
           style="fill:#689f38"
           inkscape:connector-curvature="0"
           d="m 4.8,2 0,2.3 -2.7,0 C 2.4,3.1 3.2,2.3 4.8,2 Z"
           id="path518" /></g><g
         id="g520" /></g></g><path
     inkscape:connector-curvature="0"
     style="opacity:0.2"
     id="rect4064-0-7-3_1_"
     connector-curvature="0"
     nodetypes="ssczzcs"
     enable-background="new    "
     d="m 45.991631,42.869981 c 0,1 -1.8,2 -3,2 -1.2,0 -36.9999997,0 -37.9999997,0 -1,0 -3,-1 -3,-2 0,1.7 1.3,3 3,3 l 37.9999997,0 c 1.7,0 3,-1.3 3,-3" /><path
     inkscape:connector-curvature="0"
     style="opacity:0.2;fill:#ffffff"
     id="rect4064-0-7"
     connector-curvature="0"
     nodetypes="ssczzcs"
     enable-background="new    "
     d="m 45.991631,4.8699808 c 0,-1 -1.8,-2 -3,-2 -1.2,0 -36.9999997,0 -37.9999997,0 -1,0 -3,1 -3,2 0,-1.7 1.3,-3 3,-3 l 37.9999997,0 c 1.7,0 3,1.3 3,3" /><path
     inkscape:connector-curvature="0"
     style="fill:url(#rect4064-0-3_1_-8)"
     id="rect4064-0-3"
     d="m 45.991631,42.869981 c 0,1.7 -1.3,3 -3,3 l -37.9999997,0 c -1.7,0 -3,-1.3 -3,-3 l 0,-38.0000002 c 0,-1.7 1.3,-3 3,-3 l 37.9999997,0 c 1.7,0 3,1.3 3,3" /></g></svg>