<?xml version="1.0" encoding="UTF-8" standalone="no"?>
<!-- Created with Inkscape (http://www.inkscape.org/) -->

<svg
   xmlns:dc="http://purl.org/dc/elements/1.1/"
   xmlns:cc="http://creativecommons.org/ns#"
   xmlns:rdf="http://www.w3.org/1999/02/22-rdf-syntax-ns#"
   xmlns:svg="http://www.w3.org/2000/svg"
   xmlns="http://www.w3.org/2000/svg"
   xmlns:xlink="http://www.w3.org/1999/xlink"
   xmlns:sodipodi="http://sodipodi.sourceforge.net/DTD/sodipodi-0.dtd"
   xmlns:inkscape="http://www.inkscape.org/namespaces/inkscape"
   width="48"
   height="48"
   id="svg2"
   version="1.1"
   inkscape:version="0.91 r13725"
   sodipodi:docname="pithos.svg"
   inkscape:export-filename="/home/afel/Pictures/evos-mockups/personal-app-icons/pithos.png"
   inkscape:export-xdpi="360"
   inkscape:export-ydpi="360">
  <defs
     id="defs4">
    <linearGradient
       inkscape:collect="always"
       id="linearGradient4391">
      <stop
         style="stop-color:#ffe082;stop-opacity:1;"
         offset="0"
         id="stop4393" />
      <stop
         style="stop-color:#edd27a;stop-opacity:1"
         offset="1"
         id="stop4395" />
    </linearGradient>
    <linearGradient
       inkscape:collect="always"
       id="linearGradient4275">
      <stop
         style="stop-color:#ffffff;stop-opacity:0.14901961"
         offset="0"
         id="stop4277" />
      <stop
         style="stop-color:#177ed5;stop-opacity:0"
         offset="1"
         id="stop4279" />
    </linearGradient>
    <inkscape:perspective
       sodipodi:type="inkscape:persp3d"
       inkscape:vp_x="0 : 12 : 1"
       inkscape:vp_y="0 : 1000 : 0"
       inkscape:vp_z="24 : 12 : 1"
       inkscape:persp3d-origin="12 : 8 : 1"
       id="perspective3810" />
    <linearGradient
       inkscape:collect="always"
       xlink:href="#linearGradient4275"
       id="linearGradient4281"
       x1="64"
       y1="1006.0065"
       x2="110.35573"
       y2="1052.3622"
       gradientUnits="userSpaceOnUse"
       gradientTransform="translate(-62.000001,-2.000033)" />
    <linearGradient
       inkscape:collect="always"
       xlink:href="#linearGradient4391"
       id="linearGradient4397"
       x1="24"
       y1="19.200428"
       x2="24"
       y2="48"
       gradientUnits="userSpaceOnUse" />
  </defs>
  <sodipodi:namedview
     id="base"
     pagecolor="#ffffff"
     bordercolor="#666666"
     borderopacity="1.0"
     inkscape:pageopacity="0.0"
     inkscape:pageshadow="2"
     inkscape:zoom="8"
     inkscape:cx="-11.558668"
     inkscape:cy="33.013432"
     inkscape:document-units="px"
     inkscape:current-layer="layer1"
     showgrid="false"
     inkscape:snap-grids="false"
     inkscape:object-paths="true"
     inkscape:snap-intersection-paths="true"
     inkscape:snap-smooth-nodes="true"
     inkscape:object-nodes="true"
     inkscape:snap-midpoints="true"
     inkscape:window-width="1680"
     inkscape:window-height="998"
     inkscape:window-x="0"
     inkscape:window-y="25"
     inkscape:window-maximized="1"
     inkscape:showpageshadow="false"
     borderlayer="true"
     inkscape:snap-bbox="true"
     inkscape:snap-nodes="true"
     inkscape:bbox-paths="true"
     inkscape:bbox-nodes="true"
     inkscape:snap-bbox-edge-midpoints="false"
     inkscape:snap-bbox-midpoints="false"
     inkscape:snap-others="true"
     inkscape:snap-global="true">
    <inkscape:grid
       type="xygrid"
       id="grid3808"
       empspacing="4"
       visible="true"
       enabled="true"
       snapvisiblegridlinesonly="true" />
  </sodipodi:namedview>
  <metadata
     id="metadata7">
    <rdf:RDF>
      <cc:Work
         rdf:about="">
        <dc:format>image/svg+xml</dc:format>
        <dc:type
           rdf:resource="http://purl.org/dc/dcmitype/StillImage" />
        <dc:title />
      </cc:Work>
    </rdf:RDF>
  </metadata>
  <g
     inkscape:label="Layer 1"
     inkscape:groupmode="layer"
     id="layer1"
     transform="translate(0,-1004.3622)">
    <path
       style="fill:#9d9d9d;fill-opacity:1;fill-rule:evenodd;stroke:none;stroke-width:1px;stroke-linecap:butt;stroke-linejoin:miter;stroke-opacity:1"
       d="m -49.721009,1047.2357 c 4,1 6,1 9,1 3,0 5,0 9,-1 -1,-3 -1,-6 0,-9 1,-3 7,-12 7,-20 0,-8 -6,-10 -6,-10 0,0 1,0 1,-2 0,-2 -2,-2 -11,-2 -9,0 -11,0 -11,2 0,2 1,2 1,2 0,0 -6,2 -6,10 0,8 6,17 7,20 1,3 1,6 0,9 z"
       id="path4135-0"
       inkscape:connector-curvature="0"
       sodipodi:nodetypes="czczzczzzczzc" />
    <g
       id="g4401">
      <path
         id="path4135"
         transform="translate(0,1004.3622)"
         d="M 24 2 C 17.755015 2 14.883719 2.0017371 13.708984 2.6699219 C 12.481257 2.5604565 11.189778 2.5111223 10.519531 2.5527344 C 9.3630468 2.6247344 8.3169901 2.9271125 7.4101562 3.4453125 C 5.5964887 4.4817125 4.4345356 6.3427062 4.0175781 8.5664062 C 3.2260425 12.78798 4.9215188 18.397881 9.5039062 23.806641 C 11.350498 29.174 14.322124 33.966371 15 36 C 16 39 16 42 15 45 C 19 46 21 46 24 46 C 27 46 29 46 33 45 C 32 42 32 39 33 36 C 33.676643 33.97007 36.639007 29.191433 38.486328 23.835938 C 43.087441 18.418153 44.791011 12.795597 43.998047 8.5664062 C 43.581089 6.3427062 42.419136 4.4817125 40.605469 3.4453125 C 39.698635 2.9271125 38.652578 2.6247344 37.496094 2.5527344 C 36.82329 2.5109636 35.524773 2.5614776 34.292969 2.671875 C 33.119813 2.0022676 30.249414 2 24 2 z M 10.96875 4.53125 C 11.407277 4.5252821 12.261258 4.66921 13.111328 4.9570312 C 13.367222 5.9816678 14 6 14 6 C 14 6 8 8 8 16 C 8 16.809009 8.0761578 17.628949 8.1875 18.451172 C 6.1435179 14.81256 5.5199309 11.402128 5.9824219 8.9355469 C 6.3154644 7.1592469 7.1535113 5.8952406 8.4023438 5.1816406 C 9.0985398 4.7838406 9.9504913 4.54465 10.96875 4.53125 z M 37.046875 4.53125 C 38.065134 4.54465 38.917085 4.7838406 39.613281 5.1816406 C 40.862114 5.8952406 41.700161 7.1592469 42.033203 8.9355469 C 42.497157 11.40993 41.86808 14.83477 39.808594 18.486328 C 39.922962 17.652314 40 16.820527 40 16 C 40 8 34 6 34 6 C 34 6 34.631884 5.9821461 34.888672 4.9628906 C 35.743856 4.6714803 36.605671 4.5252456 37.046875 4.53125 z "
         style="fill:url(#linearGradient4397);fill-opacity:1;fill-rule:evenodd;stroke:none;stroke-width:1px;stroke-linecap:butt;stroke-linejoin:miter;stroke-opacity:1" />
      <path
         id="path4135-1"
         transform="translate(0,1004.3622)"
         d="M 23.982422 1.9628906 C 17.733007 1.9628906 14.862609 1.9651656 13.689453 2.6347656 C 12.457649 2.5255656 11.159132 2.473625 10.486328 2.515625 C 9.3298441 2.587625 8.2837871 2.8900031 7.3769531 3.4082031 C 7.3769531 3.4082031 6.385593 3.9336688 5.984375 4.4804688 C 6.975157 3.9632688 9.9172879 3.4016719 10.935547 3.3886719 C 11.376751 3.3825719 12.734112 3.3995438 13.677734 3.6523438 C 13.677734 3.6523438 19.948994 3.0024926 23.974609 3 L 23.974609 3.0371094 C 27.999271 3.0371094 34.298828 3.6914062 34.298828 3.6914062 C 35.24245 3.4386063 36.597858 3.4196812 37.039062 3.4257812 C 38.057322 3.4387813 40.999452 4.0003781 41.990234 4.5175781 C 41.589016 3.9707781 40.597656 3.4453125 40.597656 3.4453125 C 39.690822 2.9271125 38.644765 2.6247344 37.488281 2.5527344 C 36.815477 2.5107344 35.51696 2.562675 34.285156 2.671875 C 33.112 2.002275 30.241602 2 23.992188 2 L 23.988281 2.2695312 L 23.982422 1.9628906 z "
         style="fill:#ffffff;fill-opacity:0.2;fill-rule:evenodd;stroke:none;stroke-width:1px;stroke-linecap:butt;stroke-linejoin:miter;stroke-opacity:1" />
      <path
         sodipodi:nodetypes="czccscc"
         inkscape:connector-curvature="0"
         id="path4135-0-9"
         d="m 15,1049.3622 c 4,1 6,1 9,1 3,0 5,0 9,-1 -0.133986,-0.402 -0.25002,-0.8039 -0.348102,-1.2059 C 31,1048.5989 28,1049.3622 24,1049.3622 c -3.416952,0 -6.754218,-0.7078 -8.645232,-1.2145 -0.09874,0.4063 -0.219343,0.8082 -0.354768,1.2145 z"
         style="fill:#000000;fill-opacity:0.1;fill-rule:evenodd;stroke:none;stroke-width:1px;stroke-linecap:butt;stroke-linejoin:miter;stroke-opacity:1" />
      <rect
         ry="0.5"
         rx="0.5"
         y="1037.3622"
         x="13"
         height="1"
         width="22"
         id="rect4297"
         style="opacity:1;fill:#ffe082;fill-opacity:1;stroke:none;stroke-width:1;stroke-linecap:round;stroke-linejoin:round;stroke-miterlimit:4;stroke-dasharray:none;stroke-opacity:1" />
      <rect
         ry="0.5"
         rx="0.5"
         y="1035.3622"
         x="12"
         height="1"
         width="24"
         id="rect4297-6"
         style="opacity:1;fill:#ffe082;fill-opacity:1;stroke:none;stroke-width:1;stroke-linecap:round;stroke-linejoin:round;stroke-miterlimit:4;stroke-dasharray:none;stroke-opacity:1" />
      <rect
         ry="0.5"
         rx="0.5"
         y="1033.3622"
         x="11"
         height="1"
         width="26"
         id="rect4297-6-8"
         style="opacity:1;fill:#ffe082;fill-opacity:1;stroke:none;stroke-width:1;stroke-linecap:round;stroke-linejoin:round;stroke-miterlimit:4;stroke-dasharray:none;stroke-opacity:1" />
      <rect
         ry="0.5"
         rx="0.5"
         y="1031.3622"
         x="10"
         height="1"
         width="28"
         id="rect4297-6-8-2"
         style="opacity:1;fill:#ffe082;fill-opacity:1;stroke:none;stroke-width:1;stroke-linecap:round;stroke-linejoin:round;stroke-miterlimit:4;stroke-dasharray:none;stroke-opacity:1" />
      <path
         inkscape:connector-curvature="0"
         id="path4283-1-5"
         d="m 18.859286,1014.8549 c -0.266367,0.149 -0.449031,0.2887 -0.521189,0.4137 -0.432683,0.7494 3.433903,6.6978 5.398723,9.6321 a 2.5,3 60 0 0 -1.880685,0.4615 2.5,3 60 0 0 -1.348069,3.6651 2.5,3 60 0 0 3.848087,0.6651 2.5,3 60 0 0 1.348069,-3.6651 2.5,3 60 0 0 -0.178957,-0.2553 c -0.521931,-0.7363 -5.876435,-8.3277 -5.321048,-9.271 0.583035,-0.9901 8.598469,0.893 9.330543,0.161 0.732073,-0.732 -1.207627,-3.696 -2.402351,-4.161 -0.470674,-0.1831 -6.409099,1.3088 -8.273019,2.3543 z"
         style="opacity:1;fill:#bfa864;fill-opacity:1;stroke:none;stroke-width:2;stroke-linecap:round;stroke-linejoin:round;stroke-miterlimit:4;stroke-dasharray:none;stroke-opacity:1" />
      <path
         sodipodi:nodetypes="cczc"
         inkscape:connector-curvature="0"
         id="path4389"
         d="m 14,1010.3622 20,0 c 0,0 -0.03125,1 -10,1 -9.96875,0 -10,-1 -10,-1 z"
         style="fill:#ffffff;fill-opacity:0.3;fill-rule:evenodd;stroke:none;stroke-width:1px;stroke-linecap:butt;stroke-linejoin:miter;stroke-opacity:1" />
      <path
         sodipodi:nodetypes="czcczcc"
         inkscape:connector-curvature="0"
         id="path4399"
         d="m 13.111328,1009.3192 c 0,0 0.122024,0.5163 0.392049,0.7863 0.270025,0.27 0.496623,0.2567 0.496623,0.2567 l 20,0 c 0,0 0.276237,-0.021 0.51746,-0.2851 0.241223,-0.2647 0.371212,-0.752 0.371212,-0.752 z"
         style="fill:#000000;fill-opacity:0.1;fill-rule:evenodd;stroke:none;stroke-width:1px;stroke-linecap:butt;stroke-linejoin:miter;stroke-opacity:1" />
      <path
         id="path4135-2"
         d="m 23.999999,1006.3622 c -6.244985,0 -9.116281,0 -10.291016,0.6699 -1.227727,-0.1094 -2.519206,-0.1588 -3.189453,-0.1172 -1.1564831,0.072 -2.2025401,0.3744 -3.1093741,0.8926 -1.813667,1.0364 -2.97562,2.8974 -3.392578,5.1211 -0.791536,4.2216 0.903941,9.8315 5.486328,15.2402 1.8465911,5.3674 4.8182171,10.1598 5.4960931,12.1934 1,3 1,6 0,9 4,1 6,1 9,1 3,0 5,0 9,-1 -1,-3 -1,-6 0,-9 0.676643,-2.0299 3.639007,-6.8086 5.48633,-12.1641 4.60111,-5.4177 6.30468,-11.0403 5.51172,-15.2695 -0.41696,-2.2237 -1.57891,-4.0847 -3.39258,-5.1211 -0.90684,-0.5182 -1.95289,-0.8206 -3.109376,-0.8926 -0.672804,-0.042 -1.971321,0.01 -3.203125,0.1192 -1.173156,-0.6696 -4.043555,-0.6719 -10.292969,-0.6719 z m -13.03125,2.5313 c 0.438527,-0.01 1.292508,0.1379 2.142578,0.4257 0.255894,1.0247 0.888672,1.043 0.888672,1.043 0,0 -5.9999991,2 -5.9999991,10 0,0.809 0.07616,1.6289 0.1875,2.4512 -2.043982,-3.6386 -2.667569,-7.0491 -2.205078,-9.5157 0.333042,-1.7763 1.171089,-3.0403 2.419922,-3.7539 0.696196,-0.3978 1.548147,-0.6369 2.5664051,-0.6503 z m 26.078125,0 c 1.018255,0.013 1.870215,0.2525 2.566405,0.6503 1.24883,0.7136 2.08688,1.9776 2.41992,3.7539 0.46396,2.4744 -0.16512,5.8993 -2.22461,9.5508 0.11437,-0.834 0.19141,-1.6658 0.19141,-2.4863 0,-8 -6,-10 -6,-10 0,0 0.631884,-0.018 0.888672,-1.0371 0.855184,-0.2914 1.716999,-0.4377 2.158203,-0.4316 z"
         style="fill:url(#linearGradient4281);fill-opacity:1;fill-rule:evenodd;stroke:none;stroke-width:1px;stroke-linecap:butt;stroke-linejoin:miter;stroke-opacity:1"
         inkscape:connector-curvature="0" />
    </g>
  </g>
</svg>
