<?xml version="1.0" encoding="UTF-8" standalone="no"?>
<!-- Created with Inkscape (http://www.inkscape.org/) -->

<svg
   xmlns:dc="http://purl.org/dc/elements/1.1/"
   xmlns:cc="http://creativecommons.org/ns#"
   xmlns:rdf="http://www.w3.org/1999/02/22-rdf-syntax-ns#"
   xmlns:svg="http://www.w3.org/2000/svg"
   xmlns="http://www.w3.org/2000/svg"
   xmlns:xlink="http://www.w3.org/1999/xlink"
   xmlns:sodipodi="http://sodipodi.sourceforge.net/DTD/sodipodi-0.dtd"
   xmlns:inkscape="http://www.inkscape.org/namespaces/inkscape"
   width="48"
   height="48"
   viewBox="0 0 48 48"
   id="svg2"
   version="1.1"
   inkscape:version="0.91 r13725"
   sodipodi:docname="preferences-desktop-wallpaper.svg"
   inkscape:export-filename="/home/poltertec/Downloads/testikel2.png"
   inkscape:export-xdpi="360"
   inkscape:export-ydpi="360">
  <defs
     id="defs4">
    <filter
       style="color-interpolation-filters:sRGB"
       inkscape:label="Drop Shadow"
       id="filter4630">
      <feFlood
         flood-opacity="1"
         flood-color="rgb(0,0,0)"
         result="flood"
         id="feFlood4632" />
      <feComposite
         in="flood"
         in2="SourceGraphic"
         operator="in"
         result="composite1"
         id="feComposite4634" />
      <feGaussianBlur
         in="composite1"
         stdDeviation="0.5"
         result="blur"
         id="feGaussianBlur4636" />
      <feOffset
         dx="0"
         dy="0.5"
         result="offset"
         id="feOffset4638" />
      <feComposite
         in="SourceGraphic"
         in2="offset"
         operator="over"
         result="composite2"
         id="feComposite4640" />
    </filter>
    <linearGradient
       inkscape:collect="always"
       id="linearGradient4165">
      <stop
         style="stop-color:#ffffff;stop-opacity:0.15000001"
         offset="0"
         id="stop4167" />
      <stop
         style="stop-color:#177ed5;stop-opacity:0;"
         offset="1"
         id="stop4169" />
    </linearGradient>
    <linearGradient
       inkscape:collect="always"
       xlink:href="#linearGradient4165"
       id="linearGradient4171-1"
       x1="-1.0814617"
       y1="1003.271"
       x2="48.873558"
       y2="1053.4529"
       gradientUnits="userSpaceOnUse"
       gradientTransform="matrix(0.96086443,0,0,0.9565206,1.039138,44.71285)" />
    <linearGradient
       inkscape:collect="always"
       xlink:href="#linearGradient4160"
       id="linearGradient4166"
       x1="5"
       y1="1008.3622"
       x2="46"
       y2="1050.3622"
       gradientUnits="userSpaceOnUse"
       gradientTransform="matrix(-0.81818182,0,0,0.81818182,43.636364,180.97495)" />
    <linearGradient
       inkscape:collect="always"
       id="linearGradient4160">
      <stop
         style="stop-color:#365994;stop-opacity:1"
         offset="0"
         id="stop4162" />
      <stop
         style="stop-color:#856c86;stop-opacity:1"
         offset="1"
         id="stop4164" />
    </linearGradient>
  </defs>
  <sodipodi:namedview
     id="base"
     pagecolor="#ffffff"
     bordercolor="#666666"
     borderopacity="1.0"
     inkscape:pageopacity="0"
     inkscape:pageshadow="2"
     inkscape:zoom="11.313709"
     inkscape:cx="-12.706093"
     inkscape:cy="15.697856"
     inkscape:document-units="px"
     inkscape:current-layer="layer1"
     showgrid="true"
     units="px"
     inkscape:window-width="1920"
     inkscape:window-height="1008"
     inkscape:window-x="0"
     inkscape:window-y="0"
     inkscape:window-maximized="1"
     inkscape:showpageshadow="false"
     showguides="false">
    <inkscape:grid
       type="xygrid"
       id="grid4140" />
  </sodipodi:namedview>
  <metadata
     id="metadata7">
    <rdf:RDF>
      <cc:Work
         rdf:about="">
        <dc:format>image/svg+xml</dc:format>
        <dc:type
           rdf:resource="http://purl.org/dc/dcmitype/StillImage" />
        <dc:title />
      </cc:Work>
    </rdf:RDF>
  </metadata>
  <g
     inkscape:label="Laag 1"
     inkscape:groupmode="layer"
     id="layer1"
     transform="translate(0,-1004.3622)">
    <path
       style="fill:#37474f;fill-opacity:1"
       d="m 6,1008.3622 c -2.21,0 -4,1.79 -4,4 l 0,24 c 0,2.21 1.79,4 4,4 l 14,0 0,4 -4,0 0,4 16,0 0,-4 -4,0 0,-4 14,0 c 2.21,0 4,-1.79 4,-4 l 0,-24 c 0,-2.21 -1.79,-4 -4,-4 l -36,0 z"
       id="path4"
       inkscape:connector-curvature="0" />
    <path
       d="m 20,1040.3622 0,4 -4,0 0,4 16,0 0,-4 -4,0 0,-4 -8,0 z"
       id="path4180"
       style="fill:#37474f;fill-opacity:1"
       inkscape:connector-curvature="0" />
    <path
       style="fill:#ffffff;fill-opacity:0.2;stroke:none;stroke-opacity:1"
       d="M 6 4 C 3.79 4 2 5.79 2 8 L 2 9 C 2 6.79 3.79 5 6 5 L 42 5 C 44.21 5 46 6.79 46 9 L 46 8 C 46 5.79 44.21 4 42 4 L 6 4 z M 16 40 L 16 41 L 20 41 L 20 40 L 16 40 z M 28 40 L 28 41 L 32 41 L 32 40 L 28 40 z "
       transform="translate(0,1004.3622)"
       id="path4190" />
    <path
       style="opacity:1;fill:url(#linearGradient4166);fill-opacity:1;stroke:none;stroke-width:0;stroke-linecap:butt;stroke-linejoin:miter;stroke-miterlimit:0;stroke-dasharray:none;stroke-opacity:1"
       d="m 6,1012.3622 0,24 36,0 0,-24 -36,0 z"
       id="rect4153"
       inkscape:connector-curvature="0" />
    <path
       style="fill:#000000;fill-opacity:0.2"
       d="m 2,1035.3622 0,1 c 0,2.21 1.79,4 4,4 l 22,0 0,-1 -22,0 c -2.21,0 -4,-1.79 -4,-4 z m 44,0 c 0,2.21 -1.79,4 -4,4 l -14,0 0,1 14,0 c 2.21,0 4,-1.79 4,-4 z m -30,12 0,1 16,0 0,-1 z"
       id="path4195"
       inkscape:connector-curvature="0"
       sodipodi:nodetypes="cssccsccsccsscccccc" />
    <path
       style="fill:url(#linearGradient4171-1);fill-opacity:1;stroke:none;stroke-width:2;stroke-linecap:round;stroke-linejoin:round;stroke-miterlimit:4;stroke-dasharray:none;stroke-opacity:1"
       d="m 6,1008.3622 c -2.21,0 -4,1.79 -4,4 l 0,16 0,8 c 0,2.21 1.79,4 4,4 l 14,0 0,4 -4,0 0,4 16,0 0,-4 -4,0 0,-4 14,0 c 2.21,0 4,-1.79 4,-4 l 0,-24 c 0,-2.21 -1.79,-4 -4,-4 l -36,0 z"
       id="circle4163-3"
       inkscape:connector-curvature="0" />
    <path
       inkscape:connector-curvature="0"
       id="path4167"
       d="m 6,1012.3622 0,24 36,0 0,-24 -36,0 z"
       style="opacity:1;fill:url(#linearGradient4166);fill-opacity:1;stroke:none;stroke-width:0;stroke-linecap:butt;stroke-linejoin:miter;stroke-miterlimit:0;stroke-dasharray:none;stroke-opacity:1" />
    <path
       d="m 32,1030.0895 0,-7.6364 c 0,-0.7032 -0.569545,-1.2727 -1.272727,-1.2727 l -11.454546,0 c -0.703181,0 -1.272727,0.5695 -1.272727,1.2727 l 0,7.6364 c 0,0.7032 0.569546,1.2727 1.272727,1.2727 l 11.454546,0 c 0.703182,0 1.272727,-0.5695 1.272727,-1.2727 z m -9.227273,-3.5 1.590909,1.9123 2.227273,-2.8669 2.863636,3.8182 -8.90909,0 2.227272,-2.8636 z"
       id="path4-7"
       inkscape:connector-curvature="0"
       style="fill:#000000;fill-opacity:0.2" />
    <path
       style="fill:#ededed;fill-opacity:1"
       inkscape:connector-curvature="0"
       id="path4156"
       d="m 31,1029.0895 0,-7.6364 c 0,-0.7032 -0.569545,-1.2727 -1.272727,-1.2727 l -11.454546,0 c -0.703181,0 -1.272727,0.5695 -1.272727,1.2727 l 0,7.6364 c 0,0.7032 0.569546,1.2727 1.272727,1.2727 l 11.454546,0 c 0.703182,0 1.272727,-0.5695 1.272727,-1.2727 z m -9.227273,-3.5 1.590909,1.9123 2.227273,-2.8669 2.863636,3.8182 -8.90909,0 2.227272,-2.8636 z" />
  </g>
</svg>
