<?xml version="1.0" encoding="UTF-8" standalone="no"?>
<!-- Created with Inkscape (http://www.inkscape.org/) -->

<svg
   xmlns:dc="http://purl.org/dc/elements/1.1/"
   xmlns:cc="http://creativecommons.org/ns#"
   xmlns:rdf="http://www.w3.org/1999/02/22-rdf-syntax-ns#"
   xmlns:svg="http://www.w3.org/2000/svg"
   xmlns="http://www.w3.org/2000/svg"
   xmlns:xlink="http://www.w3.org/1999/xlink"
   xmlns:sodipodi="http://sodipodi.sourceforge.net/DTD/sodipodi-0.dtd"
   xmlns:inkscape="http://www.inkscape.org/namespaces/inkscape"
   width="48"
   height="48"
   viewBox="0 0 48 48.000001"
   id="svg2"
   version="1.1"
   inkscape:version="0.91 r13725"
   sodipodi:docname="preferences-color.svg"
   inkscape:export-filename="/home/poltertec/Downloads/testikel2.png"
   inkscape:export-xdpi="360"
   inkscape:export-ydpi="360">
  <defs
     id="defs4">
    <filter
       style="color-interpolation-filters:sRGB"
       inkscape:label="Drop Shadow"
       id="filter4630">
      <feFlood
         flood-opacity="1"
         flood-color="rgb(0,0,0)"
         result="flood"
         id="feFlood4632" />
      <feComposite
         in="flood"
         in2="SourceGraphic"
         operator="in"
         result="composite1"
         id="feComposite4634" />
      <feGaussianBlur
         in="composite1"
         stdDeviation="0.5"
         result="blur"
         id="feGaussianBlur4636" />
      <feOffset
         dx="0"
         dy="0.5"
         result="offset"
         id="feOffset4638" />
      <feComposite
         in="SourceGraphic"
         in2="offset"
         operator="over"
         result="composite2"
         id="feComposite4640" />
    </filter>
    <linearGradient
       inkscape:collect="always"
       xlink:href="#linearGradient4165"
       id="linearGradient4171-1"
       x1="7"
       y1="1011.3622"
       x2="41.000019"
       y2="1045.3622"
       gradientUnits="userSpaceOnUse"
       gradientTransform="matrix(0.95651664,0,0,0.9565206,1.543486,44.71285)" />
    <linearGradient
       inkscape:collect="always"
       id="linearGradient4165">
      <stop
         style="stop-color:#ffffff;stop-opacity:0.15000001"
         offset="0"
         id="stop4167" />
      <stop
         style="stop-color:#177ed5;stop-opacity:0;"
         offset="1"
         id="stop4169" />
    </linearGradient>
  </defs>
  <sodipodi:namedview
     id="base"
     pagecolor="#ffffff"
     bordercolor="#666666"
     borderopacity="1.0"
     inkscape:pageopacity="0"
     inkscape:pageshadow="2"
     inkscape:zoom="1.4142136"
     inkscape:cx="-63.962193"
     inkscape:cy="-52.617821"
     inkscape:document-units="px"
     inkscape:current-layer="layer1"
     showgrid="false"
     units="px"
     inkscape:window-width="960"
     inkscape:window-height="688"
     inkscape:window-x="935"
     inkscape:window-y="274"
     inkscape:window-maximized="0"
     inkscape:showpageshadow="false">
    <inkscape:grid
       type="xygrid"
       id="grid4140" />
  </sodipodi:namedview>
  <metadata
     id="metadata7">
    <rdf:RDF>
      <cc:Work
         rdf:about="">
        <dc:format>image/svg+xml</dc:format>
        <dc:type
           rdf:resource="http://purl.org/dc/dcmitype/StillImage" />
        <dc:title />
      </cc:Work>
    </rdf:RDF>
  </metadata>
  <g
     inkscape:label="Laag 1"
     inkscape:groupmode="layer"
     id="layer1"
     transform="translate(0,-1004.3622)">
    <path
       d="m 31.189771,1006.4484 c -0.529999,-0.01 -1.069606,0.091 -1.599605,0.3008 l -14.730432,6.0996 c -1.499997,0.62 -2.418979,2.0696 -2.458979,3.5996 -0.01,0.54 0.07883,1.0794 0.298827,1.6094 l 9.910132,23.9297 c 0.629999,1.52 2.100151,2.4409 3.660147,2.4609 0.519999,0 1.040779,-0.091 1.550778,-0.3007 l 14.730432,-6.0997 c 2.029995,-0.84 3.009915,-3.1789 2.169917,-5.2089 l -9.919898,-23.9297 c -0.619998,-1.5 -2.081323,-2.431 -3.611319,-2.461 z m -14.77926,8 c 1.099997,0 1.999995,0.9 1.999995,2 0,1.1 -0.899998,2 -1.999995,2 -1.099997,0 -1.999995,-0.9 -1.999995,-2 0,-1.1 0.899998,-2 1.999995,-2 z"
       id="path4138"
       inkscape:connector-curvature="0"
       style="fill:#ad1457;fill-opacity:1" />
    <path
       inkscape:connector-curvature="0"
       style="fill:#000000;fill-opacity:0.19607843"
       d="m 34.428573,1008.9566 9.850036,22.9035 c 0.866811,2.0186 -0.08247,4.3705 -2.101172,5.2373 l -14.648466,6.294 c -0.507159,0.2168 -1.026176,0.3151 -1.54613,0.322 -1.550072,6e-4 -3.021005,-0.8926 -3.677486,-2.3865 l 0.382827,0.8899 c 0.650043,1.5115 2.131557,2.415 3.691683,2.4144 0.519956,-0.01 1.038955,-0.1052 1.546131,-0.322 l 14.648461,-6.294 c 2.018698,-0.8668 2.967943,-3.2186 2.101173,-5.2373 L 34.441228,1008.981 c -0.0037,-0.01 -0.009,-0.016 -0.01277,-0.024 z"
       id="path4157" />
    <path
       id="path4178"
       d="m 15.077567,1012.7578 c -1.500168,0.6196 -2.418622,2.0696 -2.459033,3.5996 -0.01013,0.54 0.07805,1.0787 0.297906,1.6088 l 9.903683,23.9322 c 0.004,0.01 0.0096,0.018 0.01382,0.028 l -9.532899,-23.0373 c -0.219858,-0.53 -0.308051,-1.0687 -0.297906,-1.6087 0.04041,-1.53 0.958866,-2.98 2.459033,-3.5996 l 14.732803,-6.094 c 0.530056,-0.2099 1.069313,-0.3105 1.599311,-0.3003 1.521245,0.03 2.972904,0.9511 3.598525,2.4362 l -0.372283,-0.8986 c -0.619714,-1.5001 -2.080854,-2.4303 -3.610845,-2.4607 -0.529997,-0.01 -1.069257,0.09 -1.599312,0.3003 l -14.732803,6.094 z"
       style="fill:#ffffff;fill-opacity:0.2"
       inkscape:connector-curvature="0" />
    <path
       d="m 33.896481,1012.793 c -0.48533,-0.2132 -1.022163,-0.3278 -1.592161,-0.338 l -15.94335,-0.039 c -1.623076,0 -3.029163,0.9793 -3.654904,2.376 -0.217049,0.4946 -0.342641,1.0266 -0.343557,1.6005 l -0.0625,25.9005 c -0.0035,1.6454 0.999003,3.0612 2.431152,3.68 0.479949,0.2001 0.995556,0.3168 1.547094,0.3192 l 15.943351,0.039 c 2.196921,0.01 4.001528,-1.7757 4.007474,-3.9727 l 0.05348,-25.9042 c 0.005,-1.6231 -0.985473,-3.0447 -2.386085,-3.6613 z m -16.719784,1.696 c 1.015277,0.4234 1.499592,1.6004 1.076256,2.6157 -0.423336,1.0153 -1.600383,1.4996 -2.61566,1.0763 -1.015276,-0.4234 -1.499591,-1.6004 -1.076255,-2.6157 0.423336,-1.0153 1.600382,-1.4996 2.615659,-1.0763 z"
       id="path4145"
       inkscape:connector-curvature="0"
       style="fill:#e91e63;fill-opacity:1" />
    <path
       inkscape:connector-curvature="0"
       style="fill:#000000;fill-opacity:0.19607843"
       d="m 36.28125,1016.4267 -0.05273,24.9316 c -0.0059,2.197 -1.810892,3.9786 -4.007813,3.9727 l -15.943359,-0.039 c -0.551538,0 -1.066926,-0.1182 -1.546875,-0.3183 -1.422918,-0.6149 -2.41835,-2.0186 -2.427735,-3.6504 l -0.002,0.9687 c -0.0035,1.6454 0.997539,3.0628 2.429688,3.6817 0.479949,0.2001 0.995337,0.3159 1.546875,0.3183 l 15.943359,0.039 c 2.196921,0.01 4.001867,-1.7757 4.007813,-3.9727 l 0.05469,-25.9043 c 2.9e-5,-0.01 -0.0019,-0.018 -0.002,-0.027 z"
       id="path4147" />
    <path
       inkscape:connector-curvature="0"
       style="fill:#ffffff;fill-opacity:0.2"
       d="m 16.361328,1012.415 c -1.623076,-0.01 -3.028556,0.9802 -3.654297,2.3769 -0.217049,0.4946 -0.342834,1.0258 -0.34375,1.5996 l -0.0625,25.9004 c -2.2e-5,0.011 0.0019,0.021 0.002,0.031 l 0.06055,-24.9317 c 9.16e-4,-0.5738 0.126701,-1.105 0.34375,-1.5996 0.625741,-1.3967 2.031221,-2.382 3.654297,-2.3769 l 15.94336,0.041 c 0.569997,0.01 1.106466,0.1247 1.591796,0.3379 1.392605,0.613 2.378439,2.0213 2.384766,3.6328 l 0.002,-0.9727 c 0.0048,-1.623 -0.986204,-3.0436 -2.386816,-3.6601 -0.48533,-0.2132 -1.021799,-0.3278 -1.591796,-0.3379 l -15.94336,-0.041 z"
       id="path4165" />
    <path
       id="path4143"
       d="m 33.950544,1019.6496 c -0.368591,-0.3809 -0.822142,-0.6902 -1.345931,-0.9152 L 17.86123,1012.666 c -1.500523,-0.6187 -3.174485,-0.2395 -4.282167,0.8166 -0.388026,0.3757 -0.705568,0.8207 -0.923525,1.3515 l -9.8570828,23.9516 c -0.625753,1.5218 -0.233427,3.2116 0.858138,4.3263 0.368558,0.3668 0.80171,0.6699 1.311324,0.8808 l 14.7433818,6.0683 c 2.031367,0.8367 4.375925,-0.1298 5.212614,-2.1612 l 9.850162,-23.9585 c 0.618731,-1.5005 0.239718,-3.1912 -0.823531,-4.2918 z m -16.118609,-4.7558 c 0.779642,0.776 0.782632,2.0488 0.0066,2.8284 -0.775988,0.7796 -2.048776,0.7826 -2.828418,0.01 -0.779642,-0.776 -0.782631,-2.0488 -0.0066,-2.8284 0.775988,-0.7797 2.048776,-0.7826 2.828418,-0.01 z"
       inkscape:connector-curvature="0"
       style="fill:#f48fb1;fill-opacity:1" />
    <path
       id="path4155-2"
       d="m 34.783879,1023.9169 -9.483089,23.0578 c -0.83679,2.0313 -3.181742,2.9975 -5.213068,2.1607 l -14.7430288,-6.0692 c -0.509617,-0.211 -0.942847,-0.5132 -1.31138,-0.8801 -1.084451,-1.1075 -1.474679,-2.7836 -0.865879,-4.2976 l -0.368385,0.896 c -0.625863,1.5217 -0.235625,3.2125 0.855861,4.3273 0.368533,0.3668 0.801781,0.669 1.31138,0.88 l 14.7430258,6.0692 c 2.031326,0.8368 4.376236,-0.1293 5.213068,-2.1607 l 9.852962,-23.9573 c 0.0035,-0.01 0.005,-0.018 0.0084,-0.026 z"
       style="fill:#000000;fill-opacity:0.19607843"
       inkscape:connector-curvature="0" />
    <circle
       style="fill:#000000;fill-opacity:0.2;stroke:none"
       id="path4161"
       cx="16.950001"
       cy="1016.8121"
       r="2.05" />
    <circle
       r="2.05"
       cy="1016.3121"
       cx="16.450001"
       id="circle4163"
       style="fill:#e0e0e0;fill-opacity:1;stroke:none" />
    <path
       id="path4176"
       d="m 17.843374,1012.6581 c -1.500802,-0.6181 -3.174386,-0.2371 -4.281589,0.8196 -0.387858,0.3758 -0.705069,0.8201 -0.922787,1.351 l -9.8462358,23.956 c -0.004,0.01 -0.0061,0.02 -0.01,0.03 l 9.4783138,-23.0601 c 0.217718,-0.531 0.534929,-0.9752 0.922787,-1.3511 1.107203,-1.0567 2.780787,-1.4377 4.281588,-0.8196 l 14.745449,6.0633 c 0.523889,0.2248 0.977283,0.5336 1.346045,0.9144 1.057664,1.0939 1.43814,2.7703 0.834979,4.2647 l 0.369398,-0.8998 c 0.617938,-1.5008 0.237291,-3.1906 -0.826452,-4.2907 -0.368763,-0.3808 -0.822157,-0.6896 -1.346047,-0.9144 l -14.745447,-6.0633 z"
       style="fill:#ffffff;fill-opacity:0.2"
       inkscape:connector-curvature="0" />
    <path
       style="fill:url(#linearGradient4171-1);fill-opacity:1;stroke:none;stroke-width:2;stroke-linecap:round;stroke-linejoin:round;stroke-miterlimit:4;stroke-dasharray:none;stroke-opacity:1"
       d="m 31.189453,1006.4481 c -0.529999,-0.01 -1.06961,0.091 -1.599609,0.3008 l -13.658203,5.6563 c -0.877682,0.095 -1.712065,0.4665 -2.353516,1.0781 -0.388026,0.3757 -0.703918,0.8208 -0.921875,1.3516 l -9.8574219,23.9511 c -0.625753,1.5218 -0.2341431,3.2115 0.8574219,4.3262 0.368558,0.3668 0.802886,0.67 1.3125,0.8809 l 14.742188,6.0683 c 0.507841,0.2092 1.036125,0.3056 1.554687,0.3008 1.555687,-0.014 3.030686,-0.9393 3.658203,-2.4629 l 0.652344,-1.584 6.644531,0.016 c 2.196921,0.01 4.001867,-1.7757 4.007813,-3.9727 l 0.0039,-1.6934 6.318359,-2.6172 c 2.029995,-0.84 3.00992,-3.1789 2.169922,-5.2089 l -9.919922,-23.9297 c -0.619998,-1.5 -2.081332,-2.431 -3.611328,-2.461 z"
       id="path4155"
       inkscape:connector-curvature="0" />
  </g>
</svg>
