<?xml version="1.0" encoding="UTF-8" standalone="no"?>
<!-- Created with Inkscape (http://www.inkscape.org/) -->

<svg
   xmlns:dc="http://purl.org/dc/elements/1.1/"
   xmlns:cc="http://creativecommons.org/ns#"
   xmlns:rdf="http://www.w3.org/1999/02/22-rdf-syntax-ns#"
   xmlns:svg="http://www.w3.org/2000/svg"
   xmlns="http://www.w3.org/2000/svg"
   xmlns:xlink="http://www.w3.org/1999/xlink"
   xmlns:sodipodi="http://sodipodi.sourceforge.net/DTD/sodipodi-0.dtd"
   xmlns:inkscape="http://www.inkscape.org/namespaces/inkscape"
   width="48"
   height="48"
   viewBox="0 0 48 48"
   id="svg2"
   version="1.1"
   inkscape:version="0.91 r13725"
   sodipodi:docname="preferences-system-notifications.svg"
   inkscape:export-filename="/home/poltertec/Downloads/testikel2.png"
   inkscape:export-xdpi="360"
   inkscape:export-ydpi="360">
  <defs
     id="defs4">
    <filter
       style="color-interpolation-filters:sRGB"
       inkscape:label="Drop Shadow"
       id="filter4630">
      <feFlood
         flood-opacity="1"
         flood-color="rgb(0,0,0)"
         result="flood"
         id="feFlood4632" />
      <feComposite
         in="flood"
         in2="SourceGraphic"
         operator="in"
         result="composite1"
         id="feComposite4634" />
      <feGaussianBlur
         in="composite1"
         stdDeviation="0.5"
         result="blur"
         id="feGaussianBlur4636" />
      <feOffset
         dx="0"
         dy="0.5"
         result="offset"
         id="feOffset4638" />
      <feComposite
         in="SourceGraphic"
         in2="offset"
         operator="over"
         result="composite2"
         id="feComposite4640" />
    </filter>
    <linearGradient
       inkscape:collect="always"
       xlink:href="#linearGradient4165"
       id="linearGradient4171-1"
       x1="7"
       y1="1011.3622"
       x2="41.000019"
       y2="1045.3622"
       gradientUnits="userSpaceOnUse"
       gradientTransform="matrix(0.95651664,0,0,0.9565206,1.043486,44.71285)" />
    <linearGradient
       inkscape:collect="always"
       id="linearGradient4165">
      <stop
         style="stop-color:#ffffff;stop-opacity:0.15000001"
         offset="0"
         id="stop4167" />
      <stop
         style="stop-color:#177ed5;stop-opacity:0;"
         offset="1"
         id="stop4169" />
    </linearGradient>
  </defs>
  <sodipodi:namedview
     id="base"
     pagecolor="#9e9e9e"
     bordercolor="#666666"
     borderopacity="1.0"
     inkscape:pageopacity="0"
     inkscape:pageshadow="2"
     inkscape:zoom="8.0000004"
     inkscape:cx="46.601984"
     inkscape:cy="24.865675"
     inkscape:document-units="px"
     inkscape:current-layer="layer1"
     showgrid="true"
     units="px"
     inkscape:window-width="1278"
     inkscape:window-height="688"
     inkscape:window-x="0"
     inkscape:window-y="0"
     inkscape:window-maximized="0"
     inkscape:showpageshadow="false">
    <inkscape:grid
       type="xygrid"
       id="grid4140" />
  </sodipodi:namedview>
  <metadata
     id="metadata7">
    <rdf:RDF>
      <cc:Work
         rdf:about="">
        <dc:format>image/svg+xml</dc:format>
        <dc:type
           rdf:resource="http://purl.org/dc/dcmitype/StillImage" />
        <dc:title />
      </cc:Work>
    </rdf:RDF>
  </metadata>
  <g
     inkscape:label="Laag 1"
     inkscape:groupmode="layer"
     id="layer1"
     transform="translate(0,-1004.3622)">
    <path
       style="fill:#455a64;fill-opacity:1;stroke:none;stroke-width:0.40000001;stroke-miterlimit:4;stroke-dasharray:none;stroke-opacity:0.1"
       d="M 8 7 C 5.784 7 4 8.784 4 11 L 4 33 C 4 35.216 5.784 37 8 37 L 37 37 L 46 46 L 46 33 L 46 11 C 46 8.784 44.216 7 42 7 L 8 7 z "
       transform="translate(0,1004.3622)"
       id="rect4191" />
    <path
       style="fill:#ffffff;fill-opacity:0.2;stroke:none;stroke-width:0.40000001;stroke-miterlimit:4;stroke-dasharray:none;stroke-opacity:0.1"
       d="M 8 7 C 5.784 7 4 8.784 4 11 L 4 12 C 4 9.784 5.784 8 8 8 L 42 8 C 44.216 8 46 9.784 46 12 L 46 11 C 46 8.784 44.216 7 42 7 L 8 7 z "
       transform="translate(0,1004.3622)"
       id="path4196" />
    <circle
       style="fill:#c62828;fill-opacity:1;stroke:none;stroke-width:0.40000001;stroke-miterlimit:4;stroke-dasharray:none;stroke-opacity:0.1"
       id="path4189"
       cx="11.5"
       cy="1015.8622"
       r="9.5" />
    <path
       inkscape:connector-curvature="0"
       d="m 11.5,1022.3622 c 0.711759,0 1.294116,-0.5848 1.294116,-1.2997 l -2.588232,0 c 0,0.7149 0.582357,1.2997 1.294116,1.2997 z m 4.205884,-3.8998 0,-3.5753 c 0,-1.9954 -1.378241,-3.666 -3.2353,-4.108 l 0,-0.442 c 0,-0.5393 -0.433522,-0.9749 -0.970584,-0.9749 -0.537062,0 -0.970586,0.4356 -0.970586,0.9749 l 0,0.442 c -1.857057,0.442 -3.235298,2.1126 -3.235298,4.108 l 0,3.5753 L 6,1019.7621 l 0,0.6499 11,0 0,-0.6499 -1.294116,-1.2997 z"
       id="path4"
       style="fill:#ffffff" />
    <path
       style="fill:url(#linearGradient4171-1);fill-opacity:1;stroke:none;stroke-width:2;stroke-linecap:round;stroke-linejoin:round;stroke-miterlimit:4;stroke-dasharray:none;stroke-opacity:1"
       d="m 11.5,1006.3622 a 9.5,9.5 0 0 0 -9.5,9.5 9.5,9.5 0 0 0 2,5.8242 l 0,15.6758 c 0,2.216 1.784,4 4,4 l 29,0 7.830078,7.8301 C 45.553078,1048.4693 46,1047.4702 46,1046.3622 l 0,-9 0,-9 0,-13 c 0,-2.216 -1.784,-4 -4,-4 l -22.142578,0 a 9.5,9.5 0 0 0 -8.357422,-5 z"
       id="circle4163-3"
       inkscape:connector-curvature="0" />
    <path
       style="fill:#000000;fill-opacity:0.2;stroke:none;stroke-width:0.40000001;stroke-miterlimit:4;stroke-dasharray:none;stroke-opacity:0.1"
       d="m 4,1036.3622 0,1 c 0,2.216 1.784,4 4,4 l 29,0 9,9 0,-1 -9,-9 -29,0 c -2.216,0 -4,-1.784 -4,-4 z"
       id="path4201"
       inkscape:connector-curvature="0" />
    <path
       style="fill:#000000;fill-opacity:0.2;stroke:none;stroke-width:0.40000001;stroke-miterlimit:4;stroke-dasharray:none;stroke-opacity:0.1"
       d="M 20.980469 10.914062 A 9.5 9.5 0 0 1 11.5 20 A 9.5 9.5 0 0 1 2.0195312 11.085938 A 9.5 9.5 0 0 0 2 11.5 A 9.5 9.5 0 0 0 11.5 21 A 9.5 9.5 0 0 0 21 11.5 A 9.5 9.5 0 0 0 20.980469 10.914062 z "
       transform="translate(0,1004.3622)"
       id="circle4206" />
    <path
       style="fill:#ffffff;fill-opacity:0.2;stroke:none;stroke-width:0.40000001;stroke-miterlimit:4;stroke-dasharray:none;stroke-opacity:0.1"
       d="M 11.5 2 A 9.5 9.5 0 0 0 2 11.5 A 9.5 9.5 0 0 0 2.0195312 12.085938 A 9.5 9.5 0 0 1 11.5 3 A 9.5 9.5 0 0 1 20.980469 11.914062 A 9.5 9.5 0 0 0 21 11.5 A 9.5 9.5 0 0 0 11.5 2 z "
       transform="translate(0,1004.3622)"
       id="circle4211" />
  </g>
</svg>
