<?xml version="1.0" encoding="UTF-8" standalone="no"?>
<!-- Created with Inkscape (http://www.inkscape.org/) -->

<svg
   xmlns:dc="http://purl.org/dc/elements/1.1/"
   xmlns:cc="http://creativecommons.org/ns#"
   xmlns:rdf="http://www.w3.org/1999/02/22-rdf-syntax-ns#"
   xmlns:svg="http://www.w3.org/2000/svg"
   xmlns="http://www.w3.org/2000/svg"
   xmlns:xlink="http://www.w3.org/1999/xlink"
   xmlns:sodipodi="http://sodipodi.sourceforge.net/DTD/sodipodi-0.dtd"
   xmlns:inkscape="http://www.inkscape.org/namespaces/inkscape"
   width="48"
   height="48"
   id="svg2"
   version="1.1"
   inkscape:version="0.48.5 r10040"
   sodipodi:docname="rhythmbox.svg"
   inkscape:export-filename="/home/afel/Pictures/evos-mockups/personal-app-icons/rhythmbox.png"
   inkscape:export-xdpi="360"
   inkscape:export-ydpi="360">
  <defs
     id="defs4">
    <inkscape:perspective
       sodipodi:type="inkscape:persp3d"
       inkscape:vp_x="0 : 12 : 1"
       inkscape:vp_y="0 : 1000 : 0"
       inkscape:vp_z="24 : 12 : 1"
       inkscape:persp3d-origin="12 : 8 : 1"
       id="perspective3810" />
    <radialGradient
       inkscape:collect="always"
       xlink:href="#linearGradient4082"
       id="radialGradient3084"
       gradientUnits="userSpaceOnUse"
       gradientTransform="matrix(1,0,0,1.25,0,-5.375)"
       cx="3"
       cy="21.5"
       fx="3"
       fy="21.5"
       r="2" />
    <linearGradient
       id="linearGradient4082">
      <stop
         style="stop-color:#4d4d4d;stop-opacity:1;"
         offset="0"
         id="stop4084" />
      <stop
         style="stop-color:#333333;stop-opacity:1;"
         offset="1"
         id="stop4086" />
    </linearGradient>
    <radialGradient
       inkscape:collect="always"
       xlink:href="#linearGradient3982"
       id="radialGradient3095"
       gradientUnits="userSpaceOnUse"
       cx="-14"
       cy="30"
       fx="-14"
       fy="30"
       r="10" />
    <linearGradient
       id="linearGradient3982">
      <stop
         style="stop-color:#000000;stop-opacity:0.80000001;"
         offset="0"
         id="stop3984" />
      <stop
         style="stop-color:#ffffff;stop-opacity:0.1;"
         offset="1"
         id="stop3986" />
    </linearGradient>
    <radialGradient
       inkscape:collect="always"
       xlink:href="#linearGradient3982"
       id="radialGradient3079"
       gradientUnits="userSpaceOnUse"
       cx="-14"
       cy="30"
       fx="-14"
       fy="30"
       r="10" />
    <radialGradient
       inkscape:collect="always"
       xlink:href="#linearGradient4082"
       id="radialGradient3081"
       gradientUnits="userSpaceOnUse"
       gradientTransform="matrix(1,0,0,1.25,0,-5.375)"
       cx="3"
       cy="21.5"
       fx="3"
       fy="21.5"
       r="2" />
    <radialGradient
       inkscape:collect="always"
       xlink:href="#linearGradient4082-4"
       id="radialGradient3084-0"
       gradientUnits="userSpaceOnUse"
       gradientTransform="matrix(1,0,0,1.25,0,-5.375)"
       cx="3"
       cy="21.5"
       fx="3"
       fy="21.5"
       r="2" />
    <linearGradient
       id="linearGradient4082-4">
      <stop
         style="stop-color:#4d4d4d;stop-opacity:1;"
         offset="0"
         id="stop4084-6" />
      <stop
         style="stop-color:#333333;stop-opacity:1;"
         offset="1"
         id="stop4086-6" />
    </linearGradient>
    <linearGradient
       inkscape:collect="always"
       xlink:href="#linearGradient3914"
       id="linearGradient3012"
       gradientUnits="userSpaceOnUse"
       gradientTransform="translate(-307.99999,1255.6545)"
       x1="315.875"
       y1="-244.04208"
       x2="347.93805"
       y2="-211.97903" />
    <linearGradient
       id="linearGradient3914">
      <stop
         style="stop-color:#ffffff;stop-opacity:0.14901961;"
         offset="0"
         id="stop3916" />
      <stop
         style="stop-color:#177ed5;stop-opacity:0;"
         offset="1"
         id="stop3918" />
    </linearGradient>
    <linearGradient
       y2="-211.97903"
       x2="347.93805"
       y1="-244.04208"
       x1="315.875"
       gradientTransform="translate(-307.99999,1255.6545)"
       gradientUnits="userSpaceOnUse"
       id="linearGradient3049"
       xlink:href="#linearGradient3914"
       inkscape:collect="always" />
  </defs>
  <sodipodi:namedview
     id="base"
     pagecolor="#ffffff"
     bordercolor="#666666"
     borderopacity="1.0"
     inkscape:pageopacity="0.0"
     inkscape:pageshadow="2"
     inkscape:zoom="11.313708"
     inkscape:cx="21.995106"
     inkscape:cy="25.265231"
     inkscape:document-units="px"
     inkscape:current-layer="layer1"
     showgrid="true"
     inkscape:snap-grids="false"
     inkscape:object-paths="true"
     inkscape:snap-intersection-paths="true"
     inkscape:snap-smooth-nodes="true"
     inkscape:object-nodes="true"
     inkscape:snap-midpoints="true"
     inkscape:window-width="1680"
     inkscape:window-height="1026"
     inkscape:window-x="0"
     inkscape:window-y="24"
     inkscape:window-maximized="1"
     inkscape:showpageshadow="false"
     borderlayer="true"
     inkscape:snap-bbox="true"
     inkscape:snap-nodes="true"
     inkscape:bbox-paths="true"
     inkscape:bbox-nodes="true"
     inkscape:snap-bbox-edge-midpoints="true"
     inkscape:snap-bbox-midpoints="true">
    <inkscape:grid
       type="xygrid"
       id="grid3808"
       empspacing="4"
       visible="true"
       enabled="true"
       snapvisiblegridlinesonly="true" />
  </sodipodi:namedview>
  <metadata
     id="metadata7">
    <rdf:RDF>
      <cc:Work
         rdf:about="">
        <dc:format>image/svg+xml</dc:format>
        <dc:type
           rdf:resource="http://purl.org/dc/dcmitype/StillImage" />
        <dc:title></dc:title>
      </cc:Work>
    </rdf:RDF>
  </metadata>
  <g
     inkscape:label="Layer 1"
     inkscape:groupmode="layer"
     id="layer1"
     transform="translate(0,-1004.3622)">
    <rect
       style="fill:#cccccc;fill-opacity:1;stroke:none"
       id="rect2984"
       width="44"
       height="44"
       x="2"
       y="1006.3622"
       rx="3"
       ry="3" />
    <path
       sodipodi:type="arc"
       style="fill:#333333;fill-opacity:1;stroke:none"
       id="path3888"
       sodipodi:cx="19.5"
       sodipodi:cy="25.5"
       sodipodi:rx="15.5"
       sodipodi:ry="15.5"
       d="M 35,25.5 C 35,34.060414 28.060414,41 19.5,41 10.939586,41 4,34.060414 4,25.5 4,16.939586 10.939586,10 19.5,10 28.060414,10 35,16.939586 35,25.5 z"
       transform="matrix(1.2580645,0,0,1.2580645,-0.53225775,996.28156)" />
    <path
       sodipodi:type="arc"
       style="fill:#4d4d4d;fill-opacity:1;stroke:none"
       id="path3888-0"
       sodipodi:cx="19.5"
       sodipodi:cy="25.5"
       sodipodi:rx="15.5"
       sodipodi:ry="15.5"
       d="M 35,25.5 C 35,34.060414 28.060414,41 19.5,41 10.939586,41 4,34.060414 4,25.5 4,16.939586 10.939586,10 19.5,10 28.060414,10 35,16.939586 35,25.5 z"
       transform="matrix(0.48387097,0,0,0.48387097,14.564516,1016.0235)" />
    <path
       sodipodi:type="arc"
       style="fill:#4db6ac;fill-opacity:1;stroke:none"
       id="path3888-0-2"
       sodipodi:cx="19.5"
       sodipodi:cy="25.5"
       sodipodi:rx="15.5"
       sodipodi:ry="15.5"
       d="M 35,25.5 C 35,34.060414 28.060414,41 19.5,41 10.939586,41 4,34.060414 4,25.5 4,16.939586 10.939586,10 19.5,10 28.060414,10 35,16.939586 35,25.5 z"
       transform="matrix(0.35483871,0,0,0.35483871,17.080645,1019.3138)" />
    <path
       sodipodi:type="arc"
       style="fill:#333333;fill-opacity:1;stroke:none"
       id="path3926"
       sodipodi:cx="-14"
       sodipodi:cy="24"
       sodipodi:rx="1"
       sodipodi:ry="1"
       d="m -13,24 c 0,0.552285 -0.447715,1 -1,1 -0.552285,0 -1,-0.447715 -1,-1 0,-0.552285 0.447715,-1 1,-1 0.552285,0 1,0.447715 1,1 z"
       transform="matrix(0.5,0,0,0.5,31,1016.3622)" />
    <path
       sodipodi:type="arc"
       style="fill:none;stroke:#4d4d4d;stroke-width:0.4025974;stroke-miterlimit:4;stroke-opacity:1;stroke-dasharray:none"
       id="path3888-5"
       sodipodi:cx="19.5"
       sodipodi:cy="25.5"
       sodipodi:rx="15.5"
       sodipodi:ry="15.5"
       d="M 35,25.5 C 35,34.060414 28.060414,41 19.5,41 10.939586,41 4,34.060414 4,25.5 4,16.939586 10.939586,10 19.5,10 28.060414,10 35,16.939586 35,25.5 z"
       transform="matrix(1.2419355,0,0,1.2419355,-0.21774225,996.69284)" />
    <path
       sodipodi:type="arc"
       style="fill:none;stroke:#4d4d4d;stroke-width:0.08641114;stroke-miterlimit:4;stroke-opacity:1;stroke-dasharray:none"
       id="path3888-5-6"
       sodipodi:cx="19.5"
       sodipodi:cy="25.5"
       sodipodi:rx="15.5"
       sodipodi:ry="15.5"
       d="M 35,25.5 C 35,34.060414 28.060414,41 19.5,41 10.939586,41 4,34.060414 4,25.5 4,16.939586 10.939586,10 19.5,10 28.060414,10 35,16.939586 35,25.5 z"
       transform="matrix(1.1572581,0,0,1.1572581,1.433467,998.85212)" />
    <path
       sodipodi:type="arc"
       style="fill:none;stroke:#4d4d4d;stroke-width:0.08888711;stroke-miterlimit:4;stroke-opacity:1;stroke-dasharray:none"
       id="path3888-5-6-8"
       sodipodi:cx="19.5"
       sodipodi:cy="25.5"
       sodipodi:rx="15.5"
       sodipodi:ry="15.5"
       d="M 35,25.5 C 35,34.060414 28.060414,41 19.5,41 10.939586,41 4,34.060414 4,25.5 4,16.939586 10.939586,10 19.5,10 28.060414,10 35,16.939586 35,25.5 z"
       transform="matrix(1.1250225,0,0,1.1250225,2.0620612,999.67413)" />
    <path
       sodipodi:type="arc"
       style="fill:none;stroke:#4d4d4d;stroke-width:0.09151098;stroke-miterlimit:4;stroke-opacity:1;stroke-dasharray:none"
       id="path3888-5-6-8-6"
       sodipodi:cx="19.5"
       sodipodi:cy="25.5"
       sodipodi:rx="15.5"
       sodipodi:ry="15.5"
       d="M 35,25.5 C 35,34.060414 28.060414,41 19.5,41 10.939586,41 4,34.060414 4,25.5 4,16.939586 10.939586,10 19.5,10 28.060414,10 35,16.939586 35,25.5 z"
       transform="matrix(1.0927651,0,0,1.0927651,2.6910805,1000.4967)" />
    <path
       sodipodi:type="arc"
       style="fill:none;stroke:#4d4d4d;stroke-width:0.09429447;stroke-miterlimit:4;stroke-opacity:1;stroke-dasharray:none"
       id="path3888-5-6-8-6-5"
       sodipodi:cx="19.5"
       sodipodi:cy="25.5"
       sodipodi:rx="15.5"
       sodipodi:ry="15.5"
       d="M 35,25.5 C 35,34.060414 28.060414,41 19.5,41 10.939586,41 4,34.060414 4,25.5 4,16.939586 10.939586,10 19.5,10 28.060414,10 35,16.939586 35,25.5 z"
       transform="matrix(1.0605077,0,0,1.0605077,3.3200998,1001.3193)" />
    <path
       sodipodi:type="arc"
       style="fill:none;stroke:#4d4d4d;stroke-width:0.08406938;stroke-miterlimit:4;stroke-opacity:1;stroke-dasharray:none"
       id="path3888-5-6-9"
       sodipodi:cx="19.5"
       sodipodi:cy="25.5"
       sodipodi:rx="15.5"
       sodipodi:ry="15.5"
       d="M 35,25.5 C 35,34.060414 28.060414,41 19.5,41 10.939586,41 4,34.060414 4,25.5 4,16.939586 10.939586,10 19.5,10 28.060414,10 35,16.939586 35,25.5 z"
       transform="matrix(1.1894937,0,0,1.1894937,0.80487285,998.03011)" />
    <path
       sodipodi:type="arc"
       style="fill:none;stroke:#4d4d4d;stroke-width:0.09725259;stroke-miterlimit:4;stroke-opacity:1;stroke-dasharray:none"
       id="path3888-5-6-8-6-5-3"
       sodipodi:cx="19.5"
       sodipodi:cy="25.5"
       sodipodi:rx="15.5"
       sodipodi:ry="15.5"
       d="M 35,25.5 C 35,34.060414 28.060414,41 19.5,41 10.939586,41 4,34.060414 4,25.5 4,16.939586 10.939586,10 19.5,10 28.060414,10 35,16.939586 35,25.5 z"
       transform="matrix(1.0282503,0,0,1.0282503,3.9491191,1002.1418)" />
    <path
       sodipodi:type="arc"
       style="fill:none;stroke:#4d4d4d;stroke-width:0.50201154;stroke-miterlimit:4;stroke-opacity:1;stroke-dasharray:none"
       id="path3888-5-6-8-6-5-3-7"
       sodipodi:cx="19.5"
       sodipodi:cy="25.5"
       sodipodi:rx="15.5"
       sodipodi:ry="15.5"
       d="M 35,25.5 C 35,34.060414 28.060414,41 19.5,41 10.939586,41 4,34.060414 4,25.5 4,16.939586 10.939586,10 19.5,10 28.060414,10 35,16.939586 35,25.5 z"
       transform="matrix(0.99599304,0,0,0.99599304,4.5781357,1002.9644)" />
    <path
       sodipodi:type="arc"
       style="fill:none;stroke:#4d4d4d;stroke-width:0.1037629;stroke-miterlimit:4;stroke-opacity:1;stroke-dasharray:none"
       id="path3888-5-6-8-6-5-3-7-0"
       sodipodi:cx="19.5"
       sodipodi:cy="25.5"
       sodipodi:rx="15.5"
       sodipodi:ry="15.5"
       d="M 35,25.5 C 35,34.060414 28.060414,41 19.5,41 10.939586,41 4,34.060414 4,25.5 4,16.939586 10.939586,10 19.5,10 28.060414,10 35,16.939586 35,25.5 z"
       transform="matrix(0.9637358,0,0,0.9637358,5.2071519,1003.7869)" />
    <path
       sodipodi:type="arc"
       style="fill:none;stroke:#4d4d4d;stroke-width:0.10735622;stroke-miterlimit:4;stroke-opacity:1;stroke-dasharray:none"
       id="path3888-5-6-8-6-5-3-7-0-7"
       sodipodi:cx="19.5"
       sodipodi:cy="25.5"
       sodipodi:rx="15.5"
       sodipodi:ry="15.5"
       d="M 35,25.5 C 35,34.060414 28.060414,41 19.5,41 10.939586,41 4,34.060414 4,25.5 4,16.939586 10.939586,10 19.5,10 28.060414,10 35,16.939586 35,25.5 z"
       transform="matrix(0.93147861,0,0,0.93147861,5.8361671,1004.6095)" />
    <path
       sodipodi:type="arc"
       style="fill:none;stroke:#4d4d4d;stroke-width:0.11120734;stroke-miterlimit:4;stroke-opacity:1;stroke-dasharray:none"
       id="path3888-5-6-8-6-5-3-7-0-7-0"
       sodipodi:cx="19.5"
       sodipodi:cy="25.5"
       sodipodi:rx="15.5"
       sodipodi:ry="15.5"
       d="M 35,25.5 C 35,34.060414 28.060414,41 19.5,41 10.939586,41 4,34.060414 4,25.5 4,16.939586 10.939586,10 19.5,10 28.060414,10 35,16.939586 35,25.5 z"
       transform="matrix(0.89922148,0,0,0.89922148,6.4651811,1005.4321)" />
    <path
       sodipodi:type="arc"
       style="fill:none;stroke:#4d4d4d;stroke-width:0.11534502;stroke-miterlimit:4;stroke-opacity:1;stroke-dasharray:none"
       id="path3888-5-6-8-6-5-3-7-0-7-0-1"
       sodipodi:cx="19.5"
       sodipodi:cy="25.5"
       sodipodi:rx="15.5"
       sodipodi:ry="15.5"
       d="M 35,25.5 C 35,34.060414 28.060414,41 19.5,41 10.939586,41 4,34.060414 4,25.5 4,16.939586 10.939586,10 19.5,10 28.060414,10 35,16.939586 35,25.5 z"
       transform="matrix(0.86696441,0,0,0.86696441,7.094194,1006.2546)" />
    <path
       sodipodi:type="arc"
       style="fill:none;stroke:#4d4d4d;stroke-width:0.11980249;stroke-miterlimit:4;stroke-opacity:1;stroke-dasharray:none"
       id="path3888-5-6-8-6-5-3-7-0-7-0-1-0"
       sodipodi:cx="19.5"
       sodipodi:cy="25.5"
       sodipodi:rx="15.5"
       sodipodi:ry="15.5"
       d="M 35,25.5 C 35,34.060414 28.060414,41 19.5,41 10.939586,41 4,34.060414 4,25.5 4,16.939586 10.939586,10 19.5,10 28.060414,10 35,16.939586 35,25.5 z"
       transform="matrix(0.83470742,0,0,0.83470742,7.7232053,1007.0772)" />
    <path
       sodipodi:type="arc"
       style="fill:none;stroke:#4d4d4d;stroke-width:0.12461831;stroke-miterlimit:4;stroke-opacity:1;stroke-dasharray:none"
       id="path3888-5-6-8-6-5-3-7-0-7-0-1-0-2"
       sodipodi:cx="19.5"
       sodipodi:cy="25.5"
       sodipodi:rx="15.5"
       sodipodi:ry="15.5"
       d="M 35,25.5 C 35,34.060414 28.060414,41 19.5,41 10.939586,41 4,34.060414 4,25.5 4,16.939586 10.939586,10 19.5,10 28.060414,10 35,16.939586 35,25.5 z"
       transform="matrix(0.80245052,0,0,0.80245052,8.3522149,1007.8997)" />
    <path
       sodipodi:type="arc"
       style="fill:none;stroke:#4d4d4d;stroke-width:0.12983747;stroke-miterlimit:4;stroke-opacity:1;stroke-dasharray:none"
       id="path3888-5-6-8-6-5-3-7-0-7-0-1-0-2-8"
       sodipodi:cx="19.5"
       sodipodi:cy="25.5"
       sodipodi:rx="15.5"
       sodipodi:ry="15.5"
       d="M 35,25.5 C 35,34.060414 28.060414,41 19.5,41 10.939586,41 4,34.060414 4,25.5 4,16.939586 10.939586,10 19.5,10 28.060414,10 35,16.939586 35,25.5 z"
       transform="matrix(0.77019371,0,0,0.77019371,8.9812227,1008.7223)" />
    <path
       sodipodi:type="arc"
       style="fill:none;stroke:#4d4d4d;stroke-width:0.67756462;stroke-miterlimit:4;stroke-opacity:1;stroke-dasharray:none"
       id="path3888-5-6-8-6-5-3-7-0-7-0-1-0-2-8-8"
       sodipodi:cx="19.5"
       sodipodi:cy="25.5"
       sodipodi:rx="15.5"
       sodipodi:ry="15.5"
       d="M 35,25.5 C 35,34.060414 28.060414,41 19.5,41 10.939586,41 4,34.060414 4,25.5 4,16.939586 10.939586,10 19.5,10 28.060414,10 35,16.939586 35,25.5 z"
       transform="matrix(0.737937,0,0,0.737937,9.6102285,1009.5448)" />
    <path
       sodipodi:type="arc"
       style="fill:none;stroke:#4d4d4d;stroke-width:0.14170724;stroke-miterlimit:4;stroke-opacity:1;stroke-dasharray:none"
       id="path3888-5-6-8-6-5-3-7-0-7-0-1-0-2-8-8-9"
       sodipodi:cx="19.5"
       sodipodi:cy="25.5"
       sodipodi:rx="15.5"
       sodipodi:ry="15.5"
       d="M 35,25.5 C 35,34.060414 28.060414,41 19.5,41 10.939586,41 4,34.060414 4,25.5 4,16.939586 10.939586,10 19.5,10 28.060414,10 35,16.939586 35,25.5 z"
       transform="matrix(0.70568041,0,0,0.70568041,10.239232,1010.3673)" />
    <path
       sodipodi:type="arc"
       style="fill:none;stroke:#4d4d4d;stroke-width:0.1484949;stroke-miterlimit:4;stroke-opacity:1;stroke-dasharray:none"
       id="path3888-5-6-8-6-5-3-7-0-7-0-1-0-2-8-8-9-7"
       sodipodi:cx="19.5"
       sodipodi:cy="25.5"
       sodipodi:rx="15.5"
       sodipodi:ry="15.5"
       d="M 35,25.5 C 35,34.060414 28.060414,41 19.5,41 10.939586,41 4,34.060414 4,25.5 4,16.939586 10.939586,10 19.5,10 28.060414,10 35,16.939586 35,25.5 z"
       transform="matrix(0.67342396,0,0,0.67342396,10.868233,1011.1899)" />
    <path
       sodipodi:type="arc"
       style="fill:none;stroke:#4d4d4d;stroke-width:0.15596548;stroke-miterlimit:4;stroke-opacity:1;stroke-dasharray:none"
       id="path3888-5-6-8-6-5-3-7-0-7-0-1-0-2-8-8-9-7-6"
       sodipodi:cx="19.5"
       sodipodi:cy="25.5"
       sodipodi:rx="15.5"
       sodipodi:ry="15.5"
       d="M 35,25.5 C 35,34.060414 28.060414,41 19.5,41 10.939586,41 4,34.060414 4,25.5 4,16.939586 10.939586,10 19.5,10 28.060414,10 35,16.939586 35,25.5 z"
       transform="matrix(0.64116766,0,0,0.64116766,11.497231,1012.0124)" />
    <path
       sodipodi:type="arc"
       style="fill:none;stroke:#4d4d4d;stroke-width:0.1642275;stroke-miterlimit:4;stroke-opacity:1;stroke-dasharray:none"
       id="path3888-5-6-8-6-5-3-7-0-7-0-1-0-2-8-8-9-7-6-7"
       sodipodi:cx="19.5"
       sodipodi:cy="25.5"
       sodipodi:rx="15.5"
       sodipodi:ry="15.5"
       d="M 35,25.5 C 35,34.060414 28.060414,41 19.5,41 10.939586,41 4,34.060414 4,25.5 4,16.939586 10.939586,10 19.5,10 28.060414,10 35,16.939586 35,25.5 z"
       transform="matrix(0.60891154,0,0,0.60891154,12.126225,1012.835)" />
    <path
       sodipodi:type="arc"
       style="fill:none;stroke:#4d4d4d;stroke-width:0.17340222;stroke-miterlimit:4;stroke-opacity:1;stroke-dasharray:none"
       id="path3888-5-6-8-6-5-3-7-0-7-0-1-0-2-8-8-9-7-6-6"
       sodipodi:cx="19.5"
       sodipodi:cy="25.5"
       sodipodi:rx="15.5"
       sodipodi:ry="15.5"
       d="M 35,25.5 C 35,34.060414 28.060414,41 19.5,41 10.939586,41 4,34.060414 4,25.5 4,16.939586 10.939586,10 19.5,10 28.060414,10 35,16.939586 35,25.5 z"
       transform="matrix(0.576694,0,0,0.576694,12.754467,1013.6565)" />
    <path
       sodipodi:type="arc"
       style="fill:none;stroke:#4d4d4d;stroke-width:0.18368851;stroke-miterlimit:4;stroke-opacity:1;stroke-dasharray:none"
       id="path3888-5-6-8-6-5-3-7-0-7-0-1-0-2-8-8-9-7-6-6-3"
       sodipodi:cx="19.5"
       sodipodi:cy="25.5"
       sodipodi:rx="15.5"
       sodipodi:ry="15.5"
       d="M 35,25.5 C 35,34.060414 28.060414,41 19.5,41 10.939586,41 4,34.060414 4,25.5 4,16.939586 10.939586,10 19.5,10 28.060414,10 35,16.939586 35,25.5 z"
       transform="matrix(0.5444,0,0,0.5444,13.3842,1014.48)" />
    <path
       sodipodi:type="arc"
       style="fill:none;stroke:#4d4d4d;stroke-width:0.19525741;stroke-miterlimit:4;stroke-opacity:1;stroke-dasharray:none"
       id="path3888-5-6-8-6-5-3-7-0-7-0-1-0-2-8-8-9-7-6-6-3-4"
       sodipodi:cx="19.5"
       sodipodi:cy="25.5"
       sodipodi:rx="15.5"
       sodipodi:ry="15.5"
       d="M 35,25.5 C 35,34.060414 28.060414,41 19.5,41 10.939586,41 4,34.060414 4,25.5 4,16.939586 10.939586,10 19.5,10 28.060414,10 35,16.939586 35,25.5 z"
       transform="matrix(0.51214456,0,0,0.51214456,14.013181,1015.3025)" />
    <path
       style="fill:#ffffff;fill-opacity:1;stroke:none;opacity:0.2"
       d="m 5,1006.3622 38,0 c 1.662,0 3,1.338 3,3 0,-1 -1.504543,-2 -3,-2 -12.548224,0 -30.342853,0 -38,0 -1.5025521,0 -3,1 -3,2 0,-1.662 1.338,-3 3,-3 z"
       id="rect2984-5"
       inkscape:connector-curvature="0"
       sodipodi:nodetypes="sscsscs" />
    <path
       style="opacity:0.2;fill:#000000;fill-opacity:1;stroke:none"
       d="m 5,1050.3622 38,0 c 1.662,0 3,-1.338 3,-3 0,1 -1.504543,2 -3,2 -12.548224,0 -30.342853,0 -38,0 -1.502552,0 -3,-1 -3,-2 0,1.662 1.338,3 3,3 z"
       id="rect2984-5-6"
       inkscape:connector-curvature="0"
       sodipodi:nodetypes="sscsscs" />
    <path
       style="font-size:medium;font-style:normal;font-variant:normal;font-weight:normal;font-stretch:normal;text-indent:0;text-align:start;text-decoration:none;line-height:normal;letter-spacing:normal;word-spacing:normal;text-transform:none;direction:ltr;block-progression:tb;writing-mode:lr-tb;text-anchor:start;baseline-shift:baseline;color:#000000;fill:#ffffff;fill-opacity:1;stroke:none;stroke-width:0.40259739999999999;marker:none;visibility:visible;display:inline;overflow:visible;enable-background:accumulate;font-family:Sans;-inkscape-font-specification:Sans;opacity:0.2"
       d="m 24.009765,1009.7539 c 10.559124,0 19.490235,8.6865 19.490235,18.6083 0,-10.7666 -8.733408,-19.5 -19.5,-19.5 -10.766592,0 -19.4999998,8.7334 -19.4999998,19.5 -0.037617,-10.1058 8.9506408,-18.6083 19.5097648,-18.6083 z"
       id="path3888-5-8"
       inkscape:connector-curvature="0"
       sodipodi:nodetypes="zcscz" />
    <path
       style="font-size:medium;font-style:normal;font-variant:normal;font-weight:normal;font-stretch:normal;text-indent:0;text-align:start;text-decoration:none;line-height:normal;letter-spacing:normal;word-spacing:normal;text-transform:none;direction:ltr;block-progression:tb;writing-mode:lr-tb;text-anchor:start;baseline-shift:baseline;opacity:0.2;color:#000000;fill:#000000;fill-opacity:1;stroke:none;stroke-width:0.4025974;marker:none;visibility:visible;display:inline;overflow:visible;enable-background:accumulate;font-family:Sans;-inkscape-font-specification:Sans"
       d="m 24.009824,1046.9705 c 10.559124,0 19.490235,-8.6865 19.490235,-18.6083 0,10.7666 -8.733408,19.5 -19.5,19.5 -10.766592,0 -19.5000002,-8.7334 -19.5000002,-19.5 -0.03762,10.1058 8.9506412,18.6083 19.5097652,18.6083 z"
       id="path3888-5-8-1"
       inkscape:connector-curvature="0"
       sodipodi:nodetypes="zcscz" />
    <path
       transform="matrix(0.35483871,0,0,0.35483871,17.080645,1019.3138)"
       style="fill:#ffffff;fill-opacity:1;stroke:none;opacity:0.1"
       d="M 35,25.5 C 35,19.793369 28.060414,12.725688 19.5,12.725688 10.939586,12.725688 4,19.793369 4,25.5 4,16.939586 10.939586,10 19.5,10 28.060414,10 35,16.939586 35,25.5 z"
       id="path3888-0-2-4"
       inkscape:connector-curvature="0"
       sodipodi:nodetypes="cscsc" />
    <path
       style="opacity:0.1;fill:#000000;fill-opacity:1;stroke:none"
       d="m 29.5,1028.3622 c 0,2.0249 -2.462434,4.5328 -5.5,4.5328 -3.037566,0 -5.5,-2.5079 -5.5,-4.5328 0,3.0376 2.462434,5.5 5.5,5.5 3.037566,0 5.5,-2.4624 5.5,-5.5 z"
       id="path3888-0-2-4-0"
       inkscape:connector-curvature="0"
       sodipodi:nodetypes="cscsc" />
    <rect
       style="fill:url(#linearGradient3049);fill-opacity:1;stroke:none"
       id="rect4064-0-3"
       width="44"
       height="44"
       x="2"
       y="1006.3622"
       rx="3"
       ry="3" />
  </g>
</svg>
