<?xml version="1.0" encoding="UTF-8" standalone="no"?>
<!-- Created with Inkscape (http://www.inkscape.org/) -->

<svg
   xmlns:dc="http://purl.org/dc/elements/1.1/"
   xmlns:cc="http://creativecommons.org/ns#"
   xmlns:rdf="http://www.w3.org/1999/02/22-rdf-syntax-ns#"
   xmlns:svg="http://www.w3.org/2000/svg"
   xmlns="http://www.w3.org/2000/svg"
   xmlns:xlink="http://www.w3.org/1999/xlink"
   xmlns:sodipodi="http://sodipodi.sourceforge.net/DTD/sodipodi-0.dtd"
   xmlns:inkscape="http://www.inkscape.org/namespaces/inkscape"
   width="48"
   height="48"
   id="svg2"
   version="1.1"
   inkscape:version="0.91 r13725"
   sodipodi:docname="rhythmbox.svg"
   inkscape:export-filename="/home/afel/Pictures/evos-mockups/personal-app-icons/rhythmbox.png"
   inkscape:export-xdpi="360"
   inkscape:export-ydpi="360">
  <defs
     id="defs4">
    <inkscape:perspective
       sodipodi:type="inkscape:persp3d"
       inkscape:vp_x="0 : 12 : 1"
       inkscape:vp_y="0 : 1000 : 0"
       inkscape:vp_z="24 : 12 : 1"
       inkscape:persp3d-origin="12 : 8 : 1"
       id="perspective3810" />
    <radialGradient
       inkscape:collect="always"
       xlink:href="#linearGradient4082"
       id="radialGradient3084"
       gradientUnits="userSpaceOnUse"
       gradientTransform="matrix(1,0,0,1.25,0,-5.375)"
       cx="3"
       cy="21.5"
       fx="3"
       fy="21.5"
       r="2" />
    <linearGradient
       id="linearGradient4082">
      <stop
         style="stop-color:#4d4d4d;stop-opacity:1;"
         offset="0"
         id="stop4084" />
      <stop
         style="stop-color:#333333;stop-opacity:1;"
         offset="1"
         id="stop4086" />
    </linearGradient>
    <radialGradient
       inkscape:collect="always"
       xlink:href="#linearGradient3982"
       id="radialGradient3095"
       gradientUnits="userSpaceOnUse"
       cx="-14"
       cy="30"
       fx="-14"
       fy="30"
       r="10" />
    <linearGradient
       id="linearGradient3982">
      <stop
         style="stop-color:#000000;stop-opacity:0.80000001;"
         offset="0"
         id="stop3984" />
      <stop
         style="stop-color:#ffffff;stop-opacity:0.1;"
         offset="1"
         id="stop3986" />
    </linearGradient>
    <radialGradient
       inkscape:collect="always"
       xlink:href="#linearGradient3982"
       id="radialGradient3079"
       gradientUnits="userSpaceOnUse"
       cx="-14"
       cy="30"
       fx="-14"
       fy="30"
       r="10" />
    <radialGradient
       inkscape:collect="always"
       xlink:href="#linearGradient4082"
       id="radialGradient3081"
       gradientUnits="userSpaceOnUse"
       gradientTransform="matrix(1,0,0,1.25,0,-5.375)"
       cx="3"
       cy="21.5"
       fx="3"
       fy="21.5"
       r="2" />
    <radialGradient
       inkscape:collect="always"
       xlink:href="#linearGradient4082-4"
       id="radialGradient3084-0"
       gradientUnits="userSpaceOnUse"
       gradientTransform="matrix(1,0,0,1.25,0,-5.375)"
       cx="3"
       cy="21.5"
       fx="3"
       fy="21.5"
       r="2" />
    <linearGradient
       id="linearGradient4082-4">
      <stop
         style="stop-color:#4d4d4d;stop-opacity:1;"
         offset="0"
         id="stop4084-6" />
      <stop
         style="stop-color:#333333;stop-opacity:1;"
         offset="1"
         id="stop4086-6" />
    </linearGradient>
    <linearGradient
       inkscape:collect="always"
       xlink:href="#linearGradient3914"
       id="linearGradient3012"
       gradientUnits="userSpaceOnUse"
       gradientTransform="translate(-307.99999,1255.6545)"
       x1="315.875"
       y1="-244.04208"
       x2="347.93805"
       y2="-211.97903" />
    <linearGradient
       id="linearGradient3914">
      <stop
         style="stop-color:#ffffff;stop-opacity:0.14901961;"
         offset="0"
         id="stop3916" />
      <stop
         style="stop-color:#177ed5;stop-opacity:0;"
         offset="1"
         id="stop3918" />
    </linearGradient>
    <linearGradient
       y2="-211.97903"
       x2="347.93805"
       y1="-244.04208"
       x1="315.875"
       gradientTransform="matrix(0.90909091,0,0,0.90909091,-277.81817,1234.9916)"
       gradientUnits="userSpaceOnUse"
       id="linearGradient3049"
       xlink:href="#linearGradient3914"
       inkscape:collect="always" />
  </defs>
  <sodipodi:namedview
     id="base"
     pagecolor="#ffffff"
     bordercolor="#666666"
     borderopacity="1.0"
     inkscape:pageopacity="0.0"
     inkscape:pageshadow="2"
     inkscape:zoom="11.313708"
     inkscape:cx="12.914598"
     inkscape:cy="17.455737"
     inkscape:document-units="px"
     inkscape:current-layer="layer1"
     showgrid="true"
     inkscape:snap-grids="true"
     inkscape:object-paths="true"
     inkscape:snap-intersection-paths="true"
     inkscape:snap-smooth-nodes="true"
     inkscape:object-nodes="true"
     inkscape:snap-midpoints="true"
     inkscape:window-width="1680"
     inkscape:window-height="996"
     inkscape:window-x="0"
     inkscape:window-y="27"
     inkscape:window-maximized="1"
     inkscape:showpageshadow="false"
     borderlayer="true"
     inkscape:snap-bbox="true"
     inkscape:snap-nodes="true"
     inkscape:bbox-paths="true"
     inkscape:bbox-nodes="true"
     inkscape:snap-bbox-edge-midpoints="true"
     inkscape:snap-bbox-midpoints="true">
    <inkscape:grid
       type="xygrid"
       id="grid3808"
       empspacing="4"
       visible="true"
       enabled="true"
       snapvisiblegridlinesonly="true" />
  </sodipodi:namedview>
  <metadata
     id="metadata7">
    <rdf:RDF>
      <cc:Work
         rdf:about="">
        <dc:format>image/svg+xml</dc:format>
        <dc:type
           rdf:resource="http://purl.org/dc/dcmitype/StillImage" />
        <dc:title />
      </cc:Work>
    </rdf:RDF>
  </metadata>
  <g
     inkscape:label="Layer 1"
     inkscape:groupmode="layer"
     id="layer1"
     transform="translate(0,-1004.3622)">
    <g
       id="g4190">
      <path
         sodipodi:nodetypes="sssssssss"
         inkscape:connector-curvature="0"
         id="rect2984"
         d="m 7,1008.3622 34,0 c 1.662,0 3,1.338 3,3 l 0,34 c 0,1.662 -1.338,3 -3,3 l -34,0 c -1.662,0 -3,-1.338 -3,-3 l 0,-34 c 0,-1.662 1.338,-3 3,-3 z"
         style="fill:#cccccc;fill-opacity:1;stroke:none" />
      <circle
         r="18"
         cy="1028.3622"
         cx="24"
         id="path3888"
         style="fill:#333333;fill-opacity:1;stroke:none" />
      <path
         transform="matrix(0.48387097,0,0,0.48387097,14.564516,1016.0235)"
         d="M 35,25.5 A 15.5,15.5 0 0 1 19.5,41 15.5,15.5 0 0 1 4,25.5 15.5,15.5 0 0 1 19.5,10 15.5,15.5 0 0 1 35,25.5 Z"
         sodipodi:ry="15.5"
         sodipodi:rx="15.5"
         sodipodi:cy="25.5"
         sodipodi:cx="19.5"
         id="path3888-0"
         style="fill:#4d4d4d;fill-opacity:1;stroke:none"
         sodipodi:type="arc" />
      <path
         transform="matrix(0.35483871,0,0,0.35483871,17.080645,1019.3138)"
         d="M 35,25.5 A 15.5,15.5 0 0 1 19.5,41 15.5,15.5 0 0 1 4,25.5 15.5,15.5 0 0 1 19.5,10 15.5,15.5 0 0 1 35,25.5 Z"
         sodipodi:ry="15.5"
         sodipodi:rx="15.5"
         sodipodi:cy="25.5"
         sodipodi:cx="19.5"
         id="path3888-0-2"
         style="fill:#4db6ac;fill-opacity:1;stroke:none"
         sodipodi:type="arc" />
      <path
         transform="matrix(0.5,0,0,0.5,31,1016.3622)"
         d="m -13,24 a 1,1 0 0 1 -1,1 1,1 0 0 1 -1,-1 1,1 0 0 1 1,-1 1,1 0 0 1 1,1 z"
         sodipodi:ry="1"
         sodipodi:rx="1"
         sodipodi:cy="24"
         sodipodi:cx="-14"
         id="path3926"
         style="fill:#333333;fill-opacity:1;stroke:none"
         sodipodi:type="arc" />
      <path
         transform="matrix(1.1572581,0,0,1.1572581,1.433467,998.85212)"
         d="M 35,25.5 A 15.5,15.5 0 0 1 19.5,41 15.5,15.5 0 0 1 4,25.5 15.5,15.5 0 0 1 19.5,10 15.5,15.5 0 0 1 35,25.5 Z"
         sodipodi:ry="15.5"
         sodipodi:rx="15.5"
         sodipodi:cy="25.5"
         sodipodi:cx="19.5"
         id="path3888-5-6"
         style="fill:none;stroke:#4d4d4d;stroke-width:0.08641114;stroke-miterlimit:4;stroke-opacity:1;stroke-dasharray:none"
         sodipodi:type="arc" />
      <circle
         sodipodi:cx="19.5"
         sodipodi:cy="25.5"
         sodipodi:rx="15.5"
         sodipodi:ry="15.5"
         sodipodi:type="arc"
         d="M 35,25.5 A 15.5,15.5 0 0 1 19.5,41 15.5,15.5 0 0 1 4,25.5 15.5,15.5 0 0 1 19.5,10 15.5,15.5 0 0 1 35,25.5 Z"
         transform="matrix(1.0927651,0,0,1.0927651,2.6910805,1000.4967)"
         id="path3888-5-6-8-6"
         style="fill:none;stroke:#4d4d4d;stroke-width:0.09151098;stroke-miterlimit:4;stroke-opacity:1;stroke-dasharray:none" />
      <path
         transform="matrix(1.0605077,0,0,1.0605077,3.3200998,1001.3193)"
         d="M 35,25.5 A 15.5,15.5 0 0 1 19.5,41 15.5,15.5 0 0 1 4,25.5 15.5,15.5 0 0 1 19.5,10 15.5,15.5 0 0 1 35,25.5 Z"
         sodipodi:ry="15.5"
         sodipodi:rx="15.5"
         sodipodi:cy="25.5"
         sodipodi:cx="19.5"
         id="path3888-5-6-8-6-5"
         style="fill:none;stroke:#4d4d4d;stroke-width:0.09429447;stroke-miterlimit:4;stroke-opacity:1;stroke-dasharray:none"
         sodipodi:type="arc" />
      <path
         transform="matrix(1.0282503,0,0,1.0282503,3.9491191,1002.1418)"
         d="M 35,25.5 A 15.5,15.5 0 0 1 19.5,41 15.5,15.5 0 0 1 4,25.5 15.5,15.5 0 0 1 19.5,10 15.5,15.5 0 0 1 35,25.5 Z"
         sodipodi:ry="15.5"
         sodipodi:rx="15.5"
         sodipodi:cy="25.5"
         sodipodi:cx="19.5"
         id="path3888-5-6-8-6-5-3"
         style="fill:none;stroke:#4d4d4d;stroke-width:0.09725259;stroke-miterlimit:4;stroke-opacity:1;stroke-dasharray:none"
         sodipodi:type="arc" />
      <path
         transform="matrix(0.99599304,0,0,0.99599304,4.5781357,1002.9644)"
         d="M 35,25.5 A 15.5,15.5 0 0 1 19.5,41 15.5,15.5 0 0 1 4,25.5 15.5,15.5 0 0 1 19.5,10 15.5,15.5 0 0 1 35,25.5 Z"
         sodipodi:ry="15.5"
         sodipodi:rx="15.5"
         sodipodi:cy="25.5"
         sodipodi:cx="19.5"
         id="path3888-5-6-8-6-5-3-7"
         style="fill:none;stroke:#4d4d4d;stroke-width:0.10040231;stroke-miterlimit:4;stroke-opacity:1;stroke-dasharray:none"
         sodipodi:type="arc" />
      <path
         transform="matrix(0.9637358,0,0,0.9637358,5.2071519,1003.7869)"
         d="M 35,25.5 A 15.5,15.5 0 0 1 19.5,41 15.5,15.5 0 0 1 4,25.5 15.5,15.5 0 0 1 19.5,10 15.5,15.5 0 0 1 35,25.5 Z"
         sodipodi:ry="15.5"
         sodipodi:rx="15.5"
         sodipodi:cy="25.5"
         sodipodi:cx="19.5"
         id="path3888-5-6-8-6-5-3-7-0"
         style="fill:none;stroke:#4d4d4d;stroke-width:0.1037629;stroke-miterlimit:4;stroke-opacity:1;stroke-dasharray:none"
         sodipodi:type="arc" />
      <path
         transform="matrix(0.93147861,0,0,0.93147861,5.8361671,1004.6095)"
         d="M 35,25.5 A 15.5,15.5 0 0 1 19.5,41 15.5,15.5 0 0 1 4,25.5 15.5,15.5 0 0 1 19.5,10 15.5,15.5 0 0 1 35,25.5 Z"
         sodipodi:ry="15.5"
         sodipodi:rx="15.5"
         sodipodi:cy="25.5"
         sodipodi:cx="19.5"
         id="path3888-5-6-8-6-5-3-7-0-7"
         style="fill:none;stroke:#4d4d4d;stroke-width:0.53678098;stroke-miterlimit:4;stroke-opacity:1;stroke-dasharray:none"
         sodipodi:type="arc" />
      <path
         transform="matrix(0.89922148,0,0,0.89922148,6.4651811,1005.4321)"
         d="M 35,25.5 A 15.5,15.5 0 0 1 19.5,41 15.5,15.5 0 0 1 4,25.5 15.5,15.5 0 0 1 19.5,10 15.5,15.5 0 0 1 35,25.5 Z"
         sodipodi:ry="15.5"
         sodipodi:rx="15.5"
         sodipodi:cy="25.5"
         sodipodi:cx="19.5"
         id="path3888-5-6-8-6-5-3-7-0-7-0"
         style="fill:none;stroke:#4d4d4d;stroke-width:0.11120734;stroke-miterlimit:4;stroke-opacity:1;stroke-dasharray:none"
         sodipodi:type="arc" />
      <path
         transform="matrix(0.86696441,0,0,0.86696441,7.094194,1006.2546)"
         d="M 35,25.5 A 15.5,15.5 0 0 1 19.5,41 15.5,15.5 0 0 1 4,25.5 15.5,15.5 0 0 1 19.5,10 15.5,15.5 0 0 1 35,25.5 Z"
         sodipodi:ry="15.5"
         sodipodi:rx="15.5"
         sodipodi:cy="25.5"
         sodipodi:cx="19.5"
         id="path3888-5-6-8-6-5-3-7-0-7-0-1"
         style="fill:none;stroke:#4d4d4d;stroke-width:0.11534502;stroke-miterlimit:4;stroke-opacity:1;stroke-dasharray:none"
         sodipodi:type="arc" />
      <path
         transform="matrix(0.83470742,0,0,0.83470742,7.7232053,1007.0772)"
         d="M 35,25.5 A 15.5,15.5 0 0 1 19.5,41 15.5,15.5 0 0 1 4,25.5 15.5,15.5 0 0 1 19.5,10 15.5,15.5 0 0 1 35,25.5 Z"
         sodipodi:ry="15.5"
         sodipodi:rx="15.5"
         sodipodi:cy="25.5"
         sodipodi:cx="19.5"
         id="path3888-5-6-8-6-5-3-7-0-7-0-1-0"
         style="fill:none;stroke:#4d4d4d;stroke-width:0.11980249;stroke-miterlimit:4;stroke-opacity:1;stroke-dasharray:none"
         sodipodi:type="arc" />
      <path
         transform="matrix(0.80245052,0,0,0.80245052,8.3522149,1007.8997)"
         d="M 35,25.5 A 15.5,15.5 0 0 1 19.5,41 15.5,15.5 0 0 1 4,25.5 15.5,15.5 0 0 1 19.5,10 15.5,15.5 0 0 1 35,25.5 Z"
         sodipodi:ry="15.5"
         sodipodi:rx="15.5"
         sodipodi:cy="25.5"
         sodipodi:cx="19.5"
         id="path3888-5-6-8-6-5-3-7-0-7-0-1-0-2"
         style="fill:none;stroke:#4d4d4d;stroke-width:0.12461831;stroke-miterlimit:4;stroke-opacity:1;stroke-dasharray:none"
         sodipodi:type="arc" />
      <path
         transform="matrix(0.77019371,0,0,0.77019371,8.9812227,1008.7223)"
         d="M 35,25.5 A 15.5,15.5 0 0 1 19.5,41 15.5,15.5 0 0 1 4,25.5 15.5,15.5 0 0 1 19.5,10 15.5,15.5 0 0 1 35,25.5 Z"
         sodipodi:ry="15.5"
         sodipodi:rx="15.5"
         sodipodi:cy="25.5"
         sodipodi:cx="19.5"
         id="path3888-5-6-8-6-5-3-7-0-7-0-1-0-2-8"
         style="fill:none;stroke:#4d4d4d;stroke-width:0.12983747;stroke-miterlimit:4;stroke-opacity:1;stroke-dasharray:none"
         sodipodi:type="arc" />
      <path
         transform="matrix(0.737937,0,0,0.737937,9.6102285,1009.5448)"
         d="M 35,25.5 A 15.5,15.5 0 0 1 19.5,41 15.5,15.5 0 0 1 4,25.5 15.5,15.5 0 0 1 19.5,10 15.5,15.5 0 0 1 35,25.5 Z"
         sodipodi:ry="15.5"
         sodipodi:rx="15.5"
         sodipodi:cy="25.5"
         sodipodi:cx="19.5"
         id="path3888-5-6-8-6-5-3-7-0-7-0-1-0-2-8-8"
         style="fill:none;stroke:#4d4d4d;stroke-width:0.13551292;stroke-miterlimit:4;stroke-opacity:1;stroke-dasharray:none"
         sodipodi:type="arc" />
      <path
         transform="matrix(0.70568041,0,0,0.70568041,10.239232,1010.3673)"
         d="M 35,25.5 A 15.5,15.5 0 0 1 19.5,41 15.5,15.5 0 0 1 4,25.5 15.5,15.5 0 0 1 19.5,10 15.5,15.5 0 0 1 35,25.5 Z"
         sodipodi:ry="15.5"
         sodipodi:rx="15.5"
         sodipodi:cy="25.5"
         sodipodi:cx="19.5"
         id="path3888-5-6-8-6-5-3-7-0-7-0-1-0-2-8-8-9"
         style="fill:none;stroke:#4d4d4d;stroke-width:0.70853604;stroke-miterlimit:4;stroke-opacity:1;stroke-dasharray:none"
         sodipodi:type="arc" />
      <path
         transform="matrix(0.67342396,0,0,0.67342396,10.868233,1011.1899)"
         d="M 35,25.5 A 15.5,15.5 0 0 1 19.5,41 15.5,15.5 0 0 1 4,25.5 15.5,15.5 0 0 1 19.5,10 15.5,15.5 0 0 1 35,25.5 Z"
         sodipodi:ry="15.5"
         sodipodi:rx="15.5"
         sodipodi:cy="25.5"
         sodipodi:cx="19.5"
         id="path3888-5-6-8-6-5-3-7-0-7-0-1-0-2-8-8-9-7"
         style="fill:none;stroke:#4d4d4d;stroke-width:0.1484949;stroke-miterlimit:4;stroke-opacity:1;stroke-dasharray:none"
         sodipodi:type="arc" />
      <path
         transform="matrix(0.64116766,0,0,0.64116766,11.497231,1012.0124)"
         d="M 35,25.5 A 15.5,15.5 0 0 1 19.5,41 15.5,15.5 0 0 1 4,25.5 15.5,15.5 0 0 1 19.5,10 15.5,15.5 0 0 1 35,25.5 Z"
         sodipodi:ry="15.5"
         sodipodi:rx="15.5"
         sodipodi:cy="25.5"
         sodipodi:cx="19.5"
         id="path3888-5-6-8-6-5-3-7-0-7-0-1-0-2-8-8-9-7-6"
         style="fill:none;stroke:#4d4d4d;stroke-width:0.15596548;stroke-miterlimit:4;stroke-opacity:1;stroke-dasharray:none"
         sodipodi:type="arc" />
      <path
         transform="matrix(0.60891154,0,0,0.60891154,12.126225,1012.835)"
         d="M 35,25.5 A 15.5,15.5 0 0 1 19.5,41 15.5,15.5 0 0 1 4,25.5 15.5,15.5 0 0 1 19.5,10 15.5,15.5 0 0 1 35,25.5 Z"
         sodipodi:ry="15.5"
         sodipodi:rx="15.5"
         sodipodi:cy="25.5"
         sodipodi:cx="19.5"
         id="path3888-5-6-8-6-5-3-7-0-7-0-1-0-2-8-8-9-7-6-7"
         style="fill:none;stroke:#4d4d4d;stroke-width:0.1642275;stroke-miterlimit:4;stroke-opacity:1;stroke-dasharray:none"
         sodipodi:type="arc" />
      <path
         transform="matrix(0.576694,0,0,0.576694,12.754467,1013.6565)"
         d="M 35,25.5 A 15.5,15.5 0 0 1 19.5,41 15.5,15.5 0 0 1 4,25.5 15.5,15.5 0 0 1 19.5,10 15.5,15.5 0 0 1 35,25.5 Z"
         sodipodi:ry="15.5"
         sodipodi:rx="15.5"
         sodipodi:cy="25.5"
         sodipodi:cx="19.5"
         id="path3888-5-6-8-6-5-3-7-0-7-0-1-0-2-8-8-9-7-6-6"
         style="fill:none;stroke:#4d4d4d;stroke-width:0.17340222;stroke-miterlimit:4;stroke-opacity:1;stroke-dasharray:none"
         sodipodi:type="arc" />
      <path
         transform="matrix(0.5444,0,0,0.5444,13.3842,1014.48)"
         d="M 35,25.5 A 15.5,15.5 0 0 1 19.5,41 15.5,15.5 0 0 1 4,25.5 15.5,15.5 0 0 1 19.5,10 15.5,15.5 0 0 1 35,25.5 Z"
         sodipodi:ry="15.5"
         sodipodi:rx="15.5"
         sodipodi:cy="25.5"
         sodipodi:cx="19.5"
         id="path3888-5-6-8-6-5-3-7-0-7-0-1-0-2-8-8-9-7-6-6-3"
         style="fill:none;stroke:#4d4d4d;stroke-width:0.18368851;stroke-miterlimit:4;stroke-opacity:1;stroke-dasharray:none"
         sodipodi:type="arc" />
      <path
         transform="matrix(0.51214456,0,0,0.51214456,14.013181,1015.3025)"
         d="M 35,25.5 A 15.5,15.5 0 0 1 19.5,41 15.5,15.5 0 0 1 4,25.5 15.5,15.5 0 0 1 19.5,10 15.5,15.5 0 0 1 35,25.5 Z"
         sodipodi:ry="15.5"
         sodipodi:rx="15.5"
         sodipodi:cy="25.5"
         sodipodi:cx="19.5"
         id="path3888-5-6-8-6-5-3-7-0-7-0-1-0-2-8-8-9-7-6-6-3-4"
         style="fill:none;stroke:#4d4d4d;stroke-width:0.19525741;stroke-miterlimit:4;stroke-opacity:1;stroke-dasharray:none"
         sodipodi:type="arc" />
      <path
         sodipodi:nodetypes="sscsscs"
         inkscape:connector-curvature="0"
         id="rect2984-5"
         d="m 7,1008.3622 38,0 c 1.662,0 3,1.338 3,3 0,-1 -1.504543,-2 -3,-2 -12.548224,0 -30.342853,0 -38,0 -1.5025521,0 -3,1 -3,2 0,-1.662 1.338,-3 3,-3 z"
         style="opacity:0.2;fill:#ffffff;fill-opacity:1;stroke:none" />
      <path
         sodipodi:nodetypes="sscsscs"
         inkscape:connector-curvature="0"
         id="rect2984-5-6"
         d="m 7,1048.3622 34,0 c 1.662,0 3,-1.338 3,-3 0,1 -1.504543,2 -3,2 l -34,0 c -1.502552,0 -3,-1 -3,-2 0,1.662 1.338,3 3,3 z"
         style="opacity:0.2;fill:#000000;fill-opacity:1;stroke:none" />
      <path
         sodipodi:nodetypes="cscsc"
         inkscape:connector-curvature="0"
         id="path3888-0-2-4"
         d="M 35,25.5 C 35,19.793369 28.060414,12.725688 19.5,12.725688 10.939586,12.725688 4,19.793369 4,25.5 4,16.939586 10.939586,10 19.5,10 28.060414,10 35,16.939586 35,25.5 z"
         style="fill:#ffffff;fill-opacity:1;stroke:none;opacity:0.1"
         transform="matrix(0.35483871,0,0,0.35483871,17.080645,1019.3138)" />
      <path
         sodipodi:nodetypes="cscsc"
         inkscape:connector-curvature="0"
         id="path3888-0-2-4-0"
         d="m 29.5,1028.3622 c 0,2.0249 -2.462434,4.5328 -5.5,4.5328 -3.037566,0 -5.5,-2.5079 -5.5,-4.5328 0,3.0376 2.462434,5.5 5.5,5.5 3.037566,0 5.5,-2.4624 5.5,-5.5 z"
         style="opacity:0.1;fill:#000000;fill-opacity:1;stroke:none" />
      <rect
         ry="3"
         rx="3"
         y="1008.3622"
         x="4"
         height="40"
         width="40"
         id="rect4064-0-3"
         style="fill:url(#linearGradient3049);fill-opacity:1;stroke:none" />
      <circle
         r="17.75"
         cy="1028.3622"
         cx="24"
         id="path3888-5"
         style="fill:none;stroke:#4d4d4d;stroke-width:0.5;stroke-miterlimit:4;stroke-dasharray:none;stroke-opacity:1" />
    </g>
  </g>
</svg>
