<?xml version="1.0" encoding="UTF-8" standalone="no"?>
<!-- Created with Inkscape (http://www.inkscape.org/) -->

<svg
   xmlns:dc="http://purl.org/dc/elements/1.1/"
   xmlns:cc="http://creativecommons.org/ns#"
   xmlns:rdf="http://www.w3.org/1999/02/22-rdf-syntax-ns#"
   xmlns:svg="http://www.w3.org/2000/svg"
   xmlns="http://www.w3.org/2000/svg"
   xmlns:xlink="http://www.w3.org/1999/xlink"
   xmlns:sodipodi="http://sodipodi.sourceforge.net/DTD/sodipodi-0.dtd"
   xmlns:inkscape="http://www.inkscape.org/namespaces/inkscape"
   width="48"
   height="48"
   id="svg2"
   version="1.1"
   inkscape:version="0.48.5 r10040"
   sodipodi:docname="rhythmbox.svg"
   inkscape:export-filename="/home/afel/Pictures/evos-mockups/personal-app-icons/rhythmbox.png"
   inkscape:export-xdpi="360"
   inkscape:export-ydpi="360">
  <defs
     id="defs4">
    <linearGradient
       id="linearGradient4402">
      <stop
         style="stop-color:#ffffff;stop-opacity:0.14901961;"
         offset="0"
         id="stop4404" />
      <stop
         style="stop-color:#177ed5;stop-opacity:0;"
         offset="1"
         id="stop4406" />
    </linearGradient>
    <linearGradient
       id="linearGradient4156">
      <stop
         style="stop-color:#000000;stop-opacity:1;"
         offset="0"
         id="stop4158" />
      <stop
         style="stop-color:#ffffff;stop-opacity:1;"
         offset="1"
         id="stop4160" />
    </linearGradient>
    <linearGradient
       id="linearGradient4082">
      <stop
         style="stop-color:#4d4d4d;stop-opacity:1;"
         offset="0"
         id="stop4084" />
      <stop
         style="stop-color:#333333;stop-opacity:1;"
         offset="1"
         id="stop4086" />
    </linearGradient>
    <linearGradient
       id="linearGradient3982">
      <stop
         style="stop-color:#000000;stop-opacity:1;"
         offset="0"
         id="stop3984" />
      <stop
         style="stop-color:#000000;stop-opacity:0;"
         offset="1"
         id="stop3986" />
    </linearGradient>
    <linearGradient
       id="linearGradient3841">
      <stop
         style="stop-color:#ffffff;stop-opacity:1;"
         offset="0"
         id="stop3843" />
      <stop
         style="stop-color:#ffffff;stop-opacity:0.19607843;"
         offset="1"
         id="stop3845" />
    </linearGradient>
    <linearGradient
       id="linearGradient3792">
      <stop
         style="stop-color:#4d4d4d;stop-opacity:1;"
         offset="0"
         id="stop3794" />
      <stop
         style="stop-color:#333333;stop-opacity:1;"
         offset="1"
         id="stop3796" />
    </linearGradient>
    <linearGradient
       id="linearGradient3780">
      <stop
         style="stop-color:#a4a200;stop-opacity:1;"
         offset="0"
         id="stop3782" />
      <stop
         id="stop3788"
         offset="0.5"
         style="stop-color:#c6bf00;stop-opacity:1;" />
      <stop
         style="stop-color:#fff82c;stop-opacity:1;"
         offset="1"
         id="stop3784" />
    </linearGradient>
    <linearGradient
       id="linearGradient3759">
      <stop
         style="stop-color:#aeaeae;stop-opacity:1;"
         offset="0"
         id="stop3761" />
      <stop
         id="stop3767"
         offset="0.91784495"
         style="stop-color:#262626;stop-opacity:1;" />
      <stop
         style="stop-color:#4d4d4d;stop-opacity:1;"
         offset="1"
         id="stop3763" />
    </linearGradient>
    <radialGradient
       inkscape:collect="always"
       xlink:href="#linearGradient3780-7"
       id="radialGradient3786-0"
       cx="-14"
       cy="30"
       fx="-14"
       fy="30"
       r="10"
       gradientUnits="userSpaceOnUse" />
    <linearGradient
       id="linearGradient3780-7">
      <stop
         style="stop-color:#a4a200;stop-opacity:1;"
         offset="0"
         id="stop3782-5" />
      <stop
         id="stop3788-5"
         offset="0.5"
         style="stop-color:#c6bf00;stop-opacity:1;" />
      <stop
         style="stop-color:#fff82c;stop-opacity:1;"
         offset="1"
         id="stop3784-6" />
    </linearGradient>
    <linearGradient
       inkscape:collect="always"
       xlink:href="#linearGradient3841-1"
       id="linearGradient3847-2"
       x1="29"
       y1="1044.3622"
       x2="26"
       y2="1039.3622"
       gradientUnits="userSpaceOnUse"
       gradientTransform="translate(0,-0.6603)" />
    <linearGradient
       id="linearGradient3841-1">
      <stop
         style="stop-color:#ffffff;stop-opacity:1;"
         offset="0"
         id="stop3843-1" />
      <stop
         style="stop-color:#ffffff;stop-opacity:0.19607843;"
         offset="1"
         id="stop3845-9" />
    </linearGradient>
    <radialGradient
       inkscape:collect="always"
       xlink:href="#linearGradient3792-6"
       id="radialGradient3932-4"
       gradientUnits="userSpaceOnUse"
       gradientTransform="matrix(1,0,0,1.25,0,-5.375)"
       cx="3"
       cy="21.5"
       fx="3"
       fy="21.5"
       r="2" />
    <linearGradient
       id="linearGradient3792-6">
      <stop
         style="stop-color:#5a5a5a;stop-opacity:1;"
         offset="0"
         id="stop3794-1" />
      <stop
         style="stop-color:#333333;stop-opacity:1;"
         offset="1"
         id="stop3796-1" />
    </linearGradient>
    <linearGradient
       inkscape:collect="always"
       xlink:href="#linearGradient3841-1-1"
       id="linearGradient3936-7"
       gradientUnits="userSpaceOnUse"
       gradientTransform="translate(0,-0.6603)"
       x1="29"
       y1="1044.3622"
       x2="26"
       y2="1039.3622" />
    <linearGradient
       id="linearGradient3841-1-1">
      <stop
         style="stop-color:#ffffff;stop-opacity:1;"
         offset="0"
         id="stop3843-1-6" />
      <stop
         style="stop-color:#ffffff;stop-opacity:0.19607843;"
         offset="1"
         id="stop3845-9-2" />
    </linearGradient>
    <linearGradient
       inkscape:collect="always"
       xlink:href="#linearGradient3841-1-5"
       id="linearGradient3936-4"
       gradientUnits="userSpaceOnUse"
       gradientTransform="translate(0,-0.6603)"
       x1="29"
       y1="1044.3622"
       x2="26"
       y2="1039.3622" />
    <linearGradient
       id="linearGradient3841-1-5">
      <stop
         style="stop-color:#ffffff;stop-opacity:1;"
         offset="0"
         id="stop3843-1-3" />
      <stop
         style="stop-color:#ffffff;stop-opacity:0.19607843;"
         offset="1"
         id="stop3845-9-0" />
    </linearGradient>
    <linearGradient
       inkscape:collect="always"
       xlink:href="#linearGradient4165"
       id="linearGradient4171-1"
       x1="7"
       y1="1011.3622"
       x2="41.000019"
       y2="1045.3622"
       gradientUnits="userSpaceOnUse"
       gradientTransform="matrix(0.92753624,0,0,0.95788454,-46.776019,45.27886)" />
    <linearGradient
       id="linearGradient4165">
      <stop
         style="stop-color:#ffffff;stop-opacity:0.15000001"
         offset="0"
         id="stop4167" />
      <stop
         style="stop-color:#177ed5;stop-opacity:0;"
         offset="1"
         id="stop4169" />
    </linearGradient>
    <radialGradient
       inkscape:collect="always"
       xlink:href="#linearGradient3982"
       id="radialGradient4445"
       gradientUnits="userSpaceOnUse"
       cx="-14"
       cy="30"
       fx="-14"
       fy="30"
       r="10" />
    <linearGradient
       inkscape:collect="always"
       xlink:href="#linearGradient4156"
       id="linearGradient4447"
       gradientUnits="userSpaceOnUse"
       x1="3"
       y1="24.833334"
       x2="3"
       y2="18.166666" />
    <linearGradient
       inkscape:collect="always"
       xlink:href="#linearGradient3841-1"
       id="linearGradient4451"
       gradientUnits="userSpaceOnUse"
       gradientTransform="translate(0,-0.6603)"
       x1="29"
       y1="1044.3622"
       x2="26"
       y2="1039.3622" />
    <radialGradient
       inkscape:collect="always"
       xlink:href="#linearGradient4082"
       id="radialGradient4453"
       gradientUnits="userSpaceOnUse"
       gradientTransform="matrix(1,0,0,2,0,4)"
       cx="-18"
       cy="-4"
       fx="-18"
       fy="-4"
       r="2" />
    <linearGradient
       inkscape:collect="always"
       xlink:href="#linearGradient3841-1-1"
       id="linearGradient4455"
       gradientUnits="userSpaceOnUse"
       gradientTransform="translate(0,-0.6603)"
       x1="29"
       y1="1044.3622"
       x2="26"
       y2="1039.3622" />
    <linearGradient
       inkscape:collect="always"
       xlink:href="#linearGradient3841-1-5"
       id="linearGradient4457"
       gradientUnits="userSpaceOnUse"
       gradientTransform="matrix(1.0895478,0.38334512,-0.38334512,1.0895478,395.0537,-104.62724)"
       x1="29"
       y1="1044.3622"
       x2="26"
       y2="1039.3622" />
    <linearGradient
       inkscape:collect="always"
       xlink:href="#linearGradient4402"
       id="linearGradient4462"
       gradientUnits="userSpaceOnUse"
       gradientTransform="translate(-55.066291,-21.977904)"
       x1="56.087017"
       y1="1028.4492"
       x2="100"
       y2="1072.3622" />
    <radialGradient
       inkscape:collect="always"
       xlink:href="#linearGradient3792-9"
       id="radialGradient4449-3"
       gradientUnits="userSpaceOnUse"
       gradientTransform="matrix(1,0,0,1.25,0,-5.375)"
       cx="3"
       cy="21.5"
       fx="3"
       fy="21.5"
       r="2" />
    <linearGradient
       id="linearGradient3792-9">
      <stop
         style="stop-color:#4d4d4d;stop-opacity:1;"
         offset="0"
         id="stop3794-5" />
      <stop
         style="stop-color:#333333;stop-opacity:1;"
         offset="1"
         id="stop3796-5" />
    </linearGradient>
    <radialGradient
       r="2"
       fy="21.5"
       fx="3"
       cy="21.5"
       cx="3"
       gradientTransform="matrix(1,0,0,1.25,0,-5.375)"
       gradientUnits="userSpaceOnUse"
       id="radialGradient4596"
       xlink:href="#linearGradient3792-9"
       inkscape:collect="always" />
    <radialGradient
       inkscape:collect="always"
       xlink:href="#linearGradient4082"
       id="radialGradient4671"
       cx="3"
       cy="21.5"
       fx="3"
       fy="21.5"
       r="2"
       gradientTransform="matrix(1,0,0,1.25,0,-5.375)"
       gradientUnits="userSpaceOnUse" />
    <radialGradient
       inkscape:collect="always"
       xlink:href="#linearGradient4082"
       id="radialGradient4678"
       gradientUnits="userSpaceOnUse"
       gradientTransform="matrix(1,0,0,2,0,4)"
       cx="-18"
       cy="-4"
       fx="-18"
       fy="-4"
       r="2" />
    <radialGradient
       inkscape:collect="always"
       xlink:href="#linearGradient3982-8"
       id="radialGradient4445-4"
       gradientUnits="userSpaceOnUse"
       cx="-14"
       cy="30"
       fx="-14"
       fy="30"
       r="10" />
    <linearGradient
       id="linearGradient3982-8">
      <stop
         style="stop-color:#000000;stop-opacity:1;"
         offset="0"
         id="stop3984-2" />
      <stop
         style="stop-color:#000000;stop-opacity:0;"
         offset="1"
         id="stop3986-7" />
    </linearGradient>
    <linearGradient
       inkscape:collect="always"
       xlink:href="#linearGradient4402"
       id="linearGradient3082"
       gradientUnits="userSpaceOnUse"
       gradientTransform="translate(-55.066291,-21.977869)"
       x1="56.087017"
       y1="1028.4492"
       x2="100"
       y2="1072.3622" />
    <radialGradient
       inkscape:collect="always"
       xlink:href="#linearGradient3982"
       id="radialGradient3105"
       gradientUnits="userSpaceOnUse"
       cx="-14"
       cy="30"
       fx="-14"
       fy="30"
       r="10" />
  </defs>
  <sodipodi:namedview
     id="base"
     pagecolor="#ffffff"
     bordercolor="#000000"
     borderopacity="1"
     inkscape:pageopacity="0.0"
     inkscape:pageshadow="2"
     inkscape:zoom="11.313709"
     inkscape:cx="4.3445018"
     inkscape:cy="25.311205"
     inkscape:document-units="px"
     inkscape:current-layer="layer1"
     showgrid="true"
     inkscape:showpageshadow="false"
     borderlayer="true"
     inkscape:window-width="1623"
     inkscape:window-height="1026"
     inkscape:window-x="57"
     inkscape:window-y="24"
     inkscape:window-maximized="1"
     inkscape:snap-global="true"
     inkscape:snap-bbox="true"
     inkscape:snap-nodes="true"
     inkscape:object-paths="true"
     inkscape:snap-intersection-paths="true">
    <inkscape:grid
       type="xygrid"
       id="grid2985"
       empspacing="4"
       visible="true"
       enabled="true"
       snapvisiblegridlinesonly="true"
       dotted="false" />
  </sodipodi:namedview>
  <metadata
     id="metadata7">
    <rdf:RDF>
      <cc:Work
         rdf:about="">
        <dc:format>image/svg+xml</dc:format>
        <dc:type
           rdf:resource="http://purl.org/dc/dcmitype/StillImage" />
        <dc:title></dc:title>
      </cc:Work>
    </rdf:RDF>
  </metadata>
  <g
     inkscape:label="Layer 1"
     inkscape:groupmode="layer"
     id="layer1"
     transform="translate(0,-1004.3622)">
    <g
       id="g3875">
      <rect
         ry="3"
         rx="3"
         y="1006.3843"
         x="6.9337087"
         height="44.000019"
         width="34"
         id="rect2983"
         style="fill:#333333;fill-opacity:1;stroke:none" />
      <path
         transform="matrix(1.15,0,0,1.15,40.1,999.86216)"
         d="m -4,30 a 10,10 0 1 1 -20,0 10,10 0 1 1 20,0 z"
         sodipodi:ry="10"
         sodipodi:rx="10"
         sodipodi:cy="30"
         sodipodi:cx="-14"
         id="path3753"
         style="fill:#ffeb3b;fill-opacity:1;stroke:none"
         sodipodi:type="arc" />
      <path
         transform="matrix(1.1,0,0,1.1,39.4,1001.3622)"
         d="m -4,30 a 10,10 0 1 1 -20,0 10,10 0 1 1 20,0 z"
         sodipodi:ry="10"
         sodipodi:rx="10"
         sodipodi:cy="30"
         sodipodi:cx="-14"
         id="path3753-4"
         style="opacity:0.3;fill:url(#radialGradient3105);fill-opacity:1;stroke:none"
         sodipodi:type="arc" />
      <path
         transform="matrix(0.98482535,0,0,0.9252605,-29.847489,1014.5349)"
         d="m 66.354394,21.428932 a 11.677197,12.428932 0 1 1 -23.354395,0 11.677197,12.428932 0 1 1 23.354395,0 z"
         sodipodi:ry="12.428932"
         sodipodi:rx="11.677197"
         sodipodi:cy="21.428932"
         sodipodi:cx="54.677197"
         id="path3757"
         style="fill:none;stroke:#1a1a1a;stroke-width:1.04758286;stroke-miterlimit:4;stroke-opacity:1;stroke-dasharray:none"
         sodipodi:type="arc" />
      <path
         transform="matrix(2,0,0,1.6,18,999.9622)"
         d="m 5,21.5 a 2,2.5 0 1 1 -4,0 2,2.5 0 1 1 4,0 z"
         sodipodi:ry="2.5"
         sodipodi:rx="2"
         sodipodi:cy="21.5"
         sodipodi:cx="3"
         id="path3790-5-7"
         style="fill:#1a1a1a;fill-opacity:1;stroke:none"
         sodipodi:type="arc" />
      <path
         transform="matrix(1.75,0,0,1.4,18.75,1004.2622)"
         d="m 5,21.5 a 2,2.5 0 1 1 -4,0 2,2.5 0 1 1 4,0 z"
         sodipodi:ry="2.5"
         sodipodi:rx="2"
         sodipodi:cy="21.5"
         sodipodi:cx="3"
         id="path3790"
         style="fill:url(#radialGradient4671);fill-opacity:1;stroke:none"
         sodipodi:type="arc" />
      <path
         transform="matrix(2.25,0,0,1.8,17.25,976.1622)"
         d="m 5,21.5 a 2,2.5 0 1 1 -4,0 2,2.5 0 1 1 4,0 z"
         sodipodi:ry="2.5"
         sodipodi:rx="2"
         sodipodi:cy="21.5"
         sodipodi:cx="3"
         id="path3790-5"
         style="fill:#1a1a1a;fill-opacity:1;stroke:none"
         sodipodi:type="arc" />
      <path
         inkscape:connector-curvature="0"
         id="path4290"
         d="m 11.560667,1008.8015 c -0.585786,-0.5857 -1.535553,-0.5857 -2.1213199,0 -0.5857672,0.5858 -0.5857863,1.5356 0,2.1214 0.5857859,0.5857 1.5355529,0.5857 2.1213199,0 0.585767,-0.5858 0.585787,-1.5356 0,-2.1214 z m -0.53033,0.1768 0.353553,0.3536 -0.53033,0.5303 0.53033,0.5303 -0.353553,0.3536 -0.53033,-0.5303 -0.5303298,0.5303 -0.3535534,-0.3536 0.5303302,-0.5303 -0.5303302,-0.5303 0.3535534,-0.3536 0.5303298,0.5303 0.53033,-0.5303 z"
         style="fill:#1a1a1a;fill-opacity:1;stroke:none" />
      <path
         inkscape:connector-curvature="0"
         id="path4290-4"
         d="m 38.560667,1008.8015 c -0.585786,-0.5857 -1.535553,-0.5857 -2.12132,0 -0.585767,0.5858 -0.585786,1.5356 0,2.1214 0.585786,0.5857 1.535553,0.5857 2.12132,0 0.585767,-0.5858 0.585787,-1.5356 0,-2.1214 z m -0.53033,0.1768 0.353553,0.3536 -0.53033,0.5303 0.53033,0.5303 -0.353553,0.3536 -0.53033,-0.5303 -0.53033,0.5303 -0.353553,-0.3536 0.53033,-0.5303 -0.53033,-0.5303 0.353553,-0.3536 0.53033,0.5303 0.53033,-0.5303 z"
         style="fill:#1a1a1a;fill-opacity:1;stroke:none" />
      <path
         inkscape:connector-curvature="0"
         id="path4290-1"
         d="m 38.560667,1045.8015 c -0.585786,-0.5857 -1.535553,-0.5857 -2.12132,0 -0.585767,0.5858 -0.585786,1.5356 0,2.1214 0.585786,0.5857 1.535553,0.5857 2.12132,0 0.585767,-0.5858 0.585787,-1.5356 0,-2.1214 z m -0.53033,0.1768 0.353553,0.3536 -0.53033,0.5303 0.53033,0.5303 -0.353553,0.3536 -0.53033,-0.5303 -0.53033,0.5303 -0.353553,-0.3536 0.53033,-0.5303 -0.53033,-0.5303 0.353553,-0.3536 0.53033,0.5303 0.53033,-0.5303 z"
         style="fill:#1a1a1a;fill-opacity:1;stroke:none" />
      <path
         inkscape:connector-curvature="0"
         id="path4290-43"
         d="m 11.560652,1045.8015 c -0.585786,-0.5857 -1.535553,-0.5857 -2.1213199,0 -0.5857666,0.5858 -0.5857857,1.5356 0,2.1214 0.5857859,0.5857 1.5355529,0.5857 2.1213199,0 0.585767,-0.5858 0.585787,-1.5356 0,-2.1214 z m -0.53033,0.1768 0.353553,0.3536 -0.53033,0.5303 0.53033,0.5303 -0.353553,0.3536 -0.53033,-0.5303 -0.5303299,0.5303 -0.353553,-0.3536 0.5303299,-0.5303 -0.5303299,-0.5303 0.353553,-0.3536 0.5303299,0.5303 0.53033,-0.5303 z"
         style="fill:#1a1a1a;fill-opacity:1;stroke:none" />
      <path
         sodipodi:nodetypes="ssczzcs"
         inkscape:connector-curvature="0"
         id="rect2983-1"
         d="m 9.9999999,1006.3622 28.0000001,0 c 1.662,0 3,1.327 3,3 0,-1.5193 -2,-2 -3,-2 -1,0 -27,0 -28,0 -1,0 -2.9999999,0.5547 -2.9999999,2 -1e-7,-1.6875 1.3545728,-3 2.9999998,-3 z"
         style="opacity:0.2;fill:#ffffff;fill-opacity:1;stroke:none" />
      <path
         sodipodi:nodetypes="ssczzcs"
         inkscape:connector-curvature="0"
         id="rect2983-1-1"
         d="m 10,1050.3622 28,0 c 1.662,0 3,-1.327 3,-3 0,1.5193 -2,2 -3,2 -1,0 -27,0 -28,0 -1.0000002,0 -3.0000001,-0.5547 -3.0000001,-2 -10e-8,1.6875 1.3545728,3 3.0000001,3 z"
         style="opacity:0.2;fill:#000000;fill-opacity:1;stroke:none" />
      <path
         sodipodi:nodetypes="cscsc"
         inkscape:connector-curvature="0"
         id="path3790-6"
         d="m 27.5,1034.3622 c 0,-1.4479 -1.567003,-3 -3.5,-3 -1.932997,0 -3.5,1.4417 -3.5,3 0,-1.933 1.567003,-3.5 3.5,-3.5 1.932997,0 3.5,1.567 3.5,3.5 z"
         style="opacity:0.2;fill:#ffffff;fill-opacity:1;stroke:none" />
      <path
         sodipodi:nodetypes="cscsc"
         inkscape:connector-curvature="0"
         id="path3790-6-4"
         d="m 27.5,1034.3622 c 0,1.4479 -1.567003,3 -3.5,3 -1.932997,0 -3.5,-1.4417 -3.5,-3 0,1.933 1.567003,3.5 3.5,3.5 1.932997,0 3.5,-1.567 3.5,-3.5 z"
         style="opacity:0.2;fill:#000000;fill-opacity:1;stroke:none" />
      <g
         transform="matrix(0.71428571,0,0,0.71428571,6.857143,289.96063)"
         id="g4673">
        <path
           sodipodi:type="arc"
           style="fill:url(#radialGradient4678);fill-opacity:1;stroke:none"
           id="path3755"
           sodipodi:cx="-18"
           sodipodi:cy="-4"
           sodipodi:rx="2"
           sodipodi:ry="4"
           d="m -16,-4 c 0,2.209139 -0.895431,4 -2,4 -1.104569,0 -2,-1.790861 -2,-4 0,-2.209139 0.895431,-4 2,-4 1.104569,0 2,1.790861 2,4 z"
           transform="matrix(1.75,0,0,0.875,55.5,1018.3622)" />
        <path
           style="opacity:0.2;fill:#ffffff;fill-opacity:1;stroke:none"
           d="m 27.5,1014.8622 c 0,-1.4479 -1.567003,-3 -3.5,-3 -1.932997,0 -3.5,1.4417 -3.5,3 0,-1.933 1.567003,-3.5 3.5,-3.5 1.932997,0 3.5,1.567 3.5,3.5 z"
           id="path3790-6-46"
           inkscape:connector-curvature="0"
           sodipodi:nodetypes="cscsc" />
        <path
           style="opacity:0.2;fill:#000000;fill-opacity:1;stroke:none"
           d="m 27.5,1014.8622 c 0,1.4479 -1.567003,3 -3.5,3 -1.932997,0 -3.5,-1.4417 -3.5,-3 0,1.933 1.567003,3.5 3.5,3.5 1.932997,0 3.5,-1.567 3.5,-3.5 z"
           id="path3790-6-4-8"
           inkscape:connector-curvature="0"
           sodipodi:nodetypes="cscsc" />
      </g>
      <path
         sodipodi:nodetypes="cscsc"
         inkscape:connector-curvature="0"
         id="path3753-4-8-0"
         d="m 35,1034.3622 c 0,-5.3433 -4.924867,-10 -11,-10 -6.075132,0 -11,4.7165 -11,10 0,-6.0752 4.924868,-11 11,-11 6.075133,0 11,4.9248 11,11 z"
         style="opacity:0.3;fill:#000000;fill-opacity:1;stroke:none" />
      <path
         sodipodi:nodetypes="cscsc"
         inkscape:connector-curvature="0"
         id="path3753-4-8-0-0"
         d="m 35,1034.3622 c 0,5.3433 -4.924867,10 -11,10 -6.075132,0 -11,-4.7165 -11,-10 0,6.0752 4.924868,11 11,11 6.075133,0 11,-4.9248 11,-11 z"
         style="opacity:0.3;fill:#ffffff;fill-opacity:1;stroke:none" />
      <rect
         ry="3"
         rx="3"
         y="1006.3843"
         x="6.9337087"
         height="44.000019"
         width="34"
         id="rect2983-7"
         style="fill:url(#linearGradient3082);fill-opacity:1;stroke:none" />
    </g>
  </g>
</svg>
