<?xml version="1.0" encoding="UTF-8" standalone="no"?>
<!-- Created with Inkscape (http://www.inkscape.org/) -->

<svg
   xmlns:dc="http://purl.org/dc/elements/1.1/"
   xmlns:cc="http://creativecommons.org/ns#"
   xmlns:rdf="http://www.w3.org/1999/02/22-rdf-syntax-ns#"
   xmlns:svg="http://www.w3.org/2000/svg"
   xmlns="http://www.w3.org/2000/svg"
   xmlns:xlink="http://www.w3.org/1999/xlink"
   xmlns:sodipodi="http://sodipodi.sourceforge.net/DTD/sodipodi-0.dtd"
   xmlns:inkscape="http://www.inkscape.org/namespaces/inkscape"
   width="48"
   height="48"
   id="svg2"
   version="1.1"
   inkscape:version="0.91 r13725"
   sodipodi:docname="spotify.svg">
  <defs
     id="defs4">
    <linearGradient
       inkscape:collect="always"
       xlink:href="#linearGradient4086"
       id="linearGradient4134"
       gradientUnits="userSpaceOnUse"
       x1="19.916273"
       y1="14.342306"
       x2="33.046341"
       y2="37.084248" />
    <linearGradient
       id="linearGradient4086">
      <stop
         style="stop-color:#ffffff;stop-opacity:0.14901961;"
         offset="0"
         id="stop4088" />
      <stop
         style="stop-color:#177ed5;stop-opacity:0;"
         offset="1"
         id="stop4090" />
    </linearGradient>
    <linearGradient
       y2="37.084248"
       x2="33.046341"
       y1="14.342306"
       x1="19.916273"
       gradientUnits="userSpaceOnUse"
       id="linearGradient3072"
       xlink:href="#linearGradient4086"
       inkscape:collect="always"
       gradientTransform="matrix(1.1891892,0,0,1.1891892,-8.7027022,996.8487)" />
  </defs>
  <sodipodi:namedview
     id="base"
     pagecolor="#ffffff"
     bordercolor="#000000"
     borderopacity="1"
     inkscape:pageopacity="0.0"
     inkscape:pageshadow="2"
     inkscape:zoom="2.828427"
     inkscape:cx="35.600772"
     inkscape:cy="-22.187422"
     inkscape:document-units="px"
     inkscape:current-layer="layer1"
     showgrid="true"
     inkscape:showpageshadow="false"
     borderlayer="true"
     inkscape:window-width="1680"
     inkscape:window-height="998"
     inkscape:window-x="0"
     inkscape:window-y="25"
     inkscape:window-maximized="1"
     inkscape:snap-global="true"
     inkscape:snap-bbox="true"
     inkscape:bbox-paths="true"
     inkscape:bbox-nodes="true"
     inkscape:object-paths="true"
     inkscape:snap-intersection-paths="true"
     inkscape:object-nodes="true"
     inkscape:snap-smooth-nodes="true">
    <inkscape:grid
       type="xygrid"
       id="grid2985"
       empspacing="4"
       visible="true"
       enabled="true"
       snapvisiblegridlinesonly="true"
       dotted="false" />
  </sodipodi:namedview>
  <metadata
     id="metadata7">
    <rdf:RDF>
      <cc:Work
         rdf:about="">
        <dc:format>image/svg+xml</dc:format>
        <dc:type
           rdf:resource="http://purl.org/dc/dcmitype/StillImage" />
        <dc:title />
      </cc:Work>
    </rdf:RDF>
  </metadata>
  <g
     inkscape:label="Layer 1"
     inkscape:groupmode="layer"
     id="layer1"
     transform="translate(0,-1004.3622)">
    <g
       style="font-size:40px;font-style:normal;font-variant:normal;font-weight:normal;font-stretch:normal;line-height:125%;letter-spacing:0px;word-spacing:0px;fill:#333333;fill-opacity:1;stroke:none;font-family:Proxima Nova;-inkscape-font-specification:Proxima Nova"
       id="text2996-9" />
    <g
       id="g4156">
      <ellipse
         ry="21.999983"
         rx="22"
         id="path3790"
         style="opacity:1;fill:#b2ff59;fill-opacity:1;stroke:none"
         cx="24"
         cy="1028.3622" />
      <path
         sodipodi:nodetypes="cscsc"
         inkscape:connector-curvature="0"
         id="path3790-0"
         d="m 45.999999,1028.3622 c 0,9.6855 -9.849734,21 -21.999999,21 -12.150264,0 -21.9999992,-11.3145 -21.9999992,-21 0,12.1504 9.8497352,22 21.9999992,22 12.150265,0 21.999999,-9.8496 21.999999,-22 z"
         style="opacity:0.2;fill:#000000;fill-opacity:1;stroke:none" />
      <path
         sodipodi:nodetypes="cscsc"
         inkscape:connector-curvature="0"
         id="path3790-0-5"
         d="m 45.999999,1028.3622 c 0,-9.6855 -9.849734,-21 -21.999999,-21 -12.150264,0 -21.9999993,11.3145 -21.9999993,21 0,-12.1503 9.8497353,-22 21.9999993,-22 12.150265,0 21.999999,9.8497 21.999999,22 z"
         style="opacity:0.2;fill:#ffffff;fill-opacity:1;stroke:none" />
      <g
         style="fill:#333333"
         transform="matrix(0.96012263,0.27957921,-0.27957921,0.96012263,287.32551,38.381615)"
         id="g4357">
        <path
           style="fill:#333333;fill-opacity:1;stroke:none"
           d="m 10.046978,1016.8489 c 1.858075,-0.5115 8.035344,-1.6296 14.033247,-1.6296 5.997904,0 12.555614,1.4031 14.036137,1.8106 1.480523,0.4075 2.143132,1.7533 1.846389,2.8908 -0.296744,1.1375 -1.609822,1.478 -2.832325,1.1416 -1.222502,-0.3365 -8.694417,-1.7186 -13.050201,-1.7186 -4.355783,0 -11.577754,1.344 -13.057231,1.7511 -1.4794768,0.4072 -2.6573402,-0.2328 -2.9149245,-1.2202 -0.2575842,-0.9873 0.080832,-2.5143 1.9389085,-3.0257 z"
           id="rect4300"
           inkscape:connector-curvature="0"
           sodipodi:nodetypes="zzzzzzzzz"
           inkscape:transform-center-x="-0.3168917"
           inkscape:transform-center-y="-10.67613" />
        <path
           style="fill:#333333;fill-opacity:1;stroke:none"
           d="m 13.475065,1024.5844 c 1.393556,-0.3836 6.026508,-1.2222 10.524935,-1.2222 4.498428,0 9.41671,1.0523 10.527103,1.3579 1.110392,0.3057 1.607349,1.315 1.384791,2.1681 -0.222558,0.8532 -1.207366,1.1085 -2.124243,0.8562 -0.916877,-0.2523 -6.520813,-1.2889 -9.787651,-1.2889 -3.266837,0 -8.683316,1.008 -9.792923,1.3133 -1.109608,0.3054 -1.993005,-0.1746 -2.186194,-0.9151 -0.193188,-0.7405 0.06062,-1.8858 1.454182,-2.2693 z"
           id="rect4300-7"
           inkscape:connector-curvature="0"
           sodipodi:nodetypes="zzzzzzzzz"
           inkscape:transform-center-x="-0.23766868"
           inkscape:transform-center-y="-8.0071035" />
        <path
           style="fill:#333333;fill-opacity:1;stroke:none"
           d="m 16.983377,1031.177 c 0.929037,-0.2557 4.017672,-0.8148 7.016623,-0.8148 2.998952,0 6.277807,0.7015 7.018069,0.9053 0.740261,0.2038 1.071566,0.8766 0.923194,1.4454 -0.148372,0.5688 -0.804911,0.739 -1.416162,0.5708 -0.611251,-0.1682 -4.347209,-0.8593 -6.525101,-0.8593 -2.177891,0 -5.788877,0.672 -6.528615,0.8755 -0.739739,0.2036 -1.32867,-0.1164 -1.457463,-0.61 -0.128792,-0.4937 0.04041,-1.2572 0.969455,-1.5129 z"
           id="rect4300-7-7"
           inkscape:connector-curvature="0"
           sodipodi:nodetypes="zzzzzzzzz"
           inkscape:transform-center-x="-0.15844547"
           inkscape:transform-center-y="-5.3380708" />
      </g>
      <circle
         r="22"
         cy="1028.3622"
         cx="24"
         id="path2983-1"
         style="fill:url(#linearGradient3072);fill-opacity:1;stroke:none" />
    </g>
  </g>
</svg>
