<?xml version="1.0" encoding="UTF-8" standalone="no"?>
<!-- Created with Inkscape (http://www.inkscape.org/) -->

<svg
   xmlns:dc="http://purl.org/dc/elements/1.1/"
   xmlns:cc="http://creativecommons.org/ns#"
   xmlns:rdf="http://www.w3.org/1999/02/22-rdf-syntax-ns#"
   xmlns:svg="http://www.w3.org/2000/svg"
   xmlns="http://www.w3.org/2000/svg"
   xmlns:xlink="http://www.w3.org/1999/xlink"
   xmlns:sodipodi="http://sodipodi.sourceforge.net/DTD/sodipodi-0.dtd"
   xmlns:inkscape="http://www.inkscape.org/namespaces/inkscape"
   width="48"
   height="48"
   id="svg2"
   version="1.1"
   inkscape:version="0.48.5 r10040"
   sodipodi:docname="steam.svg"
   inkscape:export-filename="/home/afel/Pictures/evos-mockups/personal-app-icons/steam.png"
   inkscape:export-xdpi="360"
   inkscape:export-ydpi="360">
  <defs
     id="defs4">
    <linearGradient
       inkscape:collect="always"
       xlink:href="#linearGradient4086"
       id="linearGradient4134"
       gradientUnits="userSpaceOnUse"
       x1="19.916273"
       y1="14.342306"
       x2="33.046341"
       y2="37.084248" />
    <linearGradient
       id="linearGradient4086">
      <stop
         style="stop-color:#ffffff;stop-opacity:0.14901961;"
         offset="0"
         id="stop4088" />
      <stop
         style="stop-color:#177ed5;stop-opacity:0;"
         offset="1"
         id="stop4090" />
    </linearGradient>
    <linearGradient
       y2="37.084248"
       x2="33.046341"
       y1="14.342306"
       x1="19.916273"
       gradientUnits="userSpaceOnUse"
       id="linearGradient3043"
       xlink:href="#linearGradient4086"
       inkscape:collect="always" />
  </defs>
  <sodipodi:namedview
     id="base"
     pagecolor="#ffffff"
     bordercolor="#000000"
     borderopacity="1"
     inkscape:pageopacity="0.0"
     inkscape:pageshadow="2"
     inkscape:zoom="11.313708"
     inkscape:cx="12.783189"
     inkscape:cy="24.843177"
     inkscape:document-units="px"
     inkscape:current-layer="layer1"
     showgrid="true"
     inkscape:showpageshadow="false"
     borderlayer="true"
     inkscape:window-width="1615"
     inkscape:window-height="1026"
     inkscape:window-x="65"
     inkscape:window-y="24"
     inkscape:window-maximized="1"
     inkscape:snap-global="false"
     inkscape:snap-nodes="true"
     inkscape:snap-bbox="true">
    <inkscape:grid
       type="xygrid"
       id="grid2985"
       empspacing="4"
       visible="true"
       enabled="true"
       snapvisiblegridlinesonly="true"
       dotted="false" />
  </sodipodi:namedview>
  <metadata
     id="metadata7">
    <rdf:RDF>
      <cc:Work
         rdf:about="">
        <dc:format>image/svg+xml</dc:format>
        <dc:type
           rdf:resource="http://purl.org/dc/dcmitype/StillImage" />
        <dc:title></dc:title>
      </cc:Work>
    </rdf:RDF>
  </metadata>
  <g
     inkscape:label="Layer 1"
     inkscape:groupmode="layer"
     id="layer1"
     transform="translate(0,-1004.3622)">
    <path
       inkscape:connector-curvature="0"
       style="fill:#455a64;fill-opacity:1;stroke:none"
       d="m 45.5,1028.3622 c 0,11.8741 -9.625878,21.5 -21.5,21.5 -11.874122,0 -21.5,-9.6259 -21.5,-21.5 0,-11.8741 9.625878,-21.5 21.5,-21.5 11.874122,0 21.5,9.6259 21.5,21.5 z"
       id="path2983" />
    <path
       inkscape:connector-curvature="0"
       style="opacity:0.2;fill:#000000;fill-opacity:1;stroke:none"
       d="m 45.5,1028.3622 c 0,9.5009 -9.625878,20.5 -21.5,20.5 -11.874122,0 -21.5,-10.9991 -21.5,-20.5 0,11.8741 9.625878,21.5 21.5,21.5 11.874122,0 21.5,-9.6259 21.5,-21.5 z"
       id="path2983-1"
       sodipodi:nodetypes="cscsc" />
    <path
       inkscape:connector-curvature="0"
       style="opacity:0.2;fill:#ffffff;fill-opacity:1;stroke:none"
       d="m 45.5,1028.3622 c 0,-9.5009 -9.625878,-20.5 -21.5,-20.5 -11.874122,0 -21.5,10.9991 -21.5,20.5 0,-11.8741 9.625878,-21.5 21.5,-21.5 11.874122,0 21.5,9.6259 21.5,21.5 z"
       id="path2983-1-5"
       sodipodi:nodetypes="cscsc" />
    <g
       id="g3932"
       style="opacity:0.2"
       transform="translate(27.895793,39.449658)">
      <path
         transform="matrix(0.37530314,0.10056217,-0.10455274,0.39019614,4.3102,985.55105)"
         d="m -10.694989,40.045048 c 0,6.150757 -5.184039,11.136931 -11.578874,11.136931 -6.394835,0 -11.578873,-4.986174 -11.578873,-11.136931 0,-6.150758 5.184038,-11.136932 11.578873,-11.136932 6.394835,0 11.578874,4.986174 11.578874,11.136932 z"
         sodipodi:ry="11.136931"
         sodipodi:rx="11.578874"
         sodipodi:cy="40.045048"
         sodipodi:cx="-22.273863"
         id="path3009-9"
         style="fill:none;stroke:#000000;stroke-width:2.52412701;stroke-miterlimit:4;stroke-dasharray:none"
         sodipodi:type="arc" />
      <path
         inkscape:transform-center-y="-2.4448927"
         inkscape:transform-center-x="7.423875"
         sodipodi:nodetypes="cccccc"
         inkscape:connector-curvature="0"
         id="path2983-0-5-4"
         d="m -9.021256,1001.801 c 1.491467,0.3999 3.265307,-0.5951 3.674218,-2.12125 0.389218,-1.4525 -0.627874,-3.2741 -2.134483,-3.6777 L -25.2529,991.217 c 0.218429,2.5788 1.068384,4.98984 1.726076,6.46286 0,0 9.59061,2.80034 14.505568,4.12114 z"
         style="fill:#000000;fill-opacity:1;stroke:none" />
      <path
         transform="matrix(0.37645638,0.35416822,-0.35416822,0.37645638,16.469274,983.59)"
         d="m -5.7452431,14.721787 c 0,4.808331 -3.8979218,8.706253 -8.7062519,8.706253 -4.80833,0 -8.706252,-3.897922 -8.706252,-8.706253 0,-4.8083298 3.897922,-8.7062516 8.706252,-8.7062516 4.8083301,0 8.7062519,3.8979218 8.7062519,8.7062516 z"
         sodipodi:ry="8.7062521"
         sodipodi:rx="8.7062521"
         sodipodi:cy="14.721787"
         sodipodi:cx="-14.451495"
         id="path3801-7"
         style="fill:#000000;fill-opacity:1;stroke:none"
         sodipodi:type="arc" />
      <path
         transform="matrix(0.62860767,0.59139086,-0.59139087,0.62860767,25.477228,973.07254)"
         d="m -0.375,24.84375 c 0,4.159395 -3.3718555,7.53125 -7.53125,7.53125 -4.159395,0 -7.53125,-3.371855 -7.53125,-7.53125 0,-4.159395 3.371855,-7.53125 7.53125,-7.53125 4.1593945,0 7.53125,3.371855 7.53125,7.53125 z"
         sodipodi:ry="7.53125"
         sodipodi:rx="7.53125"
         sodipodi:cy="24.84375"
         sodipodi:cx="-7.90625"
         id="path3809-2"
         style="fill:none;stroke:#000000;stroke-width:2.31730747;stroke-miterlimit:4;stroke-opacity:1;stroke-dasharray:none"
         sodipodi:type="arc" />
      <path
         sodipodi:nodetypes="ccccc"
         inkscape:connector-curvature="0"
         id="path3827-2"
         d="m -1.5799994,984.60809 -6.0961662,9.36765 4.3700327,4.1113 9.0095204,-6.62678 z"
         style="fill:#000000;stroke:none" />
    </g>
    <g
       id="g3864">
      <g
         id="g3860">
        <path
           sodipodi:type="arc"
           style="fill:none;stroke:#f2f2f2;stroke-width:2.52412701;stroke-miterlimit:4;stroke-dasharray:none"
           id="path3009"
           sodipodi:cx="-22.273863"
           sodipodi:cy="40.045048"
           sodipodi:rx="11.578874"
           sodipodi:ry="11.136931"
           d="m -10.694989,40.045048 c 0,6.150757 -5.184039,11.136931 -11.578874,11.136931 -6.394835,0 -11.578873,-4.986174 -11.578873,-11.136931 0,-6.150758 5.184038,-11.136932 11.578873,-11.136932 6.394835,0 11.578874,4.986174 11.578874,11.136932 z"
           transform="matrix(0.37530314,0.10056217,-0.10455274,0.39019614,32.193251,1023.9948)" />
        <path
           style="fill:#f2f2f2;fill-opacity:1;stroke:none"
           d="m 18.861795,1040.2448 c 1.491467,0.3999 3.265307,-0.5951 3.674218,-2.1213 0.389218,-1.4525 -0.627874,-3.2741 -2.134483,-3.6777 l -17.8542431,-4.774 c 0.1300407,2.6009 0.8418886,5.0948 1.4388144,6.5623 0,0 9.9607357,2.6899 14.8756937,4.0107 z"
           id="path2983-0-5"
           inkscape:connector-curvature="0"
           sodipodi:nodetypes="cccccc"
           inkscape:transform-center-x="7.423875"
           inkscape:transform-center-y="-2.4448927" />
      </g>
      <g
         transform="matrix(0.97336846,0.22924624,-0.22924624,0.97336846,237.46796,24.16696)"
         id="g3854">
        <g
           id="g3850">
          <path
             transform="matrix(0.4476225,0.25843497,-0.25843497,0.4476225,40.784541,1015.5631)"
             d="m -5.7452431,14.721787 c 0,4.808331 -3.8979218,8.706253 -8.7062519,8.706253 -4.80833,0 -8.706252,-3.897922 -8.706252,-8.706253 0,-4.8083298 3.897922,-8.7062516 8.706252,-8.7062516 4.8083301,0 8.7062519,3.8979218 8.7062519,8.7062516 z"
             sodipodi:ry="8.7062521"
             sodipodi:rx="8.7062521"
             sodipodi:cy="14.721787"
             sodipodi:cx="-14.451495"
             id="path3801"
             style="fill:#f2f2f2;fill-opacity:1;stroke:none"
             sodipodi:type="arc" />
          <path
             transform="matrix(0.74744101,0.43153527,-0.43153528,0.74744102,47.141512,1003.2607)"
             d="m -0.375,24.84375 c 0,4.159395 -3.3718555,7.53125 -7.53125,7.53125 -4.159395,0 -7.53125,-3.371855 -7.53125,-7.53125 0,-4.159395 3.371855,-7.53125 7.53125,-7.53125 4.1593945,0 7.53125,3.371855 7.53125,7.53125 z"
             sodipodi:ry="7.53125"
             sodipodi:rx="7.53125"
             sodipodi:cy="24.84375"
             sodipodi:cx="-7.90625"
             id="path3809"
             style="fill:none;stroke:#f2f2f2;stroke-width:2.31730747;stroke-miterlimit:4;stroke-opacity:1;stroke-dasharray:none"
             sodipodi:type="arc" />
        </g>
        <path
           style="fill:#f2f2f2;stroke:none"
           d="m 23.44934,1020.6918 -3.786317,10.5157 5.196153,3 7.250418,-8.5157 z"
           id="path3827"
           inkscape:connector-curvature="0"
           sodipodi:nodetypes="ccccc" />
      </g>
    </g>
    <path
       sodipodi:type="arc"
       style="fill:url(#linearGradient3043);fill-opacity:1;stroke:none"
       id="path2983-1-3"
       sodipodi:cx="27.5"
       sodipodi:cy="26.5"
       sodipodi:rx="18.5"
       sodipodi:ry="18.5"
       d="M 46,26.5 C 46,36.717268 37.717268,45 27.5,45 17.282732,45 9,36.717268 9,26.5 9,16.282732 17.282732,8 27.5,8 37.717268,8 46,16.282732 46,26.5 z"
       transform="matrix(1.1621622,0,0,1.1621622,-7.9594605,997.5649)" />
  </g>
</svg>
