<?xml version="1.0" encoding="UTF-8" standalone="no"?>
<!-- Generator: Adobe Illustrator 15.1.0, SVG Export Plug-In . SVG Version: 6.00 Build 0)  -->

<svg
   xmlns:dc="http://purl.org/dc/elements/1.1/"
   xmlns:cc="http://creativecommons.org/ns#"
   xmlns:rdf="http://www.w3.org/1999/02/22-rdf-syntax-ns#"
   xmlns:svg="http://www.w3.org/2000/svg"
   xmlns="http://www.w3.org/2000/svg"
   xmlns:xlink="http://www.w3.org/1999/xlink"
   xmlns:sodipodi="http://sodipodi.sourceforge.net/DTD/sodipodi-0.dtd"
   xmlns:inkscape="http://www.inkscape.org/namespaces/inkscape"
   version="1.1"
   id="svg3001"
   inkscape:version="0.91 r13725"
   sodipodi:docname="sublime-text-2.svg"
   x="0px"
   y="0px"
   width="24"
   height="24"
   viewBox="352 -268 24 24"
   enable-background="new 352 -268 600 600"
   xml:space="preserve"
   inkscape:export-filename="/home/felz/Pictures/evopop-icon-theme/sublime-text-2.png"
   inkscape:export-xdpi="360"
   inkscape:export-ydpi="360"><metadata
     id="metadata550"><rdf:RDF><cc:Work
         rdf:about=""><dc:format>image/svg+xml</dc:format><dc:type
           rdf:resource="http://purl.org/dc/dcmitype/StillImage" /><dc:title /></cc:Work></rdf:RDF></metadata><defs
     id="defs548"><linearGradient
       id="linearGradient3767"><stop
         style="stop-color:#000000;stop-opacity:1;"
         offset="0"
         id="stop3769" /><stop
         style="stop-color:#ffffff;stop-opacity:1;"
         offset="1"
         id="stop3771" /></linearGradient><filter
       inkscape:collect="always"
       id="filter5295"><feGaussianBlur
         inkscape:collect="always"
         stdDeviation="0.12921522"
         id="feGaussianBlur5297" /></filter><filter
       inkscape:collect="always"
       id="filter5299"
       x="-0.013343272"
       width="1.0266865"
       y="-0.11920094"
       height="1.2384019"><feGaussianBlur
         inkscape:collect="always"
         stdDeviation="0.10007515"
         id="feGaussianBlur5301" /></filter><linearGradient
       inkscape:collect="always"
       xlink:href="#linearGradient5376"
       id="linearGradient4171-7"
       x1="7"
       y1="1011.3622"
       x2="41.000019"
       y2="1045.3622"
       gradientUnits="userSpaceOnUse"
       gradientTransform="matrix(0.5,0,0,0.68749925,352,-962.99814)" /><linearGradient
       id="linearGradient5376"
       inkscape:collect="always"><stop
         id="stop5378"
         offset="0"
         style="stop-color:#ffffff;stop-opacity:0.2" /><stop
         id="stop5380"
         offset="1"
         style="stop-color:#177ed5;stop-opacity:0;" /></linearGradient></defs><sodipodi:namedview
     id="base"
     inkscape:current-layer="svg3001"
     inkscape:window-maximized="1"
     inkscape:pageshadow="2"
     inkscape:pageopacity="0.0"
     inkscape:window-y="-8"
     inkscape:window-x="-8"
     inkscape:window-height="988"
     inkscape:window-width="1680"
     inkscape:grid-bbox="true"
     inkscape:document-units="px"
     showgrid="false"
     inkscape:cy="15.524215"
     inkscape:cx="0.28713115"
     inkscape:zoom="11.313709"
     borderopacity="1.0"
     bordercolor="#666666"
     pagecolor="#ffffff"
     inkscape:snap-grids="false"
     inkscape:object-paths="true"
     inkscape:snap-intersection-paths="true"
     inkscape:object-nodes="true"
     inkscape:snap-smooth-nodes="true"
     inkscape:snap-midpoints="true"
     inkscape:snap-global="false"><inkscape:grid
       type="xygrid"
       id="grid4899"
       empspacing="5"
       visible="true"
       enabled="true"
       snapvisiblegridlinesonly="true" /></sodipodi:namedview><sodipodi:namedview
     id="namedview275"
     inkscape:current-layer="layer1"
     inkscape:window-maximized="0"
     inkscape:pageshadow="2"
     inkscape:pageopacity="0.0"
     inkscape:window-y="20"
     inkscape:window-x="264"
     inkscape:window-height="660"
     inkscape:window-width="1014"
     inkscape:grid-bbox="true"
     inkscape:document-units="px"
     showgrid="true"
     inkscape:cy="39.272727"
     inkscape:cx="27.831762"
     inkscape:zoom="5.5"
     borderopacity="1.0"
     bordercolor="#666666"
     pagecolor="#ffffff" /><g
     id="g4267"><g
       id="g4257"><rect
         style="fill:#e5e5e5;fill-opacity:1;stroke:none"
         id="rect4064-0"
         width="22"
         height="22"
         x="353"
         y="-267"
         rx="1"
         ry="1" /><rect
         style="fill:#4d4d4d;fill-opacity:1;stroke:none"
         id="rect4064"
         width="18"
         height="18"
         x="355"
         y="-265"
         rx="1"
         ry="1" /><path
         style="fill:#1a1a1a;fill-opacity:0.20000000000000001;stroke:none;filter:url(#filter5299)"
         d="m 373.00006,-248 c 0,0.554 -0.44601,1 -1,1 l -16.00011,0 c -0.554,0 -1,-0.446 -1,-1 l 0,-1 c 0,0.50949 0.48099,1 1.01172,1 l 15.98839,0 c 0.51652,0 0.99995,-0.42915 0.99989,-1.01492 z"
         id="rect4064-4-7"
         inkscape:connector-curvature="0"
         sodipodi:nodetypes="cssccscsc" /><g
         transform="matrix(0.9220122,0,0,0.93540244,28.885968,-14.980892)"
         style="font-size:40px;font-style:normal;font-variant:normal;font-weight:bold;font-stretch:normal;line-height:125%;letter-spacing:0px;word-spacing:0px;opacity:0.20454544000000000;fill:#000000;fill-opacity:0.97254907999999995;stroke:none;font-family:TakaoPGothic;-inkscape-font-specification:TakaoPGothic Bold;filter:url(#filter5295)"
         id="text5223-1-8"><path
           d="m 366.98156,-260.91068 c -0.87688,-1.1353 -1.9845,-1.70296 -3.32287,-1.70297 -1.75375,1e-5 -2.63062,0.67382 -2.63062,2.02142 0,0.95072 0.94609,1.73529 2.8383,2.3537 l 0.92763,0.30461 c 2.68599,0.87687 4.02898,2.32602 4.02899,4.34742 -1e-5,1.35685 -0.55843,2.42293 -1.67528,3.19828 -0.88612,0.59995 -2.03065,0.89994 -3.43364,0.89994 -2.15988,0 -3.99207,-0.78919 -5.4966,-2.36755 0,0 -0.54746,-0.58842 0.26207,-1.3163 0.80954,-0.72787 1.27476,-0.0821 1.27476,-0.0821 1.163,1.24608 2.51062,1.86912 4.04284,1.86912 1.81834,0 2.72752,-0.70611 2.72753,-2.11833 -1e-5,-1.0707 -1.00149,-1.96142 -3.00444,-2.67216 l -0.96917,-0.33228 c -2.52908,-0.88609 -3.79363,-2.18294 -3.79362,-3.89054 -10e-6,-1.07992 0.36921,-1.9891 1.10763,-2.72753 0.88609,-0.88608 2.10449,-1.32913 3.65516,-1.32915 2.07679,2e-5 3.77976,0.71997 5.10892,2.15987 0,0 0.69878,0.67092 -0.22535,1.3193 -0.90792,0.63701 -1.41918,0.0887 -1.42224,0.0652 z"
           style="font-size:28px;fill:#000000;fill-opacity:0.97254908"
           id="path5228-7-9"
           inkscape:connector-curvature="0"
           sodipodi:nodetypes="ccsccccsczcsccccsccscc" /></g><g
         transform="matrix(0.9220122,0,0,0.93540244,28.885968,-15.628054)"
         style="font-size:40px;font-style:normal;font-variant:normal;font-weight:bold;font-stretch:normal;line-height:125%;letter-spacing:0px;word-spacing:0px;fill:#ffaf4a;fill-opacity:1;stroke:none;font-family:TakaoPGothic;-inkscape-font-specification:TakaoPGothic Bold"
         id="text5223-1"><path
           d="m 366.98156,-260.91068 c -0.87688,-1.1353 -1.9845,-1.70296 -3.32287,-1.70297 -1.75375,1e-5 -2.63062,0.67382 -2.63062,2.02142 0,0.95072 0.94609,1.73529 2.8383,2.3537 l 0.92763,0.30461 c 2.68599,0.87687 4.02898,2.32602 4.02899,4.34742 -1e-5,1.35685 -0.55843,2.42293 -1.67528,3.19828 -0.88612,0.59995 -2.03065,0.89994 -3.43364,0.89994 -2.15988,0 -3.99207,-0.78919 -5.4966,-2.36755 0,0 -0.54746,-0.58842 0.26207,-1.3163 0.80954,-0.72787 1.27476,-0.0821 1.27476,-0.0821 1.163,1.24608 2.51062,1.86912 4.04284,1.86912 1.81834,0 2.72752,-0.70611 2.72753,-2.11833 -1e-5,-1.0707 -1.00149,-1.96142 -3.00444,-2.67216 l -0.96917,-0.33228 c -2.52908,-0.88609 -3.79363,-2.18294 -3.79362,-3.89054 -10e-6,-1.07992 0.36921,-1.9891 1.10763,-2.72753 0.88609,-0.88608 2.10449,-1.32913 3.65516,-1.32915 2.07679,2e-5 3.77976,0.71997 5.10892,2.15987 0,0 0.69878,0.67092 -0.22535,1.3193 -0.90792,0.63701 -1.41918,0.0887 -1.42224,0.0652 z"
           style="font-size:28px;fill:#ffaf4a;fill-opacity:1"
           id="path5228-7"
           inkscape:connector-curvature="0"
           sodipodi:nodetypes="ccsccccsczcsccccsccscc" /></g><path
         style="fill:url(#linearGradient4171-7);fill-opacity:1;stroke:none;stroke-width:2;stroke-linecap:round;stroke-linejoin:round;stroke-miterlimit:4;stroke-dasharray:none;stroke-opacity:1"
         d="m 353.94531,-267 c -0.50644,0 -0.94531,0.39837 -0.94531,0.9375 l 0,1.375 0,3.1875 0,11 0,1.375 0,3.25 c 0,0.40631 0.47794,0.875 0.89062,0.875 l 2.10938,0 16,0 2.08594,0 c 0.51425,0 0.91406,-0.46264 0.91406,-0.86719 l 0,-3.25781 0,-1.375 0,-11 0,-1.375 0,-3.22656 C 375,-266.57038 374.43613,-267 374.05469,-267 l -2.05469,0 -16,0 z"
         id="circle4163-7"
         inkscape:connector-curvature="0"
         sodipodi:nodetypes="ssccccssccssccccssccs" /></g></g></svg>