<?xml version="1.0" encoding="UTF-8" standalone="no"?>
<!-- Generator: Adobe Illustrator 15.1.0, SVG Export Plug-In . SVG Version: 6.00 Build 0)  -->

<svg
   xmlns:dc="http://purl.org/dc/elements/1.1/"
   xmlns:cc="http://creativecommons.org/ns#"
   xmlns:rdf="http://www.w3.org/1999/02/22-rdf-syntax-ns#"
   xmlns:svg="http://www.w3.org/2000/svg"
   xmlns="http://www.w3.org/2000/svg"
   xmlns:xlink="http://www.w3.org/1999/xlink"
   xmlns:sodipodi="http://sodipodi.sourceforge.net/DTD/sodipodi-0.dtd"
   xmlns:inkscape="http://www.inkscape.org/namespaces/inkscape"
   version="1.1"
   id="svg3001"
   inkscape:version="0.91 r13725"
   sodipodi:docname="sublime-text-2.svg"
   x="0px"
   y="0px"
   width="48"
   height="48"
   viewBox="352 -268 48 48"
   enable-background="new 352 -268 600 600"
   xml:space="preserve"
   inkscape:export-filename="/home/felz/Pictures/evopop-icon-theme/sublime-text-2.png"
   inkscape:export-xdpi="360"
   inkscape:export-ydpi="360"><metadata
     id="metadata550"><rdf:RDF><cc:Work
         rdf:about=""><dc:format>image/svg+xml</dc:format><dc:type
           rdf:resource="http://purl.org/dc/dcmitype/StillImage" /><dc:title /></cc:Work></rdf:RDF></metadata><defs
     id="defs548"><linearGradient
       id="linearGradient3767"><stop
         style="stop-color:#000000;stop-opacity:1;"
         offset="0"
         id="stop3769" /><stop
         style="stop-color:#ffffff;stop-opacity:1;"
         offset="1"
         id="stop3771" /></linearGradient><filter
       inkscape:collect="always"
       id="filter5295"><feGaussianBlur
         inkscape:collect="always"
         stdDeviation="0.12921522"
         id="feGaussianBlur5297" /></filter><filter
       inkscape:collect="always"
       id="filter5299"
       x="-0.013343272"
       width="1.0266865"
       y="-0.11920094"
       height="1.2384019"><feGaussianBlur
         inkscape:collect="always"
         stdDeviation="0.10007515"
         id="feGaussianBlur5301" /></filter><linearGradient
       inkscape:collect="always"
       xlink:href="#linearGradient5376"
       id="linearGradient4171-7"
       x1="7"
       y1="1011.3622"
       x2="41.000019"
       y2="1045.3622"
       gradientUnits="userSpaceOnUse"
       gradientTransform="matrix(1,0,0,1.3749985,352,-1657.9963)" /><linearGradient
       id="linearGradient5376"
       inkscape:collect="always"><stop
         id="stop5378"
         offset="0"
         style="stop-color:#ffffff;stop-opacity:0.2" /><stop
         id="stop5380"
         offset="1"
         style="stop-color:#177ed5;stop-opacity:0;" /></linearGradient></defs><sodipodi:namedview
     id="base"
     inkscape:current-layer="svg3001"
     inkscape:window-maximized="1"
     inkscape:pageshadow="2"
     inkscape:pageopacity="0.0"
     inkscape:window-y="0"
     inkscape:window-x="0"
     inkscape:window-height="1003"
     inkscape:window-width="1920"
     inkscape:grid-bbox="true"
     inkscape:document-units="px"
     showgrid="false"
     inkscape:cy="28.984397"
     inkscape:cx="36.711822"
     inkscape:zoom="16.000001"
     borderopacity="1.0"
     bordercolor="#666666"
     pagecolor="#ffffff"
     inkscape:snap-grids="false"
     inkscape:object-paths="true"
     inkscape:snap-intersection-paths="true"
     inkscape:object-nodes="true"
     inkscape:snap-smooth-nodes="true"
     inkscape:snap-midpoints="true"
     inkscape:snap-global="false"><inkscape:grid
       type="xygrid"
       id="grid4899"
       empspacing="5"
       visible="true"
       enabled="true"
       snapvisiblegridlinesonly="true" /></sodipodi:namedview><sodipodi:namedview
     id="namedview275"
     inkscape:current-layer="layer1"
     inkscape:window-maximized="0"
     inkscape:pageshadow="2"
     inkscape:pageopacity="0.0"
     inkscape:window-y="20"
     inkscape:window-x="264"
     inkscape:window-height="660"
     inkscape:window-width="1014"
     inkscape:grid-bbox="true"
     inkscape:document-units="px"
     showgrid="true"
     inkscape:cy="39.272727"
     inkscape:cx="27.831762"
     inkscape:zoom="5.5"
     borderopacity="1.0"
     bordercolor="#666666"
     pagecolor="#ffffff" /><rect
     style="fill:#e5e5e5;fill-opacity:1;stroke:none"
     id="rect4064-0"
     width="44"
     height="44"
     x="354"
     y="-266"
     rx="2"
     ry="2" /><rect
     style="fill:#3c3c3c;fill-opacity:1;stroke:none"
     id="rect4064"
     width="36"
     height="36"
     x="358"
     y="-262"
     rx="2"
     ry="2" /><g
     transform="matrix(1.8440244,0,0,1.8708049,-294.22806,238.03822)"
     style="font-style:normal;font-variant:normal;font-weight:bold;font-stretch:normal;font-size:40px;line-height:125%;font-family:TakaoPGothic;-inkscape-font-specification:'TakaoPGothic Bold';letter-spacing:0px;word-spacing:0px;opacity:0.20454544;fill:#000000;fill-opacity:0.97254908;stroke:none;filter:url(#filter5295)"
     id="text5223-1-8"><path
       d="m 366.98156,-260.91068 c -0.87688,-1.1353 -1.9845,-1.70296 -3.32287,-1.70297 -1.75375,1e-5 -2.63062,0.67382 -2.63062,2.02142 0,0.95072 0.94609,1.73529 2.8383,2.3537 l 0.92763,0.30461 c 2.68599,0.87687 4.02898,2.32602 4.02899,4.34742 -1e-5,1.35685 -0.55843,2.42293 -1.67528,3.19828 -0.88612,0.59995 -2.03065,0.89994 -3.43364,0.89994 -2.15988,0 -3.99207,-0.78919 -5.4966,-2.36755 0,0 -0.54746,-0.58842 0.26207,-1.3163 0.80954,-0.72787 1.27476,-0.0821 1.27476,-0.0821 1.163,1.24608 2.51062,1.86912 4.04284,1.86912 1.81834,0 2.72752,-0.70611 2.72753,-2.11833 -1e-5,-1.0707 -1.00149,-1.96142 -3.00444,-2.67216 l -0.96917,-0.33228 c -2.52908,-0.88609 -3.79363,-2.18294 -3.79362,-3.89054 -10e-6,-1.07992 0.36921,-1.9891 1.10763,-2.72753 0.88609,-0.88608 2.10449,-1.32913 3.65516,-1.32915 2.07679,2e-5 3.77976,0.71997 5.10892,2.15987 0,0 0.69878,0.67092 -0.22535,1.3193 -0.90792,0.63701 -1.41918,0.0887 -1.42224,0.0652 z"
       style="font-size:28px;fill:#000000;fill-opacity:0.97254908"
       id="path5228-7-9"
       inkscape:connector-curvature="0"
       sodipodi:nodetypes="ccsccccsczcsccccsccscc" /></g><g
     transform="matrix(1.8440244,0,0,1.8708049,-294.22806,236.74389)"
     style="font-style:normal;font-variant:normal;font-weight:bold;font-stretch:normal;font-size:40px;line-height:125%;font-family:TakaoPGothic;-inkscape-font-specification:'TakaoPGothic Bold';letter-spacing:0px;word-spacing:0px;fill:#ffaf4a;fill-opacity:1;stroke:none"
     id="text5223-1"><path
       d="m 366.98156,-260.91068 c -0.87688,-1.1353 -1.9845,-1.70296 -3.32287,-1.70297 -1.75375,1e-5 -2.63062,0.67382 -2.63062,2.02142 0,0.95072 0.94609,1.73529 2.8383,2.3537 l 0.92763,0.30461 c 2.68599,0.87687 4.02898,2.32602 4.02899,4.34742 -1e-5,1.35685 -0.55843,2.42293 -1.67528,3.19828 -0.88612,0.59995 -2.03065,0.89994 -3.43364,0.89994 -2.15988,0 -3.99207,-0.78919 -5.4966,-2.36755 0,0 -0.54746,-0.58842 0.26207,-1.3163 0.80954,-0.72787 1.27476,-0.0821 1.27476,-0.0821 1.163,1.24608 2.51062,1.86912 4.04284,1.86912 1.81834,0 2.72752,-0.70611 2.72753,-2.11833 -1e-5,-1.0707 -1.00149,-1.96142 -3.00444,-2.67216 l -0.96917,-0.33228 c -2.52908,-0.88609 -3.79363,-2.18294 -3.79362,-3.89054 -10e-6,-1.07992 0.36921,-1.9891 1.10763,-2.72753 0.88609,-0.88608 2.10449,-1.32913 3.65516,-1.32915 2.07679,2e-5 3.77976,0.71997 5.10892,2.15987 0,0 0.69878,0.67092 -0.22535,1.3193 -0.90792,0.63701 -1.41918,0.0887 -1.42224,0.0652 z"
       style="font-size:28px;fill:#ffaf4a;fill-opacity:1"
       id="path5228-7"
       inkscape:connector-curvature="0"
       sodipodi:nodetypes="ccsccccsczcsccccsccscc" /></g><path
     style="fill:url(#linearGradient4171-7);fill-opacity:1;stroke:none;stroke-width:2;stroke-linecap:round;stroke-linejoin:round;stroke-miterlimit:4;stroke-dasharray:none;stroke-opacity:1"
     d="m 355.89062,-266 c -1.01288,0 -1.89062,0.79674 -1.89062,1.875 l 0,2.75 0,6.375 0,22 0,2.75 0,6.5 c 0,0.81262 0.95588,1.75 1.78124,1.75 l 4.21876,0 32,0 4.17188,0 c 1.0285,0 1.82812,-0.92528 1.82812,-1.73438 l 0,-6.51562 0,-2.75 0,-22 0,-2.75 0,-6.45312 C 398,-265.14076 396.87226,-266 396.10938,-266 l -4.10938,0 -32,0 z"
     id="circle4163-7"
     inkscape:connector-curvature="0"
     sodipodi:nodetypes="ssccccssccssccccssccs" /><path
     style="fill:#1a1a1a;fill-opacity:0.2;stroke:none;filter:url(#filter5299)"
     d="m 373.00006,-248 c 0,0.554 -0.44601,1 -1,1 l -16.00011,0 c -0.554,0 -1,-0.446 -1,-1 l 0,-1 c 0,0.50949 0.48099,1 1.01172,1 l 15.98839,0 c 0.51652,0 0.99995,-0.42915 0.99989,-1.01492 z"
     id="rect4064-4-7"
     inkscape:connector-curvature="0"
     sodipodi:nodetypes="cssccscsc"
     transform="matrix(2,0,0,2,-352,268)" /><path
     style="fill:#ffffff;fill-opacity:0.2;stroke:none"
     d="M 4 2 C 2.892 2 2 2.892 2 4 L 2 5 C 2 3.892 2.892 3 4 3 L 44 3 C 45.108 3 46 3.892 46 5 L 46 4 C 46 2.892 45.108 2 44 2 L 4 2 z "
     transform="translate(352,-268)"
     id="rect4172" /><path
     id="path4177"
     d="m 356,-222 c -1.108,0 -2,-0.892 -2,-2 l 0,-1 c 0,1.108 0.892,2 2,2 l 40,0 c 1.108,0 2,-0.892 2,-2 l 0,1 c 0,1.108 -0.892,2 -2,2 l -40,0 z"
     style="fill:#000000;fill-opacity:0.2;stroke:none"
     inkscape:connector-curvature="0" /></svg>