<?xml version="1.0" encoding="UTF-8" standalone="no"?>
<!-- Created with Inkscape (http://www.inkscape.org/) -->

<svg
   xmlns:dc="http://purl.org/dc/elements/1.1/"
   xmlns:cc="http://creativecommons.org/ns#"
   xmlns:rdf="http://www.w3.org/1999/02/22-rdf-syntax-ns#"
   xmlns:svg="http://www.w3.org/2000/svg"
   xmlns="http://www.w3.org/2000/svg"
   xmlns:xlink="http://www.w3.org/1999/xlink"
   xmlns:sodipodi="http://sodipodi.sourceforge.net/DTD/sodipodi-0.dtd"
   xmlns:inkscape="http://www.inkscape.org/namespaces/inkscape"
   width="48"
   height="48"
   viewBox="0 0 48 48"
   id="svg2"
   version="1.1"
   inkscape:version="0.91 r13725"
   sodipodi:docname="system-software-install.svg"
   inkscape:export-filename="/home/poltertec/Downloads/testikel2.png"
   inkscape:export-xdpi="360"
   inkscape:export-ydpi="360">
  <defs
     id="defs4">
    <linearGradient
       id="linearGradient4159"
       inkscape:collect="always">
      <stop
         id="stop4161"
         offset="0"
         style="stop-color:#000000;stop-opacity:0.15000001" />
      <stop
         id="stop4163"
         offset="1"
         style="stop-color:#e0e0e0;stop-opacity:0;" />
    </linearGradient>
    <linearGradient
       inkscape:collect="always"
       id="linearGradient4441">
      <stop
         style="stop-color:#000000;stop-opacity:0.15000001"
         offset="0"
         id="stop4443" />
      <stop
         style="stop-color:#e0e0e0;stop-opacity:0;"
         offset="1"
         id="stop4445" />
    </linearGradient>
    <filter
       style="color-interpolation-filters:sRGB"
       inkscape:label="Drop Shadow"
       id="filter4630">
      <feFlood
         flood-opacity="1"
         flood-color="rgb(0,0,0)"
         result="flood"
         id="feFlood4632" />
      <feComposite
         in="flood"
         in2="SourceGraphic"
         operator="in"
         result="composite1"
         id="feComposite4634" />
      <feGaussianBlur
         in="composite1"
         stdDeviation="0.5"
         result="blur"
         id="feGaussianBlur4636" />
      <feOffset
         dx="0"
         dy="0.5"
         result="offset"
         id="feOffset4638" />
      <feComposite
         in="SourceGraphic"
         in2="offset"
         operator="over"
         result="composite2"
         id="feComposite4640" />
    </filter>
    <linearGradient
       inkscape:collect="always"
       id="linearGradient4165">
      <stop
         style="stop-color:#ffffff;stop-opacity:0.15000001"
         offset="0"
         id="stop4167" />
      <stop
         style="stop-color:#177ed5;stop-opacity:0;"
         offset="1"
         id="stop4169" />
    </linearGradient>
    <linearGradient
       inkscape:collect="always"
       xlink:href="#linearGradient4165"
       id="linearGradient4171-1"
       x1="7"
       y1="1011.3622"
       x2="41.000019"
       y2="1045.3622"
       gradientUnits="userSpaceOnUse"
       gradientTransform="matrix(0.95651664,0,0,0.9565206,1.043486,44.71285)" />
    <linearGradient
       inkscape:collect="always"
       xlink:href="#linearGradient4159"
       id="linearGradient4447"
       x1="25"
       y1="1032.3622"
       x2="25"
       y2="1037.3622"
       gradientUnits="userSpaceOnUse"
       gradientTransform="matrix(1,0,0,3.1272726,48,-2195.7525)" />
    <linearGradient
       inkscape:collect="always"
       xlink:href="#linearGradient4441"
       id="linearGradient4451"
       gradientUnits="userSpaceOnUse"
       gradientTransform="matrix(1,0,0,3.1272726,48,-4260.4769)"
       x1="25"
       y1="1032.3622"
       x2="25"
       y2="1037.3622" />
  </defs>
  <sodipodi:namedview
     id="base"
     pagecolor="#565656"
     bordercolor="#666666"
     borderopacity="1.0"
     inkscape:pageopacity="0"
     inkscape:pageshadow="2"
     inkscape:zoom="8.0000004"
     inkscape:cx="12.888011"
     inkscape:cy="5.264608"
     inkscape:document-units="px"
     inkscape:current-layer="layer1"
     showgrid="true"
     units="px"
     inkscape:window-width="960"
     inkscape:window-height="1002"
     inkscape:window-x="0"
     inkscape:window-y="0"
     inkscape:window-maximized="0"
     inkscape:showpageshadow="false"
     showguides="false">
    <inkscape:grid
       type="xygrid"
       id="grid4140" />
  </sodipodi:namedview>
  <metadata
     id="metadata7">
    <rdf:RDF>
      <cc:Work
         rdf:about="">
        <dc:format>image/svg+xml</dc:format>
        <dc:type
           rdf:resource="http://purl.org/dc/dcmitype/StillImage" />
        <dc:title />
      </cc:Work>
    </rdf:RDF>
  </metadata>
  <g
     inkscape:label="Laag 1"
     inkscape:groupmode="layer"
     id="layer1"
     transform="translate(0,-1004.3622)">
    <path
       inkscape:connector-curvature="0"
       style="fill:none"
       d="m 2,1001.3622 48,0 0,48 -48,0 z"
       id="path4" />
    <path
       d="m 20,1007.3622 -4,4 0,4 -8,0 -2,0 c -2.216,0 -4,1.784 -4,4 l 0,26 c 0,2.216 1.784,4 4,4 l 36,0 c 2.216,0 4,-1.784 4,-4 l 0,-26 c 0,-2.216 -1.784,-4 -4,-4 l -2,0 -8,0 0,-4 -4,-4 -8,0 z m 0,4 8,0 0,4 -8,0 0,-4 z"
       id="path4146"
       style="fill:#0288d1;fill-opacity:1"
       inkscape:connector-curvature="0" />
    <path
       style="fill:#ffffff;fill-opacity:0.2"
       d="m 20,1007.3622 -4,4 0,0.5 4,-4 8,0 4,4 0,-0.5 -4,-4 -8,0 z m -14,8 c -2.216,0 -4,1.784 -4,4 l 0,0.5 c 0,-2.216 1.784,-4 4,-4 l 2,0 8,0 0,-0.5 -8,0 -2,0 z m 14,0 0,0.5 8,0 0,-0.5 -8,0 z m 12,0 0,0.5 8,0 2,0 c 2.216,0 4,1.784 4,4 l 0,-0.5 c 0,-2.216 -1.784,-4 -4,-4 l -2,0 -8,0 z"
       id="path4159"
       inkscape:connector-curvature="0" />
    <path
       style="fill:#0288d1;fill-opacity:1;stroke:none"
       d="m 2.6074219,1032.3622 c -0.2084769,0 -0.4068762,0.029 -0.6074219,0.055 l 0,12.9453 c 0,2.216 1.784,4 4,4 l 36,0 c 2.216,0 4,-1.784 4,-4 l 0,-13 -43.3925781,0 z"
       id="rect4152"
       inkscape:connector-curvature="0" />
    <path
       style="fill:#000000;fill-opacity:0.2"
       d="m 20,1010.8622 0,0.5 8,0 0,-0.5 -8,0 z m -18,34 0,0.5 c 0,2.216 1.784,4 4,4 l 36,0 c 2.216,0 4,-1.784 4,-4 l 0,-0.5 c 0,2.216 -1.784,4 -4,4 l -36,0 c -2.216,0 -4,-1.784 -4,-4 z"
       id="path4154"
       inkscape:connector-curvature="0" />
    <rect
       style="fill:url(#linearGradient4447);fill-opacity:1;stroke:none;stroke-width:0.5;stroke-miterlimit:4;stroke-dasharray:none;stroke-opacity:0.2"
       id="rect4431"
       width="44"
       height="16"
       x="50"
       y="1032.3622"
       ry="5.5624951e-05" />
    <rect
       ry="5.5624951e-05"
       y="-1032.3622"
       x="50"
       height="16"
       width="44"
       id="rect4449"
       style="fill:url(#linearGradient4451);fill-opacity:1;stroke:none;stroke-width:0.5;stroke-miterlimit:4;stroke-dasharray:none;stroke-opacity:0.2"
       transform="scale(1,-1)" />
    <path
       style="fill:none;fill-rule:evenodd;stroke:#000000;stroke-width:0.40000001;stroke-linecap:butt;stroke-linejoin:miter;stroke-miterlimit:4;stroke-dasharray:none;stroke-opacity:0.05"
       d="m 94,1032.3622 -44,0"
       id="path4408"
       inkscape:connector-curvature="0" />
    <path
       inkscape:connector-curvature="0"
       d="m 33,1029.3623 -4.5,-10e-5 0,-6.9999 -9,-10e-5 0,7.0001 -4.5,0 9,8.9999 z m -18,10.9999 0,3 18,0 0,-3 z"
       id="path4-9"
       style="fill:#eeeeee;fill-opacity:1"
       sodipodi:nodetypes="ccccccccccccc" />
    <path
       style="fill:url(#linearGradient4171-1);fill-opacity:1;stroke:none;stroke-width:2;stroke-linecap:round;stroke-linejoin:round;stroke-miterlimit:4;stroke-dasharray:none;stroke-opacity:1"
       d="m 20,1007.3622 -4,4 0,4 -8,0 -2,0 c -2.216,0 -4,1.784 -4,4 l 0,9 0,17 c 0,2.216 1.784,4 4,4 l 36,0 c 2.216,0 4,-1.784 4,-4 l 0,-26 c 0,-2.216 -1.784,-4 -4,-4 l -2,0 -8,0 0,-4 -4,-4 -8,0 z m 0,4 8,0 0,4 -8,0 0,-4 z"
       id="circle4163-3"
       inkscape:connector-curvature="0" />
  </g>
</svg>
