<?xml version="1.0" encoding="UTF-8" standalone="no"?>
<!-- Created with Inkscape (http://www.inkscape.org/) -->

<svg
   xmlns:dc="http://purl.org/dc/elements/1.1/"
   xmlns:cc="http://creativecommons.org/ns#"
   xmlns:rdf="http://www.w3.org/1999/02/22-rdf-syntax-ns#"
   xmlns:svg="http://www.w3.org/2000/svg"
   xmlns="http://www.w3.org/2000/svg"
   xmlns:xlink="http://www.w3.org/1999/xlink"
   xmlns:sodipodi="http://sodipodi.sourceforge.net/DTD/sodipodi-0.dtd"
   xmlns:inkscape="http://www.inkscape.org/namespaces/inkscape"
   width="24"
   height="24"
   id="svg2985"
   version="1.1"
   inkscape:version="0.91 r13725"
   sodipodi:docname="ardour.svg"
   inkscape:export-filename="/home/felz/Pictures/evopop-icon-theme/ardour.png"
   inkscape:export-xdpi="300"
   inkscape:export-ydpi="300">
  <defs
     id="defs2987">
    <linearGradient
       id="linearGradient3859">
      <stop
         style="stop-color:#ffffff;stop-opacity:0.07843138;"
         offset="0"
         id="stop3861" />
      <stop
         style="stop-color:#ffffff;stop-opacity:0.07843138;"
         offset="1"
         id="stop3863" />
    </linearGradient>
    <linearGradient
       inkscape:collect="always"
       xlink:href="#linearGradient4165"
       id="linearGradient3009"
       gradientUnits="userSpaceOnUse"
       gradientTransform="matrix(0.46376812,0,0,0.47894227,1.11199,-480.54164)"
       x1="7"
       y1="1011.3622"
       x2="41.000019"
       y2="1045.3622" />
    <linearGradient
       id="linearGradient4165">
      <stop
         style="stop-color:#ffffff;stop-opacity:0.15000001"
         offset="0"
         id="stop4167" />
      <stop
         style="stop-color:#d51717;stop-opacity:0;"
         offset="1"
         id="stop4169" />
    </linearGradient>
  </defs>
  <sodipodi:namedview
     id="base"
     pagecolor="#ffffff"
     bordercolor="#666666"
     borderopacity="1.0"
     inkscape:pageopacity="0.0"
     inkscape:pageshadow="2"
     inkscape:zoom="22.627417"
     inkscape:cx="-5.2236205"
     inkscape:cy="6.3457409"
     inkscape:current-layer="layer1"
     showgrid="false"
     inkscape:document-units="px"
     inkscape:grid-bbox="true"
     inkscape:snap-grids="false"
     inkscape:snap-bbox="true"
     inkscape:object-paths="true"
     inkscape:snap-intersection-paths="true"
     inkscape:object-nodes="true"
     inkscape:snap-smooth-nodes="true"
     inkscape:window-width="1920"
     inkscape:window-height="1003"
     inkscape:window-x="0"
     inkscape:window-y="0"
     inkscape:window-maximized="1"
     showguides="true"
     inkscape:guide-bbox="true"
     inkscape:snap-midpoints="true">
    <inkscape:grid
       type="xygrid"
       id="grid3774"
       empspacing="4"
       visible="true"
       enabled="true"
       snapvisiblegridlinesonly="true" />
  </sodipodi:namedview>
  <metadata
     id="metadata2990">
    <rdf:RDF>
      <cc:Work
         rdf:about="">
        <dc:format>image/svg+xml</dc:format>
        <dc:type
           rdf:resource="http://purl.org/dc/dcmitype/StillImage" />
        <dc:title />
      </cc:Work>
    </rdf:RDF>
  </metadata>
  <g
     id="layer1"
     inkscape:label="Layer 1"
     inkscape:groupmode="layer"
     transform="translate(0,-40)">
    <path
       style="fill:#ff002e;fill-opacity:1;stroke:none"
       d="m -91.101028,20.046346 c 0,0 -14.000002,26.002308 -25.000002,44.003906 1.57351,0 2.4255,-1.384537 3.01103,-1.384537 0.58553,0 0.81466,0.788662 1.61342,0.788662 0.79876,0 0.8336,-3.771352 1.39029,-3.920528 0.55668,-0.149176 0.73068,3.03053 1.46738,3.03053 0.7367,0 0.90881,-7.446795 1.75688,-7.446795 0.84808,0 0.24007,6.087909 1.31798,6.056656 1.07792,-0.03125 1.07982,-11.105337 1.94476,-11.105337 0.86494,0 0.64826,10.001558 1.9621,10.001558 1.31383,0 0.24448,-13.092846 1.03459,-13.092846 0.790112,0 0.725752,13.040175 1.861642,13.040175 1.13588,0 0.50924,-14.022064 1.20368,-14.022064 0.69445,0 0.84593,13.599667 2.03564,13.599667 1.1897,0 0.36444,-12.683559 1.26289,-12.648353 0.89844,0.0352 0.55473,13.214113 1.51791,13.214113 0.96319,0 0.60984,-11.943231 1.60996,-11.943231 1.00013,0 0.35494,12.260183 1.5013,12.260183 1.14637,0 0.81749,-10.033675 1.67095,-10.033675 0.85346,0 0.5264,10.789527 1.47866,10.534346 0.95227,-0.255181 0.94966,-7.552898 1.77331,-7.552898 0.82365,0 0.34007,8.254034 1.48444,8.254034 1.14437,0 0.98636,-5.605985 1.53511,-5.605985 0.54874,0 0.6221,6.231334 1.61528,6.231334 0.99319,0 0.95809,-4.020491 1.58621,-4.046352 0.62812,-0.02586 0.68175,4.702682 1.64545,4.702682 0.9637,0 1.14039,-2.300051 1.54152,-2.300051 0.40114,0 0.83962,2.716749 1.58947,2.714341 0.74985,-0.0024 1.02081,-1.024824 1.58751,-1.024824 0.5667,0 0.952,1.453209 1.50781,1.499593 0.55582,0.04638 0.84901,-0.362873 1.53955,-0.32171 0.69055,0.04116 1.12568,0.566771 2.95328,0.521312 -12,-18.001598 -25,-44.003906 -25,-44.003906 z"
       id="path3004"
       inkscape:connector-curvature="0"
       sodipodi:nodetypes="cczzzzzzzzzzzzzzzzzzzzzzzzzzzzzcc" />
    <path
       style="opacity:0.67272728;fill:#ff002e;fill-opacity:1;stroke:none"
       d="m -116.10103,64.050252 c 0,0 -10.47246,19.035534 -11,19.997967 0.29723,0 0.63928,-0.05348 1,-0.124987 l 0,-0.874911 1,0 0,0.624936 c 0.63198,-0.179628 1.30785,-0.397912 2,-0.624936 l 0,-2.999695 1,0 0,2.687227 c 0.68378,-0.212058 1.35949,-0.408746 2,-0.531196 l 0,-6.155625 1,0 0,6.030637 c 0.11272,-0.007 0.23541,-0.03125 0.34375,-0.03125 0.4318,0 1.019,0.0869 1.65625,0.18748 l 0,-6.186871 1,0 0,6.374352 c 0.59774,0.112356 1.31845,0.234767 2,0.374962 l 0,-3.749619 1,0 0,3.9371 c 0.6661,0.135813 1.30481,0.277761 2,0.406209 l 0,-2.343512 1,0 0,2.499746 c 0.67297,0.11334 1.33857,0.233452 2,0.312468 l 0,-0.812417 1,0 0,0.906158 c 0.68925,0.05829 1.36848,0.106376 2,0.09374 -0.28636,-0.507026 -11,-19.997963 -11,-19.997963 z"
       id="path3004-1-8-4"
       inkscape:connector-curvature="0" />
    <g
       id="g4201">
      <path
         sodipodi:nodetypes="cccc"
         inkscape:connector-curvature="0"
         id="path3004-1-8"
         d="M 12,42 C 12,42 1.527538,61.037567 1,62 12,53 11.989082,62 23,62 22.713636,61.492974 12,42 12,42 Z"
         style="fill:#ff0051;fill-opacity:1;stroke:none" />
      <path
         sodipodi:nodetypes="cczcc"
         inkscape:connector-curvature="0"
         id="path3857"
         d="m 12,42 -4.4044632,8.006841 c 0,0 3.4086202,-5.982608 4.4031812,-5.982608 0.994561,0 1.630188,0.979673 1.630188,0.979673 z"
         style="opacity:0.1;fill:#ffffff;fill-opacity:1;stroke:none" />
      <path
         sodipodi:nodetypes="ccccc"
         inkscape:connector-curvature="0"
         id="path3004-1-8-2"
         d="M 10.027515,55 C 7.0032412,55 1.2637689,61.518783 0.99999991,62 12,53 11.989082,62 23,62 22.856818,61.746487 22.447573,61.011049 22.447573,61.011049 16.512642,60.973754 14.027515,55 10.027515,55 Z"
         style="opacity:0.1;fill:#000000;fill-opacity:1;stroke:none" />
      <path
         id="path3346"
         transform="translate(0,40)"
         d="M 12 2 C 12 2 1.527538 21.037567 1 22 C 1.0839455 21.931317 1.1536554 21.884957 1.2363281 21.818359 C 2.1627745 20.130981 12 2.25 12 2.25 C 12 2.25 22.320972 21.026415 22.861328 21.996094 C 22.908635 21.99643 22.952281 22 23 22 C 22.713636 21.492974 12 2 12 2 z "
         style="fill:#ffffff;fill-opacity:0.2;stroke:none" />
      <path
         id="path4151"
         transform="translate(0,40)"
         d="M 9.3359375 17.751953 C 7.3648178 17.691654 5.0023755 18.60342 1.5292969 21.345703 C 1.2517278 21.668049 1.0412338 21.924774 1 22 C 12 13 11.989082 22 23 22 C 22.963179 21.934806 22.917949 21.854327 22.857422 21.746094 C 15.744305 21.694166 13.268521 17.872255 9.3359375 17.751953 z "
         style="opacity:1;fill:#000000;fill-opacity:0.2;stroke:none" />
      <path
         id="circle4163-3"
         transform="translate(0,40)"
         d="M 12 2 C 12 2 7.2243257 10.682197 4 16.544922 C 2.7907532 18.74367 1.1438848 21.737499 1 22 C 1.5743097 21.53011 2.1098315 21.124252 2.6210938 20.759766 C 3.1059783 20.407825 3.5597483 20.111601 4 19.835938 C 11.520596 15.126911 12.929622 21.041005 21.046875 21.898438 C 21.051029 21.898876 21.054437 21.899955 21.058594 21.900391 C 21.666344 21.964196 22.311432 22 23 22 C 22.972649 21.951573 22.148396 20.451143 21.949219 20.089844 C 20.063033 16.668373 12 2 12 2 z "
         style="fill:url(#linearGradient3009);fill-opacity:1;stroke:none" />
    </g>
  </g>
</svg>
