<?xml version="1.0" encoding="UTF-8" standalone="no"?>
<!-- Created with Inkscape (http://www.inkscape.org/) -->

<svg
   xmlns:dc="http://purl.org/dc/elements/1.1/"
   xmlns:cc="http://creativecommons.org/ns#"
   xmlns:rdf="http://www.w3.org/1999/02/22-rdf-syntax-ns#"
   xmlns:svg="http://www.w3.org/2000/svg"
   xmlns="http://www.w3.org/2000/svg"
   xmlns:xlink="http://www.w3.org/1999/xlink"
   xmlns:sodipodi="http://sodipodi.sourceforge.net/DTD/sodipodi-0.dtd"
   xmlns:inkscape="http://www.inkscape.org/namespaces/inkscape"
   width="48"
   height="48"
   viewBox="0 0 48 48"
   id="svg2"
   version="1.1"
   inkscape:version="0.91 r13725"
   sodipodi:docname="geany.svg"
   inkscape:export-filename="/home/peter/Documenten/shades1.png"
   inkscape:export-xdpi="360"
   inkscape:export-ydpi="360">
  <defs
     id="defs4">
    <filter
       style="color-interpolation-filters:sRGB"
       inkscape:label="Drop Shadow"
       id="filter4630">
      <feFlood
         flood-opacity="1"
         flood-color="rgb(0,0,0)"
         result="flood"
         id="feFlood4632" />
      <feComposite
         in="flood"
         in2="SourceGraphic"
         operator="in"
         result="composite1"
         id="feComposite4634" />
      <feGaussianBlur
         in="composite1"
         stdDeviation="0.5"
         result="blur"
         id="feGaussianBlur4636" />
      <feOffset
         dx="0"
         dy="0.5"
         result="offset"
         id="feOffset4638" />
      <feComposite
         in="SourceGraphic"
         in2="offset"
         operator="over"
         result="composite2"
         id="feComposite4640" />
    </filter>
    <linearGradient
       inkscape:collect="always"
       id="linearGradient4165">
      <stop
         style="stop-color:#ffffff;stop-opacity:0.15000001"
         offset="0"
         id="stop4167" />
      <stop
         style="stop-color:#177ed5;stop-opacity:0;"
         offset="1"
         id="stop4169" />
    </linearGradient>
    <linearGradient
       inkscape:collect="always"
       xlink:href="#linearGradient4165"
       id="linearGradient4202"
       x1="55"
       y1="1002.3622"
       x2="95"
       y2="1042.3622"
       gradientUnits="userSpaceOnUse"
       gradientTransform="translate(-51,6.00015)" />
    <pattern
       patternUnits="userSpaceOnUse"
       width="8.9999798"
       height="12.99992"
       patternTransform="translate(8.5000101,1020.8622)"
       id="pattern8126">
      <path
         inkscape:connector-curvature="0"
         id="path4173"
         d="M 4.4999899,0.49995987 0.49998991,6.4999599 4.4999899,12.49996 l 4,-6.0000001 -4,-6.00000003 z"
         style="fill:#b71c1c;fill-opacity:1;fill-rule:evenodd;stroke:#b71c1c;stroke-width:1;stroke-linecap:butt;stroke-linejoin:round;stroke-miterlimit:4;stroke-dasharray:none;stroke-opacity:1" />
    </pattern>
  </defs>
  <sodipodi:namedview
     id="base"
     pagecolor="#565656"
     bordercolor="#666666"
     borderopacity="1.0"
     inkscape:pageopacity="0"
     inkscape:pageshadow="2"
     inkscape:zoom="11.313709"
     inkscape:cx="29.40276"
     inkscape:cy="23.20556"
     inkscape:document-units="px"
     inkscape:current-layer="layer1"
     showgrid="true"
     units="px"
     inkscape:window-width="959"
     inkscape:window-height="1008"
     inkscape:window-x="960"
     inkscape:window-y="0"
     inkscape:window-maximized="0"
     inkscape:showpageshadow="false"
     showguides="false"
     inkscape:object-paths="true"
     inkscape:snap-intersection-paths="true"
     inkscape:object-nodes="true"
     inkscape:snap-smooth-nodes="true"
     inkscape:snap-midpoints="true"
     inkscape:snap-grids="true"
     inkscape:snap-global="true">
    <inkscape:grid
       type="xygrid"
       id="grid4140" />
  </sodipodi:namedview>
  <metadata
     id="metadata7">
    <rdf:RDF>
      <cc:Work
         rdf:about="">
        <dc:format>image/svg+xml</dc:format>
        <dc:type
           rdf:resource="http://purl.org/dc/dcmitype/StillImage" />
        <dc:title />
      </cc:Work>
    </rdf:RDF>
  </metadata>
  <g
     inkscape:label="Laag 1"
     inkscape:groupmode="layer"
     id="layer1"
     transform="translate(0,-1004.3622)">
    <ellipse
       style="fill:#212121;fill-opacity:1;stroke:none;stroke-width:2;stroke-linecap:round;stroke-linejoin:round;stroke-miterlimit:4;stroke-dasharray:none;stroke-opacity:1"
       id="path4136"
       cx="24.000105"
       cy="1028.3622"
       rx="19.999895"
       ry="19.999968" />
    <rect
       style="opacity:1;fill:#fdd835;fill-opacity:1;stroke:none;stroke-width:0;stroke-linecap:butt;stroke-linejoin:miter;stroke-miterlimit:0;stroke-dasharray:none;stroke-opacity:1"
       id="rect4153"
       width="40"
       height="39.999954"
       x="4"
       y="1008.3622"
       rx="3"
       ry="3" />
    <path
       style="opacity:1;fill:#ffffff;fill-opacity:0.2;stroke:none;stroke-width:0;stroke-linecap:butt;stroke-linejoin:miter;stroke-miterlimit:0;stroke-dasharray:none;stroke-opacity:1"
       d="m 7.0000001,1008.3622 c -1.6022525,0 -3,1.2707 -3,3 0,-0.9945 1.2285226,-2 3,-2 l 33.9999999,0 c 1.591204,0 3,1 3,2 0,-1.6464 -1.305995,-3 -3,-3 z"
       id="rect4167"
       inkscape:connector-curvature="0"
       sodipodi:nodetypes="ccssccc" />
    <path
       style="opacity:1;fill:#000000;fill-opacity:0.2;stroke:none;stroke-width:0;stroke-linecap:butt;stroke-linejoin:miter;stroke-miterlimit:0;stroke-dasharray:none;stroke-opacity:1"
       d="m 6.9999998,1048.3622 c -1.6022524,0 -2.9999999,-1.2707 -2.9999999,-3 0,0.9945 1.2285225,2 2.9999999,2 l 34.0000002,0 c 1.591204,0 3,-1 3,-2 0,1.6464 -1.305995,3 -3,3 z"
       id="rect4167-1"
       inkscape:connector-curvature="0"
       sodipodi:nodetypes="ccssccc" />
    <g
       id="g8898"
       transform="translate(0,-2)">
      <rect
         id="rect8129"
         y="1020.8622"
         x="8.5000105"
         height="12.99992"
         width="8.99998"
         style="fill:none;stroke:none" />
      <path
         style="opacity:1;fill:#000000;fill-opacity:0.2;stroke:none;stroke-width:1.5;stroke-linecap:round;stroke-linejoin:round;stroke-miterlimit:4;stroke-dasharray:none;stroke-opacity:0.2"
         d="m 13,1020.8622 c -1.106088,0 -4.2411077,4.9911 -4.4857455,6.8211 -0.00971,0.055 -0.015508,0.1129 -0.014024,0.1798 -0.00141,0.067 0.00436,0.124 0.014024,0.178 0.2430467,1.8286 3.3793405,6.8211 4.4857455,6.8211 1.106404,0 4.242697,-4.9925 4.485745,-6.8211 0.0097,-0.054 0.01542,-0.1114 0.01402,-0.178 0.0015,-0.067 -0.0043,-0.1254 -0.01402,-0.1798 -0.244639,-1.83 -3.379658,-6.8211 -4.485745,-6.8211 z"
         id="path8889"
         inkscape:connector-curvature="0" />
      <path
         inkscape:connector-curvature="0"
         id="path8884"
         d="m 12.5,1020.3622 c -1.106088,0 -4.2411077,4.9911 -4.4857455,6.8211 -0.00971,0.055 -0.015508,0.1129 -0.014024,0.1798 -0.00141,0.067 0.00436,0.124 0.014024,0.178 0.2430467,1.8286 3.3793405,6.8211 4.4857455,6.8211 1.106404,0 4.242697,-4.9925 4.485745,-6.8211 0.0097,-0.054 0.01542,-0.1114 0.01402,-0.178 0.0015,-0.067 -0.0043,-0.1254 -0.01402,-0.1798 -0.244639,-1.83 -3.379658,-6.8211 -4.485745,-6.8211 z"
         style="opacity:1;fill:#b71c1c;fill-opacity:1;stroke:none;stroke-width:1.5;stroke-linecap:round;stroke-linejoin:round;stroke-miterlimit:4;stroke-dasharray:none;stroke-opacity:0.2" />
      <path
         id="path8893"
         transform="translate(0,1004.3622)"
         d="M 12.5,16 C 11.393912,16 8.2583097,20.990313 8.0136719,22.820312 8.0039619,22.875313 7.998516,22.9331 8,23 7.99859,23.067 8.00401,23.125687 8.013672,23.179688 8.2143499,24.68952 10.375652,28.316294 11.75,29.548828 10.404627,28.013673 8.6909512,25.013476 8.5136719,23.679688 8.5040079,23.625687 8.49859,23.567 8.5,23.5 8.498516,23.4331 8.5039619,23.375313 8.5136719,23.320312 8.7583097,21.490313 11.893912,16.5 13,16.5 c 0.192817,0 0.45993,0.191012 0.75,0.451172 C 13.251042,16.381779 12.799302,16 12.5,16 Z"
         style="opacity:1;fill:#ffffff;fill-opacity:0.2;stroke:none;stroke-width:1.5;stroke-linecap:round;stroke-linejoin:round;stroke-miterlimit:4;stroke-dasharray:none;stroke-opacity:0.2"
         inkscape:connector-curvature="0" />
      <path
         inkscape:connector-curvature="0"
         style="opacity:1;fill:#000000;fill-opacity:0.2;stroke:none;stroke-width:1.5;stroke-linecap:round;stroke-linejoin:round;stroke-miterlimit:4;stroke-dasharray:none;stroke-opacity:0.2"
         d="m 12.499948,1034.3622 c 1.106041,0 4.241513,-4.9903 4.48614,-6.8203 0.0097,-0.055 0.01516,-0.1128 0.01367,-0.1797 0.0014,-0.067 -0.004,-0.1257 -0.01367,-0.1797 -0.20067,-1.5098 -2.361881,-5.1366 -3.736172,-6.3691 1.345317,1.5351 3.058921,4.5353 3.236193,5.8691 0.0097,0.054 0.01508,0.1127 0.01367,0.1797 0.0015,0.067 -0.004,0.1247 -0.01367,0.1797 -0.244627,1.83 -3.380099,6.8203 -4.48614,6.8203 -0.192809,0 -0.459911,-0.191 -0.749969,-0.4512 0.498937,0.5694 0.950658,0.9512 1.249948,0.9512 z"
         id="path8896" />
    </g>
    <g
       id="g8905"
       transform="translate(11.500242,2)">
      <rect
         style="fill:none;stroke:none"
         width="8.99998"
         height="12.99992"
         x="8.5000105"
         y="1020.8622"
         id="rect8907" />
      <path
         inkscape:connector-curvature="0"
         id="path8909"
         d="m 13,1020.8622 c -1.106088,0 -4.2411077,4.9911 -4.4857455,6.8211 -0.00971,0.055 -0.015508,0.1129 -0.014024,0.1798 -0.00141,0.067 0.00436,0.124 0.014024,0.178 0.2430467,1.8286 3.3793405,6.8211 4.4857455,6.8211 1.106404,0 4.242697,-4.9925 4.485745,-6.8211 0.0097,-0.054 0.01542,-0.1114 0.01402,-0.178 0.0015,-0.067 -0.0043,-0.1254 -0.01402,-0.1798 -0.244639,-1.83 -3.379658,-6.8211 -4.485745,-6.8211 z"
         style="opacity:1;fill:#000000;fill-opacity:0.2;stroke:none;stroke-width:1.5;stroke-linecap:round;stroke-linejoin:round;stroke-miterlimit:4;stroke-dasharray:none;stroke-opacity:0.2" />
      <path
         style="opacity:1;fill:#b71c1c;fill-opacity:1;stroke:none;stroke-width:1.5;stroke-linecap:round;stroke-linejoin:round;stroke-miterlimit:4;stroke-dasharray:none;stroke-opacity:0.2"
         d="m 12.5,1020.3622 c -1.106088,0 -4.2411077,4.9911 -4.4857455,6.8211 -0.00971,0.055 -0.015508,0.1129 -0.014024,0.1798 -0.00141,0.067 0.00436,0.124 0.014024,0.178 0.2430467,1.8286 3.3793405,6.8211 4.4857455,6.8211 1.106404,0 4.242697,-4.9925 4.485745,-6.8211 0.0097,-0.054 0.01542,-0.1114 0.01402,-0.178 0.0015,-0.067 -0.0043,-0.1254 -0.01402,-0.1798 -0.244639,-1.83 -3.379658,-6.8211 -4.485745,-6.8211 z"
         id="path8911"
         inkscape:connector-curvature="0" />
      <path
         inkscape:connector-curvature="0"
         style="opacity:1;fill:#ffffff;fill-opacity:0.2;stroke:none;stroke-width:1.5;stroke-linecap:round;stroke-linejoin:round;stroke-miterlimit:4;stroke-dasharray:none;stroke-opacity:0.2"
         d="M 12.5,16 C 11.393912,16 8.2583097,20.990313 8.0136719,22.820312 8.0039619,22.875313 7.998516,22.9331 8,23 7.99859,23.067 8.00401,23.125687 8.013672,23.179688 8.2143499,24.68952 10.375652,28.316294 11.75,29.548828 10.404627,28.013673 8.6909512,25.013476 8.5136719,23.679688 8.5040079,23.625687 8.49859,23.567 8.5,23.5 8.498516,23.4331 8.5039619,23.375313 8.5136719,23.320312 8.7583097,21.490313 11.893912,16.5 13,16.5 c 0.192817,0 0.45993,0.191012 0.75,0.451172 C 13.251042,16.381779 12.799302,16 12.5,16 Z"
         transform="translate(0,1004.3622)"
         id="path8913" />
      <path
         id="path8915"
         d="m 12.499948,1034.3622 c 1.106041,0 4.241513,-4.9903 4.48614,-6.8203 0.0097,-0.055 0.01516,-0.1128 0.01367,-0.1797 0.0014,-0.067 -0.004,-0.1257 -0.01367,-0.1797 -0.20067,-1.5098 -2.361881,-5.1366 -3.736172,-6.3691 1.345317,1.5351 3.058921,4.5353 3.236193,5.8691 0.0097,0.054 0.01508,0.1127 0.01367,0.1797 0.0015,0.067 -0.004,0.1247 -0.01367,0.1797 -0.244627,1.83 -3.380099,6.8203 -4.48614,6.8203 -0.192809,0 -0.459911,-0.191 -0.749969,-0.4512 0.498937,0.5694 0.950658,0.9512 1.249948,0.9512 z"
         style="opacity:1;fill:#000000;fill-opacity:0.2;stroke:none;stroke-width:1.5;stroke-linecap:round;stroke-linejoin:round;stroke-miterlimit:4;stroke-dasharray:none;stroke-opacity:0.2"
         inkscape:connector-curvature="0" />
    </g>
    <g
       transform="translate(23.000242,-2)"
       id="g8917">
      <rect
         id="rect8919"
         y="1020.8622"
         x="8.5000105"
         height="12.99992"
         width="8.99998"
         style="fill:none;stroke:none" />
      <path
         style="opacity:1;fill:#000000;fill-opacity:0.2;stroke:none;stroke-width:1.5;stroke-linecap:round;stroke-linejoin:round;stroke-miterlimit:4;stroke-dasharray:none;stroke-opacity:0.2"
         d="m 13,1020.8622 c -1.106088,0 -4.2411077,4.9911 -4.4857455,6.8211 -0.00971,0.055 -0.015508,0.1129 -0.014024,0.1798 -0.00141,0.067 0.00436,0.124 0.014024,0.178 0.2430467,1.8286 3.3793405,6.8211 4.4857455,6.8211 1.106404,0 4.242697,-4.9925 4.485745,-6.8211 0.0097,-0.054 0.01542,-0.1114 0.01402,-0.178 0.0015,-0.067 -0.0043,-0.1254 -0.01402,-0.1798 -0.244639,-1.83 -3.379658,-6.8211 -4.485745,-6.8211 z"
         id="path8921"
         inkscape:connector-curvature="0" />
      <path
         inkscape:connector-curvature="0"
         id="path8923"
         d="m 12.5,1020.3622 c -1.106088,0 -4.2411077,4.9911 -4.4857455,6.8211 -0.00971,0.055 -0.015508,0.1129 -0.014024,0.1798 -0.00141,0.067 0.00436,0.124 0.014024,0.178 0.2430467,1.8286 3.3793405,6.8211 4.4857455,6.8211 1.106404,0 4.242697,-4.9925 4.485745,-6.8211 0.0097,-0.054 0.01542,-0.1114 0.01402,-0.178 0.0015,-0.067 -0.0043,-0.1254 -0.01402,-0.1798 -0.244639,-1.83 -3.379658,-6.8211 -4.485745,-6.8211 z"
         style="opacity:1;fill:#b71c1c;fill-opacity:1;stroke:none;stroke-width:1.5;stroke-linecap:round;stroke-linejoin:round;stroke-miterlimit:4;stroke-dasharray:none;stroke-opacity:0.2" />
      <path
         id="path8925"
         transform="translate(0,1004.3622)"
         d="M 12.5,16 C 11.393912,16 8.2583097,20.990313 8.0136719,22.820312 8.0039619,22.875313 7.998516,22.9331 8,23 7.99859,23.067 8.00401,23.125687 8.013672,23.179688 8.2143499,24.68952 10.375652,28.316294 11.75,29.548828 10.404627,28.013673 8.6909512,25.013476 8.5136719,23.679688 8.5040079,23.625687 8.49859,23.567 8.5,23.5 8.498516,23.4331 8.5039619,23.375313 8.5136719,23.320312 8.7583097,21.490313 11.893912,16.5 13,16.5 c 0.192817,0 0.45993,0.191012 0.75,0.451172 C 13.251042,16.381779 12.799302,16 12.5,16 Z"
         style="opacity:1;fill:#ffffff;fill-opacity:0.2;stroke:none;stroke-width:1.5;stroke-linecap:round;stroke-linejoin:round;stroke-miterlimit:4;stroke-dasharray:none;stroke-opacity:0.2"
         inkscape:connector-curvature="0" />
      <path
         inkscape:connector-curvature="0"
         style="opacity:1;fill:#000000;fill-opacity:0.2;stroke:none;stroke-width:1.5;stroke-linecap:round;stroke-linejoin:round;stroke-miterlimit:4;stroke-dasharray:none;stroke-opacity:0.2"
         d="m 12.499948,1034.3622 c 1.106041,0 4.241513,-4.9903 4.48614,-6.8203 0.0097,-0.055 0.01516,-0.1128 0.01367,-0.1797 0.0014,-0.067 -0.004,-0.1257 -0.01367,-0.1797 -0.20067,-1.5098 -2.361881,-5.1366 -3.736172,-6.3691 1.345317,1.5351 3.058921,4.5353 3.236193,5.8691 0.0097,0.054 0.01508,0.1127 0.01367,0.1797 0.0015,0.067 -0.004,0.1247 -0.01367,0.1797 -0.244627,1.83 -3.380099,6.8203 -4.48614,6.8203 -0.192809,0 -0.459911,-0.191 -0.749969,-0.4512 0.498937,0.5694 0.950658,0.9512 1.249948,0.9512 z"
         id="path8927" />
    </g>
    <rect
       style="opacity:1;fill:url(#linearGradient4202);fill-opacity:1;stroke:none;stroke-width:0;stroke-linecap:butt;stroke-linejoin:miter;stroke-miterlimit:0;stroke-dasharray:none;stroke-opacity:1"
       id="rect4153-9"
       width="40"
       height="39.999954"
       x="4"
       y="1008.3622"
       rx="3"
       ry="3" />
  </g>
</svg>
