<?xml version="1.0" encoding="UTF-8" standalone="no"?>
<!-- Created with Inkscape (http://www.inkscape.org/) -->

<svg
   xmlns:dc="http://purl.org/dc/elements/1.1/"
   xmlns:cc="http://creativecommons.org/ns#"
   xmlns:rdf="http://www.w3.org/1999/02/22-rdf-syntax-ns#"
   xmlns:svg="http://www.w3.org/2000/svg"
   xmlns="http://www.w3.org/2000/svg"
   xmlns:xlink="http://www.w3.org/1999/xlink"
   xmlns:sodipodi="http://sodipodi.sourceforge.net/DTD/sodipodi-0.dtd"
   xmlns:inkscape="http://www.inkscape.org/namespaces/inkscape"
   id="svg2"
   version="1.1"
   inkscape:version="0.91 r13725"
   width="24"
   height="24"
   viewBox="0 0 24 24"
   sodipodi:docname="gimp.svg">
  <metadata
     id="metadata8">
    <rdf:RDF>
      <cc:Work
         rdf:about="">
        <dc:format>image/svg+xml</dc:format>
        <dc:type
           rdf:resource="http://purl.org/dc/dcmitype/StillImage" />
        <dc:title></dc:title>
      </cc:Work>
    </rdf:RDF>
  </metadata>
  <defs
     id="defs6">
    <linearGradient
       inkscape:collect="always"
       xlink:href="#linearGradient4165"
       id="linearGradient4171-1"
       x1="7"
       y1="1011.3622"
       x2="41.000019"
       y2="1045.3622"
       gradientUnits="userSpaceOnUse"
       gradientTransform="matrix(0.47824579,0,0,0.47824632,4.2716402,-479.50033)" />
    <linearGradient
       inkscape:collect="always"
       id="linearGradient4165">
      <stop
         style="stop-color:#ffffff;stop-opacity:0.15000001"
         offset="0"
         id="stop4167" />
      <stop
         style="stop-color:#177ed5;stop-opacity:0;"
         offset="1"
         id="stop4169" />
    </linearGradient>
  </defs>
  <sodipodi:namedview
     pagecolor="#ffffff"
     bordercolor="#666666"
     borderopacity="1"
     objecttolerance="10"
     gridtolerance="10"
     guidetolerance="10"
     inkscape:pageopacity="0"
     inkscape:pageshadow="2"
     inkscape:window-width="960"
     inkscape:window-height="1003"
     id="namedview4"
     showgrid="false"
     inkscape:zoom="8.0000001"
     inkscape:cx="27.282101"
     inkscape:cy="22.082464"
     inkscape:window-x="0"
     inkscape:window-y="0"
     inkscape:window-maximized="0"
     inkscape:current-layer="svg2" />
  <rect
     style="opacity:1;fill:#fafafa;fill-opacity:1;fill-rule:nonzero;stroke:none;stroke-width:10;stroke-linecap:butt;stroke-linejoin:round;stroke-miterlimit:14.5;stroke-dasharray:none;stroke-opacity:1"
     id="rect4192"
     width="9.3747005"
     height="5.718576"
     x="8.0625048"
     y="9.843605" />
  <path
     style="fill:#795548;fill-opacity:1"
     d="m 22.997576,6.238247 c -0.0086,-0.0086 -0.260185,0.207932 -0.558576,0.480455 -1.81717,1.659604 -2.649148,2.300214 -3.536997,2.724526 l -0.383777,0.183588 -0.120113,-0.0957 C 17.538447,8.845857 16.388796,8.295154 15.378678,8.084871 13.906359,7.77837 12.105324,7.996561 10.430594,8.685439 L 10.047793,8.843637 8.7822086,8.137604 C 8.0863533,7.74917 7.5128751,7.434406 7.5078353,7.438406 c -0.00504,0.004 0.041224,0.201984 0.1025357,0.440417 0.2560818,0.99583 0.3119215,1.398657 0.3154194,2.265555 0.00375,0.927947 -0.033559,1.148378 -0.280264,1.657177 -0.3341659,0.689184 -1.0982235,1.159144 -1.8847059,1.159144 l -0.2314376,0 -9.765e-4,-0.0068 -0.053709,0.002 a 2.8124103,3.6092652 0 0 1 -1.2333592,1.907169 l 0.05078,0.06348 0.00293,-9.77e-4 0.2841705,0.265616 c 2.1536593,2.014145 5.3300391,3.513336 7.9753313,3.763558 5.33754,0.50488 8.932655,-3.227633 10.162762,-10.55046 0.124897,-0.743512 0.305734,-2.140499 0.280265,-2.16595 z M 9.5478088,10.605303 c 0.386447,-0.02144 0.7871882,0.111332 1.1083642,0.42772 0.401686,0.395723 0.549413,0.923733 0.404284,1.447222 -0.123686,0.446141 -0.571574,0.889828 -1.030241,1.021453 -1.0167702,0.291791 -2.0212632,-0.607156 -1.8505272,-1.6562 0.1208947,-0.742808 0.7240439,-1.204459 1.36812,-1.240195 z m 4.3016212,0.07226 c 0.954544,0.05423 1.85236,0.738391 2.023373,1.832951 0.163342,1.045464 -0.476839,2.068339 -1.496046,2.3886 -0.28471,0.08948 -0.664549,0.119491 -0.952118,0.07519 -1.752336,-0.269802 -2.460595,-2.415228 -1.209922,-3.665904 0.468858,-0.46886 1.061987,-0.663381 1.634713,-0.63084 z"
     id="path4142"
     inkscape:connector-curvature="0" />
  <ellipse
     style="opacity:1;fill:#000000;fill-opacity:1;fill-rule:nonzero;stroke:none;stroke-width:10;stroke-linecap:butt;stroke-linejoin:round;stroke-miterlimit:14.5;stroke-dasharray:none;stroke-opacity:1"
     id="path4155"
     cx="13.24984"
     cy="13.249752"
     rx="0.7499761"
     ry="0.74997723" />
  <ellipse
     cy="12.499775"
     cx="9.499959"
     id="circle4157"
     style="opacity:1;fill:#000000;fill-opacity:1;fill-rule:nonzero;stroke:none;stroke-width:10;stroke-linecap:butt;stroke-linejoin:round;stroke-miterlimit:14.5;stroke-dasharray:none;stroke-opacity:1"
     rx="0.49998406"
     ry="0.4999848" />
  <path
     style="fill:#ffffff;fill-opacity:0.2"
     d="m 22.997576,6.238247 c -0.0086,-0.0086 -0.260185,0.207932 -0.558576,0.480455 -1.81717,1.659604 -2.649148,2.300214 -3.536997,2.724526 l -0.383777,0.183588 -0.120113,-0.0957 C 17.538447,8.845857 16.388796,8.295154 15.378678,8.084871 13.906359,7.77837 12.105324,7.996561 10.430594,8.685439 L 10.047793,8.843637 8.7822086,8.137604 C 8.0863533,7.74917 7.5128751,7.434406 7.5078353,7.438406 c -0.00327,0.0026 0.036321,0.161921 0.066404,0.286124 0.059684,0.02701 0.5483036,0.294835 1.207969,0.663066 l 1.2655837,0.706033 0.382801,-0.158198 c 1.67473,-0.688879 3.475765,-0.907068 4.948084,-0.600568 1.010118,0.210284 2.159769,0.760986 3.019435,1.446245 l 0.120113,0.0957 0.383777,-0.183588 c 0.887849,-0.424311 1.719827,-1.064921 3.536997,-2.724526 0.283248,-0.258692 0.499135,-0.442958 0.530256,-0.456041 0.0062,-0.07261 0.03262,-0.270113 0.02832,-0.274406 z M 7.9238375,10.307459 c -0.00266,0.774596 -0.048975,1.021118 -0.2783111,1.494096 -0.3341659,0.689184 -1.0982235,1.159144 -1.8847059,1.159144 l -0.2314376,0 -9.765e-4,-0.0068 -0.053709,0.002 a 2.8124103,3.6092652 0 0 1 -0.9960621,1.707957 l 0.21679,0 0,0.01562 a 2.8124103,3.6092652 0 0 0 0.7792721,-1.473589 l 0.053709,-0.002 9.765e-4,0.0068 0.2314376,0 c 0.7864824,0 1.55054,-0.469959 1.8847059,-1.159143 0.2467051,-0.5088 0.2840149,-0.72923 0.280264,-1.657178 -1.305e-4,-0.03252 -0.00167,-0.05564 -0.00195,-0.08691 z m 3.1825165,1.903263 c -0.0078,0.08954 -0.02096,0.179553 -0.0459,0.269523 -0.123686,0.446141 -0.571574,0.889828 -1.030241,1.021453 -0.8948922,0.256815 -1.7792509,-0.408603 -1.8622453,-1.28707 -0.079631,0.996568 0.8842521,1.817726 1.8622453,1.537062 0.458667,-0.131625 0.906555,-0.575312 1.030241,-1.021452 0.04841,-0.174615 0.06121,-0.348973 0.0459,-0.519516 z m 0.481429,0.749001 c -0.0534,1.04155 0.65143,2.082063 1.836856,2.264579 0.287569,0.0443 0.667408,0.01429 0.952118,-0.07519 0.945776,-0.297186 1.555894,-1.200151 1.509718,-2.163997 -0.06146,0.866201 -0.646424,1.642737 -1.509718,1.914005 -0.28471,0.08948 -0.664549,0.119491 -0.952118,0.07519 -1.090316,-0.167873 -1.775324,-1.061785 -1.836856,-2.014587 z"
     id="path4169"
     inkscape:connector-curvature="0" />
  <ellipse
     style="opacity:1;fill:#000000;fill-opacity:1;fill-rule:nonzero;stroke:none;stroke-width:10;stroke-linecap:butt;stroke-linejoin:round;stroke-miterlimit:14.5;stroke-dasharray:none;stroke-opacity:1"
     id="path4159"
     cx="11.237853"
     cy="6.6706214"
     rx="2.4938965"
     ry="2.0435669"
     transform="matrix(0.70681802,0.70739542,-0.70041624,0.71373461,0,0)" />
  <path
     style="fill:#000000;fill-opacity:0.2"
     d="m 22.997576,6.238247 c -4.39e-4,-4.38e-4 -0.02666,0.02371 -0.02832,0.02441 -0.03048,0.357895 -0.148114,1.273437 -0.251945,1.891544 C 21.487204,15.477032 17.892089,19.209544 12.554549,18.704665 9.9092568,18.454442 6.732877,16.955252 4.5792177,14.941107 l -0.204095,-0.190423 a 2.8124103,3.6092652 0 0 1 -0.1337848,0.112301 l 0.05078,0.06348 0.00293,-9.77e-4 0.2841705,0.265616 c 2.1536593,2.014145 5.3300391,3.513336 7.9753306,3.763558 5.33754,0.50488 8.932655,-3.227633 10.162762,-10.55046 0.124897,-0.743512 0.305734,-2.140499 0.280265,-2.16595 z M 7.5078353,7.438406 c -0.00504,0.004 0.041224,0.201984 0.1025357,0.440417 0.2464901,0.958532 0.3061257,1.37625 0.3134665,2.178644 2.02e-4,-0.05866 0.00222,-0.09775 0.00195,-0.163081 C 7.9222875,9.027487 7.8664495,8.624662 7.6103681,7.62883 7.5888821,7.54527 7.5904661,7.54155 7.5742371,7.474538 c -0.00327,-0.0015 -0.066142,-0.03634 -0.066404,-0.03613 z m 2.0399735,2.916904 c -0.6440761,0.03574 -1.2472253,0.497388 -1.36812,1.240196 -0.020461,0.125718 -0.023012,0.249514 -0.011718,0.36913 0.00316,-0.03971 0.00517,-0.07893 0.011718,-0.119138 0.1208947,-0.742808 0.7240439,-1.204459 1.36812,-1.240195 0.386447,-0.02144 0.7871882,0.111332 1.1083642,0.42772 0.267616,0.263644 0.419514,0.586108 0.450181,0.926731 0.03745,-0.431118 -0.11778,-0.849257 -0.450181,-1.176723 C 10.334997,10.466642 9.9342558,10.333865 9.5478088,10.35531 Z m 4.3016212,0.07226 c -0.572726,-0.03254 -1.165855,0.161981 -1.634713,0.63084 -0.472496,0.472497 -0.664294,1.072793 -0.626934,1.651318 0.02554,-0.498104 0.22232,-0.996711 0.626934,-1.401325 0.468858,-0.46886 1.061987,-0.663381 1.634713,-0.63084 0.954544,0.05423 1.85236,0.738391 2.023373,1.832951 0.01177,0.07532 0.01009,0.14977 0.01367,0.224603 0.0111,-0.156439 0.01131,-0.314665 -0.01367,-0.474595 C 15.70179,11.165961 14.803974,10.481803 13.84943,10.42757 Z"
     id="path4174"
     inkscape:connector-curvature="0" />
  <path
     style="opacity:1;fill:#ffffff;fill-opacity:0.2;fill-rule:nonzero;stroke:none;stroke-width:10;stroke-linecap:butt;stroke-linejoin:round;stroke-miterlimit:14.5;stroke-dasharray:none;stroke-opacity:1"
     d="m 2.8448981,10.421714 a 2.4941424,2.0432669 46.172864 0 0 -1.3368714,0.524398 2.4941424,2.0432669 46.172864 0 0 -0.5019371,1.442339 2.4941424,2.0432669 46.172864 0 1 0.5019371,-1.192347 2.4941424,2.0432669 46.172864 0 1 3.194234,0.305655 2.4941424,2.0432669 46.172864 0 1 0.832981,1.781196 2.4941424,2.0432669 46.172864 0 0 -0.832981,-2.031188 2.4941424,2.0432669 46.172864 0 0 -1.8573626,-0.830053 z"
     id="ellipse4179"
     inkscape:connector-curvature="0" />
  <path
     style="opacity:1;fill:#000000;fill-opacity:0.2;fill-rule:nonzero;stroke:none;stroke-width:10;stroke-linecap:butt;stroke-linejoin:round;stroke-miterlimit:14.5;stroke-dasharray:none;stroke-opacity:1"
     d="m 1.0060896,12.138459 a 2.4941424,2.0432669 46.172864 0 0 0.8339577,2.031188 2.4941424,2.0432669 46.172864 0 0 3.1932574,0.305654 2.4941424,2.0432669 46.172864 0 0 0.501937,-1.442339 2.4941424,2.0432669 46.172864 0 1 -0.501937,1.192347 2.4941424,2.0432669 46.172864 0 1 -3.1932574,-0.305655 2.4941424,2.0432669 46.172864 0 1 -0.8339577,-1.781195 z"
     id="ellipse4184"
     inkscape:connector-curvature="0" />
  <path
     style="fill:url(#linearGradient4171-1);fill-opacity:1;stroke:none;stroke-width:2;stroke-linecap:round;stroke-linejoin:round;stroke-miterlimit:4;stroke-dasharray:none;stroke-opacity:1"
     d="m 22.997576,6.238247 c -0.0086,-0.0086 -0.260185,0.207932 -0.558576,0.480455 -1.81717,1.659604 -2.649148,2.300214 -3.536997,2.724526 l -0.383777,0.183588 -0.120113,-0.0957 C 17.538447,8.845857 16.388796,8.295154 15.378678,8.084871 13.906359,7.77837 12.105324,7.996561 10.430594,8.685439 L 10.047793,8.843637 8.7822086,8.137604 C 8.0863533,7.74917 7.5128751,7.434406 7.5078353,7.438406 c -0.00504,0.004 0.041224,0.201984 0.1025357,0.440417 0.2560818,0.995831 0.3119215,1.398658 0.3154194,2.265555 0.00375,0.927947 -0.033559,1.148378 -0.280264,1.657177 -0.3341659,0.689184 -1.0982235,1.159144 -1.8847059,1.159144 l -0.2285082,0 a 2.4941424,2.0432669 46.172864 0 0 -0.8300516,-1.708932 2.4941424,2.0432669 46.172864 0 0 -3.194234,-0.305655 2.4941424,2.0432669 46.172864 0 0 0.3320206,3.223535 2.4941424,2.0432669 46.172864 0 0 2.4452345,0.748024 l 0.00684,0.0088 0.00293,-10e-4 0.2841706,0.265616 c 2.1536594,2.014145 5.3300387,3.513336 7.9753316,3.763558 5.337539,0.50488 8.932654,-3.227633 10.162762,-10.55046 0.124897,-0.743512 0.305734,-2.140499 0.280264,-2.16595 z"
     id="circle4163-3"
     inkscape:connector-curvature="0" />
</svg>
