<?xml version="1.0" encoding="UTF-8" standalone="no"?>
<!-- Created with Inkscape (http://www.inkscape.org/) -->

<svg
   xmlns:dc="http://purl.org/dc/elements/1.1/"
   xmlns:cc="http://creativecommons.org/ns#"
   xmlns:rdf="http://www.w3.org/1999/02/22-rdf-syntax-ns#"
   xmlns:svg="http://www.w3.org/2000/svg"
   xmlns="http://www.w3.org/2000/svg"
   xmlns:xlink="http://www.w3.org/1999/xlink"
   xmlns:sodipodi="http://sodipodi.sourceforge.net/DTD/sodipodi-0.dtd"
   xmlns:inkscape="http://www.inkscape.org/namespaces/inkscape"
   id="svg2"
   version="1.1"
   inkscape:version="0.91 r13725"
   width="48"
   height="48"
   viewBox="0 0 48 48"
   sodipodi:docname="gimp.svg">
  <metadata
     id="metadata8">
    <rdf:RDF>
      <cc:Work
         rdf:about="">
        <dc:format>image/svg+xml</dc:format>
        <dc:type
           rdf:resource="http://purl.org/dc/dcmitype/StillImage" />
        <dc:title />
      </cc:Work>
    </rdf:RDF>
  </metadata>
  <defs
     id="defs6">
    <linearGradient
       inkscape:collect="always"
       xlink:href="#linearGradient4165"
       id="linearGradient4171-1"
       x1="7"
       y1="1011.3622"
       x2="41.000019"
       y2="1045.3622"
       gradientUnits="userSpaceOnUse"
       gradientTransform="matrix(0.9565221,0,0,0.95652174,8.5430284,-960.03014)" />
    <linearGradient
       inkscape:collect="always"
       id="linearGradient4165">
      <stop
         style="stop-color:#ffffff;stop-opacity:0.15000001"
         offset="0"
         id="stop4167" />
      <stop
         style="stop-color:#177ed5;stop-opacity:0;"
         offset="1"
         id="stop4169" />
    </linearGradient>
  </defs>
  <sodipodi:namedview
     pagecolor="#ffffff"
     bordercolor="#666666"
     borderopacity="1"
     objecttolerance="10"
     gridtolerance="10"
     guidetolerance="10"
     inkscape:pageopacity="0"
     inkscape:pageshadow="2"
     inkscape:window-width="1920"
     inkscape:window-height="1001"
     id="namedview4"
     showgrid="false"
     inkscape:zoom="5.6568543"
     inkscape:cx="-29.795623"
     inkscape:cy="5.0276786"
     inkscape:window-x="0"
     inkscape:window-y="0"
     inkscape:window-maximized="1"
     inkscape:current-layer="svg2" />
  <rect
     style="opacity:1;fill:#fafafa;fill-opacity:1;fill-rule:nonzero;stroke:none;stroke-width:10;stroke-linecap:butt;stroke-linejoin:round;stroke-miterlimit:14.5;stroke-dasharray:none;stroke-opacity:1"
     id="rect4192"
     width="18.75"
     height="11.4375"
     x="16.125"
     y="18.6875" />
  <path
     style="fill:#795548;fill-opacity:1"
     d="M 45.996094 11.476562 C 45.978824 11.459283 45.475707 11.89244 44.878906 12.4375 C 41.24445 15.75681 39.580441 17.038069 37.804688 17.886719 L 37.037109 18.253906 L 36.796875 18.0625 C 35.077489 16.69194 32.778112 15.590502 30.757812 15.169922 C 27.81308 14.556902 24.210895 14.993294 20.861328 16.371094 L 20.095703 16.6875 L 17.564453 15.275391 C 16.172698 14.498501 15.025705 13.868953 15.015625 13.876953 C 15.005545 13.885053 15.098075 14.280933 15.220703 14.757812 C 15.732883 16.749535 15.844566 17.555212 15.851562 19.289062 C 15.859064 21.145012 15.784442 21.585886 15.291016 22.603516 C 14.622663 23.981926 13.094499 24.921875 11.521484 24.921875 L 11.058594 24.921875 L 11.056641 24.908203 L 10.949219 24.912109 A 5.625 7.21875 0 0 1 8.4824219 28.726562 L 8.5839844 28.853516 L 8.5898438 28.851562 L 9.1582031 29.382812 C 13.465659 33.411223 19.818621 36.409696 25.109375 36.910156 C 35.784794 37.919946 42.975253 30.454694 45.435547 15.808594 C 45.685349 14.321524 46.047034 11.527465 45.996094 11.476562 z M 19.095703 20.210938 C 19.86862 20.168048 20.670129 20.433609 21.3125 21.066406 C 22.115899 21.857876 22.411362 22.913927 22.121094 23.960938 C 21.873715 24.853247 20.977911 25.740646 20.060547 26.003906 C 18.026943 26.587506 16.017892 24.789556 16.359375 22.691406 C 16.601172 21.205744 17.807509 20.282412 19.095703 20.210938 z M 27.699219 20.355469 C 29.608367 20.463939 31.404056 21.832297 31.746094 24.021484 C 32.072789 26.112474 30.792385 28.158288 28.753906 28.798828 C 28.184469 28.977798 27.424766 29.037819 26.849609 28.949219 C 23.344826 28.409599 21.928262 24.118617 24.429688 21.617188 C 25.367435 20.67944 26.55373 20.290386 27.699219 20.355469 z "
     id="path4142" />
  <circle
     style="opacity:1;fill:#000000;fill-opacity:1;fill-rule:nonzero;stroke:none;stroke-width:10;stroke-linecap:butt;stroke-linejoin:round;stroke-miterlimit:14.5;stroke-dasharray:none;stroke-opacity:1"
     id="path4155"
     cx="26.5"
     cy="25.5"
     r="1.5" />
  <circle
     r="1"
     cy="24"
     cx="19"
     id="circle4157"
     style="opacity:1;fill:#000000;fill-opacity:1;fill-rule:nonzero;stroke:none;stroke-width:10;stroke-linecap:butt;stroke-linejoin:round;stroke-miterlimit:14.5;stroke-dasharray:none;stroke-opacity:1" />
  <path
     style="fill:#ffffff;fill-opacity:0.2"
     d="M 45.996094 11.476562 C 45.978824 11.459283 45.475707 11.89244 44.878906 12.4375 C 41.24445 15.75681 39.580441 17.038069 37.804688 17.886719 L 37.037109 18.253906 L 36.796875 18.0625 C 35.077489 16.69194 32.778112 15.590502 30.757812 15.169922 C 27.81308 14.556902 24.210895 14.993294 20.861328 16.371094 L 20.095703 16.6875 L 17.564453 15.275391 C 16.172698 14.498501 15.025705 13.868953 15.015625 13.876953 C 15.009077 13.882215 15.08827 14.200804 15.148438 14.449219 C 15.26781 14.503244 16.24508 15.038905 17.564453 15.775391 L 20.095703 17.1875 L 20.861328 16.871094 C 24.210895 15.493294 27.81308 15.056902 30.757812 15.669922 C 32.778112 16.090502 35.077489 17.19194 36.796875 18.5625 L 37.037109 18.753906 L 37.804688 18.386719 C 39.580441 17.538069 41.24445 16.25681 44.878906 12.9375 C 45.445421 12.420101 45.877209 12.051557 45.939453 12.025391 C 45.951822 11.880162 46.004686 11.485149 45.996094 11.476562 z M 15.847656 19.615234 C 15.842329 21.164473 15.749703 21.65753 15.291016 22.603516 C 14.622663 23.981926 13.094499 24.921875 11.521484 24.921875 L 11.058594 24.921875 L 11.056641 24.908203 L 10.949219 24.912109 A 5.625 7.21875 0 0 1 8.9570312 28.328125 L 9.390625 28.328125 L 9.390625 28.359375 A 5.625 7.21875 0 0 0 10.949219 25.412109 L 11.056641 25.408203 L 11.058594 25.421875 L 11.521484 25.421875 C 13.094499 25.421875 14.622663 24.481926 15.291016 23.103516 C 15.784442 22.085886 15.859064 21.645012 15.851562 19.789062 C 15.851301 19.724011 15.848229 19.677784 15.847656 19.615234 z M 22.212891 23.421875 C 22.197211 23.600964 22.17098 23.780993 22.121094 23.960938 C 21.873715 24.853247 20.977911 25.740646 20.060547 26.003906 C 18.270705 26.517552 16.501932 25.186676 16.335938 23.429688 C 16.176671 25.422884 18.104499 27.065249 20.060547 26.503906 C 20.977911 26.240646 21.873715 25.353247 22.121094 24.460938 C 22.217915 24.111698 22.243521 23.762972 22.212891 23.421875 z M 23.175781 24.919922 C 23.068987 27.003086 24.478681 29.084175 26.849609 29.449219 C 27.424766 29.537819 28.184469 29.477798 28.753906 29.298828 C 30.645519 28.704437 31.865794 26.898451 31.773438 24.970703 C 31.65051 26.703157 30.480549 28.256275 28.753906 28.798828 C 28.184469 28.977798 27.424766 29.037819 26.849609 28.949219 C 24.668908 28.613463 23.298849 26.825586 23.175781 24.919922 z "
     id="path4169" />
  <ellipse
     style="opacity:1;fill:#000000;fill-opacity:1;fill-rule:nonzero;stroke:none;stroke-width:10;stroke-linecap:butt;stroke-linejoin:round;stroke-miterlimit:14.5;stroke-dasharray:none;stroke-opacity:1"
     id="path4159"
     cx="21.775364"
     cy="12.634953"
     rx="4.9879484"
     ry="4.0872612"
     transform="matrix(0.70681855,0.7073949,-0.70041677,0.71373409,0,0)" />
  <path
     style="fill:#000000;fill-opacity:0.2"
     d="M 45.996094 11.476562 C 45.995217 11.475686 45.942781 11.523992 45.939453 11.525391 C 45.878491 12.241203 45.643216 14.072343 45.435547 15.308594 C 42.975253 29.954694 35.784794 37.419946 25.109375 36.410156 C 19.818621 35.909696 13.465659 32.911224 9.1582031 28.882812 L 8.75 28.501953 A 5.625 7.21875 0 0 1 8.4824219 28.726562 L 8.5839844 28.853516 L 8.5898438 28.851562 L 9.1582031 29.382812 C 13.465659 33.411223 19.818621 36.409696 25.109375 36.910156 C 35.784794 37.919946 42.975253 30.454694 45.435547 15.808594 C 45.685349 14.321524 46.047034 11.527465 45.996094 11.476562 z M 15.015625 13.876953 C 15.005545 13.885053 15.098075 14.280933 15.220703 14.757812 C 15.713699 16.674935 15.832974 17.510397 15.847656 19.115234 C 15.84806 18.997902 15.852091 18.919727 15.851562 18.789062 C 15.844566 17.055212 15.732883 16.249536 15.220703 14.257812 C 15.17773 14.090696 15.180898 14.083238 15.148438 13.949219 C 15.141889 13.946255 15.016149 13.876537 15.015625 13.876953 z M 19.095703 19.710938 C 17.807509 19.782412 16.601172 20.705744 16.359375 22.191406 C 16.318451 22.44285 16.313349 22.690449 16.335938 22.929688 C 16.342251 22.850271 16.346287 22.771822 16.359375 22.691406 C 16.601172 21.205744 17.807509 20.282412 19.095703 20.210938 C 19.86862 20.168048 20.670129 20.433609 21.3125 21.066406 C 21.84775 21.593709 22.151556 22.238658 22.212891 22.919922 C 22.287799 22.057662 21.977324 21.221359 21.3125 20.566406 C 20.670129 19.933609 19.86862 19.668048 19.095703 19.710938 z M 27.699219 19.855469 C 26.55373 19.790386 25.367435 20.17944 24.429688 21.117188 C 23.484667 22.06221 23.101057 23.262837 23.175781 24.419922 C 23.226854 23.423685 23.620435 22.426441 24.429688 21.617188 C 25.367435 20.67944 26.55373 20.290386 27.699219 20.355469 C 29.608367 20.463939 31.404056 21.832297 31.746094 24.021484 C 31.769631 24.172134 31.766267 24.321031 31.773438 24.470703 C 31.795639 24.157817 31.79607 23.841354 31.746094 23.521484 C 31.404056 21.332297 29.608367 19.963939 27.699219 19.855469 z "
     id="path4174" />
  <path
     style="opacity:1;fill:#ffffff;fill-opacity:0.2;fill-rule:nonzero;stroke:none;stroke-width:10;stroke-linecap:butt;stroke-linejoin:round;stroke-miterlimit:14.5;stroke-dasharray:none;stroke-opacity:1"
     d="M 5.6894531 19.84375 A 4.9884401 4.0866612 46.172648 0 0 3.015625 20.892578 A 4.9884401 4.0866612 46.172648 0 0 2.0117188 23.777344 A 4.9884401 4.0866611 46.172648 0 1 3.015625 21.392578 A 4.9884401 4.0866611 46.172648 0 1 9.4042969 22.003906 A 4.9884401 4.0866611 46.172648 0 1 11.070312 25.566406 A 4.9884401 4.0866612 46.172648 0 0 9.4042969 21.503906 A 4.9884401 4.0866612 46.172648 0 0 5.6894531 19.84375 z "
     id="ellipse4179" />
  <path
     style="opacity:1;fill:#000000;fill-opacity:0.2;fill-rule:nonzero;stroke:none;stroke-width:10;stroke-linecap:butt;stroke-linejoin:round;stroke-miterlimit:14.5;stroke-dasharray:none;stroke-opacity:1"
     d="M 2.0117188 23.277344 A 4.9884401 4.0866612 46.172648 0 0 3.6796875 27.339844 A 4.9884401 4.0866612 46.172648 0 0 10.066406 27.951172 A 4.9884401 4.0866612 46.172648 0 0 11.070312 25.066406 A 4.9884401 4.0866611 46.172648 0 1 10.066406 27.451172 A 4.9884401 4.0866611 46.172648 0 1 3.6796875 26.839844 A 4.9884401 4.0866611 46.172648 0 1 2.0117188 23.277344 z "
     id="ellipse4184" />
  <path
     style="fill:url(#linearGradient4171-1);fill-opacity:1;stroke:none;stroke-width:2;stroke-linecap:round;stroke-linejoin:round;stroke-miterlimit:4;stroke-dasharray:none;stroke-opacity:1"
     d="m 45.996094,11.476562 c -0.01727,-0.01728 -0.520387,0.415878 -1.117188,0.960938 -3.634456,3.31931 -5.298465,4.600569 -7.074218,5.449219 L 37.037109,18.253906 36.796875,18.0625 c -1.719386,-1.37056 -4.018763,-2.471998 -6.039063,-2.892578 -2.944732,-0.61302 -6.546917,-0.176628 -9.896484,1.201172 l -0.765625,0.316406 -2.53125,-1.412109 c -1.391755,-0.77689 -2.538748,-1.406438 -2.548828,-1.398438 -0.01008,0.0081 0.08245,0.40398 0.205078,0.880859 0.51218,1.991724 0.623863,2.797402 0.630859,4.53125 0.0075,1.85595 -0.06712,2.296824 -0.560546,3.314454 -0.668353,1.37841 -2.196517,2.318359 -3.769532,2.318359 l -0.457031,0 A 4.9884401,4.0866612 46.172648 0 0 9.4042969,21.503906 4.9884401,4.0866612 46.172648 0 0 3.015625,20.892578 a 4.9884401,4.0866612 46.172648 0 0 0.6640625,6.447266 4.9884401,4.0866612 46.172648 0 0 4.890625,1.496094 l 0.013672,0.01758 0.00586,-0.002 0.5683593,0.53125 c 4.3074562,4.028411 10.6604182,7.026884 15.9511722,7.527344 10.675419,1.00979 17.865878,-6.455462 20.326172,-21.101562 0.249802,-1.48707 0.611487,-4.281129 0.560547,-4.332032 z"
     id="circle4163-3"
     inkscape:connector-curvature="0" />
</svg>
