<?xml version="1.0" encoding="UTF-8" standalone="no"?>
<!-- Created with Inkscape (http://www.inkscape.org/) -->

<svg
   xmlns:dc="http://purl.org/dc/elements/1.1/"
   xmlns:cc="http://creativecommons.org/ns#"
   xmlns:rdf="http://www.w3.org/1999/02/22-rdf-syntax-ns#"
   xmlns:svg="http://www.w3.org/2000/svg"
   xmlns="http://www.w3.org/2000/svg"
   xmlns:xlink="http://www.w3.org/1999/xlink"
   xmlns:sodipodi="http://sodipodi.sourceforge.net/DTD/sodipodi-0.dtd"
   xmlns:inkscape="http://www.inkscape.org/namespaces/inkscape"
   width="48"
   height="48"
   id="svg2"
   version="1.1"
   inkscape:version="0.91 r13725"
   sodipodi:docname="gnome-disks.svg"
   inkscape:export-filename="/home/peter/Bureaublad/gnome-disks.png"
   inkscape:export-xdpi="90"
   inkscape:export-ydpi="90">
  <defs
     id="defs4">
    <linearGradient
       inkscape:collect="always"
       id="linearGradient4526">
      <stop
         style="stop-color:#ffffff;stop-opacity:0.14901961"
         offset="0"
         id="stop4528" />
      <stop
         style="stop-color:#177ed5;stop-opacity:0"
         offset="1"
         id="stop4530" />
    </linearGradient>
    <inkscape:perspective
       sodipodi:type="inkscape:persp3d"
       inkscape:vp_x="0 : 12 : 1"
       inkscape:vp_y="0 : 1000 : 0"
       inkscape:vp_z="24 : 12 : 1"
       inkscape:persp3d-origin="12 : 8 : 1"
       id="perspective3810" />
    <linearGradient
       inkscape:collect="always"
       xlink:href="#linearGradient4526"
       id="linearGradient4532"
       x1="-33.27037"
       y1="1006.3864"
       x2="5.2686601"
       y2="1044.9254"
       gradientUnits="userSpaceOnUse"
       gradientTransform="translate(-51.802563,-2.9497604)" />
    <linearGradient
       inkscape:collect="always"
       xlink:href="#linearGradient4526"
       id="linearGradient4428"
       x1="62.165516"
       y1="-67.77903"
       x2="106.20971"
       y2="-22.762564"
       gradientUnits="userSpaceOnUse"
       gradientTransform="translate(-60.190698,1074.1288)" />
  </defs>
  <sodipodi:namedview
     id="base"
     pagecolor="#ffffff"
     bordercolor="#666666"
     borderopacity="1.0"
     inkscape:pageopacity="0.0"
     inkscape:pageshadow="2"
     inkscape:zoom="2.828427"
     inkscape:cx="-22.881474"
     inkscape:cy="34.934756"
     inkscape:document-units="px"
     inkscape:current-layer="layer1"
     showgrid="true"
     inkscape:snap-grids="true"
     inkscape:object-paths="true"
     inkscape:snap-intersection-paths="true"
     inkscape:snap-smooth-nodes="true"
     inkscape:object-nodes="true"
     inkscape:snap-midpoints="true"
     inkscape:window-width="959"
     inkscape:window-height="1011"
     inkscape:window-x="237"
     inkscape:window-y="0"
     inkscape:window-maximized="0"
     inkscape:showpageshadow="false"
     borderlayer="true"
     inkscape:snap-bbox="true"
     inkscape:snap-nodes="false"
     inkscape:bbox-paths="true"
     inkscape:bbox-nodes="true"
     inkscape:snap-bbox-edge-midpoints="false"
     inkscape:snap-bbox-midpoints="false"
     inkscape:snap-global="true"
     showguides="true"
     inkscape:snap-center="false">
    <inkscape:grid
       type="xygrid"
       id="grid3808"
       empspacing="4"
       visible="true"
       enabled="true"
       snapvisiblegridlinesonly="true" />
  </sodipodi:namedview>
  <metadata
     id="metadata7">
    <rdf:RDF>
      <cc:Work
         rdf:about="">
        <dc:format>image/svg+xml</dc:format>
        <dc:type
           rdf:resource="http://purl.org/dc/dcmitype/StillImage" />
        <dc:title />
      </cc:Work>
    </rdf:RDF>
  </metadata>
  <g
     inkscape:label="Layer 1"
     inkscape:groupmode="layer"
     id="layer1"
     transform="translate(0,-1004.3622)">
    <rect
       style="opacity:1;fill:#3b414b;fill-opacity:1;stroke:none;stroke-width:0.1;stroke-linecap:round;stroke-linejoin:round;stroke-miterlimit:4;stroke-dasharray:none;stroke-opacity:1"
       id="rect4135"
       width="32"
       height="44"
       x="8"
       y="1006.3622"
       rx="3"
       ry="3" />
    <path
       style="fill:#000000;fill-opacity:0.2;fill-rule:evenodd;stroke:none;stroke-width:1px;stroke-linecap:butt;stroke-linejoin:miter;stroke-opacity:1"
       d="m 33.819879,1038.5979 c 0,0 2.432786,1.7839 0.312453,3.9023 -2.120334,2.1184 -3.883541,-0.3345 -3.883541,-0.3345 l -7.233571,-9.9104 c 0,0 -1.235708,-1.6034 -0.98051,-1.8585 0.25527,-0.255 1.868625,0.9834 1.868625,0.9834 z"
       id="path4188-6"
       inkscape:connector-curvature="0"
       sodipodi:nodetypes="czcczcc" />
    <circle
       style="opacity:1;fill:#000000;fill-opacity:0.2;stroke:none;stroke-width:0.2;stroke-linecap:round;stroke-linejoin:round;stroke-miterlimit:4;stroke-dasharray:none;stroke-opacity:0.2"
       id="path4186-1"
       cx="25"
       cy="1023.3622"
       r="14" />
    <circle
       style="opacity:1;fill:#5b6573;fill-opacity:1;stroke:none;stroke-width:0.1;stroke-linecap:round;stroke-linejoin:round;stroke-miterlimit:4;stroke-dasharray:none;stroke-opacity:1"
       id="path4159"
       cx="10.5"
       cy="1008.8622"
       r="0.5" />
    <circle
       style="opacity:1;fill:#5b6573;fill-opacity:1;stroke:none;stroke-width:0.1;stroke-linecap:round;stroke-linejoin:round;stroke-miterlimit:4;stroke-dasharray:none;stroke-opacity:1"
       id="path4159-5"
       cx="37.5"
       cy="1008.8622"
       r="0.5" />
    <circle
       style="opacity:1;fill:#5b6573;fill-opacity:1;stroke:none;stroke-width:0.1;stroke-linecap:round;stroke-linejoin:round;stroke-miterlimit:4;stroke-dasharray:none;stroke-opacity:1"
       id="path4159-5-8"
       cx="37.5"
       cy="1047.8622"
       r="0.5" />
    <circle
       style="opacity:1;fill:#5b6573;fill-opacity:1;stroke:none;stroke-width:0.1;stroke-linecap:round;stroke-linejoin:round;stroke-miterlimit:4;stroke-dasharray:none;stroke-opacity:1"
       id="path4159-5-9"
       cx="10.5"
       cy="1047.8622"
       r="0.5" />
    <circle
       style="opacity:1;fill:#d1d5db;fill-opacity:1;stroke:none;stroke-width:0.2;stroke-linecap:round;stroke-linejoin:round;stroke-miterlimit:4;stroke-dasharray:none;stroke-opacity:0.2"
       id="path4186"
       cx="24"
       cy="1022.3622"
       r="14" />
    <circle
       style="opacity:1;fill:#3b414b;fill-opacity:1;stroke:none;stroke-width:0.2;stroke-linecap:round;stroke-linejoin:round;stroke-miterlimit:4;stroke-dasharray:none;stroke-opacity:0.2"
       id="path4190"
       cx="24"
       cy="1022.3622"
       r="4" />
    <circle
       style="opacity:1;fill:#5b6573;fill-opacity:1;stroke:none;stroke-width:0.2;stroke-linecap:round;stroke-linejoin:round;stroke-miterlimit:4;stroke-dasharray:none;stroke-opacity:0.2"
       id="path4313"
       cx="24"
       cy="1022.3622"
       r="3" />
    <circle
       style="opacity:1;fill:#3b414b;fill-opacity:1;stroke:none;stroke-width:0.2;stroke-linecap:round;stroke-linejoin:round;stroke-miterlimit:4;stroke-dasharray:none;stroke-opacity:0.2"
       id="path4315"
       cx="24"
       cy="1022.3622"
       r="2" />
    <path
       style="opacity:1;fill:#ffffff;fill-opacity:0.2;stroke:none;stroke-width:0.1;stroke-linecap:round;stroke-linejoin:round;stroke-miterlimit:4;stroke-dasharray:none;stroke-opacity:1"
       d="m 11,1006.3622 26,0 c 1.662,0 3,1.338 3,3 0,-1 -1.501631,-2 -3,-2 -8.381299,0 -14.420284,0 -26,0 -1.4330974,0 -3,1 -3,2 0,-1.662 1.338,-3 3,-3 z"
       id="rect4135-8"
       inkscape:connector-curvature="0"
       sodipodi:nodetypes="sscsscs" />
    <path
       style="opacity:1;fill:#000000;fill-opacity:0.2;stroke:none;stroke-width:0.1;stroke-linecap:round;stroke-linejoin:round;stroke-miterlimit:4;stroke-dasharray:none;stroke-opacity:1"
       d="m 11,1050.3622 26,0 c 1.662,0 3,-1.338 3,-3 0,1 -1.501631,2 -3,2 -8.381299,0 -14.420284,0 -26,0 -1.433097,0 -2.9999998,-1 -2.9999998,-2 0,1.662 1.3379998,3 2.9999998,3 z"
       id="rect4135-8-3"
       inkscape:connector-curvature="0"
       sodipodi:nodetypes="sscsscs" />
    <path
       style="opacity:1;fill:#ffffff;fill-opacity:0.2;stroke:none;stroke-width:0.2;stroke-linecap:round;stroke-linejoin:round;stroke-miterlimit:4;stroke-dasharray:none;stroke-opacity:0.2"
       d="m 38,1022.3622 c 0,-6 -6.268014,-13 -14,-13 -7.731986,0 -14,7 -14,13 0,-7.732 6.268014,-14 14,-14 7.731986,0 14,6.268 14,14 z"
       id="path4186-2"
       inkscape:connector-curvature="0"
       sodipodi:nodetypes="cscsc" />
    <path
       style="opacity:1;fill:#000000;fill-opacity:0.2;stroke:none;stroke-width:0.2;stroke-linecap:round;stroke-linejoin:round;stroke-miterlimit:4;stroke-dasharray:none;stroke-opacity:0.2"
       d="m 38,1022.3622 c 0,6 -6.268014,13 -14,13 -7.731986,0 -14,-7 -14,-13 0,7.732 6.268014,14 14,14 7.731986,0 14,-6.268 14,-14 z"
       id="path4186-2-6"
       inkscape:connector-curvature="0"
       sodipodi:nodetypes="cscsc" />
    <path
       style="fill:#5b6573;fill-opacity:1;fill-rule:evenodd;stroke:none;stroke-width:1px;stroke-linecap:butt;stroke-linejoin:miter;stroke-opacity:1"
       d="m 32.819879,1037.5979 c 0,0 2.432786,1.7839 0.312453,3.9023 -2.120334,2.1184 -3.883541,-0.3345 -3.883541,-0.3345 l -7.233571,-9.9104 c 0,0 -1.235708,-1.6034 -0.98051,-1.8585 0.25527,-0.255 1.868625,0.9834 1.868625,0.9834 z"
       id="path4188"
       inkscape:connector-curvature="0"
       sodipodi:nodetypes="czcczcc" />
    <path
       style="opacity:1;fill:#000000;fill-opacity:0.2;stroke:none;stroke-width:0.2;stroke-linecap:round;stroke-linejoin:round;stroke-miterlimit:4;stroke-dasharray:none;stroke-opacity:0.2"
       d="m 28,1022.3622 c 0,-1 -1.790861,-3 -4,-3 -2.209139,0 -4,2 -4,3 0,-2.2091 1.790861,-4 4,-4 2.209139,0 4,1.7909 4,4 z"
       id="path4190-4"
       inkscape:connector-curvature="0"
       sodipodi:nodetypes="cscsc" />
    <path
       style="opacity:1;fill:#ffffff;fill-opacity:0.2;stroke:none;stroke-width:0.2;stroke-linecap:round;stroke-linejoin:round;stroke-miterlimit:4;stroke-dasharray:none;stroke-opacity:0.2"
       d="m 28,1022.3622 c 0,1 -1.790861,3 -4,3 -2.209139,0 -4,-2 -4,-3 0,2.2091 1.790861,4 4,4 2.209139,0 4,-1.7909 4,-4 z"
       id="path4190-4-8"
       inkscape:connector-curvature="0"
       sodipodi:nodetypes="cscsc" />
    <path
       style="fill:#ffffff;fill-opacity:0.2;fill-rule:evenodd;stroke:none;stroke-width:1px;stroke-linecap:butt;stroke-linejoin:miter;stroke-opacity:1"
       d="m 22.01522,1031.2553 c 0,0 -1.235708,-1.6034 -0.98051,-1.8585 0.25527,-0.255 1.868625,0.9834 1.868625,0.9834 l 5.69758,4.147 c -1.814758,-1.3209 -4.347294,-2.2729 -6.585695,-3.2719 z"
       id="path4188-9"
       inkscape:connector-curvature="0"
       sodipodi:nodetypes="czccc" />
    <path
       style="fill:#000000;fill-opacity:0.2;fill-rule:evenodd;stroke:none;stroke-width:1px;stroke-linecap:butt;stroke-linejoin:miter;stroke-opacity:1"
       d="m 33.132332,1041.5002 c -2.12033,2.1184 -3.88354,-0.3345 -3.88354,-0.3345 l -0.866847,-1.1876 c 0.866847,1.1876 1.628153,1.4006 4.750387,1.5221 z"
       id="path4188-4"
       inkscape:connector-curvature="0"
       sodipodi:nodetypes="cccc" />
    <rect
       style="opacity:1;fill:url(#linearGradient4532);fill-opacity:1;stroke:none;stroke-width:0.1;stroke-linecap:round;stroke-linejoin:round;stroke-miterlimit:4;stroke-dasharray:none;stroke-opacity:1"
       id="rect4135-6"
       width="32"
       height="44"
       x="-81.802559"
       y="1001.4124"
       rx="3"
       ry="3" />
    <circle
       style="opacity:1;fill:#7c8898;fill-opacity:1;stroke:none;stroke-width:0.1;stroke-linecap:round;stroke-linejoin:round;stroke-miterlimit:4;stroke-dasharray:none;stroke-opacity:1"
       id="path4159-5-8-8"
       cx="8.5"
       cy="1047.8622"
       r="0.5" />
    <circle
       style="opacity:1;fill:#7c8898;fill-opacity:1;stroke:none;stroke-width:0.1;stroke-linecap:round;stroke-linejoin:round;stroke-miterlimit:4;stroke-dasharray:none;stroke-opacity:1"
       id="path4159-5-9-5"
       cx="9.5"
       cy="1047.8622"
       r="0.5" />
    <circle
       style="opacity:1;fill:#0095aa;fill-opacity:1;stroke:none;stroke-width:1.66666663;stroke-linecap:round;stroke-linejoin:round;stroke-miterlimit:4;stroke-dasharray:none;stroke-opacity:1"
       id="path4164"
       cx="11"
       cy="1041.3622"
       r="9" />
    <path
       style="opacity:1;fill:#ffffff;fill-opacity:0.2;stroke:none;stroke-width:1.66666663;stroke-linecap:round;stroke-linejoin:round;stroke-miterlimit:4;stroke-dasharray:none;stroke-opacity:1"
       d="M 11 28 A 9 9 0 0 0 2 37 A 9 9 0 0 0 2.0214844 37.576172 A 9 9 0 0 1 11 29 A 9 9 0 0 1 19.978516 37.423828 A 9 9 0 0 0 20 37 A 9 9 0 0 0 11 28 z "
       transform="translate(0,1004.3622)"
       id="circle4174" />
    <path
       style="fill:#000000;fill-opacity:0.2"
       inkscape:connector-curvature="0"
       id="path4354"
       d="m 16.080342,1042.4472 c 0.02467,-0.192 0.04318,-0.387 0.04318,-0.585 0,-0.198 -0.0185,-0.393 -0.04318,-0.585 l 1.304265,-0.993 c 0.117167,-0.09 0.151085,-0.252 0.074,-0.384 l -1.233347,-2.079 c -0.07708,-0.129 -0.237419,-0.183 -0.37617,-0.129 l -1.535517,0.603 c -0.317587,-0.237 -0.666008,-0.438 -1.042178,-0.591 l -0.231253,-1.59 c -0.02775,-0.141 -0.154168,-0.252 -0.308337,-0.252 l -2.466694,0 c -0.154168,0 -0.2805863,0.111 -0.3052532,0.252 l -0.2312526,1.59 c -0.3761708,0.153 -0.7245913,0.351 -1.0421781,0.591 l -1.5355169,-0.603 c -0.1387515,-0.051 -0.2990866,0 -0.3761708,0.129 l -1.2333469,2.079 c -0.077084,0.129 -0.043167,0.291 0.074001,0.384 l 1.301181,0.993 c -0.024667,0.192 -0.043167,0.387 -0.043167,0.585 0,0.198 0.0185,0.393 0.043167,0.585 l -1.301181,0.993 c -0.1171679,0.09 -0.151085,0.252 -0.074001,0.384 l 1.2333469,2.079 c 0.077084,0.129 0.2374193,0.183 0.3761708,0.129 l 1.5355169,-0.603 c 0.3175868,0.237 0.6660073,0.438 1.0421781,0.591 l 0.2312526,1.59 c 0.024667,0.141 0.1510852,0.252 0.3052532,0.252 l 2.466694,0 c 0.154168,0 0.280586,-0.111 0.305254,-0.252 l 0.231251,-1.59 c 0.376172,-0.153 0.724592,-0.351 1.042178,-0.591 l 1.535517,0.603 c 0.138753,0.051 0.299087,0 0.376171,-0.129 l 1.233348,-2.079 c 0.07708,-0.129 0.04316,-0.291 -0.074,-0.384 l -1.301181,-0.993 z m -4.581884,1.515 c -1.193263,0 -2.158357,-0.939 -2.158357,-2.1 0,-1.161 0.965094,-2.1 2.158357,-2.1 1.193264,0 2.158357,0.939 2.158357,2.1 0,1.161 -0.965093,2.1 -2.158357,2.1 z" />
    <path
       id="path4179"
       d="m 11,1050.3622 a 9,9 0 0 1 -9,-9 9,9 0 0 1 0.021484,-0.5762 9,9 0 0 0 8.978516,8.5762 9,9 0 0 0 8.978516,-8.4239 9,9 0 0 1 0.02148,0.4239 9,9 0 0 1 -9,9 z"
       style="opacity:1;fill:#000000;fill-opacity:0.2;stroke:none;stroke-width:1.66666663;stroke-linecap:round;stroke-linejoin:round;stroke-miterlimit:4;stroke-dasharray:none;stroke-opacity:1"
       inkscape:connector-curvature="0" />
    <path
       d="m 15.580342,1041.9472 c 0.02467,-0.192 0.04318,-0.387 0.04318,-0.585 0,-0.198 -0.0185,-0.393 -0.04318,-0.585 l 1.304265,-0.993 c 0.117167,-0.09 0.151085,-0.252 0.074,-0.384 l -1.233347,-2.079 c -0.07708,-0.129 -0.237419,-0.183 -0.37617,-0.129 l -1.535517,0.603 c -0.317587,-0.237 -0.666008,-0.438 -1.042178,-0.591 l -0.231253,-1.59 c -0.02775,-0.141 -0.154168,-0.252 -0.308337,-0.252 l -2.4666938,0 c -0.1541684,0 -0.2805865,0.111 -0.3052534,0.252 l -0.2312526,1.59 c -0.3761708,0.153 -0.7245913,0.351 -1.0421781,0.591 l -1.5355169,-0.603 c -0.1387515,-0.051 -0.2990866,0 -0.3761708,0.129 l -1.2333469,2.079 c -0.077084,0.129 -0.043167,0.291 0.074001,0.384 l 1.301181,0.993 c -0.024667,0.192 -0.043167,0.387 -0.043167,0.585 0,0.198 0.0185,0.393 0.043167,0.585 l -1.301181,0.993 c -0.1171679,0.09 -0.151085,0.252 -0.074001,0.384 l 1.2333469,2.079 c 0.077084,0.129 0.2374193,0.183 0.3761708,0.129 l 1.5355169,-0.603 c 0.3175868,0.237 0.6660073,0.438 1.0421781,0.591 l 0.2312526,1.59 c 0.024667,0.141 0.151085,0.252 0.3052534,0.252 l 2.4666938,0 c 0.154168,0 0.280586,-0.111 0.305254,-0.252 l 0.231251,-1.59 c 0.376172,-0.153 0.724592,-0.351 1.042178,-0.591 l 1.535517,0.603 c 0.138753,0.051 0.299087,0 0.376171,-0.129 l 1.233348,-2.079 c 0.07708,-0.129 0.04316,-0.291 -0.074,-0.384 l -1.301181,-0.993 z m -4.581884,1.515 c -1.1932631,0 -2.158357,-0.939 -2.158357,-2.1 0,-1.161 0.9650939,-2.1 2.158357,-2.1 1.193264,0 2.158357,0.939 2.158357,2.1 0,1.161 -0.965093,2.1 -2.158357,2.1 z"
       id="path6"
       inkscape:connector-curvature="0"
       style="fill:#f5f5f5;fill-opacity:1" />
    <path
       style="opacity:1;fill:url(#linearGradient4428);fill-opacity:1;stroke:none;stroke-width:0.1;stroke-linecap:round;stroke-linejoin:round;stroke-miterlimit:4;stroke-dasharray:none;stroke-opacity:1"
       d="m 11,1006.3622 c -0.831,0 -1.5807969,0.3347 -2.1230469,0.877 -0.1351387,0.1352 -0.2579035,0.2822 -0.3652343,0.4414 -2.827e-4,4e-4 2.824e-4,0 0,0 -0.107207,0.1592 -0.2018645,0.3288 -0.2773438,0.5078 -2.241e-4,6e-4 2.238e-4,0 0,0 -0.075357,0.179 -0.134122,0.3675 -0.1738281,0.5625 -1.263e-4,6e-4 1.259e-4,0 0,0 C 8.0209626,1008.9518 8,1009.1532 8,1009.3602 c -4e-7,7e-4 0,0 0,0 l 0,0.7402 0,22.7852 a 9,9 0 0 0 -0.28125,0.1152 9,9 0 0 0 -0.7089844,0.3106 9,9 0 0 0 -0.109375,0.059 9,9 0 0 0 -0.671875,0.3789 9,9 0 0 0 -0.1113281,0.074 9,9 0 0 0 -0.6308594,0.4434 9,9 0 0 0 -0.085937,0.072 9,9 0 0 0 -0.59375,0.5117 9,9 0 0 0 -0.097656,0.098 9,9 0 0 0 -0.5097656,0.5371 9,9 0 0 0 -0.1367188,0.1699 9,9 0 0 0 -0.4179688,0.541 9,9 0 0 0 -0.109375,0.1661 9,9 0 0 0 -0.3730468,0.5957 9,9 0 0 0 -0.097656,0.1875 9,9 0 0 0 -0.2949219,0.6015 9,9 0 0 0 -0.1113281,0.2754 9,9 0 0 0 -0.2050781,0.543 9,9 0 0 0 -0.097656,0.3398 9,9 0 0 0 -0.1425782,0.543 9,9 0 0 0 -0.054687,0.3047 9,9 0 0 0 -0.091797,0.5703 9,9 0 0 0 -0.03125,0.3848 9,9 0 0 0 -0.033203,0.5742 9,9 0 0 0 -0.00195,0.019 9,9 0 0 0 0,0.059 9,9 0 0 0 0.1796875,1.7871 9,9 0 0 0 5.7050781,6.6504 9,9 0 0 0 0.00586,0 A 9,9 0 0 0 11,1050.3622 l 26,0 c 1.297566,0 2.388545,-0.8202 2.808594,-1.9687 0.0011,0 8.33e-4,-0.01 0.002,-0.01 0.05584,-0.154 0.102433,-0.3129 0.134765,-0.4766 0.03243,-0.1773 0.05469,-0.3579 0.05469,-0.5449 l 0,-38 c 0,-1.662 -1.338,-3 -3,-3 l -10.945312,0 -15.054688,0 z"
       id="rect4135-0"
       inkscape:connector-curvature="0" />
  </g>
</svg>
