<?xml version="1.0" encoding="UTF-8" standalone="no"?>
<!-- Created with Inkscape (http://www.inkscape.org/) -->

<svg
   xmlns:dc="http://purl.org/dc/elements/1.1/"
   xmlns:cc="http://creativecommons.org/ns#"
   xmlns:rdf="http://www.w3.org/1999/02/22-rdf-syntax-ns#"
   xmlns:svg="http://www.w3.org/2000/svg"
   xmlns="http://www.w3.org/2000/svg"
   xmlns:xlink="http://www.w3.org/1999/xlink"
   xmlns:sodipodi="http://sodipodi.sourceforge.net/DTD/sodipodi-0.dtd"
   xmlns:inkscape="http://www.inkscape.org/namespaces/inkscape"
   width="48"
   height="48"
   viewBox="0 0 48 48.000001"
   id="svg2"
   version="1.1"
   inkscape:version="0.91 r13725"
   sodipodi:docname="inkscape.svg"
   inkscape:export-filename="/home/poltertec/Downloads/testikel2.png"
   inkscape:export-xdpi="360"
   inkscape:export-ydpi="360">
  <defs
     id="defs4">
    <filter
       style="color-interpolation-filters:sRGB"
       inkscape:label="Drop Shadow"
       id="filter4630">
      <feFlood
         flood-opacity="1"
         flood-color="rgb(0,0,0)"
         result="flood"
         id="feFlood4632" />
      <feComposite
         in="flood"
         in2="SourceGraphic"
         operator="in"
         result="composite1"
         id="feComposite4634" />
      <feGaussianBlur
         in="composite1"
         stdDeviation="0.5"
         result="blur"
         id="feGaussianBlur4636" />
      <feOffset
         dx="0"
         dy="0.5"
         result="offset"
         id="feOffset4638" />
      <feComposite
         in="SourceGraphic"
         in2="offset"
         operator="over"
         result="composite2"
         id="feComposite4640" />
    </filter>
    <linearGradient
       inkscape:collect="always"
       id="linearGradient4165">
      <stop
         style="stop-color:#ffffff;stop-opacity:0.15000001"
         offset="0"
         id="stop4167" />
      <stop
         style="stop-color:#177ed5;stop-opacity:0;"
         offset="1"
         id="stop4169" />
    </linearGradient>
    <linearGradient
       inkscape:collect="always"
       xlink:href="#linearGradient4165"
       id="linearGradient4171-1"
       x1="7"
       y1="1011.3622"
       x2="41.000019"
       y2="1045.3622"
       gradientUnits="userSpaceOnUse"
       gradientTransform="matrix(0.95652174,0,0,0.95652174,1.04348,44.711663)" />
  </defs>
  <sodipodi:namedview
     id="base"
     pagecolor="#000000"
     bordercolor="#666666"
     borderopacity="1.0"
     inkscape:pageopacity="0"
     inkscape:pageshadow="2"
     inkscape:zoom="4.0000002"
     inkscape:cx="-54.749992"
     inkscape:cy="58.575949"
     inkscape:document-units="px"
     inkscape:current-layer="layer1"
     showgrid="true"
     units="px"
     inkscape:window-width="1053"
     inkscape:window-height="1000"
     inkscape:window-x="0"
     inkscape:window-y="0"
     inkscape:window-maximized="0"
     inkscape:showpageshadow="false">
    <inkscape:grid
       type="xygrid"
       id="grid4140" />
  </sodipodi:namedview>
  <metadata
     id="metadata7">
    <rdf:RDF>
      <cc:Work
         rdf:about="">
        <dc:format>image/svg+xml</dc:format>
        <dc:type
           rdf:resource="http://purl.org/dc/dcmitype/StillImage" />
        <dc:title />
      </cc:Work>
    </rdf:RDF>
  </metadata>
  <g
     inkscape:label="Laag 1"
     inkscape:groupmode="layer"
     id="layer1"
     transform="translate(0,-1004.3622)">
    <circle
       style="fill:#ffffff;fill-opacity:1;stroke:none;stroke-width:2;stroke-linecap:round;stroke-linejoin:round;stroke-miterlimit:4;stroke-dasharray:none;stroke-opacity:1"
       id="path4136"
       cx="24.000235"
       cy="1028.3622"
       r="22" />
    <path
       style="fill:#ffffff;fill-opacity:0.2;stroke:none;stroke-width:2;stroke-linecap:round;stroke-linejoin:round;stroke-miterlimit:4;stroke-dasharray:none;stroke-opacity:1"
       d="m 24,1006.3622 a 22,22 0 0 0 -22,22 22,22 0 0 0 0.00977,0.293 22,22 0 0 1 21.99023,-21.793 22,22 0 0 1 21.990234,21.707 22,22 0 0 0 0.0098,-0.207 22,22 0 0 0 -22,-22 z"
       id="circle4149"
       inkscape:connector-curvature="0" />
    <path
       inkscape:connector-curvature="0"
       id="path4155"
       d="m 24,1050.3622 a 22,22 0 0 1 -22,-22 22,22 0 0 1 0.00977,-0.293 22,22 0 0 0 21.99023,21.793 22,22 0 0 0 21.990234,-21.707 22,22 0 0 1 0.0098,0.207 22,22 0 0 1 -22,22 z"
       style="fill:#000000;fill-opacity:0.2;stroke:none;stroke-width:2;stroke-linecap:round;stroke-linejoin:round;stroke-miterlimit:4;stroke-dasharray:none;stroke-opacity:1" />
    <path
       style="fill:#212121;fill-opacity:1"
       d="m 22.631838,1044.007 c -0.226367,-0.091 -0.608548,-0.637 -0.849294,-1.2131 -0.350414,-0.8387 -0.731045,-1.1298 -1.908338,-1.4595 -1.760353,-0.4928 -2.056311,-1.0584 -1.19021,-2.2748 0.355734,-0.4996 0.646788,-1.0638 0.646788,-1.2538 0,-0.4376 -1.127369,-1.0003 -4.256725,-2.1246 -3.374499,-1.2123 -3.605424,-2.0253 -0.91932,-3.2365 0.706422,-0.3185 1.215936,-0.6899 1.132254,-0.8254 -0.08368,-0.1354 -1.146043,-0.5481 -2.360801,-0.917 C 10.129568,1029.8528 9,1028.9965 9,1027.7257 c 0,-1.0109 2.106279,-3.4646 9.883306,-11.5139 3.976593,-4.1158 4.550646,-4.3504 6.701709,-2.7386 1.866995,1.399 13.086533,13.5716 13.302659,14.4326 0.466603,1.8591 -0.346329,2.5019 -5.786778,4.5753 -1.625291,0.6194 -3.085386,1.2554 -3.244658,1.4132 -0.16996,0.1684 0.200217,0.576 0.896144,0.9865 2.584572,1.525 2.248721,2.6598 -1.24104,4.1934 -1.337859,0.588 -2.43247,1.2129 -2.43247,1.3888 0,0.1759 0.232145,0.5763 0.515881,0.8899 0.687468,0.7596 0.3697,1.1742 -1.604662,2.0935 -1.609546,0.7494 -2.513428,0.9003 -3.358253,0.5606 z m 1.179313,-10.0832 c 0.244701,-0.155 0.350818,-0.434 0.23582,-0.6201 -0.247209,-0.4 -4.833455,-1.4712 -5.432669,-1.2689 -0.48771,0.1646 1.2919,1.1453 3.13776,1.7291 1.599131,0.5058 1.522486,0.4998 2.059092,0.1599 z m 0.515019,-11.7873 c 1.157038,-0.7004 1.366756,-0.733 2.139816,-0.3333 0.849406,0.4392 0.858924,0.4315 1.066669,-0.8676 l 0.209615,-1.3109 1.121067,0.8551 c 2.04535,1.5601 1.236246,0.067 -1.542337,-2.8472 -3.635219,-3.8118 -3.62985,-3.8123 -7.909507,0.6599 -1.819993,1.9018 -3.309078,3.6475 -3.309078,3.8794 0,0.3022 0.576747,0.4215 2.039034,0.4215 l 2.039033,0 0.77463,-1.8564 0.774629,-1.8563 0.470842,2.0177 c 0.258963,1.1098 0.55454,2.0171 0.656834,2.0161 0.102297,0 0.763235,-0.351 1.468753,-0.778 z m -9.299878,17.9977 c -0.545123,-0.5452 -0.184841,-1.7494 0.614272,-2.0532 0.975242,-0.3708 2.398872,-0.091 2.398872,0.4715 0,1.0359 -2.333824,2.261 -3.013144,1.5817 z m 18.267192,0 c -0.451449,-0.1822 -0.552987,-1.5928 -0.133322,-1.8521 0.381002,-0.2355 1.666797,0.7231 1.666797,1.2426 0,0.3364 -0.797791,0.9282 -1.075624,0.7978 -0.02986,-0.014 -0.235901,-0.099 -0.457851,-0.1883 z m 0.908547,-2.724 c -0.778128,-0.3109 -0.779803,-0.3207 -0.160295,-0.9402 0.969715,-0.9697 2.438453,-1.1365 3.369511,-0.3825 0.673567,0.5454 0.723358,0.709 0.351954,1.1565 -0.482464,0.5813 -2.308691,0.6666 -3.56117,0.1662 z"
       id="path3338"
       inkscape:connector-curvature="0" />
    <path
       style="fill:url(#linearGradient4171-1);fill-opacity:1;stroke:none;stroke-width:2;stroke-linecap:round;stroke-linejoin:round;stroke-miterlimit:4;stroke-dasharray:none;stroke-opacity:1"
       d="m 24.000001,1006.3624 a 21.99977,21.999992 0 0 0 -1.890625,0.095 21.999769,21.999992 0 0 0 -1.036855,0.1252 21.99977,21.999992 0 0 0 -1.143342,0.1737 21.999769,21.999992 0 0 0 -1.021909,0.2298 21.99977,21.999992 0 0 0 -1.102241,0.2803 21.999769,21.999992 0 0 0 -1.016305,0.3381 21.99977,21.999992 0 0 0 -1.064878,0.3886 21.999769,21.999992 0 0 0 -0.975204,0.4372 21.99977,21.999992 0 0 0 -1.008831,0.4876 21.999769,21.999992 0 0 0 -0.939708,0.538 21.99977,21.999992 0 0 0 -0.954653,0.5848 21.999769,21.999992 0 0 0 -0.87619,0.6277 21.99977,21.999992 0 0 0 -0.893003,0.68 21.999769,21.999992 0 0 0 -0.788383,0.6912 21.99977,21.999992 0 0 0 -0.846298,0.7881 A 21.999769,21.999992 0 0 0 2,1028.3622 a 21.999769,21.999992 0 0 0 6.196841,15.3043 l 0.03176,0 a 21.99977,21.999992 0 0 0 15.771401,6.6957 21.99977,21.999992 0 0 0 1.868207,-0.094 21.999769,21.999992 0 0 0 1.081691,-0.1308 21.99977,21.999992 0 0 0 1.120924,-0.17 21.999769,21.999992 0 0 0 1.021909,-0.2297 21.99977,21.999992 0 0 0 1.102241,-0.2803 21.999769,21.999992 0 0 0 1.016305,-0.3381 21.99977,21.999992 0 0 0 1.064878,-0.3887 21.999769,21.999992 0 0 0 0.975204,-0.4371 21.99977,21.999992 0 0 0 1.008831,-0.4876 21.999769,21.999992 0 0 0 0.939708,-0.5381 21.99977,21.999992 0 0 0 0.954653,-0.5847 21.999769,21.999992 0 0 0 0.87619,-0.6277 21.99977,21.999992 0 0 0 0.893003,-0.68 21.999769,21.999992 0 0 0 0.788382,-0.6912 21.99977,21.999992 0 0 0 0.846298,-0.7885 21.999769,21.999992 0 0 0 6.441576,-15.5333 21.999769,21.999992 0 0 0 -6.198709,-15.3044 l -0.02989,0 A 21.99977,21.999992 0 0 0 24,1006.3624 Z"
       id="circle4163-3"
       inkscape:connector-curvature="0" />
  </g>
</svg>
