<?xml version="1.0" encoding="UTF-8" standalone="no"?>
<!-- Created with Inkscape (http://www.inkscape.org/) -->

<svg
   xmlns:dc="http://purl.org/dc/elements/1.1/"
   xmlns:cc="http://creativecommons.org/ns#"
   xmlns:rdf="http://www.w3.org/1999/02/22-rdf-syntax-ns#"
   xmlns:svg="http://www.w3.org/2000/svg"
   xmlns="http://www.w3.org/2000/svg"
   xmlns:xlink="http://www.w3.org/1999/xlink"
   xmlns:sodipodi="http://sodipodi.sourceforge.net/DTD/sodipodi-0.dtd"
   xmlns:inkscape="http://www.inkscape.org/namespaces/inkscape"
   width="24"
   height="24"
   viewBox="0 0 24 24"
   id="svg2"
   version="1.1"
   inkscape:version="0.91 r13725"
   sodipodi:docname="journal.svg"
   inkscape:export-filename="/home/poltertec/Downloads/journal.png"
   inkscape:export-xdpi="360"
   inkscape:export-ydpi="360">
  <defs
     id="defs4">
    <filter
       style="color-interpolation-filters:sRGB"
       inkscape:label="Drop Shadow"
       id="filter4630">
      <feFlood
         flood-opacity="1"
         flood-color="rgb(0,0,0)"
         result="flood"
         id="feFlood4632" />
      <feComposite
         in="flood"
         in2="SourceGraphic"
         operator="in"
         result="composite1"
         id="feComposite4634" />
      <feGaussianBlur
         in="composite1"
         stdDeviation="0.5"
         result="blur"
         id="feGaussianBlur4636" />
      <feOffset
         dx="0"
         dy="0.5"
         result="offset"
         id="feOffset4638" />
      <feComposite
         in="SourceGraphic"
         in2="offset"
         operator="over"
         result="composite2"
         id="feComposite4640" />
    </filter>
    <linearGradient
       inkscape:collect="always"
       id="linearGradient4165">
      <stop
         style="stop-color:#ffffff;stop-opacity:0.15000001"
         offset="0"
         id="stop4167" />
      <stop
         style="stop-color:#177ed5;stop-opacity:0;"
         offset="1"
         id="stop4169" />
    </linearGradient>
    <linearGradient
       inkscape:collect="always"
       xlink:href="#linearGradient4165"
       id="linearGradient4171-1"
       x1="7"
       y1="1011.3622"
       x2="41.000019"
       y2="1045.3622"
       gradientUnits="userSpaceOnUse"
       gradientTransform="matrix(0.46376812,0,0,0.47894227,1.1119903,547.82053)" />
    <linearGradient
       inkscape:collect="always"
       xlink:href="#linearGradient4168"
       id="linearGradient4174"
       x1="36"
       y1="1016.3622"
       x2="45"
       y2="1025.3622"
       gradientUnits="userSpaceOnUse"
       gradientTransform="matrix(0.515625,0,0,0.49929077,-0.640625,526.89484)" />
    <linearGradient
       inkscape:collect="always"
       id="linearGradient4168">
      <stop
         style="stop-color:#000000;stop-opacity:0.2"
         offset="0"
         id="stop4170" />
      <stop
         style="stop-color:#000000;stop-opacity:0;"
         offset="1"
         id="stop4172" />
    </linearGradient>
  </defs>
  <sodipodi:namedview
     id="base"
     pagecolor="#000000"
     bordercolor="#666666"
     borderopacity="1.0"
     inkscape:pageopacity="0"
     inkscape:pageshadow="2"
     inkscape:zoom="47.552931"
     inkscape:cx="7.2340148"
     inkscape:cy="15.80533"
     inkscape:document-units="px"
     inkscape:current-layer="layer1"
     showgrid="true"
     units="px"
     inkscape:window-width="1920"
     inkscape:window-height="1003"
     inkscape:window-x="0"
     inkscape:window-y="0"
     inkscape:window-maximized="1"
     inkscape:showpageshadow="false"
     showguides="true">
    <inkscape:grid
       type="xygrid"
       id="grid4140" />
  </sodipodi:namedview>
  <metadata
     id="metadata7">
    <rdf:RDF>
      <cc:Work
         rdf:about="">
        <dc:format>image/svg+xml</dc:format>
        <dc:type
           rdf:resource="http://purl.org/dc/dcmitype/StillImage" />
        <dc:title />
      </cc:Work>
    </rdf:RDF>
  </metadata>
  <g
     inkscape:label="Laag 1"
     inkscape:groupmode="layer"
     id="layer1"
     transform="translate(0,-1028.3622)">
    <path
       style="opacity:1;fill:#37474f;fill-opacity:1;stroke:none;stroke-width:1;stroke-linecap:butt;stroke-linejoin:round;stroke-miterlimit:14.5;stroke-dasharray:none;stroke-opacity:1"
       d="M 6.0000006,1029.3622 C 4.892,1029.3622 4,1030.2544 4,1031.3623 l 0,17.9999 c 0,1.108 0.892,2 2.0000006,2 l 11.9999994,0 c 1.108,0 2,-0.892 2,-2 l 0,-13.9999 -6,-6.0001 -7.9999994,0 z"
       id="rect3338"
       inkscape:connector-curvature="0" />
    <path
       style="opacity:1;fill:#ffffff;fill-opacity:0.2;stroke:none;stroke-width:1;stroke-linecap:butt;stroke-linejoin:round;stroke-miterlimit:14.5;stroke-dasharray:none;stroke-opacity:1"
       d="M 6 1 C 5.7258389 1 5.4659863 1.0552948 5.2285156 1.1542969 C 5.1813965 1.1744206 5.1389191 1.201251 5.09375 1.2246094 C 5.0271275 1.2586192 4.958485 1.2890779 4.8964844 1.3300781 C 4.8365252 1.3698233 4.7856063 1.419333 4.7304688 1.4648438 C 4.6852588 1.5022562 4.6354628 1.5349715 4.59375 1.5761719 C 4.5630361 1.6063609 4.5384492 1.6417926 4.5097656 1.6738281 C 4.4505329 1.740382 4.3898349 1.8067362 4.3398438 1.8808594 C 4.2681016 1.9872334 4.2067188 2.100982 4.15625 2.2207031 C 4.0553125 2.4601453 4 2.723025 4 3 L 4 3.2285156 C 4 2.1221156 4.9198665 1.2304688 6.0625 1.2304688 L 14.230469 1.2304688 L 14 1 L 6 1 z "
       id="path4167"
       transform="translate(0,1028.3622)" />
    <path
       style="fill:url(#linearGradient4174);fill-opacity:1;fill-rule:evenodd;stroke:none;stroke-width:1px;stroke-linecap:butt;stroke-linejoin:miter;stroke-opacity:1"
       d="M 15.135728,1034.5006 20,1039.3622 l 0,-4 -4.446368,-0.9335"
       id="path4166"
       inkscape:connector-curvature="0"
       sodipodi:nodetypes="cccc" />
    <path
       style="opacity:1;fill:#455a64;fill-opacity:1;stroke:none;stroke-width:1;stroke-linecap:butt;stroke-linejoin:round;stroke-miterlimit:14.5;stroke-dasharray:none;stroke-opacity:1"
       d="m 14,1029.3622 0,3.9999 c 0,1.108 0.891999,2.0001 2,2.0001 l 4,0 -6,-6 z"
       id="rect4156"
       inkscape:connector-curvature="0" />
    <rect
       style="opacity:1;fill:#00acc1;fill-opacity:1;stroke:none;stroke-width:2;stroke-linecap:butt;stroke-linejoin:miter;stroke-miterlimit:4;stroke-dasharray:none;stroke-opacity:1"
       id="rect4188"
       width="8"
       height="1"
       x="8"
       y="1038.3622" />
    <rect
       style="opacity:1;fill:#00acc1;fill-opacity:1;stroke:none;stroke-width:2;stroke-linecap:butt;stroke-linejoin:miter;stroke-miterlimit:4;stroke-dasharray:none;stroke-opacity:1"
       id="rect4190"
       width="8"
       height="1"
       x="8"
       y="1040.3622" />
    <rect
       style="opacity:1;fill:#00acc1;fill-opacity:1;stroke:none;stroke-width:2;stroke-linecap:butt;stroke-linejoin:miter;stroke-miterlimit:4;stroke-dasharray:none;stroke-opacity:1"
       id="rect4192"
       width="8"
       height="1"
       x="8"
       y="1042.3622" />
    <rect
       style="opacity:1;fill:#00acc1;fill-opacity:1;stroke:none;stroke-width:2;stroke-linecap:butt;stroke-linejoin:miter;stroke-miterlimit:4;stroke-dasharray:none;stroke-opacity:1"
       id="rect4194"
       width="5"
       height="1"
       x="8"
       y="1044.3622" />
    <path
       style="fill:url(#linearGradient4171-1);fill-opacity:1;stroke:none;stroke-width:2;stroke-linecap:round;stroke-linejoin:round;stroke-miterlimit:4;stroke-dasharray:none;stroke-opacity:1"
       d="m 6,1029.3622 c -0.4155001,0 -0.8000389,0.1246 -1.1191406,0.3398 -0.1063672,0.072 -0.2064999,0.1538 -0.296875,0.2442 -0.090375,0.09 -0.1704454,0.1905 -0.2421875,0.2969 -0.071742,0.1063 -0.1350782,0.2183 -0.1855469,0.3379 C 4.0551032,1030.8208 4,1031.0849 4,1031.3622 l 0,2.0039 0,13.9629 0,2.0332 c 0,0.5539 0.2224844,1.0546 0.5839844,1.416 0.18075,0.1807 0.3953281,0.3267 0.6347656,0.4278 0.2394375,0.1009 0.5042498,0.1562 0.78125,0.1562 l 12,0 c 0.0569,0 0.110325,-0.013 0.166016,-0.018 a 3.5,3.5 0 0 0 0.333984,0.018 3.5,3.5 0 0 0 3.5,-3.5 3.5,3.5 0 0 0 -2,-3.1582 l 0,-9.3418 -5.839844,-5.8398 L 14,1029.3622 l -1.169922,0 -1.185547,0 -5.644531,0 z"
       id="circle4163-3"
       inkscape:connector-curvature="0" />
    <path
       style="opacity:1;fill:#000000;fill-opacity:0.2;stroke:none;stroke-width:1;stroke-linecap:butt;stroke-linejoin:round;stroke-miterlimit:14.5;stroke-dasharray:none;stroke-opacity:1"
       d="m 4,1049.1151 0,0.25 c 0,1.1065 0.8919995,1.9971 2,1.9971 l 12,0 c 1.107999,0 2,-0.8906 2,-1.9971 l 0,-0.25 c 0,1.1065 -0.892001,1.9971 -2,1.9971 l -12,0 c -1.1080005,0 -2,-0.8906 -2,-1.9971 z"
       id="path4161"
       inkscape:connector-curvature="0" />
    <circle
       style="opacity:1;fill:#8bc34a;fill-opacity:1;stroke:none;stroke-width:2;stroke-linecap:butt;stroke-linejoin:miter;stroke-miterlimit:4;stroke-dasharray:none;stroke-opacity:1"
       id="path4169"
       cx="18.5"
       cy="1047.8622"
       r="3.5" />
    <rect
       style="opacity:1;fill:#558b2f;fill-opacity:1;stroke:none;stroke-width:2;stroke-linecap:butt;stroke-linejoin:miter;stroke-miterlimit:4;stroke-dasharray:none;stroke-opacity:1"
       id="rect4173"
       width="1"
       height="3"
       x="18"
       y="1046.3622" />
    <rect
       style="opacity:1;fill:#558b2f;fill-opacity:1;stroke:none;stroke-width:2;stroke-linecap:butt;stroke-linejoin:miter;stroke-miterlimit:4;stroke-dasharray:none;stroke-opacity:1"
       id="rect4175"
       width="3"
       height="1"
       x="17"
       y="1047.3622" />
    <path
       style="opacity:1;fill:#ffffff;fill-opacity:0.2;stroke:none;stroke-width:2;stroke-linecap:butt;stroke-linejoin:miter;stroke-miterlimit:4;stroke-dasharray:none;stroke-opacity:1"
       d="m 18.5,1044.3622 a 3.5,3.5 0 0 0 -3.5,3.5 3.5,3.5 0 0 0 0.0039,0.1387 3.5,3.5 0 0 1 3.496094,-3.3887 3.5,3.5 0 0 1 3.5,3.5 3.5,3.5 0 0 0 -0.0039,-0.1543 3.5,3.5 0 0 0 0.0039,-0.096 3.5,3.5 0 0 0 -3.5,-3.5 z"
       id="circle4180"
       inkscape:connector-curvature="0" />
    <path
       inkscape:connector-curvature="0"
       id="path4188"
       d="m 18.5,1051.3619 a 3.5,3.5 0 0 1 -3.5,-3.5 3.5,3.5 0 0 1 0.0039,-0.1387 3.5,3.5 0 0 0 3.496094,3.3887 3.5,3.5 0 0 0 3.5,-3.5 3.5,3.5 0 0 1 -0.0039,0.1543 3.5,3.5 0 0 1 0.0039,0.096 3.5,3.5 0 0 1 -3.5,3.5 z"
       style="opacity:1;fill:#000000;fill-opacity:0.2;stroke:none;stroke-width:2;stroke-linecap:butt;stroke-linejoin:miter;stroke-miterlimit:4;stroke-dasharray:none;stroke-opacity:1" />
  </g>
</svg>
