<?xml version="1.0" encoding="UTF-8" standalone="no"?>
<!-- Created with Inkscape (http://www.inkscape.org/) -->

<svg
   xmlns:dc="http://purl.org/dc/elements/1.1/"
   xmlns:cc="http://creativecommons.org/ns#"
   xmlns:rdf="http://www.w3.org/1999/02/22-rdf-syntax-ns#"
   xmlns:svg="http://www.w3.org/2000/svg"
   xmlns="http://www.w3.org/2000/svg"
   xmlns:sodipodi="http://sodipodi.sourceforge.net/DTD/sodipodi-0.dtd"
   xmlns:inkscape="http://www.inkscape.org/namespaces/inkscape"
   width="24"
   height="24"
   viewBox="0 0 24.000001 24.000001"
   id="svg4253"
   version="1.1"
   inkscape:version="0.91 r13725"
   sodipodi:docname="preferences-desktop-wallpaper-symbolic.svg">
  <defs
     id="defs4255" />
  <sodipodi:namedview
     id="base"
     pagecolor="#5e5e5e"
     bordercolor="#959595"
     borderopacity="1"
     inkscape:pageopacity="0"
     inkscape:pageshadow="2"
     inkscape:zoom="11.313709"
     inkscape:cx="-12.761834"
     inkscape:cy="7.5944677"
     inkscape:document-units="px"
     inkscape:current-layer="layer1"
     showgrid="false"
     inkscape:window-width="1920"
     inkscape:window-height="1001"
     inkscape:window-x="0"
     inkscape:window-y="0"
     inkscape:window-maximized="1"
     units="px" />
  <metadata
     id="metadata4258">
    <rdf:RDF>
      <cc:Work
         rdf:about="">
        <dc:format>image/svg+xml</dc:format>
        <dc:type
           rdf:resource="http://purl.org/dc/dcmitype/StillImage" />
        <dc:title />
      </cc:Work>
    </rdf:RDF>
  </metadata>
  <g
     inkscape:label="Laag 1"
     inkscape:groupmode="layer"
     id="layer1"
     transform="translate(0,-1028.3622)">
    <g
       id="g4171"
       transform="translate(-5.5093443,-6.1782332)">
      <path
         id="rect4144"
         transform="translate(0,1028.3622)"
         d="m -19.324219,13.621094 -3.914062,3.914062 0,8.085938 16.9999998,0 0,-12 -13.0859378,0 z"
         style="opacity:1;fill:#bebebe;fill-opacity:0.50289019;stroke:none;stroke-width:0.1;stroke-miterlimit:0;stroke-dasharray:none;stroke-opacity:1"
         inkscape:connector-curvature="0" />
      <path
         inkscape:connector-curvature="0"
         id="path4169"
         d="m -23.245188,1045.8933 3.927758,0 0,-3.9112 -3.894612,3.8946 z"
         style="fill:#bebebe;fill-opacity:0.50289019;fill-rule:evenodd;stroke:none;stroke-width:1px;stroke-linecap:butt;stroke-linejoin:miter;stroke-opacity:1" />
    </g>
    <g
       id="g3339"
       transform="matrix(1.1000001,0,0,1.100001,-1.2000001,-104.03725)">
      <path
         id="rect4140"
         transform="translate(0,1028.3622)"
         d="M 3.2285156,2 C 2.5479782,2 2,2.5479782 2,3.2285156 L 2,16.771484 C 2,17.452022 2.5479782,18 3.2285156,18 L 20.771484,18 C 21.452022,18 22,17.452022 22,16.771484 L 22,3.2285156 C 22,2.5479782 21.452022,2 20.771484,2 L 3.2285156,2 Z M 4,4 20,4 20,16 4,16 4,4 Z"
         style="opacity:1;fill:#bebebe;fill-opacity:1;stroke:none;stroke-width:0.1;stroke-miterlimit:0;stroke-dasharray:none;stroke-opacity:1"
         inkscape:connector-curvature="0" />
      <path
         inkscape:connector-curvature="0"
         id="rect4145"
         d="m 20,1032.3622 0,12 -16,0 0,-12 16,0 z m -10,1 -2,0 0,2 2,0 0,-2 z m -3,0 -2,0 0,2 2,0 0,-2 z m 0,3 -2,0 0,2 2,0 0,-2 z"
         style="opacity:1;fill:#bebebe;fill-opacity:0.35260117;stroke:none;stroke-width:0.1;stroke-miterlimit:0;stroke-dasharray:none;stroke-opacity:1" />
      <rect
         rx="1.3037283"
         ry="1.2500002"
         y="1047.8622"
         x="8.000001"
         height="2.5000005"
         width="8.0000019"
         id="rect3338-8"
         style="opacity:1;fill:#bebebe;fill-opacity:1;stroke:none;stroke-width:0.1;stroke-miterlimit:0;stroke-dasharray:none;stroke-opacity:1" />
    </g>
  </g>
</svg>
