<?xml version="1.0" encoding="UTF-8" standalone="no"?>
<!-- Created with Inkscape (http://www.inkscape.org/) -->

<svg
   xmlns:dc="http://purl.org/dc/elements/1.1/"
   xmlns:cc="http://creativecommons.org/ns#"
   xmlns:rdf="http://www.w3.org/1999/02/22-rdf-syntax-ns#"
   xmlns:svg="http://www.w3.org/2000/svg"
   xmlns="http://www.w3.org/2000/svg"
   xmlns:xlink="http://www.w3.org/1999/xlink"
   xmlns:sodipodi="http://sodipodi.sourceforge.net/DTD/sodipodi-0.dtd"
   xmlns:inkscape="http://www.inkscape.org/namespaces/inkscape"
   width="48"
   height="48"
   viewBox="0 0 48 48.000001"
   id="svg2"
   version="1.1"
   inkscape:version="0.91 r13725"
   sodipodi:docname="preferences-system-sharing.svg"
   inkscape:export-filename="/home/poltertec/Downloads/testikel2.png"
   inkscape:export-xdpi="360"
   inkscape:export-ydpi="360">
  <defs
     id="defs4">
    <filter
       style="color-interpolation-filters:sRGB"
       inkscape:label="Drop Shadow"
       id="filter4630">
      <feFlood
         flood-opacity="1"
         flood-color="rgb(0,0,0)"
         result="flood"
         id="feFlood4632" />
      <feComposite
         in="flood"
         in2="SourceGraphic"
         operator="in"
         result="composite1"
         id="feComposite4634" />
      <feGaussianBlur
         in="composite1"
         stdDeviation="0.5"
         result="blur"
         id="feGaussianBlur4636" />
      <feOffset
         dx="0"
         dy="0.5"
         result="offset"
         id="feOffset4638" />
      <feComposite
         in="SourceGraphic"
         in2="offset"
         operator="over"
         result="composite2"
         id="feComposite4640" />
    </filter>
    <linearGradient
       inkscape:collect="always"
       xlink:href="#linearGradient4165"
       id="linearGradient4171-1"
       x1="7"
       y1="1011.3622"
       x2="41.000019"
       y2="1045.3622"
       gradientUnits="userSpaceOnUse"
       gradientTransform="matrix(0.95651666,0,0,0.9565206,1.043486,44.71289)" />
    <linearGradient
       inkscape:collect="always"
       id="linearGradient4165">
      <stop
         style="stop-color:#ffffff;stop-opacity:0.15000001"
         offset="0"
         id="stop4167" />
      <stop
         style="stop-color:#177ed5;stop-opacity:0;"
         offset="1"
         id="stop4169" />
    </linearGradient>
  </defs>
  <sodipodi:namedview
     id="base"
     pagecolor="#ffffff"
     bordercolor="#666666"
     borderopacity="1.0"
     inkscape:pageopacity="0"
     inkscape:pageshadow="2"
     inkscape:zoom="3.5527797"
     inkscape:cx="51.03933"
     inkscape:cy="-10.654292"
     inkscape:document-units="px"
     inkscape:current-layer="layer1"
     showgrid="true"
     units="px"
     inkscape:window-width="1920"
     inkscape:window-height="1011"
     inkscape:window-x="0"
     inkscape:window-y="0"
     inkscape:window-maximized="1"
     inkscape:showpageshadow="false">
    <inkscape:grid
       type="xygrid"
       id="grid4140" />
  </sodipodi:namedview>
  <metadata
     id="metadata7">
    <rdf:RDF>
      <cc:Work
         rdf:about="">
        <dc:format>image/svg+xml</dc:format>
        <dc:type
           rdf:resource="http://purl.org/dc/dcmitype/StillImage" />
        <dc:title></dc:title>
      </cc:Work>
    </rdf:RDF>
  </metadata>
  <g
     inkscape:label="Laag 1"
     inkscape:groupmode="layer"
     id="layer1"
     transform="translate(0,-1004.3622)">
    <path
       style="fill:#37474f;fill-opacity:1;fill-rule:evenodd;stroke:none;stroke-width:1px;stroke-linecap:butt;stroke-linejoin:miter;stroke-opacity:1"
       d="m 17,1027.3622 17,-10 -2,-3 -17,10 -5,3 5,5 19,11 2,-3 -19,-11 0,-2"
       id="path4175"
       inkscape:connector-curvature="0" />
    <path
       style="fill:#ffffff;fill-opacity:0.2;fill-rule:evenodd;stroke:none;stroke-width:1px;stroke-linecap:butt;stroke-linejoin:miter;stroke-opacity:1"
       d="M 32 10 L 15 20 L 10 23 L 10.5 23.5 L 15.5 20.5 L 32.380859 10.570312 L 32 10 z M 17.5 25.289062 L 17.5 25.5 L 35.898438 36.152344 L 36 36 L 17.5 25.289062 z "
       transform="translate(0,1004.3622)"
       id="path4194" />
    <path
       style="fill:#000000;fill-opacity:0.2;fill-rule:evenodd;stroke:none;stroke-width:1px;stroke-linecap:butt;stroke-linejoin:miter;stroke-opacity:1"
       d="M 33.902344 12.851562 L 17.5 22.5 L 17.5 22.705078 L 34 13 L 33.902344 12.851562 z M 10.625 22.625 L 10 23 L 15 28 L 34 39 L 34.378906 38.429688 L 15.5 27.5 L 10.625 22.625 z "
       transform="translate(0,1004.3622)"
       id="path4199" />
    <circle
       style="opacity:1;fill:#9fa8da;fill-opacity:1;stroke:none;stroke-width:1.66600001;stroke-linecap:round;stroke-linejoin:round;stroke-miterlimit:4;stroke-dasharray:none;stroke-opacity:1"
       id="path4148"
       cx="12"
       cy="1028.3622"
       r="6" />
    <circle
       r="6"
       cy="1014.3622"
       cx="36"
       id="circle4150"
       style="opacity:1;fill:#d5314f;fill-opacity:1;stroke:none;stroke-width:1.66600001;stroke-linecap:round;stroke-linejoin:round;stroke-miterlimit:4;stroke-dasharray:none;stroke-opacity:1" />
    <circle
       style="opacity:1;fill:#37b9a5;fill-opacity:1;stroke:none;stroke-width:1.66600001;stroke-linecap:round;stroke-linejoin:round;stroke-miterlimit:4;stroke-dasharray:none;stroke-opacity:1"
       id="circle4152"
       cx="36"
       cy="1042.3622"
       r="6" />
    <path
       style="opacity:1;fill:#ffffff;fill-opacity:0.2;stroke:none;stroke-width:1.66600001;stroke-linecap:round;stroke-linejoin:round;stroke-miterlimit:4;stroke-dasharray:none;stroke-opacity:1"
       d="m 36,1008.3622 a 6,6 0 0 0 -6,6 6,6 0 0 0 0.02539,0.4981 6,6 0 0 1 5.974609,-5.4981 6,6 0 0 1 5.974609,5.502 6,6 0 0 0 0.02539,-0.502 6,6 0 0 0 -6,-6 z"
       id="circle4154"
       inkscape:connector-curvature="0" />
    <path
       inkscape:connector-curvature="0"
       id="path4159"
       d="m 36,1020.3622 a 6,6 0 0 1 -6,-6 6,6 0 0 1 0.02539,-0.4981 6,6 0 0 0 5.974609,5.4981 6,6 0 0 0 5.974609,-5.502 6,6 0 0 1 0.02539,0.502 6,6 0 0 1 -6,6 z"
       style="opacity:1;fill:#000000;fill-opacity:0.2;stroke:none;stroke-width:1.66600001;stroke-linecap:round;stroke-linejoin:round;stroke-miterlimit:4;stroke-dasharray:none;stroke-opacity:1" />
    <path
       inkscape:connector-curvature="0"
       id="path4167"
       d="m 36,1036.3622 a 6,6 0 0 0 -6,6 6,6 0 0 0 0.02539,0.4981 6,6 0 0 1 5.974609,-5.4981 6,6 0 0 1 5.974609,5.502 6,6 0 0 0 0.02539,-0.502 6,6 0 0 0 -6,-6 z"
       style="opacity:1;fill:#ffffff;fill-opacity:0.2;stroke:none;stroke-width:1.66600001;stroke-linecap:round;stroke-linejoin:round;stroke-miterlimit:4;stroke-dasharray:none;stroke-opacity:1" />
    <path
       style="opacity:1;fill:#000000;fill-opacity:0.2;stroke:none;stroke-width:1.66600001;stroke-linecap:round;stroke-linejoin:round;stroke-miterlimit:4;stroke-dasharray:none;stroke-opacity:1"
       d="m 36,1048.3622 a 6,6 0 0 1 -6,-6 6,6 0 0 1 0.02539,-0.4981 6,6 0 0 0 5.974609,5.4981 6,6 0 0 0 5.974609,-5.502 6,6 0 0 1 0.02539,0.502 6,6 0 0 1 -6,6 z"
       id="path4169"
       inkscape:connector-curvature="0" />
    <path
       style="opacity:1;fill:#ffffff;fill-opacity:0.2;stroke:none;stroke-width:1.66600001;stroke-linecap:round;stroke-linejoin:round;stroke-miterlimit:4;stroke-dasharray:none;stroke-opacity:1"
       d="m 12,1022.3622 a 6,6 0 0 0 -6,6 6,6 0 0 0 0.02539,0.4981 6,6 0 0 1 5.974609,-5.4981 6,6 0 0 1 5.974609,5.502 6,6 0 0 0 0.02539,-0.502 6,6 0 0 0 -6,-6 z"
       id="path4171"
       inkscape:connector-curvature="0" />
    <path
       inkscape:connector-curvature="0"
       id="path4173"
       d="m 12,1034.3622 a 6,6 0 0 1 -6,-6 6,6 0 0 1 0.02539,-0.4981 6,6 0 0 0 5.974609,5.4981 6,6 0 0 0 5.974609,-5.502 6,6 0 0 1 0.02539,0.502 6,6 0 0 1 -6,6 z"
       style="opacity:1;fill:#000000;fill-opacity:0.2;stroke:none;stroke-width:1.66600001;stroke-linecap:round;stroke-linejoin:round;stroke-miterlimit:4;stroke-dasharray:none;stroke-opacity:1" />
    <path
       style="fill:url(#linearGradient4171-1);fill-opacity:1;stroke:none;stroke-width:2;stroke-linecap:round;stroke-linejoin:round;stroke-miterlimit:4;stroke-dasharray:none;stroke-opacity:1"
       d="m 36,1008.3622 a 6,6 0 0 0 -6,6 6,6 0 0 0 0.0039,0.076 6,6 0 0 0 0.01563,0.2851 c 0.0075,0.1534 0.02443,0.3046 0.04492,0.4551 a 6,6 0 0 0 0.04492,0.2969 l -0.01367,0.01 -14.177734,8.3379 a 6,6 0 0 0 -3.25,-1.4219 6,6 0 0 0 -0.597657,-0.037 6,6 0 0 0 -0.07031,0 6,6 0 0 0 -6,6 6,6 0 0 0 0.00391,0.086 6,6 0 0 0 5.996094,5.9141 6,6 0 0 0 3.919922,-1.4668 l 0.105469,0.061 14.105468,8.166 A 6,6 0 0 0 30,1042.3622 a 6,6 0 0 0 4.265625,5.7383 6,6 0 0 0 0.445313,0.1133 c 0.05534,0.013 0.110088,0.026 0.166015,0.037 a 6,6 0 0 0 0.314453,0.049 6,6 0 0 0 0.05469,0.01 c 0.08556,0.012 0.17095,0.026 0.257812,0.033 a 6,6 0 0 0 0.01367,0 6,6 0 0 0 0.482422,0.023 6,6 0 0 0 0.595703,-0.029 c 0.0013,-10e-5 0.0026,10e-5 0.0039,0 a 6,6 0 0 0 1.173829,-0.2383 6,6 0 0 0 1.103515,-0.4668 6,6 0 0 0 0.988281,-0.6758 6,6 0 0 0 0.439454,-0.4101 6,6 0 0 0 0.74414,-0.9375 6,6 0 0 0 0.951172,-3.2422 6,6 0 0 0 -6,-6 6,6 0 0 0 -4.101562,1.625 l -14.0625,-8.1406 -0.02539,-0.016 a 6,6 0 0 0 0.181641,-1.1797 c 2.9e-5,0 -4.4e-5,0 0,0 a 6,6 0 0 0 0.0039,-0.1543 c -5.7e-5,0 1.6e-5,0 0,0 a 6,6 0 0 0 0.002,-0.088 6,6 0 0 0 0.002,-0.033 6,6 0 0 0 0,-0.01 6,6 0 0 0 -0.138672,-1.25 l 0.002,0 a 6,6 0 0 0 -0.05273,-0.2246 l 14,-8.2363 A 6,6 0 0 0 36,1020.3622 a 6,6 0 0 0 5.996094,-5.8984 c -1.2e-5,-7e-4 6e-6,0 0,0 a 6,6 0 0 0 0.002,-0.049 6,6 0 0 0 0.002,-0.045 6,6 0 0 0 -0.0293,-0.6055 6,6 0 0 0 -0.08984,-0.5859 A 6,6 0 0 0 36,1008.3681 l 0,-0.01 z"
       id="circle4163-3"
       inkscape:connector-curvature="0" />
  </g>
</svg>
