<?xml version="1.0" encoding="UTF-8" standalone="no"?>
<svg
   xmlns:dc="http://purl.org/dc/elements/1.1/"
   xmlns:cc="http://creativecommons.org/ns#"
   xmlns:rdf="http://www.w3.org/1999/02/22-rdf-syntax-ns#"
   xmlns:svg="http://www.w3.org/2000/svg"
   xmlns="http://www.w3.org/2000/svg"
   xmlns:sodipodi="http://sodipodi.sourceforge.net/DTD/sodipodi-0.dtd"
   xmlns:inkscape="http://www.inkscape.org/namespaces/inkscape"
   width="16"
   height="16"
   viewBox="0 0 16 16"
   id="svg2"
   version="1.1"
   inkscape:version="0.91 r13725"
   sodipodi:docname="preferences-system-search-symbolic.svg">
  <metadata
     id="metadata12">
    <rdf:RDF>
      <cc:Work
         rdf:about="">
        <dc:format>image/svg+xml</dc:format>
        <dc:type
           rdf:resource="http://purl.org/dc/dcmitype/StillImage" />
        <dc:title></dc:title>
      </cc:Work>
    </rdf:RDF>
  </metadata>
  <defs
     id="defs10" />
  <sodipodi:namedview
     pagecolor="#ffffff"
     bordercolor="#666666"
     borderopacity="1"
     objecttolerance="10"
     gridtolerance="10"
     guidetolerance="10"
     inkscape:pageopacity="0"
     inkscape:pageshadow="2"
     inkscape:window-width="959"
     inkscape:window-height="1001"
     id="namedview8"
     showgrid="true"
     inkscape:zoom="9.8333338"
     inkscape:cx="11.012159"
     inkscape:cy="8.3424857"
     inkscape:window-x="960"
     inkscape:window-y="0"
     inkscape:window-maximized="0"
     inkscape:current-layer="svg2">
    <inkscape:grid
       type="xygrid"
       id="grid3333" />
  </sodipodi:namedview>
  <path
     d="m 11.005718,9.805031 -0.636364,0 -0.220126,-0.220125 C 10.933676,8.676387 11.405946,7.495712 11.405946,6.202973 11.405946,3.329331 9.076615,1 6.202973,1 3.329331,1 1,3.329331 1,6.202973 c 0,2.873642 2.329331,5.202973 5.202973,5.202973 1.292739,0 2.473414,-0.47227 3.381933,-1.252716 l 0.220125,0.220126 0,0.632362 L 13.807318,15 15,13.807318 11.005718,9.805031 Z m -4.802745,0 c -1.989136,0 -3.602058,-1.612921 -3.602058,-3.602058 0,-1.989137 1.612922,-3.602058 3.602058,-3.602058 1.989137,0 3.602058,1.612921 3.602058,3.602058 0,1.989137 -1.612921,3.602058 -3.602058,3.602058 z"
     id="path4"
     inkscape:connector-curvature="0"
     style="fill:#bebebe;fill-opacity:1" />
</svg>
