<?xml version="1.0" encoding="UTF-8" standalone="no"?>
<!-- Created with Inkscape (http://www.inkscape.org/) -->

<svg
   xmlns:dc="http://purl.org/dc/elements/1.1/"
   xmlns:cc="http://creativecommons.org/ns#"
   xmlns:rdf="http://www.w3.org/1999/02/22-rdf-syntax-ns#"
   xmlns:svg="http://www.w3.org/2000/svg"
   xmlns="http://www.w3.org/2000/svg"
   xmlns:xlink="http://www.w3.org/1999/xlink"
   xmlns:sodipodi="http://sodipodi.sourceforge.net/DTD/sodipodi-0.dtd"
   xmlns:inkscape="http://www.inkscape.org/namespaces/inkscape"
   width="48"
   height="48"
   viewBox="0 0 48 48"
   id="svg2"
   version="1.1"
   inkscape:version="0.91 r13725"
   sodipodi:docname="rhythmbox.svg"
   inkscape:export-filename="/home/peter/Documenten/shades12.png"
   inkscape:export-xdpi="360"
   inkscape:export-ydpi="360">
  <defs
     id="defs4">
    <filter
       style="color-interpolation-filters:sRGB"
       inkscape:label="Drop Shadow"
       id="filter4630">
      <feFlood
         flood-opacity="1"
         flood-color="rgb(0,0,0)"
         result="flood"
         id="feFlood4632" />
      <feComposite
         in="flood"
         in2="SourceGraphic"
         operator="in"
         result="composite1"
         id="feComposite4634" />
      <feGaussianBlur
         in="composite1"
         stdDeviation="0.5"
         result="blur"
         id="feGaussianBlur4636" />
      <feOffset
         dx="0"
         dy="0.5"
         result="offset"
         id="feOffset4638" />
      <feComposite
         in="SourceGraphic"
         in2="offset"
         operator="over"
         result="composite2"
         id="feComposite4640" />
    </filter>
    <linearGradient
       inkscape:collect="always"
       id="linearGradient4165">
      <stop
         style="stop-color:#ffffff;stop-opacity:0.15000001"
         offset="0"
         id="stop4167" />
      <stop
         style="stop-color:#177ed5;stop-opacity:0;"
         offset="1"
         id="stop4169" />
    </linearGradient>
    <linearGradient
       inkscape:collect="always"
       xlink:href="#linearGradient4165"
       id="linearGradient4171-1"
       x1="0.86931473"
       y1="1003.271"
       x2="46.86956"
       y2="1049.271"
       gradientUnits="userSpaceOnUse"
       gradientTransform="matrix(0.95651664,0,0,0.9565206,1.168486,46.71285)" />
  </defs>
  <sodipodi:namedview
     id="base"
     pagecolor="#ffffff"
     bordercolor="#666666"
     borderopacity="1.0"
     inkscape:pageopacity="0"
     inkscape:pageshadow="2"
     inkscape:zoom="4.0000002"
     inkscape:cx="-8.6781315"
     inkscape:cy="-15.017025"
     inkscape:document-units="px"
     inkscape:current-layer="layer1"
     showgrid="true"
     units="px"
     inkscape:window-width="1920"
     inkscape:window-height="1011"
     inkscape:window-x="0"
     inkscape:window-y="0"
     inkscape:window-maximized="1"
     inkscape:showpageshadow="false"
     showguides="true">
    <inkscape:grid
       type="xygrid"
       id="grid4140" />
  </sodipodi:namedview>
  <metadata
     id="metadata7">
    <rdf:RDF>
      <cc:Work
         rdf:about="">
        <dc:format>image/svg+xml</dc:format>
        <dc:type
           rdf:resource="http://purl.org/dc/dcmitype/StillImage" />
        <dc:title />
      </cc:Work>
    </rdf:RDF>
  </metadata>
  <g
     inkscape:label="Laag 1"
     inkscape:groupmode="layer"
     id="layer1"
     transform="translate(0,-1004.3622)">
    <path
       style="opacity:1;fill:#59d8de;fill-opacity:1;stroke:none;stroke-width:1.66600001;stroke-linecap:round;stroke-linejoin:round;stroke-miterlimit:4;stroke-dasharray:none;stroke-opacity:1"
       d="M 24 5 A 17.999997 17.999999 0 0 0 6 23 L 6.0351562 23 A 17.999997 17.999999 0 0 0 6 24 L 9 24 L 10 24 A 1 1 0 0 0 11 23 L 11.048828 23 A 13 13 0 0 1 24 11 A 13 13 0 0 1 36.957031 23 L 37 23 A 1 1 0 0 0 38 24 L 39 24 L 42 24 A 17.999997 17.999999 0 0 0 41.949219 23 L 42 23 A 17.999997 17.999999 0 0 0 24 5 z "
       transform="translate(0,1004.3622)"
       id="path4256" />
    <path
       style="opacity:1;fill:#1e9eae;fill-opacity:1;stroke:none;stroke-width:1.66600001;stroke-linecap:round;stroke-linejoin:round;stroke-miterlimit:4;stroke-dasharray:none;stroke-opacity:1"
       d="M 23.999997,1008.3622 A 19.999997,19.999999 0 0 0 4,1028.3622 l 0,9 0,3 c 0,0.554 0.446,1 1,1 0.554,0 1,-0.446 1,-1 l 0,-9 0,-3 a 17.999997,17.999999 0 0 1 17.999997,-18 17.999997,17.999999 0 0 1 17.999999,18 l 0,9 0,3 c 0,0.554 0.446,1 1,1 0.554,0 1,-0.446 1,-1 l 0,-9 0,-3 a 19.999997,19.999999 0 0 0 -19.999999,-20 z"
       id="path4150"
       inkscape:connector-curvature="0" />
    <rect
       ry="1.00002"
       rx="1"
       y="1031.3622"
       x="31"
       height="17"
       width="7"
       id="rect4162"
       style="fill:#59d8de;fill-opacity:1;stroke:none;stroke-width:0.40000001;stroke-miterlimit:4;stroke-dasharray:none;stroke-opacity:0.1" />
    <rect
       ry="1.00002"
       rx="0.99999994"
       y="1032.3623"
       x="31.986"
       height="14.999999"
       width="5.9999995"
       id="rect4194"
       style="opacity:1;fill:#59d8de;fill-opacity:1;stroke:none;stroke-width:1.66600001;stroke-linecap:round;stroke-linejoin:round;stroke-miterlimit:4;stroke-dasharray:none;stroke-opacity:1" />
    <path
       style="opacity:1;fill:#1e9eae;fill-opacity:1;stroke:none;stroke-width:1.66600001;stroke-linecap:round;stroke-linejoin:round;stroke-miterlimit:4;stroke-dasharray:none;stroke-opacity:1"
       d="m 35.999996,1031.3622 c -0.554,0 -1,0.446 -1,1 l 0,15 c 0,0.554 0.446,1 1,1 l 1,0 2,0 1,0 c 1.108,0 2,-3.791 2,-8.5 0,-4.709 -0.892,-8.5 -2,-8.5 l -1,0 -2,0 -1,0 z"
       id="rect4172"
       inkscape:connector-curvature="0" />
    <rect
       style="fill:#59d8de;fill-opacity:1;stroke:none;stroke-width:0.40000001;stroke-miterlimit:4;stroke-dasharray:none;stroke-opacity:0.1"
       id="rect4160"
       width="7"
       height="17"
       x="10"
       y="1031.3622"
       rx="1"
       ry="1.00002" />
    <rect
       style="opacity:1;fill:#59d8de;fill-opacity:1;stroke:none;stroke-width:1.66600001;stroke-linecap:round;stroke-linejoin:round;stroke-miterlimit:4;stroke-dasharray:none;stroke-opacity:1"
       id="rect4192"
       width="5.9999995"
       height="14.999999"
       x="10.014"
       y="1032.3623"
       rx="0.99999994"
       ry="1.00002" />
    <path
       id="path4184"
       d="m 11.999999,1031.3622 c 0.554,0 1,0.446 1,1 l 0,15 c 0,0.554 -0.446,1 -1,1 l -0.999999,0 -2,0 -1,0 c -1.108,0 -2,-3.791 -2,-8.5 0,-4.709 0.892,-8.5 2,-8.5 l 1,0 2,0 0.999999,0 z"
       style="opacity:1;fill:#1e9eae;fill-opacity:1;stroke:none;stroke-width:1.66600001;stroke-linecap:round;stroke-linejoin:round;stroke-miterlimit:4;stroke-dasharray:none;stroke-opacity:1"
       inkscape:connector-curvature="0" />
    <path
       style="opacity:1;fill:#ffffff;fill-opacity:0.2;stroke:none;stroke-width:1.66600001;stroke-linecap:round;stroke-linejoin:round;stroke-miterlimit:4;stroke-dasharray:none;stroke-opacity:1"
       d="M 23.999997,1008.3622 A 19.999997,19.999999 0 0 0 4,1028.3622 l 0.03516,0 a 19.999997,19.999999 0 0 1 19.964842,-19 19.999997,19.999999 0 0 1 19.949215,19 l 0.05079,0 a 19.999997,19.999999 0 0 0 -19.999997,-20 z"
       id="path4240"
       inkscape:connector-curvature="0" />
    <path
       style="opacity:1;fill:#ffffff;fill-opacity:0.2;stroke:none;stroke-width:1.66600001;stroke-linecap:round;stroke-linejoin:round;stroke-miterlimit:4;stroke-dasharray:none;stroke-opacity:1"
       d="m 8,1031.3622 c -1.108,0 -2,3.791 -2,8.5 0,0.172 0.0094,0.3311 0.01186,0.5 0.06171,-4.4694 0.920617,-8 1.988281,-8 l 1,0 2,0 1,0 c 0.554,0 1,0.446 1,1 l 0,-1 c 0,-0.554 -0.446,-1 -1,-1 l -1,0 -2,0 -1,0 z"
       id="path4245"
       inkscape:connector-curvature="0" />
    <path
       id="path4250"
       d="m 8,1048.3622 c -1.108,0 -2,-3.791 -2,-8.5 0,-0.172 0.0094,-0.3311 0.01186,-0.5 0.06171,4.4696 0.920617,8 1.988281,8 l 1,0 1.999999,0 1,0 c 0.554,0 0.999999,-0.446 0.999999,-1 l 0,1 c 0,0.554 -0.445999,1 -0.999999,1 l -1,0 -1.999999,0 -1,0 z"
       style="opacity:1;fill:#000000;fill-opacity:0.2;stroke:none;stroke-width:1.66600001;stroke-linecap:round;stroke-linejoin:round;stroke-miterlimit:4;stroke-dasharray:none;stroke-opacity:1"
       inkscape:connector-curvature="0" />
    <path
       id="path4252"
       d="m 39.999996,1031.3622 c 1.108,0 2,3.791 2,8.5 0,0.172 -0.0094,0.3311 -0.01186,0.5 -0.06171,-4.4694 -0.920616,-8 -1.98828,-8 l -1,0 -2,0 -1,0 c -0.554,0 -1,0.446 -1,1 l 0,-1 c 0,-0.554 0.446,-1 1,-1 l 1,0 2,0 1,0 z"
       style="opacity:1;fill:#ffffff;fill-opacity:0.2;stroke:none;stroke-width:1.66600001;stroke-linecap:round;stroke-linejoin:round;stroke-miterlimit:4;stroke-dasharray:none;stroke-opacity:1"
       inkscape:connector-curvature="0" />
    <path
       inkscape:connector-curvature="0"
       style="opacity:1;fill:#000000;fill-opacity:0.2;stroke:none;stroke-width:1.66600001;stroke-linecap:round;stroke-linejoin:round;stroke-miterlimit:4;stroke-dasharray:none;stroke-opacity:1"
       d="m 39.999996,1048.3622 c 1.108,0 2,-3.791 2,-8.5 0,-0.172 -0.0094,-0.3311 -0.01186,-0.5 -0.06171,4.4696 -0.920616,8 -1.98828,8 l -1,0 -2,0 -1,0 c -0.554,0 -1,-0.446 -1,-1 l 0,1 c 0,0.554 0.446,1 1,1 l 1,0 2,0 1,0 z"
       id="path4254" />
    <path
       inkscape:connector-curvature="0"
       id="path4216"
       d="M 23.999997,1007.3622 A 19.999997,19.999999 0 0 0 4,1027.3622 l 0,9 0,3 c 0,0.554 0.446,1 1,1 0.554,0 1,-0.446 1,-1 l 0,-9 0,-3 a 17.999997,17.999999 0 0 1 17.999997,-18 17.999997,17.999999 0 0 1 17.999999,18 l 0,9 0,3 c 0,0.554 0.446,1 1,1 0.554,0 1,-0.446 1,-1 l 0,-9 0,-3 a 19.999997,19.999999 0 0 0 -19.999999,-20 z"
       style="opacity:1;fill:#1e9eae;fill-opacity:1;stroke:none;stroke-width:1.66600001;stroke-linecap:round;stroke-linejoin:round;stroke-miterlimit:4;stroke-dasharray:none;stroke-opacity:1" />
    <path
       style="fill:url(#linearGradient4171-1);fill-opacity:1;stroke:none;stroke-width:2;stroke-linecap:round;stroke-linejoin:round;stroke-miterlimit:4;stroke-dasharray:none;stroke-opacity:1"
       d="m 24,1007.3622 a 19.999997,19.999999 0 0 0 -20,20 l 0,1 0,8 0,1 0,0.1 a 22,22 0 0 0 1.8925781,3.334 C 5.9567788,1040.6636 6,1040.5195 6,1040.3622 l 0,-0.5 0,-0.5 0,-8 0,-1 0,-2 3,0 1,0 a 1,1 0 0 0 1,-1 l 0.04883,0 a 13,13 0 0 1 12.951172,-12 13,13 0 0 1 12.957031,12 l 0.04297,0 a 1,1 0 0 0 1,1 l 1,0 3,0 a 17.999997,17.999999 0 0 0 -0.05078,-1 l 0.01563,0 a 17.999997,17.999999 0 0 1 0.03516,1 l 0,8 0,1 0,2 0,0.5 0,0.5 c 0,0.1618 0.04753,0.3084 0.115234,0.4434 A 22,22 0 0 0 44,1037.4716 l 0,-6.1094 0,-1 0,-2 0,-1 a 19.999997,19.999999 0 0 0 -20,-20 z m 18,32.5 c 0,-4.709 -0.892,-8.5 -2,-8.5 l -1,0 -2,0 -5,0 c -0.554,0 -1,0.446 -1,1 l 0,15 c 0,0.554 0.446,1 1,1 l 1.078125,0 a 22,22 0 0 0 0.02148,-0.01 l 0.0098,0 a 22,22 0 0 0 8.863281,-7.3281 C 41.985019,1040.6408 42,1040.2606 42,1039.8622 Z m -36,0 c 0,0.3891 0.015547,0.7598 0.027344,1.1348 a 22,22 0 0 0 8.847656,7.3554 l 0.0098,0 a 22,22 0 0 0 0.02539,0.01 l 1.089844,0 c 0.554,0 1,-0.446 1,-1 l 0,-15 c 0,-0.554 -0.446,-1 -1,-1 l -5,0 -1.9999998,0 -1,0 c -1.108,0 -2,3.791 -2,8.5 z"
       id="circle4163-3"
       inkscape:connector-curvature="0" />
    <path
       style="opacity:1;fill:#ffffff;fill-opacity:0.2;stroke:none;stroke-width:1.66600001;stroke-linecap:round;stroke-linejoin:round;stroke-miterlimit:4;stroke-dasharray:none;stroke-opacity:1"
       d="M 24 3 A 19.999997 19.999999 0 0 0 4 23 L 4 24 A 19.999997 19.999999 0 0 1 24 4 A 19.999997 19.999999 0 0 1 44 24 L 44 23 A 19.999997 19.999999 0 0 0 24 3 z "
       transform="translate(0,1004.3622)"
       id="path4179" />
  </g>
</svg>
