<?xml version="1.0" encoding="UTF-8" standalone="no"?>
<!-- Created with Inkscape (http://www.inkscape.org/) -->

<svg
   xmlns:dc="http://purl.org/dc/elements/1.1/"
   xmlns:cc="http://creativecommons.org/ns#"
   xmlns:rdf="http://www.w3.org/1999/02/22-rdf-syntax-ns#"
   xmlns:svg="http://www.w3.org/2000/svg"
   xmlns="http://www.w3.org/2000/svg"
   xmlns:xlink="http://www.w3.org/1999/xlink"
   xmlns:sodipodi="http://sodipodi.sourceforge.net/DTD/sodipodi-0.dtd"
   xmlns:inkscape="http://www.inkscape.org/namespaces/inkscape"
   width="48"
   height="48"
   id="svg2"
   version="1.1"
   inkscape:version="0.91 r13725"
   sodipodi:docname="thunderbird.svg"
   inkscape:export-filename="/home/afel/Pictures/evos-mockups/personal-app-icons/thunderbird.png"
   inkscape:export-xdpi="360"
   inkscape:export-ydpi="360">
  <defs
     id="defs4">
    <linearGradient
       inkscape:collect="always"
       id="linearGradient4221">
      <stop
         style="stop-color:#ffffff;stop-opacity:0.14901961"
         offset="0"
         id="stop4223" />
      <stop
         style="stop-color:#177ed5;stop-opacity:0"
         offset="1"
         id="stop4225" />
    </linearGradient>
    <inkscape:perspective
       sodipodi:type="inkscape:persp3d"
       inkscape:vp_x="0 : 12 : 1"
       inkscape:vp_y="0 : 1000 : 0"
       inkscape:vp_z="24 : 12 : 1"
       inkscape:persp3d-origin="12 : 8 : 1"
       id="perspective3810" />
    <linearGradient
       inkscape:collect="always"
       xlink:href="#linearGradient4221"
       id="linearGradient4227"
       x1="-49.5"
       y1="964.23718"
       x2="-5.5"
       y2="1008.2372"
       gradientUnits="userSpaceOnUse"
       gradientTransform="translate(51.499999,42.125042)" />
  </defs>
  <sodipodi:namedview
     id="base"
     pagecolor="#ffffff"
     bordercolor="#666666"
     borderopacity="1.0"
     inkscape:pageopacity="0.0"
     inkscape:pageshadow="2"
     inkscape:zoom="3.9999998"
     inkscape:cx="-51.406883"
     inkscape:cy="-3.6729325"
     inkscape:document-units="px"
     inkscape:current-layer="layer1"
     showgrid="true"
     inkscape:snap-grids="false"
     inkscape:object-paths="true"
     inkscape:snap-intersection-paths="true"
     inkscape:snap-smooth-nodes="true"
     inkscape:object-nodes="true"
     inkscape:snap-midpoints="true"
     inkscape:window-width="1680"
     inkscape:window-height="998"
     inkscape:window-x="0"
     inkscape:window-y="25"
     inkscape:window-maximized="1"
     inkscape:showpageshadow="false"
     borderlayer="true"
     inkscape:snap-bbox="true"
     inkscape:snap-nodes="true"
     inkscape:bbox-paths="true"
     inkscape:bbox-nodes="true"
     inkscape:snap-bbox-edge-midpoints="false"
     inkscape:snap-bbox-midpoints="false"
     inkscape:snap-global="true">
    <inkscape:grid
       type="xygrid"
       id="grid3808"
       empspacing="4"
       visible="true"
       enabled="true"
       snapvisiblegridlinesonly="true" />
  </sodipodi:namedview>
  <metadata
     id="metadata7">
    <rdf:RDF>
      <cc:Work
         rdf:about="">
        <dc:format>image/svg+xml</dc:format>
        <dc:type
           rdf:resource="http://purl.org/dc/dcmitype/StillImage" />
        <dc:title />
      </cc:Work>
    </rdf:RDF>
  </metadata>
  <g
     inkscape:label="Layer 1"
     inkscape:groupmode="layer"
     id="layer1"
     transform="translate(0,-1004.3622)">
    <g
       id="g4185">
      <path
         sodipodi:nodetypes="cccccsssc"
         inkscape:connector-curvature="0"
         id="path4135"
         d="m 46,1028.3622 c 0,12.1503 -9.849736,22 -22,22 9.497097,-2.5447 16,-14 17,-19 -2.940692,2.2055 -18.592562,8.4776 -26.080139,8.4776 -2.106465,0 -3.645464,0.4223 1.071964,8.5931 C 13.33138,1047.72 9.9384951,1045.2996 9.3699864,1044.793 4.847888,1040.7637 2,1034.8955 2,1028.3622 c 0,-12.1503 9.849736,-22 22,-22 12.150264,0 22,9.8497 22,22"
         style="opacity:1;fill:#1565c0;fill-opacity:1;stroke:none;stroke-width:0.1;stroke-linecap:round;stroke-linejoin:round;stroke-miterlimit:4;stroke-dasharray:none;stroke-opacity:1" />
      <rect
         transform="matrix(0.99236954,0.12329925,-0.12329925,0.99236954,0,0)"
         ry="3"
         rx="3"
         y="1010.665"
         x="133.67249"
         height="22.676397"
         width="34.014595"
         id="rect4137"
         style="opacity:1;fill:#cccccc;fill-opacity:1;stroke:none;stroke-width:0.1;stroke-linecap:round;stroke-linejoin:round;stroke-miterlimit:4;stroke-dasharray:none;stroke-opacity:1" />
      <path
         sodipodi:nodetypes="czzzczzzc"
         inkscape:connector-curvature="0"
         id="path4139"
         d="m 41.93943,1022.4418 c -5.521388,2.8959 -11.264161,6.4649 -14.47135,8.0943 -3.207189,1.6294 -4.926305,2.5427 -6.415483,2.5427 -1.489178,0 -2.424687,-0.7731 -3.798645,-2.1471 -1.373959,-1.374 -7.128744,-6.6306 -9.5923248,-8.4655 2.7499488,3.1184 8.3865928,9.3284 9.5873048,10.6676 1.200711,1.3392 2.196468,1.7298 3.811324,1.7298 1.614855,0 3.449838,-0.8374 7.023404,-2.8518 3.573566,-2.0144 10.102162,-6.1597 13.85577,-9.57 z"
         style="color:#000000;font-style:normal;font-variant:normal;font-weight:normal;font-stretch:normal;font-size:medium;line-height:normal;font-family:sans-serif;text-indent:0;text-align:start;text-decoration:none;text-decoration-line:none;text-decoration-style:solid;text-decoration-color:#000000;letter-spacing:normal;word-spacing:normal;text-transform:none;direction:ltr;block-progression:tb;writing-mode:lr-tb;baseline-shift:baseline;text-anchor:start;white-space:normal;clip-rule:nonzero;display:inline;overflow:visible;visibility:visible;opacity:1;isolation:auto;mix-blend-mode:normal;color-interpolation:sRGB;color-interpolation-filters:linearRGB;solid-color:#000000;solid-opacity:1;fill:#666666;fill-opacity:1;fill-rule:evenodd;stroke:none;stroke-width:2;stroke-linecap:butt;stroke-linejoin:miter;stroke-miterlimit:4;stroke-dasharray:none;stroke-dashoffset:0;stroke-opacity:1;color-rendering:auto;image-rendering:auto;shape-rendering:auto;text-rendering:auto;enable-background:accumulate" />
      <path
         sodipodi:nodetypes="czcc"
         inkscape:connector-curvature="0"
         id="path4153"
         d="m 24,1021.3622 c 0,0 8.541173,0.8758 9.909606,5.9829 1.368434,5.107 -2.86593,11.1581 -2.86593,11.1581 10.370049,-5.9872 8.776348,-16.4993 7.956324,-20.141"
         style="fill:#1565c0;fill-opacity:1;fill-rule:evenodd;stroke:none;stroke-width:1px;stroke-linecap:butt;stroke-linejoin:miter;stroke-opacity:1" />
      <path
         sodipodi:nodetypes="czccc"
         inkscape:connector-curvature="0"
         id="path4155"
         d="m 35.0625,1018.0497 c 0,0 1.114277,6.5932 1.114277,10.3792 0,3.7861 0.506209,10.3753 -4.176777,15.0583 11.222584,-3.007 11,-11.1097 11,-23.125 z"
         style="fill:#1565c0;fill-opacity:1;fill-rule:evenodd;stroke:none;stroke-width:1px;stroke-linecap:butt;stroke-linejoin:miter;stroke-opacity:1" />
      <path
         sodipodi:nodetypes="cczccc"
         inkscape:connector-curvature="0"
         id="path4229"
         d="m 8.0148012,1041.3646 29.7577838,2.8705 c 0,0 -0.64357,0.5163 -0.980712,0.7654 -0.337143,0.2491 -1.041865,0.7282 -1.041865,0.7282 l -27.0387658,-3.3595 z"
         style="fill:#000000;fill-opacity:0.1;fill-rule:evenodd;stroke:none;stroke-width:1px;stroke-linecap:butt;stroke-linejoin:miter;stroke-opacity:1" />
      <path
         sodipodi:nodetypes="czcczc"
         inkscape:connector-curvature="0"
         id="path4166"
         d="m 12.06066,1042.3622 c 0,0 -9.06066,-7 -9.06066,-16 0,-9 3,-8 3,-8 l 6,2 c 0,0 -4,-2.0807 -4,7 0,9.0807 4.06066,15 4.06066,15 z"
         style="fill:#1565c0;fill-opacity:1;fill-rule:evenodd;stroke:none;stroke-width:1px;stroke-linecap:butt;stroke-linejoin:miter;stroke-opacity:1" />
      <path
         sodipodi:nodetypes="czcczc"
         inkscape:connector-curvature="0"
         id="path4170"
         d="m 17.010165,1049.2222 c -2.776619,-0.7439 -8.890086,-4.3636 -11.8899716,-9.5596 C 2.1203078,1034.4666 3,1026.3622 3,1026.3622 l 5.0000107,-1.0163 c 0,0 -2.152415,6.6437 -1.1605024,12.1581 0.9919126,5.5145 2.0240477,5.1028 10.1706567,11.7182 z"
         style="fill:#1565c0;fill-opacity:1;fill-rule:evenodd;stroke:none;stroke-width:1px;stroke-linecap:butt;stroke-linejoin:miter;stroke-opacity:1" />
      <ellipse
         transform="matrix(0.8660254,-0.5,0.5,0.8660254,0,0)"
         ry="4.4564734"
         rx="5.2611146"
         cy="892.59424"
         cx="-491.36453"
         id="path4174"
         style="opacity:1;fill:#1565c0;fill-opacity:1;stroke:none;stroke-width:1;stroke-linecap:round;stroke-linejoin:round;stroke-miterlimit:4;stroke-dasharray:none;stroke-opacity:1" />
      <path
         sodipodi:nodetypes="cccc"
         inkscape:connector-curvature="0"
         id="path4176"
         d="m 16,1020.3622 c 0.535898,2 0,6 1.211639,7.848 C 20,1025.4218 23,1022.3622 26,1020.3622 Z"
         style="fill:#1565c0;fill-opacity:1;fill-rule:evenodd;stroke:none;stroke-width:1px;stroke-linecap:butt;stroke-linejoin:miter;stroke-opacity:1" />
      <path
         sodipodi:nodetypes="czccc"
         inkscape:connector-curvature="0"
         id="path4178"
         d="m 8,1031.3622 c 0,0 -0.3,-5 3,-8 3.3,-3 7,-3.0313 7,-3.0313 l -11.46875,-4.5625 z"
         style="fill:#1565c0;fill-opacity:1;fill-rule:evenodd;stroke:none;stroke-width:1px;stroke-linecap:butt;stroke-linejoin:miter;stroke-opacity:1" />
      <circle
         r="0.5"
         cy="1019.8622"
         cx="19.497318"
         id="path4180"
         style="opacity:1;fill:#e6e6e6;fill-opacity:1;stroke:none;stroke-width:1;stroke-linecap:round;stroke-linejoin:round;stroke-miterlimit:4;stroke-dasharray:none;stroke-opacity:1" />
      <path
         sodipodi:nodetypes="cscsc"
         inkscape:connector-curvature="0"
         id="path4188-9"
         d="m 46,1028.3622 c 0,-10 -9.849736,-21 -22,-21 -12.150264,0 -22,11 -22,21 0,-12.1503 9.849736,-22 22,-22 12.150264,0 22,9.8497 22,22 z"
         style="opacity:1;fill:#ffffff;fill-opacity:0.2;stroke:none;stroke-width:1;stroke-linecap:round;stroke-linejoin:round;stroke-miterlimit:4;stroke-dasharray:none;stroke-opacity:1" />
      <path
         sodipodi:nodetypes="ccczcccccc"
         inkscape:connector-curvature="0"
         id="path4188-9-2"
         d="m 24,1050.3622 c 12.150264,0 22,-9.8497 22,-22 0,9.0868 -8.132835,18.9992 -18.73445,20.7339 0,0 -0.990669,0.4817 -1.535244,0.6941 C 25.185731,1050.0026 24,1050.3622 24,1050.3622 Z m -8.523963,-2.8573 C 7.5589272,1043.9515 2,1035.8747 2,1028.3622 c 0,9.7116 6.2926265,17.9534 15.022985,20.8707 l -1.049247,-0.8457 z"
         style="opacity:1;fill:#000000;fill-opacity:0.2;stroke:none;stroke-width:1;stroke-linecap:round;stroke-linejoin:round;stroke-miterlimit:4;stroke-dasharray:none;stroke-opacity:1" />
      <circle
         r="22"
         cy="1028.3622"
         cx="24"
         id="path4188"
         style="opacity:1;fill:url(#linearGradient4227);fill-opacity:1;stroke:none;stroke-width:1;stroke-linecap:round;stroke-linejoin:round;stroke-miterlimit:4;stroke-dasharray:none;stroke-opacity:1" />
    </g>
  </g>
</svg>
