<?xml version="1.0" encoding="UTF-8" standalone="no"?>
<!-- Created with Inkscape (http://www.inkscape.org/) -->

<svg
   xmlns:dc="http://purl.org/dc/elements/1.1/"
   xmlns:cc="http://creativecommons.org/ns#"
   xmlns:rdf="http://www.w3.org/1999/02/22-rdf-syntax-ns#"
   xmlns:svg="http://www.w3.org/2000/svg"
   xmlns="http://www.w3.org/2000/svg"
   xmlns:xlink="http://www.w3.org/1999/xlink"
   xmlns:sodipodi="http://sodipodi.sourceforge.net/DTD/sodipodi-0.dtd"
   xmlns:inkscape="http://www.inkscape.org/namespaces/inkscape"
   width="816"
   height="544"
   viewBox="0 0 816 544"
   version="1.1"
   id="svg1087"
   inkscape:version="0.92.1 r"
   sodipodi:docname="application-pdf.svg">
  <defs
     id="defs1081">
    <filter
       inkscape:collect="always"
       style="color-interpolation-filters:sRGB"
       id="filter5087"
       x="-0.048"
       width="1.096"
       y="-0.048"
       height="1.096">
      <feGaussianBlur
         inkscape:collect="always"
         stdDeviation="0.8"
         id="feGaussianBlur5089" />
    </filter>
    <linearGradient
       inkscape:collect="always"
       xlink:href="#linearGradient5320"
       id="linearGradient4256"
       gradientUnits="userSpaceOnUse"
       gradientTransform="matrix(16.5,0,0,15.977305,17.5,-16102.955)"
       x1="35.18182"
       y1="1017.3778"
       x2="41"
       y2="1023.3864" />
    <linearGradient
       id="linearGradient5320"
       inkscape:collect="always">
      <stop
         id="stop5322"
         offset="0"
         style="stop-color:#000000;stop-opacity:0.15000001" />
      <stop
         id="stop5324"
         offset="1"
         style="stop-color:#000000;stop-opacity:0;" />
    </linearGradient>
    <linearGradient
       inkscape:collect="always"
       xlink:href="#linearGradient5320"
       id="linearGradient4669"
       x1="173"
       y1="500.5"
       x2="184"
       y2="500.5"
       gradientUnits="userSpaceOnUse" />
    <linearGradient
       inkscape:collect="always"
       xlink:href="#linearGradient5320"
       id="linearGradient4553"
       x1="116.64645"
       y1="509.35355"
       x2="123.5"
       y2="509.35355"
       gradientUnits="userSpaceOnUse" />
    <linearGradient
       inkscape:collect="always"
       xlink:href="#linearGradient5320"
       id="linearGradient4584"
       x1="67.646446"
       y1="514.35358"
       x2="72.5"
       y2="514.35358"
       gradientUnits="userSpaceOnUse" />
    <linearGradient
       inkscape:collect="always"
       xlink:href="#linearGradient5320"
       id="linearGradient4539"
       gradientUnits="userSpaceOnUse"
       gradientTransform="matrix(2.0625,0,0,1.9971631,174.1875,-1550.8694)"
       x1="35.18182"
       y1="1017.3778"
       x2="41"
       y2="1023.3864" />
    <filter
       inkscape:collect="always"
       style="color-interpolation-filters:sRGB"
       id="filter4540"
       x="-0.0135"
       width="1.027"
       y="-0.0108"
       height="1.0216">
      <feGaussianBlur
         inkscape:collect="always"
         stdDeviation="0.18"
         id="feGaussianBlur4542" />
    </filter>
    <filter
       inkscape:collect="always"
       style="color-interpolation-filters:sRGB"
       id="filter4546"
       x="-0.013636364"
       width="1.0272727"
       y="-0.010714286"
       height="1.0214286">
      <feGaussianBlur
         inkscape:collect="always"
         stdDeviation="0.25"
         id="feGaussianBlur4548" />
    </filter>
    <filter
       inkscape:collect="always"
       style="color-interpolation-filters:sRGB"
       id="filter4564"
       x="-0.027272727"
       width="1.0545455"
       y="-0.021428571"
       height="1.0428571">
      <feGaussianBlur
         inkscape:collect="always"
         stdDeviation="4"
         id="feGaussianBlur4566" />
    </filter>
    <linearGradient
       inkscape:collect="always"
       xlink:href="#linearGradient5320"
       id="linearGradient4572"
       gradientUnits="userSpaceOnUse"
       x1="67.646446"
       y1="514.35358"
       x2="72.5"
       y2="514.35358"
       gradientTransform="translate(-40,6)" />
  </defs>
  <sodipodi:namedview
     id="base"
     pagecolor="#c3c3c3"
     bordercolor="#333333"
     borderopacity="1"
     inkscape:pageopacity="0"
     inkscape:pageshadow="2"
     inkscape:zoom="0.7"
     inkscape:cx="370.43156"
     inkscape:cy="102.9594"
     inkscape:document-units="px"
     inkscape:current-layer="layer1"
     showgrid="true"
     units="px"
     inkscape:showpageshadow="false"
     inkscape:window-width="1280"
     inkscape:window-height="1370"
     inkscape:window-x="1280"
     inkscape:window-y="34"
     inkscape:window-maximized="0">
    <inkscape:grid
       type="xygrid"
       id="grid4630" />
  </sodipodi:namedview>
  <metadata
     id="metadata1084">
    <rdf:RDF>
      <cc:Work
         rdf:about="">
        <dc:format>image/svg+xml</dc:format>
        <dc:type
           rdf:resource="http://purl.org/dc/dcmitype/StillImage" />
        <dc:title></dc:title>
        <cc:license
           rdf:resource="http://creativecommons.org/licenses/by-sa/4.0/" />
        <dc:creator>
          <cc:Agent>
            <dc:title>Peter Cornelis</dc:title>
          </cc:Agent>
        </dc:creator>
      </cc:Work>
      <cc:License
         rdf:about="http://creativecommons.org/licenses/by-sa/4.0/">
        <cc:permits
           rdf:resource="http://creativecommons.org/ns#Reproduction" />
        <cc:permits
           rdf:resource="http://creativecommons.org/ns#Distribution" />
        <cc:requires
           rdf:resource="http://creativecommons.org/ns#Notice" />
        <cc:requires
           rdf:resource="http://creativecommons.org/ns#Attribution" />
        <cc:permits
           rdf:resource="http://creativecommons.org/ns#DerivativeWorks" />
        <cc:requires
           rdf:resource="http://creativecommons.org/ns#ShareAlike" />
      </cc:License>
    </rdf:RDF>
  </metadata>
  <g
     inkscape:label="Baseplate"
     inkscape:groupmode="layer"
     id="layer1"
     transform="translate(0,-153.06668)"
     style="display:none">
    <rect
       style="display:inline;overflow:visible;visibility:visible;fill:#fefefe;fill-opacity:1;fill-rule:nonzero;stroke:none;stroke-width:2;marker:none;enable-background:accumulate"
       id="rect3951"
       width="512"
       height="512"
       x="-800"
       y="169.06668"
       inkscape:label="48x48"
       transform="scale(-1,1)" />
    <text
       y="733.32251"
       xml:space="preserve"
       x="15.006836"
       style="font-style:normal;font-variant:normal;font-weight:normal;font-stretch:normal;line-height:0%;font-family:'DejaVu Sans';-inkscape-font-specification:'DejaVu Sans';display:inline;fill:#000000;fill-opacity:1;stroke:none;enable-background:new"
       inkscape:label="context"
       id="context"><tspan
         style="font-style:normal;font-variant:normal;font-weight:normal;font-stretch:normal;font-size:18px;line-height:1.25;font-family:'DejaVu Sans';-inkscape-font-specification:'DejaVu Sans'"
         y="733.32251"
         x="15.006836"
         sodipodi:role="line"
         id="tspan3933">mimetypes</tspan></text>
    <text
       y="733.32251"
       xml:space="preserve"
       x="142.48828"
       style="font-style:normal;font-variant:normal;font-weight:bold;font-stretch:normal;line-height:0%;font-family:'DejaVu Sans';-inkscape-font-specification:'DejaVu Sans Bold';text-align:start;writing-mode:lr-tb;text-anchor:start;display:inline;fill:#000000;fill-opacity:1;stroke:none;enable-background:new"
       inkscape:label="icon-name"
       id="icon-name"><tspan
         style="font-style:normal;font-variant:normal;font-weight:bold;font-stretch:normal;font-size:18px;line-height:1.25;font-family:'DejaVu Sans';-inkscape-font-specification:'DejaVu Sans Bold'"
         y="733.32251"
         x="142.48828"
         sodipodi:role="line"
         id="tspan3937">application-pdf</tspan></text>
    <rect
       style="display:inline;overflow:visible;visibility:visible;fill:#fefefe;fill-opacity:1;fill-rule:nonzero;stroke:none;stroke-width:2;marker:none;enable-background:accumulate"
       id="rect16x16"
       width="16"
       height="16"
       x="-32"
       y="665.06665"
       inkscape:label="16x16"
       transform="scale(-1,1)" />
    <rect
       style="display:inline;overflow:visible;visibility:visible;fill:#fefefe;fill-opacity:1;fill-rule:nonzero;stroke:none;stroke-width:2;marker:none;enable-background:accumulate"
       id="rect24x24"
       width="24"
       height="24"
       x="-76"
       y="657.06665"
       inkscape:label="24x24"
       transform="scale(-1,1)" />
    <rect
       style="display:inline;overflow:visible;visibility:visible;fill:#fefefe;fill-opacity:1;fill-rule:nonzero;stroke:none;stroke-width:2;marker:none;enable-background:accumulate"
       id="rect32x32"
       width="32"
       height="32"
       x="-128"
       y="649.06665"
       inkscape:label="32x32"
       transform="scale(-1,1)" />
    <rect
       inkscape:label="48x48"
       y="633.06665"
       x="-192"
       height="48"
       width="48"
       id="rect48x48"
       style="display:inline;overflow:visible;visibility:visible;fill:#fefefe;fill-opacity:1;fill-rule:nonzero;stroke:none;stroke-width:2;marker:none;enable-background:accumulate"
       transform="scale(-1,1)" />
    <rect
       transform="scale(-1,1)"
       inkscape:label="48x48"
       y="617.06665"
       x="-272"
       height="64"
       width="64"
       id="rect4527"
       style="display:inline;overflow:visible;visibility:visible;fill:#fefefe;fill-opacity:1;fill-rule:nonzero;stroke:none;stroke-width:0.25;marker:none;enable-background:accumulate" />
  </g>
  <g
     inkscape:groupmode="layer"
     id="layer2"
     inkscape:label="Bitmap"
     style="display:inline">
    <path
       inkscape:connector-curvature="0"
       id="path4538"
       d="m 155,485 c -1.662,0 -3,1.338 -3,3 v 34 c 0,1.662 1.338,3 3,3 h 26 c 1.662,0 3,-1.338 3,-3 v -25 l -12,-12 z"
       style="opacity:1;fill:#000000;fill-opacity:0.2;stroke:none;filter:url(#filter4540)" />
    <path
       sodipodi:nodetypes="sscsscsscsscs"
       inkscape:connector-curvature="0"
       id="path5069"
       d="m 143,485 c -1.66505,0 -3,1.2912 -3,3 v 17 17 c 0,1.8617 1.34224,3 3,3 h 17 17 c 1.73784,0 3,-1.2767 3,-3 v -17 -17 c 0,-1.6942 -1.29127,-3 -3,-3 h -17 z"
       style="display:inline;fill:none;fill-opacity:0.5;stroke:none;stroke-width:2;stroke-linecap:round;stroke-linejoin:round;stroke-miterlimit:4;stroke-dasharray:none;stroke-opacity:1;filter:url(#filter5087);enable-background:new" />
    <path
       style="opacity:1;fill:#bf1d37;fill-opacity:1;stroke:none"
       d="m 155,484 c -1.662,0 -3,1.338 -3,3 v 34 c 0,1.662 1.338,3 3,3 h 26 c 1.662,0 3,-1.338 3,-3 v -25 l -12,-12 z"
       id="rect4648"
       inkscape:connector-curvature="0" />
    <path
       style="opacity:1;fill:#ffffff;fill-opacity:0.2;stroke:none"
       d="m 155,484 c -1.662,0 -3,1.338 -3,3 v 1 c 0,-1.662 1.338,-3 3,-3 h 18 l -1,-1 z"
       id="path4671"
       inkscape:connector-curvature="0" />
    <path
       style="display:inline;fill:none;fill-opacity:0.5;stroke:none;stroke-width:2;stroke-linecap:round;stroke-linejoin:round;stroke-miterlimit:4;stroke-dasharray:none;stroke-opacity:1;filter:url(#filter5087);enable-background:new"
       d="m 143,485 c -1.66505,0 -3,1.2912 -3,3 v 17 17 c 0,1.8617 1.34224,3 3,3 h 17 17 c 1.73784,0 3,-1.2767 3,-3 v -17 -17 c 0,-1.6942 -1.29127,-3 -3,-3 h -17 z"
       id="path4506"
       inkscape:connector-curvature="0"
       sodipodi:nodetypes="sscsscsscsscs" />
    <path
       inkscape:connector-curvature="0"
       id="path4533"
       d="m 58,507 c -1.108,0 -2,0.892 -2,2 v 16 c 0,1.108 0.892,2 2,2 h 12 c 1.108,0 2,-0.892 2,-2 v -12 l -6,-6 z"
       style="opacity:1;fill:#000000;fill-opacity:0.2;stroke:none" />
    <path
       style="opacity:1;fill:#bf1d37;fill-opacity:1;stroke:none"
       d="m 58,506 c -1.108,0 -2,0.892 -2,2 v 16 c 0,1.108 0.892,2 2,2 h 12 c 1.108,0 2,-0.892 2,-2 v -12 l -6,-6 z"
       id="rect4555"
       inkscape:connector-curvature="0" />
    <path
       style="opacity:1;fill:#ffffff;fill-opacity:0.2;stroke:none"
       d="m 58,506 c -1.108,0 -2,0.892 -2,2 v 1 c 0,-1.108 0.892,-2 2,-2 h 9 l -1,-1 z"
       id="path4566"
       inkscape:connector-curvature="0" />
    <path
       style="opacity:1;fill:#e34962;fill-opacity:1;stroke:none"
       d="m 72,512 -6,-6 v 4 c 0,1.108 0.892,2 2,2 z"
       id="rect4560"
       inkscape:connector-curvature="0" />
    <path
       inkscape:connector-curvature="0"
       style="display:inline;fill:#000000;fill-opacity:0.2;stroke:none;enable-background:new;filter:url(#filter4564)"
       d="m 392,50 c -13.296,0 -24,10.704 -24,24 v 400 c 0,13.296 10.704,24 24,24 h 304 c 13.296,0 24,-10.704 24,-24 V 194 L 576,50 Z"
       id="path4558" />
    <path
       id="path4556"
       d="m 392,50 c -13.296,0 -24,10.704 -24,24 v 400 c 0,13.296 10.704,24 24,24 h 304 c 13.296,0 24,-10.704 24,-24 V 194 L 576,50 Z"
       style="display:inline;fill:#000000;fill-opacity:0.2;stroke:none;enable-background:new"
       inkscape:connector-curvature="0" />
    <path
       style="display:inline;fill:#bf1d37;fill-opacity:1;stroke:none;enable-background:new"
       d="M 392 48 C 378.704 48 368 58.704 368 72 L 368 472 C 368 485.296 378.704 496 392 496 L 696 496 C 709.296 496 720 485.296 720 472 L 720 192 L 576 48 L 392 48 z "
       id="rect3362" />
    <path
       style="display:inline;fill:url(#linearGradient4256);fill-opacity:1;fill-rule:evenodd;stroke:none;stroke-width:8px;stroke-linecap:butt;stroke-linejoin:miter;stroke-opacity:1;enable-background:new"
       d="m 582,184 80,80 58,60 v -60 -72 l -8,-8 h -50 z"
       id="path4254"
       inkscape:connector-curvature="0" />
    <path
       style="display:inline;fill:#bf1d37;fill-opacity:1;fill-rule:evenodd;stroke:none;stroke-width:4.86648273px;stroke-linecap:butt;stroke-linejoin:miter;stroke-opacity:1;enable-background:new"
       d="M 18 512 C 16.892 512 16 512.89199 16 514 L 16 526 C 16 527.10801 16.892 528 18 528 L 30 528 C 31.108 528 32 527.10801 32 526 L 32 518 L 26 512 L 18 512 z "
       id="rect4630-7-2" />
    <path
       style="display:inline;fill:#ffffff;fill-opacity:0.2;stroke:none;enable-background:new"
       d="m 392,48 c -13.296,0 -24,10.704 -24,24 v 2 c 0,-13.296 10.704,-24 24,-24 h 184 l 12,132 132,12 v -2 L 588,180 576,48 Z"
       id="path4572"
       inkscape:connector-curvature="0" />
    <path
       style="display:inline;opacity:1;fill:#e34962;fill-opacity:1;stroke:none;enable-background:new"
       d="m 576,48 v 120 c 0,13.2548 10.7452,24 24,24 h 120 z"
       id="path4060"
       inkscape:connector-curvature="0" />
    <path
       style="fill:url(#linearGradient4669);fill-opacity:1;stroke:none;stroke-width:1px;stroke-linecap:butt;stroke-linejoin:miter;stroke-opacity:1"
       d="m 173,495 11,11 v -10 l -11,-1"
       id="path4661"
       inkscape:connector-curvature="0" />
    <path
       inkscape:connector-curvature="0"
       id="path4658"
       d="m 184,496 -12,-12 v 9 c 0,1.662 1.338,3 3,3 z"
       style="fill:#e34962;fill-opacity:1;stroke:none;stroke-width:1px;stroke-linecap:butt;stroke-linejoin:miter;stroke-opacity:1" />
    <path
       inkscape:connector-curvature="0"
       id="path4536"
       d="m 103,499 c -1.108,0 -2,0.892 -2,2 v 24 c 0,1.108 0.892,2 2,2 h 18 c 1.108,0 2,-0.892 2,-2 v -18 l -8,-8 z"
       style="opacity:1;fill:#000000;fill-opacity:0.2;stroke:none" />
    <path
       style="opacity:1;fill:#bf1d37;fill-opacity:1;stroke:none"
       d="m 103,498 c -1.108,0 -2,0.892 -2,2 v 24 c 0,1.108 0.892,2 2,2 h 18 c 1.108,0 2,-0.892 2,-2 v -18 l -8,-8 z"
       id="rect4526"
       inkscape:connector-curvature="0" />
    <path
       style="opacity:1;fill:#ffffff;fill-opacity:0.2;stroke:none"
       d="m 103,498 c -1.108,0 -2,0.892 -2,2 v 1 c 0,-1.108 0.892,-2 2,-2 h 13 l -1,-1 z"
       id="rect4529"
       inkscape:connector-curvature="0" />
    <path
       id="path4524"
       d="m 123,506 -8,-8 v 6 c 0,1.108 0.892,2 2,2 z"
       style="opacity:1;fill:#e34962;fill-opacity:1;stroke:none"
       inkscape:connector-curvature="0" />
    <path
       style="fill:url(#linearGradient4553);fill-opacity:1;stroke:none;stroke-width:1px;stroke-linecap:butt;stroke-linejoin:miter;stroke-opacity:1"
       d="m 117,506 6,6 v -6 h -6"
       id="path4545"
       inkscape:connector-curvature="0" />
    <path
       style="fill:url(#linearGradient4584);fill-opacity:1;stroke:none;stroke-width:1px;stroke-linecap:butt;stroke-linejoin:miter;stroke-opacity:1"
       d="m 68,512 4,4 v -4 h -4"
       id="path4576"
       inkscape:connector-curvature="0" />
    <path
       inkscape:connector-curvature="0"
       id="path4544"
       d="m 221,469 c -1.662,0 -3,1.338 -3,3 v 50 c 0,1.662 1.338,3 3,3 h 38 c 1.662,0 3,-1.338 3,-3 v -35 l -18,-18 z m 38.60547,0.0605 c 0.39058,0.0799 0.75306,0.23552 1.07226,0.45117 -0.31876,-0.21473 -0.68155,-0.37163 -1.07226,-0.45117 z m 1.07422,0.45117 c 0.31825,0.21524 0.59335,0.49034 0.80859,0.80859 -0.21523,-0.3191 -0.48949,-0.59336 -0.80859,-0.80859 z m 0.80859,0.81055 c 0.21565,0.3192 0.37125,0.68168 0.45117,1.07226 -0.0795,-0.39071 -0.23644,-0.7535 -0.45117,-1.07226 z"
       style="opacity:1;fill:#000000;fill-opacity:0.2;stroke:none;stroke-opacity:1;filter:url(#filter4546)" />
    <path
       style="opacity:1;fill:#bf1d37;fill-opacity:1;stroke:none;stroke-opacity:1"
       d="m 221,468 c -1.662,0 -3,1.338 -3,3 v 50 c 0,1.662 1.338,3 3,3 h 38 c 1.662,0 3,-1.338 3,-3 v -35 l -18,-18 z m 38.60547,0.0605 c 0.39058,0.0799 0.75306,0.23552 1.07226,0.45117 -0.31876,-0.21473 -0.68155,-0.37163 -1.07226,-0.45117 z m 1.07422,0.45117 c 0.31825,0.21524 0.59335,0.49034 0.80859,0.80859 -0.21523,-0.3191 -0.48949,-0.59336 -0.80859,-0.80859 z m 0.80859,0.81055 c 0.21565,0.3192 0.37125,0.68168 0.45117,1.07226 -0.0795,-0.39071 -0.23644,-0.7535 -0.45117,-1.07226 z"
       id="rect4543"
       inkscape:connector-curvature="0" />
    <path
       id="path4531"
       d="m 244.75,485.00003 10,10 7.25,7.5 v -7.5 -9 l -1,-1 h -6.25 z"
       style="display:inline;fill:url(#linearGradient4539);fill-opacity:1;fill-rule:evenodd;stroke:none;stroke-width:1px;stroke-linecap:butt;stroke-linejoin:miter;stroke-opacity:1;enable-background:new"
       inkscape:connector-curvature="0" />
    <path
       style="opacity:1;fill:#ffffff;fill-opacity:0.2;stroke:none;stroke-opacity:1"
       d="m 221,468 c -1.662,0 -3,1.338 -3,3 v 1 c 0,-1.662 1.338,-3 3,-3 h 24 l -1,-1 z"
       id="path4550"
       inkscape:connector-curvature="0"
       sodipodi:nodetypes="sscsccs" />
    <path
       inkscape:connector-curvature="0"
       id="path4537"
       d="m 244,468.00003 v 15 c 0,1.65685 1.34315,3 3,3 h 15 z"
       style="display:inline;opacity:1;fill:#e34962;fill-opacity:1;stroke:none;stroke-width:0.125;enable-background:new" />
    <path
       inkscape:connector-curvature="0"
       id="path4568"
       d="m 32,518 -6,-6 v 4 c 0,1.108 0.892,2 2,2 z"
       style="opacity:1;fill:#e34962;fill-opacity:1;stroke:none" />
    <path
       inkscape:connector-curvature="0"
       id="path4570"
       d="m 28,518 4,4 v -4 h -4"
       style="fill:url(#linearGradient4572);fill-opacity:1;stroke:none;stroke-width:1px;stroke-linecap:butt;stroke-linejoin:miter;stroke-opacity:1" />
    <path
       d="m 165.05364,502.00413 c -0.78013,-0.0136 -1.45339,0.76227 -1.28846,1.53747 0.11103,1.18452 0.8748,2.14576 1.47082,3.12387 0.0671,0.36425 -0.12508,0.71882 -0.13794,1.08042 -0.3886,2.12298 -0.98143,4.23453 -1.89349,6.1826 -1.12857,0.51956 -2.40668,1.03264 -3.06666,2.15242 -0.41894,0.77694 0.17095,1.82551 1.03685,1.90743 0.80333,0.10988 1.39959,-0.57853 1.83873,-1.15531 0.45849,-0.62043 0.76024,-1.35919 1.14173,-2.02596 2.3087,-0.92979 4.73762,-1.57961 7.21703,-1.82635 1.00252,0.7175 2.06467,1.56398 3.35024,1.61514 0.74725,-0.0111 1.35193,-0.73649 1.27006,-1.47323 -0.0481,-0.67079 -0.64405,-1.14119 -1.2614,-1.26705 -0.99567,-0.29993 -2.06227,-0.13566 -3.07508,-0.12839 -1.94902,-1.55736 -3.74826,-3.34921 -5.16552,-5.3994 0.10519,-1.24644 0.3164,-2.62517 -0.33263,-3.75909 -0.24644,-0.35763 -0.66418,-0.60287 -1.10434,-0.56428 m 0.0372,1.132 c 0.21944,0.0423 0.23405,0.36917 0.29548,0.54397 0.0578,0.35624 0.0515,0.71978 0.0473,1.07957 -0.26134,-0.48848 -0.60083,-0.99879 -0.54036,-1.5778 0.0689,-0.003 0.12989,-0.0376 0.19757,-0.0456 m 1.20935,4.86085 c 1.16163,1.44436 2.45194,2.77453 3.86006,3.98027 -1.85675,0.28316 -3.70137,0.75753 -5.46792,1.39749 0.67753,-1.77075 1.19337,-3.60017 1.53326,-5.46732 0.0248,0.0299 0.0495,0.0597 0.0743,0.0896 m 7.24588,4.85543 c 0.45038,0.0434 0.97013,0.0174 1.33076,0.32776 0.0338,0.28016 -0.30889,0.32103 -0.49137,0.21963 -0.38078,-0.12713 -0.75746,-0.28695 -1.08072,-0.5305 0.0805,-0.005 0.16079,-0.0153 0.24163,-0.0169 m -11.25501,2.94644 c -0.21416,0.39832 -0.52594,0.77387 -0.85106,1.05595 -0.10818,0.17516 -0.40511,-0.1487 -0.26849,-0.28551 0.28208,-0.44154 0.77459,-0.6756 1.21055,-0.93935 -0.0304,0.0563 -0.0607,0.11265 -0.0912,0.16897"
       inkscape:connector-curvature="0"
       id="path70"
       style="display:inline;fill:#ffffff;stroke-width:0.05980879;enable-background:new" />
    <path
       style="display:inline;fill:#ffffff;stroke-width:0.05980879;enable-background:new"
       id="path4464"
       inkscape:connector-curvature="0"
       d="m 22.158521,515.00226 c -0.48758,-0.009 -0.90837,0.47643 -0.80529,0.96095 0.0694,0.74034 0.54675,1.34114 0.91926,1.95248 0.0419,0.22766 -0.0782,0.44928 -0.0862,0.67528 -0.24287,1.32691 -0.61339,2.64668 -1.18343,3.86426 -0.70535,0.32473 -1.50417,0.64542 -1.91666,1.3453 -0.26184,0.48561 0.10684,1.14098 0.64803,1.19218 0.50208,0.0687 0.87474,-0.36159 1.14921,-0.72209 0.28655,-0.38779 0.47515,-0.84952 0.71358,-1.26626 1.44294,-0.58114 2.96101,-0.9873 4.51064,-1.14151 0.62658,0.44844 1.29042,0.97751 2.0939,1.00949 0.46703,-0.007 0.84496,-0.46031 0.79379,-0.9208 -0.0301,-0.41925 -0.40253,-0.71326 -0.78838,-0.79192 -0.62229,-0.18747 -1.28891,-0.0848 -1.92192,-0.0802 -1.21814,-0.97338 -2.34266,-2.09331 -3.22845,-3.37473 0.0657,-0.77905 0.19775,-1.64078 -0.20789,-2.3495 -0.15403,-0.22353 -0.41512,-0.37681 -0.69022,-0.35268 m 0.0232,0.70752 c 0.13715,0.0264 0.14628,0.23073 0.18468,0.33998 0.0361,0.22266 0.0322,0.44989 0.0296,0.67475 -0.16334,-0.30531 -0.37552,-0.62426 -0.33773,-0.98615 0.0431,-0.002 0.0812,-0.0235 0.12348,-0.0285 m 0.75585,3.03813 c 0.72602,0.90276 1.53246,1.73414 2.41254,2.48775 -1.16047,0.17697 -2.31336,0.47347 -3.41745,0.87346 0.42345,-1.10675 0.74585,-2.25019 0.95828,-3.41718 0.0155,0.0187 0.0309,0.0373 0.0464,0.056 m 4.52868,3.03474 c 0.28148,0.0272 0.60633,0.0109 0.83172,0.20485 0.0211,0.17511 -0.19305,0.20065 -0.3071,0.13728 -0.23799,-0.0794 -0.47342,-0.17936 -0.67545,-0.33157 0.0503,-0.003 0.10049,-0.01 0.15101,-0.0106 m -7.03438,1.84159 c -0.13385,0.24895 -0.32871,0.48368 -0.53191,0.65999 -0.0676,0.10947 -0.25319,-0.0929 -0.1678,-0.17846 0.1763,-0.27596 0.48411,-0.42226 0.75659,-0.58711 -0.019,0.0352 -0.0379,0.0704 -0.057,0.10562" />
    <path
       d="m 62.526821,515.00208 c -0.39007,-0.007 -0.7267,0.38114 -0.64423,0.76874 0.0555,0.59226 0.4374,1.07288 0.73541,1.56193 0.0336,0.18213 -0.0625,0.35941 -0.069,0.54021 -0.1943,1.06149 -0.49072,2.11727 -0.94675,3.0913 -0.56428,0.25978 -1.20334,0.51632 -1.53333,1.07621 -0.20947,0.38847 0.0855,0.91275 0.51843,0.95371 0.40166,0.0549 0.69979,-0.28926 0.91936,-0.57765 0.22925,-0.31021 0.38012,-0.67959 0.57087,-1.01298 1.15435,-0.46489 2.368805,-0.78981 3.608509,-0.91317 0.50126,0.35874 1.032336,0.78198 1.67512,0.80756 0.373626,-0.005 0.675966,-0.36824 0.63503,-0.73661 -0.02405,-0.33539 -0.322024,-0.57059 -0.6307,-0.63352 -0.497834,-0.14997 -1.031134,-0.0678 -1.53754,-0.0642 -0.974509,-0.77868 -1.874129,-1.6746 -2.582759,-2.6997 0.0526,-0.62322 0.1582,-1.31258 -0.16631,-1.87954 -0.12322,-0.17882 -0.33209,-0.30144 -0.55217,-0.28214 m 0.0186,0.566 c 0.10972,0.0211 0.11702,0.18458 0.14774,0.27198 0.0289,0.17812 0.0258,0.35989 0.0237,0.53979 -0.13067,-0.24424 -0.30042,-0.4994 -0.27018,-0.7889 0.0344,-10e-4 0.0649,-0.0188 0.0988,-0.0228 m 0.60467,2.43042 c 0.58082,0.72218 1.22597,1.38727 1.93003,1.99014 -0.928375,0.14158 -1.85068,0.37876 -2.73396,0.69874 0.33877,-0.88537 0.59669,-1.80008 0.76663,-2.73366 0.0124,0.0149 0.0248,0.0299 0.0372,0.0448 m 3.62294,2.42772 c 0.22519,0.0217 0.485065,0.009 0.66538,0.16388 0.0169,0.14008 -0.154445,0.16051 -0.245685,0.10981 -0.19039,-0.0635 -0.37873,-0.14347 -0.54036,-0.26525 0.04025,-0.003 0.08039,-0.008 0.120815,-0.008 m -5.6275,1.47322 c -0.10708,0.19916 -0.26297,0.38693 -0.42553,0.52797 -0.0541,0.0876 -0.20256,-0.0744 -0.13425,-0.14275 0.14104,-0.22077 0.3873,-0.3378 0.60528,-0.46968 -0.0152,0.0281 -0.0303,0.0563 -0.0456,0.0845"
       inkscape:connector-curvature="0"
       id="path4466"
       style="display:inline;fill:#ffffff;stroke-width:0.05980879;enable-background:new" />
    <path
       d="m 110.15852,511.00226 c -0.48758,-0.009 -0.90837,0.47643 -0.80529,0.96095 0.0694,0.74034 0.54675,1.34114 0.91926,1.95248 0.0419,0.22766 -0.0782,0.44928 -0.0862,0.67528 -0.24287,1.32691 -0.61339,2.64668 -1.18343,3.86426 -0.70536,0.32473 -1.50417,0.64542 -1.91666,1.3453 -0.26184,0.48561 0.10684,1.14098 0.64803,1.19218 0.50208,0.0687 0.87474,-0.36159 1.14921,-0.72209 0.28655,-0.38779 0.47515,-0.84952 0.71358,-1.26626 1.44294,-0.58114 2.96101,-0.9873 4.51064,-1.14151 0.62658,0.44844 1.29042,0.97751 2.0939,1.00949 0.46703,-0.007 0.84496,-0.46031 0.79379,-0.9208 -0.0301,-0.41925 -0.40253,-0.71326 -0.78838,-0.79192 -0.62229,-0.18747 -1.28892,-0.0848 -1.92192,-0.0802 -1.21814,-0.97338 -2.34266,-2.09331 -3.22845,-3.37473 0.0657,-0.77905 0.19775,-1.64078 -0.20789,-2.3495 -0.15403,-0.22353 -0.41512,-0.37681 -0.69022,-0.35268 m 0.0233,0.70752 c 0.13715,0.0264 0.14628,0.23073 0.18468,0.33998 0.0361,0.22266 0.0322,0.44989 0.0296,0.67475 -0.16334,-0.30531 -0.37552,-0.62426 -0.33773,-0.98615 0.0431,-0.002 0.0812,-0.0235 0.12348,-0.0285 m 0.75585,3.03813 c 0.72602,0.90276 1.53246,1.73414 2.41254,2.48775 -1.16047,0.17697 -2.31336,0.47347 -3.41745,0.87346 0.42345,-1.10675 0.74585,-2.25019 0.95828,-3.41718 0.0155,0.0187 0.0309,0.0373 0.0464,0.056 m 4.52868,3.03474 c 0.28148,0.0272 0.60633,0.0109 0.83172,0.20485 0.0211,0.17511 -0.19305,0.20065 -0.3071,0.13728 -0.23799,-0.0794 -0.47342,-0.17936 -0.67545,-0.33157 0.0503,-0.003 0.10049,-0.01 0.15101,-0.0106 m -7.03438,1.84159 c -0.13385,0.24895 -0.32871,0.48368 -0.53191,0.65999 -0.0676,0.10947 -0.25319,-0.0929 -0.1678,-0.17846 0.1763,-0.27596 0.48411,-0.42226 0.75659,-0.58711 -0.019,0.0352 -0.0379,0.0704 -0.057,0.10562"
       inkscape:connector-curvature="0"
       id="path4468"
       style="display:inline;fill:#ffffff;stroke-width:0.05980879;enable-background:new" />
    <path
       style="display:inline;fill:#ffffff;stroke-width:0.05980879;enable-background:new"
       id="path4470"
       inkscape:connector-curvature="0"
       d="m 236.31705,492.00516 c -0.97516,-0.017 -1.81674,0.95284 -1.61057,1.92184 0.13878,1.48065 1.0935,2.6822 1.83852,3.90484 0.0839,0.45531 -0.15635,0.89852 -0.17242,1.35052 -0.48575,2.65373 -1.22679,5.29317 -2.36687,7.72825 -1.41071,0.64945 -3.00835,1.2908 -3.83332,2.69053 -0.52368,0.97117 0.21369,2.28189 1.29606,2.38429 1.00416,0.13735 1.74949,-0.72317 2.29841,-1.44414 0.57312,-0.77554 0.9503,-1.69899 1.42717,-2.53245 2.88587,-1.16224 5.92202,-1.97451 9.02128,-2.28294 1.25315,0.89688 2.58084,1.95498 4.1878,2.01893 0.93407,-0.0139 1.68992,-0.92062 1.58758,-1.84154 -0.0601,-0.83849 -0.80506,-1.42649 -1.57675,-1.58381 -1.24459,-0.37492 -2.57784,-0.16958 -3.84385,-0.16049 -2.43628,-1.9467 -4.68533,-4.18651 -6.4569,-6.74925 0.13149,-1.55805 0.3955,-3.28146 -0.41579,-4.69886 -0.30805,-0.44704 -0.83022,-0.75359 -1.38042,-0.70535 m 0.0465,1.415 c 0.2743,0.0529 0.29256,0.46146 0.36935,0.67996 0.0722,0.4453 0.0644,0.89972 0.0591,1.34946 -0.32667,-0.6106 -0.75104,-1.24849 -0.67545,-1.97225 0.0861,-0.004 0.16236,-0.047 0.24696,-0.057 m 1.51169,6.07606 c 1.45204,1.80545 3.06493,3.46817 4.82508,4.97534 -2.32094,0.35395 -4.62672,0.94691 -6.8349,1.74686 0.84691,-2.21343 1.49171,-4.50021 1.91657,-6.83415 0.031,0.0374 0.0619,0.0746 0.0929,0.112 m 9.05735,6.06929 c 0.56297,0.0542 1.21266,0.0217 1.66345,0.4097 0.0423,0.3502 -0.38612,0.40129 -0.61422,0.27454 -0.47597,-0.15891 -0.94682,-0.35869 -1.3509,-0.66313 0.10063,-0.006 0.20099,-0.0191 0.30204,-0.0211 m -14.06876,3.68305 c -0.2677,0.4979 -0.65743,0.96734 -1.06383,1.31994 -0.13522,0.21895 -0.50638,-0.18588 -0.33561,-0.35689 0.3526,-0.55193 0.96824,-0.8445 1.51319,-1.17419 -0.038,0.0704 -0.0759,0.14081 -0.114,0.21121" />
    <path
       d="m 514.5364,240.04128 c -7.80128,-0.136 -14.53392,7.62272 -12.88456,15.37472 1.11024,11.8452 8.748,21.4576 14.70816,31.23872 0.6712,3.64248 -1.2508,7.18816 -1.37936,10.80416 -3.886,21.22984 -9.81432,42.34536 -18.93496,61.826 -11.28568,5.1956 -24.0668,10.3264 -30.66656,21.52424 -4.18944,7.76936 1.70952,18.25512 10.36848,19.07432 8.03328,1.0988 13.99592,-5.78536 18.38728,-11.55312 4.58496,-6.20432 7.6024,-13.59192 11.41736,-20.2596 23.08696,-9.29792 47.37616,-15.79608 72.17024,-18.26352 10.0252,7.17504 20.64672,15.63984 33.5024,16.15144 7.47256,-0.1112 13.51936,-7.36496 12.70064,-14.73232 -0.4808,-6.70792 -6.44048,-11.41192 -12.614,-12.67048 -9.95672,-2.99936 -20.62272,-1.35664 -30.7508,-1.28392 -19.49024,-15.5736 -37.48264,-33.49208 -51.6552,-53.994 1.05192,-12.4644 3.164,-26.25168 -3.32632,-37.59088 -2.4644,-3.57632 -6.64176,-6.02872 -11.04336,-5.6428 m 0.372,11.32 c 2.1944,0.4232 2.34048,3.69168 2.9548,5.43968 0.5776,3.5624 0.5152,7.19776 0.4728,10.79568 -2.61336,-4.8848 -6.00832,-9.98792 -5.4036,-15.778 0.6888,-0.032 1.29888,-0.376 1.97568,-0.456 m 12.09352,48.60848 c 11.61632,14.4436 24.51944,27.74536 38.60064,39.80272 -18.56752,2.8316 -37.01376,7.57528 -54.6792,13.97488 6.77528,-17.70744 11.93368,-36.00168 15.33256,-54.6732 0.248,0.2992 0.4952,0.5968 0.7432,0.896 m 72.4588,48.55432 c 4.50376,0.4336 9.70128,0.1736 13.3076,3.2776 0.3384,2.8016 -3.08896,3.21032 -4.91376,2.19632 -3.80776,-1.27128 -7.57456,-2.86952 -10.8072,-5.30504 0.80504,-0.048 1.60792,-0.1528 2.41632,-0.1688 m -112.55008,29.4644 c -2.1416,3.9832 -5.25944,7.73872 -8.51064,10.55952 -1.08176,1.7516 -4.05104,-1.48704 -2.68488,-2.85512 2.8208,-4.41544 7.74592,-6.756 12.10552,-9.39352 -0.304,0.5632 -0.6072,1.12648 -0.912,1.68968"
       inkscape:connector-curvature="0"
       id="path4559"
       style="display:inline;fill:#ffffff;stroke-width:0.47847033;enable-background:new" />
  </g>
</svg>
