<?xml version="1.0" encoding="UTF-8" standalone="no"?>
<!-- Created with Inkscape (http://www.inkscape.org/) -->

<svg
   xmlns:dc="http://purl.org/dc/elements/1.1/"
   xmlns:cc="http://creativecommons.org/ns#"
   xmlns:rdf="http://www.w3.org/1999/02/22-rdf-syntax-ns#"
   xmlns:svg="http://www.w3.org/2000/svg"
   xmlns="http://www.w3.org/2000/svg"
   xmlns:xlink="http://www.w3.org/1999/xlink"
   xmlns:sodipodi="http://sodipodi.sourceforge.net/DTD/sodipodi-0.dtd"
   xmlns:inkscape="http://www.inkscape.org/namespaces/inkscape"
   width="816"
   height="544"
   viewBox="0 0 816 544"
   version="1.1"
   id="svg1087"
   inkscape:version="0.92.1 r"
   sodipodi:docname="text-x-script.svg">
  <defs
     id="defs1081">
    <filter
       inkscape:collect="always"
       style="color-interpolation-filters:sRGB"
       id="filter5087"
       x="-0.048"
       width="1.096"
       y="-0.048"
       height="1.096">
      <feGaussianBlur
         inkscape:collect="always"
         stdDeviation="0.8"
         id="feGaussianBlur5089" />
    </filter>
    <linearGradient
       inkscape:collect="always"
       xlink:href="#linearGradient5320"
       id="linearGradient4256"
       gradientUnits="userSpaceOnUse"
       gradientTransform="matrix(16.5,0,0,15.977305,17.5,-16102.955)"
       x1="35.18182"
       y1="1017.3778"
       x2="41"
       y2="1023.3864" />
    <linearGradient
       id="linearGradient5320"
       inkscape:collect="always">
      <stop
         id="stop5322"
         offset="0"
         style="stop-color:#000000;stop-opacity:0.15000001" />
      <stop
         id="stop5324"
         offset="1"
         style="stop-color:#000000;stop-opacity:0;" />
    </linearGradient>
    <linearGradient
       inkscape:collect="always"
       xlink:href="#linearGradient5320"
       id="linearGradient4669"
       x1="173"
       y1="500.5"
       x2="184"
       y2="500.5"
       gradientUnits="userSpaceOnUse" />
    <linearGradient
       inkscape:collect="always"
       xlink:href="#linearGradient5320"
       id="linearGradient4553"
       x1="116.64645"
       y1="509.35355"
       x2="123.5"
       y2="509.35355"
       gradientUnits="userSpaceOnUse" />
    <linearGradient
       inkscape:collect="always"
       xlink:href="#linearGradient5320"
       id="linearGradient4584"
       x1="67.646446"
       y1="514.35358"
       x2="72.5"
       y2="514.35358"
       gradientUnits="userSpaceOnUse" />
    <linearGradient
       inkscape:collect="always"
       xlink:href="#linearGradient5320"
       id="linearGradient4539"
       gradientUnits="userSpaceOnUse"
       gradientTransform="matrix(2.0625,0,0,1.9971631,174.1875,-1550.8694)"
       x1="35.18182"
       y1="1017.3778"
       x2="41"
       y2="1023.3864" />
    <filter
       inkscape:collect="always"
       style="color-interpolation-filters:sRGB"
       id="filter4540"
       x="-0.0135"
       width="1.027"
       y="-0.0108"
       height="1.0216">
      <feGaussianBlur
         inkscape:collect="always"
         stdDeviation="0.18"
         id="feGaussianBlur4542" />
    </filter>
    <filter
       inkscape:collect="always"
       style="color-interpolation-filters:sRGB"
       id="filter4546"
       x="-0.013636364"
       width="1.0272727"
       y="-0.010714286"
       height="1.0214286">
      <feGaussianBlur
         inkscape:collect="always"
         stdDeviation="0.25"
         id="feGaussianBlur4548" />
    </filter>
    <filter
       inkscape:collect="always"
       style="color-interpolation-filters:sRGB"
       id="filter4564"
       x="-0.027272727"
       width="1.0545455"
       y="-0.021428571"
       height="1.0428571">
      <feGaussianBlur
         inkscape:collect="always"
         stdDeviation="4"
         id="feGaussianBlur4566" />
    </filter>
    <linearGradient
       inkscape:collect="always"
       xlink:href="#linearGradient5320"
       id="linearGradient4572"
       gradientUnits="userSpaceOnUse"
       x1="67.646446"
       y1="514.35358"
       x2="72.5"
       y2="514.35358"
       gradientTransform="translate(-40,6)" />
  </defs>
  <sodipodi:namedview
     id="base"
     pagecolor="#c3c3c3"
     bordercolor="#333333"
     borderopacity="1"
     inkscape:pageopacity="0"
     inkscape:pageshadow="2"
     inkscape:zoom="0.35"
     inkscape:cx="199.96467"
     inkscape:cy="624.37252"
     inkscape:document-units="px"
     inkscape:current-layer="layer1"
     showgrid="true"
     units="px"
     inkscape:showpageshadow="false"
     inkscape:window-width="1280"
     inkscape:window-height="1370"
     inkscape:window-x="1280"
     inkscape:window-y="34"
     inkscape:window-maximized="0">
    <inkscape:grid
       type="xygrid"
       id="grid4630" />
  </sodipodi:namedview>
  <metadata
     id="metadata1084">
    <rdf:RDF>
      <cc:Work
         rdf:about="">
        <dc:format>image/svg+xml</dc:format>
        <dc:type
           rdf:resource="http://purl.org/dc/dcmitype/StillImage" />
        <dc:title></dc:title>
        <cc:license
           rdf:resource="http://creativecommons.org/licenses/by-sa/4.0/" />
        <dc:creator>
          <cc:Agent>
            <dc:title>Peter Cornelis</dc:title>
          </cc:Agent>
        </dc:creator>
      </cc:Work>
      <cc:License
         rdf:about="http://creativecommons.org/licenses/by-sa/4.0/">
        <cc:permits
           rdf:resource="http://creativecommons.org/ns#Reproduction" />
        <cc:permits
           rdf:resource="http://creativecommons.org/ns#Distribution" />
        <cc:requires
           rdf:resource="http://creativecommons.org/ns#Notice" />
        <cc:requires
           rdf:resource="http://creativecommons.org/ns#Attribution" />
        <cc:permits
           rdf:resource="http://creativecommons.org/ns#DerivativeWorks" />
        <cc:requires
           rdf:resource="http://creativecommons.org/ns#ShareAlike" />
      </cc:License>
    </rdf:RDF>
  </metadata>
  <g
     inkscape:label="Baseplate"
     inkscape:groupmode="layer"
     id="layer1"
     transform="translate(0,-153.06668)"
     style="display:none">
    <rect
       style="display:inline;overflow:visible;visibility:visible;fill:#fefefe;fill-opacity:1;fill-rule:nonzero;stroke:none;stroke-width:2;marker:none;enable-background:accumulate"
       id="rect3951"
       width="512"
       height="512"
       x="-800"
       y="169.06668"
       inkscape:label="48x48"
       transform="scale(-1,1)" />
    <text
       y="733.32251"
       xml:space="preserve"
       x="15.006836"
       style="font-style:normal;font-variant:normal;font-weight:normal;font-stretch:normal;line-height:0%;font-family:'DejaVu Sans';-inkscape-font-specification:'DejaVu Sans';display:inline;fill:#000000;fill-opacity:1;stroke:none;enable-background:new"
       inkscape:label="context"
       id="context"><tspan
         style="font-style:normal;font-variant:normal;font-weight:normal;font-stretch:normal;font-size:18px;line-height:1.25;font-family:'DejaVu Sans';-inkscape-font-specification:'DejaVu Sans'"
         y="733.32251"
         x="15.006836"
         sodipodi:role="line"
         id="tspan3933">mimetypes</tspan></text>
    <text
       y="733.32251"
       xml:space="preserve"
       x="142.48828"
       style="font-style:normal;font-variant:normal;font-weight:bold;font-stretch:normal;line-height:0%;font-family:'DejaVu Sans';-inkscape-font-specification:'DejaVu Sans Bold';text-align:start;writing-mode:lr-tb;text-anchor:start;display:inline;fill:#000000;fill-opacity:1;stroke:none;enable-background:new"
       inkscape:label="icon-name"
       id="icon-name"><tspan
         style="font-style:normal;font-variant:normal;font-weight:bold;font-stretch:normal;font-size:18px;line-height:1.25;font-family:'DejaVu Sans';-inkscape-font-specification:'DejaVu Sans Bold'"
         y="733.32251"
         x="142.48828"
         sodipodi:role="line"
         id="tspan3937">text-x-script</tspan></text>
    <rect
       style="display:inline;overflow:visible;visibility:visible;fill:#fefefe;fill-opacity:1;fill-rule:nonzero;stroke:none;stroke-width:2;marker:none;enable-background:accumulate"
       id="rect16x16"
       width="16"
       height="16"
       x="-32"
       y="665.06665"
       inkscape:label="16x16"
       transform="scale(-1,1)" />
    <rect
       style="display:inline;overflow:visible;visibility:visible;fill:#fefefe;fill-opacity:1;fill-rule:nonzero;stroke:none;stroke-width:2;marker:none;enable-background:accumulate"
       id="rect24x24"
       width="24"
       height="24"
       x="-76"
       y="657.06665"
       inkscape:label="24x24"
       transform="scale(-1,1)" />
    <rect
       style="display:inline;overflow:visible;visibility:visible;fill:#fefefe;fill-opacity:1;fill-rule:nonzero;stroke:none;stroke-width:2;marker:none;enable-background:accumulate"
       id="rect32x32"
       width="32"
       height="32"
       x="-128"
       y="649.06665"
       inkscape:label="32x32"
       transform="scale(-1,1)" />
    <rect
       inkscape:label="48x48"
       y="633.06665"
       x="-192"
       height="48"
       width="48"
       id="rect48x48"
       style="display:inline;overflow:visible;visibility:visible;fill:#fefefe;fill-opacity:1;fill-rule:nonzero;stroke:none;stroke-width:2;marker:none;enable-background:accumulate"
       transform="scale(-1,1)" />
    <rect
       transform="scale(-1,1)"
       inkscape:label="48x48"
       y="617.06665"
       x="-272"
       height="64"
       width="64"
       id="rect4527"
       style="display:inline;overflow:visible;visibility:visible;fill:#fefefe;fill-opacity:1;fill-rule:nonzero;stroke:none;stroke-width:0.25;marker:none;enable-background:accumulate" />
  </g>
  <g
     inkscape:groupmode="layer"
     id="layer2"
     inkscape:label="Bitmap"
     style="display:inline">
    <path
       inkscape:connector-curvature="0"
       id="path4538"
       d="m 155,485 c -1.662,0 -3,1.338 -3,3 v 34 c 0,1.662 1.338,3 3,3 h 26 c 1.662,0 3,-1.338 3,-3 v -25 l -12,-12 z"
       style="opacity:1;fill:#000000;fill-opacity:0.2;stroke:none;filter:url(#filter4540)" />
    <path
       sodipodi:nodetypes="sscsscsscsscs"
       inkscape:connector-curvature="0"
       id="path5069"
       d="m 143,485 c -1.66505,0 -3,1.2912 -3,3 v 17 17 c 0,1.8617 1.34224,3 3,3 h 17 17 c 1.73784,0 3,-1.2767 3,-3 v -17 -17 c 0,-1.6942 -1.29127,-3 -3,-3 h -17 z"
       style="display:inline;fill:none;fill-opacity:0.5;stroke:none;stroke-width:2;stroke-linecap:round;stroke-linejoin:round;stroke-miterlimit:4;stroke-dasharray:none;stroke-opacity:1;filter:url(#filter5087);enable-background:new" />
    <path
       style="opacity:1;fill:#e8ebed;fill-opacity:1;stroke:none"
       d="m 155,484 c -1.662,0 -3,1.338 -3,3 v 34 c 0,1.662 1.338,3 3,3 h 26 c 1.662,0 3,-1.338 3,-3 v -25 l -12,-12 z"
       id="rect4648"
       inkscape:connector-curvature="0" />
    <path
       style="opacity:1;fill:#ffffff;fill-opacity:0.2;stroke:none"
       d="m 155,484 c -1.662,0 -3,1.338 -3,3 v 1 c 0,-1.662 1.338,-3 3,-3 h 18 l -1,-1 z"
       id="path4671"
       inkscape:connector-curvature="0" />
    <path
       style="display:inline;fill:none;fill-opacity:0.5;stroke:none;stroke-width:2;stroke-linecap:round;stroke-linejoin:round;stroke-miterlimit:4;stroke-dasharray:none;stroke-opacity:1;filter:url(#filter5087);enable-background:new"
       d="m 143,485 c -1.66505,0 -3,1.2912 -3,3 v 17 17 c 0,1.8617 1.34224,3 3,3 h 17 17 c 1.73784,0 3,-1.2767 3,-3 v -17 -17 c 0,-1.6942 -1.29127,-3 -3,-3 h -17 z"
       id="path4506"
       inkscape:connector-curvature="0"
       sodipodi:nodetypes="sscsscsscsscs" />
    <path
       inkscape:connector-curvature="0"
       id="path4533"
       d="m 58,507 c -1.108,0 -2,0.892 -2,2 v 16 c 0,1.108 0.892,2 2,2 h 12 c 1.108,0 2,-0.892 2,-2 v -12 l -6,-6 z"
       style="opacity:1;fill:#000000;fill-opacity:0.2;stroke:none" />
    <path
       style="opacity:1;fill:#e8ebed;fill-opacity:1;stroke:none"
       d="m 58,506 c -1.108,0 -2,0.892 -2,2 v 16 c 0,1.108 0.892,2 2,2 h 12 c 1.108,0 2,-0.892 2,-2 v -12 l -6,-6 z"
       id="rect4555"
       inkscape:connector-curvature="0" />
    <path
       style="opacity:1;fill:#ffffff;fill-opacity:0.2;stroke:none"
       d="m 58,506 c -1.108,0 -2,0.892 -2,2 v 1 c 0,-1.108 0.892,-2 2,-2 h 9 l -1,-1 z"
       id="path4566"
       inkscape:connector-curvature="0" />
    <path
       style="opacity:1;fill:#c3c8cb;fill-opacity:1;stroke:none"
       d="m 72,512 -6,-6 v 4 c 0,1.108 0.892,2 2,2 z"
       id="rect4560"
       inkscape:connector-curvature="0" />
    <path
       inkscape:connector-curvature="0"
       style="display:inline;fill:#000000;fill-opacity:0.2;stroke:none;filter:url(#filter4564);enable-background:new"
       d="m 392,50 c -13.296,0 -24,10.704 -24,24 v 400 c 0,13.296 10.704,24 24,24 h 304 c 13.296,0 24,-10.704 24,-24 V 194 L 576,50 Z"
       id="path4558" />
    <path
       id="path4556"
       d="m 392,50 c -13.296,0 -24,10.704 -24,24 v 400 c 0,13.296 10.704,24 24,24 h 304 c 13.296,0 24,-10.704 24,-24 V 194 L 576,50 Z"
       style="display:inline;fill:#000000;fill-opacity:0.2;stroke:none;enable-background:new"
       inkscape:connector-curvature="0" />
    <path
       style="display:inline;fill:#e8ebed;fill-opacity:1;stroke:none;enable-background:new"
       d="m 392,48 c -13.296,0 -24,10.704 -24,24 v 400 c 0,13.296 10.704,24 24,24 h 304 c 13.296,0 24,-10.704 24,-24 V 192 L 576,48 Z"
       id="rect3362"
       inkscape:connector-curvature="0" />
    <path
       style="display:inline;fill:url(#linearGradient4256);fill-opacity:1;fill-rule:evenodd;stroke:none;stroke-width:8px;stroke-linecap:butt;stroke-linejoin:miter;stroke-opacity:1;enable-background:new"
       d="m 582,184 80,80 58,60 v -60 -72 l -8,-8 h -50 z"
       id="path4254"
       inkscape:connector-curvature="0" />
    <path
       style="display:inline;fill:#e8ebed;fill-opacity:1;fill-rule:evenodd;stroke:none;stroke-width:4.86648273px;stroke-linecap:butt;stroke-linejoin:miter;stroke-opacity:1;enable-background:new"
       d="m 18,512 c -1.108,0 -2,0.89199 -2,2 v 12 c 0,1.10801 0.892,2 2,2 h 12 c 1.108,0 2,-0.89199 2,-2 v -8 l -6,-6 z"
       id="rect4630-7-2"
       inkscape:connector-curvature="0" />
    <path
       style="display:inline;fill:#ffffff;fill-opacity:0.2;stroke:none;enable-background:new"
       d="m 392,48 c -13.296,0 -24,10.704 -24,24 v 2 c 0,-13.296 10.704,-24 24,-24 h 184 l 12,132 132,12 v -2 L 588,180 576,48 Z"
       id="path4572"
       inkscape:connector-curvature="0" />
    <path
       style="display:inline;opacity:1;fill:#c3c8cb;fill-opacity:1;stroke:none;enable-background:new"
       d="m 576,48 v 120 c 0,13.2548 10.7452,24 24,24 h 120 z"
       id="path4060"
       inkscape:connector-curvature="0" />
    <path
       style="fill:url(#linearGradient4669);fill-opacity:1;stroke:none;stroke-width:1px;stroke-linecap:butt;stroke-linejoin:miter;stroke-opacity:1"
       d="m 173,495 11,11 v -10 l -11,-1"
       id="path4661"
       inkscape:connector-curvature="0" />
    <path
       inkscape:connector-curvature="0"
       id="path4658"
       d="m 184,496 -12,-12 v 9 c 0,1.662 1.338,3 3,3 z"
       style="fill:#c3c8cb;fill-opacity:1;stroke:none;stroke-width:1px;stroke-linecap:butt;stroke-linejoin:miter;stroke-opacity:1" />
    <path
       inkscape:connector-curvature="0"
       id="path4536"
       d="m 103,499 c -1.108,0 -2,0.892 -2,2 v 24 c 0,1.108 0.892,2 2,2 h 18 c 1.108,0 2,-0.892 2,-2 v -18 l -8,-8 z"
       style="opacity:1;fill:#000000;fill-opacity:0.2;stroke:none" />
    <path
       style="opacity:1;fill:#e8ebed;fill-opacity:1;stroke:none"
       d="m 103,498 c -1.108,0 -2,0.892 -2,2 v 24 c 0,1.108 0.892,2 2,2 h 18 c 1.108,0 2,-0.892 2,-2 v -18 l -8,-8 z"
       id="rect4526"
       inkscape:connector-curvature="0" />
    <path
       style="opacity:1;fill:#ffffff;fill-opacity:0.2;stroke:none"
       d="m 103,498 c -1.108,0 -2,0.892 -2,2 v 1 c 0,-1.108 0.892,-2 2,-2 h 13 l -1,-1 z"
       id="rect4529"
       inkscape:connector-curvature="0" />
    <path
       id="path4524"
       d="m 123,506 -8,-8 v 6 c 0,1.108 0.892,2 2,2 z"
       style="opacity:1;fill:#c3c8cb;fill-opacity:1;stroke:none"
       inkscape:connector-curvature="0" />
    <path
       style="fill:url(#linearGradient4553);fill-opacity:1;stroke:none;stroke-width:1px;stroke-linecap:butt;stroke-linejoin:miter;stroke-opacity:1"
       d="m 117,506 6,6 v -6 h -6"
       id="path4545"
       inkscape:connector-curvature="0" />
    <path
       style="fill:url(#linearGradient4584);fill-opacity:1;stroke:none;stroke-width:1px;stroke-linecap:butt;stroke-linejoin:miter;stroke-opacity:1"
       d="m 68,512 4,4 v -4 h -4"
       id="path4576"
       inkscape:connector-curvature="0" />
    <path
       inkscape:connector-curvature="0"
       id="path4544"
       d="m 221,469 c -1.662,0 -3,1.338 -3,3 v 50 c 0,1.662 1.338,3 3,3 h 38 c 1.662,0 3,-1.338 3,-3 v -35 l -18,-18 z m 38.60547,0.0605 c 0.39058,0.0799 0.75306,0.23552 1.07226,0.45117 -0.31876,-0.21473 -0.68155,-0.37163 -1.07226,-0.45117 z m 1.07422,0.45117 c 0.31825,0.21524 0.59335,0.49034 0.80859,0.80859 -0.21523,-0.3191 -0.48949,-0.59336 -0.80859,-0.80859 z m 0.80859,0.81055 c 0.21565,0.3192 0.37125,0.68168 0.45117,1.07226 -0.0795,-0.39071 -0.23644,-0.7535 -0.45117,-1.07226 z"
       style="opacity:1;fill:#000000;fill-opacity:0.2;stroke:none;stroke-opacity:1;filter:url(#filter4546)" />
    <path
       style="opacity:1;fill:#e8ebed;fill-opacity:1;stroke:none;stroke-opacity:1"
       d="m 221,468 c -1.662,0 -3,1.338 -3,3 v 50 c 0,1.662 1.338,3 3,3 h 38 c 1.662,0 3,-1.338 3,-3 v -35 l -18,-18 z m 38.60547,0.0605 c 0.39058,0.0799 0.75306,0.23552 1.07226,0.45117 -0.31876,-0.21473 -0.68155,-0.37163 -1.07226,-0.45117 z m 1.07422,0.45117 c 0.31825,0.21524 0.59335,0.49034 0.80859,0.80859 -0.21523,-0.3191 -0.48949,-0.59336 -0.80859,-0.80859 z m 0.80859,0.81055 c 0.21565,0.3192 0.37125,0.68168 0.45117,1.07226 -0.0795,-0.39071 -0.23644,-0.7535 -0.45117,-1.07226 z"
       id="rect4543"
       inkscape:connector-curvature="0" />
    <path
       id="path4531"
       d="m 244.75,485.00003 10,10 7.25,7.5 v -7.5 -9 l -1,-1 h -6.25 z"
       style="display:inline;fill:url(#linearGradient4539);fill-opacity:1;fill-rule:evenodd;stroke:none;stroke-width:1px;stroke-linecap:butt;stroke-linejoin:miter;stroke-opacity:1;enable-background:new"
       inkscape:connector-curvature="0" />
    <path
       id="path4535"
       d="m 221,468.00003 c -1.662,0 -3,1.338 -3,3 v 0.25 c 0,-1.662 1.338,-3 3,-3 h 23 l 1.5,16.5 16.5,1.5 v -0.25 l -16.5,-1.5 -1.5,-16.5 z"
       style="display:inline;fill:#ffffff;fill-opacity:0.2;stroke:none;stroke-width:0.125;enable-background:new"
       inkscape:connector-curvature="0" />
    <path
       style="opacity:1;fill:#ffffff;fill-opacity:0.2;stroke:none;stroke-opacity:1"
       d="m 221,468 c -1.662,0 -3,1.338 -3,3 v 1 c 0,-1.662 1.338,-3 3,-3 h 24 l -1,-1 z"
       id="path4550"
       inkscape:connector-curvature="0"
       sodipodi:nodetypes="sscsccs" />
    <path
       inkscape:connector-curvature="0"
       id="path4537"
       d="m 244,468.00003 v 15 c 0,1.65685 1.34315,3 3,3 h 15 z"
       style="display:inline;opacity:1;fill:#c3c8cb;fill-opacity:1;stroke:none;stroke-width:0.125;enable-background:new" />
    <path
       inkscape:connector-curvature="0"
       id="path4568"
       d="m 32,518 -6,-6 v 4 c 0,1.108 0.892,2 2,2 z"
       style="opacity:1;fill:#2f3c45;fill-opacity:0.2;stroke:none" />
    <path
       inkscape:connector-curvature="0"
       id="path4570"
       d="m 28,518 4,4 v -4 h -4"
       style="fill:url(#linearGradient4572);fill-opacity:1;stroke:none;stroke-width:1px;stroke-linecap:butt;stroke-linejoin:miter;stroke-opacity:1" />
    <path
       d="m 26.29007,523.2931 c 0.012,-0.096 0.0216,-0.1935 0.0216,-0.2927 0,-0.099 -0.009,-0.1963 -0.0216,-0.2923 l 0.65214,-0.4967 c 0.0587,-0.045 0.0756,-0.126 0.0371,-0.192 L 26.36263,520.98 c -0.0385,-0.064 -0.11864,-0.091 -0.18808,-0.064 l -0.76773,0.3015 c -0.15879,-0.1185 -0.333,-0.219 -0.52107,-0.2955 l -0.11565,-0.795 c -0.0135,-0.071 -0.0771,-0.126 -0.15416,-0.126 h -1.23333 c -0.0771,0 -0.14025,0.055 -0.15261,0.126 l -0.11565,0.795 c -0.18808,0.076 -0.36229,0.1755 -0.52109,0.2955 l -0.76774,-0.3015 c -0.0693,-0.025 -0.14955,0 -0.18808,0.064 l -0.61666,1.0394 c -0.0385,0.064 -0.0216,0.1455 0.0369,0.192 l 0.65057,0.4967 c -0.012,0.096 -0.0216,0.1933 -0.0216,0.2923 0,0.099 0.009,0.1967 0.0216,0.2927 l -0.65057,0.4965 c -0.0585,0.046 -0.0756,0.126 -0.0369,0.192 l 0.61666,1.0396 c 0.0385,0.064 0.11865,0.091 0.18808,0.064 l 0.76774,-0.3017 c 0.1588,0.1185 0.33301,0.219 0.52109,0.2955 l 0.11565,0.795 c 0.012,0.071 0.0756,0.126 0.15261,0.126 h 1.23333 c 0.0771,0 0.14024,-0.055 0.15262,-0.126 l 0.11565,-0.795 c 0.18807,-0.076 0.36227,-0.1755 0.52108,-0.2955 l 0.76773,0.3017 c 0.0693,0.025 0.14955,0 0.18808,-0.064 l 0.61668,-1.0396 c 0.0385,-0.064 0.0216,-0.1455 -0.0371,-0.192 z m -2.29089,0.7574 c -0.59661,0 -1.07916,-0.4694 -1.07916,-1.0501 0,-0.5805 0.48255,-1.0499 1.07916,-1.0499 0.59662,0 1.07917,0.4694 1.07917,1.0499 0,0.5805 -0.48255,1.0501 -1.07917,1.0501 z"
       id="path4270"
       inkscape:connector-curvature="0"
       style="display:inline;fill:#9fa8da;fill-opacity:1;enable-background:new" />
    <path
       d="m 64.50499,515.8413 c 0.014,-0.112 0.0245,-0.2257 0.0245,-0.3412 0,-0.1155 -0.0105,-0.2293 -0.0245,-0.3413 l 0.74024,-0.5792 c 0.0665,-0.053 0.0857,-0.147 0.042,-0.224 l -0.69999,-1.2128 c -0.0438,-0.075 -0.13474,-0.1067 -0.21349,-0.075 l -0.8715,0.3517 c -0.18025,-0.1382 -0.37801,-0.2555 -0.5915,-0.3447 l -0.13125,-0.9275 c -0.0157,-0.082 -0.0875,-0.147 -0.175,-0.147 h -1.39999 c -0.0875,0 -0.15925,0.065 -0.17325,0.147 l -0.13125,0.9275 c -0.2135,0.089 -0.41125,0.2047 -0.5915,0.3447 l -0.8715,-0.3517 c -0.0787,-0.03 -0.16974,0 -0.21349,0.075 l -0.7,1.2128 c -0.0438,0.075 -0.0245,0.1697 0.042,0.224 l 0.7385,0.5792 c -0.014,0.112 -0.0245,0.2258 -0.0245,0.3413 0,0.1155 0.0105,0.2292 0.0245,0.3412 l -0.7385,0.5792 c -0.0665,0.053 -0.0857,0.147 -0.042,0.224 l 0.7,1.2128 c 0.0437,0.075 0.13475,0.1067 0.21349,0.075 l 0.8715,-0.3517 c 0.18025,0.1382 0.378,0.2555 0.5915,0.3447 l 0.13125,0.9275 c 0.014,0.082 0.0858,0.147 0.17325,0.147 h 1.39999 c 0.0875,0 0.15925,-0.065 0.17325,-0.147 l 0.13125,-0.9275 c 0.21349,-0.089 0.41125,-0.2047 0.5915,-0.3447 l 0.8715,0.3517 c 0.0788,0.03 0.16974,0 0.21349,-0.075 l 0.69999,-1.2128 c 0.0437,-0.075 0.0245,-0.1697 -0.042,-0.224 z m -2.6005,0.8837 c -0.67724,0 -1.22499,-0.5477 -1.22499,-1.2249 0,-0.6773 0.54775,-1.225 1.22499,-1.225 0.67725,0 1.22499,0.5477 1.22499,1.225 0,0.6772 -0.54774,1.2249 -1.22499,1.2249 z"
       id="path4557"
       inkscape:connector-curvature="0"
       style="display:inline;fill:#9fa8da;fill-opacity:1;enable-background:new" />
    <path
       style="display:inline;fill:#9fa8da;fill-opacity:1;enable-background:new"
       inkscape:connector-curvature="0"
       id="path4559"
       d="m 68.29007,521.2931 c 0.012,-0.096 0.0216,-0.1935 0.0216,-0.2927 0,-0.099 -0.009,-0.1963 -0.0216,-0.2923 l 0.65214,-0.4967 c 0.0587,-0.045 0.0756,-0.126 0.0371,-0.192 L 68.36263,518.98 c -0.0385,-0.064 -0.11864,-0.091 -0.18808,-0.064 l -0.76773,0.3015 c -0.15879,-0.1185 -0.333,-0.219 -0.52107,-0.2955 l -0.11565,-0.795 c -0.0135,-0.071 -0.0771,-0.126 -0.15416,-0.126 h -1.23333 c -0.0771,0 -0.14025,0.055 -0.15261,0.126 l -0.11565,0.795 c -0.18808,0.076 -0.36229,0.1755 -0.52109,0.2955 l -0.76774,-0.3015 c -0.0693,-0.025 -0.14955,0 -0.18808,0.064 l -0.61666,1.0394 c -0.0385,0.064 -0.0216,0.1455 0.0369,0.192 l 0.65057,0.4967 c -0.012,0.096 -0.0216,0.1933 -0.0216,0.2923 0,0.099 0.009,0.1967 0.0216,0.2927 l -0.65057,0.4965 c -0.0585,0.046 -0.0756,0.126 -0.0369,0.192 l 0.61666,1.0396 c 0.0385,0.064 0.11865,0.091 0.18808,0.064 l 0.76774,-0.3017 c 0.1588,0.1185 0.33301,0.219 0.52109,0.2955 l 0.11565,0.795 c 0.012,0.071 0.0756,0.126 0.15261,0.126 h 1.23333 c 0.0771,0 0.14024,-0.055 0.15262,-0.126 l 0.11565,-0.795 c 0.18807,-0.076 0.36227,-0.1755 0.52108,-0.2955 l 0.76773,0.3017 c 0.0693,0.025 0.14955,0 0.18808,-0.064 l 0.61668,-1.0396 c 0.0385,-0.064 0.0216,-0.1455 -0.0371,-0.192 z m -2.29089,0.7574 c -0.59661,0 -1.07916,-0.4694 -1.07916,-1.0501 0,-0.5805 0.48255,-1.0499 1.07916,-1.0499 0.59662,0 1.07917,0.4694 1.07917,1.0499 0,0.5805 -0.48255,1.0501 -1.07917,1.0501 z" />
    <path
       style="display:inline;fill:#9fa8da;fill-opacity:1;enable-background:new"
       inkscape:connector-curvature="0"
       id="path4272"
       d="m 114.54231,513.8888 c 0.0178,-0.1425 0.0312,-0.2873 0.0312,-0.4343 0,-0.147 -0.0134,-0.2917 -0.0312,-0.4342 l 0.94208,-0.7372 c 0.0846,-0.067 0.10914,-0.1871 0.0535,-0.2851 l -0.89087,-1.5435 c -0.0557,-0.096 -0.17149,-0.1358 -0.27171,-0.096 l -1.10913,0.4476 c -0.2294,-0.176 -0.48107,-0.3252 -0.75278,-0.4387 l -0.16703,-1.1804 c -0.02,-0.1047 -0.11136,-0.1871 -0.22273,-0.1871 h -1.78172 c -0.11136,0 -0.20268,0.082 -0.2205,0.1871 l -0.16703,1.1804 c -0.27171,0.1135 -0.52338,0.2605 -0.75278,0.4387 l -1.10913,-0.4476 c -0.10021,-0.038 -0.21602,0 -0.2717,0.096 l -0.89087,1.5435 c -0.0557,0.096 -0.0312,0.216 0.0535,0.2851 l 0.93985,0.7372 c -0.0178,0.1425 -0.0312,0.2872 -0.0312,0.4342 0,0.147 0.0134,0.2918 0.0312,0.4343 l -0.93985,0.7372 c -0.0846,0.067 -0.10914,0.1871 -0.0535,0.2851 l 0.89087,1.5434 c 0.0557,0.096 0.17149,0.1358 0.2717,0.096 l 1.10913,-0.4477 c 0.2294,0.1759 0.48107,0.3252 0.75278,0.4387 l 0.16703,1.1805 c 0.0178,0.1047 0.10914,0.1871 0.2205,0.1871 h 1.78172 c 0.11137,0 0.20268,-0.082 0.2205,-0.1871 l 0.16703,-1.1805 c 0.27172,-0.1135 0.52339,-0.2605 0.75278,-0.4387 l 1.10913,0.4477 c 0.10022,0.038 0.21604,0 0.27171,-0.096 l 0.89087,-1.5434 c 0.0557,-0.096 0.0312,-0.216 -0.0535,-0.2851 z m -3.30956,1.1248 c -0.86192,0 -1.55902,-0.6972 -1.55902,-1.5591 0,-0.8619 0.6971,-1.559 1.55902,-1.559 0.8619,0 1.55901,0.6971 1.55901,1.559 0,0.8619 -0.69711,1.5591 -1.55901,1.5591 z" />
    <path
       d="m 117.11536,520.7024 c 0.0104,-0.082 0.0183,-0.1642 0.0183,-0.2483 0,-0.084 -0.008,-0.1666 -0.0183,-0.2481 l 0.5533,-0.4213 c 0.0497,-0.039 0.0641,-0.1069 0.0314,-0.163 l -0.52321,-0.8819 c -0.0327,-0.055 -0.10071,-0.078 -0.15957,-0.055 l -0.65141,0.2558 c -0.13471,-0.1006 -0.28253,-0.1857 -0.4421,-0.2507 l -0.0981,-0.6746 c -0.0118,-0.06 -0.0654,-0.1069 -0.1308,-0.1069 h -1.04643 c -0.0654,0 -0.11903,0.047 -0.12949,0.1069 l -0.0981,0.6746 c -0.15958,0.065 -0.30739,0.1489 -0.44212,0.2507 l -0.65139,-0.2558 c -0.0589,-0.022 -0.12689,0 -0.15959,0.055 l -0.52322,0.8819 c -0.0327,0.055 -0.0183,0.1235 0.0314,0.163 l 0.55199,0.4213 c -0.0104,0.082 -0.0183,0.1641 -0.0183,0.2481 0,0.084 0.008,0.1668 0.0183,0.2483 l -0.55199,0.4212 c -0.0497,0.039 -0.0641,0.1069 -0.0314,0.1629 l 0.52322,0.8821 c 0.0327,0.055 0.10072,0.078 0.15958,0.055 l 0.6514,-0.2558 c 0.13473,0.1005 0.28254,0.1858 0.44212,0.2507 l 0.0981,0.6746 c 0.0104,0.06 0.0641,0.1069 0.12949,0.1069 h 1.04643 c 0.0654,0 0.11903,-0.047 0.12949,-0.1069 l 0.0981,-0.6746 c 0.15957,-0.065 0.30738,-0.1489 0.44211,-0.2507 l 0.6514,0.2558 c 0.0589,0.021 0.12688,0 0.15958,-0.055 l 0.52321,-0.8821 c 0.0327,-0.055 0.0183,-0.1233 -0.0314,-0.1629 z m -1.94373,0.6427 c -0.50621,0 -0.91562,-0.3983 -0.91562,-0.891 0,-0.4925 0.40941,-0.8909 0.91562,-0.8909 0.50621,0 0.91562,0.3984 0.91562,0.8909 0,0.4926 -0.40941,0.891 -0.91562,0.891 z"
       id="path4274"
       inkscape:connector-curvature="0"
       style="display:inline;fill:#9fa8da;fill-opacity:1;enable-background:new" />
    <path
       d="m 172.00999,506.6822 c 0.028,-0.224 0.049,-0.4515 0.049,-0.6825 0,-0.231 -0.021,-0.4585 -0.049,-0.6825 l 1.4805,-1.1585 c 0.133,-0.105 0.1715,-0.294 0.084,-0.448 l -1.4,-2.4255 c -0.0875,-0.1505 -0.2695,-0.2135 -0.427,-0.1505 l -1.743,0.7035 c -0.3605,-0.2765 -0.756,-0.511 -1.183,-0.6895 l -0.2625,-1.855 c -0.0315,-0.1645 -0.175,-0.294 -0.35,-0.294 h -2.8 c -0.175,0 -0.3185,0.1295 -0.3465,0.294 l -0.2625,1.855 c -0.427,0.1785 -0.8225,0.4095 -1.183,0.6895 l -1.743,-0.7035 c -0.1575,-0.06 -0.3395,0 -0.427,0.1505 l -1.4,2.4255 c -0.0875,0.1505 -0.049,0.3395 0.084,0.448 l 1.477,1.1585 c -0.028,0.224 -0.049,0.4515 -0.049,0.6825 0,0.231 0.021,0.4585 0.049,0.6825 l -1.477,1.1585 c -0.133,0.105 -0.1715,0.294 -0.084,0.448 l 1.4,2.4255 c 0.0875,0.1505 0.2695,0.2135 0.427,0.1505 l 1.743,-0.7035 c 0.3605,0.2765 0.756,0.511 1.183,0.6895 l 0.2625,1.855 c 0.028,0.1645 0.1715,0.294 0.3465,0.294 h 2.8 c 0.175,0 0.3185,-0.1295 0.3465,-0.294 l 0.2625,-1.855 c 0.427,-0.1785 0.8225,-0.4095 1.183,-0.6895 l 1.743,0.7035 c 0.1575,0.059 0.3395,0 0.427,-0.1505 l 1.4,-2.4255 c 0.0875,-0.1505 0.049,-0.3395 -0.084,-0.448 z m -5.201,1.7675 c -1.3545,0 -2.45,-1.0955 -2.45,-2.45 0,-1.3545 1.0955,-2.45 2.45,-2.45 1.3545,0 2.45,1.0955 2.45,2.45 0,1.3545 -1.0955,2.45 -2.45,2.45 z"
       id="path6"
       inkscape:connector-curvature="0"
       style="display:inline;fill:#9fa8da;fill-opacity:1;enable-background:new" />
    <path
       style="display:inline;fill:#9fa8da;fill-opacity:1;enable-background:new"
       inkscape:connector-curvature="0"
       id="path4157"
       d="m 176.05356,517.3897 c 0.0164,-0.128 0.0288,-0.258 0.0288,-0.3901 0,-0.132 -0.0123,-0.2619 -0.0288,-0.3899 l 0.86951,-0.6621 c 0.0781,-0.061 0.10072,-0.168 0.0493,-0.2561 l -0.82223,-1.386 c -0.0514,-0.086 -0.15828,-0.1221 -0.25078,-0.086 l -1.02368,0.4021 c -0.21172,-0.1581 -0.444,-0.292 -0.69478,-0.3941 l -0.15417,-1.0601 c -0.0185,-0.094 -0.10277,-0.168 -0.20556,-0.168 h -1.64446 c -0.10277,0 -0.18706,0.074 -0.2035,0.168 l -0.15417,1.0601 c -0.25078,0.1017 -0.48306,0.2341 -0.69479,0.3941 l -1.02367,-0.4021 c -0.0925,-0.034 -0.1994,0 -0.25079,0.086 l -0.82223,1.386 c -0.0514,0.086 -0.0288,0.1941 0.0493,0.2561 l 0.86746,0.6621 c -0.0164,0.128 -0.0288,0.2579 -0.0288,0.3899 0,0.1321 0.0123,0.2621 0.0288,0.3901 l -0.86746,0.662 c -0.0781,0.061 -0.10072,0.168 -0.0493,0.256 l 0.82223,1.3862 c 0.0514,0.086 0.15828,0.1219 0.25078,0.086 l 1.02368,-0.402 c 0.21173,0.158 0.44401,0.2921 0.69479,0.394 l 0.15417,1.0601 c 0.0164,0.094 0.10072,0.168 0.2035,0.168 h 1.64446 c 0.10278,0 0.18706,-0.074 0.2035,-0.168 l 0.15417,-1.0601 c 0.25078,-0.1017 0.48306,-0.2339 0.69479,-0.394 l 1.02368,0.402 c 0.0925,0.033 0.19939,0 0.25078,-0.086 l 0.82223,-1.3862 c 0.0514,-0.086 0.0288,-0.1939 -0.0493,-0.256 z m -3.05458,1.01 c -0.79551,0 -1.43891,-0.6259 -1.43891,-1.4001 0,-0.774 0.6434,-1.4001 1.43891,-1.4001 0.7955,0 1.4389,0.6261 1.4389,1.4001 0,0.774 -0.6434,1.4001 -1.4389,1.4001 z" />
    <path
       d="m 244.28446,499.7777 c 0.0356,-0.285 0.0624,-0.5746 0.0624,-0.8686 0,-0.294 -0.0268,-0.5834 -0.0624,-0.8684 l 1.88414,-1.4743 c 0.1692,-0.134 0.21828,-0.3742 0.107,-0.5702 l -1.78172,-3.087 c -0.1114,-0.192 -0.34298,-0.2716 -0.54342,-0.192 l -2.21823,0.8952 c -0.4588,-0.352 -0.96213,-0.6504 -1.50554,-0.8774 l -0.33406,-2.3608 C 239.85263,490.1648 239.66991,490 239.44718,490 h -3.5634 c -0.22272,0 -0.40536,0.164 -0.441,0.3742 l -0.33405,2.3608 c -0.54342,0.227 -1.04675,0.521 -1.50554,0.8774 l -2.21824,-0.8952 c -0.20044,-0.076 -0.43205,0 -0.54341,0.192 l -1.78172,3.087 c -0.1114,0.192 -0.0624,0.432 0.107,0.5702 l 1.87968,1.4743 c -0.0356,0.285 -0.0624,0.5744 -0.0624,0.8684 0,0.294 0.0268,0.5836 0.0624,0.8686 l -1.87968,1.4744 c -0.1692,0.134 -0.21828,0.3742 -0.107,0.5702 l 1.78172,3.0868 c 0.1114,0.192 0.34297,0.2716 0.54341,0.192 l 2.21824,-0.8954 c 0.45879,0.3518 0.96212,0.6504 1.50554,0.8774 l 0.33405,2.361 c 0.0356,0.2094 0.21828,0.3742 0.441,0.3742 h 3.5634 c 0.22273,0 0.40535,-0.164 0.44099,-0.3742 l 0.33406,-2.361 c 0.54343,-0.227 1.04676,-0.521 1.50554,-0.8774 l 2.21823,0.8954 c 0.20044,0.076 0.43208,0 0.54342,-0.192 l 1.78172,-3.0868 c 0.1114,-0.192 0.0624,-0.432 -0.107,-0.5702 z m -6.61904,2.2496 c -1.72382,0 -3.11801,-1.3944 -3.11801,-3.1182 0,-1.7238 1.39419,-3.1179 3.11801,-3.1179 1.72378,0 3.11798,1.3941 3.11798,3.1179 0,1.7238 -1.3942,3.1182 -3.11798,3.1182 z"
       id="path4276"
       inkscape:connector-curvature="0"
       style="display:inline;fill:#9fa8da;fill-opacity:1;enable-background:new" />
    <path
       style="display:inline;fill:#9fa8da;fill-opacity:1;enable-background:new"
       inkscape:connector-curvature="0"
       id="path4278"
       d="m 249.43049,513.4048 c 0.0208,-0.164 0.0366,-0.3284 0.0366,-0.4966 0,-0.168 -0.016,-0.3332 -0.0366,-0.4962 l 1.1066,-0.8426 c 0.0994,-0.078 0.1282,-0.2138 0.0628,-0.326 l -1.04642,-1.7637 c -0.0654,-0.11 -0.20141,-0.156 -0.31913,-0.11 l -1.3028,0.5116 c -0.26942,-0.2012 -0.56506,-0.3714 -0.8842,-0.5014 l -0.19619,-1.3492 c -0.0236,-0.12 -0.1308,-0.2138 -0.2616,-0.2138 h -2.09283 c -0.1308,0 -0.23806,0.094 -0.25898,0.2138 l -0.1962,1.3492 c -0.31915,0.13 -0.61477,0.2978 -0.88423,0.5014 l -1.30276,-0.5116 c -0.1178,-0.044 -0.25378,0 -0.31918,0.11 l -1.04642,1.7637 c -0.0654,0.11 -0.0366,0.247 0.0628,0.326 l 1.10396,0.8426 c -0.0208,0.164 -0.0366,0.3282 -0.0366,0.4962 0,0.168 0.016,0.3336 0.0366,0.4966 l -1.10396,0.8424 c -0.0994,0.078 -0.1282,0.2138 -0.0628,0.3258 l 1.04642,1.7642 c 0.0654,0.11 0.20144,0.156 0.31916,0.11 l 1.30278,-0.5116 c 0.26946,0.201 0.56508,0.3716 0.88423,0.5014 l 0.1962,1.3492 c 0.0208,0.12 0.1282,0.2138 0.25898,0.2138 h 2.09283 c 0.1308,0 0.23806,-0.094 0.25898,-0.2138 l 0.19619,-1.3492 c 0.31914,-0.13 0.61476,-0.2978 0.88422,-0.5014 l 1.30278,0.5116 c 0.1178,0.042 0.25375,0 0.31915,-0.11 l 1.04642,-1.7642 c 0.0654,-0.11 0.0366,-0.2466 -0.0628,-0.3258 z m -3.88741,1.2854 c -1.0124,0 -1.83121,-0.7966 -1.83121,-1.782 0,-0.985 0.81881,-1.7818 1.83121,-1.7818 1.01242,0 1.83122,0.7968 1.83122,1.7818 0,0.9852 -0.8188,1.782 -1.83122,1.782 z" />
    <path
       style="display:inline;fill:#9fa8da;fill-opacity:1;stroke-width:8;enable-background:new"
       inkscape:connector-curvature="0"
       id="path4919"
       d="m 579.27569,308.2216 c 0.2848,-2.28 0.4992,-4.5968 0.4992,-6.9488 0,-2.352 -0.2144,-4.6672 -0.4992,-6.9472 l 15.07312,-11.7944 c 1.3536,-1.072 1.74624,-2.9936 0.856,-4.5616 l -14.25376,-24.696 c -0.8912,-1.536 -2.74384,-2.1728 -4.34736,-1.536 l -17.74584,7.1616 c -3.6704,-2.816 -7.69704,-5.2032 -12.04432,-7.0192 l -2.67248,-18.8864 c -0.32,-1.6752 -1.78176,-2.9936 -3.5636,-2.9936 h -28.5072 c -1.78176,0 -3.24288,1.312 -3.528,2.9936 l -2.6724,18.8864 c -4.34736,1.816 -8.374,4.168 -12.04432,7.0192 l -17.74592,-7.1616 c -1.60352,-0.608 -3.4564,0 -4.34728,1.536 l -14.25376,24.696 c -0.8912,1.536 -0.4992,3.456 0.856,4.5616 l 15.03744,11.7944 c -0.2848,2.28 -0.4992,4.5952 -0.4992,6.9472 0,2.352 0.2144,4.6688 0.4992,6.9488 l -15.03744,11.7952 c -1.3536,1.072 -1.74624,2.9936 -0.856,4.5616 l 14.25376,24.6944 c 0.8912,1.536 2.74376,2.1728 4.34728,1.536 l 17.74592,-7.1632 c 3.67032,2.8144 7.69696,5.2032 12.04432,7.0192 l 2.6724,18.888 c 0.2848,1.6752 1.74624,2.9936 3.528,2.9936 h 28.5072 c 1.78184,0 3.2428,-1.312 3.52792,-2.9936 l 2.67248,-18.888 c 4.34744,-1.816 8.37408,-4.168 12.04432,-7.0192 l 17.74584,7.1632 c 1.60352,0.608 3.45664,0 4.34736,-1.536 l 14.25376,-24.6944 c 0.8912,-1.536 0.4992,-3.456 -0.856,-4.5616 z m -52.95232,17.9968 c -13.79056,0 -24.94408,-11.1552 -24.94408,-24.9456 0,-13.7904 11.15352,-24.9432 24.94408,-24.9432 13.79024,0 24.94384,11.1528 24.94384,24.9432 0,13.7904 -11.1536,24.9456 -24.94384,24.9456 z" />
    <path
       d="m 620.44393,417.2384 c 0.1664,-1.312 0.2928,-2.6272 0.2928,-3.9728 0,-1.344 -0.128,-2.6656 -0.2928,-3.9696 l 8.8528,-6.7408 c 0.7952,-0.624 1.0256,-1.7104 0.5024,-2.608 l -8.37136,-14.1096 c -0.5232,-0.88 -1.61128,-1.248 -2.55304,-0.88 l -10.4224,4.0928 c -2.15536,-1.6096 -4.52048,-2.9712 -7.0736,-4.0112 l -1.56952,-10.7936 c -0.1888,-0.96 -1.0464,-1.7104 -2.0928,-1.7104 h -16.74264 c -1.0464,0 -1.90448,0.752 -2.07184,1.7104 l -1.5696,10.7936 c -2.5532,1.04 -4.91816,2.3824 -7.07384,4.0112 l -10.42208,-4.0928 c -0.9424,-0.352 -2.03024,0 -2.55344,0.88 l -8.37136,14.1096 c -0.5232,0.88 -0.2928,1.976 0.5024,2.608 l 8.83168,6.7408 c -0.1664,1.312 -0.2928,2.6256 -0.2928,3.9696 0,1.344 0.128,2.6688 0.2928,3.9728 l -8.83168,6.7392 c -0.7952,0.624 -1.0256,1.7104 -0.5024,2.6064 l 8.37136,14.1136 c 0.5232,0.88 1.61152,1.248 2.55328,0.88 l 10.42224,-4.0928 c 2.15568,1.608 4.52064,2.9728 7.07384,4.0112 l 1.5696,10.7936 c 0.1664,0.96 1.0256,1.7104 2.07184,1.7104 h 16.74264 c 1.0464,0 1.90448,-0.752 2.07184,-1.7104 l 1.56952,-10.7936 c 2.55312,-1.04 4.91808,-2.3824 7.07376,-4.0112 l 10.42224,4.0928 c 0.9424,0.336 2.03,0 2.5532,-0.88 l 8.37136,-14.1136 c 0.5232,-0.88 0.2928,-1.9728 -0.5024,-2.6064 z m -31.09928,10.2832 c -8.0992,0 -14.64968,-6.3728 -14.64968,-14.256 0,-7.88 6.55048,-14.2544 14.64968,-14.2544 8.09936,0 14.64976,6.3744 14.64976,14.2544 0,7.8816 -6.5504,14.256 -14.64976,14.256 z"
       id="path4921"
       inkscape:connector-curvature="0"
       style="display:inline;fill:#9fa8da;fill-opacity:1;stroke-width:8;enable-background:new" />
  </g>
</svg>
