<?xml version="1.0" encoding="UTF-8" standalone="no"?>
<svg
   xmlns:dc="http://purl.org/dc/elements/1.1/"
   xmlns:cc="http://creativecommons.org/ns#"
   xmlns:rdf="http://www.w3.org/1999/02/22-rdf-syntax-ns#"
   xmlns:svg="http://www.w3.org/2000/svg"
   xmlns="http://www.w3.org/2000/svg"
   xmlns:xlink="http://www.w3.org/1999/xlink"
   xmlns:sodipodi="http://sodipodi.sourceforge.net/DTD/sodipodi-0.dtd"
   xmlns:inkscape="http://www.inkscape.org/namespaces/inkscape"
   width="48"
   height="48"
   viewBox="0 0 48 48"
   id="svg2"
   version="1.1"
   inkscape:version="0.91 r13725"
   sodipodi:docname="preferences-system.svg">
  <metadata
     id="metadata12">
    <rdf:RDF>
      <cc:Work
         rdf:about="">
        <dc:format>image/svg+xml</dc:format>
        <dc:type
           rdf:resource="http://purl.org/dc/dcmitype/StillImage" />
        <dc:title />
      </cc:Work>
    </rdf:RDF>
  </metadata>
  <defs
     id="defs10">
    <linearGradient
       inkscape:collect="always"
       xlink:href="#linearGradient4165"
       id="linearGradient4171-1"
       x1="7"
       y1="1011.3622"
       x2="41.000019"
       y2="1045.3622"
       gradientUnits="userSpaceOnUse"
       gradientTransform="matrix(0.9565144,0,0,0.95652174,2.0287338,-960.03014)" />
    <linearGradient
       inkscape:collect="always"
       id="linearGradient4165">
      <stop
         style="stop-color:#ffffff;stop-opacity:0.15000001"
         offset="0"
         id="stop4167" />
      <stop
         style="stop-color:#177ed5;stop-opacity:0;"
         offset="1"
         id="stop4169" />
    </linearGradient>
    <linearGradient
       inkscape:collect="always"
       xlink:href="#linearGradient4165"
       id="linearGradient4171-1-9"
       x1="7"
       y1="1011.3622"
       x2="41.000019"
       y2="1045.3622"
       gradientUnits="userSpaceOnUse"
       gradientTransform="matrix(0.86956058,0,0,0.86956487,3.130441,-870.2274)" />
  </defs>
  <sodipodi:namedview
     pagecolor="#6d6d6d"
     bordercolor="#666666"
     borderopacity="1"
     objecttolerance="10"
     gridtolerance="10"
     guidetolerance="10"
     inkscape:pageopacity="0"
     inkscape:pageshadow="2"
     inkscape:window-width="1920"
     inkscape:window-height="1001"
     id="namedview8"
     showgrid="false"
     inkscape:zoom="9.8333333"
     inkscape:cx="-3.3656094"
     inkscape:cy="17.32009"
     inkscape:window-x="0"
     inkscape:window-y="0"
     inkscape:window-maximized="1"
     inkscape:current-layer="svg2" />
  <ellipse
     style="fill:#263238;fill-opacity:1;stroke:none;stroke-width:2;stroke-linecap:round;stroke-linejoin:round;stroke-miterlimit:4;stroke-dasharray:none;stroke-opacity:1"
     id="path4136"
     cx="24.000107"
     cy="23.999983"
     rx="19.999893"
     ry="19.999992" />
  <path
     style="fill:#ffffff;fill-opacity:0.2;stroke:none;stroke-width:2;stroke-linecap:round;stroke-linejoin:round;stroke-miterlimit:4;stroke-dasharray:none;stroke-opacity:1"
     d="M 23.999893,3.9999998 A 19.999893,19.999992 0 0 0 4,24 19.999893,19.999992 0 0 0 4.0089,24.2664 19.999893,19.999992 0 0 1 23.999891,4.4545998 19.999893,19.999992 0 0 1 43.990907,24.1882 19.999893,19.999992 0 0 0 43.999807,24 19.999893,19.999992 0 0 0 23.999913,3.9999998 Z"
     id="circle4149"
     inkscape:connector-curvature="0" />
  <path
     inkscape:connector-curvature="0"
     id="path4155"
     d="M 23.999893,44 A 19.999893,19.999992 0 0 1 4,24 19.999893,19.999992 0 0 1 4.0089,23.7336 19.999893,19.999992 0 0 0 23.999911,43.5455 19.999893,19.999992 0 0 0 43.990927,23.8118 19.999893,19.999992 0 0 1 43.999827,24 19.999893,19.999992 0 0 1 23.999933,44 Z"
     style="fill:#000000;fill-opacity:0.2;stroke:none;stroke-width:2;stroke-linecap:round;stroke-linejoin:round;stroke-miterlimit:4;stroke-dasharray:none;stroke-opacity:1" />
  <path
     style="fill:url(#linearGradient4171-1-9);fill-opacity:1;stroke:none;stroke-width:2;stroke-linecap:round;stroke-linejoin:round;stroke-miterlimit:4;stroke-dasharray:none;stroke-opacity:1"
     d="M 23.999894,4.0002 A 19.999684,19.999985 0 0 0 22.281153,4.0862 19.999683,19.999985 0 0 0 21.338563,4.2 19.999684,19.999985 0 0 0 20.299167,4.3579 19.999683,19.999985 0 0 0 19.370164,4.5668 19.999684,19.999985 0 0 0 18.368132,4.8216 19.999683,19.999985 0 0 0 17.444223,5.129 19.999684,19.999985 0 0 0 16.476157,5.4823 19.999683,19.999985 0 0 0 15.589613,5.8797 19.999684,19.999985 0 0 0 14.672499,6.323 19.999683,19.999985 0 0 0 13.818223,6.8121 19.999684,19.999985 0 0 0 12.950361,7.3437 19.999683,19.999985 0 0 0 12.153829,7.9143 19.999684,19.999985 0 0 0 11.342013,8.5325 19.999683,19.999985 0 0 0 10.625305,9.1609 19.999684,19.999985 0 0 0 9.855947,9.8773 19.999683,19.999985 0 0 0 4,24 19.999683,19.999985 0 0 0 9.633462,37.913 l 0.02887,0 a 19.999684,19.999985 0 0 0 14.33756,6.087 19.999684,19.999985 0 0 0 1.698361,-0.086 19.999683,19.999985 0 0 0 0.98335,-0.1189 19.999684,19.999985 0 0 0 1.019017,-0.1545 19.999683,19.999985 0 0 0 0.929003,-0.2088 19.999684,19.999985 0 0 0 1.002032,-0.2548 19.999683,19.999985 0 0 0 0.923909,-0.3074 19.999684,19.999985 0 0 0 0.968065,-0.3534 19.999683,19.999985 0 0 0 0.886545,-0.3973 19.999684,19.999985 0 0 0 0.917114,-0.4433 19.999683,19.999985 0 0 0 0.854275,-0.4892 19.999684,19.999985 0 0 0 0.867862,-0.5315 19.999683,19.999985 0 0 0 0.796532,-0.5707 19.999684,19.999985 0 0 0 0.811817,-0.6182 19.999683,19.999985 0 0 0 0.716707,-0.6283 19.999684,19.999985 0 0 0 0.769358,-0.7168 19.999683,19.999985 0 0 0 5.855947,-14.1212 19.999683,19.999985 0 0 0 -5.63516,-13.9131 l -0.02717,0 A 19.999684,19.999985 0 0 0 23.999893,3.9997 Z"
     id="circle4163-3-7"
     inkscape:connector-curvature="0" />
  <path
     style="fill:#90a4ae;fill-opacity:1"
     d="m 19.47253,2 c -0.5653,0 -1.028723,0.4068249 -1.119171,0.9238281 L 17.575993,8.271484 a 17.000475,17 0 0 0 -4.246212,2.511719 L 8.0522895,8.710938 C 7.54352,8.523906 6.9559949,8.710594 6.6733447,9.183594 L 2.151734,16.806641 c -0.28265,0.473 -0.1581326,1.067206 0.2714919,1.408203 l 4.7364605,3.615234 A 17.000475,17 0 0 0 6.9995257,24 17.000475,17 0 0 0 7.1557801,26.171875 l -4.7325542,3.613281 c -0.4296275,0.33 -0.5541447,0.924203 -0.2714919,1.408203 l 4.5216107,7.623047 c 0.2826498,0.473 0.8701753,0.670657 1.3789448,0.472656 L 13.323921,37.21875 a 17.000475,17 0 0 0 4.252072,2.507812 l 0.777366,5.34961 C 18.443807,45.593172 18.907229,46 19.47253,46 l 9.045175,0 c 0.565297,0 1.028724,-0.406828 1.119172,-0.923828 l 0.777365,-5.34375 a 17.000475,17 0 0 0 4.252073,-2.513672 l 5.269678,2.070312 c 0.508773,0.186969 1.096295,3.44e-4 1.378945,-0.472656 l 4.523564,-7.623047 c 0.28265,-0.473 0.158103,-1.067203 -0.271492,-1.408203 L 40.838362,26.177734 A 17.000475,17 0 0 0 41.000476,24 17.000475,17 0 0 0 40.842268,21.818359 l 4.734508,-3.603515 c 0.429627,-0.329997 0.554141,-0.924203 0.271491,-1.408203 l -4.52161,-7.623047 c -0.28265,-0.473 -0.870174,-0.670656 -1.378945,-0.472656 L 34.67608,10.78125 A 17.000475,17 0 0 0 30.424008,8.273438 L 29.646643,2.9238281 C 29.544897,2.4068249 29.083003,2 28.517705,2 L 19.47253,2 Z m 4.527471,14 a 8.0002236,8 0 0 1 8.000223,8 8.0002236,8 0 0 1 -8.000223,8 8.0002236,8 0 0 1 -8.000224,-8 8.0002236,8 0 0 1 0.03906,-0.798828 A 8.0002236,8 0 0 1 24.000001,16 Z"
     id="path6"
     inkscape:connector-curvature="0" />
  <path
     style="fill:#ffffff;fill-opacity:0.2"
     d="M 19.472656 2 C 18.907356 2 18.443964 2.4068249 18.353516 2.9238281 L 17.576172 8.2714844 A 17.000475 17 0 0 0 13.330078 10.783203 L 8.0527344 8.7109375 C 7.5439649 8.5239055 6.9564783 8.7105938 6.6738281 9.1835938 L 2.1523438 16.806641 C 2.0013438 17.059331 1.9732116 17.344587 2.0390625 17.609375 C 2.0637009 17.505983 2.0946884 17.403124 2.1523438 17.306641 L 6.6738281 9.6835938 C 6.9564783 9.2105938 7.5439649 9.0239055 8.0527344 9.2109375 L 13.330078 11.283203 A 17.000475 17 0 0 1 17.576172 8.7714844 L 18.353516 3.4238281 C 18.443964 2.9068249 18.907356 2.5 19.472656 2.5 L 28.517578 2.5 C 29.082876 2.5 29.544738 2.9068249 29.646484 3.4238281 L 30.423828 8.7734375 A 17.000475 17 0 0 1 34.675781 11.28125 L 39.947266 9.2109375 C 40.456037 9.0129375 41.043522 9.2105937 41.326172 9.6835938 L 45.847656 17.306641 C 45.90549 17.405672 45.936322 17.510182 45.960938 17.615234 C 46.026276 17.351258 45.998367 17.064712 45.847656 16.806641 L 41.326172 9.1835938 C 41.043522 8.7105937 40.456037 8.5129375 39.947266 8.7109375 L 34.675781 10.78125 A 17.000475 17 0 0 0 30.423828 8.2734375 L 29.646484 2.9238281 C 29.544738 2.4068249 29.082876 2 28.517578 2 L 19.472656 2 z M 40.898438 22.275391 L 40.841797 22.318359 A 17.000475 17 0 0 1 40.992188 24.351562 A 17.000475 17 0 0 0 41 24 A 17.000475 17 0 0 0 40.898438 22.275391 z M 7.1191406 22.298828 A 17.000475 17 0 0 0 7 24 A 17.000475 17 0 0 0 7.0078125 24.150391 A 17.000475 17 0 0 1 7.1601562 22.330078 L 7.1191406 22.298828 z M 31.990234 24.207031 A 8.0002236 8 0 0 1 24 32 A 8.0002236 8 0 0 1 16.009766 24.292969 A 8.0002236 8 0 0 0 16 24.5 A 8.0002236 8 0 0 0 24 32.5 A 8.0002236 8 0 0 0 32 24.5 A 8.0002236 8 0 0 0 31.990234 24.207031 z M 40.878906 26.208984 A 17.000475 17 0 0 1 40.837891 26.677734 L 45.566406 30.285156 C 45.766499 30.443984 45.893756 30.659768 45.951172 30.890625 C 46.047314 30.487149 45.908372 30.056599 45.566406 29.785156 L 40.878906 26.208984 z M 7.0996094 26.214844 L 2.4238281 29.785156 C 2.0821071 30.047635 1.9433751 30.476395 2.0390625 30.884766 C 2.0962639 30.653667 2.22328 30.439199 2.4238281 30.285156 L 7.15625 26.671875 A 17.000475 17 0 0 1 7.0996094 26.214844 z "
     id="path4192" />
  <path
     id="path4197"
     d="m 19.473047,46 c -0.5653,0 -1.028692,-0.406825 -1.11914,-0.923828 L 17.576563,39.728516 A 17.000475,17 0 0 1 13.330469,37.216797 L 8.0531253,39.289062 C 7.5443558,39.476095 6.9568692,39.289406 6.674219,38.816406 L 2.1527347,31.193359 c -0.151,-0.25269 -0.1791322,-0.537946 -0.1132813,-0.802734 0.024638,0.103392 0.055626,0.206251 0.1132813,0.302734 l 4.5214843,7.623047 c 0.2826502,0.473 0.8701368,0.659689 1.3789063,0.472656 l 5.2773437,-2.072265 a 17.000475,17 0 0 0 4.246094,2.511719 l 0.777344,5.347656 C 18.444355,45.093175 18.907747,45.5 19.473047,45.5 l 9.044922,0 c 0.565298,0 1.02716,-0.406825 1.128906,-0.923828 l 0.777344,-5.34961 a 17.000475,17 0 0 0 4.251953,-2.507812 l 5.271485,2.070312 c 0.508771,0.198 1.096256,3.44e-4 1.378906,-0.472656 l 4.521484,-7.623047 c 0.05783,-0.09903 0.08867,-0.203541 0.113282,-0.308593 0.06534,0.263976 0.03743,0.550522 -0.113282,0.808593 l -4.521484,7.623047 c -0.28265,0.473 -0.870135,0.670656 -1.378906,0.472656 L 34.676172,37.21875 a 17.000475,17 0 0 1 -4.251953,2.507812 l -0.777344,5.34961 C 29.545129,45.593175 29.083267,46 28.517969,46 l -9.044922,0 z m 21.425782,-20.275391 -0.05664,-0.04297 A 17.000475,17 0 0 0 40.992579,23.648438 17.000475,17 0 0 1 41.000391,24 17.000475,17 0 0 1 40.898829,25.724609 Z M 7.1195315,25.701172 A 17.000475,17 0 0 1 7.0003909,24 a 17.000475,17 0 0 1 0.00781,-0.150391 17.000475,17 0 0 0 0.1523437,1.820313 l -0.041016,0.03125 z M 31.990625,23.792969 A 8.0002236,8 0 0 0 24.000391,16 8.0002236,8 0 0 0 16.010157,23.707031 8.0002236,8 0 0 1 16.000391,23.5 a 8.0002236,8 0 0 1 8,-8 8.0002236,8 0 0 1 8,8 8.0002236,8 0 0 1 -0.0098,0.292969 z m 8.888672,-2.001953 a 17.000475,17 0 0 0 -0.04102,-0.46875 l 4.728515,-3.607422 c 0.200093,-0.158828 0.32735,-0.374612 0.384766,-0.605469 0.09614,0.403476 -0.0428,0.834026 -0.384766,1.105469 l -4.6875,3.576172 z M 7.1000003,21.785156 2.424219,18.214844 c -0.341721,-0.262479 -0.480453,-0.691239 -0.3847656,-1.09961 0.057201,0.231099 0.1842175,0.445567 0.3847656,0.59961 l 4.7324219,3.613281 a 17.000475,17 0 0 0 -0.056641,0.457031 z"
     style="fill:#000000;fill-opacity:0.2"
     inkscape:connector-curvature="0" />
  <path
     style="fill:url(#linearGradient4171-1);fill-opacity:1;stroke:none;stroke-width:2;stroke-linecap:round;stroke-linejoin:round;stroke-miterlimit:4;stroke-dasharray:none;stroke-opacity:1"
     d="m 19.472656,2 c -0.5653,0 -1.028692,0.406825 -1.11914,0.923828 l -0.777344,5.347656 a 17.000475,17 0 0 0 -4.246094,2.511719 L 8.0527344,8.710938 C 7.5439649,8.523906 6.9564783,8.710594 6.6738281,9.183594 l -4.5214843,7.623047 c -0.2826501,0.473 -0.1581402,1.067206 0.2714843,1.408203 l 4.7363281,3.615234 A 17.000475,17 0 0 0 7,24 17.000475,17 0 0 0 7.15625,26.171875 l -4.7324219,3.613281 c -0.4296275,0.33 -0.5541371,0.924203 -0.2714843,1.408203 l 4.5214843,7.623047 c 0.2826498,0.473 0.8701368,0.670657 1.3789063,0.472656 L 13.324219,37.21875 a 17.000475,17 0 0 0 4.251953,2.507812 l 0.777344,5.34961 C 18.443964,45.593172 18.907355,46 19.472656,46 l 9.044922,0 c 0.565297,0 1.028693,-0.406828 1.119141,-0.923828 l 0.777343,-5.34375 a 17.000475,17 0 0 0 4.251954,-2.513672 l 5.269531,2.070312 c 0.508773,0.186969 1.096256,3.44e-4 1.378906,-0.472656 l 4.523438,-7.623047 c 0.28265,-0.473 0.15811,-1.067203 -0.271485,-1.408203 L 40.837891,26.177734 A 17.000475,17 0 0 0 41,24 17.000475,17 0 0 0 40.841797,21.818359 l 4.734375,-3.603515 c 0.429627,-0.329997 0.554134,-0.924203 0.271484,-1.408203 L 41.326172,9.183594 c -0.28265,-0.473 -0.870135,-0.670656 -1.378906,-0.472656 L 34.675781,10.78125 A 17.000475,17 0 0 0 30.423828,8.273438 L 29.646484,2.923828 C 29.544738,2.406825 29.082876,2 28.517578,2 L 19.472656,2 Z M 24,16 a 8.0002236,8 0 0 1 8,8 8.0002236,8 0 0 1 -8,8 8.0002236,8 0 0 1 -8,-8 8.0002236,8 0 0 1 0.03906,-0.798828 A 8.0002236,8 0 0 1 24,16 Z"
     id="circle4163-3"
     inkscape:connector-curvature="0" />
</svg>
