<?xml version="1.0" encoding="UTF-8" standalone="no"?>
<!-- Created with Inkscape (http://www.inkscape.org/) -->

<svg
   xmlns:dc="http://purl.org/dc/elements/1.1/"
   xmlns:cc="http://creativecommons.org/ns#"
   xmlns:rdf="http://www.w3.org/1999/02/22-rdf-syntax-ns#"
   xmlns:svg="http://www.w3.org/2000/svg"
   xmlns="http://www.w3.org/2000/svg"
   xmlns:xlink="http://www.w3.org/1999/xlink"
   xmlns:sodipodi="http://sodipodi.sourceforge.net/DTD/sodipodi-0.dtd"
   xmlns:inkscape="http://www.inkscape.org/namespaces/inkscape"
   width="48"
   height="48"
   viewBox="0 0 48 48.000001"
   id="svg2"
   version="1.1"
   inkscape:version="0.91 r13725"
   sodipodi:docname="avatar-default.svg"
   inkscape:export-filename="/home/poltertec/Downloads/testikel2.png"
   inkscape:export-xdpi="360"
   inkscape:export-ydpi="360">
  <defs
     id="defs4">
    <filter
       style="color-interpolation-filters:sRGB"
       inkscape:label="Drop Shadow"
       id="filter4630">
      <feFlood
         flood-opacity="1"
         flood-color="rgb(0,0,0)"
         result="flood"
         id="feFlood4632" />
      <feComposite
         in="flood"
         in2="SourceGraphic"
         operator="in"
         result="composite1"
         id="feComposite4634" />
      <feGaussianBlur
         in="composite1"
         stdDeviation="0.5"
         result="blur"
         id="feGaussianBlur4636" />
      <feOffset
         dx="0"
         dy="0.5"
         result="offset"
         id="feOffset4638" />
      <feComposite
         in="SourceGraphic"
         in2="offset"
         operator="over"
         result="composite2"
         id="feComposite4640" />
    </filter>
    <linearGradient
       inkscape:collect="always"
       id="linearGradient4165">
      <stop
         style="stop-color:#ffffff;stop-opacity:0.15000001"
         offset="0"
         id="stop4167" />
      <stop
         style="stop-color:#177ed5;stop-opacity:0;"
         offset="1"
         id="stop4169" />
    </linearGradient>
    <linearGradient
       inkscape:collect="always"
       xlink:href="#linearGradient4165"
       id="linearGradient4171-1"
       x1="7"
       y1="1011.3622"
       x2="41.000019"
       y2="1045.3622"
       gradientUnits="userSpaceOnUse"
       gradientTransform="matrix(0.95652174,0,0,0.95652174,1.04348,44.711663)" />
  </defs>
  <sodipodi:namedview
     id="base"
     pagecolor="#000000"
     bordercolor="#666666"
     borderopacity="1.0"
     inkscape:pageopacity="0"
     inkscape:pageshadow="2"
     inkscape:zoom="2.125"
     inkscape:cx="-47.403787"
     inkscape:cy="7.0827253"
     inkscape:document-units="px"
     inkscape:current-layer="layer1"
     showgrid="true"
     units="px"
     inkscape:window-width="959"
     inkscape:window-height="1011"
     inkscape:window-x="960"
     inkscape:window-y="0"
     inkscape:window-maximized="0"
     inkscape:showpageshadow="false">
    <inkscape:grid
       type="xygrid"
       id="grid4140" />
  </sodipodi:namedview>
  <metadata
     id="metadata7">
    <rdf:RDF>
      <cc:Work
         rdf:about="">
        <dc:format>image/svg+xml</dc:format>
        <dc:type
           rdf:resource="http://purl.org/dc/dcmitype/StillImage" />
        <dc:title />
      </cc:Work>
    </rdf:RDF>
  </metadata>
  <g
     inkscape:label="Laag 1"
     inkscape:groupmode="layer"
     id="layer1"
     transform="translate(0,-1004.3622)">
    <circle
       style="fill:#009688;fill-opacity:1;stroke:none;stroke-width:2;stroke-linecap:round;stroke-linejoin:round;stroke-miterlimit:4;stroke-dasharray:none;stroke-opacity:1"
       id="path4136"
       cx="24.000235"
       cy="1028.3622"
       r="22" />
    <path
       style="fill:#ffffff;fill-opacity:0.2;stroke:none;stroke-width:2;stroke-linecap:round;stroke-linejoin:round;stroke-miterlimit:4;stroke-dasharray:none;stroke-opacity:1"
       d="M 24 2 A 22 22 0 0 0 2 24 A 22 22 0 0 0 2.0214844 24.585938 A 22 22 0 0 1 24 3 A 22 22 0 0 1 45.978516 24.414062 A 22 22 0 0 0 46 24 A 22 22 0 0 0 24 2 z "
       transform="translate(0,1004.3622)"
       id="circle4150" />
    <path
       id="path4155"
       d="m 24,1050.3622 a 22,22 0 0 1 -22,-22 22,22 0 0 1 0.021484,-0.5859 A 22,22 0 0 0 24,1049.3622 a 22,22 0 0 0 21.978516,-21.414 22,22 0 0 1 0.02148,0.414 22,22 0 0 1 -22,22 z"
       style="fill:#000000;fill-opacity:0.2;stroke:none;stroke-width:2;stroke-linecap:round;stroke-linejoin:round;stroke-miterlimit:4;stroke-dasharray:none;stroke-opacity:1"
       inkscape:connector-curvature="0" />
    <path
       inkscape:connector-curvature="0"
       id="path4163"
       d="m 25,1015.3618 c -3.31,0 -6,2.69 -6,6 0,3.32 2.69,6 6,6 3.31,0 6,-2.68 6,-6 0,-3.31 -2.69,-6 -6,-6 z m 0,15.8008 c -3.99,0 -11.95,2.1901 -12,6.1601 2.59,3.88 6.99,6.4395 12,6.4395 5.01,0 9.41,-2.5595 12,-6.4395 -0.06,-3.97 -8.01,-6.1601 -12,-6.1601 z"
       style="opacity:1;fill:#000000;fill-opacity:0.2;stroke:none;stroke-width:1.66600001;stroke-linecap:round;stroke-linejoin:round;stroke-miterlimit:4;stroke-dasharray:none;stroke-opacity:1" />
    <path
       style="opacity:1;fill:#f5f5f5;fill-opacity:1;stroke:none;stroke-width:1.66600001;stroke-linecap:round;stroke-linejoin:round;stroke-miterlimit:4;stroke-dasharray:none;stroke-opacity:1"
       d="m 24,1014.3622 c -3.31,0 -6,2.69 -6,6 0,3.32 2.69,6 6,6 3.31,0 6,-2.68 6,-6 0,-3.31 -2.69,-6 -6,-6 z m 0,15.8008 c -3.99,0 -11.95,2.1901 -12,6.1601 2.59,3.88 6.99,6.4395 12,6.4395 5.01,0 9.41,-2.5595 12,-6.4395 -0.06,-3.97 -8.01,-6.1601 -12,-6.1601 z"
       id="path4160"
       inkscape:connector-curvature="0" />
    <path
       style="opacity:1;fill:#ffffff;fill-opacity:0.2;stroke:none;stroke-width:1.66600001;stroke-linecap:round;stroke-linejoin:round;stroke-miterlimit:4;stroke-dasharray:none;stroke-opacity:1"
       d="M 24 10 C 20.69 10 18 12.69 18 16 C 18 16.168635 18.011782 16.334935 18.025391 16.5 C 18.280459 13.423726 20.858661 11 24 11 C 27.141339 11 29.719541 13.423726 29.974609 16.5 C 29.988218 16.334935 30 16.168635 30 16 C 30 12.69 27.31 10 24 10 z M 24 25.800781 C 20.01 25.800781 12.05 27.990937 12 31.960938 C 12.042838 32.025111 12.090943 32.084992 12.134766 32.148438 C 13.164233 28.694193 20.291691 26.800781 24 26.800781 C 27.709173 26.800781 34.831559 28.694612 35.865234 32.150391 C 35.909366 32.086513 35.956867 32.025554 36 31.960938 C 35.94 27.990937 27.99 25.800781 24 25.800781 z "
       transform="translate(0,1004.3622)"
       id="path4165" />
    <path
       style="opacity:1;fill:#000000;fill-opacity:0.2;stroke:none;stroke-width:1.66600001;stroke-linecap:round;stroke-linejoin:round;stroke-miterlimit:4;stroke-dasharray:none;stroke-opacity:1"
       d="M 18.025391 15.5 C 18.011696 15.665168 18 15.831339 18 16 C 18 19.32 20.69 22 24 22 C 27.31 22 30 19.32 30 16 C 30 15.831339 29.988304 15.665168 29.974609 15.5 C 29.719541 18.583904 27.141339 21 24 21 C 20.858661 21 18.280459 18.583904 18.025391 15.5 z M 12.134766 31.150391 C 12.056607 31.412713 12.003529 31.680738 12 31.960938 C 14.59 35.840938 18.99 38.400391 24 38.400391 C 29.01 38.400391 33.41 35.840937 36 31.960938 C 35.995778 31.681596 35.943454 31.413918 35.865234 31.152344 C 33.259313 34.923402 28.925994 37.400391 24 37.400391 C 19.073435 37.400391 14.740588 34.922187 12.134766 31.150391 z "
       transform="translate(0,1004.3622)"
       id="path4170" />
    <path
       style="fill:url(#linearGradient4171-1);fill-opacity:1;stroke:none;stroke-width:2;stroke-linecap:round;stroke-linejoin:round;stroke-miterlimit:4;stroke-dasharray:none;stroke-opacity:1"
       d="m 24.000001,1006.3624 a 21.99977,21.999992 0 0 0 -1.890625,0.095 21.999769,21.999992 0 0 0 -1.036855,0.1252 21.99977,21.999992 0 0 0 -1.143342,0.1737 21.999769,21.999992 0 0 0 -1.021909,0.2298 21.99977,21.999992 0 0 0 -1.102241,0.2803 21.999769,21.999992 0 0 0 -1.016305,0.3381 21.99977,21.999992 0 0 0 -1.064878,0.3886 21.999769,21.999992 0 0 0 -0.975204,0.4372 21.99977,21.999992 0 0 0 -1.008831,0.4876 21.999769,21.999992 0 0 0 -0.939708,0.538 21.99977,21.999992 0 0 0 -0.954653,0.5848 21.999769,21.999992 0 0 0 -0.87619,0.6277 21.99977,21.999992 0 0 0 -0.893003,0.68 21.999769,21.999992 0 0 0 -0.788383,0.6912 21.99977,21.999992 0 0 0 -0.846298,0.7881 A 21.999769,21.999992 0 0 0 2,1028.3622 a 21.999769,21.999992 0 0 0 6.196841,15.3043 l 0.03176,0 a 21.99977,21.999992 0 0 0 15.771401,6.6957 21.99977,21.999992 0 0 0 1.868207,-0.094 21.999769,21.999992 0 0 0 1.081691,-0.1308 21.99977,21.999992 0 0 0 1.120924,-0.17 21.999769,21.999992 0 0 0 1.021909,-0.2297 21.99977,21.999992 0 0 0 1.102241,-0.2803 21.999769,21.999992 0 0 0 1.016305,-0.3381 21.99977,21.999992 0 0 0 1.064878,-0.3887 21.999769,21.999992 0 0 0 0.975204,-0.4371 21.99977,21.999992 0 0 0 1.008831,-0.4876 21.999769,21.999992 0 0 0 0.939708,-0.5381 21.99977,21.999992 0 0 0 0.954653,-0.5847 21.999769,21.999992 0 0 0 0.87619,-0.6277 21.99977,21.999992 0 0 0 0.893003,-0.68 21.999769,21.999992 0 0 0 0.788382,-0.6912 21.99977,21.999992 0 0 0 0.846298,-0.7885 21.999769,21.999992 0 0 0 6.441576,-15.5333 21.999769,21.999992 0 0 0 -6.198709,-15.3044 l -0.02989,0 A 21.99977,21.999992 0 0 0 24,1006.3624 Z"
       id="circle4163-3"
       inkscape:connector-curvature="0" />
  </g>
</svg>
