<?xml version="1.0" encoding="UTF-8" standalone="no"?>
<svg
   xmlns:dc="http://purl.org/dc/elements/1.1/"
   xmlns:cc="http://creativecommons.org/ns#"
   xmlns:rdf="http://www.w3.org/1999/02/22-rdf-syntax-ns#"
   xmlns:svg="http://www.w3.org/2000/svg"
   xmlns="http://www.w3.org/2000/svg"
   xmlns:sodipodi="http://sodipodi.sourceforge.net/DTD/sodipodi-0.dtd"
   xmlns:inkscape="http://www.inkscape.org/namespaces/inkscape"
   width="16"
   height="16"
   viewBox="0 0 16 16"
   id="svg2"
   version="1.1"
   inkscape:version="0.91 r13725"
   sodipodi:docname="folder-documents-symbolic.svg">
  <metadata
     id="metadata10">
    <rdf:RDF>
      <cc:Work
         rdf:about="">
        <dc:format>image/svg+xml</dc:format>
        <dc:type
           rdf:resource="http://purl.org/dc/dcmitype/StillImage" />
        <dc:title />
      </cc:Work>
    </rdf:RDF>
  </metadata>
  <defs
     id="defs8" />
  <sodipodi:namedview
     pagecolor="#ffffff"
     bordercolor="#666666"
     borderopacity="1"
     objecttolerance="10"
     gridtolerance="10"
     guidetolerance="10"
     inkscape:pageopacity="0"
     inkscape:pageshadow="2"
     inkscape:window-width="1920"
     inkscape:window-height="1001"
     id="namedview6"
     showgrid="true"
     inkscape:zoom="48.487322"
     inkscape:cx="11.074529"
     inkscape:cy="6.9569693"
     inkscape:window-x="0"
     inkscape:window-y="0"
     inkscape:window-maximized="1"
     inkscape:current-layer="svg2">
    <inkscape:grid
       type="xygrid"
       id="grid4133" />
  </sodipodi:namedview>
  <path
     d="M 3.3754795,1 C 2.6157391,1 2.0076735,1.6268906 2.0076735,2.4003906 L 2.0038367,7 2,7 l 0,6.308594 0,0.291015 c 0,0.614163 0.3864155,1.131425 0.9246599,1.320313 0.011246,0.0041 0.023152,0.006 0.034531,0.0098 C 3.089065,14.971374 3.2239595,15 3.367806,15 l 0.00767,0 8.250958,0 0.0058,0 c 0.143846,0 0.278741,-0.02863 0.408615,-0.07031 0.01137,-0.0038 0.0233,-0.0057 0.03453,-0.0098 C 12.613584,14.731034 13,14.213772 13,13.599609 L 13,13.308594 13,5 9,1 Z"
     id="path4"
     style="fill:#bebebe;fill-opacity:1"
     inkscape:connector-curvature="0"
     sodipodi:nodetypes="sccccsccsccsccscccs" />
</svg>
