<?xml version="1.0" encoding="UTF-8" standalone="no"?>
<svg
   xmlns:dc="http://purl.org/dc/elements/1.1/"
   xmlns:cc="http://creativecommons.org/ns#"
   xmlns:rdf="http://www.w3.org/1999/02/22-rdf-syntax-ns#"
   xmlns:svg="http://www.w3.org/2000/svg"
   xmlns="http://www.w3.org/2000/svg"
   xmlns:sodipodi="http://sodipodi.sourceforge.net/DTD/sodipodi-0.dtd"
   xmlns:inkscape="http://www.inkscape.org/namespaces/inkscape"
   width="16"
   height="16"
   viewBox="0 0 16 16"
   id="svg2"
   version="1.1"
   inkscape:version="0.91 r13725"
   sodipodi:docname="inbox-symbolic.svg">
  <metadata
     id="metadata12">
    <rdf:RDF>
      <cc:Work
         rdf:about="">
        <dc:format>image/svg+xml</dc:format>
        <dc:type
           rdf:resource="http://purl.org/dc/dcmitype/StillImage" />
        <dc:title />
      </cc:Work>
    </rdf:RDF>
  </metadata>
  <defs
     id="defs10" />
  <sodipodi:namedview
     pagecolor="#ffffff"
     bordercolor="#666666"
     borderopacity="1"
     objecttolerance="10"
     gridtolerance="10"
     guidetolerance="10"
     inkscape:pageopacity="0"
     inkscape:pageshadow="2"
     inkscape:window-width="959"
     inkscape:window-height="1000"
     id="namedview8"
     showgrid="true"
     inkscape:zoom="27.812868"
     inkscape:cx="6.0178307"
     inkscape:cy="9.0934149"
     inkscape:window-x="959"
     inkscape:window-y="0"
     inkscape:window-maximized="0"
     inkscape:current-layer="svg2">
    <inkscape:grid
       type="xygrid"
       id="grid3333" />
  </sodipodi:namedview>
  <path
     d="M 13.444444,1 2.5477778,1 c -0.8594445,0 -1.54,0.696111 -1.54,1.555556 L 1,13.444444 C 1,14.303889 1.6883333,15 2.5477778,15 L 13.444444,15 C 14.303889,15 15,14.303889 15,13.444444 L 15,2.555556 C 15,1.696111 14.303889,1 13.444444,1 Z M 13.000055,10.000167 10,10 c 0.03595,1.000167 -0.712778,2 -2,2 -1.287222,0 -2,-1 -2,-2 l -2.9999445,1.67e-4 -1.109e-4,-6.9998335 10.0000004,0 z M 11.111111,6 9,6 9,4 7,4 7,6 4.8888889,6 8,10 Z"
     id="path4"
     inkscape:connector-curvature="0"
     style="fill:#bebebe;fill-opacity:1"
     sodipodi:nodetypes="ssccsssssccsccccccccccccc" />
</svg>
