<?xml version="1.0" encoding="UTF-8" standalone="no"?>
<svg
   xmlns:dc="http://purl.org/dc/elements/1.1/"
   xmlns:cc="http://creativecommons.org/ns#"
   xmlns:rdf="http://www.w3.org/1999/02/22-rdf-syntax-ns#"
   xmlns:svg="http://www.w3.org/2000/svg"
   xmlns="http://www.w3.org/2000/svg"
   xmlns:sodipodi="http://sodipodi.sourceforge.net/DTD/sodipodi-0.dtd"
   xmlns:inkscape="http://www.inkscape.org/namespaces/inkscape"
   width="16"
   height="16"
   viewBox="0 0 16 16"
   id="svg2"
   version="1.1"
   inkscape:version="0.91 r13725"
   sodipodi:docname="audio-volume-muted-symbolic.svg">
  <metadata
     id="metadata10">
    <rdf:RDF>
      <cc:Work
         rdf:about="">
        <dc:format>image/svg+xml</dc:format>
        <dc:type
           rdf:resource="http://purl.org/dc/dcmitype/StillImage" />
        <dc:title />
      </cc:Work>
    </rdf:RDF>
  </metadata>
  <defs
     id="defs8" />
  <sodipodi:namedview
     pagecolor="#ffffff"
     bordercolor="#666666"
     borderopacity="1"
     objecttolerance="10"
     gridtolerance="10"
     guidetolerance="10"
     inkscape:pageopacity="0"
     inkscape:pageshadow="2"
     inkscape:window-width="1248"
     inkscape:window-height="772"
     id="namedview6"
     showgrid="true"
     inkscape:zoom="4.9166665"
     inkscape:cx="-10.212954"
     inkscape:cy="12.51113"
     inkscape:window-x="567"
     inkscape:window-y="213"
     inkscape:window-maximized="0"
     inkscape:current-layer="svg2">
    <inkscape:grid
       type="xygrid"
       id="grid4140" />
  </sodipodi:namedview>
  <path
     inkscape:connector-curvature="0"
     d="M 11,8 C 11,6.823333 10.32,5.806667 9.333333,5.316667 l 0,1.473333 L 10.97,8.426667 C 10.99,8.286667 11,8.143333 11,8 Z m 1.666667,0 c 0,0.626667 -0.136667,1.216667 -0.36,1.76 l 1.01,1.01 C 13.75,9.94 14,9 14,8 14,5.146667 12.003333,2.76 9.333333,2.153334 l 0,1.376666 C 11.26,4.103333 12.666667,5.886667 12.666667,8 Z M 2.85,2 2,2.85 5.15,6 2,6 2,10 4.666667,10 8,13.333333 8,8.85 l 2.836667,2.836667 c -0.446667,0.343333 -0.95,0.62 -1.503334,0.786666 l 0,1.376667 C 10.25,13.64 11.086667,13.22 11.79,12.643333 L 13.15,14 14,13.15 8,7.15 2.85,2 Z M 8,2.666667 6.606667,4.06 8,5.453333 8,2.666667 Z"
     id="path4-3"
     style="fill:#bebebe;fill-opacity:1" />
</svg>
