<?xml version="1.0" encoding="UTF-8" standalone="no"?>
<svg
   xmlns:dc="http://purl.org/dc/elements/1.1/"
   xmlns:cc="http://creativecommons.org/ns#"
   xmlns:rdf="http://www.w3.org/1999/02/22-rdf-syntax-ns#"
   xmlns:svg="http://www.w3.org/2000/svg"
   xmlns="http://www.w3.org/2000/svg"
   xmlns:sodipodi="http://sodipodi.sourceforge.net/DTD/sodipodi-0.dtd"
   xmlns:inkscape="http://www.inkscape.org/namespaces/inkscape"
   width="16"
   height="16"
   viewBox="0 0 16 16"
   id="svg2"
   version="1.1"
   inkscape:version="0.91 r13725"
   sodipodi:docname="battery-caution-symbolic.svg">
  <metadata
     id="metadata10">
    <rdf:RDF>
      <cc:Work
         rdf:about="">
        <dc:format>image/svg+xml</dc:format>
        <dc:type
           rdf:resource="http://purl.org/dc/dcmitype/StillImage" />
        <dc:title></dc:title>
      </cc:Work>
    </rdf:RDF>
  </metadata>
  <defs
     id="defs8" />
  <sodipodi:namedview
     pagecolor="#ffffff"
     bordercolor="#666666"
     borderopacity="1"
     objecttolerance="10"
     gridtolerance="10"
     guidetolerance="10"
     inkscape:pageopacity="0"
     inkscape:pageshadow="2"
     inkscape:window-width="959"
     inkscape:window-height="1000"
     id="namedview6"
     showgrid="true"
     inkscape:zoom="27.812866"
     inkscape:cx="7.8590163"
     inkscape:cy="4.535278"
     inkscape:window-x="938"
     inkscape:window-y="11"
     inkscape:window-maximized="0"
     inkscape:current-layer="svg2">
    <inkscape:grid
       type="xygrid"
       id="grid4133" />
  </sodipodi:namedview>
  <path
     style="opacity:1;fill:#d32f2f;fill-opacity:1;stroke:none;stroke-width:2;stroke-linecap:round;stroke-linejoin:round;stroke-miterlimit:4;stroke-dasharray:none;stroke-opacity:1"
     d="M 4 11 L 4 14 C 4 14.554 4.446 15 5 15 L 11 15 C 11.554 15 12 14.554 12 14 L 12 11 L 10 11 L 8.75 11 L 7 11 L 6 11 L 4 11 z "
     id="rect4142" />
  <path
     style="opacity:1;fill:#bebebe;fill-opacity:0.33000004;stroke:none;stroke-width:2;stroke-linecap:round;stroke-linejoin:round;stroke-miterlimit:4;stroke-dasharray:none;stroke-opacity:1"
     d="M 6 1 L 6 2 L 5 2 C 4.446 2 4 2.446 4 3 L 4 11 L 4.4589844 11 L 7 11 L 8.75 11 L 11 11 L 12 11 L 12 3 C 12 2.446 11.554 2 11 2 L 10 2 L 10 1 L 6 1 z "
     id="rect4230" />
</svg>
