<?xml version="1.0" encoding="UTF-8" standalone="no"?>
<svg
   height="16"
   version="1.1"
   width="16"
   enable-background="new"
   id="svg13"
   sodipodi:docname="media-playlist-shuffle-rtl-symbolic2.svg"
   inkscape:version="1.1 (c68e22c387, 2021-05-23)"
   xmlns:inkscape="http://www.inkscape.org/namespaces/inkscape"
   xmlns:sodipodi="http://sodipodi.sourceforge.net/DTD/sodipodi-0.dtd"
   xmlns="http://www.w3.org/2000/svg"
   xmlns:svg="http://www.w3.org/2000/svg">
  <sodipodi:namedview
     id="namedview15"
     pagecolor="#ffffff"
     bordercolor="#666666"
     borderopacity="1.0"
     inkscape:pageshadow="2"
     inkscape:pageopacity="0.0"
     inkscape:pagecheckerboard="0"
     showgrid="false"
     inkscape:zoom="40"
     inkscape:cx="8"
     inkscape:cy="8"
     inkscape:window-width="1280"
     inkscape:window-height="958"
     inkscape:window-x="0"
     inkscape:window-y="0"
     inkscape:window-maximized="1"
     inkscape:current-layer="layer9" />
  <metadata
     id="metadata90" />
  <defs
     id="defs7386">
    <linearGradient
       id="linearGradient5606"
       inkscape:swatch="solid">
      <stop
         id="stop5608" />
    </linearGradient>
    <filter
       inkscape:collect="always"
       color-interpolation-filters="sRGB"
       id="filter7554">
      <feBlend
         inkscape:collect="always"
         id="feBlend7556"
         in2="BackgroundImage"
         mode="darken" />
    </filter>
  </defs>
  <g
     inkscape:groupmode="layer"
     id="layer9"
     inkscape:label="status"
     transform="translate(-481.0002,203)">
    <path
       inkscape:connector-curvature="0"
       d="m 496.0002,-200 0,0.9375 0,1.0625 -4,0 c -0.5713,0 -1,0.4287 -1,1 l 0,4 c 0,1.6447 -1.3553,3 -3,3 l -5,0 0,-2 5,0 c 0.5713,0 1,-0.4287 1,-1 l 0,-4 c 0,-1.6447 1.3553,-3 3,-3 z"
       id="path5064"
       sodipodi:nodetypes="cccssssccssssc"
       fill="#555555"
       color="#555555" />
    <path
       inkscape:connector-curvature="0"
       d="m 488.0002,-200 c 0.22957,0 0.44085,0.0438 0.65625,0.0937 -0.4813,0.5511 -0.86125,1.1776 -1.0312,1.9062 l -4.625,0 0,-2 5,0 z m 8,10 -4,0 c -0.22957,0 -0.44085,-0.0438 -0.65625,-0.0937 0.4813,-0.55115 0.86125,-1.1777 1.0312,-1.9063 l 3.62505,0 z"
       id="path5066"
       sodipodi:nodetypes="ccccccccscccc"
       fill="#555555"
       color="#555555" />
    <path
       inkscape:connector-curvature="0"
       d="m 485.0002,-202 0,6 -4,-3 z"
       id="path5068"
       fill="#555555" />
    <path
       inkscape:connector-curvature="0"
       d="m 485.0002,-194 0,6 -4,-3 z"
       id="path5070"
       fill="#555555" />
  </g>
</svg>
