<?xml version="1.0" encoding="UTF-8" standalone="no"?>
<svg
   xmlns:dc="http://purl.org/dc/elements/1.1/"
   xmlns:cc="http://creativecommons.org/ns#"
   xmlns:rdf="http://www.w3.org/1999/02/22-rdf-syntax-ns#"
   xmlns:svg="http://www.w3.org/2000/svg"
   xmlns="http://www.w3.org/2000/svg"
   xmlns:sodipodi="http://sodipodi.sourceforge.net/DTD/sodipodi-0.dtd"
   xmlns:inkscape="http://www.inkscape.org/namespaces/inkscape"
   width="16"
   height="16"
   viewBox="0 0 16 16"
   id="svg2"
   version="1.1"
   inkscape:version="0.91 r13725"
   sodipodi:docname="network-wireless-no-route-symbolic.svg">
  <metadata
     id="metadata10">
    <rdf:RDF>
      <cc:Work
         rdf:about="">
        <dc:format>image/svg+xml</dc:format>
        <dc:type
           rdf:resource="http://purl.org/dc/dcmitype/StillImage" />
        <dc:title></dc:title>
      </cc:Work>
    </rdf:RDF>
  </metadata>
  <defs
     id="defs8" />
  <sodipodi:namedview
     pagecolor="#ffffff"
     bordercolor="#666666"
     borderopacity="1"
     objecttolerance="10"
     gridtolerance="10"
     guidetolerance="10"
     inkscape:pageopacity="0"
     inkscape:pageshadow="2"
     inkscape:window-width="960"
     inkscape:window-height="1002"
     id="namedview6"
     showgrid="true"
     inkscape:zoom="27.812866"
     inkscape:cx="5.3722595"
     inkscape:cy="7.3966691"
     inkscape:window-x="766"
     inkscape:window-y="14"
     inkscape:window-maximized="0"
     inkscape:current-layer="svg2">
    <inkscape:grid
       type="xygrid"
       id="grid4133" />
  </sodipodi:namedview>
  <path
     d="m 12.45151,6.488076 c 0.472973,0 0.91256,0.127981 1.302067,0.344992 L 15,5.280604 c -0.267091,-0.205882 -2.960254,-2.40938 -7,-2.40938 -4.0397456,0 -6.7329094,2.203498 -7,2.403816 L 7.9944356,13.988871 8,14 8.00556,13.9944 10.348167,11.07866 C 9.925278,10.594595 9.669316,9.965819 9.669316,9.27027 c 0,-1.535771 1.246423,-2.782194 2.782194,-2.782194 z"
     id="path4-1"
     inkscape:connector-curvature="0"
     style="fill-opacity:0.33000001;fill:#bebebe" />
  <path
     d="m 12.45151,7.322734 c -1.073927,0 -1.947535,0.873609 -1.947535,1.947536 l 0.973767,0 c 0,-0.539745 0.434023,-0.973768 0.973768,-0.973768 0.539746,0 0.973768,0.434023 0.973768,0.973768 0,0.267091 -0.111288,0.511924 -0.283784,0.689984 l -0.606518,0.612083 c -0.350556,0.350556 -0.567567,0.840223 -0.567567,1.374404 l 0,0.244833 0.973767,0 c 0,-0.728935 0.217012,-1.023847 0.573132,-1.374404 l 0.434023,-0.445151 C 14.22655,10.0938 14.40461,9.704293 14.40461,9.275835 14.39901,8.196343 13.525437,7.322734 12.45151,7.322734 Z m -0.528617,6.649444 1.057234,0 0,-1.057234 -1.057234,0 0,1.057234 z"
     id="path6"
     inkscape:connector-curvature="0"
     style="fill:#bebebe;fill-opacity:1" />
</svg>
