<?xml version="1.0" encoding="UTF-8" standalone="no"?>
<svg
   height="16"
   version="1.1"
   width="16"
   enable-background="new"
   id="svg11"
   sodipodi:docname="radio-checked-symbolic2.svg"
   inkscape:version="1.1 (c68e22c387, 2021-05-23)"
   xmlns:inkscape="http://www.inkscape.org/namespaces/inkscape"
   xmlns:sodipodi="http://sodipodi.sourceforge.net/DTD/sodipodi-0.dtd"
   xmlns="http://www.w3.org/2000/svg"
   xmlns:svg="http://www.w3.org/2000/svg">
  <sodipodi:namedview
     id="namedview13"
     pagecolor="#ffffff"
     bordercolor="#666666"
     borderopacity="1.0"
     inkscape:pageshadow="2"
     inkscape:pageopacity="0.0"
     inkscape:pagecheckerboard="0"
     showgrid="false"
     inkscape:zoom="40"
     inkscape:cx="8"
     inkscape:cy="8"
     inkscape:window-width="1280"
     inkscape:window-height="958"
     inkscape:window-x="0"
     inkscape:window-y="0"
     inkscape:window-maximized="1"
     inkscape:current-layer="layer9" />
  <metadata
     id="metadata90" />
  <defs
     id="defs7386">
    <linearGradient
       id="linearGradient5606"
       inkscape:swatch="solid">
      <stop
         id="stop5608" />
    </linearGradient>
    <filter
       inkscape:collect="always"
       color-interpolation-filters="sRGB"
       id="filter7554">
      <feBlend
         inkscape:collect="always"
         id="feBlend7556"
         in2="BackgroundImage"
         mode="darken" />
    </filter>
  </defs>
  <g
     inkscape:groupmode="layer"
     id="layer9"
     inkscape:label="status"
     transform="translate(-560.0002,201)">
    <path
       inkscape:connector-curvature="0"
       d="m 568.0002,-196 c -1.65555,0 -3,1.34444 -3,3 0,1.65555 1.34445,3 3,3 1.65555,0 3,-1.34445 3,-3 0,-1.65556 -1.34445,-3 -3,-3 z"
       id="path9555"
       sodipodi:nodetypes="csssc"
       color="#555555"
       stroke-width="1.781"
       fill="#555555" />
    <path
       inkscape:connector-curvature="0"
       d="m 568.0002,-200 c -3.85772,0 -7,3.14228 -7,7 0,3.85772 3.14228,7 7,7 3.85772,0 7,-3.14227 7,-7 0,-3.85773 -3.14229,-7 -7,-7 z m 0,1 c 3.31633,0 6,2.68367 6,6 0,3.31633 -2.68368,6 -6,6 -3.31634,0 -6,-2.68366 -6,-6 0,-3.31634 2.68366,-6 6,-6 z"
       id="path9557"
       color="#555555"
       fill="#555555" />
  </g>
</svg>
