<?xml version="1.0" encoding="UTF-8" standalone="no"?>
<!-- Created with Inkscape (http://www.inkscape.org/) -->

<svg
   xmlns:dc="http://purl.org/dc/elements/1.1/"
   xmlns:cc="http://creativecommons.org/ns#"
   xmlns:rdf="http://www.w3.org/1999/02/22-rdf-syntax-ns#"
   xmlns:svg="http://www.w3.org/2000/svg"
   xmlns="http://www.w3.org/2000/svg"
   xmlns:xlink="http://www.w3.org/1999/xlink"
   xmlns:sodipodi="http://sodipodi.sourceforge.net/DTD/sodipodi-0.dtd"
   xmlns:inkscape="http://www.inkscape.org/namespaces/inkscape"
   width="816"
   height="544"
   viewBox="0 0 816 544"
   version="1.1"
   id="svg1087"
   inkscape:version="0.92.1 r"
   sodipodi:docname="accessories-calculator.svg">
  <defs
     id="defs1081">
    <linearGradient
       id="linearGradient4540"
       inkscape:collect="always">
      <stop
         id="stop4536"
         offset="0"
         style="stop-color:#ffffff;stop-opacity:0.05490196" />
      <stop
         id="stop4538"
         offset="1"
         style="stop-color:#177ed5;stop-opacity:0;" />
    </linearGradient>
    <linearGradient
       id="linearGradient4534"
       inkscape:collect="always">
      <stop
         id="stop4530"
         offset="0"
         style="stop-color:#ffffff;stop-opacity:0.05490196" />
      <stop
         id="stop4532"
         offset="1"
         style="stop-color:#177ed5;stop-opacity:0;" />
    </linearGradient>
    <filter
       inkscape:collect="always"
       style="color-interpolation-filters:sRGB"
       id="filter5087"
       x="-0.048"
       width="1.096"
       y="-0.048"
       height="1.096">
      <feGaussianBlur
         inkscape:collect="always"
         stdDeviation="0.8"
         id="feGaussianBlur5089" />
    </filter>
    <linearGradient
       inkscape:collect="always"
       xlink:href="#linearGradient4534"
       id="linearGradient4347"
       gradientUnits="userSpaceOnUse"
       gradientTransform="matrix(0.47825838,0,0,0.47826068,52.5218,24.1749)"
       x1="7"
       y1="1011.3622"
       x2="41.000019"
       y2="1045.3622" />
    <linearGradient
       inkscape:collect="always"
       id="linearGradient4165">
      <stop
         style="stop-color:#ffffff;stop-opacity:0.05490196"
         offset="0"
         id="stop4167" />
      <stop
         style="stop-color:#177ed5;stop-opacity:0;"
         offset="1"
         id="stop4169" />
    </linearGradient>
    <linearGradient
       inkscape:collect="always"
       xlink:href="#linearGradient4540"
       id="linearGradient4435"
       gradientUnits="userSpaceOnUse"
       gradientTransform="matrix(0.65217041,0,0,0.65217328,96.3479,-158.67021)"
       x1="7"
       y1="1011.3622"
       x2="41.000019"
       y2="1045.3622" />
    <linearGradient
       inkscape:collect="always"
       xlink:href="#linearGradient4165"
       id="linearGradient4171-1-0"
       x1="7"
       y1="1011.3622"
       x2="41.000019"
       y2="1045.3622"
       gradientUnits="userSpaceOnUse"
       gradientTransform="matrix(0.95652174,0,0,0.95652174,145.04353,-479.6505)" />
    <linearGradient
       inkscape:collect="always"
       xlink:href="#linearGradient4165-3"
       id="linearGradient4449-0"
       gradientUnits="userSpaceOnUse"
       gradientTransform="matrix(10.43473,0,0,10.434772,293.56525,-10458.721)"
       x1="7"
       y1="1011.3622"
       x2="41.000019"
       y2="1045.3622" />
    <linearGradient
       inkscape:collect="always"
       id="linearGradient4165-3">
      <stop
         style="stop-color:#ffffff;stop-opacity:0.05490196"
         offset="0"
         id="stop4167-6" />
      <stop
         style="stop-color:#177ed5;stop-opacity:0;"
         offset="1"
         id="stop4169-7" />
    </linearGradient>
    <linearGradient
       inkscape:collect="always"
       xlink:href="#linearGradient4165-3"
       id="linearGradient4535"
       gradientUnits="userSpaceOnUse"
       gradientTransform="matrix(1.3043412,0,0,1.3043465,208.69566,-845.3401)"
       x1="7"
       y1="1011.3622"
       x2="41.000019"
       y2="1045.3622" />
    <filter
       inkscape:collect="always"
       style="color-interpolation-filters:sRGB"
       id="filter4553"
       x="-0.012"
       width="1.024"
       y="-0.012"
       height="1.024">
      <feGaussianBlur
         inkscape:collect="always"
         stdDeviation="0.2"
         id="feGaussianBlur4555" />
    </filter>
    <filter
       inkscape:collect="always"
       style="color-interpolation-filters:sRGB"
       id="filter4559"
       x="-0.012"
       width="1.024"
       y="-0.012"
       height="1.024">
      <feGaussianBlur
         inkscape:collect="always"
         stdDeviation="0.28"
         id="feGaussianBlur4561" />
    </filter>
    <filter
       inkscape:collect="always"
       style="color-interpolation-filters:sRGB"
       id="filter4573"
       x="-0.024"
       width="1.048"
       y="-0.024"
       height="1.048">
      <feGaussianBlur
         inkscape:collect="always"
         stdDeviation="4.48"
         id="feGaussianBlur4575" />
    </filter>
    <filter
       inkscape:collect="always"
       style="color-interpolation-filters:sRGB"
       id="filter5068"
       x="-0.022363636"
       width="1.0447273"
       y="-0.025894737"
       height="1.0517895">
      <feGaussianBlur
         inkscape:collect="always"
         stdDeviation="3.28"
         id="feGaussianBlur5070" />
    </filter>
    <filter
       inkscape:collect="always"
       style="color-interpolation-filters:sRGB"
       id="filter5088"
       x="-0.011181818"
       width="1.0223636"
       y="-0.012947368"
       height="1.0258947">
      <feGaussianBlur
         inkscape:collect="always"
         stdDeviation="0.205"
         id="feGaussianBlur5090" />
    </filter>
    <filter
       inkscape:collect="always"
       style="color-interpolation-filters:sRGB"
       id="filter5097"
       x="-0.0112"
       width="1.0224"
       y="-0.012923077"
       height="1.0258462">
      <feGaussianBlur
         inkscape:collect="always"
         stdDeviation="0.14"
         id="feGaussianBlur5099" />
    </filter>
  </defs>
  <sodipodi:namedview
     id="base"
     pagecolor="#c3c3c3"
     bordercolor="#333333"
     borderopacity="1"
     inkscape:pageopacity="0"
     inkscape:pageshadow="2"
     inkscape:zoom="0.25"
     inkscape:cx="-62.618153"
     inkscape:cy="192.13332"
     inkscape:document-units="px"
     inkscape:current-layer="layer2"
     showgrid="false"
     units="px"
     inkscape:showpageshadow="false"
     inkscape:window-width="1280"
     inkscape:window-height="1370"
     inkscape:window-x="0"
     inkscape:window-y="34"
     inkscape:window-maximized="0">
    <inkscape:grid
       type="xygrid"
       id="grid4630" />
  </sodipodi:namedview>
  <metadata
     id="metadata1084">
    <rdf:RDF>
      <cc:Work
         rdf:about="">
        <dc:format>image/svg+xml</dc:format>
        <dc:type
           rdf:resource="http://purl.org/dc/dcmitype/StillImage" />
        <dc:title></dc:title>
        <cc:license
           rdf:resource="http://creativecommons.org/licenses/by-sa/4.0/" />
        <dc:creator>
          <cc:Agent>
            <dc:title>Peter Cornelis</dc:title>
          </cc:Agent>
        </dc:creator>
      </cc:Work>
      <cc:License
         rdf:about="http://creativecommons.org/licenses/by-sa/4.0/">
        <cc:permits
           rdf:resource="http://creativecommons.org/ns#Reproduction" />
        <cc:permits
           rdf:resource="http://creativecommons.org/ns#Distribution" />
        <cc:requires
           rdf:resource="http://creativecommons.org/ns#Notice" />
        <cc:requires
           rdf:resource="http://creativecommons.org/ns#Attribution" />
        <cc:permits
           rdf:resource="http://creativecommons.org/ns#DerivativeWorks" />
        <cc:requires
           rdf:resource="http://creativecommons.org/ns#ShareAlike" />
      </cc:License>
    </rdf:RDF>
  </metadata>
  <g
     inkscape:label="Baseplate"
     inkscape:groupmode="layer"
     id="layer1"
     transform="translate(0,-153.06668)"
     style="display:none">
    <rect
       style="display:inline;overflow:visible;visibility:visible;fill:#fefefe;fill-opacity:1;fill-rule:nonzero;stroke:none;stroke-width:2;marker:none;enable-background:accumulate"
       id="rect3951"
       width="512"
       height="512"
       x="-800"
       y="169.06668"
       inkscape:label="48x48"
       transform="scale(-1,1)" />
    <text
       y="733.32251"
       xml:space="preserve"
       x="15.006836"
       style="font-style:normal;font-variant:normal;font-weight:normal;font-stretch:normal;line-height:0%;font-family:'DejaVu Sans';-inkscape-font-specification:'DejaVu Sans';display:inline;fill:#000000;fill-opacity:1;stroke:none;enable-background:new"
       inkscape:label="context"
       id="context"><tspan
         style="font-style:normal;font-variant:normal;font-weight:normal;font-stretch:normal;font-size:18px;line-height:1.25;font-family:'DejaVu Sans';-inkscape-font-specification:'DejaVu Sans'"
         y="733.32251"
         x="15.006836"
         sodipodi:role="line"
         id="tspan3933">apps</tspan></text>
    <text
       y="733.32251"
       xml:space="preserve"
       x="142.48828"
       style="font-style:normal;font-variant:normal;font-weight:bold;font-stretch:normal;line-height:0%;font-family:'DejaVu Sans';-inkscape-font-specification:'DejaVu Sans Bold';text-align:start;writing-mode:lr-tb;text-anchor:start;display:inline;fill:#000000;fill-opacity:1;stroke:none;enable-background:new"
       inkscape:label="icon-name"
       id="icon-name"><tspan
         style="font-style:normal;font-variant:normal;font-weight:bold;font-stretch:normal;font-size:18px;line-height:1.25;font-family:'DejaVu Sans';-inkscape-font-specification:'DejaVu Sans Bold'"
         y="733.32251"
         x="142.48828"
         sodipodi:role="line"
         id="tspan3937">accessories-calculator</tspan></text>
    <rect
       style="display:inline;overflow:visible;visibility:visible;fill:#fefefe;fill-opacity:1;fill-rule:nonzero;stroke:none;stroke-width:2;marker:none;enable-background:accumulate"
       id="rect16x16"
       width="16"
       height="16"
       x="-32"
       y="665.06665"
       inkscape:label="16x16"
       transform="scale(-1,1)" />
    <rect
       style="display:inline;overflow:visible;visibility:visible;fill:#fefefe;fill-opacity:1;fill-rule:nonzero;stroke:none;stroke-width:2;marker:none;enable-background:accumulate"
       id="rect24x24"
       width="24"
       height="24"
       x="-76"
       y="657.06665"
       inkscape:label="24x24"
       transform="scale(-1,1)" />
    <rect
       style="display:inline;overflow:visible;visibility:visible;fill:#fefefe;fill-opacity:1;fill-rule:nonzero;stroke:none;stroke-width:2;marker:none;enable-background:accumulate"
       id="rect32x32"
       width="32"
       height="32"
       x="-128"
       y="649.06665"
       inkscape:label="32x32"
       transform="scale(-1,1)" />
    <rect
       inkscape:label="48x48"
       y="633.06665"
       x="-192"
       height="48"
       width="48"
       id="rect48x48"
       style="display:inline;overflow:visible;visibility:visible;fill:#fefefe;fill-opacity:1;fill-rule:nonzero;stroke:none;stroke-width:2;marker:none;enable-background:accumulate"
       transform="scale(-1,1)" />
    <rect
       transform="scale(-1,1)"
       inkscape:label="48x48"
       y="617.06665"
       x="-272"
       height="64"
       width="64"
       id="rect4524"
       style="display:inline;overflow:visible;visibility:visible;fill:#fefefe;fill-opacity:1;fill-rule:nonzero;stroke:none;stroke-width:0.25;marker:none;enable-background:accumulate" />
  </g>
  <g
     inkscape:groupmode="layer"
     id="layer2"
     inkscape:label="Bitmap"
     style="display:inline">
    <path
       inkscape:connector-curvature="0"
       id="path4551"
       d="m 151,485 c -1.662,0 -3,1.338 -3,3 v 7.91992 18.19141 V 522 c 0,1.662 1.338,3 3,3 h 7.91992 18.17969 H 185 c 1.662,0 3,-1.338 3,-3 V 514.07812 495.89258 488 c 0,-1.662 -1.338,-3 -3,-3 h -7.91992 -18.17969 z"
       style="display:inline;fill:#000000;fill-opacity:0.2;stroke:none;stroke-width:2;stroke-linecap:round;stroke-linejoin:round;stroke-miterlimit:4;stroke-dasharray:none;stroke-opacity:1;enable-background:new;filter:url(#filter4553)" />
    <path
       sodipodi:nodetypes="sscsscsscsscs"
       inkscape:connector-curvature="0"
       id="path5069"
       d="m 143,485 c -1.66505,0 -3,1.2912 -3,3 v 17 17 c 0,1.8617 1.34224,3 3,3 h 17 17 c 1.73784,0 3,-1.2767 3,-3 v -17 -17 c 0,-1.6942 -1.29127,-3 -3,-3 h -17 z"
       style="display:inline;fill:none;fill-opacity:0.5;stroke:none;stroke-width:2;stroke-linecap:round;stroke-linejoin:round;stroke-miterlimit:4;stroke-dasharray:none;stroke-opacity:1;filter:url(#filter5087);enable-background:new" />
    <path
       style="display:inline;fill:none;fill-opacity:0.5;stroke:none;stroke-width:2;stroke-linecap:round;stroke-linejoin:round;stroke-miterlimit:4;stroke-dasharray:none;stroke-opacity:1;filter:url(#filter5087);enable-background:new"
       d="m 143,485 c -1.66505,0 -3,1.2912 -3,3 v 17 17 c 0,1.8617 1.34224,3 3,3 h 17 17 c 1.73784,0 3,-1.2767 3,-3 v -17 -17 c 0,-1.6942 -1.29127,-3 -3,-3 h -17 z"
       id="path4506"
       inkscape:connector-curvature="0"
       sodipodi:nodetypes="sscsscsscsscs" />
    <path
       inkscape:connector-curvature="0"
       id="path4543"
       d="m 56,507 c -1.108,0 -2,0.892 -2,2 v 3.46094 9.09375 V 525 c 0,1.108 0.892,2 2,2 H 59.460938 68.550781 72 c 1.108,0 2,-0.892 2,-2 V 521.53906 512.44531 509 c 0,-1.108 -0.892,-2 -2,-2 h -3.460938 -9.089843 z"
       style="display:inline;fill:#000000;fill-opacity:0.2;stroke:none;stroke-width:2;stroke-linecap:round;stroke-linejoin:round;stroke-miterlimit:4;stroke-dasharray:none;stroke-opacity:1;enable-background:new" />
    <path
       id="path4565"
       d="m 56,526 c -1.108,0 -2,-0.892 -2,-2 v -8 h 10 v 10 z"
       style="opacity:1;fill:#4b525f;fill-opacity:1;stroke:none;stroke-opacity:1"
       inkscape:connector-curvature="0" />
    <path
       style="display:inline;fill:#4b525f;fill-opacity:1;stroke:none;enable-background:new"
       d="M 148 504 L 148 521 C 148 522.662 149.338 524 151 524 L 168 524 L 168 504 L 148 504 z "
       id="rect4203" />
    <path
       inkscape:connector-curvature="0"
       id="path4547"
       d="m 101,499 c -1.662,0 -3,1.338 -3,3 v 5.66211 10.67578 V 524 c 0,1.662 1.338,3 3,3 h 5.6875 10.64844 H 123 c 1.662,0 3,-1.338 3,-3 V 518.33789 507.66602 502 c 0,-1.662 -1.338,-3 -3,-3 h -5.6875 -10.64844 z"
       style="display:inline;fill:#000000;fill-opacity:0.2;stroke:none;stroke-width:2;stroke-linecap:round;stroke-linejoin:round;stroke-miterlimit:4;stroke-dasharray:none;stroke-opacity:1;enable-background:new" />
    <path
       id="path4591"
       d="m 98,512 v -11 c 0,-1.662 1.338,-3 3,-3 h 11 v 14 z"
       style="display:inline;fill:#687484;fill-opacity:1;stroke:none;enable-background:new"
       inkscape:connector-curvature="0" />
    <path
       style="display:inline;fill:#4b525f;fill-opacity:1;stroke:none;enable-background:new"
       d="M 98 512 L 98 523 C 98 524.662 99.338 526 101 526 L 112 526 L 112 512 L 98 512 z "
       id="rect4255" />
    <rect
       transform="matrix(0,-1,-1,0,0,0)"
       style="display:inline;fill:#039be5;fill-opacity:1;stroke:none;enable-background:new"
       id="rect4265"
       width="16"
       height="16"
       x="-528"
       y="-32"
       rx="2"
       ry="2" />
    <path
       style="display:inline;fill:#000000;fill-opacity:0.2;stroke:none;stroke-width:16;stroke-linecap:round;stroke-linejoin:round;stroke-miterlimit:4;stroke-dasharray:none;stroke-opacity:1;enable-background:new;filter:url(#filter4573)"
       d="m 356,50 c -19.944,0 -36,16.056 -36,36 V 188.5918 359.37695 462 c 0,19.944 16.056,36 36,36 H 458.98242 629.36523 732 c 19.944,0 36,-16.056 36,-36 V 359.39648 188.6543 86 C 768,66.056 751.944,50 732,50 H 629.00586 458.625 Z"
       id="path4567"
       inkscape:connector-curvature="0" />
    <path
       inkscape:connector-curvature="0"
       id="path4563"
       d="m 356,50 c -19.944,0 -36,16.056 -36,36 V 188.5918 359.37695 462 c 0,19.944 16.056,36 36,36 H 458.98242 629.36523 732 c 19.944,0 36,-16.056 36,-36 V 359.39648 188.6543 86 C 768,66.056 751.944,50 732,50 H 629.00586 458.625 Z"
       style="display:inline;fill:#000000;fill-opacity:0.2;stroke:none;stroke-width:16;stroke-linecap:round;stroke-linejoin:round;stroke-miterlimit:4;stroke-dasharray:none;stroke-opacity:1;enable-background:new" />
    <path
       id="path5037"
       d="m 320,272.00021 v 188 c 0,19.944 16.056,36 36,36 h 188 v -224 z"
       style="display:inline;fill:#4b525f;fill-opacity:1;stroke:none;stroke-width:1;enable-background:new"
       inkscape:connector-curvature="0" />
    <path
       style="display:inline;fill:#039be5;fill-opacity:1;stroke:none;stroke-width:1;enable-background:new"
       d="m 732,48 c 19.944,0 36,16.056 36,36 v 188 188 c 0,19.944 -16.056,36 -36,36 H 544 V 272 48 Z"
       id="path5041"
       inkscape:connector-curvature="0" />
    <path
       inkscape:connector-curvature="0"
       style="display:inline;fill:#687484;fill-opacity:1;stroke:none;stroke-width:1;enable-background:new"
       d="m 320,272.00021 v -188 c 0,-19.944 16.056,-36 36,-36 h 188 v 224 z"
       id="path5039" />
    <path
       id="path4507"
       d="m 320,86 v -2 c 0,-19.944 16.056,-36 36,-36 h 376 c 19.944,0 36,16.056 36,36 v 2 C 768,66.056 751.944,50 732,50 H 356 c -19.944,0 -36,16.056 -36,36 z"
       style="display:inline;fill:#ffffff;fill-opacity:0.2;stroke:none;enable-background:new"
       inkscape:connector-curvature="0" />
    <path
       id="path4989"
       d="m 148,504 v -17 c 0,-1.662 1.338,-3 3,-3 h 17 v 20 z"
       style="display:inline;fill:#687484;fill-opacity:1;stroke:none;enable-background:new"
       inkscape:connector-curvature="0" />
    <path
       style="opacity:1;fill:#039be5;fill-opacity:1;stroke:none;stroke-opacity:1"
       d="M 168 484 L 168 524 L 185 524 C 186.662 524 188 522.662 188 521 L 188 487 C 188 485.338 186.662 484 185 484 L 168 484 z "
       id="rect4981" />
    <path
       id="path4514"
       d="m 148,488 v -1 c 0,-1.662 1.338,-3 3,-3 h 34 c 1.662,0 3,1.338 3,3 v 1 c 0,-1.662 -1.338,-3 -3,-3 h -34 c -1.662,0 -3,1.338 -3,3 z"
       style="display:inline;fill:#ffffff;fill-opacity:0.2;stroke:none;enable-background:new"
       inkscape:connector-curvature="0" />
    <path
       style="opacity:1;fill:#039be5;fill-opacity:1;stroke:none;stroke-opacity:1"
       d="M 112 498 L 112 526 L 123 526 C 124.662 526 126 524.662 126 523 L 126 501 C 126 499.338 124.662 498 123 498 L 112 498 z "
       id="rect4579" />
    <path
       id="path4521"
       d="m 98,502 v -1 c 0,-1.662 1.338,-3 3,-3 h 22 c 1.662,0 3,1.338 3,3 v 1 c 0,-1.662 -1.338,-3 -3,-3 h -22 c -1.662,0 -3,1.338 -3,3 z"
       style="display:inline;fill:#fafafa;fill-opacity:0.2;stroke:none;enable-background:new"
       inkscape:connector-curvature="0" />
    <path
       style="opacity:1;fill:#039be5;fill-opacity:1;stroke:none;stroke-opacity:1"
       d="M 64 506 L 64 526 L 72 526 C 73.108 526 74 525.108 74 524 L 74 508 C 74 506.892 73.108 506 72 506 L 64 506 z "
       id="rect4551" />
    <path
       style="opacity:1;fill:#687484;fill-opacity:1;stroke:none;stroke-opacity:1"
       d="M 56 506 C 54.892 506 54 506.892 54 508 L 54 516 L 64 516 L 64 506 L 56 506 z "
       id="rect4560" />
    <path
       id="path4528"
       d="m 54,509 v -1 c 0,-1.108 0.892,-2 2,-2 h 16 c 1.108,0 2,0.892 2,2 v 1 c 0,-1.108 -0.892,-2 -2,-2 H 56 c -1.108,0 -2,0.892 -2,2 z"
       style="display:inline;fill:#ffffff;fill-opacity:0.2;stroke:none;enable-background:new"
       inkscape:connector-curvature="0" />
    <path
       style="display:inline;fill:url(#linearGradient4171-1-0);fill-opacity:1;stroke:none;stroke-width:2;stroke-linecap:round;stroke-linejoin:round;stroke-miterlimit:4;stroke-dasharray:none;stroke-opacity:1;enable-background:new"
       d="m 151,484 c -1.662,0 -3,1.338 -3,3 v 7.91992 18.19141 V 521 c 0,1.662 1.338,3 3,3 h 7.91992 18.17969 H 185 c 1.662,0 3,-1.338 3,-3 V 513.07812 494.89258 487 c 0,-1.662 -1.338,-3 -3,-3 h -7.91992 -18.17969 z"
       id="circle4163-3-4"
       inkscape:connector-curvature="0" />
    <path
       style="display:inline;fill:url(#linearGradient4347);fill-opacity:1;stroke:none;stroke-width:2;stroke-linecap:round;stroke-linejoin:round;stroke-miterlimit:4;stroke-dasharray:none;stroke-opacity:1;enable-background:new"
       d="m 56,506 c -1.108,0 -2,0.892 -2,2 v 3.46094 9.09375 V 524 c 0,1.108 0.892,2 2,2 H 59.460938 68.550781 72 c 1.108,0 2,-0.892 2,-2 V 520.53906 511.44531 508 c 0,-1.108 -0.892,-2 -2,-2 h -3.460938 -9.089843 z"
       id="path4345"
       inkscape:connector-curvature="0" />
    <path
       style="display:inline;fill:url(#linearGradient4435);fill-opacity:1;stroke:none;stroke-width:2;stroke-linecap:round;stroke-linejoin:round;stroke-miterlimit:4;stroke-dasharray:none;stroke-opacity:1;enable-background:new"
       d="m 101,498 c -1.662,0 -3,1.338 -3,3 v 5.66211 10.67578 V 523 c 0,1.662 1.338,3 3,3 h 5.6875 10.64844 H 123 c 1.662,0 3,-1.338 3,-3 V 517.33789 506.66602 501 c 0,-1.662 -1.338,-3 -3,-3 h -5.6875 -10.64844 z"
       id="path4433"
       inkscape:connector-curvature="0" />
    <path
       style="display:inline;fill:url(#linearGradient4449-0);fill-opacity:1;stroke:none;stroke-width:16;stroke-linecap:round;stroke-linejoin:round;stroke-miterlimit:4;stroke-dasharray:none;stroke-opacity:1;enable-background:new"
       d="m 356,48 c -19.944,0 -36,16.056 -36,36 V 186.5918 357.37695 460 c 0,19.944 16.056,36 36,36 H 458.98242 629.36523 732 c 19.944,0 36,-16.056 36,-36 V 357.39648 186.6543 84 C 768,64.056 751.944,48 732,48 H 629.00586 458.625 Z"
       id="path4447"
       inkscape:connector-curvature="0" />
    <path
       style="display:inline;fill:#000000;fill-opacity:0.2;stroke:none;stroke-width:2;stroke-linecap:round;stroke-linejoin:round;stroke-miterlimit:4;stroke-dasharray:none;stroke-opacity:1;enable-background:new;filter:url(#filter4559)"
       d="m 216.5,469 c -2.493,0 -4.5,2.007 -4.5,4.5 V 486.32398 507.67212 520.5 c 0,2.493 2.007,4.5 4.5,4.5 H 229.3728 250.67065 263.5 c 2.493,0 4.5,-2.007 4.5,-4.5 V 507.67456 486.33179 473.5 c 0,-2.493 -2.007,-4.5 -4.5,-4.5 h -12.87427 -21.29761 z"
       id="path4557"
       inkscape:connector-curvature="0" />
    <path
       style="display:inline;fill:#4b525f;fill-opacity:1;stroke:none;stroke-width:0.125;enable-background:new"
       d="M 212 496 L 212 519.5 C 212 521.993 214.007 524 216.5 524 L 240 524 L 240 496 L 212 496 z "
       id="rect4526" />
    <path
       id="path5006"
       d="m 212,496 v -23.5 c 0,-2.493 2.007,-4.5 4.5,-4.5 H 240 v 28 z"
       style="display:inline;fill:#687484;fill-opacity:1;stroke:none;stroke-width:0.125;enable-background:new"
       inkscape:connector-curvature="0" />
    <path
       style="display:inline;fill:#039be5;fill-opacity:1;stroke:none;stroke-width:0.125;enable-background:new"
       d="m 263.5,468 c 2.493,0 4.5,2.007 4.5,4.5 v 23.5 23.5 c 0,2.493 -2.007,4.5 -4.5,4.5 H 240 v -28 -28 z"
       id="path5008"
       inkscape:connector-curvature="0" />
    <path
       style="display:inline;fill:#ffffff;fill-opacity:0.2;stroke:none;stroke-width:0.125;enable-background:new"
       d="M 216.5 468 C 214.007 468 212 470.007 212 472.5 L 212 473.5 C 212 471.007 214.007 469 216.5 469 L 263.5 469 C 265.993 469 268 471.007 268 473.5 L 268 472.5 C 268 470.007 265.993 468 263.5 468 L 216.5 468 z "
       id="rect4537" />
    <path
       inkscape:connector-curvature="0"
       id="path4533"
       d="m 216.5,468 c -2.493,0 -4.5,2.007 -4.5,4.5 V 485.32398 506.67212 519.5 c 0,2.493 2.007,4.5 4.5,4.5 H 229.3728 250.67065 263.5 c 2.493,0 4.5,-2.007 4.5,-4.5 V 506.67456 485.33179 472.5 c 0,-2.493 -2.007,-4.5 -4.5,-4.5 h -12.87427 -21.29761 z"
       style="display:inline;fill:url(#linearGradient4535);fill-opacity:1;stroke:none;stroke-width:2;stroke-linecap:round;stroke-linejoin:round;stroke-miterlimit:4;stroke-dasharray:none;stroke-opacity:1;enable-background:new" />
    <rect
       style="display:inline;opacity:1;fill:#f5f5f5;fill-opacity:1;stroke:none;stroke-width:2;stroke-linecap:round;stroke-linejoin:round;stroke-miterlimit:4;stroke-dasharray:none;stroke-opacity:1;enable-background:new"
       id="rect4887"
       width="6"
       height="2"
       x="21"
       y="517"
       inkscape:export-xdpi="90"
       inkscape:export-ydpi="90"
       inkscape:export-filename="/home/peter/Bureaublad/accessories-calculator.png" />
    <rect
       style="display:inline;opacity:1;fill:#f5f5f5;fill-opacity:1;stroke:none;stroke-width:2;stroke-linecap:round;stroke-linejoin:round;stroke-miterlimit:4;stroke-dasharray:none;stroke-opacity:1;enable-background:new"
       id="rect4889"
       width="6"
       height="2"
       x="21"
       y="521"
       inkscape:export-xdpi="90"
       inkscape:export-ydpi="90"
       inkscape:export-filename="/home/peter/Bureaublad/accessories-calculator.png" />
    <rect
       inkscape:export-filename="/home/peter/Bureaublad/accessories-calculator.png"
       inkscape:export-ydpi="90"
       inkscape:export-xdpi="90"
       y="514"
       x="66"
       height="1"
       width="5"
       id="rect4556"
       style="display:inline;opacity:1;fill:#f5f5f5;fill-opacity:1;stroke:none;stroke-width:1.29099441;stroke-linecap:round;stroke-linejoin:round;stroke-miterlimit:4;stroke-dasharray:none;stroke-opacity:1;enable-background:new" />
    <rect
       inkscape:export-filename="/home/peter/Bureaublad/accessories-calculator.png"
       inkscape:export-ydpi="90"
       inkscape:export-xdpi="90"
       y="517"
       x="66"
       height="1"
       width="5"
       id="rect4558"
       style="display:inline;opacity:1;fill:#f5f5f5;fill-opacity:1;stroke:none;stroke-width:1.29099452;stroke-linecap:round;stroke-linejoin:round;stroke-miterlimit:4;stroke-dasharray:none;stroke-opacity:1;enable-background:new" />
    <rect
       style="display:inline;opacity:1;fill:#f5f5f5;fill-opacity:1;stroke:none;stroke-width:1.29099441;stroke-linecap:round;stroke-linejoin:round;stroke-miterlimit:4;stroke-dasharray:none;stroke-opacity:1;enable-background:new"
       id="rect4573"
       width="5"
       height="1"
       x="57"
       y="511"
       inkscape:export-xdpi="90"
       inkscape:export-ydpi="90"
       inkscape:export-filename="/home/peter/Bureaublad/accessories-calculator.png" />
    <rect
       inkscape:export-filename="/home/peter/Bureaublad/accessories-calculator.png"
       inkscape:export-ydpi="90"
       inkscape:export-xdpi="90"
       y="520"
       x="57"
       height="1"
       width="5"
       id="rect4575"
       style="display:inline;opacity:1;fill:#f5f5f5;fill-opacity:1;stroke:none;stroke-width:1.29099441;stroke-linecap:round;stroke-linejoin:round;stroke-miterlimit:4;stroke-dasharray:none;stroke-opacity:1;enable-background:new" />
    <rect
       style="display:inline;opacity:1;fill:#f5f5f5;fill-opacity:1;stroke:none;stroke-width:1.29099441;stroke-linecap:round;stroke-linejoin:round;stroke-miterlimit:4;stroke-dasharray:none;stroke-opacity:1;enable-background:new"
       id="rect4577"
       width="5"
       height="1"
       x="518"
       y="-60"
       inkscape:export-xdpi="90"
       inkscape:export-ydpi="90"
       inkscape:export-filename="/home/peter/Bureaublad/accessories-calculator.png"
       transform="rotate(90)" />
    <path
       id="path5103"
       d="m 101,505 v 2 h 8 v -2 z m 14,5 v 2 h 8 v -2 z m 0,4 v 2 h 8 v -2 z m -11,2 v 3 h -3 v 2 h 3 v 3 h 2 v -3 h 3 v -2 h -3 v -3 z"
       style="display:inline;opacity:1;fill:#000000;fill-opacity:0.2;stroke:none;stroke-width:2.30940104;stroke-linecap:round;stroke-linejoin:round;stroke-miterlimit:4;stroke-dasharray:none;stroke-opacity:1;enable-background:new"
       inkscape:connector-curvature="0" />
    <path
       style="display:inline;opacity:1;fill:#f5f5f5;fill-opacity:1;stroke:none;stroke-width:2.30940104;stroke-linecap:round;stroke-linejoin:round;stroke-miterlimit:4;stroke-dasharray:none;stroke-opacity:1;enable-background:new"
       d="M 101 504 L 101 506 L 109 506 L 109 504 L 101 504 z M 115 509 L 115 511 L 123 511 L 123 509 L 115 509 z M 115 513 L 115 515 L 123 515 L 123 513 L 115 513 z M 104 515 L 104 518 L 101 518 L 101 520 L 104 520 L 104 523 L 106 523 L 106 520 L 109 520 L 109 518 L 106 518 L 106 515 L 104 515 z "
       id="rect4584" />
    <path
       id="path5085"
       d="m 153,494 v 2 h 10 v -2 z m 20,8 v 2 h 10 v -2 z m 0,4 v 2 h 10 v -2 z m -16,4 v 4 h -4 v 2 h 4 v 4 h 2 v -4 h 4 v -2 h -4 v -4 z"
       style="display:inline;opacity:1;fill:#000000;fill-opacity:0.2;stroke:none;stroke-width:2.58198881;stroke-linecap:round;stroke-linejoin:round;stroke-miterlimit:4;stroke-dasharray:none;stroke-opacity:1;enable-background:new;filter:url(#filter5097)"
       inkscape:connector-curvature="0" />
    <path
       style="display:inline;opacity:1;fill:#f5f5f5;fill-opacity:1;stroke:none;stroke-width:2.58198881;stroke-linecap:round;stroke-linejoin:round;stroke-miterlimit:4;stroke-dasharray:none;stroke-opacity:1;enable-background:new"
       d="M 153 493 L 153 495 L 163 495 L 163 493 L 153 493 z M 173 501 L 173 503 L 183 503 L 183 501 L 173 501 z M 173 505 L 173 507 L 183 507 L 183 505 L 173 505 z M 157 509 L 157 513 L 153 513 L 153 515 L 157 515 L 157 519 L 159 519 L 159 515 L 163 515 L 163 513 L 159 513 L 159 509 L 157 509 z "
       id="rect4991" />
    <path
       id="path5073"
       d="m 218,481 v 4 h 16 v -4 z m 28,10 v 4 h 16 v -4 z m 0,8 v 4 h 16 v -4 z m -22,4 v 6 h -6 v 4 h 6 v 6 h 4 v -6 h 6 v -4 h -6 v -6 z"
       style="display:inline;opacity:1;fill:#000000;fill-opacity:0.2;stroke:none;stroke-width:4.61880207;stroke-linecap:round;stroke-linejoin:round;stroke-miterlimit:4;stroke-dasharray:none;stroke-opacity:1;enable-background:new;filter:url(#filter5088)"
       inkscape:connector-curvature="0" />
    <path
       style="display:inline;opacity:1;fill:#f5f5f5;fill-opacity:1;stroke:none;stroke-width:4.61880207;stroke-linecap:round;stroke-linejoin:round;stroke-miterlimit:4;stroke-dasharray:none;stroke-opacity:1;enable-background:new"
       d="M 218 480 L 218 484 L 234 484 L 234 480 L 218 480 z M 246 490 L 246 494 L 262 494 L 262 490 L 246 490 z M 246 498 L 246 502 L 262 502 L 262 498 L 246 498 z M 224 502 L 224 508 L 218 508 L 218 512 L 224 512 L 224 518 L 228 518 L 228 512 L 234 512 L 234 508 L 228 508 L 228 502 L 224 502 z "
       id="rect5013" />
    <path
       id="path5057"
       d="m 368,146 v 32 h 128 v -32 z m 224,80 v 32 h 128 v -32 z m 0,64 v 32 h 128 v -32 z m -176,32 v 48 h -48 v 32 h 48 v 48 h 32 v -48 h 48 v -32 h -48 v -48 z"
       style="display:inline;opacity:1;fill:#000000;fill-opacity:0.2;stroke:none;stroke-width:36.95041656;stroke-linecap:round;stroke-linejoin:round;stroke-miterlimit:4;stroke-dasharray:none;stroke-opacity:1;enable-background:new"
       inkscape:connector-curvature="0" />
    <path
       inkscape:connector-curvature="0"
       style="display:inline;opacity:1;fill:#000000;fill-opacity:0.2;stroke:none;stroke-width:36.95041656;stroke-linecap:round;stroke-linejoin:round;stroke-miterlimit:4;stroke-dasharray:none;stroke-opacity:1;enable-background:new;filter:url(#filter5068)"
       d="m 368,146 v 32 h 128 v -32 z m 224,80 v 32 h 128 v -32 z m 0,64 v 32 h 128 v -32 z m -176,32 v 48 h -48 v 32 h 48 v 48 h 32 v -48 h 48 v -32 h -48 v -48 z"
       id="path5062" />
    <rect
       style="display:inline;opacity:1;fill:#f5f5f5;fill-opacity:1;stroke:none;stroke-width:36.95041656;stroke-linecap:round;stroke-linejoin:round;stroke-miterlimit:4;stroke-dasharray:none;stroke-opacity:1;enable-background:new"
       id="rect5025"
       width="128"
       height="32"
       x="592"
       y="224.00021"
       inkscape:export-xdpi="90"
       inkscape:export-ydpi="90"
       inkscape:export-filename="/home/peter/Bureaublad/accessories-calculator.png" />
    <rect
       style="display:inline;opacity:1;fill:#f5f5f5;fill-opacity:1;stroke:none;stroke-width:36.95041656;stroke-linecap:round;stroke-linejoin:round;stroke-miterlimit:4;stroke-dasharray:none;stroke-opacity:1;enable-background:new"
       id="rect5027"
       width="128"
       height="32"
       x="592"
       y="288.00021"
       inkscape:export-xdpi="90"
       inkscape:export-ydpi="90"
       inkscape:export-filename="/home/peter/Bureaublad/accessories-calculator.png" />
    <rect
       inkscape:export-filename="/home/peter/Bureaublad/accessories-calculator.png"
       inkscape:export-ydpi="90"
       inkscape:export-xdpi="90"
       y="144.00021"
       x="368"
       height="32"
       width="128"
       id="rect5029"
       style="display:inline;opacity:1;fill:#f5f5f5;fill-opacity:1;stroke:none;stroke-width:36.95041656;stroke-linecap:round;stroke-linejoin:round;stroke-miterlimit:4;stroke-dasharray:none;stroke-opacity:1;enable-background:new" />
    <rect
       style="display:inline;opacity:1;fill:#f5f5f5;fill-opacity:1;stroke:none;stroke-width:36.95041656;stroke-linecap:round;stroke-linejoin:round;stroke-miterlimit:4;stroke-dasharray:none;stroke-opacity:1;enable-background:new"
       id="rect5031"
       width="128"
       height="32"
       x="368"
       y="368.00021"
       inkscape:export-xdpi="90"
       inkscape:export-ydpi="90"
       inkscape:export-filename="/home/peter/Bureaublad/accessories-calculator.png" />
    <rect
       transform="rotate(90)"
       inkscape:export-filename="/home/peter/Bureaublad/accessories-calculator.png"
       inkscape:export-ydpi="90"
       inkscape:export-xdpi="90"
       y="-448"
       x="320.00021"
       height="32"
       width="128"
       id="rect5033"
       style="display:inline;opacity:1;fill:#f5f5f5;fill-opacity:1;stroke:none;stroke-width:36.95041656;stroke-linecap:round;stroke-linejoin:round;stroke-miterlimit:4;stroke-dasharray:none;stroke-opacity:1;enable-background:new" />
    <path
       style="display:inline;opacity:1;fill:#ffffff;fill-opacity:1;stroke:none;stroke-width:36.95041656;stroke-linecap:round;stroke-linejoin:round;stroke-miterlimit:4;stroke-dasharray:none;stroke-opacity:1;enable-background:new"
       d="M 368 144 L 368 146 L 496 146 L 496 144 L 368 144 z M 592 224 L 592 226 L 720 226 L 720 224 L 592 224 z M 592 288 L 592 290 L 720 290 L 720 288 L 592 288 z M 416 320 L 416 322 L 448 322 L 448 320 L 416 320 z M 368 368 L 368 370 L 416 370 L 416 368 L 368 368 z M 448 368 L 448 370 L 496 370 L 496 368 L 448 368 z "
       id="rect5046" />
    <path
       style="display:inline;opacity:1;fill:#ffffff;fill-opacity:1;stroke:none;stroke-width:4.61880207;stroke-linecap:round;stroke-linejoin:round;stroke-miterlimit:4;stroke-dasharray:none;stroke-opacity:1;enable-background:new"
       d="M 218 480 L 218 481 L 234 481 L 234 480 L 218 480 z M 246 490 L 246 491 L 262 491 L 262 490 L 246 490 z M 246 498 L 246 499 L 262 499 L 262 498 L 246 498 z M 224 502 L 224 503 L 228 503 L 228 502 L 224 502 z M 218 508 L 218 509 L 224 509 L 224 508 L 218 508 z M 228 508 L 228 509 L 234 509 L 234 508 L 228 508 z "
       id="path5075" />
    <path
       style="display:inline;opacity:1;fill:#ffffff;fill-opacity:1;stroke:none;stroke-width:2.58198881;stroke-linecap:round;stroke-linejoin:round;stroke-miterlimit:4;stroke-dasharray:none;stroke-opacity:1;enable-background:new"
       d="M 153 493 L 153 494 L 163 494 L 163 493 L 153 493 z M 173 501 L 173 502 L 183 502 L 183 501 L 173 501 z M 173 505 L 173 506 L 183 506 L 183 505 L 173 505 z M 157 509 L 157 510 L 159 510 L 159 509 L 157 509 z M 153 513 L 153 514 L 157 514 L 157 513 L 153 513 z M 159 513 L 159 514 L 163 514 L 163 513 L 159 513 z "
       id="path5092" />
    <path
       style="display:inline;opacity:1;fill:#ffffff;fill-opacity:1;stroke:none;stroke-width:2.30940104;stroke-linecap:round;stroke-linejoin:round;stroke-miterlimit:4;stroke-dasharray:none;stroke-opacity:1;enable-background:new"
       d="M 101 504 L 101 505 L 109 505 L 109 504 L 101 504 z M 115 509 L 115 510 L 123 510 L 123 509 L 115 509 z M 115 513 L 115 514 L 123 514 L 123 513 L 115 513 z M 104 515 L 104 516 L 106 516 L 106 515 L 104 515 z M 101 518 L 101 519 L 104 519 L 104 518 L 101 518 z M 106 518 L 106 519 L 109 519 L 109 518 L 106 518 z "
       id="path5105" />
  </g>
</svg>
