<?xml version="1.0" encoding="UTF-8" standalone="no"?>
<!-- Created with Inkscape (http://www.inkscape.org/) -->

<svg
   xmlns:dc="http://purl.org/dc/elements/1.1/"
   xmlns:cc="http://creativecommons.org/ns#"
   xmlns:rdf="http://www.w3.org/1999/02/22-rdf-syntax-ns#"
   xmlns:svg="http://www.w3.org/2000/svg"
   xmlns="http://www.w3.org/2000/svg"
   xmlns:xlink="http://www.w3.org/1999/xlink"
   xmlns:sodipodi="http://sodipodi.sourceforge.net/DTD/sodipodi-0.dtd"
   xmlns:inkscape="http://www.inkscape.org/namespaces/inkscape"
   width="736"
   height="544"
   viewBox="0 0 736 544"
   version="1.1"
   id="svg1087"
   inkscape:version="0.92.1 r"
   sodipodi:docname="audacity.svg">
  <defs
     id="defs1081">
    <linearGradient
       id="linearGradient5497"
       inkscape:collect="always">
      <stop
         id="stop5493"
         offset="0"
         style="stop-color:#ffffff;stop-opacity:0.05490196" />
      <stop
         id="stop5495"
         offset="1"
         style="stop-color:#177ed5;stop-opacity:0;" />
    </linearGradient>
    <linearGradient
       id="linearGradient5491"
       inkscape:collect="always">
      <stop
         id="stop5487"
         offset="0"
         style="stop-color:#ffffff;stop-opacity:0.05490196" />
      <stop
         id="stop5489"
         offset="1"
         style="stop-color:#177ed5;stop-opacity:0;" />
    </linearGradient>
    <linearGradient
       id="linearGradient5485"
       inkscape:collect="always">
      <stop
         id="stop5481"
         offset="0"
         style="stop-color:#ffffff;stop-opacity:0.05490196" />
      <stop
         id="stop5483"
         offset="1"
         style="stop-color:#177ed5;stop-opacity:0;" />
    </linearGradient>
    <linearGradient
       inkscape:collect="always"
       id="linearGradient4165">
      <stop
         style="stop-color:#ffffff;stop-opacity:0.05490196"
         offset="0"
         id="stop4167" />
      <stop
         style="stop-color:#177ed5;stop-opacity:0;"
         offset="1"
         id="stop4169" />
    </linearGradient>
    <linearGradient
       id="linearGradient4457"
       inkscape:collect="always">
      <stop
         id="stop4459"
         offset="0"
         style="stop-color:#000000;stop-opacity:0.30000001" />
      <stop
         id="stop4461"
         offset="1"
         style="stop-color:#000000;stop-opacity:0;" />
    </linearGradient>
    <linearGradient
       inkscape:collect="always"
       xlink:href="#linearGradient5485"
       id="linearGradient4637"
       gradientUnits="userSpaceOnUse"
       gradientTransform="matrix(10.713038,0,0,10.713038,206.88474,-10746.893)"
       x1="7"
       y1="1011.3622"
       x2="41.000019"
       y2="1045.3622" />
    <linearGradient
       inkscape:collect="always"
       xlink:href="#linearGradient4457"
       id="linearGradient4635"
       gradientUnits="userSpaceOnUse"
       gradientTransform="matrix(11.199994,0,0,11.199994,195.19674,-11236.45)"
       x1="7"
       y1="1033.3622"
       x2="4"
       y2="1030.3622" />
    <linearGradient
       inkscape:collect="always"
       xlink:href="#linearGradient4457"
       id="linearGradient4633"
       gradientUnits="userSpaceOnUse"
       gradientTransform="matrix(-11.199994,0,0,11.199994,732.79674,-11236.45)"
       x1="7"
       y1="1033.3622"
       x2="4"
       y2="1030.3622" />
    <linearGradient
       inkscape:collect="always"
       xlink:href="#linearGradient4165"
       id="linearGradient4686"
       gradientUnits="userSpaceOnUse"
       gradientTransform="matrix(0.47826062,0,0,0.47826062,52.52178,24.174354)"
       x1="7"
       y1="1011.3622"
       x2="41.000019"
       y2="1045.3622" />
    <linearGradient
       inkscape:collect="always"
       xlink:href="#linearGradient4457"
       id="linearGradient4684"
       gradientUnits="userSpaceOnUse"
       gradientTransform="matrix(0.49999975,0,0,0.49999975,52,2.3190737)"
       x1="7"
       y1="1033.3622"
       x2="4"
       y2="1030.3622" />
    <linearGradient
       inkscape:collect="always"
       xlink:href="#linearGradient4457"
       id="linearGradient4682"
       gradientUnits="userSpaceOnUse"
       gradientTransform="matrix(-0.49999975,0,0,0.49999975,75.99999,2.3190737)"
       x1="7"
       y1="1033.3622"
       x2="4"
       y2="1030.3622" />
    <linearGradient
       inkscape:collect="always"
       xlink:href="#linearGradient5497"
       id="linearGradient4731"
       gradientUnits="userSpaceOnUse"
       gradientTransform="matrix(0.66956437,0,0,0.66956437,95.9305,-176.55534)"
       x1="7"
       y1="1011.3622"
       x2="41.000019"
       y2="1045.3622" />
    <linearGradient
       inkscape:collect="always"
       xlink:href="#linearGradient4457"
       id="linearGradient4729"
       gradientUnits="userSpaceOnUse"
       gradientTransform="matrix(0.69999915,0,0,0.69999915,95.2,-207.15267)"
       x1="7"
       y1="1033.3622"
       x2="4"
       y2="1030.3622" />
    <linearGradient
       inkscape:collect="always"
       xlink:href="#linearGradient4457"
       id="linearGradient4727"
       gradientUnits="userSpaceOnUse"
       gradientTransform="matrix(-0.69999915,0,0,0.69999915,128.79996,-207.15267)"
       x1="7"
       y1="1033.3622"
       x2="4"
       y2="1030.3622" />
    <linearGradient
       inkscape:collect="always"
       xlink:href="#linearGradient5491"
       id="linearGradient4726"
       gradientUnits="userSpaceOnUse"
       gradientTransform="matrix(0.95652172,0,0,0.95652172,145.04356,-479.65171)"
       x1="7"
       y1="1011.3622"
       x2="41.000019"
       y2="1045.3622" />
    <linearGradient
       gradientTransform="translate(144,-523.36229)"
       inkscape:collect="always"
       xlink:href="#linearGradient4457"
       id="linearGradient4246"
       x1="7"
       y1="1033.3622"
       x2="4"
       y2="1030.3622"
       gradientUnits="userSpaceOnUse" />
    <linearGradient
       inkscape:collect="always"
       xlink:href="#linearGradient4457"
       id="linearGradient4250"
       gradientUnits="userSpaceOnUse"
       x1="7"
       y1="1033.3622"
       x2="4"
       y2="1030.3622"
       gradientTransform="matrix(-1,0,0,1,192,-523.36229)" />
  </defs>
  <sodipodi:namedview
     id="base"
     pagecolor="#c3c3c3"
     bordercolor="#333333"
     borderopacity="1"
     inkscape:pageopacity="0"
     inkscape:pageshadow="2"
     inkscape:zoom="31.678384"
     inkscape:cx="78.62155"
     inkscape:cy="27.915954"
     inkscape:document-units="px"
     inkscape:current-layer="layer2"
     showgrid="true"
     units="px"
     inkscape:showpageshadow="false"
     inkscape:window-width="2560"
     inkscape:window-height="1370"
     inkscape:window-x="0"
     inkscape:window-y="34"
     inkscape:window-maximized="1"
     showguides="false">
    <inkscape:grid
       type="xygrid"
       id="grid4630" />
  </sodipodi:namedview>
  <metadata
     id="metadata1084">
    <rdf:RDF>
      <cc:Work
         rdf:about="">
        <dc:format>image/svg+xml</dc:format>
        <dc:type
           rdf:resource="http://purl.org/dc/dcmitype/StillImage" />
        <dc:title />
        <cc:license
           rdf:resource="http://creativecommons.org/licenses/by-sa/4.0/" />
        <dc:creator>
          <cc:Agent>
            <dc:title>Peter Cornelis</dc:title>
          </cc:Agent>
        </dc:creator>
      </cc:Work>
      <cc:License
         rdf:about="http://creativecommons.org/licenses/by-sa/4.0/">
        <cc:permits
           rdf:resource="http://creativecommons.org/ns#Reproduction" />
        <cc:permits
           rdf:resource="http://creativecommons.org/ns#Distribution" />
        <cc:requires
           rdf:resource="http://creativecommons.org/ns#Notice" />
        <cc:requires
           rdf:resource="http://creativecommons.org/ns#Attribution" />
        <cc:permits
           rdf:resource="http://creativecommons.org/ns#DerivativeWorks" />
        <cc:requires
           rdf:resource="http://creativecommons.org/ns#ShareAlike" />
      </cc:License>
    </rdf:RDF>
  </metadata>
  <g
     inkscape:label="Baseplate"
     inkscape:groupmode="layer"
     id="layer1"
     transform="translate(0,-153.06668)"
     style="display:none">
    <rect
       style="display:inline;overflow:visible;visibility:visible;fill:#fefefe;fill-opacity:1;fill-rule:nonzero;stroke:none;stroke-width:2;marker:none;enable-background:accumulate"
       id="rect3951"
       width="512"
       height="512"
       x="-720"
       y="169.06668"
       inkscape:label="48x48"
       transform="scale(-1,1)" />
    <text
       y="733.32251"
       xml:space="preserve"
       x="15.006836"
       style="font-style:normal;font-variant:normal;font-weight:normal;font-stretch:normal;line-height:0%;font-family:'DejaVu Sans';-inkscape-font-specification:'DejaVu Sans';display:inline;fill:#000000;fill-opacity:1;stroke:none;enable-background:new"
       inkscape:label="context"
       id="context"><tspan
         style="font-style:normal;font-variant:normal;font-weight:normal;font-stretch:normal;font-size:18px;line-height:1.25;font-family:'DejaVu Sans';-inkscape-font-specification:'DejaVu Sans'"
         y="733.32251"
         x="15.006836"
         sodipodi:role="line"
         id="tspan3933">apps</tspan></text>
    <text
       y="733.32251"
       xml:space="preserve"
       x="142.48828"
       style="font-style:normal;font-variant:normal;font-weight:bold;font-stretch:normal;line-height:0%;font-family:'DejaVu Sans';-inkscape-font-specification:'DejaVu Sans Bold';text-align:start;writing-mode:lr-tb;text-anchor:start;display:inline;fill:#000000;fill-opacity:1;stroke:none;enable-background:new"
       inkscape:label="icon-name"
       id="icon-name"><tspan
         style="font-style:normal;font-variant:normal;font-weight:bold;font-stretch:normal;font-size:18px;line-height:1.25;font-family:'DejaVu Sans';-inkscape-font-specification:'DejaVu Sans Bold'"
         y="733.32251"
         x="142.48828"
         sodipodi:role="line"
         id="tspan3937">audacity</tspan></text>
    <rect
       style="display:inline;overflow:visible;visibility:visible;fill:#fefefe;fill-opacity:1;fill-rule:nonzero;stroke:none;stroke-width:2;marker:none;enable-background:accumulate"
       id="rect16x16"
       width="16"
       height="16"
       x="-32"
       y="665.06665"
       inkscape:label="16x16"
       transform="scale(-1,1)" />
    <rect
       style="display:inline;overflow:visible;visibility:visible;fill:#fefefe;fill-opacity:1;fill-rule:nonzero;stroke:none;stroke-width:2;marker:none;enable-background:accumulate"
       id="rect24x24"
       width="24"
       height="24"
       x="-76"
       y="657.06665"
       inkscape:label="24x24"
       transform="scale(-1,1)" />
    <rect
       style="display:inline;overflow:visible;visibility:visible;fill:#fefefe;fill-opacity:1;fill-rule:nonzero;stroke:none;stroke-width:2;marker:none;enable-background:accumulate"
       id="rect32x32"
       width="32"
       height="32"
       x="-128"
       y="649.06665"
       inkscape:label="32x32"
       transform="scale(-1,1)" />
    <rect
       inkscape:label="48x48"
       y="633.06665"
       x="-192"
       height="48"
       width="48"
       id="rect48x48"
       style="display:inline;overflow:visible;visibility:visible;fill:#fefefe;fill-opacity:1;fill-rule:nonzero;stroke:none;stroke-width:2;marker:none;enable-background:accumulate"
       transform="scale(-1,1)" />
  </g>
  <g
     inkscape:groupmode="layer"
     id="layer2"
     inkscape:label="Bitmap"
     style="display:inline">
    <path
       inkscape:connector-curvature="0"
       id="path4605"
       d="m 463.99674,57.20045 a 223.99986,223.99988 0 0 0 -224,223.99992 h 0.392 a 223.99986,223.99988 0 0 1 223.608,-212.79992 223.99986,223.99988 0 0 1 223.4312,212.79992 h 0.5688 a 223.99986,223.99988 0 0 0 -224,-223.99992 z"
       style="display:inline;opacity:1;fill:#ffffff;fill-opacity:0.2;stroke:none;stroke-width:13.32800007;stroke-linecap:round;stroke-linejoin:round;stroke-miterlimit:4;stroke-dasharray:none;stroke-opacity:1;enable-background:new" />
    <path
       sodipodi:nodetypes="ccccc"
       inkscape:connector-curvature="0"
       id="path4489"
       d="M 560.02234,434.0012 512.02074,321.99877 464.01994,466.002 416.01914,321.99877 368.01834,434.0012"
       style="display:inline;fill:none;fill-rule:evenodd;stroke:#fbc02d;stroke-width:16.00031853px;stroke-linecap:round;stroke-linejoin:round;stroke-opacity:1;enable-background:new" />
    <rect
       ry="11.200219"
       rx="11.19958"
       y="292.40039"
       x="327.99585"
       height="201.5999"
       width="55.999973"
       id="rect4607"
       style="display:inline;opacity:1;fill:#7c8898;fill-opacity:1;stroke:none;stroke-width:8;enable-background:new" />
    <path
       inkscape:connector-curvature="0"
       id="path4609"
       d="m 463.99674,46.00045 a 223.99989,223.99989 0 0 0 -224,223.99992 v 123.2 h 33.6 v -112 -11.2 a 190.3999,190.3999 0 0 1 190.4,-190.39992 190.3999,190.3999 0 0 1 190.4,190.39992 v 11.2 112 h 33.6 v -123.2 a 223.99989,223.99989 0 0 0 -224,-223.99992 z"
       style="display:inline;opacity:1;fill:#e2e5e7;fill-opacity:1;stroke:none;stroke-width:8;enable-background:new" />
    <path
       style="display:inline;opacity:1;fill:#ffffff;fill-opacity:0.2;stroke:none;stroke-width:13.32800007;stroke-linecap:round;stroke-linejoin:round;stroke-miterlimit:4;stroke-dasharray:none;stroke-opacity:1;enable-background:new"
       d="M 463.99609 46 A 223.99986 223.99988 0 0 0 239.99609 270 L 239.99609 272 A 223.99986 223.99988 0 0 1 463.99609 48 L 463.99805 48 A 223.99986 223.99988 0 0 1 687.99805 272 L 687.99805 270 A 223.99986 223.99988 0 0 0 463.99805 46 L 463.99609 46 z "
       id="path4611" />
    <rect
       style="display:inline;opacity:1;fill:#7c8898;fill-opacity:1;stroke:none;stroke-width:8;enable-background:new"
       id="rect4613"
       width="55.999973"
       height="201.5999"
       x="544"
       y="292.40039"
       rx="11.19958"
       ry="11.200219" />
    <path
       style="display:inline;fill:url(#linearGradient4633);fill-opacity:1;fill-rule:evenodd;stroke:none;stroke-width:8px;stroke-linecap:butt;stroke-linejoin:miter;stroke-opacity:1;enable-background:new"
       d="m 654.39674,326.00037 33.6,-33.6 v 89.6 l -33.6,-56"
       id="path4615"
       inkscape:connector-curvature="0" />
    <path
       inkscape:connector-curvature="0"
       id="path4617"
       d="M 587.19674,292.40037 V 494.0003 a 100.79995,100.79995 0 0 0 100.8,-100.79993 100.79995,100.79995 0 0 0 -100.8,-100.8 z"
       style="display:inline;opacity:1;fill:#e2e5e7;fill-opacity:1;stroke:none;stroke-width:8;enable-background:new" />
    <path
       inkscape:connector-curvature="0"
       id="path4621"
       d="m 273.59674,326.00037 -33.6,-33.6 v 89.6 l 33.6,-56"
       style="display:inline;fill:url(#linearGradient4635);fill-opacity:1;fill-rule:evenodd;stroke:none;stroke-width:8px;stroke-linecap:butt;stroke-linejoin:miter;stroke-opacity:1;enable-background:new" />
    <path
       inkscape:connector-curvature="0"
       id="path4623"
       d="m 340.79674,292.40037 a 100.79995,100.79995 0 0 0 -100.8,100.8 100.79995,100.79995 0 0 0 100.8,100.79993 z"
       style="display:inline;opacity:1;fill:#e2e5e7;fill-opacity:1;stroke:none;stroke-width:8;enable-background:new" />
    <path
       style="display:inline;opacity:1;fill:#000000;fill-opacity:0.2;stroke:none;stroke-width:8;enable-background:new"
       d="M 240.04102 392.18359 A 100.79995 100.79995 0 0 0 239.99219 393.20312 A 100.79995 100.79995 0 0 0 340.78906 494 L 340.78906 492 A 100.79995 100.79995 0 0 1 240.04102 392.18359 z "
       id="path4625" />
    <path
       inkscape:connector-curvature="0"
       style="display:inline;opacity:1;fill:#ffffff;fill-opacity:0.2;stroke:none;stroke-width:8;enable-background:new"
       d="m 340.79354,292.40677 a 100.79995,100.79995 0 0 0 -100.7968,100.7968 100.79995,100.79995 0 0 0 0.16,3.328 100.79995,100.79995 0 0 1 100.6408,-96.1408 z"
       id="path4627" />
    <path
       style="display:inline;opacity:1;fill:#000000;fill-opacity:0.2;stroke:none;stroke-width:8;enable-background:new"
       d="M 687.94922 392.18359 A 100.79995 100.79995 0 0 1 587.20117 492 L 587.20117 494 A 100.79995 100.79995 0 0 0 687.99805 393.20312 A 100.79995 100.79995 0 0 0 687.94922 392.18359 z "
       id="path4648" />
    <path
       id="path4650"
       d="m 587.19674,292.40677 a 100.79995,100.79995 0 0 1 100.7968,100.7968 100.79995,100.79995 0 0 1 -0.16,3.328 100.79995,100.79995 0 0 0 -100.6408,-96.1408 z"
       style="display:inline;opacity:1;fill:#ffffff;fill-opacity:0.2;stroke:none;stroke-width:8;enable-background:new"
       inkscape:connector-curvature="0" />
    <path
       inkscape:connector-curvature="0"
       id="path4631"
       d="m 463.99674,46.00045 a 223.99989,223.99989 0 0 0 -224,223.99992 v 101.9592 21.2408 a 100.79995,100.79995 0 0 0 10.8504,45.23763 100.79995,100.79995 0 0 0 0.376,0.784 100.79995,100.79995 0 0 0 43.1808,43.4216 100.79995,100.79995 0 0 0 8.4872,3.8935 100.79995,100.79995 0 0 0 0.744,0.328 100.79995,100.79995 0 0 0 7.372,2.516 100.79995,100.79995 0 0 0 2.3192,0.768 100.79995,100.79995 0 0 0 7.1528,1.6624 100.79995,100.79995 0 0 0 2.6248,0.592 100.79995,100.79995 0 0 0 5.3816,0.704 100.79995,100.79995 0 0 0 5.0096,0.616 100.79995,100.79995 0 0 0 7.3064,0.288 h 21.4152 12.1848 c 6.204,0 11.2,-4.9952 11.2,-11.1999 V 303.61157 c 0,-6.2048 -4.996,-11.2 -11.2,-11.2 h -33.6 a 100.79995,100.79995 0 0 0 -67.2008,25.812 v -37.0128 -11.2 a 190.3999,190.3999 0 0 1 190.4,-190.39992 190.3999,190.3999 0 0 1 190.4,190.39992 v 11.2 37.0344 a 100.79995,100.79995 0 0 0 -67.2,-25.8344 h -33.6 c -6.2048,0 -11.2,4.9952 -11.2,11.2 V 482.8108 c 0,6.2047 4.9952,11.1999 11.2,11.1999 h 12.1408 21.4592 a 100.79995,100.79995 0 0 0 45.6528,-11.0471 100.79995,100.79995 0 0 0 0.544,-0.264 100.79995,100.79995 0 0 0 43.2904,-43.1592 100.79995,100.79995 0 0 0 4.1784,-9.144 100.79995,100.79995 0 0 0 2.5376,-7.4376 100.79995,100.79995 0 0 0 0.768,-2.3184 100.79995,100.79995 0 0 0 1.5528,-6.6936 100.79995,100.79995 0 0 0 0.704,-3.128 100.79995,100.79995 0 0 0 0.696,-5.44723 100.79995,100.79995 0 0 0 0.592,-4.7904 100.79995,100.79995 0 0 0 0.288,-7.3504 v -21.3056 -101.8944 A 223.99989,223.99989 0 0 0 464.00554,46.03133 Z"
       style="display:inline;fill:url(#linearGradient4637);fill-opacity:1;stroke:none;stroke-width:16;stroke-linecap:round;stroke-linejoin:round;stroke-miterlimit:4;stroke-dasharray:none;stroke-opacity:1;enable-background:new" />
    <path
       style="display:inline;opacity:1;fill:#ffffff;fill-opacity:0.2;stroke:none;stroke-width:1.66600001;stroke-linecap:round;stroke-linejoin:round;stroke-miterlimit:4;stroke-dasharray:none;stroke-opacity:1;enable-background:new"
       d="m 168,484.99991 a 19.999997,19.999999 0 0 0 -20,20 h 0.0352 a 19.999997,19.999999 0 0 1 19.9648,-19 19.999997,19.999999 0 0 1 19.94922,19 h 0.0508 a 19.999997,19.999999 0 0 0 -20,-20 z"
       id="path4240"
       inkscape:connector-curvature="0" />
    <path
       style="display:inline;fill:none;fill-rule:evenodd;stroke:#fbc02d;stroke-width:2;stroke-linecap:round;stroke-linejoin:round;stroke-miterlimit:4;stroke-dasharray:none;stroke-opacity:1;enable-background:new"
       d="m 160,519.99991 4,-12 4,14 4,-14 4,12"
       id="path4491"
       inkscape:connector-curvature="0" />
    <rect
       style="display:inline;opacity:1;fill:#7c8898;fill-opacity:1;stroke:none;enable-background:new"
       id="rect4206"
       width="5"
       height="18"
       x="156"
       y="506"
       rx="0.99996299"
       ry="1.00002" />
    <path
       style="display:inline;opacity:1;fill:#e2e5e7;fill-opacity:1;stroke:none;enable-background:new"
       d="m 168,483.99991 a 20,20 0 0 0 -20,20 v 11 h 3 v -10 -1 a 17,17 0 0 1 17,-17 17,17 0 0 1 17,17 v 1 10 h 3 v -11 a 20,20 0 0 0 -20,-20 z"
       id="path4160"
       inkscape:connector-curvature="0" />
    <path
       inkscape:connector-curvature="0"
       style="display:inline;opacity:1;fill:#ffffff;fill-opacity:0.2;stroke:none;stroke-width:1.66600001;stroke-linecap:round;stroke-linejoin:round;stroke-miterlimit:4;stroke-dasharray:none;stroke-opacity:1;enable-background:new"
       d="m 168,483.99991 a 19.999997,19.999999 0 0 0 -20,20 v 1 a 19.999997,19.999999 0 0 1 20,-20 19.999997,19.999999 0 0 1 20,20 v -1 a 19.999997,19.999999 0 0 0 -20,-20 z"
       id="path4179-8" />
    <rect
       ry="1.00002"
       rx="0.99996299"
       y="506"
       x="175"
       height="18"
       width="5"
       id="rect4208"
       style="display:inline;opacity:1;fill:#7c8898;fill-opacity:1;stroke:none;enable-background:new" />
    <path
       inkscape:connector-curvature="0"
       id="path4248"
       d="m 185,508.99991 3,-3 v 8 l -3,-5"
       style="display:inline;fill:url(#linearGradient4250);fill-opacity:1;fill-rule:evenodd;stroke:none;stroke-width:1px;stroke-linecap:butt;stroke-linejoin:miter;stroke-opacity:1;enable-background:new" />
    <path
       style="display:inline;opacity:1;fill:#e2e5e7;fill-opacity:1;stroke:none;enable-background:new"
       d="m 179,505.99991 v 18 a 9,9 0 0 0 9,-9 9,9 0 0 0 -9,-9 z"
       id="path4189"
       inkscape:connector-curvature="0" />
    <path
       inkscape:connector-curvature="0"
       style="display:inline;opacity:1;fill:#000000;fill-opacity:0.2;stroke:none;enable-background:new"
       d="m 179,523.99991 a 9,9 0 0 0 9,-9 9,9 0 0 0 -0.0215,-0.42383 9,9 0 0 1 -8.9785,8.42383 z"
       id="path4603" />
    <path
       style="display:inline;fill:url(#linearGradient4246);fill-opacity:1;fill-rule:evenodd;stroke:none;stroke-width:1px;stroke-linecap:butt;stroke-linejoin:miter;stroke-opacity:1;enable-background:new"
       d="m 151,508.99991 -3,-3 v 8 l 3,-5"
       id="path4230"
       inkscape:connector-curvature="0" />
    <path
       style="display:inline;opacity:1;fill:#e2e5e7;fill-opacity:1;stroke:none;enable-background:new"
       d="m 157,505.99991 a 9,9 0 0 0 -9,9 9,9 0 0 0 9,9 z"
       id="circle4191"
       inkscape:connector-curvature="0" />
    <path
       id="path4601"
       d="m 157,523.99991 a 9,9 0 0 1 -9,-9 9,9 0 0 1 0.0215,-0.42383 9,9 0 0 0 8.9785,8.42383 z"
       style="display:inline;opacity:1;fill:#000000;fill-opacity:0.2;stroke:none;enable-background:new"
       inkscape:connector-curvature="0" />
    <path
       inkscape:connector-curvature="0"
       style="display:inline;opacity:1;fill:#ffffff;fill-opacity:0.2;stroke:none;enable-background:new"
       d="m 157,505.99991 a 9,9 0 0 0 -9,9 9,9 0 0 0 0.0215,0.42383 9,9 0 0 1 8.9785,-8.42383 z"
       id="path4488" />
    <path
       id="path4493"
       d="m 179,505.99991 a 9,9 0 0 1 9,9 9,9 0 0 1 -0.0215,0.42383 A 9,9 0 0 0 179,506.99991 Z"
       style="display:inline;opacity:1;fill:#ffffff;fill-opacity:0.2;stroke:none;enable-background:new"
       inkscape:connector-curvature="0" />
    <path
       style="display:inline;fill:url(#linearGradient4726);fill-opacity:1;stroke:none;stroke-width:2;stroke-linecap:round;stroke-linejoin:round;stroke-miterlimit:4;stroke-dasharray:none;stroke-opacity:1;enable-background:new"
       d="m 168,483.99991 a 20,20 0 0 0 -20,20 v 9.10352 1.89648 a 9,9 0 0 0 0.96875,4.03906 9,9 0 0 0 0.0332,0.0703 9,9 0 0 0 3.85547,3.87695 9,9 0 0 0 0.75781,0.34765 9,9 0 0 0 0.0664,0.0293 9,9 0 0 0 0.6582,0.22461 9,9 0 0 0 0.20704,0.0684 9,9 0 0 0 0.63867,0.14844 9,9 0 0 0 0.23437,0.0527 9,9 0 0 0 0.48047,0.0625 9,9 0 0 0 0.44727,0.0547 9,9 0 0 0 0.65235,0.0254 H 158.91211 160 c 0.55398,0 1,-0.44599 1,-1 v -16 c 0,-0.55401 -0.44602,-1 -1,-1 h -3 a 9,9 0 0 0 -6,2.30469 v -3.30469 -1 a 17,17 0 0 1 17,-17 17,17 0 0 1 17,17 v 1 3.30664 a 9,9 0 0 0 -6,-2.30664 h -3 c -0.55398,0 -1,0.44599 -1,1 v 16 c 0,0.55401 0.44602,1 1,1 H 177.08398 179 a 9,9 0 0 0 4.07617,-0.98633 9,9 0 0 0 0.0488,-0.0234 9,9 0 0 0 3.86523,-3.85351 9,9 0 0 0 0,-0.002 9,9 0 0 0 0.37305,-0.81641 9,9 0 0 0 0.22656,-0.66406 9,9 0 0 0 0.0684,-0.20703 9,9 0 0 0 0.13868,-0.59766 9,9 0 0 0 0.0625,-0.2793 9,9 0 0 0 0.0625,-0.48633 9,9 0 0 0 0.0527,-0.42773 9,9 0 0 0 0.0254,-0.65624 v -1.90234 -9.09766 a 20,20 0 0 0 -20,-20 z"
       id="path4724"
       inkscape:connector-curvature="0" />
    <path
       inkscape:connector-curvature="0"
       id="path4652"
       d="M 63.99999,506.49992 A 9.9999935,9.9999945 0 0 0 54,516.49991 h 0.0176 a 9.9999935,9.9999945 0 0 1 9.98239,-9.49999 9.9999935,9.9999945 0 0 1 9.97461,9.49999 H 74 a 9.9999935,9.9999945 0 0 0 -10,-9.99999 z"
       style="display:inline;opacity:1;fill:#ffffff;fill-opacity:0.2;stroke:none;stroke-width:1.66600001;stroke-linecap:round;stroke-linejoin:round;stroke-miterlimit:4;stroke-dasharray:none;stroke-opacity:1;enable-background:new" />
    <path
       style="display:inline;fill:none;fill-rule:evenodd;stroke:#fbc02d;stroke-width:1px;stroke-linecap:round;stroke-linejoin:round;stroke-opacity:1;enable-background:new"
       d="m 60.5,522.50007 2,-4 1.5,6 1.5,-6 2,4"
       id="path4478"
       inkscape:connector-curvature="0"
       sodipodi:nodetypes="ccccc" />
    <rect
       ry="0.50000978"
       rx="0.49998125"
       y="517"
       x="58.5"
       height="8.9999952"
       width="2.4999988"
       id="rect4654"
       style="display:inline;opacity:1;fill:#7c8898;fill-opacity:1;stroke:none;enable-background:new" />
    <path
       inkscape:connector-curvature="0"
       id="path4656"
       d="M 63.99999,505.99992 A 9.999995,9.999995 0 0 0 54,515.99991 v 5.5 h 1.5 v -5 -0.5 a 8.4999958,8.4999958 0 0 1 8.49999,-8.49999 8.4999958,8.4999958 0 0 1 8.5,8.49999 v 0.5 5 h 1.5 v -5.5 a 9.999995,9.999995 0 0 0 -10,-9.99999 z"
       style="display:inline;opacity:1;fill:#e2e5e7;fill-opacity:1;stroke:none;enable-background:new" />
    <path
       inkscape:connector-curvature="0"
       style="display:inline;opacity:1;fill:#ffffff;fill-opacity:0.2;stroke:none;stroke-width:1.66600001;stroke-linecap:round;stroke-linejoin:round;stroke-miterlimit:4;stroke-dasharray:none;stroke-opacity:1;enable-background:new"
       d="m 64,505.99991 a 9.9999935,9.9999945 0 0 0 -10,10 v 0.5 0.5 a 9.9999935,9.9999945 0 0 1 10,-10 9.9999935,9.9999945 0 0 1 10,10 v -0.5 a 9.9999935,9.9999945 0 0 0 -0.043,-0.85547 9.9999935,9.9999945 0 0 1 0.043,0.85547 v -0.5 a 9.9999935,9.9999945 0 0 0 -10,-10 z m 0,0.5 a 9.9999935,9.9999945 0 0 0 -0.85547,0.043 9.9999935,9.9999945 0 0 1 0.85547,-0.043 z m 0.85547,0.043 a 9.9999935,9.9999945 0 0 1 0.50195,0.0625 9.9999935,9.9999945 0 0 0 -0.50195,-0.0625 z m -2.21289,0.0625 a 9.9999935,9.9999945 0 0 0 -0.47266,0.0703 9.9999935,9.9999945 0 0 1 0.47266,-0.0703 z m 3.1875,0.0703 a 9.9999935,9.9999945 0 0 1 0.51758,0.11524 9.9999935,9.9999945 0 0 0 -0.51758,-0.11524 z m -4.17774,0.11524 a 9.9999935,9.9999945 0 0 0 -0.46679,0.12109 9.9999935,9.9999945 0 0 1 0.46679,-0.12109 z m 5.16211,0.12109 a 9.9999935,9.9999945 0 0 1 0.47657,0.15625 9.9999935,9.9999945 0 0 0 -0.47657,-0.15625 z m -6.10547,0.15625 a 9.9999935,9.9999945 0 0 0 -0.45898,0.16795 9.9999935,9.9999945 0 0 1 0.45898,-0.16797 z m 7.04102,0.16795 a 9.9999935,9.9999945 0 0 1 0.48047,0.21484 9.9999935,9.9999945 0 0 0 -0.48047,-0.21484 z m -7.98047,0.21484 a 9.9999935,9.9999945 0 0 0 -0.42773,0.20703 9.9999935,9.9999945 0 0 1 0.42773,-0.20703 z m 8.88867,0.20703 a 9.9999935,9.9999945 0 0 1 0.46485,0.26758 9.9999935,9.9999945 0 0 0 -0.46485,-0.26758 z m -9.78125,0.26758 a 9.9999935,9.9999945 0 0 0 -0.38672,0.23633 9.9999935,9.9999945 0 0 1 0.38672,-0.23633 z m 10.63282,0.23633 a 9.9999935,9.9999945 0 0 1 0.41406,0.29492 9.9999935,9.9999945 0 0 0 -0.41406,-0.29492 z m -11.4336,0.29492 a 9.9999935,9.9999945 0 0 0 -0.41406,0.31641 9.9999935,9.9999945 0 0 1 0.41406,-0.31641 z m 12.26172,0.31641 a 9.9999935,9.9999945 0 0 1 0.34375,0.30273 9.9999935,9.9999945 0 0 0 -0.34375,-0.30273 z m -13.01953,0.30273 a 9.9999935,9.9999945 0 0 0 -0.38477,0.35742 9.9999935,9.9999945 0 0 1 0.38477,-0.35742 z m 13.74805,0.35742 a 9.9999935,9.9999945 0 0 1 0.35742,0.38477 9.9999935,9.9999945 0 0 0 -0.35742,-0.38477 z m -14.49024,0.38477 a 9.9999935,9.9999945 0 0 0 -0.30273,0.34375 9.9999935,9.9999945 0 0 1 0.30273,-0.34375 z m 15.15039,0.34375 a 9.9999935,9.9999945 0 0 1 0.31641,0.41406 9.9999935,9.9999945 0 0 0 -0.31641,-0.41406 z m -15.76953,0.41406 a 9.9999935,9.9999945 0 0 0 -0.29492,0.41406 9.9999935,9.9999945 0 0 1 0.29492,-0.41406 z m 16.38086,0.41406 a 9.9999935,9.9999945 0 0 1 0.23633,0.38672 9.9999935,9.9999945 0 0 0 -0.23633,-0.38672 z m -16.91211,0.38672 a 9.9999935,9.9999945 0 0 0 -0.26758,0.46485 9.9999935,9.9999945 0 0 1 0.26758,-0.46485 z m 17.41602,0.46485 a 9.9999935,9.9999945 0 0 1 0.20703,0.42773 9.9999935,9.9999945 0 0 0 -0.20703,-0.42773 z m -17.89063,0.42773 a 9.9999935,9.9999945 0 0 0 -0.21484,0.48047 9.9999935,9.9999945 0 0 1 0.21484,-0.48047 z m 18.3125,0.48047 a 9.9999935,9.9999945 0 0 1 0.16797,0.45898 9.9999935,9.9999945 0 0 0 -0.16797,-0.45898 z m -18.69531,0.45898 a 9.9999935,9.9999945 0 0 0 -0.15625,0.47657 9.9999935,9.9999945 0 0 1 0.15625,-0.47657 z m 19.01953,0.47657 a 9.9999935,9.9999945 0 0 1 0.12109,0.46679 9.9999935,9.9999945 0 0 0 -0.12109,-0.46679 z m -19.30273,0.48828 a 9.9999935,9.9999945 0 0 0 -0.10547,0.47461 9.9999935,9.9999945 0 0 1 0.10547,-0.47461 z m 19.53906,0.49609 a 9.9999935,9.9999945 0 0 1 0.0703,0.47266 9.9999935,9.9999945 0 0 0 -0.0703,-0.47266 z m -19.72656,0.51563 a 9.9999935,9.9999945 0 0 0 -0.0547,0.45507 9.9999935,9.9999945 0 0 1 0.0547,-0.45507 z"
       id="path4658" />
    <rect
       style="display:inline;opacity:1;fill:#7c8898;fill-opacity:1;stroke:none;enable-background:new"
       id="rect4660"
       width="2.4999988"
       height="8.9999952"
       x="67"
       y="517"
       rx="0.49998125"
       ry="0.50000978" />
    <path
       style="display:inline;fill:url(#linearGradient4682);fill-opacity:1;fill-rule:evenodd;stroke:none;stroke-width:1px;stroke-linecap:butt;stroke-linejoin:miter;stroke-opacity:1;enable-background:new"
       d="m 72.49999,518.49991 1.5,-1.5 v 4 l -1.5,-2.5"
       id="path4662"
       inkscape:connector-curvature="0" />
    <path
       inkscape:connector-curvature="0"
       style="display:inline;opacity:1;fill:#e2e5e7;fill-opacity:1;stroke:none;enable-background:new"
       d="m 69,516.99991 v 9 h 0.5 a 4.4999978,4.4999978 0 0 0 4.5,-4.5 4.4999978,4.4999978 0 0 0 -4.5,-4.5 z"
       id="path4664" />
    <path
       inkscape:connector-curvature="0"
       id="path4668"
       d="m 55.5,518.49991 -1.5,-1.5 v 4 l 1.5,-2.5"
       style="display:inline;fill:url(#linearGradient4684);fill-opacity:1;fill-rule:evenodd;stroke:none;stroke-width:1px;stroke-linecap:butt;stroke-linejoin:miter;stroke-opacity:1;enable-background:new" />
    <path
       inkscape:connector-curvature="0"
       style="display:inline;opacity:1;fill:#e2e5e7;fill-opacity:1;stroke:none;enable-background:new"
       d="m 58.5,516.99991 a 4.4999978,4.4999978 0 0 0 -4.5,4.5 4.4999978,4.4999978 0 0 0 4.5,4.5 H 59 v -9 z"
       id="path4671" />
    <path
       inkscape:connector-curvature="0"
       style="display:inline;opacity:1;fill:#ffffff;fill-opacity:0.2;stroke:none;enable-background:new"
       d="m 58.5,516.99991 a 4.4999978,4.4999978 0 0 0 -4.5,4.5 4.4999978,4.4999978 0 0 0 0.0117,0.20117 4.4999978,4.4999978 0 0 0 -0.0117,0.29883 4.4999978,4.4999978 0 0 0 0.0117,0.21289 4.4999978,4.4999978 0 0 1 4.48828,-4.21289 h 0.5 v -1 z"
       id="path4675" />
    <path
       inkscape:connector-curvature="0"
       style="display:inline;opacity:1;fill:#ffffff;fill-opacity:0.2;stroke:none;enable-background:new"
       d="m 69,516.99991 v 1 h 0.5 a 4.4999978,4.4999978 0 0 1 4.48828,4.21289 4.4999978,4.4999978 0 0 0 0.0117,-0.21289 4.4999978,4.4999978 0 0 0 -0.0117,-0.29883 4.4999978,4.4999978 0 0 0 0.0117,-0.20117 4.4999978,4.4999978 0 0 0 -4.5,-4.5 z"
       id="path4677" />
    <path
       style="display:inline;opacity:1;fill:#ffffff;fill-opacity:0.2;stroke:none;stroke-width:1.66600001;stroke-linecap:round;stroke-linejoin:round;stroke-miterlimit:4;stroke-dasharray:none;stroke-opacity:1;enable-background:new"
       d="M 111.99999,498.69999 A 13.999981,13.999983 0 0 0 98,512.69997 h 0.0247 A 13.999981,13.999983 0 0 1 112,499.39999 a 13.999981,13.999983 0 0 1 13.96443,13.29998 h 0.0356 A 13.999981,13.999983 0 0 0 112,498.69999 Z"
       id="path4698"
       inkscape:connector-curvature="0" />
    <path
       style="display:inline;fill:none;fill-rule:evenodd;stroke:#fbc02d;stroke-width:1px;stroke-linecap:round;stroke-linejoin:round;stroke-opacity:1;enable-background:new"
       d="m 118,522.50002 -3,-7 -3,9 -3,-9 -3,7"
       id="path4486"
       inkscape:connector-curvature="0"
       sodipodi:nodetypes="ccccc" />
    <rect
       style="display:inline;opacity:1;fill:#7c8898;fill-opacity:1;stroke:none;enable-background:new"
       id="rect4700"
       width="3.4999959"
       height="12.599985"
       x="103.5"
       y="513.40002"
       rx="0.69997329"
       ry="0.70001322" />
    <path
       style="display:inline;opacity:1;fill:#e2e5e7;fill-opacity:1;stroke:none;enable-background:new"
       d="M 111.99999,497.99999 A 13.999983,13.999983 0 0 0 98,511.99997 v 7.69999 h 2.1 v -6.99999 -0.7 a 11.899986,11.899986 0 0 1 11.89999,-11.89998 11.899986,11.899986 0 0 1 11.89998,11.89998 v 0.7 6.99999 h 2.1 v -7.69999 a 13.999983,13.999983 0 0 0 -13.99998,-13.99998 z"
       id="path4703"
       inkscape:connector-curvature="0" />
    <path
       inkscape:connector-curvature="0"
       style="display:inline;opacity:1;fill:#ffffff;fill-opacity:0.2;stroke:none;stroke-width:1.66600001;stroke-linecap:round;stroke-linejoin:round;stroke-miterlimit:4;stroke-dasharray:none;stroke-opacity:1;enable-background:new"
       d="m 112,497.99991 a 13.999981,13.999983 0 0 0 -14,14 v 0.5 0.5 a 13.999989,13.999983 0 0 1 14,-14 13.999989,13.999983 0 0 1 13.95703,13.14648 13.999981,13.999983 0 0 1 0.0195,0.375 13.999989,13.999983 0 0 1 0.0235,0.47852 v -0.5 -0.5 a 13.999981,13.999983 0 0 0 -14,-14 z m 0,0.5 a 13.999981,13.999983 0 0 0 -1.19727,0.0606 13.999989,13.999983 0 0 1 1.19727,-0.0606 z m 1.2207,0.0625 a 13.999989,13.999983 0 0 1 0.56641,0.0684 13.999981,13.999983 0 0 0 -0.56641,-0.0684 z m -3.08984,0.0781 a 13.999981,13.999983 0 0 0 -0.71875,0.10938 13.999989,13.999983 0 0 1 0.71875,-0.10938 z m 4.50781,0.1211 a 13.999989,13.999983 0 0 1 0.46485,0.10351 13.999981,13.999983 0 0 0 -0.46485,-0.10351 z m -5.88672,0.13672 a 13.999981,13.999983 0 0 0 -0.6914,0.17578 13.999989,13.999983 0 0 1 0.6914,-0.17578 z m 7.26172,0.20117 a 13.999989,13.999983 0 0 1 0.40625,0.13477 13.999981,13.999983 0 0 0 -0.40625,-0.13477 z m -8.60937,0.19336 a 13.999981,13.999983 0 0 0 -0.66797,0.24414 13.999989,13.999983 0 0 1 0.66797,-0.24414 z m 9.92968,0.27539 a 13.999989,13.999983 0 0 1 0.36914,0.16602 13.999981,13.999983 0 0 0 -0.36914,-0.16602 z m -11.24804,0.25976 a 13.999981,13.999983 0 0 0 -0.59571,0.28711 13.999989,13.999983 0 0 1 0.59571,-0.28711 z m 12.54883,0.35743 a 13.999989,13.999983 0 0 1 0.23046,0.13281 13.999981,13.999983 0 0 0 -0.23046,-0.13281 z m -13.78321,0.29492 a 13.999981,13.999983 0 0 0 -0.59179,0.36328 13.999989,13.999983 0 0 1 0.59179,-0.36328 z m 14.99805,0.44141 a 13.999989,13.999983 0 0 1 0.16797,0.12109 13.999981,13.999983 0 0 0 -0.16797,-0.12109 z m -16.12305,0.30273 a 13.999981,13.999983 0 0 0 -0.59179,0.45117 13.999989,13.999983 0 0 1 0.59179,-0.45117 z m 17.24414,0.54492 a 13.999989,13.999983 0 0 1 0.13868,0.12109 13.999981,13.999983 0 0 0 -0.13868,-0.12109 z m -18.34375,0.35156 a 13.999981,13.999983 0 0 0 -0.51953,0.48633 13.999989,13.999983 0 0 1 0.51953,-0.48633 z m 19.38672,0.61524 a 13.999989,13.999983 0 0 1 0.0742,0.0781 13.999981,13.999983 0 0 0 -0.0742,-0.0781 z m -20.39258,0.39062 a 13.999981,13.999983 0 0 0 -0.44531,0.50782 13.999989,13.999983 0 0 1 0.44531,-0.50782 z m 21.31641,0.65821 a 13.999989,13.999983 0 0 1 0.0703,0.0898 13.999981,13.999983 0 0 0 -0.0703,-0.0898 z m -22.21289,0.4414 a 13.999981,13.999983 0 0 0 -0.37891,0.53125 13.999989,13.999983 0 0 1 0.37891,-0.53125 z m -0.753907,1.14258 a 13.999981,13.999983 0 0 0 -0.351562,0.61328 13.999989,13.999983 0 0 1 0.351562,-0.61328 z m -0.646484,1.22656 a 13.999981,13.999983 0 0 0 -0.28711,0.64063 13.999989,13.999983 0 0 1 0.28711,-0.64063 z m -0.53125,1.3086 a 13.999981,13.999983 0 0 0 -0.21875,0.65625 13.999989,13.999983 0 0 1 0.21875,-0.65625 z m -0.394531,1.34765 A 13.999981,13.999983 0 0 0 98.25,509.912 a 13.999989,13.999983 0 0 1 0.148438,-0.66016 z m -0.257813,1.37891 a 13.999981,13.999983 0 0 0 -0.08008,0.67187 13.999989,13.999983 0 0 1 0.08008,-0.67187 z"
       id="path4705" />
    <rect
       ry="0.70001322"
       rx="0.69997329"
       y="513.40002"
       x="116.99998"
       height="12.599985"
       width="3.4999959"
       id="rect4707"
       style="display:inline;opacity:1;fill:#7c8898;fill-opacity:1;stroke:none;enable-background:new" />
    <path
       inkscape:connector-curvature="0"
       id="path4709"
       d="m 123.89997,515.49997 2.1,-2.1 v 5.6 l -2.1,-3.5"
       style="display:inline;fill:url(#linearGradient4727);fill-opacity:1;fill-rule:evenodd;stroke:none;stroke-width:1px;stroke-linecap:butt;stroke-linejoin:miter;stroke-opacity:1;enable-background:new" />
    <path
       style="display:inline;opacity:1;fill:#e2e5e7;fill-opacity:1;stroke:none;enable-background:new"
       d="m 119.69997,513.39997 v 12.59999 a 6.2999925,6.2999925 0 0 0 6.3,-6.3 6.2999925,6.2999925 0 0 0 -6.3,-6.29999 z"
       id="path4711"
       inkscape:connector-curvature="0" />
    <path
       inkscape:connector-curvature="0"
       style="display:inline;opacity:1;fill:#ffffff;fill-opacity:0.2;stroke:none;enable-background:new"
       d="m 119.69922,513.4003 v 0.5 a 6.2999925,6.2999925 0 0 1 0.37695,0.0195 6.2999925,6.2999925 0 0 0 -0.37695,-0.0195 v 0.49805 a 6.2999925,6.2999925 0 0 1 6.29101,6.00976 6.2999925,6.2999925 0 0 0 0.01,-0.20898 6.2999925,6.2999925 0 0 0 -0.01,-0.29102 6.2999925,6.2999925 0 0 0 0,-0.008 6.2999925,6.2999925 0 0 0 0.01,-0.19922 6.2999925,6.2999925 0 0 0 -6.30078,-6.30078 z m 0.71289,0.54297 a 6.2999925,6.2999925 0 0 1 0.26367,0.041 6.2999925,6.2999925 0 0 0 -0.26367,-0.041 z m 0.62695,0.10547 a 6.2999925,6.2999925 0 0 1 0.25,0.0625 6.2999925,6.2999925 0 0 0 -0.25,-0.0625 z m 0.60156,0.16211 a 6.2999925,6.2999925 0 0 1 0.2793,0.10156 6.2999925,6.2999925 0 0 0 -0.2793,-0.10156 z m 0.58008,0.2207 a 6.2999925,6.2999925 0 0 1 0.26953,0.12891 6.2999925,6.2999925 0 0 0 -0.26953,-0.12891 z m 0.57227,0.28516 a 6.2999925,6.2999925 0 0 1 0.22265,0.13476 6.2999925,6.2999925 0 0 0 -0.22265,-0.13476 z m 0.53711,0.33789 a 6.2999925,6.2999925 0 0 1 0.19726,0.15039 6.2999925,6.2999925 0 0 0 -0.19726,-0.15039 z m 0.49804,0.39258 a 6.2999925,6.2999925 0 0 1 0.17188,0.16015 6.2999925,6.2999925 0 0 0 -0.17188,-0.16015 z m 0.45313,0.43359 a 6.2999925,6.2999925 0 0 1 0.16016,0.18359 6.2999925,6.2999925 0 0 0 -0.16016,-0.18359 z m 0.41016,0.48437 a 6.2999925,6.2999925 0 0 1 0.125,0.17383 6.2999925,6.2999925 0 0 0 -0.125,-0.17383 z m 0.36132,0.52149 a 6.2999925,6.2999925 0 0 1 0.0918,0.16016 6.2999925,6.2999925 0 0 0 -0.0918,-0.16016 z m 0.3125,0.56836 a 6.2999925,6.2999925 0 0 1 0.0508,0.11523 6.2999925,6.2999925 0 0 0 -0.0508,-0.11523 z m 0.24024,0.56445 a 6.2999925,6.2999925 0 0 1 0.0606,0.18555 6.2999925,6.2999925 0 0 0 -0.0606,-0.18555 z m 0.1875,0.59961 a 6.2999925,6.2999925 0 0 1 0.041,0.17774 6.2999925,6.2999925 0 0 0 -0.041,-0.17774 z m 0.12891,0.625 a 6.2999925,6.2999925 0 0 1 0.0195,0.15234 6.2999925,6.2999925 0 0 0 -0.0195,-0.15234 z"
       id="path4723" />
    <path
       inkscape:connector-curvature="0"
       style="display:inline;opacity:1;fill:#000000;fill-opacity:0.2;stroke:none;enable-background:new"
       d="m 125.99023,518.9921 a 6.2999975,6.2999925 0 0 1 -6.28906,6.00781 v 0.5 0.5 A 6.2999925,6.2999925 0 0 0 126,519.70108 a 6.2999925,6.2999925 0 0 0 -0.01,-0.20898 6.2999975,6.2999925 0 0 1 -0.0156,0.21093 6.2999925,6.2999925 0 0 0 0.0254,-0.5039 6.2999925,6.2999925 0 0 0 -0.01,-0.20703 z m -0.0683,1.15429 a 6.2999975,6.2999925 0 0 1 -0.0254,0.16797 6.2999925,6.2999925 0 0 0 0.0254,-0.16797 z m -0.13282,0.64063 a 6.2999975,6.2999925 0 0 1 -0.0352,0.13477 6.2999925,6.2999925 0 0 0 0.0352,-0.13477 z m -0.17578,0.56445 a 6.2999975,6.2999925 0 0 1 -0.0684,0.18555 6.2999925,6.2999925 0 0 0 0.0684,-0.18555 z m -0.25,0.58985 a 6.2999975,6.2999925 0 0 1 -0.0762,0.15625 6.2999925,6.2999925 0 0 0 0.0762,-0.15625 z m -0.30273,0.55468 a 6.2999975,6.2999925 0 0 1 -0.0899,0.14649 6.2999925,6.2999925 0 0 0 0.0899,-0.14649 z m -0.33594,0.49219 a 6.2999975,6.2999925 0 0 1 -0.14063,0.1836 6.2999925,6.2999925 0 0 0 0.14063,-0.1836 z m -0.37891,0.45508 a 6.2999975,6.2999925 0 0 1 -0.18164,0.19531 6.2999925,6.2999925 0 0 0 0.18164,-0.19531 z m -0.47461,0.4668 a 6.2999975,6.2999925 0 0 1 -0.16601,0.14648 6.2999925,6.2999925 0 0 0 0.16601,-0.14648 z m -0.46289,0.37304 a 6.2999975,6.2999925 0 0 1 -0.21875,0.15625 6.2999925,6.2999925 0 0 0 0.21875,-0.15625 z m -0.53906,0.35352 a 6.2999975,6.2999925 0 0 1 -0.2168,0.12305 6.2999925,6.2999925 0 0 0 0.2168,-0.12305 z m -0.54883,0.2832 a 6.2999975,6.2999925 0 0 1 -0.23828,0.10742 6.2999925,6.2999925 0 0 0 0.23828,-0.10742 z m -0.58398,0.23438 a 6.2999975,6.2999925 0 0 1 -0.25391,0.082 6.2999925,6.2999925 0 0 0 0.25391,-0.082 z m -0.59961,0.17187 a 6.2999975,6.2999925 0 0 1 -0.26172,0.0586 6.2999925,6.2999925 0 0 0 0.26172,-0.0586 z m -0.59375,0.10938 a 6.2999975,6.2999925 0 0 1 -0.30859,0.0371 6.2999925,6.2999925 0 0 0 0.30859,-0.0371 z"
       id="path4721" />
    <path
       style="display:inline;fill:url(#linearGradient4729);fill-opacity:1;fill-rule:evenodd;stroke:none;stroke-width:1px;stroke-linecap:butt;stroke-linejoin:miter;stroke-opacity:1;enable-background:new"
       d="m 100.1,515.49997 -2.1,-2.1 v 5.6 l 2.1,-3.5"
       id="path4713"
       inkscape:connector-curvature="0" />
    <path
       style="display:inline;opacity:1;fill:#e2e5e7;fill-opacity:1;stroke:none;enable-background:new"
       d="M 104.29999,513.39997 A 6.2999925,6.2999925 0 0 0 98,519.69996 a 6.2999925,6.2999925 0 0 0 6.29999,6.3 z"
       id="path4715"
       inkscape:connector-curvature="0" />
    <path
       id="path4742"
       d="m 98.009,518.9921 a 6.2999975,6.2999925 0 0 0 6.28906,6.00781 v 0.5 0.5 a 6.2999925,6.2999925 0 0 1 -6.29883,-6.29883 6.2999925,6.2999925 0 0 1 0.01,-0.20898 6.2999975,6.2999925 0 0 0 0.0156,0.21093 6.2999925,6.2999925 0 0 1 -0.0254,-0.5039 6.2999925,6.2999925 0 0 1 0.01,-0.20703 z m 0.0683,1.15429 a 6.2999975,6.2999925 0 0 0 0.0254,0.16797 6.2999925,6.2999925 0 0 1 -0.0254,-0.16797 z m 0.13282,0.64063 a 6.2999975,6.2999925 0 0 0 0.0352,0.13477 6.2999925,6.2999925 0 0 1 -0.0352,-0.13477 z m 0.17578,0.56445 a 6.2999975,6.2999925 0 0 0 0.0684,0.18555 6.2999925,6.2999925 0 0 1 -0.0684,-0.18555 z m 0.25,0.58985 a 6.2999975,6.2999925 0 0 0 0.0762,0.15625 6.2999925,6.2999925 0 0 1 -0.0762,-0.15625 z m 0.30273,0.55468 a 6.2999975,6.2999925 0 0 0 0.0899,0.14649 6.2999925,6.2999925 0 0 1 -0.0899,-0.14649 z m 0.33594,0.49219 a 6.2999975,6.2999925 0 0 0 0.14063,0.1836 6.2999925,6.2999925 0 0 1 -0.14063,-0.1836 z m 0.37891,0.45508 a 6.2999975,6.2999925 0 0 0 0.18164,0.19531 6.2999925,6.2999925 0 0 1 -0.18164,-0.19531 z m 0.47461,0.4668 a 6.2999975,6.2999925 0 0 0 0.16601,0.14648 6.2999925,6.2999925 0 0 1 -0.16601,-0.14648 z m 0.46289,0.37304 a 6.2999975,6.2999925 0 0 0 0.21875,0.15625 6.2999925,6.2999925 0 0 1 -0.21875,-0.15625 z m 0.53906,0.35352 a 6.2999975,6.2999925 0 0 0 0.2168,0.12305 6.2999925,6.2999925 0 0 1 -0.2168,-0.12305 z m 0.54883,0.2832 a 6.2999975,6.2999925 0 0 0 0.23828,0.10742 6.2999925,6.2999925 0 0 1 -0.23828,-0.10742 z m 0.58398,0.23438 a 6.2999975,6.2999925 0 0 0 0.25391,0.082 6.2999925,6.2999925 0 0 1 -0.25391,-0.082 z m 0.59961,0.17187 a 6.2999975,6.2999925 0 0 0 0.26172,0.0586 6.2999925,6.2999925 0 0 1 -0.26172,-0.0586 z m 0.59375,0.10938 a 6.2999975,6.2999925 0 0 0 0.30859,0.0371 6.2999925,6.2999925 0 0 1 -0.30859,-0.0371 z"
       style="display:inline;opacity:1;fill:#000000;fill-opacity:0.2;stroke:none;enable-background:new"
       inkscape:connector-curvature="0" />
    <path
       id="path4744"
       d="m 104.30001,513.4003 v 0.5 a 6.2999925,6.2999925 0 0 0 -0.37695,0.0195 6.2999925,6.2999925 0 0 1 0.37695,-0.0195 v 0.49805 a 6.2999925,6.2999925 0 0 0 -6.29101,6.00976 6.2999925,6.2999925 0 0 1 -0.01,-0.20898 6.2999925,6.2999925 0 0 1 0.01,-0.29102 6.2999925,6.2999925 0 0 1 0,-0.008 6.2999925,6.2999925 0 0 1 -0.01,-0.19922 6.2999925,6.2999925 0 0 1 6.30078,-6.30078 z m -0.71289,0.54297 a 6.2999925,6.2999925 0 0 0 -0.26367,0.041 6.2999925,6.2999925 0 0 1 0.26367,-0.041 z m -0.62695,0.10547 a 6.2999925,6.2999925 0 0 0 -0.25,0.0625 6.2999925,6.2999925 0 0 1 0.25,-0.0625 z m -0.60156,0.16211 a 6.2999925,6.2999925 0 0 0 -0.2793,0.10156 6.2999925,6.2999925 0 0 1 0.2793,-0.10156 z m -0.58008,0.2207 a 6.2999925,6.2999925 0 0 0 -0.26953,0.12891 6.2999925,6.2999925 0 0 1 0.26953,-0.12891 z m -0.57227,0.28516 a 6.2999925,6.2999925 0 0 0 -0.22265,0.13476 6.2999925,6.2999925 0 0 1 0.22265,-0.13476 z m -0.53711,0.33789 a 6.2999925,6.2999925 0 0 0 -0.19726,0.15039 6.2999925,6.2999925 0 0 1 0.19726,-0.15039 z m -0.49804,0.39258 a 6.2999925,6.2999925 0 0 0 -0.17188,0.16015 6.2999925,6.2999925 0 0 1 0.17188,-0.16015 z m -0.45313,0.43359 a 6.2999925,6.2999925 0 0 0 -0.16016,0.18359 6.2999925,6.2999925 0 0 1 0.16016,-0.18359 z m -0.41016,0.48437 a 6.2999925,6.2999925 0 0 0 -0.125,0.17383 6.2999925,6.2999925 0 0 1 0.125,-0.17383 z m -0.36132,0.52149 a 6.2999925,6.2999925 0 0 0 -0.0918,0.16016 6.2999925,6.2999925 0 0 1 0.0918,-0.16016 z m -0.3125,0.56836 a 6.2999925,6.2999925 0 0 0 -0.0508,0.11523 6.2999925,6.2999925 0 0 1 0.0508,-0.11523 z m -0.24024,0.56445 a 6.2999925,6.2999925 0 0 0 -0.0606,0.18555 6.2999925,6.2999925 0 0 1 0.0606,-0.18555 z m -0.1875,0.59961 a 6.2999925,6.2999925 0 0 0 -0.041,0.17774 6.2999925,6.2999925 0 0 1 0.041,-0.17774 z m -0.12891,0.625 a 6.2999925,6.2999925 0 0 0 -0.0195,0.15234 6.2999925,6.2999925 0 0 1 0.0195,-0.15234 z"
       style="display:inline;opacity:1;fill:#ffffff;fill-opacity:0.2;stroke:none;enable-background:new"
       inkscape:connector-curvature="0" />
    <path
       style="display:inline;fill:url(#linearGradient4731);fill-opacity:1;stroke:none;stroke-width:2;stroke-linecap:round;stroke-linejoin:round;stroke-miterlimit:4;stroke-dasharray:none;stroke-opacity:1;enable-background:new"
       d="M 111.99999,497.99999 A 13.999983,13.999983 0 0 0 98,511.99997 v 6.37246 1.32753 a 6.2999925,6.2999925 0 0 0 0.67812,2.82734 6.2999925,6.2999925 0 0 0 0.0232,0.0492 6.2999925,6.2999925 0 0 0 2.69883,2.71386 6.2999925,6.2999925 0 0 0 0.53047,0.24336 6.2999925,6.2999925 0 0 0 0.0465,0.0205 6.2999925,6.2999925 0 0 0 0.46074,0.15723 6.2999925,6.2999925 0 0 0 0.14492,0.0479 6.2999925,6.2999925 0 0 0 0.44707,0.1039 6.2999925,6.2999925 0 0 0 0.16406,0.0369 6.2999925,6.2999925 0 0 0 0.33633,0.0437 6.2999925,6.2999925 0 0 0 0.31309,0.0383 6.2999925,6.2999925 0 0 0 0.45664,0.0178 h 1.33848 0.76152 c 0.38778,0 0.7,-0.31219 0.7,-0.7 v -11.19999 c 0,-0.3878 -0.31222,-0.7 -0.7,-0.7 h -2.1 A 6.2999925,6.2999925 0 0 0 100.1,515.01325 v -2.31328 -0.7 a 11.899986,11.899986 0 0 1 11.89999,-11.89998 11.899986,11.899986 0 0 1 11.89998,11.89998 v 0.7 2.31465 a 6.2999925,6.2999925 0 0 0 -4.2,-1.61465 h -2.09999 c -0.38779,0 -0.7,0.31219 -0.7,0.7 v 11.19999 c 0,0.3878 0.31221,0.7 0.7,0.7 h 0.75878 1.34121 a 6.2999925,6.2999925 0 0 0 2.85332,-0.69043 6.2999925,6.2999925 0 0 0 0.0341,-0.0164 6.2999925,6.2999925 0 0 0 2.70566,-2.69746 6.2999925,6.2999925 0 0 0 0,-0.001 6.2999925,6.2999925 0 0 0 0.26113,-0.57149 6.2999925,6.2999925 0 0 0 0.1586,-0.46484 6.2999925,6.2999925 0 0 0 0.0479,-0.14492 6.2999925,6.2999925 0 0 0 0.0971,-0.41836 6.2999925,6.2999925 0 0 0 0.0437,-0.19551 6.2999925,6.2999925 0 0 0 0.0438,-0.34043 6.2999925,6.2999925 0 0 0 0.0369,-0.29941 6.2999925,6.2999925 0 0 0 0.0178,-0.45937 v -1.33163 -6.36836 A 13.999983,13.999983 0 0 0 112,498.00037 Z"
       id="path4725"
       inkscape:connector-curvature="0" />
    <path
       style="display:inline;fill:none;fill-rule:evenodd;stroke:#fbc02d;stroke-width:1px;stroke-linecap:round;stroke-linejoin:round;stroke-opacity:1;enable-background:new"
       d="m 21.5,524.99991 2.5,-4 2.5,4"
       id="path4476"
       inkscape:connector-curvature="0"
       sodipodi:nodetypes="ccc" />
    <rect
       style="display:inline;opacity:1;fill:#7c8898;fill-opacity:1;stroke:none;enable-background:new"
       id="rect4758"
       width="2.4999988"
       height="8.9999952"
       x="19.5"
       y="519"
       rx="0.49998125"
       ry="0.50000978" />
    <rect
       ry="0.50000978"
       rx="0.49998125"
       y="519"
       x="26"
       height="8.9999952"
       width="2.4999988"
       id="rect4760"
       style="display:inline;opacity:1;fill:#7c8898;fill-opacity:1;stroke:none;enable-background:new" />
    <path
       inkscape:connector-curvature="0"
       style="display:inline;opacity:1;fill:#e2e5e7;fill-opacity:1;stroke:none;enable-background:new"
       d="m 28,519.03311 v 8.93555 a 4.4999978,4.4999978 0 0 0 4,-4.46875 4.4999978,4.4999978 0 0 0 -4,-4.4668 z"
       id="path4764" />
    <path
       inkscape:connector-curvature="0"
       style="display:inline;opacity:1;fill:#e2e5e7;fill-opacity:1;stroke:none;enable-background:new"
       d="m 20,519.03116 a 4.4999978,4.4999978 0 0 0 -4,4.46875 4.4999978,4.4999978 0 0 0 4,4.4668 z"
       id="path4768" />
    <path
       inkscape:connector-curvature="0"
       style="display:inline;opacity:1;fill:#e2e5e7;fill-opacity:1;stroke:none;stroke-width:3;stroke-linecap:round;stroke-linejoin:round;stroke-miterlimit:4;stroke-dasharray:none;stroke-opacity:1;enable-background:new"
       d="m 24,511.99991 a 8,8 0 0 0 -0.67578,0.0332 8,8 0 0 0 -0.42774,0.0527 8,8 0 0 0 -0.36718,0.0566 8,8 0 0 0 -0.375,0.082 8,8 0 0 0 -0.41992,0.10742 8,8 0 0 0 -0.3418,0.11524 8,8 0 0 0 -0.39649,0.14257 8,8 0 0 0 -0.39648,0.17969 8,8 0 0 0 -0.3125,0.15039 8,8 0 0 0 -0.38867,0.2207 8,8 0 0 0 -0.31055,0.19141 8,8 0 0 0 -0.33789,0.24024 8,8 0 0 0 -0.30859,0.23632 8,8 0 0 0 -0.3086,0.27149 8,8 0 0 0 -0.28711,0.26562 8,8 0 0 0 -0.26562,0.28711 8,8 0 0 0 -0.27149,0.3086 8,8 0 0 0 -0.23632,0.30859 8,8 0 0 0 -0.24024,0.33789 8,8 0 0 0 -0.1914,0.31055 8,8 0 0 0 -0.22071,0.38867 8,8 0 0 0 -0.15039,0.3125 8,8 0 0 0 -0.17969,0.39648 8,8 0 0 0 -0.14257,0.39649 8,8 0 0 0 -0.11524,0.3418 8,8 0 0 0 -0.10742,0.41992 8,8 0 0 0 -0.082,0.375 8,8 0 0 0 -0.0566,0.36718 8,8 0 0 0 -0.0527,0.42774 8,8 0 0 0 -0.0332,0.67589 v 3 h 2 v -3 a 6,6 0 0 1 0.0234,-0.49414 6,6 0 0 1 0.043,-0.35547 6,6 0 0 1 0.0371,-0.24219 6,6 0 0 1 0.0723,-0.32422 6,6 0 0 1 0.0684,-0.26562 6,6 0 0 1 0.0996,-0.29883 6,6 0 0 1 0.10352,-0.2793 6,6 0 0 1 0.11132,-0.2539 6,6 0 0 1 0.13672,-0.28321 6,6 0 0 1 0.15039,-0.26171 6,6 0 0 1 0.16016,-0.25977 6,6 0 0 1 0.17187,-0.24219 6,6 0 0 1 0.17579,-0.23047 6,6 0 0 1 0.20898,-0.23828 6,6 0 0 1 0.19727,-0.21093 6,6 0 0 1 0.21093,-0.19727 6,6 0 0 1 0.23828,-0.20898 6,6 0 0 1 0.23047,-0.17579 6,6 0 0 1 0.24219,-0.17187 6,6 0 0 1 0.25977,-0.16016 6,6 0 0 1 0.26172,-0.15039 6,6 0 0 1 0.2832,-0.13672 6,6 0 0 1 0.2539,-0.11132 6,6 0 0 1 0.2793,-0.10352 6,6 0 0 1 0.29883,-0.0996 6,6 0 0 1 0.26562,-0.0684 6,6 0 0 1 0.32422,-0.0723 6,6 0 0 1 0.24219,-0.0371 6,6 0 0 1 0.35547,-0.043 6,6 0 0 1 0.49413,-0.0233 6,6 0 0 1 0.49414,0.0234 6,6 0 0 1 0.35547,0.043 6,6 0 0 1 0.24219,0.0371 6,6 0 0 1 0.32422,0.0723 6,6 0 0 1 0.26562,0.0684 6,6 0 0 1 0.29883,0.0996 6,6 0 0 1 0.2793,0.10352 6,6 0 0 1 0.2539,0.11132 6,6 0 0 1 0.28321,0.13672 6,6 0 0 1 0.26171,0.15039 6,6 0 0 1 0.25977,0.16016 6,6 0 0 1 0.24219,0.17187 6,6 0 0 1 0.23047,0.17579 6,6 0 0 1 0.23828,0.20898 6,6 0 0 1 0.21093,0.19727 6,6 0 0 1 0.19727,0.21093 6,6 0 0 1 0.20898,0.23828 6,6 0 0 1 0.17579,0.23047 6,6 0 0 1 0.17187,0.24219 6,6 0 0 1 0.16016,0.25977 6,6 0 0 1 0.15039,0.26171 6,6 0 0 1 0.13672,0.28321 6,6 0 0 1 0.11132,0.2539 6,6 0 0 1 0.10352,0.2793 6,6 0 0 1 0.0996,0.29883 6,6 0 0 1 0.0684,0.26562 6,6 0 0 1 0.0723,0.32422 6,6 0 0 1 0.0371,0.24219 6,6 0 0 1 0.043,0.35547 6,6 0 0 1 0.0234,0.49409 v 3 h 2 v -3 a 8,8 0 0 0 -0.0332,-0.67578 8,8 0 0 0 -0.0527,-0.42774 8,8 0 0 0 -0.0566,-0.36718 8,8 0 0 0 -0.082,-0.375 8,8 0 0 0 -0.10742,-0.41992 8,8 0 0 0 -0.11524,-0.3418 8,8 0 0 0 -0.14257,-0.39649 8,8 0 0 0 -0.17969,-0.39648 8,8 0 0 0 -0.15039,-0.3125 8,8 0 0 0 -0.22071,-0.38867 8,8 0 0 0 -0.1914,-0.31055 8,8 0 0 0 -0.24024,-0.33789 8,8 0 0 0 -0.23632,-0.30859 8,8 0 0 0 -0.27149,-0.3086 8,8 0 0 0 -0.26562,-0.28711 8,8 0 0 0 -0.28711,-0.26562 8,8 0 0 0 -0.3086,-0.27149 8,8 0 0 0 -0.30859,-0.23632 8,8 0 0 0 -0.33789,-0.24024 8,8 0 0 0 -0.31055,-0.19141 8,8 0 0 0 -0.38867,-0.2207 8,8 0 0 0 -0.3125,-0.15039 8,8 0 0 0 -0.39648,-0.17969 8,8 0 0 0 -0.39649,-0.14257 8,8 0 0 0 -0.3418,-0.11524 8,8 0 0 0 -0.41992,-0.10742 8,8 0 0 0 -0.375,-0.082 8,8 0 0 0 -0.36718,-0.0566 8,8 0 0 0 -0.42774,-0.0527 8,8 0 0 0 -0.67579,-0.0333 z"
       id="path4778" />
    <path
       id="path4586"
       d="m 69,526 v -1 h 0.5 a 4.4999978,4.4999978 0 0 0 4.48828,-4.21289 4.4999978,4.4999978 0 0 1 0.0117,0.21289 4.4999978,4.4999978 0 0 1 -0.0117,0.29883 4.4999978,4.4999978 0 0 1 0.0117,0.20117 4.4999978,4.4999978 0 0 1 -4.5,4.5 z"
       style="display:inline;opacity:1;fill:#000000;fill-opacity:0.2;stroke:none;enable-background:new"
       inkscape:connector-curvature="0" />
    <path
       inkscape:connector-curvature="0"
       style="display:inline;opacity:1;fill:#000000;fill-opacity:0.2;stroke:none;enable-background:new"
       d="m 58.99998,526 v -1 h -0.5 A 4.4999978,4.4999978 0 0 1 54.0117,520.78711 4.4999978,4.4999978 0 0 0 54,521 4.4999978,4.4999978 0 0 0 54.0117,521.29883 4.4999978,4.4999978 0 0 0 54,521.5 4.4999978,4.4999978 0 0 0 58.5,526 Z"
       id="path4588" />
    <path
       inkscape:connector-curvature="0"
       id="path4680"
       d="M 63.99999,505.99992 A 9.999995,9.999995 0 0 0 54,515.99991 v 4.55176 0.94824 a 4.4999978,4.4999978 0 0 0 0.48438,2.01953 4.4999978,4.4999978 0 0 0 0.0166,0.0352 4.4999978,4.4999978 0 0 0 1.92774,1.93848 4.4999978,4.4999978 0 0 0 0.3789,0.17382 4.4999978,4.4999978 0 0 0 0.0332,0.0146 4.4999978,4.4999978 0 0 0 0.3291,0.11231 4.4999978,4.4999978 0 0 0 0.10352,0.0342 4.4999978,4.4999978 0 0 0 0.31934,0.0742 4.4999978,4.4999978 0 0 0 0.11718,0.0264 4.4999978,4.4999978 0 0 0 0.24024,0.0312 4.4999978,4.4999978 0 0 0 0.22363,0.0273 4.4999978,4.4999978 0 0 0 0.32618,0.0127 H 59.45606 60 c 0.27699,0 0.5,-0.22299 0.5,-0.5 v -8 c 0,-0.277 -0.22301,-0.5 -0.5,-0.5 h -1.5 a 4.4999978,4.4999978 0 0 0 -3,1.15235 v -1.65235 -0.5 a 8.4999958,8.4999958 0 0 1 8.49999,-8.49993 8.4999958,8.4999958 0 0 1 8.5,8.49999 v 0.5 1.65332 a 4.4999978,4.4999978 0 0 0 -3,-1.15332 h -1.5 c -0.27699,0 -0.5,0.223 -0.5,0.5 v 8 c 0,0.27701 0.22301,0.5 0.5,0.5 h 0.54199 0.95801 a 4.4999978,4.4999978 0 0 0 2.03809,-0.49316 4.4999978,4.4999978 0 0 0 0.0244,-0.0117 4.4999978,4.4999978 0 0 0 1.93261,-1.92676 4.4999978,4.4999978 0 0 0 0,-0.001 4.4999978,4.4999978 0 0 0 0.18652,-0.4082 4.4999978,4.4999978 0 0 0 0.11328,-0.33203 4.4999978,4.4999978 0 0 0 0.0342,-0.10352 4.4999978,4.4999978 0 0 0 0.0693,-0.29883 4.4999978,4.4999978 0 0 0 0.0312,-0.13965 4.4999978,4.4999978 0 0 0 0.0312,-0.24316 4.4999978,4.4999978 0 0 0 0.0263,-0.21387 4.4999978,4.4999978 0 0 0 0.0127,-0.32812 v -0.95117 -4.54883 a 9.999995,9.999995 0 0 0 -9.99999,-9.99999 z"
       style="display:inline;fill:url(#linearGradient4686);fill-opacity:1;stroke:none;stroke-width:2;stroke-linecap:round;stroke-linejoin:round;stroke-miterlimit:4;stroke-dasharray:none;stroke-opacity:1;enable-background:new" />
  </g>
</svg>
