<?xml version="1.0" encoding="UTF-8" standalone="no"?>
<!-- Created with Inkscape (http://www.inkscape.org/) -->

<svg
   xmlns:dc="http://purl.org/dc/elements/1.1/"
   xmlns:cc="http://creativecommons.org/ns#"
   xmlns:rdf="http://www.w3.org/1999/02/22-rdf-syntax-ns#"
   xmlns:svg="http://www.w3.org/2000/svg"
   xmlns="http://www.w3.org/2000/svg"
   xmlns:xlink="http://www.w3.org/1999/xlink"
   xmlns:sodipodi="http://sodipodi.sourceforge.net/DTD/sodipodi-0.dtd"
   xmlns:inkscape="http://www.inkscape.org/namespaces/inkscape"
   width="816"
   height="544"
   viewBox="0 0 816 544"
   version="1.1"
   id="svg1087"
   inkscape:version="0.92.1 r"
   sodipodi:docname="baobab.svg">
  <defs
     id="defs1081">
    <filter
       inkscape:collect="always"
       style="color-interpolation-filters:sRGB"
       id="filter5087"
       x="-0.048"
       width="1.096"
       y="-0.048"
       height="1.096">
      <feGaussianBlur
         inkscape:collect="always"
         stdDeviation="0.8"
         id="feGaussianBlur5089" />
    </filter>
    <filter
       inkscape:collect="always"
       style="color-interpolation-filters:sRGB"
       id="filter4546"
       x="-0.013636364"
       width="1.0272727"
       y="-0.010714286"
       height="1.0214286">
      <feGaussianBlur
         inkscape:collect="always"
         stdDeviation="0.25"
         id="feGaussianBlur4548" />
    </filter>
    <filter
       inkscape:collect="always"
       style="color-interpolation-filters:sRGB"
       id="filter4564"
       x="-0.027272727"
       width="1.0545455"
       y="-0.021428571"
       height="1.0428571">
      <feGaussianBlur
         inkscape:collect="always"
         stdDeviation="4"
         id="feGaussianBlur4566" />
    </filter>
    <linearGradient
       inkscape:collect="always"
       xlink:href="#linearGradient4730"
       id="linearGradient4620"
       gradientUnits="userSpaceOnUse"
       gradientTransform="matrix(0.4782599,0,0,0.47826359,52.52174,24.17187)"
       x1="7"
       y1="1011.3622"
       x2="41.000019"
       y2="1045.3622" />
    <linearGradient
       id="linearGradient4730"
       inkscape:collect="always">
      <stop
         id="stop4726"
         offset="0"
         style="stop-color:#ffffff;stop-opacity:0.05490196" />
      <stop
         id="stop4728"
         offset="1"
         style="stop-color:#177ed5;stop-opacity:0;" />
    </linearGradient>
    <linearGradient
       inkscape:collect="always"
       xlink:href="#linearGradient4730"
       id="linearGradient4435"
       gradientUnits="userSpaceOnUse"
       gradientTransform="matrix(0.65217041,0,0,0.65217328,96.34777,-158.67056)"
       x1="7"
       y1="1011.3622"
       x2="41.000019"
       y2="1045.3622" />
    <linearGradient
       inkscape:collect="always"
       xlink:href="#linearGradient4730"
       id="linearGradient4171-1-0"
       x1="7"
       y1="1011.3622"
       x2="41.000019"
       y2="1045.3622"
       gradientUnits="userSpaceOnUse"
       gradientTransform="matrix(0.95652174,0,0,0.95652174,145.0435,-479.6504)" />
    <linearGradient
       inkscape:collect="always"
       xlink:href="#linearGradient4730"
       id="linearGradient4537"
       gradientUnits="userSpaceOnUse"
       gradientTransform="matrix(1.3043412,0,0,1.3043465,208.69565,-845.3402)"
       x1="7"
       y1="1011.3622"
       x2="41.000019"
       y2="1045.3622" />
    <linearGradient
       inkscape:collect="always"
       xlink:href="#linearGradient4730"
       id="linearGradient4449-0"
       gradientUnits="userSpaceOnUse"
       gradientTransform="matrix(10.43473,0,0,10.434772,293.56521,-10458.722)"
       x1="7"
       y1="1011.3622"
       x2="41.000019"
       y2="1045.3622" />
    <filter
       inkscape:collect="always"
       style="color-interpolation-filters:sRGB"
       id="filter4661"
       x="-0.0135"
       width="1.027"
       y="-0.0108"
       height="1.0216">
      <feGaussianBlur
         inkscape:collect="always"
         stdDeviation="0.18"
         id="feGaussianBlur4663" />
    </filter>
    <filter
       inkscape:collect="always"
       style="color-interpolation-filters:sRGB"
       id="filter5059"
       x="-0.012"
       width="1.024"
       y="-0.012"
       height="1.024">
      <feGaussianBlur
         inkscape:collect="always"
         stdDeviation="0.12"
         id="feGaussianBlur5061" />
    </filter>
    <filter
       inkscape:collect="always"
       style="color-interpolation-filters:sRGB"
       id="filter5114"
       x="-0.024"
       width="1.048"
       y="-0.024"
       height="1.048">
      <feGaussianBlur
         inkscape:collect="always"
         stdDeviation="1.92"
         id="feGaussianBlur5116" />
    </filter>
  </defs>
  <sodipodi:namedview
     id="base"
     pagecolor="#c3c3c3"
     bordercolor="#333333"
     borderopacity="1"
     inkscape:pageopacity="0"
     inkscape:pageshadow="2"
     inkscape:zoom="0.70710678"
     inkscape:cx="-330.8773"
     inkscape:cy="257.90111"
     inkscape:document-units="px"
     inkscape:current-layer="layer2"
     showgrid="true"
     units="px"
     inkscape:showpageshadow="false"
     inkscape:window-width="2560"
     inkscape:window-height="1370"
     inkscape:window-x="0"
     inkscape:window-y="34"
     inkscape:window-maximized="1"
     showguides="false">
    <inkscape:grid
       type="xygrid"
       id="grid4630" />
  </sodipodi:namedview>
  <metadata
     id="metadata1084">
    <rdf:RDF>
      <cc:Work
         rdf:about="">
        <dc:format>image/svg+xml</dc:format>
        <dc:type
           rdf:resource="http://purl.org/dc/dcmitype/StillImage" />
        <dc:title />
        <cc:license
           rdf:resource="http://creativecommons.org/licenses/by-sa/4.0/" />
        <dc:creator>
          <cc:Agent>
            <dc:title>Peter Cornelis</dc:title>
          </cc:Agent>
        </dc:creator>
      </cc:Work>
      <cc:License
         rdf:about="http://creativecommons.org/licenses/by-sa/4.0/">
        <cc:permits
           rdf:resource="http://creativecommons.org/ns#Reproduction" />
        <cc:permits
           rdf:resource="http://creativecommons.org/ns#Distribution" />
        <cc:requires
           rdf:resource="http://creativecommons.org/ns#Notice" />
        <cc:requires
           rdf:resource="http://creativecommons.org/ns#Attribution" />
        <cc:permits
           rdf:resource="http://creativecommons.org/ns#DerivativeWorks" />
        <cc:requires
           rdf:resource="http://creativecommons.org/ns#ShareAlike" />
      </cc:License>
    </rdf:RDF>
  </metadata>
  <g
     inkscape:label="Baseplate"
     inkscape:groupmode="layer"
     id="layer1"
     transform="translate(0,-153.06668)"
     style="display:none">
    <rect
       style="display:inline;overflow:visible;visibility:visible;fill:#fefefe;fill-opacity:1;fill-rule:nonzero;stroke:none;stroke-width:2;marker:none;enable-background:accumulate"
       id="rect3951"
       width="512"
       height="512"
       x="-800"
       y="169.06668"
       inkscape:label="48x48"
       transform="scale(-1,1)" />
    <text
       y="733.32251"
       xml:space="preserve"
       x="15.006836"
       style="font-style:normal;font-variant:normal;font-weight:normal;font-stretch:normal;line-height:0%;font-family:'DejaVu Sans';-inkscape-font-specification:'DejaVu Sans';display:inline;fill:#000000;fill-opacity:1;stroke:none;enable-background:new"
       inkscape:label="context"
       id="context"><tspan
         style="font-style:normal;font-variant:normal;font-weight:normal;font-stretch:normal;font-size:18px;line-height:1.25;font-family:'DejaVu Sans';-inkscape-font-specification:'DejaVu Sans'"
         y="733.32251"
         x="15.006836"
         sodipodi:role="line"
         id="tspan3933">apps</tspan></text>
    <text
       y="733.32251"
       xml:space="preserve"
       x="142.48828"
       style="font-style:normal;font-variant:normal;font-weight:bold;font-stretch:normal;line-height:0%;font-family:'DejaVu Sans';-inkscape-font-specification:'DejaVu Sans Bold';text-align:start;writing-mode:lr-tb;text-anchor:start;display:inline;fill:#000000;fill-opacity:1;stroke:none;enable-background:new"
       inkscape:label="icon-name"
       id="icon-name"><tspan
         style="font-style:normal;font-variant:normal;font-weight:bold;font-stretch:normal;font-size:18px;line-height:1.25;font-family:'DejaVu Sans';-inkscape-font-specification:'DejaVu Sans Bold'"
         y="733.32251"
         x="142.48828"
         sodipodi:role="line"
         id="tspan3937">baobab</tspan></text>
    <rect
       style="display:inline;overflow:visible;visibility:visible;fill:#fefefe;fill-opacity:1;fill-rule:nonzero;stroke:none;stroke-width:2;marker:none;enable-background:accumulate"
       id="rect16x16"
       width="16"
       height="16"
       x="-32"
       y="665.06665"
       inkscape:label="16x16"
       transform="scale(-1,1)" />
    <rect
       style="display:inline;overflow:visible;visibility:visible;fill:#fefefe;fill-opacity:1;fill-rule:nonzero;stroke:none;stroke-width:2;marker:none;enable-background:accumulate"
       id="rect24x24"
       width="24"
       height="24"
       x="-76"
       y="657.06665"
       inkscape:label="24x24"
       transform="scale(-1,1)" />
    <rect
       style="display:inline;overflow:visible;visibility:visible;fill:#fefefe;fill-opacity:1;fill-rule:nonzero;stroke:none;stroke-width:2;marker:none;enable-background:accumulate"
       id="rect32x32"
       width="32"
       height="32"
       x="-128"
       y="649.06665"
       inkscape:label="32x32"
       transform="scale(-1,1)" />
    <rect
       inkscape:label="48x48"
       y="633.06665"
       x="-192"
       height="48"
       width="48"
       id="rect48x48"
       style="display:inline;overflow:visible;visibility:visible;fill:#fefefe;fill-opacity:1;fill-rule:nonzero;stroke:none;stroke-width:2;marker:none;enable-background:accumulate"
       transform="scale(-1,1)" />
    <rect
       transform="scale(-1,1)"
       inkscape:label="48x48"
       y="617.06665"
       x="-272"
       height="64"
       width="64"
       id="rect4527"
       style="display:inline;overflow:visible;visibility:visible;fill:#fefefe;fill-opacity:1;fill-rule:nonzero;stroke:none;stroke-width:0.25;marker:none;enable-background:accumulate" />
    <rect
       style="display:inline;overflow:visible;visibility:visible;fill:#fefefe;fill-opacity:1;fill-rule:nonzero;stroke:none;stroke-width:2;marker:none;enable-background:accumulate"
       id="rect4665"
       width="512"
       height="512"
       x="-800"
       y="169.06665"
       inkscape:label="48x48"
       transform="scale(-1,1)" />
  </g>
  <g
     inkscape:groupmode="layer"
     id="layer2"
     inkscape:label="Bitmap"
     style="display:inline">
    <path
       inkscape:connector-curvature="0"
       style="display:inline;opacity:1;fill:#f5f5f5;fill-opacity:1;stroke:none;stroke-opacity:1;enable-background:new"
       d="m 118.0003,517 -0.0881,1.0536 a 3.142857,3.142857 0 0 0 -0.91861,0.53126 l -0.95758,-0.45096 -1,1.73219 0.86947,0.60374 a 3.142857,3.142857 0 0 0 -0.0481,0.53017 3.142857,3.142857 0 0 0 0.0458,0.53233 l -0.86718,0.60157 1,1.73219 0.95541,-0.44976 a 3.142857,3.142857 0 0 0 0.92068,0.52789 L 118.00029,525 h 2 l 0.0881,-1.0536 a 3.142857,3.142857 0 0 0 0.9186,-0.53127 l 0.95758,0.45096 1,-1.73219 -0.86946,-0.60373 a 3.142857,3.142857 0 0 0 0.0481,-0.53017 3.142857,3.142857 0 0 0 -0.0458,-0.53234 l 0.86718,-0.60157 -1,-1.73219 -0.95539,0.44976 a 3.142857,3.142857 0 0 0 -0.92068,-0.52789 L 120.00032,517 h -2 z m 1,2.66665 A 1.3333335,1.3333335 0 0 1 120.33363,521 1.3333335,1.3333335 0 0 1 119.0003,522.33334 1.3333335,1.3333335 0 0 1 117.66697,521 a 1.3333335,1.3333335 0 0 1 1.33333,-1.33335 z"
       id="path4996" />
    <path
       sodipodi:nodetypes="ccscc"
       inkscape:connector-curvature="0"
       id="path5069"
       d="m 180,522 v -17 -17 c 0,-1.6942 -1.29127,-3 -3,-3 -47.91141,17.02543 2.47621,55.9337 3,37 z"
       style="display:inline;fill:none;fill-opacity:0.5;stroke:none;stroke-width:2;stroke-linecap:round;stroke-linejoin:round;stroke-miterlimit:4;stroke-dasharray:none;stroke-opacity:1;filter:url(#filter5087);enable-background:new" />
    <path
       sodipodi:nodetypes="ssccssssccsscs"
       inkscape:connector-curvature="0"
       id="path4657"
       d="m 155,485 c -1.662,0 -3,1.338 -3,3 v 1.95312 30.13282 V 522 c 0,1.662 1.338,3 3,3 h 26 c 1.662,0 3,-1.338 3,-3 V 520.04492 497 488 c 0,-1.662 -1.338,-3 -3,-3 h -9 z"
       style="display:inline;fill:#000000;fill-opacity:0.2;stroke:none;stroke-width:2;stroke-linecap:round;stroke-linejoin:round;stroke-miterlimit:4;stroke-dasharray:none;stroke-opacity:1;enable-background:new;filter:url(#filter4661)" />
    <path
       style="opacity:1;fill:#4b525f;fill-opacity:1;stroke:none"
       d="m 155,484 c -1.662,0 -3,1.338 -3,3 v 34 c 0,1.662 1.338,3 3,3 h 26 c 1.662,0 3,-1.338 3,-3 v -25 -9 c 0,-1.662 -1.338,-3 -3,-3 h -9 z"
       id="rect4648"
       inkscape:connector-curvature="0"
       sodipodi:nodetypes="sssssscsscs" />
    <path
       style="opacity:1;fill:#ffffff;fill-opacity:0.2;stroke:none"
       d="m 155,484 c -1.662,0 -3,1.338 -3,3 v 1 c 0,-1.662 1.338,-3 3,-3 h 8 10 8 c 1.662,0 3,1.338 3,3 v -1 c 0,-1.662 -1.338,-3 -3,-3 h -9 -8 z"
       id="path4671"
       inkscape:connector-curvature="0"
       sodipodi:nodetypes="sscsccscssccs" />
    <path
       style="display:inline;fill:none;fill-opacity:0.5;stroke:none;stroke-width:2;stroke-linecap:round;stroke-linejoin:round;stroke-miterlimit:4;stroke-dasharray:none;stroke-opacity:1;filter:url(#filter5087);enable-background:new"
       d="m 180,522 v -17 -17 c 0,-1.6942 -1.29127,-3 -3,-3 -47.91141,17.02543 2.47621,55.9337 3,37 z"
       id="path4506"
       inkscape:connector-curvature="0"
       sodipodi:nodetypes="ccscc" />
    <path
       inkscape:connector-curvature="0"
       id="path4533"
       d="m 58,507 c -1.108,0 -2,0.892 -2,2 v 16 c 0,1.108 0.892,2 2,2 h 12 c 1.108,0 2,-0.892 2,-2 v -12 l -6,-6 z"
       style="opacity:1;fill:#000000;fill-opacity:0.2;stroke:none" />
    <path
       style="opacity:1;fill:#4b525f;fill-opacity:1;stroke:none"
       d="M 58 506 C 56.892 506 56 506.892 56 508 L 56 524 C 56 525.108 56.892 526 58 526 L 70 526 C 71.108 526 72 525.108 72 524 L 72 512 L 72 508 C 72 506.892 71.108 506 70 506 L 66 506 L 58 506 z "
       id="rect4555" />
    <path
       style="display:inline;opacity:1;fill:#ffffff;fill-opacity:0.2;stroke:none;stroke-width:3;stroke-linecap:round;stroke-linejoin:round;stroke-miterlimit:4;stroke-dasharray:none;stroke-opacity:1;enable-background:new"
       d="M 64 511 A 3 3 0 0 0 61 514 A 3 3 0 0 0 61.042969 514.51367 A 3 3 0 0 1 64 512 A 3 3 0 0 1 66.957031 514.48633 A 3 3 0 0 0 67 514 A 3 3 0 0 0 64 511 z M 69.974609 514.49805 A 6 6 0 0 1 64 520 L 58 520 L 58 521 L 64 521 A 6 6 0 0 0 70 515 A 6 6 0 0 0 69.974609 514.49805 z "
       id="path4572" />
    <path
       style="opacity:1;fill:#ffffff;fill-opacity:0.2;stroke:none"
       d="M 58 506 C 56.892 506 56 506.892 56 508 L 56 509 C 56 507.892 56.892 507 58 507 L 61 507 L 67 507 L 70 507 C 71.108 507 72 507.892 72 509 L 72 508 C 72 506.892 71.108 506 70 506 L 66 506 L 62 506 L 58 506 z "
       id="path4566" />
    <path
       inkscape:connector-curvature="0"
       style="display:inline;fill:#000000;fill-opacity:0.2;stroke:none;filter:url(#filter4564);enable-background:new"
       d="m 392,50 c -13.296,0 -24,10.704 -24,24 v 400 c 0,13.296 10.704,24 24,24 h 304 c 13.296,0 24,-10.704 24,-24 V 194 L 576,50 Z"
       id="path4558" />
    <path
       id="path4556"
       d="m 392,50 c -13.296,0 -24,10.704 -24,24 v 400 c 0,13.296 10.704,24 24,24 h 304 c 13.296,0 24,-10.704 24,-24 V 194 L 576,50 Z"
       style="display:inline;fill:#000000;fill-opacity:0.2;stroke:none;enable-background:new"
       inkscape:connector-curvature="0" />
    <path
       style="display:inline;fill:#4b525f;fill-opacity:1;stroke:none;enable-background:new"
       d="M 392 48 C 378.704 48 368 58.704 368 72 L 368 472 C 368 485.296 378.704 496 392 496 L 696 496 C 709.296 496 720 485.296 720 472 L 720 192 L 720 72 C 720 58.7452 709.2548 48 696 48 L 576 48 L 392 48 z "
       id="rect3362" />
    <path
       style="display:inline;fill:#ffffff;fill-opacity:0.2;fill-rule:evenodd;stroke:none;stroke-width:8px;stroke-linecap:butt;stroke-linejoin:miter;stroke-opacity:1;enable-background:new"
       d="M 544 160 A 63.999998 63.999998 0 0 0 480 224 A 63.999998 63.999998 0 0 0 480.04102 225.17188 A 63.999998 63.999998 0 0 1 544 162 A 63.999998 63.999998 0 0 1 607.95898 224.82812 A 63.999998 63.999998 0 0 0 608 224 A 63.999998 63.999998 0 0 0 544 160 z M 671.95898 225.17188 A 127.99999 127.99999 0 0 1 544 352 L 416 352 L 416 354 L 544 354 A 127.99999 127.99999 0 0 0 672 226 A 127.99999 127.99999 0 0 0 671.95898 225.17188 z "
       id="path4541" />
    <path
       style="display:inline;fill:#ffffff;fill-opacity:0.2;stroke:none;stroke-width:16;stroke-linecap:round;stroke-linejoin:round;stroke-miterlimit:4;stroke-dasharray:none;stroke-opacity:1;enable-background:new"
       d="M 392 48 C 378.704 48 368 58.704 368 72 L 368 74 C 368 60.704 378.704 50 392 50 L 398 50 L 458.625 50 L 464.625 50 L 510 50 L 576 50 L 578 50 L 623.375 50 L 629.375 50 L 690 50 L 696 50 C 709.296 50 720 60.704 720 74 L 720 72 C 720 58.704 709.296 48 696 48 L 629.375 48 L 576 48 L 512 48 L 458.625 48 L 392 48 z "
       id="path4637" />
    <path
       style="display:inline;fill:#4b525f;fill-opacity:1;fill-rule:evenodd;stroke:none;stroke-width:4.86648273px;stroke-linecap:butt;stroke-linejoin:miter;stroke-opacity:1;enable-background:new"
       d="M 18 512 C 16.892 512 16 512.89199 16 514 L 16 526 C 16 527.10801 16.892 528 18 528 L 30 528 C 31.108 528 32 527.10801 32 526 L 32 518 L 32 514 C 32 512.892 31.108 512 30 512 L 26 512 L 18 512 z "
       id="rect4630-7-2" />
    <path
       inkscape:connector-curvature="0"
       id="path4536"
       d="m 103,499 c -1.108,0 -2,0.892 -2,2 v 24 c 0,1.108 0.892,2 2,2 h 18 c 1.108,0 2,-0.892 2,-2 v -18 l -8,-8 z"
       style="opacity:1;fill:#000000;fill-opacity:0.2;stroke:none" />
    <path
       style="opacity:1;fill:#4b525f;fill-opacity:1;stroke:none"
       d="M 103 498 C 101.892 498 101 498.892 101 500 L 101 524 C 101 525.108 101.892 526 103 526 L 121 526 C 122.108 526 123 525.108 123 524 L 123 506 L 123 500 C 123 498.892 122.108 498 121 498 L 115 498 L 103 498 z "
       id="rect4526" />
    <path
       style="opacity:1;fill:#ffffff;fill-opacity:0.2;stroke:none"
       d="M 103 498 C 101.892 498 101 498.892 101 500 L 101 501 C 101 499.892 101.892 499 103 499 L 108 499 L 116 499 L 121 499 C 122.108 499 123 499.892 123 501 L 123 500 C 123 498.892 122.108 498 121 498 L 115 498 L 109 498 L 103 498 z "
       id="rect4529" />
    <path
       inkscape:connector-curvature="0"
       id="path4544"
       d="m 221,469 c -1.662,0 -3,1.338 -3,3 v 50 c 0,1.662 1.338,3 3,3 h 38 c 1.662,0 3,-1.338 3,-3 v -35 l -18,-18 z m 38.60547,0.0605 c 0.39058,0.0799 0.75306,0.23552 1.07226,0.45117 -0.31876,-0.21473 -0.68155,-0.37163 -1.07226,-0.45117 z m 1.07422,0.45117 c 0.31825,0.21524 0.59335,0.49034 0.80859,0.80859 -0.21523,-0.3191 -0.48949,-0.59336 -0.80859,-0.80859 z m 0.80859,0.81055 c 0.21565,0.3192 0.37125,0.68168 0.45117,1.07226 -0.0795,-0.39071 -0.23644,-0.7535 -0.45117,-1.07226 z"
       style="opacity:1;fill:#000000;fill-opacity:0.2;stroke:none;stroke-opacity:1;filter:url(#filter4546)" />
    <path
       style="opacity:1;fill:#4b525f;fill-opacity:1;stroke:none;stroke-opacity:1"
       d="M 221 468 C 219.338 468 218 469.338 218 471 L 218 521 C 218 522.662 219.338 524 221 524 L 259 524 C 260.662 524 262 522.662 262 521 L 262 486 L 262 471 C 262 470.79289 261.97942 470.58982 261.93945 470.39453 C 261.85953 470.00395 261.70393 469.64147 261.48828 469.32227 C 261.27263 469.00306 260.99694 468.72737 260.67773 468.51172 C 260.35853 468.29607 259.99605 468.14045 259.60547 468.06055 C 259.41018 468.02058 259.20711 468 259 468 L 244 468 L 221 468 z "
       id="rect4543" />
    <path
       style="opacity:1;fill:#ffffff;fill-opacity:0.2;stroke:none;stroke-opacity:1"
       d="M 221 468 C 219.338 468 218 469.338 218 471 L 218 472 C 218 470.338 219.338 469 221 469 L 235 469 L 245 469 L 259 469 C 260.662 469 262 470.338 262 472 L 262 471 C 262 469.338 260.662 468 259 468 L 244 468 L 236 468 L 221 468 z "
       id="path4550" />
    <path
       id="path4506-3"
       d="m 24,514 a 6,6 0 0 0 -6,6 v 6 h 6 a 6,6 0 0 0 6,-6 6,6 0 0 0 -6,-6 z m 0,3 a 3,3 0 0 1 3,3 3,3 0 0 1 -3,3 3,3 0 0 1 -3,-3 3,3 0 0 1 3,-3 z"
       style="display:inline;opacity:1;fill:#262a30;fill-opacity:1;stroke:none;stroke-width:3;stroke-linecap:round;stroke-linejoin:round;stroke-miterlimit:4;stroke-dasharray:none;stroke-opacity:1;enable-background:new"
       inkscape:connector-curvature="0" />
    <path
       inkscape:connector-curvature="0"
       style="display:inline;opacity:1;fill:#262a30;fill-opacity:1;stroke:none;stroke-width:3;stroke-linecap:round;stroke-linejoin:round;stroke-miterlimit:4;stroke-dasharray:none;stroke-opacity:1;enable-background:new"
       d="m 64,508 a 6,6 0 0 0 -6,6 v 6 h 6 a 6,6 0 0 0 6,-6 6,6 0 0 0 -6,-6 z m 0,3 a 3,3 0 0 1 3,3 3,3 0 0 1 -3,3 3,3 0 0 1 -3,-3 3,3 0 0 1 3,-3 z"
       id="path4611" />
    <path
       style="display:inline;opacity:1;fill:#000000;fill-opacity:0.2;stroke:none;stroke-width:3;stroke-linecap:round;stroke-linejoin:round;stroke-miterlimit:4;stroke-dasharray:none;stroke-opacity:1;enable-background:new"
       d="M 64 508 A 6 6 0 0 0 58 514 L 58 515 A 6 6 0 0 1 64 509 A 6 6 0 0 1 69.974609 514.49805 A 6 6 0 0 0 70 514 A 6 6 0 0 0 64 508 z M 66.957031 514.48633 A 3 3 0 0 1 64 517 A 3 3 0 0 1 61.042969 514.51367 A 3 3 0 0 0 61 515 A 3 3 0 0 0 64 518 A 3 3 0 0 0 67 515 A 3 3 0 0 0 66.957031 514.48633 z "
       id="path4567" />
    <path
       inkscape:connector-curvature="0"
       style="display:inline;fill:#262a30;fill-opacity:1;fill-rule:evenodd;stroke:none;stroke-width:1px;stroke-linecap:butt;stroke-linejoin:miter;stroke-opacity:1;enable-background:new"
       d="m 112,501 a 8,8 0 0 0 -8,8 v 8 h 8 a 8,8 0 0 0 8,-8 8,8 0 0 0 -8,-8 z m 0,4 a 4,4 0 0 1 4,4 4,4 0 0 1 -4,4 4,4 0 0 1 -4,-4 4,4 0 0 1 4,-4 z"
       id="path4576" />
    <path
       inkscape:connector-curvature="0"
       id="path4549"
       d="m 168,490 a 11,11 0 0 0 -11,11 v 11 h 11 a 11,11 0 0 0 11,-11 11,11 0 0 0 -11,-11 z m 0,5 a 6,6 0 0 1 6,6 6,6 0 0 1 -6,6 6,6 0 0 1 -6,-6 6,6 0 0 1 6,-6 z"
       style="display:inline;opacity:1;fill:#c8c8c8;fill-opacity:0.2;stroke:none;stroke-width:3;stroke-linecap:round;stroke-linejoin:round;stroke-miterlimit:4;stroke-dasharray:none;stroke-opacity:1;enable-background:new" />
    <path
       style="display:inline;opacity:1;fill:#262a30;fill-opacity:1;stroke:none;stroke-width:3;stroke-linecap:round;stroke-linejoin:round;stroke-miterlimit:4;stroke-dasharray:none;stroke-opacity:1;enable-background:new"
       d="m 168,489 a 11,11 0 0 0 -11,11 v 11 h 11 a 11,11 0 0 0 11,-11 11,11 0 0 0 -11,-11 z m 0,5 a 6,6 0 0 1 6,6 6,6 0 0 1 -6,6 6,6 0 0 1 -6,-6 6,6 0 0 1 6,-6 z"
       id="path4425"
       inkscape:connector-curvature="0" />
    <path
       inkscape:connector-curvature="0"
       style="display:inline;fill:#ffffff;fill-opacity:0.2;fill-rule:evenodd;stroke:none;stroke-width:1px;stroke-linecap:butt;stroke-linejoin:miter;stroke-opacity:1;enable-background:new"
       d="m 240,475 a 15.999999,15.999999 0 0 0 -16,16 v 16 h 16 a 15.999999,15.999999 0 0 0 16,-16 15.999999,15.999999 0 0 0 -16,-16 z m 0,8 a 7.9999997,7.9999997 0 0 1 8,8 7.9999997,7.9999997 0 0 1 -8,8 7.9999997,7.9999997 0 0 1 -8,-8 7.9999997,7.9999997 0 0 1 8,-8 z"
       id="path4547" />
    <path
       id="path4596"
       d="m 240,474 a 15.999999,15.999999 0 0 0 -16,16 v 16 h 16 a 15.999999,15.999999 0 0 0 16,-16 15.999999,15.999999 0 0 0 -16,-16 z m 0,8 a 7.9999997,7.9999997 0 0 1 8,8 7.9999997,7.9999997 0 0 1 -8,8 7.9999997,7.9999997 0 0 1 -8,-8 7.9999997,7.9999997 0 0 1 8,-8 z"
       style="display:inline;fill:#262a30;fill-opacity:1;fill-rule:evenodd;stroke:none;stroke-width:1px;stroke-linecap:butt;stroke-linejoin:miter;stroke-opacity:1;enable-background:new"
       inkscape:connector-curvature="0" />
    <path
       inkscape:connector-curvature="0"
       style="display:inline;fill:#262a30;fill-opacity:1;fill-rule:evenodd;stroke:none;stroke-width:8px;stroke-linecap:butt;stroke-linejoin:miter;stroke-opacity:1;enable-background:new"
       d="M 544,96 A 127.99999,127.99999 0 0 0 416,224 V 352 H 544 A 127.99999,127.99999 0 0 0 672,224 127.99999,127.99999 0 0 0 544,96 Z m 0,64 a 63.999998,63.999998 0 0 1 64,64 63.999998,63.999998 0 0 1 -64,64 63.999998,63.999998 0 0 1 -64,-64 63.999998,63.999998 0 0 1 64,-64 z"
       id="path4631" />
    <path
       style="display:inline;fill:#000000;fill-opacity:0.2;fill-rule:evenodd;stroke:none;stroke-width:8px;stroke-linecap:butt;stroke-linejoin:miter;stroke-opacity:1;enable-background:new"
       d="M 544 96 A 127.99999 127.99999 0 0 0 416 224 L 416 226 A 127.99999 127.99999 0 0 1 544 98 A 127.99999 127.99999 0 0 1 671.95898 225.17188 A 127.99999 127.99999 0 0 0 672 224 A 127.99999 127.99999 0 0 0 544 96 z M 607.95898 224.82812 A 63.999998 63.999998 0 0 1 544 288 A 63.999998 63.999998 0 0 1 480.04102 225.17188 A 63.999998 63.999998 0 0 0 480 226 A 63.999998 63.999998 0 0 0 544 290 A 63.999998 63.999998 0 0 0 608 226 A 63.999998 63.999998 0 0 0 607.95898 224.82812 z "
       id="path4551" />
    <path
       style="display:inline;fill:url(#linearGradient4449-0);fill-opacity:1;stroke:none;stroke-width:16;stroke-linecap:round;stroke-linejoin:round;stroke-miterlimit:4;stroke-dasharray:none;stroke-opacity:1;enable-background:new"
       d="m 392,48 c -13.296,0 -24,10.704 -24,24 V 109.4668 434.9707 472 c 0,13.296 10.704,24 24,24 h 304 c 13.296,0 24,-10.704 24,-24 V 434.52344 192 72 C 720,58.7452 709.2548,48 696,48 H 576 Z"
       id="path4447"
       inkscape:connector-curvature="0" />
    <path
       style="display:inline;fill:#000000;fill-opacity:0.2;fill-rule:evenodd;stroke:none;stroke-width:1px;stroke-linecap:butt;stroke-linejoin:miter;stroke-opacity:1;enable-background:new"
       d="M 240 474 A 15.999999 15.999999 0 0 0 224 490 L 224 491 A 15.999999 15.999999 0 0 1 240 475 A 15.999999 15.999999 0 0 1 255.97852 490.58008 A 15.999999 15.999999 0 0 0 256 490 A 15.999999 15.999999 0 0 0 240 474 z M 247.97852 490.42383 A 7.9999997 7.9999997 0 0 1 240 498 A 7.9999997 7.9999997 0 0 1 232.02148 490.57617 A 7.9999997 7.9999997 0 0 0 232 491 A 7.9999997 7.9999997 0 0 0 240 499 A 7.9999997 7.9999997 0 0 0 248 491 A 7.9999997 7.9999997 0 0 0 247.97852 490.42383 z "
       id="path4557" />
    <path
       style="display:inline;opacity:1;fill:#000000;fill-opacity:0.2;stroke:none;stroke-width:3;stroke-linecap:round;stroke-linejoin:round;stroke-miterlimit:4;stroke-dasharray:none;stroke-opacity:1;enable-background:new"
       d="M 168 489 A 11 11 0 0 0 157 500 L 157 501 A 11 11 0 0 1 168 490 A 11 11 0 0 1 178.97852 500.58594 A 11 11 0 0 0 179 500 A 11 11 0 0 0 168 489 z M 162.02539 500.49805 A 6 6 0 0 0 162 501 A 6 6 0 0 0 168 507 A 6 6 0 0 0 174 501 A 6 6 0 0 0 173.97461 500.50195 A 6 6 0 0 1 168 506 A 6 6 0 0 1 162.02539 500.49805 z "
       id="path4562" />
    <path
       style="display:inline;fill:#ffffff;fill-opacity:0.2;fill-rule:evenodd;stroke:none;stroke-width:1px;stroke-linecap:butt;stroke-linejoin:miter;stroke-opacity:1;enable-background:new"
       d="M 112 505 A 4 4 0 0 0 108 509 A 4 4 0 0 0 108.03516 509.49414 A 4 4 0 0 1 112 506 A 4 4 0 0 1 115.96484 509.50586 A 4 4 0 0 0 116 509 A 4 4 0 0 0 112 505 z M 119.97852 509.57617 A 8 8 0 0 1 112 517 L 104 517 L 104 518 L 112 518 A 8 8 0 0 0 120 510 A 8 8 0 0 0 119.97852 509.57617 z "
       id="path4577" />
    <path
       style="display:inline;fill:#000000;fill-opacity:0.2;fill-rule:evenodd;stroke:none;stroke-width:1px;stroke-linecap:butt;stroke-linejoin:miter;stroke-opacity:1;enable-background:new"
       d="M 112 501 A 8 8 0 0 0 104 509 L 104 510 A 8 8 0 0 1 112 502 A 8 8 0 0 1 119.97852 509.57617 A 8 8 0 0 0 120 509 A 8 8 0 0 0 112 501 z M 108.03516 509.49414 A 4 4 0 0 0 108 510 A 4 4 0 0 0 112 514 A 4 4 0 0 0 116 510 A 4 4 0 0 0 115.96484 509.50586 A 4 4 0 0 1 112 513 A 4 4 0 0 1 108.03516 509.49414 z "
       id="path4582" />
    <path
       style="display:inline;fill:url(#linearGradient4620);fill-opacity:1;stroke:none;stroke-width:1.46667397;stroke-linecap:round;stroke-linejoin:round;stroke-miterlimit:4;stroke-dasharray:none;stroke-opacity:1;enable-background:new"
       d="m 58,506 c -1.108,0 -2,0.892 -2,2 v 0.47656 15.06641 V 524 c 0,1.108 0.892,2 2,2 h 12 c 1.108,0 2,-0.892 2,-2 V 523.52344 512 508 c 0,-1.108 -0.892,-2 -2,-2 h -4 z"
       id="path4618"
       inkscape:connector-curvature="0" />
    <path
       style="display:inline;fill:url(#linearGradient4435);fill-opacity:1;stroke:none;stroke-width:2;stroke-linecap:round;stroke-linejoin:round;stroke-miterlimit:4;stroke-dasharray:none;stroke-opacity:1;enable-background:new"
       d="m 103,498 c -1.108,0 -2,0.892 -2,2 v 1.8418 20.34375 V 524 c 0,1.108 0.892,2 2,2 h 18 c 1.108,0 2,-0.892 2,-2 V 522.1582 506 500 c 0,-1.108 -0.892,-2 -2,-2 h -6 z"
       id="path4433"
       inkscape:connector-curvature="0" />
    <path
       style="display:inline;fill:url(#linearGradient4537);fill-opacity:1;stroke:none;stroke-width:2;stroke-linecap:round;stroke-linejoin:round;stroke-miterlimit:4;stroke-dasharray:none;stroke-opacity:1;enable-background:new"
       d="m 221,468 c -1.662,0 -3,1.338 -3,3 v 4.68164 40.68945 V 521 c 0,1.662 1.338,3 3,3 h 38 c 1.662,0 3,-1.338 3,-3 V 516.31641 486 471 c 0,-0.20711 -0.0206,-0.41018 -0.0605,-0.60547 -0.0799,-0.39058 -0.23552,-0.75306 -0.45117,-1.07226 -0.21565,-0.31921 -0.49134,-0.5949 -0.81055,-0.81055 -0.3192,-0.21565 -0.68168,-0.37127 -1.07226,-0.45117 C 259.41018,468.02058 259.20711,468 259,468 h -15 z"
       id="path4535"
       inkscape:connector-curvature="0" />
    <path
       style="display:inline;fill:url(#linearGradient4171-1-0);fill-opacity:1;stroke:none;stroke-width:2;stroke-linecap:round;stroke-linejoin:round;stroke-miterlimit:4;stroke-dasharray:none;stroke-opacity:1;enable-background:new"
       d="m 155,484 c -1.662,0 -3,1.338 -3,3 v 1.95312 30.13282 V 521 c 0,1.662 1.338,3 3,3 h 26 c 1.662,0 3,-1.338 3,-3 V 519.04492 496 487 c 0,-1.662 -1.338,-3 -3,-3 h -9 z"
       id="circle4163-3-4"
       inkscape:connector-curvature="0"
       sodipodi:nodetypes="ssccssssccsscs" />
    <circle
       r="10"
       transform="scale(-1,1)"
       id="circle5012"
       style="display:inline;fill:#000000;fill-opacity:0.2;stroke:none;stroke-width:0.83333331;enable-background:new"
       cx="-180"
       cy="517" />
    <path
       style="display:inline;fill:#e2e5e7;fill-opacity:1;stroke:none;stroke-width:0.83333331;enable-background:new"
       d="M 180 506 A 10 10 0 0 0 170 516 A 10 10 0 0 0 180 526 L 180 516 L 187.06641 508.93359 A 10 10 0 0 0 180 506 z M 187.06641 508.93359 A 10 10 0 0 1 189.94922 515.00195 A 10 10 0 0 0 187.06641 508.93359 z "
       id="path4058-0" />
    <circle
       r="7"
       id="circle5008"
       style="display:inline;fill:#000000;fill-opacity:0.2;fill-rule:evenodd;stroke:none;stroke-width:0.875;enable-background:new"
       cx="120"
       cy="521" />
    <path
       style="display:inline;fill:#e2e5e7;fill-opacity:1;fill-rule:evenodd;stroke:none;stroke-width:0.875;enable-background:new"
       d="M 120 513 A 7 7 0 0 0 113 520 A 7 7 0 0 0 120 527 L 120 520 L 124.94727 515.05273 A 7 7 0 0 0 120 513 z M 120 527 A 7 7 0 0 0 120.59961 526.9707 A 7 7 0 0 1 120 527 z M 124.95508 515.06055 A 7 7 0 0 1 125.24805 515.38086 A 7 7 0 0 0 124.95508 515.06055 z M 125.37695 515.5293 A 7 7 0 0 1 125.69922 515.95117 A 7 7 0 0 0 125.37695 515.5293 z M 125.80078 516.09375 A 7 7 0 0 1 126.06055 516.51367 A 7 7 0 0 0 125.80078 516.09375 z M 126.16992 516.70508 A 7 7 0 0 1 126.37109 517.12305 A 7 7 0 0 0 126.16992 516.70508 z M 126.4707 517.3457 A 7 7 0 0 1 126.61719 517.74414 A 7 7 0 0 0 126.4707 517.3457 z M 126.70703 518.01562 A 7 7 0 0 1 126.80664 518.40234 A 7 7 0 0 0 126.70703 518.01562 z M 126.87305 518.69531 A 7 7 0 0 1 126.93164 519.07617 A 7 7 0 0 0 126.87305 518.69531 z M 126.9707 519.40039 A 7 7 0 0 1 127 520 A 7 7 0 0 0 126.9707 519.40039 z M 126.9707 520.59961 A 7 7 0 0 1 126.92773 520.94531 A 7 7 0 0 0 126.9707 520.59961 z M 126.87695 521.28125 A 7 7 0 0 1 126.79297 521.66016 A 7 7 0 0 0 126.87695 521.28125 z M 126.71484 521.95898 A 7 7 0 0 1 126.5957 522.32227 A 7 7 0 0 0 126.71484 521.95898 z M 126.48438 522.62305 A 7 7 0 0 1 126.33984 522.94727 A 7 7 0 0 0 126.48438 522.62305 z M 126.18359 523.27148 A 7 7 0 0 1 126.01953 523.55859 A 7 7 0 0 0 126.18359 523.27148 z M 125.83398 523.85938 A 7 7 0 0 1 125.61523 524.16602 A 7 7 0 0 0 125.83398 523.85938 z M 125.41797 524.42383 A 7 7 0 0 1 125.18359 524.69336 A 7 7 0 0 0 125.41797 524.42383 z M 124.94727 524.94727 A 7 7 0 0 1 124.69336 525.18359 A 7 7 0 0 0 124.94727 524.94727 z M 124.42383 525.41797 A 7 7 0 0 1 124.16602 525.61523 A 7 7 0 0 0 124.42383 525.41797 z M 123.85938 525.83398 A 7 7 0 0 1 123.55859 526.01953 A 7 7 0 0 0 123.85938 525.83398 z M 123.27148 526.18359 A 7 7 0 0 1 122.94727 526.33984 A 7 7 0 0 0 123.27148 526.18359 z M 122.62305 526.48438 A 7 7 0 0 1 122.32227 526.5957 A 7 7 0 0 0 122.62305 526.48438 z M 121.95898 526.71484 A 7 7 0 0 1 121.66016 526.79297 A 7 7 0 0 0 121.95898 526.71484 z M 121.28125 526.87695 A 7 7 0 0 1 120.94531 526.92773 A 7 7 0 0 0 121.28125 526.87695 z "
       id="circle4426-9" />
    <path
       style="display:inline;opacity:1;fill:#e2e5e7;fill-opacity:1;stroke:none;stroke-width:1.66666663;stroke-linecap:round;stroke-linejoin:round;stroke-miterlimit:4;stroke-dasharray:none;stroke-opacity:1;enable-background:new"
       d="M 24 515 A 5 5 0 0 0 19 520 A 5 5 0 0 0 24 525 L 24 520 L 27.533203 516.4668 A 5 5 0 0 0 24 515 z M 27.533203 516.4668 A 5 5 0 0 1 27.746094 516.69922 A 5 5 0 0 0 27.533203 516.4668 z M 24 525 A 5 5 0 0 0 24.441406 524.97852 A 5 5 0 0 1 24 525 z M 27.84375 516.81055 A 5 5 0 0 1 28.050781 517.08008 A 5 5 0 0 0 27.84375 516.81055 z M 28.152344 517.22266 A 5 5 0 0 1 28.330078 517.51367 A 5 5 0 0 0 28.152344 517.22266 z M 28.404297 517.64453 A 5 5 0 0 1 28.548828 517.93945 A 5 5 0 0 0 28.404297 517.64453 z M 28.621094 518.09961 A 5 5 0 0 1 28.738281 518.42188 A 5 5 0 0 0 28.621094 518.09961 z M 28.785156 518.56445 A 5 5 0 0 1 28.873047 518.90625 A 5 5 0 0 0 28.785156 518.56445 z M 28.904297 519.05078 A 5 5 0 0 1 28.955078 519.36914 A 5 5 0 0 0 28.904297 519.05078 z M 28.978516 519.55859 A 5 5 0 0 1 29 520 A 5 5 0 0 0 28.978516 519.55859 z M 28.978516 520.44141 A 5 5 0 0 1 28.953125 520.65039 A 5 5 0 0 0 28.978516 520.44141 z M 28.910156 520.92578 A 5 5 0 0 1 28.857422 521.16211 A 5 5 0 0 0 28.910156 520.92578 z M 28.796875 521.4043 A 5 5 0 0 1 28.712891 521.6543 A 5 5 0 0 0 28.796875 521.4043 z M 28.632812 521.875 A 5 5 0 0 1 28.513672 522.13672 A 5 5 0 0 0 28.632812 521.875 z M 28.427734 522.31445 A 5 5 0 0 1 28.283203 522.56836 A 5 5 0 0 0 28.427734 522.31445 z M 28.167969 522.75586 A 5 5 0 0 1 28.009766 522.97656 A 5 5 0 0 0 28.167969 522.75586 z M 27.873047 523.15625 A 5 5 0 0 1 27.699219 523.35547 A 5 5 0 0 0 27.873047 523.15625 z M 27.533203 523.5332 A 5 5 0 0 1 27.355469 523.69922 A 5 5 0 0 0 27.533203 523.5332 z M 27.15625 523.87305 A 5 5 0 0 1 26.976562 524.00977 A 5 5 0 0 0 27.15625 523.87305 z M 26.755859 524.16797 A 5 5 0 0 1 26.568359 524.2832 A 5 5 0 0 0 26.755859 524.16797 z M 26.314453 524.42773 A 5 5 0 0 1 26.136719 524.51367 A 5 5 0 0 0 26.314453 524.42773 z M 25.875 524.63281 A 5 5 0 0 1 25.654297 524.71289 A 5 5 0 0 0 25.875 524.63281 z M 25.404297 524.79688 A 5 5 0 0 1 25.162109 524.85742 A 5 5 0 0 0 25.404297 524.79688 z M 24.925781 524.91016 A 5 5 0 0 1 24.650391 524.95312 A 5 5 0 0 0 24.925781 524.91016 z "
       id="circle4441" />
    <circle
       r="12"
       cy="515"
       cx="-258"
       style="display:inline;fill:#000000;fill-opacity:0.2;stroke:none;stroke-width:0.99999994;enable-background:new;filter:url(#filter5059)"
       id="circle5037"
       transform="scale(-1,1)" />
    <path
       style="display:inline;fill:#e2e5e7;fill-opacity:1;stroke:none;stroke-width:0.99999994;enable-background:new"
       d="M 258 502 A 12 12 0 0 0 246 514 A 12 12 0 0 0 258 526 L 258 514 L 266.48047 505.51953 A 12 12 0 0 0 258 502 z M 266.54297 505.58789 A 12 12 0 0 1 269.93945 512.80273 A 12 12 0 0 0 266.54297 505.58789 z "
       id="circle4986" />
    <path
       inkscape:connector-curvature="0"
       id="path5085"
       d="M 187.0664,508.9336 180,516 v 10 a 10,10 0 0 0 10,-10 10,10 0 0 0 -2.9336,-7.0664 z"
       style="display:inline;opacity:1;fill:#0095aa;fill-opacity:1;stroke:none;stroke-width:3.33333325;stroke-linecap:round;stroke-linejoin:round;stroke-miterlimit:4;stroke-dasharray:none;stroke-opacity:1;enable-background:new" />
    <path
       style="display:inline;fill:#ffffff;fill-opacity:0.2;stroke:none;stroke-width:0.83333331;enable-background:new"
       d="M 180 506 A 10 10 0 0 0 170 516 A 10 10 0 0 0 170.02148 516.41406 A 10 10 0 0 1 180 507 A 10 10 0 0 1 189.97852 516.58594 A 10 10 0 0 0 190 516 A 10 10 0 0 0 180 506 z "
       id="circle5048" />
    <path
       style="display:inline;opacity:1;fill:#0095aa;fill-opacity:1;stroke:none;stroke-width:4;stroke-linecap:round;stroke-linejoin:round;stroke-miterlimit:4;stroke-dasharray:none;stroke-opacity:1;enable-background:new"
       d="M 266.47968,505.52032 258,514 v 12 a 12,12 0 0 0 12,-12 12,12 0 0 0 -3.52032,-8.47968 z"
       id="path5090"
       inkscape:connector-curvature="0" />
    <path
       style="display:inline;fill:#ffffff;fill-opacity:0.2;stroke:none;stroke-width:0.99999994;enable-background:new"
       d="M 258 502 A 12 12 0 0 0 246 514 A 12 12 0 0 0 246.01953 514.40625 A 12 12 0 0 1 258 503 A 12 12 0 0 1 269.98047 514.59375 A 12 12 0 0 0 270 514 A 12 12 0 0 0 258 502 z "
       id="circle5063" />
    <circle
       transform="scale(-1,1)"
       id="circle5106"
       style="display:inline;fill:#000000;fill-opacity:0.2;stroke:none;stroke-width:7.99999952;enable-background:new"
       cx="-688"
       cy="418"
       r="96" />
    <circle
       r="96"
       cy="418"
       cx="-688"
       style="display:inline;fill:#000000;fill-opacity:0.2;stroke:none;stroke-width:7.99999952;enable-background:new;filter:url(#filter5114)"
       id="circle5108"
       transform="scale(-1,1)" />
    <path
       style="display:inline;fill:#e2e5e7;fill-opacity:1;stroke:none;stroke-width:7.99999952;enable-background:new"
       d="M 688 320 A 96 96 0 0 0 592 416 A 96 96 0 0 0 688 512 L 688 416 L 755.83789 348.16211 A 96 96 0 0 1 784 416 A 96 96 0 0 0 688 320 z "
       id="circle5080" />
    <path
       inkscape:connector-curvature="0"
       id="path5095"
       d="M 755.83744,348.16256 688,416 v 96 a 96,96 0 0 0 96,-96 96,96 0 0 0 -28.16256,-67.83744 z"
       style="display:inline;opacity:1;fill:#0095aa;fill-opacity:1;stroke:none;stroke-width:32;stroke-linecap:round;stroke-linejoin:round;stroke-miterlimit:4;stroke-dasharray:none;stroke-opacity:1;enable-background:new" />
    <path
       style="display:inline;fill:#ffffff;fill-opacity:0.2;stroke:none;stroke-width:7.99999952;enable-background:new"
       d="M 688 320 A 96 96 0 0 0 592 416 A 96 96 0 0 0 592.04102 416.84766 A 96 96 0 0 1 688 322 A 96 96 0 0 1 783.96094 417.20703 A 96 96 0 0 0 784 416 A 96 96 0 0 0 688 320 z "
       id="path5086" />
    <circle
       cy="522"
       cx="70"
       style="display:inline;fill:#000000;fill-opacity:0.2;fill-rule:evenodd;stroke:none;stroke-width:0.75;enable-background:new"
       id="circle4592"
       r="6" />
    <path
       style="display:inline;fill:#e2e5e7;fill-opacity:1;fill-rule:evenodd;stroke:none;stroke-width:0.75;enable-background:new"
       d="m 70,515 a 6,6 0 0 0 -6,6 6,6 0 0 0 6,6 v -6 l 4.240514,-4.24052 A 6,6 0 0 0 70,515 Z m 0,12 A 6,6 0 0 0 70.513951,526.9749 6,6 0 0 1 70,527 Z m 4.24721,-10.23381 a 6,6 0 0 1 0.251116,0.27455 6,6 0 0 0 -0.251116,-0.27455 z m 0.361607,0.40178 a 6,6 0 0 1 0.276228,0.3616 6,6 0 0 0 -0.276228,-0.3616 z m 0.363281,0.48382 a 6,6 0 0 1 0.222657,0.35993 6,6 0 0 0 -0.222657,-0.35993 z m 0.316407,0.52399 a 6,6 0 0 1 0.172433,0.35826 6,6 0 0 0 -0.172433,-0.35826 z m 0.257812,0.54911 a 6,6 0 0 1 0.125558,0.34152 6,6 0 0 0 -0.125558,-0.34152 z m 0.202567,0.57421 a 6,6 0 0 1 0.08538,0.33148 6,6 0 0 0 -0.08538,-0.33148 z m 0.142299,0.58259 a 6,6 0 0 1 0.05022,0.32646 6,6 0 0 0 -0.05022,-0.32646 z m 0.08371,0.60436 A 6,6 0 0 1 76,521 6,6 0 0 0 75.97489,520.48605 Z m 0,1.0279 a 6,6 0 0 1 -0.03683,0.29632 6,6 0 0 0 0.03683,-0.29632 z m -0.08036,0.58426 a 6,6 0 0 1 -0.07199,0.32478 6,6 0 0 0 0.07199,-0.32478 z m -0.13895,0.58092 a 6,6 0 0 1 -0.102121,0.31139 6,6 0 0 0 0.102121,-0.31139 z m -0.197545,0.5692 a 6,6 0 0 1 -0.123884,0.2779 6,6 0 0 0 0.123884,-0.2779 z m -0.257813,0.5558 a 6,6 0 0 1 -0.140625,0.24609 6,6 0 0 0 0.140625,-0.24609 z m -0.299665,0.50391 a 6,6 0 0 1 -0.1875,0.26283 6,6 0 0 0 0.1875,-0.26283 z m -0.356585,0.48381 a 6,6 0 0 1 -0.200892,0.23103 6,6 0 0 0 0.200892,-0.23103 z m -0.403459,0.44867 a 6,6 0 0 1 -0.217635,0.20256 6,6 0 0 0 0.217635,-0.20256 z m -0.448661,0.40345 a 6,6 0 0 1 -0.220982,0.16908 6,6 0 0 0 0.220982,-0.16908 z m -0.483817,0.35658 a 6,6 0 0 1 -0.257813,0.15905 6,6 0 0 0 0.257813,-0.15905 z m -0.503907,0.29967 a 6,6 0 0 1 -0.277901,0.13393 6,6 0 0 0 0.277901,-0.13393 z m -0.555803,0.25782 a 6,6 0 0 1 -0.257812,0.0954 6,6 0 0 0 0.257812,-0.0954 z m -0.569197,0.19754 a 6,6 0 0 1 -0.256138,0.0669 6,6 0 0 0 0.256138,-0.0669 z m -0.580915,0.13895 a 6,6 0 0 1 -0.287947,0.0435 6,6 0 0 0 0.287947,-0.0435 z"
       id="circle4594"
       inkscape:connector-curvature="0" />
    <path
       style="display:inline;opacity:1;fill:#0095aa;fill-opacity:1;stroke:none;stroke-width:1.66666663;stroke-linecap:round;stroke-linejoin:round;stroke-miterlimit:4;stroke-dasharray:none;stroke-opacity:1;enable-background:new"
       d="M 27.533203,516.4668 24,520 v 5 a 5,5 0 0 0 5,-5 5,5 0 0 0 -1.466797,-3.5332 z"
       id="circle4591"
       inkscape:connector-curvature="0" />
    <path
       inkscape:connector-curvature="0"
       id="path5070"
       d="M 74.239843,516.76016 70,521 v 6 a 6,6 0 0 0 6,-6 6,6 0 0 0 -1.760157,-4.23984 z"
       style="display:inline;opacity:1;fill:#0095aa;fill-opacity:1;stroke:none;stroke-width:2;stroke-linecap:round;stroke-linejoin:round;stroke-miterlimit:4;stroke-dasharray:none;stroke-opacity:1;enable-background:new" />
    <path
       style="display:inline;opacity:1;fill:#0095aa;fill-opacity:1;stroke:none;stroke-width:2.33333325;stroke-linecap:round;stroke-linejoin:round;stroke-miterlimit:4;stroke-dasharray:none;stroke-opacity:1;enable-background:new"
       d="M 124.94648,515.05352 120,520 v 7 a 7,7 0 0 0 7,-7 7,7 0 0 0 -2.05352,-4.94648 z"
       id="path5080"
       inkscape:connector-curvature="0" />
    <path
       inkscape:connector-curvature="0"
       id="path5083"
       d="m 120,512.99998 a 7,7 0 0 0 -7,7 7,7 0 0 0 0.0234,0.54102 7,7 0 0 1 6.97656,-6.54102 7,7 0 0 1 6.97656,6.45898 7,7 0 0 0 0.0234,-0.45898 7,7 0 0 0 -7,-7 z"
       style="display:inline;fill:#fafafa;fill-opacity:0.2;fill-rule:evenodd;stroke:none;stroke-width:0.875;enable-background:new" />
    <path
       style="display:inline;fill:#ffffff;fill-opacity:0.2;fill-rule:evenodd;stroke:none;stroke-width:0.75;enable-background:new"
       d="m 70,515.00005 a 6,6 0 0 0 -6,6 6,6 0 0 0 0.02539,0.49805 A 6,6 0 0 1 70,516.00005 6,6 0 0 1 75.974609,521.502 6,6 0 0 0 76,521.00005 a 6,6 0 0 0 -6,-6 z"
       id="circle4580"
       inkscape:connector-curvature="0" />
  </g>
</svg>
