<?xml version="1.0" encoding="UTF-8" standalone="no"?>
<!-- Created with Inkscape (http://www.inkscape.org/) -->

<svg
   xmlns:dc="http://purl.org/dc/elements/1.1/"
   xmlns:cc="http://creativecommons.org/ns#"
   xmlns:rdf="http://www.w3.org/1999/02/22-rdf-syntax-ns#"
   xmlns:svg="http://www.w3.org/2000/svg"
   xmlns="http://www.w3.org/2000/svg"
   xmlns:xlink="http://www.w3.org/1999/xlink"
   xmlns:sodipodi="http://sodipodi.sourceforge.net/DTD/sodipodi-0.dtd"
   xmlns:inkscape="http://www.inkscape.org/namespaces/inkscape"
   width="842"
   height="544"
   viewBox="0 0 842 544"
   version="1.1"
   id="svg1087"
   inkscape:version="0.92.2 5c3e80d, 2017-08-06"
   sodipodi:docname="dropbox.svg">
  <defs
     id="defs1081">
    <linearGradient
       id="linearGradient4540"
       inkscape:collect="always">
      <stop
         id="stop4536"
         offset="0"
         style="stop-color:#ffffff;stop-opacity:0.05490196" />
      <stop
         id="stop4538"
         offset="1"
         style="stop-color:#177ed5;stop-opacity:0;" />
    </linearGradient>
    <linearGradient
       id="linearGradient4534"
       inkscape:collect="always">
      <stop
         id="stop4530"
         offset="0"
         style="stop-color:#ffffff;stop-opacity:0.05490196" />
      <stop
         id="stop4532"
         offset="1"
         style="stop-color:#177ed5;stop-opacity:0;" />
    </linearGradient>
    <filter
       inkscape:collect="always"
       style="color-interpolation-filters:sRGB"
       id="filter5087"
       x="-0.048"
       width="1.096"
       y="-0.048"
       height="1.096">
      <feGaussianBlur
         inkscape:collect="always"
         stdDeviation="0.8"
         id="feGaussianBlur5089" />
    </filter>
    <linearGradient
       inkscape:collect="always"
       xlink:href="#linearGradient4534"
       id="linearGradient4347"
       gradientUnits="userSpaceOnUse"
       gradientTransform="matrix(0.47825838,0,0,0.47826068,78.5218,24.1749)"
       x1="7"
       y1="1011.3622"
       x2="41.000019"
       y2="1045.3622" />
    <linearGradient
       inkscape:collect="always"
       xlink:href="#linearGradient4540"
       id="linearGradient4435"
       gradientUnits="userSpaceOnUse"
       gradientTransform="matrix(0.65217041,0,0,0.65217328,122.3479,-158.67021)"
       x1="7"
       y1="1011.3622"
       x2="41.000019"
       y2="1045.3622" />
    <linearGradient
       inkscape:collect="always"
       id="linearGradient4165-3">
      <stop
         style="stop-color:#ffffff;stop-opacity:0.05490196"
         offset="0"
         id="stop4167-6" />
      <stop
         style="stop-color:#177ed5;stop-opacity:0;"
         offset="1"
         id="stop4169-7" />
    </linearGradient>
    <linearGradient
       inkscape:collect="always"
       xlink:href="#linearGradient4165-3"
       id="linearGradient4535"
       gradientUnits="userSpaceOnUse"
       gradientTransform="matrix(1.3043412,0,0,1.3043465,234.69566,-845.34012)"
       x1="7"
       y1="1011.3622"
       x2="41.000019"
       y2="1045.3622" />
    <linearGradient
       inkscape:collect="always"
       xlink:href="#linearGradient4534"
       id="linearGradient1002"
       gradientUnits="userSpaceOnUse"
       gradientTransform="matrix(0.47825838,0,0,0.47826068,43.5218,25.1749)"
       x1="7"
       y1="1011.3622"
       x2="41.000019"
       y2="1045.3622" />
    <filter
       inkscape:collect="always"
       style="color-interpolation-filters:sRGB"
       id="filter1052"
       x="-0.0066"
       width="1.0132"
       y="-0.066"
       height="1.132">
      <feGaussianBlur
         inkscape:collect="always"
         stdDeviation="0.11"
         id="feGaussianBlur1054" />
    </filter>
    <filter
       inkscape:collect="always"
       style="color-interpolation-filters:sRGB"
       id="filter1066"
       x="-0.01035"
       width="1.0207"
       y="-0.014275862"
       height="1.0285517">
      <feGaussianBlur
         inkscape:collect="always"
         stdDeviation="0.1725"
         id="feGaussianBlur1068" />
    </filter>
    <linearGradient
       inkscape:collect="always"
       xlink:href="#linearGradient4534"
       id="linearGradient1095"
       gradientUnits="userSpaceOnUse"
       gradientTransform="matrix(0.95651676,0,0,0.95652136,171.0436,-479.6502)"
       x1="7"
       y1="1011.3622"
       x2="41.000019"
       y2="1045.3622" />
    <filter
       inkscape:collect="always"
       style="color-interpolation-filters:sRGB"
       id="filter1176"
       x="-0.0079285714"
       width="1.0158571"
       y="-0.024666667"
       height="1.0493333">
      <feGaussianBlur
         inkscape:collect="always"
         stdDeviation="0.185"
         id="feGaussianBlur1178" />
    </filter>
    <filter
       inkscape:collect="always"
       style="color-interpolation-filters:sRGB"
       id="filter1182"
       x="-0.010285714"
       width="1.0205714"
       y="-0.0144"
       height="1.0288">
      <feGaussianBlur
         inkscape:collect="always"
         stdDeviation="0.24"
         id="feGaussianBlur1184" />
    </filter>
    <linearGradient
       inkscape:collect="always"
       xlink:href="#linearGradient4165-3"
       id="linearGradient1226"
       gradientUnits="userSpaceOnUse"
       gradientTransform="matrix(10.43473,0,0,10.434772,319.56528,-10458.721)"
       x1="7"
       y1="1011.3622"
       x2="41.000019"
       y2="1045.3622" />
    <filter
       inkscape:collect="always"
       style="color-interpolation-filters:sRGB"
       id="filter1238"
       x="-0.020571429"
       width="1.0411429"
       y="-0.0288"
       height="1.0576">
      <feGaussianBlur
         inkscape:collect="always"
         stdDeviation="3.84"
         id="feGaussianBlur1240" />
    </filter>
    <filter
       inkscape:collect="always"
       style="color-interpolation-filters:sRGB"
       id="filter1248"
       x="-0.015857143"
       width="1.0317143"
       y="-0.049333333"
       height="1.0986667">
      <feGaussianBlur
         inkscape:collect="always"
         stdDeviation="2.96"
         id="feGaussianBlur1250" />
    </filter>
  </defs>
  <sodipodi:namedview
     id="base"
     pagecolor="#c3c3c3"
     bordercolor="#333333"
     borderopacity="1"
     inkscape:pageopacity="0"
     inkscape:pageshadow="2"
     inkscape:zoom="1"
     inkscape:cx="14.938632"
     inkscape:cy="21.978478"
     inkscape:document-units="px"
     inkscape:current-layer="layer2"
     showgrid="false"
     units="px"
     inkscape:showpageshadow="false"
     inkscape:window-width="2560"
     inkscape:window-height="1377"
     inkscape:window-x="0"
     inkscape:window-y="34"
     inkscape:window-maximized="1"
     inkscape:lockguides="false">
    <inkscape:grid
       type="xygrid"
       id="grid4630" />
  </sodipodi:namedview>
  <metadata
     id="metadata1084">
    <rdf:RDF>
      <cc:Work
         rdf:about="">
        <dc:format>image/svg+xml</dc:format>
        <dc:type
           rdf:resource="http://purl.org/dc/dcmitype/StillImage" />
        <dc:title></dc:title>
        <cc:license
           rdf:resource="http://creativecommons.org/licenses/by-sa/4.0/" />
        <dc:creator>
          <cc:Agent>
            <dc:title>Peter Cornelis</dc:title>
          </cc:Agent>
        </dc:creator>
      </cc:Work>
      <cc:License
         rdf:about="http://creativecommons.org/licenses/by-sa/4.0/">
        <cc:permits
           rdf:resource="http://creativecommons.org/ns#Reproduction" />
        <cc:permits
           rdf:resource="http://creativecommons.org/ns#Distribution" />
        <cc:requires
           rdf:resource="http://creativecommons.org/ns#Notice" />
        <cc:requires
           rdf:resource="http://creativecommons.org/ns#Attribution" />
        <cc:permits
           rdf:resource="http://creativecommons.org/ns#DerivativeWorks" />
        <cc:requires
           rdf:resource="http://creativecommons.org/ns#ShareAlike" />
      </cc:License>
    </rdf:RDF>
  </metadata>
  <g
     inkscape:label="Baseplate"
     inkscape:groupmode="layer"
     id="layer1"
     transform="translate(0,-153.06668)"
     style="display:none">
    <rect
       style="display:inline;overflow:visible;visibility:visible;fill:#fefefe;fill-opacity:1;fill-rule:nonzero;stroke:none;stroke-width:2;marker:none;enable-background:accumulate"
       id="rect3951"
       width="512"
       height="512"
       x="-826"
       y="169.06668"
       inkscape:label="48x48"
       transform="scale(-1,1)" />
    <text
       y="733.32251"
       xml:space="preserve"
       x="15.006836"
       style="font-style:normal;font-variant:normal;font-weight:normal;font-stretch:normal;line-height:0%;font-family:'DejaVu Sans';-inkscape-font-specification:'DejaVu Sans';display:inline;fill:#000000;fill-opacity:1;stroke:none;enable-background:new"
       inkscape:label="context"
       id="context"><tspan
         style="font-style:normal;font-variant:normal;font-weight:normal;font-stretch:normal;font-size:18px;line-height:1.25;font-family:'DejaVu Sans';-inkscape-font-specification:'DejaVu Sans'"
         y="733.32251"
         x="15.006836"
         sodipodi:role="line"
         id="tspan3933">apps</tspan></text>
    <text
       y="733.32251"
       xml:space="preserve"
       x="142.48828"
       style="font-style:normal;font-variant:normal;font-weight:bold;font-stretch:normal;line-height:0%;font-family:'DejaVu Sans';-inkscape-font-specification:'DejaVu Sans Bold';text-align:start;writing-mode:lr-tb;text-anchor:start;display:inline;fill:#000000;fill-opacity:1;stroke:none;enable-background:new"
       inkscape:label="icon-name"
       id="icon-name"><tspan
         style="font-style:normal;font-variant:normal;font-weight:bold;font-stretch:normal;font-size:18px;line-height:1.25;font-family:'DejaVu Sans';-inkscape-font-specification:'DejaVu Sans Bold'"
         y="733.32251"
         x="142.48828"
         sodipodi:role="line"
         id="tspan3937">dropbox</tspan></text>
    <rect
       style="display:inline;overflow:visible;visibility:visible;fill:#fefefe;fill-opacity:1;fill-rule:nonzero;stroke:none;stroke-width:2;marker:none;enable-background:accumulate"
       id="rect16x16"
       width="16"
       height="16"
       x="-32"
       y="665.06665"
       inkscape:label="16x16"
       transform="scale(-1,1)" />
    <rect
       style="display:inline;overflow:visible;visibility:visible;fill:#fefefe;fill-opacity:1;fill-rule:nonzero;stroke:none;stroke-width:2;marker:none;enable-background:accumulate"
       id="rect24x24"
       width="24"
       height="24"
       x="-102"
       y="657.06665"
       inkscape:label="24x24"
       transform="scale(-1,1)" />
    <rect
       style="display:inline;overflow:visible;visibility:visible;fill:#fefefe;fill-opacity:1;fill-rule:nonzero;stroke:none;stroke-width:2;marker:none;enable-background:accumulate"
       id="rect32x32"
       width="32"
       height="32"
       x="-154"
       y="649.06665"
       inkscape:label="32x32"
       transform="scale(-1,1)" />
    <rect
       inkscape:label="48x48"
       y="633.06665"
       x="-218"
       height="48"
       width="48"
       id="rect48x48"
       style="display:inline;overflow:visible;visibility:visible;fill:#fefefe;fill-opacity:1;fill-rule:nonzero;stroke:none;stroke-width:2;marker:none;enable-background:accumulate"
       transform="scale(-1,1)" />
    <rect
       transform="scale(-1,1)"
       inkscape:label="48x48"
       y="617.06665"
       x="-298"
       height="64"
       width="64"
       id="rect4524"
       style="display:inline;overflow:visible;visibility:visible;fill:#fefefe;fill-opacity:1;fill-rule:nonzero;stroke:none;stroke-width:0.25;marker:none;enable-background:accumulate" />
    <rect
       transform="scale(-1,1)"
       inkscape:label="24x24"
       y="659.06665"
       x="-66"
       height="22"
       width="22"
       id="rect4543"
       style="display:inline;overflow:visible;visibility:visible;fill:#fefefe;fill-opacity:1;fill-rule:nonzero;stroke:none;stroke-width:1.83333325;marker:none;enable-background:accumulate" />
    <rect
       transform="scale(-1,1)"
       inkscape:label="32x32"
       y="617.06665"
       x="-298"
       height="64"
       width="64"
       id="rect1133"
       style="display:inline;overflow:visible;visibility:visible;fill:#fefefe;fill-opacity:1;fill-rule:nonzero;stroke:none;stroke-width:4;marker:none;enable-background:accumulate" />
    <rect
       style="display:inline;overflow:visible;visibility:visible;fill:#fefefe;fill-opacity:1;fill-rule:nonzero;stroke:none;stroke-width:2;marker:none;enable-background:accumulate"
       id="rect1204"
       width="512"
       height="512"
       x="-826"
       y="169.06665"
       inkscape:label="48x48"
       transform="scale(-1,1)" />
    <rect
       style="display:inline;overflow:visible;visibility:visible;fill:#fefefe;fill-opacity:1;fill-rule:nonzero;stroke:none;stroke-width:32;marker:none;enable-background:accumulate"
       id="rect1206"
       width="512"
       height="512"
       x="-826"
       y="169.06665"
       inkscape:label="32x32"
       transform="scale(-1,1)" />
  </g>
  <g
     inkscape:groupmode="layer"
     id="layer2"
     inkscape:label="Bitmap"
     style="display:inline">
    <path
       sodipodi:nodetypes="sscsscsscsscs"
       inkscape:connector-curvature="0"
       id="path5069"
       d="m 169,485 c -1.66505,0 -3,1.2912 -3,3 v 17 17 c 0,1.8617 1.34224,3 3,3 h 17 17 c 1.73784,0 3,-1.2767 3,-3 v -17 -17 c 0,-1.6942 -1.29127,-3 -3,-3 h -17 z"
       style="display:inline;fill:none;fill-opacity:0.5;stroke:none;stroke-width:2;stroke-linecap:round;stroke-linejoin:round;stroke-miterlimit:4;stroke-dasharray:none;stroke-opacity:1;filter:url(#filter5087);enable-background:new" />
    <path
       style="display:inline;fill:none;fill-opacity:0.5;stroke:none;stroke-width:2;stroke-linecap:round;stroke-linejoin:round;stroke-miterlimit:4;stroke-dasharray:none;stroke-opacity:1;filter:url(#filter5087);enable-background:new"
       d="m 169,485 c -1.66505,0 -3,1.2912 -3,3 v 17 17 c 0,1.8617 1.34224,3 3,3 h 17 17 c 1.73784,0 3,-1.2767 3,-3 v -17 -17 c 0,-1.6942 -1.29127,-3 -3,-3 h -17 z"
       id="path4506"
       inkscape:connector-curvature="0"
       sodipodi:nodetypes="sscsscsscsscs" />
    <path
       style="display:inline;fill:#000000;fill-opacity:0.2;stroke:none;stroke-width:2;stroke-linecap:round;stroke-linejoin:round;stroke-miterlimit:4;stroke-dasharray:none;stroke-opacity:1;enable-background:new"
       d="M 80 518 L 80 521.55469 L 80 525 C 80 526.108 80.892 527 82 527 L 85.460938 527 L 94.550781 527 L 98 527 C 99.108 527 100 526.108 100 525 L 100 521.53906 L 100 518 L 80 518 z "
       id="path4543" />
    <rect
       style="fill:#ededed;fill-opacity:1;stroke:none"
       id="rect950"
       width="16"
       height="12"
       x="82"
       y="506"
       rx="2"
       ry="2" />
    <path
       style="display:inline;fill:#1383d9;fill-opacity:1;stroke:none;enable-background:new"
       d="M 80 515 L 80 524 C 80 525.108 80.892 526 82 526 L 98 526 C 99.108 526 100 525.108 100 524 L 100 515 L 80 515 z "
       id="rect4243" />
    <rect
       transform="matrix(0,-1,-1,0,0,0)"
       style="display:inline;fill:#ededed;fill-opacity:1;stroke:none;enable-background:new"
       id="rect4265"
       width="16"
       height="16"
       x="-528"
       y="-32"
       rx="2"
       ry="2" />
    <path
       style="fill:#1383d9;fill-opacity:1;stroke:none"
       d="m 82,512 c -1.108,0 -2,0.892 -2,2 v 2 h 20 v -2 c 0,-1.108 -0.892,-2 -2,-2 z"
       id="rect922"
       inkscape:connector-curvature="0" />
    <path
       style="fill:#2fa4fe;fill-opacity:1;stroke:none"
       d="M 82 512 C 80.892 512 80 512.892 80 514 L 80 516 L 80 518 L 83 518 L 88 518 C 89.108 518 90 517.108 90 516 C 90 517.108 90.892 518 92 518 L 98 518 L 100 518 L 100 516 L 100 514 C 100 512.892 99.108 512 98 512 L 92 512 L 88 512 L 82 512 z "
       id="rect930" />
    <path
       id="path4528"
       d="m 80,515 v -1 c 0,-1.108 0.892,-2 2,-2 h 16 c 1.108,0 2,0.892 2,2 v 1 c 0,-1.108 -0.892,-2 -2,-2 H 82 c -1.108,0 -2,0.892 -2,2 z"
       style="display:inline;fill:#ffffff;fill-opacity:0.2;stroke:none;enable-background:new"
       inkscape:connector-curvature="0" />
    <path
       style="fill:#000000;fill-opacity:0.2;stroke:none"
       d="M 90 516 C 90 517.108 89.108 518 88 518 L 83 518 L 80 518 L 80 519 L 83 519 L 88 519 C 89.108 519 90 518.108 90 517 C 90 518.108 90.892 519 92 519 L 98 519 L 100 519 L 100 518 L 98 518 L 92 518 C 90.892 518 90 517.108 90 516 z "
       id="path942" />
    <path
       style="fill:#ffffff;fill-opacity:0.97254908;stroke:none"
       d="M 84 506 C 82.892 506 82 506.892 82 508 L 82 509 C 82 507.892 82.892 507 84 507 L 96 507 C 97.108 507 98 507.892 98 509 L 98 508 C 98 506.892 97.108 506 96 506 L 84 506 z "
       id="rect952" />
    <path
       style="display:inline;fill:url(#linearGradient4347);fill-opacity:1;stroke:none;stroke-width:2;stroke-linecap:round;stroke-linejoin:round;stroke-miterlimit:4;stroke-dasharray:none;stroke-opacity:1;enable-background:new"
       d="m 84,506 c -1.108,0 -2,0.892 -2,2 v 4 c -1.108,0 -2,0.892 -2,2 v 1 1 2 2.55469 V 524 c 0,1.108 0.892,2 2,2 h 16 c 1.108,0 2,-0.892 2,-2 V 520.53906 518 v -3 -1 c 0,-1.108 -0.892,-2 -2,-2 v -4 c 0,-1.108 -0.892,-2 -2,-2 H 85.449219 Z"
       id="path4345"
       inkscape:connector-curvature="0" />
    <path
       id="path984"
       d="M 45,519 V 522.55469 526 c 0,1.108 0.892,2 2,2 H 50.460938 59.550781 63 c 1.108,0 2,-0.892 2,-2 V 522.53906 519 Z"
       style="display:inline;fill:#000000;fill-opacity:0.2;stroke:none;stroke-width:2;stroke-linecap:round;stroke-linejoin:round;stroke-miterlimit:4;stroke-dasharray:none;stroke-opacity:1;enable-background:new"
       inkscape:connector-curvature="0" />
    <rect
       ry="2"
       rx="2"
       y="507"
       x="47"
       height="12"
       width="16"
       id="rect986"
       style="fill:#ededed;fill-opacity:1;stroke:none" />
    <path
       id="path988"
       d="m 45,516 v 9 c 0,1.108 0.892,2 2,2 h 16 c 1.108,0 2,-0.892 2,-2 v -9 z"
       style="display:inline;fill:#1383d9;fill-opacity:1;stroke:none;enable-background:new"
       inkscape:connector-curvature="0" />
    <path
       inkscape:connector-curvature="0"
       id="path990"
       d="m 47,513 c -1.108,0 -2,0.892 -2,2 v 2 h 20 v -2 c 0,-1.108 -0.892,-2 -2,-2 z"
       style="fill:#1383d9;fill-opacity:1;stroke:none" />
    <path
       id="path992"
       d="m 47,513 c -1.108,0 -2,0.892 -2,2 v 2 2 h 3 5 c 1.108,0 2,-0.892 2,-2 0,1.108 0.892,2 2,2 h 6 2 v -2 -2 c 0,-1.108 -0.892,-2 -2,-2 h -6 -4 z"
       style="fill:#2fa4fe;fill-opacity:1;stroke:none"
       inkscape:connector-curvature="0" />
    <path
       inkscape:connector-curvature="0"
       style="display:inline;fill:#ffffff;fill-opacity:0.2;stroke:none;enable-background:new"
       d="m 45,516 v -1 c 0,-1.108 0.892,-2 2,-2 h 16 c 1.108,0 2,0.892 2,2 v 1 c 0,-1.108 -0.892,-2 -2,-2 H 47 c -1.108,0 -2,0.892 -2,2 z"
       id="path994" />
    <path
       id="path996"
       d="m 55,517 c 0,1.108 -0.892,2 -2,2 h -5 -3 v 1 h 3 5 c 1.108,0 2,-0.892 2,-2 0,1.108 0.892,2 2,2 h 6 2 v -1 h -2 -6 c -1.108,0 -2,-0.892 -2,-2 z"
       style="fill:#000000;fill-opacity:0.2;stroke:none"
       inkscape:connector-curvature="0" />
    <path
       id="path998"
       d="m 49,507 c -1.108,0 -2,0.892 -2,2 v 1 c 0,-1.108 0.892,-2 2,-2 h 12 c 1.108,0 2,0.892 2,2 v -1 c 0,-1.108 -0.892,-2 -2,-2 z"
       style="fill:#ffffff;fill-opacity:0.97254908;stroke:none"
       inkscape:connector-curvature="0" />
    <path
       inkscape:connector-curvature="0"
       id="path1000"
       d="m 49,507 c -1.108,0 -2,0.892 -2,2 v 4 c -1.108,0 -2,0.892 -2,2 v 1 1 2 2.55469 V 525 c 0,1.108 0.892,2 2,2 h 16 c 1.108,0 2,-0.892 2,-2 V 521.53906 519 v -3 -1 c 0,-1.108 -0.892,-2 -2,-2 v -4 c 0,-1.108 -0.892,-2 -2,-2 H 50.449219 Z"
       style="display:inline;fill:url(#linearGradient1002);fill-opacity:1;stroke:none;stroke-width:2;stroke-linecap:round;stroke-linejoin:round;stroke-miterlimit:4;stroke-dasharray:none;stroke-opacity:1;enable-background:new" />
    <path
       style="display:inline;fill:#1584da;fill-opacity:1;stroke:none;enable-background:new"
       d="M 16 518 L 16 526 C 16 527.108 16.892 528 18 528 L 30 528 C 31.108 528 32 527.108 32 526 L 32 518 L 16 518 z "
       id="rect1004" />
    <path
       style="display:inline;fill:#2fa4fe;fill-opacity:1;stroke:none;enable-background:new"
       d="M 16 517 L 16 518 L 16 521 L 22 521 C 23.108 521 24 520.108 24 519 C 24 520.108 24.892 521 26 521 L 32 521 L 32 518 L 32 517 L 16 517 z "
       id="path1009" />
    <path
       style="display:inline;fill:#000000;fill-opacity:0.2;stroke:none;stroke-width:2;enable-background:new;filter:url(#filter1066)"
       d="M 177 496 C 175.338 496 174 497.338 174 499 L 174 500 L 174 503 L 174 504 L 174 505 L 174 508 L 174 521 C 174 523.216 175.784 525 178 525 L 210 525 C 212.216 525 214 523.216 214 521 L 214 508 L 214 503 L 214 500 L 214 499 C 214 497.338 212.662 496 211 496 L 210 496 L 198 496 L 197 496 L 191 496 L 178 496 L 177 496 z "
       id="path1061" />
    <path
       style="fill:#ededed;fill-opacity:1;stroke:none"
       d="M 181 484 C 179.338 484 178 485.338 178 487 L 178 488 L 178 504 L 178 508 C 178 509.662 179.338 511 181 511 L 207 511 C 208.662 511 210 509.662 210 508 L 210 504 L 210 488 L 210 487 C 210 485.338 208.662 484 207 484 L 206 484 L 182 484 L 181 484 z "
       id="rect1070" />
    <path
       id="path1024"
       d="m 174,502 v 18 c 0,2.216 1.784,4 4,4 h 32 c 2.216,0 4,-1.784 4,-4 v -18 z"
       style="display:inline;fill:#1383d9;fill-opacity:1;stroke:none;stroke-width:2;enable-background:new"
       inkscape:connector-curvature="0" />
    <path
       inkscape:connector-curvature="0"
       id="path1026"
       d="m 178,496 c -2.216,0 -4,1.784 -4,4 v 4 h 40 v -4 c 0,-2.216 -1.784,-4 -4,-4 z"
       style="fill:#1383d9;fill-opacity:1;stroke:none;stroke-width:2" />
    <path
       style="fill:#2fa4fe;fill-opacity:1;stroke:none;stroke-width:2"
       d="m 177,496 c -1.662,0 -3,1.338 -3,3 v 1 4 1 3 h 3 3 10 1 c 1.662,0 3,-1.338 3,-3 0,1.662 1.338,3 3,3 h 1 13 3 v -3 -1 -4 -1 c 0,-1.662 -1.338,-3 -3,-3 h -1 -12 -1 -6 -13 z"
       id="path1028"
       inkscape:connector-curvature="0" />
    <path
       style="fill:#000000;fill-opacity:0.2;stroke:none;stroke-width:2;filter:url(#filter1052)"
       d="M 194 505 C 194 506.662 192.662 508 191 508 L 190 508 L 180 508 L 177 508 L 174 508 L 174 509 L 177 509 L 180 509 L 190 509 L 191 509 C 192.662 509 194 507.662 194 506 C 194 507.662 195.338 509 197 509 L 198 509 L 211 509 L 214 509 L 214 508 L 211 508 L 198 508 L 197 508 C 195.338 508 194 506.662 194 505 z "
       id="path1049" />
    <path
       style="fill:#ffffff;fill-opacity:0.2;stroke:none;stroke-width:2"
       d="M 177 496 C 175.338 496 174 497.338 174 499 L 174 500 C 174 498.338 175.338 497 177 497 L 178 497 L 191 497 L 197 497 L 198 497 L 210 497 L 211 497 C 212.662 497 214 498.338 214 500 L 214 499 C 214 497.338 212.662 496 211 496 L 210 496 L 198 496 L 197 496 L 191 496 L 178 496 L 177 496 z "
       id="path1056" />
    <path
       style="fill:#ffffff;fill-opacity:1;stroke:none"
       d="M 181 484 C 179.338 484 178 485.338 178 487 L 178 488 C 178 486.338 179.338 485 181 485 L 182 485 L 206 485 L 207 485 C 208.662 485 210 486.338 210 488 L 210 487 C 210 485.338 208.662 484 207 484 L 206 484 L 182 484 L 181 484 z "
       id="path1075" />
    <rect
       ry="3"
       rx="3"
       y="507"
       x="124"
       height="20"
       width="28"
       id="rect1118"
       style="fill:#000000;fill-opacity:0.2;stroke:none" />
    <rect
       style="fill:#1383d9;fill-opacity:1;stroke:none"
       id="rect1097"
       width="28"
       height="20"
       x="124"
       y="506"
       rx="3"
       ry="3" />
    <path
       inkscape:connector-curvature="0"
       id="path1093"
       d="m 182,484 c -2.216,0 -4,1.784 -4,4 v 8 c -2.216,0 -4,1.784 -4,4 v 2 2 1 3 5.10938 V 520 c 0,2.216 1.784,4 4,4 h 32 c 2.216,0 4,-1.784 4,-4 V 513.07812 508 v -6 -2 c 0,-2.216 -1.784,-4 -4,-4 v -8 c 0,-2.216 -1.784,-4 -4,-4 z"
       style="display:inline;fill:url(#linearGradient1095);fill-opacity:1;stroke:none;stroke-width:4;stroke-linecap:round;stroke-linejoin:round;stroke-miterlimit:4;stroke-dasharray:none;stroke-opacity:1;enable-background:new" />
    <rect
       style="fill:#ededed;fill-opacity:1;stroke:none"
       id="rect1111"
       width="22"
       height="14"
       x="127"
       y="498"
       rx="3"
       ry="3" />
    <path
       id="path1120"
       d="m 127,507 c -1.662,0 -3,1.338 -3,3 v 3 3 h 4 7 c 1.662,0 3,-1.338 3,-3 0,1.662 1.338,3 3,3 h 7 1 3 v -3 -1 -2 c 0,-1.662 -1.338,-3 -3,-3 h -7 -1 -6 -2 z"
       style="fill:#000000;fill-opacity:0.2;stroke:none"
       inkscape:connector-curvature="0" />
    <path
       style="fill:#2fa4fe;fill-opacity:1;stroke:none"
       d="M 127 506 C 125.338 506 124 507.338 124 509 L 124 512 L 124 515 L 128 515 L 135 515 C 136.662 515 138 513.662 138 512 C 138 513.662 139.338 515 141 515 L 148 515 L 149 515 L 152 515 L 152 512 L 152 511 L 152 509 C 152 507.338 150.662 506 149 506 L 142 506 L 141 506 L 135 506 L 133 506 L 127 506 z "
       id="rect1099" />
    <path
       style="fill:#ffffff;fill-opacity:1;stroke:none"
       d="M 130 498 C 128.338 498 127 499.338 127 501 L 127 502 C 127 500.338 128.338 499 130 499 L 146 499 C 147.662 499 149 500.338 149 502 L 149 501 C 149 499.338 147.662 498 146 498 L 130 498 z "
       id="rect1113" />
    <path
       style="fill:#ffffff;fill-opacity:0.2;stroke:none"
       d="M 127 506 C 125.338 506 124 507.338 124 509 L 124 510 C 124 508.338 125.338 507 127 507 L 133 507 L 135 507 L 141 507 L 142 507 L 149 507 C 150.662 507 152 508.338 152 510 L 152 509 C 152 507.338 150.662 506 149 506 L 142 506 L 141 506 L 135 506 L 133 506 L 127 506 z "
       id="path1122" />
    <path
       style="display:inline;fill:url(#linearGradient4435);fill-opacity:1;stroke:none;stroke-width:2;stroke-linecap:round;stroke-linejoin:round;stroke-miterlimit:4;stroke-dasharray:none;stroke-opacity:1;enable-background:new"
       d="m 130,498 c -1.662,0 -3,1.338 -3,3 v 5 c -1.662,0 -3,1.338 -3,3 V 517.33789 523 c 0,1.662 1.338,3 3,3 h 22 c 1.662,0 3,-1.338 3,-3 v -14 c 0,-1.662 -1.338,-3 -3,-3 v -5 c 0,-1.662 -1.338,-3 -3,-3 h -13.33594 z"
       id="path4433"
       inkscape:connector-curvature="0" />
    <path
       id="path1180"
       d="m 244,485 c -3.324,0 -6,2.676 -6,6 v 23 5 2 c 0,2.216 1.784,4 4,4 h 2 44 2 c 2.216,0 4,-1.784 4,-4 v -2 -5 -23 c 0,-3.324 -2.676,-6 -6,-6 z"
       style="fill:#000000;fill-opacity:0.2;stroke:none;stroke-width:2;filter:url(#filter1182)"
       inkscape:connector-curvature="0" />
    <path
       style="fill:#1383d9;fill-opacity:1;stroke:none;stroke-width:2"
       d="M 244 484 C 240.676 484 238 486.676 238 490 L 238 513 L 238 518 L 238 520 C 238 522.216 239.784 524 242 524 L 244 524 L 288 524 L 290 524 C 292.216 524 294 522.216 294 520 L 294 518 L 294 513 L 294 490 C 294 486.676 291.324 484 288 484 L 244 484 z "
       id="rect1137" />
    <path
       style="fill:#ededed;fill-opacity:1;stroke:none;stroke-width:2"
       d="M 248 468 C 245.784 468 244 469.784 244 472 L 244 474 L 244 477 L 244 490 C 244 493.324 246.676 496 250 496 L 282 496 C 285.324 496 288 493.324 288 490 L 288 477 L 288 474 L 288 472 C 288 469.784 286.216 468 284 468 L 282 468 L 250 468 L 248 468 z "
       id="rect1139" />
    <path
       id="path1174"
       d="m 242,485 c -2.216,0 -4,1.784 -4,4 v 2 6 2 4 h 4 4 14 2 c 2.216,0 4,-1.784 4,-4 0,2.216 1.784,4 4,4 h 20 4 v -4 -4 -4 -2 c 0,-2.216 -1.784,-4 -4,-4 h -18 -10 -18 z"
       style="fill:#000000;fill-opacity:0.2;stroke:none;stroke-width:2;filter:url(#filter1176)"
       inkscape:connector-curvature="0" />
    <path
       style="fill:#2fa4fe;fill-opacity:1;stroke:none;stroke-width:2"
       d="M 242 484 C 239.784 484 238 485.784 238 488 L 238 490 L 238 496 L 238 498 L 238 502 L 242 502 L 246 502 L 260 502 L 262 502 C 264.216 502 266 500.216 266 498 C 266 500.216 267.784 502 270 502 L 290 502 L 294 502 L 294 498 L 294 494 L 294 490 L 294 488 C 294 485.784 292.216 484 290 484 L 272 484 L 262 484 L 244 484 L 242 484 z "
       id="path1143" />
    <path
       style="fill:#ffffff;fill-opacity:0.2;stroke:none;stroke-width:2"
       d="M 242 484 C 239.784 484 238 485.784 238 488 L 238 489 C 238 486.784 239.784 485 242 485 L 244 485 L 262 485 L 272 485 L 290 485 C 292.216 485 294 486.784 294 489 L 294 488 C 294 485.784 292.216 484 290 484 L 272 484 L 262 484 L 244 484 L 242 484 z "
       id="path1186" />
    <path
       style="fill:#ffffff;fill-opacity:1;stroke:none;stroke-width:2"
       d="M 248 468 C 245.784 468 244 469.784 244 472 L 244 473 C 244 470.784 245.784 469 248 469 L 250 469 L 282 469 L 284 469 C 286.216 469 288 470.784 288 473 L 288 472 C 288 469.784 286.216 468 284 468 L 282 468 L 250 468 L 248 468 z "
       id="path1191" />
    <path
       style="display:inline;fill:url(#linearGradient4535);fill-opacity:1;stroke:none;stroke-width:2;stroke-linecap:round;stroke-linejoin:round;stroke-miterlimit:4;stroke-dasharray:none;stroke-opacity:1;enable-background:new"
       d="m 248,468 c -2.216,0 -4,1.784 -4,4 v 2 3 7 h -2 c -2.216,0 -4,1.784 -4,4 v 2 6 2 4 4.67188 6.32812 5 1.5 c 0,2.493 2.007,4.5 4.5,4.5 H 244 255.37305 288 h 1.5 c 2.493,0 4.5,-2.007 4.5,-4.5 V 518 513 506.67383 502 v -8 -4 -2 c 0,-2.216 -1.784,-4 -4,-4 h -2 v -7 -3 -2 c 0,-2.216 -1.784,-4 -4,-4 h -2 -26.67188 z"
       id="path4533"
       inkscape:connector-curvature="0" />
    <path
       id="path1232"
       d="m 394,178.0002 c -26.592,0 -48,21.408 -48,48 v 184 40 16 c 0,17.728 14.272,32 32,32 h 16 352 16 c 17.728,0 32,-14.272 32,-32 v -16 -40 -184 c 0,-26.592 -21.408,-48 -48,-48 z"
       style="fill:#000000;fill-opacity:0.2;stroke:none;stroke-width:16;filter:url(#filter1238)"
       inkscape:connector-curvature="0" />
    <path
       inkscape:connector-curvature="0"
       style="fill:#000000;fill-opacity:0.2;stroke:none;stroke-width:16"
       d="m 394,178.0002 c -26.592,0 -48,21.408 -48,48 v 184 40 16 c 0,17.728 14.272,32 32,32 h 16 352 16 c 17.728,0 32,-14.272 32,-32 v -16 -40 -184 c 0,-26.592 -21.408,-48 -48,-48 z"
       id="path1210" />
    <path
       id="path1212"
       d="m 394,176.00021 c -26.592,0 -48,21.408 -48,48 v 184 40 16 c 0,17.728 14.272,32 32,32 h 16 352 16 c 17.728,0 32,-14.272 32,-32 v -16 -40 -184 c 0,-26.592 -21.408,-48 -48,-48 z"
       style="fill:#1383d9;fill-opacity:1;stroke:none;stroke-width:16"
       inkscape:connector-curvature="0" />
    <path
       id="path1214"
       d="m 426,48.000207 c -17.728,0 -32,14.272 -32,32 v 16 24.000003 104 c 0,26.592 21.408,48 48,48 h 256 c 26.592,0 48,-21.408 48,-48 v -104 -24.000003 -16 c 0,-17.728 -14.272,-32 -32,-32 H 698 442 Z"
       style="fill:#ededed;fill-opacity:1;stroke:none;stroke-width:16"
       inkscape:connector-curvature="0" />
    <path
       inkscape:connector-curvature="0"
       style="fill:#000000;fill-opacity:0.2;stroke:none;stroke-width:16"
       d="m 378,178.0002 c -17.728,0 -32,14.272 -32,32 v 16 48 16 32 h 32 32 112 16 c 17.728,0 32,-14.272 32,-32 0,17.728 14.272,32 32,32 h 160 32 v -32 -32 -32 -16 c 0,-17.728 -14.272,-32 -32,-32 H 618 538 394 Z"
       id="path1216" />
    <path
       id="path1242"
       d="m 378,178.0002 c -17.728,0 -32,14.272 -32,32 v 16 48 16 32 h 32 32 112 16 c 17.728,0 32,-14.272 32,-32 0,17.728 14.272,32 32,32 h 160 32 v -32 -32 -32 -16 c 0,-17.728 -14.272,-32 -32,-32 H 618 538 394 Z"
       style="fill:#000000;fill-opacity:0.2;stroke:none;stroke-width:16;filter:url(#filter1248)"
       inkscape:connector-curvature="0" />
    <path
       id="path1218"
       d="m 378,176.00021 c -17.728,0 -32,14.272 -32,32 v 16 48 16 32 h 32 32 112 16 c 17.728,0 32,-14.272 32,-32 0,17.728 14.272,32 32,32 h 160 32 v -32 -32 -32 -16 c 0,-17.728 -14.272,-32 -32,-32 H 618 538 394 Z"
       style="fill:#2fa4fe;fill-opacity:1;stroke:none;stroke-width:16"
       inkscape:connector-curvature="0" />
    <path
       style="fill:#ffffff;fill-opacity:0.2;stroke:none;stroke-width:16"
       d="M 378 176 C 360.272 176 346 190.272 346 208 L 346 210 C 346 192.272 360.272 178 378 178 L 394 178 L 538 178 L 618 178 L 762 178 C 779.728 178 794 192.272 794 210 L 794 208 C 794 190.272 779.728 176 762 176 L 618 176 L 538 176 L 394 176 L 378 176 z "
       id="path1220" />
    <path
       style="fill:#ffffff;fill-opacity:0.98039216;stroke:none;stroke-width:16"
       d="M 426 48 C 408.272 48 394 62.272 394 80 L 394 82 C 394 64.272 408.272 50 426 50 L 442 50 L 698 50 L 714 50 C 731.728 50 746 64.272 746 82 L 746 80 C 746 62.272 731.728 48 714 48 L 698 48 L 442 48 L 426 48 z "
       id="path1222" />
    <path
       inkscape:connector-curvature="0"
       id="path1224"
       d="m 426,48.00021 c -17.728,0 -32,14.272 -32,32 v 16 24 56 h -16 c -17.728,0 -32,14.272 -32,32 v 16 48 16 32 37.37504 50.62496 40 12 c 0,19.944 16.056,36 36,36 H 394 484.9844 746 758 c 19.944,0 36,-16.056 36,-36 v -12 -40 -50.60936 -37.39064 -64 -32 -16 c 0,-17.728 -14.272,-32 -32,-32 h -16 v -56 -24 -16 c 0,-17.728 -14.272,-32 -32,-32 H 698 484.62496 Z"
       style="display:inline;fill:url(#linearGradient1226);fill-opacity:1;stroke:none;stroke-width:16;stroke-linecap:round;stroke-linejoin:round;stroke-miterlimit:4;stroke-dasharray:none;stroke-opacity:1;enable-background:new" />
  </g>
</svg>
