<?xml version="1.0" encoding="UTF-8" standalone="no"?>
<!-- Created with Inkscape (http://www.inkscape.org/) -->

<svg
   xmlns:dc="http://purl.org/dc/elements/1.1/"
   xmlns:cc="http://creativecommons.org/ns#"
   xmlns:rdf="http://www.w3.org/1999/02/22-rdf-syntax-ns#"
   xmlns:svg="http://www.w3.org/2000/svg"
   xmlns="http://www.w3.org/2000/svg"
   xmlns:xlink="http://www.w3.org/1999/xlink"
   xmlns:sodipodi="http://sodipodi.sourceforge.net/DTD/sodipodi-0.dtd"
   xmlns:inkscape="http://www.inkscape.org/namespaces/inkscape"
   width="816"
   height="544"
   viewBox="0 0 816 544"
   version="1.1"
   id="svg1087"
   inkscape:version="0.92.1 r"
   sodipodi:docname="emacs.svg">
  <defs
     id="defs1081">
    <linearGradient
       id="linearGradient4730"
       inkscape:collect="always">
      <stop
         id="stop4726"
         offset="0"
         style="stop-color:#ffffff;stop-opacity:0.05490196" />
      <stop
         id="stop4728"
         offset="1"
         style="stop-color:#177ed5;stop-opacity:0;" />
    </linearGradient>
    <linearGradient
       id="linearGradient4724"
       inkscape:collect="always">
      <stop
         id="stop4720"
         offset="0"
         style="stop-color:#ffffff;stop-opacity:0.05490196" />
      <stop
         id="stop4722"
         offset="1"
         style="stop-color:#177ed5;stop-opacity:0;" />
    </linearGradient>
    <filter
       inkscape:collect="always"
       style="color-interpolation-filters:sRGB"
       id="filter5087"
       x="-0.048"
       width="1.096"
       y="-0.048"
       height="1.096">
      <feGaussianBlur
         inkscape:collect="always"
         stdDeviation="0.8"
         id="feGaussianBlur5089" />
    </filter>
    <linearGradient
       inkscape:collect="always"
       id="linearGradient4165">
      <stop
         style="stop-color:#ffffff;stop-opacity:0.05490196"
         offset="0"
         id="stop4167" />
      <stop
         style="stop-color:#177ed5;stop-opacity:0;"
         offset="1"
         id="stop4169" />
    </linearGradient>
    <linearGradient
       inkscape:collect="always"
       xlink:href="#linearGradient4724"
       id="linearGradient4435"
       gradientUnits="userSpaceOnUse"
       gradientTransform="matrix(0.65217041,0,0,0.65217328,96.34777,-158.67056)"
       x1="7"
       y1="1011.3622"
       x2="41.000019"
       y2="1045.3622" />
    <linearGradient
       inkscape:collect="always"
       xlink:href="#linearGradient4165"
       id="linearGradient4171-1-0"
       x1="7"
       y1="1011.3622"
       x2="41.000019"
       y2="1045.3622"
       gradientUnits="userSpaceOnUse"
       gradientTransform="matrix(0.95652174,0,0,0.95652174,145.0435,-479.6504)" />
    <linearGradient
       inkscape:collect="always"
       xlink:href="#linearGradient4165-3"
       id="linearGradient4449-0"
       gradientUnits="userSpaceOnUse"
       gradientTransform="matrix(10.43473,0,0,10.434772,293.56521,-10458.722)"
       x1="7"
       y1="1011.3622"
       x2="41.000019"
       y2="1045.3622" />
    <linearGradient
       inkscape:collect="always"
       id="linearGradient4165-3">
      <stop
         style="stop-color:#ffffff;stop-opacity:0.05490196"
         offset="0"
         id="stop4167-6" />
      <stop
         style="stop-color:#177ed5;stop-opacity:0;"
         offset="1"
         id="stop4169-7" />
    </linearGradient>
    <linearGradient
       inkscape:collect="always"
       xlink:href="#linearGradient4165-3"
       id="linearGradient4537"
       gradientUnits="userSpaceOnUse"
       gradientTransform="matrix(1.3043412,0,0,1.3043465,208.69565,-845.3402)"
       x1="7"
       y1="1011.3622"
       x2="41.000019"
       y2="1045.3622" />
    <filter
       inkscape:collect="always"
       style="color-interpolation-filters:sRGB"
       id="filter4542"
       x="-0.011999969"
       width="1.0239999"
       y="-0.012000031"
       height="1.0240001">
      <feGaussianBlur
         inkscape:collect="always"
         stdDeviation="0.21999957"
         id="feGaussianBlur4544" />
    </filter>
    <filter
       inkscape:collect="always"
       style="color-interpolation-filters:sRGB"
       id="filter4606"
       x="-0.02399996"
       width="1.0479999"
       y="-0.02400004"
       height="1.0480001">
      <feGaussianBlur
         inkscape:collect="always"
         stdDeviation="4.799976"
         id="feGaussianBlur4608" />
    </filter>
    <linearGradient
       inkscape:collect="always"
       xlink:href="#linearGradient4730"
       id="linearGradient4620"
       gradientUnits="userSpaceOnUse"
       gradientTransform="matrix(0.4782599,0,0,0.47826359,52.521741,24.17187)"
       x1="7"
       y1="1011.3622"
       x2="41.000019"
       y2="1045.3622" />
    <filter
       inkscape:collect="always"
       style="color-interpolation-filters:sRGB"
       id="filter4541"
       x="-0.01199998"
       width="1.024"
       y="-0.01200002"
       height="1.024">
      <feGaussianBlur
         inkscape:collect="always"
         stdDeviation="0.2999985"
         id="feGaussianBlur4543" />
    </filter>
    <filter
       inkscape:collect="always"
       style="color-interpolation-filters:sRGB"
       id="filter4576"
       x="-0.025062594"
       width="1.0501252"
       y="-0.023023844"
       height="1.0460477">
      <feGaussianBlur
         inkscape:collect="always"
         stdDeviation="2.7628615"
         id="feGaussianBlur4578" />
    </filter>
    <filter
       inkscape:collect="always"
       style="color-interpolation-filters:sRGB"
       id="filter4743"
       x="-0.0125313"
       width="1.0250626"
       y="-0.011511919"
       height="1.0230238">
      <feGaussianBlur
         inkscape:collect="always"
         stdDeviation="0.11511922"
         id="feGaussianBlur4745" />
    </filter>
    <filter
       inkscape:collect="always"
       style="color-interpolation-filters:sRGB"
       id="filter4747"
       x="-0.012531297"
       width="1.0250626"
       y="-0.011511922"
       height="1.0230238">
      <feGaussianBlur
         inkscape:collect="always"
         stdDeviation="0.17267884"
         id="feGaussianBlur4749" />
    </filter>
  </defs>
  <sodipodi:namedview
     id="base"
     pagecolor="#c3c3c3"
     bordercolor="#333333"
     borderopacity="1"
     inkscape:pageopacity="0"
     inkscape:pageshadow="2"
     inkscape:zoom="0.25"
     inkscape:cx="-156.45258"
     inkscape:cy="985.42934"
     inkscape:document-units="px"
     inkscape:current-layer="layer1"
     showgrid="false"
     units="px"
     inkscape:showpageshadow="false"
     inkscape:window-width="1280"
     inkscape:window-height="1370"
     inkscape:window-x="0"
     inkscape:window-y="34"
     inkscape:window-maximized="0">
    <inkscape:grid
       type="xygrid"
       id="grid4630" />
  </sodipodi:namedview>
  <metadata
     id="metadata1084">
    <rdf:RDF>
      <cc:Work
         rdf:about="">
        <dc:format>image/svg+xml</dc:format>
        <dc:type
           rdf:resource="http://purl.org/dc/dcmitype/StillImage" />
        <dc:title></dc:title>
        <cc:license
           rdf:resource="http://creativecommons.org/licenses/by-sa/4.0/" />
        <dc:creator>
          <cc:Agent>
            <dc:title>Peter Cornelis</dc:title>
          </cc:Agent>
        </dc:creator>
      </cc:Work>
      <cc:License
         rdf:about="http://creativecommons.org/licenses/by-sa/4.0/">
        <cc:permits
           rdf:resource="http://creativecommons.org/ns#Reproduction" />
        <cc:permits
           rdf:resource="http://creativecommons.org/ns#Distribution" />
        <cc:requires
           rdf:resource="http://creativecommons.org/ns#Notice" />
        <cc:requires
           rdf:resource="http://creativecommons.org/ns#Attribution" />
        <cc:permits
           rdf:resource="http://creativecommons.org/ns#DerivativeWorks" />
        <cc:requires
           rdf:resource="http://creativecommons.org/ns#ShareAlike" />
      </cc:License>
    </rdf:RDF>
  </metadata>
  <g
     inkscape:label="Baseplate"
     inkscape:groupmode="layer"
     id="layer1"
     transform="translate(0,-153.06668)"
     style="display:none">
    <rect
       style="display:inline;overflow:visible;visibility:visible;fill:#fefefe;fill-opacity:1;fill-rule:nonzero;stroke:none;stroke-width:2;marker:none;enable-background:accumulate"
       id="rect3951"
       width="512"
       height="512"
       x="-800"
       y="169.06668"
       inkscape:label="48x48"
       transform="scale(-1,1)" />
    <text
       y="733.32251"
       xml:space="preserve"
       x="15.006836"
       style="font-style:normal;font-variant:normal;font-weight:normal;font-stretch:normal;line-height:0%;font-family:'DejaVu Sans';-inkscape-font-specification:'DejaVu Sans';display:inline;fill:#000000;fill-opacity:1;stroke:none;enable-background:new"
       inkscape:label="context"
       id="context"><tspan
         style="font-style:normal;font-variant:normal;font-weight:normal;font-stretch:normal;font-size:18px;line-height:1.25;font-family:'DejaVu Sans';-inkscape-font-specification:'DejaVu Sans'"
         y="733.32251"
         x="15.006836"
         sodipodi:role="line"
         id="tspan3933">apps</tspan></text>
    <text
       y="733.32251"
       xml:space="preserve"
       x="142.48828"
       style="font-style:normal;font-variant:normal;font-weight:bold;font-stretch:normal;line-height:0%;font-family:'DejaVu Sans';-inkscape-font-specification:'DejaVu Sans Bold';text-align:start;writing-mode:lr-tb;text-anchor:start;display:inline;fill:#000000;fill-opacity:1;stroke:none;enable-background:new"
       inkscape:label="icon-name"
       id="icon-name"><tspan
         style="font-style:normal;font-variant:normal;font-weight:bold;font-stretch:normal;font-size:18px;line-height:1.25;font-family:'DejaVu Sans';-inkscape-font-specification:'DejaVu Sans Bold'"
         y="733.32251"
         x="142.48828"
         sodipodi:role="line"
         id="tspan3937">emacs</tspan></text>
    <rect
       style="display:inline;overflow:visible;visibility:visible;fill:#fefefe;fill-opacity:1;fill-rule:nonzero;stroke:none;stroke-width:2;marker:none;enable-background:accumulate"
       id="rect16x16"
       width="16"
       height="16"
       x="-32"
       y="665.06665"
       inkscape:label="16x16"
       transform="scale(-1,1)" />
    <rect
       style="display:inline;overflow:visible;visibility:visible;fill:#fefefe;fill-opacity:1;fill-rule:nonzero;stroke:none;stroke-width:2;marker:none;enable-background:accumulate"
       id="rect24x24"
       width="24"
       height="24"
       x="-76"
       y="657.06665"
       inkscape:label="24x24"
       transform="scale(-1,1)" />
    <rect
       style="display:inline;overflow:visible;visibility:visible;fill:#fefefe;fill-opacity:1;fill-rule:nonzero;stroke:none;stroke-width:2;marker:none;enable-background:accumulate"
       id="rect32x32"
       width="32"
       height="32"
       x="-128"
       y="649.06665"
       inkscape:label="32x32"
       transform="scale(-1,1)" />
    <rect
       inkscape:label="48x48"
       y="633.06665"
       x="-192"
       height="48"
       width="48"
       id="rect48x48"
       style="display:inline;overflow:visible;visibility:visible;fill:#fefefe;fill-opacity:1;fill-rule:nonzero;stroke:none;stroke-width:2;marker:none;enable-background:accumulate"
       transform="scale(-1,1)" />
    <rect
       transform="scale(-1,1)"
       inkscape:label="48x48"
       y="617.06665"
       x="-272"
       height="64"
       width="64"
       id="rect4524"
       style="display:inline;overflow:visible;visibility:visible;fill:#fefefe;fill-opacity:1;fill-rule:nonzero;stroke:none;stroke-width:0.25;marker:none;enable-background:accumulate" />
  </g>
  <g
     inkscape:groupmode="layer"
     id="layer2"
     inkscape:label="Bitmap"
     style="display:inline">
    <path
       sodipodi:nodetypes="sscsscsscsscs"
       inkscape:connector-curvature="0"
       id="path5069"
       d="m 143,485 c -1.66505,0 -3,1.2912 -3,3 v 17 17 c 0,1.8617 1.34224,3 3,3 h 17 17 c 1.73784,0 3,-1.2767 3,-3 v -17 -17 c 0,-1.6942 -1.29127,-3 -3,-3 h -17 z"
       style="display:inline;fill:none;fill-opacity:0.5;stroke:none;stroke-width:2;stroke-linecap:round;stroke-linejoin:round;stroke-miterlimit:4;stroke-dasharray:none;stroke-opacity:1;filter:url(#filter5087);enable-background:new" />
    <path
       style="display:inline;fill:none;fill-opacity:0.5;stroke:none;stroke-width:2;stroke-linecap:round;stroke-linejoin:round;stroke-miterlimit:4;stroke-dasharray:none;stroke-opacity:1;filter:url(#filter5087);enable-background:new"
       d="m 143,485 c -1.66505,0 -3,1.2912 -3,3 v 17 17 c 0,1.8617 1.34224,3 3,3 h 17 17 c 1.73784,0 3,-1.2767 3,-3 v -17 -17 c 0,-1.6942 -1.29127,-3 -3,-3 h -17 z"
       id="path4506"
       inkscape:connector-curvature="0"
       sodipodi:nodetypes="sscsscsscsscs" />
    <circle
       r="8"
       cy="520"
       cx="24"
       id="circle4526"
       style="display:inline;opacity:1;fill:#7e57c2;fill-opacity:1;stroke:none;stroke-width:2;stroke-miterlimit:4;stroke-dasharray:none;stroke-opacity:1;enable-background:new" />
    <path
       style="display:inline;fill:#000000;fill-opacity:0.2;stroke:none;stroke-width:2;stroke-linecap:round;stroke-linejoin:round;stroke-miterlimit:4;stroke-dasharray:none;stroke-opacity:1;enable-background:new"
       d="m 63.99994,506.0001 a 10.999828,10.999992 0 0 0 -0.94531,0.047 10.999827,10.999992 0 0 0 -0.51842,0.063 10.999828,10.999992 0 0 0 -0.57167,0.087 10.999827,10.999992 0 0 0 -0.51095,0.1149 10.999828,10.999992 0 0 0 -0.55112,0.1401 10.999827,10.999992 0 0 0 -0.50815,0.1691 10.999828,10.999992 0 0 0 -0.53244,0.1943 10.999827,10.999992 0 0 0 -0.48759,0.2186 10.999828,10.999992 0 0 0 -0.50442,0.2438 10.999827,10.999992 0 0 0 -0.46985,0.269 10.999828,10.999992 0 0 0 -0.47732,0.2924 10.999827,10.999992 0 0 0 -0.43809,0.3138 10.999828,10.999992 0 0 0 -0.44651,0.34 10.999827,10.999992 0 0 0 -0.39418,0.3456 10.999828,10.999992 0 0 0 -0.42315,0.3941 A 10.999827,10.999992 0 0 0 53,517 a 10.999827,10.999992 0 0 0 3.0984,7.6522 h 0.0159 a 10.999828,10.999992 0 0 0 7.88566,3.3478 10.999828,10.999992 0 0 0 0.9341,-0.047 10.999827,10.999992 0 0 0 0.54085,-0.065 10.999828,10.999992 0 0 0 0.56045,-0.085 10.999827,10.999992 0 0 0 0.51095,-0.1148 10.999828,10.999992 0 0 0 0.55112,-0.1402 10.999827,10.999992 0 0 0 0.50815,-0.169 10.999828,10.999992 0 0 0 0.53244,-0.1944 10.999827,10.999992 0 0 0 0.4876,-0.2185 10.999828,10.999992 0 0 0 0.50441,-0.2438 10.999827,10.999992 0 0 0 0.46985,-0.2691 10.999828,10.999992 0 0 0 0.47733,-0.2923 10.999827,10.999992 0 0 0 0.43809,-0.3139 10.999828,10.999992 0 0 0 0.4465,-0.34 10.999827,10.999992 0 0 0 0.39419,-0.3456 10.999828,10.999992 0 0 0 0.42314,-0.3942 10.999827,10.999992 0 0 0 3.22078,-7.7667 10.999827,10.999992 0 0 0 -3.09934,-7.6522 h -0.0149 a 10.999828,10.999992 0 0 0 -7.88566,-3.3478 z"
       id="path4530"
       inkscape:connector-curvature="0" />
    <circle
       style="display:inline;opacity:1;fill:#7e57c2;fill-opacity:1;stroke:none;stroke-width:2;stroke-miterlimit:4;stroke-dasharray:none;stroke-opacity:1;enable-background:new"
       id="path4524"
       cx="64"
       cy="516"
       r="11" />
    <path
       inkscape:connector-curvature="0"
       id="path4534"
       d="m 168.00001,483.0002 a 21.99977,21.999992 0 0 0 -1.89063,0.095 21.999769,21.999992 0 0 0 -1.03685,0.1252 21.99977,21.999992 0 0 0 -1.14334,0.1737 21.999769,21.999992 0 0 0 -1.02191,0.2298 21.99977,21.999992 0 0 0 -1.10224,0.2803 21.999769,21.999992 0 0 0 -1.01631,0.3381 21.99977,21.999992 0 0 0 -1.06488,0.3886 21.999769,21.999992 0 0 0 -0.9752,0.4372 21.99977,21.999992 0 0 0 -1.00883,0.4876 21.999769,21.999992 0 0 0 -0.93971,0.538 21.99977,21.999992 0 0 0 -0.95465,0.5848 21.999769,21.999992 0 0 0 -0.87619,0.6277 21.99977,21.999992 0 0 0 -0.89301,0.68 21.999769,21.999992 0 0 0 -0.78838,0.6912 21.99977,21.999992 0 0 0 -0.84629,0.7881 21.999769,21.999992 0 0 0 -6.44157,15.5345 21.999769,21.999992 0 0 0 6.19684,15.3043 h 0.0318 a 21.99977,21.999992 0 0 0 15.77139,6.6957 21.99977,21.999992 0 0 0 1.86821,-0.094 21.999769,21.999992 0 0 0 1.08169,-0.1308 21.99977,21.999992 0 0 0 1.12092,-0.17 21.999769,21.999992 0 0 0 1.02191,-0.2297 21.99977,21.999992 0 0 0 1.10224,-0.2803 21.999769,21.999992 0 0 0 1.01631,-0.3381 21.99977,21.999992 0 0 0 1.06488,-0.3887 21.999769,21.999992 0 0 0 0.9752,-0.4371 21.99977,21.999992 0 0 0 1.00883,-0.4876 21.999769,21.999992 0 0 0 0.93971,-0.5381 21.99977,21.999992 0 0 0 0.95465,-0.5847 21.999769,21.999992 0 0 0 0.87619,-0.6277 21.99977,21.999992 0 0 0 0.893,-0.68 21.999769,21.999992 0 0 0 0.78839,-0.6912 21.99977,21.999992 0 0 0 0.84629,-0.7885 21.999769,21.999992 0 0 0 6.44158,-15.5333 21.999769,21.999992 0 0 0 -6.19871,-15.3044 h -0.0299 a 21.99977,21.999992 0 0 0 -15.7714,-6.6956 z"
       style="display:inline;fill:#000000;fill-opacity:0.2;stroke:none;stroke-width:2;stroke-linecap:round;stroke-linejoin:round;stroke-miterlimit:4;stroke-dasharray:none;stroke-opacity:1;enable-background:new;filter:url(#filter4542)" />
    <circle
       style="display:inline;opacity:1;fill:#7e57c2;fill-opacity:1;stroke:none;stroke-width:2;stroke-miterlimit:4;stroke-dasharray:none;stroke-opacity:1;enable-background:new"
       id="path4520"
       cx="168"
       cy="504"
       r="22" />
    <path
       style="display:inline;fill:#000000;fill-opacity:0.2;stroke:none;stroke-width:16;stroke-linecap:round;stroke-linejoin:round;stroke-miterlimit:4;stroke-dasharray:none;stroke-opacity:1;enable-background:new"
       d="m 543.99874,34.0032 a 239.9963,239.99966 0 0 0 -20.62496,1.024 239.99626,239.99966 0 0 0 -11.31104,1.376 239.9963,239.99966 0 0 0 -12.4728,1.8976 239.99626,239.99966 0 0 0 -11.148,2.5072 239.9963,239.99966 0 0 0 -12.0244,3.056 239.99626,239.99966 0 0 0 -11.08688,3.6896 239.9963,239.99966 0 0 0 -11.61688,4.24 239.99626,239.99966 0 0 0 -10.63832,4.7696 239.9963,239.99966 0 0 0 -11.00552,5.3184 239.99626,239.99966 0 0 0 -10.25128,5.8688 239.9963,239.99966 0 0 0 -10.41425,6.3808 239.99626,239.99966 0 0 0 -9.5584,6.8464 239.9963,239.99966 0 0 0 -9.74208,7.4176 239.99626,239.99966 0 0 0 -8.60024,7.5408 239.9963,239.99966 0 0 0 -9.23232,8.5984 A 239.99626,239.99966 0 0 0 304.00001,274 239.99626,239.99966 0 0 0 371.60145,440.9568 h 0.3472 A 239.9963,239.99966 0 0 0 543.99938,514 a 239.9963,239.99966 0 0 0 20.3804,-1.024 239.99626,239.99966 0 0 0 11.80048,-1.424 239.9963,239.99966 0 0 0 12.228,-1.8544 239.99626,239.99966 0 0 0 11.148,-2.5056 239.9963,239.99966 0 0 0 12.02432,-3.0592 239.99626,239.99966 0 0 0 11.08687,-3.6864 239.9963,239.99966 0 0 0 11.61696,-4.2416 239.99626,239.99966 0 0 0 10.63856,-4.768 239.9963,239.99966 0 0 0 11.00528,-5.3184 239.99626,239.99966 0 0 0 10.25121,-5.872 239.9963,239.99966 0 0 0 10.41456,-6.3776 239.99626,239.99966 0 0 0 9.55824,-6.848 239.9963,239.99966 0 0 0 9.74192,-7.4176 239.99626,239.99966 0 0 0 8.60048,-7.5408 239.9963,239.99966 0 0 0 9.23216,-8.6016 239.99626,239.99966 0 0 0 70.2716,-169.4544 239.99626,239.99966 0 0 0 -67.622,-166.9568 h -0.3248 A 239.9963,239.99966 0 0 0 544.00082,34.0064 Z"
       id="path4550"
       inkscape:connector-curvature="0" />
    <path
       inkscape:connector-curvature="0"
       id="path4554"
       d="m 543.99874,34.0032 a 239.9963,239.99966 0 0 0 -20.62496,1.024 239.99626,239.99966 0 0 0 -11.31104,1.376 239.9963,239.99966 0 0 0 -12.4728,1.8976 239.99626,239.99966 0 0 0 -11.148,2.5072 239.9963,239.99966 0 0 0 -12.0244,3.056 239.99626,239.99966 0 0 0 -11.08688,3.6896 239.9963,239.99966 0 0 0 -11.61688,4.24 239.99626,239.99966 0 0 0 -10.63832,4.7696 239.9963,239.99966 0 0 0 -11.00552,5.3184 239.99626,239.99966 0 0 0 -10.25128,5.8688 239.9963,239.99966 0 0 0 -10.41425,6.3808 239.99626,239.99966 0 0 0 -9.5584,6.8464 239.9963,239.99966 0 0 0 -9.74208,7.4176 239.99626,239.99966 0 0 0 -8.60024,7.5408 239.9963,239.99966 0 0 0 -9.23232,8.5984 A 239.99626,239.99966 0 0 0 304.00001,274 239.99626,239.99966 0 0 0 371.60145,440.9568 h 0.3472 A 239.9963,239.99966 0 0 0 543.99938,514 a 239.9963,239.99966 0 0 0 20.3804,-1.024 239.99626,239.99966 0 0 0 11.80048,-1.424 239.9963,239.99966 0 0 0 12.228,-1.8544 239.99626,239.99966 0 0 0 11.148,-2.5056 239.9963,239.99966 0 0 0 12.02432,-3.0592 239.99626,239.99966 0 0 0 11.08687,-3.6864 239.9963,239.99966 0 0 0 11.61696,-4.2416 239.99626,239.99966 0 0 0 10.63856,-4.768 239.9963,239.99966 0 0 0 11.00528,-5.3184 239.99626,239.99966 0 0 0 10.25121,-5.872 239.9963,239.99966 0 0 0 10.41456,-6.3776 239.99626,239.99966 0 0 0 9.55824,-6.848 239.9963,239.99966 0 0 0 9.74192,-7.4176 239.99626,239.99966 0 0 0 8.60048,-7.5408 239.9963,239.99966 0 0 0 9.23216,-8.6016 239.99626,239.99966 0 0 0 70.2716,-169.4544 239.99626,239.99966 0 0 0 -67.622,-166.9568 h -0.3248 A 239.9963,239.99966 0 0 0 544.00082,34.0064 Z"
       style="display:inline;fill:#000000;fill-opacity:0.2;stroke:none;stroke-width:16;stroke-linecap:round;stroke-linejoin:round;stroke-miterlimit:4;stroke-dasharray:none;stroke-opacity:1;enable-background:new;filter:url(#filter4606)" />
    <circle
       style="display:inline;opacity:1;fill:#7e57c2;fill-opacity:1;stroke:none;stroke-width:2;stroke-miterlimit:4;stroke-dasharray:none;stroke-opacity:1;enable-background:new"
       id="path4518"
       cx="544"
       cy="272"
       r="240" />
    <path
       inkscape:connector-curvature="0"
       id="path4532"
       d="m 111.99993,498.0002 a 14.999763,14.99998 0 0 0 -1.28906,0.064 14.999761,14.99998 0 0 0 -0.70694,0.086 14.999763,14.99998 0 0 0 -0.77955,0.1186 14.999761,14.99998 0 0 0 -0.69675,0.1567 14.999763,14.99998 0 0 0 -0.75153,0.191 14.999761,14.99998 0 0 0 -0.69293,0.2306 14.999763,14.99998 0 0 0 -0.72605,0.265 14.999761,14.99998 0 0 0 -0.6649,0.2981 14.999763,14.99998 0 0 0 -0.68784,0.3324 14.999761,14.99998 0 0 0 -0.64071,0.3668 14.999763,14.99998 0 0 0 -0.65089,0.3988 14.999761,14.99998 0 0 0 -0.5974,0.4279 14.999763,14.99998 0 0 0 -0.60887,0.4636 14.999761,14.99998 0 0 0 -0.53752,0.4713 14.999763,14.99998 0 0 0 -0.57702,0.5374 A 14.999761,14.99998 0 0 0 97,513 a 14.999761,14.99998 0 0 0 4.2251,10.4348 h 0.0217 a 14.999763,14.99998 0 0 0 10.75317,4.5652 14.999763,14.99998 0 0 0 1.27377,-0.064 14.999761,14.99998 0 0 0 0.73753,-0.089 14.999763,14.99998 0 0 0 0.76425,-0.1159 14.999761,14.99998 0 0 0 0.69675,-0.1566 14.999763,14.99998 0 0 0 0.75152,-0.1912 14.999761,14.99998 0 0 0 0.69293,-0.2304 14.999763,14.99998 0 0 0 0.72606,-0.2651 14.999761,14.99998 0 0 0 0.66491,-0.298 14.999763,14.99998 0 0 0 0.68783,-0.3324 14.999761,14.99998 0 0 0 0.6407,-0.367 14.999763,14.99998 0 0 0 0.65091,-0.3986 14.999761,14.99998 0 0 0 0.59739,-0.428 14.999763,14.99998 0 0 0 0.60887,-0.4636 14.999761,14.99998 0 0 0 0.53753,-0.4713 14.999763,14.99998 0 0 0 0.57701,-0.5376 14.999761,14.99998 0 0 0 4.39197,-10.5909 14.999761,14.99998 0 0 0 -4.22637,-10.4348 h -0.0203 a 14.999763,14.99998 0 0 0 -10.75317,-4.5652 z"
       style="display:inline;fill:#000000;fill-opacity:0.2;stroke:none;stroke-width:2;stroke-linecap:round;stroke-linejoin:round;stroke-miterlimit:4;stroke-dasharray:none;stroke-opacity:1;enable-background:new" />
    <circle
       style="display:inline;opacity:1;fill:#7e57c2;fill-opacity:1;stroke:none;stroke-width:2;stroke-miterlimit:4;stroke-dasharray:none;stroke-opacity:1;enable-background:new"
       id="path4522"
       cx="112"
       cy="512"
       r="15" />
    <path
       id="path4507"
       d="M 783.95898,273.17 A 240,240 0 0 0 544,33.99812 240,240 0 0 0 304.04102,272.82624 240,240 0 0 1 304,271.99812 a 240,240 0 0 1 240,-240 240,240 0 0 1 240,240 240,240 0 0 1 -0.041,1.17188 z"
       style="display:inline;opacity:1;fill:#ffffff;fill-opacity:0.2;stroke:none;stroke-width:2;stroke-miterlimit:4;stroke-dasharray:none;stroke-opacity:1;enable-background:new"
       inkscape:connector-curvature="0" />
    <path
       id="path4514"
       d="M 189.97852,504.588 A 22,22 0 0 0 168,483.00206 22,22 0 0 0 146.02148,504.41612 22,22 0 0 1 146,504.00206 a 22,22 0 0 1 22,-22 22,22 0 0 1 22,22 22,22 0 0 1 -0.0215,0.58594 z"
       style="display:inline;opacity:1;fill:#ffffff;fill-opacity:0.2;stroke:none;stroke-width:2;stroke-miterlimit:4;stroke-dasharray:none;stroke-opacity:1;enable-background:new"
       inkscape:connector-curvature="0" />
    <path
       style="display:inline;opacity:1;fill:#ffffff;fill-opacity:0.2;stroke:none;stroke-width:2;stroke-miterlimit:4;stroke-dasharray:none;stroke-opacity:1;enable-background:new"
       d="m 112,497 a 15,15 0 0 0 -15,15 15,15 0 0 0 0.01953,0.58594 A 15,15 0 0 1 112,498 15,15 0 0 1 126.98047,512.41406 15,15 0 0 0 127,512 15,15 0 0 0 112,497 Z"
       id="circle4521"
       inkscape:connector-curvature="0" />
    <path
       style="display:inline;opacity:1;fill:#ffffff;fill-opacity:0.2;stroke:none;stroke-width:2;stroke-miterlimit:4;stroke-dasharray:none;stroke-opacity:1;enable-background:new"
       d="m 64,505 a 11,11 0 0 0 -11,11 11,11 0 0 0 0.02148,0.58594 A 11,11 0 0 1 64,506 11,11 0 0 1 74.978516,516.41406 11,11 0 0 0 75,516 11,11 0 0 0 64,505 Z"
       id="circle4527"
       inkscape:connector-curvature="0" />
    <path
       style="display:inline;fill:url(#linearGradient4171-1-0);fill-opacity:1;stroke:none;stroke-width:2;stroke-linecap:round;stroke-linejoin:round;stroke-miterlimit:4;stroke-dasharray:none;stroke-opacity:1;enable-background:new"
       d="m 168.00001,482.0003 a 21.99977,21.999992 0 0 0 -1.89063,0.095 21.999769,21.999992 0 0 0 -1.03685,0.1252 21.99977,21.999992 0 0 0 -1.14334,0.1737 21.999769,21.999992 0 0 0 -1.02191,0.2298 21.99977,21.999992 0 0 0 -1.10224,0.2803 21.999769,21.999992 0 0 0 -1.01631,0.3381 21.99977,21.999992 0 0 0 -1.06488,0.3886 21.999769,21.999992 0 0 0 -0.9752,0.4372 21.99977,21.999992 0 0 0 -1.00883,0.4876 21.999769,21.999992 0 0 0 -0.93971,0.538 21.99977,21.999992 0 0 0 -0.95465,0.5848 21.999769,21.999992 0 0 0 -0.87619,0.6277 21.99977,21.999992 0 0 0 -0.89301,0.68 21.999769,21.999992 0 0 0 -0.78838,0.6912 21.99977,21.999992 0 0 0 -0.84629,0.7881 21.999769,21.999992 0 0 0 -6.44157,15.5345 21.999769,21.999992 0 0 0 6.19684,15.3043 h 0.0318 a 21.99977,21.999992 0 0 0 15.77139,6.6957 21.99977,21.999992 0 0 0 1.86821,-0.094 21.999769,21.999992 0 0 0 1.08169,-0.1308 21.99977,21.999992 0 0 0 1.12092,-0.17 21.999769,21.999992 0 0 0 1.02191,-0.2297 21.99977,21.999992 0 0 0 1.10224,-0.2803 21.999769,21.999992 0 0 0 1.01631,-0.3381 21.99977,21.999992 0 0 0 1.06488,-0.3887 21.999769,21.999992 0 0 0 0.9752,-0.4371 21.99977,21.999992 0 0 0 1.00883,-0.4876 21.999769,21.999992 0 0 0 0.93971,-0.5381 21.99977,21.999992 0 0 0 0.95465,-0.5847 21.999769,21.999992 0 0 0 0.87619,-0.6277 21.99977,21.999992 0 0 0 0.893,-0.68 21.999769,21.999992 0 0 0 0.78839,-0.6912 21.99977,21.999992 0 0 0 0.84629,-0.7885 21.999769,21.999992 0 0 0 6.44158,-15.5333 21.999769,21.999992 0 0 0 -6.19871,-15.3044 h -0.0299 a 21.99977,21.999992 0 0 0 -15.7714,-6.6956 z"
       id="circle4163-3-4"
       inkscape:connector-curvature="0" />
    <path
       style="display:inline;fill:url(#linearGradient4435);fill-opacity:1;stroke:none;stroke-width:2;stroke-linecap:round;stroke-linejoin:round;stroke-miterlimit:4;stroke-dasharray:none;stroke-opacity:1;enable-background:new"
       d="m 111.99987,496.9998 a 14.999763,14.99998 0 0 0 -1.28906,0.064 14.999761,14.99998 0 0 0 -0.70694,0.086 14.999763,14.99998 0 0 0 -0.77955,0.1186 14.999761,14.99998 0 0 0 -0.69675,0.1567 14.999763,14.99998 0 0 0 -0.75153,0.191 14.999761,14.99998 0 0 0 -0.69293,0.2306 14.999763,14.99998 0 0 0 -0.72605,0.265 14.999761,14.99998 0 0 0 -0.6649,0.2981 14.999763,14.99998 0 0 0 -0.68784,0.3324 14.999761,14.99998 0 0 0 -0.64071,0.3668 14.999763,14.99998 0 0 0 -0.65089,0.3988 14.999761,14.99998 0 0 0 -0.5974,0.4279 14.999763,14.99998 0 0 0 -0.60887,0.4636 14.999761,14.99998 0 0 0 -0.53752,0.4713 14.999763,14.99998 0 0 0 -0.57702,0.5374 14.999761,14.99998 0 0 0 -4.39197,10.5916 14.999761,14.99998 0 0 0 4.2251,10.4348 h 0.0217 a 14.999763,14.99998 0 0 0 10.75317,4.5652 14.999763,14.99998 0 0 0 1.27377,-0.064 14.999761,14.99998 0 0 0 0.73753,-0.089 14.999763,14.99998 0 0 0 0.76425,-0.1159 14.999761,14.99998 0 0 0 0.69675,-0.1566 14.999763,14.99998 0 0 0 0.75152,-0.1912 14.999761,14.99998 0 0 0 0.69293,-0.2304 14.999763,14.99998 0 0 0 0.72606,-0.2651 14.999761,14.99998 0 0 0 0.66491,-0.298 14.999763,14.99998 0 0 0 0.68783,-0.3324 14.999761,14.99998 0 0 0 0.6407,-0.367 14.999763,14.99998 0 0 0 0.65091,-0.3986 14.999761,14.99998 0 0 0 0.59739,-0.428 14.999763,14.99998 0 0 0 0.60887,-0.4636 14.999761,14.99998 0 0 0 0.53753,-0.4713 14.999763,14.99998 0 0 0 0.57701,-0.5376 14.999761,14.99998 0 0 0 4.39197,-10.5909 14.999761,14.99998 0 0 0 -4.22637,-10.4348 h -0.0203 A 14.999763,14.99998 0 0 0 112,497 Z"
       id="path4433"
       inkscape:connector-curvature="0" />
    <path
       inkscape:connector-curvature="0"
       id="path4447"
       d="m 543.99874,32.00258 a 239.9963,239.99966 0 0 0 -20.62496,1.024 239.99626,239.99966 0 0 0 -11.31104,1.376 239.9963,239.99966 0 0 0 -12.4728,1.8976 239.99626,239.99966 0 0 0 -11.148,2.5072 239.9963,239.99966 0 0 0 -12.0244,3.056 239.99626,239.99966 0 0 0 -11.08688,3.6896 239.9963,239.99966 0 0 0 -11.61688,4.24 239.99626,239.99966 0 0 0 -10.63832,4.7696 239.9963,239.99966 0 0 0 -11.00552,5.3184 239.99626,239.99966 0 0 0 -10.25128,5.8688 239.9963,239.99966 0 0 0 -10.41425,6.3808 239.99626,239.99966 0 0 0 -9.5584,6.8464 239.9963,239.99966 0 0 0 -9.74208,7.4176 239.99626,239.99966 0 0 0 -8.60024,7.5408 239.9963,239.99966 0 0 0 -9.23232,8.5984 239.99626,239.99966 0 0 0 -70.27136,169.4656 239.99626,239.99966 0 0 0 67.60144,166.9568 h 0.3472 a 239.9963,239.99966 0 0 0 172.05073,73.0432 239.9963,239.99966 0 0 0 20.3804,-1.024 239.99626,239.99966 0 0 0 11.80048,-1.424 239.9963,239.99966 0 0 0 12.228,-1.8544 239.99626,239.99966 0 0 0 11.148,-2.5056 239.9963,239.99966 0 0 0 12.02432,-3.0592 239.99626,239.99966 0 0 0 11.08687,-3.6864 239.9963,239.99966 0 0 0 11.61696,-4.2416 239.99626,239.99966 0 0 0 10.63856,-4.768 239.9963,239.99966 0 0 0 11.00528,-5.3184 239.99626,239.99966 0 0 0 10.25121,-5.872 239.9963,239.99966 0 0 0 10.41456,-6.3776 239.99626,239.99966 0 0 0 9.55824,-6.848 239.9963,239.99966 0 0 0 9.74192,-7.4176 239.99626,239.99966 0 0 0 8.60048,-7.5408 239.9963,239.99966 0 0 0 9.23216,-8.6016 239.99626,239.99966 0 0 0 70.2716,-169.4544 239.99626,239.99966 0 0 0 -67.622,-166.9568 h -0.3248 a 239.9963,239.99966 0 0 0 -172.0508,-73.0432 z"
       style="display:inline;fill:url(#linearGradient4449-0);fill-opacity:1;stroke:none;stroke-width:16;stroke-linecap:round;stroke-linejoin:round;stroke-miterlimit:4;stroke-dasharray:none;stroke-opacity:1;enable-background:new" />
    <path
       inkscape:connector-curvature="0"
       id="path4546"
       d="m 239.99984,467.0004 a 29.999537,29.999957 0 0 0 -2.57812,0.128 29.999532,29.999957 0 0 0 -1.41388,0.172 29.999537,29.999957 0 0 0 -1.5591,0.2372 29.999532,29.999957 0 0 0 -1.3935,0.3134 29.999537,29.999957 0 0 0 -1.50305,0.382 29.999532,29.999957 0 0 0 -1.38586,0.4612 29.999537,29.999957 0 0 0 -1.45211,0.53 29.999532,29.999957 0 0 0 -1.32979,0.5962 29.999537,29.999957 0 0 0 -1.37569,0.6648 29.999532,29.999957 0 0 0 -1.28141,0.7336 29.999537,29.999957 0 0 0 -1.30178,0.7976 29.999532,29.999957 0 0 0 -1.1948,0.8558 29.999537,29.999957 0 0 0 -1.21776,0.9272 29.999532,29.999957 0 0 0 -1.07503,0.9426 29.999537,29.999957 0 0 0 -1.15404,1.0748 A 29.999532,29.999957 0 0 0 210,497 a 29.999532,29.999957 0 0 0 8.45018,20.8696 h 0.0434 a 29.999537,29.999957 0 0 0 21.50634,9.1304 29.999537,29.999957 0 0 0 2.54755,-0.128 29.999532,29.999957 0 0 0 1.47506,-0.178 29.999537,29.999957 0 0 0 1.5285,-0.2318 29.999532,29.999957 0 0 0 1.3935,-0.3132 29.999537,29.999957 0 0 0 1.50304,-0.3824 29.999532,29.999957 0 0 0 1.38586,-0.4608 29.999537,29.999957 0 0 0 1.45212,-0.5302 29.999532,29.999957 0 0 0 1.32982,-0.596 29.999537,29.999957 0 0 0 1.37566,-0.6648 29.999532,29.999957 0 0 0 1.2814,-0.734 29.999537,29.999957 0 0 0 1.30182,-0.7972 29.999532,29.999957 0 0 0 1.19478,-0.856 29.999537,29.999957 0 0 0 1.21774,-0.9272 29.999532,29.999957 0 0 0 1.07506,-0.9426 29.999537,29.999957 0 0 0 1.15402,-1.0752 29.999532,29.999957 0 0 0 8.78395,-21.1818 29.999532,29.999957 0 0 0 -8.45275,-20.8696 h -0.0406 a 29.999537,29.999957 0 0 0 -21.50635,-9.1304 z"
       style="display:inline;fill:#000000;fill-opacity:0.2;stroke:none;stroke-width:2;stroke-linecap:round;stroke-linejoin:round;stroke-miterlimit:4;stroke-dasharray:none;stroke-opacity:1;enable-background:new;filter:url(#filter4541)" />
    <circle
       cy="496"
       cx="240"
       id="circle4528"
       style="display:inline;opacity:1;fill:#7e57c2;fill-opacity:1;stroke:none;stroke-width:0.25;stroke-miterlimit:4;stroke-dasharray:none;stroke-opacity:1;enable-background:new"
       r="30" />
    <path
       style="display:inline;opacity:1;fill:#ffffff;fill-opacity:0.2;stroke:none;stroke-width:0.25;stroke-miterlimit:4;stroke-dasharray:none;stroke-opacity:1;enable-background:new"
       d="m 240,466 a 30,30 0 0 0 -30,30 30,30 0 0 0 0.0215,0.58984 A 30,30 0 0 1 240,467 30,30 0 0 1 269.97852,496.41016 30,30 0 0 0 270,496 30,30 0 0 0 240,466 Z"
       id="circle4539"
       inkscape:connector-curvature="0" />
    <path
       style="display:inline;fill:url(#linearGradient4537);fill-opacity:1;stroke:none;stroke-width:2;stroke-linecap:round;stroke-linejoin:round;stroke-miterlimit:4;stroke-dasharray:none;stroke-opacity:1;enable-background:new"
       d="m 239.99984,466.00032 a 29.999537,29.999957 0 0 0 -2.57812,0.128 29.999532,29.999957 0 0 0 -1.41388,0.172 29.999537,29.999957 0 0 0 -1.5591,0.2372 29.999532,29.999957 0 0 0 -1.3935,0.3134 29.999537,29.999957 0 0 0 -1.50305,0.382 29.999532,29.999957 0 0 0 -1.38586,0.4612 29.999537,29.999957 0 0 0 -1.45211,0.53 29.999532,29.999957 0 0 0 -1.32979,0.5962 29.999537,29.999957 0 0 0 -1.37569,0.6648 29.999532,29.999957 0 0 0 -1.28141,0.7336 29.999537,29.999957 0 0 0 -1.30178,0.7976 29.999532,29.999957 0 0 0 -1.1948,0.8558 29.999537,29.999957 0 0 0 -1.21776,0.9272 29.999532,29.999957 0 0 0 -1.07503,0.9426 29.999537,29.999957 0 0 0 -1.15404,1.0748 29.999532,29.999957 0 0 0 -8.78392,21.1832 29.999532,29.999957 0 0 0 8.45018,20.8696 h 0.0434 a 29.999537,29.999957 0 0 0 21.50634,9.1304 29.999537,29.999957 0 0 0 2.54755,-0.128 29.999532,29.999957 0 0 0 1.47506,-0.178 29.999537,29.999957 0 0 0 1.5285,-0.2318 29.999532,29.999957 0 0 0 1.3935,-0.3132 29.999537,29.999957 0 0 0 1.50304,-0.3824 29.999532,29.999957 0 0 0 1.38586,-0.4608 29.999537,29.999957 0 0 0 1.45212,-0.5302 29.999532,29.999957 0 0 0 1.32982,-0.596 29.999537,29.999957 0 0 0 1.37566,-0.6648 29.999532,29.999957 0 0 0 1.2814,-0.734 29.999537,29.999957 0 0 0 1.30182,-0.7972 29.999532,29.999957 0 0 0 1.19478,-0.856 29.999537,29.999957 0 0 0 1.21774,-0.9272 29.999532,29.999957 0 0 0 1.07506,-0.9426 29.999537,29.999957 0 0 0 1.15402,-1.0752 29.999532,29.999957 0 0 0 8.78395,-21.1818 29.999532,29.999957 0 0 0 -8.45275,-20.8696 h -0.0406 a 29.999537,29.999957 0 0 0 -21.50635,-9.1304 z"
       id="path4535"
       inkscape:connector-curvature="0" />
    <path
       inkscape:connector-curvature="0"
       id="path4618"
       d="m 63.999985,505 a 10.999863,11.000059 0 0 0 -0.945313,0.0469 10.999861,11.000059 0 0 0 -0.518425,0.0631 10.999863,11.000059 0 0 0 -0.571672,0.087 10.999861,11.000059 0 0 0 -0.510951,0.11492 10.999863,11.000059 0 0 0 -0.551124,0.14007 10.999861,11.000059 0 0 0 -0.508151,0.1691 10.999863,11.000059 0 0 0 -0.532438,0.19434 10.999861,11.000059 0 0 0 -0.487595,0.21861 10.999863,11.000059 0 0 0 -0.504418,0.24376 10.999861,11.000059 0 0 0 -0.469855,0.26899 10.999863,11.000059 0 0 0 -0.477321,0.29245 10.999861,11.000059 0 0 0 -0.438095,0.3138 10.999863,11.000059 0 0 0 -0.446506,0.33997 10.999861,11.000059 0 0 0 -0.394183,0.34563 10.999863,11.000059 0 0 0 -0.423149,0.39409 10.999861,11.000059 0 0 0 -3.220789,7.7672 10.999861,11.000059 0 0 0 3.098417,7.65223 h 0.01591 A 10.999863,11.000059 0 0 0 64.000012,527 a 10.999863,11.000059 0 0 0 0.934101,-0.0469 10.999861,11.000059 0 0 0 0.540857,-0.0653 10.999863,11.000059 0 0 0 0.560452,-0.085 10.999861,11.000059 0 0 0 0.510951,-0.11485 10.999863,11.000059 0 0 0 0.551117,-0.14021 10.999861,11.000059 0 0 0 0.50815,-0.16896 10.999863,11.000059 0 0 0 0.532446,-0.19441 10.999861,11.000059 0 0 0 0.487602,-0.21853 10.999863,11.000059 0 0 0 0.504411,-0.24377 10.999861,11.000059 0 0 0 0.469848,-0.26913 10.999863,11.000059 0 0 0 0.477336,-0.29231 10.999861,11.000059 0 0 0 0.438087,-0.31387 10.999863,11.000059 0 0 0 0.446506,-0.33997 10.999861,11.000059 0 0 0 0.39419,-0.34563 10.999863,11.000059 0 0 0 0.423142,-0.39424 A 10.999861,11.000059 0 0 0 75,516.00022 10.999861,11.000059 0 0 0 71.900652,508.34798 h -0.01489 a 10.999863,11.000059 0 0 0 -7.885684,-3.34783 z"
       style="display:inline;fill:url(#linearGradient4620);fill-opacity:1;stroke:none;stroke-width:1.46667397;stroke-linecap:round;stroke-linejoin:round;stroke-miterlimit:4;stroke-dasharray:none;stroke-opacity:1;enable-background:new" />
    <path
       inkscape:connector-curvature="0"
       d="m 160.71588,515.92345 c 0,0 1.43077,0.4152 3.33517,0.6528 0.7716,0.096 3.7056,0.432 5.95549,0.4236 0,0 2.74009,0.003 4.25269,-0.2112 1.58269,-0.2244 2.47921,-0.5112 2.97829,-1.0848 0.012,-0.1368 0.2412,-0.582 -0.3744,-1.0104 -1.57272,-1.09681 -3.60601,-1.39753 -7.55534,-2.33545 -4.36717,-1.09801 -5.67229,-2.14945 -6.32437,-2.91037 -0.618,-0.762 0.12,-2.34637 3.63504,-3.12337 1.78177,-0.4332 8.41767,-0.5136 8.41767,-0.5136 -1.90381,-1.51153 -5.4779,-4.21766 -6.20858,-4.79306 -0.64081,-0.5052 -1.67329,-1.27932 -1.78429,-1.97148 -0.15,-0.67441 0.9108,-0.99841 1.47241,-1.03561 1.80924,-0.1248 4.27981,0.084 6.47582,0.5244 1.104,0.21961 1.29768,0.18721 1.29768,0.18721 1.57224,0.072 2.79505,-0.74881 2.73265,-2.48305 -0.012,-1.75933 -1.77157,-3.17005 -3.71833,-3.23161 -1.83337,-0.06 -6.35114,0.2616 -6.35114,0.2616 5.26561,1.086 6.12638,1.3626 6.40106,1.99644 0.162,0.37441 -0.2712,0.74641 -1.72189,0.67441 -1.57968,-0.084 -4.81645,-0.46201 -4.81645,-0.46201 -3.08197,-0.474 -5.22805,-0.9228 -6.16393,0.30001 -0.612,0.7992 0.084,1.7718 0.3624,2.34576 1.2228,2.13373 3.3372,3.59761 4.67904,4.62926 0.5052,0.3888 2.04637,1.24776 2.04637,1.24776 -4.79137,-1.31016 -8.60954,-0.5736 -11.03019,0.6984 -2.78256,1.64701 -2.30652,4.42646 2.10865,7.02483 2.60785,1.5348 3.90625,2.27208 8.1761,2.79624 2.49576,0.39841 2.86765,0.56041 2.84869,0.76921 -0.024,0.2928 -2.95393,0.4032 -3.75854,0.4584 -2.04696,0.1416 -7.34077,0.1764 -7.36729,0.1764 z"
       id="path4736"
       style="display:inline;fill:#000000;fill-opacity:0.2;stroke:none;enable-background:new;filter:url(#filter4743)" />
    <path
       style="display:inline;fill:#f5f5f5;fill-opacity:1;stroke:none;enable-background:new"
       id="path4646"
       d="m 160.71588,514.92345 c 0,0 1.43077,0.4152 3.33517,0.6528 0.7716,0.096 3.7056,0.432 5.95549,0.4236 0,0 2.74009,0.003 4.25269,-0.2112 1.58269,-0.2244 2.47921,-0.5112 2.97829,-1.0848 0.012,-0.1368 0.2412,-0.582 -0.3744,-1.0104 -1.57272,-1.09681 -3.60601,-1.39753 -7.55534,-2.33545 -4.36717,-1.09801 -5.67229,-2.14945 -6.32437,-2.91037 -0.618,-0.762 0.12,-2.34637 3.63504,-3.12337 1.78177,-0.4332 8.41767,-0.5136 8.41767,-0.5136 -1.90381,-1.51153 -5.4779,-4.21766 -6.20858,-4.79306 -0.64081,-0.5052 -1.67329,-1.27932 -1.78429,-1.97148 -0.15,-0.67441 0.9108,-0.99841 1.47241,-1.03561 1.80924,-0.1248 4.27981,0.084 6.47582,0.5244 1.104,0.21961 1.29768,0.18721 1.29768,0.18721 1.57224,0.072 2.79505,-0.74881 2.73265,-2.48305 -0.012,-1.75933 -1.77157,-3.17005 -3.71833,-3.23161 -1.83337,-0.06 -6.35114,0.2616 -6.35114,0.2616 5.26561,1.086 6.12638,1.3626 6.40106,1.99644 0.162,0.37441 -0.2712,0.74641 -1.72189,0.67441 -1.57968,-0.084 -4.81645,-0.46201 -4.81645,-0.46201 -3.08197,-0.474 -5.22805,-0.9228 -6.16393,0.30001 -0.612,0.7992 0.084,1.7718 0.3624,2.34576 1.2228,2.13373 3.3372,3.59761 4.67904,4.62926 0.5052,0.3888 2.04637,1.24776 2.04637,1.24776 -4.79137,-1.31016 -8.60954,-0.5736 -11.03019,0.6984 -2.78256,1.64701 -2.30652,4.42646 2.10865,7.02483 2.60785,1.5348 3.90625,2.27208 8.1761,2.79624 2.49576,0.39841 2.86765,0.56041 2.84869,0.76921 -0.024,0.2928 -2.95393,0.4032 -3.75854,0.4584 -2.04696,0.1416 -7.34077,0.1764 -7.36729,0.1764 z"
       inkscape:connector-curvature="0" />
    <path
       style="display:inline;fill:#000000;fill-opacity:0.2;stroke:none;enable-background:new"
       id="path4751"
       d="m 106.53702,521.19258 c 0,0 1.07308,0.3114 2.50138,0.4896 0.57871,0.072 2.77921,0.324 4.46662,0.3177 0,0 2.05507,0.002 3.18952,-0.1584 1.18701,-0.1683 1.8594,-0.3834 2.23371,-0.8136 0.009,-0.1026 0.1809,-0.4365 -0.2808,-0.7578 -1.17954,-0.8226 -2.7045,-1.04814 -5.6665,-1.75158 -3.27537,-0.82351 -4.25422,-1.6121 -4.74328,-2.18279 -0.4635,-0.5715 0.09,-1.75978 2.72629,-2.34253 1.33632,-0.3249 6.31324,-0.3852 6.31324,-0.3852 -1.42785,-1.13364 -4.10842,-3.16324 -4.65643,-3.59479 -0.4806,-0.3789 -1.25496,-0.95949 -1.33821,-1.47861 -0.1125,-0.50581 0.6831,-0.74881 1.1043,-0.77671 1.35693,-0.0936 3.20986,0.063 4.85686,0.3933 0.828,0.16471 0.97326,0.14041 0.97326,0.14041 1.17918,0.054 2.09629,-0.56161 2.04949,-1.86229 -0.009,-1.31949 -1.32868,-2.37753 -2.78875,-2.4237 -1.37502,-0.045 -4.76335,0.1962 -4.76335,0.1962 3.94921,0.8145 4.59478,1.02195 4.80079,1.49733 0.1215,0.2808 -0.2034,0.5598 -1.29141,0.5058 -1.18476,-0.063 -3.61234,-0.3465 -3.61234,-0.3465 -2.31147,-0.3555 -3.92104,-0.6921 -4.62295,0.225 -0.459,0.5994 0.063,1.32885 0.2718,1.75932 0.9171,1.6003 2.50291,2.69821 3.50929,3.47195 0.3789,0.2916 1.53477,0.93582 1.53477,0.93582 -3.59352,-0.98262 -6.45716,-0.4302 -8.27265,0.5238 -2.08692,1.23525 -1.72989,3.31984 1.58149,5.26863 1.95589,1.1511 2.92969,1.70406 6.13208,2.09718 1.87182,0.2988 2.15074,0.4203 2.13652,0.5769 -0.018,0.2196 -2.21545,0.3024 -2.8189,0.3438 -1.53522,0.1062 -5.50559,0.1323 -5.52548,0.1323 z"
       inkscape:connector-curvature="0" />
    <path
       inkscape:connector-curvature="0"
       d="m 106.53702,520.19258 c 0,0 1.07308,0.3114 2.50138,0.4896 0.57871,0.072 2.77921,0.324 4.46662,0.3177 0,0 2.05507,0.002 3.18952,-0.1584 1.18701,-0.1683 1.8594,-0.3834 2.23371,-0.8136 0.009,-0.1026 0.1809,-0.4365 -0.2808,-0.7578 -1.17954,-0.8226 -2.7045,-1.04814 -5.6665,-1.75158 -3.27537,-0.82351 -4.25422,-1.6121 -4.74328,-2.18279 -0.4635,-0.5715 0.09,-1.75978 2.72629,-2.34253 1.33632,-0.3249 6.31324,-0.3852 6.31324,-0.3852 -1.42785,-1.13364 -4.10842,-3.16324 -4.65643,-3.59479 -0.4806,-0.3789 -1.25496,-0.95949 -1.33821,-1.47861 -0.1125,-0.50581 0.6831,-0.74881 1.1043,-0.77671 1.35693,-0.0936 3.20986,0.063 4.85686,0.3933 0.828,0.16471 0.97326,0.14041 0.97326,0.14041 1.17918,0.054 2.09629,-0.56161 2.04949,-1.86229 -0.009,-1.31949 -1.32868,-2.37753 -2.78875,-2.4237 -1.37502,-0.045 -4.76335,0.1962 -4.76335,0.1962 3.94921,0.8145 4.59478,1.02195 4.80079,1.49733 0.1215,0.2808 -0.2034,0.5598 -1.29141,0.5058 -1.18476,-0.063 -3.61234,-0.3465 -3.61234,-0.3465 -2.31147,-0.3555 -3.92104,-0.6921 -4.62295,0.225 -0.459,0.5994 0.063,1.32885 0.2718,1.75932 0.9171,1.6003 2.50291,2.69821 3.50929,3.47195 0.3789,0.2916 1.53477,0.93582 1.53477,0.93582 -3.59352,-0.98262 -6.45716,-0.4302 -8.27265,0.5238 -2.08692,1.23525 -1.72989,3.31984 1.58149,5.26863 1.95589,1.1511 2.92969,1.70406 6.13208,2.09718 1.87182,0.2988 2.15074,0.4203 2.13652,0.5769 -0.018,0.2196 -2.21545,0.3024 -2.8189,0.3438 -1.53522,0.1062 -5.50559,0.1323 -5.52548,0.1323 z"
       id="path4663"
       style="display:inline;fill:#f5f5f5;fill-opacity:1;stroke:none;enable-background:new" />
    <path
       inkscape:connector-curvature="0"
       d="m 59.751044,523.87201 c 0,0 0.834622,0.2422 1.945522,0.3808 0.450112,0.056 2.161612,0.252 3.474042,0.2471 0,0 1.598381,10e-4 2.480731,-0.1232 0.92323,-0.1309 1.4462,-0.2982 1.73733,-0.6328 0.007,-0.0798 0.1407,-0.3395 -0.2184,-0.5894 -0.91742,-0.6398 -2.1035,-0.81522 -4.407271,-1.36234 -2.54751,-0.64052 -3.308842,-1.25386 -3.689222,-1.69773 -0.3605,-0.4445 0.07,-1.36872 2.120452,-1.82197 1.03936,-0.2527 4.910291,-0.2996 4.910291,-0.2996 -1.11055,-0.88172 -3.195431,-2.4603 -3.621661,-2.79595 -0.3738,-0.2947 -0.97608,-0.74627 -1.04083,-1.15003 -0.0875,-0.3934 0.5313,-0.5824 0.8589,-0.6041 1.05539,-0.0728 2.496551,0.049 3.777551,0.3059 0.644,0.1281 0.75698,0.1092 0.75698,0.1092 0.91714,0.042 1.630452,-0.4368 1.594052,-1.44844 -0.007,-1.02627 -1.033422,-1.84919 -2.169032,-1.8851 -1.06946,-0.035 -3.704821,0.1526 -3.704821,0.1526 3.071601,0.6335 3.573711,0.79485 3.733941,1.16459 0.0945,0.2184 -0.1582,0.4354 -1.00443,0.3934 -0.921481,-0.049 -2.809591,-0.2695 -2.809591,-0.2695 -1.79781,-0.2765 -3.049702,-0.5383 -3.595632,0.175 -0.357,0.4662 0.049,1.03355 0.2114,1.36836 0.7133,1.24467 1.946712,2.0986 2.729452,2.7004 0.2947,0.2268 1.19371,0.72786 1.19371,0.72786 -2.79496,-0.76426 -5.022244,-0.3346 -6.434284,0.4074 -1.623161,0.96075 -1.345471,2.5821 1.23004,4.09783 1.521252,0.8953 2.278652,1.32538 4.769404,1.63114 1.45586,0.2324 1.67279,0.3269 1.66173,0.4487 -0.014,0.1708 -1.72312,0.2352 -2.19247,0.2674 -1.19406,0.0826 -4.282134,0.1029 -4.297604,0.1029 z"
       id="path4758"
       style="display:inline;fill:#000000;fill-opacity:0.2;stroke:none;enable-background:new" />
    <path
       style="display:inline;fill:#f5f5f5;fill-opacity:1;stroke:none;enable-background:new"
       id="path4665"
       d="m 59.751044,522.87201 c 0,0 0.834622,0.2422 1.945522,0.3808 0.450112,0.056 2.161612,0.252 3.474042,0.2471 0,0 1.598381,10e-4 2.480731,-0.1232 0.92323,-0.1309 1.4462,-0.2982 1.73733,-0.6328 0.007,-0.0798 0.1407,-0.3395 -0.2184,-0.5894 -0.91742,-0.6398 -2.1035,-0.81522 -4.407271,-1.36234 -2.54751,-0.64052 -3.308842,-1.25386 -3.689222,-1.69773 -0.3605,-0.4445 0.07,-1.36872 2.120452,-1.82197 1.03936,-0.2527 4.910291,-0.2996 4.910291,-0.2996 -1.11055,-0.88172 -3.195431,-2.4603 -3.621661,-2.79595 -0.3738,-0.2947 -0.97608,-0.74627 -1.04083,-1.15003 -0.0875,-0.3934 0.5313,-0.5824 0.8589,-0.6041 1.05539,-0.0728 2.496551,0.049 3.777551,0.3059 0.644,0.1281 0.75698,0.1092 0.75698,0.1092 0.91714,0.042 1.630452,-0.4368 1.594052,-1.44844 -0.007,-1.02627 -1.033422,-1.84919 -2.169032,-1.8851 -1.06946,-0.035 -3.704821,0.1526 -3.704821,0.1526 3.071601,0.6335 3.573711,0.79485 3.733941,1.16459 0.0945,0.2184 -0.1582,0.4354 -1.00443,0.3934 -0.921481,-0.049 -2.809591,-0.2695 -2.809591,-0.2695 -1.79781,-0.2765 -3.049702,-0.5383 -3.595632,0.175 -0.357,0.4662 0.049,1.03355 0.2114,1.36836 0.7133,1.24467 1.946712,2.0986 2.729452,2.7004 0.2947,0.2268 1.19371,0.72786 1.19371,0.72786 -2.79496,-0.76426 -5.022244,-0.3346 -6.434284,0.4074 -1.623161,0.96075 -1.345471,2.5821 1.23004,4.09783 1.521252,0.8953 2.278652,1.32538 4.769404,1.63114 1.45586,0.2324 1.67279,0.3269 1.66173,0.4487 -0.014,0.1708 -1.72312,0.2352 -2.19247,0.2674 -1.19406,0.0826 -4.282134,0.1029 -4.297604,0.1029 z"
       inkscape:connector-curvature="0" />
    <path
       inkscape:connector-curvature="0"
       d="m 20.965108,524.55144 c 0,0 0.596158,0.173 1.389658,0.272 0.321509,0.04 1.544009,0.18 2.48146,0.1765 0,0 1.1417,10e-4 1.77195,-0.088 0.65945,-0.0935 1.033,-0.213 1.24095,-0.452 0.005,-0.057 0.1005,-0.2425 -0.156,-0.421 -0.6553,-0.457 -1.5025,-0.5823 -3.148051,-0.9731 -1.81965,-0.45751 -2.363459,-0.89561 -2.635159,-1.21266 -0.2575,-0.3175 0.05,-0.97766 1.514609,-1.30141 0.7424,-0.1805 3.507351,-0.214 3.507351,-0.214 -0.79325,-0.6298 -2.28245,-1.75735 -2.586901,-1.99711 -0.267,-0.2105 -0.6972,-0.53305 -0.74345,-0.82145 -0.0625,-0.281 0.3795,-0.416 0.6135,-0.4315 0.753851,-0.052 1.783251,0.035 2.698251,0.2185 0.46,0.0915 0.5407,0.078 0.5407,0.078 0.655101,0.03 1.16461,-0.312 1.13861,-1.0346 -0.005,-0.73305 -0.73816,-1.32085 -1.54931,-1.3465 -0.7639,-0.025 -2.646301,0.109 -2.646301,0.109 2.194001,0.4525 2.552651,0.56775 2.667101,0.83185 0.0675,0.156 -0.113,0.311 -0.71745,0.281 -0.6582,-0.035 -2.006851,-0.1925 -2.006851,-0.1925 -1.28415,-0.1975 -2.178359,-0.3845 -2.568309,0.125 -0.255,0.333 0.035,0.73825 0.151,0.9774 0.5095,0.88905 1.390509,1.499 1.949609,1.92886 0.2105,0.162 0.852651,0.5199 0.852651,0.5199 -1.996401,-0.5459 -3.587318,-0.239 -4.595919,0.291 -1.1594,0.68625 -0.96105,1.84436 0.878601,2.92702 1.086608,0.6395 1.627608,0.9467 3.406717,1.1651 1.039901,0.166 1.194851,0.2335 1.186951,0.3205 -0.01,0.122 -1.230801,0.168 -1.566051,0.191 -0.8529,0.059 -3.058667,0.0735 -3.069717,0.0735 z"
       id="path4667"
       style="display:inline;fill:#f5f5f5;fill-opacity:1;stroke:none;enable-background:new" />
    <path
       inkscape:connector-curvature="0"
       d="m 229.07404,513.38517 c 0,0 2.14616,0.6228 5.00276,0.9792 1.15742,0.144 5.55842,0.648 8.93324,0.6354 0,0 4.11014,0.004 6.37904,-0.3168 2.37402,-0.3366 3.7188,-0.7668 4.46742,-1.6272 0.018,-0.2052 0.3618,-0.873 -0.5616,-1.5156 -2.35908,-1.6452 -5.409,-2.09628 -11.333,-3.50316 -6.55074,-1.64702 -8.50844,-3.2242 -9.48656,-4.36558 -0.927,-1.143 0.18,-3.51956 5.45258,-4.68506 2.67264,-0.6498 12.62648,-0.7704 12.62648,-0.7704 -2.8557,-2.26728 -8.21684,-6.32648 -9.31286,-7.18958 -0.9612,-0.7578 -2.50992,-1.91898 -2.67642,-2.95722 -0.225,-1.01162 1.3662,-1.49762 2.2086,-1.55342 2.71386,-0.1872 6.41972,0.126 9.71372,0.7866 1.656,0.32942 1.94652,0.28082 1.94652,0.28082 2.35836,0.108 4.19258,-1.12322 4.09898,-3.72458 -0.018,-2.63898 -2.65736,-4.75506 -5.5775,-4.8474 -2.75004,-0.09 -9.5267,0.3924 -9.5267,0.3924 7.89842,1.629 9.18956,2.0439 9.60158,2.99466 0.243,0.5616 -0.4068,1.1196 -2.58282,1.0116 -2.36952,-0.126 -7.22468,-0.693 -7.22468,-0.693 -4.62294,-0.711 -7.84208,-1.3842 -9.2459,0.45 -0.918,1.1988 0.126,2.6577 0.5436,3.51864 1.8342,3.2006 5.00582,5.39642 7.01858,6.9439 0.7578,0.5832 3.06954,1.87164 3.06954,1.87164 -7.18704,-1.96524 -12.91432,-0.8604 -16.5453,1.0476 -4.17384,2.4705 -3.45978,6.63968 3.16298,10.53726 3.91178,2.3022 5.85938,3.40812 12.26416,4.19436 3.74364,0.5976 4.30148,0.8406 4.27304,1.1538 -0.036,0.4392 -4.4309,0.6048 -5.6378,0.6876 -3.07044,0.2124 -11.01118,0.2646 -11.05096,0.2646 z"
       id="path4729"
       style="display:inline;fill:#000000;fill-opacity:0.2;stroke:none;stroke-width:2;enable-background:new;filter:url(#filter4747)" />
    <path
       style="display:inline;fill:#f5f5f5;fill-opacity:1;stroke:none;stroke-width:2;enable-background:new"
       id="path4557"
       d="m 229.07404,512.38519 c 0,0 2.14616,0.6228 5.00276,0.9792 1.15742,0.144 5.55842,0.648 8.93324,0.6354 0,0 4.11014,0.004 6.37904,-0.3168 2.37402,-0.3366 3.7188,-0.7668 4.46742,-1.6272 0.018,-0.2052 0.3618,-0.873 -0.5616,-1.5156 -2.35908,-1.6452 -5.409,-2.09628 -11.333,-3.50316 -6.55074,-1.64702 -8.50844,-3.2242 -9.48656,-4.36558 -0.927,-1.143 0.18,-3.51956 5.45258,-4.68506 2.67264,-0.6498 12.62648,-0.7704 12.62648,-0.7704 -2.8557,-2.26728 -8.21684,-6.32648 -9.31286,-7.18958 -0.9612,-0.7578 -2.50992,-1.91898 -2.67642,-2.95722 -0.225,-1.01162 1.3662,-1.49762 2.2086,-1.55342 2.71386,-0.1872 6.41972,0.126 9.71372,0.7866 1.656,0.32942 1.94652,0.28082 1.94652,0.28082 2.35836,0.108 4.19258,-1.12322 4.09898,-3.72458 -0.018,-2.63898 -2.65736,-4.75506 -5.5775,-4.8474 -2.75004,-0.09 -9.5267,0.3924 -9.5267,0.3924 7.89842,1.629 9.18956,2.0439 9.60158,2.99466 0.243,0.5616 -0.4068,1.1196 -2.58282,1.0116 -2.36952,-0.126 -7.22468,-0.693 -7.22468,-0.693 -4.62294,-0.711 -7.84208,-1.3842 -9.2459,0.45 -0.918,1.1988 0.126,2.6577 0.5436,3.51864 1.8342,3.2006 5.00582,5.39642 7.01858,6.9439 0.7578,0.5832 3.06954,1.87164 3.06954,1.87164 -7.18704,-1.96524 -12.91432,-0.8604 -16.5453,1.0476 -4.17384,2.4705 -3.45978,6.63968 3.16298,10.53726 3.91178,2.3022 5.85938,3.40812 12.26416,4.19436 3.74364,0.5976 4.30148,0.8406 4.27304,1.1538 -0.036,0.4392 -4.4309,0.6048 -5.6378,0.6876 -3.07044,0.2124 -11.01118,0.2646 -11.05096,0.2646 z"
       inkscape:connector-curvature="0" />
    <path
       style="display:inline;fill:#000000;fill-opacity:0.2;stroke:none;stroke-width:16;enable-background:new"
       id="path4563"
       d="m 456.59232,405.08134 c 0,0 17.16928,4.9824 40.02208,7.8336 9.25936,1.152 44.46736,5.184 71.46592,5.0832 0,0 32.88112,0.032 51.03232,-2.5344 18.99216,-2.6928 29.7504,-6.1344 35.73936,-13.0176 0.144,-1.6416 2.8944,-6.984 -4.4928,-12.1248 -18.87264,-13.1616 -43.272,-16.77024 -90.664,-28.02528 -52.40592,-13.17616 -68.06752,-25.7936 -75.89248,-34.92464 -7.416,-9.144 1.44,-28.15648 43.62064,-37.48048 21.38112,-5.1984 101.01184,-6.1632 101.01184,-6.1632 -22.8456,-18.13824 -65.73472,-50.61184 -74.50288,-57.51664 -7.6896,-6.0624 -20.07936,-15.35184 -21.41136,-23.65776 -1.8,-8.09296 10.9296,-11.98096 17.6688,-12.42736 21.71088,-1.4976 51.35776,1.008 77.70976,6.2928 13.248,2.63536 15.57216,2.24656 15.57216,2.24656 18.86688,0.864 33.54064,-8.98576 32.79184,-29.79664 -0.144,-21.11184 -21.25888,-38.04048 -44.62,-38.7792 -22.00032,-0.72 -76.2136,3.1392 -76.2136,3.1392 63.18736,13.032 73.51648,16.3512 76.81264,23.95728 1.944,4.4928 -3.2544,8.9568 -20.66256,8.0928 -18.95616,-1.008 -57.79744,-5.544 -57.79744,-5.544 -36.98352,-5.688 -62.73664,-11.0736 -73.9672,3.6 -7.344,9.5904 1.008,21.2616 4.3488,28.14912 14.6736,25.6048 40.04656,43.17136 56.14864,55.5512 6.0624,4.6656 24.55632,14.97312 24.55632,14.97312 -57.49632,-15.72192 -103.31456,-6.8832 -132.3624,8.3808 -33.39072,19.764 -27.67824,53.11744 25.30384,84.29808 31.29424,18.4176 46.87504,27.26496 98.11328,33.55488 29.94912,4.7808 34.41184,6.7248 34.18432,9.2304 -0.288,3.5136 -35.4472,4.8384 -45.1024,5.5008 -24.56352,1.6992 -88.08944,2.1168 -88.40768,2.1168 z"
       inkscape:connector-curvature="0" />
    <path
       inkscape:connector-curvature="0"
       d="m 456.59232,405.08134 c 0,0 17.16928,4.9824 40.02208,7.8336 9.25936,1.152 44.46736,5.184 71.46592,5.0832 0,0 32.88112,0.032 51.03232,-2.5344 18.99216,-2.6928 29.7504,-6.1344 35.73936,-13.0176 0.144,-1.6416 2.8944,-6.984 -4.4928,-12.1248 -18.87264,-13.1616 -43.272,-16.77024 -90.664,-28.02528 -52.40592,-13.17616 -68.06752,-25.7936 -75.89248,-34.92464 -7.416,-9.144 1.44,-28.15648 43.62064,-37.48048 21.38112,-5.1984 101.01184,-6.1632 101.01184,-6.1632 -22.8456,-18.13824 -65.73472,-50.61184 -74.50288,-57.51664 -7.6896,-6.0624 -20.07936,-15.35184 -21.41136,-23.65776 -1.8,-8.09296 10.9296,-11.98096 17.6688,-12.42736 21.71088,-1.4976 51.35776,1.008 77.70976,6.2928 13.248,2.63536 15.57216,2.24656 15.57216,2.24656 18.86688,0.864 33.54064,-8.98576 32.79184,-29.79664 -0.144,-21.11184 -21.25888,-38.04048 -44.62,-38.7792 -22.00032,-0.72 -76.2136,3.1392 -76.2136,3.1392 63.18736,13.032 73.51648,16.3512 76.81264,23.95728 1.944,4.4928 -3.2544,8.9568 -20.66256,8.0928 -18.95616,-1.008 -57.79744,-5.544 -57.79744,-5.544 -36.98352,-5.688 -62.73664,-11.0736 -73.9672,3.6 -7.344,9.5904 1.008,21.2616 4.3488,28.14912 14.6736,25.6048 40.04656,43.17136 56.14864,55.5512 6.0624,4.6656 24.55632,14.97312 24.55632,14.97312 -57.49632,-15.72192 -103.31456,-6.8832 -132.3624,8.3808 -33.39072,19.764 -27.67824,53.11744 25.30384,84.29808 31.29424,18.4176 46.87504,27.26496 98.11328,33.55488 29.94912,4.7808 34.41184,6.7248 34.18432,9.2304 -0.288,3.5136 -35.4472,4.8384 -45.1024,5.5008 -24.56352,1.6992 -88.08944,2.1168 -88.40768,2.1168 z"
       id="path4570"
       style="display:inline;fill:#000000;fill-opacity:0.2;stroke:none;stroke-width:16;enable-background:new;filter:url(#filter4576)" />
    <path
       inkscape:connector-curvature="0"
       d="m 456.59232,403.08173 c 0,0 17.16928,4.9824 40.02208,7.8336 9.25936,1.152 44.46736,5.184 71.46592,5.0832 0,0 32.88112,0.032 51.03232,-2.5344 18.99216,-2.6928 29.7504,-6.1344 35.73936,-13.0176 0.144,-1.6416 2.8944,-6.984 -4.4928,-12.1248 -18.87264,-13.1616 -43.272,-16.77024 -90.664,-28.02528 -52.40592,-13.17616 -68.06752,-25.7936 -75.89248,-34.92464 -7.416,-9.144 1.44,-28.15648 43.62064,-37.48048 21.38112,-5.1984 101.01184,-6.1632 101.01184,-6.1632 -22.8456,-18.13824 -65.73472,-50.61184 -74.50288,-57.51664 -7.6896,-6.0624 -20.07936,-15.35184 -21.41136,-23.65776 -1.8,-8.09296 10.9296,-11.98096 17.6688,-12.42736 21.71088,-1.4976 51.35776,1.008 77.70976,6.2928 13.248,2.63536 15.57216,2.24656 15.57216,2.24656 18.86688,0.864 33.54064,-8.98576 32.79184,-29.79664 -0.144,-21.11184 -21.25888,-38.04048 -44.62,-38.7792 -22.00032,-0.72 -76.2136,3.1392 -76.2136,3.1392 63.18736,13.032 73.51648,16.3512 76.81264,23.95728 1.944,4.4928 -3.2544,8.9568 -20.66256,8.0928 -18.95616,-1.008 -57.79744,-5.544 -57.79744,-5.544 -36.98352,-5.688 -62.73664,-11.0736 -73.9672,3.6 -7.344,9.5904 1.008,21.2616 4.3488,28.14912 14.6736,25.6048 40.04656,43.17136 56.14864,55.5512 6.0624,4.6656 24.55632,14.97312 24.55632,14.97312 -57.49632,-15.72192 -103.31456,-6.8832 -132.3624,8.3808 -33.39072,19.764 -27.67824,53.11744 25.30384,84.29808 31.29424,18.4176 46.87504,27.26496 98.11328,33.55488 29.94912,4.7808 34.41184,6.7248 34.18432,9.2304 -0.288,3.5136 -35.4472,4.8384 -45.1024,5.5008 -24.56352,1.6992 -88.08944,2.1168 -88.40768,2.1168 z"
       id="path4561"
       style="display:inline;fill:#f5f5f5;fill-opacity:1;stroke:none;stroke-width:16;enable-background:new" />
    <path
       style="display:inline;fill:#ffffff;fill-opacity:1;stroke:none;stroke-width:16;enable-background:new"
       d="M 627.16211 128.00586 C 603.07836 127.83658 555.42969 131.22852 555.42969 131.22852 C 558.11216 131.78176 560.17057 132.22288 562.66602 132.74219 C 577.45885 131.76569 614.15763 129.51762 631.64258 130.08984 C 655.0037 130.82856 676.11967 147.7573 676.26367 168.86914 C 676.26956 169.03272 676.26555 169.18934 676.26953 169.35156 C 676.28949 168.53977 676.29419 167.71733 676.26367 166.86914 C 676.11967 145.7573 655.0037 128.82856 631.64258 128.08984 C 630.26756 128.04484 628.76769 128.01714 627.16211 128.00586 z M 504.8418 151.88867 C 493.53457 151.98673 485.07878 154.45769 479.81445 161.33594 C 477.44826 164.42591 476.71797 167.73105 476.91797 171.02344 C 477.08369 168.40086 477.9274 165.79825 479.81445 163.33398 C 491.04501 148.66038 516.79968 154.04638 553.7832 159.73438 C 553.7832 159.73437 592.62392 164.2713 611.58008 165.2793 C 628.07677 166.09806 633.59684 162.13156 632.47656 157.89062 C 631.53099 161.27919 625.42887 163.96664 611.58008 163.2793 C 592.62392 162.2713 553.7832 157.73438 553.7832 157.73438 C 534.13571 154.71263 517.65665 151.77754 504.8418 151.88867 z M 532.43555 200.04297 C 532.31023 200.83084 532.32395 201.66458 532.52148 202.55273 C 533.85348 210.85865 546.24204 220.14854 553.93164 226.21094 C 562.41012 232.88762 602.63688 263.36064 625.95117 281.77344 C 626.31164 281.7685 628.43555 281.72852 628.43555 281.72852 C 605.58995 263.59028 562.6998 231.11574 553.93164 224.21094 C 546.24204 218.14854 533.85348 208.86061 532.52148 200.55469 C 532.48302 200.38173 532.46094 200.21209 532.43555 200.04297 z M 505.38086 251.72656 C 475.36733 251.81923 450.66076 258.84867 432.50586 268.38867 C 418.40086 276.73743 411.27445 287.51297 411.74023 299.52344 C 412.09938 288.31763 419.18857 278.27119 432.50586 270.38867 C 461.5537 255.12467 507.37282 246.28589 564.86914 262.00781 C 564.86914 262.00781 561.99574 260.38443 558.48047 258.35938 C 539.36419 253.66199 521.59507 251.6765 505.38086 251.72656 z M 481.49609 319.6543 C 481.25215 322.59363 482.08231 325.2498 483.80273 327.37109 C 491.62769 336.50213 507.28939 349.12072 559.69531 362.29688 C 607.08731 373.55191 631.48673 377.16067 650.35938 390.32227 C 653.95504 392.82451 655.14063 395.36982 655.40234 397.51758 C 655.66865 395.07701 655.16509 391.6666 650.35938 388.32227 C 631.48673 375.16067 607.08731 371.55191 559.69531 360.29688 C 507.28939 347.12072 491.62769 334.50213 483.80273 325.37109 C 482.48207 323.7427 481.68836 321.79817 481.49609 319.6543 z M 589.62305 396.12695 C 585.36468 399.15362 554.03546 400.35318 545.00586 400.97266 C 520.45491 402.67099 457.00185 403.08942 456.61914 403.08984 C 456.64986 403.09875 459.44218 403.89535 464.15234 405.02344 C 480.35636 404.87723 524.86313 404.36604 545.00586 402.97266 C 554.66106 402.31026 589.81942 400.98626 590.10742 397.47266 C 590.14923 397.01224 590.02701 396.57053 589.62305 396.12695 z M 456.61914 403.08984 C 456.61897 403.08979 456.5918 403.08203 456.5918 403.08203 L 456.59766 403.08984 C 456.59782 403.08984 456.61894 403.08984 456.61914 403.08984 z "
       id="path4565" />
    <path
       style="display:inline;fill:#ffffff;fill-opacity:1;stroke:none;stroke-width:2;enable-background:new"
       d="M 250.95508 478.01172 C 248.20504 477.92172 241.42969 478.4043 241.42969 478.4043 C 242.92997 478.71372 243.99388 478.94588 245.05664 479.17969 C 247.13042 479.06677 249.54192 478.96547 250.95508 479.01172 C 253.70293 479.09861 256.20161 480.97813 256.50195 483.39844 C 256.51559 483.22085 256.54013 483.05197 256.5332 482.85938 C 256.5152 480.22039 253.87522 478.10406 250.95508 478.01172 z M 235.39258 480.98828 C 233.83445 480.96038 232.67847 481.24892 231.97656 482.16602 C 231.58254 482.68056 231.55938 483.24263 231.68359 483.78516 C 231.73957 483.57483 231.82353 483.36586 231.97656 483.16602 C 233.38038 481.33182 236.59972 482.0058 241.22266 482.7168 C 241.22266 482.7168 246.07775 483.28416 248.44727 483.41016 C 250.62329 483.51816 251.27425 482.96004 251.03125 482.39844 C 250.97747 482.27434 250.90507 482.15856 250.80859 482.04883 C 250.45112 482.30647 249.71344 482.473 248.44727 482.41016 C 246.07775 482.28416 241.22266 481.7168 241.22266 481.7168 C 238.91119 481.3613 236.95071 481.01618 235.39258 480.98828 z M 238.68164 487.44141 C 238.56578 487.62303 238.51128 487.82927 238.56445 488.06836 C 238.73095 489.1066 240.28099 490.26954 241.24219 491.02734 C 242.20815 491.78803 246.33611 494.92714 249.29297 497.23828 C 249.93632 497.22573 250.55469 497.2168 250.55469 497.2168 C 247.69899 494.94952 242.33821 490.89044 241.24219 490.02734 C 240.39451 489.35904 239.09217 488.37616 238.68164 487.44141 z M 235.17188 493.46484 C 231.42018 493.47643 228.33186 494.35633 226.0625 495.54883 C 224.15851 496.6758 223.28454 498.15778 223.51172 499.80469 C 223.6944 498.56018 224.55313 497.44222 226.0625 496.54883 C 229.69348 494.64083 235.42234 493.53671 242.60938 495.50195 C 242.60938 495.50195 240.88497 494.53373 239.93555 493.89648 C 238.25017 493.59429 236.65855 493.46025 235.17188 493.46484 z M 232.27148 502.30273 C 232.09458 502.82999 232.18316 503.31251 232.47461 503.67188 C 233.45273 504.81326 235.4102 506.39009 241.96094 508.03711 C 247.88494 509.44399 250.93584 509.89582 253.29492 511.54102 C 253.56612 511.72974 253.71955 511.91889 253.8125 512.09961 C 253.8263 512.08447 253.84401 512.07206 253.85742 512.05664 C 253.87542 511.85144 254.21832 511.18362 253.29492 510.54102 C 250.93584 508.89582 247.88494 508.44399 241.96094 507.03711 C 235.4102 505.39009 233.45273 503.81326 232.47461 502.67188 C 232.38462 502.56092 232.32119 502.4347 232.27148 502.30273 z M 244.32422 511.80078 C 242.9184 511.97281 240.90013 512.06792 240.125 512.12109 C 237.05729 512.3333 229.13582 512.38663 229.08203 512.38672 C 229.09334 512.39 231.10909 512.96656 233.82031 513.32617 C 236.1096 513.28601 238.66502 513.22209 240.125 513.12109 C 241.3319 513.03829 245.72767 512.87279 245.76367 512.43359 C 245.78181 512.23379 245.45817 512.05373 244.32422 511.80078 z M 229.08203 512.38672 C 229.082 512.38671 229.07422 512.38477 229.07422 512.38477 L 229.07422 512.38672 C 229.07425 512.38672 229.08198 512.38672 229.08203 512.38672 z "
       id="path4731" />
    <path
       style="display:inline;fill:#ffffff;fill-opacity:1;stroke:none;enable-background:new"
       d="M 175.30273 492.00781 C 173.46936 491.94781 168.95312 492.26953 168.95312 492.26953 C 170.58218 492.60551 171.68506 492.84887 172.58398 493.06445 C 173.61415 493.01917 174.63614 492.986 175.30273 493.00781 C 177.11591 493.06515 178.7469 494.29706 178.97461 495.88672 C 179.01062 495.68607 179.0299 495.47209 179.02148 495.23828 C 179.00948 493.47895 177.24949 492.06937 175.30273 492.00781 z M 164.92773 493.99219 C 163.88898 493.97359 163.11833 494.16594 162.65039 494.77734 C 162.3419 495.1802 162.36676 495.62721 162.50195 496.04492 C 162.53983 495.95434 162.58362 495.86454 162.65039 495.77734 C 163.58627 494.55453 165.73248 495.00452 168.81445 495.47852 C 168.81445 495.47852 172.05118 495.85545 173.63086 495.93945 C 175.08155 496.01145 175.51552 495.64004 175.35352 495.26562 C 175.28032 495.09672 175.15643 494.9547 174.92773 494.81445 C 174.64632 494.91011 174.24663 494.97001 173.63086 494.93945 C 172.05118 494.85545 168.81445 494.47852 168.81445 494.47852 C 167.27347 494.24152 165.96649 494.01079 164.92773 493.99219 z M 167.23438 498.49609 C 167.08272 498.64432 166.99366 498.82516 167.04297 499.04688 C 167.15397 499.73904 168.18732 500.51238 168.82812 501.01758 C 169.41142 501.47692 171.8721 503.36039 173.7832 504.84375 C 174.13483 504.83721 175.03516 504.81055 175.03516 504.81055 C 173.13135 503.29902 169.55881 500.59298 168.82812 500.01758 C 168.32402 499.62015 167.58397 499.05554 167.23438 498.49609 z M 164.78125 502.31055 C 162.28012 502.31827 160.22189 502.90422 158.70898 503.69922 C 157.37221 504.49046 156.79624 505.54456 157.03906 506.71289 C 157.20762 505.94653 157.7668 505.2569 158.70898 504.69922 C 161.12963 503.42722 164.94691 502.68984 169.73828 504 C 169.73828 504 168.19856 503.14271 167.69336 502.75391 C 167.60228 502.68388 167.48439 502.59556 167.38672 502.52148 C 166.47701 502.38722 165.59984 502.30802 164.78125 502.31055 z M 162.93164 508.34375 C 162.71514 508.76957 162.75512 509.16459 162.98438 509.44727 C 163.63646 510.20819 164.94142 511.25941 169.30859 512.35742 C 173.25792 513.29534 175.29056 513.59655 176.86328 514.69336 C 176.94774 514.75213 176.98367 514.81057 177.03906 514.86914 C 177.10345 514.81303 177.18376 514.76579 177.23828 514.70312 C 177.25028 514.56633 177.47888 514.12176 176.86328 513.69336 C 175.29056 512.59655 173.25792 512.29534 169.30859 511.35742 C 164.94142 510.25941 163.63646 509.20819 162.98438 508.44727 C 162.9595 508.4166 162.95203 508.37698 162.93164 508.34375 z M 169.70703 514.64258 C 169.07539 514.68525 168.38463 514.72742 168.08398 514.74805 C 166.03702 514.88965 160.74332 514.92383 160.7168 514.92383 C 160.7168 514.92383 162.14638 515.33857 164.05078 515.57617 C 164.426 515.62285 165.33763 515.72732 166.4082 515.82031 C 167.0392 515.79944 167.65771 515.77753 168.08398 515.74805 C 168.88859 515.69285 171.8178 515.58186 171.8418 515.28906 C 171.8585 515.10507 171.48315 514.94768 169.70703 514.64258 z "
       id="path4738" />
    <path
       style="display:inline;fill:#ffffff;fill-opacity:1;stroke:none;enable-background:new"
       d="M 117.47852 503.00586 C 116.1035 502.96086 112.71484 503.20117 112.71484 503.20117 C 114.52313 503.57412 115.58134 503.81323 116.2793 504.01562 C 116.73431 504.00259 117.16721 503.99567 117.47852 504.00586 C 118.77453 504.04684 119.95266 504.88543 120.20898 505.99609 C 120.24822 505.82259 120.27313 505.6384 120.26562 505.42969 C 120.25662 504.1102 118.93859 503.05203 117.47852 503.00586 z M 109.69727 504.49414 C 108.9182 504.48019 108.33924 504.62543 107.98828 505.08398 C 107.72033 505.4339 107.79429 505.82258 107.9375 506.17578 C 107.9557 506.14523 107.96534 506.11394 107.98828 506.08398 C 108.69019 505.16688 110.29986 505.50387 112.61133 505.85938 C 112.61133 505.85937 115.03985 506.14208 116.22461 506.20508 C 117.31262 506.25908 117.63712 505.98002 117.51562 505.69922 C 117.43146 505.50501 117.25821 505.35389 116.83203 505.18945 C 116.66131 505.20706 116.46839 505.21718 116.22461 505.20508 C 115.03985 505.14208 112.61133 504.85937 112.61133 504.85938 C 111.45559 504.68162 110.47633 504.50809 109.69727 504.49414 z M 111.55078 508.03711 C 111.36799 508.16092 111.23524 508.3195 111.2832 508.53516 C 111.36645 509.05428 112.14049 509.63477 112.62109 510.01367 C 113.02173 510.32917 114.66794 511.59142 116.02539 512.64062 C 116.46539 512.63125 117.27734 512.60742 117.27734 512.60742 C 115.84949 511.47378 113.1691 509.44522 112.62109 509.01367 C 112.29275 508.75481 111.83929 508.40034 111.55078 508.03711 z M 109.58594 510.73242 C 107.71009 510.73821 106.16593 511.17719 105.03125 511.77344 C 103.98126 512.39493 103.55235 513.23218 103.80469 514.1582 C 103.96221 513.63327 104.37588 513.16135 105.03125 512.77344 C 106.84674 511.81944 109.71117 511.26738 113.30469 512.25 C 113.30469 512.25 112.14843 511.60605 111.76953 511.31445 C 111.58264 511.17077 111.36144 511.00313 111.14258 510.83594 C 110.60478 510.77245 110.07926 510.7309 109.58594 510.73242 z M 108.28516 515.38086 C 108.04373 515.74704 108.04404 516.09643 108.23828 516.33594 C 108.72734 516.90663 109.7051 517.69407 112.98047 518.51758 C 115.93948 519.22031 117.46353 519.44701 118.64258 520.26758 C 118.74956 520.19462 118.84908 520.11774 118.92773 520.02734 C 118.93673 519.92474 119.10818 519.59083 118.64648 519.26953 C 117.46694 518.44693 115.94247 518.22102 112.98047 517.51758 C 109.78412 516.71394 108.78651 515.94794 108.28516 515.38086 z M 112.20117 520.05078 C 112.16999 520.0527 112.0882 520.05878 112.0625 520.06055 C 110.52728 520.16675 106.557 520.19336 106.53711 520.19336 C 106.53711 520.19336 107.61076 520.50344 109.03906 520.68164 C 109.57911 520.74883 111.52063 520.96573 113.15039 520.99023 C 113.98114 520.93716 114.86887 520.86307 114.88086 520.7168 C 114.89508 520.5602 114.61791 520.43943 112.74609 520.14062 C 112.53167 520.1143 112.39658 520.07867 112.20117 520.05078 z "
       id="path4753" />
    <path
       style="display:inline;fill:#ffffff;fill-opacity:1;stroke:none;enable-background:new"
       d="M 68.259766 509.50391 C 67.190306 509.46891 64.554687 509.65625 64.554688 509.65625 C 66.664697 510.09143 67.522602 510.3035 67.929688 510.51367 C 68.023235 510.51401 68.181386 510.50134 68.259766 510.50391 C 69.223954 510.5344 70.103873 511.13542 70.353516 511.94336 C 70.405237 511.77967 70.437212 511.59779 70.429688 511.38867 C 70.422687 510.3624 69.395376 509.53982 68.259766 509.50391 z M 62.208984 510.66211 C 61.603044 510.65126 61.153824 510.76444 60.880859 511.12109 C 60.63781 511.43849 60.751821 511.79765 60.898438 512.10352 C 61.452476 511.41533 62.693928 511.67145 64.474609 511.94531 C 64.474609 511.94531 66.363675 512.16584 67.285156 512.21484 C 68.131386 512.25684 68.383562 512.04067 68.289062 511.82227 C 68.186858 511.58642 67.864767 511.42453 66.90625 511.18164 C 65.927728 511.10893 64.474609 510.94531 64.474609 510.94531 C 63.575704 510.80706 62.814925 510.67296 62.208984 510.66211 z M 63.775391 513.5625 C 63.561943 513.66137 63.393247 513.81082 63.441406 514.02734 C 63.506156 514.4311 64.108622 514.88303 64.482422 515.17773 C 64.761166 515.39724 65.890493 516.26574 66.851562 517.00586 C 67.37703 516.99279 68.105469 516.97266 68.105469 516.97266 C 66.994919 516.09094 64.908652 514.51338 64.482422 514.17773 C 64.270975 514.01103 63.994406 513.79255 63.775391 513.5625 z M 62.123047 515.51367 C 60.664054 515.51818 59.462603 515.86047 58.580078 516.32422 C 57.718581 516.83414 57.4109 517.53324 57.679688 518.30078 C 57.822962 517.93423 58.114117 517.60002 58.580078 517.32422 C 59.992118 516.58222 62.218712 516.15371 65.013672 516.91797 C 65.013672 516.91797 64.115013 516.41625 63.820312 516.18945 C 63.581342 516.00572 63.297311 515.78741 63.001953 515.55273 C 62.699997 515.52666 62.406031 515.5128 62.123047 515.51367 z M 61.207031 519.2207 C 60.917201 519.5527 60.899792 519.87868 61.074219 520.09375 C 61.454599 520.53762 62.216162 521.15245 64.763672 521.79297 C 66.907255 522.30205 68.068725 522.50203 68.960938 523.04102 C 69.134759 522.95759 69.283417 522.86511 69.388672 522.74414 C 69.395672 522.66434 69.529022 522.4042 69.169922 522.1543 C 68.252502 521.5145 67.067443 521.34009 64.763672 520.79297 C 62.439076 520.2085 61.62478 519.6518 61.207031 519.2207 z M 63.039062 522.80078 C 61.639222 522.84887 59.783451 522.87297 59.759766 522.87305 C 59.771411 522.87642 60.594189 523.11433 61.697266 523.25195 C 62.147378 523.30795 63.857492 523.5049 65.169922 523.5 C 65.169922 523.5 65.649373 523.49463 66.226562 523.47461 C 66.19853 523.36525 65.923016 523.26711 64.580078 523.05273 C 63.973482 522.97827 63.476115 522.89492 63.039062 522.80078 z M 59.759766 522.87305 C 59.759683 522.87302 59.751953 522.87109 59.751953 522.87109 L 59.751953 522.87305 C 59.751989 522.87305 59.759698 522.87305 59.759766 522.87305 z "
       id="path4760" />
  </g>
</svg>
