<?xml version="1.0" encoding="UTF-8" standalone="no"?>
<!-- Created with Inkscape (http://www.inkscape.org/) -->

<svg
   xmlns:dc="http://purl.org/dc/elements/1.1/"
   xmlns:cc="http://creativecommons.org/ns#"
   xmlns:rdf="http://www.w3.org/1999/02/22-rdf-syntax-ns#"
   xmlns:svg="http://www.w3.org/2000/svg"
   xmlns="http://www.w3.org/2000/svg"
   xmlns:xlink="http://www.w3.org/1999/xlink"
   xmlns:sodipodi="http://sodipodi.sourceforge.net/DTD/sodipodi-0.dtd"
   xmlns:inkscape="http://www.inkscape.org/namespaces/inkscape"
   width="816"
   height="544"
   viewBox="0 0 816 544"
   version="1.1"
   id="svg1087"
   inkscape:version="0.92.1 r"
   sodipodi:docname="geany.svg">
  <defs
     id="defs1081">
    <linearGradient
       id="linearGradient4540"
       inkscape:collect="always">
      <stop
         id="stop4536"
         offset="0"
         style="stop-color:#ffffff;stop-opacity:0.05490196" />
      <stop
         id="stop4538"
         offset="1"
         style="stop-color:#177ed5;stop-opacity:0;" />
    </linearGradient>
    <linearGradient
       id="linearGradient4534"
       inkscape:collect="always">
      <stop
         id="stop4530"
         offset="0"
         style="stop-color:#ffffff;stop-opacity:0.05490196" />
      <stop
         id="stop4532"
         offset="1"
         style="stop-color:#177ed5;stop-opacity:0;" />
    </linearGradient>
    <filter
       inkscape:collect="always"
       style="color-interpolation-filters:sRGB"
       id="filter5087"
       x="-0.048"
       width="1.096"
       y="-0.048"
       height="1.096">
      <feGaussianBlur
         inkscape:collect="always"
         stdDeviation="0.8"
         id="feGaussianBlur5089" />
    </filter>
    <linearGradient
       inkscape:collect="always"
       xlink:href="#linearGradient4534"
       id="linearGradient4347"
       gradientUnits="userSpaceOnUse"
       gradientTransform="matrix(0.47825838,0,0,0.47826068,52.5218,24.1749)"
       x1="7"
       y1="1011.3622"
       x2="41.000019"
       y2="1045.3622" />
    <linearGradient
       inkscape:collect="always"
       id="linearGradient4165">
      <stop
         style="stop-color:#ffffff;stop-opacity:0.05490196"
         offset="0"
         id="stop4167" />
      <stop
         style="stop-color:#177ed5;stop-opacity:0;"
         offset="1"
         id="stop4169" />
    </linearGradient>
    <linearGradient
       inkscape:collect="always"
       xlink:href="#linearGradient4540"
       id="linearGradient4435"
       gradientUnits="userSpaceOnUse"
       gradientTransform="matrix(0.65217041,0,0,0.65217328,96.3479,-158.67021)"
       x1="7"
       y1="1011.3622"
       x2="41.000019"
       y2="1045.3622" />
    <linearGradient
       inkscape:collect="always"
       xlink:href="#linearGradient4165"
       id="linearGradient4171-1-0"
       x1="7"
       y1="1011.3622"
       x2="41.000019"
       y2="1045.3622"
       gradientUnits="userSpaceOnUse"
       gradientTransform="matrix(0.95652174,0,0,0.95652174,145.04353,-479.6505)" />
    <linearGradient
       inkscape:collect="always"
       xlink:href="#linearGradient4165-3"
       id="linearGradient4449-0"
       gradientUnits="userSpaceOnUse"
       gradientTransform="matrix(10.43473,0,0,10.434772,293.56525,-10458.721)"
       x1="7"
       y1="1011.3622"
       x2="41.000019"
       y2="1045.3622" />
    <linearGradient
       inkscape:collect="always"
       id="linearGradient4165-3">
      <stop
         style="stop-color:#ffffff;stop-opacity:0.05490196"
         offset="0"
         id="stop4167-6" />
      <stop
         style="stop-color:#177ed5;stop-opacity:0;"
         offset="1"
         id="stop4169-7" />
    </linearGradient>
    <linearGradient
       inkscape:collect="always"
       xlink:href="#linearGradient4165-3"
       id="linearGradient4535"
       gradientUnits="userSpaceOnUse"
       gradientTransform="matrix(1.3043412,0,0,1.3043465,208.69566,-845.3401)"
       x1="7"
       y1="1011.3622"
       x2="41.000019"
       y2="1045.3622" />
    <filter
       inkscape:collect="always"
       style="color-interpolation-filters:sRGB"
       id="filter4553"
       x="-0.012"
       width="1.024"
       y="-0.012"
       height="1.024">
      <feGaussianBlur
         inkscape:collect="always"
         stdDeviation="0.2"
         id="feGaussianBlur4555" />
    </filter>
    <filter
       inkscape:collect="always"
       style="color-interpolation-filters:sRGB"
       id="filter4559"
       x="-0.012"
       width="1.024"
       y="-0.012"
       height="1.024">
      <feGaussianBlur
         inkscape:collect="always"
         stdDeviation="0.28"
         id="feGaussianBlur4561" />
    </filter>
    <filter
       inkscape:collect="always"
       style="color-interpolation-filters:sRGB"
       id="filter4573"
       x="-0.024"
       width="1.048"
       y="-0.024"
       height="1.048">
      <feGaussianBlur
         inkscape:collect="always"
         stdDeviation="4.48"
         id="feGaussianBlur4575" />
    </filter>
    <filter
       inkscape:collect="always"
       style="color-interpolation-filters:sRGB"
       id="filter4617"
       x="-0.0093749428"
       width="1.0187499"
       y="-0.016666848"
       height="1.0333337">
      <feGaussianBlur
         inkscape:collect="always"
         stdDeviation="0.12500136"
         id="feGaussianBlur4619" />
    </filter>
    <filter
       inkscape:collect="always"
       style="color-interpolation-filters:sRGB"
       id="filter4639"
       x="-0.0096002431"
       width="1.0192005"
       y="-0.015999325"
       height="1.0319986">
      <feGaussianBlur
         inkscape:collect="always"
         stdDeviation="0.15999325"
         id="feGaussianBlur4641" />
    </filter>
    <filter
       inkscape:collect="always"
       style="color-interpolation-filters:sRGB"
       id="filter5088"
       x="-0.019200486"
       width="1.038401"
       y="-0.031998649"
       height="1.0639973">
      <feGaussianBlur
         inkscape:collect="always"
         stdDeviation="2.559892"
         id="feGaussianBlur5090" />
    </filter>
  </defs>
  <sodipodi:namedview
     id="base"
     pagecolor="#c3c3c3"
     bordercolor="#333333"
     borderopacity="1"
     inkscape:pageopacity="0"
     inkscape:pageshadow="2"
     inkscape:zoom="0.7"
     inkscape:cx="580.72959"
     inkscape:cy="216.07681"
     inkscape:document-units="px"
     inkscape:current-layer="layer1"
     showgrid="true"
     units="px"
     inkscape:showpageshadow="false"
     inkscape:window-width="1280"
     inkscape:window-height="1370"
     inkscape:window-x="0"
     inkscape:window-y="34"
     inkscape:window-maximized="0">
    <inkscape:grid
       type="xygrid"
       id="grid4630" />
  </sodipodi:namedview>
  <metadata
     id="metadata1084">
    <rdf:RDF>
      <cc:Work
         rdf:about="">
        <dc:format>image/svg+xml</dc:format>
        <dc:type
           rdf:resource="http://purl.org/dc/dcmitype/StillImage" />
        <dc:title></dc:title>
        <cc:license
           rdf:resource="http://creativecommons.org/licenses/by-sa/4.0/" />
        <dc:creator>
          <cc:Agent>
            <dc:title>Peter Cornelis</dc:title>
          </cc:Agent>
        </dc:creator>
      </cc:Work>
      <cc:License
         rdf:about="http://creativecommons.org/licenses/by-sa/4.0/">
        <cc:permits
           rdf:resource="http://creativecommons.org/ns#Reproduction" />
        <cc:permits
           rdf:resource="http://creativecommons.org/ns#Distribution" />
        <cc:requires
           rdf:resource="http://creativecommons.org/ns#Notice" />
        <cc:requires
           rdf:resource="http://creativecommons.org/ns#Attribution" />
        <cc:permits
           rdf:resource="http://creativecommons.org/ns#DerivativeWorks" />
        <cc:requires
           rdf:resource="http://creativecommons.org/ns#ShareAlike" />
      </cc:License>
    </rdf:RDF>
  </metadata>
  <g
     inkscape:label="Baseplate"
     inkscape:groupmode="layer"
     id="layer1"
     transform="translate(0,-153.06668)"
     style="display:none">
    <rect
       style="display:inline;overflow:visible;visibility:visible;fill:#fefefe;fill-opacity:1;fill-rule:nonzero;stroke:none;stroke-width:2;marker:none;enable-background:accumulate"
       id="rect3951"
       width="512"
       height="512"
       x="-800"
       y="169.06668"
       inkscape:label="48x48"
       transform="scale(-1,1)" />
    <text
       y="733.32251"
       xml:space="preserve"
       x="15.006836"
       style="font-style:normal;font-variant:normal;font-weight:normal;font-stretch:normal;line-height:0%;font-family:'DejaVu Sans';-inkscape-font-specification:'DejaVu Sans';display:inline;fill:#000000;fill-opacity:1;stroke:none;enable-background:new"
       inkscape:label="context"
       id="context"><tspan
         style="font-style:normal;font-variant:normal;font-weight:normal;font-stretch:normal;font-size:18px;line-height:1.25;font-family:'DejaVu Sans';-inkscape-font-specification:'DejaVu Sans'"
         y="733.32251"
         x="15.006836"
         sodipodi:role="line"
         id="tspan3933">apps</tspan></text>
    <text
       y="733.32251"
       xml:space="preserve"
       x="142.48828"
       style="font-style:normal;font-variant:normal;font-weight:bold;font-stretch:normal;line-height:0%;font-family:'DejaVu Sans';-inkscape-font-specification:'DejaVu Sans Bold';text-align:start;writing-mode:lr-tb;text-anchor:start;display:inline;fill:#000000;fill-opacity:1;stroke:none;enable-background:new"
       inkscape:label="icon-name"
       id="icon-name"><tspan
         style="font-style:normal;font-variant:normal;font-weight:bold;font-stretch:normal;font-size:18px;line-height:1.25;font-family:'DejaVu Sans';-inkscape-font-specification:'DejaVu Sans Bold'"
         y="733.32251"
         x="142.48828"
         sodipodi:role="line"
         id="tspan3937">geany</tspan></text>
    <rect
       style="display:inline;overflow:visible;visibility:visible;fill:#fefefe;fill-opacity:1;fill-rule:nonzero;stroke:none;stroke-width:2;marker:none;enable-background:accumulate"
       id="rect16x16"
       width="16"
       height="16"
       x="-32"
       y="665.06665"
       inkscape:label="16x16"
       transform="scale(-1,1)" />
    <rect
       style="display:inline;overflow:visible;visibility:visible;fill:#fefefe;fill-opacity:1;fill-rule:nonzero;stroke:none;stroke-width:2;marker:none;enable-background:accumulate"
       id="rect24x24"
       width="24"
       height="24"
       x="-76"
       y="657.06665"
       inkscape:label="24x24"
       transform="scale(-1,1)" />
    <rect
       style="display:inline;overflow:visible;visibility:visible;fill:#fefefe;fill-opacity:1;fill-rule:nonzero;stroke:none;stroke-width:2;marker:none;enable-background:accumulate"
       id="rect32x32"
       width="32"
       height="32"
       x="-128"
       y="649.06665"
       inkscape:label="32x32"
       transform="scale(-1,1)" />
    <rect
       inkscape:label="48x48"
       y="633.06665"
       x="-192"
       height="48"
       width="48"
       id="rect48x48"
       style="display:inline;overflow:visible;visibility:visible;fill:#fefefe;fill-opacity:1;fill-rule:nonzero;stroke:none;stroke-width:2;marker:none;enable-background:accumulate"
       transform="scale(-1,1)" />
    <rect
       transform="scale(-1,1)"
       inkscape:label="48x48"
       y="617.06665"
       x="-272"
       height="64"
       width="64"
       id="rect4524"
       style="display:inline;overflow:visible;visibility:visible;fill:#fefefe;fill-opacity:1;fill-rule:nonzero;stroke:none;stroke-width:0.25;marker:none;enable-background:accumulate" />
  </g>
  <g
     inkscape:groupmode="layer"
     id="layer2"
     inkscape:label="Bitmap"
     style="display:inline">
    <path
       inkscape:connector-curvature="0"
       id="path4551"
       d="m 151,485 c -1.662,0 -3,1.338 -3,3 v 7.91992 18.19141 V 522 c 0,1.662 1.338,3 3,3 h 7.91992 18.17969 H 185 c 1.662,0 3,-1.338 3,-3 V 514.07812 495.89258 488 c 0,-1.662 -1.338,-3 -3,-3 h -7.91992 -18.17969 z"
       style="display:inline;fill:#000000;fill-opacity:0.2;stroke:none;stroke-width:2;stroke-linecap:round;stroke-linejoin:round;stroke-miterlimit:4;stroke-dasharray:none;stroke-opacity:1;enable-background:new;filter:url(#filter4553)" />
    <path
       sodipodi:nodetypes="sscsscsscsscs"
       inkscape:connector-curvature="0"
       id="path5069"
       d="m 143,485 c -1.66505,0 -3,1.2912 -3,3 v 17 17 c 0,1.8617 1.34224,3 3,3 h 17 17 c 1.73784,0 3,-1.2767 3,-3 v -17 -17 c 0,-1.6942 -1.29127,-3 -3,-3 h -17 z"
       style="display:inline;fill:none;fill-opacity:0.5;stroke:none;stroke-width:2;stroke-linecap:round;stroke-linejoin:round;stroke-miterlimit:4;stroke-dasharray:none;stroke-opacity:1;filter:url(#filter5087);enable-background:new" />
    <path
       style="display:inline;fill:none;fill-opacity:0.5;stroke:none;stroke-width:2;stroke-linecap:round;stroke-linejoin:round;stroke-miterlimit:4;stroke-dasharray:none;stroke-opacity:1;filter:url(#filter5087);enable-background:new"
       d="m 143,485 c -1.66505,0 -3,1.2912 -3,3 v 17 17 c 0,1.8617 1.34224,3 3,3 h 17 17 c 1.73784,0 3,-1.2767 3,-3 v -17 -17 c 0,-1.6942 -1.29127,-3 -3,-3 h -17 z"
       id="path4506"
       inkscape:connector-curvature="0"
       sodipodi:nodetypes="sscsscsscsscs" />
    <path
       inkscape:connector-curvature="0"
       id="path4543"
       d="m 56,507 c -1.108,0 -2,0.892 -2,2 v 3.46094 9.09375 V 525 c 0,1.108 0.892,2 2,2 H 59.460938 68.550781 72 c 1.108,0 2,-0.892 2,-2 V 521.53906 512.44531 509 c 0,-1.108 -0.892,-2 -2,-2 h -3.460938 -9.089843 z"
       style="display:inline;fill:#000000;fill-opacity:0.2;stroke:none;stroke-width:2;stroke-linecap:round;stroke-linejoin:round;stroke-miterlimit:4;stroke-dasharray:none;stroke-opacity:1;enable-background:new" />
    <rect
       ry="2"
       rx="2"
       y="-74"
       x="-526"
       height="20"
       width="20"
       id="rect4243"
       style="display:inline;fill:#fdd835;fill-opacity:1;stroke:none;enable-background:new"
       transform="matrix(0,-1,-1,0,0,0)" />
    <rect
       transform="matrix(0,-1,-1,0,0,0)"
       style="display:inline;fill:#fdd835;fill-opacity:1;stroke:none;enable-background:new"
       id="rect4203"
       width="40"
       height="40"
       x="-524"
       y="-188"
       rx="3"
       ry="3" />
    <path
       inkscape:connector-curvature="0"
       id="path4547"
       d="m 101,499 c -1.662,0 -3,1.338 -3,3 v 5.66211 10.67578 V 524 c 0,1.662 1.338,3 3,3 h 5.6875 10.64844 H 123 c 1.662,0 3,-1.338 3,-3 V 518.33789 507.66602 502 c 0,-1.662 -1.338,-3 -3,-3 h -5.6875 -10.64844 z"
       style="display:inline;fill:#000000;fill-opacity:0.2;stroke:none;stroke-width:2;stroke-linecap:round;stroke-linejoin:round;stroke-miterlimit:4;stroke-dasharray:none;stroke-opacity:1;enable-background:new" />
    <rect
       transform="matrix(0,-1,-1,0,0,0)"
       style="display:inline;fill:#fdd835;fill-opacity:1;stroke:none;enable-background:new"
       id="rect4255"
       width="28"
       height="28"
       x="-526"
       y="-126"
       rx="3"
       ry="3" />
    <rect
       transform="matrix(0,-1,-1,0,0,0)"
       style="display:inline;fill:#fdd835;fill-opacity:1;stroke:none;enable-background:new"
       id="rect4265"
       width="16"
       height="16"
       x="-528"
       y="-32"
       rx="2"
       ry="2" />
    <path
       style="display:inline;fill:#000000;fill-opacity:0.2;stroke:none;stroke-width:16;stroke-linecap:round;stroke-linejoin:round;stroke-miterlimit:4;stroke-dasharray:none;stroke-opacity:1;enable-background:new;filter:url(#filter4573)"
       d="m 356,50 c -19.944,0 -36,16.056 -36,36 V 188.5918 359.37695 462 c 0,19.944 16.056,36 36,36 H 458.98242 629.36523 732 c 19.944,0 36,-16.056 36,-36 V 359.39648 188.6543 86 C 768,66.056 751.944,50 732,50 H 629.00586 458.625 Z"
       id="path4567"
       inkscape:connector-curvature="0" />
    <path
       inkscape:connector-curvature="0"
       id="path4563"
       d="m 356,50 c -19.944,0 -36,16.056 -36,36 V 188.5918 359.37695 462 c 0,19.944 16.056,36 36,36 H 458.98242 629.36523 732 c 19.944,0 36,-16.056 36,-36 V 359.39648 188.6543 86 C 768,66.056 751.944,50 732,50 H 629.00586 458.625 Z"
       style="display:inline;fill:#000000;fill-opacity:0.2;stroke:none;stroke-width:16;stroke-linecap:round;stroke-linejoin:round;stroke-miterlimit:4;stroke-dasharray:none;stroke-opacity:1;enable-background:new" />
    <rect
       ry="36"
       rx="36"
       y="-768"
       x="-496"
       height="448"
       width="448"
       id="rect4229"
       style="display:inline;fill:#fdd835;fill-opacity:1;stroke:none;enable-background:new"
       transform="matrix(0,-1,-1,0,0,0)" />
    <path
       id="path4507"
       d="m 320,86 v -2 c 0,-19.944 16.056,-36 36,-36 h 376 c 19.944,0 36,16.056 36,36 v 2 C 768,66.056 751.944,50 732,50 H 356 c -19.944,0 -36,16.056 -36,36 z"
       style="display:inline;fill:#ffffff;fill-opacity:0.2;stroke:none;enable-background:new"
       inkscape:connector-curvature="0" />
    <path
       id="path4514"
       d="m 148,488 v -1 c 0,-1.662 1.338,-3 3,-3 h 34 c 1.662,0 3,1.338 3,3 v 1 c 0,-1.662 -1.338,-3 -3,-3 h -34 c -1.662,0 -3,1.338 -3,3 z"
       style="display:inline;fill:#ffffff;fill-opacity:0.2;stroke:none;enable-background:new"
       inkscape:connector-curvature="0" />
    <path
       id="path4521"
       d="m 98,502 v -1 c 0,-1.662 1.338,-3 3,-3 h 22 c 1.662,0 3,1.338 3,3 v 1 c 0,-1.662 -1.338,-3 -3,-3 h -22 c -1.662,0 -3,1.338 -3,3 z"
       style="display:inline;fill:#fafafa;fill-opacity:0.2;stroke:none;enable-background:new"
       inkscape:connector-curvature="0" />
    <path
       id="path4528"
       d="m 54,509 v -1 c 0,-1.108 0.892,-2 2,-2 h 16 c 1.108,0 2,0.892 2,2 v 1 c 0,-1.108 -0.892,-2 -2,-2 H 56 c -1.108,0 -2,0.892 -2,2 z"
       style="display:inline;fill:#ffffff;fill-opacity:0.2;stroke:none;enable-background:new"
       inkscape:connector-curvature="0" />
    <path
       style="display:inline;fill:#000000;fill-opacity:0.2;stroke:none;stroke-width:2;stroke-linecap:round;stroke-linejoin:round;stroke-miterlimit:4;stroke-dasharray:none;stroke-opacity:1;enable-background:new;filter:url(#filter4559)"
       d="m 216.5,469 c -2.493,0 -4.5,2.007 -4.5,4.5 V 486.32398 507.67212 520.5 c 0,2.493 2.007,4.5 4.5,4.5 H 229.3728 250.67065 263.5 c 2.493,0 4.5,-2.007 4.5,-4.5 V 507.67456 486.33179 473.5 c 0,-2.493 -2.007,-4.5 -4.5,-4.5 h -12.87427 -21.29761 z"
       id="path4557"
       inkscape:connector-curvature="0" />
    <rect
       transform="matrix(0,-1,-1,0,0,0)"
       style="display:inline;fill:#fdd835;fill-opacity:1;stroke:none;stroke-width:0.125;enable-background:new"
       id="rect4526"
       width="56"
       height="56"
       x="-524"
       y="-268"
       rx="4.5"
       ry="4.5" />
    <path
       style="display:inline;fill:#ffffff;fill-opacity:0.2;stroke:none;stroke-width:0.125;enable-background:new"
       d="M 216.5 468 C 214.007 468 212 470.007 212 472.5 L 212 473.5 C 212 471.007 214.007 469 216.5 469 L 263.5 469 C 265.993 469 268 471.007 268 473.5 L 268 472.5 C 268 470.007 265.993 468 263.5 468 L 216.5 468 z "
       id="rect4537" />
    <path
       style="display:inline;opacity:1;fill:#000000;fill-opacity:0.2;stroke:none;stroke-width:1.5;stroke-linecap:round;stroke-linejoin:round;stroke-miterlimit:4;stroke-dasharray:none;stroke-opacity:0.2;enable-background:new"
       d="m 58.249861,511.99999 c -0.553045,0 -2.120555,2.49554 -2.242875,3.41055 -0.005,0.0275 -0.0077,0.0564 -0.007,0.0899 -5e-4,0.0335 0.002,0.062 0.007,0.089 0.121525,0.9143 1.68967,3.41056 2.242875,3.41056 0.5532,0 2.12135,-2.49626 2.24287,-3.41056 0.005,-0.027 0.0077,-0.0557 0.007,-0.089 5e-4,-0.0335 -0.002,-0.0627 -0.007,-0.0899 -0.122315,-0.915 -1.689825,-3.41055 -2.24287,-3.41055 z"
       id="path4585"
       inkscape:connector-curvature="0" />
    <path
       inkscape:connector-curvature="0"
       id="path5231"
       d="m 58.249861,510.99999 c -0.553045,0 -2.120555,2.49554 -2.242875,3.41055 -0.005,0.0275 -0.0077,0.0564 -0.007,0.0899 -5e-4,0.0335 0.002,0.062 0.007,0.089 0.121525,0.9143 1.68967,3.41056 2.242875,3.41056 0.5532,0 2.12135,-2.49626 2.24287,-3.41056 0.005,-0.027 0.0077,-0.0557 0.007,-0.089 5e-4,-0.0335 -0.002,-0.0627 -0.007,-0.0899 -0.122315,-0.915 -1.689825,-3.41055 -2.24287,-3.41055 z"
       style="display:inline;opacity:1;fill:#b71c1c;fill-opacity:1;stroke:none;stroke-width:1.5;stroke-linecap:round;stroke-linejoin:round;stroke-miterlimit:4;stroke-dasharray:none;stroke-opacity:0.2;enable-background:new" />
    <path
       inkscape:connector-curvature="0"
       id="path4587"
       d="m 63.999981,513.99999 c -0.553045,0 -2.120555,2.49554 -2.242875,3.41055 -0.005,0.0275 -0.0077,0.0564 -0.007,0.0899 -5e-4,0.0335 0.002,0.062 0.007,0.089 0.121525,0.9143 1.68967,3.41056 2.242875,3.41056 0.5532,0 2.12135,-2.49626 2.24287,-3.41056 0.005,-0.027 0.0077,-0.0557 0.007,-0.089 5e-4,-0.0335 -0.002,-0.0627 -0.007,-0.0899 -0.122315,-0.915 -1.689825,-3.41055 -2.24287,-3.41055 z"
       style="display:inline;opacity:1;fill:#000000;fill-opacity:0.2;stroke:none;stroke-width:1.5;stroke-linecap:round;stroke-linejoin:round;stroke-miterlimit:4;stroke-dasharray:none;stroke-opacity:0.2;enable-background:new" />
    <path
       style="display:inline;opacity:1;fill:#b71c1c;fill-opacity:1;stroke:none;stroke-width:1.5;stroke-linecap:round;stroke-linejoin:round;stroke-miterlimit:4;stroke-dasharray:none;stroke-opacity:0.2;enable-background:new"
       d="m 63.999981,512.99999 c -0.553045,0 -2.120555,2.49554 -2.242875,3.41055 -0.005,0.0275 -0.0077,0.0564 -0.007,0.0899 -5e-4,0.0335 0.002,0.062 0.007,0.089 0.121525,0.9143 1.68967,3.41056 2.242875,3.41056 0.5532,0 2.12135,-2.49626 2.24287,-3.41056 0.005,-0.027 0.0077,-0.0557 0.007,-0.089 5e-4,-0.0335 -0.002,-0.0627 -0.007,-0.0899 -0.122315,-0.915 -1.689825,-3.41055 -2.24287,-3.41055 z"
       id="path5241"
       inkscape:connector-curvature="0" />
    <path
       style="display:inline;opacity:1;fill:#000000;fill-opacity:0.2;stroke:none;stroke-width:1.5;stroke-linecap:round;stroke-linejoin:round;stroke-miterlimit:4;stroke-dasharray:none;stroke-opacity:0.2;enable-background:new"
       d="m 69.749981,511.99999 c -0.553045,0 -2.120555,2.49554 -2.242875,3.41055 -0.005,0.0275 -0.0077,0.0564 -0.007,0.0899 -5e-4,0.0335 0.002,0.062 0.007,0.089 0.121525,0.9143 1.68967,3.41056 2.242875,3.41056 0.5532,0 2.12135,-2.49626 2.24287,-3.41056 0.005,-0.027 0.0077,-0.0557 0.007,-0.089 5e-4,-0.0335 -0.002,-0.0627 -0.007,-0.0899 -0.122315,-0.915 -1.689825,-3.41055 -2.24287,-3.41055 z"
       id="path4589"
       inkscape:connector-curvature="0" />
    <path
       inkscape:connector-curvature="0"
       id="path5251"
       d="m 69.749981,510.99999 c -0.553045,0 -2.120555,2.49554 -2.242875,3.41055 -0.005,0.0275 -0.0077,0.0564 -0.007,0.0899 -5e-4,0.0335 0.002,0.062 0.007,0.089 0.121525,0.9143 1.68967,3.41056 2.242875,3.41056 0.5532,0 2.12135,-2.49626 2.24287,-3.41056 0.005,-0.027 0.0077,-0.0557 0.007,-0.089 5e-4,-0.0335 -0.002,-0.0627 -0.007,-0.0899 -0.122315,-0.915 -1.689825,-3.41055 -2.24287,-3.41055 z"
       style="display:inline;opacity:1;fill:#b71c1c;fill-opacity:1;stroke:none;stroke-width:1.5;stroke-linecap:round;stroke-linejoin:round;stroke-miterlimit:4;stroke-dasharray:none;stroke-opacity:0.2;enable-background:new" />
    <path
       style="display:inline;opacity:1;fill:#b71c1c;fill-opacity:1;stroke:none;stroke-width:1.5;stroke-linecap:round;stroke-linejoin:round;stroke-miterlimit:4;stroke-dasharray:none;stroke-opacity:0.2;enable-background:new"
       d="m 18.999984,514.99999 c -0.553045,0 -2.120555,2.49554 -2.242875,3.41055 -0.005,0.0275 -0.0077,0.0564 -0.007,0.0899 -5e-4,0.0335 0.002,0.062 0.007,0.089 0.121525,0.9143 1.68967,3.41056 2.242875,3.41056 0.5532,0 2.12135,-2.49626 2.24287,-3.41056 0.005,-0.027 0.0077,-0.0557 0.007,-0.089 5e-4,-0.0335 -0.002,-0.0627 -0.007,-0.0899 -0.122315,-0.915 -1.689825,-3.41055 -2.24287,-3.41055 z"
       id="path5347"
       inkscape:connector-curvature="0" />
    <path
       inkscape:connector-curvature="0"
       id="path5357"
       d="m 23.999981,517.99999 c -0.553045,0 -2.120555,2.49554 -2.242875,3.41055 -0.005,0.0275 -0.0077,0.0564 -0.007,0.0899 -5e-4,0.0335 0.002,0.062 0.007,0.089 0.121525,0.9143 1.68967,3.41056 2.242875,3.41056 0.5532,0 2.12135,-2.49626 2.24287,-3.41056 0.005,-0.027 0.0077,-0.0557 0.007,-0.089 5e-4,-0.0335 -0.002,-0.0627 -0.007,-0.0899 -0.122315,-0.915 -1.689825,-3.41055 -2.24287,-3.41055 z"
       style="display:inline;opacity:1;fill:#b71c1c;fill-opacity:1;stroke:none;stroke-width:1.5;stroke-linecap:round;stroke-linejoin:round;stroke-miterlimit:4;stroke-dasharray:none;stroke-opacity:0.2;enable-background:new" />
    <path
       style="display:inline;opacity:1;fill:#b71c1c;fill-opacity:1;stroke:none;stroke-width:1.5;stroke-linecap:round;stroke-linejoin:round;stroke-miterlimit:4;stroke-dasharray:none;stroke-opacity:0.2;enable-background:new"
       d="m 28.999984,514.99999 c -0.553045,0 -2.120555,2.49554 -2.242875,3.41055 -0.005,0.0275 -0.0077,0.0564 -0.007,0.0899 -5e-4,0.0335 0.002,0.062 0.007,0.089 0.121525,0.9143 1.68967,3.41056 2.242875,3.41056 0.5532,0 2.12135,-2.49626 2.24287,-3.41056 0.005,-0.027 0.0077,-0.0557 0.007,-0.089 5e-4,-0.0335 -0.002,-0.0627 -0.007,-0.0899 -0.122315,-0.915 -1.689825,-3.41055 -2.24287,-3.41055 z"
       id="path5365"
       inkscape:connector-curvature="0" />
    <path
       id="path4597"
       d="m 105,507 c -0.7374,0 -2.82713,3.32686 -2.99023,4.54688 -0.007,0.0367 -0.0111,0.0765 -0.01,0.12109 -6.6e-4,0.0447 0.004,0.0812 0.01,0.11719 0.16204,1.21906 2.25262,4.54882 2.99023,4.54882 0.7376,0 2.82821,-3.32976 2.99023,-4.54882 0.007,-0.036 0.0111,-0.0728 0.01,-0.11719 6.7e-4,-0.0447 -0.004,-0.0848 -0.01,-0.12109 C 107.82715,510.32687 105.73739,507 105,507 Z m 14,0 c -0.7374,0 -2.82714,3.32687 -2.99023,4.54688 -0.007,0.0367 -0.0111,0.0746 -0.01,0.11914 -6.6e-4,0.0447 0.004,0.0832 0.01,0.11914 0.16203,1.21906 2.25262,4.54687 2.99023,4.54687 0.7376,0 2.8282,-3.32781 2.99023,-4.54687 0.007,-0.036 0.0111,-0.0748 0.01,-0.11914 6.7e-4,-0.0447 -0.004,-0.0829 -0.01,-0.11914 C 121.82714,510.32687 119.73739,507 119,507 Z m -7,2.66602 c -0.7374,0 -2.82714,3.32881 -2.99023,4.54882 -0.007,0.0367 -0.0111,0.0746 -0.01,0.11914 -6.6e-4,0.0447 0.004,0.0832 0.01,0.11914 C 109.1718,515.67219 111.26238,519 112,519 c 0.7376,0 2.82821,-3.3278 2.99023,-4.54688 0.007,-0.036 0.0111,-0.0748 0.01,-0.11914 6.6e-4,-0.0447 -0.004,-0.0829 -0.01,-0.11914 -0.16308,-1.22 -2.25284,-4.54882 -2.99023,-4.54882 z"
       style="display:inline;opacity:1;fill:#000000;fill-opacity:0.2;stroke:none;stroke-width:1.5;stroke-linecap:round;stroke-linejoin:round;stroke-miterlimit:4;stroke-dasharray:none;stroke-opacity:0.2;enable-background:new"
       inkscape:connector-curvature="0" />
    <path
       style="display:inline;opacity:1;fill:#b71c1c;fill-opacity:1;stroke:none;stroke-width:1.5;stroke-linecap:round;stroke-linejoin:round;stroke-miterlimit:4;stroke-dasharray:none;stroke-opacity:0.2;enable-background:new"
       d="M 105 506 C 104.2626 506 102.17287 509.32686 102.00977 510.54688 C 102.00277 510.58357 101.9987 510.6234 102 510.66797 C 101.99934 510.71267 102.00377 510.7492 102.00977 510.78516 C 102.17181 512.00422 104.26239 515.33398 105 515.33398 C 105.7376 515.33398 107.82821 512.00422 107.99023 510.78516 C 107.99723 510.74916 108.0013 510.71233 108 510.66797 C 108.00067 510.62327 107.99623 510.58315 107.99023 510.54688 C 107.82715 509.32687 105.73739 506 105 506 z M 119 506 C 118.2626 506 116.17286 509.32687 116.00977 510.54688 C 116.00277 510.58357 115.9987 510.62145 116 510.66602 C 115.99934 510.71072 116.00377 510.7492 116.00977 510.78516 C 116.1718 512.00422 118.26239 515.33203 119 515.33203 C 119.7376 515.33203 121.8282 512.00422 121.99023 510.78516 C 121.99723 510.74916 122.0013 510.71038 122 510.66602 C 122.00067 510.62132 121.99623 510.58315 121.99023 510.54688 C 121.82714 509.32687 119.73739 506 119 506 z M 112 508.66602 C 111.2626 508.66602 109.17286 511.99483 109.00977 513.21484 C 109.00277 513.25154 108.9987 513.28942 109 513.33398 C 108.99934 513.37868 109.00377 513.41716 109.00977 513.45312 C 109.1718 514.67219 111.26238 518 112 518 C 112.7376 518 114.82821 514.6722 114.99023 513.45312 C 114.99723 513.41713 115.0013 513.37834 115 513.33398 C 115.00066 513.28928 114.99623 513.2511 114.99023 513.21484 C 114.82715 511.99484 112.73739 508.66602 112 508.66602 z "
       id="path5375" />
    <path
       style="display:inline;opacity:1;fill:#ffffff;fill-opacity:0.2;stroke:none;stroke-width:1.5;stroke-linecap:round;stroke-linejoin:round;stroke-miterlimit:4;stroke-dasharray:none;stroke-opacity:0.2;enable-background:new"
       d="M 58.25 511 C 57.696955 511 56.130133 513.49515 56.007812 514.41016 C 56.002812 514.43766 55.9993 514.4665 56 514.5 C 55.9995 514.5335 56.002812 514.56284 56.007812 514.58984 C 56.023003 514.70414 56.061617 514.84229 56.117188 514.99805 C 56.507223 513.90722 57.766311 512 58.25 512 C 58.733689 512 59.992781 513.90912 60.382812 515 C 60.43868 514.84364 60.476948 514.7045 60.492188 514.58984 C 60.497188 514.56284 60.5007 514.5333 60.5 514.5 C 60.5005 514.4665 60.497188 514.43736 60.492188 514.41016 C 60.369872 513.49508 58.803045 511 58.25 511 z M 69.75 511 C 69.196955 511 67.630133 513.49515 67.507812 514.41016 C 67.502813 514.43766 67.4993 514.4665 67.5 514.5 C 67.4995 514.5335 67.502812 514.56284 67.507812 514.58984 C 67.523003 514.70414 67.561616 514.84229 67.617188 514.99805 C 68.007223 513.90722 69.266311 512 69.75 512 C 70.233689 512 71.492781 513.90912 71.882812 515 C 71.93868 514.84364 71.976948 514.7045 71.992188 514.58984 C 71.997187 514.56284 72.0007 514.5333 72 514.5 C 72.0005 514.4665 71.997188 514.43736 71.992188 514.41016 C 71.869872 513.49508 70.303045 511 69.75 511 z M 64 513 C 63.446955 513 61.880133 515.49515 61.757812 516.41016 C 61.752812 516.43766 61.7493 516.4665 61.75 516.5 C 61.7495 516.5335 61.752812 516.56284 61.757812 516.58984 C 61.773003 516.70414 61.811617 516.84229 61.867188 516.99805 C 62.257223 515.90722 63.516311 514 64 514 C 64.483689 514 65.742781 515.90912 66.132812 517 C 66.18868 516.84364 66.226948 516.7045 66.242188 516.58984 C 66.247187 516.56284 66.2507 516.5333 66.25 516.5 C 66.2505 516.4665 66.247188 516.43736 66.242188 516.41016 C 66.119872 515.49508 64.553045 513 64 513 z "
       id="path4575" />
    <path
       style="display:inline;opacity:1;fill:#ffffff;fill-opacity:0.2;stroke:none;stroke-width:1.5;stroke-linecap:round;stroke-linejoin:round;stroke-miterlimit:4;stroke-dasharray:none;stroke-opacity:0.2;enable-background:new"
       d="M 105 506 C 104.2626 506 102.17287 509.32685 102.00977 510.54688 C 102.00277 510.58357 101.9987 510.6234 102 510.66797 C 101.99934 510.71267 102.00377 510.7492 102.00977 510.78516 C 102.02393 510.8917 102.0699 511.03086 102.11133 511.16602 C 102.54465 509.75442 104.32705 507 105 507 C 105.67294 507 107.45536 509.75443 107.88867 511.16602 C 107.9301 511.03086 107.97607 510.8917 107.99023 510.78516 C 107.99723 510.74916 108.0013 510.71233 108 510.66797 C 108.00067 510.62327 107.99623 510.58314 107.99023 510.54688 C 107.82715 509.32686 105.73739 506 105 506 z M 119 506 C 118.2626 506 116.17286 509.32686 116.00977 510.54688 C 116.00277 510.58357 115.9987 510.62145 116 510.66602 C 115.99934 510.71072 116.00377 510.7492 116.00977 510.78516 C 116.02393 510.8917 116.0699 511.03089 116.11133 511.16602 C 116.54464 509.75443 118.32705 507 119 507 C 119.67294 507 121.45536 509.75443 121.88867 511.16602 C 121.9301 511.03089 121.97607 510.8917 121.99023 510.78516 C 121.99723 510.74916 122.0013 510.71038 122 510.66602 C 122.00067 510.62132 121.99623 510.58314 121.99023 510.54688 C 121.82714 509.32686 119.73739 506 119 506 z M 112 508.66602 C 111.2626 508.66602 109.17286 511.99483 109.00977 513.21484 C 109.00277 513.25154 108.9987 513.28942 109 513.33398 C 108.99934 513.37868 109.00377 513.41716 109.00977 513.45312 C 109.02393 513.55967 109.0699 513.69886 109.11133 513.83398 C 109.54464 512.42211 111.32705 509.66602 112 509.66602 C 112.67294 509.66602 114.45536 512.42212 114.88867 513.83398 C 114.9301 513.69886 114.97607 513.55967 114.99023 513.45312 C 114.99723 513.41714 115.0013 513.37834 115 513.33398 C 115.00066 513.28928 114.99623 513.2511 114.99023 513.21484 C 114.82715 511.99484 112.73739 508.66602 112 508.66602 z "
       id="path4592" />
    <path
       id="path4615"
       d="m 156.5,496 c -1.10609,0 -4.24169,4.9903 -4.48633,6.82031 -0.01,0.055 -0.0152,0.11278 -0.0137,0.17969 -0.001,0.067 0.004,0.12569 0.0137,0.17969 0.24305,1.8286 3.37992,6.82031 4.48633,6.82031 1.1064,0 4.24329,-4.99171 4.48633,-6.82031 0.01,-0.054 0.0151,-0.1131 0.0137,-0.17969 0.001,-0.067 -0.004,-0.1253 -0.0137,-0.17969 C 160.7417,500.99031 157.60609,496 156.5,496 Z m 23,0 c -1.10609,0 -4.24169,4.9903 -4.48633,6.82031 -0.01,0.055 -0.0152,0.11278 -0.0137,0.17969 -0.001,0.067 0.004,0.12569 0.0137,0.17969 0.24305,1.8286 3.37992,6.82031 4.48633,6.82031 1.1064,0 4.24329,-4.99171 4.48633,-6.82031 0.01,-0.054 0.0151,-0.1131 0.0137,-0.17969 0.001,-0.067 -0.004,-0.1253 -0.0137,-0.17969 C 183.7417,500.99031 180.60609,496 179.5,496 Z m -11.5,4 c -1.10609,0 -4.24169,4.9903 -4.48633,6.82031 -0.01,0.055 -0.0152,0.11278 -0.0137,0.17969 -0.001,0.067 0.004,0.12569 0.0137,0.17969 C 163.75672,509.00829 166.89359,514 168,514 c 1.1064,0 4.24329,-4.99171 4.48633,-6.82031 0.01,-0.054 0.0151,-0.1131 0.0137,-0.17969 0.001,-0.067 -0.004,-0.1253 -0.0137,-0.17969 C 172.2417,504.99031 169.10609,500 168,500 Z"
       style="display:inline;opacity:1;fill:#000000;fill-opacity:0.2;stroke:none;stroke-width:1.5;stroke-linecap:round;stroke-linejoin:round;stroke-miterlimit:4;stroke-dasharray:none;stroke-opacity:0.2;enable-background:new;filter:url(#filter4617)"
       inkscape:connector-curvature="0" />
    <path
       style="display:inline;opacity:1;fill:#b71c1c;fill-opacity:1;stroke:none;stroke-width:1.5;stroke-linecap:round;stroke-linejoin:round;stroke-miterlimit:4;stroke-dasharray:none;stroke-opacity:0.2;enable-background:new"
       d="M 156.5 495 C 155.39391 495 152.25831 499.9903 152.01367 501.82031 C 152.00367 501.87531 151.9985 501.93309 152 502 C 151.999 502.067 152.00367 502.12569 152.01367 502.17969 C 152.25672 504.00829 155.39359 509 156.5 509 C 157.6064 509 160.74329 504.00829 160.98633 502.17969 C 160.99633 502.12569 161.0014 502.06659 161 502 C 161.001 501.933 160.99633 501.8747 160.98633 501.82031 C 160.7417 499.99031 157.60609 495 156.5 495 z M 179.5 495 C 178.39391 495 175.25831 499.9903 175.01367 501.82031 C 175.00367 501.87531 174.9985 501.93309 175 502 C 174.999 502.067 175.00367 502.12569 175.01367 502.17969 C 175.25672 504.00829 178.39359 509 179.5 509 C 180.6064 509 183.74329 504.00829 183.98633 502.17969 C 183.99633 502.12569 184.0014 502.06659 184 502 C 184.001 501.933 183.99633 501.8747 183.98633 501.82031 C 183.7417 499.99031 180.60609 495 179.5 495 z M 168 499 C 166.89391 499 163.75831 503.9903 163.51367 505.82031 C 163.50367 505.87531 163.4985 505.93309 163.5 506 C 163.499 506.067 163.50367 506.12569 163.51367 506.17969 C 163.75672 508.00829 166.89359 513 168 513 C 169.1064 513 172.24329 508.00829 172.48633 506.17969 C 172.49633 506.12569 172.5014 506.06659 172.5 506 C 172.501 505.933 172.49633 505.8747 172.48633 505.82031 C 172.2417 503.99031 169.10609 499 168 499 z "
       id="path8884" />
    <path
       style="display:inline;opacity:1;fill:#ffffff;fill-opacity:0.2;stroke:none;stroke-width:1.5;stroke-linecap:round;stroke-linejoin:round;stroke-miterlimit:4;stroke-dasharray:none;stroke-opacity:0.2;enable-background:new"
       d="M 156.5 495 C 155.39391 495 152.25831 499.9903 152.01367 501.82031 C 152.00367 501.87531 151.9985 501.93309 152 502 C 151.999 502.067 152.00367 502.12569 152.01367 502.17969 C 152.02556 502.26909 152.07251 502.39642 152.09766 502.5 C 152.58802 500.48407 155.44799 496 156.5 496 C 157.55201 496 160.41199 500.48408 160.90234 502.5 C 160.92749 502.39642 160.97445 502.26909 160.98633 502.17969 C 160.99633 502.12569 161.0014 502.06659 161 502 C 161.001 501.933 160.99633 501.8747 160.98633 501.82031 C 160.7417 499.99031 157.60609 495 156.5 495 z M 179.5 495 C 178.39391 495 175.25831 499.9903 175.01367 501.82031 C 175.00367 501.87531 174.9985 501.93309 175 502 C 174.999 502.067 175.00367 502.12569 175.01367 502.17969 C 175.02556 502.26909 175.07251 502.39642 175.09766 502.5 C 175.58802 500.48407 178.44799 496 179.5 496 C 180.55201 496 183.41199 500.48408 183.90234 502.5 C 183.92749 502.39642 183.97445 502.26909 183.98633 502.17969 C 183.99633 502.12569 184.0014 502.06659 184 502 C 184.001 501.933 183.99633 501.8747 183.98633 501.82031 C 183.7417 499.99031 180.60609 495 179.5 495 z M 168 499 C 166.89391 499 163.75831 503.9903 163.51367 505.82031 C 163.50367 505.87531 163.4985 505.93309 163.5 506 C 163.499 506.067 163.50367 506.12569 163.51367 506.17969 C 163.52556 506.26909 163.57251 506.39642 163.59766 506.5 C 164.08802 504.48407 166.94799 500 168 500 C 169.05201 500 171.91199 504.48408 172.40234 506.5 C 172.42749 506.39642 172.47445 506.26909 172.48633 506.17969 C 172.49633 506.12569 172.5014 506.06659 172.5 506 C 172.501 505.933 172.49633 505.8747 172.48633 505.82031 C 172.2417 503.99031 169.10609 499 168 499 z "
       id="path4610" />
    <path
       id="path4632"
       d="m 226,485 c -1.47476,0 -5.65428,6.65575 -5.98047,9.0957 -0.014,0.0734 -0.0202,0.14915 -0.0176,0.23828 -0.001,0.0894 0.006,0.16637 0.0176,0.23829 0.32407,2.43805 4.50529,9.09375 5.98047,9.09375 1.47516,0 5.65644,-6.6557 5.98047,-9.09375 0.014,-0.072 0.0202,-0.14957 0.0176,-0.23829 0.001,-0.0894 -0.006,-0.16574 -0.0176,-0.23828 C 231.65432,491.65577 227.47474,485 226,485 Z m 28,0 c -1.47476,0 -5.6543,6.6538 -5.98047,9.09375 -0.014,0.0734 -0.0221,0.1511 -0.0195,0.24023 -0.001,0.0894 0.008,0.16637 0.0195,0.23829 0.32405,2.43805 4.50529,9.09375 5.98047,9.09375 1.47516,0 5.65642,-6.6557 5.98047,-9.09375 0.014,-0.072 0.0202,-0.14957 0.0176,-0.23829 0.001,-0.0894 -0.006,-0.16769 -0.0176,-0.24023 C 259.6543,491.65382 255.47474,485 254,485 Z m -14,5.33398 c -1.47476,0 -5.6543,6.6538 -5.98047,9.09375 -0.014,0.0734 -0.0202,0.15112 -0.0176,0.24024 -0.001,0.0894 0.006,0.16636 0.0176,0.23828 C 234.34358,502.34432 238.5248,509 240,509 c 1.47516,0 5.65644,-6.65568 5.98047,-9.09375 0.014,-0.072 0.0202,-0.14957 0.0176,-0.23828 0.001,-0.0894 -0.006,-0.16772 -0.0176,-0.24024 -0.32615,-2.43993 -4.50573,-9.09375 -5.98047,-9.09375 z"
       style="display:inline;opacity:1;fill:#000000;fill-opacity:0.2;stroke:none;stroke-width:1.5;stroke-linecap:round;stroke-linejoin:round;stroke-miterlimit:4;stroke-dasharray:none;stroke-opacity:0.2;enable-background:new;filter:url(#filter4639)"
       inkscape:connector-curvature="0" />
    <path
       style="display:inline;opacity:1;fill:#b71c1c;fill-opacity:1;stroke:none;stroke-width:1.5;stroke-linecap:round;stroke-linejoin:round;stroke-miterlimit:4;stroke-dasharray:none;stroke-opacity:0.2;enable-background:new"
       d="M 226 484 C 224.52524 484 220.34572 490.65575 220.01953 493.0957 C 220.00553 493.1691 219.99935 493.24485 220.00195 493.33398 C 220.00095 493.42338 220.00753 493.50035 220.01953 493.57227 C 220.3436 496.01032 224.52482 502.66602 226 502.66602 C 227.47516 502.66602 231.65644 496.01032 231.98047 493.57227 C 231.99447 493.50027 232.00065 493.4227 231.99805 493.33398 C 231.99905 493.24458 231.99247 493.16824 231.98047 493.0957 C 231.65432 490.65577 227.47474 484 226 484 z M 254 484 C 252.52524 484 248.3457 490.6538 248.01953 493.09375 C 248.00553 493.16715 247.9974 493.24485 248 493.33398 C 247.999 493.42338 248.00753 493.50035 248.01953 493.57227 C 248.34358 496.01032 252.52482 502.66602 254 502.66602 C 255.47516 502.66602 259.65642 496.01032 259.98047 493.57227 C 259.99447 493.50027 260.00065 493.4227 259.99805 493.33398 C 259.99905 493.24458 259.99247 493.16629 259.98047 493.09375 C 259.6543 490.65382 255.47474 484 254 484 z M 240 489.33398 C 238.52524 489.33398 234.3457 495.98778 234.01953 498.42773 C 234.00553 498.50113 233.99935 498.57885 234.00195 498.66797 C 234.00095 498.75737 234.00753 498.83433 234.01953 498.90625 C 234.34358 501.34432 238.5248 508 240 508 C 241.47516 508 245.65644 501.34432 245.98047 498.90625 C 245.99447 498.83425 246.00065 498.75668 245.99805 498.66797 C 245.99905 498.57857 245.99247 498.50025 245.98047 498.42773 C 245.65432 495.9878 241.47474 489.33398 240 489.33398 z "
       id="path5485" />
    <path
       style="display:inline;opacity:1;fill:#ffffff;fill-opacity:0.2;stroke:none;stroke-width:1.5;stroke-linecap:round;stroke-linejoin:round;stroke-miterlimit:4;stroke-dasharray:none;stroke-opacity:0.2;enable-background:new"
       d="M 226 484 C 224.52524 484 220.34572 490.65575 220.01953 493.0957 C 220.00553 493.1691 219.99935 493.24485 220.00195 493.33398 C 220.00095 493.42338 220.00753 493.50035 220.01953 493.57227 C 220.03013 493.65203 220.05559 493.74753 220.07422 493.83594 C 220.62366 491.22258 224.57277 485 226 485 C 227.42721 485 231.37637 491.2226 231.92578 493.83594 C 231.94441 493.74753 231.96987 493.65203 231.98047 493.57227 C 231.99447 493.50027 232.00065 493.4227 231.99805 493.33398 C 231.99905 493.24458 231.99247 493.16824 231.98047 493.0957 C 231.65432 490.65577 227.47474 484 226 484 z M 254 484 C 252.52524 484 248.3457 490.6538 248.01953 493.09375 C 248.00553 493.16715 247.9974 493.24485 248 493.33398 C 247.999 493.42338 248.00753 493.50035 248.01953 493.57227 C 248.03013 493.65203 248.05559 493.74753 248.07422 493.83594 C 248.62214 491.22381 252.57242 485 254 485 C 255.42756 485 259.37786 491.22382 259.92578 493.83594 C 259.94441 493.74753 259.96987 493.65203 259.98047 493.57227 C 259.99447 493.50027 260.00065 493.4227 259.99805 493.33398 C 259.99905 493.24458 259.99247 493.16629 259.98047 493.09375 C 259.6543 490.65382 255.47474 484 254 484 z M 240 489.33398 C 238.52524 489.33398 234.3457 495.98778 234.01953 498.42773 C 234.00553 498.50113 233.99935 498.57885 234.00195 498.66797 C 234.00095 498.75737 234.00753 498.83433 234.01953 498.90625 C 234.03013 498.98601 234.05559 499.08151 234.07422 499.16992 C 234.62214 496.55779 238.57242 490.33398 240 490.33398 C 241.42756 490.33398 245.37787 496.55781 245.92578 499.16992 C 245.94441 499.08151 245.96987 498.98601 245.98047 498.90625 C 245.99447 498.83425 246.00065 498.75668 245.99805 498.66797 C 245.99905 498.57857 245.99247 498.50025 245.98047 498.42773 C 245.65432 495.9878 241.47474 489.33398 240 489.33398 z "
       id="path4634" />
    <path
       inkscape:connector-curvature="0"
       style="display:inline;opacity:1;fill:#000000;fill-opacity:0.2;stroke:none;stroke-width:11.99999905;stroke-linecap:round;stroke-linejoin:round;stroke-miterlimit:4;stroke-dasharray:none;stroke-opacity:0.2;enable-background:new"
       d="m 432,178 c -11.79808,0 -45.23424,53.246 -47.84376,72.7656 -0.112,0.5872 -0.1616,1.1932 -0.1408,1.90624 -0.008,0.7152 0.048,1.33096 0.1408,1.90632 2.59256,19.5044 36.04232,72.75 47.84376,72.75 11.80128,0 45.25152,-53.2456 47.84376,-72.75 0.112,-0.576 0.1616,-1.19656 0.1408,-1.90632 0.008,-0.7152 -0.048,-1.32592 -0.1408,-1.90624 C 477.23456,231.24616 443.79792,178 432,178 Z m 224,0 c -11.79808,0 -45.2344,53.2304 -47.84376,72.75 -0.112,0.5872 -0.1768,1.2088 -0.156,1.92184 -0.008,0.7152 0.064,1.33096 0.156,1.90632 2.5924,19.5044 36.04232,72.75 47.84376,72.75 11.80128,0 45.25136,-53.2456 47.84376,-72.75 0.112,-0.576 0.1616,-1.19656 0.1408,-1.90632 0.008,-0.7152 -0.048,-1.34152 -0.1408,-1.92184 C 701.2344,231.23056 667.79792,178 656,178 Z m -112,42.67184 c -11.79808,0 -45.2344,53.2304 -47.84376,72.75 -0.112,0.5872 -0.1616,1.20896 -0.1408,1.92192 -0.008,0.7152 0.048,1.33088 0.1408,1.90624 C 498.74864,316.75456 532.1984,370 544,370 c 11.80128,0 45.25152,-53.24544 47.84376,-72.75 0.112,-0.576 0.1616,-1.19656 0.1408,-1.90624 0.008,-0.7152 -0.048,-1.34176 -0.1408,-1.92192 -2.6092,-19.51944 -36.04584,-72.75 -47.84376,-72.75 z"
       id="path5075" />
    <path
       id="path5082"
       d="m 432,178 c -11.79808,0 -45.23424,53.246 -47.84376,72.7656 -0.112,0.5872 -0.1616,1.1932 -0.1408,1.90624 -0.008,0.7152 0.048,1.33096 0.1408,1.90632 2.59256,19.5044 36.04232,72.75 47.84376,72.75 11.80128,0 45.25152,-53.2456 47.84376,-72.75 0.112,-0.576 0.1616,-1.19656 0.1408,-1.90632 0.008,-0.7152 -0.048,-1.32592 -0.1408,-1.90624 C 477.23456,231.24616 443.79792,178 432,178 Z m 224,0 c -11.79808,0 -45.2344,53.2304 -47.84376,72.75 -0.112,0.5872 -0.1768,1.2088 -0.156,1.92184 -0.008,0.7152 0.064,1.33096 0.156,1.90632 2.5924,19.5044 36.04232,72.75 47.84376,72.75 11.80128,0 45.25136,-53.2456 47.84376,-72.75 0.112,-0.576 0.1616,-1.19656 0.1408,-1.90632 0.008,-0.7152 -0.048,-1.34152 -0.1408,-1.92184 C 701.2344,231.23056 667.79792,178 656,178 Z m -112,42.67184 c -11.79808,0 -45.2344,53.2304 -47.84376,72.75 -0.112,0.5872 -0.1616,1.20896 -0.1408,1.92192 -0.008,0.7152 0.048,1.33088 0.1408,1.90624 C 498.74864,316.75456 532.1984,370 544,370 c 11.80128,0 45.25152,-53.24544 47.84376,-72.75 0.112,-0.576 0.1616,-1.19656 0.1408,-1.90624 0.008,-0.7152 -0.048,-1.34176 -0.1408,-1.92192 -2.6092,-19.51944 -36.04584,-72.75 -47.84376,-72.75 z"
       style="display:inline;opacity:1;fill:#000000;fill-opacity:0.2;stroke:none;stroke-width:11.99999905;stroke-linecap:round;stroke-linejoin:round;stroke-miterlimit:4;stroke-dasharray:none;stroke-opacity:0.2;enable-background:new;filter:url(#filter5088)"
       inkscape:connector-curvature="0" />
    <path
       id="path5073"
       d="m 432,176.00021 c -11.79808,0 -45.23424,53.246 -47.84376,72.7656 -0.112,0.5872 -0.1616,1.1932 -0.1408,1.90624 -0.008,0.7152 0.048,1.33096 0.1408,1.90632 2.59256,19.5044 36.04232,72.75 47.84376,72.75 11.80128,0 45.25152,-53.2456 47.84376,-72.75 0.112,-0.576 0.1616,-1.19656 0.1408,-1.90632 0.008,-0.7152 -0.048,-1.32592 -0.1408,-1.90624 -2.6092,-19.51944 -36.04584,-72.7656 -47.84376,-72.7656 z m 224,0 c -11.79808,0 -45.2344,53.2304 -47.84376,72.75 -0.112,0.5872 -0.1768,1.2088 -0.156,1.92184 -0.008,0.7152 0.064,1.33096 0.156,1.90632 2.5924,19.5044 36.04232,72.75 47.84376,72.75 11.80128,0 45.25136,-53.2456 47.84376,-72.75 0.112,-0.576 0.1616,-1.19656 0.1408,-1.90632 0.008,-0.7152 -0.048,-1.34152 -0.1408,-1.92184 -2.60936,-19.51944 -36.04584,-72.75 -47.84376,-72.75 z m -112,42.67184 c -11.79808,0 -45.2344,53.2304 -47.84376,72.75 -0.112,0.5872 -0.1616,1.20896 -0.1408,1.92192 -0.008,0.7152 0.048,1.33088 0.1408,1.90624 2.5924,19.50456 36.04216,72.75 47.84376,72.75 11.80128,0 45.25152,-53.24544 47.84376,-72.75 0.112,-0.576 0.1616,-1.19656 0.1408,-1.90624 0.008,-0.7152 -0.048,-1.34176 -0.1408,-1.92192 -2.6092,-19.51944 -36.04584,-72.75 -47.84376,-72.75 z"
       style="display:inline;opacity:1;fill:#b71c1c;fill-opacity:1;stroke:none;stroke-width:11.99999905;stroke-linecap:round;stroke-linejoin:round;stroke-miterlimit:4;stroke-dasharray:none;stroke-opacity:0.2;enable-background:new"
       inkscape:connector-curvature="0" />
    <path
       style="display:inline;opacity:1;fill:#ffffff;fill-opacity:0.2;stroke:none;stroke-width:11.99999905;stroke-linecap:round;stroke-linejoin:round;stroke-miterlimit:4;stroke-dasharray:none;stroke-opacity:0.2;enable-background:new"
       d="M 432 176 C 420.20192 176 386.76577 229.24603 384.15625 248.76562 C 384.04425 249.35282 383.99482 249.95883 384.01562 250.67188 C 384.01197 250.99893 384.02637 251.30068 384.04688 251.5918 C 384.07124 251.30802 384.10521 251.03324 384.15625 250.76562 C 386.76577 231.24602 420.20192 178 432 178 C 443.79792 178 477.23455 231.24618 479.84375 250.76562 C 479.89421 251.08118 479.9288 251.41042 479.95312 251.75586 C 479.98225 251.41511 479.9957 251.0583 479.98438 250.67188 C 479.99237 249.95667 479.93655 249.34595 479.84375 248.76562 C 477.23455 229.24618 443.79792 176 432 176 z M 656 176 C 644.20192 176 610.76561 229.2304 608.15625 248.75 C 608.04425 249.3372 607.9792 249.95883 608 250.67188 C 607.9963 251.00238 608.01256 251.3077 608.03711 251.60156 C 608.06492 251.3073 608.10407 251.02356 608.15625 250.75 C 610.76561 231.2304 644.20192 178 656 178 C 667.79792 178 701.23439 231.23056 703.84375 250.75 C 703.89445 251.06706 703.93078 251.4024 703.95508 251.75391 C 703.98405 251.41383 703.99567 251.05744 703.98438 250.67188 C 703.99238 249.95667 703.93655 249.33032 703.84375 248.75 C 701.23439 229.23056 667.79792 176 656 176 z M 544 218.67188 C 532.20192 218.67188 498.76561 271.90228 496.15625 291.42188 C 496.04425 292.00907 495.99482 292.63079 496.01562 293.34375 C 496.012 293.66801 496.02477 293.967 496.04492 294.25586 C 496.06928 293.96818 496.10515 293.68979 496.15625 293.42188 C 498.76561 273.90228 532.20192 220.67188 544 220.67188 C 555.79792 220.67188 589.23455 273.90244 591.84375 293.42188 C 591.89445 293.73884 591.93078 294.07422 591.95508 294.42578 C 591.98405 294.08571 591.99567 293.72927 591.98438 293.34375 C 591.99238 292.62855 591.93655 292.00203 591.84375 291.42188 C 589.23455 271.90244 555.79792 218.67188 544 218.67188 z "
       id="path5077" />
    <path
       style="display:inline;fill:url(#linearGradient4171-1-0);fill-opacity:1;stroke:none;stroke-width:2;stroke-linecap:round;stroke-linejoin:round;stroke-miterlimit:4;stroke-dasharray:none;stroke-opacity:1;enable-background:new"
       d="m 151,484 c -1.662,0 -3,1.338 -3,3 v 7.91992 18.19141 V 521 c 0,1.662 1.338,3 3,3 h 7.91992 18.17969 H 185 c 1.662,0 3,-1.338 3,-3 V 513.07812 494.89258 487 c 0,-1.662 -1.338,-3 -3,-3 h -7.91992 -18.17969 z"
       id="circle4163-3-4"
       inkscape:connector-curvature="0" />
    <path
       style="display:inline;fill:url(#linearGradient4347);fill-opacity:1;stroke:none;stroke-width:2;stroke-linecap:round;stroke-linejoin:round;stroke-miterlimit:4;stroke-dasharray:none;stroke-opacity:1;enable-background:new"
       d="m 56,506 c -1.108,0 -2,0.892 -2,2 v 3.46094 9.09375 V 524 c 0,1.108 0.892,2 2,2 H 59.460938 68.550781 72 c 1.108,0 2,-0.892 2,-2 V 520.53906 511.44531 508 c 0,-1.108 -0.892,-2 -2,-2 h -3.460938 -9.089843 z"
       id="path4345"
       inkscape:connector-curvature="0" />
    <path
       style="display:inline;fill:url(#linearGradient4435);fill-opacity:1;stroke:none;stroke-width:2;stroke-linecap:round;stroke-linejoin:round;stroke-miterlimit:4;stroke-dasharray:none;stroke-opacity:1;enable-background:new"
       d="m 101,498 c -1.662,0 -3,1.338 -3,3 v 5.66211 10.67578 V 523 c 0,1.662 1.338,3 3,3 h 5.6875 10.64844 H 123 c 1.662,0 3,-1.338 3,-3 V 517.33789 506.66602 501 c 0,-1.662 -1.338,-3 -3,-3 h -5.6875 -10.64844 z"
       id="path4433"
       inkscape:connector-curvature="0" />
    <path
       style="display:inline;fill:url(#linearGradient4449-0);fill-opacity:1;stroke:none;stroke-width:16;stroke-linecap:round;stroke-linejoin:round;stroke-miterlimit:4;stroke-dasharray:none;stroke-opacity:1;enable-background:new"
       d="m 356,48 c -19.944,0 -36,16.056 -36,36 V 186.5918 357.37695 460 c 0,19.944 16.056,36 36,36 H 458.98242 629.36523 732 c 19.944,0 36,-16.056 36,-36 V 357.39648 186.6543 84 C 768,64.056 751.944,48 732,48 H 629.00586 458.625 Z"
       id="path4447"
       inkscape:connector-curvature="0" />
    <path
       inkscape:connector-curvature="0"
       id="path4533"
       d="m 216.5,468 c -2.493,0 -4.5,2.007 -4.5,4.5 V 485.32398 506.67212 519.5 c 0,2.493 2.007,4.5 4.5,4.5 H 229.3728 250.67065 263.5 c 2.493,0 4.5,-2.007 4.5,-4.5 V 506.67456 485.33179 472.5 c 0,-2.493 -2.007,-4.5 -4.5,-4.5 h -12.87427 -21.29761 z"
       style="display:inline;fill:url(#linearGradient4535);fill-opacity:1;stroke:none;stroke-width:2;stroke-linecap:round;stroke-linejoin:round;stroke-miterlimit:4;stroke-dasharray:none;stroke-opacity:1;enable-background:new" />
  </g>
</svg>
