<?xml version="1.0" encoding="UTF-8" standalone="no"?>
<!-- Created with Inkscape (http://www.inkscape.org/) -->

<svg
   xmlns:dc="http://purl.org/dc/elements/1.1/"
   xmlns:cc="http://creativecommons.org/ns#"
   xmlns:rdf="http://www.w3.org/1999/02/22-rdf-syntax-ns#"
   xmlns:svg="http://www.w3.org/2000/svg"
   xmlns="http://www.w3.org/2000/svg"
   xmlns:xlink="http://www.w3.org/1999/xlink"
   xmlns:sodipodi="http://sodipodi.sourceforge.net/DTD/sodipodi-0.dtd"
   xmlns:inkscape="http://www.inkscape.org/namespaces/inkscape"
   width="842"
   height="544"
   viewBox="0 0 842 544"
   version="1.1"
   id="svg1087"
   inkscape:version="0.92.1 r"
   sodipodi:docname="gnome-contacts.svg">
  <defs
     id="defs1081">
    <filter
       inkscape:collect="always"
       style="color-interpolation-filters:sRGB"
       id="filter5087"
       x="-0.048"
       width="1.096"
       y="-0.048"
       height="1.096">
      <feGaussianBlur
         inkscape:collect="always"
         stdDeviation="0.8"
         id="feGaussianBlur5089" />
    </filter>
    <filter
       inkscape:collect="always"
       style="color-interpolation-filters:sRGB"
       id="filter4546"
       x="-0.013636364"
       width="1.0272727"
       y="-0.010714286"
       height="1.0214286">
      <feGaussianBlur
         inkscape:collect="always"
         stdDeviation="0.25"
         id="feGaussianBlur4548" />
    </filter>
    <filter
       inkscape:collect="always"
       style="color-interpolation-filters:sRGB"
       id="filter4564"
       x="-0.027272727"
       width="1.0545455"
       y="-0.02142857"
       height="1.0428571">
      <feGaussianBlur
         inkscape:collect="always"
         stdDeviation="4"
         id="feGaussianBlur4566" />
    </filter>
    <linearGradient
       inkscape:collect="always"
       xlink:href="#linearGradient4730"
       id="linearGradient4620"
       gradientUnits="userSpaceOnUse"
       gradientTransform="matrix(0.4782599,0,0,0.47826359,78.52174,24.17187)"
       x1="7"
       y1="1011.3622"
       x2="41.000019"
       y2="1045.3622" />
    <linearGradient
       id="linearGradient4730"
       inkscape:collect="always">
      <stop
         id="stop4726"
         offset="0"
         style="stop-color:#ffffff;stop-opacity:0.05490196" />
      <stop
         id="stop4728"
         offset="1"
         style="stop-color:#177ed5;stop-opacity:0;" />
    </linearGradient>
    <linearGradient
       inkscape:collect="always"
       xlink:href="#linearGradient4730"
       id="linearGradient4435"
       gradientUnits="userSpaceOnUse"
       gradientTransform="matrix(0.65217041,0,0,0.65217328,122.34777,-158.67056)"
       x1="7"
       y1="1011.3622"
       x2="41.000019"
       y2="1045.3622" />
    <linearGradient
       inkscape:collect="always"
       xlink:href="#linearGradient4730"
       id="linearGradient4171-1-0"
       x1="7"
       y1="1011.3622"
       x2="41.000019"
       y2="1045.3622"
       gradientUnits="userSpaceOnUse"
       gradientTransform="matrix(0.95652174,0,0,0.95652174,171.0435,-479.6504)" />
    <linearGradient
       inkscape:collect="always"
       xlink:href="#linearGradient4730"
       id="linearGradient4537"
       gradientUnits="userSpaceOnUse"
       gradientTransform="matrix(1.3043412,0,0,1.3043465,234.69565,-845.3402)"
       x1="7"
       y1="1011.3622"
       x2="41.000019"
       y2="1045.3622" />
    <linearGradient
       inkscape:collect="always"
       xlink:href="#linearGradient4730"
       id="linearGradient4449-0"
       gradientUnits="userSpaceOnUse"
       gradientTransform="matrix(10.43473,0,0,10.434772,319.56521,-10458.722)"
       x1="7"
       y1="1011.3622"
       x2="41.000019"
       y2="1045.3622" />
    <filter
       inkscape:collect="always"
       style="color-interpolation-filters:sRGB"
       id="filter4634"
       x="-0.012"
       width="1.024"
       y="-0.012"
       height="1.024">
      <feGaussianBlur
         inkscape:collect="always"
         stdDeviation="0.12"
         id="feGaussianBlur4636" />
    </filter>
    <filter
       inkscape:collect="always"
       style="color-interpolation-filters:sRGB"
       id="filter4653"
       x="-0.012"
       width="1.024"
       y="-0.012"
       height="1.024">
      <feGaussianBlur
         inkscape:collect="always"
         stdDeviation="0.09"
         id="feGaussianBlur4655" />
    </filter>
    <filter
       inkscape:collect="always"
       style="color-interpolation-filters:sRGB"
       id="filter4661"
       x="-0.0135"
       width="1.027"
       y="-0.0108"
       height="1.0216">
      <feGaussianBlur
         inkscape:collect="always"
         stdDeviation="0.18"
         id="feGaussianBlur4663" />
    </filter>
    <filter
       inkscape:collect="always"
       style="color-interpolation-filters:sRGB"
       id="filter4699"
       x="-0.024"
       width="1.048"
       y="-0.024"
       height="1.048">
      <feGaussianBlur
         inkscape:collect="always"
         stdDeviation="1.92"
         id="feGaussianBlur4701" />
    </filter>
    <linearGradient
       inkscape:collect="always"
       xlink:href="#linearGradient4730"
       id="linearGradient4580"
       gradientUnits="userSpaceOnUse"
       gradientTransform="matrix(0.4782599,0,0,0.47826359,43.52174,25.17187)"
       x1="7"
       y1="1011.3622"
       x2="41.000019"
       y2="1045.3622" />
  </defs>
  <sodipodi:namedview
     id="base"
     pagecolor="#c3c3c3"
     bordercolor="#333333"
     borderopacity="1"
     inkscape:pageopacity="0"
     inkscape:pageshadow="2"
     inkscape:zoom="16"
     inkscape:cx="69.618426"
     inkscape:cy="21.214634"
     inkscape:document-units="px"
     inkscape:current-layer="layer1"
     showgrid="true"
     units="px"
     inkscape:showpageshadow="false"
     inkscape:window-width="2560"
     inkscape:window-height="1369"
     inkscape:window-x="0"
     inkscape:window-y="35"
     inkscape:window-maximized="1"
     showguides="false">
    <inkscape:grid
       type="xygrid"
       id="grid4630" />
  </sodipodi:namedview>
  <metadata
     id="metadata1084">
    <rdf:RDF>
      <cc:Work
         rdf:about="">
        <dc:format>image/svg+xml</dc:format>
        <dc:type
           rdf:resource="http://purl.org/dc/dcmitype/StillImage" />
        <dc:title></dc:title>
        <cc:license
           rdf:resource="http://creativecommons.org/licenses/by-sa/4.0/" />
        <dc:creator>
          <cc:Agent>
            <dc:title>Peter Cornelis</dc:title>
          </cc:Agent>
        </dc:creator>
      </cc:Work>
      <cc:License
         rdf:about="http://creativecommons.org/licenses/by-sa/4.0/">
        <cc:permits
           rdf:resource="http://creativecommons.org/ns#Reproduction" />
        <cc:permits
           rdf:resource="http://creativecommons.org/ns#Distribution" />
        <cc:requires
           rdf:resource="http://creativecommons.org/ns#Notice" />
        <cc:requires
           rdf:resource="http://creativecommons.org/ns#Attribution" />
        <cc:permits
           rdf:resource="http://creativecommons.org/ns#DerivativeWorks" />
        <cc:requires
           rdf:resource="http://creativecommons.org/ns#ShareAlike" />
      </cc:License>
    </rdf:RDF>
  </metadata>
  <g
     inkscape:label="Baseplate"
     inkscape:groupmode="layer"
     id="layer1"
     transform="translate(0,-153.06668)"
     style="display:none">
    <rect
       style="display:inline;overflow:visible;visibility:visible;fill:#fefefe;fill-opacity:1;fill-rule:nonzero;stroke:none;stroke-width:2;marker:none;enable-background:accumulate"
       id="rect3951"
       width="512"
       height="512"
       x="-826"
       y="169.06668"
       inkscape:label="48x48"
       transform="scale(-1,1)" />
    <text
       y="733.32251"
       xml:space="preserve"
       x="15.006836"
       style="font-style:normal;font-variant:normal;font-weight:normal;font-stretch:normal;line-height:0%;font-family:'DejaVu Sans';-inkscape-font-specification:'DejaVu Sans';display:inline;fill:#000000;fill-opacity:1;stroke:none;enable-background:new"
       inkscape:label="context"
       id="context"><tspan
         style="font-style:normal;font-variant:normal;font-weight:normal;font-stretch:normal;font-size:18px;line-height:1.25;font-family:'DejaVu Sans';-inkscape-font-specification:'DejaVu Sans'"
         y="733.32251"
         x="15.006836"
         sodipodi:role="line"
         id="tspan3933">apps</tspan></text>
    <text
       y="733.32251"
       xml:space="preserve"
       x="142.48828"
       style="font-style:normal;font-variant:normal;font-weight:bold;font-stretch:normal;line-height:0%;font-family:'DejaVu Sans';-inkscape-font-specification:'DejaVu Sans Bold';text-align:start;writing-mode:lr-tb;text-anchor:start;display:inline;fill:#000000;fill-opacity:1;stroke:none;enable-background:new"
       inkscape:label="icon-name"
       id="icon-name"><tspan
         style="font-style:normal;font-variant:normal;font-weight:bold;font-stretch:normal;font-size:18px;line-height:1.25;font-family:'DejaVu Sans';-inkscape-font-specification:'DejaVu Sans Bold'"
         y="733.32251"
         x="142.48828"
         sodipodi:role="line"
         id="tspan3937">gnome-contacts</tspan></text>
    <rect
       style="display:inline;overflow:visible;visibility:visible;fill:#fefefe;fill-opacity:1;fill-rule:nonzero;stroke:none;stroke-width:2;marker:none;enable-background:accumulate"
       id="rect16x16"
       width="16"
       height="16"
       x="-32"
       y="665.06665"
       inkscape:label="16x16"
       transform="scale(-1,1)" />
    <rect
       style="display:inline;overflow:visible;visibility:visible;fill:#fefefe;fill-opacity:1;fill-rule:nonzero;stroke:none;stroke-width:2;marker:none;enable-background:accumulate"
       id="rect24x24"
       width="24"
       height="24"
       x="-102"
       y="657.06665"
       inkscape:label="24x24"
       transform="scale(-1,1)" />
    <rect
       style="display:inline;overflow:visible;visibility:visible;fill:#fefefe;fill-opacity:1;fill-rule:nonzero;stroke:none;stroke-width:2;marker:none;enable-background:accumulate"
       id="rect32x32"
       width="32"
       height="32"
       x="-154"
       y="649.06665"
       inkscape:label="32x32"
       transform="scale(-1,1)" />
    <rect
       inkscape:label="48x48"
       y="633.06665"
       x="-218"
       height="48"
       width="48"
       id="rect48x48"
       style="display:inline;overflow:visible;visibility:visible;fill:#fefefe;fill-opacity:1;fill-rule:nonzero;stroke:none;stroke-width:2;marker:none;enable-background:accumulate"
       transform="scale(-1,1)" />
    <rect
       transform="scale(-1,1)"
       inkscape:label="48x48"
       y="617.06665"
       x="-298"
       height="64"
       width="64"
       id="rect4527"
       style="display:inline;overflow:visible;visibility:visible;fill:#fefefe;fill-opacity:1;fill-rule:nonzero;stroke:none;stroke-width:0.25;marker:none;enable-background:accumulate" />
    <rect
       style="display:inline;overflow:visible;visibility:visible;fill:#fefefe;fill-opacity:1;fill-rule:nonzero;stroke:none;stroke-width:2;marker:none;enable-background:accumulate"
       id="rect4665"
       width="512"
       height="512"
       x="-826"
       y="169.06665"
       inkscape:label="48x48"
       transform="scale(-1,1)" />
    <rect
       transform="scale(-1,1)"
       inkscape:label="24x24"
       y="659.06665"
       x="-66"
       height="22"
       width="22"
       id="rect4562"
       style="display:inline;overflow:visible;visibility:visible;fill:#fefefe;fill-opacity:1;fill-rule:nonzero;stroke:none;stroke-width:1.83333325;marker:none;enable-background:accumulate" />
  </g>
  <g
     inkscape:groupmode="layer"
     id="layer2"
     inkscape:label="Bitmap"
     style="display:inline">
    <path
       sodipodi:nodetypes="ccscc"
       inkscape:connector-curvature="0"
       id="path5069"
       d="m 206,522 v -17 -17 c 0,-1.6942 -1.29127,-3 -3,-3 -47.91141,17.02543 2.47621,55.9337 3,37 z"
       style="display:inline;fill:none;fill-opacity:0.5;stroke:none;stroke-width:2;stroke-linecap:round;stroke-linejoin:round;stroke-miterlimit:4;stroke-dasharray:none;stroke-opacity:1;filter:url(#filter5087);enable-background:new" />
    <path
       sodipodi:nodetypes="ssccssssccsscs"
       inkscape:connector-curvature="0"
       id="path4657"
       d="m 181,485 c -1.662,0 -3,1.338 -3,3 v 1.95312 30.13282 V 522 c 0,1.662 1.338,3 3,3 h 26 c 1.662,0 3,-1.338 3,-3 V 520.04492 497 488 c 0,-1.662 -1.338,-3 -3,-3 h -9 z"
       style="display:inline;fill:#000000;fill-opacity:0.2;stroke:none;stroke-width:2;stroke-linecap:round;stroke-linejoin:round;stroke-miterlimit:4;stroke-dasharray:none;stroke-opacity:1;filter:url(#filter4661);enable-background:new" />
    <path
       style="opacity:1;fill:#1e88e5;fill-opacity:1;stroke:none"
       d="m 181,484 c -1.662,0 -3,1.338 -3,3 v 34 c 0,1.662 1.338,3 3,3 h 26 c 1.662,0 3,-1.338 3,-3 v -25 -9 c 0,-1.662 -1.338,-3 -3,-3 h -9 z"
       id="rect4648"
       inkscape:connector-curvature="0"
       sodipodi:nodetypes="sssssscsscs" />
    <path
       style="opacity:1;fill:#000000;fill-opacity:0.15;stroke:none;stroke-opacity:0.2"
       d="m 181,484 c -1.662,0 -3,1.338 -3,3 v 34 c 0,1.662 1.338,3 3,3 h 3 v -40 z"
       id="rect4603"
       inkscape:connector-curvature="0"
       sodipodi:nodetypes="ssssccs" />
    <path
       style="opacity:1;fill:#ffffff;fill-opacity:0.2;stroke:none"
       d="m 181,484 c -1.662,0 -3,1.338 -3,3 v 1 c 0,-1.662 1.338,-3 3,-3 h 8 10 8 c 1.662,0 3,1.338 3,3 v -1 c 0,-1.662 -1.338,-3 -3,-3 h -9 -8 z"
       id="path4671"
       inkscape:connector-curvature="0"
       sodipodi:nodetypes="sscsccscssccs" />
    <path
       style="display:inline;fill:none;fill-opacity:0.5;stroke:none;stroke-width:2;stroke-linecap:round;stroke-linejoin:round;stroke-miterlimit:4;stroke-dasharray:none;stroke-opacity:1;filter:url(#filter5087);enable-background:new"
       d="m 206,522 v -17 -17 c 0,-1.6942 -1.29127,-3 -3,-3 -47.91141,17.02543 2.47621,55.9337 3,37 z"
       id="path4506"
       inkscape:connector-curvature="0"
       sodipodi:nodetypes="ccscc" />
    <path
       inkscape:connector-curvature="0"
       id="path4533"
       d="m 84,507 c -1.108,0 -2,0.892 -2,2 v 16 c 0,1.108 0.892,2 2,2 h 12 c 1.108,0 2,-0.892 2,-2 v -12 l -6,-6 z"
       style="opacity:1;fill:#000000;fill-opacity:0.2;stroke:none" />
    <path
       style="opacity:1;fill:#1e88e5;fill-opacity:1;stroke:none"
       d="m 84,506 c -1.108,0 -2,0.892 -2,2 v 16 c 0,1.108 0.892,2 2,2 h 12 c 1.108,0 2,-0.892 2,-2 v -12 -4 c 0,-1.108 -0.892,-2 -2,-2 h -4 z"
       id="rect4555"
       inkscape:connector-curvature="0" />
    <path
       style="opacity:1;fill:#000000;fill-opacity:0.15;stroke:none;stroke-opacity:0.2"
       d="m 84,506 c -1.108,0 -2,0.892 -2,2 v 16 c 0,1.108 0.892,2 2,2 h 1 v -20 z"
       id="rect4580"
       inkscape:connector-curvature="0" />
    <path
       style="opacity:1;fill:#ffffff;fill-opacity:0.2;stroke:none"
       d="m 84,506 c -1.108,0 -2,0.892 -2,2 v 1 c 0,-1.108 0.892,-2 2,-2 h 3 6 3 c 1.108,0 2,0.892 2,2 v -1 c 0,-1.108 -0.892,-2 -2,-2 h -4 -4 z"
       id="path4566"
       inkscape:connector-curvature="0" />
    <path
       inkscape:connector-curvature="0"
       style="display:inline;fill:#000000;fill-opacity:0.2;stroke:none;filter:url(#filter4564);enable-background:new"
       d="m 418,50 c -13.296,0 -24,10.704 -24,24 v 400 c 0,13.296 10.704,24 24,24 h 304 c 13.296,0 24,-10.704 24,-24 V 194 L 602,50 Z"
       id="path4558" />
    <path
       id="path4556"
       d="m 418,50 c -13.296,0 -24,10.704 -24,24 v 400 c 0,13.296 10.704,24 24,24 h 304 c 13.296,0 24,-10.704 24,-24 V 194 L 602,50 Z"
       style="display:inline;fill:#000000;fill-opacity:0.2;stroke:none;enable-background:new"
       inkscape:connector-curvature="0" />
    <path
       style="display:inline;fill:#1e88e5;fill-opacity:1;stroke:none;enable-background:new"
       d="m 418,48 c -13.296,0 -24,10.704 -24,24 v 400 c 0,13.296 10.704,24 24,24 h 304 c 13.296,0 24,-10.704 24,-24 V 192 72 C 746,58.7452 735.2548,48 722,48 H 602 Z"
       id="rect3362"
       inkscape:connector-curvature="0" />
    <path
       style="display:inline;fill:#ffffff;fill-opacity:0.2;stroke:none;stroke-width:16;stroke-linecap:round;stroke-linejoin:round;stroke-miterlimit:4;stroke-dasharray:none;stroke-opacity:1;enable-background:new"
       d="m 418,48 c -13.296,0 -24,10.704 -24,24 v 2 c 0,-13.296 10.704,-24 24,-24 h 6 60.625 6 45.375 66 2 45.375 6 60.625 6 c 13.296,0 24,10.704 24,24 V 72 C 746,58.704 735.296,48 722,48 H 655.375 602 538 484.625 Z"
       id="path4637"
       inkscape:connector-curvature="0" />
    <path
       id="path4672"
       d="m 418,48.000207 c -13.296,0 -24,10.704 -24,24 V 472.00021 c 0,13.296 10.704,24 24,24 h 16 8 16 V 48.000207 h -16 -8 z"
       style="opacity:1;fill:#000000;fill-opacity:0.15;stroke:none;stroke-width:8;stroke-opacity:0.2"
       inkscape:connector-curvature="0" />
    <path
       style="display:inline;fill:#1e88e5;fill-opacity:1;fill-rule:evenodd;stroke:none;stroke-width:4.86648273px;stroke-linecap:butt;stroke-linejoin:miter;stroke-opacity:1;enable-background:new"
       d="m 18,512 c -1.108,0 -2,0.89199 -2,2 v 12 c 0,1.10801 0.892,2 2,2 h 12 c 1.108,0 2,-0.89199 2,-2 v -8 -4 c 0,-1.108 -0.892,-2 -2,-2 h -4 z"
       id="rect4630-7-2"
       inkscape:connector-curvature="0" />
    <path
       inkscape:connector-curvature="0"
       id="path4536"
       d="m 129,499 c -1.108,0 -2,0.892 -2,2 v 24 c 0,1.108 0.892,2 2,2 h 18 c 1.108,0 2,-0.892 2,-2 v -18 l -8,-8 z"
       style="opacity:1;fill:#000000;fill-opacity:0.2;stroke:none" />
    <path
       style="opacity:1;fill:#1e88e5;fill-opacity:1;stroke:none"
       d="m 129,498 c -1.108,0 -2,0.892 -2,2 v 24 c 0,1.108 0.892,2 2,2 h 18 c 1.108,0 2,-0.892 2,-2 v -18 -6 c 0,-1.108 -0.892,-2 -2,-2 h -6 z"
       id="rect4526"
       inkscape:connector-curvature="0" />
    <path
       style="opacity:1;fill:#000000;fill-opacity:0.15;stroke:none;stroke-opacity:0.2"
       d="m 129,498 c -1.108,0 -2,0.892 -2,2 v 24 c 0,1.108 0.892,2 2,2 h 2 v -28 z"
       id="rect4587"
       inkscape:connector-curvature="0" />
    <path
       style="opacity:1;fill:#ffffff;fill-opacity:0.2;stroke:none"
       d="m 129,498 c -1.108,0 -2,0.892 -2,2 v 1 c 0,-1.108 0.892,-2 2,-2 h 5 8 5 c 1.108,0 2,0.892 2,2 v -1 c 0,-1.108 -0.892,-2 -2,-2 h -6 -6 z"
       id="rect4529"
       inkscape:connector-curvature="0" />
    <path
       inkscape:connector-curvature="0"
       id="path4544"
       d="m 247,469 c -1.662,0 -3,1.338 -3,3 v 50 c 0,1.662 1.338,3 3,3 h 38 c 1.662,0 3,-1.338 3,-3 v -35 l -18,-18 z m 38.60547,0.0605 c 0.39058,0.0799 0.75306,0.23552 1.07226,0.45117 -0.31876,-0.21473 -0.68155,-0.37163 -1.07226,-0.45117 z m 1.07422,0.45117 c 0.31825,0.21524 0.59335,0.49034 0.80859,0.80859 -0.21523,-0.3191 -0.48949,-0.59336 -0.80859,-0.80859 z m 0.80859,0.81055 c 0.21565,0.3192 0.37125,0.68168 0.45117,1.07226 -0.0795,-0.39071 -0.23644,-0.7535 -0.45117,-1.07226 z"
       style="opacity:1;fill:#000000;fill-opacity:0.2;stroke:none;stroke-opacity:1;filter:url(#filter4546)" />
    <path
       style="opacity:1;fill:#1e88e5;fill-opacity:1;stroke:none;stroke-opacity:1"
       d="m 247,468 c -1.662,0 -3,1.338 -3,3 v 50 c 0,1.662 1.338,3 3,3 h 38 c 1.662,0 3,-1.338 3,-3 v -35 -15 c 0,-0.20711 -0.0206,-0.41018 -0.0605,-0.60547 -0.0799,-0.39058 -0.23552,-0.75306 -0.45117,-1.07226 -0.21565,-0.31921 -0.49134,-0.5949 -0.81055,-0.81055 -0.3192,-0.21565 -0.68168,-0.37127 -1.07226,-0.45117 C 285.41018,468.02058 285.20711,468 285,468 h -15 z"
       id="rect4543"
       inkscape:connector-curvature="0" />
    <path
       style="opacity:1;fill:#000000;fill-opacity:0.15;stroke:none;stroke-opacity:0.2"
       d="m 247,468 c -1.662,0 -3,1.338 -3,3 v 50 c 0,1.662 1.338,3 3,3 h 2 1 2 v -56 h -2 -1 z"
       id="rect4623"
       inkscape:connector-curvature="0" />
    <path
       style="opacity:1;fill:#ffffff;fill-opacity:0.2;stroke:none;stroke-opacity:1"
       d="m 247,468 c -1.662,0 -3,1.338 -3,3 v 1 c 0,-1.662 1.338,-3 3,-3 h 14 10 14 c 1.662,0 3,1.338 3,3 v -1 c 0,-1.662 -1.338,-3 -3,-3 h -15 -8 z"
       id="path4550"
       inkscape:connector-curvature="0" />
    <path
       inkscape:connector-curvature="0"
       style="display:inline;fill:#000000;fill-opacity:0.2;stroke:none;enable-background:new"
       d="m 91,513 c -2.209137,0 -4,1.79086 -4,4 0,2.20914 1.790863,4 4,4 h 2.5 c 0,0 0.468797,0 0.5,-0.5 C 94,520 93.5,520 93.5,520 H 91 c -1.656863,0 -3,-1.34315 -3,-3 0,-1.65687 1.343137,-3 3,-3 1.656863,0 3,1.34313 3,3 v 0.5 c 0,0.27614 -0.223863,0.5 -0.5,0.5 -0.276137,0 -0.5,-0.22386 -0.5,-0.5 V 517 c 0,-1.10457 -0.89543,-2 -2,-2 -1.10457,0 -2,0.89543 -2,2 0,1.10457 0.89543,2 2,2 0.52308,0 0.995173,-0.20643 1.35156,-0.53515 0.28517,0.33887 0.70553,0.53537 1.14844,0.53515 0.82843,0 1.5,-0.67157 1.5,-1.5 V 517 c 0,-2.20914 -1.790863,-4 -4,-4 z m 0,3 c 0.55229,0 1,0.44772 1,1 0,0.55228 -0.44771,1 -1,1 -0.55229,0 -1,-0.44772 -1,-1 0,-0.55228 0.44771,-1 1,-1 z"
       id="path4619" />
    <path
       id="path5513"
       d="m 91,512 c -2.209137,0 -4,1.79086 -4,4 0,2.20914 1.790863,4 4,4 h 2.5 c 0,0 0.468797,0 0.5,-0.5 C 94,519 93.5,519 93.5,519 H 91 c -1.656863,0 -3,-1.34315 -3,-3 0,-1.65687 1.343137,-3 3,-3 1.656863,0 3,1.34313 3,3 v 0.5 c 0,0.27614 -0.223863,0.5 -0.5,0.5 -0.276137,0 -0.5,-0.22386 -0.5,-0.5 V 516 c 0,-1.10457 -0.89543,-2 -2,-2 -1.10457,0 -2,0.89543 -2,2 0,1.10457 0.89543,2 2,2 0.52308,0 0.995173,-0.20643 1.35156,-0.53515 0.28517,0.33887 0.70553,0.53537 1.14844,0.53515 0.82843,0 1.5,-0.67157 1.5,-1.5 V 516 c 0,-2.20914 -1.790863,-4 -4,-4 z m 0,3 c 0.55229,0 1,0.44772 1,1 0,0.55228 -0.44771,1 -1,1 -0.55229,0 -1,-0.44772 -1,-1 0,-0.55228 0.44771,-1 1,-1 z"
       style="display:inline;fill:#f5f5f5;fill-opacity:1;stroke:none;enable-background:new"
       inkscape:connector-curvature="0" />
    <path
       style="display:inline;fill:url(#linearGradient4620);fill-opacity:1;stroke:none;stroke-width:1.46667397;stroke-linecap:round;stroke-linejoin:round;stroke-miterlimit:4;stroke-dasharray:none;stroke-opacity:1;enable-background:new"
       d="m 84,506 c -1.108,0 -2,0.892 -2,2 v 0.47656 15.06641 V 524 c 0,1.108 0.892,2 2,2 h 12 c 1.108,0 2,-0.892 2,-2 V 523.52344 512 508 c 0,-1.108 -0.892,-2 -2,-2 h -4 z"
       id="path4618"
       inkscape:connector-curvature="0" />
    <path
       inkscape:connector-curvature="0"
       style="display:inline;fill:#f5f5f5;fill-opacity:1;stroke:none;enable-background:new"
       d="m 25,516 c -2.209137,0 -4,1.79086 -4,4 0,2.20914 1.790863,4 4,4 h 2.5 c 0,0 0.468797,0 0.5,-0.5 C 28,523 27.5,523 27.5,523 H 25 c -1.656863,0 -3,-1.34315 -3,-3 0,-1.65687 1.343137,-3 3,-3 1.656863,0 3,1.34313 3,3 v 0.5 c 0,0.27614 -0.223863,0.5 -0.5,0.5 -0.276137,0 -0.5,-0.22386 -0.5,-0.5 V 520 c 0,-1.10457 -0.89543,-2 -2,-2 -1.10457,0 -2,0.89543 -2,2 0,1.10457 0.89543,2 2,2 0.52308,0 0.995173,-0.20643 1.35156,-0.53515 0.28517,0.33887 0.70553,0.53537 1.14844,0.53515 0.82843,0 1.5,-0.67157 1.5,-1.5 V 520 c 0,-2.20914 -1.790863,-4 -4,-4 z m 0,3 c 0.55229,0 1,0.44772 1,1 0,0.55228 -0.44771,1 -1,1 -0.55229,0 -1,-0.44772 -1,-1 0,-0.55228 0.44771,-1 1,-1 z"
       id="path4570" />
    <path
       style="opacity:1;fill:#000000;fill-opacity:0.16000001;stroke:none;stroke-opacity:0.2"
       d="m 18,512 c -1.108,0 -2,0.89199 -2,2 v 12 c 0,1.10801 0.892,2 2,2 h 1 v -16 z"
       id="rect4572"
       inkscape:connector-curvature="0" />
    <path
       inkscape:connector-curvature="0"
       style="display:inline;fill:#000000;fill-opacity:0.2;stroke:none;stroke-width:1.5;enable-background:new"
       d="m 139,507 c -3.31371,0 -6,2.68629 -6,6 0,3.31371 2.68629,6 6,6 h 3.75 c 0,0 0.7032,0 0.75,-0.75 0,-0.75 -0.75,-0.75 -0.75,-0.75 H 139 c -2.48529,0 -4.5,-2.01473 -4.5,-4.5 0,-2.48531 2.01471,-4.5 4.5,-4.5 2.48529,0 4.5,2.01469 4.5,4.5 v 0.75 c 0,0.41421 -0.33579,0.75 -0.75,0.75 -0.41421,0 -0.75,-0.33579 -0.75,-0.75 V 513 c 0,-1.65685 -1.34314,-3 -3,-3 -1.65686,0 -3,1.34315 -3,3 0,1.65685 1.34314,3 3,3 0.78462,0 1.49275,-0.30964 2.02734,-0.80273 0.42776,0.50831 1.05829,0.80306 1.72266,0.80273 1.24264,0 2.25,-1.00735 2.25,-2.25 V 513 c 0,-3.31371 -2.68629,-6 -6,-6 z m 0,4.5 c 0.82844,0 1.5,0.67158 1.5,1.5 0,0.82842 -0.67156,1.5 -1.5,1.5 -0.82844,0 -1.5,-0.67158 -1.5,-1.5 0,-0.82842 0.67156,-1.5 1.5,-1.5 z"
       id="path4579" />
    <path
       id="path4577"
       d="m 139,506 c -3.31371,0 -6,2.68629 -6,6 0,3.31371 2.68629,6 6,6 h 3.75 c 0,0 0.7032,0 0.75,-0.75 0,-0.75 -0.75,-0.75 -0.75,-0.75 H 139 c -2.48529,0 -4.5,-2.01473 -4.5,-4.5 0,-2.48531 2.01471,-4.5 4.5,-4.5 2.48529,0 4.5,2.01469 4.5,4.5 v 0.75 c 0,0.41421 -0.33579,0.75 -0.75,0.75 -0.41421,0 -0.75,-0.33579 -0.75,-0.75 V 512 c 0,-1.65685 -1.34314,-3 -3,-3 -1.65686,0 -3,1.34315 -3,3 0,1.65685 1.34314,3 3,3 0.78462,0 1.49275,-0.30964 2.02734,-0.80273 0.42776,0.50831 1.05829,0.80306 1.72266,0.80273 1.24264,0 2.25,-1.00735 2.25,-2.25 V 512 c 0,-3.31371 -2.68629,-6 -6,-6 z m 0,4.5 c 0.82844,0 1.5,0.67158 1.5,1.5 0,0.82842 -0.67156,1.5 -1.5,1.5 -0.82844,0 -1.5,-0.67158 -1.5,-1.5 0,-0.82842 0.67156,-1.5 1.5,-1.5 z"
       style="display:inline;fill:#f5f5f5;fill-opacity:1;stroke:none;stroke-width:1.5;enable-background:new"
       inkscape:connector-curvature="0" />
    <path
       id="path4646"
       d="m 196,496 c -4.97056,0 -9,4.02943 -9,9 0,4.97057 4.02944,9 9,9 h 5.625 c 0,0 1.0548,0 1.125,-1.125 0,-1.125 -1.125,-1.125 -1.125,-1.125 H 196 c -3.72794,0 -6.75,-3.0221 -6.75,-6.75 0,-3.72797 3.02206,-6.75 6.75,-6.75 3.72793,0 6.75,3.02203 6.75,6.75 v 1.125 c 0,0.62132 -0.50369,1.125 -1.125,1.125 -0.62131,0 -1.125,-0.50368 -1.125,-1.125 V 505 c 0,-2.48528 -2.01471,-4.5 -4.5,-4.5 -2.48529,0 -4.5,2.01472 -4.5,4.5 0,2.48527 2.01471,4.5 4.5,4.5 1.17693,0 2.23912,-0.46446 3.04101,-1.2041 0.64164,0.76247 1.58743,1.20459 2.58399,1.2041 1.86396,0 3.375,-1.51103 3.375,-3.375 V 505 c 0,-4.97057 -4.02944,-9 -9,-9 z m 0,6.75 c 1.24266,0 2.25,1.00737 2.25,2.25 0,1.24263 -1.00734,2.25 -2.25,2.25 -1.24266,0 -2.25,-1.00737 -2.25,-2.25 0,-1.24263 1.00734,-2.25 2.25,-2.25 z"
       style="display:inline;fill:#000000;fill-opacity:0.2;stroke:none;stroke-width:2.25;filter:url(#filter4653);enable-background:new"
       inkscape:connector-curvature="0"
       sodipodi:nodetypes="ssscccsssssssssssccssssssss" />
    <path
       inkscape:connector-curvature="0"
       style="display:inline;fill:#f5f5f5;fill-opacity:1;stroke:none;stroke-width:2.25;enable-background:new"
       d="m 196,495 c -4.97056,0 -9,4.02943 -9,9 0,4.97057 4.02944,9 9,9 h 5.625 c 0,0 1.0548,0 1.125,-1.125 0,-1.125 -1.125,-1.125 -1.125,-1.125 H 196 c -3.72794,0 -6.75,-3.0221 -6.75,-6.75 0,-3.72797 3.02206,-6.75 6.75,-6.75 3.72793,0 6.75,3.02203 6.75,6.75 v 1.125 c 0,0.62132 -0.50369,1.125 -1.125,1.125 -0.62131,0 -1.125,-0.50368 -1.125,-1.125 V 504 c 0,-2.48528 -2.01471,-4.5 -4.5,-4.5 -2.48529,0 -4.5,2.01472 -4.5,4.5 0,2.48527 2.01471,4.5 4.5,4.5 1.17693,0 2.23912,-0.46446 3.04101,-1.2041 0.64164,0.76247 1.58743,1.20459 2.58399,1.2041 1.86396,0 3.375,-1.51103 3.375,-3.375 V 504 c 0,-4.97057 -4.02944,-9 -9,-9 z m 0,6.75 c 1.24266,0 2.25,1.00737 2.25,2.25 0,1.24263 -1.00734,2.25 -2.25,2.25 -1.24266,0 -2.25,-1.00737 -2.25,-2.25 0,-1.24263 1.00734,-2.25 2.25,-2.25 z"
       id="path4597"
       sodipodi:nodetypes="ssscccsssssssssssccssssssss" />
    <path
       inkscape:connector-curvature="0"
       style="display:inline;fill:#000000;fill-opacity:0.2;stroke:none;stroke-width:2.99999976;filter:url(#filter4634);enable-background:new"
       d="m 268,485 c -6.62742,0 -12,5.37258 -12,12 0,6.62742 5.37258,12 12,12 h 7.5 c 0,0 1.4064,0 1.5,-1.5 0,-1.5 -1.5,-1.5 -1.5,-1.5 H 268 c -4.97058,0 -9,-4.02946 -9,-9 0,-4.97062 4.02942,-9 9,-9 4.97058,0 9,4.02938 9,9 v 1.5 c 0,0.82842 -0.67158,1.5 -1.5,1.5 -0.82842,0 -1.5,-0.67158 -1.5,-1.5 V 497 c 0,-3.3137 -2.68628,-6 -6,-6 -3.31372,0 -6,2.6863 -6,6 0,3.3137 2.68628,6 6,6 1.56924,0 2.9855,-0.61928 4.05468,-1.60546 0.85552,1.01662 2.11658,1.60612 3.44532,1.60546 2.48528,0 4.5,-2.0147 4.5,-4.5 V 497 c 0,-6.62742 -5.37258,-12 -12,-12 z m 0,9 c 1.65688,0 3,1.34316 3,3 0,1.65684 -1.34312,3 -3,3 -1.65688,0 -3,-1.34316 -3,-3 0,-1.65684 1.34312,-3 3,-3 z"
       id="path4632" />
    <path
       id="path4615"
       d="m 268,484 c -6.62742,0 -12,5.37258 -12,12 0,6.62742 5.37258,12 12,12 h 7.5 c 0,0 1.4064,0 1.5,-1.5 0,-1.5 -1.5,-1.5 -1.5,-1.5 H 268 c -4.97058,0 -9,-4.02946 -9,-9 0,-4.97062 4.02942,-9 9,-9 4.97058,0 9,4.02938 9,9 v 1.5 c 0,0.82842 -0.67158,1.5 -1.5,1.5 -0.82842,0 -1.5,-0.67158 -1.5,-1.5 V 496 c 0,-3.3137 -2.68628,-6 -6,-6 -3.31372,0 -6,2.6863 -6,6 0,3.3137 2.68628,6 6,6 1.56924,0 2.9855,-0.61928 4.05468,-1.60546 0.85552,1.01662 2.11658,1.60612 3.44532,1.60546 2.48528,0 4.5,-2.0147 4.5,-4.5 V 496 c 0,-6.62742 -5.37258,-12 -12,-12 z m 0,9 c 1.65688,0 3,1.34316 3,3 0,1.65684 -1.34312,3 -3,3 -1.65688,0 -3,-1.34316 -3,-3 0,-1.65684 1.34312,-3 3,-3 z"
       style="display:inline;fill:#f5f5f5;fill-opacity:1;stroke:none;stroke-width:2.99999976;enable-background:new"
       inkscape:connector-curvature="0" />
    <path
       style="display:inline;fill:#ffffff;fill-opacity:1;stroke:none;stroke-width:2.99999976;enable-background:new"
       d="m 268,484 c -6.62742,0 -12,5.37258 -12,12 0,0.16885 0.0185,0.33285 0.0254,0.5 0.26418,-6.39365 5.51604,-11.5 11.97461,-11.5 6.62742,0 12,5.37258 12,12 v -1 c 0,-6.62742 -5.37258,-12 -12,-12 z m 0,6 c -3.31372,0 -6,2.6863 -6,6 0,0.16885 0.0117,0.33468 0.0254,0.5 0.25474,-3.0791 2.82974,-5.5 5.97461,-5.5 3.31372,0 6,2.6863 6,6 v -1 c 0,-3.3137 -2.68628,-6 -6,-6 z m -8.97461,6.5 c -0.009,0.16656 -0.0254,0.33115 -0.0254,0.5 0,4.97054 4.02942,9 9,9 h 7.5 c 0,0 1.10538,0.005 1.41602,0.95898 0.0417,-0.13563 0.0732,-0.28557 0.084,-0.45898 0,-1.5 -1.5,-1.5 -1.5,-1.5 H 268 c -4.80173,0 -8.71359,-3.76352 -8.97461,-8.5 z m 6.02539,0 c -0.0275,0.16324 -0.0508,0.32894 -0.0508,0.5 0,1.65684 1.34312,3 3,3 1.65688,0 3,-1.34316 3,-3 0,-0.17106 -0.0233,-0.33676 -0.0508,-0.5 -0.23886,1.41786 -1.4634,2.5 -2.94922,2.5 -1.48582,0 -2.71036,-1.08214 -2.94922,-2.5 z m 8.94922,1 v 1 c 0,0.82842 0.67158,1.5 1.5,1.5 0.82842,0 1.5,-0.67158 1.5,-1.5 v -1 c 0,0.82842 -0.67158,1.5 -1.5,1.5 -0.82842,0 -1.5,-0.67158 -1.5,-1.5 z"
       id="path4638"
       inkscape:connector-curvature="0" />
    <path
       style="display:inline;fill:#ffffff;fill-opacity:1;stroke:none;stroke-width:2.25;enable-background:new"
       d="m 196,495 c -4.97056,0 -9,4.02943 -9,9 0,0.16885 0.0162,0.33344 0.0254,0.5 0.26102,-4.73651 4.1729,-8.5 8.97461,-8.5 4.97056,0 9,4.02943 9,9 v -1 c 0,-4.97057 -4.02944,-9 -9,-9 z m 0,4.5 c -2.48529,0 -4.5,2.01472 -4.5,4.5 0,0.1714 0.0321,0.33358 0.0508,0.5 0.2519,-2.24661 2.13533,-4 4.44922,-4 2.48529,0 4.5,2.01472 4.5,4.5 v -1 c 0,-2.48528 -2.01471,-4.5 -4.5,-4.5 z m -6.72461,5 c -0.0122,0.16586 -0.0254,0.33103 -0.0254,0.5 0,3.7279 3.02206,6.75 6.75,6.75 h 5.625 c 0,0 0.72223,0.0107 1.00586,0.59961 0.0596,-0.13237 0.10711,-0.28184 0.11914,-0.47461 0,-1.125 -1.125,-1.125 -1.125,-1.125 H 196 c -3.55897,0 -6.46762,-2.75669 -6.72461,-6.25 z m 4.53516,0 c -0.0368,0.16152 -0.0606,0.32732 -0.0606,0.5 0,1.24263 1.00734,2.25 2.25,2.25 1.24266,0 2.25,-1.00737 2.25,-2.25 0,-0.17268 -0.0237,-0.33848 -0.0606,-0.5 -0.22822,1.00081 -1.11947,1.75 -2.18945,1.75 -1.06998,0 -1.96123,-0.74919 -2.18945,-1.75 z m 6.68945,0.625 v 1 c 0,0.62132 0.50369,1.125 1.125,1.125 0.62131,0 1.125,-0.50368 1.125,-1.125 v -1 c 0,0.62132 -0.50369,1.125 -1.125,1.125 -0.62131,0 -1.125,-0.50368 -1.125,-1.125 z"
       id="path4648"
       inkscape:connector-curvature="0"
       sodipodi:nodetypes="sscscsssscscsscssccccsccssscsccssscsc" />
    <path
       id="path4676"
       d="m 586,178.0002 c -53.01936,0 -96,42.98064 -96,96 0,53.01936 42.98064,96 96,96 h 60 c 0,0 11.2512,0 12,-12 0,-12 -12,-12 -12,-12 h -60 c -39.76464,0 -72,-32.23568 -72,-72 0,-39.76496 32.23536,-72 72,-72 39.76464,0 72,32.23504 72,72 v 12 c 0,6.62736 -5.37264,12 -12,12 -6.62736,0 -12,-5.37264 -12,-12 v -12 c 0,-26.5096 -21.49024,-48 -48,-48 -26.50976,0 -48,21.4904 -48,48 0,26.5096 21.49024,48 48,48 12.55392,0 23.884,-4.95424 32.43744,-12.84368 6.84416,8.13296 16.93264,12.84896 27.56256,12.84368 19.88224,0 36,-16.1176 36,-36 v -12 c 0,-53.01936 -42.98064,-96 -96,-96 z m 0,72 c 13.25504,0 24,10.74528 24,24 0,13.25472 -10.74496,24 -24,24 -13.25504,0 -24,-10.74528 -24,-24 0,-13.25472 10.74496,-24 24,-24 z"
       style="display:inline;fill:#000000;fill-opacity:0.2;stroke:none;stroke-width:23.99999809;enable-background:new"
       inkscape:connector-curvature="0" />
    <path
       inkscape:connector-curvature="0"
       style="display:inline;fill:#000000;fill-opacity:0.2;stroke:none;stroke-width:23.99999809;filter:url(#filter4699);enable-background:new"
       d="m 586,178.0002 c -53.01936,0 -96,42.98064 -96,96 0,53.01936 42.98064,96 96,96 h 60 c 0,0 11.2512,0 12,-12 0,-12 -12,-12 -12,-12 h -60 c -39.76464,0 -72,-32.23568 -72,-72 0,-39.76496 32.23536,-72 72,-72 39.76464,0 72,32.23504 72,72 v 12 c 0,6.62736 -5.37264,12 -12,12 -6.62736,0 -12,-5.37264 -12,-12 v -12 c 0,-26.5096 -21.49024,-48 -48,-48 -26.50976,0 -48,21.4904 -48,48 0,26.5096 21.49024,48 48,48 12.55392,0 23.884,-4.95424 32.43744,-12.84368 6.84416,8.13296 16.93264,12.84896 27.56256,12.84368 19.88224,0 36,-16.1176 36,-36 v -12 c 0,-53.01936 -42.98064,-96 -96,-96 z m 0,72 c 13.25504,0 24,10.74528 24,24 0,13.25472 -10.74496,24 -24,24 -13.25504,0 -24,-10.74528 -24,-24 0,-13.25472 10.74496,-24 24,-24 z"
       id="path4693" />
    <path
       inkscape:connector-curvature="0"
       style="display:inline;fill:#f5f5f5;fill-opacity:1;stroke:none;stroke-width:23.99999809;enable-background:new"
       d="m 586,176.00021 c -53.01936,0 -96,42.98064 -96,96 0,53.01936 42.98064,96 96,96 h 60 c 0,0 11.2512,0 12,-12 0,-12 -12,-12 -12,-12 h -60 c -39.76464,0 -72,-32.23568 -72,-72 0,-39.76496 32.23536,-72 72,-72 39.76464,0 72,32.23504 72,72 v 12 c 0,6.62736 -5.37264,12 -12,12 -6.62736,0 -12,-5.37264 -12,-12 v -12 c 0,-26.5096 -21.49024,-48 -48,-48 -26.50976,0 -48,21.4904 -48,48 0,26.5096 21.49024,48 48,48 12.55392,0 23.884,-4.95424 32.43744,-12.84368 6.84416,8.13296 16.93264,12.84896 27.56256,12.84368 19.88224,0 36,-16.1176 36,-36 v -12 c 0,-53.01936 -42.98064,-96 -96,-96 z m 0,72 c 13.25504,0 24,10.74528 24,24 0,13.25472 -10.74496,24 -24,24 -13.25504,0 -24,-10.74528 -24,-24 0,-13.25472 10.74496,-24 24,-24 z"
       id="path4678" />
    <path
       style="display:inline;fill:#ffffff;fill-opacity:1;stroke:none;stroke-width:23.99999809;enable-background:new"
       d="m 586,176 c -53.01936,0 -96,42.98064 -96,96 0,0.16179 0.0157,0.31969 0.0195,0.48047 C 490.83211,220.16249 533.48853,178 586,178 c 53.01936,0 96,42.98064 96,96 v -2 c 0,-53.01936 -42.98064,-96 -96,-96 z m 0,48 c -26.50976,0 -48,21.4904 -48,48 0,0.30688 0.0186,0.60944 0.0273,0.91406 C 538.60651,246.90763 559.85436,226 586,226 c 26.50976,0 48,21.4904 48,48 v -2 c 0,-26.5096 -21.49024,-48 -48,-48 z m -71.79688,52 c -0.072,1.33248 -0.20312,2.6492 -0.20312,4 0,0.39827 0.0229,0.79077 0.0293,1.1875 0.0362,-1.06785 0.11641,-2.12488 0.17382,-3.1875 2.08817,37.89184 33.38304,68 71.79688,68 h 60 c 0,0 11.07102,0.007 11.93945,10.65039 0.0223,-0.21475 0.0466,-0.42614 0.0606,-0.65039 0,-12 -12,-12 -12,-12 h -60 c -38.41384,0 -69.70871,-30.10816 -71.79688,-68 z m 48.20313,0 c -0.22,1.30592 -0.40625,2.63152 -0.40625,4 0,0.37817 0.012,0.75306 0.0293,1.12695 0.0573,-1.06133 0.20414,-2.10115 0.37695,-3.12695 1.91088,11.34288 11.70719,20 23.59375,20 11.88656,0 21.68287,-8.65712 23.59375,-20 0.17281,1.0258 0.31966,2.06562 0.37695,3.12695 C 609.988,280.75306 610,280.37817 610,280 c 0,-1.36848 -0.18625,-2.69408 -0.40625,-4 -1.91088,11.34288 -11.70719,20 -23.59375,20 -11.88656,0 -21.68287,-8.65712 -23.59375,-20 z M 634,284 v 2 c 0,6.62736 5.37264,12 12,12 6.62736,0 12,-5.37264 12,-12 v -2 c 0,6.62736 -5.37264,12 -12,12 -6.62736,0 -12,-5.37264 -12,-12 z"
       id="path4680"
       inkscape:connector-curvature="0" />
    <path
       style="display:inline;fill:url(#linearGradient4435);fill-opacity:1;stroke:none;stroke-width:2;stroke-linecap:round;stroke-linejoin:round;stroke-miterlimit:4;stroke-dasharray:none;stroke-opacity:1;enable-background:new"
       d="m 129,498 c -1.108,0 -2,0.892 -2,2 v 1.8418 20.34375 V 524 c 0,1.108 0.892,2 2,2 h 18 c 1.108,0 2,-0.892 2,-2 V 522.1582 506 500 c 0,-1.108 -0.892,-2 -2,-2 h -6 z"
       id="path4433"
       inkscape:connector-curvature="0" />
    <path
       style="display:inline;fill:url(#linearGradient4449-0);fill-opacity:1;stroke:none;stroke-width:16;stroke-linecap:round;stroke-linejoin:round;stroke-miterlimit:4;stroke-dasharray:none;stroke-opacity:1;enable-background:new"
       d="m 418,48 c -13.296,0 -24,10.704 -24,24 V 109.4668 434.9707 472 c 0,13.296 10.704,24 24,24 h 304 c 13.296,0 24,-10.704 24,-24 V 434.52344 192 72 C 746,58.7452 735.2548,48 722,48 H 602 Z"
       id="path4447"
       inkscape:connector-curvature="0" />
    <path
       style="display:inline;fill:url(#linearGradient4537);fill-opacity:1;stroke:none;stroke-width:2;stroke-linecap:round;stroke-linejoin:round;stroke-miterlimit:4;stroke-dasharray:none;stroke-opacity:1;enable-background:new"
       d="m 247,468 c -1.662,0 -3,1.338 -3,3 v 4.68164 40.68945 V 521 c 0,1.662 1.338,3 3,3 h 38 c 1.662,0 3,-1.338 3,-3 V 516.31641 486 471 c 0,-0.20711 -0.0206,-0.41018 -0.0605,-0.60547 -0.0799,-0.39058 -0.23552,-0.75306 -0.45117,-1.07226 -0.21565,-0.31921 -0.49134,-0.5949 -0.81055,-0.81055 -0.3192,-0.21565 -0.68168,-0.37127 -1.07226,-0.45117 C 285.41018,468.02058 285.20711,468 285,468 h -15 z"
       id="path4535"
       inkscape:connector-curvature="0" />
    <path
       style="display:inline;fill:url(#linearGradient4171-1-0);fill-opacity:1;stroke:none;stroke-width:2;stroke-linecap:round;stroke-linejoin:round;stroke-miterlimit:4;stroke-dasharray:none;stroke-opacity:1;enable-background:new"
       d="m 181,484 c -1.662,0 -3,1.338 -3,3 v 1.95312 30.13282 V 521 c 0,1.662 1.338,3 3,3 h 26 c 1.662,0 3,-1.338 3,-3 V 519.04492 496 487 c 0,-1.662 -1.338,-3 -3,-3 h -9 z"
       id="circle4163-3-4"
       inkscape:connector-curvature="0"
       sodipodi:nodetypes="ssccssssccsscs" />
    <path
       style="opacity:1;fill:#000000;fill-opacity:0.2;stroke:none"
       d="m 49,508 c -1.108,0 -2,0.892 -2,2 v 16 c 0,1.108 0.892,2 2,2 h 12 c 1.108,0 2,-0.892 2,-2 v -12 l -6,-6 z"
       id="path4564"
       inkscape:connector-curvature="0" />
    <path
       inkscape:connector-curvature="0"
       id="path4567"
       d="m 49,507 c -1.108,0 -2,0.892 -2,2 v 16 c 0,1.108 0.892,2 2,2 h 12 c 1.108,0 2,-0.892 2,-2 v -12 -4 c 0,-1.108 -0.892,-2 -2,-2 h -4 z"
       style="opacity:1;fill:#1e88e5;fill-opacity:1;stroke:none" />
    <path
       inkscape:connector-curvature="0"
       id="path4569"
       d="m 49,507 c -1.108,0 -2,0.892 -2,2 v 16 c 0,1.108 0.892,2 2,2 h 1 v -20 z"
       style="opacity:1;fill:#000000;fill-opacity:0.15;stroke:none;stroke-opacity:0.2" />
    <path
       inkscape:connector-curvature="0"
       id="path4571"
       d="m 49,507 c -1.108,0 -2,0.892 -2,2 v 1 c 0,-1.108 0.892,-2 2,-2 h 3 6 3 c 1.108,0 2,0.892 2,2 v -1 c 0,-1.108 -0.892,-2 -2,-2 h -4 -4 z"
       style="opacity:1;fill:#ffffff;fill-opacity:0.2;stroke:none" />
    <path
       id="path4573"
       d="m 56,514 c -2.209137,0 -4,1.79086 -4,4 0,2.20914 1.790863,4 4,4 h 2.5 c 0,0 0.468797,0 0.5,-0.5 C 59,521 58.5,521 58.5,521 H 56 c -1.656863,0 -3,-1.34315 -3,-3 0,-1.65687 1.343137,-3 3,-3 1.656863,0 3,1.34313 3,3 v 0.5 c 0,0.27614 -0.223863,0.5 -0.5,0.5 -0.276137,0 -0.5,-0.22386 -0.5,-0.5 V 518 c 0,-1.10457 -0.89543,-2 -2,-2 -1.10457,0 -2,0.89543 -2,2 0,1.10457 0.89543,2 2,2 0.52308,0 0.995173,-0.20643 1.35156,-0.53515 0.28517,0.33887 0.70553,0.53537 1.14844,0.53515 0.82843,0 1.5,-0.67157 1.5,-1.5 V 518 c 0,-2.20914 -1.790863,-4 -4,-4 z m 0,3 c 0.55229,0 1,0.44772 1,1 0,0.55228 -0.44771,1 -1,1 -0.55229,0 -1,-0.44772 -1,-1 0,-0.55228 0.44771,-1 1,-1 z"
       style="display:inline;fill:#000000;fill-opacity:0.2;stroke:none;enable-background:new"
       inkscape:connector-curvature="0" />
    <path
       inkscape:connector-curvature="0"
       style="display:inline;fill:#f5f5f5;fill-opacity:1;stroke:none;enable-background:new"
       d="m 56,513 c -2.209137,0 -4,1.79086 -4,4 0,2.20914 1.790863,4 4,4 h 2.5 c 0,0 0.468797,0 0.5,-0.5 C 59,520 58.5,520 58.5,520 H 56 c -1.656863,0 -3,-1.34315 -3,-3 0,-1.65687 1.343137,-3 3,-3 1.656863,0 3,1.34313 3,3 v 0.5 c 0,0.27614 -0.223863,0.5 -0.5,0.5 -0.276137,0 -0.5,-0.22386 -0.5,-0.5 V 517 c 0,-1.10457 -0.89543,-2 -2,-2 -1.10457,0 -2,0.89543 -2,2 0,1.10457 0.89543,2 2,2 0.52308,0 0.995173,-0.20643 1.35156,-0.53515 0.28517,0.33887 0.70553,0.53537 1.14844,0.53515 0.82843,0 1.5,-0.67157 1.5,-1.5 V 517 c 0,-2.20914 -1.790863,-4 -4,-4 z m 0,3 c 0.55229,0 1,0.44772 1,1 0,0.55228 -0.44771,1 -1,1 -0.55229,0 -1,-0.44772 -1,-1 0,-0.55228 0.44771,-1 1,-1 z"
       id="path4575" />
    <path
       inkscape:connector-curvature="0"
       id="path4578"
       d="m 49,507 c -1.108,0 -2,0.892 -2,2 v 0.47656 15.06641 V 525 c 0,1.108 0.892,2 2,2 h 12 c 1.108,0 2,-0.892 2,-2 V 524.52344 513 509 c 0,-1.108 -0.892,-2 -2,-2 h -4 z"
       style="display:inline;fill:url(#linearGradient4580);fill-opacity:1;stroke:none;stroke-width:1.46667397;stroke-linecap:round;stroke-linejoin:round;stroke-miterlimit:4;stroke-dasharray:none;stroke-opacity:1;enable-background:new" />
  </g>
</svg>
