<?xml version="1.0" encoding="UTF-8" standalone="no"?>
<!-- Created with Inkscape (http://www.inkscape.org/) -->

<svg
   xmlns:dc="http://purl.org/dc/elements/1.1/"
   xmlns:cc="http://creativecommons.org/ns#"
   xmlns:rdf="http://www.w3.org/1999/02/22-rdf-syntax-ns#"
   xmlns:svg="http://www.w3.org/2000/svg"
   xmlns="http://www.w3.org/2000/svg"
   xmlns:xlink="http://www.w3.org/1999/xlink"
   xmlns:sodipodi="http://sodipodi.sourceforge.net/DTD/sodipodi-0.dtd"
   xmlns:inkscape="http://www.inkscape.org/namespaces/inkscape"
   width="816"
   height="544"
   viewBox="0 0 816 544"
   version="1.1"
   id="svg1087"
   inkscape:version="0.92.1 r"
   sodipodi:docname="gnome-disks.svg">
  <defs
     id="defs1081">
    <filter
       inkscape:collect="always"
       style="color-interpolation-filters:sRGB"
       id="filter5087"
       x="-0.048"
       width="1.096"
       y="-0.048"
       height="1.096">
      <feGaussianBlur
         inkscape:collect="always"
         stdDeviation="0.8"
         id="feGaussianBlur5089" />
    </filter>
    <filter
       inkscape:collect="always"
       style="color-interpolation-filters:sRGB"
       id="filter4546"
       x="-0.013636364"
       width="1.0272727"
       y="-0.010714286"
       height="1.0214286">
      <feGaussianBlur
         inkscape:collect="always"
         stdDeviation="0.25"
         id="feGaussianBlur4548" />
    </filter>
    <filter
       inkscape:collect="always"
       style="color-interpolation-filters:sRGB"
       id="filter4564"
       x="-0.027272727"
       width="1.0545455"
       y="-0.021428571"
       height="1.0428571">
      <feGaussianBlur
         inkscape:collect="always"
         stdDeviation="4"
         id="feGaussianBlur4566" />
    </filter>
    <linearGradient
       inkscape:collect="always"
       xlink:href="#linearGradient4730"
       id="linearGradient4620"
       gradientUnits="userSpaceOnUse"
       gradientTransform="matrix(0.4782599,0,0,0.47826359,52.52174,24.17187)"
       x1="7"
       y1="1011.3622"
       x2="41.000019"
       y2="1045.3622" />
    <linearGradient
       id="linearGradient4730"
       inkscape:collect="always">
      <stop
         id="stop4726"
         offset="0"
         style="stop-color:#ffffff;stop-opacity:0.05490196" />
      <stop
         id="stop4728"
         offset="1"
         style="stop-color:#177ed5;stop-opacity:0;" />
    </linearGradient>
    <linearGradient
       inkscape:collect="always"
       xlink:href="#linearGradient4730"
       id="linearGradient4435"
       gradientUnits="userSpaceOnUse"
       gradientTransform="matrix(0.65217041,0,0,0.65217328,96.34777,-158.67056)"
       x1="7"
       y1="1011.3622"
       x2="41.000019"
       y2="1045.3622" />
    <linearGradient
       inkscape:collect="always"
       xlink:href="#linearGradient4730"
       id="linearGradient4171-1-0"
       x1="7"
       y1="1011.3622"
       x2="41.000019"
       y2="1045.3622"
       gradientUnits="userSpaceOnUse"
       gradientTransform="matrix(0.95652174,0,0,0.95652174,145.0435,-479.6504)" />
    <linearGradient
       inkscape:collect="always"
       xlink:href="#linearGradient4730"
       id="linearGradient4537"
       gradientUnits="userSpaceOnUse"
       gradientTransform="matrix(1.3043412,0,0,1.3043465,208.69565,-845.3402)"
       x1="7"
       y1="1011.3622"
       x2="41.000019"
       y2="1045.3622" />
    <linearGradient
       inkscape:collect="always"
       xlink:href="#linearGradient4730"
       id="linearGradient4449-0"
       gradientUnits="userSpaceOnUse"
       gradientTransform="matrix(10.43473,0,0,10.434772,293.56521,-10458.722)"
       x1="7"
       y1="1011.3622"
       x2="41.000019"
       y2="1045.3622" />
    <filter
       inkscape:collect="always"
       style="color-interpolation-filters:sRGB"
       id="filter4661"
       x="-0.0135"
       width="1.027"
       y="-0.0108"
       height="1.0216">
      <feGaussianBlur
         inkscape:collect="always"
         stdDeviation="0.18"
         id="feGaussianBlur4663" />
    </filter>
    <filter
       inkscape:collect="always"
       style="color-interpolation-filters:sRGB"
       id="filter5059"
       x="-0.012"
       width="1.024"
       y="-0.012"
       height="1.024">
      <feGaussianBlur
         inkscape:collect="always"
         stdDeviation="0.12"
         id="feGaussianBlur5061" />
    </filter>
    <filter
       inkscape:collect="always"
       style="color-interpolation-filters:sRGB"
       id="filter5068"
       x="-0.011999999"
       width="1.024"
       y="-0.012000001"
       height="1.024">
      <feGaussianBlur
         inkscape:collect="always"
         stdDeviation="0.080000008"
         id="feGaussianBlur5070" />
    </filter>
    <filter
       inkscape:collect="always"
       style="color-interpolation-filters:sRGB"
       id="filter5076"
       x="-0.012000079"
       width="1.0240002"
       y="-0.011999921"
       height="1.0239998">
      <feGaussianBlur
         inkscape:collect="always"
         stdDeviation="0.060000207"
         id="feGaussianBlur5078" />
    </filter>
    <filter
       inkscape:collect="always"
       style="color-interpolation-filters:sRGB"
       id="filter5097"
       x="-0.023999998"
       width="1.048"
       y="-0.024000002"
       height="1.048">
      <feGaussianBlur
         inkscape:collect="always"
         stdDeviation="1.2800001"
         id="feGaussianBlur5099" />
    </filter>
    <filter
       inkscape:collect="always"
       style="color-interpolation-filters:sRGB"
       id="filter5114"
       x="-0.024"
       width="1.048"
       y="-0.024"
       height="1.048">
      <feGaussianBlur
         inkscape:collect="always"
         stdDeviation="1.92"
         id="feGaussianBlur5116" />
    </filter>
  </defs>
  <sodipodi:namedview
     id="base"
     pagecolor="#c3c3c3"
     bordercolor="#333333"
     borderopacity="1"
     inkscape:pageopacity="0"
     inkscape:pageshadow="2"
     inkscape:zoom="16"
     inkscape:cx="73.130323"
     inkscape:cy="25.52279"
     inkscape:document-units="px"
     inkscape:current-layer="layer2"
     showgrid="true"
     units="px"
     inkscape:showpageshadow="false"
     inkscape:window-width="2560"
     inkscape:window-height="1370"
     inkscape:window-x="0"
     inkscape:window-y="34"
     inkscape:window-maximized="1"
     showguides="false">
    <inkscape:grid
       type="xygrid"
       id="grid4630" />
  </sodipodi:namedview>
  <metadata
     id="metadata1084">
    <rdf:RDF>
      <cc:Work
         rdf:about="">
        <dc:format>image/svg+xml</dc:format>
        <dc:type
           rdf:resource="http://purl.org/dc/dcmitype/StillImage" />
        <dc:title />
        <cc:license
           rdf:resource="http://creativecommons.org/licenses/by-sa/4.0/" />
        <dc:creator>
          <cc:Agent>
            <dc:title>Peter Cornelis</dc:title>
          </cc:Agent>
        </dc:creator>
      </cc:Work>
      <cc:License
         rdf:about="http://creativecommons.org/licenses/by-sa/4.0/">
        <cc:permits
           rdf:resource="http://creativecommons.org/ns#Reproduction" />
        <cc:permits
           rdf:resource="http://creativecommons.org/ns#Distribution" />
        <cc:requires
           rdf:resource="http://creativecommons.org/ns#Notice" />
        <cc:requires
           rdf:resource="http://creativecommons.org/ns#Attribution" />
        <cc:permits
           rdf:resource="http://creativecommons.org/ns#DerivativeWorks" />
        <cc:requires
           rdf:resource="http://creativecommons.org/ns#ShareAlike" />
      </cc:License>
    </rdf:RDF>
  </metadata>
  <g
     inkscape:label="Baseplate"
     inkscape:groupmode="layer"
     id="layer1"
     transform="translate(0,-153.06668)"
     style="display:none">
    <rect
       style="display:inline;overflow:visible;visibility:visible;fill:#fefefe;fill-opacity:1;fill-rule:nonzero;stroke:none;stroke-width:2;marker:none;enable-background:accumulate"
       id="rect3951"
       width="512"
       height="512"
       x="-800"
       y="169.06668"
       inkscape:label="48x48"
       transform="scale(-1,1)" />
    <text
       y="733.32251"
       xml:space="preserve"
       x="15.006836"
       style="font-style:normal;font-variant:normal;font-weight:normal;font-stretch:normal;line-height:0%;font-family:'DejaVu Sans';-inkscape-font-specification:'DejaVu Sans';display:inline;fill:#000000;fill-opacity:1;stroke:none;enable-background:new"
       inkscape:label="context"
       id="context"><tspan
         style="font-style:normal;font-variant:normal;font-weight:normal;font-stretch:normal;font-size:18px;line-height:1.25;font-family:'DejaVu Sans';-inkscape-font-specification:'DejaVu Sans'"
         y="733.32251"
         x="15.006836"
         sodipodi:role="line"
         id="tspan3933">apps</tspan></text>
    <text
       y="733.32251"
       xml:space="preserve"
       x="142.48828"
       style="font-style:normal;font-variant:normal;font-weight:bold;font-stretch:normal;line-height:0%;font-family:'DejaVu Sans';-inkscape-font-specification:'DejaVu Sans Bold';text-align:start;writing-mode:lr-tb;text-anchor:start;display:inline;fill:#000000;fill-opacity:1;stroke:none;enable-background:new"
       inkscape:label="icon-name"
       id="icon-name"><tspan
         style="font-style:normal;font-variant:normal;font-weight:bold;font-stretch:normal;font-size:18px;line-height:1.25;font-family:'DejaVu Sans';-inkscape-font-specification:'DejaVu Sans Bold'"
         y="733.32251"
         x="142.48828"
         sodipodi:role="line"
         id="tspan3937">gnome-disks</tspan></text>
    <rect
       style="display:inline;overflow:visible;visibility:visible;fill:#fefefe;fill-opacity:1;fill-rule:nonzero;stroke:none;stroke-width:2;marker:none;enable-background:accumulate"
       id="rect16x16"
       width="16"
       height="16"
       x="-32"
       y="665.06665"
       inkscape:label="16x16"
       transform="scale(-1,1)" />
    <rect
       style="display:inline;overflow:visible;visibility:visible;fill:#fefefe;fill-opacity:1;fill-rule:nonzero;stroke:none;stroke-width:2;marker:none;enable-background:accumulate"
       id="rect24x24"
       width="24"
       height="24"
       x="-76"
       y="657.06665"
       inkscape:label="24x24"
       transform="scale(-1,1)" />
    <rect
       style="display:inline;overflow:visible;visibility:visible;fill:#fefefe;fill-opacity:1;fill-rule:nonzero;stroke:none;stroke-width:2;marker:none;enable-background:accumulate"
       id="rect32x32"
       width="32"
       height="32"
       x="-128"
       y="649.06665"
       inkscape:label="32x32"
       transform="scale(-1,1)" />
    <rect
       inkscape:label="48x48"
       y="633.06665"
       x="-192"
       height="48"
       width="48"
       id="rect48x48"
       style="display:inline;overflow:visible;visibility:visible;fill:#fefefe;fill-opacity:1;fill-rule:nonzero;stroke:none;stroke-width:2;marker:none;enable-background:accumulate"
       transform="scale(-1,1)" />
    <rect
       transform="scale(-1,1)"
       inkscape:label="48x48"
       y="617.06665"
       x="-272"
       height="64"
       width="64"
       id="rect4527"
       style="display:inline;overflow:visible;visibility:visible;fill:#fefefe;fill-opacity:1;fill-rule:nonzero;stroke:none;stroke-width:0.25;marker:none;enable-background:accumulate" />
    <rect
       style="display:inline;overflow:visible;visibility:visible;fill:#fefefe;fill-opacity:1;fill-rule:nonzero;stroke:none;stroke-width:2;marker:none;enable-background:accumulate"
       id="rect4665"
       width="512"
       height="512"
       x="-800"
       y="169.06665"
       inkscape:label="48x48"
       transform="scale(-1,1)" />
  </g>
  <g
     inkscape:groupmode="layer"
     id="layer2"
     inkscape:label="Bitmap"
     style="display:inline">
    <path
       inkscape:connector-curvature="0"
       style="display:inline;opacity:1;fill:#f5f5f5;fill-opacity:1;stroke:none;stroke-opacity:1;enable-background:new"
       d="m 118.0003,517 -0.0881,1.0536 a 3.142857,3.142857 0 0 0 -0.91861,0.53126 l -0.95758,-0.45096 -1,1.73219 0.86947,0.60374 a 3.142857,3.142857 0 0 0 -0.0481,0.53017 3.142857,3.142857 0 0 0 0.0458,0.53233 l -0.86718,0.60157 1,1.73219 0.95541,-0.44976 a 3.142857,3.142857 0 0 0 0.92068,0.52789 L 118.00029,525 h 2 l 0.0881,-1.0536 a 3.142857,3.142857 0 0 0 0.9186,-0.53127 l 0.95758,0.45096 1,-1.73219 -0.86946,-0.60373 a 3.142857,3.142857 0 0 0 0.0481,-0.53017 3.142857,3.142857 0 0 0 -0.0458,-0.53234 l 0.86718,-0.60157 -1,-1.73219 -0.95539,0.44976 a 3.142857,3.142857 0 0 0 -0.92068,-0.52789 L 120.00032,517 h -2 z m 1,2.66665 A 1.3333335,1.3333335 0 0 1 120.33363,521 1.3333335,1.3333335 0 0 1 119.0003,522.33334 1.3333335,1.3333335 0 0 1 117.66697,521 a 1.3333335,1.3333335 0 0 1 1.33333,-1.33335 z"
       id="path4996" />
    <path
       sodipodi:nodetypes="ccscc"
       inkscape:connector-curvature="0"
       id="path5069"
       d="m 180,522 v -17 -17 c 0,-1.6942 -1.29127,-3 -3,-3 -47.91141,17.02543 2.47621,55.9337 3,37 z"
       style="display:inline;fill:none;fill-opacity:0.5;stroke:none;stroke-width:2;stroke-linecap:round;stroke-linejoin:round;stroke-miterlimit:4;stroke-dasharray:none;stroke-opacity:1;filter:url(#filter5087);enable-background:new" />
    <path
       sodipodi:nodetypes="ssccssssccsscs"
       inkscape:connector-curvature="0"
       id="path4657"
       d="m 155,485 c -1.662,0 -3,1.338 -3,3 v 1.95312 30.13282 V 522 c 0,1.662 1.338,3 3,3 h 26 c 1.662,0 3,-1.338 3,-3 V 520.04492 497 488 c 0,-1.662 -1.338,-3 -3,-3 h -9 z"
       style="display:inline;fill:#000000;fill-opacity:0.2;stroke:none;stroke-width:2;stroke-linecap:round;stroke-linejoin:round;stroke-miterlimit:4;stroke-dasharray:none;stroke-opacity:1;enable-background:new;filter:url(#filter4661)" />
    <path
       style="opacity:1;fill:#4b525f;fill-opacity:1;stroke:none"
       d="m 155,484 c -1.662,0 -3,1.338 -3,3 v 34 c 0,1.662 1.338,3 3,3 h 26 c 1.662,0 3,-1.338 3,-3 v -25 -9 c 0,-1.662 -1.338,-3 -3,-3 h -9 z"
       id="rect4648"
       inkscape:connector-curvature="0"
       sodipodi:nodetypes="sssssscsscs" />
    <path
       style="opacity:1;fill:#ffffff;fill-opacity:0.2;stroke:none"
       d="m 155,484 c -1.662,0 -3,1.338 -3,3 v 1 c 0,-1.662 1.338,-3 3,-3 h 8 10 8 c 1.662,0 3,1.338 3,3 v -1 c 0,-1.662 -1.338,-3 -3,-3 h -9 -8 z"
       id="path4671"
       inkscape:connector-curvature="0"
       sodipodi:nodetypes="sscsccscssccs" />
    <path
       style="display:inline;fill:none;fill-opacity:0.5;stroke:none;stroke-width:2;stroke-linecap:round;stroke-linejoin:round;stroke-miterlimit:4;stroke-dasharray:none;stroke-opacity:1;filter:url(#filter5087);enable-background:new"
       d="m 180,522 v -17 -17 c 0,-1.6942 -1.29127,-3 -3,-3 -47.91141,17.02543 2.47621,55.9337 3,37 z"
       id="path4506"
       inkscape:connector-curvature="0"
       sodipodi:nodetypes="ccscc" />
    <path
       inkscape:connector-curvature="0"
       id="path4533"
       d="m 58,507 c -1.108,0 -2,0.892 -2,2 v 16 c 0,1.108 0.892,2 2,2 h 12 c 1.108,0 2,-0.892 2,-2 v -12 l -6,-6 z"
       style="opacity:1;fill:#000000;fill-opacity:0.2;stroke:none" />
    <path
       style="opacity:1;fill:#4b525f;fill-opacity:1;stroke:none"
       d="M 58 506 C 56.892 506 56 506.892 56 508 L 56 524 C 56 525.108 56.892 526 58 526 L 70 526 C 71.108 526 72 525.108 72 524 L 72 512 L 72 508 C 72 506.892 71.108 506 70 506 L 66 506 L 58 506 z "
       id="rect4555" />
    <path
       style="display:inline;opacity:1;fill:#ffffff;fill-opacity:0.2;stroke:none;stroke-width:3;stroke-linecap:round;stroke-linejoin:round;stroke-miterlimit:4;stroke-dasharray:none;stroke-opacity:1;enable-background:new"
       d="M 64 511 A 3 3 0 0 0 61 514 A 3 3 0 0 0 61.042969 514.51367 A 3 3 0 0 1 64 512 A 3 3 0 0 1 66.957031 514.48633 A 3 3 0 0 0 67 514 A 3 3 0 0 0 64 511 z M 69.974609 514.49805 A 6 6 0 0 1 64 520 L 58 520 L 58 521 L 64 521 A 6 6 0 0 0 70 515 A 6 6 0 0 0 69.974609 514.49805 z "
       id="path4572" />
    <path
       style="opacity:1;fill:#ffffff;fill-opacity:0.2;stroke:none"
       d="M 58 506 C 56.892 506 56 506.892 56 508 L 56 509 C 56 507.892 56.892 507 58 507 L 61 507 L 67 507 L 70 507 C 71.108 507 72 507.892 72 509 L 72 508 C 72 506.892 71.108 506 70 506 L 66 506 L 62 506 L 58 506 z "
       id="path4566" />
    <path
       inkscape:connector-curvature="0"
       style="display:inline;fill:#000000;fill-opacity:0.2;stroke:none;filter:url(#filter4564);enable-background:new"
       d="m 392,50 c -13.296,0 -24,10.704 -24,24 v 400 c 0,13.296 10.704,24 24,24 h 304 c 13.296,0 24,-10.704 24,-24 V 194 L 576,50 Z"
       id="path4558" />
    <path
       id="path4556"
       d="m 392,50 c -13.296,0 -24,10.704 -24,24 v 400 c 0,13.296 10.704,24 24,24 h 304 c 13.296,0 24,-10.704 24,-24 V 194 L 576,50 Z"
       style="display:inline;fill:#000000;fill-opacity:0.2;stroke:none;enable-background:new"
       inkscape:connector-curvature="0" />
    <path
       style="display:inline;fill:#4b525f;fill-opacity:1;stroke:none;enable-background:new"
       d="M 392 48 C 378.704 48 368 58.704 368 72 L 368 472 C 368 485.296 378.704 496 392 496 L 696 496 C 709.296 496 720 485.296 720 472 L 720 192 L 720 72 C 720 58.7452 709.2548 48 696 48 L 576 48 L 392 48 z "
       id="rect3362" />
    <path
       style="display:inline;fill:#ffffff;fill-opacity:0.2;fill-rule:evenodd;stroke:none;stroke-width:8px;stroke-linecap:butt;stroke-linejoin:miter;stroke-opacity:1;enable-background:new"
       d="M 544 160 A 63.999998 63.999998 0 0 0 480 224 A 63.999998 63.999998 0 0 0 480.04102 225.17188 A 63.999998 63.999998 0 0 1 544 162 A 63.999998 63.999998 0 0 1 607.95898 224.82812 A 63.999998 63.999998 0 0 0 608 224 A 63.999998 63.999998 0 0 0 544 160 z M 671.95898 225.17188 A 127.99999 127.99999 0 0 1 544 352 L 416 352 L 416 354 L 544 354 A 127.99999 127.99999 0 0 0 672 226 A 127.99999 127.99999 0 0 0 671.95898 225.17188 z "
       id="path4541" />
    <path
       style="display:inline;fill:#ffffff;fill-opacity:0.2;stroke:none;stroke-width:16;stroke-linecap:round;stroke-linejoin:round;stroke-miterlimit:4;stroke-dasharray:none;stroke-opacity:1;enable-background:new"
       d="M 392 48 C 378.704 48 368 58.704 368 72 L 368 74 C 368 60.704 378.704 50 392 50 L 398 50 L 458.625 50 L 464.625 50 L 510 50 L 576 50 L 578 50 L 623.375 50 L 629.375 50 L 690 50 L 696 50 C 709.296 50 720 60.704 720 74 L 720 72 C 720 58.704 709.296 48 696 48 L 629.375 48 L 576 48 L 512 48 L 458.625 48 L 392 48 z "
       id="path4637" />
    <path
       style="display:inline;fill:#4b525f;fill-opacity:1;fill-rule:evenodd;stroke:none;stroke-width:4.86648273px;stroke-linecap:butt;stroke-linejoin:miter;stroke-opacity:1;enable-background:new"
       d="M 18 512 C 16.892 512 16 512.89199 16 514 L 16 526 C 16 527.10801 16.892 528 18 528 L 30 528 C 31.108 528 32 527.10801 32 526 L 32 518 L 32 514 C 32 512.892 31.108 512 30 512 L 26 512 L 18 512 z "
       id="rect4630-7-2" />
    <path
       inkscape:connector-curvature="0"
       id="path4536"
       d="m 103,499 c -1.108,0 -2,0.892 -2,2 v 24 c 0,1.108 0.892,2 2,2 h 18 c 1.108,0 2,-0.892 2,-2 v -18 l -8,-8 z"
       style="opacity:1;fill:#000000;fill-opacity:0.2;stroke:none" />
    <path
       style="opacity:1;fill:#4b525f;fill-opacity:1;stroke:none"
       d="M 103 498 C 101.892 498 101 498.892 101 500 L 101 524 C 101 525.108 101.892 526 103 526 L 121 526 C 122.108 526 123 525.108 123 524 L 123 506 L 123 500 C 123 498.892 122.108 498 121 498 L 115 498 L 103 498 z "
       id="rect4526" />
    <path
       style="opacity:1;fill:#ffffff;fill-opacity:0.2;stroke:none"
       d="M 103 498 C 101.892 498 101 498.892 101 500 L 101 501 C 101 499.892 101.892 499 103 499 L 108 499 L 116 499 L 121 499 C 122.108 499 123 499.892 123 501 L 123 500 C 123 498.892 122.108 498 121 498 L 115 498 L 109 498 L 103 498 z "
       id="rect4529" />
    <path
       inkscape:connector-curvature="0"
       id="path4544"
       d="m 221,469 c -1.662,0 -3,1.338 -3,3 v 50 c 0,1.662 1.338,3 3,3 h 38 c 1.662,0 3,-1.338 3,-3 v -35 l -18,-18 z m 38.60547,0.0605 c 0.39058,0.0799 0.75306,0.23552 1.07226,0.45117 -0.31876,-0.21473 -0.68155,-0.37163 -1.07226,-0.45117 z m 1.07422,0.45117 c 0.31825,0.21524 0.59335,0.49034 0.80859,0.80859 -0.21523,-0.3191 -0.48949,-0.59336 -0.80859,-0.80859 z m 0.80859,0.81055 c 0.21565,0.3192 0.37125,0.68168 0.45117,1.07226 -0.0795,-0.39071 -0.23644,-0.7535 -0.45117,-1.07226 z"
       style="opacity:1;fill:#000000;fill-opacity:0.2;stroke:none;stroke-opacity:1;filter:url(#filter4546)" />
    <path
       style="opacity:1;fill:#4b525f;fill-opacity:1;stroke:none;stroke-opacity:1"
       d="M 221 468 C 219.338 468 218 469.338 218 471 L 218 521 C 218 522.662 219.338 524 221 524 L 259 524 C 260.662 524 262 522.662 262 521 L 262 486 L 262 471 C 262 470.79289 261.97942 470.58982 261.93945 470.39453 C 261.85953 470.00395 261.70393 469.64147 261.48828 469.32227 C 261.27263 469.00306 260.99694 468.72737 260.67773 468.51172 C 260.35853 468.29607 259.99605 468.14045 259.60547 468.06055 C 259.41018 468.02058 259.20711 468 259 468 L 244 468 L 221 468 z "
       id="rect4543" />
    <path
       style="opacity:1;fill:#ffffff;fill-opacity:0.2;stroke:none;stroke-opacity:1"
       d="M 221 468 C 219.338 468 218 469.338 218 471 L 218 472 C 218 470.338 219.338 469 221 469 L 235 469 L 245 469 L 259 469 C 260.662 469 262 470.338 262 472 L 262 471 C 262 469.338 260.662 468 259 468 L 244 468 L 236 468 L 221 468 z "
       id="path4550" />
    <path
       id="path4506-3"
       d="m 24,514 a 6,6 0 0 0 -6,6 v 6 h 6 a 6,6 0 0 0 6,-6 6,6 0 0 0 -6,-6 z m 0,3 a 3,3 0 0 1 3,3 3,3 0 0 1 -3,3 3,3 0 0 1 -3,-3 3,3 0 0 1 3,-3 z"
       style="display:inline;opacity:1;fill:#262a30;fill-opacity:1;stroke:none;stroke-width:3;stroke-linecap:round;stroke-linejoin:round;stroke-miterlimit:4;stroke-dasharray:none;stroke-opacity:1;enable-background:new"
       inkscape:connector-curvature="0" />
    <path
       inkscape:connector-curvature="0"
       style="display:inline;opacity:1;fill:#262a30;fill-opacity:1;stroke:none;stroke-width:3;stroke-linecap:round;stroke-linejoin:round;stroke-miterlimit:4;stroke-dasharray:none;stroke-opacity:1;enable-background:new"
       d="m 64,508 a 6,6 0 0 0 -6,6 v 6 h 6 a 6,6 0 0 0 6,-6 6,6 0 0 0 -6,-6 z m 0,3 a 3,3 0 0 1 3,3 3,3 0 0 1 -3,3 3,3 0 0 1 -3,-3 3,3 0 0 1 3,-3 z"
       id="path4611" />
    <path
       style="display:inline;opacity:1;fill:#000000;fill-opacity:0.2;stroke:none;stroke-width:3;stroke-linecap:round;stroke-linejoin:round;stroke-miterlimit:4;stroke-dasharray:none;stroke-opacity:1;enable-background:new"
       d="M 64 508 A 6 6 0 0 0 58 514 L 58 515 A 6 6 0 0 1 64 509 A 6 6 0 0 1 69.974609 514.49805 A 6 6 0 0 0 70 514 A 6 6 0 0 0 64 508 z M 66.957031 514.48633 A 3 3 0 0 1 64 517 A 3 3 0 0 1 61.042969 514.51367 A 3 3 0 0 0 61 515 A 3 3 0 0 0 64 518 A 3 3 0 0 0 67 515 A 3 3 0 0 0 66.957031 514.48633 z "
       id="path4567" />
    <path
       inkscape:connector-curvature="0"
       style="display:inline;fill:#262a30;fill-opacity:1;fill-rule:evenodd;stroke:none;stroke-width:1px;stroke-linecap:butt;stroke-linejoin:miter;stroke-opacity:1;enable-background:new"
       d="m 112,501 a 8,8 0 0 0 -8,8 v 8 h 8 a 8,8 0 0 0 8,-8 8,8 0 0 0 -8,-8 z m 0,4 a 4,4 0 0 1 4,4 4,4 0 0 1 -4,4 4,4 0 0 1 -4,-4 4,4 0 0 1 4,-4 z"
       id="path4576" />
    <path
       inkscape:connector-curvature="0"
       id="path4549"
       d="m 168,490 a 11,11 0 0 0 -11,11 v 11 h 11 a 11,11 0 0 0 11,-11 11,11 0 0 0 -11,-11 z m 0,5 a 6,6 0 0 1 6,6 6,6 0 0 1 -6,6 6,6 0 0 1 -6,-6 6,6 0 0 1 6,-6 z"
       style="display:inline;opacity:1;fill:#c8c8c8;fill-opacity:0.2;stroke:none;stroke-width:3;stroke-linecap:round;stroke-linejoin:round;stroke-miterlimit:4;stroke-dasharray:none;stroke-opacity:1;enable-background:new" />
    <path
       style="display:inline;opacity:1;fill:#262a30;fill-opacity:1;stroke:none;stroke-width:3;stroke-linecap:round;stroke-linejoin:round;stroke-miterlimit:4;stroke-dasharray:none;stroke-opacity:1;enable-background:new"
       d="m 168,489 a 11,11 0 0 0 -11,11 v 11 h 11 a 11,11 0 0 0 11,-11 11,11 0 0 0 -11,-11 z m 0,5 a 6,6 0 0 1 6,6 6,6 0 0 1 -6,6 6,6 0 0 1 -6,-6 6,6 0 0 1 6,-6 z"
       id="path4425"
       inkscape:connector-curvature="0" />
    <path
       inkscape:connector-curvature="0"
       style="display:inline;fill:#ffffff;fill-opacity:0.2;fill-rule:evenodd;stroke:none;stroke-width:1px;stroke-linecap:butt;stroke-linejoin:miter;stroke-opacity:1;enable-background:new"
       d="m 240,475 a 15.999999,15.999999 0 0 0 -16,16 v 16 h 16 a 15.999999,15.999999 0 0 0 16,-16 15.999999,15.999999 0 0 0 -16,-16 z m 0,8 a 7.9999997,7.9999997 0 0 1 8,8 7.9999997,7.9999997 0 0 1 -8,8 7.9999997,7.9999997 0 0 1 -8,-8 7.9999997,7.9999997 0 0 1 8,-8 z"
       id="path4547" />
    <path
       id="path4596"
       d="m 240,474 a 15.999999,15.999999 0 0 0 -16,16 v 16 h 16 a 15.999999,15.999999 0 0 0 16,-16 15.999999,15.999999 0 0 0 -16,-16 z m 0,8 a 7.9999997,7.9999997 0 0 1 8,8 7.9999997,7.9999997 0 0 1 -8,8 7.9999997,7.9999997 0 0 1 -8,-8 7.9999997,7.9999997 0 0 1 8,-8 z"
       style="display:inline;fill:#262a30;fill-opacity:1;fill-rule:evenodd;stroke:none;stroke-width:1px;stroke-linecap:butt;stroke-linejoin:miter;stroke-opacity:1;enable-background:new"
       inkscape:connector-curvature="0" />
    <path
       inkscape:connector-curvature="0"
       style="display:inline;fill:#262a30;fill-opacity:1;fill-rule:evenodd;stroke:none;stroke-width:8px;stroke-linecap:butt;stroke-linejoin:miter;stroke-opacity:1;enable-background:new"
       d="M 544,96 A 127.99999,127.99999 0 0 0 416,224 V 352 H 544 A 127.99999,127.99999 0 0 0 672,224 127.99999,127.99999 0 0 0 544,96 Z m 0,64 a 63.999998,63.999998 0 0 1 64,64 63.999998,63.999998 0 0 1 -64,64 63.999998,63.999998 0 0 1 -64,-64 63.999998,63.999998 0 0 1 64,-64 z"
       id="path4631" />
    <path
       style="display:inline;fill:#000000;fill-opacity:0.2;fill-rule:evenodd;stroke:none;stroke-width:8px;stroke-linecap:butt;stroke-linejoin:miter;stroke-opacity:1;enable-background:new"
       d="M 544 96 A 127.99999 127.99999 0 0 0 416 224 L 416 226 A 127.99999 127.99999 0 0 1 544 98 A 127.99999 127.99999 0 0 1 671.95898 225.17188 A 127.99999 127.99999 0 0 0 672 224 A 127.99999 127.99999 0 0 0 544 96 z M 607.95898 224.82812 A 63.999998 63.999998 0 0 1 544 288 A 63.999998 63.999998 0 0 1 480.04102 225.17188 A 63.999998 63.999998 0 0 0 480 226 A 63.999998 63.999998 0 0 0 544 290 A 63.999998 63.999998 0 0 0 608 226 A 63.999998 63.999998 0 0 0 607.95898 224.82812 z "
       id="path4551" />
    <path
       style="display:inline;fill:url(#linearGradient4449-0);fill-opacity:1;stroke:none;stroke-width:16;stroke-linecap:round;stroke-linejoin:round;stroke-miterlimit:4;stroke-dasharray:none;stroke-opacity:1;enable-background:new"
       d="m 392,48 c -13.296,0 -24,10.704 -24,24 V 109.4668 434.9707 472 c 0,13.296 10.704,24 24,24 h 304 c 13.296,0 24,-10.704 24,-24 V 434.52344 192 72 C 720,58.7452 709.2548,48 696,48 H 576 Z"
       id="path4447"
       inkscape:connector-curvature="0" />
    <path
       style="display:inline;fill:#000000;fill-opacity:0.2;fill-rule:evenodd;stroke:none;stroke-width:1px;stroke-linecap:butt;stroke-linejoin:miter;stroke-opacity:1;enable-background:new"
       d="M 240 474 A 15.999999 15.999999 0 0 0 224 490 L 224 491 A 15.999999 15.999999 0 0 1 240 475 A 15.999999 15.999999 0 0 1 255.97852 490.58008 A 15.999999 15.999999 0 0 0 256 490 A 15.999999 15.999999 0 0 0 240 474 z M 247.97852 490.42383 A 7.9999997 7.9999997 0 0 1 240 498 A 7.9999997 7.9999997 0 0 1 232.02148 490.57617 A 7.9999997 7.9999997 0 0 0 232 491 A 7.9999997 7.9999997 0 0 0 240 499 A 7.9999997 7.9999997 0 0 0 248 491 A 7.9999997 7.9999997 0 0 0 247.97852 490.42383 z "
       id="path4557" />
    <path
       style="display:inline;opacity:1;fill:#000000;fill-opacity:0.2;stroke:none;stroke-width:3;stroke-linecap:round;stroke-linejoin:round;stroke-miterlimit:4;stroke-dasharray:none;stroke-opacity:1;enable-background:new"
       d="M 168 489 A 11 11 0 0 0 157 500 L 157 501 A 11 11 0 0 1 168 490 A 11 11 0 0 1 178.97852 500.58594 A 11 11 0 0 0 179 500 A 11 11 0 0 0 168 489 z M 162.02539 500.49805 A 6 6 0 0 0 162 501 A 6 6 0 0 0 168 507 A 6 6 0 0 0 174 501 A 6 6 0 0 0 173.97461 500.50195 A 6 6 0 0 1 168 506 A 6 6 0 0 1 162.02539 500.49805 z "
       id="path4562" />
    <path
       style="display:inline;fill:#ffffff;fill-opacity:0.2;fill-rule:evenodd;stroke:none;stroke-width:1px;stroke-linecap:butt;stroke-linejoin:miter;stroke-opacity:1;enable-background:new"
       d="M 112 505 A 4 4 0 0 0 108 509 A 4 4 0 0 0 108.03516 509.49414 A 4 4 0 0 1 112 506 A 4 4 0 0 1 115.96484 509.50586 A 4 4 0 0 0 116 509 A 4 4 0 0 0 112 505 z M 119.97852 509.57617 A 8 8 0 0 1 112 517 L 104 517 L 104 518 L 112 518 A 8 8 0 0 0 120 510 A 8 8 0 0 0 119.97852 509.57617 z "
       id="path4577" />
    <path
       style="display:inline;fill:#000000;fill-opacity:0.2;fill-rule:evenodd;stroke:none;stroke-width:1px;stroke-linecap:butt;stroke-linejoin:miter;stroke-opacity:1;enable-background:new"
       d="M 112 501 A 8 8 0 0 0 104 509 L 104 510 A 8 8 0 0 1 112 502 A 8 8 0 0 1 119.97852 509.57617 A 8 8 0 0 0 120 509 A 8 8 0 0 0 112 501 z M 108.03516 509.49414 A 4 4 0 0 0 108 510 A 4 4 0 0 0 112 514 A 4 4 0 0 0 116 510 A 4 4 0 0 0 115.96484 509.50586 A 4 4 0 0 1 112 513 A 4 4 0 0 1 108.03516 509.49414 z "
       id="path4582" />
    <path
       style="display:inline;fill:url(#linearGradient4620);fill-opacity:1;stroke:none;stroke-width:1.46667397;stroke-linecap:round;stroke-linejoin:round;stroke-miterlimit:4;stroke-dasharray:none;stroke-opacity:1;enable-background:new"
       d="m 58,506 c -1.108,0 -2,0.892 -2,2 v 0.47656 15.06641 V 524 c 0,1.108 0.892,2 2,2 h 12 c 1.108,0 2,-0.892 2,-2 V 523.52344 512 508 c 0,-1.108 -0.892,-2 -2,-2 h -4 z"
       id="path4618"
       inkscape:connector-curvature="0" />
    <path
       style="display:inline;fill:url(#linearGradient4435);fill-opacity:1;stroke:none;stroke-width:2;stroke-linecap:round;stroke-linejoin:round;stroke-miterlimit:4;stroke-dasharray:none;stroke-opacity:1;enable-background:new"
       d="m 103,498 c -1.108,0 -2,0.892 -2,2 v 1.8418 20.34375 V 524 c 0,1.108 0.892,2 2,2 h 18 c 1.108,0 2,-0.892 2,-2 V 522.1582 506 500 c 0,-1.108 -0.892,-2 -2,-2 h -6 z"
       id="path4433"
       inkscape:connector-curvature="0" />
    <path
       style="display:inline;fill:url(#linearGradient4537);fill-opacity:1;stroke:none;stroke-width:2;stroke-linecap:round;stroke-linejoin:round;stroke-miterlimit:4;stroke-dasharray:none;stroke-opacity:1;enable-background:new"
       d="m 221,468 c -1.662,0 -3,1.338 -3,3 v 4.68164 40.68945 V 521 c 0,1.662 1.338,3 3,3 h 38 c 1.662,0 3,-1.338 3,-3 V 516.31641 486 471 c 0,-0.20711 -0.0206,-0.41018 -0.0605,-0.60547 -0.0799,-0.39058 -0.23552,-0.75306 -0.45117,-1.07226 -0.21565,-0.31921 -0.49134,-0.5949 -0.81055,-0.81055 -0.3192,-0.21565 -0.68168,-0.37127 -1.07226,-0.45117 C 259.41018,468.02058 259.20711,468 259,468 h -15 z"
       id="path4535"
       inkscape:connector-curvature="0" />
    <path
       style="display:inline;fill:url(#linearGradient4171-1-0);fill-opacity:1;stroke:none;stroke-width:2;stroke-linecap:round;stroke-linejoin:round;stroke-miterlimit:4;stroke-dasharray:none;stroke-opacity:1;enable-background:new"
       d="m 155,484 c -1.662,0 -3,1.338 -3,3 v 1.95312 30.13282 V 521 c 0,1.662 1.338,3 3,3 h 26 c 1.662,0 3,-1.338 3,-3 V 519.04492 496 487 c 0,-1.662 -1.338,-3 -3,-3 h -9 z"
       id="circle4163-3-4"
       inkscape:connector-curvature="0"
       sodipodi:nodetypes="ssccssssccsscs" />
    <circle
       r="10"
       transform="scale(-1,1)"
       id="circle5012"
       style="display:inline;fill:#000000;fill-opacity:0.2;stroke:none;stroke-width:0.83333331;enable-background:new"
       cx="-180"
       cy="517" />
    <circle
       cy="516"
       cx="-180"
       style="display:inline;fill:#0095aa;fill-opacity:1;stroke:none;stroke-width:0.83333331;enable-background:new"
       id="path4058-0"
       transform="scale(-1,1)"
       r="10" />
    <circle
       r="7"
       id="circle5008"
       style="display:inline;fill:#000000;fill-opacity:0.2;fill-rule:evenodd;stroke:none;stroke-width:0.875;enable-background:new"
       cx="120"
       cy="521" />
    <circle
       cy="520"
       cx="120"
       style="display:inline;fill:#0095aa;fill-opacity:1;fill-rule:evenodd;stroke:none;stroke-width:0.875;enable-background:new"
       id="circle4426-9"
       r="7" />
    <circle
       r="5"
       cy="520"
       cx="24"
       id="circle4441"
       style="display:inline;opacity:1;fill:#0095aa;fill-opacity:1;stroke:none;stroke-width:1.66666663;stroke-linecap:round;stroke-linejoin:round;stroke-miterlimit:4;stroke-dasharray:none;stroke-opacity:1;enable-background:new" />
    <circle
       r="12"
       cy="515"
       cx="-258"
       style="display:inline;fill:#000000;fill-opacity:0.2;stroke:none;stroke-width:0.99999994;enable-background:new;filter:url(#filter5059)"
       id="circle5037"
       transform="scale(-1,1)" />
    <circle
       transform="scale(-1,1)"
       id="circle4986"
       style="display:inline;fill:#0095aa;fill-opacity:1;stroke:none;stroke-width:0.99999994;enable-background:new"
       cx="-258"
       cy="514"
       r="12" />
    <path
       d="m 184.58026,517.58495 c 0.0249,-0.192 0.0432,-0.387 0.0432,-0.585 0,-0.198 -0.0183,-0.39301 -0.0432,-0.58501 l 1.30429,-0.993 c 0.11714,-0.09 0.15108,-0.252 0.0741,-0.38401 l -1.23335,-2.07903 c -0.0771,-0.129 -0.23742,-0.183 -0.37617,-0.129 l -1.53555,0.60302 c -0.31757,-0.237 -0.666,-0.43802 -1.04217,-0.59102 l -0.23126,-1.59001 c -0.0277,-0.14101 -0.15412,-0.25201 -0.30829,-0.25201 h -2.46672 c -0.15417,0 -0.28058,0.111 -0.30525,0.25201 l -0.23126,1.59001 c -0.37617,0.153 -0.72458,0.35102 -1.04217,0.59102 l -1.53553,-0.60302 c -0.13875,-0.0509 -0.29908,0 -0.37618,0.129 l -1.23335,2.07903 c -0.0771,0.12901 -0.0432,0.29101 0.0741,0.38401 l 1.30119,0.993 c -0.0249,0.192 -0.0432,0.38701 -0.0432,0.58501 0,0.198 0.0183,0.393 0.0432,0.585 l -1.30119,0.99301 c -0.11715,0.09 -0.15109,0.252 -0.0741,0.384 l 1.23335,2.07902 c 0.0771,0.129 0.23743,0.183 0.37618,0.129 l 1.53553,-0.603 c 0.31759,0.237 0.666,0.438 1.04217,0.591 l 0.23126,1.59002 c 0.0249,0.141 0.15108,0.252 0.30525,0.252 h 2.46672 c 0.15417,0 0.28059,-0.111 0.30525,-0.252 l 0.23125,-1.59002 c 0.37619,-0.153 0.72462,-0.351 1.0422,-0.591 l 1.53552,0.603 c 0.13876,0.0511 0.29909,0 0.37618,-0.129 l 1.23335,-2.07902 c 0.0771,-0.129 0.0432,-0.291 -0.0741,-0.384 l -1.3012,-0.99301 z m -4.58192,1.51501 c -1.19328,0 -2.15837,-0.93901 -2.15837,-2.10001 0,-1.16101 0.96509,-2.10002 2.15837,-2.10002 1.19328,0 2.15839,0.93901 2.15839,2.10002 0,1.161 -0.96511,2.10001 -2.15839,2.10001 z"
       id="path5053"
       inkscape:connector-curvature="0"
       style="display:inline;fill:#000000;fill-opacity:0.2;stroke-width:0.75000656;enable-background:new;filter:url(#filter5076)" />
    <path
       style="display:inline;fill:#f5f5f5;fill-opacity:1;stroke-width:0.75000656;enable-background:new"
       inkscape:connector-curvature="0"
       id="path4520"
       d="m 184.58026,516.58495 c 0.0249,-0.192 0.0432,-0.387 0.0432,-0.585 0,-0.198 -0.0183,-0.39301 -0.0432,-0.58501 l 1.30429,-0.993 c 0.11714,-0.09 0.15108,-0.252 0.0741,-0.38401 l -1.23335,-2.07903 c -0.0771,-0.129 -0.23742,-0.183 -0.37617,-0.129 l -1.53555,0.60302 c -0.31757,-0.237 -0.666,-0.43802 -1.04217,-0.59102 l -0.23126,-1.59001 c -0.0277,-0.14101 -0.15412,-0.25201 -0.30829,-0.25201 h -2.46672 c -0.15417,0 -0.28058,0.111 -0.30525,0.25201 l -0.23126,1.59001 c -0.37617,0.153 -0.72458,0.35102 -1.04217,0.59102 l -1.53553,-0.60302 c -0.13875,-0.0509 -0.29908,0 -0.37618,0.129 l -1.23335,2.07903 c -0.0771,0.12901 -0.0432,0.29101 0.0741,0.38401 l 1.30119,0.993 c -0.0249,0.192 -0.0432,0.38701 -0.0432,0.58501 0,0.198 0.0183,0.393 0.0432,0.585 l -1.30119,0.99301 c -0.11715,0.09 -0.15109,0.252 -0.0741,0.384 l 1.23335,2.07902 c 0.0771,0.129 0.23743,0.183 0.37618,0.129 l 1.53553,-0.603 c 0.31759,0.237 0.666,0.438 1.04217,0.591 l 0.23126,1.59002 c 0.0249,0.141 0.15108,0.252 0.30525,0.252 h 2.46672 c 0.15417,0 0.28059,-0.111 0.30525,-0.252 l 0.23125,-1.59002 c 0.37619,-0.153 0.72462,-0.351 1.0422,-0.591 l 1.53552,0.603 c 0.13876,0.0511 0.29909,0 0.37618,-0.129 l 1.23335,-2.07902 c 0.0771,-0.129 0.0432,-0.291 -0.0741,-0.384 l -1.3012,-0.99301 z m -4.58192,1.51501 c -1.19328,0 -2.15837,-0.93901 -2.15837,-2.10001 0,-1.16101 0.96509,-2.10002 2.15837,-2.10002 1.19328,0 2.15839,0.93901 2.15839,2.10002 0,1.161 -0.96511,2.10001 -2.15839,2.10001 z" />
    <path
       style="display:inline;fill:#000000;fill-opacity:0.2;stroke-width:1.00000024;enable-background:new;filter:url(#filter5068)"
       inkscape:connector-curvature="0"
       id="path5027"
       d="m 264.10714,515.78 c 0.033,-0.256 0.0576,-0.516 0.0576,-0.78 0,-0.264 -0.0246,-0.524 -0.0576,-0.78 l 1.73904,-1.324 c 0.1562,-0.12 0.20144,-0.336 0.0986,-0.512 l -1.64447,-2.772 c -0.1028,-0.172 -0.31656,-0.244 -0.50156,-0.172 l -2.04736,0.804 c -0.42344,-0.316 -0.888,-0.584 -1.38956,-0.788 l -0.30833,-2.12 C 260.01662,507.148 259.84799,507 259.64243,507 h -3.28892 c -0.20556,0 -0.37412,0.148 -0.407,0.336 l -0.30834,2.12 c -0.50156,0.204 -0.96612,0.468 -1.38956,0.788 l -2.04735,-0.804 c -0.185,-0.068 -0.39878,0 -0.50156,0.172 l -1.64446,2.772 c -0.1028,0.172 -0.0576,0.388 0.0986,0.512 l 1.7349,1.324 c -0.033,0.256 -0.0576,0.516 -0.0576,0.78 0,0.264 0.0246,0.524 0.0576,0.78 l -1.7349,1.324 c -0.1562,0.12 -0.20144,0.336 -0.0986,0.512 l 1.64446,2.772 c 0.1028,0.172 0.31656,0.244 0.50156,0.172 l 2.04735,-0.804 c 0.42344,0.316 0.888,0.584 1.38956,0.788 l 0.30834,2.12 c 0.033,0.188 0.20144,0.336 0.407,0.336 h 3.28892 c 0.20556,0 0.37412,-0.148 0.407,-0.336 l 0.30835,-2.12 c 0.50156,-0.204 0.96612,-0.468 1.38957,-0.788 l 2.04735,0.804 c 0.185,0.068 0.39877,0 0.50156,-0.172 l 1.64446,-2.772 c 0.1028,-0.172 0.0576,-0.388 -0.0986,-0.512 l -1.73493,-1.324 z m -6.10917,2.02 c -1.59102,0 -2.8778,-1.252 -2.8778,-2.8 0,-1.548 1.28678,-2.8 2.8778,-2.8 1.59102,0 2.87782,1.252 2.87782,2.8 0,1.548 -1.2868,2.8 -2.87782,2.8 z" />
    <path
       d="m 264.10714,514.78 c 0.033,-0.256 0.0576,-0.516 0.0576,-0.78 0,-0.264 -0.0246,-0.524 -0.0576,-0.78 l 1.73904,-1.324 c 0.1562,-0.12 0.20144,-0.336 0.0986,-0.512 l -1.64447,-2.772 c -0.1028,-0.172 -0.31656,-0.244 -0.50155,-0.172 l -2.04736,0.804 c -0.42344,-0.316 -0.888,-0.584 -1.38957,-0.788 l -0.30834,-2.12 c -0.0369,-0.188 -0.2055,-0.336 -0.41105,-0.336 h -3.28893 c -0.20555,0 -0.37411,0.148 -0.40699,0.336 l -0.30835,2.12 c -0.50156,0.204 -0.96612,0.468 -1.38956,0.788 l -2.04736,-0.804 c -0.18499,-0.068 -0.39877,0 -0.50155,0.172 l -1.64445,2.772 c -0.1028,0.172 -0.0576,0.388 0.0986,0.512 l 1.7349,1.324 c -0.033,0.256 -0.0576,0.516 -0.0576,0.78 0,0.264 0.0246,0.524 0.0576,0.78 l -1.7349,1.324 c -0.15619,0.12 -0.20144,0.336 -0.0986,0.512 l 1.64445,2.772 c 0.1028,0.172 0.31656,0.244 0.50155,0.172 l 2.04736,-0.804 c 0.42344,0.316 0.888,0.584 1.38956,0.788 l 0.30835,2.12 c 0.033,0.188 0.20144,0.336 0.40699,0.336 h 3.28893 c 0.20555,0 0.37411,-0.148 0.40699,-0.336 l 0.30835,-2.12 c 0.50155,-0.204 0.96611,-0.468 1.38957,-0.788 l 2.04735,0.804 c 0.185,0.068 0.39878,0 0.50156,-0.172 l 1.64445,-2.772 c 0.1028,-0.172 0.0576,-0.388 -0.0986,-0.512 l -1.73493,-1.324 z m -6.10917,2.02 c -1.59102,0 -2.8778,-1.252 -2.8778,-2.8 0,-1.548 1.28678,-2.8 2.8778,-2.8 1.59103,0 2.87783,1.252 2.87783,2.8 0,1.548 -1.2868,2.8 -2.87783,2.8 z"
       id="path4994"
       inkscape:connector-curvature="0"
       style="display:inline;fill:#f5f5f5;fill-opacity:1;stroke-width:1.00000012;enable-background:new" />
    <path
       style="display:inline;fill:#000000;fill-opacity:0.2;stroke-width:0.62500018;enable-background:new"
       inkscape:connector-curvature="0"
       id="path5006"
       d="m 123.81697,521.4875 c 0.0206,-0.16 0.036,-0.3225 0.036,-0.4875 0,-0.165 -0.0154,-0.3275 -0.036,-0.4875 l 1.0869,-0.8275 c 0.0976,-0.075 0.1259,-0.21 0.0616,-0.32 l -1.02778,-1.7325 c -0.0643,-0.1075 -0.19785,-0.1525 -0.31348,-0.1075 l -1.2796,0.5025 c -0.26465,-0.1975 -0.555,-0.365 -0.86847,-0.4925 l -0.19271,-1.325 c -0.0231,-0.1175 -0.12842,-0.21 -0.2569,-0.21 h -2.05557 c -0.12848,0 -0.23383,0.0925 -0.25438,0.21 l -0.19271,1.325 c -0.31347,0.1275 -0.60382,0.2925 -0.86847,0.4925 l -1.2796,-0.5025 c -0.11563,-0.0425 -0.24924,0 -0.31348,0.1075 l -1.02779,1.7325 c -0.0643,0.1075 -0.036,0.2425 0.0616,0.32 l 1.08431,0.8275 c -0.0206,0.16 -0.036,0.3225 -0.036,0.4875 0,0.165 0.0154,0.3275 0.036,0.4875 l -1.08431,0.8275 c -0.0976,0.075 -0.1259,0.21 -0.0616,0.32 l 1.02779,1.7325 c 0.0643,0.1075 0.19785,0.1525 0.31348,0.1075 l 1.2796,-0.5025 c 0.26465,0.1975 0.555,0.365 0.86847,0.4925 l 0.19271,1.325 c 0.0206,0.1175 0.1259,0.21 0.25438,0.21 h 2.05557 c 0.12848,0 0.23383,-0.0925 0.25438,-0.21 l 0.19271,-1.325 c 0.31348,-0.1275 0.60383,-0.2925 0.86849,-0.4925 l 1.27958,0.5025 c 0.11563,0.0425 0.24924,0 0.31348,-0.1075 l 1.02779,-1.7325 c 0.0642,-0.1075 0.036,-0.2425 -0.0616,-0.32 l -1.08432,-0.8275 z m -3.81822,1.2625 c -0.99439,0 -1.79863,-0.7825 -1.79863,-1.75 0,-0.9675 0.80424,-1.75 1.79863,-1.75 0.99438,0 1.79863,0.7825 1.79863,1.75 0,0.9675 -0.80425,1.75 -1.79863,1.75 z" />
    <path
       d="m 123.81697,520.4875 c 0.0206,-0.16 0.036,-0.3225 0.036,-0.4875 0,-0.165 -0.0154,-0.3275 -0.036,-0.4875 l 1.0869,-0.8275 c 0.0976,-0.075 0.1259,-0.21 0.0616,-0.32 l -1.02778,-1.7325 c -0.0643,-0.1075 -0.19785,-0.1525 -0.31348,-0.1075 l -1.2796,0.5025 c -0.26465,-0.1975 -0.555,-0.365 -0.86847,-0.4925 l -0.19271,-1.325 c -0.0231,-0.1175 -0.12842,-0.21 -0.2569,-0.21 h -2.05557 c -0.12848,0 -0.23383,0.0925 -0.25438,0.21 l -0.19271,1.325 c -0.31347,0.1275 -0.60382,0.2925 -0.86847,0.4925 l -1.2796,-0.5025 c -0.11563,-0.0425 -0.24924,0 -0.31348,0.1075 l -1.02779,1.7325 c -0.0643,0.1075 -0.036,0.2425 0.0616,0.32 l 1.08431,0.8275 c -0.0206,0.16 -0.036,0.3225 -0.036,0.4875 0,0.165 0.0154,0.3275 0.036,0.4875 l -1.08431,0.8275 c -0.0976,0.075 -0.1259,0.21 -0.0616,0.32 l 1.02779,1.7325 c 0.0643,0.1075 0.19785,0.1525 0.31348,0.1075 l 1.2796,-0.5025 c 0.26465,0.1975 0.555,0.365 0.86847,0.4925 l 0.19271,1.325 c 0.0206,0.1175 0.1259,0.21 0.25438,0.21 h 2.05557 c 0.12848,0 0.23383,-0.0925 0.25438,-0.21 l 0.19271,-1.325 c 0.31348,-0.1275 0.60383,-0.2925 0.86849,-0.4925 l 1.27958,0.5025 c 0.11563,0.0425 0.24924,0 0.31348,-0.1075 l 1.02779,-1.7325 c 0.0642,-0.1075 0.036,-0.2425 -0.0616,-0.32 l -1.08432,-0.8275 z m -3.81822,1.2625 c -0.99439,0 -1.79863,-0.7825 -1.79863,-1.75 0,-0.9675 0.80424,-1.75 1.79863,-1.75 0.99438,0 1.79863,0.7825 1.79863,1.75 0,0.9675 -0.80425,1.75 -1.79863,1.75 z"
       id="path4998"
       inkscape:connector-curvature="0"
       style="display:inline;fill:#f5f5f5;fill-opacity:1;stroke-width:0.62500018;enable-background:new" />
    <path
       d="m 26.290182,520.2925 c 0.01236,-0.096 0.0216,-0.1935 0.0216,-0.2925 0,-0.099 -0.0092,-0.1965 -0.0216,-0.2925 l 0.65214,-0.4965 c 0.05856,-0.045 0.07554,-0.126 0.03696,-0.192 l -0.616668,-1.0395 c -0.03858,-0.0645 -0.11871,-0.0915 -0.188088,-0.0645 l -0.76776,0.3015 c -0.15879,-0.1185 -0.333,-0.219 -0.521082,-0.2955 l -0.115626,-0.795 C 24.756198,517.0555 24.693006,517 24.615918,517 h -1.233342 c -0.07709,0 -0.140298,0.0555 -0.152628,0.126 l -0.115625,0.795 c -0.188082,0.0765 -0.362292,0.1755 -0.521082,0.2955 l -0.76776,-0.3015 c -0.06938,-0.0255 -0.149544,0 -0.188088,0.0645 l -0.616673,1.0395 c -0.03858,0.0645 -0.0216,0.1455 0.03696,0.192 l 0.650585,0.4965 c -0.01236,0.096 -0.0216,0.1935 -0.0216,0.2925 0,0.099 0.0092,0.1965 0.0216,0.2925 l -0.650585,0.4965 c -0.05856,0.045 -0.07554,0.126 -0.03696,0.192 l 0.616673,1.0395 c 0.03858,0.0645 0.11871,0.0915 0.188088,0.0645 l 0.76776,-0.3015 c 0.15879,0.1185 0.333,0.219 0.521082,0.2955 l 0.115625,0.795 c 0.01236,0.0705 0.07554,0.126 0.152628,0.126 h 1.233342 c 0.07709,0 0.140298,-0.0555 0.152628,-0.126 l 0.115626,-0.795 c 0.188088,-0.0765 0.362298,-0.1755 0.521094,-0.2955 l 0.767748,0.3015 c 0.06938,0.0255 0.149544,0 0.188088,-0.0645 l 0.616674,-1.0395 c 0.03852,-0.0645 0.0216,-0.1455 -0.03696,-0.192 l -0.650592,-0.4965 z M 23.99925,521.05 c -0.596634,0 -1.079177,-0.4695 -1.079177,-1.05 0,-0.5805 0.482543,-1.05 1.079177,-1.05 0.596628,0 1.079178,0.4695 1.079178,1.05 0,0.5805 -0.48255,1.05 -1.079178,1.05 z"
       id="path5004"
       inkscape:connector-curvature="0"
       style="display:inline;fill:#f5f5f5;fill-opacity:1;stroke-width:0.37499997;enable-background:new" />
    <path
       style="display:inline;fill:#ffffff;fill-opacity:0.2;stroke:none;stroke-width:0.83333331;enable-background:new"
       d="M 180 506 A 10 10 0 0 0 170 516 A 10 10 0 0 0 170.02148 516.41406 A 10 10 0 0 1 180 507 A 10 10 0 0 1 189.97852 516.58594 A 10 10 0 0 0 190 516 A 10 10 0 0 0 180 506 z "
       id="circle5048" />
    <path
       style="display:inline;fill:#ffffff;fill-opacity:0.2;stroke:none;stroke-width:0.99999994;enable-background:new"
       d="M 258 502 A 12 12 0 0 0 246 514 A 12 12 0 0 0 246.01953 514.40625 A 12 12 0 0 1 258 503 A 12 12 0 0 1 269.98047 514.59375 A 12 12 0 0 0 270 514 A 12 12 0 0 0 258 502 z "
       id="circle5063" />
    <circle
       transform="scale(-1,1)"
       id="circle5106"
       style="display:inline;fill:#000000;fill-opacity:0.2;stroke:none;stroke-width:7.99999952;enable-background:new"
       cx="-688"
       cy="418"
       r="96" />
    <circle
       r="96"
       cy="418"
       cx="-688"
       style="display:inline;fill:#000000;fill-opacity:0.2;stroke:none;stroke-width:7.99999952;enable-background:new;filter:url(#filter5114)"
       id="circle5108"
       transform="scale(-1,1)" />
    <circle
       r="96"
       cy="416"
       cx="-688"
       style="display:inline;fill:#0095aa;fill-opacity:1;stroke:none;stroke-width:7.99999952;enable-background:new"
       id="circle5080"
       transform="scale(-1,1)" />
    <path
       d="m 736.85712,424.24 c 0.264,-2.048 0.4608,-4.128 0.4608,-6.24 0,-2.112 -0.1968,-4.192 -0.4608,-6.24 l 13.91232,-10.592 c 1.2496,-0.96 1.61152,-2.688 0.7888,-4.096 L 738.40248,374.896 C 737.58008,373.52 735.87,372.944 734.39,373.52 l -16.37888,6.432 c -3.38752,-2.528 -7.104,-4.672 -11.11648,-6.304 L 704.428,356.688 C 704.13296,355.184 702.78392,354 701.13944,354 h -26.31136 c -1.64448,0 -2.99296,1.184 -3.256,2.688 l -2.46672,16.96 c -4.01248,1.632 -7.72896,3.744 -11.11648,6.304 l -16.3788,-6.432 c -1.48,-0.544 -3.19024,0 -4.01248,1.376 l -13.15568,22.176 c -0.8224,1.376 -0.4608,3.104 0.7888,4.096 l 13.8792,10.592 c -0.264,2.048 -0.4608,4.128 -0.4608,6.24 0,2.112 0.1968,4.192 0.4608,6.24 l -13.8792,10.592 c -1.2496,0.96 -1.61152,2.688 -0.7888,4.096 l 13.15568,22.176 c 0.8224,1.376 2.53248,1.952 4.01248,1.376 l 16.3788,-6.432 c 3.38752,2.528 7.104,4.672 11.11648,6.304 l 2.46672,16.96 c 0.264,1.504 1.61152,2.688 3.256,2.688 h 26.31136 c 1.64448,0 2.99296,-1.184 3.256,-2.688 l 2.4668,-16.96 c 4.01248,-1.632 7.72896,-3.744 11.11656,-6.304 l 16.3788,6.432 c 1.48,0.544 3.19016,0 4.01248,-1.376 l 13.15568,-22.176 c 0.8224,-1.376 0.4608,-3.104 -0.7888,-4.096 L 736.85752,424.24 Z m -48.87336,16.16 c -12.72816,0 -23.0224,-10.016 -23.0224,-22.4 0,-12.384 10.29424,-22.4 23.0224,-22.4 12.72816,0 23.02256,10.016 23.02256,22.4 0,12.384 -10.2944,22.4 -23.02256,22.4 z"
       id="path5082"
       inkscape:connector-curvature="0"
       style="display:inline;fill:#000000;fill-opacity:0.2;stroke-width:8.00000191;enable-background:new" />
    <path
       style="display:inline;fill:#000000;fill-opacity:0.2;stroke-width:8.00000191;enable-background:new;filter:url(#filter5097)"
       inkscape:connector-curvature="0"
       id="path5091"
       d="m 736.85712,424.24 c 0.264,-2.048 0.4608,-4.128 0.4608,-6.24 0,-2.112 -0.1968,-4.192 -0.4608,-6.24 l 13.91232,-10.592 c 1.2496,-0.96 1.61152,-2.688 0.7888,-4.096 L 738.40248,374.896 C 737.58008,373.52 735.87,372.944 734.39,373.52 l -16.37888,6.432 c -3.38752,-2.528 -7.104,-4.672 -11.11648,-6.304 L 704.428,356.688 C 704.13296,355.184 702.78392,354 701.13944,354 h -26.31136 c -1.64448,0 -2.99296,1.184 -3.256,2.688 l -2.46672,16.96 c -4.01248,1.632 -7.72896,3.744 -11.11648,6.304 l -16.3788,-6.432 c -1.48,-0.544 -3.19024,0 -4.01248,1.376 l -13.15568,22.176 c -0.8224,1.376 -0.4608,3.104 0.7888,4.096 l 13.8792,10.592 c -0.264,2.048 -0.4608,4.128 -0.4608,6.24 0,2.112 0.1968,4.192 0.4608,6.24 l -13.8792,10.592 c -1.2496,0.96 -1.61152,2.688 -0.7888,4.096 l 13.15568,22.176 c 0.8224,1.376 2.53248,1.952 4.01248,1.376 l 16.3788,-6.432 c 3.38752,2.528 7.104,4.672 11.11648,6.304 l 2.46672,16.96 c 0.264,1.504 1.61152,2.688 3.256,2.688 h 26.31136 c 1.64448,0 2.99296,-1.184 3.256,-2.688 l 2.4668,-16.96 c 4.01248,-1.632 7.72896,-3.744 11.11656,-6.304 l 16.3788,6.432 c 1.48,0.544 3.19016,0 4.01248,-1.376 l 13.15568,-22.176 c 0.8224,-1.376 0.4608,-3.104 -0.7888,-4.096 L 736.85752,424.24 Z m -48.87336,16.16 c -12.72816,0 -23.0224,-10.016 -23.0224,-22.4 0,-12.384 10.29424,-22.4 23.0224,-22.4 12.72816,0 23.02256,10.016 23.02256,22.4 0,12.384 -10.2944,22.4 -23.02256,22.4 z" />
    <path
       style="display:inline;fill:#f5f5f5;fill-opacity:1;stroke-width:8.00000095;enable-background:new"
       inkscape:connector-curvature="0"
       id="path5084"
       d="m 736.85712,422.24 c 0.264,-2.048 0.4608,-4.128 0.4608,-6.24 0,-2.112 -0.1968,-4.192 -0.4608,-6.24 l 13.91232,-10.592 c 1.2496,-0.96 1.61152,-2.688 0.7888,-4.096 l -13.15576,-22.176 c -0.8224,-1.376 -2.53248,-1.952 -4.0124,-1.376 l -16.37888,6.432 c -3.38752,-2.528 -7.104,-4.672 -11.11656,-6.304 l -2.46672,-16.96 c -0.2952,-1.504 -1.644,-2.688 -3.2884,-2.688 h -26.31144 c -1.6444,0 -2.99288,1.184 -3.25592,2.688 l -2.4668,16.96 c -4.01248,1.632 -7.72896,3.744 -11.11648,6.304 L 641.61,371.52 c -1.47992,-0.544 -3.19016,0 -4.0124,1.376 l -13.1556,22.176 c -0.8224,1.376 -0.4608,3.104 0.7888,4.096 L 639.11,409.76 c -0.264,2.048 -0.4608,4.128 -0.4608,6.24 0,2.112 0.1968,4.192 0.4608,6.24 l -13.8792,10.592 c -1.24952,0.96 -1.61152,2.688 -0.7888,4.096 l 13.1556,22.176 c 0.8224,1.376 2.53248,1.952 4.0124,1.376 l 16.37888,-6.432 c 3.38752,2.528 7.104,4.672 11.11648,6.304 l 2.4668,16.96 c 0.264,1.504 1.61152,2.688 3.25592,2.688 h 26.31144 c 1.6444,0 2.99288,-1.184 3.25592,-2.688 l 2.4668,-16.96 c 4.0124,-1.632 7.72888,-3.744 11.11656,-6.304 l 16.3788,6.432 c 1.48,0.544 3.19024,0 4.01248,-1.376 l 13.1556,-22.176 c 0.8224,-1.376 0.4608,-3.104 -0.7888,-4.096 L 736.85744,422.24 Z m -48.87336,16.16 c -12.72816,0 -23.0224,-10.016 -23.0224,-22.4 0,-12.384 10.29424,-22.4 23.0224,-22.4 12.72824,0 23.02264,10.016 23.02264,22.4 0,12.384 -10.2944,22.4 -23.02264,22.4 z" />
    <path
       style="display:inline;fill:#ffffff;fill-opacity:0.2;stroke:none;stroke-width:7.99999952;enable-background:new"
       d="M 688 320 A 96 96 0 0 0 592 416 A 96 96 0 0 0 592.04102 416.84766 A 96 96 0 0 1 688 322 A 96 96 0 0 1 783.96094 417.20703 A 96 96 0 0 0 784 416 A 96 96 0 0 0 688 320 z "
       id="path5086" />
    <path
       style="display:inline;fill:#ffffff;fill-opacity:1;stroke-width:8.00000095;enable-background:new"
       d="M 674.82812 352 C 673.18372 352 671.83531 353.1835 671.57227 354.6875 L 669.10547 371.64844 C 665.09299 373.28044 661.3758 375.39117 657.98828 377.95117 L 641.60938 371.51953 C 640.12946 370.97553 638.4199 371.52048 637.59766 372.89648 L 624.44141 395.07227 C 623.95407 395.88765 623.89124 396.82396 624.17383 397.66016 C 624.24306 397.45927 624.32767 397.26257 624.44141 397.07227 L 637.59766 374.89648 C 638.4199 373.52048 640.12946 372.97553 641.60938 373.51953 L 657.98828 379.95117 C 661.3758 377.39117 665.09299 375.28044 669.10547 373.64844 L 671.57227 356.6875 C 671.83531 355.1835 673.18372 354 674.82812 354 L 701.13867 354 C 702.78307 354 704.13253 355.1835 704.42773 356.6875 L 706.89453 373.64844 C 710.90709 375.28044 714.6242 377.42317 718.01172 379.95117 L 734.39062 373.51953 C 735.87054 372.94353 737.57994 373.52048 738.40234 374.89648 L 751.55859 397.07227 C 751.67258 397.26734 751.75883 397.46936 751.82812 397.67383 C 752.10706 396.84342 752.04429 395.90348 751.55859 395.07227 L 738.40234 372.89648 C 737.57994 371.52048 735.87054 370.94353 734.39062 371.51953 L 718.01172 377.95117 C 714.6242 375.42317 710.90709 373.28044 706.89453 371.64844 L 704.42773 354.6875 C 704.13253 353.1835 702.78307 352 701.13867 352 L 674.82812 352 z M 638.91406 411.60938 C 638.76519 413.05899 638.64844 414.51891 638.64844 416 C 638.64844 416.33457 638.66056 416.66704 638.66992 417 C 638.71966 415.2311 638.8872 413.48334 639.10938 411.75977 L 638.91406 411.60938 z M 737.05273 411.61133 L 736.85742 411.75977 C 737.0796 413.48334 737.24714 415.2311 737.29688 417 C 737.30624 416.66704 737.31836 416.33457 737.31836 416 C 737.31836 414.51957 737.20149 413.06031 737.05273 411.61133 z M 664.98828 417 C 664.97335 417.33165 664.96094 417.66473 664.96094 418 C 664.96094 430.384 675.25621 440.40039 687.98438 440.40039 C 700.71261 440.40039 711.00586 430.384 711.00586 418 C 711.00586 417.66473 710.9954 417.33165 710.98047 417 C 710.44377 428.91853 700.36803 438.40039 687.98438 438.40039 C 675.6008 438.40039 665.52498 428.91853 664.98828 417 z M 638.91406 422.39062 L 625.23047 432.83203 C 624.15407 433.65903 623.74102 435.05485 624.17188 436.32617 C 624.36544 435.74994 624.71861 435.22529 625.23047 434.83203 L 639.10938 424.24023 C 639.03051 423.62844 638.97748 423.00813 638.91406 422.39062 z M 737.05273 422.39062 C 736.98932 423.00813 736.93629 423.62844 736.85742 424.24023 L 750.73633 434.83203 C 751.2465 435.23703 751.59897 435.76744 751.79297 436.34375 C 752.22663 435.09105 751.81428 433.68777 750.73633 432.83203 L 737.05273 422.39062 z "
       id="path5101" />
    <circle
       cy="522"
       cx="70"
       style="display:inline;fill:#000000;fill-opacity:0.2;fill-rule:evenodd;stroke:none;stroke-width:0.75;enable-background:new"
       id="circle4592"
       r="6" />
    <path
       inkscape:connector-curvature="0"
       id="path5083"
       d="m 120,512.99998 a 7,7 0 0 0 -7,7 7,7 0 0 0 0.0234,0.54102 7,7 0 0 1 6.97656,-6.54102 7,7 0 0 1 6.97656,6.45898 7,7 0 0 0 0.0234,-0.45898 7,7 0 0 0 -7,-7 z"
       style="display:inline;fill:#fafafa;fill-opacity:0.2;fill-rule:evenodd;stroke:none;stroke-width:0.875;enable-background:new" />
    <circle
       id="circle4594"
       style="display:inline;fill:#0095aa;fill-opacity:1;fill-rule:evenodd;stroke:none;stroke-width:0.75;enable-background:new"
       cx="70"
       cy="521"
       r="6" />
    <path
       style="display:inline;fill:#ffffff;fill-opacity:0.2;fill-rule:evenodd;stroke:none;stroke-width:0.75;enable-background:new"
       d="m 70,515.00005 a 6,6 0 0 0 -6,6 6,6 0 0 0 0.02539,0.49805 A 6,6 0 0 1 70,516.00005 6,6 0 0 1 75.974609,521.502 6,6 0 0 0 76,521.00005 a 6,6 0 0 0 -6,-6 z"
       id="circle4580"
       inkscape:connector-curvature="0" />
    <path
       d="m 73.053575,522.39 c 0.01648,-0.128 0.0288,-0.258 0.0288,-0.39 0,-0.132 -0.01232,-0.262 -0.0288,-0.39 l 0.86952,-0.662 c 0.07808,-0.06 0.100719,-0.168 0.04928,-0.256 l -0.822224,-1.386 c -0.05144,-0.086 -0.15828,-0.122 -0.250784,-0.086 l -1.02368,0.402 c -0.21172,-0.158 -0.443999,-0.292 -0.694775,-0.394 l -0.154168,-1.06 C 71.008264,518.074 70.924008,518 70.821224,518 h -1.644456 c -0.102784,0 -0.187064,0.074 -0.203504,0.168 l -0.154167,1.06 c -0.250776,0.102 -0.483056,0.234 -0.694776,0.394 l -1.02368,-0.402 c -0.0925,-0.034 -0.199392,0 -0.250784,0.086 l -0.822231,1.386 c -0.05144,0.086 -0.0288,0.194 0.04928,0.256 l 0.867447,0.662 c -0.01648,0.128 -0.0288,0.258 -0.0288,0.39 0,0.132 0.01232,0.262 0.0288,0.39 l -0.867447,0.662 c -0.07808,0.06 -0.10072,0.168 -0.04928,0.256 l 0.822231,1.386 c 0.05144,0.086 0.15828,0.122 0.250784,0.086 l 1.02368,-0.402 c 0.21172,0.158 0.444,0.292 0.694776,0.394 l 0.154167,1.06 c 0.01648,0.094 0.10072,0.168 0.203504,0.168 h 1.644456 c 0.102784,0 0.187064,-0.074 0.203504,-0.168 l 0.154168,-1.06 c 0.250784,-0.102 0.483063,-0.234 0.694791,-0.394 l 1.023664,0.402 c 0.0925,0.034 0.199392,0 0.250784,-0.086 l 0.822232,-1.386 c 0.05136,-0.086 0.0288,-0.194 -0.04928,-0.256 L 73.053631,522.39 Z M 69.999,523.4 c -0.795512,0 -1.438903,-0.626 -1.438903,-1.4 0,-0.774 0.643391,-1.4 1.438903,-1.4 0.795504,0 1.438903,0.626 1.438903,1.4 0,0.774 -0.643399,1.4 -1.438903,1.4 z"
       id="path4597"
       inkscape:connector-curvature="0"
       style="display:inline;fill:#000000;fill-opacity:0.2;stroke-width:0.50000006;enable-background:new" />
    <path
       style="display:inline;fill:#f5f5f5;fill-opacity:1;stroke-width:0.50000006;enable-background:new"
       inkscape:connector-curvature="0"
       id="path4599"
       d="m 73.053575,521.39 c 0.01648,-0.128 0.0288,-0.258 0.0288,-0.39 0,-0.132 -0.01232,-0.262 -0.0288,-0.39 l 0.86952,-0.662 c 0.07808,-0.06 0.100719,-0.168 0.04928,-0.256 l -0.822224,-1.386 c -0.05144,-0.086 -0.15828,-0.122 -0.250784,-0.086 l -1.02368,0.402 c -0.21172,-0.158 -0.443999,-0.292 -0.694775,-0.394 l -0.154168,-1.06 C 71.008264,517.074 70.924008,517 70.821224,517 h -1.644456 c -0.102784,0 -0.187064,0.074 -0.203504,0.168 l -0.154167,1.06 c -0.250776,0.102 -0.483056,0.234 -0.694776,0.394 l -1.02368,-0.402 c -0.0925,-0.034 -0.199392,0 -0.250784,0.086 l -0.822231,1.386 c -0.05144,0.086 -0.0288,0.194 0.04928,0.256 l 0.867447,0.662 c -0.01648,0.128 -0.0288,0.258 -0.0288,0.39 0,0.132 0.01232,0.262 0.0288,0.39 l -0.867447,0.662 c -0.07808,0.06 -0.10072,0.168 -0.04928,0.256 l 0.822231,1.386 c 0.05144,0.086 0.15828,0.122 0.250784,0.086 l 1.02368,-0.402 c 0.21172,0.158 0.444,0.292 0.694776,0.394 l 0.154167,1.06 c 0.01648,0.094 0.10072,0.168 0.203504,0.168 h 1.644456 c 0.102784,0 0.187064,-0.074 0.203504,-0.168 l 0.154168,-1.06 c 0.250784,-0.102 0.483063,-0.234 0.694791,-0.394 l 1.023664,0.402 c 0.0925,0.034 0.199392,0 0.250784,-0.086 l 0.822232,-1.386 c 0.05136,-0.086 0.0288,-0.194 -0.04928,-0.256 L 73.053631,521.39 Z M 69.999,522.4 c -0.795512,0 -1.438903,-0.626 -1.438903,-1.4 0,-0.774 0.643391,-1.4 1.438903,-1.4 0.795504,0 1.438903,0.626 1.438903,1.4 0,0.774 -0.643399,1.4 -1.438903,1.4 z" />
  </g>
</svg>
