<?xml version="1.0" encoding="UTF-8" standalone="no"?>
<!-- Created with Inkscape (http://www.inkscape.org/) -->

<svg
   xmlns:dc="http://purl.org/dc/elements/1.1/"
   xmlns:cc="http://creativecommons.org/ns#"
   xmlns:rdf="http://www.w3.org/1999/02/22-rdf-syntax-ns#"
   xmlns:svg="http://www.w3.org/2000/svg"
   xmlns="http://www.w3.org/2000/svg"
   xmlns:xlink="http://www.w3.org/1999/xlink"
   xmlns:sodipodi="http://sodipodi.sourceforge.net/DTD/sodipodi-0.dtd"
   xmlns:inkscape="http://www.inkscape.org/namespaces/inkscape"
   width="816"
   height="544"
   viewBox="0 0 816 544"
   version="1.1"
   id="svg1087"
   inkscape:version="0.92.1 r"
   sodipodi:docname="gnome-calendar.svg">
  <defs
     id="defs1081">
    <linearGradient
       id="linearGradient4554"
       inkscape:collect="always">
      <stop
         id="stop4550"
         offset="0"
         style="stop-color:#ffffff;stop-opacity:0.05490196" />
      <stop
         id="stop4552"
         offset="1"
         style="stop-color:#177ed5;stop-opacity:0;" />
    </linearGradient>
    <filter
       inkscape:collect="always"
       style="color-interpolation-filters:sRGB"
       id="filter5087"
       x="-0.048"
       width="1.096"
       y="-0.048"
       height="1.096">
      <feGaussianBlur
         inkscape:collect="always"
         stdDeviation="0.8"
         id="feGaussianBlur5089" />
    </filter>
    <linearGradient
       inkscape:collect="always"
       id="linearGradient4165">
      <stop
         style="stop-color:#ffffff;stop-opacity:0.05490196"
         offset="0"
         id="stop4167" />
      <stop
         style="stop-color:#177ed5;stop-opacity:0;"
         offset="1"
         id="stop4169" />
    </linearGradient>
    <linearGradient
       inkscape:collect="always"
       xlink:href="#linearGradient4554"
       id="linearGradient4171-1-0"
       x1="7"
       y1="1011.3622"
       x2="41.000019"
       y2="1045.3622"
       gradientUnits="userSpaceOnUse"
       gradientTransform="matrix(0.95652174,0,0,0.95652174,145.04353,-479.6505)" />
    <linearGradient
       inkscape:collect="always"
       id="linearGradient4165-3">
      <stop
         style="stop-color:#ffffff;stop-opacity:0.05490196"
         offset="0"
         id="stop4167-6" />
      <stop
         style="stop-color:#177ed5;stop-opacity:0;"
         offset="1"
         id="stop4169-7" />
    </linearGradient>
    <linearGradient
       inkscape:collect="always"
       xlink:href="#linearGradient4165-3"
       id="linearGradient4535"
       gradientUnits="userSpaceOnUse"
       gradientTransform="matrix(1.3043412,0,0,1.3043465,208.69566,-845.3402)"
       x1="7"
       y1="1011.3622"
       x2="41.000019"
       y2="1045.3622" />
    <filter
       inkscape:collect="always"
       style="color-interpolation-filters:sRGB"
       id="filter4633"
       x="-0.012"
       width="1.024"
       y="-0.012"
       height="1.024">
      <feGaussianBlur
         inkscape:collect="always"
         stdDeviation="0.02"
         id="feGaussianBlur4635" />
    </filter>
    <linearGradient
       inkscape:collect="always"
       xlink:href="#linearGradient4165"
       id="linearGradient4778"
       gradientUnits="userSpaceOnUse"
       gradientTransform="matrix(0.47825838,0,0,0.47826068,52.5218,24.17487)"
       x1="7"
       y1="1011.3622"
       x2="41.000019"
       y2="1045.3622" />
    <linearGradient
       inkscape:collect="always"
       xlink:href="#linearGradient4554"
       id="linearGradient4435"
       gradientUnits="userSpaceOnUse"
       gradientTransform="matrix(0.65217041,0,0,0.65217328,96.3479,-158.67021)"
       x1="7"
       y1="1011.3622"
       x2="41.000019"
       y2="1045.3622" />
    <filter
       inkscape:collect="always"
       style="color-interpolation-filters:sRGB"
       id="filter4799"
       x="-0.012"
       width="1.024"
       y="-0.012"
       height="1.024">
      <feGaussianBlur
         inkscape:collect="always"
         stdDeviation="0.28"
         id="feGaussianBlur4801" />
    </filter>
    <filter
       inkscape:collect="always"
       style="color-interpolation-filters:sRGB"
       id="filter4765"
       x="-0.0062142857"
       width="1.0124286"
       y="-0.174"
       height="1.348">
      <feGaussianBlur
         inkscape:collect="always"
         stdDeviation="0.145"
         id="feGaussianBlur4767" />
    </filter>
    <filter
       inkscape:collect="always"
       style="color-interpolation-filters:sRGB"
       id="filter4773"
       x="-0.011999999"
       width="1.024"
       y="-0.012000001"
       height="1.024">
      <feGaussianBlur
         inkscape:collect="always"
         stdDeviation="0.025000001"
         id="feGaussianBlur4775" />
    </filter>
    <filter
       inkscape:collect="always"
       style="color-interpolation-filters:sRGB"
       id="filter4781"
       x="-0.011999999"
       width="1.024"
       y="-0.012000001"
       height="1.024">
      <feGaussianBlur
         inkscape:collect="always"
         stdDeviation="0.025000001"
         id="feGaussianBlur4783" />
    </filter>
    <filter
       inkscape:collect="always"
       style="color-interpolation-filters:sRGB"
       id="filter4877"
       x="-0.0099"
       width="1.0198"
       y="-0.015230769"
       height="1.0304615">
      <feGaussianBlur
         inkscape:collect="always"
         stdDeviation="0.165"
         id="feGaussianBlur4879" />
    </filter>
    <filter
       inkscape:collect="always"
       style="color-interpolation-filters:sRGB"
       id="filter4889"
       x="-0.0063"
       width="1.0126"
       y="-0.126"
       height="1.252">
      <feGaussianBlur
         inkscape:collect="always"
         stdDeviation="0.105"
         id="feGaussianBlur4891" />
    </filter>
    <linearGradient
       inkscape:collect="always"
       xlink:href="#linearGradient4165-3"
       id="linearGradient4999"
       gradientUnits="userSpaceOnUse"
       gradientTransform="matrix(10.43473,0,0,10.434772,293.56528,-10458.721)"
       x1="7"
       y1="1011.3622"
       x2="41.000019"
       y2="1045.3622" />
    <filter
       inkscape:collect="always"
       style="color-interpolation-filters:sRGB"
       id="filter5051"
       x="-0.023999999"
       width="1.048"
       y="-0.024000001"
       height="1.048">
      <feGaussianBlur
         inkscape:collect="always"
         stdDeviation="0.40000002"
         id="feGaussianBlur5053" />
    </filter>
    <filter
       inkscape:collect="always"
       style="color-interpolation-filters:sRGB"
       id="filter5061"
       x="-0.012107143"
       width="1.0242143"
       y="-1.356"
       height="3.712">
      <feGaussianBlur
         inkscape:collect="always"
         stdDeviation="2.26"
         id="feGaussianBlur5063" />
    </filter>
    <filter
       inkscape:collect="always"
       style="color-interpolation-filters:sRGB"
       id="filter5093"
       x="-0.023999999"
       width="1.048"
       y="-0.024000001"
       height="1.048">
      <feGaussianBlur
         inkscape:collect="always"
         stdDeviation="0.40000002"
         id="feGaussianBlur5095" />
    </filter>
    <filter
       inkscape:collect="always"
       style="color-interpolation-filters:sRGB"
       id="filter5107"
       x="-0.024"
       width="1.048"
       y="-0.024"
       height="1.048">
      <feGaussianBlur
         inkscape:collect="always"
         stdDeviation="4.48"
         id="feGaussianBlur5109" />
    </filter>
  </defs>
  <sodipodi:namedview
     id="base"
     pagecolor="#c3c3c3"
     bordercolor="#333333"
     borderopacity="1"
     inkscape:pageopacity="0"
     inkscape:pageshadow="2"
     inkscape:zoom="1.9999999"
     inkscape:cx="82.136585"
     inkscape:cy="-120.51026"
     inkscape:document-units="px"
     inkscape:current-layer="layer1"
     showgrid="true"
     units="px"
     inkscape:showpageshadow="false"
     inkscape:window-width="1280"
     inkscape:window-height="1370"
     inkscape:window-x="1280"
     inkscape:window-y="34"
     inkscape:window-maximized="0"
     showguides="false">
    <inkscape:grid
       type="xygrid"
       id="grid4630" />
  </sodipodi:namedview>
  <metadata
     id="metadata1084">
    <rdf:RDF>
      <cc:Work
         rdf:about="">
        <dc:format>image/svg+xml</dc:format>
        <dc:type
           rdf:resource="http://purl.org/dc/dcmitype/StillImage" />
        <dc:title />
        <cc:license
           rdf:resource="http://creativecommons.org/licenses/by-sa/4.0/" />
        <dc:creator>
          <cc:Agent>
            <dc:title>Peter Cornelis</dc:title>
          </cc:Agent>
        </dc:creator>
      </cc:Work>
      <cc:License
         rdf:about="http://creativecommons.org/licenses/by-sa/4.0/">
        <cc:permits
           rdf:resource="http://creativecommons.org/ns#Reproduction" />
        <cc:permits
           rdf:resource="http://creativecommons.org/ns#Distribution" />
        <cc:requires
           rdf:resource="http://creativecommons.org/ns#Notice" />
        <cc:requires
           rdf:resource="http://creativecommons.org/ns#Attribution" />
        <cc:permits
           rdf:resource="http://creativecommons.org/ns#DerivativeWorks" />
        <cc:requires
           rdf:resource="http://creativecommons.org/ns#ShareAlike" />
      </cc:License>
    </rdf:RDF>
  </metadata>
  <g
     inkscape:label="Baseplate"
     inkscape:groupmode="layer"
     id="layer1"
     transform="translate(0,-153.06668)"
     style="display:none">
    <text
       y="733.32251"
       xml:space="preserve"
       x="15.006836"
       style="font-style:normal;font-variant:normal;font-weight:normal;font-stretch:normal;line-height:0%;font-family:'DejaVu Sans';-inkscape-font-specification:'DejaVu Sans';display:inline;fill:#000000;fill-opacity:1;stroke:none;enable-background:new"
       inkscape:label="context"
       id="context"><tspan
         style="font-style:normal;font-variant:normal;font-weight:normal;font-stretch:normal;font-size:18px;line-height:1.25;font-family:'DejaVu Sans';-inkscape-font-specification:'DejaVu Sans'"
         y="733.32251"
         x="15.006836"
         sodipodi:role="line"
         id="tspan3933">apps</tspan></text>
    <text
       y="733.32251"
       xml:space="preserve"
       x="142.48828"
       style="font-style:normal;font-variant:normal;font-weight:bold;font-stretch:normal;line-height:0%;font-family:'DejaVu Sans';-inkscape-font-specification:'DejaVu Sans Bold';text-align:start;writing-mode:lr-tb;text-anchor:start;display:inline;fill:#000000;fill-opacity:1;stroke:none;enable-background:new"
       inkscape:label="icon-name"
       id="icon-name"><tspan
         style="font-style:normal;font-variant:normal;font-weight:bold;font-stretch:normal;font-size:18px;line-height:1.25;font-family:'DejaVu Sans';-inkscape-font-specification:'DejaVu Sans Bold'"
         y="733.32251"
         x="142.48828"
         sodipodi:role="line"
         id="tspan3937">gnome-calendar</tspan></text>
    <rect
       style="display:inline;overflow:visible;visibility:visible;fill:#fefefe;fill-opacity:1;fill-rule:nonzero;stroke:none;stroke-width:2;marker:none;enable-background:accumulate"
       id="rect16x16"
       width="16"
       height="16"
       x="-32"
       y="665.06665"
       inkscape:label="16x16"
       transform="scale(-1,1)" />
    <rect
       style="display:inline;overflow:visible;visibility:visible;fill:#fefefe;fill-opacity:1;fill-rule:nonzero;stroke:none;stroke-width:2;marker:none;enable-background:accumulate"
       id="rect24x24"
       width="24"
       height="24"
       x="-76"
       y="657.06665"
       inkscape:label="24x24"
       transform="scale(-1,1)" />
    <rect
       inkscape:label="48x48"
       y="633.06665"
       x="-192"
       height="48"
       width="48"
       id="rect48x48"
       style="display:inline;overflow:visible;visibility:visible;fill:#fefefe;fill-opacity:1;fill-rule:nonzero;stroke:none;stroke-width:2;marker:none;enable-background:accumulate"
       transform="scale(-1,1)" />
    <rect
       style="display:inline;overflow:visible;visibility:visible;fill:#fefefe;fill-opacity:1;fill-rule:nonzero;stroke:none;stroke-width:2;marker:none;enable-background:accumulate"
       id="rect32x32"
       width="32"
       height="32"
       x="-128"
       y="649.06665"
       inkscape:label="32x32"
       transform="scale(-1,1)" />
    <path
       id="path4521"
       d="m 98.000003,655.06671 v -1 c 0,-1.662 1.338,-3 2.999997,-3 h 22 c 1.662,0 3,1.338 3,3 v 1 c 0,-1.662 -1.338,-3 -3,-3 h -22 c -1.661997,0 -2.999997,1.338 -2.999997,3 z"
       style="display:inline;fill:#fafafa;fill-opacity:0.2;stroke:none;enable-background:new"
       inkscape:connector-curvature="0" />
    <rect
       transform="scale(-1,1)"
       style="display:inline;overflow:visible;visibility:visible;fill:#fefefe;fill-opacity:1;fill-rule:nonzero;stroke:none;stroke-width:2.66666651;marker:none;enable-background:accumulate"
       id="rect5226"
       width="64"
       height="64"
       x="-272"
       y="617.06665"
       inkscape:label="48x48" />
    <rect
       inkscape:label="48x48"
       y="169.06665"
       x="-800"
       height="512"
       width="512"
       id="rect4963"
       style="display:inline;overflow:visible;visibility:visible;fill:#fefefe;fill-opacity:1;fill-rule:nonzero;stroke:none;stroke-width:21.33333206;marker:none;enable-background:accumulate"
       transform="scale(-1,1)" />
  </g>
  <g
     inkscape:groupmode="layer"
     id="layer2"
     inkscape:label="Bitmap"
     style="display:inline">
    <path
       id="path4875"
       d="m 148,499 v 23 c 0,1.662 1.338,3 3,3 h 24 l 13,-13 v -13 z"
       style="display:inline;fill:#000000;fill-opacity:0.2;stroke:none;enable-background:new;filter:url(#filter4877)"
       inkscape:connector-curvature="0" />
    <path
       style="display:inline;fill:#227bd3;fill-opacity:1;stroke:none;enable-background:new"
       d="M 148 498 L 148 521 C 148 522.662 149.338 524 151 524 L 175 524 L 188 511 L 188 498 L 148 498 z "
       id="rect4203" />
    <rect
       style="opacity:1;fill:#000000;fill-opacity:0.2;stroke:none;stroke-opacity:0.2;filter:url(#filter4889)"
       id="rect4887"
       width="40"
       height="2"
       x="148"
       y="497" />
    <path
       style="display:inline;fill:#3b414b;fill-opacity:1;stroke:none;stroke-width:0.09375;enable-background:new"
       d="M 151 484 C 149.338 484 148 485.338 148 487 L 148 490 L 148 491 L 148 492 L 148 494 L 148 495 L 148 498 L 188 498 L 188 495 L 188 494 L 188 492 L 188 491 L 188 490 L 188 487 C 188 485.338 186.662 484 185 484 L 151 484 z "
       id="path4586" />
    <path
       sodipodi:nodetypes="sscsscsscsscs"
       inkscape:connector-curvature="0"
       id="path5069"
       d="m 143,485 c -1.66505,0 -3,1.2912 -3,3 v 17 17 c 0,1.8617 1.34224,3 3,3 h 17 17 c 1.73784,0 3,-1.2767 3,-3 v -17 -17 c 0,-1.6942 -1.29127,-3 -3,-3 h -17 z"
       style="display:inline;fill:none;fill-opacity:0.5;stroke:none;stroke-width:2;stroke-linecap:round;stroke-linejoin:round;stroke-miterlimit:4;stroke-dasharray:none;stroke-opacity:1;filter:url(#filter5087);enable-background:new" />
    <path
       style="display:inline;fill:none;fill-opacity:0.5;stroke:none;stroke-width:2;stroke-linecap:round;stroke-linejoin:round;stroke-miterlimit:4;stroke-dasharray:none;stroke-opacity:1;filter:url(#filter5087);enable-background:new"
       d="m 143,485 c -1.66505,0 -3,1.2912 -3,3 v 17 17 c 0,1.8617 1.34224,3 3,3 h 17 17 c 1.73784,0 3,-1.2767 3,-3 v -17 -17 c 0,-1.6942 -1.29127,-3 -3,-3 h -17 z"
       id="path4506"
       inkscape:connector-curvature="0"
       sodipodi:nodetypes="sscsscsscsscs" />
    <path
       id="path4961"
       d="M 54,514 V 521.55469 525 c 0,1.108 0.892,2 2,2 h 12 l 6,-6 v -7 z"
       style="display:inline;fill:#000000;fill-opacity:0.2;stroke:none;stroke-width:0.5;enable-background:new"
       inkscape:connector-curvature="0" />
    <path
       style="display:inline;fill:#227bd3;fill-opacity:1;stroke:none;stroke-width:0.5;enable-background:new"
       d="M 54 513 L 54 520.55469 L 54 524 C 54 525.108 54.892 526 56 526 L 68 526 L 74 520 L 74 513 L 54 513 z "
       id="path4735" />
    <rect
       style="opacity:1;fill:#000000;fill-opacity:0.2;stroke:none;stroke-opacity:0.2"
       id="rect5001"
       width="20"
       height="2"
       x="54"
       y="512" />
    <path
       style="display:inline;fill:#3b414b;fill-opacity:1;stroke:none;stroke-width:0.046875;enable-background:new"
       d="M 56 506 C 54.892 506 54 506.892 54 508 L 54 509 L 54 509.5 L 54 510 L 54 511 L 54 513 L 74 513 L 74 511 L 74 510 L 74 509 L 74 508 C 74 506.892 73.108 506 72 506 L 56 506 z "
       id="path4739" />
    <path
       id="path4514"
       d="m 148,488 v -1 c 0,-1.662 1.338,-3 3,-3 h 34 c 1.662,0 3,1.338 3,3 v 1 c 0,-1.662 -1.338,-3 -3,-3 h -34 c -1.662,0 -3,1.338 -3,3 z"
       style="display:inline;fill:#ffffff;fill-opacity:0.2;stroke:none;enable-background:new"
       inkscape:connector-curvature="0" />
    <path
       id="path4528"
       d="m 54,509 v -1 c 0,-1.108 0.892,-2 2,-2 h 16 c 1.108,0 2,0.892 2,2 v 1 c 0,-1.108 -0.892,-2 -2,-2 H 56 c -1.108,0 -2,0.892 -2,2 z"
       style="display:inline;fill:#ffffff;fill-opacity:0.2;stroke:none;enable-background:new"
       inkscape:connector-curvature="0" />
    <circle
       r="2"
       style="opacity:1;fill:#000000;fill-opacity:0.2;stroke:none;stroke-width:0.80000001;stroke-opacity:1;filter:url(#filter4633)"
       id="circle4631"
       cx="158"
       cy="492" />
    <circle
       cy="491"
       cx="158"
       id="circle4592"
       style="opacity:1;fill:#949daa;fill-opacity:1;stroke:none;stroke-width:0.80000001;stroke-opacity:1"
       r="2" />
    <circle
       cy="492"
       cx="178"
       id="circle4637"
       style="opacity:1;fill:#000000;fill-opacity:0.2;stroke:none;stroke-width:0.80000001;stroke-opacity:1;filter:url(#filter4633)"
       r="2" />
    <circle
       r="2"
       style="opacity:1;fill:#949daa;fill-opacity:1;stroke:none;stroke-width:0.80000001;stroke-opacity:1"
       id="circle4622"
       cx="178"
       cy="491" />
    <path
       style="opacity:1;fill:#ffffff;fill-opacity:0.2;stroke:none;stroke-width:0.80000001;stroke-opacity:1"
       d="m 178,489 a 2,2 0 0 0 -2,2 2,2 0 0 0 0.0644,0.50391 A 2,2 0 0 1 178,490 2,2 0 0 1 179.93555,491.49609 2,2 0 0 0 180,491 a 2,2 0 0 0 -2,-2 z"
       id="circle4624"
       inkscape:connector-curvature="0" />
    <path
       id="path4629"
       d="m 158,489 a 2,2 0 0 0 -2,2 2,2 0 0 0 0.0644,0.50391 A 2,2 0 0 1 158,490 2,2 0 0 1 159.93555,491.49609 2,2 0 0 0 160,491 a 2,2 0 0 0 -2,-2 z"
       style="opacity:1;fill:#ffffff;fill-opacity:0.2;stroke:none;stroke-width:0.80000001;stroke-opacity:1"
       inkscape:connector-curvature="0" />
    <circle
       cy="510"
       cx="59"
       id="circle4745"
       style="opacity:1;fill:#000000;fill-opacity:0.2;stroke:none;stroke-width:0.40000001;stroke-opacity:1"
       r="1" />
    <circle
       style="opacity:1;fill:#949daa;fill-opacity:1;stroke:none;stroke-width:0.40000001;stroke-opacity:1"
       id="circle4747"
       cx="59"
       cy="509.5"
       r="1" />
    <circle
       r="1"
       style="opacity:1;fill:#000000;fill-opacity:0.2;stroke:none;stroke-width:0.40000001;stroke-opacity:1"
       id="circle4753"
       cx="69"
       cy="510" />
    <circle
       cy="509.5"
       cx="69"
       id="circle4755"
       style="opacity:1;fill:#949daa;fill-opacity:1;stroke:none;stroke-width:0.40000001;stroke-opacity:1"
       r="1" />
    <path
       id="path4757"
       d="m 69,508.5 a 1,1 0 0 0 -1,1 1,1 0 0 0 0.0322,0.25195 A 1,1 0 0 1 69,509 a 1,1 0 0 1 0.96778,0.74804 1,1 0 0 0 0.0322,-0.24804 1,1 0 0 0 -1,-1 z"
       style="opacity:1;fill:#ffffff;fill-opacity:0.2;stroke:none;stroke-width:0.40000001;stroke-opacity:1"
       inkscape:connector-curvature="0" />
    <path
       inkscape:connector-curvature="0"
       style="opacity:1;fill:#ffffff;fill-opacity:0.2;stroke:none;stroke-width:0.40000001;stroke-opacity:1"
       d="m 59,508.5 a 1,1 0 0 0 -1,1 1,1 0 0 0 0.0322,0.25195 A 1,1 0 0 1 59,509 a 1,1 0 0 1 0.96778,0.74804 1,1 0 0 0 0.0322,-0.24804 1,1 0 0 0 -1,-1 z"
       id="path4759" />
    <path
       style="display:inline;fill:#227bd3;fill-opacity:1;stroke:none;stroke-width:0.40000001;enable-background:new"
       d="M 16 518 L 16 523.64453 L 16 526 C 16 527.108 16.892 528 18 528 L 27 528 L 32 523 L 32 518 L 16 518 z "
       id="path4817" />
    <path
       style="display:inline;fill:#414752;fill-opacity:1;stroke:none;stroke-width:0.03750001;enable-background:new"
       d="M 18 512 C 16.892 512 16 512.892 16 514 L 16 514.40039 L 16 514.80078 L 16 515 L 16 518 L 32 518 L 32 515 L 32 514 C 32 512.892 31.108 512 30 512 L 18 512 z "
       id="path4821" />
    <path
       id="path4835"
       d="m 98,509 v 15 c 0,1.662 1.338,3 3,3 h 16 l 9,-9 v -9 z"
       style="opacity:1;fill:#000000;fill-opacity:0.2;stroke:none;stroke-width:0.55167729;stroke-opacity:1"
       inkscape:connector-curvature="0" />
    <path
       style="opacity:1;fill:#227bd3;fill-opacity:1;stroke:none;stroke-width:0.55167729;stroke-opacity:1"
       d="M 98 508 L 98 523 C 98 524.662 99.338 526 101 526 L 117 526 L 126 517 L 126 508 L 98 508 z "
       id="path4648" />
    <rect
       style="opacity:1;fill:#050505;fill-opacity:0.2;stroke:none;stroke-opacity:0.2"
       id="rect4844"
       width="28"
       height="2"
       x="98"
       y="507" />
    <path
       style="display:inline;fill:#3b414b;fill-opacity:1;stroke:none;enable-background:new"
       d="M 101 498 C 99.338 498 98 499.338 98 501 L 98 503 L 98 503.5 L 98 504 L 98 508 L 126 508 L 126 504 L 126 501 C 126 499.338 124.662 498 123 498 L 101 498 z "
       id="rect4255-6" />
    <circle
       style="opacity:1;fill:#000000;fill-opacity:0.2;stroke:none;stroke-width:0.5;stroke-opacity:1"
       id="circle4657"
       cx="105.25"
       cy="503.25"
       r="1.25" />
    <circle
       cy="502.75"
       cx="105.25"
       id="circle4659"
       style="opacity:1;fill:#949daa;fill-opacity:1;stroke:none;stroke-width:0.5;stroke-opacity:1"
       r="1.25" />
    <path
       inkscape:connector-curvature="0"
       id="path4661"
       d="m 105.25,501.49999 a 1.25,1.25 0 0 0 -1.25,1.25 1.25,1.25 0 0 0 0.0264,0.24804 1.25,1.25 0 0 1 1.2236,-0.99804 1.25,1.25 0 0 1 1.22363,1.00195 1.25,1.25 0 0 0 0.0264,-0.25195 1.25,1.25 0 0 0 -1.25,-1.25 z"
       style="opacity:1;fill:#ffffff;fill-opacity:0.2;stroke:none;stroke-width:0.5;stroke-opacity:1" />
    <circle
       cy="503.25"
       cx="118.75"
       id="circle4663"
       style="opacity:1;fill:#000000;fill-opacity:0.2;stroke:none;stroke-width:0.5;stroke-opacity:1"
       r="1.25" />
    <circle
       style="opacity:1;fill:#949daa;fill-opacity:1;stroke:none;stroke-width:0.5;stroke-opacity:1"
       id="circle4665"
       cx="118.75"
       cy="502.75"
       r="1.25" />
    <path
       inkscape:connector-curvature="0"
       style="opacity:1;fill:#ffffff;fill-opacity:0.2;stroke:none;stroke-width:0.5;stroke-opacity:1"
       d="m 118.75,501.49999 a 1.25,1.25 0 0 0 -1.25,1.25 1.25,1.25 0 0 0 0.0264,0.24804 1.25,1.25 0 0 1 1.2236,-0.99804 1.25,1.25 0 0 1 1.22363,1.00195 1.25,1.25 0 0 0 0.0264,-0.25195 1.25,1.25 0 0 0 -1.25,-1.25 z"
       id="path4667" />
    <path
       id="path4521-7"
       d="m 98,502 v -1 c 0,-1.662 1.337997,-3 3,-3 h 22 c 1.662,0 3,1.338 3,3 v 1 c 0,-1.662 -1.338,-3 -3,-3 h -22 c -1.662003,0 -3,1.338 -3,3 z"
       style="display:inline;fill:#fafafa;fill-opacity:0.2;stroke:none;enable-background:new"
       inkscape:connector-curvature="0" />
    <path
       style="opacity:1;fill:#000000;fill-opacity:0.2;stroke:none;stroke-width:1.02740228;stroke-opacity:0.2;filter:url(#filter4799)"
       d="m 216.5,469 c -2.493,0 -4.5,2.007 -4.5,4.5 v 14.5 18 14.5 c 0,2.493 2.007,4.5 4.5,4.5 H 249 l 19,-19 v -18 -14.5 c 0,-2.493 -2.007,-4.5 -4.5,-4.5 z"
       id="path4792"
       inkscape:connector-curvature="0" />
    <path
       style="opacity:1;fill:#227bd3;fill-opacity:1;stroke:none;stroke-width:1.02740228;stroke-opacity:0.2"
       d="m 212,487 v 18 14.5 c 0,2.493 2.007,4.5 4.5,4.5 h 14.5 18 l 19,-19 v -18 h -19 -18 z"
       id="rect4772"
       inkscape:connector-curvature="0" />
    <path
       style="opacity:1;fill:#000000;fill-opacity:0.1;stroke:none;stroke-width:0.89442712;stroke-opacity:0.2"
       d="M 231 487 L 231 505 L 249 505 L 249 487 L 231 487 z "
       id="rect4735" />
    <path
       inkscape:connector-curvature="0"
       style="opacity:1;fill:#000000;fill-opacity:0.2;stroke:none;stroke-width:0.91893649;stroke-opacity:0.2"
       d="m 212,487 v 18 h 19 v -18 z"
       id="path4745" />
    <rect
       style="opacity:1;fill:#000000;fill-opacity:0.2;stroke:none;stroke-opacity:0.2;filter:url(#filter4765)"
       id="rect4763"
       width="56"
       height="2"
       x="212"
       y="486" />
    <path
       id="path4781"
       d="m 212,487 v -14.5 c 0,-2.493 2.007,-4.5 4.5,-4.5 h 47 c 2.493,0 4.5,2.007 4.5,4.5 V 487 Z"
       style="opacity:1;fill:#3b414b;fill-opacity:1;stroke:none;stroke-width:1.02740228;stroke-opacity:0.2"
       inkscape:connector-curvature="0" />
    <path
       inkscape:connector-curvature="0"
       style="display:inline;fill:#ffffff;fill-opacity:0.2;stroke:none;stroke-width:0.125;enable-background:new"
       d="m 216.50003,468 c -2.493,0 -4.5,2.007 -4.5,4.5 v 1 c 0,-2.493 2.007,-4.5 4.5,-4.5 h 47 c 2.493,0 4.5,2.007 4.5,4.5 v -1 c 0,-2.493 -2.007,-4.5 -4.5,-4.5 z"
       id="rect4537" />
    <ellipse
       cy="477.5"
       cx="226.50003"
       id="circle4623"
       style="display:inline;opacity:1;fill:#000000;fill-opacity:0.2;stroke:none;stroke-opacity:1;filter:url(#filter4781)"
       rx="2.5000002"
       ry="2.5" />
    <ellipse
       style="display:inline;opacity:1;fill:#949daa;fill-opacity:1;stroke:none;stroke-opacity:1"
       id="path4616"
       cx="226.50003"
       cy="476.5"
       rx="2.5000002"
       ry="2.5" />
    <path
       style="display:inline;opacity:1;fill:#ffffff;fill-opacity:0.2;stroke:none;stroke-opacity:1"
       d="m 226.50003,474.00003 a 2.5000001,2.5 0 0 0 -2.5,2.5 2.5000001,2.5 0 0 0 0.0527,0.49609 2.5000001,2.5 0 0 1 2.4473,-1.99609 2.5000001,2.5 0 0 1 2.44727,2.00391 2.5000001,2.5 0 0 0 0.0527,-0.50391 2.5000001,2.5 0 0 0 -2.5,-2.5 z"
       id="circle4618"
       inkscape:connector-curvature="0" />
    <ellipse
       style="display:inline;opacity:1;fill:#000000;fill-opacity:0.2;stroke:none;stroke-opacity:1;filter:url(#filter4773)"
       id="circle4628"
       cx="253.50002"
       cy="477.5"
       rx="2.5000002"
       ry="2.5" />
    <ellipse
       cy="476.5"
       cx="253.50002"
       id="circle4630"
       style="display:inline;opacity:1;fill:#949daa;fill-opacity:1;stroke:none;stroke-opacity:1"
       rx="2.5000002"
       ry="2.5" />
    <path
       id="path4632"
       d="m 253.50003,474.00003 a 2.5000001,2.5 0 0 0 -2.5,2.5 2.5000001,2.5 0 0 0 0.0527,0.49609 2.5000001,2.5 0 0 1 2.4473,-1.99609 2.5000001,2.5 0 0 1 2.44727,2.00391 2.5000001,2.5 0 0 0 0.0527,-0.50391 2.5000001,2.5 0 0 0 -2.5,-2.5 z"
       style="display:inline;opacity:1;fill:#ffffff;fill-opacity:0.2;stroke:none;stroke-opacity:1"
       inkscape:connector-curvature="0" />
    <path
       style="opacity:1;fill:#000000;fill-opacity:0.1;stroke:none;stroke-width:0.94411749;stroke-opacity:0.2"
       d="m 212,505 v 14.5 c 0,2.493 2.007,4.5 4.5,4.5 H 231 v -19 z"
       id="path4747"
       inkscape:connector-curvature="0" />
    <path
       inkscape:connector-curvature="0"
       id="path4755"
       d="m 249,524 19,-19 h -14.5 c -2.493,0 -4.5,2.007 -4.5,4.5 z"
       style="fill:#268aed;fill-opacity:1;stroke:none;stroke-width:1px;stroke-linecap:butt;stroke-linejoin:miter;stroke-opacity:1" />
    <path
       style="fill:#ffffff;fill-opacity:0.2;stroke:none;stroke-width:1px;stroke-linecap:butt;stroke-linejoin:miter;stroke-opacity:1"
       d="M 253.5 505 C 251.007 505 249 507.007 249 509.5 L 249 510.5 C 249 508.007 251.007 506 253.5 506 L 267 506 L 268 505 L 253.5 505 z "
       id="path4795" />
    <path
       style="display:inline;fill:url(#linearGradient4535);fill-opacity:1;stroke:none;stroke-width:2;stroke-linecap:round;stroke-linejoin:round;stroke-miterlimit:4;stroke-dasharray:none;stroke-opacity:1;enable-background:new"
       d="m 216.5,467.99997 c -2.493,0 -4.5,2.007 -4.5,4.5 v 12.82422 21.34766 12.82812 c 0,2.493 2.007,4.5 4.5,4.5 H 229.37305 249 l 19,-19 V 485.332 472.49997 c 0,-2.493 -2.007,-4.5 -4.5,-4.5 h -12.875 -21.29688 z"
       id="path4533"
       inkscape:connector-curvature="0" />
    <rect
       style="opacity:1;fill:#000000;fill-opacity:0.2;stroke:none;stroke-opacity:0.2"
       id="rect4818"
       width="10"
       height="9"
       x="98"
       y="508" />
    <rect
       y="508"
       x="108"
       height="9"
       width="9"
       id="rect4820"
       style="opacity:1;fill:#000000;fill-opacity:0.1;stroke:none;stroke-width:0.94868332;stroke-opacity:0.2" />
    <path
       style="opacity:1;fill:#000000;fill-opacity:0.1;stroke:none;stroke-opacity:0.2"
       d="M 98 517 L 98 523 C 98 524.662 99.338 526 101 526 L 108 526 L 108 517 L 98 517 z "
       id="rect4822" />
    <path
       style="fill:#268aed;fill-opacity:1;stroke:none;stroke-width:1px;stroke-linecap:butt;stroke-linejoin:miter;stroke-opacity:1"
       d="m 117,526 9,-9 h -6 c -1.662,0 -3,1.338 -3,3 z"
       id="path4827"
       inkscape:connector-curvature="0" />
    <path
       style="fill:#ffffff;fill-opacity:0.2;stroke:none;stroke-width:1px;stroke-linecap:butt;stroke-linejoin:miter;stroke-opacity:1"
       d="M 120 517 C 118.338 517 117 518.338 117 520 L 117 521 C 117 519.338 118.338 518 120 518 L 125 518 L 126 517 L 120 517 z "
       id="path4838" />
    <path
       style="display:inline;fill:url(#linearGradient4435);fill-opacity:1;stroke:none;stroke-width:2;stroke-linecap:round;stroke-linejoin:round;stroke-miterlimit:4;stroke-dasharray:none;stroke-opacity:1;enable-background:new"
       d="m 101,498 c -1.662,0 -3,1.338 -3,3 v 5.66211 10.67578 V 523 c 0,1.662 1.338,3 3,3 h 5.6875 10.64844 H 123 c 1.662,0 3,-1.338 3,-3 V 517.33789 506.66602 501 c 0,-1.662 -1.338,-3 -3,-3 h -5.6875 -10.64844 z"
       id="path4433"
       inkscape:connector-curvature="0" />
    <rect
       style="opacity:1;fill:#000000;fill-opacity:0.2;stroke:none;stroke-width:0.96362412;stroke-opacity:0.2"
       id="rect4855"
       width="14"
       height="13"
       x="148"
       y="498" />
    <path
       style="opacity:1;fill:#000000;fill-opacity:0.1;stroke:none;stroke-width:0.96362412;stroke-opacity:0.2"
       d="M 148 511 L 148 521 C 148 522.662 149.338 524 151 524 L 162 524 L 162 511 L 148 511 z "
       id="rect4860" />
    <rect
       y="498"
       x="162"
       height="13"
       width="13"
       id="rect4862"
       style="opacity:1;fill:#000000;fill-opacity:0.1;stroke:none;stroke-width:0.92857146;stroke-opacity:0.2" />
    <path
       style="fill:#268aed;fill-opacity:1;stroke:none;stroke-width:1px;stroke-linecap:butt;stroke-linejoin:miter;stroke-opacity:1"
       d="m 175,524 13,-13 h -10 c -1.662,0 -3,1.338 -3,3 z"
       id="path4869"
       inkscape:connector-curvature="0" />
    <path
       style="fill:#ffffff;fill-opacity:0.2;stroke:none;stroke-width:1px;stroke-linecap:butt;stroke-linejoin:miter;stroke-opacity:1"
       d="M 178 511 C 176.338 511 175 512.338 175 514 L 175 515 C 175 513.338 176.338 512 178 512 L 187 512 L 188 511 L 178 511 z "
       id="path4881" />
    <path
       style="display:inline;fill:url(#linearGradient4171-1-0);fill-opacity:1;stroke:none;stroke-width:2;stroke-linecap:round;stroke-linejoin:round;stroke-miterlimit:4;stroke-dasharray:none;stroke-opacity:1;enable-background:new"
       d="m 151,483.99997 c -1.662,0 -3,1.338 -3,3 v 7.91992 18.19141 7.88867 c 0,1.662 1.338,3 3,3 h 7.91992 18.17969 H 185 c 1.662,0 3,-1.338 3,-3 v -7.92188 -18.18554 -7.89258 c 0,-1.662 -1.338,-3 -3,-3 h -7.91992 -18.17969 z"
       id="circle4163-3-4"
       inkscape:connector-curvature="0" />
    <circle
       style="opacity:1;fill:#949daa;fill-opacity:1;stroke:none;stroke-opacity:0.2"
       id="path4896"
       cx="20"
       cy="515"
       r="1" />
    <circle
       style="opacity:1;fill:#949daa;fill-opacity:1;stroke:none;stroke-opacity:0.2"
       id="path4898"
       cx="28"
       cy="515"
       r="1" />
    <path
       style="opacity:1;fill:#ffffff;fill-opacity:0.2;stroke:none;stroke-opacity:0.2"
       d="M 20 514 A 1 1 0 0 0 19 515 A 1 1 0 0 0 19.033203 515.25 A 1 1 0 0 1 20 514.5 A 1 1 0 0 1 20.966797 515.25 A 1 1 0 0 0 21 515 A 1 1 0 0 0 20 514 z "
       id="circle4900" />
    <path
       id="path4905"
       d="m 28,514 a 1,1 0 0 0 -1,1 1,1 0 0 0 0.0332,0.25 A 1,1 0 0 1 28,514.5 1,1 0 0 1 28.966797,515.25 1,1 0 0 0 29,515 1,1 0 0 0 28,514 Z"
       style="opacity:1;fill:#ffffff;fill-opacity:0.2;stroke:none;stroke-opacity:0.2"
       inkscape:connector-curvature="0" />
    <rect
       style="opacity:1;fill:#000000;fill-opacity:0.2;stroke:none;stroke-opacity:0.2"
       id="rect4910"
       width="6"
       height="5"
       x="16"
       y="518" />
    <path
       style="opacity:1;fill:#000000;fill-opacity:0.1;stroke:none;stroke-opacity:0.2"
       d="M 16 523 L 16 523.64453 L 16 526 C 16 527.108 16.892 528 18 528 L 22 528 L 22 523 L 16 523 z "
       id="rect4912" />
    <rect
       style="opacity:1;fill:#000000;fill-opacity:0.1;stroke:none;stroke-opacity:0.2"
       id="rect4914"
       width="5"
       height="5"
       x="22"
       y="518" />
    <path
       style="fill:#268aed;fill-opacity:1;stroke:none;stroke-width:1px;stroke-linecap:butt;stroke-linejoin:miter;stroke-opacity:1"
       d="m 27,528 5,-5 h -3 c -1.108,0 -2,0.892 -2,2 v 2.36914 z"
       id="path4921"
       inkscape:connector-curvature="0" />
    <rect
       style="opacity:1;fill:#000000;fill-opacity:0.2;stroke:none;stroke-width:1.08012342;stroke-opacity:0.2"
       id="rect4933"
       width="7"
       height="7"
       x="54"
       y="513" />
    <path
       style="opacity:1;fill:#000000;fill-opacity:0.1;stroke:none;stroke-width:1.08012342;stroke-opacity:0.2"
       d="M 54 520 L 54 520.55469 L 54 524 C 54 525.108 54.892 526 56 526 L 61 526 L 61 520 L 54 520 z "
       id="rect4935" />
    <rect
       y="513"
       x="61"
       height="7"
       width="7"
       id="rect4947"
       style="opacity:1;fill:#000000;fill-opacity:0.1;stroke:none;stroke-width:1.08012342;stroke-opacity:0.2" />
    <path
       style="fill:#268aed;fill-opacity:1;stroke:none;stroke-width:1px;stroke-linecap:butt;stroke-linejoin:miter;stroke-opacity:1"
       d="m 68,526 6,-6 h -4 c -1.108,0 -2,0.892 -2,2 v 3.46094 z"
       id="path4955"
       inkscape:connector-curvature="0" />
    <path
       inkscape:connector-curvature="0"
       id="path4776"
       d="m 56,505.99997 c -1.108,0 -2,0.892 -2,2 v 3.46094 9.09375 3.44531 c 0,1.108 0.892,2 2,2 H 59.460938 68.550781 72 c 1.108,0 2,-0.892 2,-2 v -3.46094 -9.09375 -3.44531 c 0,-1.108 -0.892,-2 -2,-2 h -3.460938 -9.089843 z"
       style="display:inline;fill:url(#linearGradient4778);fill-opacity:1;stroke:none;stroke-width:2;stroke-linecap:round;stroke-linejoin:round;stroke-miterlimit:4;stroke-dasharray:none;stroke-opacity:1;enable-background:new" />
    <path
       style="opacity:1;fill:#000000;fill-opacity:0.2;stroke:none;stroke-width:8.21921825;stroke-opacity:0.2;filter:url(#filter5107)"
       d="m 356,50.0004 c -19.944,0 -36,16.056 -36,36 v 116 144 116 c 0,19.944 16.056,36 36,36 h 260 l 152,-152 v -144 -116 c 0,-19.944 -16.056,-36 -36,-36 z"
       id="path5101"
       inkscape:connector-curvature="0" />
    <path
       inkscape:connector-curvature="0"
       id="path4965"
       d="m 356,50.0004 c -19.944,0 -36,16.056 -36,36 v 116 144 116 c 0,19.944 16.056,36 36,36 h 260 l 152,-152 v -144 -116 c 0,-19.944 -16.056,-36 -36,-36 z"
       style="opacity:1;fill:#000000;fill-opacity:0.2;stroke:none;stroke-width:8.21921825;stroke-opacity:0.2" />
    <path
       inkscape:connector-curvature="0"
       id="path4967"
       d="m 320,200.00045 v 144 116 c 0,19.944 16.056,36 36,36 h 116 144 l 152,-152 v -144 H 616 472 Z"
       style="opacity:1;fill:#227bd3;fill-opacity:1;stroke:none;stroke-width:8.21921825;stroke-opacity:0.2" />
    <path
       id="path4969"
       d="m 472,200.00045 v 144 h 144 v -144 z"
       style="opacity:1;fill:#000000;fill-opacity:0.1;stroke:none;stroke-width:7.15541697;stroke-opacity:0.2"
       inkscape:connector-curvature="0" />
    <path
       id="path4971"
       d="m 320,200.00045 v 144 h 152 v -144 z"
       style="opacity:1;fill:#000000;fill-opacity:0.2;stroke:none;stroke-width:7.35149193;stroke-opacity:0.2"
       inkscape:connector-curvature="0" />
    <rect
       y="186.0004"
       x="320"
       height="16"
       width="448"
       id="rect4973"
       style="opacity:1;fill:#000000;fill-opacity:0.2;stroke:none;stroke-width:8;stroke-opacity:0.2" />
    <rect
       style="opacity:1;fill:#000000;fill-opacity:0.2;stroke:none;stroke-width:4;stroke-opacity:0.2;filter:url(#filter5061)"
       id="rect5055"
       width="448"
       height="4"
       x="320"
       y="198.0004" />
    <path
       inkscape:connector-curvature="0"
       style="opacity:1;fill:#3b414b;fill-opacity:1;stroke:none;stroke-width:8.21921825;stroke-opacity:0.2"
       d="M 320,200.00045 V 84.000447 c 0,-19.944 16.056,-36 36,-36 h 376 c 19.944,0 36,16.056 36,36 V 200.00045 Z"
       id="path4975" />
    <path
       style="display:inline;fill:#ffffff;fill-opacity:0.2;stroke:none;stroke-width:1;enable-background:new"
       d="M 356 48 C 336.056 48 320 64.056 320 84 L 320 86 C 320 66.056 336.056 50 356 50 L 732 50 C 751.944 50 768 66.056 768 86 L 768 84 C 768 64.056 751.944 48 732 48 L 356 48 z "
       id="path4977" />
    <ellipse
       ry="20"
       rx="20.000002"
       style="display:inline;opacity:1;fill:#000000;fill-opacity:0.2;stroke:none;stroke-width:8;stroke-opacity:1"
       id="ellipse4979"
       cx="436.00024"
       cy="118.0004" />
    <ellipse
       cy="118.0004"
       cx="436.00024"
       id="ellipse5079"
       style="display:inline;opacity:1;fill:#000000;fill-opacity:0.2;stroke:none;stroke-width:8;stroke-opacity:1;filter:url(#filter5093)"
       rx="20.000002"
       ry="20" />
    <ellipse
       ry="20"
       rx="20.000002"
       cy="116.00045"
       cx="436.00024"
       id="ellipse4981"
       style="display:inline;opacity:1;fill:#949daa;fill-opacity:1;stroke:none;stroke-width:8;stroke-opacity:1" />
    <ellipse
       ry="20"
       rx="20.000002"
       cy="118.0004"
       cx="652"
       id="ellipse4985"
       style="display:inline;opacity:1;fill:#000000;fill-opacity:0.2;stroke:none;stroke-width:8;stroke-opacity:1" />
    <ellipse
       style="display:inline;opacity:1;fill:#000000;fill-opacity:0.2;stroke:none;stroke-width:8;stroke-opacity:1;filter:url(#filter5051)"
       id="ellipse5037"
       cx="652"
       cy="118.0004"
       rx="20.000002"
       ry="20" />
    <ellipse
       ry="20"
       rx="20.000002"
       style="display:inline;opacity:1;fill:#949daa;fill-opacity:1;stroke:none;stroke-width:8;stroke-opacity:1"
       id="ellipse4987"
       cx="652"
       cy="116.00045" />
    <path
       style="display:inline;opacity:1;fill:#ffffff;fill-opacity:0.2;stroke:none;stroke-width:8;stroke-opacity:1"
       d="M 652 96 A 20.000001 20 0 0 0 632 116 A 20.000001 20 0 0 0 632.04297 116.7832 A 20.000001 20 0 0 1 652 98 A 20.000001 20 0 0 1 671.94922 116.97656 A 20.000001 20 0 0 0 672 116 A 20.000001 20 0 0 0 652 96 z "
       id="path4989" />
    <path
       inkscape:connector-curvature="0"
       id="path4991"
       d="m 320,344.00045 v 116 c 0,19.944 16.056,36 36,36 h 116 v -152 z"
       style="opacity:1;fill:#000000;fill-opacity:0.1;stroke:none;stroke-width:7.55293989;stroke-opacity:0.2" />
    <path
       style="fill:#268aed;fill-opacity:1;stroke:none;stroke-width:8px;stroke-linecap:butt;stroke-linejoin:miter;stroke-opacity:1"
       d="m 616,496.00045 152,-152 H 652 c -19.944,0 -36,16.056 -36,36 z"
       id="path4993"
       inkscape:connector-curvature="0" />
    <path
       style="fill:#ffffff;fill-opacity:0.2;stroke:none;stroke-width:8px;stroke-linecap:butt;stroke-linejoin:miter;stroke-opacity:1"
       d="M 652 344 C 632.056 344 616 360.056 616 380 L 616 382 C 616 362.056 632.056 346 652 346 L 766 346 L 768 344 L 652 344 z "
       id="path4995" />
    <path
       id="path5065"
       d="m 436,96 a 20.000001,20 0 0 0 -20,20 20.000001,20 0 0 0 0.043,0.7832 A 20.000001,20 0 0 1 436,98 20.000001,20 0 0 1 455.94922,116.97656 20.000001,20 0 0 0 456,116 20.000001,20 0 0 0 436,96 Z"
       style="display:inline;opacity:1;fill:#ffffff;fill-opacity:0.2;stroke:none;stroke-width:8;stroke-opacity:1"
       inkscape:connector-curvature="0" />
    <path
       inkscape:connector-curvature="0"
       id="path4997"
       d="m 356,48.00042 c -19.944,0 -36,16.056 -36,36 v 102.59376 170.78128 102.62496 c 0,19.944 16.056,36 36,36 H 458.9844 616 l 152,-152 V 186.65666 84.00042 c 0,-19.944 -16.056,-36 -36,-36 H 629 458.62496 Z"
       style="display:inline;fill:url(#linearGradient4999);fill-opacity:1;stroke:none;stroke-width:16;stroke-linecap:round;stroke-linejoin:round;stroke-miterlimit:4;stroke-dasharray:none;stroke-opacity:1;enable-background:new" />
  </g>
</svg>
