<?xml version="1.0" encoding="UTF-8" standalone="no"?>
<!-- Created with Inkscape (http://www.inkscape.org/) -->

<svg
   xmlns:dc="http://purl.org/dc/elements/1.1/"
   xmlns:cc="http://creativecommons.org/ns#"
   xmlns:rdf="http://www.w3.org/1999/02/22-rdf-syntax-ns#"
   xmlns:svg="http://www.w3.org/2000/svg"
   xmlns="http://www.w3.org/2000/svg"
   xmlns:xlink="http://www.w3.org/1999/xlink"
   xmlns:sodipodi="http://sodipodi.sourceforge.net/DTD/sodipodi-0.dtd"
   xmlns:inkscape="http://www.inkscape.org/namespaces/inkscape"
   width="842"
   height="544"
   viewBox="0 0 842 544"
   version="1.1"
   id="svg1087"
   inkscape:version="0.92.1 r"
   sodipodi:docname="goa-panel.svg">
  <defs
     id="defs1081">
    <linearGradient
       id="linearGradient5005"
       inkscape:collect="always">
      <stop
         id="stop5001"
         offset="0"
         style="stop-color:#ffffff;stop-opacity:0.05490196" />
      <stop
         id="stop5003"
         offset="1"
         style="stop-color:#177ed5;stop-opacity:0;" />
    </linearGradient>
    <linearGradient
       id="linearGradient4999"
       inkscape:collect="always">
      <stop
         id="stop4995"
         offset="0"
         style="stop-color:#ffffff;stop-opacity:0.05490196" />
      <stop
         id="stop4997"
         offset="1"
         style="stop-color:#177ed5;stop-opacity:0;" />
    </linearGradient>
    <linearGradient
       id="linearGradient4993"
       inkscape:collect="always">
      <stop
         id="stop4989"
         offset="0"
         style="stop-color:#ffffff;stop-opacity:0.05490196" />
      <stop
         id="stop4991"
         offset="1"
         style="stop-color:#177ed5;stop-opacity:0;" />
    </linearGradient>
    <linearGradient
       inkscape:collect="always"
       xlink:href="#linearGradient4165"
       id="linearGradient4769"
       gradientUnits="userSpaceOnUse"
       gradientTransform="matrix(0.50103198,0,0,0.51242177,77.975161,-11.45499)"
       x1="7"
       y1="1011.3622"
       x2="41.000019"
       y2="1045.3622" />
    <linearGradient
       inkscape:collect="always"
       id="linearGradient4165">
      <stop
         style="stop-color:#ffffff;stop-opacity:0.05490196"
         offset="0"
         id="stop4167" />
      <stop
         style="stop-color:#177ed5;stop-opacity:0;"
         offset="1"
         id="stop4169" />
    </linearGradient>
    <linearGradient
       inkscape:collect="always"
       xlink:href="#linearGradient5005"
       id="linearGradient4731"
       gradientUnits="userSpaceOnUse"
       gradientTransform="matrix(0.6832262,0,0,0.69875775,121.60249,-207.80309)"
       x1="7"
       y1="1011.3622"
       x2="41.000019"
       y2="1045.3622" />
    <linearGradient
       inkscape:collect="always"
       xlink:href="#linearGradient4999"
       id="linearGradient4171-1"
       x1="7"
       y1="1011.3622"
       x2="41.000019"
       y2="1045.3622"
       gradientUnits="userSpaceOnUse"
       gradientTransform="matrix(1.0020651,0,0,1.0248447,169.95032,-549.9112)" />
    <linearGradient
       inkscape:collect="always"
       xlink:href="#linearGradient4993"
       id="linearGradient4741"
       gradientUnits="userSpaceOnUse"
       gradientTransform="matrix(10.931594,0,0,11.180124,307.64141,-11228.85)"
       x1="7"
       y1="1011.3622"
       x2="41.000019"
       y2="1045.3622" />
    <linearGradient
       inkscape:collect="always"
       xlink:href="#linearGradient5005"
       id="linearGradient4555"
       gradientUnits="userSpaceOnUse"
       gradientTransform="matrix(1.3664524,0,0,1.3975155,233.20498,-943.60609)"
       x1="7"
       y1="1011.3622"
       x2="41.000019"
       y2="1045.3622" />
    <filter
       inkscape:collect="always"
       style="color-interpolation-filters:sRGB"
       id="filter4574"
       x="-0.012647739"
       width="1.0252955"
       y="-0.011415375"
       height="1.0228308">
      <feGaussianBlur
         inkscape:collect="always"
         stdDeviation="0.11415375"
         id="feGaussianBlur4576" />
    </filter>
    <filter
       inkscape:collect="always"
       style="color-interpolation-filters:sRGB"
       id="filter4585"
       x="-0.0099999998"
       width="1.02"
       y="-0.015"
       height="1.03">
      <feGaussianBlur
         inkscape:collect="always"
         stdDeviation="0.25"
         id="feGaussianBlur4587" />
    </filter>
    <filter
       inkscape:collect="always"
       style="color-interpolation-filters:sRGB"
       id="filter4629"
       x="-0.012647739"
       width="1.0252955"
       y="-0.011415375"
       height="1.0228308">
      <feGaussianBlur
         inkscape:collect="always"
         stdDeviation="0.0761025"
         id="feGaussianBlur4631" />
    </filter>
    <filter
       inkscape:collect="always"
       style="color-interpolation-filters:sRGB"
       id="filter4635"
       x="-0.010090909"
       width="1.0201818"
       y="-0.0148"
       height="1.0296">
      <feGaussianBlur
         inkscape:collect="always"
         stdDeviation="0.185"
         id="feGaussianBlur4637" />
    </filter>
    <filter
       inkscape:collect="always"
       style="color-interpolation-filters:sRGB"
       id="filter4708"
       x="-0.037943263"
       width="1.0758865"
       y="-0.034246087"
       height="1.0684922">
      <feGaussianBlur
         inkscape:collect="always"
         stdDeviation="2.739687"
         id="feGaussianBlur4710" />
    </filter>
    <filter
       inkscape:collect="always"
       style="color-interpolation-filters:sRGB"
       id="filter4720"
       x="-0.02"
       width="1.04"
       y="-0.029999999"
       height="1.0599999">
      <feGaussianBlur
         inkscape:collect="always"
         stdDeviation="4"
         id="feGaussianBlur4722" />
    </filter>
    <linearGradient
       inkscape:collect="always"
       xlink:href="#linearGradient4165"
       id="linearGradient4576"
       gradientUnits="userSpaceOnUse"
       gradientTransform="matrix(0.50103198,0,0,0.51242177,42.975161,-10.45499)"
       x1="7"
       y1="1011.3622"
       x2="41.000019"
       y2="1045.3622" />
  </defs>
  <sodipodi:namedview
     id="base"
     pagecolor="#c3c3c3"
     bordercolor="#333333"
     borderopacity="1"
     inkscape:pageopacity="0"
     inkscape:pageshadow="2"
     inkscape:zoom="11.2"
     inkscape:cx="60.051205"
     inkscape:cy="30.245589"
     inkscape:document-units="px"
     inkscape:current-layer="layer1"
     showgrid="true"
     units="px"
     inkscape:showpageshadow="false"
     inkscape:window-width="1280"
     inkscape:window-height="1369"
     inkscape:window-x="1280"
     inkscape:window-y="35"
     inkscape:window-maximized="0">
    <inkscape:grid
       type="xygrid"
       id="grid4630" />
  </sodipodi:namedview>
  <metadata
     id="metadata1084">
    <rdf:RDF>
      <cc:Work
         rdf:about="">
        <dc:format>image/svg+xml</dc:format>
        <dc:type
           rdf:resource="http://purl.org/dc/dcmitype/StillImage" />
        <dc:title></dc:title>
        <cc:license
           rdf:resource="http://creativecommons.org/licenses/by-sa/4.0/" />
        <dc:creator>
          <cc:Agent>
            <dc:title>Peter Cornelis</dc:title>
          </cc:Agent>
        </dc:creator>
      </cc:Work>
      <cc:License
         rdf:about="http://creativecommons.org/licenses/by-sa/4.0/">
        <cc:permits
           rdf:resource="http://creativecommons.org/ns#Reproduction" />
        <cc:permits
           rdf:resource="http://creativecommons.org/ns#Distribution" />
        <cc:requires
           rdf:resource="http://creativecommons.org/ns#Notice" />
        <cc:requires
           rdf:resource="http://creativecommons.org/ns#Attribution" />
        <cc:permits
           rdf:resource="http://creativecommons.org/ns#DerivativeWorks" />
        <cc:requires
           rdf:resource="http://creativecommons.org/ns#ShareAlike" />
      </cc:License>
    </rdf:RDF>
  </metadata>
  <g
     inkscape:label="Baseplate"
     inkscape:groupmode="layer"
     id="layer1"
     transform="translate(0,-153.06668)"
     style="display:none">
    <rect
       style="display:inline;overflow:visible;visibility:visible;fill:#fefefe;fill-opacity:1;fill-rule:nonzero;stroke:none;stroke-width:2;marker:none;enable-background:accumulate"
       id="rect3951"
       width="512"
       height="512"
       x="-826"
       y="169.06668"
       inkscape:label="48x48"
       transform="scale(-1,1)" />
    <text
       y="733.32251"
       xml:space="preserve"
       x="15.006836"
       style="font-style:normal;font-variant:normal;font-weight:normal;font-stretch:normal;line-height:0%;font-family:'DejaVu Sans';-inkscape-font-specification:'DejaVu Sans';display:inline;fill:#000000;fill-opacity:1;stroke:none;enable-background:new"
       inkscape:label="context"
       id="context"><tspan
         style="font-style:normal;font-variant:normal;font-weight:normal;font-stretch:normal;font-size:18px;line-height:1.25;font-family:'DejaVu Sans';-inkscape-font-specification:'DejaVu Sans'"
         y="733.32251"
         x="15.006836"
         sodipodi:role="line"
         id="tspan3933">apps</tspan></text>
    <text
       y="733.32251"
       xml:space="preserve"
       x="142.48828"
       style="font-style:normal;font-variant:normal;font-weight:bold;font-stretch:normal;line-height:0%;font-family:'DejaVu Sans';-inkscape-font-specification:'DejaVu Sans Bold';text-align:start;writing-mode:lr-tb;text-anchor:start;display:inline;fill:#000000;fill-opacity:1;stroke:none;enable-background:new"
       inkscape:label="icon-name"
       id="icon-name"><tspan
         style="font-style:normal;font-variant:normal;font-weight:bold;font-stretch:normal;font-size:18px;line-height:1.25;font-family:'DejaVu Sans';-inkscape-font-specification:'DejaVu Sans Bold'"
         y="733.32251"
         x="142.48828"
         sodipodi:role="line"
         id="tspan3937">goa-panel</tspan></text>
    <rect
       style="display:inline;overflow:visible;visibility:visible;fill:#fefefe;fill-opacity:1;fill-rule:nonzero;stroke:none;stroke-width:2;marker:none;enable-background:accumulate"
       id="rect16x16"
       width="16"
       height="16"
       x="-32"
       y="665.06665"
       inkscape:label="16x16"
       transform="scale(-1,1)" />
    <rect
       style="display:inline;overflow:visible;visibility:visible;fill:#fefefe;fill-opacity:1;fill-rule:nonzero;stroke:none;stroke-width:2;marker:none;enable-background:accumulate"
       id="rect24x24"
       width="24"
       height="24"
       x="-102"
       y="657.06665"
       inkscape:label="24x24"
       transform="scale(-1,1)" />
    <rect
       style="display:inline;overflow:visible;visibility:visible;fill:#fefefe;fill-opacity:1;fill-rule:nonzero;stroke:none;stroke-width:2;marker:none;enable-background:accumulate"
       id="rect32x32"
       width="32"
       height="32"
       x="-154"
       y="649.06665"
       inkscape:label="32x32"
       transform="scale(-1,1)" />
    <rect
       inkscape:label="48x48"
       y="633.06665"
       x="-218"
       height="48"
       width="48"
       id="rect48x48"
       style="display:inline;overflow:visible;visibility:visible;fill:#fefefe;fill-opacity:1;fill-rule:nonzero;stroke:none;stroke-width:2;marker:none;enable-background:accumulate"
       transform="scale(-1,1)" />
    <rect
       transform="scale(-1,1)"
       inkscape:label="32x32"
       y="617.06665"
       x="-298"
       height="64"
       width="64"
       id="rect4541"
       style="display:inline;overflow:visible;visibility:visible;fill:#fefefe;fill-opacity:1;fill-rule:nonzero;stroke:none;stroke-width:4;marker:none;enable-background:accumulate" />
    <rect
       transform="scale(-1,1)"
       inkscape:label="24x24"
       y="659.06665"
       x="-66"
       height="22"
       width="22"
       id="rect4561"
       style="display:inline;overflow:visible;visibility:visible;fill:#fefefe;fill-opacity:1;fill-rule:nonzero;stroke:none;stroke-width:1.83333325;marker:none;enable-background:accumulate" />
  </g>
  <g
     inkscape:groupmode="layer"
     id="layer2"
     inkscape:label="Bitmap"
     style="display:inline">
    <path
       inkscape:connector-curvature="0"
       d="M 207.48417,501.3157 C 206.2375,494.8656 200.67333,490 194,490 c -5.29833,0 -9.89083,3.0749 -12.19167,7.5656 C 176.29917,498.175 172,502.9469 172,508.75 c 0,6.2155 4.9225,11.25 11,11.25 h 23.83333 c 5.06,0 9.16667,-4.2 9.16667,-9.375 0,-4.9502 -3.7675,-8.9625 -8.51583,-9.3093 z"
       id="path4633"
       style="display:inline;fill:#000000;fill-opacity:0.2;filter:url(#filter4635);enable-background:new" />
    <path
       style="display:inline;fill:#1976d2;fill-opacity:1;enable-background:new"
       id="path4197"
       d="M 207.48417,500.3157 C 206.2375,493.8656 200.67333,489 194,489 c -5.29833,0 -9.89083,3.0749 -12.19167,7.5656 C 176.29917,497.175 172,501.9469 172,507.75 c 0,6.2155 4.9225,11.25 11,11.25 h 23.83333 c 5.06,0 9.16667,-4.2 9.16667,-9.375 0,-4.9502 -3.7675,-8.9625 -8.51583,-9.3093 z"
       inkscape:connector-curvature="0" />
    <path
       style="display:inline;fill:#000000;fill-opacity:0.2;filter:url(#filter4629);enable-background:new"
       d="m 194.0205,499 c -2.20994,0 -3.99989,1.79 -3.99989,4 0,2.205 1.78995,4 3.99989,4 2.20994,0 3.99989,-1.795 3.99989,-4 0,-2.21 -1.78995,-4 -3.99989,-4 z m 0,10 c -2.04297,0 -5.64633,0.7875 -7.2205,2.3545 a 8.999747,9 0 0 0 7.2205,3.6455 8.999747,9 0 0 0 7.2205,-3.6455 C 199.667,509.7874 196.06351,509 194.0205,509 Z"
       id="path4150"
       inkscape:connector-curvature="0" />
    <path
       style="display:inline;fill:#ffffff;fill-opacity:0.2;enable-background:new"
       d="m 194,489 c -5.29833,0 -9.89002,3.0741 -12.19085,7.5648 C 176.29999,497.1742 172,501.9469 172,507.75 c 0,0.173 0.017,0.3416 0.0245,0.5127 0.26692,-5.5468 4.45428,-10.0369 9.7846,-10.6265 2.30083,-4.4906 6.89252,-7.5648 12.19085,-7.5648 6.67333,0 12.23734,4.8648 13.484,11.3149 4.5708,0.3339 8.22196,4.068 8.4894,8.7619 0.009,-0.1742 0.0266,-0.3466 0.0266,-0.5232 0,-4.9502 -3.76766,-8.9633 -8.516,-9.3101 C 206.23734,493.8648 200.67333,489 194,489 Z"
       id="path4148"
       inkscape:connector-curvature="0" />
    <path
       inkscape:connector-curvature="0"
       id="path4154"
       d="m 194.0205,498 c -2.20994,0 -3.99989,1.79 -3.99989,4 0,2.205 1.78995,4 3.99989,4 2.20994,0 3.99989,-1.795 3.99989,-4 0,-2.21 -1.78995,-4 -3.99989,-4 z m 0,10 c -2.04297,0 -5.64633,0.7875 -7.2205,2.3545 a 8.999747,9 0 0 0 7.2205,3.6455 8.999747,9 0 0 0 7.2205,-3.6455 C 199.667,508.7874 196.06351,508 194.0205,508 Z"
       style="display:inline;fill:#f5f5f5;fill-opacity:1;enable-background:new" />
    <path
       style="display:inline;fill:url(#linearGradient4171-1);fill-opacity:1;stroke:none;stroke-width:2;stroke-linecap:round;stroke-linejoin:round;stroke-miterlimit:4;stroke-dasharray:none;stroke-opacity:1;enable-background:new"
       d="m 194,489 c -5.29833,0 -9.89002,3.0741 -12.19085,7.5648 C 176.29999,497.1742 172,501.9469 172,507.75 c 0,6.2155 4.9225,11.25 11,11.25 h 23.83333 c 5.06,0 9.16667,-4.2 9.16667,-9.375 0,-4.9502 -3.76766,-8.9633 -8.516,-9.3101 C 206.23734,493.8648 200.67333,489 194,489 Z"
       id="circle4163-3"
       inkscape:connector-curvature="0" />
    <path
       inkscape:connector-curvature="0"
       id="path4644"
       d="m 138,502 a 9,9 0 0 0 -8.06055,5.02344 7.5,7.5 0 0 0 -6.93554,7.39062 7.5,7.5 0 0 0 -0.004,0.0859 7.5,7.5 0 0 0 5.17188,7.11914 c 0.0528,0.0176 0.10493,0.0363 0.1582,0.0527 a 7.5,7.5 0 0 0 0.48633,0.12695 c 0.0877,0.0206 0.17481,0.0412 0.26367,0.0586 a 7.5,7.5 0 0 0 0.4082,0.0645 c 0.12388,0.0171 0.24732,0.0341 0.37305,0.0449 A 7.5,7.5 0 0 0 130.5,522 h 0.5 0.5 15 a 6.5,6.5 0 0 0 6.47852,-6 c 1.9e-4,-0.003 0.002,-0.006 0.002,-0.01 a 6.5,6.5 0 0 0 0.008,-0.16406 c 2.9e-4,-0.0104 0.001,-0.0208 0.002,-0.0312 a 6.5,6.5 0 0 0 0.008,-0.23242 6.5,6.5 0 0 0 0.002,-0.0625 6.5,6.5 0 0 0 -0.0332,-0.64844 6.5,6.5 0 0 0 -5.82422,-5.80468 6.5,6.5 0 0 0 -0.37696,-0.0332 A 9,9 0 0 0 138,502 Z"
       style="display:inline;fill:#000000;fill-opacity:0.2;stroke:none;stroke-width:2;stroke-linecap:round;stroke-linejoin:round;stroke-miterlimit:4;stroke-dasharray:none;stroke-opacity:1;enable-background:new" />
    <path
       inkscape:connector-curvature="0"
       style="display:inline;opacity:1;fill:#1976d2;fill-opacity:1;stroke:none;stroke-width:3;stroke-linecap:round;stroke-linejoin:round;stroke-miterlimit:4;stroke-dasharray:none;stroke-opacity:1;enable-background:new"
       d="m 138,501 a 9,9 0 0 0 -8.06055,5.02344 A 7.5,7.5 0 0 0 123,513.5 a 7.5,7.5 0 0 0 7.5,7.5 h 0.5 0.5 0.5 13.5 0.5 0.5 a 6.5,6.5 0 0 0 6.5,-6.5 6.5,6.5 0 0 0 -6.23438,-6.48633 A 9,9 0 0 0 138,501 Z"
       id="path4546" />
    <path
       inkscape:connector-curvature="0"
       id="path4569"
       d="m 138.00037,507 c -1.65745,0 -2.99992,1.3425 -2.99992,3 0,1.65375 1.34247,3 2.99992,3 1.65746,0 2.99992,-1.34625 2.99992,-3 0,-1.6575 -1.34246,-3 -2.99992,-3 z m 0,7.5 c -1.53223,0 -4.23474,0.59063 -5.41537,1.76587 a 6.7498103,6.75 0 0 0 5.41537,2.73413 6.7498103,6.75 0 0 0 5.41538,-2.73413 C 142.23525,515.09055 139.53263,514.5 138.00037,514.5 Z"
       style="display:inline;fill:#000000;fill-opacity:0.2;enable-background:new" />
    <path
       style="display:inline;fill:#f5f5f5;fill-opacity:1;enable-background:new"
       d="m 138,506 c -1.65745,0 -2.99992,1.3425 -2.99992,3 0,1.65375 1.34247,3 2.99992,3 1.65746,0 2.99992,-1.34625 2.99992,-3 0,-1.6575 -1.34246,-3 -2.99992,-3 z m 0,7.5 c -1.53223,0 -4.23475,0.59063 -5.41537,1.76587 A 6.7498103,6.75 0 0 0 138,518 a 6.7498103,6.75 0 0 0 5.41538,-2.73413 C 142.23488,514.09055 139.53226,513.5 138,513.5 Z"
       id="path4567"
       inkscape:connector-curvature="0" />
    <path
       inkscape:connector-curvature="0"
       style="display:inline;opacity:1;fill:#ffffff;fill-opacity:0.2;stroke:none;stroke-width:3;stroke-linecap:round;stroke-linejoin:round;stroke-miterlimit:4;stroke-dasharray:none;stroke-opacity:1;enable-background:new"
       d="m 138,501 a 9,9 0 0 0 -8.06055,5.02344 A 7.5,7.5 0 0 0 123,513.5 a 7.5,7.5 0 0 0 0.0254,0.49805 7.5,7.5 0 0 1 6.91406,-6.97461 A 9,9 0 0 1 138,502 a 9,9 0 0 1 8.76562,7.01367 6.5,6.5 0 0 1 6.21094,6.01563 A 6.5,6.5 0 0 0 153,514.5 6.5,6.5 0 0 0 146.76562,508.01367 9,9 0 0 0 138,501 Z"
       id="path4603" />
    <rect
       style="display:inline;opacity:1;fill:#1976d2;fill-opacity:1;stroke:none;stroke-width:3;stroke-linecap:round;stroke-linejoin:round;stroke-miterlimit:4;stroke-dasharray:none;stroke-opacity:1;enable-background:new"
       id="rect4727"
       width="16"
       height="16"
       x="16"
       y="512"
       rx="1"
       ry="1" />
    <path
       style="display:inline;fill:#f5f5f5;fill-opacity:1;enable-background:new"
       d="m 24,516 c -1.10497,0 -1.99995,0.895 -1.99995,2 0,1.1025 0.89498,2 1.99995,2 1.10497,0 1.99994,-0.8975 1.99994,-2 0,-1.105 -0.89497,-2 -1.99994,-2 z m 0,5 c -1.02149,0 -2.82317,0.39375 -3.61025,1.17725 A 4.4998735,4.5 0 0 0 24,524 4.4998735,4.5 0 0 0 27.61025,522.17725 C 26.82325,521.3937 25.0215,521 24,521 Z"
       id="path4725"
       inkscape:connector-curvature="0" />
    <path
       style="display:inline;fill:#000000;fill-opacity:0.2;stroke:none;stroke-width:2;stroke-linecap:round;stroke-linejoin:round;stroke-miterlimit:4;stroke-dasharray:none;stroke-opacity:1;enable-background:new"
       d="m 89.999988,509.00002 c -2.649162,0 -4.945005,1.53705 -6.095419,3.78239 C 81.149993,513.08711 79,515.47346 79,518.37501 79,521.48275 81.461247,524 84.499994,524 h 11.916651 c 2.529997,0 4.583335,-2.1 4.583335,-4.68749 0,-2.4751 -1.883833,-4.48165 -4.258,-4.65505 -0.623329,-3.22505 -3.405331,-5.65744 -6.741992,-5.65744 z"
       id="path4667"
       inkscape:connector-curvature="0" />
    <path
       inkscape:connector-curvature="0"
       d="m 96.742065,513.65786 c -0.623334,-3.22505 -3.405416,-5.65784 -6.742077,-5.65784 -2.649162,0 -4.94541,1.53745 -6.095829,3.78279 C 81.149583,512.08751 79,514.47346 79,517.37501 79,520.48275 81.461247,523 84.499994,523 h 11.916651 c 2.529997,0 4.583335,-2.1 4.583335,-4.68749 0,-2.4751 -1.883753,-4.48125 -4.257915,-4.65465 z"
       id="path4757"
       style="display:inline;fill:#1976d2;fill-opacity:1;enable-background:new" />
    <path
       style="display:inline;fill:#ffffff;fill-opacity:0.2;stroke:none;stroke-width:2;stroke-linecap:round;stroke-linejoin:round;stroke-miterlimit:4;stroke-dasharray:none;stroke-opacity:1;enable-background:new"
       d="m 90,508 c -2.649162,0 -4.945289,1.53786 -6.095703,3.7832 C 81.149721,512.0879 79,514.47345 79,517.375 c 0,0.20849 0.01357,0.4146 0.03516,0.61719 0.182253,-2.7232 2.238848,-4.91803 4.869141,-5.20899 C 85.054711,510.53786 87.350838,509 90,509 c 3.336661,0 6.118859,2.43315 6.742188,5.6582 2.206225,0.16114 3.967802,1.91051 4.208982,4.14258 0.0168,-0.1629 0.0488,-0.32086 0.0488,-0.48828 0,-2.4751 -1.883646,-4.4809 -4.257812,-4.6543 C 96.118859,510.43315 93.336661,508 90,508 Z"
       id="path4636"
       inkscape:connector-curvature="0" />
    <path
       inkscape:connector-curvature="0"
       id="path4759"
       d="m 90.010245,513.00001 c -1.104968,0 -1.999942,0.895 -1.999942,2 0,1.1025 0.894974,1.99999 1.999942,1.99999 1.104969,0 1.999943,-0.89749 1.999943,-1.99999 0,-1.105 -0.894974,-2 -1.999943,-2 z m 0,4.99999 c -1.021483,0 -2.823161,0.39375 -3.610245,1.17725 A 4.4998684,4.4999949 0 0 0 90.010245,521 4.4998684,4.4999949 0 0 0 93.620491,519.17725 C 92.833492,518.3937 91.031749,518 90.010245,518 Z"
       style="display:inline;fill:#000000;fill-opacity:0.2;stroke-width:0.49999943;enable-background:new" />
    <path
       style="display:inline;fill:#f5f5f5;fill-opacity:1;enable-background:new"
       d="m 90.010237,511.99972 c -1.104968,0 -1.999942,0.895 -1.999942,2 0,1.1025 0.894974,2 1.999942,2 1.104969,0 1.999943,-0.8975 1.999943,-2 0,-1.105 -0.894974,-2 -1.999943,-2 z m 0,5 c -1.021483,0 -2.823161,0.39375 -3.610245,1.17724 a 4.4998684,4.4999949 0 0 0 3.610245,1.82275 4.4998684,4.4999949 0 0 0 3.610246,-1.82275 c -0.786999,-0.78354 -2.588742,-1.17724 -3.610246,-1.17724 z"
       id="path4767"
       inkscape:connector-curvature="0" />
    <path
       inkscape:connector-curvature="0"
       id="path4765"
       d="m 89.999988,508.00002 c -2.649162,0 -4.945005,1.53705 -6.095419,3.78239 C 81.149993,512.08711 79,514.47346 79,517.37501 79,520.48275 81.461247,523 84.499994,523 h 11.916651 c 2.529997,0 4.583335,-2.1 4.583335,-4.68749 0,-2.4751 -1.883833,-4.48165 -4.258,-4.65505 -0.623329,-3.22505 -3.405331,-5.65744 -6.741992,-5.65744 z"
       style="display:inline;fill:url(#linearGradient4769);fill-opacity:1;stroke:none;stroke-width:2;stroke-linecap:round;stroke-linejoin:round;stroke-miterlimit:4;stroke-dasharray:none;stroke-opacity:1;enable-background:new" />
    <path
       id="path4714"
       d="M 570.00096,114.00032 A 143.99966,144 0 0 0 441.03254,194.37536 119.99972,120 0 0 0 330.064,312.62528 119.99972,120 0 0 0 330,314.00032 119.99972,120 0 0 0 412.74981,427.90656 c 0.84415,0.2816 1.67903,0.5816 2.53127,0.84384 a 119.99972,120 0 0 0 7.78118,2.0312 c 1.40336,0.3296 2.79704,0.6592 4.21879,0.93744 a 119.99972,120 0 0 0 6.53119,1.03136 c 1.98207,0.2736 3.95711,0.5456 5.96878,0.7184 A 119.99972,120 0 0 0 449.99972,434 h 7.99998 7.99998 239.99944 A 103.99976,104 0 0 0 809.6552,338 c 0.003,-0.056 0.032,-0.1032 0.032,-0.156 a 103.99976,104 0 0 0 0.1248,-2.62496 c 0.005,-0.1672 0.024,-0.3336 0.032,-0.5 A 103.99976,104 0 0 0 809.968,331 103.99976,104 0 0 0 810,330 103.99976,104 0 0 0 809.4688,319.62496 103.99976,104 0 0 0 716.2815,226.75008 103.99976,104 0 0 0 710.25015,226.21888 143.99966,144 0 0 0 570.00056,114 Z"
       style="display:inline;fill:#000000;fill-opacity:0.2;stroke:none;stroke-width:15.99998093;stroke-linecap:round;stroke-linejoin:round;stroke-miterlimit:4;stroke-dasharray:none;stroke-opacity:1;filter:url(#filter4720);enable-background:new"
       inkscape:connector-curvature="0" />
    <path
       inkscape:connector-curvature="0"
       style="display:inline;fill:#000000;fill-opacity:0.2;stroke:none;stroke-width:15.99998093;stroke-linecap:round;stroke-linejoin:round;stroke-miterlimit:4;stroke-dasharray:none;stroke-opacity:1;enable-background:new"
       d="M 570.00096,114.00032 A 143.99966,144 0 0 0 441.03254,194.37536 119.99972,120 0 0 0 330.064,312.62528 119.99972,120 0 0 0 330,314.00032 119.99972,120 0 0 0 412.74981,427.90656 c 0.84415,0.2816 1.67903,0.5816 2.53127,0.84384 a 119.99972,120 0 0 0 7.78118,2.0312 c 1.40336,0.3296 2.79704,0.6592 4.21879,0.93744 a 119.99972,120 0 0 0 6.53119,1.03136 c 1.98207,0.2736 3.95711,0.5456 5.96878,0.7184 A 119.99972,120 0 0 0 449.99972,434 h 7.99998 7.99998 239.99944 A 103.99976,104 0 0 0 809.6552,338 c 0.003,-0.056 0.032,-0.1032 0.032,-0.156 a 103.99976,104 0 0 0 0.1248,-2.62496 c 0.005,-0.1672 0.024,-0.3336 0.032,-0.5 A 103.99976,104 0 0 0 809.968,331 103.99976,104 0 0 0 810,330 103.99976,104 0 0 0 809.4688,319.62496 103.99976,104 0 0 0 716.2815,226.75008 103.99976,104 0 0 0 710.25015,226.21888 143.99966,144 0 0 0 570.00056,114 Z"
       id="path4712" />
    <path
       id="path4614"
       d="M 569.99944,112 A 143.99966,144 0 0 0 441.03094,192.37504 119.99972,120 0 0 0 330,312 119.99972,120 0 0 0 449.99972,432 h 7.99998 7.99998 7.99998 215.9995 7.99998 7.99998 A 103.99976,104 0 0 0 809.99888,328 103.99976,104 0 0 0 710.24903,224.21872 143.99966,144 0 0 0 569.99944,112 Z"
       style="display:inline;opacity:1;fill:#1976d2;fill-opacity:1;stroke:none;stroke-width:23.99997139;stroke-linecap:round;stroke-linejoin:round;stroke-miterlimit:4;stroke-dasharray:none;stroke-opacity:1;enable-background:new"
       inkscape:connector-curvature="0" />
    <path
       style="display:inline;fill:#000000;fill-opacity:0.2;stroke-width:7.99999046;enable-background:new"
       d="m 569.99944,194 c -26.51914,0 -47.99861,21.48 -47.99861,48 0,26.46 21.47947,48 47.99861,48 26.5193,0 47.99861,-21.54 47.99861,-48 0,-26.52 -21.47931,-48 -47.99861,-48 z m 0,120 c -24.51562,0 -67.75584,9.45008 -86.64572,28.25392 A 107.99672,108 0 0 0 569.99944,386 107.99672,108 0 0 0 656.64532,342.25392 C 637.75736,323.4488 594.51554,314 569.99944,314 Z"
       id="path4692"
       inkscape:connector-curvature="0" />
    <path
       inkscape:connector-curvature="0"
       id="path4694"
       d="m 569.99944,194 c -26.51914,0 -47.99861,21.48 -47.99861,48 0,26.46 21.47947,48 47.99861,48 26.5193,0 47.99861,-21.54 47.99861,-48 0,-26.52 -21.47931,-48 -47.99861,-48 z m 0,120 c -24.51562,0 -67.75584,9.45008 -86.64572,28.25392 A 107.99672,108 0 0 0 569.99944,386 107.99672,108 0 0 0 656.64532,342.25392 C 637.75736,323.4488 594.51554,314 569.99944,314 Z"
       style="display:inline;fill:#000000;fill-opacity:0.2;stroke-width:7.99999046;filter:url(#filter4708);enable-background:new" />
    <path
       inkscape:connector-curvature="0"
       id="path4618"
       d="m 569.99944,192 c -26.51914,0 -47.99861,21.48 -47.99861,48 0,26.46 21.47947,48 47.99861,48 26.5193,0 47.99861,-21.54 47.99861,-48 0,-26.52 -21.47931,-48 -47.99861,-48 z m 0,120 c -24.51562,0 -67.75584,9.45008 -86.64572,28.25392 A 107.99672,108 0 0 0 569.99944,384 107.99672,108 0 0 0 656.64532,340.25392 C 637.75736,321.4488 594.51554,312 569.99944,312 Z"
       style="display:inline;fill:#f5f5f5;fill-opacity:1;stroke-width:7.99999046;enable-background:new" />
    <path
       style="display:inline;opacity:1;fill:#ffffff;fill-opacity:0.2;stroke:none;stroke-width:23.99997139;stroke-linecap:round;stroke-linejoin:round;stroke-miterlimit:4;stroke-dasharray:none;stroke-opacity:1;enable-background:new"
       d="M 570,112 A 143.99966,144 0 0 0 441.03125,192.375 119.99972,120 0 0 0 330,312 119.99972,120 0 0 0 330.0508,312.95898 119.99972,120 0 0 1 441.03125,194.375 143.99966,144 0 0 1 570,114 143.99966,144 0 0 1 710.25,226.21875 103.99976,104 0 0 1 809.95117,329.08008 103.99976,104 0 0 0 809.99805,328 103.99976,104 0 0 0 710.25,224.21875 143.99966,144 0 0 0 570,112 Z"
       id="path4620"
       inkscape:connector-curvature="0" />
    <path
       id="path4739"
       d="M 570.00096,112.00032 A 143.99966,144 0 0 0 441.03254,192.37536 119.99972,120 0 0 0 330.064,310.62528 119.99972,120 0 0 0 330,312.00032 119.99972,120 0 0 0 412.74981,425.90656 c 0.84415,0.2816 1.67903,0.5816 2.53127,0.84384 a 119.99972,120 0 0 0 7.78118,2.0312 c 1.40336,0.3296 2.79704,0.6592 4.21879,0.93744 a 119.99972,120 0 0 0 6.53119,1.03136 c 1.98207,0.2736 3.95711,0.5456 5.96878,0.7184 A 119.99972,120 0 0 0 449.99972,432 h 7.99998 7.99998 239.99944 A 103.99976,104 0 0 0 809.6552,336 c 0.003,-0.056 0.032,-0.1032 0.032,-0.156 a 103.99976,104 0 0 0 0.1248,-2.62496 c 0.005,-0.1672 0.024,-0.3336 0.032,-0.5 A 103.99976,104 0 0 0 809.968,329 103.99976,104 0 0 0 810,328 103.99976,104 0 0 0 809.4688,317.62496 103.99976,104 0 0 0 716.2815,224.75008 103.99976,104 0 0 0 710.25015,224.21888 143.99966,144 0 0 0 570.00056,112 Z"
       style="display:inline;fill:url(#linearGradient4741);fill-opacity:1;stroke:none;stroke-width:15.99998093;stroke-linecap:round;stroke-linejoin:round;stroke-miterlimit:4;stroke-dasharray:none;stroke-opacity:1;enable-background:new"
       inkscape:connector-curvature="0" />
    <path
       inkscape:connector-curvature="0"
       style="display:inline;opacity:1;fill:#000000;fill-opacity:0.2;stroke:none;stroke-width:5.99999952;stroke-linecap:round;stroke-linejoin:round;stroke-miterlimit:4;stroke-dasharray:none;stroke-opacity:1;filter:url(#filter4585);enable-background:new"
       d="M 266,475 A 18,18 0 0 0 249.8789,485.04688 15,15 0 0 0 236,500 a 15,15 0 0 0 15,15 h 1 1 1 27 1 1 A 13,13 0 0 0 296,502 13,13 0 0 0 283.53124,489.02734 18,18 0 0 0 266,475 Z"
       id="path4583" />
    <path
       id="path4543"
       d="M 266,474.00009 A 18,18 0 0 0 249.8789,484.04697 15,15 0 0 0 236,499.00009 a 15,15 0 0 0 15,15 h 1 1 1 27 1 1 a 13,13 0 0 0 13,-13 A 13,13 0 0 0 283.53124,488.02743 18,18 0 0 0 266,474.00009 Z"
       style="display:inline;opacity:1;fill:#1976d2;fill-opacity:1;stroke:none;stroke-width:5.99999952;stroke-linecap:round;stroke-linejoin:round;stroke-miterlimit:4;stroke-dasharray:none;stroke-opacity:1;enable-background:new"
       inkscape:connector-curvature="0" />
    <path
       style="display:inline;fill:#000000;fill-opacity:0.2;stroke-width:2;filter:url(#filter4574);enable-background:new"
       d="m 266.00074,485.00009 c -3.3149,0 -5.99984,2.685 -5.99984,6 0,3.3075 2.68494,6 5.99984,6 3.31492,0 5.99984,-2.6925 5.99984,-6 0,-3.315 -2.68492,-6 -5.99984,-6 z m 0,15 c -3.06446,0 -8.46948,1.18126 -10.83074,3.53174 a 13.499621,13.5 0 0 0 10.83074,5.46826 13.499621,13.5 0 0 0 10.83076,-5.46826 c -2.361,-2.35064 -7.76624,-3.53174 -10.83076,-3.53174 z"
       id="path4545"
       inkscape:connector-curvature="0" />
    <path
       inkscape:connector-curvature="0"
       id="path4547"
       d="m 266,484.00009 c -3.3149,0 -5.99984,2.685 -5.99984,6 0,3.3075 2.68494,6 5.99984,6 3.31492,0 5.99984,-2.6925 5.99984,-6 0,-3.315 -2.68492,-6 -5.99984,-6 z m 0,15 c -3.06446,0 -8.4695,1.18126 -10.83074,3.53174 A 13.499621,13.5 0 0 0 266,508.00009 a 13.499621,13.5 0 0 0 10.83076,-5.46826 c -2.361,-2.35064 -7.76624,-3.53174 -10.83076,-3.53174 z"
       style="display:inline;fill:#f5f5f5;fill-opacity:1;stroke-width:2;enable-background:new" />
    <path
       style="display:inline;opacity:1;fill:#ffffff;fill-opacity:0.2;stroke:none;stroke-width:5.99999952;stroke-linecap:round;stroke-linejoin:round;stroke-miterlimit:4;stroke-dasharray:none;stroke-opacity:1;enable-background:new"
       d="M 266,474 A 18,18 0 0 0 249.87891,484.04688 15,15 0 0 0 236,499 a 15,15 0 0 0 0.0254,0.48438 15,15 0 0 1 13.85352,-14.4375 A 18,18 0 0 1 266,475 18,18 0 0 1 283.53125,489.02734 13,13 0 0 1 295.97656,501.53711 13,13 0 0 0 296,501 13,13 0 0 0 283.53125,488.02734 18,18 0 0 0 266,474 Z"
       id="path4549"
       inkscape:connector-curvature="0" />
    <path
       style="display:inline;fill:#ffffff;fill-opacity:1;stroke-width:2;enable-background:new"
       d="m 266,484 c -3.3149,0 -6,2.685 -6,6 0,0.16853 0.0117,0.33493 0.0254,0.5 0.25462,-3.08009 2.82862,-5.5 5.97461,-5.5 3.14601,0 5.72,2.41991 5.97461,5.5 0.0137,-0.16507 0.0254,-0.33147 0.0254,-0.5 0,-3.315 -2.68508,-6 -6,-6 z m 0,15 c -3.06446,0 -8.46884,1.18077 -10.83008,3.53125 a 13.499621,13.5 0 0 0 0.47266,0.57617 C 258.19225,501.0391 263.12581,500 266,500 c 2.8759,0 7.81312,1.04051 10.36133,3.11133 a 13.499621,13.5 0 0 0 0.46875,-0.58008 C 274.46908,500.18061 269.06452,499 266,499 Z"
       id="path4578"
       inkscape:connector-curvature="0" />
    <path
       inkscape:connector-curvature="0"
       id="path4553"
       d="m 266,474.00009 a 18,18 0 0 0 -16.1211,10.04688 15,15 0 0 0 -13.87108,14.78124 15,15 0 0 0 -0.008,0.1718 15,15 0 0 0 10.34376,14.23828 c 0.1056,0.0352 0.20986,0.0726 0.3164,0.1054 a 15,15 0 0 0 0.97266,0.2539 c 0.1754,0.0412 0.34962,0.0824 0.52734,0.1172 a 15,15 0 0 0 0.8164,0.129 c 0.24776,0.0342 0.49464,0.0682 0.7461,0.0898 A 15,15 0 0 0 251,514.00009 h 1 1 30 a 13,13 0 0 0 12.95704,-12 c 3.8e-4,-0.006 0.004,-0.012 0.004,-0.02 a 13,13 0 0 0 0.016,-0.32812 c 5.8e-4,-0.0208 0.002,-0.0416 0.004,-0.0624 a 13,13 0 0 0 0.016,-0.46484 13,13 0 0 0 0.004,-0.125 13,13 0 0 0 -0.0664,-1.29688 13,13 0 0 0 -11.64844,-11.60936 13,13 0 0 0 -0.75392,-0.0664 A 18,18 0 0 0 266,474.00009 Z"
       style="display:inline;fill:url(#linearGradient4555);fill-opacity:1;stroke:none;stroke-width:4;stroke-linecap:round;stroke-linejoin:round;stroke-miterlimit:4;stroke-dasharray:none;stroke-opacity:1;enable-background:new" />
    <path
       style="display:inline;fill:#ffffff;fill-opacity:1;enable-background:new"
       d="m 194.01953,498 c -2.20994,0 -3.99805,1.79 -3.99805,4 0,0.17123 0.0279,0.33436 0.0488,0.5 0.24827,-1.97117 1.91048,-3.5 3.94922,-3.5 2.03874,0 3.70291,1.52883 3.95117,3.5 0.0209,-0.16564 0.0488,-0.32877 0.0488,-0.5 0,-2.21 -1.79006,-4 -4,-4 z m 0,10 c -2.04297,0 -5.64458,0.78847 -7.21875,2.35547 a 8.999747,9 0 0 0 0.49219,0.59961 C 189.0322,509.6588 192.16183,509 194.01953,509 c 1.85613,0 4.98456,0.65707 6.72461,1.95117 a 8.999747,9 0 0 0 0.49609,-0.5957 C 199.66623,508.78837 196.06254,508 194.01953,508 Z"
       id="path4639"
       inkscape:connector-curvature="0" />
    <path
       style="display:inline;fill:#ffffff;fill-opacity:1;enable-background:new"
       d="m 138,506 c -1.65745,0 -3,1.3425 -3,3 0,0.17128 0.0231,0.33647 0.0508,0.5 0.23876,-1.41823 1.46289,-2.5 2.94922,-2.5 1.48634,0 2.71046,1.08177 2.94922,2.5 0.0277,-0.16353 0.0508,-0.32872 0.0508,-0.5 0,-1.6575 -1.34254,-3 -3,-3 z m 0,7.5 c -1.53223,0 -4.2354,0.59039 -5.41602,1.76562 a 6.7498103,6.75 0 0 0 0.50196,0.59571 C 134.4139,514.95665 136.65609,514.5 138,514.5 c 1.34358,0 3.58602,0.45514 4.91406,1.35938 a 6.7498103,6.75 0 0 0 0.50196,-0.59376 C 142.23552,514.09031 139.53226,513.5 138,513.5 Z"
       id="path4658"
       inkscape:connector-curvature="0" />
    <path
       style="display:inline;fill:url(#linearGradient4731);fill-opacity:1;stroke:none;stroke-width:2;stroke-linecap:round;stroke-linejoin:round;stroke-miterlimit:4;stroke-dasharray:none;stroke-opacity:1;enable-background:new"
       d="m 138,501 a 9,9 0 0 0 -8.06055,5.02344 7.5,7.5 0 0 0 -6.93554,7.39062 7.5,7.5 0 0 0 -0.004,0.0859 7.5,7.5 0 0 0 5.17188,7.11914 c 0.0528,0.0176 0.10493,0.0363 0.1582,0.0527 a 7.5,7.5 0 0 0 0.48633,0.12695 c 0.0877,0.0206 0.17481,0.0412 0.26367,0.0586 a 7.5,7.5 0 0 0 0.4082,0.0645 c 0.12388,0.0171 0.24732,0.0341 0.37305,0.0449 A 7.5,7.5 0 0 0 130.5,521 h 0.5 0.5 15 a 6.5,6.5 0 0 0 6.47852,-6 c 1.9e-4,-0.003 0.002,-0.006 0.002,-0.01 a 6.5,6.5 0 0 0 0.008,-0.16406 c 2.9e-4,-0.0104 0.001,-0.0208 0.002,-0.0312 a 6.5,6.5 0 0 0 0.008,-0.23242 6.5,6.5 0 0 0 0.002,-0.0625 6.5,6.5 0 0 0 -0.0332,-0.64844 6.5,6.5 0 0 0 -5.82422,-5.80468 6.5,6.5 0 0 0 -0.37696,-0.0332 A 9,9 0 0 0 138,501 Z"
       id="path4729"
       inkscape:connector-curvature="0" />
    <path
       style="display:inline;fill:#ffffff;fill-opacity:1;stroke-width:7.99999046;enable-background:new"
       d="m 570,192 c -26.51914,0 -48,21.48 -48,48 0,0.33481 0.0186,0.66484 0.0254,0.99805 C 522.5603,214.94286 543.81694,194 570,194 c 26.18322,0 47.43775,20.94286 47.97266,46.99805 0.007,-0.33321 0.0254,-0.66324 0.0254,-0.99805 0,-26.52 -21.47875,-48 -47.99805,-48 z m 0,120 c -24.51562,0 -67.7566,9.45007 -86.64648,28.25391 a 107.99672,108 0 0 0 0.92578,1.12695 C 503.61503,323.16174 545.86953,314 570,314 c 24.14621,0 66.43874,9.17271 85.75586,27.41602 a 107.99672,108 0 0 0 0.88867,-1.16211 C 637.75657,321.44879 594.5161,312 570,312 Z"
       id="path4687"
       inkscape:connector-curvature="0" />
    <path
       inkscape:connector-curvature="0"
       id="path4563"
       d="m 54.999988,510.00002 c -2.649162,0 -4.945005,1.53705 -6.095419,3.78239 C 46.149993,514.08711 44,516.47346 44,519.37501 44,522.48275 46.461247,525 49.499994,525 h 11.916651 c 2.529997,0 4.583335,-2.1 4.583335,-4.68749 0,-2.4751 -1.883833,-4.48165 -4.258,-4.65505 -0.623329,-3.22505 -3.405331,-5.65744 -6.741992,-5.65744 z"
       style="display:inline;fill:#000000;fill-opacity:0.2;stroke:none;stroke-width:2;stroke-linecap:round;stroke-linejoin:round;stroke-miterlimit:4;stroke-dasharray:none;stroke-opacity:1;enable-background:new" />
    <path
       style="display:inline;fill:#1976d2;fill-opacity:1;enable-background:new"
       id="path4565"
       d="m 61.742065,514.65786 c -0.623334,-3.22505 -3.405416,-5.65784 -6.742077,-5.65784 -2.649162,0 -4.94541,1.53745 -6.095829,3.78279 C 46.149583,513.08751 44,515.47346 44,518.37501 44,521.48275 46.461247,524 49.499994,524 h 11.916651 c 2.529997,0 4.583335,-2.1 4.583335,-4.68749 0,-2.4751 -1.883753,-4.48125 -4.257915,-4.65465 z"
       inkscape:connector-curvature="0" />
    <path
       inkscape:connector-curvature="0"
       id="path4568"
       d="m 55,509 c -2.649162,0 -4.945289,1.53786 -6.095703,3.7832 C 46.149721,513.0879 44,515.47345 44,518.375 c 0,0.20849 0.01357,0.4146 0.03516,0.61719 0.182253,-2.7232 2.238848,-4.91803 4.869141,-5.20899 C 50.054711,511.53786 52.350838,510 55,510 c 3.336661,0 6.118859,2.43315 6.742188,5.6582 2.206225,0.16114 3.967802,1.91051 4.208982,4.14258 0.0168,-0.1629 0.0488,-0.32086 0.0488,-0.48828 0,-2.4751 -1.883646,-4.4809 -4.257812,-4.6543 C 61.118859,511.43315 58.336661,509 55,509 Z"
       style="display:inline;fill:#ffffff;fill-opacity:0.2;stroke:none;stroke-width:2;stroke-linecap:round;stroke-linejoin:round;stroke-miterlimit:4;stroke-dasharray:none;stroke-opacity:1;enable-background:new" />
    <path
       style="display:inline;fill:#000000;fill-opacity:0.2;stroke-width:0.49999943;enable-background:new"
       d="m 55.010245,514.00001 c -1.104968,0 -1.999942,0.895 -1.999942,2 0,1.1025 0.894974,1.99999 1.999942,1.99999 1.104969,0 1.999943,-0.89749 1.999943,-1.99999 0,-1.105 -0.894974,-2 -1.999943,-2 z m 0,4.99999 c -1.021483,0 -2.823161,0.39375 -3.610245,1.17725 A 4.4998684,4.4999949 0 0 0 55.010245,522 4.4998684,4.4999949 0 0 0 58.620491,520.17725 C 57.833492,519.3937 56.031749,519 55.010245,519 Z"
       id="path4570"
       inkscape:connector-curvature="0" />
    <path
       inkscape:connector-curvature="0"
       id="path4572"
       d="m 55.010237,512.99972 c -1.104968,0 -1.999942,0.895 -1.999942,2 0,1.1025 0.894974,2 1.999942,2 1.104969,0 1.999943,-0.8975 1.999943,-2 0,-1.105 -0.894974,-2 -1.999943,-2 z m 0,5 c -1.021483,0 -2.823161,0.39375 -3.610245,1.17724 a 4.4998684,4.4999949 0 0 0 3.610245,1.82275 4.4998684,4.4999949 0 0 0 3.610246,-1.82275 c -0.786999,-0.78354 -2.588742,-1.17724 -3.610246,-1.17724 z"
       style="display:inline;fill:#f5f5f5;fill-opacity:1;enable-background:new" />
    <path
       style="display:inline;fill:url(#linearGradient4576);fill-opacity:1;stroke:none;stroke-width:2;stroke-linecap:round;stroke-linejoin:round;stroke-miterlimit:4;stroke-dasharray:none;stroke-opacity:1;enable-background:new"
       d="m 54.999988,509.00002 c -2.649162,0 -4.945005,1.53705 -6.095419,3.78239 C 46.149993,513.08711 44,515.47346 44,518.37501 44,521.48275 46.461247,524 49.499994,524 h 11.916651 c 2.529997,0 4.583335,-2.1 4.583335,-4.68749 0,-2.4751 -1.883833,-4.48165 -4.258,-4.65505 -0.623329,-3.22505 -3.405331,-5.65744 -6.741992,-5.65744 z"
       id="path4574"
       inkscape:connector-curvature="0" />
  </g>
</svg>
