<?xml version="1.0" encoding="UTF-8" standalone="no"?>
<!-- Created with Inkscape (http://www.inkscape.org/) -->

<svg
   xmlns:dc="http://purl.org/dc/elements/1.1/"
   xmlns:cc="http://creativecommons.org/ns#"
   xmlns:rdf="http://www.w3.org/1999/02/22-rdf-syntax-ns#"
   xmlns:svg="http://www.w3.org/2000/svg"
   xmlns="http://www.w3.org/2000/svg"
   xmlns:xlink="http://www.w3.org/1999/xlink"
   xmlns:sodipodi="http://sodipodi.sourceforge.net/DTD/sodipodi-0.dtd"
   xmlns:inkscape="http://www.inkscape.org/namespaces/inkscape"
   width="842"
   height="544"
   viewBox="0 0 842 544"
   version="1.1"
   id="svg1087"
   inkscape:version="0.92.1 r"
   sodipodi:docname="google-hangouts.svg">
  <defs
     id="defs1081">
    <linearGradient
       id="linearGradient4730"
       inkscape:collect="always">
      <stop
         id="stop4726"
         offset="0"
         style="stop-color:#ffffff;stop-opacity:0.05490196" />
      <stop
         id="stop4728"
         offset="1"
         style="stop-color:#177ed5;stop-opacity:0;" />
    </linearGradient>
    <linearGradient
       inkscape:collect="always"
       xlink:href="#linearGradient4730"
       id="linearGradient4449-0"
       gradientUnits="userSpaceOnUse"
       gradientTransform="matrix(10.43473,0,0,10.434772,319.56521,-10305.655)"
       x1="7"
       y1="1011.3622"
       x2="41.000019"
       y2="1045.3622" />
    <linearGradient
       inkscape:collect="always"
       xlink:href="#linearGradient4730"
       id="linearGradient4553"
       gradientUnits="userSpaceOnUse"
       gradientTransform="matrix(0.4782599,0,0,0.47826359,43.52174,25.17187)"
       x1="7"
       y1="1011.3622"
       x2="41.000019"
       y2="1045.3622" />
    <linearGradient
       inkscape:collect="always"
       xlink:href="#linearGradient4730"
       id="linearGradient4725"
       gradientUnits="userSpaceOnUse"
       gradientTransform="matrix(0.4782599,0,0,0.47826359,78.52174,24.17187)"
       x1="7"
       y1="1011.3622"
       x2="41.000019"
       y2="1045.3622" />
    <linearGradient
       inkscape:collect="always"
       xlink:href="#linearGradient4730"
       id="linearGradient4737"
       gradientUnits="userSpaceOnUse"
       gradientTransform="matrix(0.63767987,0,0,0.63768479,122.69565,-144.43751)"
       x1="7"
       y1="1011.3622"
       x2="41.000019"
       y2="1045.3622" />
    <linearGradient
       inkscape:collect="always"
       xlink:href="#linearGradient4730"
       id="linearGradient4731"
       gradientUnits="userSpaceOnUse"
       gradientTransform="matrix(0.9565198,0,0,0.95652718,171.04348,-480.65626)"
       x1="7"
       y1="1011.3622"
       x2="41.000019"
       y2="1045.3622" />
    <linearGradient
       inkscape:collect="always"
       xlink:href="#linearGradient4730"
       id="linearGradient4171-1-0"
       x1="7"
       y1="1011.3622"
       x2="41.000019"
       y2="1045.3622"
       gradientUnits="userSpaceOnUse"
       gradientTransform="matrix(0.95652174,0,0,0.95652174,171.0435,-479.65043)" />
    <filter
       inkscape:collect="always"
       style="color-interpolation-filters:sRGB"
       id="filter4647"
       x="-0.024"
       width="1.048"
       y="-0.016000001"
       height="1.0319999">
      <feGaussianBlur
         inkscape:collect="always"
         stdDeviation="0.08"
         id="feGaussianBlur4649" />
    </filter>
    <filter
       inkscape:collect="always"
       style="color-interpolation-filters:sRGB"
       id="filter4651"
       x="-0.024"
       width="1.048"
       y="-0.016000001"
       height="1.0319999">
      <feGaussianBlur
         inkscape:collect="always"
         stdDeviation="0.08"
         id="feGaussianBlur4653" />
    </filter>
    <filter
       inkscape:collect="always"
       style="color-interpolation-filters:sRGB"
       id="filter4662"
       x="-0.012999994"
       width="1.026"
       y="-0.011142861"
       height="1.0222857">
      <feGaussianBlur
         inkscape:collect="always"
         stdDeviation="0.19500008"
         id="feGaussianBlur4664" />
    </filter>
    <linearGradient
       inkscape:collect="always"
       xlink:href="#linearGradient4730"
       id="linearGradient4741"
       gradientUnits="userSpaceOnUse"
       gradientTransform="matrix(1.2753603,0,0,1.2753701,235.39129,-816.87557)"
       x1="7"
       y1="1011.3622"
       x2="41.000019"
       y2="1045.3622" />
    <filter
       inkscape:collect="always"
       style="color-interpolation-filters:sRGB"
       id="filter4561"
       x="-0.024000011"
       width="1.048"
       y="-0.014999989"
       height="1.03">
      <feGaussianBlur
         inkscape:collect="always"
         stdDeviation="0.10000005"
         id="feGaussianBlur4563" />
    </filter>
    <filter
       inkscape:collect="always"
       style="color-interpolation-filters:sRGB"
       id="filter4557"
       x="-0.024000011"
       width="1.048"
       y="-0.014999989"
       height="1.03">
      <feGaussianBlur
         inkscape:collect="always"
         stdDeviation="0.10000005"
         id="feGaussianBlur4559" />
    </filter>
    <filter
       inkscape:collect="always"
       style="color-interpolation-filters:sRGB"
       id="filter4573"
       x="-0.013000003"
       width="1.026"
       y="-0.011142855"
       height="1.0222857">
      <feGaussianBlur
         inkscape:collect="always"
         stdDeviation="0.25999995"
         id="feGaussianBlur4575" />
    </filter>
    <linearGradient
       inkscape:collect="always"
       xlink:href="#linearGradient4730"
       id="linearGradient4756"
       gradientUnits="userSpaceOnUse"
       gradientTransform="matrix(10.202882,0,0,10.202961,325.13032,-10231.005)"
       x1="7"
       y1="1011.3622"
       x2="41.000019"
       y2="1045.3622" />
    <filter
       inkscape:collect="always"
       style="color-interpolation-filters:sRGB"
       id="filter4614"
       x="-0.046599962"
       width="1.0931998"
       y="-0.031415764"
       height="1.0628315">
      <feGaussianBlur
         inkscape:collect="always"
         stdDeviation="1.5533325"
         id="feGaussianBlur4616" />
    </filter>
    <filter
       inkscape:collect="always"
       style="color-interpolation-filters:sRGB"
       id="filter4610"
       x="-0.046599962"
       width="1.0931998"
       y="-0.031415764"
       height="1.0628315">
      <feGaussianBlur
         inkscape:collect="always"
         stdDeviation="1.5533325"
         id="feGaussianBlur4612" />
    </filter>
    <filter
       inkscape:collect="always"
       style="color-interpolation-filters:sRGB"
       id="filter4594"
       x="-0.026000001"
       width="1.052"
       y="-0.022285715"
       height="1.0445714">
      <feGaussianBlur
         inkscape:collect="always"
         stdDeviation="4.16"
         id="feGaussianBlur4596" />
    </filter>
  </defs>
  <sodipodi:namedview
     id="base"
     pagecolor="#c3c3c3"
     bordercolor="#333333"
     borderopacity="1"
     inkscape:pageopacity="0"
     inkscape:pageshadow="2"
     inkscape:zoom="2"
     inkscape:cx="-0.27783127"
     inkscape:cy="-103.58253"
     inkscape:document-units="px"
     inkscape:current-layer="layer1"
     showgrid="true"
     units="px"
     inkscape:showpageshadow="false"
     inkscape:window-width="2560"
     inkscape:window-height="1369"
     inkscape:window-x="0"
     inkscape:window-y="35"
     inkscape:window-maximized="1">
    <inkscape:grid
       type="xygrid"
       id="grid4630" />
  </sodipodi:namedview>
  <metadata
     id="metadata1084">
    <rdf:RDF>
      <cc:Work
         rdf:about="">
        <dc:format>image/svg+xml</dc:format>
        <dc:type
           rdf:resource="http://purl.org/dc/dcmitype/StillImage" />
        <dc:title />
        <cc:license
           rdf:resource="http://creativecommons.org/licenses/by-sa/4.0/" />
        <dc:creator>
          <cc:Agent>
            <dc:title>Peter Cornelis</dc:title>
          </cc:Agent>
        </dc:creator>
      </cc:Work>
      <cc:License
         rdf:about="http://creativecommons.org/licenses/by-sa/4.0/">
        <cc:permits
           rdf:resource="http://creativecommons.org/ns#Reproduction" />
        <cc:permits
           rdf:resource="http://creativecommons.org/ns#Distribution" />
        <cc:requires
           rdf:resource="http://creativecommons.org/ns#Notice" />
        <cc:requires
           rdf:resource="http://creativecommons.org/ns#Attribution" />
        <cc:permits
           rdf:resource="http://creativecommons.org/ns#DerivativeWorks" />
        <cc:requires
           rdf:resource="http://creativecommons.org/ns#ShareAlike" />
      </cc:License>
    </rdf:RDF>
  </metadata>
  <g
     inkscape:label="Baseplate"
     inkscape:groupmode="layer"
     id="layer1"
     transform="translate(0,-153.06668)"
     style="display:none">
    <rect
       style="display:inline;overflow:visible;visibility:visible;fill:#fefefe;fill-opacity:1;fill-rule:nonzero;stroke:none;stroke-width:2;marker:none;enable-background:accumulate"
       id="rect3951"
       width="512"
       height="512"
       x="-826"
       y="169.06668"
       inkscape:label="48x48"
       transform="scale(-1,1)" />
    <text
       y="733.32251"
       xml:space="preserve"
       x="15.006836"
       style="font-style:normal;font-variant:normal;font-weight:normal;font-stretch:normal;line-height:0%;font-family:'DejaVu Sans';-inkscape-font-specification:'DejaVu Sans';display:inline;fill:#000000;fill-opacity:1;stroke:none;enable-background:new"
       inkscape:label="context"
       id="context"><tspan
         style="font-style:normal;font-variant:normal;font-weight:normal;font-stretch:normal;font-size:18px;line-height:1.25;font-family:'DejaVu Sans';-inkscape-font-specification:'DejaVu Sans'"
         y="733.32251"
         x="15.006836"
         sodipodi:role="line"
         id="tspan3933">apps</tspan></text>
    <text
       y="733.32251"
       xml:space="preserve"
       x="142.48828"
       style="font-style:normal;font-variant:normal;font-weight:bold;font-stretch:normal;line-height:0%;font-family:'DejaVu Sans';-inkscape-font-specification:'DejaVu Sans Bold';text-align:start;writing-mode:lr-tb;text-anchor:start;display:inline;fill:#000000;fill-opacity:1;stroke:none;enable-background:new"
       inkscape:label="icon-name"
       id="icon-name"><tspan
         style="font-style:normal;font-variant:normal;font-weight:bold;font-stretch:normal;font-size:18px;line-height:1.25;font-family:'DejaVu Sans';-inkscape-font-specification:'DejaVu Sans Bold'"
         y="733.32251"
         x="142.48828"
         sodipodi:role="line"
         id="tspan3937">google-hangouts</tspan></text>
    <rect
       style="display:inline;overflow:visible;visibility:visible;fill:#fefefe;fill-opacity:1;fill-rule:nonzero;stroke:none;stroke-width:2;marker:none;enable-background:accumulate"
       id="rect16x16"
       width="16"
       height="16"
       x="-32"
       y="665.06665"
       inkscape:label="16x16"
       transform="scale(-1,1)" />
    <rect
       style="display:inline;overflow:visible;visibility:visible;fill:#fefefe;fill-opacity:1;fill-rule:nonzero;stroke:none;stroke-width:2;marker:none;enable-background:accumulate"
       id="rect24x24"
       width="24"
       height="24"
       x="-102"
       y="657.06665"
       inkscape:label="24x24"
       transform="scale(-1,1)" />
    <rect
       style="display:inline;overflow:visible;visibility:visible;fill:#fefefe;fill-opacity:1;fill-rule:nonzero;stroke:none;stroke-width:2;marker:none;enable-background:accumulate"
       id="rect32x32"
       width="32"
       height="32"
       x="-154"
       y="649.06665"
       inkscape:label="32x32"
       transform="scale(-1,1)" />
    <rect
       inkscape:label="48x48"
       y="633.06665"
       x="-218"
       height="48"
       width="48"
       id="rect48x48"
       style="display:inline;overflow:visible;visibility:visible;fill:#fefefe;fill-opacity:1;fill-rule:nonzero;stroke:none;stroke-width:2;marker:none;enable-background:accumulate"
       transform="scale(-1,1)" />
    <rect
       transform="scale(-1,1)"
       inkscape:label="48x48"
       y="617.06665"
       x="-298"
       height="64"
       width="64"
       id="rect4493"
       style="display:inline;overflow:visible;visibility:visible;fill:#fefefe;fill-opacity:1;fill-rule:nonzero;stroke:none;stroke-width:0.25;marker:none;enable-background:accumulate" />
    <rect
       transform="scale(-1,1)"
       inkscape:label="24x24"
       y="659.06665"
       x="-66"
       height="22"
       width="22"
       id="rect4495"
       style="display:inline;overflow:visible;visibility:visible;fill:#fefefe;fill-opacity:1;fill-rule:nonzero;stroke:none;stroke-width:1.83333325;marker:none;enable-background:accumulate" />
    <path
       id="path4618"
       d="m 90,658.06668 c -6.094,0 -11,4.906 -11,11 0,0.16899 0.01792,0.33292 0.02539,0.5 0.261765,-5.85817 5.049598,-10.5 10.974609,-10.5 5.925011,0 10.712841,4.64183 10.974611,10.5 0.008,-0.16708 0.0254,-0.33101 0.0254,-0.5 0,-6.094 -4.906002,-11 -11.000002,-11 z"
       style="display:inline;fill:#ffffff;fill-opacity:0.2;stroke:none;enable-background:new"
       inkscape:connector-curvature="0" />
    <path
       inkscape:connector-curvature="0"
       id="path4447"
       d="m 569.99874,185.06926 a 239.9963,239.99966 0 0 0 -20.62496,1.024 239.99626,239.99966 0 0 0 -11.31104,1.376 239.9963,239.99966 0 0 0 -12.4728,1.8976 239.99626,239.99966 0 0 0 -11.148,2.5072 239.9963,239.99966 0 0 0 -12.0244,3.056 239.99626,239.99966 0 0 0 -11.08688,3.6896 239.9963,239.99966 0 0 0 -11.61688,4.24 239.99626,239.99966 0 0 0 -10.63832,4.7696 239.9963,239.99966 0 0 0 -11.00552,5.3184 239.99626,239.99966 0 0 0 -10.25128,5.8688 239.9963,239.99966 0 0 0 -10.41425,6.3808 239.99626,239.99966 0 0 0 -9.5584,6.8464 239.9963,239.99966 0 0 0 -9.74208,7.4176 239.99626,239.99966 0 0 0 -8.60024,7.5408 239.9963,239.99966 0 0 0 -9.23232,8.5984 239.99626,239.99966 0 0 0 -70.27136,169.4656 239.99626,239.99966 0 0 0 67.60144,166.9568 h 0.3472 a 239.9963,239.99966 0 0 0 172.05073,73.0432 239.9963,239.99966 0 0 0 20.3804,-1.024 239.99626,239.99966 0 0 0 11.80048,-1.424 239.9963,239.99966 0 0 0 12.228,-1.8544 239.99626,239.99966 0 0 0 11.148,-2.5056 239.9963,239.99966 0 0 0 12.02432,-3.0592 239.99626,239.99966 0 0 0 11.08687,-3.6864 239.9963,239.99966 0 0 0 11.61696,-4.2416 239.99626,239.99966 0 0 0 10.63856,-4.768 239.9963,239.99966 0 0 0 11.00528,-5.3184 239.99626,239.99966 0 0 0 10.25121,-5.872 239.9963,239.99966 0 0 0 10.41456,-6.3776 239.99626,239.99966 0 0 0 9.55824,-6.848 239.9963,239.99966 0 0 0 9.74192,-7.4176 239.99626,239.99966 0 0 0 8.60048,-7.5408 239.9963,239.99966 0 0 0 9.23216,-8.6016 239.99626,239.99966 0 0 0 70.2716,-169.4544 239.99626,239.99966 0 0 0 -67.622,-166.9568 h -0.3248 a 239.9963,239.99966 0 0 0 -172.0508,-73.0432 z"
       style="display:inline;fill:url(#linearGradient4449-0);fill-opacity:1;stroke:none;stroke-width:16;stroke-linecap:round;stroke-linejoin:round;stroke-miterlimit:4;stroke-dasharray:none;stroke-opacity:1;enable-background:new" />
  </g>
  <g
     inkscape:groupmode="layer"
     id="layer2"
     inkscape:label="Bitmap"
     style="display:inline">
    <path
       style="display:inline;opacity:1;fill:#000000;fill-opacity:0.2;stroke:none;stroke-width:16;stroke-linecap:square;stroke-linejoin:miter;stroke-miterlimit:4;stroke-dasharray:none;stroke-opacity:1;enable-background:new"
       d="M 570,50 A 192.00004,192.00004 0 0 0 378,242 192.00004,192.00004 0 0 0 570,434 v 64 c 29.53847,0 192,-108.30766 192,-256 A 192.00004,192.00004 0 0 0 570,50 Z"
       id="path4577"
       inkscape:connector-curvature="0" />
    <path
       inkscape:connector-curvature="0"
       id="path4588"
       d="M 570,50 A 192.00004,192.00004 0 0 0 378,242 192.00004,192.00004 0 0 0 570,434 v 64 c 29.53847,0 192,-108.30766 192,-256 A 192.00004,192.00004 0 0 0 570,50 Z"
       style="display:inline;opacity:1;fill:#000000;fill-opacity:0.2;stroke:none;stroke-width:16;stroke-linecap:square;stroke-linejoin:miter;stroke-miterlimit:4;stroke-dasharray:none;stroke-opacity:1;filter:url(#filter4594);enable-background:new" />
    <path
       inkscape:connector-curvature="0"
       id="circle4264"
       d="M 570,48 A 192.00004,192.00004 0 0 0 378,240 192.00004,192.00004 0 0 0 570,432 v 64 c 29.53847,0 192,-108.30766 192,-256 A 192.00004,192.00004 0 0 0 570,48 Z"
       style="display:inline;opacity:1;fill:#139f5b;fill-opacity:1;stroke:none;stroke-width:16;stroke-linecap:square;stroke-linejoin:miter;stroke-miterlimit:4;stroke-dasharray:none;stroke-opacity:1;enable-background:new" />
    <path
       style="display:inline;opacity:1;fill:#000000;fill-opacity:0.2;stroke:none;stroke-width:16;stroke-linecap:square;stroke-linejoin:miter;stroke-miterlimit:4;stroke-dasharray:none;stroke-opacity:1;enable-background:new"
       d="m 473.99999,186.0001 v 79.9998 H 514 v 38.66668 c 21.33334,0 40.00001,-17.33334 40.00001,-38.66668 V 244.66657 186.0001 Z"
       id="path4584"
       inkscape:connector-curvature="0"
       sodipodi:nodetypes="cccccccc" />
    <path
       sodipodi:nodetypes="cccccccc"
       inkscape:connector-curvature="0"
       id="path4598"
       d="m 473.99999,186.0001 v 79.9998 H 514 v 38.66668 c 21.33334,0 40.00001,-17.33334 40.00001,-38.66668 V 244.66657 186.0001 Z"
       style="display:inline;opacity:1;fill:#000000;fill-opacity:0.2;stroke:none;stroke-width:16;stroke-linecap:square;stroke-linejoin:miter;stroke-miterlimit:4;stroke-dasharray:none;stroke-opacity:1;filter:url(#filter4610);enable-background:new" />
    <path
       sodipodi:nodetypes="cccccccc"
       inkscape:connector-curvature="0"
       id="path4268"
       d="m 473.99999,184.0001 v 79.9998 H 514 v 38.66668 c 21.33334,0 40.00001,-17.33334 40.00001,-38.66668 V 242.66657 184.0001 Z"
       style="display:inline;opacity:1;fill:#f5f5f5;fill-opacity:1;stroke:none;stroke-width:16;stroke-linecap:square;stroke-linejoin:miter;stroke-miterlimit:4;stroke-dasharray:none;stroke-opacity:1;enable-background:new" />
    <path
       style="display:inline;opacity:1;fill:#000000;fill-opacity:0.2;stroke:none;stroke-width:16;stroke-linecap:square;stroke-linejoin:miter;stroke-miterlimit:4;stroke-dasharray:none;stroke-opacity:1;filter:url(#filter4614);enable-background:new"
       d="m 585.99999,186.0001 v 79.9998 H 626 v 38.66668 c 21.33334,0 40.00001,-17.33334 40.00001,-38.66668 V 244.66657 186.0001 Z"
       id="path4600"
       inkscape:connector-curvature="0"
       sodipodi:nodetypes="cccccccc" />
    <path
       sodipodi:nodetypes="cccccccc"
       inkscape:connector-curvature="0"
       id="path4586"
       d="m 585.99999,186.0001 v 79.9998 H 626 v 38.66668 c 21.33334,0 40.00001,-17.33334 40.00001,-38.66668 V 244.66657 186.0001 Z"
       style="display:inline;opacity:1;fill:#000000;fill-opacity:0.2;stroke:none;stroke-width:16;stroke-linecap:square;stroke-linejoin:miter;stroke-miterlimit:4;stroke-dasharray:none;stroke-opacity:1;enable-background:new" />
    <path
       style="display:inline;opacity:1;fill:#f5f5f5;fill-opacity:1;stroke:none;stroke-width:16;stroke-linecap:square;stroke-linejoin:miter;stroke-miterlimit:4;stroke-dasharray:none;stroke-opacity:1;enable-background:new"
       d="m 585.99999,184.0001 v 79.9998 H 626 v 38.66668 c 21.33334,0 40.00001,-17.33334 40.00001,-38.66668 V 242.66657 184.0001 Z"
       id="path4272"
       inkscape:connector-curvature="0"
       sodipodi:nodetypes="cccccccc" />
    <path
       id="path4655"
       d="m 194,484 a 18,18 0 0 0 -18,18 18,18 0 0 0 18,18 v 6 c 2.64069,0 16.60315,-9.23627 17.89453,-22.09961 a 18,18 0 0 0 0.0215,-0.20117 c 0.0503,-0.56063 0.084,-1.12545 0.084,-1.69922 a 18,18 0 0 0 -18,-18 z"
       style="display:inline;opacity:1;fill:#000000;fill-opacity:0.2;stroke:none;stroke-width:16;stroke-linecap:square;stroke-linejoin:miter;stroke-miterlimit:4;stroke-dasharray:none;stroke-opacity:1;filter:url(#filter4662);enable-background:new"
       inkscape:connector-curvature="0" />
    <path
       inkscape:connector-curvature="0"
       style="display:inline;opacity:1;fill:#139f5b;fill-opacity:1;stroke:none;stroke-width:16;stroke-linecap:square;stroke-linejoin:miter;stroke-miterlimit:4;stroke-dasharray:none;stroke-opacity:1;enable-background:new"
       d="m 194,483 a 18,18 0 0 0 -18,18 18,18 0 0 0 18,18 v 6 c 2.64069,0 16.60315,-9.23627 17.89453,-22.09961 a 18,18 0 0 0 0.0215,-0.20117 c 0.0503,-0.56063 0.084,-1.12545 0.084,-1.69922 a 18,18 0 0 0 -18,-18 z"
       id="circle4240" />
    <path
       style="display:inline;opacity:1;fill:#000000;fill-opacity:0.2;stroke:none;stroke-width:16;stroke-linecap:square;stroke-linejoin:miter;stroke-miterlimit:4;stroke-dasharray:none;stroke-opacity:1;filter:url(#filter4651);enable-background:new"
       d="m 184,496 v 8 h 4 v 4 c 2,0 4,-2 4,-4 v -2 -6 z"
       id="path4636"
       inkscape:connector-curvature="0"
       sodipodi:nodetypes="cccccccc" />
    <path
       sodipodi:nodetypes="cccccccc"
       inkscape:connector-curvature="0"
       id="path4244"
       d="m 184,495 v 8 h 4 v 4 c 2,0 4,-2 4,-4 v -2 -6 z"
       style="display:inline;opacity:1;fill:#f5f5f5;fill-opacity:1;stroke:none;stroke-width:16;stroke-linecap:square;stroke-linejoin:miter;stroke-miterlimit:4;stroke-dasharray:none;stroke-opacity:1;enable-background:new" />
    <path
       sodipodi:nodetypes="cccccccc"
       inkscape:connector-curvature="0"
       id="path4638"
       d="m 196,496 v 8 h 4 v 4 c 2,0 4,-2 4,-4 v -2 -6 z"
       style="display:inline;opacity:1;fill:#000000;fill-opacity:0.2;stroke:none;stroke-width:16;stroke-linecap:square;stroke-linejoin:miter;stroke-miterlimit:4;stroke-dasharray:none;stroke-opacity:1;filter:url(#filter4647);enable-background:new" />
    <path
       style="display:inline;opacity:1;fill:#f5f5f5;fill-opacity:1;stroke:none;stroke-width:16;stroke-linecap:square;stroke-linejoin:miter;stroke-miterlimit:4;stroke-dasharray:none;stroke-opacity:1;enable-background:new"
       d="m 196,495 v 8 h 4 v 4 c 2,0 4,-2 4,-4 v -2 -6 z"
       id="path4246"
       inkscape:connector-curvature="0"
       sodipodi:nodetypes="cccccccc" />
    <path
       id="path4558"
       d="m 138,499 a 12.000003,12.000003 0 0 0 -12,12 12.000003,12.000003 0 0 0 12,12 v 4 c 1.76043,0 11.06839,-6.15717 11.92969,-14.73242 a 12.000003,12.000003 0 0 0 0.0137,-0.13672 c 0.0334,-0.37319 0.0566,-0.74893 0.0566,-1.13086 a 12.000003,12.000003 0 0 0 -12,-12 z"
       style="display:inline;opacity:1;fill:#000000;fill-opacity:0.2;stroke:none;stroke-width:16;stroke-linecap:square;stroke-linejoin:miter;stroke-miterlimit:4;stroke-dasharray:none;stroke-opacity:1;enable-background:new"
       inkscape:connector-curvature="0" />
    <path
       inkscape:connector-curvature="0"
       style="display:inline;opacity:1;fill:#139f5b;fill-opacity:1;stroke:none;stroke-width:16;stroke-linecap:square;stroke-linejoin:miter;stroke-miterlimit:4;stroke-dasharray:none;stroke-opacity:1;enable-background:new"
       d="m 138,498 a 12.000003,12.000003 0 0 0 -12,12 12.000003,12.000003 0 0 0 12,12 v 4 c 1.76043,0 11.06839,-6.15717 11.92969,-14.73242 a 12.000003,12.000003 0 0 0 0.0137,-0.13672 c 0.0334,-0.37319 0.0566,-0.74893 0.0566,-1.13086 a 12.000003,12.000003 0 0 0 -12,-12 z"
       id="circle4252" />
    <path
       style="display:inline;opacity:1;fill:#000000;fill-opacity:0.2;stroke:none;stroke-width:16;stroke-linecap:square;stroke-linejoin:miter;stroke-miterlimit:4;stroke-dasharray:none;stroke-opacity:1;enable-background:new"
       d="M 132,506.99999 V 512 h 3 v 3 c 1.25,0 2,-1.75 2,-3 v -1.25 -3.75001 z"
       id="path4560"
       inkscape:connector-curvature="0"
       sodipodi:nodetypes="cccccccc" />
    <path
       sodipodi:nodetypes="cccccccc"
       inkscape:connector-curvature="0"
       id="path4256"
       d="M 132,505.99999 V 511 h 3 v 3 c 1.25,0 2,-1.75 2,-3 v -1.25 -3.75001 z"
       style="display:inline;opacity:1;fill:#f5f5f5;fill-opacity:1;stroke:none;stroke-width:16;stroke-linecap:square;stroke-linejoin:miter;stroke-miterlimit:4;stroke-dasharray:none;stroke-opacity:1;enable-background:new" />
    <path
       sodipodi:nodetypes="cccccccc"
       inkscape:connector-curvature="0"
       id="path4562"
       d="M 139,506.99999 V 512 h 3 v 3 c 1.25,0 2,-1.75 2,-3 v -1.25 -3.75001 z"
       style="display:inline;opacity:1;fill:#000000;fill-opacity:0.2;stroke:none;stroke-width:16;stroke-linecap:square;stroke-linejoin:miter;stroke-miterlimit:4;stroke-dasharray:none;stroke-opacity:1;enable-background:new" />
    <path
       style="display:inline;opacity:1;fill:#f5f5f5;fill-opacity:1;stroke:none;stroke-width:16;stroke-linecap:square;stroke-linejoin:miter;stroke-miterlimit:4;stroke-dasharray:none;stroke-opacity:1;enable-background:new"
       d="M 139,505.99999 V 511 h 3 v 3 c 1.25,0 2,-1.75 2,-3 v -1.25 -3.75001 z"
       id="path4339"
       inkscape:connector-curvature="0"
       sodipodi:nodetypes="cccccccc" />
    <path
       id="path4539"
       d="m 55,508 a 9,9 0 0 0 -9,9 9,9 0 0 0 9,9 v 3 c 1.25214,0 7.58193,-4.15782 8.78516,-10.07227 a 9,9 0 0 0 0.0606,-0.30859 c 0.0304,-0.17754 0.0613,-0.35464 0.082,-0.53516 A 9,9 0 0 0 64.00006,517 a 9,9 0 0 0 -9,-9 z"
       style="display:inline;opacity:1;fill:#000000;fill-opacity:0.2;stroke:none;stroke-width:16;stroke-linecap:square;stroke-linejoin:miter;stroke-miterlimit:4;stroke-dasharray:none;stroke-opacity:1;enable-background:new"
       inkscape:connector-curvature="0" />
    <path
       inkscape:connector-curvature="0"
       style="display:inline;opacity:1;fill:#139f5b;fill-opacity:1;stroke:none;stroke-width:16;stroke-linecap:square;stroke-linejoin:miter;stroke-miterlimit:4;stroke-dasharray:none;stroke-opacity:1;enable-background:new"
       d="m 55,507 a 9,9 0 0 0 -9,9 9,9 0 0 0 9,9 v 3 c 1.25214,0 7.58193,-4.15782 8.78516,-10.07227 a 9,9 0 0 0 0.0606,-0.30859 c 0.0304,-0.17754 0.0613,-0.35464 0.082,-0.53516 A 9,9 0 0 0 64.00006,516 a 9,9 0 0 0 -9,-9 z"
       id="path4212" />
    <path
       sodipodi:nodetypes="cccccccc"
       inkscape:connector-curvature="0"
       id="path4546"
       d="m 50,514 v 4 h 2 v 2 c 1,0 2,-1 2,-2 v -1 -3 z"
       style="display:inline;opacity:1;fill:#000000;fill-opacity:0.2;stroke:none;stroke-width:16;stroke-linecap:square;stroke-linejoin:miter;stroke-miterlimit:4;stroke-dasharray:none;stroke-opacity:1;enable-background:new" />
    <path
       style="display:inline;opacity:1;fill:#f5f5f5;fill-opacity:1;stroke:none;stroke-width:16;stroke-linecap:square;stroke-linejoin:miter;stroke-miterlimit:4;stroke-dasharray:none;stroke-opacity:1;enable-background:new"
       d="m 50,513 v 4 h 2 v 2 c 1,0 2,-1 2,-2 v -1 -3 z"
       id="rect4220"
       inkscape:connector-curvature="0"
       sodipodi:nodetypes="cccccccc" />
    <path
       style="display:inline;opacity:1;fill:#000000;fill-opacity:0.2;stroke:none;stroke-width:16;stroke-linecap:square;stroke-linejoin:miter;stroke-miterlimit:4;stroke-dasharray:none;stroke-opacity:1;enable-background:new"
       d="m 56,514 v 4 h 2 v 2 c 1,0 2,-1 2,-2 v -1 -3 z"
       id="path4548"
       inkscape:connector-curvature="0"
       sodipodi:nodetypes="cccccccc" />
    <path
       sodipodi:nodetypes="cccccccc"
       inkscape:connector-curvature="0"
       id="path4227"
       d="m 56,513 v 4 h 2 v 2 c 1,0 2,-1 2,-2 v -1 -3 z"
       style="display:inline;opacity:1;fill:#f5f5f5;fill-opacity:1;stroke:none;stroke-width:16;stroke-linecap:square;stroke-linejoin:miter;stroke-miterlimit:4;stroke-dasharray:none;stroke-opacity:1;enable-background:new" />
    <circle
       style="display:inline;opacity:1;fill:#139f5b;fill-opacity:1;stroke:none;stroke-width:16;stroke-linecap:square;stroke-linejoin:miter;stroke-miterlimit:4;stroke-dasharray:none;stroke-opacity:1;enable-background:new"
       id="circle4345"
       cx="24"
       cy="519"
       r="6.9999995" />
    <path
       style="display:inline;fill:#139f5b;fill-opacity:1;fill-rule:evenodd;stroke:none;stroke-width:1px;stroke-linecap:butt;stroke-linejoin:miter;stroke-opacity:1;enable-background:new"
       d="m 24,528 v -9 h 7 c 0,5.38461 -5.92308,9 -7,9 z"
       id="path4347"
       inkscape:connector-curvature="0"
       sodipodi:nodetypes="cccc" />
    <path
       style="display:inline;opacity:1;fill:#f5f5f5;fill-opacity:1;stroke:none;stroke-width:16;stroke-linecap:square;stroke-linejoin:miter;stroke-miterlimit:4;stroke-dasharray:none;stroke-opacity:1;enable-background:new"
       d="m 20,517 v 2.91667 h 1.75 v 1.75 c 0.72916,0 1.16667,-1.02083 1.16667,-1.75 V 519.1875 517 Z"
       id="path4349"
       inkscape:connector-curvature="0"
       sodipodi:nodetypes="cccccccc" />
    <path
       sodipodi:nodetypes="cccccccc"
       inkscape:connector-curvature="0"
       id="path4351"
       d="m 25,517 v 2.91667 h 1.75 v 1.75 c 0.72917,0 1.16667,-1.02083 1.16667,-1.75 V 519.1875 517 Z"
       style="display:inline;opacity:1;fill:#f5f5f5;fill-opacity:1;stroke:none;stroke-width:16;stroke-linecap:square;stroke-linejoin:miter;stroke-miterlimit:4;stroke-dasharray:none;stroke-opacity:1;enable-background:new" />
    <path
       inkscape:connector-curvature="0"
       style="display:inline;opacity:1;fill:#000000;fill-opacity:0.2;stroke:none;stroke-width:16;stroke-linecap:square;stroke-linejoin:miter;stroke-miterlimit:4;stroke-dasharray:none;stroke-opacity:1;enable-background:new"
       d="m 90,507 a 9,9 0 0 0 -9,9 9,9 0 0 0 9,9 v 3 c 1.25214,0 7.58193,-4.15782 8.78516,-10.07227 a 9,9 0 0 0 0.0606,-0.30859 c 0.0304,-0.17754 0.0613,-0.35464 0.082,-0.53516 A 9,9 0 0 0 99.00006,516 a 9,9 0 0 0 -9,-9 z"
       id="path4550" />
    <path
       id="path4533"
       d="m 90,506 a 9,9 0 0 0 -9,9 9,9 0 0 0 9,9 v 3 c 1.25214,0 7.58193,-4.15782 8.78516,-10.07227 a 9,9 0 0 0 0.0606,-0.30859 c 0.0304,-0.17754 0.0613,-0.35464 0.082,-0.53516 A 9,9 0 0 0 99.00006,515 a 9,9 0 0 0 -9,-9 z"
       style="display:inline;opacity:1;fill:#139f5b;fill-opacity:1;stroke:none;stroke-width:16;stroke-linecap:square;stroke-linejoin:miter;stroke-miterlimit:4;stroke-dasharray:none;stroke-opacity:1;enable-background:new"
       inkscape:connector-curvature="0" />
    <path
       style="display:inline;opacity:1;fill:#000000;fill-opacity:0.2;stroke:none;stroke-width:16;stroke-linecap:square;stroke-linejoin:miter;stroke-miterlimit:4;stroke-dasharray:none;stroke-opacity:1;enable-background:new"
       d="m 85,513 v 4 h 2 v 2 c 1,0 2,-1 2,-2 v -1 -3 z"
       id="path4552"
       inkscape:connector-curvature="0"
       sodipodi:nodetypes="cccccccc" />
    <path
       sodipodi:nodetypes="cccccccc"
       inkscape:connector-curvature="0"
       id="path4535"
       d="m 85,512 v 4 h 2 v 2 c 1,0 2,-1 2,-2 v -1 -3 z"
       style="display:inline;opacity:1;fill:#f5f5f5;fill-opacity:1;stroke:none;stroke-width:16;stroke-linecap:square;stroke-linejoin:miter;stroke-miterlimit:4;stroke-dasharray:none;stroke-opacity:1;enable-background:new" />
    <path
       sodipodi:nodetypes="cccccccc"
       inkscape:connector-curvature="0"
       id="path4554"
       d="m 91,513 v 4 h 2 v 2 c 1,0 2,-1 2,-2 v -1 -3 z"
       style="display:inline;opacity:1;fill:#000000;fill-opacity:0.2;stroke:none;stroke-width:16;stroke-linecap:square;stroke-linejoin:miter;stroke-miterlimit:4;stroke-dasharray:none;stroke-opacity:1;enable-background:new" />
    <path
       style="display:inline;opacity:1;fill:#f5f5f5;fill-opacity:1;stroke:none;stroke-width:16;stroke-linecap:square;stroke-linejoin:miter;stroke-miterlimit:4;stroke-dasharray:none;stroke-opacity:1;enable-background:new"
       d="m 91,512 v 4 h 2 v 2 c 1,0 2,-1 2,-2 v -1 -3 z"
       id="path4537"
       inkscape:connector-curvature="0"
       sodipodi:nodetypes="cccccccc" />
    <path
       style="display:inline;opacity:1;fill:#ffffff;fill-opacity:0.2;stroke:none;stroke-width:16;stroke-linecap:square;stroke-linejoin:miter;stroke-miterlimit:4;stroke-dasharray:none;stroke-opacity:1;enable-background:new"
       d="m 55,507 a 9,9 0 0 0 -9,9 9,9 0 0 0 0.0215,0.42383 A 9,9 0 0 1 55,508 9,9 0 0 1 63.97461,516.47852 9,9 0 0 0 64,516 9,9 0 0 0 55,507 Z"
       id="path4541"
       inkscape:connector-curvature="0" />
    <path
       id="path4556"
       d="m 90,506 a 9,9 0 0 0 -9,9 9,9 0 0 0 0.0215,0.42383 A 9,9 0 0 1 90,507 9,9 0 0 1 98.97461,515.47852 9,9 0 0 0 99,515 9,9 0 0 0 90,506 Z"
       style="display:inline;opacity:1;fill:#ffffff;fill-opacity:0.2;stroke:none;stroke-width:16;stroke-linecap:square;stroke-linejoin:miter;stroke-miterlimit:4;stroke-dasharray:none;stroke-opacity:1;enable-background:new"
       inkscape:connector-curvature="0" />
    <path
       style="display:inline;opacity:1;fill:#ffffff;fill-opacity:1;stroke:none;stroke-width:16;stroke-linecap:square;stroke-linejoin:miter;stroke-miterlimit:4;stroke-dasharray:none;stroke-opacity:1;enable-background:new"
       d="m 139,506 v 1 h 5 v -1 z"
       id="path4564"
       inkscape:connector-curvature="0" />
    <path
       id="path4569"
       d="m 132,506 v 1 h 5 v -1 z"
       style="display:inline;opacity:1;fill:#ffffff;fill-opacity:1;stroke:none;stroke-width:16;stroke-linecap:square;stroke-linejoin:miter;stroke-miterlimit:4;stroke-dasharray:none;stroke-opacity:1;enable-background:new"
       inkscape:connector-curvature="0" />
    <path
       inkscape:connector-curvature="0"
       style="display:inline;opacity:1;fill:#000000;fill-opacity:0.2;stroke:none;stroke-width:32;stroke-linecap:square;stroke-linejoin:miter;stroke-miterlimit:4;stroke-dasharray:none;stroke-opacity:1;filter:url(#filter4573);enable-background:new"
       d="m 266,469 a 24.000006,24.000006 0 0 0 -24,24 24.000006,24.000006 0 0 0 24,24 v 8 c 3.52086,0 22.13678,-12.31434 23.85938,-29.46484 a 24.000006,24.000006 0 0 0 0.0274,-0.27344 c 0.0668,-0.74638 0.1132,-1.49786 0.1132,-2.26172 a 24.000006,24.000006 0 0 0 -24,-24 z"
       id="path4565" />
    <path
       id="path4531"
       d="m 266,468.00003 a 24.000006,24.000006 0 0 0 -24,24 24.000006,24.000006 0 0 0 24,24 v 8 c 3.52086,0 22.13678,-12.31434 23.85938,-29.46484 a 24.000006,24.000006 0 0 0 0.0274,-0.27344 c 0.0668,-0.74638 0.1132,-1.49786 0.1132,-2.26172 a 24.000006,24.000006 0 0 0 -24,-24 z"
       style="display:inline;opacity:1;fill:#139f5b;fill-opacity:1;stroke:none;stroke-width:32;stroke-linecap:square;stroke-linejoin:miter;stroke-miterlimit:4;stroke-dasharray:none;stroke-opacity:1;enable-background:new"
       inkscape:connector-curvature="0" />
    <path
       sodipodi:nodetypes="cccccccc"
       inkscape:connector-curvature="0"
       id="path4538"
       d="M 254,484.99998 V 495 h 6 v 6 c 2.5,0 4,-3.5 4,-6 v -2.5 -7.50002 z"
       style="display:inline;opacity:1;fill:#000000;fill-opacity:0.2;stroke:none;stroke-width:32;stroke-linecap:square;stroke-linejoin:miter;stroke-miterlimit:4;stroke-dasharray:none;stroke-opacity:1;filter:url(#filter4557);enable-background:new" />
    <path
       style="display:inline;opacity:1;fill:#f5f5f5;fill-opacity:1;stroke:none;stroke-width:32;stroke-linecap:square;stroke-linejoin:miter;stroke-miterlimit:4;stroke-dasharray:none;stroke-opacity:1;enable-background:new"
       d="m 254,484.00001 v 10.00002 h 6 v 6 c 2.5,0 4,-3.5 4,-6 v -2.5 -7.50002 z"
       id="path4534"
       inkscape:connector-curvature="0"
       sodipodi:nodetypes="cccccccc" />
    <path
       style="display:inline;opacity:1;fill:#000000;fill-opacity:0.2;stroke:none;stroke-width:32;stroke-linecap:square;stroke-linejoin:miter;stroke-miterlimit:4;stroke-dasharray:none;stroke-opacity:1;filter:url(#filter4561);enable-background:new"
       d="M 268,484.99998 V 495 h 6 v 6 c 2.5,0 4,-3.5 4,-6 v -2.5 -7.50002 z"
       id="path4540"
       inkscape:connector-curvature="0"
       sodipodi:nodetypes="cccccccc" />
    <path
       sodipodi:nodetypes="cccccccc"
       inkscape:connector-curvature="0"
       id="path4536"
       d="m 268,484.00001 v 10.00002 h 6 v 6 c 2.5,0 4,-3.5 4,-6 v -2.5 -7.50002 z"
       style="display:inline;opacity:1;fill:#f5f5f5;fill-opacity:1;stroke:none;stroke-width:32;stroke-linecap:square;stroke-linejoin:miter;stroke-miterlimit:4;stroke-dasharray:none;stroke-opacity:1;enable-background:new" />
    <path
       style="display:inline;opacity:1;fill:#ffffff;fill-opacity:1;stroke:none;stroke-width:32;stroke-linecap:square;stroke-linejoin:miter;stroke-miterlimit:4;stroke-dasharray:none;stroke-opacity:1;enable-background:new"
       d="m 268,484 v 1 h 10 v -1 z"
       id="path4542"
       inkscape:connector-curvature="0" />
    <path
       id="path4547"
       d="m 254,484 v 1 h 10 v -1 z"
       style="display:inline;opacity:1;fill:#ffffff;fill-opacity:1;stroke:none;stroke-width:32;stroke-linecap:square;stroke-linejoin:miter;stroke-miterlimit:4;stroke-dasharray:none;stroke-opacity:1;enable-background:new"
       inkscape:connector-curvature="0" />
    <path
       style="display:inline;opacity:1;fill:#ffffff;fill-opacity:0.2;stroke:none;stroke-width:32;stroke-linecap:square;stroke-linejoin:miter;stroke-miterlimit:4;stroke-dasharray:none;stroke-opacity:1;enable-background:new"
       d="m 266,468 a 24.000006,24.000006 0 0 0 -24,24 24.000006,24.000006 0 0 0 0.0215,0.41797 A 24.000006,24.000006 0 0 1 266,469 24.000006,24.000006 0 0 1 289.98242,492.64453 C 289.98929,492.4298 290,492.21656 290,492 a 24.000006,24.000006 0 0 0 -24,-24 z"
       id="path4570"
       inkscape:connector-curvature="0" />
    <path
       style="display:inline;opacity:1;fill:#ffffff;fill-opacity:0.2;stroke:none;stroke-width:16;stroke-linecap:square;stroke-linejoin:miter;stroke-miterlimit:4;stroke-dasharray:none;stroke-opacity:1;enable-background:new"
       d="m 570,48 a 192.00004,192.00004 0 0 0 -192,192 192.00004,192.00004 0 0 0 0.041,0.82812 A 192.00004,192.00004 0 0 1 570,50 192.00004,192.00004 0 0 1 761.98633,241.71094 C 761.99117,241.14074 762,240.57138 762,240 A 192.00004,192.00004 0 0 0 570,48 Z"
       id="path4579"
       inkscape:connector-curvature="0" />
    <path
       style="display:inline;opacity:1;fill:#ffffff;fill-opacity:1;stroke:none;stroke-width:16;stroke-linecap:square;stroke-linejoin:miter;stroke-miterlimit:4;stroke-dasharray:none;stroke-opacity:1;enable-background:new"
       d="m 586,184 v 2 h 80 v -2 z"
       id="path4621"
       inkscape:connector-curvature="0" />
    <path
       id="path4624"
       d="m 474,184 v 2 h 80 v -2 z"
       style="display:inline;opacity:1;fill:#ffffff;fill-opacity:1;stroke:none;stroke-width:16;stroke-linecap:square;stroke-linejoin:miter;stroke-miterlimit:4;stroke-dasharray:none;stroke-opacity:1;enable-background:new"
       inkscape:connector-curvature="0" />
    <path
       id="path4628"
       d="m 91,512 v 1 h 4 v -1 z"
       style="display:inline;opacity:1;fill:#ffffff;fill-opacity:1;stroke:none;stroke-width:14.31083488;stroke-linecap:square;stroke-linejoin:miter;stroke-miterlimit:4;stroke-dasharray:none;stroke-opacity:1;enable-background:new"
       inkscape:connector-curvature="0" />
    <path
       inkscape:connector-curvature="0"
       style="display:inline;opacity:1;fill:#ffffff;fill-opacity:1;stroke:none;stroke-width:14.31083488;stroke-linecap:square;stroke-linejoin:miter;stroke-miterlimit:4;stroke-dasharray:none;stroke-opacity:1;enable-background:new"
       d="m 85,512 v 1 h 4 v -1 z"
       id="path4630" />
    <path
       inkscape:connector-curvature="0"
       style="display:inline;opacity:1;fill:#ffffff;fill-opacity:1;stroke:none;stroke-width:14.31083488;stroke-linecap:square;stroke-linejoin:miter;stroke-miterlimit:4;stroke-dasharray:none;stroke-opacity:1;enable-background:new"
       d="m 56,513 v 1 h 4 v -1 z"
       id="path4632" />
    <path
       id="path4634"
       d="m 50,513 v 1 h 4 v -1 z"
       style="display:inline;opacity:1;fill:#ffffff;fill-opacity:1;stroke:none;stroke-width:14.31083488;stroke-linecap:square;stroke-linejoin:miter;stroke-miterlimit:4;stroke-dasharray:none;stroke-opacity:1;enable-background:new"
       inkscape:connector-curvature="0" />
    <path
       style="display:inline;opacity:1;fill:#ffffff;fill-opacity:1;stroke:none;stroke-width:16;stroke-linecap:square;stroke-linejoin:miter;stroke-miterlimit:4;stroke-dasharray:none;stroke-opacity:1;enable-background:new"
       d="m 196,495 v 1 h 8 v -1 z"
       id="path4640"
       inkscape:connector-curvature="0" />
    <path
       id="path4645"
       d="m 184,495 v 1 h 8 v -1 z"
       style="display:inline;opacity:1;fill:#ffffff;fill-opacity:1;stroke:none;stroke-width:16;stroke-linecap:square;stroke-linejoin:miter;stroke-miterlimit:4;stroke-dasharray:none;stroke-opacity:1;enable-background:new"
       inkscape:connector-curvature="0" />
    <path
       style="display:inline;opacity:1;fill:#ffffff;fill-opacity:0.2;stroke:none;stroke-width:16;stroke-linecap:square;stroke-linejoin:miter;stroke-miterlimit:4;stroke-dasharray:none;stroke-opacity:1;enable-background:new"
       d="m 194,483 a 18,18 0 0 0 -18,18 18,18 0 0 0 0.0215,0.41406 A 18,18 0 0 1 194,484 18,18 0 0 1 211.97461,501.50195 C 211.98005,501.33389 212,501.1695 212,501 a 18,18 0 0 0 -18,-18 z"
       id="path4659"
       inkscape:connector-curvature="0" />
    <path
       style="display:inline;fill:url(#linearGradient4171-1-0);fill-opacity:1;stroke:none;stroke-width:2;stroke-linecap:round;stroke-linejoin:round;stroke-miterlimit:4;stroke-dasharray:none;stroke-opacity:1;enable-background:new"
       d="m 194.00001,482.0003 a 21.99977,21.999992 0 0 0 -1.89063,0.095 21.999769,21.999992 0 0 0 -1.03685,0.1252 21.99977,21.999992 0 0 0 -1.14334,0.1737 21.999769,21.999992 0 0 0 -1.02191,0.2298 21.99977,21.999992 0 0 0 -1.10224,0.2803 21.999769,21.999992 0 0 0 -1.01631,0.3381 21.99977,21.999992 0 0 0 -1.06488,0.3886 21.999769,21.999992 0 0 0 -0.9752,0.4372 21.99977,21.999992 0 0 0 -1.00883,0.4876 21.999769,21.999992 0 0 0 -0.93971,0.538 21.99977,21.999992 0 0 0 -0.95465,0.5848 21.999769,21.999992 0 0 0 -0.87619,0.6277 21.99977,21.999992 0 0 0 -0.89301,0.68 21.999769,21.999992 0 0 0 -0.78838,0.6912 21.99977,21.999992 0 0 0 -0.84629,0.7881 21.999769,21.999992 0 0 0 -6.44157,15.5345 21.999769,21.999992 0 0 0 6.19684,15.3043 h 0.0318 a 21.99977,21.999992 0 0 0 15.77139,6.6957 21.99977,21.999992 0 0 0 1.86821,-0.094 21.999769,21.999992 0 0 0 1.08169,-0.1308 21.99977,21.999992 0 0 0 1.12092,-0.17 21.999769,21.999992 0 0 0 1.02191,-0.2297 21.99977,21.999992 0 0 0 1.10224,-0.2803 21.999769,21.999992 0 0 0 1.01631,-0.3381 21.99977,21.999992 0 0 0 1.06488,-0.3887 21.999769,21.999992 0 0 0 0.9752,-0.4371 21.99977,21.999992 0 0 0 1.00883,-0.4876 21.999769,21.999992 0 0 0 0.93971,-0.5381 21.99977,21.999992 0 0 0 0.95465,-0.5847 21.999769,21.999992 0 0 0 0.87619,-0.6277 21.99977,21.999992 0 0 0 0.893,-0.68 21.999769,21.999992 0 0 0 0.78839,-0.6912 21.99977,21.999992 0 0 0 0.84629,-0.7885 21.999769,21.999992 0 0 0 6.44158,-15.5333 21.999769,21.999992 0 0 0 -6.19871,-15.3044 h -0.0299 a 21.99977,21.999992 0 0 0 -15.7714,-6.6956 z"
       id="circle4163-3-4"
       inkscape:connector-curvature="0" />
    <path
       style="display:inline;fill:url(#linearGradient4553);fill-opacity:1;stroke:none;stroke-width:1.46667397;stroke-linecap:round;stroke-linejoin:round;stroke-miterlimit:4;stroke-dasharray:none;stroke-opacity:1;enable-background:new"
       d="m 55,507 a 9,9 0 0 0 -9,9 9,9 0 0 0 9,9 v 3 c 1.25214,0 7.58193,-4.15782 8.78516,-10.07227 a 9,9 0 0 0 0.0605,-0.30859 c 0.0304,-0.17754 0.0613,-0.35464 0.082,-0.53516 A 9,9 0 0 0 64,516 9,9 0 0 0 55,507 Z"
       id="path4551"
       inkscape:connector-curvature="0" />
    <path
       inkscape:connector-curvature="0"
       id="path4723"
       d="m 90,506 a 9,9 0 0 0 -9,9 9,9 0 0 0 9,9 v 3 c 1.25214,0 7.58193,-4.15782 8.78516,-10.07227 a 9,9 0 0 0 0.0605,-0.30859 c 0.0304,-0.17754 0.0613,-0.35464 0.082,-0.53516 A 9,9 0 0 0 99,515 9,9 0 0 0 90,506 Z"
       style="display:inline;fill:url(#linearGradient4725);fill-opacity:1;stroke:none;stroke-width:1.46667397;stroke-linecap:round;stroke-linejoin:round;stroke-miterlimit:4;stroke-dasharray:none;stroke-opacity:1;enable-background:new" />
    <path
       style="display:inline;fill:url(#linearGradient4731);fill-opacity:1;stroke:none;stroke-width:2.93334794;stroke-linecap:round;stroke-linejoin:round;stroke-miterlimit:4;stroke-dasharray:none;stroke-opacity:1;enable-background:new"
       d="m 194,483 a 18,18 0 0 0 -18,18 18,18 0 0 0 18,18 v 6 c 2.50428,0 15.16386,-8.31564 17.57032,-20.14454 a 18,18 0 0 0 0.121,-0.61718 c 0.0608,-0.35508 0.1226,-0.70928 0.164,-1.07032 a 18,18 0 0 0 0.1446,-2.16796 18,18 0 0 0 -18,-18 z"
       id="path4729"
       inkscape:connector-curvature="0" />
    <path
       inkscape:connector-curvature="0"
       id="path4735"
       d="m 138,497.99999 a 12,12 0 0 0 -12,12 12,12 0 0 0 12,12 v 4 c 1.66952,0 10.10924,-5.54376 11.71355,-13.42969 a 12,12 0 0 0 0.0807,-0.41146 c 0.0405,-0.23672 0.0817,-0.47285 0.10934,-0.71354 a 12,12 0 0 0 0.0964,-1.44531 12,12 0 0 0 -12,-12 z"
       style="display:inline;fill:url(#linearGradient4737);fill-opacity:1;stroke:none;stroke-width:1.95556533;stroke-linecap:round;stroke-linejoin:round;stroke-miterlimit:4;stroke-dasharray:none;stroke-opacity:1;enable-background:new" />
    <path
       style="display:inline;fill:url(#linearGradient4741);fill-opacity:1;stroke:none;stroke-width:3.91113234;stroke-linecap:round;stroke-linejoin:round;stroke-miterlimit:4;stroke-dasharray:none;stroke-opacity:1;enable-background:new"
       d="M 266.00001,467.99997 A 24.00001,24.00001 0 0 0 242,491.99998 a 24.00001,24.00001 0 0 0 24.00001,24.00001 v 8 c 3.33904,0 20.21849,-11.08752 23.42711,-26.85939 a 24.00001,24.00001 0 0 0 0.1614,-0.82292 c 0.081,-0.47344 0.1634,-0.9457 0.21868,-1.42708 A 24.00001,24.00001 0 0 0 290,491.99998 24.00001,24.00001 0 0 0 265.99999,467.99997 Z"
       id="path4739"
       inkscape:connector-curvature="0" />
    <path
       style="display:inline;opacity:1;fill:#ffffff;fill-opacity:0.2;stroke:none;stroke-width:16;stroke-linecap:square;stroke-linejoin:miter;stroke-miterlimit:4;stroke-dasharray:none;stroke-opacity:1;enable-background:new"
       d="m 138,498 a 12.000003,12.000003 0 0 0 -12,12 12.000003,12.000003 0 0 0 0.0195,0.40625 A 12.000003,12.000003 0 0 1 138,499 12.000003,12.000003 0 0 1 149.97461,510.50195 C 149.98261,510.33454 150,510.16953 150,510 a 12.000003,12.000003 0 0 0 -12,-12 z"
       id="path4747"
       inkscape:connector-curvature="0" />
    <path
       inkscape:connector-curvature="0"
       id="path4754"
       d="M 570.00008,47.99997 A 192.00008,192.00008 0 0 0 378,240.00005 192.00008,192.00008 0 0 0 570.00008,432.00013 v 64 c 26.71232,0 161.74792,-88.70016 187.41688,-214.87512 a 192.00008,192.00008 0 0 0 1.2912,-6.58336 c 0.648,-3.78752 1.3072,-7.5656 1.74944,-11.41664 A 192.00008,192.00008 0 0 0 762,240.00005 192.00008,192.00008 0 0 0 569.99992,47.99997 Z"
       style="display:inline;fill:url(#linearGradient4756);fill-opacity:1;stroke:none;stroke-width:31.28905869;stroke-linecap:round;stroke-linejoin:round;stroke-miterlimit:4;stroke-dasharray:none;stroke-opacity:1;enable-background:new" />
  </g>
</svg>
