<?xml version="1.0" encoding="UTF-8" standalone="no"?>
<!-- Created with Inkscape (http://www.inkscape.org/) -->

<svg
   xmlns:dc="http://purl.org/dc/elements/1.1/"
   xmlns:cc="http://creativecommons.org/ns#"
   xmlns:rdf="http://www.w3.org/1999/02/22-rdf-syntax-ns#"
   xmlns:svg="http://www.w3.org/2000/svg"
   xmlns="http://www.w3.org/2000/svg"
   xmlns:xlink="http://www.w3.org/1999/xlink"
   xmlns:sodipodi="http://sodipodi.sourceforge.net/DTD/sodipodi-0.dtd"
   xmlns:inkscape="http://www.inkscape.org/namespaces/inkscape"
   width="842"
   height="544"
   viewBox="0 0 842 544"
   version="1.1"
   id="svg1087"
   inkscape:version="0.92.1 r"
   sodipodi:docname="gparted.svg">
  <defs
     id="defs1081">
    <filter
       inkscape:collect="always"
       style="color-interpolation-filters:sRGB"
       id="filter5087"
       x="-0.048"
       width="1.096"
       y="-0.048"
       height="1.096">
      <feGaussianBlur
         inkscape:collect="always"
         stdDeviation="0.8"
         id="feGaussianBlur5089" />
    </filter>
    <filter
       inkscape:collect="always"
       style="color-interpolation-filters:sRGB"
       id="filter4546"
       x="-0.013636364"
       width="1.0272727"
       y="-0.010714286"
       height="1.0214286">
      <feGaussianBlur
         inkscape:collect="always"
         stdDeviation="0.25"
         id="feGaussianBlur4548" />
    </filter>
    <filter
       inkscape:collect="always"
       style="color-interpolation-filters:sRGB"
       id="filter4564"
       x="-0.027272727"
       width="1.0545455"
       y="-0.02142857"
       height="1.0428571">
      <feGaussianBlur
         inkscape:collect="always"
         stdDeviation="4"
         id="feGaussianBlur4566" />
    </filter>
    <linearGradient
       inkscape:collect="always"
       xlink:href="#linearGradient4730"
       id="linearGradient4620"
       gradientUnits="userSpaceOnUse"
       gradientTransform="matrix(0.4782599,0,0,0.47826359,78.52174,24.17187)"
       x1="7"
       y1="1011.3622"
       x2="41.000019"
       y2="1045.3622" />
    <linearGradient
       id="linearGradient4730"
       inkscape:collect="always">
      <stop
         id="stop4726"
         offset="0"
         style="stop-color:#ffffff;stop-opacity:0.05490196" />
      <stop
         id="stop4728"
         offset="1"
         style="stop-color:#177ed5;stop-opacity:0;" />
    </linearGradient>
    <linearGradient
       inkscape:collect="always"
       xlink:href="#linearGradient4730"
       id="linearGradient4435"
       gradientUnits="userSpaceOnUse"
       gradientTransform="matrix(0.65217041,0,0,0.65217328,122.34777,-158.67056)"
       x1="7"
       y1="1011.3622"
       x2="41.000019"
       y2="1045.3622" />
    <linearGradient
       inkscape:collect="always"
       xlink:href="#linearGradient4730"
       id="linearGradient4171-1-0"
       x1="7"
       y1="1011.3622"
       x2="41.000019"
       y2="1045.3622"
       gradientUnits="userSpaceOnUse"
       gradientTransform="matrix(0.95652174,0,0,0.95652174,171.0435,-479.6504)" />
    <linearGradient
       inkscape:collect="always"
       xlink:href="#linearGradient4730"
       id="linearGradient4537"
       gradientUnits="userSpaceOnUse"
       gradientTransform="matrix(1.3043412,0,0,1.3043465,234.69565,-845.3402)"
       x1="7"
       y1="1011.3622"
       x2="41.000019"
       y2="1045.3622" />
    <linearGradient
       inkscape:collect="always"
       xlink:href="#linearGradient4730"
       id="linearGradient4449-0"
       gradientUnits="userSpaceOnUse"
       gradientTransform="matrix(10.43473,0,0,10.434772,319.56521,-10458.722)"
       x1="7"
       y1="1011.3622"
       x2="41.000019"
       y2="1045.3622" />
    <filter
       inkscape:collect="always"
       style="color-interpolation-filters:sRGB"
       id="filter4661"
       x="-0.0135"
       width="1.027"
       y="-0.0108"
       height="1.0216">
      <feGaussianBlur
         inkscape:collect="always"
         stdDeviation="0.18"
         id="feGaussianBlur4663" />
    </filter>
    <filter
       inkscape:collect="always"
       style="color-interpolation-filters:sRGB"
       id="filter5059"
       x="-0.012"
       width="1.024"
       y="-0.012"
       height="1.024">
      <feGaussianBlur
         inkscape:collect="always"
         stdDeviation="0.12"
         id="feGaussianBlur5061" />
    </filter>
    <filter
       inkscape:collect="always"
       style="color-interpolation-filters:sRGB"
       id="filter5114"
       x="-0.024"
       width="1.048"
       y="-0.024"
       height="1.048">
      <feGaussianBlur
         inkscape:collect="always"
         stdDeviation="1.92"
         id="feGaussianBlur5116" />
    </filter>
    <linearGradient
       inkscape:collect="always"
       xlink:href="#linearGradient4730"
       id="linearGradient4605"
       gradientUnits="userSpaceOnUse"
       gradientTransform="matrix(0.4782599,0,0,0.47826359,43.52174,25.17187)"
       x1="7"
       y1="1011.3622"
       x2="41.000019"
       y2="1045.3622" />
  </defs>
  <sodipodi:namedview
     id="base"
     pagecolor="#c3c3c3"
     bordercolor="#333333"
     borderopacity="1"
     inkscape:pageopacity="0"
     inkscape:pageshadow="2"
     inkscape:zoom="2.1617647"
     inkscape:cx="410.58984"
     inkscape:cy="-48.15621"
     inkscape:document-units="px"
     inkscape:current-layer="layer2"
     showgrid="true"
     units="px"
     inkscape:showpageshadow="false"
     inkscape:window-width="2560"
     inkscape:window-height="1369"
     inkscape:window-x="0"
     inkscape:window-y="35"
     inkscape:window-maximized="1"
     showguides="false">
    <inkscape:grid
       type="xygrid"
       id="grid4630" />
  </sodipodi:namedview>
  <metadata
     id="metadata1084">
    <rdf:RDF>
      <cc:Work
         rdf:about="">
        <dc:format>image/svg+xml</dc:format>
        <dc:type
           rdf:resource="http://purl.org/dc/dcmitype/StillImage" />
        <dc:title />
        <cc:license
           rdf:resource="http://creativecommons.org/licenses/by-sa/4.0/" />
        <dc:creator>
          <cc:Agent>
            <dc:title>Peter Cornelis</dc:title>
          </cc:Agent>
        </dc:creator>
      </cc:Work>
      <cc:License
         rdf:about="http://creativecommons.org/licenses/by-sa/4.0/">
        <cc:permits
           rdf:resource="http://creativecommons.org/ns#Reproduction" />
        <cc:permits
           rdf:resource="http://creativecommons.org/ns#Distribution" />
        <cc:requires
           rdf:resource="http://creativecommons.org/ns#Notice" />
        <cc:requires
           rdf:resource="http://creativecommons.org/ns#Attribution" />
        <cc:permits
           rdf:resource="http://creativecommons.org/ns#DerivativeWorks" />
        <cc:requires
           rdf:resource="http://creativecommons.org/ns#ShareAlike" />
      </cc:License>
    </rdf:RDF>
  </metadata>
  <g
     inkscape:label="Baseplate"
     inkscape:groupmode="layer"
     id="layer1"
     transform="translate(0,-153.06668)"
     style="display:none">
    <rect
       style="display:inline;overflow:visible;visibility:visible;fill:#fefefe;fill-opacity:1;fill-rule:nonzero;stroke:none;stroke-width:2;marker:none;enable-background:accumulate"
       id="rect3951"
       width="512"
       height="512"
       x="-826"
       y="169.06668"
       inkscape:label="48x48"
       transform="scale(-1,1)" />
    <text
       y="733.32251"
       xml:space="preserve"
       x="15.006836"
       style="font-style:normal;font-variant:normal;font-weight:normal;font-stretch:normal;line-height:0%;font-family:'DejaVu Sans';-inkscape-font-specification:'DejaVu Sans';display:inline;fill:#000000;fill-opacity:1;stroke:none;enable-background:new"
       inkscape:label="context"
       id="context"><tspan
         style="font-style:normal;font-variant:normal;font-weight:normal;font-stretch:normal;font-size:18px;line-height:1.25;font-family:'DejaVu Sans';-inkscape-font-specification:'DejaVu Sans'"
         y="733.32251"
         x="15.006836"
         sodipodi:role="line"
         id="tspan3933">apps</tspan></text>
    <text
       y="733.32251"
       xml:space="preserve"
       x="142.48828"
       style="font-style:normal;font-variant:normal;font-weight:bold;font-stretch:normal;line-height:0%;font-family:'DejaVu Sans';-inkscape-font-specification:'DejaVu Sans Bold';text-align:start;writing-mode:lr-tb;text-anchor:start;display:inline;fill:#000000;fill-opacity:1;stroke:none;enable-background:new"
       inkscape:label="icon-name"
       id="icon-name"><tspan
         style="font-style:normal;font-variant:normal;font-weight:bold;font-stretch:normal;font-size:18px;line-height:1.25;font-family:'DejaVu Sans';-inkscape-font-specification:'DejaVu Sans Bold'"
         y="733.32251"
         x="142.48828"
         sodipodi:role="line"
         id="tspan3937">gparted</tspan></text>
    <rect
       style="display:inline;overflow:visible;visibility:visible;fill:#fefefe;fill-opacity:1;fill-rule:nonzero;stroke:none;stroke-width:2;marker:none;enable-background:accumulate"
       id="rect16x16"
       width="16"
       height="16"
       x="-32"
       y="665.06665"
       inkscape:label="16x16"
       transform="scale(-1,1)" />
    <rect
       style="display:inline;overflow:visible;visibility:visible;fill:#fefefe;fill-opacity:1;fill-rule:nonzero;stroke:none;stroke-width:2;marker:none;enable-background:accumulate"
       id="rect24x24"
       width="24"
       height="24"
       x="-102"
       y="657.06665"
       inkscape:label="24x24"
       transform="scale(-1,1)" />
    <rect
       style="display:inline;overflow:visible;visibility:visible;fill:#fefefe;fill-opacity:1;fill-rule:nonzero;stroke:none;stroke-width:2;marker:none;enable-background:accumulate"
       id="rect32x32"
       width="32"
       height="32"
       x="-154"
       y="649.06665"
       inkscape:label="32x32"
       transform="scale(-1,1)" />
    <rect
       inkscape:label="48x48"
       y="633.06665"
       x="-218"
       height="48"
       width="48"
       id="rect48x48"
       style="display:inline;overflow:visible;visibility:visible;fill:#fefefe;fill-opacity:1;fill-rule:nonzero;stroke:none;stroke-width:2;marker:none;enable-background:accumulate"
       transform="scale(-1,1)" />
    <rect
       transform="scale(-1,1)"
       inkscape:label="48x48"
       y="617.06665"
       x="-298"
       height="64"
       width="64"
       id="rect4527"
       style="display:inline;overflow:visible;visibility:visible;fill:#fefefe;fill-opacity:1;fill-rule:nonzero;stroke:none;stroke-width:0.25;marker:none;enable-background:accumulate" />
    <rect
       style="display:inline;overflow:visible;visibility:visible;fill:#fefefe;fill-opacity:1;fill-rule:nonzero;stroke:none;stroke-width:2;marker:none;enable-background:accumulate"
       id="rect4665"
       width="512"
       height="512"
       x="-826"
       y="169.06665"
       inkscape:label="48x48"
       transform="scale(-1,1)" />
    <rect
       transform="scale(-1,1)"
       inkscape:label="24x24"
       y="659.06665"
       x="-66"
       height="22"
       width="22"
       id="rect4580"
       style="display:inline;overflow:visible;visibility:visible;fill:#fefefe;fill-opacity:1;fill-rule:nonzero;stroke:none;stroke-width:1.83333325;marker:none;enable-background:accumulate" />
  </g>
  <g
     inkscape:groupmode="layer"
     id="layer2"
     inkscape:label="Bitmap"
     style="display:inline">
    <path
       inkscape:connector-curvature="0"
       style="display:inline;opacity:1;fill:#f5f5f5;fill-opacity:1;stroke:none;stroke-opacity:1;enable-background:new"
       d="m 144.0003,517 -0.0881,1.0536 a 3.142857,3.142857 0 0 0 -0.91861,0.53126 l -0.95758,-0.45096 -1,1.73219 0.86947,0.60374 a 3.142857,3.142857 0 0 0 -0.0481,0.53017 3.142857,3.142857 0 0 0 0.0458,0.53233 l -0.86718,0.60157 1,1.73219 0.95541,-0.44976 a 3.142857,3.142857 0 0 0 0.92068,0.52789 L 144.00029,525 h 2 l 0.0881,-1.0536 a 3.142857,3.142857 0 0 0 0.9186,-0.53127 l 0.95758,0.45096 1,-1.73219 -0.86946,-0.60373 a 3.142857,3.142857 0 0 0 0.0481,-0.53017 3.142857,3.142857 0 0 0 -0.0458,-0.53234 l 0.86718,-0.60157 -1,-1.73219 -0.95539,0.44976 a 3.142857,3.142857 0 0 0 -0.92068,-0.52789 L 146.00032,517 h -2 z m 1,2.66665 A 1.3333335,1.3333335 0 0 1 146.33363,521 1.3333335,1.3333335 0 0 1 145.0003,522.33334 1.3333335,1.3333335 0 0 1 143.66697,521 a 1.3333335,1.3333335 0 0 1 1.33333,-1.33335 z"
       id="path4996" />
    <path
       sodipodi:nodetypes="ccscc"
       inkscape:connector-curvature="0"
       id="path5069"
       d="m 206,522 v -17 -17 c 0,-1.6942 -1.29127,-3 -3,-3 -47.91141,17.02543 2.47621,55.9337 3,37 z"
       style="display:inline;fill:none;fill-opacity:0.5;stroke:none;stroke-width:2;stroke-linecap:round;stroke-linejoin:round;stroke-miterlimit:4;stroke-dasharray:none;stroke-opacity:1;filter:url(#filter5087);enable-background:new" />
    <path
       sodipodi:nodetypes="ssccssssccsscs"
       inkscape:connector-curvature="0"
       id="path4657"
       d="m 181,485 c -1.662,0 -3,1.338 -3,3 v 1.95312 30.13282 V 522 c 0,1.662 1.338,3 3,3 h 26 c 1.662,0 3,-1.338 3,-3 V 520.04492 497 488 c 0,-1.662 -1.338,-3 -3,-3 h -9 z"
       style="display:inline;fill:#000000;fill-opacity:0.2;stroke:none;stroke-width:2;stroke-linecap:round;stroke-linejoin:round;stroke-miterlimit:4;stroke-dasharray:none;stroke-opacity:1;filter:url(#filter4661);enable-background:new" />
    <path
       style="opacity:1;fill:#4b525f;fill-opacity:1;stroke:none"
       d="m 181,484 c -1.662,0 -3,1.338 -3,3 v 34 c 0,1.662 1.338,3 3,3 h 26 c 1.662,0 3,-1.338 3,-3 v -25 -9 c 0,-1.662 -1.338,-3 -3,-3 h -9 z"
       id="rect4648"
       inkscape:connector-curvature="0"
       sodipodi:nodetypes="sssssscsscs" />
    <path
       style="opacity:1;fill:#ffffff;fill-opacity:0.2;stroke:none"
       d="m 181,484 c -1.662,0 -3,1.338 -3,3 v 1 c 0,-1.662 1.338,-3 3,-3 h 8 10 8 c 1.662,0 3,1.338 3,3 v -1 c 0,-1.662 -1.338,-3 -3,-3 h -9 -8 z"
       id="path4671"
       inkscape:connector-curvature="0"
       sodipodi:nodetypes="sscsccscssccs" />
    <path
       style="display:inline;fill:none;fill-opacity:0.5;stroke:none;stroke-width:2;stroke-linecap:round;stroke-linejoin:round;stroke-miterlimit:4;stroke-dasharray:none;stroke-opacity:1;filter:url(#filter5087);enable-background:new"
       d="m 206,522 v -17 -17 c 0,-1.6942 -1.29127,-3 -3,-3 -47.91141,17.02543 2.47621,55.9337 3,37 z"
       id="path4506"
       inkscape:connector-curvature="0"
       sodipodi:nodetypes="ccscc" />
    <path
       inkscape:connector-curvature="0"
       id="path4533"
       d="m 84,507 c -1.108,0 -2,0.892 -2,2 v 16 c 0,1.108 0.892,2 2,2 h 12 c 1.108,0 2,-0.892 2,-2 v -12 l -6,-6 z"
       style="opacity:1;fill:#000000;fill-opacity:0.2;stroke:none" />
    <path
       style="opacity:1;fill:#4b525f;fill-opacity:1;stroke:none"
       d="m 84,506 c -1.108,0 -2,0.892 -2,2 v 16 c 0,1.108 0.892,2 2,2 h 12 c 1.108,0 2,-0.892 2,-2 v -12 -4 c 0,-1.108 -0.892,-2 -2,-2 h -4 z"
       id="rect4555"
       inkscape:connector-curvature="0" />
    <path
       style="display:inline;opacity:1;fill:#ffffff;fill-opacity:0.2;stroke:none;stroke-width:3;stroke-linecap:round;stroke-linejoin:round;stroke-miterlimit:4;stroke-dasharray:none;stroke-opacity:1;enable-background:new"
       d="m 90,511 a 3,3 0 0 0 -3,3 3,3 0 0 0 0.04297,0.51367 A 3,3 0 0 1 90,512 3,3 0 0 1 92.957031,514.48633 3,3 0 0 0 93,514 3,3 0 0 0 90,511 Z m 5.974609,3.49805 A 6,6 0 0 1 90,520 h -6 v 1 h 6 a 6,6 0 0 0 6,-6 6,6 0 0 0 -0.02539,-0.50195 z"
       id="path4572"
       inkscape:connector-curvature="0" />
    <path
       style="opacity:1;fill:#ffffff;fill-opacity:0.2;stroke:none"
       d="m 84,506 c -1.108,0 -2,0.892 -2,2 v 1 c 0,-1.108 0.892,-2 2,-2 h 3 6 3 c 1.108,0 2,0.892 2,2 v -1 c 0,-1.108 -0.892,-2 -2,-2 h -4 -4 z"
       id="path4566"
       inkscape:connector-curvature="0" />
    <path
       inkscape:connector-curvature="0"
       style="display:inline;fill:#000000;fill-opacity:0.2;stroke:none;filter:url(#filter4564);enable-background:new"
       d="m 418,50 c -13.296,0 -24,10.704 -24,24 v 400 c 0,13.296 10.704,24 24,24 h 304 c 13.296,0 24,-10.704 24,-24 V 194 L 602,50 Z"
       id="path4558" />
    <path
       id="path4556"
       d="m 418,50 c -13.296,0 -24,10.704 -24,24 v 400 c 0,13.296 10.704,24 24,24 h 304 c 13.296,0 24,-10.704 24,-24 V 194 L 602,50 Z"
       style="display:inline;fill:#000000;fill-opacity:0.2;stroke:none;enable-background:new"
       inkscape:connector-curvature="0" />
    <path
       style="display:inline;fill:#4b525f;fill-opacity:1;stroke:none;enable-background:new"
       d="m 418,48 c -13.296,0 -24,10.704 -24,24 v 400 c 0,13.296 10.704,24 24,24 h 304 c 13.296,0 24,-10.704 24,-24 V 192 72 C 746,58.7452 735.2548,48 722,48 H 602 Z"
       id="rect3362"
       inkscape:connector-curvature="0" />
    <path
       style="display:inline;fill:#ffffff;fill-opacity:0.2;fill-rule:evenodd;stroke:none;stroke-width:8px;stroke-linecap:butt;stroke-linejoin:miter;stroke-opacity:1;enable-background:new"
       d="m 570,160 a 63.999998,63.999998 0 0 0 -64,64 63.999998,63.999998 0 0 0 0.041,1.17188 A 63.999998,63.999998 0 0 1 570,162 63.999998,63.999998 0 0 1 633.95898,224.82812 63.999998,63.999998 0 0 0 634,224 63.999998,63.999998 0 0 0 570,160 Z m 127.95898,65.17188 A 127.99999,127.99999 0 0 1 570,352 H 442 v 2 h 128 a 127.99999,127.99999 0 0 0 128,-128 127.99999,127.99999 0 0 0 -0.041,-0.82812 z"
       id="path4541"
       inkscape:connector-curvature="0" />
    <path
       style="display:inline;fill:#ffffff;fill-opacity:0.2;stroke:none;stroke-width:16;stroke-linecap:round;stroke-linejoin:round;stroke-miterlimit:4;stroke-dasharray:none;stroke-opacity:1;enable-background:new"
       d="m 418,48 c -13.296,0 -24,10.704 -24,24 v 2 c 0,-13.296 10.704,-24 24,-24 h 6 60.625 6 45.375 66 2 45.375 6 60.625 6 c 13.296,0 24,10.704 24,24 V 72 C 746,58.704 735.296,48 722,48 H 655.375 602 538 484.625 Z"
       id="path4637"
       inkscape:connector-curvature="0" />
    <path
       style="display:inline;fill:#4b525f;fill-opacity:1;fill-rule:evenodd;stroke:none;stroke-width:4.86648273px;stroke-linecap:butt;stroke-linejoin:miter;stroke-opacity:1;enable-background:new"
       d="m 18,512 c -1.108,0 -2,0.89199 -2,2 v 12 c 0,1.10801 0.892,2 2,2 h 12 c 1.108,0 2,-0.89199 2,-2 v -8 -4 c 0,-1.108 -0.892,-2 -2,-2 h -4 z"
       id="rect4630-7-2"
       inkscape:connector-curvature="0" />
    <path
       inkscape:connector-curvature="0"
       id="path4536"
       d="m 129,499 c -1.108,0 -2,0.892 -2,2 v 24 c 0,1.108 0.892,2 2,2 h 18 c 1.108,0 2,-0.892 2,-2 v -18 l -8,-8 z"
       style="opacity:1;fill:#000000;fill-opacity:0.2;stroke:none" />
    <path
       style="opacity:1;fill:#4b525f;fill-opacity:1;stroke:none"
       d="m 129,498 c -1.108,0 -2,0.892 -2,2 v 24 c 0,1.108 0.892,2 2,2 h 18 c 1.108,0 2,-0.892 2,-2 v -18 -6 c 0,-1.108 -0.892,-2 -2,-2 h -6 z"
       id="rect4526"
       inkscape:connector-curvature="0" />
    <path
       style="opacity:1;fill:#ffffff;fill-opacity:0.2;stroke:none"
       d="m 129,498 c -1.108,0 -2,0.892 -2,2 v 1 c 0,-1.108 0.892,-2 2,-2 h 5 8 5 c 1.108,0 2,0.892 2,2 v -1 c 0,-1.108 -0.892,-2 -2,-2 h -6 -6 z"
       id="rect4529"
       inkscape:connector-curvature="0" />
    <path
       inkscape:connector-curvature="0"
       id="path4544"
       d="m 247,469 c -1.662,0 -3,1.338 -3,3 v 50 c 0,1.662 1.338,3 3,3 h 38 c 1.662,0 3,-1.338 3,-3 v -35 l -18,-18 z m 38.60547,0.0605 c 0.39058,0.0799 0.75306,0.23552 1.07226,0.45117 -0.31876,-0.21473 -0.68155,-0.37163 -1.07226,-0.45117 z m 1.07422,0.45117 c 0.31825,0.21524 0.59335,0.49034 0.80859,0.80859 -0.21523,-0.3191 -0.48949,-0.59336 -0.80859,-0.80859 z m 0.80859,0.81055 c 0.21565,0.3192 0.37125,0.68168 0.45117,1.07226 -0.0795,-0.39071 -0.23644,-0.7535 -0.45117,-1.07226 z"
       style="opacity:1;fill:#000000;fill-opacity:0.2;stroke:none;stroke-opacity:1;filter:url(#filter4546)" />
    <path
       style="opacity:1;fill:#4b525f;fill-opacity:1;stroke:none;stroke-opacity:1"
       d="m 247,468 c -1.662,0 -3,1.338 -3,3 v 50 c 0,1.662 1.338,3 3,3 h 38 c 1.662,0 3,-1.338 3,-3 v -35 -15 c 0,-0.20711 -0.0206,-0.41018 -0.0605,-0.60547 -0.0799,-0.39058 -0.23552,-0.75306 -0.45117,-1.07226 -0.21565,-0.31921 -0.49134,-0.5949 -0.81055,-0.81055 -0.3192,-0.21565 -0.68168,-0.37127 -1.07226,-0.45117 C 285.41018,468.02058 285.20711,468 285,468 h -15 z"
       id="rect4543"
       inkscape:connector-curvature="0" />
    <path
       style="opacity:1;fill:#ffffff;fill-opacity:0.2;stroke:none;stroke-opacity:1"
       d="m 247,468 c -1.662,0 -3,1.338 -3,3 v 1 c 0,-1.662 1.338,-3 3,-3 h 14 10 14 c 1.662,0 3,1.338 3,3 v -1 c 0,-1.662 -1.338,-3 -3,-3 h -15 -8 z"
       id="path4550"
       inkscape:connector-curvature="0" />
    <path
       id="path4506-3"
       d="m 24,514 a 6,6 0 0 0 -6,6 v 6 h 6 a 6,6 0 0 0 6,-6 6,6 0 0 0 -6,-6 z m 0,3 a 3,3 0 0 1 3,3 3,3 0 0 1 -3,3 3,3 0 0 1 -3,-3 3,3 0 0 1 3,-3 z"
       style="display:inline;opacity:1;fill:#262a30;fill-opacity:1;stroke:none;stroke-width:3;stroke-linecap:round;stroke-linejoin:round;stroke-miterlimit:4;stroke-dasharray:none;stroke-opacity:1;enable-background:new"
       inkscape:connector-curvature="0" />
    <path
       inkscape:connector-curvature="0"
       style="display:inline;opacity:1;fill:#262a30;fill-opacity:1;stroke:none;stroke-width:3;stroke-linecap:round;stroke-linejoin:round;stroke-miterlimit:4;stroke-dasharray:none;stroke-opacity:1;enable-background:new"
       d="m 90,508 a 6,6 0 0 0 -6,6 v 6 h 6 a 6,6 0 0 0 6,-6 6,6 0 0 0 -6,-6 z m 0,3 a 3,3 0 0 1 3,3 3,3 0 0 1 -3,3 3,3 0 0 1 -3,-3 3,3 0 0 1 3,-3 z"
       id="path4611" />
    <path
       style="display:inline;opacity:1;fill:#000000;fill-opacity:0.2;stroke:none;stroke-width:3;stroke-linecap:round;stroke-linejoin:round;stroke-miterlimit:4;stroke-dasharray:none;stroke-opacity:1;enable-background:new"
       d="m 90,508 a 6,6 0 0 0 -6,6 v 1 a 6,6 0 0 1 6,-6 6,6 0 0 1 5.974609,5.49805 A 6,6 0 0 0 96,514 6,6 0 0 0 90,508 Z m 2.957031,6.48633 A 3,3 0 0 1 90,517 3,3 0 0 1 87.042969,514.51367 3,3 0 0 0 87,515 a 3,3 0 0 0 3,3 3,3 0 0 0 3,-3 3,3 0 0 0 -0.04297,-0.51367 z"
       id="path4567"
       inkscape:connector-curvature="0" />
    <path
       inkscape:connector-curvature="0"
       style="display:inline;fill:#262a30;fill-opacity:1;fill-rule:evenodd;stroke:none;stroke-width:1px;stroke-linecap:butt;stroke-linejoin:miter;stroke-opacity:1;enable-background:new"
       d="m 138,501 a 8,8 0 0 0 -8,8 v 8 h 8 a 8,8 0 0 0 8,-8 8,8 0 0 0 -8,-8 z m 0,4 a 4,4 0 0 1 4,4 4,4 0 0 1 -4,4 4,4 0 0 1 -4,-4 4,4 0 0 1 4,-4 z"
       id="path4576" />
    <path
       inkscape:connector-curvature="0"
       id="path4549"
       d="m 194,490 a 11,11 0 0 0 -11,11 v 11 h 11 a 11,11 0 0 0 11,-11 11,11 0 0 0 -11,-11 z m 0,5 a 6,6 0 0 1 6,6 6,6 0 0 1 -6,6 6,6 0 0 1 -6,-6 6,6 0 0 1 6,-6 z"
       style="display:inline;opacity:1;fill:#c8c8c8;fill-opacity:0.2;stroke:none;stroke-width:3;stroke-linecap:round;stroke-linejoin:round;stroke-miterlimit:4;stroke-dasharray:none;stroke-opacity:1;enable-background:new" />
    <path
       style="display:inline;opacity:1;fill:#262a30;fill-opacity:1;stroke:none;stroke-width:3;stroke-linecap:round;stroke-linejoin:round;stroke-miterlimit:4;stroke-dasharray:none;stroke-opacity:1;enable-background:new"
       d="m 194,489 a 11,11 0 0 0 -11,11 v 11 h 11 a 11,11 0 0 0 11,-11 11,11 0 0 0 -11,-11 z m 0,5 a 6,6 0 0 1 6,6 6,6 0 0 1 -6,6 6,6 0 0 1 -6,-6 6,6 0 0 1 6,-6 z"
       id="path4425"
       inkscape:connector-curvature="0" />
    <path
       inkscape:connector-curvature="0"
       style="display:inline;fill:#ffffff;fill-opacity:0.2;fill-rule:evenodd;stroke:none;stroke-width:1px;stroke-linecap:butt;stroke-linejoin:miter;stroke-opacity:1;enable-background:new"
       d="m 266,475 a 15.999999,15.999999 0 0 0 -16,16 v 16 h 16 a 15.999999,15.999999 0 0 0 16,-16 15.999999,15.999999 0 0 0 -16,-16 z m 0,8 a 7.9999997,7.9999997 0 0 1 8,8 7.9999997,7.9999997 0 0 1 -8,8 7.9999997,7.9999997 0 0 1 -8,-8 7.9999997,7.9999997 0 0 1 8,-8 z"
       id="path4547" />
    <path
       id="path4596"
       d="m 266,474 a 15.999999,15.999999 0 0 0 -16,16 v 16 h 16 a 15.999999,15.999999 0 0 0 16,-16 15.999999,15.999999 0 0 0 -16,-16 z m 0,8 a 7.9999997,7.9999997 0 0 1 8,8 7.9999997,7.9999997 0 0 1 -8,8 7.9999997,7.9999997 0 0 1 -8,-8 7.9999997,7.9999997 0 0 1 8,-8 z"
       style="display:inline;fill:#262a30;fill-opacity:1;fill-rule:evenodd;stroke:none;stroke-width:1px;stroke-linecap:butt;stroke-linejoin:miter;stroke-opacity:1;enable-background:new"
       inkscape:connector-curvature="0" />
    <path
       inkscape:connector-curvature="0"
       style="display:inline;fill:#262a30;fill-opacity:1;fill-rule:evenodd;stroke:none;stroke-width:8px;stroke-linecap:butt;stroke-linejoin:miter;stroke-opacity:1;enable-background:new"
       d="M 570,96 A 127.99999,127.99999 0 0 0 442,224 V 352 H 570 A 127.99999,127.99999 0 0 0 698,224 127.99999,127.99999 0 0 0 570,96 Z m 0,64 a 63.999998,63.999998 0 0 1 64,64 63.999998,63.999998 0 0 1 -64,64 63.999998,63.999998 0 0 1 -64,-64 63.999998,63.999998 0 0 1 64,-64 z"
       id="path4631" />
    <path
       style="display:inline;fill:#000000;fill-opacity:0.2;fill-rule:evenodd;stroke:none;stroke-width:8px;stroke-linecap:butt;stroke-linejoin:miter;stroke-opacity:1;enable-background:new"
       d="M 570,96 A 127.99999,127.99999 0 0 0 442,224 v 2 A 127.99999,127.99999 0 0 1 570,98 127.99999,127.99999 0 0 1 697.95898,225.17188 127.99999,127.99999 0 0 0 698,224 127.99999,127.99999 0 0 0 570,96 Z m 63.95898,128.82812 A 63.999998,63.999998 0 0 1 570,288 63.999998,63.999998 0 0 1 506.04102,225.17188 63.999998,63.999998 0 0 0 506,226 a 63.999998,63.999998 0 0 0 64,64 63.999998,63.999998 0 0 0 64,-64 63.999998,63.999998 0 0 0 -0.041,-1.17188 z"
       id="path4551"
       inkscape:connector-curvature="0" />
    <path
       style="display:inline;fill:url(#linearGradient4449-0);fill-opacity:1;stroke:none;stroke-width:16;stroke-linecap:round;stroke-linejoin:round;stroke-miterlimit:4;stroke-dasharray:none;stroke-opacity:1;enable-background:new"
       d="m 418,48 c -13.296,0 -24,10.704 -24,24 V 109.4668 434.9707 472 c 0,13.296 10.704,24 24,24 h 304 c 13.296,0 24,-10.704 24,-24 V 434.52344 192 72 C 746,58.7452 735.2548,48 722,48 H 602 Z"
       id="path4447"
       inkscape:connector-curvature="0" />
    <path
       style="display:inline;fill:#000000;fill-opacity:0.2;fill-rule:evenodd;stroke:none;stroke-width:1px;stroke-linecap:butt;stroke-linejoin:miter;stroke-opacity:1;enable-background:new"
       d="m 266,474 a 15.999999,15.999999 0 0 0 -16,16 v 1 a 15.999999,15.999999 0 0 1 16,-16 15.999999,15.999999 0 0 1 15.97852,15.58008 A 15.999999,15.999999 0 0 0 282,490 15.999999,15.999999 0 0 0 266,474 Z m 7.97852,16.42383 A 7.9999997,7.9999997 0 0 1 266,498 7.9999997,7.9999997 0 0 1 258.02148,490.57617 7.9999997,7.9999997 0 0 0 258,491 a 7.9999997,7.9999997 0 0 0 8,8 7.9999997,7.9999997 0 0 0 8,-8 7.9999997,7.9999997 0 0 0 -0.0215,-0.57617 z"
       id="path4557"
       inkscape:connector-curvature="0" />
    <path
       style="display:inline;opacity:1;fill:#000000;fill-opacity:0.2;stroke:none;stroke-width:3;stroke-linecap:round;stroke-linejoin:round;stroke-miterlimit:4;stroke-dasharray:none;stroke-opacity:1;enable-background:new"
       d="m 194,489 a 11,11 0 0 0 -11,11 v 1 a 11,11 0 0 1 11,-11 11,11 0 0 1 10.97852,10.58594 A 11,11 0 0 0 205,500 11,11 0 0 0 194,489 Z m -5.97461,11.49805 A 6,6 0 0 0 188,501 a 6,6 0 0 0 6,6 6,6 0 0 0 6,-6 6,6 0 0 0 -0.0254,-0.49805 A 6,6 0 0 1 194,506 a 6,6 0 0 1 -5.97461,-5.50195 z"
       id="path4562"
       inkscape:connector-curvature="0" />
    <path
       style="display:inline;fill:#ffffff;fill-opacity:0.2;fill-rule:evenodd;stroke:none;stroke-width:1px;stroke-linecap:butt;stroke-linejoin:miter;stroke-opacity:1;enable-background:new"
       d="m 138,505 a 4,4 0 0 0 -4,4 4,4 0 0 0 0.0352,0.49414 A 4,4 0 0 1 138,506 4,4 0 0 1 141.96484,509.50586 4,4 0 0 0 142,509 a 4,4 0 0 0 -4,-4 z m 7.97852,4.57617 A 8,8 0 0 1 138,517 h -8 v 1 h 8 a 8,8 0 0 0 8,-8 8,8 0 0 0 -0.0215,-0.42383 z"
       id="path4577"
       inkscape:connector-curvature="0" />
    <path
       style="display:inline;fill:#000000;fill-opacity:0.2;fill-rule:evenodd;stroke:none;stroke-width:1px;stroke-linecap:butt;stroke-linejoin:miter;stroke-opacity:1;enable-background:new"
       d="m 138,501 a 8,8 0 0 0 -8,8 v 1 a 8,8 0 0 1 8,-8 8,8 0 0 1 7.97852,7.57617 A 8,8 0 0 0 146,509 a 8,8 0 0 0 -8,-8 z m -3.96484,8.49414 A 4,4 0 0 0 134,510 a 4,4 0 0 0 4,4 4,4 0 0 0 4,-4 4,4 0 0 0 -0.0352,-0.49414 A 4,4 0 0 1 138,513 a 4,4 0 0 1 -3.96484,-3.50586 z"
       id="path4582"
       inkscape:connector-curvature="0" />
    <path
       style="display:inline;fill:url(#linearGradient4620);fill-opacity:1;stroke:none;stroke-width:1.46667397;stroke-linecap:round;stroke-linejoin:round;stroke-miterlimit:4;stroke-dasharray:none;stroke-opacity:1;enable-background:new"
       d="m 84,506 c -1.108,0 -2,0.892 -2,2 v 0.47656 15.06641 V 524 c 0,1.108 0.892,2 2,2 h 12 c 1.108,0 2,-0.892 2,-2 V 523.52344 512 508 c 0,-1.108 -0.892,-2 -2,-2 h -4 z"
       id="path4618"
       inkscape:connector-curvature="0" />
    <path
       style="display:inline;fill:url(#linearGradient4435);fill-opacity:1;stroke:none;stroke-width:2;stroke-linecap:round;stroke-linejoin:round;stroke-miterlimit:4;stroke-dasharray:none;stroke-opacity:1;enable-background:new"
       d="m 129,498 c -1.108,0 -2,0.892 -2,2 v 1.8418 20.34375 V 524 c 0,1.108 0.892,2 2,2 h 18 c 1.108,0 2,-0.892 2,-2 V 522.1582 506 500 c 0,-1.108 -0.892,-2 -2,-2 h -6 z"
       id="path4433"
       inkscape:connector-curvature="0" />
    <path
       style="display:inline;fill:url(#linearGradient4537);fill-opacity:1;stroke:none;stroke-width:2;stroke-linecap:round;stroke-linejoin:round;stroke-miterlimit:4;stroke-dasharray:none;stroke-opacity:1;enable-background:new"
       d="m 247,468 c -1.662,0 -3,1.338 -3,3 v 4.68164 40.68945 V 521 c 0,1.662 1.338,3 3,3 h 38 c 1.662,0 3,-1.338 3,-3 V 516.31641 486 471 c 0,-0.20711 -0.0206,-0.41018 -0.0605,-0.60547 -0.0799,-0.39058 -0.23552,-0.75306 -0.45117,-1.07226 -0.21565,-0.31921 -0.49134,-0.5949 -0.81055,-0.81055 -0.3192,-0.21565 -0.68168,-0.37127 -1.07226,-0.45117 C 285.41018,468.02058 285.20711,468 285,468 h -15 z"
       id="path4535"
       inkscape:connector-curvature="0" />
    <path
       style="display:inline;fill:url(#linearGradient4171-1-0);fill-opacity:1;stroke:none;stroke-width:2;stroke-linecap:round;stroke-linejoin:round;stroke-miterlimit:4;stroke-dasharray:none;stroke-opacity:1;enable-background:new"
       d="m 181,484 c -1.662,0 -3,1.338 -3,3 v 1.95312 30.13282 V 521 c 0,1.662 1.338,3 3,3 h 26 c 1.662,0 3,-1.338 3,-3 V 519.04492 496 487 c 0,-1.662 -1.338,-3 -3,-3 h -9 z"
       id="circle4163-3-4"
       inkscape:connector-curvature="0"
       sodipodi:nodetypes="ssccssssccsscs" />
    <circle
       r="10"
       transform="scale(-1,1)"
       id="circle5012"
       style="display:inline;fill:#000000;fill-opacity:0.2;stroke:none;stroke-width:0.83333331;enable-background:new"
       cx="-206"
       cy="517" />
    <path
       style="display:inline;fill:#bf1d37;fill-opacity:1;stroke:none;stroke-width:0.83333331;enable-background:new"
       d="m 206,506 a 10,10 0 0 0 -7.06641,2.93359 L 206,516 l 7.06641,-7.06641 A 10,10 0 0 0 206,506 Z m 7.06641,2.93359 a 10,10 0 0 1 0.61328,0.67579 10,10 0 0 0 -0.61328,-0.67579 z m 0.61328,0.67579 a 10,10 0 0 1 0.34961,0.46093 10,10 0 0 0 -0.34961,-0.46093 z m 0.34961,0.46093 a 10,10 0 0 1 0.25195,0.33985 10,10 0 0 0 -0.25195,-0.33985 z m 0.25195,0.33985 a 10,10 0 0 1 0.28125,0.45703 10,10 0 0 0 -0.28125,-0.45703 z m 0.28125,0.45703 a 10,10 0 0 1 0.24219,0.40625 10,10 0 0 0 -0.24219,-0.40625 z m 0.24219,0.40625 a 10,10 0 0 1 0.21679,0.44922 10,10 0 0 0 -0.21679,-0.44922 z m 0.21679,0.44922 a 10,10 0 0 1 0.21094,0.45507 10,10 0 0 0 -0.21094,-0.45507 z m 0.21094,0.45507 a 10,10 0 0 1 0.16797,0.45508 10,10 0 0 0 -0.16797,-0.45508 z m 0.16797,0.45508 a 10,10 0 0 1 0.16992,0.48633 10,10 0 0 0 -0.16992,-0.48633 z m 0.16992,0.48633 a 10,10 0 0 1 0.12696,0.49609 10,10 0 0 0 -0.12696,-0.49609 z m 0.12696,0.49609 a 10,10 0 0 1 0.11132,0.4668 10,10 0 0 0 -0.11132,-0.4668 z m 0.11132,0.4668 a 10,10 0 0 1 0.14063,0.91992 10,10 0 0 0 -0.14063,-0.91992 z m -16.875,-5.14844 a 10,10 0 0 0 -0.46679,0.50977 10,10 0 0 1 0.46679,-0.50977 z m -0.60547,0.66602 a 10,10 0 0 0 -0.47656,0.625 10,10 0 0 1 0.47656,-0.625 z m -0.61718,0.82227 a 10,10 0 0 0 -0.36914,0.60156 10,10 0 0 1 0.36914,-0.60156 z m -0.52149,0.86718 a 10,10 0 0 0 -0.29883,0.61524 10,10 0 0 1 0.29883,-0.61524 z m -0.42968,0.90821 a 10,10 0 0 0 -0.21875,0.5957 10,10 0 0 1 0.21875,-0.5957 z m -0.33985,0.96289 a 10,10 0 0 0 -0.14844,0.57812 10,10 0 0 1 0.14844,-0.57812 z m -0.23633,0.96484 a 10,10 0 0 0 -0.0879,0.58008 10,10 0 0 1 0.0879,-0.58008 z m -0.14062,1.01562 A 10,10 0 0 0 196,516 a 10,10 0 0 1 0.043,-0.85938 z m 0,1.71876 a 10,10 0 0 0 0.0547,0.45507 10,10 0 0 1 -0.0547,-0.45507 z m 0.13672,0.99218 a 10,10 0 0 0 0.10547,0.47461 10,10 0 0 1 -0.10547,-0.47461 z m 0.23242,0.96289 a 10,10 0 0 0 0.15625,0.47657 10,10 0 0 1 -0.15625,-0.47657 z m 0.32422,0.93555 a 10,10 0 0 0 0.21484,0.48047 10,10 0 0 1 -0.21484,-0.48047 z m 0.42187,0.9082 a 10,10 0 0 0 0.26758,0.46485 10,10 0 0 1 -0.26758,-0.46485 z m 0.50391,0.85157 a 10,10 0 0 0 0.29492,0.41406 10,10 0 0 1 -0.29492,-0.41406 z m 0.61133,0.82812 a 10,10 0 0 0 0.30273,0.34375 10,10 0 0 1 -0.30273,-0.34375 z m 0.66015,0.72852 a 10,10 0 0 0 0.38477,0.35742 10,10 0 0 1 -0.38477,-0.35742 z m 0.72852,0.66015 a 10,10 0 0 0 0.41406,0.31641 10,10 0 0 1 -0.41406,-0.31641 z m 0.82812,0.61133 a 10,10 0 0 0 0.38672,0.23633 10,10 0 0 1 -0.38672,-0.23633 z m 0.85157,0.50391 a 10,10 0 0 0 0.42773,0.20703 10,10 0 0 1 -0.42773,-0.20703 z m 0.9082,0.42187 a 10,10 0 0 0 0.45898,0.16797 10,10 0 0 1 -0.45898,-0.16797 z m 0.93555,0.32422 a 10,10 0 0 0 0.48828,0.12695 10,10 0 0 1 -0.48828,-0.12695 z m 0.96289,0.23242 a 10,10 0 0 0 0.53711,0.082 10,10 0 0 1 -0.53711,-0.082 z m 0.99218,0.13672 A 10,10 0 0 0 206,526 a 10,10 0 0 1 -0.85938,-0.043 z"
       id="path4058-0"
       inkscape:connector-curvature="0" />
    <circle
       r="7"
       id="circle5008"
       style="display:inline;fill:#000000;fill-opacity:0.2;fill-rule:evenodd;stroke:none;stroke-width:0.875;enable-background:new"
       cx="146"
       cy="521" />
    <path
       style="display:inline;fill:#bf1d37;fill-opacity:1;fill-rule:evenodd;stroke:none;stroke-width:0.875;enable-background:new"
       d="m 146,513 a 7,7 0 0 0 -4.94727,2.05273 L 146,520 l 4.94727,-4.94727 A 7,7 0 0 0 146,513 Z m -4.95508,2.06055 a 7,7 0 0 0 -0.29297,0.32031 7,7 0 0 1 0.29297,-0.32031 z m 9.91016,0 a 7,7 0 0 1 0.29297,0.32031 7,7 0 0 0 -0.29297,-0.32031 z m -10.33203,0.46875 a 7,7 0 0 0 -0.32227,0.42187 7,7 0 0 1 0.32227,-0.42187 z m 10.7539,0 a 7,7 0 0 1 0.32227,0.42187 7,7 0 0 0 -0.32227,-0.42187 z m -11.17773,0.56445 a 7,7 0 0 0 -0.25977,0.41992 7,7 0 0 1 0.25977,-0.41992 z m 11.60156,0 a 7,7 0 0 1 0.25977,0.41992 7,7 0 0 0 -0.25977,-0.41992 z m -11.9707,0.61133 a 7,7 0 0 0 -0.20117,0.41797 7,7 0 0 1 0.20117,-0.41797 z m 12.33984,0 a 7,7 0 0 1 0.20117,0.41797 7,7 0 0 0 -0.20117,-0.41797 z m -12.64062,0.64062 a 7,7 0 0 0 -0.14649,0.39844 7,7 0 0 1 0.14649,-0.39844 z m 12.9414,0 a 7,7 0 0 1 0.14649,0.39844 7,7 0 0 0 -0.14649,-0.39844 z m -13.17773,0.66992 a 7,7 0 0 0 -0.0996,0.38672 7,7 0 0 1 0.0996,-0.38672 z m 13.41406,0 a 7,7 0 0 1 0.0996,0.38672 7,7 0 0 0 -0.0996,-0.38672 z m -13.58008,0.67969 a 7,7 0 0 0 -0.0586,0.38086 7,7 0 0 1 0.0586,-0.38086 z m 13.7461,0 a 7,7 0 0 1 0.0586,0.38086 7,7 0 0 0 -0.0586,-0.38086 z m -13.84375,0.70508 A 7,7 0 0 0 139,520 a 7,7 0 0 1 0.0293,-0.59961 z m 13.9414,0 A 7,7 0 0 1 153,520 a 7,7 0 0 0 -0.0293,-0.59961 z m -13.9414,1.19922 a 7,7 0 0 0 0.043,0.3457 7,7 0 0 1 -0.043,-0.3457 z m 13.9414,0 a 7,7 0 0 1 -0.043,0.3457 7,7 0 0 0 0.043,-0.3457 z m -13.84765,0.68164 a 7,7 0 0 0 0.084,0.37891 7,7 0 0 1 -0.084,-0.37891 z m 13.7539,0 a 7,7 0 0 1 -0.084,0.37891 7,7 0 0 0 0.084,-0.37891 z m -13.59179,0.67773 a 7,7 0 0 0 0.11914,0.36329 7,7 0 0 1 -0.11914,-0.36329 z m 13.42968,0 a 7,7 0 0 1 -0.11914,0.36329 7,7 0 0 0 0.11914,-0.36329 z m -13.19922,0.66407 a 7,7 0 0 0 0.14454,0.32422 7,7 0 0 1 -0.14454,-0.32422 z m 12.96876,0 a 7,7 0 0 1 -0.14454,0.32422 7,7 0 0 0 0.14454,-0.32422 z m -12.66797,0.64843 a 7,7 0 0 0 0.16406,0.28711 7,7 0 0 1 -0.16406,-0.28711 z m 12.36718,0 a 7,7 0 0 1 -0.16406,0.28711 7,7 0 0 0 0.16406,-0.28711 z m -12.01757,0.5879 a 7,7 0 0 0 0.21875,0.30664 7,7 0 0 1 -0.21875,-0.30664 z m 11.66796,0 a 7,7 0 0 1 -0.21875,0.30664 7,7 0 0 0 0.21875,-0.30664 z m -11.25195,0.56445 a 7,7 0 0 0 0.23438,0.26953 7,7 0 0 1 -0.23438,-0.26953 z m 10.83594,0 a 7,7 0 0 1 -0.23438,0.26953 7,7 0 0 0 0.23438,-0.26953 z m -10.36524,0.52344 a 7,7 0 0 0 0.25391,0.23632 7,7 0 0 1 -0.25391,-0.23632 z m 9.89454,0 a 7,7 0 0 1 -0.25391,0.23632 7,7 0 0 0 0.25391,-0.23632 z m -9.3711,0.4707 a 7,7 0 0 0 0.25781,0.19726 7,7 0 0 1 -0.25781,-0.19726 z m 8.84766,0 a 7,7 0 0 1 -0.25781,0.19726 7,7 0 0 0 0.25781,-0.19726 z m -8.28321,0.41601 a 7,7 0 0 0 0.30079,0.18555 7,7 0 0 1 -0.30079,-0.18555 z m 7.71876,0 a 7,7 0 0 1 -0.30079,0.18555 7,7 0 0 0 0.30079,-0.18555 z m -7.13086,0.34961 a 7,7 0 0 0 0.32421,0.15625 7,7 0 0 1 -0.32421,-0.15625 z m 6.54296,0 a 7,7 0 0 1 -0.32421,0.15625 7,7 0 0 0 0.32421,-0.15625 z m -5.89453,0.30079 a 7,7 0 0 0 0.30078,0.11132 7,7 0 0 1 -0.30078,-0.11132 z m 5.2461,0 a 7,7 0 0 1 -0.30078,0.11132 7,7 0 0 0 0.30078,-0.11132 z m -4.58203,0.23046 a 7,7 0 0 0 0.29882,0.0781 7,7 0 0 1 -0.29882,-0.0781 z m 3.91796,0 a 7,7 0 0 1 -0.29882,0.0781 7,7 0 0 0 0.29882,-0.0781 z m -3.24023,0.16211 a 7,7 0 0 0 0.33594,0.0508 7,7 0 0 1 -0.33594,-0.0508 z m 2.5625,0 a 7,7 0 0 1 -0.33594,0.0508 7,7 0 0 0 0.33594,-0.0508 z m -1.88086,0.0937 A 7,7 0 0 0 146,527 a 7,7 0 0 1 -0.59961,-0.0293 z"
       id="circle4426-9"
       inkscape:connector-curvature="0" />
    <circle
       r="12"
       cy="515"
       cx="-258"
       style="display:inline;fill:#000000;fill-opacity:0.2;stroke:none;stroke-width:0.99999994;filter:url(#filter5059);enable-background:new"
       id="circle5037"
       transform="matrix(-1,0,0,1,26,0)" />
    <path
       inkscape:connector-curvature="0"
       id="path4622"
       d="M 275.52032,505.52032 284,514 v 12 a 12,12 0 0 1 -12,-12 12,12 0 0 1 3.52032,-8.47968 z"
       style="display:inline;opacity:1;fill:#9798e5;fill-opacity:1;stroke:none;stroke-width:4;stroke-linecap:round;stroke-linejoin:round;stroke-miterlimit:4;stroke-dasharray:none;stroke-opacity:1;enable-background:new" />
    <path
       style="display:inline;fill:#bf1d37;fill-opacity:1;stroke:none;stroke-width:0.99999994;enable-background:new"
       d="m 284,502 a 12,12 0 0 0 -8.48047,3.51953 L 284,514 l 8.48047,-8.48047 A 12,12 0 0 0 284,502 Z m -8.48633,3.52539 a 12,12 0 0 0 -0.52929,0.57813 12,12 0 0 1 0.52929,-0.57813 z m 17.0293,0.0625 a 12,12 0 0 1 0.71094,0.79688 12,12 0 0 0 -0.71094,-0.79688 z m 0.71094,0.79688 a 12,12 0 0 1 0.35937,0.47265 12,12 0 0 0 -0.35937,-0.47265 z m 0.35937,0.47265 a 12,12 0 0 1 0.35352,0.48633 12,12 0 0 0 -0.35352,-0.48633 z m 0.35352,0.48633 a 12,12 0 0 1 0.31054,0.50195 12,12 0 0 0 -0.31054,-0.50195 z m 0.31054,0.50195 a 12,12 0 0 1 0.30664,0.52735 12,12 0 0 0 -0.30664,-0.52735 z m 0.30664,0.52735 a 12,12 0 0 1 0.26172,0.54101 12,12 0 0 0 -0.26172,-0.54101 z m 0.26172,0.54101 a 12,12 0 0 1 0.24805,0.54297 12,12 0 0 0 -0.24805,-0.54297 z m 0.24805,0.54297 a 12,12 0 0 1 0.19727,0.5332 12,12 0 0 0 -0.19727,-0.5332 z m 0.19727,0.5332 a 12,12 0 0 1 0.20703,0.60938 12,12 0 0 0 -0.20703,-0.60938 z m 0.20703,0.60938 a 12,12 0 0 1 0.14648,0.57422 12,12 0 0 0 -0.14648,-0.57422 z m 0.14648,0.57422 a 12,12 0 0 1 0.13086,0.56055 12,12 0 0 0 -0.13086,-0.56055 z m 0.13086,0.56055 a 12,12 0 0 1 0.16406,1.06835 12,12 0 0 0 -0.16406,-1.06835 z m -20.98828,-5.40821 a 12,12 0 0 0 -0.5625,0.74024 12,12 0 0 1 0.5625,-0.74024 z m -0.73047,0.97461 a 12,12 0 0 0 -0.4707,0.76367 12,12 0 0 1 0.4707,-0.76367 z m -0.62109,1.02734 a 12,12 0 0 0 -0.36328,0.75 12,12 0 0 1 0.36328,-0.75 z m -0.5293,1.1211 a 12,12 0 0 0 -0.25586,0.70312 12,12 0 0 1 0.25586,-0.70312 z m -0.40039,1.13281 a 12,12 0 0 0 -0.18555,0.72852 12,12 0 0 1 0.18555,-0.72852 z m -0.2832,1.16406 a 12,12 0 0 0 -0.10938,0.70703 12,12 0 0 1 0.10938,-0.70703 z m -0.16993,1.21094 A 12,12 0 0 0 272,514 a 12,12 0 0 1 0.0527,-1.04297 z m 0,2.08594 a 12,12 0 0 0 0.0664,0.54492 12,12 0 0 1 -0.0664,-0.54492 z m 0.15821,1.16406 a 12,12 0 0 0 0.13867,0.61524 12,12 0 0 1 -0.13867,-0.61524 z m 0.27734,1.15625 a 12,12 0 0 0 0.20899,0.62695 12,12 0 0 1 -0.20899,-0.62695 z m 0.39258,1.12891 a 12,12 0 0 0 0.25391,0.57226 12,12 0 0 1 -0.25391,-0.57226 z m 0.51172,1.10547 a 12,12 0 0 0 0.29687,0.51562 12,12 0 0 1 -0.29687,-0.51562 z m 0.61328,1.03125 a 12,12 0 0 0 0.33984,0.47461 12,12 0 0 1 -0.33984,-0.47461 z m 0.71289,0.96679 a 12,12 0 0 0 0.38672,0.43946 12,12 0 0 1 -0.38672,-0.43946 z m 0.80078,0.88477 a 12,12 0 0 0 0.44531,0.41406 12,12 0 0 1 -0.44531,-0.41406 z m 0.88477,0.80078 a 12,12 0 0 0 0.49218,0.37305 12,12 0 0 1 -0.49218,-0.37305 z m 0.96679,0.71289 a 12,12 0 0 0 0.51563,0.31641 12,12 0 0 1 -0.51563,-0.31641 z m 1.03125,0.61328 a 12,12 0 0 0 0.53321,0.25781 12,12 0 0 1 -0.53321,-0.25781 z m 1.10547,0.51172 a 12,12 0 0 0 0.50196,0.18359 12,12 0 0 1 -0.50196,-0.18359 z m 1.12891,0.39258 a 12,12 0 0 0 0.54101,0.13867 12,12 0 0 1 -0.54101,-0.13867 z m 1.15625,0.27734 a 12,12 0 0 0 0.61914,0.0918 12,12 0 0 1 -0.61914,-0.0918 z m 1.16406,0.15821 A 12,12 0 0 0 284,526 a 12,12 0 0 1 -1.04297,-0.0527 z"
       id="circle4986"
       inkscape:connector-curvature="0" />
    <path
       inkscape:connector-curvature="0"
       id="path5085"
       d="M 213.0664,508.9336 206,516 v 10 a 10,10 0 0 0 10,-10 10,10 0 0 0 -2.9336,-7.0664 z"
       style="display:inline;opacity:1;fill:#ffb300;fill-opacity:1;stroke:none;stroke-width:3.33333325;stroke-linecap:round;stroke-linejoin:round;stroke-miterlimit:4;stroke-dasharray:none;stroke-opacity:1;enable-background:new" />
    <path
       style="display:inline;opacity:1;fill:#9798e5;fill-opacity:1;stroke:none;stroke-width:3.33333325;stroke-linecap:round;stroke-linejoin:round;stroke-miterlimit:4;stroke-dasharray:none;stroke-opacity:1;enable-background:new"
       d="M 198.9336,508.9336 206,516 v 10 a 10,10 0 0 1 -10,-10 10,10 0 0 1 2.9336,-7.0664 z"
       id="path4617"
       inkscape:connector-curvature="0" />
    <path
       style="display:inline;fill:#ffffff;fill-opacity:0.2;stroke:none;stroke-width:0.83333331;enable-background:new"
       d="m 206,506 a 10,10 0 0 0 -10,10 10,10 0 0 0 0.0215,0.41406 A 10,10 0 0 1 206,507 10,10 0 0 1 215.97852,516.58594 10,10 0 0 0 216,516 10,10 0 0 0 206,506 Z"
       id="circle5048"
       inkscape:connector-curvature="0" />
    <path
       style="display:inline;opacity:1;fill:#ffb300;fill-opacity:1;stroke:none;stroke-width:4;stroke-linecap:round;stroke-linejoin:round;stroke-miterlimit:4;stroke-dasharray:none;stroke-opacity:1;enable-background:new"
       d="M 292.47968,505.52032 284,514 v 12 a 12,12 0 0 0 12,-12 12,12 0 0 0 -3.52032,-8.47968 z"
       id="path5090"
       inkscape:connector-curvature="0" />
    <path
       style="display:inline;fill:#ffffff;fill-opacity:0.2;stroke:none;stroke-width:0.99999994;enable-background:new"
       d="m 284,502 a 12,12 0 0 0 -12,12 12,12 0 0 0 0.0195,0.40625 A 12,12 0 0 1 284,503 12,12 0 0 1 295.98047,514.59375 12,12 0 0 0 296,514 12,12 0 0 0 284,502 Z"
       id="circle5063"
       inkscape:connector-curvature="0" />
    <circle
       transform="scale(-1,1)"
       id="circle5106"
       style="display:inline;fill:#000000;fill-opacity:0.2;stroke:none;stroke-width:7.99999952;enable-background:new"
       cx="-714"
       cy="418"
       r="96" />
    <circle
       r="96"
       cy="418"
       cx="-688"
       style="display:inline;fill:#000000;fill-opacity:0.2;stroke:none;stroke-width:7.99999952;filter:url(#filter5114);enable-background:new"
       id="circle5108"
       transform="matrix(-1,0,0,1,26,0)" />
    <path
       style="display:inline;fill:#bf1d37;fill-opacity:1;stroke:none;stroke-width:7.99999952;enable-background:new"
       d="m 714,320 a 96,96 0 0 0 -72.09375,32.79102 96,96 0 0 1 4.25586,-4.62891 L 714,416 781.83789,348.16211 A 96,96 0 0 1 788.25,355.24023 96,96 0 0 0 714,320 Z m 74.25,35.24023 A 96,96 0 0 1 788.44922,355.5 96,96 0 0 0 788.25,355.24023 Z m 0.19922,0.25977 a 96,96 0 0 1 5.45703,7.39258 96,96 0 0 0 -5.45703,-7.39258 z m 5.45703,7.39258 a 96,96 0 0 1 0.4668,0.76367 96,96 0 0 0 -0.4668,-0.76367 z m 0.4668,0.76367 a 96,96 0 0 1 4.40234,7.41211 96,96 0 0 0 -4.40234,-7.41211 z m 4.40234,7.41211 a 96,96 0 0 1 0.64649,1.33789 96,96 0 0 0 -0.64649,-1.33789 z m 0.64649,1.33789 a 96,96 0 0 1 3.37695,7.24219 96,96 0 0 0 -3.37695,-7.24219 z m 3.37695,7.24219 a 96,96 0 0 1 0.79297,2.17187 96,96 0 0 0 -0.79297,-2.17187 z m 0.79297,2.17187 a 96,96 0 0 1 2.36914,6.78321 96,96 0 0 0 -2.36914,-6.78321 z m 2.36914,6.78321 a 96,96 0 0 1 0.74609,2.92578 96,96 0 0 0 -0.74609,-2.92578 z m 0.74609,2.92578 a 96,96 0 0 1 1.51367,6.28711 96,96 0 0 0 -1.51367,-6.28711 z m 1.51367,6.28711 a 96,96 0 0 1 0.5625,3.73047 96,96 0 0 0 -0.5625,-3.73047 z m 0.5625,3.73047 a 96,96 0 0 1 0.77735,5.67187 96,96 0 0 0 -0.77735,-5.67187 z m 0.77735,5.67187 A 96,96 0 0 1 810,416 96,96 0 0 0 809.56055,407.21875 Z M 640.26172,354.66211 a 96,96 0 0 0 -4.45899,5.85547 96,96 0 0 1 4.45899,-5.85547 z m -5.8086,7.74219 a 96,96 0 0 0 -3.68359,5.99414 96,96 0 0 1 3.68359,-5.99414 z m -5.00781,8.30468 a 96,96 0 0 0 -2.91406,6.01758 96,96 0 0 1 2.91406,-6.01758 z m -4.14258,8.76368 a 96,96 0 0 0 -2.16992,5.92773 96,96 0 0 1 2.16992,-5.92773 z m -3.24414,9.16015 a 96,96 0 0 0 -1.46093,5.69727 96,96 0 0 1 1.46093,-5.69727 z m -2.30078,9.44336 a 96,96 0 0 0 -0.82031,5.38281 96,96 0 0 1 0.82031,-5.38281 z m -1.33593,9.63086 A 96,96 0 0 0 618,416 a 96,96 0 0 1 0.42188,-8.29297 z m -0.0117,16.49024 a 96,96 0 0 0 0.57226,4.71289 96,96 0 0 1 -0.57226,-4.71289 z m 1.29687,9.49804 a 96,96 0 0 0 1.04297,4.6543 96,96 0 0 1 -1.04297,-4.6543 z m 2.23438,9.31836 a 96,96 0 0 0 1.50586,4.53321 96,96 0 0 1 -1.50586,-4.53321 z m 3.1582,9.0625 a 96,96 0 0 0 1.94922,4.35547 96,96 0 0 1 -1.94922,-4.35547 z m 4.04297,8.6875 a 96,96 0 0 0 2.38476,4.15625 96,96 0 0 1 -2.38476,-4.15625 z m 4.89258,8.2461 a 96,96 0 0 0 2.80273,3.91796 96,96 0 0 1 -2.80273,-3.91796 z m 5.67773,7.70117 a 96,96 0 0 0 3.20313,3.64844 96,96 0 0 1 -3.20313,-3.64844 z m 6.44727,7.1289 a 96,96 0 0 0 3.48046,3.24414 96,96 0 0 1 -3.48046,-3.24414 z m 7.1289,6.44727 a 96,96 0 0 0 3.78321,2.875 96,96 0 0 1 -3.78321,-2.875 z m 7.70117,5.67773 a 96,96 0 0 0 4.08985,2.50782 96,96 0 0 1 -4.08985,-2.50782 z m 8.2461,4.89258 a 96,96 0 0 0 4.33203,2.09375 96,96 0 0 1 -4.33203,-2.09375 z m 8.6875,4.04297 a 96,96 0 0 0 4.52929,1.65234 96,96 0 0 1 -4.52929,-1.65234 z m 9.0625,3.1582 a 96,96 0 0 0 4.66406,1.19141 96,96 0 0 1 -4.66406,-1.19141 z m 9.31836,2.23438 a 96,96 0 0 0 4.78515,0.72461 96,96 0 0 1 -4.78515,-0.72461 z m 9.49804,1.29687 A 96,96 0 0 0 714,512 a 96,96 0 0 1 -8.19727,-0.41016 z"
       id="circle5080"
       inkscape:connector-curvature="0" />
    <path
       inkscape:connector-curvature="0"
       id="path5095"
       d="M 781.83744,348.16256 714,416 v 96 a 96,96 0 0 0 96,-96 96,96 0 0 0 -28.16256,-67.83744 z"
       style="display:inline;opacity:1;fill:#ffb300;fill-opacity:1;stroke:none;stroke-width:32;stroke-linecap:round;stroke-linejoin:round;stroke-miterlimit:4;stroke-dasharray:none;stroke-opacity:1;enable-background:new" />
    <path
       style="display:inline;opacity:1;fill:#9798e5;fill-opacity:1;stroke:none;stroke-width:32;stroke-linecap:round;stroke-linejoin:round;stroke-miterlimit:4;stroke-dasharray:none;stroke-opacity:1;enable-background:new"
       d="M 646.16256,348.16256 714,416 v 96 a 96,96 0 0 1 -96,-96 96,96 0 0 1 28.16256,-67.83744 z"
       id="path4627"
       inkscape:connector-curvature="0" />
    <path
       style="display:inline;fill:#ffffff;fill-opacity:0.2;stroke:none;stroke-width:7.99999952;enable-background:new"
       d="m 714,320 a 96,96 0 0 0 -96,96 96,96 0 0 0 0.041,0.84766 A 96,96 0 0 1 714,322 96,96 0 0 1 809.96094,417.20703 96,96 0 0 0 810,416 96,96 0 0 0 714,320 Z"
       id="path5086"
       inkscape:connector-curvature="0" />
    <circle
       cy="522"
       cx="96"
       style="display:inline;fill:#000000;fill-opacity:0.2;fill-rule:evenodd;stroke:none;stroke-width:0.75;enable-background:new"
       id="circle4592"
       r="6" />
    <path
       style="display:inline;fill:#bf1d37;fill-opacity:1;fill-rule:evenodd;stroke:none;stroke-width:0.75;enable-background:new"
       d="m 96,515 a 6,6 0 0 0 -4.240234,1.75977 L 96,521 l 4.24023,-4.24023 A 6,6 0 0 0 96,515 Z m -4.242188,1.76172 a 6,6 0 0 0 -0.263671,0.28906 6,6 0 0 1 0.263671,-0.28906 z m 8.490238,0.004 a 6,6 0 0 1 0.25,0.2754 6,6 0 0 0 -0.25,-0.2754 z m -8.855472,0.4004 a 6,6 0 0 0 -0.277344,0.36328 6,6 0 0 1 0.277344,-0.36328 z m 9.216802,0.002 a 6,6 0 0 1 0.27539,0.36133 6,6 0 0 0 -0.27539,-0.36133 z m -9.582036,0.48437 a 6,6 0 0 0 -0.22461,0.36524 6,6 0 0 1 0.22461,-0.36524 z m 9.945316,0 a 6,6 0 0 1 0.22265,0.35938 6,6 0 0 0 -0.22265,-0.35938 z m -10.259769,0.52149 a 6,6 0 0 0 -0.181641,0.37695 6,6 0 0 1 0.181641,-0.37695 z m 10.576169,0.002 a 6,6 0 0 1 0.17188,0.35742 6,6 0 0 0 -0.17188,-0.35742 z m -10.832029,0.53906 a 6,6 0 0 0 -0.132812,0.36133 6,6 0 0 1 0.132812,-0.36133 z m 11.089849,0.01 a 6,6 0 0 1 0.125,0.3418 6,6 0 0 0 -0.125,-0.3418 z m -11.294927,0.56836 a 6,6 0 0 0 -0.08984,0.35156 6,6 0 0 1 0.08984,-0.35156 z m 11.496097,0.006 a 6,6 0 0 1 0.0859,0.33203 6,6 0 0 0 -0.0859,-0.33203 z m -11.638675,0.58203 a 6,6 0 0 0 -0.04883,0.33203 6,6 0 0 1 0.04883,-0.33203 z m 11.781245,0 a 6,6 0 0 1 0.0508,0.32812 6,6 0 0 0 -0.0508,-0.32812 z m -11.863276,0.60156 A 6,6 0 0 0 90,521 a 6,6 0 0 1 0.02734,-0.51758 z m 11.947266,0.004 A 6,6 0 0 1 102,521 a 6,6 0 0 0 -0.0254,-0.51367 z m -11.951172,1.00781 a 6,6 0 0 0 0.04297,0.35547 6,6 0 0 1 -0.04297,-0.35547 z m 11.951172,0.0195 a 6,6 0 0 1 -0.0371,0.29688 6,6 0 0 0 0.0371,-0.29688 z m -11.871094,0.57813 a 6,6 0 0 0 0.07227,0.32422 6,6 0 0 1 -0.07227,-0.32422 z m 11.791014,0.006 a 6,6 0 0 1 -0.0723,0.32617 6,6 0 0 0 0.0723,-0.32617 z m -0.13867,0.58203 a 6,6 0 0 1 -0.10156,0.31054 6,6 0 0 0 0.10156,-0.31054 z m -11.511719,0.002 a 6,6 0 0 0 0.09961,0.29883 6,6 0 0 1 -0.09961,-0.29883 z m 11.314449,0.56641 a 6,6 0 0 1 -0.125,0.27734 6,6 0 0 0 0.125,-0.27734 z m -11.111324,0.0117 a 6,6 0 0 0 0.111328,0.2539 6,6 0 0 1 -0.111328,-0.2539 z m 0.248046,0.53711 a 6,6 0 0 0 0.150391,0.26171 6,6 0 0 1 -0.150391,-0.26171 z m 10.605468,0.008 a 6,6 0 0 1 -0.14062,0.24609 6,6 0 0 0 0.14062,-0.24609 z M 101,524.30859 a 6,6 0 0 1 -0.1875,0.26172 6,6 0 0 0 0.1875,-0.26172 z m -9.994141,0.01 a 6,6 0 0 0 0.171875,0.24219 6,6 0 0 1 -0.171875,-0.24219 z m 0.347657,0.47266 a 6,6 0 0 0 0.208984,0.23828 6,6 0 0 1 -0.208984,-0.23828 z m 9.291014,0 a 6,6 0 0 1 -0.20117,0.23242 6,6 0 0 0 0.20117,-0.23242 z m -8.884764,0.44921 a 6,6 0 0 0 0.210937,0.19727 6,6 0 0 1 -0.210937,-0.19727 z m 8.480464,0 a 6,6 0 0 1 -0.21679,0.20313 6,6 0 0 0 0.21679,-0.20313 z m -0.449214,0.4043 a 6,6 0 0 1 -0.220704,0.16797 6,6 0 0 0 0.220704,-0.16797 z m -7.582032,0.002 a 6,6 0 0 0 0.230469,0.17579 6,6 0 0 1 -0.230469,-0.17579 z m 0.472657,0.34766 a 6,6 0 0 0 0.259765,0.16016 6,6 0 0 1 -0.259765,-0.16016 z M 99.308594,526 A 6,6 0 0 1 99.050781,526.16016 6,6 0 0 0 99.308594,526 Z m -0.503906,0.30078 a 6,6 0 0 1 -0.279297,0.13281 6,6 0 0 0 0.279297,-0.13281 z m -5.601563,0.004 a 6,6 0 0 0 0.283203,0.13672 6,6 0 0 1 -0.283203,-0.13672 z m 0.537109,0.24804 a 6,6 0 0 0 0.279297,0.10352 6,6 0 0 1 -0.279297,-0.10352 z m 4.507813,0.006 a 6,6 0 0 1 -0.257813,0.0957 6,6 0 0 0 0.257813,-0.0957 z m -3.929688,0.19727 a 6,6 0 0 0 0.265625,0.0684 6,6 0 0 1 -0.265625,-0.0684 z m 3.361329,0 a 6,6 0 0 1 -0.25586,0.0664 6,6 0 0 0 0.25586,-0.0664 z m -0.582032,0.13867 a 6,6 0 0 1 -0.287109,0.043 6,6 0 0 0 0.287109,-0.043 z m -2.189453,0.002 a 6,6 0 0 0 0.242188,0.0371 6,6 0 0 1 -0.242188,-0.0371 z m 0.597656,0.0801 A 6,6 0 0 0 96,527 6,6 0 0 1 95.505859,526.9766 Z"
       id="circle4594"
       inkscape:connector-curvature="0" />
    <path
       inkscape:connector-curvature="0"
       id="path5070"
       d="M 100.23984,516.76016 96,521 v 6 a 6,6 0 0 0 6,-6 6,6 0 0 0 -1.76016,-4.23984 z"
       style="display:inline;opacity:1;fill:#ffb300;fill-opacity:1;stroke:none;stroke-width:2;stroke-linecap:round;stroke-linejoin:round;stroke-miterlimit:4;stroke-dasharray:none;stroke-opacity:1;enable-background:new" />
    <path
       style="display:inline;opacity:1;fill:#ffb300;fill-opacity:1;stroke:none;stroke-width:2.33333325;stroke-linecap:round;stroke-linejoin:round;stroke-miterlimit:4;stroke-dasharray:none;stroke-opacity:1;enable-background:new"
       d="M 150.94648,515.05352 146,520 v 7 a 7,7 0 0 0 7,-7 7,7 0 0 0 -2.05352,-4.94648 z"
       id="path5080"
       inkscape:connector-curvature="0" />
    <path
       inkscape:connector-curvature="0"
       id="path4612"
       d="M 141.05352,515.05352 146,520 v 7 a 7,7 0 0 1 -7,-7 7,7 0 0 1 2.05352,-4.94648 z"
       style="display:inline;opacity:1;fill:#9798e5;fill-opacity:1;stroke:none;stroke-width:2.33333325;stroke-linecap:round;stroke-linejoin:round;stroke-miterlimit:4;stroke-dasharray:none;stroke-opacity:1;enable-background:new" />
    <path
       inkscape:connector-curvature="0"
       id="path5083"
       d="m 146,512.99998 a 7,7 0 0 0 -7,7 7,7 0 0 0 0.0234,0.54102 7,7 0 0 1 6.97656,-6.54102 7,7 0 0 1 6.97656,6.45898 7,7 0 0 0 0.0234,-0.45898 7,7 0 0 0 -7,-7 z"
       style="display:inline;fill:#fafafa;fill-opacity:0.2;fill-rule:evenodd;stroke:none;stroke-width:0.875;enable-background:new" />
    <path
       style="display:inline;opacity:1;fill:#9798e5;fill-opacity:1;stroke:none;stroke-width:2;stroke-linecap:round;stroke-linejoin:round;stroke-miterlimit:4;stroke-dasharray:none;stroke-opacity:1;enable-background:new"
       d="M 91.76016,516.76016 96,521 v 6 a 6,6 0 0 1 -6,-6 6,6 0 0 1 1.76016,-4.23984 z"
       id="path4607"
       inkscape:connector-curvature="0" />
    <path
       style="display:inline;fill:#ffffff;fill-opacity:0.2;fill-rule:evenodd;stroke:none;stroke-width:0.75;enable-background:new"
       d="m 96,515.00005 a 6,6 0 0 0 -6,6 6,6 0 0 0 0.02539,0.49805 6,6 0 0 1 5.97461,-5.49805 6,6 0 0 1 5.97461,5.50195 6,6 0 0 0 0.0254,-0.50195 6,6 0 0 0 -6,-6 z"
       id="circle4580"
       inkscape:connector-curvature="0" />
    <path
       style="opacity:1;fill:#000000;fill-opacity:0.2;stroke:none"
       d="m 49,508 c -1.108,0 -2,0.892 -2,2 v 16 c 0,1.108 0.892,2 2,2 h 12 c 1.108,0 2,-0.892 2,-2 v -12 l -6,-6 z"
       id="path4583"
       inkscape:connector-curvature="0" />
    <path
       inkscape:connector-curvature="0"
       id="path4585"
       d="m 49,507 c -1.108,0 -2,0.892 -2,2 v 16 c 0,1.108 0.892,2 2,2 h 12 c 1.108,0 2,-0.892 2,-2 v -12 -4 c 0,-1.108 -0.892,-2 -2,-2 h -4 z"
       style="opacity:1;fill:#4b525f;fill-opacity:1;stroke:none" />
    <path
       inkscape:connector-curvature="0"
       id="path4587"
       d="m 55,512 a 3,3 0 0 0 -3,3 3,3 0 0 0 0.04297,0.51367 A 3,3 0 0 1 55,513 3,3 0 0 1 57.957031,515.48633 3,3 0 0 0 58,515 3,3 0 0 0 55,512 Z m 5.974609,3.49805 A 6,6 0 0 1 55,521 h -6 v 1 h 6 a 6,6 0 0 0 6,-6 6,6 0 0 0 -0.02539,-0.50195 z"
       style="display:inline;opacity:1;fill:#ffffff;fill-opacity:0.2;stroke:none;stroke-width:3;stroke-linecap:round;stroke-linejoin:round;stroke-miterlimit:4;stroke-dasharray:none;stroke-opacity:1;enable-background:new" />
    <path
       inkscape:connector-curvature="0"
       id="path4589"
       d="m 49,507 c -1.108,0 -2,0.892 -2,2 v 1 c 0,-1.108 0.892,-2 2,-2 h 3 6 3 c 1.108,0 2,0.892 2,2 v -1 c 0,-1.108 -0.892,-2 -2,-2 h -4 -4 z"
       style="opacity:1;fill:#ffffff;fill-opacity:0.2;stroke:none" />
    <path
       id="path4591"
       d="m 55,509 a 6,6 0 0 0 -6,6 v 6 h 6 a 6,6 0 0 0 6,-6 6,6 0 0 0 -6,-6 z m 0,3 a 3,3 0 0 1 3,3 3,3 0 0 1 -3,3 3,3 0 0 1 -3,-3 3,3 0 0 1 3,-3 z"
       style="display:inline;opacity:1;fill:#262a30;fill-opacity:1;stroke:none;stroke-width:3;stroke-linecap:round;stroke-linejoin:round;stroke-miterlimit:4;stroke-dasharray:none;stroke-opacity:1;enable-background:new"
       inkscape:connector-curvature="0" />
    <path
       inkscape:connector-curvature="0"
       id="path4593"
       d="m 55,509 a 6,6 0 0 0 -6,6 v 1 a 6,6 0 0 1 6,-6 6,6 0 0 1 5.974609,5.49805 A 6,6 0 0 0 61,515 6,6 0 0 0 55,509 Z m 2.957031,6.48633 A 3,3 0 0 1 55,518 3,3 0 0 1 52.042969,515.51367 3,3 0 0 0 52,516 a 3,3 0 0 0 3,3 3,3 0 0 0 3,-3 3,3 0 0 0 -0.04297,-0.51367 z"
       style="display:inline;opacity:1;fill:#000000;fill-opacity:0.2;stroke:none;stroke-width:3;stroke-linecap:round;stroke-linejoin:round;stroke-miterlimit:4;stroke-dasharray:none;stroke-opacity:1;enable-background:new" />
    <path
       inkscape:connector-curvature="0"
       id="path4595"
       d="m 49,507 c -1.108,0 -2,0.892 -2,2 v 0.47656 15.06641 V 525 c 0,1.108 0.892,2 2,2 h 12 c 1.108,0 2,-0.892 2,-2 V 524.52344 513 509 c 0,-1.108 -0.892,-2 -2,-2 h -4 z"
       style="display:inline;fill:url(#linearGradient4605);fill-opacity:1;stroke:none;stroke-width:1.46667397;stroke-linecap:round;stroke-linejoin:round;stroke-miterlimit:4;stroke-dasharray:none;stroke-opacity:1;enable-background:new" />
    <circle
       r="6"
       id="circle4597"
       style="display:inline;fill:#000000;fill-opacity:0.2;fill-rule:evenodd;stroke:none;stroke-width:0.75;enable-background:new"
       cx="60"
       cy="523" />
    <path
       style="display:inline;fill:#bf1d37;fill-opacity:1;fill-rule:evenodd;stroke:none;stroke-width:0.75;enable-background:new"
       d="m 60,516 a 6,6 0 0 0 -4.240234,1.75977 L 60,522 64.240234,517.75977 A 6,6 0 0 0 60,516 Z m -4.242188,1.76172 a 6,6 0 0 0 -0.263671,0.28906 6,6 0 0 1 0.263671,-0.28906 z m 8.490235,0.004 a 6,6 0 0 1 0.25,0.2754 6,6 0 0 0 -0.25,-0.2754 z m -8.855469,0.4004 a 6,6 0 0 0 -0.277344,0.36328 6,6 0 0 1 0.277344,-0.36328 z m 9.216797,0.002 a 6,6 0 0 1 0.275391,0.36133 6,6 0 0 0 -0.275391,-0.36133 z m -9.582031,0.48437 a 6,6 0 0 0 -0.22461,0.36524 6,6 0 0 1 0.22461,-0.36524 z m 9.945312,0 a 6,6 0 0 1 0.222656,0.35938 6,6 0 0 0 -0.222656,-0.35938 z m -10.259765,0.52149 a 6,6 0 0 0 -0.181641,0.37695 6,6 0 0 1 0.181641,-0.37695 z m 10.576171,0.002 a 6,6 0 0 1 0.171876,0.35742 6,6 0 0 0 -0.171876,-0.35742 z m -10.832031,0.53906 a 6,6 0 0 0 -0.132812,0.36133 6,6 0 0 1 0.132812,-0.36133 z m 11.089844,0.01 a 6,6 0 0 1 0.125,0.3418 6,6 0 0 0 -0.125,-0.3418 z m -11.294922,0.56836 a 6,6 0 0 0 -0.08984,0.35156 6,6 0 0 1 0.08984,-0.35156 z m 11.496094,0.006 a 6,6 0 0 1 0.08594,0.33203 6,6 0 0 0 -0.08594,-0.33203 z m -11.638672,0.58203 a 6,6 0 0 0 -0.04883,0.33203 6,6 0 0 1 0.04883,-0.33203 z m 11.78125,0 a 6,6 0 0 1 0.05078,0.32812 6,6 0 0 0 -0.05078,-0.32812 z m -11.863281,0.60156 A 6,6 0 0 0 54,522 a 6,6 0 0 1 0.02734,-0.51758 z m 11.947265,0.004 A 6,6 0 0 1 66,522 6,6 0 0 0 65.97461,521.48633 Z m -11.951171,1.00781 a 6,6 0 0 0 0.04297,0.35547 6,6 0 0 1 -0.04297,-0.35547 z m 11.951171,0.0195 a 6,6 0 0 1 -0.03711,0.29688 6,6 0 0 0 0.03711,-0.29688 z m -11.871093,0.57813 a 6,6 0 0 0 0.07227,0.32422 6,6 0 0 1 -0.07227,-0.32422 z m 11.791015,0.006 a 6,6 0 0 1 -0.07227,0.32617 6,6 0 0 0 0.07227,-0.32617 z m -0.138672,0.58203 a 6,6 0 0 1 -0.101562,0.31054 6,6 0 0 0 0.101562,-0.31054 z m -11.511718,0.002 a 6,6 0 0 0 0.09961,0.29883 6,6 0 0 1 -0.09961,-0.29883 z m 11.314453,0.56641 a 6,6 0 0 1 -0.125,0.27734 6,6 0 0 0 0.125,-0.27734 z m -11.111328,0.0117 a 6,6 0 0 0 0.111328,0.2539 6,6 0 0 1 -0.111328,-0.2539 z m 0.248046,0.53711 a 6,6 0 0 0 0.150391,0.26171 6,6 0 0 1 -0.150391,-0.26171 z m 10.605469,0.008 a 6,6 0 0 1 -0.140625,0.24609 6,6 0 0 0 0.140625,-0.24609 z M 65,525.30859 A 6,6 0 0 1 64.8125,525.57031 6,6 0 0 0 65,525.30859 Z m -9.994141,0.01 a 6,6 0 0 0 0.171875,0.24219 6,6 0 0 1 -0.171875,-0.24219 z m 0.347657,0.47266 a 6,6 0 0 0 0.208984,0.23828 6,6 0 0 1 -0.208984,-0.23828 z m 9.291015,0 a 6,6 0 0 1 -0.201172,0.23242 6,6 0 0 0 0.201172,-0.23242 z m -8.884765,0.44921 a 6,6 0 0 0 0.210937,0.19727 6,6 0 0 1 -0.210937,-0.19727 z m 8.480468,0 a 6,6 0 0 1 -0.216796,0.20313 6,6 0 0 0 0.216796,-0.20313 z m -0.449218,0.4043 a 6,6 0 0 1 -0.220704,0.16797 6,6 0 0 0 0.220704,-0.16797 z m -7.582032,0.002 a 6,6 0 0 0 0.230469,0.17579 6,6 0 0 1 -0.230469,-0.17579 z m 0.472657,0.34766 a 6,6 0 0 0 0.259765,0.16016 6,6 0 0 1 -0.259765,-0.16016 z M 63.308594,527 A 6,6 0 0 1 63.050781,527.16016 6,6 0 0 0 63.308594,527 Z m -0.503906,0.30078 a 6,6 0 0 1 -0.279297,0.13281 6,6 0 0 0 0.279297,-0.13281 z m -5.601563,0.004 a 6,6 0 0 0 0.283203,0.13672 6,6 0 0 1 -0.283203,-0.13672 z m 0.537109,0.24804 a 6,6 0 0 0 0.279297,0.10352 6,6 0 0 1 -0.279297,-0.10352 z m 4.507813,0.006 a 6,6 0 0 1 -0.257813,0.0957 6,6 0 0 0 0.257813,-0.0957 z m -3.929688,0.19727 a 6,6 0 0 0 0.265625,0.0684 6,6 0 0 1 -0.265625,-0.0684 z m 3.361329,0 a 6,6 0 0 1 -0.25586,0.0664 6,6 0 0 0 0.25586,-0.0664 z m -0.582032,0.13867 a 6,6 0 0 1 -0.287109,0.043 6,6 0 0 0 0.287109,-0.043 z m -2.189453,0.002 a 6,6 0 0 0 0.242188,0.0371 6,6 0 0 1 -0.242188,-0.0371 z m 0.597656,0.0801 A 6,6 0 0 0 60,528 6,6 0 0 1 59.505859,527.9766 Z"
       id="path4599"
       inkscape:connector-curvature="0" />
    <path
       style="display:inline;opacity:1;fill:#ffb300;fill-opacity:1;stroke:none;stroke-width:2;stroke-linecap:round;stroke-linejoin:round;stroke-miterlimit:4;stroke-dasharray:none;stroke-opacity:1;enable-background:new"
       d="M 64.23984,517.76016 60,522 v 6 a 6,6 0 0 0 6,-6 6,6 0 0 0 -1.76016,-4.23984 z"
       id="path4601"
       inkscape:connector-curvature="0" />
    <path
       inkscape:connector-curvature="0"
       id="path4602"
       d="M 55.76016,517.76016 60,522 v 6 a 6,6 0 0 1 -6,-6 6,6 0 0 1 1.76016,-4.23984 z"
       style="display:inline;opacity:1;fill:#9798e5;fill-opacity:1;stroke:none;stroke-width:2;stroke-linecap:round;stroke-linejoin:round;stroke-miterlimit:4;stroke-dasharray:none;stroke-opacity:1;enable-background:new" />
    <path
       inkscape:connector-curvature="0"
       id="path4603"
       d="m 60,516.00005 a 6,6 0 0 0 -6,6 6,6 0 0 0 0.02539,0.49805 6,6 0 0 1 5.97461,-5.49805 6,6 0 0 1 5.97461,5.50195 6,6 0 0 0 0.0254,-0.50195 6,6 0 0 0 -6,-6 z"
       style="display:inline;fill:#ffffff;fill-opacity:0.2;fill-rule:evenodd;stroke:none;stroke-width:0.75;enable-background:new" />
    <g
       id="g4618">
      <path
         inkscape:connector-curvature="0"
         id="circle4441"
         d="m 24,515 a 5,5 0 0 0 -3.533203,1.4668 L 24,520 27.533203,516.4668 A 5,5 0 0 0 24,515 Z m -3.533203,1.4668 a 5,5 0 0 0 -0.212891,0.23242 5,5 0 0 1 0.212891,-0.23242 z m -0.310547,0.34375 a 5,5 0 0 0 -0.207031,0.26953 5,5 0 0 1 0.207031,-0.26953 z m 7.6875,0 a 5,5 0 0 1 0.207031,0.26953 5,5 0 0 0 -0.207031,-0.26953 z m -7.996094,0.41211 a 5,5 0 0 0 -0.177734,0.29101 5,5 0 0 1 0.177734,-0.29101 z m 8.304688,0 a 5,5 0 0 1 0.177734,0.29101 5,5 0 0 0 -0.177734,-0.29101 z m -8.556641,0.42187 a 5,5 0 0 0 -0.144531,0.29492 5,5 0 0 1 0.144531,-0.29492 z m 8.808594,0 a 5,5 0 0 1 0.144531,0.29492 5,5 0 0 0 -0.144531,-0.29492 z m -9.025391,0.45508 a 5,5 0 0 0 -0.117187,0.32227 5,5 0 0 1 0.117187,-0.32227 z m 9.242188,0 a 5,5 0 0 1 0.117187,0.32227 5,5 0 0 0 -0.117187,-0.32227 z m -9.40625,0.46484 a 5,5 0 0 0 -0.08789,0.3418 5,5 0 0 1 0.08789,-0.3418 z m 9.570312,0 a 5,5 0 0 1 0.08789,0.3418 5,5 0 0 0 -0.08789,-0.3418 z m -9.689453,0.48633 a 5,5 0 0 0 -0.05078,0.31836 5,5 0 0 1 0.05078,-0.31836 z m 9.808594,0 a 5,5 0 0 1 0.05078,0.31836 5,5 0 0 0 -0.05078,-0.31836 z m -9.882813,0.50781 A 5,5 0 0 0 19,520 a 5,5 0 0 1 0.02148,-0.44141 z m 9.957032,0 A 5,5 0 0 1 29,520 5,5 0 0 0 28.97852,519.55859 Z m -9.957032,0.88282 a 5,5 0 0 0 0.02539,0.20898 5,5 0 0 1 -0.02539,-0.20898 z m 9.957032,0 a 5,5 0 0 1 -0.02539,0.20898 5,5 0 0 0 0.02539,-0.20898 z m -9.888672,0.48437 a 5,5 0 0 0 0.05273,0.23633 5,5 0 0 1 -0.05273,-0.23633 z m 9.820312,0 a 5,5 0 0 1 -0.05273,0.23633 5,5 0 0 0 0.05273,-0.23633 z m -9.707031,0.47852 a 5,5 0 0 0 0.08398,0.25 5,5 0 0 1 -0.08398,-0.25 z m 9.59375,0 a 5,5 0 0 1 -0.08398,0.25 5,5 0 0 0 0.08398,-0.25 z m -9.429687,0.4707 a 5,5 0 0 0 0.11914,0.26172 5,5 0 0 1 -0.11914,-0.26172 z m 9.265624,0 a 5,5 0 0 1 -0.11914,0.26172 5,5 0 0 0 0.11914,-0.26172 z m -9.060546,0.43945 a 5,5 0 0 0 0.144531,0.25391 5,5 0 0 1 -0.144531,-0.25391 z m 8.855468,0 a 5,5 0 0 1 -0.144531,0.25391 5,5 0 0 0 0.144531,-0.25391 z m -8.595703,0.44141 a 5,5 0 0 0 0.158203,0.2207 5,5 0 0 1 -0.158203,-0.2207 z m 8.335938,0 a 5,5 0 0 1 -0.158203,0.2207 5,5 0 0 0 0.158203,-0.2207 z m -8.041016,0.40039 a 5,5 0 0 0 0.173828,0.19922 5,5 0 0 1 -0.173828,-0.19922 z m 7.746094,0 a 5,5 0 0 1 -0.173828,0.19922 5,5 0 0 0 0.173828,-0.19922 z m -7.40625,0.37695 a 5,5 0 0 0 0.177734,0.16602 5,5 0 0 1 -0.177734,-0.16602 z m 7.066406,0 a 5,5 0 0 1 -0.177734,0.16602 5,5 0 0 0 0.177734,-0.16602 z m -6.689453,0.33985 a 5,5 0 0 0 0.179688,0.13672 5,5 0 0 1 -0.179688,-0.13672 z m 6.3125,0 a 5,5 0 0 1 -0.179688,0.13672 5,5 0 0 0 0.179688,-0.13672 z m -5.912109,0.29492 a 5,5 0 0 0 0.1875,0.11523 5,5 0 0 1 -0.1875,-0.11523 z m 5.511718,0 a 5,5 0 0 1 -0.1875,0.11523 5,5 0 0 0 0.1875,-0.11523 z m -5.070312,0.25976 a 5,5 0 0 0 0.177734,0.0859 5,5 0 0 1 -0.177734,-0.0859 z m 4.628906,0 a 5,5 0 0 1 -0.177734,0.0859 5,5 0 0 0 0.177734,-0.0859 z M 22.125,524.63281 a 5,5 0 0 0 0.220703,0.0801 5,5 0 0 1 -0.220703,-0.0801 z m 3.75,0 a 5,5 0 0 1 -0.220703,0.0801 5,5 0 0 0 0.220703,-0.0801 z m -3.279297,0.16407 a 5,5 0 0 0 0.242188,0.0605 5,5 0 0 1 -0.242188,-0.0605 z m 2.808594,0 a 5,5 0 0 1 -0.242188,0.0605 5,5 0 0 0 0.242188,-0.0605 z m -2.330078,0.11328 a 5,5 0 0 0 0.27539,0.043 5,5 0 0 1 -0.27539,-0.043 z m 1.851562,0 a 5,5 0 0 1 -0.27539,0.043 5,5 0 0 0 0.27539,-0.043 z m -1.367187,0.0684 A 5,5 0 0 0 24,525 5,5 0 0 1 23.558594,524.9785 Z"
         style="display:inline;opacity:1;fill:#bf1d37;fill-opacity:0.97890302;stroke:none;stroke-width:1.66666663;stroke-linecap:round;stroke-linejoin:round;stroke-miterlimit:4;stroke-dasharray:none;stroke-opacity:1;enable-background:new" />
      <path
         inkscape:connector-curvature="0"
         id="circle4591"
         d="M 27.533203,516.4668 24,520 v 5 a 5,5 0 0 0 5,-5 5,5 0 0 0 -1.466797,-3.5332 z"
         style="display:inline;opacity:1;fill:#ffb300;fill-opacity:1;stroke:none;stroke-width:1.66666663;stroke-linecap:round;stroke-linejoin:round;stroke-miterlimit:4;stroke-dasharray:none;stroke-opacity:1;enable-background:new" />
      <path
         style="display:inline;opacity:1;fill:#9798e5;fill-opacity:1;stroke:none;stroke-width:1.66666663;stroke-linecap:round;stroke-linejoin:round;stroke-miterlimit:4;stroke-dasharray:none;stroke-opacity:1;enable-background:new"
         d="M 20.466797,516.4668 24,520 v 5 a 5,5 0 0 1 -5,-5 5,5 0 0 1 1.466797,-3.5332 z"
         id="path4592"
         inkscape:connector-curvature="0" />
    </g>
    <circle
       style="display:inline;opacity:1;fill:#e2e5e7;fill-opacity:1;stroke:none;stroke-width:0.99999994;stroke-linecap:round;stroke-linejoin:round;stroke-miterlimit:4;stroke-dasharray:none;stroke-opacity:1;enable-background:new"
       id="circle4606"
       cx="24"
       cy="520"
       r="3" />
    <circle
       cy="522"
       cx="60"
       id="circle4608"
       style="display:inline;opacity:1;fill:#e2e5e7;fill-opacity:1;stroke:none;stroke-width:1;stroke-linecap:round;stroke-linejoin:round;stroke-miterlimit:4;stroke-dasharray:none;stroke-opacity:1;enable-background:new"
       r="3" />
    <circle
       style="display:inline;opacity:1;fill:#e2e5e7;fill-opacity:1;stroke:none;stroke-width:1;stroke-linecap:round;stroke-linejoin:round;stroke-miterlimit:4;stroke-dasharray:none;stroke-opacity:1;enable-background:new"
       id="circle4610"
       cx="96"
       cy="521"
       r="3" />
    <circle
       cy="520"
       cx="146"
       id="circle4631"
       style="display:inline;opacity:1;fill:#e2e5e7;fill-opacity:1;stroke:none;stroke-width:1.33333325;stroke-linecap:round;stroke-linejoin:round;stroke-miterlimit:4;stroke-dasharray:none;stroke-opacity:1;enable-background:new"
       r="4" />
    <circle
       style="display:inline;opacity:1;fill:#e2e5e7;fill-opacity:1;stroke:none;stroke-width:2;stroke-linecap:round;stroke-linejoin:round;stroke-miterlimit:4;stroke-dasharray:none;stroke-opacity:1;enable-background:new"
       id="circle4633"
       cx="206"
       cy="516"
       r="6" />
    <circle
       cy="514"
       cx="284"
       id="circle4635"
       style="display:inline;opacity:1;fill:#e2e5e7;fill-opacity:1;stroke:none;stroke-width:2.66666651;stroke-linecap:round;stroke-linejoin:round;stroke-miterlimit:4;stroke-dasharray:none;stroke-opacity:1;enable-background:new"
       r="8" />
    <circle
       style="display:inline;opacity:1;fill:#e2e5e7;fill-opacity:1;stroke:none;stroke-width:24;stroke-linecap:round;stroke-linejoin:round;stroke-miterlimit:4;stroke-dasharray:none;stroke-opacity:1;enable-background:new"
       id="circle4637"
       cx="714"
       cy="416"
       r="72" />
  </g>
</svg>
