<?xml version="1.0" encoding="UTF-8" standalone="no"?>
<!-- Created with Inkscape (http://www.inkscape.org/) -->

<svg
   xmlns:dc="http://purl.org/dc/elements/1.1/"
   xmlns:cc="http://creativecommons.org/ns#"
   xmlns:rdf="http://www.w3.org/1999/02/22-rdf-syntax-ns#"
   xmlns:svg="http://www.w3.org/2000/svg"
   xmlns="http://www.w3.org/2000/svg"
   xmlns:xlink="http://www.w3.org/1999/xlink"
   xmlns:sodipodi="http://sodipodi.sourceforge.net/DTD/sodipodi-0.dtd"
   xmlns:inkscape="http://www.inkscape.org/namespaces/inkscape"
   width="842"
   height="544"
   viewBox="0 0 842 544"
   version="1.1"
   id="svg1087"
   inkscape:version="0.92.1 r"
   sodipodi:docname="hydrogen.svg">
  <defs
     id="defs1081">
    <linearGradient
       id="linearGradient4540"
       inkscape:collect="always">
      <stop
         id="stop4536"
         offset="0"
         style="stop-color:#ffffff;stop-opacity:0.05490196" />
      <stop
         id="stop4538"
         offset="1"
         style="stop-color:#177ed5;stop-opacity:0;" />
    </linearGradient>
    <linearGradient
       id="linearGradient4534"
       inkscape:collect="always">
      <stop
         id="stop4530"
         offset="0"
         style="stop-color:#ffffff;stop-opacity:0.05490196" />
      <stop
         id="stop4532"
         offset="1"
         style="stop-color:#177ed5;stop-opacity:0;" />
    </linearGradient>
    <filter
       inkscape:collect="always"
       style="color-interpolation-filters:sRGB"
       id="filter5087"
       x="-0.048"
       width="1.096"
       y="-0.048"
       height="1.096">
      <feGaussianBlur
         inkscape:collect="always"
         stdDeviation="0.8"
         id="feGaussianBlur5089" />
    </filter>
    <linearGradient
       inkscape:collect="always"
       xlink:href="#linearGradient4534"
       id="linearGradient4347"
       gradientUnits="userSpaceOnUse"
       gradientTransform="matrix(0.47825838,0,0,0.47826068,78.5218,24.1749)"
       x1="7"
       y1="1011.3622"
       x2="41.000019"
       y2="1045.3622" />
    <linearGradient
       inkscape:collect="always"
       id="linearGradient4165">
      <stop
         style="stop-color:#ffffff;stop-opacity:0.05490196"
         offset="0"
         id="stop4167" />
      <stop
         style="stop-color:#177ed5;stop-opacity:0;"
         offset="1"
         id="stop4169" />
    </linearGradient>
    <linearGradient
       inkscape:collect="always"
       xlink:href="#linearGradient4540"
       id="linearGradient4435"
       gradientUnits="userSpaceOnUse"
       gradientTransform="matrix(0.65217041,0,0,0.65217328,122.3479,-158.67021)"
       x1="7"
       y1="1011.3622"
       x2="41.000019"
       y2="1045.3622" />
    <linearGradient
       inkscape:collect="always"
       xlink:href="#linearGradient4165"
       id="linearGradient4171-1-0"
       x1="7"
       y1="1011.3622"
       x2="41.000019"
       y2="1045.3622"
       gradientUnits="userSpaceOnUse"
       gradientTransform="matrix(0.95652174,0,0,0.95652174,171.04353,-479.6505)" />
    <linearGradient
       inkscape:collect="always"
       xlink:href="#linearGradient4165-3"
       id="linearGradient4449-0"
       gradientUnits="userSpaceOnUse"
       gradientTransform="matrix(10.43473,0,0,10.434772,319.56525,-10458.721)"
       x1="7"
       y1="1011.3622"
       x2="41.000019"
       y2="1045.3622" />
    <linearGradient
       inkscape:collect="always"
       id="linearGradient4165-3">
      <stop
         style="stop-color:#ffffff;stop-opacity:0.05490196"
         offset="0"
         id="stop4167-6" />
      <stop
         style="stop-color:#177ed5;stop-opacity:0;"
         offset="1"
         id="stop4169-7" />
    </linearGradient>
    <linearGradient
       inkscape:collect="always"
       xlink:href="#linearGradient4165-3"
       id="linearGradient4535"
       gradientUnits="userSpaceOnUse"
       gradientTransform="matrix(1.3043412,0,0,1.3043465,234.69566,-845.3401)"
       x1="7"
       y1="1011.3622"
       x2="41.000019"
       y2="1045.3622" />
    <filter
       inkscape:collect="always"
       style="color-interpolation-filters:sRGB"
       id="filter4553"
       x="-0.012"
       width="1.024"
       y="-0.012"
       height="1.024">
      <feGaussianBlur
         inkscape:collect="always"
         stdDeviation="0.2"
         id="feGaussianBlur4555" />
    </filter>
    <filter
       inkscape:collect="always"
       style="color-interpolation-filters:sRGB"
       id="filter4559"
       x="-0.012"
       width="1.024"
       y="-0.012"
       height="1.024">
      <feGaussianBlur
         inkscape:collect="always"
         stdDeviation="0.28"
         id="feGaussianBlur4561" />
    </filter>
    <filter
       inkscape:collect="always"
       style="color-interpolation-filters:sRGB"
       id="filter4573"
       x="-0.024"
       width="1.048"
       y="-0.024"
       height="1.048">
      <feGaussianBlur
         inkscape:collect="always"
         stdDeviation="4.48"
         id="feGaussianBlur4575" />
    </filter>
    <linearGradient
       inkscape:collect="always"
       xlink:href="#linearGradient4534"
       id="linearGradient4554"
       gradientUnits="userSpaceOnUse"
       gradientTransform="matrix(0.47825838,0,0,0.47826068,43.5218,25.1749)"
       x1="7"
       y1="1011.3622"
       x2="41.000019"
       y2="1045.3622" />
  </defs>
  <sodipodi:namedview
     id="base"
     pagecolor="#c3c3c3"
     bordercolor="#333333"
     borderopacity="1"
     inkscape:pageopacity="0"
     inkscape:pageshadow="2"
     inkscape:zoom="0.175"
     inkscape:cx="-283.53704"
     inkscape:cy="279.53874"
     inkscape:document-units="px"
     inkscape:current-layer="layer2"
     showgrid="false"
     units="px"
     inkscape:showpageshadow="false"
     inkscape:window-width="1280"
     inkscape:window-height="1369"
     inkscape:window-x="1280"
     inkscape:window-y="35"
     inkscape:window-maximized="0">
    <inkscape:grid
       type="xygrid"
       id="grid4630" />
  </sodipodi:namedview>
  <metadata
     id="metadata1084">
    <rdf:RDF>
      <cc:Work
         rdf:about="">
        <dc:format>image/svg+xml</dc:format>
        <dc:type
           rdf:resource="http://purl.org/dc/dcmitype/StillImage" />
        <dc:title></dc:title>
        <cc:license
           rdf:resource="http://creativecommons.org/licenses/by-sa/4.0/" />
        <dc:creator>
          <cc:Agent>
            <dc:title>Peter Cornelis</dc:title>
          </cc:Agent>
        </dc:creator>
      </cc:Work>
      <cc:License
         rdf:about="http://creativecommons.org/licenses/by-sa/4.0/">
        <cc:permits
           rdf:resource="http://creativecommons.org/ns#Reproduction" />
        <cc:permits
           rdf:resource="http://creativecommons.org/ns#Distribution" />
        <cc:requires
           rdf:resource="http://creativecommons.org/ns#Notice" />
        <cc:requires
           rdf:resource="http://creativecommons.org/ns#Attribution" />
        <cc:permits
           rdf:resource="http://creativecommons.org/ns#DerivativeWorks" />
        <cc:requires
           rdf:resource="http://creativecommons.org/ns#ShareAlike" />
      </cc:License>
    </rdf:RDF>
  </metadata>
  <g
     inkscape:label="Baseplate"
     inkscape:groupmode="layer"
     id="layer1"
     transform="translate(0,-153.06668)"
     style="display:none">
    <rect
       style="display:inline;overflow:visible;visibility:visible;fill:#fefefe;fill-opacity:1;fill-rule:nonzero;stroke:none;stroke-width:2;marker:none;enable-background:accumulate"
       id="rect3951"
       width="512"
       height="512"
       x="-826"
       y="169.06668"
       inkscape:label="48x48"
       transform="scale(-1,1)" />
    <text
       y="733.32251"
       xml:space="preserve"
       x="15.006836"
       style="font-style:normal;font-variant:normal;font-weight:normal;font-stretch:normal;line-height:0%;font-family:'DejaVu Sans';-inkscape-font-specification:'DejaVu Sans';display:inline;fill:#000000;fill-opacity:1;stroke:none;enable-background:new"
       inkscape:label="context"
       id="context"><tspan
         style="font-style:normal;font-variant:normal;font-weight:normal;font-stretch:normal;font-size:18px;line-height:1.25;font-family:'DejaVu Sans';-inkscape-font-specification:'DejaVu Sans'"
         y="733.32251"
         x="15.006836"
         sodipodi:role="line"
         id="tspan3933">apps</tspan></text>
    <text
       y="733.32251"
       xml:space="preserve"
       x="142.48828"
       style="font-style:normal;font-variant:normal;font-weight:bold;font-stretch:normal;line-height:0%;font-family:'DejaVu Sans';-inkscape-font-specification:'DejaVu Sans Bold';text-align:start;writing-mode:lr-tb;text-anchor:start;display:inline;fill:#000000;fill-opacity:1;stroke:none;enable-background:new"
       inkscape:label="icon-name"
       id="icon-name"><tspan
         style="font-style:normal;font-variant:normal;font-weight:bold;font-stretch:normal;font-size:18px;line-height:1.25;font-family:'DejaVu Sans';-inkscape-font-specification:'DejaVu Sans Bold'"
         y="733.32251"
         x="142.48828"
         sodipodi:role="line"
         id="tspan3937">hydrogen</tspan></text>
    <rect
       style="display:inline;overflow:visible;visibility:visible;fill:#fefefe;fill-opacity:1;fill-rule:nonzero;stroke:none;stroke-width:2;marker:none;enable-background:accumulate"
       id="rect16x16"
       width="16"
       height="16"
       x="-32"
       y="665.06665"
       inkscape:label="16x16"
       transform="scale(-1,1)" />
    <rect
       style="display:inline;overflow:visible;visibility:visible;fill:#fefefe;fill-opacity:1;fill-rule:nonzero;stroke:none;stroke-width:2;marker:none;enable-background:accumulate"
       id="rect24x24"
       width="24"
       height="24"
       x="-102"
       y="657.06665"
       inkscape:label="24x24"
       transform="scale(-1,1)" />
    <rect
       style="display:inline;overflow:visible;visibility:visible;fill:#fefefe;fill-opacity:1;fill-rule:nonzero;stroke:none;stroke-width:2;marker:none;enable-background:accumulate"
       id="rect32x32"
       width="32"
       height="32"
       x="-154"
       y="649.06665"
       inkscape:label="32x32"
       transform="scale(-1,1)" />
    <rect
       inkscape:label="48x48"
       y="633.06665"
       x="-218"
       height="48"
       width="48"
       id="rect48x48"
       style="display:inline;overflow:visible;visibility:visible;fill:#fefefe;fill-opacity:1;fill-rule:nonzero;stroke:none;stroke-width:2;marker:none;enable-background:accumulate"
       transform="scale(-1,1)" />
    <rect
       transform="scale(-1,1)"
       inkscape:label="48x48"
       y="617.06665"
       x="-298"
       height="64"
       width="64"
       id="rect4524"
       style="display:inline;overflow:visible;visibility:visible;fill:#fefefe;fill-opacity:1;fill-rule:nonzero;stroke:none;stroke-width:0.25;marker:none;enable-background:accumulate" />
    <rect
       transform="scale(-1,1)"
       inkscape:label="24x24"
       y="659.06665"
       x="-66"
       height="22"
       width="22"
       id="rect4543"
       style="display:inline;overflow:visible;visibility:visible;fill:#fefefe;fill-opacity:1;fill-rule:nonzero;stroke:none;stroke-width:1.83333325;marker:none;enable-background:accumulate" />
  </g>
  <g
     inkscape:groupmode="layer"
     id="layer2"
     inkscape:label="Bitmap"
     style="display:inline">
    <path
       inkscape:connector-curvature="0"
       id="path4551"
       d="m 177,485 c -1.662,0 -3,1.338 -3,3 v 7.91992 18.19141 V 522 c 0,1.662 1.338,3 3,3 h 7.91992 18.17969 H 211 c 1.662,0 3,-1.338 3,-3 V 514.07812 495.89258 488 c 0,-1.662 -1.338,-3 -3,-3 h -7.91992 -18.17969 z"
       style="display:inline;fill:#000000;fill-opacity:0.2;stroke:none;stroke-width:2;stroke-linecap:round;stroke-linejoin:round;stroke-miterlimit:4;stroke-dasharray:none;stroke-opacity:1;filter:url(#filter4553);enable-background:new" />
    <path
       sodipodi:nodetypes="sscsscsscsscs"
       inkscape:connector-curvature="0"
       id="path5069"
       d="m 169,485 c -1.66505,0 -3,1.2912 -3,3 v 17 17 c 0,1.8617 1.34224,3 3,3 h 17 17 c 1.73784,0 3,-1.2767 3,-3 v -17 -17 c 0,-1.6942 -1.29127,-3 -3,-3 h -17 z"
       style="display:inline;fill:none;fill-opacity:0.5;stroke:none;stroke-width:2;stroke-linecap:round;stroke-linejoin:round;stroke-miterlimit:4;stroke-dasharray:none;stroke-opacity:1;filter:url(#filter5087);enable-background:new" />
    <path
       style="display:inline;fill:none;fill-opacity:0.5;stroke:none;stroke-width:2;stroke-linecap:round;stroke-linejoin:round;stroke-miterlimit:4;stroke-dasharray:none;stroke-opacity:1;filter:url(#filter5087);enable-background:new"
       d="m 169,485 c -1.66505,0 -3,1.2912 -3,3 v 17 17 c 0,1.8617 1.34224,3 3,3 h 17 17 c 1.73784,0 3,-1.2767 3,-3 v -17 -17 c 0,-1.6942 -1.29127,-3 -3,-3 h -17 z"
       id="path4506"
       inkscape:connector-curvature="0"
       sodipodi:nodetypes="sscsscsscsscs" />
    <path
       inkscape:connector-curvature="0"
       id="path4543"
       d="m 82,507 c -1.108,0 -2,0.892 -2,2 v 3.46094 9.09375 V 525 c 0,1.108 0.892,2 2,2 H 85.460938 94.550781 98 c 1.108,0 2,-0.892 2,-2 V 521.53906 512.44531 509 c 0,-1.108 -0.892,-2 -2,-2 h -3.460938 -9.089843 z"
       style="display:inline;fill:#000000;fill-opacity:0.2;stroke:none;stroke-width:2;stroke-linecap:round;stroke-linejoin:round;stroke-miterlimit:4;stroke-dasharray:none;stroke-opacity:1;enable-background:new" />
    <rect
       ry="2"
       rx="2"
       y="-100"
       x="-526"
       height="20"
       width="20"
       id="rect4243"
       style="display:inline;fill:#d4d8e3;fill-opacity:1;stroke:none;enable-background:new"
       transform="matrix(0,-1,-1,0,0,0)" />
    <rect
       transform="matrix(0,-1,-1,0,0,0)"
       style="display:inline;fill:#d4d8e3;fill-opacity:1;stroke:none;enable-background:new"
       id="rect4203"
       width="40"
       height="40"
       x="-524"
       y="-214"
       rx="3"
       ry="3" />
    <path
       inkscape:connector-curvature="0"
       id="path4547"
       d="m 127,499 c -1.662,0 -3,1.338 -3,3 v 5.66211 10.67578 V 524 c 0,1.662 1.338,3 3,3 h 5.6875 10.64844 H 149 c 1.662,0 3,-1.338 3,-3 V 518.33789 507.66602 502 c 0,-1.662 -1.338,-3 -3,-3 h -5.6875 -10.64844 z"
       style="display:inline;fill:#000000;fill-opacity:0.2;stroke:none;stroke-width:2;stroke-linecap:round;stroke-linejoin:round;stroke-miterlimit:4;stroke-dasharray:none;stroke-opacity:1;enable-background:new" />
    <rect
       transform="matrix(0,-1,-1,0,0,0)"
       style="display:inline;fill:#d4d8e3;fill-opacity:1;stroke:none;enable-background:new"
       id="rect4255"
       width="28"
       height="28"
       x="-526"
       y="-152"
       rx="3"
       ry="3" />
    <rect
       transform="matrix(0,-1,-1,0,0,0)"
       style="display:inline;fill:#d4d8e3;fill-opacity:1;stroke:none;enable-background:new"
       id="rect4265"
       width="16"
       height="16"
       x="-528"
       y="-32"
       rx="2"
       ry="2" />
    <path
       style="display:inline;fill:#000000;fill-opacity:0.2;stroke:none;stroke-width:16;stroke-linecap:round;stroke-linejoin:round;stroke-miterlimit:4;stroke-dasharray:none;stroke-opacity:1;filter:url(#filter4573);enable-background:new"
       d="m 382,50 c -19.944,0 -36,16.056 -36,36 V 188.5918 359.37695 462 c 0,19.944 16.056,36 36,36 H 484.98242 655.36523 758 c 19.944,0 36,-16.056 36,-36 V 359.39648 188.6543 86 C 794,66.056 777.944,50 758,50 H 655.00586 484.625 Z"
       id="path4567"
       inkscape:connector-curvature="0" />
    <path
       inkscape:connector-curvature="0"
       id="path4563"
       d="m 382,50 c -19.944,0 -36,16.056 -36,36 V 188.5918 359.37695 462 c 0,19.944 16.056,36 36,36 H 484.98242 655.36523 758 c 19.944,0 36,-16.056 36,-36 V 359.39648 188.6543 86 C 794,66.056 777.944,50 758,50 H 655.00586 484.625 Z"
       style="display:inline;fill:#000000;fill-opacity:0.2;stroke:none;stroke-width:16;stroke-linecap:round;stroke-linejoin:round;stroke-miterlimit:4;stroke-dasharray:none;stroke-opacity:1;enable-background:new" />
    <rect
       ry="36"
       rx="36"
       y="-794"
       x="-496"
       height="448"
       width="448"
       id="rect4229"
       style="display:inline;fill:#d4d8e3;fill-opacity:1;stroke:none;enable-background:new"
       transform="matrix(0,-1,-1,0,0,0)" />
    <path
       id="path4507"
       d="m 346,86 v -2 c 0,-19.944 16.056,-36 36,-36 h 376 c 19.944,0 36,16.056 36,36 v 2 C 794,66.056 777.944,50 758,50 H 382 c -19.944,0 -36,16.056 -36,36 z"
       style="display:inline;fill:#ffffff;fill-opacity:0.2;stroke:none;enable-background:new"
       inkscape:connector-curvature="0" />
    <path
       id="path4514"
       d="m 174,488 v -1 c 0,-1.662 1.338,-3 3,-3 h 34 c 1.662,0 3,1.338 3,3 v 1 c 0,-1.662 -1.338,-3 -3,-3 h -34 c -1.662,0 -3,1.338 -3,3 z"
       style="display:inline;fill:#ffffff;fill-opacity:0.2;stroke:none;enable-background:new"
       inkscape:connector-curvature="0" />
    <path
       id="path4521"
       d="m 124,502 v -1 c 0,-1.662 1.338,-3 3,-3 h 22 c 1.662,0 3,1.338 3,3 v 1 c 0,-1.662 -1.338,-3 -3,-3 h -22 c -1.662,0 -3,1.338 -3,3 z"
       style="display:inline;fill:#fafafa;fill-opacity:0.2;stroke:none;enable-background:new"
       inkscape:connector-curvature="0" />
    <path
       id="path4528"
       d="m 80,509 v -1 c 0,-1.108 0.892,-2 2,-2 h 16 c 1.108,0 2,0.892 2,2 v 1 c 0,-1.108 -0.892,-2 -2,-2 H 82 c -1.108,0 -2,0.892 -2,2 z"
       style="display:inline;fill:#ffffff;fill-opacity:0.2;stroke:none;enable-background:new"
       inkscape:connector-curvature="0" />
    <path
       style="display:inline;fill:url(#linearGradient4171-1-0);fill-opacity:1;stroke:none;stroke-width:2;stroke-linecap:round;stroke-linejoin:round;stroke-miterlimit:4;stroke-dasharray:none;stroke-opacity:1;enable-background:new"
       d="m 177,484 c -1.662,0 -3,1.338 -3,3 v 7.91992 18.19141 V 521 c 0,1.662 1.338,3 3,3 h 7.91992 18.17969 H 211 c 1.662,0 3,-1.338 3,-3 V 513.07812 494.89258 487 c 0,-1.662 -1.338,-3 -3,-3 h -7.91992 -18.17969 z"
       id="circle4163-3-4"
       inkscape:connector-curvature="0" />
    <path
       style="display:inline;fill:url(#linearGradient4347);fill-opacity:1;stroke:none;stroke-width:2;stroke-linecap:round;stroke-linejoin:round;stroke-miterlimit:4;stroke-dasharray:none;stroke-opacity:1;enable-background:new"
       d="m 82,506 c -1.108,0 -2,0.892 -2,2 v 3.46094 9.09375 V 524 c 0,1.108 0.892,2 2,2 H 85.460938 94.550781 98 c 1.108,0 2,-0.892 2,-2 V 520.53906 511.44531 508 c 0,-1.108 -0.892,-2 -2,-2 h -3.460938 -9.089843 z"
       id="path4345"
       inkscape:connector-curvature="0" />
    <path
       style="display:inline;fill:url(#linearGradient4435);fill-opacity:1;stroke:none;stroke-width:2;stroke-linecap:round;stroke-linejoin:round;stroke-miterlimit:4;stroke-dasharray:none;stroke-opacity:1;enable-background:new"
       d="m 127,498 c -1.662,0 -3,1.338 -3,3 v 5.66211 10.67578 V 523 c 0,1.662 1.338,3 3,3 h 5.6875 10.64844 H 149 c 1.662,0 3,-1.338 3,-3 V 517.33789 506.66602 501 c 0,-1.662 -1.338,-3 -3,-3 h -5.6875 -10.64844 z"
       id="path4433"
       inkscape:connector-curvature="0" />
    <path
       style="display:inline;fill:url(#linearGradient4449-0);fill-opacity:1;stroke:none;stroke-width:16;stroke-linecap:round;stroke-linejoin:round;stroke-miterlimit:4;stroke-dasharray:none;stroke-opacity:1;enable-background:new"
       d="m 382,48 c -19.944,0 -36,16.056 -36,36 V 186.5918 357.37695 460 c 0,19.944 16.056,36 36,36 H 484.98242 655.36523 758 c 19.944,0 36,-16.056 36,-36 V 357.39648 186.6543 84 C 794,64.056 777.944,48 758,48 H 655.00586 484.625 Z"
       id="path4447"
       inkscape:connector-curvature="0" />
    <path
       style="display:inline;fill:#000000;fill-opacity:0.2;stroke:none;stroke-width:2;stroke-linecap:round;stroke-linejoin:round;stroke-miterlimit:4;stroke-dasharray:none;stroke-opacity:1;filter:url(#filter4559);enable-background:new"
       d="m 242.5,469 c -2.493,0 -4.5,2.007 -4.5,4.5 V 486.32398 507.67212 520.5 c 0,2.493 2.007,4.5 4.5,4.5 H 255.3728 276.67065 289.5 c 2.493,0 4.5,-2.007 4.5,-4.5 V 507.67456 486.33179 473.5 c 0,-2.493 -2.007,-4.5 -4.5,-4.5 h -12.87427 -21.29761 z"
       id="path4557"
       inkscape:connector-curvature="0" />
    <rect
       transform="matrix(0,-1,-1,0,0,0)"
       style="display:inline;fill:#d4d8e3;fill-opacity:1;stroke:none;stroke-width:0.125;enable-background:new"
       id="rect4526"
       width="56"
       height="56"
       x="-524"
       y="-294"
       rx="4.5"
       ry="4.5" />
    <path
       style="display:inline;fill:#ffffff;fill-opacity:0.2;stroke:none;stroke-width:0.125;enable-background:new"
       d="m 242.5,468 c -2.493,0 -4.5,2.007 -4.5,4.5 v 1 c 0,-2.493 2.007,-4.5 4.5,-4.5 h 47 c 2.493,0 4.5,2.007 4.5,4.5 v -1 c 0,-2.493 -2.007,-4.5 -4.5,-4.5 z"
       id="rect4537"
       inkscape:connector-curvature="0" />
    <path
       inkscape:connector-curvature="0"
       id="path4533"
       d="m 242.5,468 c -2.493,0 -4.5,2.007 -4.5,4.5 V 485.32398 506.67212 519.5 c 0,2.493 2.007,4.5 4.5,4.5 H 255.3728 276.67065 289.5 c 2.493,0 4.5,-2.007 4.5,-4.5 V 506.67456 485.33179 472.5 c 0,-2.493 -2.007,-4.5 -4.5,-4.5 h -12.87427 -21.29761 z"
       style="display:inline;fill:url(#linearGradient4535);fill-opacity:1;stroke:none;stroke-width:2;stroke-linecap:round;stroke-linejoin:round;stroke-miterlimit:4;stroke-dasharray:none;stroke-opacity:1;enable-background:new" />
    <path
       style="display:inline;fill:#000000;fill-opacity:0.2;stroke:none;stroke-width:2;stroke-linecap:round;stroke-linejoin:round;stroke-miterlimit:4;stroke-dasharray:none;stroke-opacity:1;enable-background:new"
       d="m 47,508 c -1.108,0 -2,0.892 -2,2 v 3.46094 9.09375 V 526 c 0,1.108 0.892,2 2,2 H 50.460938 59.550781 63 c 1.108,0 2,-0.892 2,-2 V 522.53906 513.44531 510 c 0,-1.108 -0.892,-2 -2,-2 h -3.460938 -9.089843 z"
       id="path4545"
       inkscape:connector-curvature="0" />
    <rect
       transform="matrix(0,-1,-1,0,0,0)"
       style="display:inline;fill:#d4d8e3;fill-opacity:1;stroke:none;enable-background:new"
       id="rect4547"
       width="20"
       height="20"
       x="-527"
       y="-65"
       rx="2"
       ry="2" />
    <path
       inkscape:connector-curvature="0"
       style="display:inline;fill:#ffffff;fill-opacity:0.2;stroke:none;enable-background:new"
       d="m 45,510 v -1 c 0,-1.108 0.892,-2 2,-2 h 16 c 1.108,0 2,0.892 2,2 v 1 c 0,-1.108 -0.892,-2 -2,-2 H 47 c -1.108,0 -2,0.892 -2,2 z"
       id="path4549" />
    <path
       style="opacity:1;fill:#34487c;fill-opacity:1;stroke:none;stroke-opacity:1"
       d="M 18.5 514 C 18.223 514 18 514.223 18 514.5 L 18 519.5 L 18 520.5 L 18 525.5 C 18 525.777 18.223 526 18.5 526 L 19.5 526 C 19.777 526 20 525.777 20 525.5 L 20 521 L 22 521 L 22 525.5 C 22 525.777 22.223 526 22.5 526 L 29.5 526 C 29.777 526 30 525.777 30 525.5 L 30 514.5 C 30 514.223 29.777 514 29.5 514 L 22.5 514 C 22.223 514 22 514.223 22 514.5 L 22 519 L 20 519 L 20 514.5 C 20 514.223 19.777 514 19.5 514 L 18.5 514 z "
       id="rect4784" />
    <path
       style="opacity:1;fill:#34487c;fill-opacity:1;stroke:none;stroke-opacity:1"
       d="M 48 509 C 47.446 509 47 509.446 47 510 L 47 524 C 47 524.554 47.446 525 48 525 L 49 525 C 49.554 525 50 524.554 50 524 L 50 519 L 53 519 L 53 524 C 53 524.554 53.446 525 54 525 L 62 525 C 62.554 525 63 524.554 63 524 L 63 510 C 63 509.446 62.554 509 62 509 L 54 509 C 53.446 509 53 509.446 53 510 L 53 515 L 50 515 L 50 510 C 50 509.446 49.554 509 49 509 L 48 509 z "
       id="rect4746" />
    <path
       style="opacity:1;fill:#f5f5f5;fill-opacity:1;stroke:none;stroke-opacity:1"
       d="M 55.5 511 C 55.223 511 55 511.223 55 511.5 L 55 512.5 C 55 512.777 55.223 513 55.5 513 L 59 513 L 59 516 L 55.5 516 C 55.223 516 55 516.223 55 516.5 L 55 517.5 L 55 521.5 L 55 522.5 C 55 522.777 55.223 523 55.5 523 L 56.5 523 L 60.5 523 C 60.777 523 61 522.777 61 522.5 L 61 521.5 C 61 521.223 60.777 521 60.5 521 L 57 521 L 57 518 L 60.5 518 C 60.777 518 61 517.777 61 517.5 L 61 516.5 L 61 512.5 L 61 511.5 C 61 511.223 60.777 511 60.5 511 L 55.5 511 z "
       id="rect4764" />
    <path
       inkscape:connector-curvature="0"
       id="path4552"
       d="m 47,507 c -1.108,0 -2,0.892 -2,2 v 3.46094 9.09375 V 525 c 0,1.108 0.892,2 2,2 H 50.460938 59.550781 63 c 1.108,0 2,-0.892 2,-2 V 521.53906 512.44531 509 c 0,-1.108 -0.892,-2 -2,-2 h -3.460938 -9.089843 z"
       style="display:inline;fill:url(#linearGradient4554);fill-opacity:1;stroke:none;stroke-width:2;stroke-linecap:round;stroke-linejoin:round;stroke-miterlimit:4;stroke-dasharray:none;stroke-opacity:1;enable-background:new" />
    <path
       id="path4776"
       d="m 83,508 c -0.554,0 -1,0.446 -1,1 v 14 c 0,0.554 0.446,1 1,1 h 1 c 0.554,0 1,-0.446 1,-1 v -5 h 3 v 5 c 0,0.554 0.446,1 1,1 h 8 c 0.554,0 1,-0.446 1,-1 v -14 c 0,-0.554 -0.446,-1 -1,-1 h -8 c -0.554,0 -1,0.446 -1,1 v 5 h -3 v -5 c 0,-0.554 -0.446,-1 -1,-1 z"
       style="opacity:1;fill:#34487c;fill-opacity:1;stroke:none;stroke-opacity:1"
       inkscape:connector-curvature="0" />
    <path
       id="path4778"
       d="m 90.5,510 c -0.277,0 -0.5,0.223 -0.5,0.5 v 1 c 0,0.277 0.223,0.5 0.5,0.5 H 94 v 3 h -3.5 c -0.277,0 -0.5,0.223 -0.5,0.5 v 1 4 1 c 0,0.277 0.223,0.5 0.5,0.5 h 1 4 c 0.277,0 0.5,-0.223 0.5,-0.5 v -1 C 96,520.223 95.777,520 95.5,520 H 92 v -3 h 3.5 c 0.277,0 0.5,-0.223 0.5,-0.5 v -1 -4 -1 c 0,-0.277 -0.223,-0.5 -0.5,-0.5 z"
       style="opacity:1;fill:#f5f5f5;fill-opacity:1;stroke:none;stroke-opacity:1"
       inkscape:connector-curvature="0" />
    <path
       style="opacity:1;fill:#ffffff;fill-opacity:1;stroke:none;stroke-opacity:1"
       d="M 23.5 515 C 23.223 515 23 515.223 23 515.5 L 23 516.5 C 23 516.777 23.223 517 23.5 517 L 27 517 L 27 519 L 24.5 519 L 23.5 519 C 23.223 519 23 519.223 23 519.5 L 23 520.5 L 23 523.5 L 23 524.5 C 23 524.777 23.223 525 23.5 525 L 28.5 525 C 28.777 525 29 524.777 29 524.5 L 29 523.5 C 29 523.223 28.777 523 28.5 523 L 25 523 L 25 521 L 27.5 521 L 28.5 521 C 28.777 521 29 520.777 29 520.5 L 29 519.5 L 29 516.5 L 29 515.5 C 29 515.223 28.777 515 28.5 515 L 27.5 515 L 23.5 515 z "
       id="rect4789" />
    <path
       inkscape:connector-curvature="0"
       style="opacity:1;fill:#34487c;fill-opacity:1;stroke:none;stroke-width:2;stroke-opacity:1"
       d="m 180,488.00003 c -1.108,0 -2,0.892 -2,2 v 28 c 0,1.108 0.892,2 2,2 h 2 c 1.108,0 2,-0.892 2,-2 v -10 h 6 v 10 c 0,1.108 0.892,2 2,2 h 16 c 1.108,0 2,-0.892 2,-2 v -28 c 0,-1.108 -0.892,-2 -2,-2 h -16 c -1.108,0 -2,0.892 -2,2 v 10 h -6 v -10 c 0,-1.108 -0.892,-2 -2,-2 z"
       id="path4801" />
    <path
       inkscape:connector-curvature="0"
       style="opacity:1;fill:#f5f5f5;fill-opacity:1;stroke:none;stroke-width:2;stroke-opacity:1"
       d="m 195,492.00003 c -0.554,0 -1,0.446 -1,1 v 2 c 0,0.554 0.446,1 1,1 h 7 v 6 h -7 c -0.554,0 -1,0.446 -1,1 v 2 8 2 c 0,0.554 0.446,1 1,1 h 2 8 c 0.554,0 1,-0.446 1,-1 v -2 c 0,-0.554 -0.446,-1 -1,-1 h -7 v -6 h 7 c 0.554,0 1,-0.446 1,-1 v -2 -8 -2 c 0,-0.554 -0.446,-1 -1,-1 z"
       id="path4803" />
    <path
       style="opacity:1;fill:#34487c;fill-opacity:1;stroke:none;stroke-opacity:1"
       d="M 128 501 C 127.446 501 127 501.446 127 502 L 127 522 C 127 522.554 127.446 523 128 523 L 130 523 C 130.554 523 131 522.554 131 522 L 131 514 L 135 514 L 135 522 C 135 522.554 135.446 523 136 523 L 148 523 C 148.554 523 149 522.554 149 522 L 149 502 C 149 501.446 148.554 501 148 501 L 136 501 C 135.446 501 135 501.446 135 502 L 135 510 L 131 510 L 131 502 C 131 501.446 130.554 501 130 501 L 128 501 z "
       id="rect4811" />
    <path
       style="opacity:1;fill:#f5f5f5;fill-opacity:1;stroke:none;stroke-opacity:1"
       d="M 138 503 C 137.446 503 137 503.446 137 504 L 137 506 C 137 506.554 137.446 507 138 507 L 143 507 L 143 510 L 138 510 C 137.446 510 137 510.446 137 511 L 137 513 L 137 518 L 137 520 C 137 520.554 137.446 521 138 521 L 146 521 C 146.554 521 147 520.554 147 520 L 147 518 C 147 517.446 146.554 517 146 517 L 141 517 L 141 514 L 146 514 C 146.554 514 147 513.554 147 513 L 147 512 L 147 511 L 147 506 L 147 504 C 147 503.446 146.554 503 146 503 L 144 503 L 138 503 z "
       id="rect4822" />
    <path
       id="path4834"
       d="m 246,474.00003 c -1.108,0 -2,0.892 -2,2 v 40 c 0,1.108 0.892,2 2,2 h 4 c 1.108,0 2,-0.892 2,-2 v -16 h 8 v 16 c 0,1.108 0.892,2 2,2 h 24 c 1.108,0 2,-0.892 2,-2 v -40 c 0,-1.108 -0.892,-2 -2,-2 h -24 c -1.108,0 -2,0.892 -2,2 v 16 h -8 v -16 c 0,-1.108 -0.892,-2 -2,-2 z"
       style="opacity:1;fill:#34487c;fill-opacity:1;stroke:none;stroke-width:2;stroke-opacity:1"
       inkscape:connector-curvature="0" />
    <path
       style="opacity:1;fill:#f5f5f5;fill-opacity:1;stroke:none;stroke-opacity:1"
       d="M 265 478 C 264.446 478 264 478.446 264 479 L 264 483 C 264 483.554 264.446 484 265 484 L 278 484 L 278 493 L 265 493 C 264.446 493 264 493.446 264 494 L 264 498 L 264 509 L 264 513 C 264 513.554 264.446 514 265 514 L 283 514 C 283.554 514 284 513.554 284 513 L 284 509 C 284 508.446 283.554 508 283 508 L 270 508 L 270 499 L 283 499 C 283.554 499 284 498.554 284 498 L 284 494 L 284 483 L 284 479 C 284 478.446 283.554 478 283 478 L 279 478 L 265 478 z "
       id="rect4838" />
    <path
       inkscape:connector-curvature="0"
       style="opacity:1;fill:#34487c;fill-opacity:1;stroke:none;stroke-width:16;stroke-opacity:1"
       d="m 410,96.000447 c -8.864,0 -16,7.136003 -16,16.000003 v 320 c 0,8.864 7.136,16 16,16 h 32 c 8.864,0 16,-7.136 16,-16 v -128 h 64 v 128 c 0,8.864 7.136,16 16,16 h 192 c 8.864,0 16,-7.136 16,-16 v -320 c 0,-8.864 -7.136,-16.000003 -16,-16.000003 H 538 c -8.864,0 -16,7.136003 -16,16.000003 v 128 h -64 v -128 c 0,-8.864 -7.136,-16.000003 -16,-16.000003 z"
       id="path4851" />
    <path
       id="path4853"
       d="m 562,128.00021 c -4.432,0 -8,3.568 -8,8 v 32 c 0,4.432 3.568,8 8,8 h 104 v 72 H 562 c -4.432,0 -8,3.568 -8,8 v 32 88 32 c 0,4.432 3.568,8 8,8 h 144 c 4.432,0 8,-3.568 8,-8 v -32 c 0,-4.432 -3.568,-8 -8,-8 H 602 v -72 h 104 c 4.432,0 8,-3.568 8,-8 v -32 -88 -32 c 0,-4.432 -3.568,-8 -8,-8 h -32 z"
       style="opacity:1;fill:#f5f5f5;fill-opacity:1;stroke:none;stroke-width:8;stroke-opacity:1"
       inkscape:connector-curvature="0" />
  </g>
</svg>
