<?xml version="1.0" encoding="UTF-8" standalone="no"?>
<!-- Created with Inkscape (http://www.inkscape.org/) -->

<svg
   xmlns:dc="http://purl.org/dc/elements/1.1/"
   xmlns:cc="http://creativecommons.org/ns#"
   xmlns:rdf="http://www.w3.org/1999/02/22-rdf-syntax-ns#"
   xmlns:svg="http://www.w3.org/2000/svg"
   xmlns="http://www.w3.org/2000/svg"
   xmlns:xlink="http://www.w3.org/1999/xlink"
   xmlns:sodipodi="http://sodipodi.sourceforge.net/DTD/sodipodi-0.dtd"
   xmlns:inkscape="http://www.inkscape.org/namespaces/inkscape"
   width="842"
   height="544"
   viewBox="0 0 842 544"
   version="1.1"
   id="svg1087"
   inkscape:version="0.92.1 r"
   sodipodi:docname="ibus.svg">
  <defs
     id="defs1081">
    <linearGradient
       id="linearGradient4987"
       inkscape:collect="always">
      <stop
         id="stop4983"
         offset="0"
         style="stop-color:#ffffff;stop-opacity:0.05490196" />
      <stop
         id="stop4985"
         offset="1"
         style="stop-color:#177ed5;stop-opacity:0;" />
    </linearGradient>
    <linearGradient
       id="linearGradient4981"
       inkscape:collect="always">
      <stop
         id="stop4977"
         offset="0"
         style="stop-color:#ffffff;stop-opacity:0.05490196" />
      <stop
         id="stop4979"
         offset="1"
         style="stop-color:#177ed5;stop-opacity:0;" />
    </linearGradient>
    <linearGradient
       id="linearGradient4628"
       inkscape:collect="always">
      <stop
         id="stop4624"
         offset="0"
         style="stop-color:#ffffff;stop-opacity:0.05490196" />
      <stop
         id="stop4626"
         offset="1"
         style="stop-color:#177ed5;stop-opacity:0;" />
    </linearGradient>
    <linearGradient
       inkscape:collect="always"
       xlink:href="#linearGradient4165-5"
       id="linearGradient4264"
       gradientUnits="userSpaceOnUse"
       gradientTransform="matrix(0.47825256,0,0,0.47826087,79.213964,-776.01541)"
       x1="7"
       y1="1011.3622"
       x2="41.000019"
       y2="1045.3622" />
    <linearGradient
       inkscape:collect="always"
       id="linearGradient4165-5">
      <stop
         style="stop-color:#ffffff;stop-opacity:0.05490196"
         offset="0"
         id="stop4167-3" />
      <stop
         style="stop-color:#177ed5;stop-opacity:0;"
         offset="1"
         id="stop4169-5" />
    </linearGradient>
    <linearGradient
       inkscape:collect="always"
       xlink:href="#linearGradient4981"
       id="linearGradient5224"
       gradientUnits="userSpaceOnUse"
       gradientTransform="matrix(0.95652174,0,0,0.95652174,171.24321,-1279.6509)"
       x1="7"
       y1="1011.3622"
       x2="41.000019"
       y2="1045.3622" />
    <linearGradient
       inkscape:collect="always"
       xlink:href="#linearGradient4987"
       id="linearGradient5226"
       gradientUnits="userSpaceOnUse"
       gradientTransform="matrix(0.65217041,0,0,0.65217328,122.5476,-958.6706)"
       x1="7"
       y1="1011.3622"
       x2="41.000019"
       y2="1045.3622" />
    <linearGradient
       inkscape:collect="always"
       xlink:href="#linearGradient4628"
       id="linearGradient5228"
       gradientUnits="userSpaceOnUse"
       gradientTransform="matrix(10.434724,0,0,10.434772,319.56535,-11258.721)"
       x1="7"
       y1="1011.3622"
       x2="41.000019"
       y2="1045.3622" />
    <linearGradient
       inkscape:collect="always"
       xlink:href="#linearGradient4987"
       id="linearGradient5326"
       gradientUnits="userSpaceOnUse"
       gradientTransform="matrix(1.3043408,0,0,1.3043466,235.1958,-1645.3407)"
       x1="7"
       y1="1011.3622"
       x2="41.000019"
       y2="1045.3622" />
    <filter
       inkscape:collect="always"
       style="color-interpolation-filters:sRGB"
       id="filter5337"
       x="-0.01005813"
       width="1.0201163"
       y="-0.014871082"
       height="1.0297422">
      <feGaussianBlur
         inkscape:collect="always"
         stdDeviation="0.22810598"
         id="feGaussianBlur5339" />
    </filter>
    <filter
       inkscape:collect="always"
       style="color-interpolation-filters:sRGB"
       id="filter4595"
       x="-0.010931949"
       width="1.0218639"
       y="-0.013299345"
       height="1.0265987">
      <feGaussianBlur
         inkscape:collect="always"
         stdDeviation="0.24825876"
         id="feGaussianBlur4597" />
    </filter>
    <filter
       inkscape:collect="always"
       style="color-interpolation-filters:sRGB"
       id="filter4601"
       x="-0.010931957"
       width="1.0218639"
       y="-0.013299334"
       height="1.0265987">
      <feGaussianBlur
         inkscape:collect="always"
         stdDeviation="0.24825884"
         id="feGaussianBlur4603" />
    </filter>
    <filter
       inkscape:collect="always"
       style="color-interpolation-filters:sRGB"
       id="filter4588"
       x="-0.010932254"
       width="1.0218645"
       y="-0.013298895"
       height="1.0265979">
      <feGaussianBlur
         inkscape:collect="always"
         stdDeviation="0.1773294"
         id="feGaussianBlur4590" />
    </filter>
    <filter
       inkscape:collect="always"
       style="color-interpolation-filters:sRGB"
       id="filter4608"
       x="-0.012164835"
       width="1.0243297"
       y="-0.011839572"
       height="1.0236791">
      <feGaussianBlur
         inkscape:collect="always"
         stdDeviation="0.1973262"
         id="feGaussianBlur4610" />
    </filter>
    <filter
       inkscape:collect="always"
       style="color-interpolation-filters:sRGB"
       id="filter4652"
       x="-0.010931842"
       width="1.0218637"
       y="-0.013299504"
       height="1.026599">
      <feGaussianBlur
         inkscape:collect="always"
         stdDeviation="0.12413086"
         id="feGaussianBlur4654" />
    </filter>
    <filter
       inkscape:collect="always"
       style="color-interpolation-filters:sRGB"
       id="filter4662"
       x="-0.010931529"
       width="1.0218631"
       y="-0.013299968"
       height="1.0265999">
      <feGaussianBlur
         inkscape:collect="always"
         stdDeviation="0.088666453"
         id="feGaussianBlur4664" />
    </filter>
    <filter
       inkscape:collect="always"
       style="color-interpolation-filters:sRGB"
       id="filter4684"
       x="-0.021866033"
       width="1.043732"
       y="-0.026595531"
       height="1.0531911">
      <feGaussianBlur
         inkscape:collect="always"
         stdDeviation="3.971582"
         id="feGaussianBlur4686" />
    </filter>
    <filter
       inkscape:collect="always"
       style="color-interpolation-filters:sRGB"
       id="filter4706"
       x="-0.024329882"
       width="1.0486598"
       y="-0.023678944"
       height="1.0473579">
      <feGaussianBlur
         inkscape:collect="always"
         stdDeviation="4.4200605"
         id="feGaussianBlur4708" />
    </filter>
    <filter
       inkscape:collect="always"
       style="color-interpolation-filters:sRGB"
       id="filter4591"
       x="-0.010965647"
       width="1.0219313"
       y="-0.01324981"
       height="1.0264996">
      <feGaussianBlur
         inkscape:collect="always"
         stdDeviation="0.1766744"
         id="feGaussianBlur4593" />
    </filter>
    <linearGradient
       inkscape:collect="always"
       xlink:href="#linearGradient4165-5"
       id="linearGradient4593"
       gradientUnits="userSpaceOnUse"
       gradientTransform="matrix(0.47825256,0,0,0.47826087,44.21368,-775.01499)"
       x1="7"
       y1="1011.3622"
       x2="41.000019"
       y2="1045.3622" />
  </defs>
  <sodipodi:namedview
     id="base"
     pagecolor="#c3c3c3"
     bordercolor="#333333"
     borderopacity="1"
     inkscape:pageopacity="0"
     inkscape:pageshadow="2"
     inkscape:zoom="0.35355338"
     inkscape:cx="251.01013"
     inkscape:cy="-300.47945"
     inkscape:document-units="px"
     inkscape:current-layer="layer2"
     showgrid="false"
     units="px"
     inkscape:showpageshadow="false"
     inkscape:window-width="1280"
     inkscape:window-height="1369"
     inkscape:window-x="0"
     inkscape:window-y="35"
     inkscape:window-maximized="0">
    <inkscape:grid
       type="xygrid"
       id="grid4630" />
  </sodipodi:namedview>
  <metadata
     id="metadata1084">
    <rdf:RDF>
      <cc:Work
         rdf:about="">
        <dc:format>image/svg+xml</dc:format>
        <dc:type
           rdf:resource="http://purl.org/dc/dcmitype/StillImage" />
        <dc:title />
        <cc:license
           rdf:resource="http://creativecommons.org/licenses/by-sa/4.0/" />
        <dc:creator>
          <cc:Agent>
            <dc:title>Peter Cornelis</dc:title>
          </cc:Agent>
        </dc:creator>
      </cc:Work>
      <cc:License
         rdf:about="http://creativecommons.org/licenses/by-sa/4.0/">
        <cc:permits
           rdf:resource="http://creativecommons.org/ns#Reproduction" />
        <cc:permits
           rdf:resource="http://creativecommons.org/ns#Distribution" />
        <cc:requires
           rdf:resource="http://creativecommons.org/ns#Notice" />
        <cc:requires
           rdf:resource="http://creativecommons.org/ns#Attribution" />
        <cc:permits
           rdf:resource="http://creativecommons.org/ns#DerivativeWorks" />
        <cc:requires
           rdf:resource="http://creativecommons.org/ns#ShareAlike" />
      </cc:License>
    </rdf:RDF>
  </metadata>
  <g
     inkscape:label="Baseplate"
     inkscape:groupmode="layer"
     id="layer1"
     transform="translate(0,-153.06668)"
     style="display:none">
    <rect
       style="display:inline;overflow:visible;visibility:visible;fill:#fefefe;fill-opacity:1;fill-rule:nonzero;stroke:none;stroke-width:2;marker:none;enable-background:accumulate"
       id="rect3951"
       width="512"
       height="512"
       x="-826"
       y="169.06668"
       inkscape:label="48x48"
       transform="scale(-1,1)" />
    <text
       y="733.32251"
       xml:space="preserve"
       x="15.006836"
       style="font-style:normal;font-variant:normal;font-weight:normal;font-stretch:normal;line-height:0%;font-family:'DejaVu Sans';-inkscape-font-specification:'DejaVu Sans';display:inline;fill:#000000;fill-opacity:1;stroke:none;enable-background:new"
       inkscape:label="context"
       id="context"><tspan
         style="font-style:normal;font-variant:normal;font-weight:normal;font-stretch:normal;font-size:18px;line-height:1.25;font-family:'DejaVu Sans';-inkscape-font-specification:'DejaVu Sans'"
         y="733.32251"
         x="15.006836"
         sodipodi:role="line"
         id="tspan3933">apps</tspan></text>
    <text
       y="733.32251"
       xml:space="preserve"
       x="142.48828"
       style="font-style:normal;font-variant:normal;font-weight:bold;font-stretch:normal;line-height:0%;font-family:'DejaVu Sans';-inkscape-font-specification:'DejaVu Sans Bold';text-align:start;writing-mode:lr-tb;text-anchor:start;display:inline;fill:#000000;fill-opacity:1;stroke:none;enable-background:new"
       inkscape:label="icon-name"
       id="icon-name"><tspan
         style="font-style:normal;font-variant:normal;font-weight:bold;font-stretch:normal;font-size:18px;line-height:1.25;font-family:'DejaVu Sans';-inkscape-font-specification:'DejaVu Sans Bold'"
         y="733.32251"
         x="142.48828"
         sodipodi:role="line"
         id="tspan3937">ibus</tspan></text>
    <rect
       style="display:inline;overflow:visible;visibility:visible;fill:#fefefe;fill-opacity:1;fill-rule:nonzero;stroke:none;stroke-width:2;marker:none;enable-background:accumulate"
       id="rect16x16"
       width="16"
       height="16"
       x="-32"
       y="665.06665"
       inkscape:label="16x16"
       transform="scale(-1,1)" />
    <rect
       style="display:inline;overflow:visible;visibility:visible;fill:#fefefe;fill-opacity:1;fill-rule:nonzero;stroke:none;stroke-width:2;marker:none;enable-background:accumulate"
       id="rect24x24"
       width="24"
       height="24"
       x="-102"
       y="657.06665"
       inkscape:label="24x24"
       transform="scale(-1,1)" />
    <rect
       style="display:inline;overflow:visible;visibility:visible;fill:#fefefe;fill-opacity:1;fill-rule:nonzero;stroke:none;stroke-width:2;marker:none;enable-background:accumulate"
       id="rect32x32"
       width="32"
       height="32"
       x="-154"
       y="649.06665"
       inkscape:label="32x32"
       transform="scale(-1,1)" />
    <rect
       inkscape:label="48x48"
       y="633.06665"
       x="-218"
       height="48"
       width="48"
       id="rect48x48"
       style="display:inline;overflow:visible;visibility:visible;fill:#fefefe;fill-opacity:1;fill-rule:nonzero;stroke:none;stroke-width:2;marker:none;enable-background:accumulate"
       transform="scale(-1,1)" />
    <rect
       transform="scale(-1,1)"
       inkscape:label="32x32"
       y="617.06665"
       x="-298"
       height="64"
       width="64"
       id="rect5310"
       style="display:inline;overflow:visible;visibility:visible;fill:#fefefe;fill-opacity:1;fill-rule:nonzero;stroke:none;stroke-width:4;marker:none;enable-background:accumulate" />
    <rect
       transform="scale(-1,1)"
       inkscape:label="24x24"
       y="659.06665"
       x="-66"
       height="22"
       width="22"
       id="rect4575"
       style="display:inline;overflow:visible;visibility:visible;fill:#fefefe;fill-opacity:1;fill-rule:nonzero;stroke:none;stroke-width:1.83333325;marker:none;enable-background:accumulate" />
  </g>
  <g
     inkscape:groupmode="layer"
     id="layer2"
     inkscape:label="Bitmap"
     style="display:inline">
    <path
       id="path4399"
       d="m 189.901,485.0046 c -0.424,0.046 -0.7975,0.393 -0.875,0.8125 l -0.8438,4.2812 c -1.5147,0.5924 -2.9383,1.4063 -4.1875,2.4063 l -4.1562,-1.4063 c -0.4318,-0.1489 -0.9555,0.044 -1.1875,0.4375 l -4,6.9375 c -0.2253,0.399 -0.1287,0.9512 0.2187,1.25 l 3.3125,2.9063 c -0.1166,0.7792 -0.1875,1.5632 -0.1875,2.375 0,0.8117 0.071,1.5957 0.1875,2.375 l -3.3125,2.9062 c -0.3474,0.2988 -0.444,0.851 -0.2187,1.25 l 4,6.9375 c 0.232,0.3934 0.7557,0.5864 1.1875,0.4375 l 4.1562,-1.4062 c 1.2492,0.9999 2.6728,1.8138 4.1875,2.4062 l 0.8438,4.2813 c 0.085,0.4481 0.5125,0.8062 0.9687,0.8125 h 8 c 0.4562,-0.01 0.8832,-0.3644 0.9688,-0.8125 l 0.8437,-4.2813 c 1.5147,-0.5924 2.9384,-1.4063 4.1875,-2.4062 l 4.1563,1.4062 c 0.4318,0.1489 0.9555,-0.044 1.1875,-0.4375 l 4,-6.9375 c 0.2253,-0.399 0.1286,-0.9512 -0.2188,-1.25 l -3.3125,-2.9062 c 0.1167,-0.7793 0.1875,-1.5633 0.1875,-2.375 0,-0.8118 -0.071,-1.5958 -0.1875,-2.375 l 3.3125,-2.9063 c 0.3474,-0.2988 0.4441,-0.851 0.2188,-1.25 l -4,-6.9375 c -0.232,-0.3934 -0.7557,-0.5864 -1.1875,-0.4375 l -4.1563,1.4063 c -1.2491,-1 -2.6728,-1.8139 -4.1875,-2.4063 l -0.8437,-4.2812 c -0.086,-0.4482 -0.5126,-0.8063 -0.9688,-0.8125 h -8 c -0.031,0 -0.062,0 -0.094,0 z"
       style="display:inline;opacity:0.2;fill:#000000;fill-opacity:1;stroke:none;filter:url(#filter4608);enable-background:new"
       inkscape:connector-curvature="0" />
    <path
       inkscape:connector-curvature="0"
       style="display:inline;fill:#3b414b;fill-opacity:1;stroke:none;enable-background:new"
       d="m 22.148483,512.0003 c -0.16959,0.019 -0.319,0.1572 -0.34999,0.325 l -0.33749,1.7125 c -0.60588,0.2369 -1.17531,0.5625 -1.67497,0.9624 l -1.66247,-0.5624 c -0.17271,-0.06 -0.3822,0.018 -0.47499,0.1749 l -1.59997,2.775 c -0.0901,0.1596 -0.0514,0.3805 0.0875,0.5 l 1.32497,1.1625 c -0.0466,0.3117 -0.075,0.6253 -0.075,0.9499 0,0.3247 0.0283,0.6383 0.075,0.95 l -1.32497,1.1625 c -0.13897,0.1195 -0.17763,0.3404 -0.0875,0.5 l 1.59997,2.7749 c 0.0928,0.1574 0.30228,0.2346 0.47499,0.175 L 19.786033,525 c 0.49966,0.4 1.06909,0.7256 1.67497,0.9625 l 0.33749,1.7125 c 0.0342,0.1793 0.20502,0.3225 0.3875,0.325 h 3.19993 c 0.18248,0 0.35328,-0.1457 0.38749,-0.325 l 0.3375,-1.7125 c 0.60587,-0.2369 1.17531,-0.5625 1.67497,-0.9625 l 1.66247,0.5625 c 0.17271,0.06 0.3822,-0.018 0.47499,-0.175 l 1.59997,-2.7749 c 0.0901,-0.1596 0.0514,-0.3805 -0.0875,-0.5 l -1.32497,-1.1625 c 0.0466,-0.3117 0.075,-0.6253 0.075,-0.95 0,-0.3246 -0.0283,-0.6382 -0.075,-0.9499 l 1.32497,-1.1625 c 0.13896,-0.1195 0.17762,-0.3404 0.0875,-0.5 l -1.59997,-2.775 c -0.0928,-0.1573 -0.30228,-0.2345 -0.47499,-0.1749 l -1.66247,0.5624 c -0.49966,-0.3999 -1.0691,-0.7255 -1.67497,-0.9624 l -0.3375,-1.7125 c -0.0342,-0.1793 -0.20501,-0.3225 -0.38749,-0.325 h -3.19993 c -0.0125,-4e-4 -0.025,-4e-4 -0.0375,0 z"
       id="path4401" />
    <path
       style="display:inline;opacity:1;fill:#3b414b;fill-opacity:1;stroke:none;enable-background:new"
       d="m 189.901,484.0046 c -0.424,0.046 -0.7975,0.393 -0.875,0.8125 l -0.8438,4.2812 c -1.5147,0.5924 -2.9383,1.4063 -4.1875,2.4063 l -4.1562,-1.4063 c -0.4318,-0.1489 -0.9555,0.044 -1.1875,0.4375 l -4,6.9375 c -0.2253,0.399 -0.1287,0.9512 0.2187,1.25 l 3.3125,2.9063 c -0.1166,0.7792 -0.1875,1.5632 -0.1875,2.375 0,0.8117 0.071,1.5957 0.1875,2.375 l -3.3125,2.9062 c -0.3474,0.2988 -0.444,0.851 -0.2187,1.25 l 4,6.9375 c 0.232,0.3934 0.7557,0.5864 1.1875,0.4375 l 4.1562,-1.4062 c 1.2492,0.9999 2.6728,1.8138 4.1875,2.4062 l 0.8438,4.2813 c 0.085,0.4481 0.5125,0.8062 0.9687,0.8125 h 8 c 0.4562,-0.01 0.8832,-0.3644 0.9688,-0.8125 l 0.8437,-4.2813 c 1.5147,-0.5924 2.9384,-1.4063 4.1875,-2.4062 l 4.1563,1.4062 c 0.4318,0.1489 0.9555,-0.044 1.1875,-0.4375 l 4,-6.9375 c 0.2253,-0.399 0.1286,-0.9512 -0.2188,-1.25 l -3.3125,-2.9062 c 0.1167,-0.7793 0.1875,-1.5633 0.1875,-2.375 0,-0.8118 -0.071,-1.5958 -0.1875,-2.375 l 3.3125,-2.9063 c 0.3474,-0.2988 0.4441,-0.851 0.2188,-1.25 l -4,-6.9375 c -0.232,-0.3934 -0.7557,-0.5864 -1.1875,-0.4375 l -4.1563,1.4063 c -1.2491,-1 -2.6728,-1.8139 -4.1875,-2.4063 l -0.8437,-4.2812 c -0.086,-0.4482 -0.5126,-0.8063 -0.9688,-0.8125 h -8 c -0.031,0 -0.062,0 -0.094,0 z"
       id="path4081"
       inkscape:connector-curvature="0" />
    <path
       style="display:inline;opacity:1;fill:#ffffff;fill-opacity:0.2;stroke:none;enable-background:new"
       d="m 189.901,484.0046 c -0.424,0.046 -0.7975,0.393 -0.875,0.8125 l -0.8438,4.2812 c -1.5147,0.5924 -2.9383,1.4063 -4.1875,2.4063 l -4.1562,-1.4063 c -0.4318,-0.1489 -0.9555,0.044 -1.1875,0.4375 l -4,6.9375 c 0.054,0.1 0.1319,0.1753 0.2187,0.25 l 0.1563,0.125 3.625,-6.3125 c 0.232,-0.3934 0.7557,-0.5864 1.1875,-0.4375 l 4.1562,1.4063 c 1.2492,-1 2.6728,-1.8139 4.1875,-2.4063 l 0.8438,-4.2812 c 0.077,-0.4195 0.451,-0.7663 0.875,-0.8125 0.031,0 0.062,0 0.094,0 h 8 c 0.4562,0.01 0.8832,0.3643 0.9687,0.8125 l 0.8438,4.2812 c 1.5147,0.5924 2.9383,1.4063 4.1875,2.4063 l 4.1562,-1.4063 c 0.4318,-0.1489 0.9555,0.044 1.1875,0.4375 l 3.625,6.3125 0.1563,-0.125 c 0.087,-0.075 0.1643,-0.15 0.2187,-0.25 l -4,-6.9375 c -0.232,-0.3934 -0.7557,-0.5864 -1.1875,-0.4375 l -4.1562,1.4063 c -1.2491,-1 -2.6728,-1.8139 -4.1875,-2.4063 l -0.8437,-4.2812 c -0.086,-0.4482 -0.5126,-0.8063 -0.9688,-0.8125 h -8 c -0.031,0 -0.062,0 -0.094,0 z m -15.3438,14.125 c 0.018,0.1181 0.038,0.241 0.094,0.3437 -0.054,-0.1 -0.074,-0.2311 -0.094,-0.3437 z m 38.875,0 c -0.02,0.1126 -0.039,0.2437 -0.094,0.3437 0.056,-0.1027 0.075,-0.2256 0.094,-0.3437 z m -35.3437,4.4062 c -0.032,0.3208 -0.045,0.6452 -0.062,0.9688 0.01,0.1685 0.022,0.3322 0.031,0.5 0.026,-0.4615 0.058,-0.9239 0.125,-1.375 l -0.094,-0.094 z m 31.8125,0 -0.094,0.094 c 0.068,0.4511 0.099,0.9135 0.125,1.375 0.01,-0.1677 0.025,-0.3314 0.031,-0.5 -0.017,-0.3235 -0.031,-0.648 -0.062,-0.9687 z m -31.8125,3.9375 -3.2188,2.8125 c -0.087,0.075 -0.1643,0.15 -0.2187,0.25 l 0.375,0.625 3.1562,-2.7812 c -0.044,-0.2973 -0.064,-0.6063 -0.094,-0.9063 z m 31.8125,0 c -0.03,0.3 -0.049,0.609 -0.094,0.9063 l 3.1562,2.7812 0.375,-0.625 c -0.054,-0.1 -0.1319,-0.1753 -0.2187,-0.25 l -3.2188,-2.8125 z m -35.375,3.6563 c 0,0.054 0.019,0.1032 0.031,0.1562 -0.013,-0.053 -0.027,-0.1013 -0.031,-0.1562 z m 38.9375,0 c -0.01,0.055 -0.018,0.103 -0.031,0.1562 0.012,-0.053 0.028,-0.1019 0.031,-0.1562 z"
       id="path4258"
       inkscape:connector-curvature="0" />
    <path
       inkscape:connector-curvature="0"
       id="path4700"
       d="m 523.94541,50.0134 c -4.7489,0.5176 -8.93199,4.4024 -9.79979,9.0998 l -9.44989,47.9491 c -16.96449,6.6344 -32.90857,15.75 -46.89906,26.9495 l -46.54905,-15.7497 c -4.8359,-1.6675 -10.70149,0.4936 -13.29979,4.8999 l -44.79906,77.6986 c -2.5234,4.4688 -1.4411,10.6533 2.4499,13.9997 l 37.09926,32.5494 c -1.3064,8.7275 -2.09989,17.5081 -2.09989,26.5995 0,9.0914 0.79439,17.8719 2.09989,26.5994 l -37.09926,32.5495 c -3.891,3.3464 -4.9733,9.5309 -2.4499,13.9997 l 44.79906,77.6985 c 2.5983,4.4064 8.46389,6.5675 13.29979,4.8999 l 46.54905,-15.7496 c 13.99049,11.1994 29.93457,20.315 46.89906,26.9495 l 9.44989,47.949 c 0.9576,5.0192 5.74039,9.0303 10.84969,9.0999 h 89.59831 c 5.1093,-0.064 9.89179,-4.0807 10.84979,-9.0999 l 9.44979,-47.949 c 16.96459,-6.6345 32.90867,-15.7501 46.89906,-26.9495 l 46.54915,15.7496 c 4.8359,1.6676 10.70149,-0.4936 13.29969,-4.8999 l 44.79906,-77.6985 c 2.5235,-4.4688 1.4412,-10.6533 -2.4499,-13.9997 L 746.891,300.6086 c 1.3064,-8.7275 2.1,-17.508 2.1,-26.5994 0,-9.0914 -0.7944,-17.872 -2.1,-26.5995 l 37.09926,-32.5494 c 3.8911,-3.3464 4.9734,-9.5309 2.4499,-13.9997 L 741.6411,123.162 c -2.5982,-4.4063 -8.46379,-6.5674 -13.29969,-4.8999 l -46.54915,15.7497 C 667.80187,122.8123 651.85779,113.6967 634.8932,107.0623 l -9.44979,-47.9491 c -0.958,-5.0192 -5.74049,-9.0303 -10.84979,-9.0998 h -89.59831 c -0.3496,-0.01 -0.7,-0.01 -1.0493,0 z"
       style="display:inline;fill:#000000;fill-opacity:0.2;stroke:none;filter:url(#filter4706);enable-background:new" />
    <path
       style="display:inline;fill:#000000;fill-opacity:0.2;stroke:none;enable-background:new"
       d="m 523.94541,50.0134 c -4.7489,0.5176 -8.93199,4.4024 -9.79979,9.0998 l -9.44989,47.9491 c -16.96449,6.6344 -32.90857,15.75 -46.89906,26.9495 l -46.54905,-15.7497 c -4.8359,-1.6675 -10.70149,0.4936 -13.29979,4.8999 l -44.79906,77.6986 c -2.5234,4.4688 -1.4411,10.6533 2.4499,13.9997 l 37.09926,32.5494 c -1.3064,8.7275 -2.09989,17.5081 -2.09989,26.5995 0,9.0914 0.79439,17.8719 2.09989,26.5994 l -37.09926,32.5495 c -3.891,3.3464 -4.9733,9.5309 -2.4499,13.9997 l 44.79906,77.6985 c 2.5983,4.4064 8.46389,6.5675 13.29979,4.8999 l 46.54905,-15.7496 c 13.99049,11.1994 29.93457,20.315 46.89906,26.9495 l 9.44989,47.949 c 0.9576,5.0192 5.74039,9.0303 10.84969,9.0999 h 89.59831 c 5.1093,-0.064 9.89179,-4.0807 10.84979,-9.0999 l 9.44979,-47.949 c 16.96459,-6.6345 32.90867,-15.7501 46.89906,-26.9495 l 46.54915,15.7496 c 4.8359,1.6676 10.70149,-0.4936 13.29969,-4.8999 l 44.79906,-77.6985 c 2.5235,-4.4688 1.4412,-10.6533 -2.4499,-13.9997 L 746.891,300.6086 c 1.3064,-8.7275 2.1,-17.508 2.1,-26.5994 0,-9.0914 -0.7944,-17.872 -2.1,-26.5995 l 37.09926,-32.5494 c 3.8911,-3.3464 4.9734,-9.5309 2.4499,-13.9997 L 741.6411,123.162 c -2.5982,-4.4063 -8.46379,-6.5674 -13.29969,-4.8999 l -46.54915,15.7497 C 667.80187,122.8123 651.85779,113.6967 634.8932,107.0623 l -9.44979,-47.9491 c -0.958,-5.0192 -5.74049,-9.0303 -10.84979,-9.0998 h -89.59831 c -0.3496,-0.01 -0.7,-0.01 -1.0493,0 z"
       id="path4698"
       inkscape:connector-curvature="0" />
    <path
       inkscape:connector-curvature="0"
       id="path4264"
       d="m 523.94541,48.013 c -4.7489,0.5176 -8.93199,4.4024 -9.79979,9.0998 l -9.44989,47.9491 c -16.96449,6.6344 -32.90857,15.75 -46.89906,26.9495 l -46.54905,-15.7497 c -4.8359,-1.6675 -10.70149,0.4936 -13.29979,4.8999 l -44.79906,77.6986 c -2.5234,4.4688 -1.4411,10.6533 2.4499,13.9997 l 37.09926,32.5494 c -1.3064,8.7275 -2.09989,17.5081 -2.09989,26.5995 0,9.0914 0.79439,17.8719 2.09989,26.5994 l -37.09926,32.5495 c -3.891,3.3464 -4.9733,9.5309 -2.4499,13.9997 l 44.79906,77.6985 c 2.5983,4.4064 8.46389,6.5675 13.29979,4.8999 l 46.54905,-15.7496 c 13.99049,11.1994 29.93457,20.315 46.89906,26.9495 l 9.44989,47.949 c 0.9576,5.0192 5.74039,9.0303 10.84969,9.0999 h 89.59831 c 5.1093,-0.064 9.89179,-4.0807 10.84979,-9.0999 l 9.44979,-47.949 c 16.96459,-6.6345 32.90867,-15.7501 46.89906,-26.9495 l 46.54915,15.7496 c 4.8359,1.6676 10.70149,-0.4936 13.29969,-4.8999 l 44.79906,-77.6985 c 2.5235,-4.4688 1.4412,-10.6533 -2.4499,-13.9997 L 746.891,298.6082 c 1.3064,-8.7275 2.1,-17.508 2.1,-26.5994 0,-9.0914 -0.7944,-17.872 -2.1,-26.5995 l 37.09926,-32.5494 c 3.8911,-3.3464 4.9734,-9.5309 2.4499,-13.9997 L 741.6411,121.1616 c -2.5982,-4.4063 -8.46379,-6.5674 -13.29969,-4.8999 l -46.54915,15.7497 C 667.80187,120.8119 651.85779,111.6963 634.8932,105.0619 l -9.44979,-47.9491 c -0.958,-5.0192 -5.74049,-9.0303 -10.84979,-9.0998 h -89.59831 c -0.3496,-0.01 -0.7,-0.01 -1.0493,0 z"
       style="display:inline;fill:#3b414b;fill-opacity:1;stroke:none;enable-background:new" />
    <path
       id="path4678"
       d="M 569.87305,94.751953 A 179.19645,179.19645 0 0 0 482.4375,117.78125 l -0.10938,-0.0801 c -1.31902,0.73359 -2.55924,1.58089 -3.85937,2.34375 a 179.19645,179.19645 0 0 0 -7.20313,4.39063 c -4.64415,3.01482 -9.1779,6.17439 -13.46874,9.60937 l -46.53126,-15.78125 c -4.8367,-1.66717 -10.71219,0.5025 -13.31054,4.90625 l -44.8125,77.71875 c -0.75609,1.3391 -1.17913,2.83282 -1.30664,4.35742 0.25182,2.8974 1.55369,5.71262 3.76367,7.61329 l 37.09766,32.55078 c -0.0887,0.5926 -0.16807,1.18612 -0.25196,1.77929 l 0.25977,0.22852 c -0.212,1.40749 -0.29116,2.83803 -0.46875,4.25 a 179.19645,179.19645 0 0 0 -0.8125,7.26562 c -0.072,0.83742 -0.21839,1.6597 -0.28321,2.5 l 0.15626,0.0645 a 179.19645,179.19645 0 0 0 -0.625,12.45312 179.19645,179.19645 0 0 0 0.68359,13.65625 c 0.3465,3.68825 0.79569,7.34918 1.3418,11 l -0.0957,0.084 a 179.19645,179.19645 0 0 0 63.78321,113.79297 l 1.41211,-0.47852 c 13.99049,11.1994 29.93394,20.31472 46.89843,26.94922 l 0.40821,2.07226 a 179.19645,179.19645 0 0 0 64.76953,12.12305 179.19645,179.19645 0 0 0 64.65039,-12.32227 l 0.36914,-1.87304 c 16.96459,-6.6345 32.91,-15.74982 46.90039,-26.94922 l 46.54883,15.75 c 4.8359,1.6676 10.70062,-0.49409 13.29882,-4.90039 l 44.79883,-77.69727 c 0.75784,-1.34203 1.18543,-2.84097 1.31446,-4.36914 -0.25564,-2.9004 -1.56426,-5.71921 -3.77539,-7.62109 l -37.09375,-32.53125 c 0.064,-0.45039 0.0923,-0.90867 0.15625,-1.35938 a 179.19645,179.19645 0 0 0 0.0566,-0.48828 l -0.20704,-0.18164 c 0.78017,-5.21192 1.37392,-10.4434 1.72852,-15.74804 a 179.19645,179.19645 0 0 0 0.25977,-5.1211 c 0.0654,-1.81571 0.10642,-3.63967 0.10937,-5.47851 A 179.19645,179.19645 0 0 0 569.87305,94.751953 Z M 548,188 h 44 v 44 h -44 z m 0,65 h 44 v 107 h -44 z"
       style="display:inline;fill:#000000;fill-opacity:0.2;stroke:none;stroke-width:31.99936485;stroke-linecap:round;stroke-linejoin:round;stroke-miterlimit:4;stroke-dasharray:none;stroke-opacity:1;filter:url(#filter4684);enable-background:new"
       inkscape:connector-curvature="0" />
    <path
       style="display:inline;fill:#000000;fill-opacity:0.2;stroke:none;stroke-width:1.99998188;stroke-linecap:round;stroke-linejoin:round;stroke-miterlimit:4;stroke-dasharray:none;stroke-opacity:1;enable-background:new"
       d="m 138,501.80078 a 11.199898,11.199898 0 0 0 -5.46484,1.43945 l -0.008,-0.006 c -0.0824,0.0459 -0.15897,0.0988 -0.24023,0.14648 a 11.199898,11.199898 0 0 0 -0.45117,0.27344 c -0.29027,0.18843 -0.57168,0.38687 -0.83985,0.60156 l -2.91015,-0.98633 c -0.3023,-0.10419 -0.66768,0.0315 -0.83008,0.30664 l -2.80273,4.85742 c -0.14525,0.25725 -0.0908,0.59964 0.10742,0.81641 l -0.002,0.004 c 0.009,0.01 0.0195,0.0193 0.0293,0.0293 0.008,0.007 0.0113,0.0183 0.0195,0.0254 l 2.32031,2.03321 c -0.0132,0.088 -0.0202,0.17737 -0.0312,0.26562 a 11.199898,11.199898 0 0 0 -0.0508,0.45508 c -0.004,0.0524 -0.0116,0.10178 -0.0156,0.1543 l 0.01,0.004 a 11.199898,11.199898 0 0 0 -0.0391,0.7793 11.199898,11.199898 0 0 0 0.0371,0.73242 c 5.8e-4,0.007 -8.6e-4,0.0144 0,0.0215 l 0.002,-0.002 a 11.199898,11.199898 0 0 0 3.34571,7.27149 l -2.09766,0.69922 c -0.3023,0.1042 -0.68135,-0.006 -0.84375,-0.28125 l -2.3125,-4.03125 -0.3125,0.28125 c -0.021,0.018 -0.0435,0.0405 -0.0625,0.0625 l 2.6875,4.6875 c 0.1624,0.2712 0.54145,0.38545 0.84375,0.28125 l 2.90625,-0.96875 c 0.58339,0.46696 1.22766,0.87216 1.9043,1.21679 a 11.199898,11.199898 0 0 0 0.0352,0.0176 c 0.32644,0.16486 0.65739,0.31989 0.99805,0.45313 l 0.59375,3 c 0.0542,0.2936 0.29695,0.5305 0.59375,0.5625 0.021,5e-4 0.0386,5e-4 0.0605,0 h 5.625 c 0.3194,-0.004 0.5982,-0.2488 0.6582,-0.5625 l 0.5918,-3 c 0.0745,-0.0292 0.14676,-0.065 0.2207,-0.0957 a 11.199898,11.199898 0 0 0 0.19727,-0.0859 c 0.2801,-0.12246 0.55512,-0.2544 0.82422,-0.39844 a 11.199898,11.199898 0 0 0 0.11914,-0.0625 c 0.16329,-0.0899 0.32226,-0.18569 0.48046,-0.28321 a 11.199898,11.199898 0 0 0 0.0762,-0.0449 11.199898,11.199898 0 0 0 0,-0.002 11.199898,11.199898 0 0 0 0.0527,-0.0332 c 0.31501,-0.20011 0.62019,-0.41167 0.91016,-0.64063 0.0183,-0.0144 0.0385,-0.0265 0.0566,-0.041 l 0.13476,0.0449 2.7793,0.93945 c 0.17814,0.0614 0.37346,0.0328 0.54102,-0.0508 0.12031,-0.0539 0.22785,-0.13235 0.29492,-0.24609 l 1.84961,-3.22657 0.94336,-1.63672 c 0.1577,-0.27926 0.0908,-0.66588 -0.15235,-0.875 l -2.31836,-2.0332 c 0.004,-0.0281 0.006,-0.0577 0.01,-0.0859 a 11.199898,11.199898 0 0 0 0.082,-0.70117 11.199898,11.199898 0 0 0 0.0449,-0.88086 A 11.199898,11.199898 0 0 0 138,501.80078 Z M 136,506 h 4 v 4 h -1 -2 -1 z m 15.05664,2.59766 -2,1.75 c 0.046,0.303 0.0708,0.59845 0.0937,0.90625 l 2.21875,-1.9375 c 0.021,-0.018 0.0435,-0.0415 0.0625,-0.0625 z M 136,512 h 1 2 1 v 8 h -4 z m -11.59961,5.09766 c -0.014,0.079 -0.012,0.1712 0,0.25 -0.017,-0.093 -0.019,-0.1574 0,-0.25 z m 17.44531,6.40429 -0.38281,1.93946 c -0.0599,0.3137 -0.33685,0.5625 -0.65625,0.5625 h -5.625 c -0.021,5e-4 -0.0405,5e-4 -0.0625,0 -0.2968,-0.0323 -0.53975,-0.2689 -0.59375,-0.5625 l -0.38281,-1.93555 a 11.199898,11.199898 0 0 0 3.85742,0.69531 11.199898,11.199898 0 0 0 3.8457,-0.69922 z"
       id="path4630"
       inkscape:connector-curvature="0" />
    <path
       style="display:inline;fill:#3b414b;fill-opacity:1;stroke:none;enable-background:new"
       d="m 135.12915,498.0049 c -0.2968,0.032 -0.5582,0.2752 -0.6125,0.5688 l -0.5906,2.9968 c -1.0603,0.4147 -2.0568,0.9844 -2.9312,1.6844 l -2.9093,-0.9844 c -0.3023,-0.1042 -0.6689,0.031 -0.8313,0.3062 l -2.7999,4.8562 c -0.1577,0.2793 -0.09,0.6659 0.1531,0.875 l 2.3187,2.0344 c -0.082,0.5454 -0.1312,1.0942 -0.1312,1.6624 0,0.5683 0.05,1.117 0.1312,1.6625 l -2.3187,2.0344 c -0.2432,0.2091 -0.3108,0.5957 -0.1531,0.875 l 2.7999,4.8561 c 0.1624,0.2754 0.529,0.4105 0.8313,0.3063 l 2.9093,-0.9844 c 0.8744,0.7 1.8709,1.2697 2.9312,1.6844 l 0.5906,2.9968 c 0.06,0.3137 0.3588,0.5644 0.6782,0.5688 h 5.5999 c 0.3193,0 0.6182,-0.2551 0.6781,-0.5688 l 0.5906,-2.9968 c 1.0603,-0.4147 2.0568,-0.9844 2.9312,-1.6844 l 2.9094,0.9844 c 0.3022,0.1042 0.6688,-0.031 0.8312,-0.3063 l 2.8,-4.8561 c 0.1577,-0.2793 0.09,-0.6659 -0.1531,-0.875 l -2.3188,-2.0344 c 0.082,-0.5455 0.1313,-1.0942 0.1313,-1.6625 0,-0.5682 -0.05,-1.117 -0.1313,-1.6624 l 2.3188,-2.0344 c 0.2431,-0.2091 0.3108,-0.5957 0.1531,-0.875 l -2.8,-4.8562 c -0.1624,-0.2754 -0.529,-0.4104 -0.8312,-0.3062 l -2.9094,0.9844 c -0.8744,-0.7 -1.8709,-1.2697 -2.9312,-1.6844 l -0.5906,-2.9968 c -0.06,-0.3137 -0.3588,-0.5644 -0.6781,-0.5688 h -5.5999 c -0.022,-5e-4 -0.044,-5e-4 -0.066,0 z"
       id="path4321"
       inkscape:connector-curvature="0" />
    <path
       style="display:inline;opacity:1;fill:#ffffff;fill-opacity:0.2;stroke:none;enable-background:new"
       d="m 135.11965,498.0049 c -0.2968,0.032 -0.5395,0.2689 -0.5937,0.5625 l -0.5938,3 c -1.0603,0.4146 -2.0631,0.9875 -2.9375,1.6875 l -2.9062,-0.9688 c -0.3023,-0.1042 -0.6814,0.01 -0.8438,0.2813 l -2.6875,4.6875 c 0.019,0.021 0.041,0.044 0.062,0.062 l 0.3125,0.2812 2.3125,-4.0312 c 0.1624,-0.2755 0.5415,-0.3855 0.8438,-0.2813 l 2.9062,0.9688 c 0.8744,-0.7 1.8772,-1.2729 2.9375,-1.6875 l 0.5938,-3 c 0.054,-0.2936 0.2969,-0.5302 0.5937,-0.5625 0.022,-6e-4 0.041,-6e-4 0.062,0 h 5.625 c 0.3194,0 0.5964,0.2488 0.6563,0.5625 l 0.5937,3 c 1.0603,0.4146 2.0631,0.9875 2.9375,1.6875 l 2.9063,-0.9688 c 0.3022,-0.1042 0.6813,0.01 0.8437,0.2813 l 2.3125,4.0312 0.3125,-0.2812 c 0.022,-0.019 0.043,-0.041 0.062,-0.062 l -2.6875,-4.6875 c -0.1624,-0.2754 -0.5415,-0.3855 -0.8437,-0.2813 l -2.9063,0.9688 c -0.8744,-0.7 -1.8772,-1.2729 -2.9375,-1.6875 l -0.5937,-3 c -0.06,-0.3137 -0.3369,-0.5582 -0.6563,-0.5625 h -5.625 c -0.022,-6e-4 -0.041,-6e-4 -0.062,0 z m -10.7187,9.6562 c -0.017,0.093 -0.019,0.1574 0,0.25 -0.014,-0.079 -0.012,-0.1712 0,-0.25 z m 27.1875,0 c 0.012,0.079 0.014,0.1712 0,0.25 0.019,-0.093 0.017,-0.1574 0,-0.25 z m -24.75,3.5938 c -0.01,0.082 0,0.1671 0,0.25 0.01,0.1695 0.02,0.3338 0.031,0.5 0.014,-0.2187 0.03,-0.4383 0.062,-0.6563 l -0.094,-0.094 z m 22.3125,0 -0.094,0.094 c 0.033,0.218 0.048,0.4376 0.062,0.6562 0.011,-0.1661 0.023,-0.3305 0.031,-0.5 -0.01,-0.083 0.01,-0.168 0,-0.25 z m -22.3125,2.5 -2.2188,1.9375 c -0.022,0.019 -0.043,0.041 -0.062,0.062 l 0.375,0.6562 2,-1.75 c -0.045,-0.303 -0.071,-0.5984 -0.094,-0.9062 z m 22.3125,0 c -0.023,0.3078 -0.048,0.6032 -0.094,0.9062 l 2,1.75 0.375,-0.6562 c -0.019,-0.022 -0.041,-0.044 -0.062,-0.062 l -2.2188,-1.9375 z"
       id="path4360"
       inkscape:connector-curvature="0" />
    <path
       id="path4027"
       d="m 87.947993,506.0039 c -0.21201,0.023 -0.39877,0.1966 -0.43751,0.4063 l -0.42189,2.1407 c -0.75739,0.2962 -1.46921,0.7031 -2.09382,1.2031 l -2.07819,-0.7031 c -0.2159,-0.075 -0.47777,0.022 -0.59377,0.2188 l -2.00006,3.4688 c -0.11266,0.1995 -0.0643,0.4756 0.10938,0.625 l 1.6563,1.4532 c -0.0583,0.3896 -0.0937,0.7817 -0.0937,1.1875 0,0.4059 0.0354,0.7979 0.0937,1.1876 l -1.6563,1.4532 c -0.17372,0.1493 -0.22204,0.4255 -0.10938,0.625 l 2.00006,3.4688 c 0.116,0.1967 0.37787,0.2932 0.59377,0.2188 l 2.07819,-0.7032 c 0.62461,0.5 1.33643,0.907 2.09382,1.2032 l 0.42189,2.1407 c 0.0427,0.2241 0.25628,0.4031 0.48439,0.4063 h 4.00012 c 0.22811,0 0.44162,-0.1822 0.48439,-0.4063 l 0.42189,-2.1407 c 0.75738,-0.2962 1.46921,-0.7032 2.09382,-1.2032 l 2.07819,0.7032 c 0.2159,0.075 0.47777,-0.022 0.59376,-0.2188 l 2.00007,-3.4688 c 0.11265,-0.1995 0.0643,-0.4757 -0.10938,-0.625 l -1.6563,-1.4532 c 0.0583,-0.3897 0.0937,-0.7817 0.0937,-1.1876 0,-0.4058 -0.0354,-0.7979 -0.0937,-1.1875 l 1.6563,-1.4532 c 0.17371,-0.1494 0.22203,-0.4255 0.10938,-0.625 l -2.00007,-3.4688 c -0.11599,-0.1968 -0.37786,-0.2932 -0.59376,-0.2188 l -2.07819,0.7031 c -0.62461,-0.5 -1.33644,-0.9069 -2.09382,-1.2031 l -0.42189,-2.1407 c -0.0428,-0.2241 -0.25628,-0.4032 -0.48439,-0.4063 h -4.00012 c -0.0156,-5e-4 -0.0313,-5e-4 -0.0469,0 z"
       style="display:inline;fill:#3b414b;fill-opacity:1;stroke:none;enable-background:new"
       inkscape:connector-curvature="0" />
    <path
       style="display:inline;opacity:1;fill:#ffffff;fill-opacity:0.2;stroke:none;enable-background:new"
       d="m 87.932433,506.0046 c -0.21201,0.023 -0.39876,0.1965 -0.4375,0.4062 l -0.40625,2.125 c -0.75739,0.2962 -1.46914,0.7188 -2.09375,1.2188 l -2.09375,-0.7188 c -0.2159,-0.075 -0.47775,0.022 -0.59375,0.2188 l -2,3.4687 0.1875,-0.2812 0.375,0.3125 1.4375,-2.5 c 0.116,-0.1968 0.37785,-0.2933 0.59375,-0.2188 l 2.09375,0.7188 c 0.62461,-0.5 1.33636,-0.9226 2.09375,-1.2188 l 0.40625,-2.125 c 0.0387,-0.2097 0.22549,-0.3831 0.4375,-0.4062 0.0156,-6e-4 0.0469,-6e-4 0.0625,0 h 4 c 0.22811,0 0.4572,0.1821 0.5,0.4062 l 0.40625,2.125 c 0.75738,0.2962 1.46914,0.7188 2.09375,1.2188 l 2.09375,-0.7188 c 0.2159,-0.075 0.47776,0.022 0.59375,0.2188 l 1.4375,2.5 0.375,-0.3125 0.1875,0.2812 -2,-3.4687 c -0.11599,-0.1968 -0.37785,-0.2932 -0.59375,-0.2188 l -2.09375,0.7188 c -0.62461,-0.5 -1.33637,-0.9226 -2.09375,-1.2188 l -0.40625,-2.125 c -0.0428,-0.2241 -0.27189,-0.4031 -0.5,-0.4062 h -4 c -0.0156,-6e-4 -0.0469,-6e-4 -0.0625,0 z m -5.875,9.7812 c 0.005,0.073 -0.008,0.1466 0,0.2188 0.007,-0.063 0.022,-0.1255 0.0312,-0.1875 l -0.0312,-0.031 z m 15.875,0 -0.0312,0.031 c 0.009,0.062 0.0246,0.1247 0.0312,0.1875 0.008,-0.072 -0.005,-0.1461 0,-0.2187 z m -15.875,0.4375 -0.0312,0.031 c 0.006,0.082 -0.006,0.167 0,0.25 0.006,-0.094 0.0241,-0.1869 0.0312,-0.2812 z m 15.875,0 c 0.007,0.094 0.0247,0.1871 0.0312,0.2813 0.006,-0.083 -0.006,-0.1675 0,-0.25 l -0.0312,-0.031 z m -15.90625,1.0313 -1.53125,1.3437 0.375,0.6563 1.21875,-1.0625 c -0.046,-0.3074 -0.0511,-0.6216 -0.0625,-0.9375 z m 15.9375,0 c -0.0114,0.3159 -0.0165,0.6301 -0.0625,0.9375 l 1.21875,1.0625 0.375,-0.6563 z"
       id="path4031"
       inkscape:connector-curvature="0" />
    <path
       id="path4395"
       d="m 87.932433,527.0042 c -0.21201,-0.023 -0.39876,-0.1966 -0.4375,-0.4063 l -0.40625,-2.125 c -0.75739,-0.2962 -1.46914,-0.7187 -2.09375,-1.2187 l -2.09375,0.7187 c -0.2159,0.075 -0.47775,-0.022 -0.59375,-0.2187 l -2,-3.4688 0.1875,0.2813 0.375,-0.3125 1.4375,2.5 c 0.116,0.1967 0.37785,0.2932 0.59375,0.2187 l 2.09375,-0.7187 c 0.62461,0.5 1.33636,0.9225 2.09375,1.2187 l 0.40625,2.125 c 0.0387,0.2097 0.22549,0.3832 0.4375,0.4063 0.0156,5e-4 0.0469,5e-4 0.0625,0 h 4 c 0.22811,0 0.4572,-0.1822 0.5,-0.4063 l 0.40625,-2.125 c 0.75738,-0.2962 1.46914,-0.7187 2.09375,-1.2187 l 2.09375,0.7187 c 0.2159,0.075 0.47776,-0.022 0.59375,-0.2187 l 1.4375,-2.5 0.375,0.3125 0.1875,-0.2813 -2,3.4688 c -0.11599,0.1967 -0.37785,0.2932 -0.59375,0.2187 l -2.09375,-0.7187 c -0.62461,0.5 -1.33637,0.9225 -2.09375,1.2187 l -0.40625,2.125 c -0.0428,0.2241 -0.27189,0.4032 -0.5,0.4063 h -4 c -0.0156,5e-4 -0.0469,5e-4 -0.0625,0 z m -5.875,-9.7813 c 0.005,-0.073 -0.008,-0.1466 0,-0.2187 0.007,0.063 0.022,0.1255 0.0312,0.1875 l -0.0312,0.031 z m 15.875,0 -0.0312,-0.031 c 0.009,-0.062 0.0246,-0.1247 0.0312,-0.1875 0.008,0.072 -0.005,0.1461 0,0.2188 z m -15.875,-0.4375 -0.0312,-0.031 c 0.006,-0.082 -0.006,-0.167 0,-0.25 0.006,0.094 0.0241,0.1869 0.0312,0.2813 z m 15.875,0 c 0.007,-0.094 0.0247,-0.1871 0.0312,-0.2812 0.006,0.083 -0.006,0.1675 0,0.25 l -0.0312,0.031 z m -15.90625,-1.0312 -1.53125,-1.3438 0.375,-0.6562 1.21875,1.0625 c -0.046,0.3073 -0.0511,0.6216 -0.0625,0.9375 z m 15.9375,0 c -0.0114,-0.3159 -0.0165,-0.6302 -0.0625,-0.9375 l 1.21875,-1.0625 0.375,0.6562 z"
       style="display:inline;opacity:1;fill:#000000;fill-opacity:0.2;stroke:none;enable-background:new"
       inkscape:connector-curvature="0" />
    <path
       style="display:inline;fill:url(#linearGradient4264);fill-opacity:1;stroke:none;stroke-width:2;stroke-linecap:round;stroke-linejoin:round;stroke-miterlimit:4;stroke-dasharray:none;stroke-opacity:1;enable-background:new"
       d="m 87.947987,-293.99643 c -0.21201,0.023 -0.39876,0.19655 -0.4375,0.40625 l -0.421875,2.14062 c -0.75739,0.2962 -1.46914,0.70313 -2.09375,1.20313 l -2.078125,-0.70313 c -0.2159,-0.075 -0.47775,0.022 -0.59375,0.21875 l -2,3.46875 c -0.11266,0.1995 -0.0643,0.4756 0.109375,0.625 l 1.65625,1.45313 c -0.0583,0.3896 -0.09375,0.7817 -0.09375,1.1875 0,0.4059 0.03545,0.7978 0.09375,1.1875 l -1.65625,1.45312 c -0.17372,0.1493 -0.222035,0.4255 -0.109375,0.625 l 2,3.46875 c 0.116,0.1967 0.37785,0.29315 0.59375,0.21875 l 2.078125,-0.70312 c 0.62461,0.5 1.33636,0.90692 2.09375,1.20312 l 0.421875,2.14063 c 0.0427,0.2241 0.256265,0.40305 0.484375,0.40625 h 4 c 0.22811,0 0.441605,-0.18215 0.484375,-0.40625 l 0.421875,-2.14063 c 0.75738,-0.2962 1.46914,-0.70312 2.09375,-1.20312 l 2.078125,0.70312 c 0.2159,0.075 0.47776,-0.022 0.59375,-0.21875 l 2,-3.46875 c 0.11265,-0.1995 0.06431,-0.4757 -0.109375,-0.625 l -1.65625,-1.45312 c 0.0583,-0.3897 0.09375,-0.7816 0.09375,-1.1875 0,-0.4058 -0.03545,-0.7979 -0.09375,-1.1875 l 1.65625,-1.45313 c 0.17371,-0.1494 0.222025,-0.4255 0.109375,-0.625 l -2,-3.46875 c -0.11599,-0.1968 -0.37785,-0.29315 -0.59375,-0.21875 l -2.078125,0.70313 c -0.62461,-0.5 -1.33637,-0.90693 -2.09375,-1.20313 l -0.421875,-2.14062 c -0.0428,-0.2241 -0.256265,-0.40315 -0.484375,-0.40625 h -4 c -0.0156,-5e-4 -0.03128,-5e-4 -0.04687,0 z"
       id="path4262"
       inkscape:connector-curvature="0" />
    <path
       style="display:inline;fill:url(#linearGradient5224);fill-opacity:1;stroke:none;stroke-width:2;stroke-linecap:round;stroke-linejoin:round;stroke-miterlimit:4;stroke-dasharray:none;stroke-opacity:1;enable-background:new"
       d="m 189.90091,-315.99643 c -0.424,0.046 -0.7975,0.393 -0.875,0.8125 l -0.84375,4.28125 c -1.5147,0.5924 -2.9383,1.40625 -4.1875,2.40625 l -4.15625,-1.40625 c -0.4318,-0.1489 -0.9555,0.044 -1.1875,0.4375 l -4,6.9375 c -0.2253,0.399 -0.12865,0.9512 0.21875,1.25 l 3.3125,2.90625 c -0.1166,0.7792 -0.1875,1.5632 -0.1875,2.375 0,0.8117 0.071,1.5957 0.1875,2.375 l -3.3125,2.90625 c -0.3474,0.2988 -0.44405,0.851 -0.21875,1.25 l 4,6.9375 c 0.232,0.3934 0.7557,0.5864 1.1875,0.4375 l 4.15625,-1.40625 c 1.2492,0.9999 2.6728,1.81385 4.1875,2.40625 l 0.84375,4.28125 c 0.085,0.4481 0.51255,0.8062 0.96875,0.8125 h 8 c 0.4562,-0.01 0.88315,-0.3644 0.96875,-0.8125 l 0.84375,-4.28125 c 1.5147,-0.5924 2.9384,-1.40635 4.1875,-2.40625 l 4.15625,1.40625 c 0.4318,0.1489 0.9555,-0.044 1.1875,-0.4375 l 4,-6.9375 c 0.2253,-0.399 0.12865,-0.9512 -0.21875,-1.25 l -3.3125,-2.90625 c 0.1167,-0.7793 0.1875,-1.5633 0.1875,-2.375 0,-0.8118 -0.071,-1.5958 -0.1875,-2.375 l 3.3125,-2.90625 c 0.3474,-0.2988 0.44405,-0.851 0.21875,-1.25 l -4,-6.9375 c -0.232,-0.3934 -0.7557,-0.5864 -1.1875,-0.4375 l -4.15625,1.40625 c -1.2491,-1 -2.6728,-1.81385 -4.1875,-2.40625 l -0.84375,-4.28125 c -0.086,-0.4482 -0.51255,-0.8063 -0.96875,-0.8125 h -8 z"
       id="path5218"
       inkscape:connector-curvature="0" />
    <path
       style="display:inline;fill:url(#linearGradient5226);fill-opacity:1;stroke:none;stroke-width:2;stroke-linecap:round;stroke-linejoin:round;stroke-miterlimit:4;stroke-dasharray:none;stroke-opacity:1;enable-background:new"
       d="m 135.12948,-301.99448 c -0.2968,0.032 -0.55898,0.27476 -0.61328,0.56836 l -0.58985,2.99609 c -1.0603,0.4147 -2.05724,0.98555 -2.93164,1.68555 l -2.9082,-0.98633 c -0.3023,-0.1042 -0.66963,0.0314 -0.83203,0.30664 l -2.80079,4.85742 c -0.1577,0.2793 -0.0888,0.6659 0.1543,0.875 l 2.31836,2.03321 c -0.082,0.5454 -0.13086,1.09391 -0.13086,1.66211 0,0.5683 0.0497,1.11856 0.13086,1.66406 l -2.31836,2.0332 c -0.2432,0.2091 -0.312,0.5957 -0.1543,0.875 l 2.80079,4.85742 c 0.1624,0.2754 0.52973,0.40889 0.83203,0.30469 l 2.9082,-0.98437 c 0.8744,0.7 1.87134,1.27084 2.93164,1.68554 l 0.58985,2.9961 c 0.06,0.3137 0.35833,0.56396 0.67773,0.56836 h 5.60156 c 0.3193,0 0.61784,-0.25466 0.67774,-0.56836 l 0.58984,-2.9961 c 1.0603,-0.4147 2.05724,-0.98554 2.93164,-1.68554 l 2.91016,0.98437 c 0.3022,0.1042 0.66768,-0.0294 0.83008,-0.30469 l 2.80078,-4.85742 c 0.1577,-0.2793 0.0888,-0.6659 -0.1543,-0.875 l -2.31836,-2.0332 c 0.082,-0.5455 0.13086,-1.09576 0.13086,-1.66406 0,-0.5682 -0.0496,-1.11671 -0.13086,-1.66211 l 2.31836,-2.03321 c 0.2431,-0.2091 0.312,-0.5957 0.1543,-0.875 l -2.80078,-4.85742 c -0.1624,-0.2754 -0.52788,-0.41084 -0.83008,-0.30664 l -2.91016,0.98633 c -0.8744,-0.7 -1.87134,-1.27085 -2.93164,-1.68555 l -0.58984,-2.99609 c -0.06,-0.3137 -0.35844,-0.56396 -0.67774,-0.56836 h -5.60156 c -0.022,-5e-4 -0.0425,-5e-4 -0.0645,0 z"
       id="path5220"
       inkscape:connector-curvature="0" />
    <path
       style="display:inline;fill:url(#linearGradient5228);fill-opacity:1;stroke:none;stroke-width:15.99999523;stroke-linecap:round;stroke-linejoin:round;stroke-miterlimit:4;stroke-dasharray:none;stroke-opacity:1;enable-background:new"
       d="m 523.94531,-751.98567 c -4.7489,0.5176 -8.93103,4.40221 -9.79883,9.09961 l -9.45117,47.94922 c -16.9645,6.6344 -32.90794,15.74972 -46.89843,26.94922 l -46.54883,-15.75 c -4.8359,-1.6675 -10.70248,0.49409 -13.30078,4.90039 l -44.79883,77.6973 c -2.5234,4.4688 -1.43983,10.6536 2.45117,14 l 37.09961,32.5508 c -1.3064,8.7275 -2.10156,17.5082 -2.10156,26.5996 0,9.0914 0.79606,17.8701 2.10156,26.5976 l -37.09961,32.5508 c -3.891,3.3464 -4.97457,9.5312 -2.45117,14 l 44.79883,77.6973 c 2.5983,4.4064 8.46488,6.568 13.30078,4.9004 l 46.54883,-15.75 c 13.99049,11.1994 29.93393,20.3147 46.89843,26.9492 l 9.45117,47.9492 c 0.9576,5.0192 5.74031,9.03 10.84961,9.0996 h 89.59766 c 5.1093,-0.064 9.89161,-4.0804 10.84961,-9.0996 l 9.45117,-47.9492 c 16.9646,-6.6345 32.90804,-15.7498 46.89844,-26.9492 l 46.54883,15.75 c 4.8359,1.6676 10.70258,-0.4941 13.30078,-4.9004 l 44.79883,-77.6973 c 2.5235,-4.4688 1.43992,-10.6536 -2.45118,-14 l -37.09765,-32.5508 c 1.3064,-8.7275 2.09961,-17.5062 2.09961,-26.5976 0,-9.0914 -0.79401,-17.8721 -2.09961,-26.5996 l 37.09765,-32.5508 c 3.8911,-3.3464 4.97468,-9.5312 2.45118,-14 l -44.79883,-77.6973 c -2.5982,-4.4063 -8.46488,-6.56789 -13.30078,-4.90039 l -46.54883,15.75 c -13.9904,-11.1995 -29.93384,-20.31482 -46.89844,-26.94922 l -9.45117,-47.94922 c -0.958,-5.0192 -5.74031,-9.03011 -10.84961,-9.09961 h -89.59766 c -0.3496,-0.01 -0.69952,-0.01 -1.04882,0 z"
       id="path5222"
       inkscape:connector-curvature="0" />
    <path
       style="display:inline;opacity:1;fill:#000000;fill-opacity:0.2;stroke:none;stroke-width:2;filter:url(#filter5337);enable-background:new"
       d="m 260.33988,525.00825 c -0.5936,-0.064 -1.079,-0.5378 -1.1874,-1.125 l -1.1876,-6 c -2.1206,-0.8294 -4.1262,-1.9752 -5.875,-3.375 l -5.8124,1.9374 c -0.6046,0.2084 -1.3628,-0.02 -1.6876,-0.5624 l -5.375,-9.375 c 0.038,-0.044 0.082,-0.088 0.124,-0.124 l 0.625,-0.5626 4.625,8.0626 c 0.3248,0.5508 1.083,0.7708 1.6876,0.5624 l 5.8124,-1.9374 c 1.7488,1.3998 3.7544,2.5456 5.875,3.375 l 1.1876,6 c 0.108,0.5872 0.5938,1.0604 1.1874,1.125 0.044,0.001 0.082,0.001 0.124,0 h 11.25 c 0.6388,0 1.1928,-0.4976 1.3126,-1.125 l 1.1874,-6 c 2.1206,-0.8294 4.1262,-1.9752 5.875,-3.375 l 5.8126,1.9374 c 0.6044,0.2084 1.3626,-0.02 1.6874,-0.5624 l 4.625,-8.0626 0.625,0.5626 c 0.044,0.038 0.086,0.082 0.124,0.124 l -5.375,9.375 c -0.3248,0.5508 -1.083,0.7708 -1.6874,0.5624 l -5.8126,-1.9374 c -1.7488,1.3998 -3.7544,2.5456 -5.875,3.375 l -1.1874,6 c -0.12,0.6274 -0.6738,1.1162 -1.3126,1.125 h -11.25 c -0.044,10e-4 -0.082,10e-4 -0.124,0 z m -21.4374,-19.3126 c -0.034,-0.186 -0.038,-0.3148 0,-0.5 -0.028,0.158 -0.024,0.3424 0,0.5 z m 54.375,0 c 0.024,-0.158 0.028,-0.3422 0,-0.5 0.038,0.186 0.034,0.315 0,0.5 z m -49.5,-7.1874 c -0.02,-0.164 0,-0.3342 0,-0.5 0.02,-0.339 0.04,-0.6678 0.062,-1 0.028,0.4372 0.06,0.8764 0.124,1.3124 l -0.188,0.188 z m 44.625,0 -0.188,-0.188 c 0.066,-0.436 0.096,-0.8754 0.124,-1.3126 0.022,0.3322 0.046,0.661 0.062,1 -0.02,0.166 0.02,0.3362 0,0.5 z m -44.625,-5 -4.4376,-3.875 c -0.044,-0.038 -0.086,-0.082 -0.124,-0.124 l 0.75,-1.3126 4,3.5 c -0.09,0.606 -0.142,1.197 -0.188,1.8126 z m 44.625,0 c -0.046,-0.6156 -0.096,-1.2066 -0.188,-1.8126 l 4,-3.5 0.75,1.3126 c -0.038,0.042 -0.082,0.088 -0.124,0.124 l -4.4376,3.875 z"
       id="path5320"
       inkscape:connector-curvature="0" />
    <path
       inkscape:connector-curvature="0"
       id="path5312"
       d="m 260.35888,468.00989 c -0.5936,0.064 -1.1164,0.5504 -1.225,1.1376 l -1.1812,5.9936 c -2.1206,0.8294 -4.1136,1.9688 -5.8624,3.3688 l -5.8186,-1.9688 c -0.6046,-0.2084 -1.3378,0.062 -1.6626,0.6124 l -5.5998,9.7124 c -0.3154,0.5586 -0.18,1.3318 0.3062,1.75 l 4.6374,4.0688 c -0.164,1.0908 -0.2624,2.1884 -0.2624,3.3248 0,1.1366 0.1,2.234 0.2624,3.325 l -4.6374,4.0688 c -0.4864,0.4182 -0.6216,1.1914 -0.3062,1.75 l 5.5998,9.7122 c 0.3248,0.5508 1.058,0.821 1.6626,0.6126 l 5.8186,-1.9688 c 1.7488,1.4 3.7418,2.5394 5.8624,3.3688 l 1.1812,5.9936 c 0.12,0.6274 0.7176,1.1288 1.3564,1.1376 h 11.1998 c 0.6386,0 1.2364,-0.5102 1.3562,-1.1376 l 1.1812,-5.9936 c 2.1206,-0.8294 4.1136,-1.9688 5.8624,-3.3688 l 5.8188,1.9688 c 0.6044,0.2084 1.3376,-0.062 1.6624,-0.6126 l 5.6,-9.7122 c 0.3154,-0.5586 0.18,-1.3318 -0.3062,-1.75 l -4.6376,-4.0688 c 0.164,-1.091 0.2626,-2.1884 0.2626,-3.325 0,-1.1364 -0.1,-2.234 -0.2626,-3.3248 l 4.6376,-4.0688 c 0.4862,-0.4182 0.6216,-1.1914 0.3062,-1.75 l -5.6,-9.7124 c -0.3248,-0.5508 -1.058,-0.8208 -1.6624,-0.6124 l -5.8188,1.9688 c -1.7488,-1.4 -3.7418,-2.5394 -5.8624,-3.3688 l -1.1812,-5.9936 c -0.12,-0.6274 -0.7176,-1.1288 -1.3562,-1.1376 h -11.1998 c -0.044,-10e-4 -0.088,-10e-4 -0.132,0 z"
       style="display:inline;fill:#3b414b;fill-opacity:1;stroke:none;stroke-width:2;enable-background:new" />
    <path
       style="display:inline;opacity:1;fill:#ffffff;fill-opacity:0.2;stroke:none;stroke-width:2;enable-background:new"
       d="m 260.33805,468.00977 c -0.59273,0.0648 -1.07726,0.53843 -1.18555,1.125 l -1.1875,6 c -2.1206,0.8292 -4.1262,1.975 -5.875,3.375 l -5.8125,-1.9375 c -0.6046,-0.2084 -1.3627,0.0199 -1.6875,0.5625 l -5.375,9.375 c 0.038,0.042 0.0811,0.089 0.12305,0.125 l 0.25,0.22461 5.00195,-8.72461 c 0.3248,-0.5426 1.0829,-0.7709 1.6875,-0.5625 l 5.8125,1.9375 c 1.7488,-1.4 3.7544,-2.5458 5.875,-3.375 l 1.1875,-6 c 0.10829,-0.58657 0.59282,-1.06019 1.18555,-1.125 h 0.002 c 0.0412,-9.6e-4 0.0778,-9.9e-4 0.1211,0 h 11.25 c 0.6388,0.009 1.1925,0.4976 1.3125,1.125 l 1.1875,6 c 2.1206,0.8292 4.1262,1.975 5.875,3.375 l 5.8125,-1.9375 c 0.6044,-0.2084 1.3627,0.0117 1.6875,0.5625 l 5.00195,8.72461 0.25,-0.22461 c 0.044,-0.038 0.0851,-0.083 0.12305,-0.125 l -5.375,-9.375 c -0.3248,-0.5508 -1.0831,-0.7709 -1.6875,-0.5625 l -5.8125,1.9375 c -1.7488,-1.4 -3.7544,-2.5458 -5.875,-3.375 l -1.1875,-6 c -0.12,-0.6274 -0.6737,-1.1164 -1.3125,-1.125 h -11.25 c -0.0433,-9.9e-4 -0.0799,-9.6e-4 -0.1211,0 z m -21.43555,19.3125 c -0.034,0.186 -0.038,0.3148 0,0.5 -0.028,-0.158 -0.024,-0.3424 0,-0.5 z m 54.375,0 c 0.024,0.158 0.028,0.3424 0,0.5 0.038,-0.186 0.034,-0.3148 0,-0.5 z m -49.5,7.18945 c -0.0196,0.16341 0,0.33289 0,0.49805 0.0107,0.18141 0.0222,0.35752 0.0332,0.53515 l 0.0664,0.0664 c 0.023,-0.30507 0.0414,-0.61041 0.0859,-0.91406 z m 44.62305,0 -0.18555,0.18555 c 0.046,0.30365 0.0634,0.60906 0.0859,0.91406 l 0.0664,-0.0664 c 0.0116,-0.17765 0.0246,-0.35374 0.0332,-0.53515 -0.0199,-0.16536 0.0195,-0.33465 0,-0.49805 z m -44.62305,4.99805 -4.4375,3.875 c -0.044,0.038 -0.087,0.083 -0.125,0.125 l 0.375,0.65625 4.1875,-3.65625 c 0.0227,0.30376 0.0623,0.59801 0.0918,0.89453 l 0.0957,-0.082 c -0.09,-0.606 -0.1415,-1.1969 -0.1875,-1.8125 z m 44.625,0.002 c -0.046,0.61489 -0.0956,1.20519 -0.1875,1.81055 l 0.0957,0.082 c 0.0292,-0.29653 0.0691,-0.59074 0.0918,-0.89453 l 4.1875,3.65625 0.375,-0.65625 c -0.038,-0.044 -0.083,-0.087 -0.125,-0.12305 z"
       id="path5318"
       inkscape:connector-curvature="0" />
    <path
       inkscape:connector-curvature="0"
       id="path5324"
       d="m 260.35954,-331.98853 c -0.5936,0.064 -1.11796,0.54952 -1.22656,1.13672 l -1.1797,5.99218 c -2.1206,0.8294 -4.11448,1.9711 -5.86328,3.3711 l -5.8164,-1.97266 c -0.6046,-0.2084 -1.33926,0.0628 -1.66406,0.61328 l -5.60156,9.71484 c -0.3154,0.5586 -0.1776,1.3318 0.30858,1.75 l 4.63672,4.06642 c -0.164,1.0908 -0.26172,2.18782 -0.26172,3.32422 0,1.1366 0.0994,2.23712 0.26172,3.32812 l -4.63672,4.0664 c -0.4864,0.4182 -0.62398,1.1914 -0.30858,1.75 l 5.60156,9.71484 c 0.3248,0.5508 1.05946,0.81778 1.66406,0.60938 l 5.8164,-1.96874 c 1.7488,1.4 3.74268,2.54168 5.86328,3.37108 l 1.1797,5.9922 c 0.12,0.6274 0.71666,1.12792 1.35546,1.13672 h 11.20312 c 0.6386,0 1.23568,-0.50932 1.35548,-1.13672 l 1.17968,-5.9922 c 2.1206,-0.8294 4.11448,-1.97108 5.86328,-3.37108 l 5.82032,1.96874 c 0.6044,0.2084 1.33536,-0.0588 1.66016,-0.60938 l 5.60156,-9.71484 c 0.3154,-0.5586 0.1776,-1.3318 -0.3086,-1.75 l -4.63672,-4.0664 c 0.164,-1.091 0.26172,-2.19152 0.26172,-3.32812 0,-1.1364 -0.0992,-2.23342 -0.26172,-3.32422 l 4.63672,-4.06642 c 0.4862,-0.4182 0.624,-1.1914 0.3086,-1.75 l -5.60156,-9.71484 c -0.3248,-0.5508 -1.05576,-0.82168 -1.66016,-0.61328 l -5.82032,1.97266 c -1.7488,-1.4 -3.74268,-2.5417 -5.86328,-3.3711 l -1.17968,-5.99218 c -0.12,-0.6274 -0.71688,-1.12792 -1.35548,-1.13672 h -11.20312 c -0.044,-10e-4 -0.085,-10e-4 -0.129,0 z"
       style="display:inline;fill:url(#linearGradient5326);fill-opacity:1;stroke:none;stroke-width:4;stroke-linecap:round;stroke-linejoin:round;stroke-miterlimit:4;stroke-dasharray:none;stroke-opacity:1;enable-background:new" />
    <path
       id="path4593"
       d="m 266.09961,473.59961 a 22.4,22.4 0 0 0 -10.92969,2.87891 l -0.0137,-0.01 c -0.16488,0.0917 -0.3199,0.19761 -0.48242,0.29297 a 22.4,22.4 0 0 0 -0.90039,0.54883 c -0.58053,0.37686 -1.14723,0.77179 -1.6836,1.20117 l -5.8164,-1.97266 c -0.6046,-0.2084 -1.33926,0.0628 -1.66406,0.61328 l -5.60157,9.71485 c -0.3154,0.5586 -0.17758,1.3318 0.3086,1.75 l 4.63671,4.0664 c -0.0265,0.17594 -0.0364,0.35475 -0.0586,0.53125 a 22.4,22.4 0 0 0 -0.10156,0.90821 c -0.009,0.10468 -0.0271,0.20746 -0.0352,0.3125 l 0.0195,0.008 a 22.4,22.4 0 0 0 -0.0781,1.55664 22.4,22.4 0 0 0 22.40039,22.40039 22.4,22.4 0 0 0 11.94531,-3.46094 22.4,22.4 0 0 0 0.002,-0.002 22.4,22.4 0 0 0 0.38281,-0.25 c 0.57173,-0.37085 1.13222,-0.75704 1.66015,-1.17969 l 5.82032,1.96875 c 0.6044,0.2084 1.33535,-0.0588 1.66015,-0.60937 l 5.60157,-9.71485 c 0.3154,-0.5586 0.1776,-1.3318 -0.3086,-1.75 l -4.63672,-4.0664 c 0.008,-0.0563 0.0115,-0.11358 0.0195,-0.16992 a 22.4,22.4 0 0 0 0.16407,-1.40235 A 22.4,22.4 0 0 0 288.5,496 22.4,22.4 0 0 0 266.09961,473.59961 Z M 263,484 h 6 v 6 h -6 z m 0,9 h 6 v 15 h -6 z"
       style="display:inline;fill:#000000;fill-opacity:0.2;stroke:none;stroke-width:4;stroke-linecap:round;stroke-linejoin:round;stroke-miterlimit:4;stroke-dasharray:none;stroke-opacity:1;filter:url(#filter4595);enable-background:new"
       inkscape:connector-curvature="0" />
    <path
       style="display:inline;fill:#000000;fill-opacity:0.1;stroke:none;stroke-width:4;stroke-linecap:round;stroke-linejoin:round;stroke-miterlimit:4;stroke-dasharray:none;stroke-opacity:1;filter:url(#filter4601);enable-background:new"
       d="m 266.09961,474.59922 a 22.4,22.4 0 0 0 -10.92969,2.87891 l -0.0137,-0.01 c -0.16488,0.0917 -0.3199,0.19761 -0.48242,0.29297 a 22.4,22.4 0 0 0 -0.90039,0.54883 c -0.58053,0.37686 -1.14723,0.77179 -1.6836,1.20117 l -5.8164,-1.97266 c -0.6046,-0.2084 -1.33926,0.0628 -1.66406,0.61328 l -5.60157,9.71485 c -0.3154,0.5586 -0.17758,1.3318 0.3086,1.75 l 4.63671,4.0664 c -0.0265,0.17594 -0.0364,0.35475 -0.0586,0.53125 a 22.4,22.4 0 0 0 -0.10156,0.90821 c -0.009,0.10468 -0.0271,0.20746 -0.0352,0.3125 l 0.0195,0.008 a 22.4,22.4 0 0 0 -0.0781,1.55664 22.4,22.4 0 0 0 22.40039,22.40039 22.4,22.4 0 0 0 11.94531,-3.46094 22.4,22.4 0 0 0 0.002,-0.002 22.4,22.4 0 0 0 0.38281,-0.25 c 0.57173,-0.37085 1.13222,-0.75704 1.66015,-1.17969 l 5.82032,1.96875 c 0.6044,0.2084 1.33535,-0.0588 1.66015,-0.60937 l 5.60157,-9.71485 c 0.3154,-0.5586 0.1776,-1.3318 -0.3086,-1.75 l -4.63672,-4.0664 c 0.008,-0.0563 0.0115,-0.11358 0.0195,-0.16992 a 22.4,22.4 0 0 0 0.16407,-1.40235 22.4,22.4 0 0 0 0.0898,-1.76367 22.4,22.4 0 0 0 -22.40039,-22.40039 z M 263,484.99961 h 6 v 6 h -6 z m 0,9 h 6 v 15 h -6 z"
       id="path4599"
       inkscape:connector-curvature="0" />
    <path
       style="display:inline;fill:#0ea7e5;fill-opacity:1;stroke:none;stroke-width:4;stroke-linecap:round;stroke-linejoin:round;stroke-miterlimit:4;stroke-dasharray:none;stroke-opacity:1;enable-background:new"
       d="m 266.09961,473.59961 a 22.4,22.4 0 0 0 -10.92969,2.87891 l -0.0137,-0.01 c -0.16488,0.0917 -0.3199,0.19761 -0.48242,0.29297 a 22.4,22.4 0 0 0 -0.90039,0.54883 c -0.58053,0.37686 -1.14723,0.77179 -1.6836,1.20117 l -5.8164,-1.97266 c -0.6046,-0.2084 -1.33926,0.0628 -1.66406,0.61328 l -5.60157,9.71485 c -0.3154,0.5586 -0.17758,1.3318 0.3086,1.75 l 4.63671,4.0664 c -0.0265,0.17594 -0.0364,0.35475 -0.0586,0.53125 a 22.4,22.4 0 0 0 -0.10156,0.90821 c -0.009,0.10468 -0.0271,0.20746 -0.0352,0.3125 l 0.0195,0.008 a 22.4,22.4 0 0 0 -0.0781,1.55664 22.4,22.4 0 0 0 22.40039,22.40039 22.4,22.4 0 0 0 11.94531,-3.46094 22.4,22.4 0 0 0 0.002,-0.002 22.4,22.4 0 0 0 0.38281,-0.25 c 0.57173,-0.37085 1.13222,-0.75704 1.66015,-1.17969 l 5.82032,1.96875 c 0.6044,0.2084 1.33535,-0.0588 1.66015,-0.60937 l 5.60157,-9.71485 c 0.3154,-0.5586 0.1776,-1.3318 -0.3086,-1.75 l -4.63672,-4.0664 c 0.008,-0.0563 0.0115,-0.11358 0.0195,-0.16992 a 22.4,22.4 0 0 0 0.16407,-1.40235 A 22.4,22.4 0 0 0 288.5,496 22.4,22.4 0 0 0 266.09961,473.59961 Z M 263,484 h 6 v 6 h -6 z m 0,9 h 6 v 15 h -6 z"
       id="path4567"
       inkscape:connector-curvature="0" />
    <path
       style="display:inline;fill:#ffffff;fill-opacity:0.2;stroke:none;stroke-width:4;stroke-linecap:round;stroke-linejoin:round;stroke-miterlimit:4;stroke-dasharray:none;stroke-opacity:1;enable-background:new"
       d="m 266.09961,473.59961 a 22.4,22.4 0 0 0 -10.92969,2.87891 l -0.0137,-0.01 c -0.16488,0.0917 -0.3199,0.19761 -0.48242,0.29297 a 22.4,22.4 0 0 0 -0.90039,0.54883 c -0.58053,0.37686 -1.14723,0.77179 -1.6836,1.20117 l -5.8164,-1.97266 c -0.6046,-0.2084 -1.33926,0.0628 -1.66406,0.61328 l -5.60157,9.71485 c -0.2011,0.35616 -0.19881,0.79277 -0.0586,1.17578 0.0223,-0.0581 0.0278,-0.12123 0.0586,-0.17578 l 5.60157,-9.71485 c 0.3248,-0.55048 1.05946,-0.82168 1.66406,-0.61328 l 5.8164,1.97266 c 0.53637,-0.42938 1.10307,-0.82431 1.6836,-1.20117 a 22.4,22.4 0 0 1 0.90039,-0.54883 c 0.16252,-0.0954 0.31754,-0.20127 0.48242,-0.29297 l 0.0137,0.01 a 22.4,22.4 0 0 1 10.92969,-2.87891 22.4,22.4 0 0 1 22.375,21.89453 A 22.4,22.4 0 0 0 288.5,496 22.4,22.4 0 0 0 266.09961,473.59961 Z M 263,490 v 1 h 6 v -1 z m -19.14844,3.5957 a 22.4,22.4 0 0 0 -0.0586,0.52735 c -0.009,0.10468 -0.0271,0.20746 -0.0352,0.3125 l 0.0195,0.008 a 22.4,22.4 0 0 0 -0.0781,1.55664 22.4,22.4 0 0 0 0.0254,0.50195 22.4,22.4 0 0 1 0.0527,-1.05859 l -0.0195,-0.008 c 0.008,-0.10504 0.0262,-0.20782 0.0352,-0.3125 a 22.4,22.4 0 0 1 0.10156,-0.90821 c 0.0222,-0.1765 0.0321,-0.35531 0.0586,-0.53125 z m 44.48047,5.83399 a 22.4,22.4 0 0 1 -0.0859,0.73633 c -0.008,0.0563 -0.0115,0.11362 -0.0195,0.16992 l 4.63672,4.0664 c 0.1762,0.15156 0.28749,0.35653 0.36719,0.57422 0.20602,-0.53708 0.0717,-1.1967 -0.36719,-1.57422 z M 263,508 v 1 h 6 v -1 z"
       id="path4605"
       inkscape:connector-curvature="0" />
    <path
       id="path4586"
       d="m 194.00977,488 a 15.999793,15.999793 0 0 0 -7.80665,2.05664 l -0.01,-0.008 c -0.11777,0.0655 -0.22767,0.14283 -0.34375,0.21094 a 15.999793,15.999793 0 0 0 -0.64453,0.39062 c -0.41466,0.26918 -0.81806,0.55268 -1.20117,0.85938 l -4.15625,-1.41016 c -0.43185,-0.14885 -0.9555,0.0444 -1.1875,0.4375 l -4.00196,6.93945 c -0.22528,0.399 -0.12656,0.95129 0.22071,1.25 l 3.3125,2.9043 c -0.0189,0.12567 -0.0271,0.25479 -0.043,0.38086 a 15.999793,15.999793 0 0 0 -0.0723,0.64844 c -0.006,0.0748 -0.0177,0.14763 -0.0234,0.22265 l 0.0137,0.006 a 15.999793,15.999793 0 0 0 -0.0566,1.11133 15.999793,15.999793 0 0 0 16,16.00195 15.999793,15.999793 0 0 0 8.5332,-2.47265 15.999793,15.999793 0 0 0 0,-0.002 15.999793,15.999793 0 0 0 0.27344,-0.17773 c 0.40837,-0.26489 0.80845,-0.54186 1.18554,-0.84375 l 4.15821,1.40625 c 0.43171,0.14886 0.95354,-0.0403 1.18554,-0.43359 l 4,-6.93946 c 0.22528,-0.39899 0.12853,-0.95129 -0.21875,-1.25 l -3.3125,-2.90429 c 0.006,-0.0402 0.008,-0.0808 0.0137,-0.1211 a 15.999793,15.999793 0 0 0 0.11719,-1.00195 15.999793,15.999793 0 0 0 0.0645,-1.25977 15.999793,15.999793 0 0 0 -16,-16 z M 192,496 h 4 v 4 h -4 z m 0,6 h 4 v 10 h -4 z"
       style="display:inline;fill:#000000;fill-opacity:0.2;stroke:none;stroke-width:2.85710597;stroke-linecap:round;stroke-linejoin:round;stroke-miterlimit:4;stroke-dasharray:none;stroke-opacity:1;filter:url(#filter4588);enable-background:new"
       inkscape:connector-curvature="0" />
    <path
       style="display:inline;fill:#000000;fill-opacity:0.2;stroke:none;stroke-width:2.85710597;stroke-linecap:round;stroke-linejoin:round;stroke-miterlimit:4;stroke-dasharray:none;stroke-opacity:1;filter:url(#filter4591);enable-background:new"
       d="m 194.00977,489 a 15.999793,15.999793 0 0 0 -7.80665,2.05664 l -0.01,-0.008 c -0.11777,0.0655 -0.22767,0.14283 -0.34375,0.21094 a 15.999793,15.999793 0 0 0 -0.64453,0.39062 c -0.41466,0.26918 -0.81806,0.55268 -1.20117,0.85938 l -4.15625,-1.41016 c -0.43185,-0.14885 -0.9555,0.0444 -1.1875,0.4375 l -3.9961,6.92969 c 0.0538,0.0966 0.12074,0.18332 0.20508,0.25586 l 3.3125,2.90625 c -0.0447,0.29901 -0.0756,0.60061 -0.10547,0.90234 l 0.11524,0.0996 c -0.0189,0.12567 -0.0271,0.25479 -0.043,0.38086 a 15.999793,15.999793 0 0 0 -0.0723,0.64844 c -0.006,0.0748 -0.0177,0.14763 -0.0234,0.22265 l 0.0137,0.006 a 15.999793,15.999793 0 0 0 -0.043,0.82813 c 0.0281,0.5607 0.0763,1.11405 0.1582,1.66211 l -0.0977,0.0859 a 15.999793,15.999793 0 0 0 5.11329,10.3086 l 0.79687,-0.26953 c 1.2492,0.9999 2.6728,1.81385 4.1875,2.40625 l 0.20898,1.06445 a 15.999793,15.999793 0 0 0 5.61915,1.02734 15.999793,15.999793 0 0 0 5.58789,-1.0332 l 0.20898,-1.05859 c 1.5147,-0.5924 2.9384,-1.40635 4.1875,-2.40625 l 4.15625,1.40625 c 0.4318,0.1489 0.9555,-0.044 1.1875,-0.4375 l 3.99414,-6.92774 c -0.0536,-0.0957 -0.12145,-0.18392 -0.20508,-0.25586 l -3.3125,-2.90429 c 0.006,-0.0402 0.008,-0.0808 0.0137,-0.1211 a 15.999793,15.999793 0 0 0 0.0918,-0.78515 l -0.11328,-0.0996 c 0.0983,-0.65639 0.15359,-1.3193 0.17188,-1.9961 A 15.999793,15.999793 0 0 0 194.00977,489.00195 Z M 192,497 h 4 v 4 h -4 z m 0,6 h 4 v 10 h -4 z"
       id="path4596"
       inkscape:connector-curvature="0" />
    <path
       style="display:inline;fill:#0ea7e5;fill-opacity:1;stroke:none;stroke-width:2.85710597;stroke-linecap:round;stroke-linejoin:round;stroke-miterlimit:4;stroke-dasharray:none;stroke-opacity:1;enable-background:new"
       d="m 194.00977,488 a 15.999793,15.999793 0 0 0 -7.80665,2.05664 l -0.01,-0.008 c -0.11777,0.0655 -0.22767,0.14283 -0.34375,0.21094 a 15.999793,15.999793 0 0 0 -0.64453,0.39062 c -0.41466,0.26918 -0.81806,0.55268 -1.20117,0.85938 l -4.15625,-1.41016 c -0.43185,-0.14885 -0.9555,0.0444 -1.1875,0.4375 l -4.00196,6.93945 c -0.22528,0.399 -0.12656,0.95129 0.22071,1.25 l 3.3125,2.9043 c -0.0189,0.12567 -0.0271,0.25479 -0.043,0.38086 a 15.999793,15.999793 0 0 0 -0.0723,0.64844 c -0.006,0.0748 -0.0177,0.14763 -0.0234,0.22265 l 0.0137,0.006 a 15.999793,15.999793 0 0 0 -0.0566,1.11133 15.999793,15.999793 0 0 0 16,16.00195 15.999793,15.999793 0 0 0 8.5332,-2.47265 15.999793,15.999793 0 0 0 0,-0.002 15.999793,15.999793 0 0 0 0.27344,-0.17773 c 0.40837,-0.26489 0.80845,-0.54186 1.18554,-0.84375 l 4.15821,1.40625 c 0.43171,0.14886 0.95354,-0.0403 1.18554,-0.43359 l 4,-6.93946 c 0.22528,-0.39899 0.12853,-0.95129 -0.21875,-1.25 l -3.3125,-2.90429 c 0.006,-0.0402 0.008,-0.0808 0.0137,-0.1211 a 15.999793,15.999793 0 0 0 0.11719,-1.00195 15.999793,15.999793 0 0 0 0.0645,-1.25977 15.999793,15.999793 0 0 0 -16,-16 z M 192,496 h 4 v 4 h -4 z m 0,6 h 4 v 10 h -4 z"
       id="path4574"
       inkscape:connector-curvature="0" />
    <path
       style="display:inline;fill:#ffffff;fill-opacity:0.2;stroke:none;stroke-width:2.85710597;stroke-linecap:round;stroke-linejoin:round;stroke-miterlimit:4;stroke-dasharray:none;stroke-opacity:1;enable-background:new"
       d="m 194.00977,488 a 15.999793,15.999793 0 0 0 -7.80665,2.05664 l -0.01,-0.008 c -0.11777,0.0655 -0.22767,0.14283 -0.34375,0.21094 a 15.999793,15.999793 0 0 0 -0.64453,0.39062 c -0.41466,0.26918 -0.81806,0.55268 -1.20117,0.85938 l -4.15625,-1.41016 c -0.43185,-0.14885 -0.9555,0.0444 -1.1875,0.4375 l -4.00196,6.93945 c -0.16896,0.29925 -0.15589,0.68432 0.008,0.98438 l 3.99414,-6.92383 c 0.232,-0.3931 0.75565,-0.58635 1.1875,-0.4375 l 4.15625,1.41016 c 0.38311,-0.3067 0.78651,-0.5902 1.20117,-0.85938 a 15.999854,15.999793 0 0 1 0.64453,-0.39062 c 0.11608,-0.0681 0.22598,-0.14544 0.34375,-0.21094 l 0.01,0.008 A 15.999854,15.999793 0 0 1 194.00977,489 v 0.002 a 15.999854,15.999793 0 0 1 15.97461,15.49414 15.999793,15.999793 0 0 0 0.0254,-0.49414 15.999793,15.999793 0 0 0 -16,-16 z M 192,500 v 1 h 4 v -1 z m -13.91016,2.54102 a 15.999793,15.999793 0 0 0 -0.0137,0.11914 c -0.006,0.0748 -0.0177,0.14763 -0.0234,0.22265 l 0.0137,0.006 a 15.999793,15.999793 0 0 0 -0.0566,1.11133 15.999793,15.999793 0 0 0 0.0254,0.50391 15.999854,15.999793 0 0 1 0.0312,-0.61524 l -0.0137,-0.006 c 0.006,-0.075 0.0174,-0.14785 0.0234,-0.22265 a 15.999854,15.999793 0 0 1 0.0723,-0.64844 c 0.0159,-0.12607 0.0241,-0.25519 0.043,-0.38086 z m 31.83008,3.93554 a 15.999854,15.999793 0 0 1 -0.0918,0.78711 c -0.006,0.0403 -0.008,0.0809 -0.0137,0.1211 l 3.3125,2.90429 c 0.0861,0.0741 0.15672,0.16461 0.21094,0.26367 l 0.008,-0.0137 c 0.22528,-0.39899 0.12853,-0.95129 -0.21875,-1.25 z M 192,512 v 1 h 4 v -1 z"
       id="path4601"
       inkscape:connector-curvature="0" />
    <path
       style="display:inline;fill:#000000;fill-opacity:0.2;stroke:none;stroke-width:1.99998188;stroke-linecap:round;stroke-linejoin:round;stroke-miterlimit:4;stroke-dasharray:none;stroke-opacity:1;enable-background:new"
       d="m 138,501.80078 a 11.199898,11.199898 0 0 0 -5.46484,1.43945 l -0.008,-0.006 c -0.0824,0.0459 -0.15897,0.0988 -0.24023,0.14648 a 11.199898,11.199898 0 0 0 -0.45117,0.27344 c -0.29027,0.18843 -0.57168,0.38687 -0.83985,0.60156 l -2.91015,-0.98633 c -0.3023,-0.10419 -0.66768,0.0315 -0.83008,0.30664 l -2.69531,4.67188 c 0.0173,0.019 0.0273,0.0437 0.0469,0.0605 l 2.31836,2.03321 c -0.0454,0.30187 -0.0771,0.60544 -0.0996,0.91211 l 0.10156,0.0879 c -0.0132,0.088 -0.0202,0.17737 -0.0312,0.26562 a 11.199898,11.199898 0 0 0 -0.0508,0.45508 c -0.004,0.0524 -0.0116,0.10178 -0.0156,0.1543 l 0.01,0.004 a 11.199898,11.199898 0 0 0 -0.0195,0.39063 c 0.0215,0.35511 0.0536,0.70841 0.10547,1.05664 l -0.0879,0.0762 a 11.199898,11.199898 0 0 0 3.35156,7.2832 l 0.80469,-0.27343 c 0.8744,0.7 1.87134,1.27084 2.93164,1.68554 l 0.21094,1.06446 A 11.199898,11.199898 0 0 0 138,524.20117 11.199898,11.199898 0 0 0 141.85352,523.5 l 0.20898,-1.06055 c 1.0603,-0.4147 2.05724,-0.98554 2.93164,-1.68554 l 2.91016,0.98437 c 0.3022,0.1042 0.66768,-0.0294 0.83008,-0.30469 l 2.69531,-4.67382 c -0.0167,-0.0182 -0.0281,-0.0405 -0.0469,-0.0566 l -2.31836,-2.0332 c 0.004,-0.0281 0.006,-0.0577 0.01,-0.0859 a 11.199898,11.199898 0 0 0 0.082,-0.70117 11.199898,11.199898 0 0 0 0.006,-0.12695 l -0.0996,-0.0879 c 0.0589,-0.392 0.0943,-0.79001 0.11328,-1.19141 A 11.199898,11.199898 0 0 0 138,501.80078 Z M 136,506 h 4 v 4 h -1 -2 -1 z m 0,6 h 1 2 1 v 8 h -4 z"
       id="path4625"
       inkscape:connector-curvature="0" />
    <path
       id="path4650"
       d="m 138,500.80078 a 11.199898,11.199898 0 0 0 -5.46484,1.43945 l -0.008,-0.006 c -0.0824,0.0459 -0.15897,0.0988 -0.24023,0.14648 a 11.199898,11.199898 0 0 0 -0.45117,0.27344 c -0.29027,0.18843 -0.57168,0.38687 -0.83985,0.60156 l -2.91015,-0.98633 c -0.3023,-0.10419 -0.66768,0.0315 -0.83008,0.30664 l -2.80273,4.85742 c -0.1577,0.2793 -0.0888,0.6659 0.15429,0.875 l 2.32031,2.03321 c -0.0132,0.088 -0.0202,0.17737 -0.0312,0.26562 a 11.199898,11.199898 0 0 0 -0.0508,0.45508 c -0.004,0.0524 -0.0116,0.10178 -0.0156,0.1543 l 0.01,0.004 A 11.199898,11.199898 0 0 0 126.80078,512 11.199898,11.199898 0 0 0 138,523.20117 a 11.199898,11.199898 0 0 0 5.97266,-1.73047 11.199898,11.199898 0 0 0 0,-0.002 11.199898,11.199898 0 0 0 0.1914,-0.12305 c 0.28586,-0.18543 0.56612,-0.38047 0.83008,-0.59179 l 2.91211,0.98437 c 0.3022,0.1042 0.66768,-0.0274 0.83008,-0.30273 l 2.79883,-4.85743 c 0.1577,-0.27927 0.0908,-0.66588 -0.15235,-0.875 l -2.31836,-2.0332 c 0.004,-0.0281 0.006,-0.0577 0.01,-0.0859 a 11.199898,11.199898 0 0 0 0.082,-0.70117 11.199898,11.199898 0 0 0 0.0449,-0.88086 A 11.199898,11.199898 0 0 0 138,500.80078 Z M 136,505 h 4 v 4 h -1 -2 -1 z m 0,6 h 1 2 1 v 8 h -4 z"
       style="display:inline;fill:#000000;fill-opacity:0.2;stroke:none;stroke-width:1.99998188;stroke-linecap:round;stroke-linejoin:round;stroke-miterlimit:4;stroke-dasharray:none;stroke-opacity:1;filter:url(#filter4652);enable-background:new"
       inkscape:connector-curvature="0" />
    <path
       style="display:inline;fill:#0ea7e5;fill-opacity:1;stroke:none;stroke-width:1.99998188;stroke-linecap:round;stroke-linejoin:round;stroke-miterlimit:4;stroke-dasharray:none;stroke-opacity:1;enable-background:new"
       d="m 138,500.80078 a 11.199898,11.199898 0 0 0 -5.46484,1.43945 l -0.008,-0.006 c -0.0824,0.0459 -0.15897,0.0988 -0.24023,0.14648 a 11.199898,11.199898 0 0 0 -0.45117,0.27344 c -0.29027,0.18843 -0.57168,0.38687 -0.83985,0.60156 l -2.91015,-0.98633 c -0.3023,-0.10419 -0.66768,0.0315 -0.83008,0.30664 l -2.80273,4.85742 c -0.1577,0.2793 -0.0888,0.6659 0.15429,0.875 l 2.32031,2.03321 c -0.0132,0.088 -0.0202,0.17737 -0.0312,0.26562 a 11.199898,11.199898 0 0 0 -0.0508,0.45508 c -0.004,0.0524 -0.0116,0.10178 -0.0156,0.1543 l 0.01,0.004 A 11.199898,11.199898 0 0 0 126.80078,512 11.199898,11.199898 0 0 0 138,523.20117 a 11.199898,11.199898 0 0 0 5.97266,-1.73047 11.199898,11.199898 0 0 0 0,-0.002 11.199898,11.199898 0 0 0 0.1914,-0.12305 c 0.28586,-0.18543 0.56612,-0.38047 0.83008,-0.59179 l 2.91211,0.98437 c 0.3022,0.1042 0.66768,-0.0274 0.83008,-0.30273 l 2.79883,-4.85743 c 0.1577,-0.27927 0.0908,-0.66588 -0.15235,-0.875 l -2.31836,-2.0332 c 0.004,-0.0281 0.006,-0.0577 0.01,-0.0859 a 11.199898,11.199898 0 0 0 0.082,-0.70117 11.199898,11.199898 0 0 0 0.0449,-0.88086 A 11.199898,11.199898 0 0 0 138,500.80078 Z M 136,505 h 4 v 4 h -1 -2 -1 z m 0,6 h 1 2 1 v 8 h -4 z"
       id="path4606"
       inkscape:connector-curvature="0" />
    <path
       style="display:inline;fill:#ffffff;fill-opacity:0.2;stroke:none;stroke-width:1.99998188;stroke-linecap:round;stroke-linejoin:round;stroke-miterlimit:4;stroke-dasharray:none;stroke-opacity:1;enable-background:new"
       d="m 138,500.80078 a 11.199898,11.199898 0 0 0 -5.46484,1.43945 l -0.008,-0.006 c -0.0824,0.0459 -0.15897,0.0988 -0.24023,0.14648 a 11.199898,11.199898 0 0 0 -0.45117,0.27344 c -0.29027,0.18843 -0.57168,0.38687 -0.83985,0.60156 l -2.91015,-0.98633 c -0.3023,-0.10419 -0.66768,0.0315 -0.83008,0.30664 l -2.80273,4.85742 c -0.145,0.25681 -0.09,0.59761 0.10742,0.81446 l 2.69531,-4.67188 c 0.1624,-0.27514 0.52778,-0.41083 0.83008,-0.30664 l 2.91015,0.98633 c 0.26817,-0.21469 0.54958,-0.41313 0.83985,-0.60156 a 11.199898,11.199898 0 0 1 0.45117,-0.27344 c 0.0813,-0.0477 0.15783,-0.10058 0.24023,-0.14648 l 0.008,0.006 A 11.199898,11.199898 0 0 1 138,501.80078 a 11.199898,11.199898 0 0 1 11.17578,10.69141 11.199898,11.199898 0 0 0 0.0254,-0.49024 A 11.199898,11.199898 0 0 0 138,500.80078 Z M 136,509 v 1 h 1 2 1 v -1 h -1 -2 z m -9.16211,2.26367 a 11.199898,11.199898 0 0 0 -0.0371,0.73633 11.199898,11.199898 0 0 0 0.0254,0.49805 11.199898,11.199898 0 0 1 0.0137,-0.27735 l -0.01,-0.004 c 0.004,-0.0525 0.0116,-0.1019 0.0156,-0.1543 a 11.199898,11.199898 0 0 1 0.0508,-0.45508 c 0.011,-0.0883 0.0181,-0.17762 0.0312,-0.26562 z m 22.32422,2.49219 a 11.199898,11.199898 0 0 1 -0.006,0.12695 11.199898,11.199898 0 0 1 -0.082,0.70117 c -0.004,0.0282 -0.006,0.0578 -0.01,0.0859 l 2.31836,2.0332 c 0.0192,0.0165 0.0299,0.04 0.0469,0.0586 l 0.10547,-0.1836 c 0.1577,-0.27926 0.0908,-0.66588 -0.15235,-0.875 z M 136,519 v 1 h 4 v -1 z"
       id="path4620"
       inkscape:connector-curvature="0" />
    <path
       style="display:inline;fill:#000000;fill-opacity:0.2;stroke:none;stroke-width:1.42857206;stroke-linecap:round;stroke-linejoin:round;stroke-miterlimit:4;stroke-dasharray:none;stroke-opacity:1;enable-background:new"
       d="m 89.998047,509.00195 a 8.0000028,8.0000028 0 0 0 -3.902344,1.02735 l -0.0059,-0.004 c -0.05886,0.0328 -0.113832,0.0714 -0.171875,0.10547 a 8.0000028,8.0000028 0 0 0 -0.322266,0.19531 c -0.207338,0.13459 -0.408057,0.27634 -0.599609,0.42969 l -2.078125,-0.70508 c -0.215931,-0.0744 -0.477749,0.0222 -0.59375,0.21875 l -1.822266,3.15625 1.585938,1.39063 c -0.04584,0.30631 -0.06277,0.61875 -0.07422,0.93359 l 0.07617,0.0664 c -0.0094,0.0629 -0.01355,0.12642 -0.02148,0.18945 a 8.0000028,8.0000028 0 0 0 -0.03711,0.32617 c -0.0016,0.0207 -0.0034,0.0406 -0.0059,0.0605 0.01469,0.26775 0.02328,0.53669 0.0625,0.79883 l -0.07617,0.0664 a 8.0000028,8.0000028 0 0 0 2.205078,5.25977 l 0.777344,-0.26367 c 0.62461,0.5 1.33636,0.90692 2.09375,1.20312 l 0.210937,1.06641 A 8.0000028,8.0000028 0 0 0 90,525.00195 a 8.0000028,8.0000028 0 0 0 2.689453,-0.47851 l 0.210938,-1.06641 c 0.75738,-0.2962 1.46914,-0.70312 2.09375,-1.20312 l 2.080078,0.70312 c 0.2159,0.075 0.47776,-0.022 0.59375,-0.21875 l 1.818359,-3.1543 -1.583984,-1.39062 c 0.0029,-0.0201 0.005,-0.0403 0.0078,-0.0606 a 8.0000028,8.0000028 0 0 0 0.05859,-0.5 8.0000028,8.0000028 0 0 0 0.01758,-0.36719 l -0.08398,-0.0742 c 0.04104,-0.27434 0.05242,-0.55528 0.06641,-0.83594 a 8.0000028,8.0000028 0 0 0 -7.970703,-7.35352 z M 89,513 h 2 v 2 h -2 z m 0,3 h 2 v 5 h -2 z"
       id="path4645"
       inkscape:connector-curvature="0" />
    <path
       id="path4656"
       d="m 89.998047,508.00195 a 8.0000028,8.0000028 0 0 0 -3.902344,1.02735 l -0.0059,-0.004 c -0.05886,0.0328 -0.113832,0.0714 -0.171875,0.10547 a 8.0000028,8.0000028 0 0 0 -0.322266,0.19531 c -0.207338,0.13459 -0.408057,0.27634 -0.599609,0.42969 l -2.078125,-0.70508 c -0.215931,-0.0744 -0.477749,0.0222 -0.59375,0.21875 l -2.001953,3.46875 c -0.112642,0.1995 -0.06231,0.47564 0.111328,0.625 l 1.65625,1.45313 c -0.0094,0.0629 -0.01355,0.12642 -0.02148,0.18945 a 8.0000028,8.0000028 0 0 0 -0.03711,0.32617 c -0.0029,0.0374 -0.0089,0.0719 -0.01172,0.10938 l 0.0078,0.004 A 8.0000028,8.0000028 0 0 0 82,516.00195 a 8.0000028,8.0000028 0 0 0 8,8 8.0000028,8.0000028 0 0 0 4.265625,-1.23633 8.0000028,8.0000028 0 0 0 0.136719,-0.0879 c 0.204187,-0.13246 0.403252,-0.27287 0.591797,-0.42382 l 2.080078,0.70312 c 0.215859,0.0744 0.477749,-0.0182 0.59375,-0.21484 l 2,-3.47071 c 0.112644,-0.19948 0.06431,-0.47562 -0.109375,-0.625 l -1.65625,-1.45312 c 0.0029,-0.0201 0.005,-0.0403 0.0078,-0.0606 a 8.0000028,8.0000028 0 0 0 0.05859,-0.5 8.0000028,8.0000028 0 0 0 0.03125,-0.63086 8.0000028,8.0000028 0 0 0 -8.001953,-8 z M 89,512 h 2 v 2 h -2 z m 0,3 h 2 v 5 h -2 z"
       style="display:inline;fill:#000000;fill-opacity:0.2;stroke:none;stroke-width:1.42857206;stroke-linecap:round;stroke-linejoin:round;stroke-miterlimit:4;stroke-dasharray:none;stroke-opacity:1;filter:url(#filter4662);enable-background:new"
       inkscape:connector-curvature="0" />
    <path
       style="display:inline;fill:#0ea7e5;fill-opacity:1;stroke:none;stroke-width:1.42857206;stroke-linecap:round;stroke-linejoin:round;stroke-miterlimit:4;stroke-dasharray:none;stroke-opacity:1;enable-background:new"
       d="m 89.998047,508.00195 a 8.0000028,8.0000028 0 0 0 -3.902344,1.02735 l -0.0059,-0.004 c -0.05886,0.0328 -0.113832,0.0714 -0.171875,0.10547 a 8.0000028,8.0000028 0 0 0 -0.322266,0.19531 c -0.207338,0.13459 -0.408057,0.27634 -0.599609,0.42969 l -2.078125,-0.70508 c -0.215931,-0.0744 -0.477749,0.0222 -0.59375,0.21875 l -2.001953,3.46875 c -0.112642,0.1995 -0.06231,0.47564 0.111328,0.625 l 1.65625,1.45313 c -0.0094,0.0629 -0.01355,0.12642 -0.02148,0.18945 a 8.0000028,8.0000028 0 0 0 -0.03711,0.32617 c -0.0029,0.0374 -0.0089,0.0719 -0.01172,0.10938 l 0.0078,0.004 A 8.0000028,8.0000028 0 0 0 82,516.00195 a 8.0000028,8.0000028 0 0 0 8,8 8.0000028,8.0000028 0 0 0 4.265625,-1.23633 8.0000028,8.0000028 0 0 0 0.136719,-0.0879 c 0.204187,-0.13246 0.403252,-0.27287 0.591797,-0.42382 l 2.080078,0.70312 c 0.215859,0.0744 0.477749,-0.0182 0.59375,-0.21484 l 2,-3.47071 c 0.112644,-0.19948 0.06431,-0.47562 -0.109375,-0.625 l -1.65625,-1.45312 c 0.0029,-0.0201 0.005,-0.0403 0.0078,-0.0606 a 8.0000028,8.0000028 0 0 0 0.05859,-0.5 8.0000028,8.0000028 0 0 0 0.03125,-0.63086 8.0000028,8.0000028 0 0 0 -8.001953,-8 z M 89,512 h 2 v 2 h -2 z m 0,3 h 2 v 5 h -2 z"
       id="path4633"
       inkscape:connector-curvature="0" />
    <path
       style="display:inline;fill:#ffffff;fill-opacity:0.2;stroke:none;stroke-width:1.42857206;stroke-linecap:round;stroke-linejoin:round;stroke-miterlimit:4;stroke-dasharray:none;stroke-opacity:1;enable-background:new"
       d="m 89.998047,508.00195 a 8.0000028,8.0000028 0 0 0 -3.902344,1.02735 l -0.0059,-0.004 c -0.05886,0.0328 -0.113832,0.0714 -0.171875,0.10547 a 8.0000028,8.0000028 0 0 0 -0.322266,0.19531 c -0.207338,0.13459 -0.408057,0.27634 -0.599609,0.42969 l -2.078125,-0.70508 c -0.215931,-0.0744 -0.477749,0.0222 -0.59375,0.21875 l -2.001953,3.46875 c -0.112642,0.1995 -0.06231,0.47564 0.111328,0.625 l 0.07031,0.0605 1.820313,-3.1543 c 0.116001,-0.19655 0.377819,-0.29315 0.59375,-0.21875 l 2.078125,0.70508 c 0.191552,-0.15335 0.392271,-0.2951 0.599609,-0.42969 a 8.0000028,8.0000028 0 0 1 0.322266,-0.19531 c 0.05804,-0.0341 0.113015,-0.0727 0.171875,-0.10547 l 0.0059,0.004 a 8.0000028,8.0000028 0 0 1 3.902344,-1.02735 8.0000028,8.0000028 0 0 1 7.976562,7.4961 8.0000028,8.0000028 0 0 0 0.02539,-0.4961 8.0000028,8.0000028 0 0 0 -8.001953,-8 z M 89,514 v 1 h 2 v -1 z m -6.988281,1.74805 A 8.0000028,8.0000028 0 0 0 82,516.00195 a 8.0000028,8.0000028 0 0 0 0.02148,0.42774 c 0.0031,-0.0329 0.0072,-0.0643 0.0098,-0.0977 a 8.0000028,8.0000028 0 0 1 0.03711,-0.32617 c 0.0079,-0.063 0.01208,-0.12655 0.02148,-0.18945 z m 0.0098,0.69531 a 8.0000028,8.0000028 0 0 0 0.0039,0.0606 8.0000028,8.0000028 0 0 1 0.002,-0.0586 z m 15.964844,0.82422 a 8.0000028,8.0000028 0 0 1 -0.01758,0.36523 8.0000028,8.0000028 0 0 1 -0.05859,0.5 c -0.0028,0.0202 -0.0049,0.0405 -0.0078,0.0606 l 1.585937,1.39062 0.179688,-0.3125 c 0.112644,-0.19948 0.06431,-0.47562 -0.109375,-0.625 z M 89,520 v 1 h 2 v -1 z"
       id="path4640"
       inkscape:connector-curvature="0" />
    <path
       style="display:inline;fill:#000000;fill-opacity:0.2;stroke:none;stroke-width:31.99936485;stroke-linecap:round;stroke-linejoin:round;stroke-miterlimit:4;stroke-dasharray:none;stroke-opacity:1;enable-background:new"
       d="M 569.87305,94.751953 A 179.19645,179.19645 0 0 0 482.4375,117.78125 l -0.10938,-0.0801 c -1.31902,0.73359 -2.55924,1.58089 -3.85937,2.34375 a 179.19645,179.19645 0 0 0 -7.20313,4.39063 c -4.64415,3.01482 -9.1779,6.17439 -13.46874,9.60937 l -46.53126,-15.78125 c -4.8367,-1.66717 -10.71219,0.5025 -13.31054,4.90625 l -44.8125,77.71875 c -0.75609,1.3391 -1.17913,2.83282 -1.30664,4.35742 0.25182,2.8974 1.55369,5.71262 3.76367,7.61329 l 37.09766,32.55078 c -0.0887,0.5926 -0.16807,1.18612 -0.25196,1.77929 l 0.25977,0.22852 c -0.212,1.40749 -0.29116,2.83803 -0.46875,4.25 a 179.19645,179.19645 0 0 0 -0.8125,7.26562 c -0.072,0.83742 -0.21839,1.6597 -0.28321,2.5 l 0.15626,0.0645 a 179.19645,179.19645 0 0 0 -0.625,12.45312 179.19645,179.19645 0 0 0 0.68359,13.65625 c 0.3465,3.68825 0.79569,7.34918 1.3418,11 l -0.0957,0.084 a 179.19645,179.19645 0 0 0 63.78321,113.79297 l 1.41211,-0.47852 c 13.99049,11.1994 29.93394,20.31472 46.89843,26.94922 l 0.40821,2.07226 a 179.19645,179.19645 0 0 0 64.76953,12.12305 179.19645,179.19645 0 0 0 64.65039,-12.32227 l 0.36914,-1.87304 c 16.96459,-6.6345 32.91,-15.74982 46.90039,-26.94922 l 46.54883,15.75 c 4.8359,1.6676 10.70062,-0.49409 13.29882,-4.90039 l 44.79883,-77.69727 c 0.75784,-1.34203 1.18543,-2.84097 1.31446,-4.36914 -0.25564,-2.9004 -1.56426,-5.71921 -3.77539,-7.62109 l -37.09375,-32.53125 c 0.064,-0.45039 0.0923,-0.90867 0.15625,-1.35938 a 179.19645,179.19645 0 0 0 0.0566,-0.48828 l -0.20704,-0.18164 c 0.78017,-5.21192 1.37392,-10.4434 1.72852,-15.74804 a 179.19645,179.19645 0 0 0 0.25977,-5.1211 c 0.0654,-1.81571 0.10642,-3.63967 0.10937,-5.47851 A 179.19645,179.19645 0 0 0 569.87305,94.751953 Z M 548,188 h 44 v 44 h -44 z m 0,65 h 44 v 107 h -44 z"
       id="path4673"
       inkscape:connector-curvature="0" />
    <path
       style="display:inline;fill:#0ea7e5;fill-opacity:1;stroke:none;stroke-width:31.99936485;stroke-linecap:round;stroke-linejoin:round;stroke-miterlimit:4;stroke-dasharray:none;stroke-opacity:1;enable-background:new"
       d="M 569.87305,92.751953 A 179.19645,179.19645 0 0 0 482.4375,115.78125 l -0.10938,-0.0801 c -1.31902,0.73359 -2.55924,1.58089 -3.85937,2.34375 a 179.19645,179.19645 0 0 0 -7.20313,4.39063 c -4.64415,3.01482 -9.17789,6.17439 -13.46874,9.60937 l -46.53126,-15.78125 c -4.8367,-1.66717 -10.71219,0.5025 -13.31054,4.90625 l -44.8125,77.71875 c -2.52315,4.46871 -1.42061,10.65252 2.46875,13.99805 l 37.09375,32.53125 c -0.212,1.40749 -0.29116,2.83803 -0.46875,4.25 a 179.19645,179.19645 0 0 0 -0.8125,7.26562 c -0.072,0.83742 -0.2184,1.6597 -0.28321,2.5 l 0.15626,0.0645 a 179.19645,179.19645 0 0 0 -0.625,12.45312 179.19645,179.19645 0 0 0 179.20117,179.19922 179.19645,179.19645 0 0 0 95.56054,-27.6875 179.19645,179.19645 0 0 0 0.0156,-0.0156 179.19645,179.19645 0 0 0 3.0625,-2 c 4.57375,-2.96674 9.0579,-6.05637 13.28125,-9.4375 l 46.56055,15.75 c 4.8351,1.66717 10.6829,-0.47053 13.28125,-4.875 l 44.8125,-77.7168 c 2.52315,-4.46871 1.42077,-10.65447 -2.46875,-14 l -37.09375,-32.53125 c 0.064,-0.45039 0.0923,-0.90867 0.15625,-1.35938 a 179.19645,179.19645 0 0 0 1.3125,-11.21875 179.19645,179.19645 0 0 0 0.71875,-14.10742 A 179.19645,179.19645 0 0 0 569.87305,92.751953 Z M 548,186 h 44 v 44 h -44 z m 0,65 h 44 v 107 h -44 z"
       id="path4666"
       inkscape:connector-curvature="0" />
    <path
       style="display:inline;fill:#ffffff;fill-opacity:0.2;stroke:none;stroke-width:31.99936485;stroke-linecap:round;stroke-linejoin:round;stroke-miterlimit:4;stroke-dasharray:none;stroke-opacity:1;enable-background:new"
       d="M 569.87305,92.751953 A 179.19645,179.19645 0 0 0 482.4375,115.78125 l -0.10938,-0.0801 c -1.31902,0.73359 -2.55924,1.58089 -3.85937,2.34375 a 179.19645,179.19645 0 0 0 -7.20313,4.39063 c -4.64415,3.01482 -9.1779,6.17439 -13.46874,9.60937 l -46.53126,-15.78125 c -4.8367,-1.66717 -10.71219,0.5025 -13.31054,4.90625 l -44.8125,77.71875 c -1.07433,1.90273 -1.48611,4.11594 -1.31055,6.28906 0.1242,-1.53549 0.54927,-3.04037 1.31055,-4.38867 l 44.8125,-77.71875 c 2.59835,-4.40375 8.47384,-6.57342 13.31054,-4.90625 l 46.53126,15.78125 c 4.29085,-3.43498 8.82459,-6.59455 13.46874,-9.60937 a 179.19651,179.19645 0 0 1 7.20313,-4.39063 c 1.30013,-0.76286 2.54035,-1.61016 3.85937,-2.34375 l 0.10938,0.0801 a 179.19651,179.19645 0 0 1 87.43555,-23.029296 179.19651,179.19645 0 0 1 179.15039,178.240236 179.19645,179.19645 0 0 0 0.0488,-0.94141 A 179.19645,179.19645 0 0 0 569.87305,92.751953 Z M 548,230 v 1.90039 h 44 V 230 Z m -155.49609,17.14258 c -0.0845,0.84287 -0.16212,1.6869 -0.26758,2.52539 a 179.19645,179.19645 0 0 0 -0.8125,7.26562 c -0.072,0.83742 -0.21839,1.6597 -0.28321,2.5 l 0.15626,0.0645 a 179.19645,179.19645 0 0 0 -0.041,0.82031 c 0.0625,-0.49348 0.12522,-0.98716 0.16797,-1.48438 a 179.19651,179.19645 0 0 1 0.8125,-7.26562 c 0.17759,-1.41197 0.25675,-2.84251 0.46875,-4.25 z m -1.30079,14.2168 a 179.19645,179.19645 0 0 0 -0.53124,10.59179 179.19645,179.19645 0 0 0 0.0469,0.95117 179.19651,179.19645 0 0 1 0.57813,-11.5039 z m 355.88086,37.45117 a 179.19651,179.19645 0 0 1 -0.043,0.36718 c -0.0639,0.45071 -0.0923,0.90899 -0.15625,1.35938 l 37.09375,32.53125 c 2.2334,1.92104 3.54256,4.77782 3.77929,7.70898 0.28683,-3.55364 -1.06381,-7.27368 -3.77929,-9.60937 z M 548,358 v 1.90039 h 44 V 358 Z"
       id="path4688"
       inkscape:connector-curvature="0" />
    <path
       style="display:inline;fill:#ffffff;fill-opacity:0.2;stroke:none;enable-background:new"
       d="m 523.94531,48.013672 c -4.7489,0.5176 -8.93103,4.402209 -9.79883,9.099609 l -9.45117,47.949219 c -16.96449,6.6344 -32.90794,15.74972 -46.89843,26.94922 l -46.54883,-15.75 c -4.8359,-1.6675 -10.70248,0.49409 -13.30078,4.90039 l -44.79883,77.69727 c -1.08792,1.92664 -1.50309,4.17351 -1.31446,6.37304 0.12861,-1.52953 0.556,-3.02791 1.31446,-4.37109 l 44.79883,-77.69922 c 2.5983,-4.4063 8.46488,-6.56789 13.30078,-4.90039 l 46.54883,15.75 c 13.99049,-11.1995 29.93394,-20.31482 46.89843,-26.94922 l 9.45117,-47.949219 c 0.8678,-4.6974 5.04993,-8.582009 9.79883,-9.099609 0.3493,-0.01 0.70118,-0.01 1.05078,0 h 89.59766 c 5.1093,0.0695 9.89161,4.080409 10.84961,9.099609 l 9.44922,47.949219 c 16.96459,6.6344 32.91,15.74972 46.90039,26.94922 l 46.54883,-15.75 c 4.8359,-1.6675 10.70062,0.49409 13.29882,4.90039 l 44.79883,77.69922 c 0.75816,1.3426 1.18563,2.8403 1.31446,4.36914 0.18821,-2.19892 -0.22681,-4.44501 -1.31446,-6.37109 l -44.79883,-77.69727 c -2.5982,-4.4063 -8.46292,-6.56789 -13.29882,-4.90039 l -46.54883,15.75 c -13.99039,-11.1995 -29.9358,-20.31482 -46.90039,-26.94922 l -9.44922,-47.949219 c -0.958,-5.0192 -5.74031,-9.030109 -10.84961,-9.099609 h -89.59766 c -0.3496,-0.01 -0.70148,-0.01 -1.05078,0 z m -131.5,199.175778 c -1.15156,8.14273 -1.84765,16.34623 -1.84765,24.82032 0,0.33478 0.01,0.66604 0.0117,1 0.0559,-8.73511 0.82957,-17.19331 2.08789,-25.59961 z m 354.69727,0 -0.25196,0.22071 c 1.25756,8.4063 2.0339,16.86449 2.08985,25.59961 0.002,-0.33395 0.01,-0.66523 0.01,-1 0,-8.47409 -0.69663,-16.67759 -1.84765,-24.82032 z m -354.69727,51.63867 -36.8457,32.33008 c -2.72198,2.341 -4.06555,6.06908 -3.76563,9.62891 0.24886,-2.90229 1.55212,-5.72521 3.76563,-7.62891 l 37.09766,-32.54882 c -0.0887,-0.5929 -0.16808,-1.18779 -0.25196,-1.78126 z m 354.69727,0 c -0.0839,0.59347 -0.16321,1.18836 -0.25196,1.78126 l 37.09961,32.54882 c 2.21357,1.9037 3.51483,4.72663 3.76368,7.62891 0.29996,-3.55984 -1.04162,-7.2879 -3.76368,-9.62891 z"
       id="path4693"
       inkscape:connector-curvature="0" />
    <path
       inkscape:connector-curvature="0"
       style="display:inline;fill:#3b414b;fill-opacity:1;stroke:none;enable-background:new"
       d="m 52.947709,507.00433 c -0.21201,0.023 -0.39877,0.1966 -0.43751,0.4063 l -0.42189,2.1407 c -0.75739,0.2962 -1.46921,0.7031 -2.09382,1.2031 l -2.07819,-0.7031 c -0.2159,-0.075 -0.47777,0.022 -0.59377,0.21879 l -2.00006,3.4688 c -0.11266,0.1995 -0.0643,0.4756 0.10938,0.625 l 1.6563,1.45321 c -0.0583,0.38959 -0.0937,0.7817 -0.0937,1.1875 0,0.40589 0.0354,0.7979 0.0937,1.18759 l -1.6563,1.45321 c -0.17372,0.1493 -0.22204,0.4255 -0.10938,0.625 l 2.00006,3.4688 c 0.116,0.19669 0.37787,0.29319 0.59377,0.2188 l 2.07819,-0.70321 c 0.62461,0.5 1.33643,0.90701 2.09382,1.20321 l 0.42189,2.1407 c 0.0427,0.2241 0.25628,0.4031 0.48439,0.4063 h 4.00012 c 0.22811,0 0.44162,-0.1822 0.48439,-0.4063 l 0.42189,-2.1407 c 0.75738,-0.2962 1.46921,-0.70321 2.09382,-1.20321 l 2.07819,0.70321 c 0.2159,0.075 0.47777,-0.022 0.59376,-0.2188 l 2.00007,-3.4688 c 0.11265,-0.1995 0.0643,-0.4757 -0.10938,-0.625 l -1.6563,-1.45321 c 0.0583,-0.38969 0.0937,-0.7817 0.0937,-1.18759 0,-0.4058 -0.0354,-0.79791 -0.0937,-1.1875 l 1.6563,-1.45321 c 0.17371,-0.1494 0.22203,-0.4255 0.10938,-0.625 l -2.00007,-3.4688 c -0.11599,-0.1968 -0.37786,-0.2932 -0.59376,-0.21879 l -2.07819,0.7031 c -0.62461,-0.5 -1.33644,-0.9069 -2.09382,-1.2031 l -0.42189,-2.1407 c -0.0428,-0.2241 -0.25628,-0.40321 -0.48439,-0.4063 h -4.00012 c -0.0156,-5e-4 -0.0313,-5e-4 -0.0469,0 z"
       id="path4577" />
    <path
       inkscape:connector-curvature="0"
       id="path4579"
       d="m 52.932149,507.00503 c -0.21201,0.023 -0.39876,0.1965 -0.4375,0.4062 l -0.40625,2.125 c -0.75739,0.2962 -1.46914,0.7188 -2.09375,1.2188 l -2.09375,-0.7188 c -0.2159,-0.075 -0.47775,0.022 -0.59375,0.2188 l -2,3.4687 0.1875,-0.2812 0.375,0.3125 1.4375,-2.5 c 0.116,-0.1968 0.37785,-0.2933 0.59375,-0.2188 l 2.09375,0.7188 c 0.62461,-0.5 1.33636,-0.9226 2.09375,-1.2188 l 0.40625,-2.125 c 0.0387,-0.2097 0.22549,-0.3831 0.4375,-0.4062 0.0156,-6e-4 0.0469,-6e-4 0.0625,0 h 4 c 0.22811,0 0.4572,0.1821 0.5,0.4062 l 0.40625,2.125 c 0.75738,0.2962 1.46914,0.7188 2.09375,1.2188 l 2.09375,-0.7188 c 0.2159,-0.075 0.47776,0.022 0.59375,0.2188 l 1.4375,2.5 0.375,-0.3125 0.1875,0.2812 -2,-3.4687 c -0.11599,-0.1968 -0.37785,-0.2932 -0.59375,-0.2188 l -2.09375,0.7188 c -0.62461,-0.5 -1.33637,-0.9226 -2.09375,-1.2188 l -0.40625,-2.125 c -0.0428,-0.2241 -0.27189,-0.4031 -0.5,-0.4062 h -4 c -0.0156,-6e-4 -0.0469,-6e-4 -0.0625,0 z m -5.875,9.7812 c 0.005,0.073 -0.008,0.1466 0,0.2188 0.007,-0.063 0.022,-0.1255 0.0312,-0.1875 l -0.0312,-0.031 z m 15.875,0 -0.0312,0.031 c 0.009,0.062 0.0246,0.1247 0.0312,0.1875 0.008,-0.072 -0.005,-0.1461 0,-0.2187 z m -15.875,0.4375 -0.0312,0.031 c 0.006,0.082 -0.006,0.16701 0,0.25 0.006,-0.094 0.0241,-0.1869 0.0312,-0.2812 z m 15.875,0 c 0.007,0.094 0.0247,0.1871 0.0312,0.2813 0.006,-0.083 -0.006,-0.1675 0,-0.25 l -0.0312,-0.031 z m -15.90625,1.0313 -1.53125,1.3437 0.375,0.6563 1.21875,-1.0625 c -0.046,-0.3074 -0.0511,-0.6216 -0.0625,-0.9375 z m 15.9375,0 c -0.0114,0.3159 -0.0165,0.6301 -0.0625,0.9375 l 1.21875,1.0625 0.375,-0.6563 z"
       style="display:inline;opacity:1;fill:#ffffff;fill-opacity:0.2;stroke:none;enable-background:new" />
    <path
       inkscape:connector-curvature="0"
       style="display:inline;opacity:1;fill:#000000;fill-opacity:0.2;stroke:none;enable-background:new"
       d="m 52.932149,528.00463 c -0.21201,-0.023 -0.39876,-0.1966 -0.4375,-0.4063 l -0.40625,-2.125 c -0.75739,-0.2962 -1.46914,-0.7187 -2.09375,-1.2187 l -2.09375,0.7187 c -0.2159,0.075 -0.47775,-0.022 -0.59375,-0.2187 l -2,-3.4688 0.1875,0.2813 0.375,-0.3125 1.4375,2.5 c 0.116,0.19669 0.37785,0.29319 0.59375,0.2187 l 2.09375,-0.7187 c 0.62461,0.5 1.33636,0.9225 2.09375,1.2187 l 0.40625,2.125 c 0.0387,0.2097 0.22549,0.3832 0.4375,0.4063 0.0156,5e-4 0.0469,5e-4 0.0625,0 h 4 c 0.22811,0 0.4572,-0.1822 0.5,-0.4063 l 0.40625,-2.125 c 0.75738,-0.2962 1.46914,-0.7187 2.09375,-1.2187 l 2.09375,0.7187 c 0.2159,0.075 0.47776,-0.022 0.59375,-0.2187 l 1.4375,-2.5 0.375,0.3125 0.1875,-0.2813 -2,3.4688 c -0.11599,0.19669 -0.37785,0.29319 -0.59375,0.2187 l -2.09375,-0.7187 c -0.62461,0.5 -1.33637,0.9225 -2.09375,1.2187 l -0.40625,2.125 c -0.0428,0.2241 -0.27189,0.4032 -0.5,0.4063 h -4 c -0.0156,5e-4 -0.0469,5e-4 -0.0625,0 z m -5.875,-9.7813 c 0.005,-0.073 -0.008,-0.14661 0,-0.2187 0.007,0.063 0.022,0.1255 0.0312,0.1875 l -0.0312,0.031 z m 15.875,0 -0.0312,-0.031 c 0.009,-0.062 0.0246,-0.1247 0.0312,-0.1875 0.008,0.072 -0.005,0.1461 0,0.2188 z m -15.875,-0.4375 -0.0312,-0.031 c 0.006,-0.082 -0.006,-0.167 0,-0.25 0.006,0.094 0.0241,0.1869 0.0312,0.2813 z m 15.875,0 c 0.007,-0.094 0.0247,-0.1871 0.0312,-0.2812 0.006,0.083 -0.006,0.1675 0,0.25 l -0.0312,0.031 z m -15.90625,-1.0312 -1.53125,-1.3438 0.375,-0.6562 1.21875,1.0625 c -0.046,0.3073 -0.0511,0.62159 -0.0625,0.9375 z m 15.9375,0 c -0.0114,-0.31591 -0.0165,-0.6302 -0.0625,-0.9375 l 1.21875,-1.0625 0.375,0.6562 z"
       id="path4581" />
    <path
       inkscape:connector-curvature="0"
       id="path4583"
       d="m 52.947703,-292.996 c -0.21201,0.023 -0.39876,0.19655 -0.4375,0.40625 l -0.421875,2.14062 c -0.75739,0.2962 -1.46914,0.70313 -2.09375,1.20313 l -2.078125,-0.70313 c -0.2159,-0.075 -0.47775,0.022 -0.59375,0.21875 l -2,3.46875 c -0.11266,0.1995 -0.0643,0.4756 0.109375,0.625 l 1.65625,1.45313 c -0.0583,0.3896 -0.09375,0.7817 -0.09375,1.1875 0,0.4059 0.03545,0.7978 0.09375,1.1875 l -1.65625,1.45312 c -0.17372,0.1493 -0.222035,0.4255 -0.109375,0.625 l 2,3.46875 c 0.116,0.1967 0.37785,0.29315 0.59375,0.21875 l 2.078125,-0.70312 c 0.62461,0.5 1.33636,0.90692 2.09375,1.20312 l 0.421875,2.14063 c 0.0427,0.2241 0.256265,0.40305 0.484375,0.40625 h 4 c 0.22811,0 0.441605,-0.18215 0.484375,-0.40625 l 0.421875,-2.14063 c 0.75738,-0.2962 1.46914,-0.70312 2.09375,-1.20312 l 2.078125,0.70312 c 0.2159,0.075 0.47776,-0.022 0.59375,-0.21875 l 2,-3.46875 c 0.11265,-0.1995 0.06431,-0.4757 -0.109375,-0.625 l -1.65625,-1.45312 c 0.0583,-0.3897 0.09375,-0.7816 0.09375,-1.1875 0,-0.4058 -0.03545,-0.7979 -0.09375,-1.1875 l 1.65625,-1.45313 c 0.17371,-0.1494 0.222025,-0.4255 0.109375,-0.625 l -2,-3.46875 c -0.11599,-0.1968 -0.37785,-0.29315 -0.59375,-0.21875 l -2.078125,0.70313 c -0.62461,-0.5 -1.33637,-0.90693 -2.09375,-1.20313 l -0.421875,-2.14062 c -0.0428,-0.2241 -0.256265,-0.40315 -0.484375,-0.40625 h -4 c -0.0156,-5e-4 -0.03128,-5e-4 -0.04687,0 z"
       style="display:inline;fill:url(#linearGradient4593);fill-opacity:1;stroke:none;stroke-width:2;stroke-linecap:round;stroke-linejoin:round;stroke-miterlimit:4;stroke-dasharray:none;stroke-opacity:1;enable-background:new" />
    <path
       inkscape:connector-curvature="0"
       id="path4585"
       d="m 54.997763,510.00238 a 8.0000028,8.0000028 0 0 0 -3.902344,1.02735 l -0.0059,-0.004 c -0.05886,0.0328 -0.113832,0.0714 -0.171875,0.10547 a 8.0000028,8.0000028 0 0 0 -0.322266,0.19531 c -0.207338,0.13459 -0.408057,0.27634 -0.599609,0.42969 l -2.078125,-0.70508 c -0.215931,-0.0744 -0.477749,0.0222 -0.59375,0.21875 l -1.822266,3.15625 1.585938,1.39063 c -0.04584,0.30631 -0.06277,0.61875 -0.07422,0.93359 l 0.07617,0.0664 c -0.0094,0.0629 -0.01355,0.12642 -0.02148,0.18945 a 8.0000028,8.0000028 0 0 0 -0.03711,0.32617 c -0.0016,0.0207 -0.0034,0.0406 -0.0059,0.0605 0.01469,0.26775 0.02328,0.53669 0.0625,0.79883 l -0.07617,0.0664 a 8.0000028,8.0000028 0 0 0 2.205078,5.25977 l 0.777344,-0.26367 c 0.62461,0.5 1.33636,0.90692 2.09375,1.20312 l 0.210937,1.06641 a 8.0000028,8.0000028 0 0 0 2.701251,0.47866 8.0000028,8.0000028 0 0 0 2.689453,-0.47851 l 0.210938,-1.06641 c 0.75738,-0.2962 1.46914,-0.70312 2.09375,-1.20312 l 2.080078,0.70312 c 0.2159,0.075 0.47776,-0.022 0.59375,-0.21875 l 1.818359,-3.1543 -1.583984,-1.39062 c 0.0029,-0.0201 0.005,-0.0403 0.0078,-0.0606 a 8.0000028,8.0000028 0 0 0 0.05859,-0.5 8.0000028,8.0000028 0 0 0 0.01758,-0.3672 l -0.08398,-0.0742 c 0.04104,-0.27434 0.05242,-0.55528 0.06641,-0.83594 a 8.0000028,8.0000028 0 0 0 -7.970703,-7.35352 z m -0.998047,3.99805 h 2 v 2 h -2 z m 0,3 h 2 v 5 h -2 z"
       style="display:inline;fill:#000000;fill-opacity:0.2;stroke:none;stroke-width:1.42857206;stroke-linecap:round;stroke-linejoin:round;stroke-miterlimit:4;stroke-dasharray:none;stroke-opacity:1;enable-background:new" />
    <path
       inkscape:connector-curvature="0"
       style="display:inline;fill:#000000;fill-opacity:0.2;stroke:none;stroke-width:1.42857206;stroke-linecap:round;stroke-linejoin:round;stroke-miterlimit:4;stroke-dasharray:none;stroke-opacity:1;filter:url(#filter4662);enable-background:new"
       d="m 54.997763,509.00238 a 8.0000028,8.0000028 0 0 0 -3.902344,1.02735 l -0.0059,-0.004 c -0.05886,0.0328 -0.113832,0.0714 -0.171875,0.10547 a 8.0000028,8.0000028 0 0 0 -0.322266,0.19531 c -0.207338,0.13459 -0.408057,0.27634 -0.599609,0.42969 l -2.078125,-0.70508 c -0.215931,-0.0744 -0.477749,0.0222 -0.59375,0.21875 l -2.001953,3.46875 c -0.112642,0.1995 -0.06231,0.47564 0.111328,0.625 l 1.65625,1.45313 c -0.0094,0.0629 -0.01355,0.12642 -0.02148,0.18945 a 8.0000028,8.0000028 0 0 0 -0.03711,0.32617 c -0.0029,0.0374 -0.0089,0.0719 -0.01172,0.10938 l 0.0078,0.004 a 8.0000028,8.0000028 0 0 0 -0.02729,0.55663 8.0000028,8.0000028 0 0 0 8,8 8.0000028,8.0000028 0 0 0 4.265625,-1.23633 8.0000028,8.0000028 0 0 0 0.136719,-0.0879 c 0.204187,-0.13246 0.403252,-0.27287 0.591797,-0.42382 l 2.080078,0.70312 c 0.215859,0.0744 0.477749,-0.0182 0.59375,-0.21484 l 2,-3.47071 c 0.112644,-0.19948 0.06431,-0.47562 -0.109375,-0.625 l -1.65625,-1.45312 c 0.0029,-0.0201 0.005,-0.0403 0.0078,-0.0606 a 8.0000028,8.0000028 0 0 0 0.05859,-0.5 8.0000028,8.0000028 0 0 0 0.03125,-0.63086 8.0000028,8.0000028 0 0 0 -8.001953,-8 z m -0.998047,3.99805 h 2 v 2 h -2 z m 0,3 h 2 v 5 h -2 z"
       id="path4587" />
    <path
       inkscape:connector-curvature="0"
       id="path4589"
       d="m 54.997763,509.00238 a 8.0000028,8.0000028 0 0 0 -3.902344,1.02735 l -0.0059,-0.004 c -0.05886,0.0328 -0.113832,0.0714 -0.171875,0.10547 a 8.0000028,8.0000028 0 0 0 -0.322266,0.19531 c -0.207338,0.13459 -0.408057,0.27634 -0.599609,0.42969 l -2.078125,-0.70508 c -0.215931,-0.0744 -0.477749,0.0222 -0.59375,0.21875 l -2.001953,3.46875 c -0.112642,0.1995 -0.06231,0.47564 0.111328,0.625 l 1.65625,1.45313 c -0.0094,0.0629 -0.01355,0.12642 -0.02148,0.18945 a 8.0000028,8.0000028 0 0 0 -0.03711,0.32617 c -0.0029,0.0374 -0.0089,0.0719 -0.01172,0.10938 l 0.0078,0.004 a 8.0000028,8.0000028 0 0 0 -0.02729,0.55663 8.0000028,8.0000028 0 0 0 8,8 8.0000028,8.0000028 0 0 0 4.265625,-1.23633 8.0000028,8.0000028 0 0 0 0.136719,-0.0879 c 0.204187,-0.13246 0.403252,-0.27287 0.591797,-0.42382 l 2.080078,0.70312 c 0.215859,0.0744 0.477749,-0.0182 0.59375,-0.21484 l 2,-3.47071 c 0.112644,-0.19948 0.06431,-0.47562 -0.109375,-0.625 l -1.65625,-1.45312 c 0.0029,-0.0201 0.005,-0.0403 0.0078,-0.0606 a 8.0000028,8.0000028 0 0 0 0.05859,-0.5 8.0000028,8.0000028 0 0 0 0.03125,-0.63086 8.0000028,8.0000028 0 0 0 -8.001953,-8 z m -0.998047,3.99805 h 2 v 2 h -2 z m 0,3 h 2 v 5 h -2 z"
       style="display:inline;fill:#0ea7e5;fill-opacity:1;stroke:none;stroke-width:1.42857206;stroke-linecap:round;stroke-linejoin:round;stroke-miterlimit:4;stroke-dasharray:none;stroke-opacity:1;enable-background:new" />
    <path
       inkscape:connector-curvature="0"
       id="path4591"
       d="m 54.997763,509.00238 a 8.0000028,8.0000028 0 0 0 -3.902344,1.02735 l -0.0059,-0.004 c -0.05886,0.0328 -0.113832,0.0714 -0.171875,0.10547 a 8.0000028,8.0000028 0 0 0 -0.322266,0.19531 c -0.207338,0.13459 -0.408057,0.27634 -0.599609,0.42969 l -2.078125,-0.70508 c -0.215931,-0.0744 -0.477749,0.0222 -0.59375,0.21875 l -2.001953,3.46875 c -0.112642,0.1995 -0.06231,0.47564 0.111328,0.625 l 0.07031,0.0605 1.820313,-3.1543 c 0.116001,-0.19655 0.377819,-0.29315 0.59375,-0.21875 l 2.078125,0.70508 c 0.191552,-0.15335 0.392271,-0.2951 0.599609,-0.42969 a 8.0000028,8.0000028 0 0 1 0.322266,-0.19531 c 0.05804,-0.0341 0.113015,-0.0727 0.171875,-0.10547 l 0.0059,0.004 a 8.0000028,8.0000028 0 0 1 3.902344,-1.02735 8.0000028,8.0000028 0 0 1 7.976562,7.4961 8.0000028,8.0000028 0 0 0 0.02539,-0.4961 8.0000028,8.0000028 0 0 0 -8.001953,-8 z m -0.998047,5.99805 v 1 h 2 v -1 z m -6.988281,1.74805 a 8.0000028,8.0000028 0 0 0 -0.01172,0.2539 8.0000028,8.0000028 0 0 0 0.02148,0.42774 c 0.0031,-0.0329 0.0072,-0.0643 0.0098,-0.0977 a 8.0000028,8.0000028 0 0 1 0.03711,-0.32617 c 0.0079,-0.063 0.01208,-0.12655 0.02148,-0.18945 z m 0.0098,0.69531 a 8.0000028,8.0000028 0 0 0 0.0039,0.0606 8.0000028,8.0000028 0 0 1 0.002,-0.0586 z m 15.964844,0.82422 a 8.0000028,8.0000028 0 0 1 -0.01758,0.36523 8.0000028,8.0000028 0 0 1 -0.05859,0.5 c -0.0028,0.0202 -0.0049,0.0405 -0.0078,0.0606 l 1.585937,1.39062 0.179688,-0.3125 c 0.112644,-0.19948 0.06431,-0.47563 -0.109375,-0.625 z m -8.986363,2.73242 v 1 h 2 v -1 z"
       style="display:inline;fill:#ffffff;fill-opacity:0.2;stroke:none;stroke-width:1.42857206;stroke-linecap:round;stroke-linejoin:round;stroke-miterlimit:4;stroke-dasharray:none;stroke-opacity:1;enable-background:new" />
    <path
       style="display:inline;fill:#0ea7e5;fill-opacity:1;stroke:none;stroke-width:1.14276218;stroke-linecap:round;stroke-linejoin:round;stroke-miterlimit:4;stroke-dasharray:none;stroke-opacity:1;enable-background:new"
       d="M 23.787109 513.60352 A 6.3994675 6.3994675 0 0 0 20.666016 514.42578 L 20.662109 514.42188 C 20.615029 514.44808 20.569866 514.47856 20.523438 514.50586 A 6.3994675 6.3994675 0 0 0 20.265625 514.66211 C 20.099768 514.76977 19.940338 514.88319 19.787109 515.00586 L 18.125 514.44336 C 17.952269 514.38386 17.743184 514.46 17.650391 514.61719 L 16.048828 517.39258 C 15.958718 517.55217 15.997819 517.77311 16.136719 517.89258 L 17.462891 519.05469 C 17.455391 519.10499 17.451653 519.15661 17.445312 519.20703 A 6.3994675 6.3994675 0 0 0 17.416016 519.4668 C 17.413716 519.4967 17.40855 519.52469 17.40625 519.55469 L 17.412109 519.55859 A 6.3994675 6.3994675 0 0 0 17.390625 520.00391 A 6.3994675 6.3994675 0 0 0 23.789062 526.40234 A 6.3994675 6.3994675 0 0 0 27.201172 525.41406 A 6.3994675 6.3994675 0 0 0 27.310547 525.34375 C 27.473883 525.2378 27.634333 525.12466 27.785156 525.00391 L 29.449219 525.56641 C 29.621891 525.62591 29.831035 525.55179 29.923828 525.39453 L 31.523438 522.61914 C 31.613547 522.45957 31.574477 522.23864 31.435547 522.11914 L 30.111328 520.95508 C 30.113628 520.93898 30.114988 520.9245 30.117188 520.9082 A 6.3994675 6.3994675 0 0 0 30.164062 520.50781 A 6.3994675 6.3994675 0 0 0 30.189453 520.00195 A 6.3994675 6.3994675 0 0 0 23.789062 513.60352 L 23.787109 513.60352 z M 23 516 L 25 516 L 25 518 L 23 518 L 23 516 z M 23 519 L 25 519 L 25 524 L 23 524 L 23 519 z "
       id="path4604" />
  </g>
</svg>
