<?xml version="1.0" encoding="UTF-8" standalone="no"?>
<!-- Created with Inkscape (http://www.inkscape.org/) -->

<svg
   xmlns:dc="http://purl.org/dc/elements/1.1/"
   xmlns:cc="http://creativecommons.org/ns#"
   xmlns:rdf="http://www.w3.org/1999/02/22-rdf-syntax-ns#"
   xmlns:svg="http://www.w3.org/2000/svg"
   xmlns="http://www.w3.org/2000/svg"
   xmlns:xlink="http://www.w3.org/1999/xlink"
   xmlns:sodipodi="http://sodipodi.sourceforge.net/DTD/sodipodi-0.dtd"
   xmlns:inkscape="http://www.inkscape.org/namespaces/inkscape"
   width="816"
   height="544"
   viewBox="0 0 816 544"
   version="1.1"
   id="svg1087"
   inkscape:version="0.92.1 r"
   sodipodi:docname="inkscape.svg">
  <defs
     id="defs1081">
    <linearGradient
       id="linearGradient4626"
       inkscape:collect="always">
      <stop
         id="stop4622"
         offset="0"
         style="stop-color:#ffffff;stop-opacity:0.05490196" />
      <stop
         id="stop4624"
         offset="1"
         style="stop-color:#177ed5;stop-opacity:0;" />
    </linearGradient>
    <linearGradient
       id="linearGradient4620"
       inkscape:collect="always">
      <stop
         id="stop4616"
         offset="0"
         style="stop-color:#ffffff;stop-opacity:0.05490196" />
      <stop
         id="stop4618"
         offset="1"
         style="stop-color:#177ed5;stop-opacity:0;" />
    </linearGradient>
    <linearGradient
       id="linearGradient4614"
       inkscape:collect="always">
      <stop
         id="stop4610"
         offset="0"
         style="stop-color:#ffffff;stop-opacity:0.05490196" />
      <stop
         id="stop4612"
         offset="1"
         style="stop-color:#177ed5;stop-opacity:0;" />
    </linearGradient>
    <linearGradient
       id="linearGradient4608"
       inkscape:collect="always">
      <stop
         id="stop4604"
         offset="0"
         style="stop-color:#ffffff;stop-opacity:0.05490196" />
      <stop
         id="stop4606"
         offset="1"
         style="stop-color:#177ed5;stop-opacity:0;" />
    </linearGradient>
    <linearGradient
       inkscape:collect="always"
       xlink:href="#linearGradient4620"
       id="linearGradient4423"
       gradientUnits="userSpaceOnUse"
       gradientTransform="matrix(0.64180171,0,0,0.64180452,96.553172,-147.96829)"
       x1="7"
       y1="1011.3622"
       x2="41.000019"
       y2="1045.3622" />
    <linearGradient
       inkscape:collect="always"
       id="linearGradient4165">
      <stop
         style="stop-color:#ffffff;stop-opacity:0.05490196"
         offset="0"
         id="stop4167" />
      <stop
         style="stop-color:#177ed5;stop-opacity:0;"
         offset="1"
         id="stop4169" />
    </linearGradient>
    <linearGradient
       inkscape:collect="always"
       xlink:href="#linearGradient4626"
       id="linearGradient4478"
       gradientUnits="userSpaceOnUse"
       gradientTransform="matrix(0.45842979,0,0,0.4584318,52.96683,44.535974)"
       x1="7"
       y1="1011.3622"
       x2="41.000019"
       y2="1045.3622" />
    <linearGradient
       inkscape:collect="always"
       xlink:href="#linearGradient4614"
       id="linearGradient4171-1"
       x1="7"
       y1="1011.3622"
       x2="41.000019"
       y2="1045.3622"
       gradientUnits="userSpaceOnUse"
       gradientTransform="matrix(0.95647259,0,0,0.95647693,144.94399,-479.60296)" />
    <linearGradient
       inkscape:collect="always"
       xlink:href="#linearGradient4165"
       id="linearGradient4439"
       gradientUnits="userSpaceOnUse"
       gradientTransform="matrix(10.26883,0,0,10.268874,292.85696,-10287.504)"
       x1="7"
       y1="1011.3622"
       x2="41.000019"
       y2="1045.3622" />
    <linearGradient
       inkscape:collect="always"
       xlink:href="#linearGradient4608"
       id="linearGradient4555"
       gradientUnits="userSpaceOnUse"
       gradientTransform="matrix(1.2836034,0,0,1.283609,209.10634,-823.93649)"
       x1="7"
       y1="1011.3622"
       x2="41.000019"
       y2="1045.3622" />
    <filter
       inkscape:collect="always"
       style="color-interpolation-filters:sRGB"
       id="filter4582"
       x="-0.012326756"
       width="1.0246535"
       y="-0.01169012"
       height="1.0233802">
      <feGaussianBlur
         inkscape:collect="always"
         stdDeviation="0.21430361"
         id="feGaussianBlur4584" />
    </filter>
    <filter
       inkscape:collect="always"
       style="color-interpolation-filters:sRGB"
       id="filter4600"
       x="-0.012326477"
       width="1.024653"
       y="-0.011690371"
       height="1.0233807">
      <feGaussianBlur
         inkscape:collect="always"
         stdDeviation="0.28761143"
         id="feGaussianBlur4602" />
    </filter>
    <filter
       inkscape:collect="always"
       style="color-interpolation-filters:sRGB"
       id="filter4649"
       x="-0.018959051"
       width="1.0379181"
       y="-0.032692477"
       height="1.065385">
      <feGaussianBlur
         inkscape:collect="always"
         stdDeviation="1.6402769"
         id="feGaussianBlur4651" />
    </filter>
    <filter
       inkscape:collect="always"
       style="color-interpolation-filters:sRGB"
       id="filter4663"
       x="-0.024638785"
       width="1.0492776"
       y="-0.023393501"
       height="1.046787">
      <feGaussianBlur
         inkscape:collect="always"
         stdDeviation="4.5992394"
         id="feGaussianBlur4665" />
    </filter>
    <filter
       inkscape:collect="always"
       style="color-interpolation-filters:sRGB"
       id="filter4667"
       x="-0.009479523"
       width="1.018959"
       y="-0.016346246"
       height="1.0326925">
      <feGaussianBlur
         inkscape:collect="always"
         stdDeviation="0.10251728"
         id="feGaussianBlur4669" />
    </filter>
    <filter
       inkscape:collect="always"
       style="color-interpolation-filters:sRGB"
       id="filter4675"
       x="-0.0094795218"
       width="1.018959"
       y="-0.016346249"
       height="1.0326925">
      <feGaussianBlur
         inkscape:collect="always"
         stdDeviation="0.076390426"
         id="feGaussianBlur4677" />
    </filter>
  </defs>
  <sodipodi:namedview
     id="base"
     pagecolor="#c3c3c3"
     bordercolor="#333333"
     borderopacity="1"
     inkscape:pageopacity="0"
     inkscape:pageshadow="2"
     inkscape:zoom="0.9899495"
     inkscape:cx="482.18271"
     inkscape:cy="280.49274"
     inkscape:document-units="px"
     inkscape:current-layer="layer2"
     showgrid="false"
     units="px"
     inkscape:showpageshadow="false"
     inkscape:window-width="1280"
     inkscape:window-height="1370"
     inkscape:window-x="1280"
     inkscape:window-y="34"
     inkscape:window-maximized="0"
     showguides="false">
    <inkscape:grid
       type="xygrid"
       id="grid4630" />
  </sodipodi:namedview>
  <metadata
     id="metadata1084">
    <rdf:RDF>
      <cc:Work
         rdf:about="">
        <dc:format>image/svg+xml</dc:format>
        <dc:type
           rdf:resource="http://purl.org/dc/dcmitype/StillImage" />
        <dc:title></dc:title>
        <cc:license
           rdf:resource="http://creativecommons.org/licenses/by-sa/4.0/" />
        <dc:creator>
          <cc:Agent>
            <dc:title>Peter Cornelis</dc:title>
          </cc:Agent>
        </dc:creator>
      </cc:Work>
      <cc:License
         rdf:about="http://creativecommons.org/licenses/by-sa/4.0/">
        <cc:permits
           rdf:resource="http://creativecommons.org/ns#Reproduction" />
        <cc:permits
           rdf:resource="http://creativecommons.org/ns#Distribution" />
        <cc:requires
           rdf:resource="http://creativecommons.org/ns#Notice" />
        <cc:requires
           rdf:resource="http://creativecommons.org/ns#Attribution" />
        <cc:permits
           rdf:resource="http://creativecommons.org/ns#DerivativeWorks" />
        <cc:requires
           rdf:resource="http://creativecommons.org/ns#ShareAlike" />
      </cc:License>
    </rdf:RDF>
  </metadata>
  <g
     inkscape:label="Baseplate"
     inkscape:groupmode="layer"
     id="layer1"
     transform="translate(0,-153.06668)"
     style="display:none">
    <rect
       style="display:inline;overflow:visible;visibility:visible;fill:#fefefe;fill-opacity:1;fill-rule:nonzero;stroke:none;stroke-width:2;marker:none;enable-background:accumulate"
       id="rect3951"
       width="512"
       height="512"
       x="-800"
       y="169.06668"
       inkscape:label="48x48"
       transform="scale(-1,1)" />
    <text
       y="733.32251"
       xml:space="preserve"
       x="15.006836"
       style="font-style:normal;font-variant:normal;font-weight:normal;font-stretch:normal;line-height:0%;font-family:'DejaVu Sans';-inkscape-font-specification:'DejaVu Sans';display:inline;fill:#000000;fill-opacity:1;stroke:none;enable-background:new"
       inkscape:label="context"
       id="context"><tspan
         style="font-style:normal;font-variant:normal;font-weight:normal;font-stretch:normal;font-size:18px;line-height:1.25;font-family:'DejaVu Sans';-inkscape-font-specification:'DejaVu Sans'"
         y="733.32251"
         x="15.006836"
         sodipodi:role="line"
         id="tspan3933">apps</tspan></text>
    <text
       y="733.32251"
       xml:space="preserve"
       x="142.48828"
       style="font-style:normal;font-variant:normal;font-weight:bold;font-stretch:normal;line-height:0%;font-family:'DejaVu Sans';-inkscape-font-specification:'DejaVu Sans Bold';text-align:start;writing-mode:lr-tb;text-anchor:start;display:inline;fill:#000000;fill-opacity:1;stroke:none;enable-background:new"
       inkscape:label="icon-name"
       id="icon-name"><tspan
         style="font-style:normal;font-variant:normal;font-weight:bold;font-stretch:normal;font-size:18px;line-height:1.25;font-family:'DejaVu Sans';-inkscape-font-specification:'DejaVu Sans Bold'"
         y="733.32251"
         x="142.48828"
         sodipodi:role="line"
         id="tspan3937">inkscape</tspan></text>
    <rect
       style="display:inline;overflow:visible;visibility:visible;fill:#fefefe;fill-opacity:1;fill-rule:nonzero;stroke:none;stroke-width:2;marker:none;enable-background:accumulate"
       id="rect16x16"
       width="16"
       height="16"
       x="-32"
       y="665.06665"
       inkscape:label="16x16"
       transform="scale(-1,1)" />
    <rect
       style="display:inline;overflow:visible;visibility:visible;fill:#fefefe;fill-opacity:1;fill-rule:nonzero;stroke:none;stroke-width:2;marker:none;enable-background:accumulate"
       id="rect24x24"
       width="24"
       height="24"
       x="-76"
       y="657.06665"
       inkscape:label="24x24"
       transform="scale(-1,1)" />
    <rect
       style="display:inline;overflow:visible;visibility:visible;fill:#fefefe;fill-opacity:1;fill-rule:nonzero;stroke:none;stroke-width:2;marker:none;enable-background:accumulate"
       id="rect32x32"
       width="32"
       height="32"
       x="-128"
       y="649.06665"
       inkscape:label="32x32"
       transform="scale(-1,1)" />
    <rect
       inkscape:label="48x48"
       y="633.06665"
       x="-192"
       height="48"
       width="48"
       id="rect48x48"
       style="display:inline;overflow:visible;visibility:visible;fill:#fefefe;fill-opacity:1;fill-rule:nonzero;stroke:none;stroke-width:2;marker:none;enable-background:accumulate"
       transform="scale(-1,1)" />
    <rect
       transform="scale(-1,1)"
       inkscape:label="32x32"
       y="617.06665"
       x="-272"
       height="64"
       width="64"
       id="rect4538"
       style="display:inline;overflow:visible;visibility:visible;fill:#fefefe;fill-opacity:1;fill-rule:nonzero;stroke:none;stroke-width:4;marker:none;enable-background:accumulate" />
  </g>
  <g
     inkscape:groupmode="layer"
     id="layer2"
     inkscape:label="Bitmap"
     style="display:inline">
    <path
       id="path4575"
       d="m 167.36289,483.00454 c -1.45045,0.0514 -3.05882,1.51997 -6.51562,5.09765 -10.81677,11.1954 -13.7461,14.60777 -13.7461,16.01367 0,1.7676 1.57122,2.95913 5.46094,4.14063 1.68956,0.5132 3.16681,1.08739 3.2832,1.27539 0.11639,0.1884 -0.59363,0.70544 -1.57617,1.14844 -3.73599,1.6845 -3.41416,2.8139 1.2793,4.5 4.3525,1.5637 5.91992,2.34658 5.91992,2.95508 0,0.2642 -0.40367,1.04944 -0.89844,1.74414 -1.20463,1.6919 -0.7941,2.47846 1.6543,3.16406 1.63745,0.4585 2.16692,0.8627 2.6543,2.0293 0.33484,0.8011 0.86679,1.5615 1.18164,1.6875 1.17504,0.4726 2.43321,0.2629 4.67187,-0.7793 2.74606,-1.2787 3.18664,-1.85561 2.23047,-2.91211 -0.39464,-0.4362 -0.7168,-0.99348 -0.7168,-1.23828 0,-0.2446 1.52204,-1.11189 3.38282,-1.92969 4.85378,-2.1331 5.32135,-3.71308 1.72656,-5.83398 -0.96793,-0.5709 -1.48249,-1.1369 -1.24609,-1.3711 0.22153,-0.2194 2.25116,-1.10324 4.51171,-1.96484 7.56692,-2.8838 8.69781,-3.77954 8.04883,-6.36524 -0.3006,-1.1975 -15.90522,-18.12656 -18.50195,-20.07226 -1.12194,-0.84071 -1.93442,-1.3199 -2.80469,-1.28906 z m 6.53711,8.49609 c 0.79014,0.88101 1.39933,1.62071 1.80859,2.18359 -0.40942,-0.56299 -1.01837,-1.30252 -1.80859,-2.18359 z m -3.49609,4.02344 c 0.2937,0.0219 0.58702,0.14501 0.99023,0.35351 0.29535,0.15273 0.51767,0.2674 0.68945,0.32422 0.17179,0.0568 0.29332,0.0564 0.38672,-0.0195 -0.0935,0.0761 -0.21482,0.0762 -0.38672,0.0195 -0.17189,-0.0567 -0.3941,-0.16954 -0.68945,-0.32226 -0.40321,-0.2085 -0.69659,-0.33338 -0.99023,-0.35547 z m -9.38086,14.55859 c 1.78397,0.10433 6.70501,1.30425 7.00586,1.79102 0.15995,0.2588 0.0122,0.64768 -0.32813,0.86328 -0.74635,0.4728 -0.63911,0.48094 -2.86328,-0.22266 -2.56733,-0.8119 -5.04357,-2.1753 -4.36523,-2.40429 0.10417,-0.0352 0.29592,-0.0422 0.55078,-0.0273 z m 23.89648,5.01563 c -1.03317,-0.0695 -2.14727,0.33675 -2.99023,1.17968 -0.86165,0.8616 -0.85766,0.876 0.22461,1.3086 1.74202,0.6959 4.28013,0.57588 4.95117,-0.23242 0.51657,-0.6224 0.44856,-0.84883 -0.48828,-1.60743 -0.48562,-0.39326 -1.07736,-0.60672 -1.69727,-0.64843 z m -27.49023,3.19531 c -0.37638,0.0238 -0.75464,0.0957 -1.09375,0.22461 -1.11145,0.4226 -1.61171,2.09707 -0.85352,2.85547 0.94484,0.9447 4.19141,-0.75852 4.19141,-2.19922 0,-0.58635 -1.115,-0.95219 -2.24414,-0.88086 z m 23.52539,0.45508 c -0.0996,-0.007 -0.18376,0.008 -0.25,0.0488 -0.5837,0.36079 -0.44237,2.32277 0.18554,2.57617 0.30871,0.1238 0.59522,0.24172 0.63672,0.26172 0.38642,0.1814 1.4961,-0.64138 1.4961,-1.10938 0,-0.63227 -1.37105,-1.73173 -2.06836,-1.77734 z"
       style="display:inline;fill:#000000;fill-opacity:0.2;enable-background:new;filter:url(#filter4582)"
       inkscape:connector-curvature="0" />
    <path
       inkscape:connector-curvature="0"
       style="display:inline;fill:#4b525f;fill-opacity:1;enable-background:new"
       d="m 167.36289,482.00462 c -1.45045,0.0514 -3.05882,1.51997 -6.51562,5.09765 -10.81677,11.1954 -13.7461,14.60777 -13.7461,16.01367 0,1.7676 1.57122,2.95913 5.46094,4.14063 1.68956,0.5132 3.16681,1.08739 3.2832,1.27539 0.11639,0.1884 -0.59363,0.70544 -1.57617,1.14844 -3.73599,1.6845 -3.41416,2.8139 1.2793,4.5 4.3525,1.5637 5.91992,2.34658 5.91992,2.95508 0,0.2642 -0.40367,1.04944 -0.89844,1.74414 -1.20463,1.6919 -0.7941,2.47846 1.6543,3.16406 1.63745,0.4585 2.16692,0.8627 2.6543,2.0293 0.33484,0.8011 0.86679,1.5615 1.18164,1.6875 1.17504,0.4726 2.43321,0.2629 4.67187,-0.7793 2.74606,-1.2787 3.18664,-1.85561 2.23047,-2.91211 -0.39464,-0.4362 -0.7168,-0.99348 -0.7168,-1.23828 0,-0.2446 1.52204,-1.11189 3.38282,-1.92969 4.85378,-2.1331 5.32135,-3.71308 1.72656,-5.83398 -0.96793,-0.5709 -1.48249,-1.1369 -1.24609,-1.3711 0.22153,-0.2194 2.25116,-1.10324 4.51171,-1.96484 7.56692,-2.8838 8.69781,-3.77954 8.04883,-6.36524 -0.3006,-1.1975 -15.90522,-18.12656 -18.50195,-20.07226 -1.12194,-0.84071 -1.93442,-1.3199 -2.80469,-1.28906 z m 6.53711,8.49609 c 0.79014,0.88101 1.39933,1.62071 1.80859,2.18359 -0.40942,-0.56299 -1.01837,-1.30252 -1.80859,-2.18359 z m -3.49609,4.02344 c 0.2937,0.0219 0.58702,0.14501 0.99023,0.35351 0.29535,0.15273 0.51767,0.2674 0.68945,0.32422 0.17179,0.0568 0.29332,0.0564 0.38672,-0.0195 -0.0935,0.0761 -0.21482,0.0762 -0.38672,0.0195 -0.17189,-0.0567 -0.3941,-0.16954 -0.68945,-0.32226 -0.40321,-0.2085 -0.69659,-0.33338 -0.99023,-0.35547 z m -9.38086,14.55859 c 1.78397,0.10433 6.70501,1.30425 7.00586,1.79102 0.15995,0.2588 0.0122,0.64768 -0.32813,0.86328 -0.74635,0.4728 -0.63911,0.48094 -2.86328,-0.22266 -2.56733,-0.8119 -5.04357,-2.1753 -4.36523,-2.40429 0.10417,-0.0352 0.29592,-0.0422 0.55078,-0.0273 z m 23.89648,5.01563 c -1.03317,-0.0695 -2.14727,0.33675 -2.99023,1.17968 -0.86165,0.8616 -0.85766,0.876 0.22461,1.3086 1.74202,0.6959 4.28013,0.57588 4.95117,-0.23242 0.51657,-0.6224 0.44856,-0.84883 -0.48828,-1.60743 -0.48562,-0.39326 -1.07736,-0.60672 -1.69727,-0.64843 z m -27.49023,3.19531 c -0.37638,0.0238 -0.75464,0.0957 -1.09375,0.22461 -1.11145,0.4226 -1.61171,2.09707 -0.85352,2.85547 0.94484,0.9447 4.19141,-0.75852 4.19141,-2.19922 0,-0.58635 -1.115,-0.95219 -2.24414,-0.88086 z m 23.52539,0.45508 c -0.0996,-0.007 -0.18376,0.008 -0.25,0.0488 -0.5837,0.36079 -0.44237,2.32277 0.18554,2.57617 0.30871,0.1238 0.59522,0.24172 0.63672,0.26172 0.38642,0.1814 1.4961,-0.64138 1.4961,-1.10938 0,-0.63227 -1.37105,-1.73173 -2.06836,-1.77734 z"
       id="path3338" />
    <path
       id="path4573"
       d="m 167.41758,486.21601 c -1.37419,0.11467 -2.85973,1.66925 -5.83594,4.7793 -2.53135,2.6451 -4.60351,5.07398 -4.60351,5.39648 0,0.4204 0.8021,0.58594 2.83594,0.58594 H 162.65 l 1.07813,-2.58203 1.07812,-2.58203 0.6543,2.80664 c 0.36018,1.5436 0.77179,2.80609 0.91406,2.80469 0.14228,0 1.06169,-0.48803 2.04297,-1.08203 1.60928,-0.9741 1.90134,-1.02085 2.97656,-0.46485 1.18141,0.6109 1.19348,0.60182 1.48243,-1.20508 l 0.29101,-1.82422 1.56055,1.18946 c 2.8448,2.1699 1.71814,0.0931 -2.14649,-3.96094 -2.52804,-2.6508 -3.78986,-3.97599 -5.16406,-3.86133 z"
       style="display:inline;fill:#000000;fill-opacity:0.2;fill-rule:evenodd;stroke:none;stroke-width:1px;stroke-linecap:butt;stroke-linejoin:miter;stroke-opacity:1;enable-background:new;filter:url(#filter4675)"
       inkscape:connector-curvature="0" />
    <path
       inkscape:connector-curvature="0"
       style="display:inline;fill:#ffffff;fill-opacity:0.2;enable-background:new"
       d="m 167.36289,482.00329 c -1.45045,0.051 -3.05881,1.52191 -6.51562,5.09961 -10.81677,11.1954 -13.74609,14.60777 -13.74609,16.01367 0,0.2095 0.025,0.40932 0.0703,0.60352 0.47317,-1.6292 3.74891,-5.34289 13.67578,-15.61719 5.53089,-5.7243 6.32848,-6.05049 9.32031,-3.80859 2.59673,1.9457 18.20135,18.87672 18.50195,20.07422 0.0525,0.2091 0.0709,0.39107 0.0977,0.58007 0.10249,-0.4668 0.0541,-0.97723 -0.0977,-1.58203 -0.3006,-1.1975 -15.90521,-18.12656 -18.50195,-20.07226 -1.12194,-0.8407 -1.93441,-1.32192 -2.80469,-1.29102 z m -12.17187,27.1836 c -0.25937,0.1624 -0.56182,0.32988 -0.92188,0.49218 -2.13306,0.9618 -2.93595,1.74359 -2.36523,2.55079 0.32856,-0.4821 1.11261,-0.98403 2.36523,-1.54883 0.98254,-0.443 1.69257,-0.96004 1.57618,-1.14844 -0.0423,-0.068 -0.30808,-0.1969 -0.6543,-0.3457 z m 5.83203,0.89648 c -0.25485,-0.015 -0.4466,-0.01 -0.55078,0.0273 -0.67834,0.229 1.7979,1.5924 4.36523,2.4043 2.22417,0.7036 2.11694,0.69545 2.86329,0.22265 0.34034,-0.2156 0.48807,-0.60448 0.32812,-0.86328 -0.0332,-0.054 -0.13654,-0.11695 -0.27148,-0.18554 -0.0204,0.015 -0.0345,0.0348 -0.0566,0.0488 -0.74635,0.47279 -0.63912,0.48094 -2.86329,-0.22266 -1.24125,-0.3926 -2.44663,-0.91305 -3.29882,-1.37305 -0.17603,-0.021 -0.37486,-0.0496 -0.51563,-0.0586 z m 15.49024,2.37891 c -0.19181,0.099 -0.35773,0.18827 -0.4043,0.23437 -0.23639,0.2342 0.27815,0.80215 1.24609,1.37305 1.24116,0.7322 1.98478,1.39887 2.24414,2.04687 0.39689,-0.9724 -0.35824,-1.93612 -2.24414,-3.04882 -0.35555,-0.2097 -0.62329,-0.41307 -0.84179,-0.60547 z m 8.40625,1.63672 c -1.03318,-0.07 -2.14728,0.33678 -2.99024,1.17968 -0.73336,0.7334 -0.79213,0.86254 -0.14062,1.14844 0.0537,-0.054 0.0776,-0.0849 0.14062,-0.14844 1.34874,-1.3487 3.39253,-1.57995 4.6875,-0.53125 0.24465,0.1981 0.42726,0.35986 0.55859,0.50196 0.41147,-0.5382 0.31783,-0.79421 -0.55859,-1.50391 -0.48562,-0.3932 -1.07736,-0.60478 -1.69726,-0.64648 z m -27.49024,3.19531 c -0.37638,0.024 -0.75464,0.096 -1.09375,0.22461 -0.90561,0.3443 -1.39062,1.51375 -1.13476,2.34765 0.16125,-0.5831 0.56449,-1.13085 1.13476,-1.34765 1.1105,-0.4223 2.62288,-0.23061 3.14063,0.27929 0.11628,-0.2081 0.19726,-0.41724 0.19726,-0.62304 0,-0.5863 -1.115,-0.95226 -2.24414,-0.88086 z m 3.82227,0.44922 c -0.16536,0.3386 -0.40408,0.74701 -0.68164,1.13672 -0.60745,0.8532 -0.80165,1.4748 -0.53321,1.9707 0.10516,-0.289 0.27308,-0.6053 0.53321,-0.9707 0.49477,-0.6947 0.89843,-1.47994 0.89843,-1.74414 0,-0.1216 -0.082,-0.25238 -0.21679,-0.39258 z m 19.70312,0.01 c -0.0996,-0.01 -0.18376,0.01 -0.25,0.0488 -0.34356,0.2123 -0.43241,0.97624 -0.32226,1.62304 0.0544,-0.284 0.15689,-0.51889 0.32226,-0.62109 0.41266,-0.2551 1.57797,0.49504 2.07813,1.18164 0.13868,-0.1602 0.24023,-0.32118 0.24023,-0.45508 0,-0.6323 -1.37105,-1.73164 -2.06836,-1.77734 z m -8.39844,3.76562 c -0.19151,0.1398 -0.31054,0.25366 -0.31054,0.31836 0,0.2448 0.32216,0.80013 0.71679,1.23633 0.11462,0.1266 0.20642,0.24643 0.2793,0.36133 0.32299,-0.4317 0.19449,-0.83783 -0.2793,-1.36133 -0.15835,-0.1751 -0.28722,-0.36879 -0.40625,-0.55469 z"
       id="path4151" />
    <path
       inkscape:connector-curvature="0"
       style="display:inline;fill:#f5f5f5;fill-opacity:1;fill-rule:evenodd;stroke:none;stroke-width:1px;stroke-linecap:butt;stroke-linejoin:miter;stroke-opacity:1;enable-background:new"
       d="m 167.41758,485.21618 c -1.37419,0.11467 -2.85973,1.66925 -5.83594,4.7793 -2.53135,2.6451 -4.60351,5.07398 -4.60351,5.39648 0,0.4204 0.8021,0.58594 2.83594,0.58594 H 162.65 l 1.07813,-2.58203 1.07812,-2.58203 0.6543,2.80664 c 0.36018,1.5436 0.77179,2.80609 0.91406,2.80469 0.14228,0 1.06169,-0.48803 2.04297,-1.08203 1.60928,-0.9741 1.90134,-1.02085 2.97656,-0.46485 1.18141,0.6109 1.19348,0.60182 1.48243,-1.20508 l 0.29101,-1.82422 1.56055,1.18946 c 2.8448,2.1699 1.71814,0.0931 -2.14649,-3.96094 -2.52804,-2.6508 -3.78986,-3.97599 -5.16406,-3.86133 z"
       id="path4159" />
    <path
       style="display:inline;fill:url(#linearGradient4171-1);fill-opacity:1;stroke:none;stroke-width:2;stroke-linecap:round;stroke-linejoin:round;stroke-miterlimit:4;stroke-dasharray:none;stroke-opacity:1;enable-background:new"
       d="m 167.52825,482.02234 a 21.998641,21.998963 0 0 0 -0.42185,0.02 c -1.38969,0.204 -3.00235,1.6893 -6.2614,5.0624 -10.81677,11.1954 -13.74539,14.6048 -13.74539,16.0107 0,1.7676 1.57094,2.9591 5.46066,4.1406 1.68956,0.5132 3.16859,1.0892 3.28499,1.2772 0.11639,0.188 -0.5916,0.7053 -1.57414,1.1483 -3.736,1.6845 -3.41618,2.8137 1.27728,4.4998 4.3525,1.5637 5.92157,2.3485 5.92157,2.957 0,0.2642 -0.40752,1.0474 -0.9023,1.7421 -1.20462,1.6919 -0.79224,2.4783 1.65617,3.1639 1.63745,0.4585 2.16873,0.8645 2.65611,2.0311 0.33484,0.8011 0.86478,1.5615 1.17963,1.6875 0.2397,0.096 0.48793,0.146 0.74215,0.184 a 21.998641,21.998963 0 0 0 0.49997,0.024 c 0.88878,0 1.93141,-0.2908 3.42951,-0.9884 2.74607,-1.2787 3.18653,-1.8533 2.23036,-2.9098 -0.39464,-0.4362 -0.71481,-0.9936 -0.71481,-1.2384 0,-0.2446 1.52186,-1.1157 3.38264,-1.9335 4.85378,-2.1331 5.32126,-3.7108 1.72647,-5.8317 -0.96793,-0.5709 -1.48242,-1.1367 -1.24603,-1.3709 0.22153,-0.2194 2.25093,-1.1033 4.51149,-1.9649 7.56691,-2.8838 8.69935,-3.7812 8.05037,-6.3669 -0.3006,-1.1975 -15.90622,-18.1274 -18.50296,-20.0731 -1.04922,-0.7862 -1.83176,-1.237 -2.64049,-1.2694 z m -6.50748,27.061 c 1.78398,0.104 6.7066,1.3062 7.00746,1.7929 0.15995,0.2588 0.0122,0.6438 -0.32811,0.8594 -0.74635,0.4728 -0.63897,0.481 -2.86314,-0.2226 -2.56733,-0.8119 -5.04139,-2.1733 -4.36305,-2.4023 0.10417,-0.036 0.29199,-0.042 0.54684,-0.028 z m 23.90112,5.0154 c -1.03318,-0.07 -2.14907,0.3368 -2.99203,1.1797 -0.86165,0.8616 -0.85963,0.876 0.22264,1.3086 1.08264,0.4323 2.43318,0.5181 3.49201,0.3515 a 21.998639,21.998963 0 0 0 1.26165,-1.9335 c -0.0946,-0.084 -0.16437,-0.158 -0.28904,-0.258 -0.48562,-0.3931 -1.07532,-0.6065 -1.69523,-0.6483 z m -27.49078,3.1952 c -0.37637,0.024 -0.75458,0.098 -1.09369,0.2266 -1.11145,0.4226 -1.61362,2.0969 -0.85542,2.8553 0.94484,0.9447 4.19119,-0.7624 4.19119,-2.2031 0,-0.5862 -1.11294,-0.9502 -2.24208,-0.8788 z m 23.52614,0.457 c -0.0996,0 -0.18765,0 -0.25389,0.046 -0.5837,0.3608 -0.44041,2.3247 0.18749,2.5781 0.3087,0.124 0.59515,0.2417 0.63668,0.2617 0.38643,0.182 1.49602,-0.6413 1.49602,-1.1093 0,-0.6324 -1.36899,-1.7317 -2.0663,-1.7773 z"
       id="circle4163-3"
       inkscape:connector-curvature="0" />
    <path
       style="display:inline;fill:#000000;fill-opacity:0.2;stroke:none;stroke-width:2;stroke-linecap:round;stroke-linejoin:round;stroke-miterlimit:4;stroke-dasharray:none;stroke-opacity:1;enable-background:new"
       d="m 63.791282,506.43536 a 10.543776,10.543928 0 0 0 -0.202181,0.01 c -0.66607,0.0978 -1.43901,0.80967 -3.00104,2.42637 C 55.40366,514.2376 54,515.87169 54,516.54553 c 0,0.8472 0.75294,1.41827 2.61725,1.98456 0.809791,0.24597 1.518681,0.52204 1.574471,0.61215 0.0558,0.0901 -0.28355,0.33804 -0.75447,0.55037 -1.790641,0.80737 -1.637351,1.34858 0.61219,2.15672 2.08612,0.74947 2.83816,1.12562 2.83816,1.41727 0,0.12662 -0.19532,0.50201 -0.43247,0.83497 -0.57736,0.81091 -0.37971,1.18783 0.79379,1.51643 0.78482,0.21976 1.03946,0.41435 1.27306,0.97349 0.16048,0.38396 0.41448,0.74842 0.56538,0.80881 0.11489,0.046 0.23386,0.07 0.35571,0.0882 a 10.543776,10.543928 0 0 0 0.239631,0.0115 c 0.42599,0 0.92571,-0.13938 1.64374,-0.47373 1.31617,-0.61287 1.52728,-0.88827 1.06899,-1.39465 -0.18915,-0.20906 -0.3426,-0.47622 -0.3426,-0.59355 0,-0.11724 0.72941,-0.53475 1.62127,-0.92671 2.32638,-1.02238 2.550441,-1.77856 0.82749,-2.79509 -0.46393,-0.27363 -0.71052,-0.54481 -0.59722,-0.65706 0.10618,-0.10516 1.07886,-0.5288 2.16232,-0.94176 3.626761,-1.38219 4.169531,-1.8123 3.858481,-3.05161 -0.14407,-0.57395 -7.623721,-8.68832 -8.868321,-9.62087 -0.50288,-0.37682 -0.87795,-0.59289 -1.26557,-0.60842 z m -3.118981,12.97012 c 0.85505,0.0498 3.214421,0.62605 3.358621,0.85932 0.0767,0.12404 0.006,0.30857 -0.15726,0.4119 -0.357721,0.22661 -0.306251,0.23054 -1.372281,-0.10669 -1.2305,-0.38913 -2.4163,-1.04164 -2.09117,-1.1514 0.0499,-0.0172 0.13994,-0.0201 0.26209,-0.0134 z m 11.455622,2.40384 c -0.4952,-0.0335 -1.03003,0.16142 -1.43406,0.56542 -0.41298,0.41296 -0.41201,0.41986 0.10671,0.6272 0.5189,0.2072 1.16621,0.24832 1.67369,0.16847 a 10.543775,10.543928 0 0 0 0.6047,-0.92671 c -0.0453,-0.0403 -0.0788,-0.0757 -0.13853,-0.12366 -0.23276,-0.18841 -0.51539,-0.29069 -0.81251,-0.31072 z m -13.176112,1.53143 c -0.1804,0.0115 -0.36167,0.047 -0.5242,0.10861 -0.53271,0.20255 -0.7734,1.00503 -0.41,1.36852 0.45286,0.45279 2.00881,-0.36541 2.00881,-1.05593 0,-0.28096 -0.53343,-0.45542 -1.07461,-0.4212 z m 11.275892,0.21904 c -0.0477,0 -0.0899,0 -0.121691,0.022 -0.27976,0.17293 -0.21108,1.11421 0.0899,1.23566 0.14796,0.0594 0.28525,0.11584 0.30516,0.12543 0.18521,0.0872 0.71703,-0.30737 0.71703,-0.53168 0,-0.3031 -0.65615,-0.82999 -0.99036,-0.85184 z"
       id="path4579"
       inkscape:connector-curvature="0" />
    <path
       inkscape:connector-curvature="0"
       style="display:inline;fill:#4b525f;fill-opacity:1;enable-background:new"
       d="m 63.710548,505.41282 c -0.695192,0.0246 -1.464276,0.7286 -3.121094,2.44336 -5.184401,5.36587 -6.589844,7.00195 -6.589844,7.67578 0,0.8472 0.752877,1.41809 2.617188,1.98437 0.80979,0.24598 1.518418,0.52123 1.574218,0.61133 0.05578,0.0903 -0.282976,0.33845 -0.753906,0.55078 -1.790631,0.80736 -1.638213,1.35008 0.611328,2.15821 2.08612,0.74947 2.837891,1.12436 2.837891,1.41601 0,0.12663 -0.194501,0.50298 -0.431641,0.83594 -0.57737,0.81092 -0.378578,1.18703 0.794922,1.51563 0.78481,0.21976 1.037894,0.4135 1.271484,0.97265 0.16049,0.38396 0.415497,0.7482 0.566407,0.8086 0.56318,0.22651 1.165311,0.12647 2.238281,-0.37305 1.31616,-0.61287 1.528592,-0.89012 1.070312,-1.39649 -0.18915,-0.20907 -0.34375,-0.47446 -0.34375,-0.59179 0,-0.11723 0.729244,-0.53382 1.621094,-0.92578 2.32638,-1.02238 2.551086,-1.78034 0.828125,-2.79688 -0.46392,-0.27362 -0.710956,-0.544 -0.597656,-0.65625 0.10618,-0.10516 1.078649,-0.5304 2.162109,-0.94336 3.626771,-1.38218 4.168472,-1.80952 3.857422,-3.04883 -0.14408,-0.57395 -7.622597,-8.68853 -8.867187,-9.62109 -0.537736,-0.40294 -0.928589,-0.63392 -1.345703,-0.61914 z m -3.03711,12.97851 c 0.855046,0.05 3.213231,0.62608 3.357422,0.85938 0.07667,0.12404 0.0049,0.31072 -0.158203,0.41406 -0.357721,0.22661 -0.305064,0.22981 -1.371094,-0.10742 -1.2305,-0.38913 -2.416917,-1.04258 -2.091797,-1.15234 0.04993,-0.0169 0.141523,-0.0208 0.263672,-0.0137 z m 11.453125,2.4043 c -0.495195,-0.0333 -1.029569,0.1624 -1.433594,0.56641 -0.41298,0.41296 -0.411298,0.41961 0.107422,0.62695 0.83494,0.33354 2.051427,0.27608 2.373047,-0.11133 0.24759,-0.29831 0.214645,-0.40789 -0.234375,-0.77148 -0.232751,-0.18849 -0.515383,-0.29055 -0.8125,-0.31055 z m -13.175781,1.53125 c -0.180396,0.0114 -0.360908,0.0476 -0.523438,0.10938 -0.53271,0.20255 -0.773556,1.00368 -0.410156,1.36718 0.45285,0.45279 2.007813,-0.36221 2.007813,-1.05273 0,-0.28104 -0.533032,-0.45802 -1.074219,-0.42383 z m 11.27539,0.21875 c -0.04774,-0.003 -0.08935,0.004 -0.121093,0.0234 -0.279741,0.17293 -0.211107,1.11292 0.08984,1.23437 0.14796,0.0593 0.284788,0.11696 0.304688,0.12696 0.18521,0.0869 0.716797,-0.3089 0.716797,-0.53321 0,-0.30303 -0.656023,-0.82969 -0.990235,-0.85156 z"
       id="path4464" />
    <path
       style="display:inline;fill:#ffffff;fill-opacity:0.2;stroke:none;stroke-width:2;stroke-linecap:round;stroke-linejoin:round;stroke-miterlimit:4;stroke-dasharray:none;stroke-opacity:1;enable-background:new"
       d="m 63.791016,505.42188 a 10.543776,10.543928 0 0 0 -0.203125,0.01 c -0.66607,0.0978 -1.43797,0.81102 -3,2.42774 C 55.40349,513.22524 54,514.85936 54,515.5332 c 0,0.20448 0.04591,0.39224 0.138672,0.56836 0.434278,-0.88682 2.106551,-2.74752 6.449219,-7.24218 1.56203,-1.61672 2.33393,-2.32994 3,-2.42774 a 10.543776,10.543928 0 0 1 0.203125,-0.01 v 0.002 c 0.38762,0.0155 0.762745,0.2306 1.265625,0.60742 1.230945,0.92232 8.533922,8.84469 8.833984,9.57422 0.126327,-0.2769 0.127859,-0.57599 0.0332,-0.95313 -0.14407,-0.57395 -7.622587,-8.68854 -8.867187,-9.62109 -0.50288,-0.37682 -0.878005,-0.59189 -1.265625,-0.60742 z"
       id="path4536"
       inkscape:connector-curvature="0" />
    <path
       inkscape:connector-curvature="0"
       style="display:inline;fill:#000000;fill-opacity:0.2;fill-rule:evenodd;stroke:none;stroke-width:1px;stroke-linecap:butt;stroke-linejoin:miter;stroke-opacity:1;enable-background:new"
       d="m 63.737852,508.95262 c -0.658641,0.055 -1.370641,0.80006 -2.797121,2.29068 -1.21325,1.26777 -2.20642,2.43192 -2.20642,2.58649 0,0.20149 0.38444,0.28083 1.35924,0.28083 h 1.35924 l 0.51674,-1.23754 0.51673,-1.23755 0.3136,1.3452 c 0.17263,0.73984 0.36992,1.34494 0.4381,1.34427 0.0682,0 0.508861,-0.23391 0.979181,-0.51861 0.77132,-0.46688 0.9113,-0.48929 1.42665,-0.2228 0.56624,0.2928 0.57202,0.28845 0.71051,-0.57759 l 0.13948,-0.87433 0.74796,0.5701 c 1.36349,1.04001 0.82349,0.0446 -1.0288,-1.89845 -1.21166,-1.27051 -1.81645,-1.90566 -2.47509,-1.8507 z"
       id="path4569" />
    <path
       id="path4470"
       d="m 63.737852,507.95296 c -0.658641,0.055 -1.370641,0.80006 -2.797121,2.29068 -1.21325,1.26777 -2.20642,2.43192 -2.20642,2.58649 0,0.20149 0.38444,0.28083 1.35924,0.28083 h 1.35924 l 0.51674,-1.23754 0.51673,-1.23755 0.3136,1.3452 c 0.17263,0.73984 0.36992,1.34494 0.4381,1.34427 0.0682,0 0.508861,-0.23391 0.979181,-0.51861 0.77132,-0.46688 0.9113,-0.48929 1.42665,-0.2228 0.56624,0.2928 0.57202,0.28845 0.71051,-0.57759 l 0.13948,-0.87433 0.74796,0.5701 c 1.36349,1.04001 0.82349,0.0446 -1.0288,-1.89845 -1.21166,-1.27051 -1.81645,-1.90566 -2.47509,-1.8507 z"
       style="display:inline;fill:#f5f5f5;fill-opacity:1;fill-rule:evenodd;stroke:none;stroke-width:1px;stroke-linecap:butt;stroke-linejoin:miter;stroke-opacity:1;enable-background:new"
       inkscape:connector-curvature="0" />
    <path
       inkscape:connector-curvature="0"
       style="display:inline;fill:#4e5968;fill-opacity:1;enable-background:new"
       d="m 23.76719,512.00071 c -0.52744,0.0187 -1.11211,0.55446 -2.36914,1.85547 -3.93341,4.07116 -4.99805,5.31101 -4.99805,5.82226 0,0.64278 0.57188,1.07622 1.98633,1.50586 0.61439,0.18663 1.15102,0.39645 1.19336,0.46485 0.0423,0.0685 -0.21497,0.25491 -0.57227,0.41601 -1.35855,0.61255 -1.24188,1.02358 0.46485,1.63672 1.58274,0.56863 2.15234,0.85489 2.15234,1.07617 0,0.0961 -0.14625,0.3802 -0.32617,0.63282 -0.43805,0.61526 -0.28877,0.90108 0.60156,1.15039 0.59544,0.16673 0.78762,0.31404 0.96484,0.73828 0.12177,0.29131 0.3152,0.56748 0.42969,0.61328 0.42729,0.17186 0.88516,0.0958 1.69922,-0.2832 0.99857,-0.46499 1.15824,-0.67441 0.81055,-1.0586 -0.14351,-0.15863 -0.25977,-0.36022 -0.25977,-0.44922 0,-0.089 0.55187,-0.40573 1.22852,-0.70312 1.76502,-0.77569 1.93611,-1.34984 0.6289,-2.12109 -0.35197,-0.20761 -0.53908,-0.41285 -0.45312,-0.49805 0.0806,-0.0798 0.8186,-0.40153 1.64062,-0.71485 2.75164,-1.04868 3.16373,-1.37417 2.92774,-2.31445 -0.10932,-0.43547 -5.78425,-6.59323 -6.72852,-7.30078 -0.40798,-0.30572 -0.70502,-0.47997 -1.02148,-0.46875 z m -2.50391,9.85742 c 0.30306,-0.10229 2.62107,0.44029 2.7461,0.64258 0.0582,0.0941 0.005,0.2341 -0.11915,0.3125 -0.2714,0.17191 -0.23221,0.17578 -1.04101,-0.0801 -0.93358,-0.29524 -1.83261,-0.7917 -1.58594,-0.875 z m 8.66211,1.82031 c -0.30588,0.0347 -0.61415,0.17861 -0.85937,0.42383 -0.31333,0.31332 -0.31348,0.3173 0.0801,0.47461 0.63346,0.25303 1.55676,0.20995 1.80078,-0.084 0.18784,-0.22633 0.16293,-0.30813 -0.17774,-0.58399 -0.23545,-0.19068 -0.53787,-0.26519 -0.84375,-0.23047 z m -9.76953,1.15625 c -0.13687,0.009 -0.27317,0.0351 -0.39648,0.082 -0.40417,0.15367 -0.58822,0.7613 -0.3125,1.0371 0.34357,0.34354 1.52539,-0.27492 1.52539,-0.79882 0,-0.21321 -0.40581,-0.34625 -0.81641,-0.32032 z m 8.46289,0.1836 c -0.21224,0.13121 -0.15997,0.84335 0.0684,0.93554 0.11226,0.045 0.21537,0.0877 0.23047,0.0957 0.14052,0.066 0.54492,-0.23216 0.54492,-0.40235 0,-0.26276 -0.65105,-0.74802 -0.84375,-0.6289 z"
       id="path4499" />
    <path
       id="path4501"
       d="m 24.19586,515.12461 c -0.49972,0.0417 -1.03993,0.60703 -2.12221,1.73797 -0.92051,0.96188 -1.67404,1.84514 -1.67404,1.96242 0,0.15287 0.29168,0.21309 1.03127,0.21309 h 1.03128 l 0.39205,-0.93897 0.39206,-0.93893 0.23793,1.02061 c 0.13097,0.56132 0.28065,1.02042 0.33239,1.01991 0.0517,0 0.38608,-0.17745 0.74291,-0.39346 0.58521,-0.35423 0.69142,-0.37121 1.08241,-0.16902 0.42962,0.22215 0.434,0.21884 0.53907,-0.43823 l 0.10584,-0.66337 0.56748,0.43252 c 1.03449,0.78908 0.62479,0.0338 -0.78056,-1.44037 -0.91931,-0.96394 -1.37816,-1.44585 -1.87788,-1.40417 z"
       style="display:inline;fill:#000000;fill-opacity:0.2;fill-rule:evenodd;stroke:none;stroke-width:1px;stroke-linecap:butt;stroke-linejoin:miter;stroke-opacity:1;enable-background:new"
       inkscape:connector-curvature="0" />
    <path
       inkscape:connector-curvature="0"
       style="display:inline;fill:#f5f5f5;fill-opacity:1;fill-rule:evenodd;stroke:none;stroke-width:1px;stroke-linecap:butt;stroke-linejoin:miter;stroke-opacity:1;enable-background:new"
       d="m 23.78801,514.16955 c -0.49971,0.0417 -1.0399,0.60702 -2.12217,1.73798 -0.92049,0.96187 -1.67401,1.84513 -1.67401,1.96241 0,0.15287 0.29167,0.21307 1.03125,0.21307 h 1.03126 l 0.39205,-0.93894 0.39204,-0.93895 0.23793,1.02062 c 0.13097,0.56133 0.28066,1.02043 0.33239,1.01992 0.0518,0 0.38607,-0.17747 0.7429,-0.39348 0.5852,-0.35423 0.69141,-0.37123 1.0824,-0.16904 0.42961,0.22215 0.43399,0.21885 0.53906,-0.43823 l 0.10583,-0.66336 0.56747,0.43254 c 1.03448,0.78907 0.62479,0.0338 -0.78055,-1.44038 -0.91928,-0.96396 -1.37813,-1.44586 -1.87785,-1.40416 z"
       id="path4505" />
    <path
       inkscape:connector-curvature="0"
       id="path4577"
       d="m 111.70741,498.29051 a 14.761286,14.761499 0 0 0 -0.28306,0.014 c -0.9325,0.13692 -2.01461,1.13353 -4.20146,3.39691 -7.258156,7.51222 -9.22328,9.79995 -9.22328,10.74332 0,1.18608 1.054116,1.98558 3.66415,2.77839 1.13371,0.34436 2.12615,0.73085 2.20426,0.85701 0.0781,0.12614 -0.39697,0.47325 -1.05626,0.77052 -2.5069,1.13031 -2.29229,1.88801 0.85707,3.0194 2.92056,1.04926 3.97342,1.57587 3.97342,1.98418 0,0.17727 -0.27345,0.70282 -0.60546,1.16896 -0.8083,1.13527 -0.53159,1.66296 1.11131,2.123 1.09875,0.30767 1.45524,0.58009 1.78228,1.36289 0.22468,0.53754 0.58027,1.04779 0.79154,1.13233 0.16084,0.0644 0.3274,0.098 0.49799,0.12348 a 14.761286,14.761499 0 0 0 0.33548,0.0161 c 0.59639,0 1.296,-0.19513 2.30124,-0.66322 1.84264,-0.85802 2.13819,-1.24358 1.49659,-1.95251 -0.26481,-0.29268 -0.47965,-0.66671 -0.47965,-0.83097 0,-0.16414 1.02118,-0.74865 2.26978,-1.29739 3.25694,-1.43134 3.57062,-2.48999 1.15849,-3.91313 -0.6495,-0.38308 -0.99473,-0.76273 -0.83611,-0.91988 0.14865,-0.14723 1.5104,-0.74032 3.02725,-1.31847 5.07746,-1.93506 5.83734,-2.53722 5.40187,-4.27225 -0.2017,-0.80353 -10.67321,-12.16365 -12.41565,-13.46922 -0.70403,-0.52755 -1.22913,-0.83005 -1.7718,-0.85179 z m -4.36658,18.15816 c 1.19707,0.0697 4.50019,0.87647 4.70207,1.20305 0.10738,0.17366 0.008,0.432 -0.22016,0.57666 -0.50081,0.31726 -0.42876,0.32276 -1.9212,-0.14936 -1.7227,-0.54479 -3.38282,-1.4583 -2.92764,-1.61196 0.0699,-0.0241 0.19592,-0.0281 0.36693,-0.0188 z m 16.03787,3.36538 c -0.69328,-0.0469 -1.44204,0.22599 -2.00768,0.79159 -0.57817,0.57814 -0.57682,0.5878 0.14939,0.87808 0.72646,0.29008 1.6327,0.34765 2.34317,0.23586 a 14.761285,14.761499 0 0 0 0.84658,-1.2974 c -0.0634,-0.0564 -0.11032,-0.10598 -0.19394,-0.17312 -0.32587,-0.26378 -0.72155,-0.40697 -1.13752,-0.43501 z m -18.44656,2.144 c -0.25256,0.0161 -0.50633,0.0658 -0.73388,0.15206 -0.74579,0.28357 -1.08276,1.40704 -0.574,1.91592 0.63401,0.63391 2.81234,-0.51157 2.81234,-1.4783 0,-0.39334 -0.7468,-0.63759 -1.50446,-0.58968 z m 15.78625,0.30666 c -0.0668,0 -0.12586,0 -0.17036,0.0308 -0.39167,0.2421 -0.29552,1.55989 0.12586,1.72992 0.20714,0.0832 0.39935,0.16218 0.42722,0.1756 0.25929,0.12208 1.00384,-0.43031 1.00384,-0.74435 0,-0.42434 -0.91861,-1.16198 -1.3865,-1.19257 z"
       style="display:inline;fill:#000000;fill-opacity:0.2;stroke:none;stroke-width:2;stroke-linecap:round;stroke-linejoin:round;stroke-miterlimit:4;stroke-dasharray:none;stroke-opacity:1;enable-background:new" />
    <path
       inkscape:connector-curvature="0"
       style="display:inline;fill:#4b525f;fill-opacity:1;enable-background:new"
       d="m 111.59531,497.27805 c -0.97327,0.0345 -2.05154,1.02122 -4.37109,3.42188 -7.258162,7.51221 -9.22461,9.80078 -9.22461,10.74414 0,1.18608 1.054029,1.9865 3.66406,2.7793 1.13371,0.34437 2.12501,0.72932 2.20313,0.85546 0.0781,0.12642 -0.39734,0.47228 -1.05664,0.76954 -2.50689,1.13031 -2.28998,1.89009 0.85937,3.02148 2.92057,1.04925 3.97266,1.57411 3.97266,1.98242 0,0.17728 -0.27152,0.70377 -0.60352,1.16992 -0.80832,1.13528 -0.53353,1.66301 1.10938,2.12305 1.09873,0.30766 1.45422,0.58047 1.78125,1.36328 0.22468,0.53754 0.58169,1.04626 0.79297,1.13086 0.78846,0.31711 1.6326,0.17588 3.13476,-0.52344 1.84262,-0.85802 2.13965,-1.24421 1.49805,-1.95312 -0.26481,-0.2927 -0.48242,-0.66582 -0.48242,-0.83008 0,-0.16412 1.02093,-0.74813 2.26953,-1.29687 3.25693,-1.43133 3.57034,-2.49092 1.1582,-3.91407 -0.64949,-0.38307 -0.99456,-0.76277 -0.83594,-0.91992 0.14866,-0.14722 1.51245,-0.74021 3.0293,-1.31836 5.07747,-1.93505 5.83586,-2.53449 5.40039,-4.26953 -0.20171,-0.80353 -10.67359,-12.16511 -12.41601,-13.4707 -0.75284,-0.56412 -1.29886,-0.88593 -1.88282,-0.86524 z m 2.375,3.58204 c 0.33266,0.33257 0.70432,0.72081 1.12891,1.16601 -0.42408,-0.44468 -0.79658,-0.83372 -1.12891,-1.16601 z m -4.8125,4.0625 -0.72265,1.73242 h -0.002 z m -1.8164,10.52539 c 1.19706,0.07 4.49931,0.8765 4.70117,1.20312 0.10734,0.17365 0.01,0.43346 -0.21875,0.57813 -0.50081,0.31726 -0.42944,0.32369 -1.92188,-0.14844 -1.7227,-0.54478 -3.38485,-1.45961 -2.92968,-1.61328 0.0699,-0.0236 0.19813,-0.0295 0.36914,-0.0195 z m 16.03711,3.36523 c -0.69328,-0.0466 -1.44218,0.22735 -2.00782,0.79297 -0.57817,0.57814 -0.57582,0.58667 0.15039,0.87695 1.16891,0.46695 2.872,0.38808 3.32227,-0.1543 0.34662,-0.41763 0.30051,-0.57105 -0.32813,-1.08007 -0.32585,-0.26389 -0.72075,-0.40756 -1.13671,-0.43555 z m -18.44727,2.14453 c -0.25255,0.016 -0.50683,0.0658 -0.73437,0.15235 -0.7458,0.28356 -1.08103,1.40711 -0.57227,1.91601 0.63399,0.6339 2.8125,-0.50984 2.8125,-1.47656 0,-0.39349 -0.7482,-0.63967 -1.50586,-0.5918 z m 15.78516,0.30664 c -0.0669,-0.004 -0.12352,0.006 -0.16797,0.0332 -0.39164,0.24209 -0.29633,1.55848 0.125,1.72851 0.20715,0.0831 0.39788,0.16178 0.42578,0.17578 0.25929,0.12171 1.00391,-0.43206 1.00391,-0.74609 0,-0.42426 -0.91882,-1.16079 -1.38672,-1.19141 z"
       id="path4409" />
    <path
       id="path4571"
       d="m 111.63315,501.43467 c -0.9221,0.077 -1.9189,1.12008 -3.91597,3.20695 -1.69855,1.77488 -3.08899,3.40469 -3.08899,3.62109 0,0.28208 0.53822,0.39316 1.90294,0.39316 h 1.90293 l 0.72344,-1.73256 0.72342,-1.73257 0.43904,1.88328 c 0.24168,1.03578 0.51789,1.88292 0.61334,1.88198 0.0955,0 0.71241,-0.32747 1.37085,-0.72605 1.07985,-0.65364 1.27582,-0.68501 1.99731,-0.31192 0.79274,0.40992 0.80083,0.40383 0.99472,-0.80863 l 0.19527,-1.22406 1.04714,0.79814 c 1.90889,1.45601 1.15289,0.0624 -1.44032,-2.65783 -1.69632,-1.77872 -2.54303,-2.66793 -3.46512,-2.59098 z"
       style="display:inline;fill:#000000;fill-opacity:0.2;fill-rule:evenodd;stroke:none;stroke-width:1px;stroke-linecap:butt;stroke-linejoin:miter;stroke-opacity:1;enable-background:new"
       inkscape:connector-curvature="0" />
    <path
       inkscape:connector-curvature="0"
       style="display:inline;fill:#f5f5f5;fill-opacity:1;fill-rule:evenodd;stroke:none;stroke-width:1px;stroke-linecap:butt;stroke-linejoin:miter;stroke-opacity:1;enable-background:new"
       d="m 111.63315,500.43418 c -0.9221,0.077 -1.9189,1.12008 -3.91597,3.20695 -1.69855,1.77488 -3.08899,3.40469 -3.08899,3.62109 0,0.28208 0.53822,0.39316 1.90294,0.39316 h 1.90293 l 0.72344,-1.73256 0.72342,-1.73257 0.43904,1.88328 c 0.24168,1.03578 0.51789,1.88292 0.61334,1.88198 0.0955,0 0.71241,-0.32747 1.37085,-0.72605 1.07985,-0.65364 1.27582,-0.68501 1.99731,-0.31192 0.79274,0.40992 0.80083,0.40383 0.99472,-0.80863 l 0.19527,-1.22406 1.04714,0.79814 c 1.90889,1.45601 1.15289,0.0624 -1.44032,-2.65783 -1.69632,-1.77872 -2.54303,-2.66793 -3.46512,-2.59098 z"
       id="path4415" />
    <path
       style="display:inline;fill:url(#linearGradient4423);fill-opacity:1;stroke:none;stroke-width:2;stroke-linecap:round;stroke-linejoin:round;stroke-miterlimit:4;stroke-dasharray:none;stroke-opacity:1;enable-background:new"
       d="m 111.70741,497.29085 a 14.761286,14.761499 0 0 0 -0.28306,0.014 c -0.9325,0.13692 -2.01461,1.13353 -4.20146,3.39691 -7.258156,7.51222 -9.22328,9.79995 -9.22328,10.74332 0,1.18608 1.054116,1.98558 3.66415,2.77839 1.13371,0.34436 2.12615,0.73085 2.20426,0.85701 0.0781,0.12614 -0.39697,0.47325 -1.05626,0.77052 -2.5069,1.13031 -2.29229,1.88801 0.85707,3.0194 2.92056,1.04926 3.97342,1.57587 3.97342,1.98418 0,0.17727 -0.27345,0.70282 -0.60546,1.16896 -0.8083,1.13527 -0.53159,1.66296 1.11131,2.123 1.09875,0.30767 1.45524,0.58009 1.78228,1.36289 0.22468,0.53754 0.58027,1.04779 0.79154,1.13233 0.16084,0.0644 0.3274,0.098 0.49799,0.12348 a 14.761286,14.761499 0 0 0 0.33548,0.0161 c 0.59639,0 1.296,-0.19513 2.30124,-0.66322 1.84264,-0.85802 2.13819,-1.24358 1.49659,-1.95251 -0.26481,-0.29268 -0.47965,-0.66671 -0.47965,-0.83097 0,-0.16414 1.02118,-0.74865 2.26978,-1.29739 3.25694,-1.43134 3.57062,-2.48999 1.15849,-3.91313 -0.6495,-0.38308 -0.99473,-0.76273 -0.83611,-0.91988 0.14865,-0.14723 1.5104,-0.74032 3.02725,-1.31847 5.07746,-1.93506 5.83734,-2.53722 5.40187,-4.27225 -0.2017,-0.80353 -10.67321,-12.16365 -12.41565,-13.46922 -0.70403,-0.52755 -1.22913,-0.83005 -1.7718,-0.85179 z m -4.36658,18.15816 c 1.19707,0.0697 4.50019,0.87647 4.70207,1.20305 0.10738,0.17366 0.008,0.432 -0.22016,0.57666 -0.50081,0.31726 -0.42876,0.32276 -1.9212,-0.14936 -1.7227,-0.54479 -3.38282,-1.4583 -2.92764,-1.61196 0.0699,-0.0241 0.19592,-0.0281 0.36693,-0.0188 z m 16.03787,3.36538 c -0.69328,-0.0469 -1.44204,0.22599 -2.00768,0.79159 -0.57817,0.57814 -0.57682,0.5878 0.14939,0.87808 0.72646,0.29008 1.6327,0.34765 2.34317,0.23586 a 14.761285,14.761499 0 0 0 0.84658,-1.2974 c -0.0634,-0.0564 -0.11032,-0.10598 -0.19394,-0.17312 -0.32587,-0.26378 -0.72155,-0.40697 -1.13752,-0.43501 z m -18.44656,2.144 c -0.25256,0.0161 -0.50633,0.0658 -0.73388,0.15206 -0.74579,0.28357 -1.08276,1.40704 -0.574,1.91592 0.63401,0.63391 2.81234,-0.51157 2.81234,-1.4783 0,-0.39334 -0.7468,-0.63759 -1.50446,-0.58968 z m 15.78625,0.30666 c -0.0668,0 -0.12586,0 -0.17036,0.0308 -0.39167,0.2421 -0.29552,1.55989 0.12586,1.72992 0.20714,0.0832 0.39935,0.16218 0.42722,0.1756 0.25929,0.12208 1.00384,-0.43031 1.00384,-0.74435 0,-0.42434 -0.91861,-1.16198 -1.3865,-1.19257 z"
       id="path4419"
       inkscape:connector-curvature="0" />
    <path
       inkscape:connector-curvature="0"
       style="display:inline;fill:#ffffff;fill-opacity:0.2;enable-background:new"
       d="m 111.59531,497.27805 c -0.97327,0.0345 -2.05154,1.02122 -4.37109,3.42188 -7.258162,7.51221 -9.22461,9.80078 -9.22461,10.74414 0,0.20021 0.04298,0.38642 0.105469,0.56641 0.48309,-1.1769 2.783491,-3.75314 9.119141,-10.31055 3.71128,-3.84106 4.24636,-4.06096 6.25391,-2.55664 1.74242,1.30559 12.2143,12.66717 12.41601,13.4707 0.0168,0.0669 0.0182,0.12189 0.0312,0.18555 0.11062,-0.34643 0.0842,-0.72559 -0.0312,-1.18555 -0.20171,-0.80353 -10.67359,-12.16511 -12.41601,-13.4707 -0.75284,-0.56412 -1.29886,-0.88593 -1.88282,-0.86524 z m -8.52343,18.42383 c -0.0958,0.0497 -0.15464,0.0982 -0.26172,0.14649 -1.57889,0.71189 -2.07125,1.2778 -1.4375,1.88086 0.26993,-0.27528 0.73356,-0.56152 1.4375,-0.87891 0.6593,-0.29726 1.13473,-0.64504 1.05664,-0.77149 -0.0414,-0.0669 -0.35513,-0.20912 -0.79492,-0.37695 z m 4.26953,0.7461 c -0.17101,-0.01 -0.29924,-0.004 -0.36914,0.0195 -0.45517,0.15367 1.20698,1.0685 2.92968,1.61328 1.49244,0.47213 1.42107,0.4657 1.92188,0.14844 0.22838,-0.14467 0.32609,-0.40448 0.21875,-0.57813 -0.0415,-0.0672 -0.24333,-0.15866 -0.50195,-0.25586 -0.26815,0.12449 -0.49514,0.0473 -1.63868,-0.31445 -0.35926,-0.11361 -0.70576,-0.2492 -1.04101,-0.38477 -0.58887,-0.11837 -1.16487,-0.2273 -1.51953,-0.24804 z m 10.66992,1.48242 c -0.19977,0.0972 -0.50632,0.23132 -0.54688,0.27148 -0.15862,0.15715 0.18645,0.53881 0.83594,0.92188 0.72815,0.4296 1.20427,0.82548 1.42969,1.20898 0.43081,-0.70911 -0.0582,-1.40177 -1.42969,-2.21094 -0.11008,-0.0649 -0.19742,-0.1277 -0.28906,-0.1914 z m 5.36719,0.88281 c -0.69328,-0.0466 -1.44218,0.22735 -2.00782,0.79297 -0.57676,0.57673 -0.57445,0.58678 0.14649,0.875 0.90154,-0.78583 2.1735,-0.90016 2.99804,-0.23242 0.0882,0.0714 0.1393,0.12256 0.20508,0.18164 0.0427,-0.0332 0.0918,-0.0639 0.12305,-0.10157 0.34662,-0.41763 0.30052,-0.57105 -0.32813,-1.08007 -0.32585,-0.26389 -0.72075,-0.40756 -1.13671,-0.43555 z m -18.44727,2.14453 c -0.25255,0.016 -0.50683,0.0658 -0.73437,0.15235 -0.66783,0.25392 -1.00085,1.1778 -0.69922,1.73437 0.13304,-0.32385 0.37293,-0.61031 0.69922,-0.73437 0.65445,-0.24887 1.51937,-0.18107 1.95703,0.0703 0.16665,-0.20618 0.2832,-0.4214 0.2832,-0.63086 0,-0.39349 -0.7482,-0.63967 -1.50586,-0.5918 z m 15.78516,0.30664 c -0.0669,-0.004 -0.12352,0.006 -0.16797,0.0332 -0.26119,0.16145 -0.29008,0.78572 -0.16602,1.24414 0.0403,-0.10728 0.0921,-0.19846 0.16602,-0.24414 0.24106,-0.14902 0.85217,0.21867 1.23242,0.61914 0.17677,-0.1503 0.32227,-0.32632 0.32227,-0.46094 0,-0.42426 -0.91882,-1.16079 -1.38672,-1.19141 z"
       id="path4471" />
    <path
       inkscape:connector-curvature="0"
       id="path4657"
       d="m 535.3248,38.64208 a 236.18067,236.18401 0 0 0 -4.52896,0.224 c -14.92,2.19072 -32.23376,18.13648 -67.22328,54.35064 C 347.442,213.41224 316,250.01592 316,265.10984 c 0,18.97728 16.86584,31.76928 58.6264,44.45424 18.13936,5.50976 34.01848,11.6936 35.26816,13.71216 1.24992,2.01824 -6.35152,7.572 -16.90016,12.32832 -40.11032,18.08496 -36.67664,30.20816 13.71304,48.3104 46.72912,16.78816 63.5748,25.21392 63.5748,31.74688 0,2.83632 -4.37512,11.24512 -9.68728,18.70336 -12.93288,18.16432 -8.50552,26.60736 17.78088,33.968 17.58,4.92272 23.28384,9.28144 28.51648,21.80624 3.59488,8.60064 9.28432,16.76464 12.66464,18.11728 2.57344,1.0304 5.2384,1.568 7.96784,1.97568 a 236.18067,236.18401 0 0 0 5.36768,0.2576 c 9.54224,0 20.736,-3.12208 36.81984,-10.61152 29.48224,-13.72832 34.21104,-19.89728 23.94544,-31.24016 -4.23696,-4.68288 -7.6744,-10.66736 -7.6744,-13.29552 0,-2.62624 16.33888,-11.9784 36.31648,-20.75824 52.11104,-22.90144 57.12992,-39.83984 18.53584,-62.61008 -10.392,-6.12928 -15.91568,-12.20368 -13.37776,-14.71808 2.3784,-2.35568 24.1664,-11.84512 48.436,-21.09552 81.23936,-30.96096 93.39744,-40.59552 86.42992,-68.356 C 759.09664,254.9484 591.55248,73.1864 563.67344,52.29728 552.40896,43.85648 544.00736,39.01648 535.32464,38.66864 Z m -69.86528,290.53064 c 19.15312,1.1152 72.00304,14.02352 75.23312,19.2488 1.71808,2.77856 0.128,6.912 -3.52256,9.22656 -8.01296,5.07616 -6.86016,5.16416 -30.7392,-2.38976 -27.5632,-8.71664 -54.12504,-23.3328 -46.84216,-25.79136 1.11776,-0.3856 3.13464,-0.4496 5.8708,-0.3008 z m 256.60592,53.84608 c -11.09248,-0.7504 -23.07264,3.61584 -32.12288,12.66544 -9.25072,9.25024 -9.22912,9.4048 2.39024,14.04928 11.62336,4.64128 26.1232,5.5624 37.49072,3.77376 a 236.18066,236.18401 0 0 0 13.54528,-20.7584 c -1.0144,-0.9024 -1.76512,-1.69568 -3.10304,-2.76992 -5.21392,-4.22048 -11.5448,-6.51152 -18.20032,-6.96016 z m -295.14488,34.304 c -4.04096,0.2576 -8.10136,1.0528 -11.74208,2.43296 -11.93272,4.53712 -17.32416,22.51264 -9.184,30.65472 10.14408,10.14256 44.99736,-8.18512 44.99736,-23.6528 0,-6.29344 -11.9488,-10.20144 -24.07128,-9.43488 z m 252.57992,4.90656 c -1.0688,0 -2.01376,0 -2.72576,0.4928 -6.26672,3.8736 -4.72832,24.95824 2.01376,27.67872 3.31424,1.3312 6.3896,2.59488 6.83552,2.8096 4.14864,1.95328 16.06144,-6.88496 16.06144,-11.9096 0,-6.78944 -14.69776,-18.59168 -22.184,-19.08112 z"
       style="display:inline;fill:#000000;fill-opacity:0.2;stroke:none;stroke-width:16;stroke-linecap:round;stroke-linejoin:round;stroke-miterlimit:4;stroke-dasharray:none;stroke-opacity:1;enable-background:new;filter:url(#filter4663)" />
    <path
       style="display:inline;fill:#000000;fill-opacity:0.2;stroke:none;stroke-width:16;stroke-linecap:round;stroke-linejoin:round;stroke-miterlimit:4;stroke-dasharray:none;stroke-opacity:1;enable-background:new"
       d="m 535.3248,38.64208 a 236.18067,236.18401 0 0 0 -4.52896,0.224 c -14.92,2.19072 -32.23376,18.13648 -67.22328,54.35064 C 347.442,213.41224 316,250.01592 316,265.10984 c 0,18.97728 16.86584,31.76928 58.6264,44.45424 18.13936,5.50976 34.01848,11.6936 35.26816,13.71216 1.24992,2.01824 -6.35152,7.572 -16.90016,12.32832 -40.11032,18.08496 -36.67664,30.20816 13.71304,48.3104 46.72912,16.78816 63.5748,25.21392 63.5748,31.74688 0,2.83632 -4.37512,11.24512 -9.68728,18.70336 -12.93288,18.16432 -8.50552,26.60736 17.78088,33.968 17.58,4.92272 23.28384,9.28144 28.51648,21.80624 3.59488,8.60064 9.28432,16.76464 12.66464,18.11728 2.57344,1.0304 5.2384,1.568 7.96784,1.97568 a 236.18067,236.18401 0 0 0 5.36768,0.2576 c 9.54224,0 20.736,-3.12208 36.81984,-10.61152 29.48224,-13.72832 34.21104,-19.89728 23.94544,-31.24016 -4.23696,-4.68288 -7.6744,-10.66736 -7.6744,-13.29552 0,-2.62624 16.33888,-11.9784 36.31648,-20.75824 52.11104,-22.90144 57.12992,-39.83984 18.53584,-62.61008 -10.392,-6.12928 -15.91568,-12.20368 -13.37776,-14.71808 2.3784,-2.35568 24.1664,-11.84512 48.436,-21.09552 81.23936,-30.96096 93.39744,-40.59552 86.42992,-68.356 C 759.09664,254.9484 591.55248,73.1864 563.67344,52.29728 552.40896,43.85648 544.00736,39.01648 535.32464,38.66864 Z m -69.86528,290.53064 c 19.15312,1.1152 72.00304,14.02352 75.23312,19.2488 1.71808,2.77856 0.128,6.912 -3.52256,9.22656 -8.01296,5.07616 -6.86016,5.16416 -30.7392,-2.38976 -27.5632,-8.71664 -54.12504,-23.3328 -46.84216,-25.79136 1.11776,-0.3856 3.13464,-0.4496 5.8708,-0.3008 z m 256.60592,53.84608 c -11.09248,-0.7504 -23.07264,3.61584 -32.12288,12.66544 -9.25072,9.25024 -9.22912,9.4048 2.39024,14.04928 11.62336,4.64128 26.1232,5.5624 37.49072,3.77376 a 236.18066,236.18401 0 0 0 13.54528,-20.7584 c -1.0144,-0.9024 -1.76512,-1.69568 -3.10304,-2.76992 -5.21392,-4.22048 -11.5448,-6.51152 -18.20032,-6.96016 z m -295.14488,34.304 c -4.04096,0.2576 -8.10136,1.0528 -11.74208,2.43296 -11.93272,4.53712 -17.32416,22.51264 -9.184,30.65472 10.14408,10.14256 44.99736,-8.18512 44.99736,-23.6528 0,-6.29344 -11.9488,-10.20144 -24.07128,-9.43488 z m 252.57992,4.90656 c -1.0688,0 -2.01376,0 -2.72576,0.4928 -6.26672,3.8736 -4.72832,24.95824 2.01376,27.67872 3.31424,1.3312 6.3896,2.59488 6.83552,2.8096 4.14864,1.95328 16.06144,-6.88496 16.06144,-11.9096 0,-6.78944 -14.69776,-18.59168 -22.184,-19.08112 z"
       id="path4653"
       inkscape:connector-curvature="0" />
    <path
       style="display:inline;fill:#4b525f;fill-opacity:1;stroke-width:8;enable-background:new"
       d="M 534.70703 36.433594 C 518.82058 36.223925 501.63237 51.810724 463.5918 91.181641 C 347.46116 211.377 316.00781 248.01561 316.00781 263.10938 C 316.00781 282.08666 332.87616 294.87184 374.63672 307.55664 C 392.77608 313.06656 408.63875 319.23371 409.88867 321.25195 C 411.13811 323.27467 403.52927 328.82001 392.98047 333.57617 C 352.87031 351.66113 356.31922 363.80206 406.70898 381.9043 C 453.4381 398.6923 470.27344 407.09595 470.27344 413.62891 C 470.27344 416.46539 465.92715 424.89121 460.61523 432.34961 C 447.68219 450.51409 452.10032 458.95967 478.38672 466.32031 C 495.9664 471.24287 501.65033 475.58832 506.88281 488.11328 C 510.47769 496.71392 516.18593 504.87296 519.56641 506.22656 C 532.18177 511.30032 545.67833 509.04459 569.71289 497.85547 C 599.19481 484.12715 603.93943 477.93826 593.67383 466.5957 C 589.43687 461.9125 585.9707 455.93285 585.9707 453.30469 C 585.9707 450.67877 602.31537 441.3482 622.29297 432.56836 C 674.40385 409.66708 679.42041 392.72352 640.82617 369.95312 C 630.43433 363.824 624.90544 357.7351 627.44336 355.2207 C 629.82192 352.86518 651.62493 343.36954 675.89453 334.11914 C 757.13405 303.15834 769.27416 293.55947 762.30664 265.79883 C 759.07928 252.94235 591.54278 71.178503 563.66406 50.289062 C 552.12065 41.639222 543.61894 36.551213 534.70703 36.433594 z M 506.10156 131.0293 L 511.91992 155.99023 L 506.09766 131.04102 L 506.10156 131.0293 z M 595.86914 142.14258 L 595.87695 142.14844 L 592.74805 161.71875 L 595.86914 142.14258 z M 500.45312 144.55469 L 494.52734 158.75391 L 482.96094 186.47461 L 452.51367 186.47461 C 443.32765 186.47461 436.50702 186.15466 431.6582 185.45312 C 436.50639 186.15283 443.32268 186.4707 452.50391 186.4707 L 482.95117 186.4707 L 494.52539 158.75 L 500.45312 144.55469 z M 603.78711 148.17773 L 612.62305 154.91211 C 621.69027 161.82816 627.00053 164.72732 628.89844 164.24414 C 627.00265 164.73164 621.69154 161.83369 612.61719 154.91211 L 603.78711 148.17773 z M 514.5957 167.2168 C 517.80359 179.92492 521.09023 189.77168 522.61523 191.11523 C 521.092 189.78331 517.80504 179.93367 514.5957 167.2168 z M 564.61719 170.83789 C 568.33718 170.68037 571.77965 172.05439 576.83008 174.66602 C 581.98289 177.3305 585.06335 178.89606 587.11328 178.51562 C 585.06091 178.90398 581.97629 177.34099 576.81836 174.67383 C 571.05092 171.69138 567.38308 170.32069 563.00195 171 C 563.55027 170.91418 564.08576 170.86039 564.61719 170.83789 z M 463.55859 327.08203 C 480.79371 327.34518 537.35212 340.98978 540.69727 346.40234 C 542.41471 349.18074 540.82986 353.34739 537.17578 355.66211 C 529.16282 360.73827 530.30677 360.82752 506.42773 353.27344 C 478.86453 344.55696 452.29158 329.91185 459.57422 327.45312 C 460.41306 327.17002 461.77565 327.05481 463.55859 327.08203 z M 720.37695 380.93945 C 709.76566 380.71505 698.54105 385.08424 689.94336 393.68164 C 680.69264 402.93188 680.71853 403.07818 692.33789 407.72266 C 711.04045 415.19386 738.3113 413.91831 745.51562 405.24023 C 751.06155 398.55815 750.31785 396.11502 740.25977 387.9707 C 734.61166 383.39672 727.63731 381.09299 720.37695 380.93945 z M 429.92969 415.22656 C 424.92417 415.2265 419.71882 416.00773 415.16797 417.73828 C 403.23525 422.2754 397.85593 440.25604 405.99609 448.39844 C 416.13993 458.54084 450.99023 440.24682 450.99023 424.7793 C 450.99023 419.00815 440.94183 415.22669 429.92969 415.22656 z M 678.70898 420.20117 C 677.96507 420.23754 677.31267 420.41052 676.7793 420.74023 C 670.51355 424.61353 672.02961 445.67527 678.76953 448.39844 L 678.77148 448.39844 C 682.08518 449.72776 685.16111 450.98307 685.60742 451.20703 C 689.75606 453.15439 701.66797 444.3194 701.66797 439.29492 C 701.66797 432.26431 685.90014 419.84961 678.70898 420.20117 z "
       id="path4425" />
    <path
       inkscape:connector-curvature="0"
       id="path4435"
       d="m 535.3248,36.64234 a 236.18067,236.18401 0 0 0 -4.52896,0.224 c -14.92,2.19072 -32.23376,18.13648 -67.22328,54.35064 C 347.442,211.4125 316,248.01618 316,263.1101 c 0,18.97728 16.86584,31.76928 58.6264,44.45424 18.13936,5.50976 34.01848,11.6936 35.26816,13.71216 1.24992,2.01824 -6.35152,7.572 -16.90016,12.32832 -40.11032,18.08496 -36.67664,30.20816 13.71304,48.3104 46.72912,16.78816 63.5748,25.21392 63.5748,31.74688 0,2.83632 -4.37512,11.24512 -9.68728,18.70336 -12.93288,18.16432 -8.50552,26.60736 17.78088,33.968 17.58,4.92272 23.28384,9.28144 28.51648,21.80624 3.59488,8.60064 9.28432,16.76464 12.66464,18.11728 2.57344,1.0304 5.2384,1.568 7.96784,1.97568 a 236.18067,236.18401 0 0 0 5.36768,0.2576 c 9.54224,0 20.736,-3.12208 36.81984,-10.61152 29.48224,-13.72832 34.21104,-19.89728 23.94544,-31.24016 -4.23696,-4.68288 -7.6744,-10.66736 -7.6744,-13.29552 0,-2.62624 16.33888,-11.9784 36.31648,-20.75824 52.11104,-22.90144 57.12992,-39.83984 18.53584,-62.61008 -10.392,-6.12928 -15.91568,-12.20368 -13.37776,-14.71808 2.3784,-2.35568 24.1664,-11.84512 48.436,-21.09552 81.23936,-30.96096 93.39744,-40.59552 86.42992,-68.356 -3.2272,-12.85648 -170.77136,-194.61848 -198.6504,-215.5076 -11.26448,-8.4408 -19.66608,-13.2808 -28.3488,-13.62864 z m -69.86528,290.53064 c 19.15312,1.1152 72.00304,14.02352 75.23312,19.2488 1.71808,2.77856 0.128,6.912 -3.52256,9.22656 -8.01296,5.07616 -6.86016,5.16416 -30.7392,-2.38976 -27.5632,-8.71664 -54.12504,-23.3328 -46.84216,-25.79136 1.11776,-0.3856 3.13464,-0.4496 5.8708,-0.3008 z m 256.60592,53.84608 c -11.09248,-0.7504 -23.07264,3.61584 -32.12288,12.66544 -9.25072,9.25024 -9.22912,9.4048 2.39024,14.04928 11.62336,4.64128 26.1232,5.5624 37.49072,3.77376 a 236.18066,236.18401 0 0 0 13.54528,-20.7584 c -1.0144,-0.9024 -1.76512,-1.69568 -3.10304,-2.76992 -5.21392,-4.22048 -11.5448,-6.51152 -18.20032,-6.96016 z m -295.14488,34.304 c -4.04096,0.2576 -8.10136,1.0528 -11.74208,2.43296 -11.93272,4.53712 -17.32416,22.51264 -9.184,30.65472 10.14408,10.14256 44.99736,-8.18512 44.99736,-23.6528 0,-6.29344 -11.9488,-10.20144 -24.07128,-9.43488 z m 252.57992,4.90656 c -1.0688,0 -2.01376,0 -2.72576,0.4928 -6.26672,3.8736 -4.72832,24.95824 2.01376,27.67872 3.31424,1.3312 6.3896,2.59488 6.83552,2.8096 4.14864,1.95328 16.06144,-6.88496 16.06144,-11.9096 0,-6.78944 -14.69776,-18.59168 -22.184,-19.08112 z"
       style="display:inline;fill:url(#linearGradient4439);fill-opacity:1;stroke:none;stroke-width:16;stroke-linecap:round;stroke-linejoin:round;stroke-miterlimit:4;stroke-dasharray:none;stroke-opacity:1;enable-background:new" />
    <path
       inkscape:connector-curvature="0"
       style="display:inline;fill:#000000;fill-opacity:0.2;fill-rule:evenodd;stroke:none;stroke-width:8px;stroke-linecap:butt;stroke-linejoin:miter;stroke-opacity:1;enable-background:new"
       d="m 534.13664,72.931629 c -14.7536,1.232 -30.7024,17.92136 -62.65552,51.311281 -27.1768,28.39808 -49.42384,54.47504 -49.42384,57.93744 0,4.51328 8.61152,6.29056 30.44704,6.29056 h 30.44688 l 11.57504,-27.72096 11.57472,-27.72112 7.02464,30.13248 c 3.86688,16.57248 8.28624,30.12672 9.81344,30.11168 1.528,0 11.39856,-5.23952 21.9336,-11.6168 17.2776,-10.45824 20.41312,-10.96016 31.95696,-4.99072 12.68384,6.55872 12.81328,6.46128 15.91552,-12.93808 l 3.12432,-19.58496 16.75424,12.77024 c 30.54224,23.29616 18.44624,0.9984 -23.04512,-42.52528 C 562.43744,85.927789 548.89008,71.700429 534.13664,72.931629 Z"
       id="path4641" />
    <path
       id="path4643"
       d="m 534.13664,72.931629 c -14.7536,1.232 -30.7024,17.92136 -62.65552,51.311281 -27.1768,28.39808 -49.42384,54.47504 -49.42384,57.93744 0,4.51328 8.61152,6.29056 30.44704,6.29056 h 30.44688 l 11.57504,-27.72096 11.57472,-27.72112 7.02464,30.13248 c 3.86688,16.57248 8.28624,30.12672 9.81344,30.11168 1.528,0 11.39856,-5.23952 21.9336,-11.6168 17.2776,-10.45824 20.41312,-10.96016 31.95696,-4.99072 12.68384,6.55872 12.81328,6.46128 15.91552,-12.93808 l 3.12432,-19.58496 16.75424,12.77024 c 30.54224,23.29616 18.44624,0.9984 -23.04512,-42.52528 C 562.43744,85.927789 548.89008,71.700429 534.13664,72.931629 Z"
       style="display:inline;fill:#000000;fill-opacity:0.2;fill-rule:evenodd;stroke:none;stroke-width:8px;stroke-linecap:butt;stroke-linejoin:miter;stroke-opacity:1;enable-background:new;filter:url(#filter4649)"
       inkscape:connector-curvature="0" />
    <path
       id="path4431"
       d="m 534.13664,70.931782 c -14.7536,1.232 -30.7024,17.92136 -62.65552,51.311278 -27.1768,28.39808 -49.42384,54.47504 -49.42384,57.93744 0,4.51328 8.61152,6.29056 30.44704,6.29056 h 30.44688 l 11.57504,-27.72096 11.57472,-27.72112 7.02464,30.13248 c 3.86688,16.57248 8.28624,30.12672 9.81344,30.11168 1.528,0 11.39856,-5.23952 21.9336,-11.6168 17.2776,-10.45824 20.41312,-10.96016 31.95696,-4.99072 12.68384,6.55872 12.81328,6.46128 15.91552,-12.93808 l 3.12432,-19.58496 16.75424,12.77024 c 30.54224,23.29616 18.44624,0.9984 -23.04512,-42.52528 C 562.43744,83.927942 548.89008,69.700582 534.13664,70.931782 Z"
       style="display:inline;fill:#f5f5f5;fill-opacity:1;fill-rule:evenodd;stroke:none;stroke-width:8px;stroke-linecap:butt;stroke-linejoin:miter;stroke-opacity:1;enable-background:new"
       inkscape:connector-curvature="0" />
    <path
       inkscape:connector-curvature="0"
       id="path4474"
       d="m 63.791282,505.43536 a 10.543776,10.543928 0 0 0 -0.202181,0.01 c -0.66607,0.0978 -1.43901,0.80967 -3.00104,2.42637 C 55.40366,513.2376 54,514.87169 54,515.54553 c 0,0.8472 0.75294,1.41827 2.61725,1.98456 0.809791,0.24597 1.518681,0.52204 1.574471,0.61215 0.0558,0.0901 -0.28355,0.33804 -0.75447,0.55037 -1.790641,0.80737 -1.637351,1.34858 0.61219,2.15672 2.08612,0.74947 2.83816,1.12562 2.83816,1.41727 0,0.12662 -0.19532,0.50201 -0.43247,0.83497 -0.57736,0.81091 -0.37971,1.18783 0.79379,1.51643 0.78482,0.21976 1.03946,0.41435 1.27306,0.97349 0.16048,0.38396 0.41448,0.74842 0.56538,0.80881 0.11489,0.046 0.23386,0.07 0.35571,0.0882 a 10.543776,10.543928 0 0 0 0.239631,0.0115 c 0.42599,0 0.92571,-0.13938 1.64374,-0.47373 1.31617,-0.61287 1.52728,-0.88827 1.06899,-1.39465 -0.18915,-0.20906 -0.3426,-0.47622 -0.3426,-0.59355 0,-0.11724 0.72941,-0.53475 1.62127,-0.92671 2.32638,-1.02238 2.550441,-1.77856 0.82749,-2.79509 -0.46393,-0.27363 -0.71052,-0.54481 -0.59722,-0.65706 0.10618,-0.10516 1.07886,-0.5288 2.16232,-0.94176 3.626761,-1.38219 4.169531,-1.8123 3.858481,-3.05161 -0.14407,-0.57395 -7.623721,-8.68832 -8.868321,-9.62087 -0.50288,-0.37682 -0.87795,-0.59289 -1.26557,-0.60842 z m -3.118981,12.97012 c 0.85505,0.0498 3.214421,0.62605 3.358621,0.85932 0.0767,0.12404 0.006,0.30857 -0.15726,0.4119 -0.357721,0.22661 -0.306251,0.23054 -1.372281,-0.10669 -1.2305,-0.38913 -2.4163,-1.04164 -2.09117,-1.1514 0.0499,-0.0172 0.13994,-0.0201 0.26209,-0.0134 z m 11.455622,2.40384 c -0.4952,-0.0335 -1.03003,0.16142 -1.43406,0.56542 -0.41298,0.41296 -0.41201,0.41986 0.10671,0.6272 0.5189,0.2072 1.16621,0.24832 1.67369,0.16847 a 10.543775,10.543928 0 0 0 0.6047,-0.92671 c -0.0453,-0.0403 -0.0788,-0.0757 -0.13853,-0.12366 -0.23276,-0.18841 -0.51539,-0.29069 -0.81251,-0.31072 z m -13.176112,1.53143 c -0.1804,0.0115 -0.36167,0.047 -0.5242,0.10861 -0.53271,0.20255 -0.7734,1.00503 -0.41,1.36852 0.45286,0.45279 2.00881,-0.36541 2.00881,-1.05593 0,-0.28096 -0.53343,-0.45542 -1.07461,-0.4212 z m 11.275892,0.21904 c -0.0477,0 -0.0899,0 -0.121691,0.022 -0.27976,0.17293 -0.21108,1.11421 0.0899,1.23566 0.14796,0.0594 0.28525,0.11584 0.30516,0.12543 0.18521,0.0872 0.71703,-0.30737 0.71703,-0.53168 0,-0.3031 -0.65615,-0.82999 -0.99036,-0.85184 z"
       style="display:inline;fill:url(#linearGradient4478);fill-opacity:1;stroke:none;stroke-width:2;stroke-linecap:round;stroke-linejoin:round;stroke-miterlimit:4;stroke-dasharray:none;stroke-opacity:1;enable-background:new" />
    <path
       inkscape:connector-curvature="0"
       style="display:inline;fill:#000000;fill-opacity:0.2;stroke-width:2;enable-background:new;filter:url(#filter4600)"
       d="m 239.19062,467.55607 c -1.94654,0.069 -4.10308,2.04244 -8.74218,6.84376 -14.51632,15.02442 -18.44922,19.60156 -18.44922,21.48828 0,2.37216 2.10806,3.973 7.32812,5.5586 2.26742,0.68874 4.25002,1.45864 4.40626,1.71092 0.1562,0.25284 -0.79468,0.94456 -2.11328,1.53908 -5.01378,2.26062 -4.57996,3.78018 1.71874,6.04296 5.84114,2.0985 7.94532,3.14822 7.94532,3.96484 0,0.35456 -0.54304,1.40754 -1.20704,2.33984 -1.61664,2.27056 -1.06706,3.32602 2.21876,4.2461 2.19746,0.61532 2.90844,1.16094 3.5625,2.72656 0.44936,1.07508 1.16338,2.09252 1.58594,2.26172 1.57692,0.63422 3.2652,0.35176 6.26952,-1.04688 3.68524,-1.71604 4.2793,-2.48842 2.9961,-3.90624 -0.52962,-0.5854 -0.96484,-1.33164 -0.96484,-1.66016 0,-0.32824 2.04186,-1.49626 4.53906,-2.59374 6.51386,-2.86266 7.14068,-4.98184 2.3164,-7.82814 -1.29898,-0.76614 -1.98912,-1.52554 -1.67188,-1.83984 0.29732,-0.29444 3.0249,-1.48042 6.0586,-2.63672 10.15494,-3.8701 11.67172,-5.06898 10.80078,-8.53906 -0.40342,-1.60706 -21.34718,-24.33022 -24.83202,-26.9414 -1.50568,-1.12824 -2.59772,-1.77186 -3.76564,-1.73048 z m 4.75,7.16408 c 0.66532,0.66514 1.40864,1.44162 2.25782,2.33202 -0.84816,-0.88936 -1.59316,-1.66744 -2.25782,-2.33202 z m -9.625,8.125 -1.4453,3.46484 h -0.004 z m -3.6328,21.05078 c 2.39412,0.14 8.99862,1.753 9.40234,2.40624 0.21468,0.3473 0.02,0.86692 -0.4375,1.15626 -1.00162,0.63452 -0.85888,0.64738 -3.84376,-0.29688 -3.4454,-1.08956 -6.7697,-2.91922 -5.85936,-3.22656 0.1398,-0.0472 0.39626,-0.059 0.73828,-0.039 z m 32.07422,6.73046 c -1.38656,-0.0932 -2.88436,0.4547 -4.01564,1.58594 -1.15634,1.15628 -1.15164,1.17334 0.30078,1.7539 2.33782,0.9339 5.744,0.77616 6.64454,-0.3086 0.69324,-0.83526 0.60102,-1.1421 -0.65626,-2.16014 -0.6517,-0.52778 -1.4415,-0.81512 -2.27342,-0.8711 z m -36.89454,4.28906 c -0.5051,0.032 -1.01366,0.1316 -1.46874,0.3047 -1.4916,0.56712 -2.16206,2.81422 -1.14454,3.83202 1.26798,1.2678 5.625,-1.01968 5.625,-2.95312 0,-0.78698 -1.4964,-1.27934 -3.01172,-1.1836 z m 31.57032,0.61328 c -0.1338,-0.008 -0.24704,0.012 -0.33594,0.0664 -0.78328,0.48418 -0.59266,3.11696 0.25,3.45702 0.4143,0.1662 0.79576,0.32356 0.85156,0.35156 0.51858,0.24342 2.00782,-0.86412 2.00782,-1.49218 0,-0.84852 -1.83764,-2.32158 -2.77344,-2.38282 z"
       id="path4598" />
    <path
       id="path4540"
       d="m 239.19062,466.55619 c -1.94654,0.069 -4.10308,2.04244 -8.74218,6.84376 -14.51632,15.02442 -18.44922,19.60156 -18.44922,21.48828 0,2.37216 2.10806,3.973 7.32812,5.5586 2.26742,0.68874 4.25002,1.45864 4.40626,1.71092 0.1562,0.25284 -0.79468,0.94456 -2.11328,1.53908 -5.01378,2.26062 -4.57996,3.78018 1.71874,6.04296 5.84114,2.0985 7.94532,3.14822 7.94532,3.96484 0,0.35456 -0.54304,1.40754 -1.20704,2.33984 -1.61664,2.27056 -1.06706,3.32602 2.21876,4.2461 2.19746,0.61532 2.90844,1.16094 3.5625,2.72656 0.44936,1.07508 1.16338,2.09252 1.58594,2.26172 1.57692,0.63422 3.2652,0.35176 6.26952,-1.04688 3.68524,-1.71604 4.2793,-2.48842 2.9961,-3.90624 -0.52962,-0.5854 -0.96484,-1.33164 -0.96484,-1.66016 0,-0.32824 2.04186,-1.49626 4.53906,-2.59374 6.51386,-2.86266 7.14068,-4.98184 2.3164,-7.82814 -1.29898,-0.76614 -1.98912,-1.52554 -1.67188,-1.83984 0.29732,-0.29444 3.0249,-1.48042 6.0586,-2.63672 10.15494,-3.8701 11.67172,-5.06898 10.80078,-8.53906 -0.40342,-1.60706 -21.34718,-24.33022 -24.83202,-26.9414 -1.50568,-1.12824 -2.59772,-1.77186 -3.76564,-1.73048 z m 4.75,7.16408 c 0.66532,0.66514 1.40864,1.44162 2.25782,2.33202 -0.84816,-0.88936 -1.59316,-1.66744 -2.25782,-2.33202 z m -9.625,8.125 -1.4453,3.46484 h -0.004 z m -3.6328,21.05078 c 2.39412,0.14 8.99862,1.753 9.40234,2.40624 0.21468,0.3473 0.02,0.86692 -0.4375,1.15626 -1.00162,0.63452 -0.85888,0.64738 -3.84376,-0.29688 -3.4454,-1.08956 -6.7697,-2.91922 -5.85936,-3.22656 0.1398,-0.0472 0.39626,-0.059 0.73828,-0.039 z m 32.07422,6.73046 c -1.38656,-0.0932 -2.88436,0.4547 -4.01564,1.58594 -1.15634,1.15628 -1.15164,1.17334 0.30078,1.7539 2.33782,0.9339 5.744,0.77616 6.64454,-0.3086 0.69324,-0.83526 0.60102,-1.1421 -0.65626,-2.16014 -0.6517,-0.52778 -1.4415,-0.81512 -2.27342,-0.8711 z m -36.89454,4.28906 c -0.5051,0.032 -1.01366,0.1316 -1.46874,0.3047 -1.4916,0.56712 -2.16206,2.81422 -1.14454,3.83202 1.26798,1.2678 5.625,-1.01968 5.625,-2.95312 0,-0.78698 -1.4964,-1.27934 -3.01172,-1.1836 z m 31.57032,0.61328 c -0.1338,-0.008 -0.24704,0.012 -0.33594,0.0664 -0.78328,0.48418 -0.59266,3.11696 0.25,3.45702 0.4143,0.1662 0.79576,0.32356 0.85156,0.35156 0.51858,0.24342 2.00782,-0.86412 2.00782,-1.49218 0,-0.84852 -1.83764,-2.32158 -2.77344,-2.38282 z"
       style="display:inline;fill:#4b525f;fill-opacity:1;stroke-width:2;enable-background:new"
       inkscape:connector-curvature="0" />
    <path
       inkscape:connector-curvature="0"
       style="display:inline;fill:#000000;fill-opacity:0.2;fill-rule:evenodd;stroke:none;stroke-width:2px;stroke-linecap:butt;stroke-linejoin:miter;stroke-opacity:1;enable-background:new;filter:url(#filter4667)"
       d="m 239.2663,473.86834 c -1.8442,0.154 -3.8378,2.24016 -7.83194,6.4139 -3.3971,3.54976 -6.17798,6.80938 -6.17798,7.24218 0,0.56416 1.07644,0.78632 3.80588,0.78632 h 3.80586 l 1.44688,-3.46512 1.44684,-3.46514 0.87808,3.76656 c 0.48336,2.07156 1.03578,3.76584 1.22668,3.76396 0.191,0 1.42482,-0.65494 2.7417,-1.4521 2.1597,-1.30728 2.55164,-1.37002 3.99462,-0.62384 1.58548,0.81984 1.60166,0.80766 1.98944,-1.61726 l 0.39054,-2.44812 2.09428,1.59628 c 3.81778,2.91202 2.30578,0.1248 -2.88064,-5.31566 -3.39264,-3.55744 -5.08606,-5.33586 -6.93024,-5.18196 z"
       id="path4586" />
    <path
       id="path4544"
       d="m 239.2663,472.86845 c -1.8442,0.154 -3.8378,2.24016 -7.83194,6.4139 -3.3971,3.54976 -6.17798,6.80938 -6.17798,7.24218 0,0.56416 1.07644,0.78632 3.80588,0.78632 h 3.80586 l 1.44688,-3.46512 1.44684,-3.46514 0.87808,3.76656 c 0.48336,2.07156 1.03578,3.76584 1.22668,3.76396 0.191,0 1.42482,-0.65494 2.7417,-1.4521 2.1597,-1.30728 2.55164,-1.37002 3.99462,-0.62384 1.58548,0.81984 1.60166,0.80766 1.98944,-1.61726 l 0.39054,-2.44812 2.09428,1.59628 c 3.81778,2.91202 2.30578,0.1248 -2.88064,-5.31566 -3.39264,-3.55744 -5.08606,-5.33586 -6.93024,-5.18196 z"
       style="display:inline;fill:#f5f5f5;fill-opacity:1;fill-rule:evenodd;stroke:none;stroke-width:2px;stroke-linecap:butt;stroke-linejoin:miter;stroke-opacity:1;enable-background:new"
       inkscape:connector-curvature="0" />
    <path
       inkscape:connector-curvature="0"
       id="path4546"
       d="m 239.41482,466.58179 a 29.522572,29.522998 0 0 0 -0.56612,0.028 c -1.865,0.27384 -4.02922,2.26706 -8.40292,6.79382 -14.51632,15.02444 -18.44656,19.5999 -18.44656,21.48664 0,2.37216 2.10824,3.97116 7.3283,5.55678 2.26742,0.68872 4.2523,1.4617 4.40852,1.71402 0.1562,0.25228 -0.79394,0.9465 -2.11252,1.54104 -5.0138,2.26062 -4.58458,3.77602 1.71414,6.0388 5.84112,2.09852 7.94684,3.15174 7.94684,3.96836 0,0.35454 -0.5469,1.40564 -1.21092,2.33792 -1.6166,2.27054 -1.06318,3.32592 2.22262,4.246 2.1975,0.61534 2.91048,1.16018 3.56456,2.72578 0.44936,1.07508 1.16054,2.09558 1.58308,2.26466 0.32168,0.1288 0.6548,0.196 0.99598,0.24696 a 29.522572,29.522998 0 0 0 0.67096,0.0322 c 1.19278,0 2.592,-0.39026 4.60248,-1.32644 3.68528,-1.71604 4.27638,-2.48716 2.99318,-3.90502 -0.52962,-0.58536 -0.9593,-1.33342 -0.9593,-1.66194 0,-0.32828 2.04236,-1.4973 4.53956,-2.59478 6.51388,-2.86268 7.14124,-4.97998 2.31698,-7.82626 -1.299,-0.76616 -1.98946,-1.52546 -1.67222,-1.83976 0.2973,-0.29446 3.0208,-1.48064 6.0545,-2.63694 10.15492,-3.87012 11.67468,-5.07444 10.80374,-8.5445 -0.4034,-1.60706 -21.34642,-24.3273 -24.8313,-26.93844 -1.40806,-1.0551 -2.45826,-1.6601 -3.5436,-1.70358 z m -8.73316,36.31632 c 2.39414,0.1394 9.00038,1.75294 9.40414,2.4061 0.21476,0.34732 0.016,0.864 -0.44032,1.15332 -1.00162,0.63452 -0.85752,0.64552 -3.8424,-0.29872 -3.4454,-1.08958 -6.76564,-2.9166 -5.85528,-3.22392 0.1398,-0.0482 0.39184,-0.0562 0.73386,-0.0376 z m 32.07574,6.73076 c -1.38656,-0.0938 -2.88408,0.45198 -4.01536,1.58318 -1.15634,1.15628 -1.15364,1.1756 0.29878,1.75616 1.45292,0.58016 3.2654,0.6953 4.68634,0.47172 a 29.52257,29.522998 0 0 0 1.69316,-2.5948 c -0.1268,-0.1128 -0.22064,-0.21196 -0.38788,-0.34624 -0.65174,-0.52756 -1.4431,-0.81394 -2.27504,-0.87002 z m -36.89312,4.288 c -0.50512,0.0322 -1.01266,0.1316 -1.46776,0.30412 -1.49158,0.56714 -2.16552,2.81408 -1.148,3.83184 1.26802,1.26782 5.62468,-1.02314 5.62468,-2.9566 0,-0.78668 -1.4936,-1.27518 -3.00892,-1.17936 z m 31.5725,0.61332 c -0.1336,0 -0.25172,0 -0.34072,0.0616 -0.78334,0.4842 -0.59104,3.11978 0.25172,3.45984 0.41428,0.1664 0.7987,0.32436 0.85444,0.3512 0.51858,0.24416 2.00768,-0.86062 2.00768,-1.4887 0,-0.84868 -1.83722,-2.32396 -2.773,-2.38514 z"
       style="display:inline;fill:url(#linearGradient4555);fill-opacity:1;stroke:none;stroke-width:4;stroke-linecap:round;stroke-linejoin:round;stroke-miterlimit:4;stroke-dasharray:none;stroke-opacity:1;enable-background:new" />
    <path
       style="display:inline;fill:#ffffff;fill-opacity:1;fill-rule:evenodd;stroke:none;stroke-width:2px;stroke-linecap:butt;stroke-linejoin:miter;stroke-opacity:1;enable-background:new"
       d="M 239.26562 472.86914 C 237.42142 473.02314 235.42773 475.10946 231.43359 479.2832 C 228.03649 482.83296 225.25586 486.09259 225.25586 486.52539 C 225.25586 486.69665 225.36945 486.83178 225.58398 486.94336 C 226.38897 485.78663 228.69673 483.14306 231.43359 480.2832 C 235.42772 476.10946 237.42144 474.02314 239.26562 473.86914 C 241.1098 473.71524 242.80464 475.49334 246.19727 479.05078 C 248.52798 481.49567 250.06729 483.35828 250.76367 484.45508 C 252.10155 485.0003 250.31221 482.36728 246.19727 478.05078 C 242.80463 474.49334 241.10981 472.71524 239.26562 472.86914 z "
       id="path4588" />
    <path
       style="display:inline;fill:#ffffff;fill-opacity:0.2;stroke-width:2;enable-background:new"
       d="M 239.19141 466.55664 C 237.24487 466.62564 235.08832 468.59907 230.44922 473.40039 C 215.9329 488.42481 212 493.00195 212 494.88867 C 212 495.09308 212.02079 495.28899 212.05273 495.48242 C 212.5562 493.36109 216.87484 488.4499 230.44922 474.40039 C 235.08832 469.59907 237.24487 467.62564 239.19141 467.55664 C 240.35933 467.51526 241.45135 468.15887 242.95703 469.28711 C 246.44187 471.89829 267.38564 494.62146 267.78906 496.22852 C 267.87034 496.55235 267.92047 496.85038 267.95508 497.13867 C 268.03652 496.56923 267.9701 495.94984 267.78906 495.22852 C 267.38564 493.62146 246.44187 470.89829 242.95703 468.28711 C 241.45135 467.15887 240.35933 466.51526 239.19141 466.55664 z M 234.31641 482.8457 L 232.86719 486.31055 L 232.87109 486.31055 L 234.31641 482.8457 z M 223.17969 502.83008 C 222.79778 503.10177 222.25667 503.4107 221.62109 503.69727 C 218.91808 504.916 217.81277 505.91891 218.3418 506.93945 C 218.70438 506.2421 219.79813 505.5192 221.62109 504.69727 C 222.93969 504.10275 223.89058 503.41104 223.73438 503.1582 C 223.69055 503.08743 223.47693 502.9691 223.17969 502.83008 z M 230.23828 503.89062 C 230.11394 503.89697 230.01521 503.91195 229.94531 503.93555 C 229.03497 504.24289 232.35929 506.07255 235.80469 507.16211 C 238.78957 508.10637 238.64682 508.0935 239.64844 507.45898 C 240.10594 507.16964 240.30062 506.65003 240.08594 506.30273 C 240.063 506.26562 240.01418 506.2245 239.95312 506.18164 C 239.87091 506.28508 239.77163 506.38107 239.64844 506.45898 C 238.64682 507.0935 238.78957 507.10637 235.80469 506.16211 C 233.73883 505.50881 231.73462 504.59424 230.64258 503.89648 C 230.49092 503.88874 230.35117 503.88486 230.23828 503.89062 z M 251.23828 507.22461 C 251.13666 507.28384 250.96528 507.36905 250.92969 507.4043 C 250.61245 507.7186 251.30258 508.478 252.60156 509.24414 C 254.38215 510.29468 255.414 511.2455 255.6875 512.17188 C 256.07199 510.92202 255.02614 509.67463 252.60156 508.24414 C 251.99604 507.887 251.53883 507.53442 251.23828 507.22461 z M 262.23242 509.62109 C 261.00138 509.67899 259.73206 510.22306 258.74219 511.21289 C 257.83913 512.1159 257.67253 512.32989 258.32227 512.6543 C 258.44757 512.51933 258.55443 512.40064 258.74219 512.21289 C 259.87347 511.08165 261.37125 510.53375 262.75781 510.62695 C 263.58973 510.68293 264.37955 510.97027 265.03125 511.49805 C 265.45467 511.8409 265.73456 512.09925 265.9082 512.32812 C 266.28812 511.73041 266.09875 511.36242 265.03125 510.49805 C 264.37955 509.97027 263.58973 509.68293 262.75781 509.62695 C 262.58449 509.6153 262.40828 509.61282 262.23242 509.62109 z M 226.42773 513.90625 C 226.2418 513.90041 226.0527 513.90405 225.86328 513.91602 C 225.35818 513.94802 224.84961 514.0476 224.39453 514.2207 C 223.22773 514.66433 222.57702 516.12928 222.83008 517.23633 C 222.99969 516.37813 223.56125 515.53753 224.39453 515.2207 C 224.84961 515.0476 225.35818 514.94802 225.86328 514.91602 C 227.11087 514.83719 228.33114 515.16016 228.72852 515.71484 C 228.81574 515.50884 228.875 515.30234 228.875 515.09961 C 228.875 514.411 227.7293 513.94711 226.42773 513.90625 z M 231.0957 514.29297 C 230.8842 514.77794 230.5164 515.42956 230.07812 516.04492 C 229.33147 517.09359 229.05345 517.88092 229.28711 518.51758 C 229.41381 518.08935 229.67959 517.60466 230.07812 517.04492 C 230.74212 516.11262 231.28516 515.05964 231.28516 514.70508 C 231.28516 514.57555 231.20809 514.43748 231.0957 514.29297 z M 257.43359 514.5293 C 257.29979 514.5213 257.18656 514.5413 257.09766 514.5957 C 256.66814 514.8612 256.53948 515.76842 256.64258 516.59375 C 256.70338 516.13954 256.84501 515.75188 257.09766 515.5957 C 257.18656 515.5413 257.29979 515.5213 257.43359 515.5293 C 258.19147 515.57889 259.52405 516.55118 260.00977 517.37109 C 260.12546 517.20787 260.20703 517.04878 260.20703 516.91211 C 260.20703 516.06359 258.36939 514.59054 257.43359 514.5293 z M 246.00781 519.35742 C 245.84981 519.48748 245.74609 519.59872 245.74609 519.66602 C 245.74609 519.99454 246.18132 520.74077 246.71094 521.32617 C 246.92538 521.56311 247.06405 521.77803 247.16797 521.98633 C 247.45551 521.46747 247.28568 520.96121 246.71094 520.32617 C 246.43299 520.01895 246.1845 519.66962 246.00781 519.35742 z "
       id="path4593" />
    <path
       style="display:inline;fill:#ffffff;fill-opacity:0.2;stroke-width:8;enable-background:new"
       d="M 534.70703 36.433594 C 518.82058 36.223925 501.63237 51.810724 463.5918 91.181641 C 347.46116 211.377 316.00781 248.0156 316.00781 263.10938 C 316.00781 263.5775 316.02623 264.03932 316.04688 264.5 C 316.85436 249.04311 348.955 211.83088 463.5918 93.181641 C 501.63237 53.810724 518.82058 38.223925 534.70703 38.433594 C 543.61894 38.551213 552.12065 43.639222 563.66406 52.289062 C 591.54278 73.178503 759.07928 254.94235 762.30664 267.79883 C 763.26661 271.62363 763.84543 275.09533 763.94922 278.33398 C 764.0798 274.5354 763.46709 270.42241 762.30664 265.79883 C 759.07928 252.94235 591.54278 71.178504 563.66406 50.289062 C 552.12065 41.639222 543.61894 36.551213 534.70703 36.433594 z M 506.10156 133.0293 L 506.09766 133.04102 L 511.91992 157.99023 L 506.10156 133.0293 z M 595.86914 144.14258 L 592.74805 163.71875 L 595.87695 144.14844 L 595.86914 144.14258 z M 500.45312 146.55469 L 494.52539 160.75 L 482.95117 188.4707 L 452.50391 188.4707 C 445.61798 188.4707 440.0627 188.29279 435.66992 187.9082 C 440.06441 188.29415 445.62416 188.47461 452.51367 188.47461 L 482.96094 188.47461 L 494.52734 160.75391 L 500.45312 146.55469 z M 435.66992 187.9082 C 434.20566 187.78001 432.87025 187.62805 431.6582 187.45312 C 432.87041 187.62851 434.20509 187.77955 435.66992 187.9082 z M 603.78711 150.17773 L 612.61719 156.91211 C 618.28723 161.23701 622.48832 163.98942 625.30469 165.32812 C 622.48867 163.98887 618.29006 161.23464 612.62305 156.91211 L 603.78711 150.17773 z M 625.30664 165.33008 C 626.99647 166.13308 628.18752 166.42695 628.89844 166.24414 C 628.18709 166.42524 626.99487 166.13269 625.30664 165.33008 z M 564.61719 172.83789 C 564.08576 172.86039 563.55027 172.9142 563.00195 173 C 564.08979 172.83133 565.13283 172.79174 566.17578 172.86914 C 565.65805 172.83147 565.14065 172.81572 564.61719 172.83789 z M 566.28711 172.88086 C 566.76028 172.91982 567.2335 172.98281 567.71094 173.07031 C 567.23448 172.98372 566.75936 172.91906 566.28711 172.88086 z M 567.92383 173.11328 C 568.38437 173.20423 568.84938 173.31465 569.32227 173.44922 C 568.85019 173.31557 568.38366 173.20341 567.92383 173.11328 z M 569.48438 173.49609 C 569.98415 173.64288 570.49312 173.81019 571.01562 174.00391 C 570.49395 173.81114 569.98348 173.64199 569.48438 173.49609 z M 515.79883 173.83984 C 516.55462 176.65325 517.30111 179.24568 518.01562 181.58594 C 517.30088 179.24557 516.55478 176.65308 515.79883 173.83984 z M 571.11523 174.04102 C 572.82323 174.68172 574.67468 175.56529 576.81836 176.67383 C 581.97629 179.34099 585.06091 180.90399 587.11328 180.51562 C 585.06335 180.89606 581.98289 179.3305 576.83008 176.66602 C 574.67926 175.55381 572.82843 174.68161 571.11523 174.04102 z M 519.23828 185.43555 C 520.47447 189.12538 521.54892 191.72599 522.30859 192.76562 C 521.54878 191.72323 520.47373 189.12204 519.23828 185.43555 z M 409.56836 322.91406 C 407.86624 325.52679 401.36066 329.79778 392.98047 333.57617 C 373.94584 342.15855 364.7275 349.4026 365.67383 356.58008 C 366.52406 350.04717 375.71114 343.36261 392.98047 335.57617 C 403.52927 330.82001 411.13811 325.27467 409.88867 323.25195 C 409.82658 323.1517 409.70105 323.0342 409.56836 322.91406 z M 458.77539 329.90039 C 454.8845 333.32062 480.19604 346.97803 506.42773 355.27344 C 530.30677 362.82752 529.16282 362.73827 537.17578 357.66211 C 540.19191 355.75151 541.79179 352.58067 541.29492 349.96875 C 540.92133 352.06327 539.45038 354.22124 537.17578 355.66211 C 529.16282 360.73827 530.30677 360.82752 506.42773 353.27344 C 483.87946 346.14286 462.00587 335.04884 458.77539 329.90039 z M 627.03711 357.80469 C 625.71171 360.59221 631.16122 366.25272 640.82617 371.95312 C 656.98102 381.4844 665.49022 389.99395 666.10742 398.34766 C 666.80478 389.34783 658.27127 380.24564 640.82617 369.95312 C 633.10091 365.39675 628.07122 360.86461 627.03711 357.80469 z M 720.37695 380.93945 C 709.76566 380.71505 698.54105 385.08424 689.94336 393.68164 C 684.76161 398.86312 682.4923 401.18774 683.53906 403.04688 C 684.23913 401.41264 686.41395 399.21086 689.94336 395.68164 C 698.54105 387.08424 709.76566 382.71505 720.37695 382.93945 C 727.63731 383.09299 734.61166 385.39672 740.25977 389.9707 C 745.59901 394.29404 748.28977 397.01027 748.83203 399.60742 C 749.51186 396.29923 746.96701 393.40176 740.25977 387.9707 C 734.61166 383.39672 727.63731 381.09299 720.37695 380.93945 z M 470.13672 414.64648 C 469.38941 418.14278 465.39979 425.63168 460.61523 432.34961 C 455.65257 439.31968 453.25605 444.85533 453.6582 449.45117 C 453.98832 445.26598 456.35143 440.33813 460.61523 434.34961 C 465.92715 426.89121 470.27344 418.46539 470.27344 415.62891 C 470.27344 415.30658 470.22025 414.9787 470.13672 414.64648 z M 429.92969 415.22656 C 424.92417 415.2265 419.71882 416.00773 415.16797 417.73828 C 406.83385 420.90712 401.70408 430.63196 402.13672 438.98438 C 402.53488 431.13723 407.49201 422.65687 415.16797 419.73828 C 419.71882 418.00773 424.92417 417.2265 429.92969 417.22656 C 440.3973 417.22669 449.98667 420.64488 450.91016 425.93945 C 450.9524 425.55154 450.99023 425.16419 450.99023 424.7793 C 450.99023 419.00815 440.94183 415.22669 429.92969 415.22656 z M 678.70898 420.20117 C 677.96507 420.23754 677.31267 420.41052 676.7793 420.74023 C 673.88448 422.52973 672.66876 427.98954 672.84375 433.61328 C 672.98988 428.74201 674.2311 424.31545 676.7793 422.74023 C 677.31267 422.41052 677.96507 422.23757 678.70898 422.20117 C 685.54617 421.86692 700.12511 433.07011 701.54492 440.2168 C 701.62308 439.89844 701.66797 439.58996 701.66797 439.29492 C 701.66797 432.26431 685.90014 419.84961 678.70898 420.20117 z M 586.20508 454.67578 C 586.05886 454.91311 585.9707 455.1267 585.9707 455.30469 C 585.9707 457.93285 589.43687 463.9125 593.67383 468.5957 C 596.50208 471.72067 598.18315 474.45447 598.5293 477.0625 C 598.98394 473.84009 597.23282 470.52807 593.67383 466.5957 C 590.0571 462.59806 587.02202 457.67178 586.20508 454.67578 z "
       id="path4631" />
    <path
       style="display:inline;fill:#fcfcfc;fill-opacity:1;fill-rule:evenodd;stroke:none;stroke-width:8px;stroke-linecap:butt;stroke-linejoin:miter;stroke-opacity:1;enable-background:new"
       d="M 535.51758 70.861328 C 535.05844 70.869648 534.59776 70.893166 534.13672 70.931641 C 519.38312 72.163641 503.43359 88.852269 471.48047 122.24219 C 444.30367 150.64027 422.05664 176.71729 422.05664 180.17969 C 422.05664 180.59486 422.13192 180.9878 422.28125 181.35742 C 424.63133 175.71286 445.86109 151.01286 471.48047 124.24219 C 503.43359 90.852267 519.38312 74.163641 534.13672 72.931641 C 548.89016 71.700441 562.437 85.927118 589.57812 114.38672 C 613.55923 139.54246 627.69389 157.58218 629.47852 163.85156 C 631.65196 160.74107 617.07166 141.22694 589.57812 112.38672 C 563.28517 84.816483 549.75095 70.60341 535.51758 70.861328 z "
       id="path4636" />
  </g>
</svg>
