<?xml version="1.0" encoding="UTF-8" standalone="no"?>
<!-- Created with Inkscape (http://www.inkscape.org/) -->

<svg
   xmlns:dc="http://purl.org/dc/elements/1.1/"
   xmlns:cc="http://creativecommons.org/ns#"
   xmlns:rdf="http://www.w3.org/1999/02/22-rdf-syntax-ns#"
   xmlns:svg="http://www.w3.org/2000/svg"
   xmlns="http://www.w3.org/2000/svg"
   xmlns:xlink="http://www.w3.org/1999/xlink"
   xmlns:sodipodi="http://sodipodi.sourceforge.net/DTD/sodipodi-0.dtd"
   xmlns:inkscape="http://www.inkscape.org/namespaces/inkscape"
   width="736"
   height="544"
   viewBox="0 0 736 544"
   version="1.1"
   id="svg1087"
   inkscape:version="0.92.1 r"
   sodipodi:docname="inkscape.svg">
  <defs
     id="defs1081">
    <linearGradient
       inkscape:collect="always"
       xlink:href="#linearGradient4165"
       id="linearGradient4423"
       gradientUnits="userSpaceOnUse"
       gradientTransform="matrix(0.64180171,0,0,0.64180452,96.553172,-147.96829)"
       x1="7"
       y1="1011.3622"
       x2="41.000019"
       y2="1045.3622" />
    <linearGradient
       inkscape:collect="always"
       id="linearGradient4165">
      <stop
         style="stop-color:#ffffff;stop-opacity:0.15000001"
         offset="0"
         id="stop4167" />
      <stop
         style="stop-color:#177ed5;stop-opacity:0;"
         offset="1"
         id="stop4169" />
    </linearGradient>
    <filter
       inkscape:collect="always"
       style="color-interpolation-filters:sRGB"
       id="filter4629"
       x="-0.03791808"
       width="1.0758362"
       y="-0.065385021"
       height="1.13077">
      <feGaussianBlur
         inkscape:collect="always"
         stdDeviation="0.20503456"
         id="feGaussianBlur4631" />
    </filter>
    <linearGradient
       inkscape:collect="always"
       xlink:href="#linearGradient4165"
       id="linearGradient4478"
       gradientUnits="userSpaceOnUse"
       gradientTransform="matrix(0.45842979,0,0,0.4584318,52.96683,44.535974)"
       x1="7"
       y1="1011.3622"
       x2="41.000019"
       y2="1045.3622" />
    <filter
       inkscape:collect="always"
       style="color-interpolation-filters:sRGB"
       id="filter4645"
       x="-0.03791808"
       width="1.0758362"
       y="-0.065385021"
       height="1.13077">
      <feGaussianBlur
         inkscape:collect="always"
         stdDeviation="0.14645327"
         id="feGaussianBlur4647" />
    </filter>
    <linearGradient
       inkscape:collect="always"
       xlink:href="#linearGradient4165"
       id="linearGradient4171-1"
       x1="7"
       y1="1011.3622"
       x2="41.000019"
       y2="1045.3622"
       gradientUnits="userSpaceOnUse"
       gradientTransform="matrix(0.95647259,0,0,0.95647693,144.94399,-479.60296)" />
    <filter
       inkscape:collect="always"
       style="color-interpolation-filters:sRGB"
       id="filter4609"
       x="-0.037918091"
       width="1.0758362"
       y="-0.065384991"
       height="1.13077">
      <feGaussianBlur
         inkscape:collect="always"
         stdDeviation="0.30556177"
         id="feGaussianBlur4611" />
    </filter>
    <filter
       inkscape:collect="always"
       style="color-interpolation-filters:sRGB"
       id="filter4581"
       x="-0.037918091"
       width="1.0758362"
       y="-0.065384991"
       height="1.13077">
      <feGaussianBlur
         inkscape:collect="always"
         stdDeviation="0.4100692"
         id="feGaussianBlur4583" />
    </filter>
    <linearGradient
       inkscape:collect="always"
       xlink:href="#linearGradient4165"
       id="linearGradient4439"
       gradientUnits="userSpaceOnUse"
       gradientTransform="matrix(10.26883,0,0,10.268874,212.85696,-10287.504)"
       x1="7"
       y1="1011.3622"
       x2="41.000019"
       y2="1045.3622" />
  </defs>
  <sodipodi:namedview
     id="base"
     pagecolor="#c3c3c3"
     bordercolor="#333333"
     borderopacity="1"
     inkscape:pageopacity="0"
     inkscape:pageshadow="2"
     inkscape:zoom="7.919596"
     inkscape:cx="50.767239"
     inkscape:cy="36.346681"
     inkscape:document-units="px"
     inkscape:current-layer="layer2"
     showgrid="true"
     units="px"
     inkscape:showpageshadow="false"
     inkscape:window-width="1280"
     inkscape:window-height="1370"
     inkscape:window-x="1280"
     inkscape:window-y="34"
     inkscape:window-maximized="0">
    <inkscape:grid
       type="xygrid"
       id="grid4630" />
  </sodipodi:namedview>
  <metadata
     id="metadata1084">
    <rdf:RDF>
      <cc:Work
         rdf:about="">
        <dc:format>image/svg+xml</dc:format>
        <dc:type
           rdf:resource="http://purl.org/dc/dcmitype/StillImage" />
        <dc:title />
        <cc:license
           rdf:resource="http://creativecommons.org/licenses/by-sa/4.0/" />
        <dc:creator>
          <cc:Agent>
            <dc:title>Peter Cornelis</dc:title>
          </cc:Agent>
        </dc:creator>
      </cc:Work>
      <cc:License
         rdf:about="http://creativecommons.org/licenses/by-sa/4.0/">
        <cc:permits
           rdf:resource="http://creativecommons.org/ns#Reproduction" />
        <cc:permits
           rdf:resource="http://creativecommons.org/ns#Distribution" />
        <cc:requires
           rdf:resource="http://creativecommons.org/ns#Notice" />
        <cc:requires
           rdf:resource="http://creativecommons.org/ns#Attribution" />
        <cc:permits
           rdf:resource="http://creativecommons.org/ns#DerivativeWorks" />
        <cc:requires
           rdf:resource="http://creativecommons.org/ns#ShareAlike" />
      </cc:License>
    </rdf:RDF>
  </metadata>
  <g
     inkscape:label="Baseplate"
     inkscape:groupmode="layer"
     id="layer1"
     transform="translate(0,-153.06668)"
     style="display:none">
    <rect
       style="display:inline;overflow:visible;visibility:visible;fill:#fefefe;fill-opacity:1;fill-rule:nonzero;stroke:none;stroke-width:2;marker:none;enable-background:accumulate"
       id="rect3951"
       width="512"
       height="512"
       x="-720"
       y="169.06668"
       inkscape:label="48x48"
       transform="scale(-1,1)" />
    <text
       y="733.32251"
       xml:space="preserve"
       x="15.006836"
       style="font-style:normal;font-variant:normal;font-weight:normal;font-stretch:normal;line-height:0%;font-family:'DejaVu Sans';-inkscape-font-specification:'DejaVu Sans';display:inline;fill:#000000;fill-opacity:1;stroke:none;enable-background:new"
       inkscape:label="context"
       id="context"><tspan
         style="font-style:normal;font-variant:normal;font-weight:normal;font-stretch:normal;font-size:18px;line-height:1.25;font-family:'DejaVu Sans';-inkscape-font-specification:'DejaVu Sans'"
         y="733.32251"
         x="15.006836"
         sodipodi:role="line"
         id="tspan3933">apps</tspan></text>
    <text
       y="733.32251"
       xml:space="preserve"
       x="142.48828"
       style="font-style:normal;font-variant:normal;font-weight:bold;font-stretch:normal;line-height:0%;font-family:'DejaVu Sans';-inkscape-font-specification:'DejaVu Sans Bold';text-align:start;writing-mode:lr-tb;text-anchor:start;display:inline;fill:#000000;fill-opacity:1;stroke:none;enable-background:new"
       inkscape:label="icon-name"
       id="icon-name"><tspan
         style="font-style:normal;font-variant:normal;font-weight:bold;font-stretch:normal;font-size:18px;line-height:1.25;font-family:'DejaVu Sans';-inkscape-font-specification:'DejaVu Sans Bold'"
         y="733.32251"
         x="142.48828"
         sodipodi:role="line"
         id="tspan3937">inkscape</tspan></text>
    <rect
       style="display:inline;overflow:visible;visibility:visible;fill:#fefefe;fill-opacity:1;fill-rule:nonzero;stroke:none;stroke-width:2;marker:none;enable-background:accumulate"
       id="rect16x16"
       width="16"
       height="16"
       x="-32"
       y="665.06665"
       inkscape:label="16x16"
       transform="scale(-1,1)" />
    <rect
       style="display:inline;overflow:visible;visibility:visible;fill:#fefefe;fill-opacity:1;fill-rule:nonzero;stroke:none;stroke-width:2;marker:none;enable-background:accumulate"
       id="rect24x24"
       width="24"
       height="24"
       x="-76"
       y="657.06665"
       inkscape:label="24x24"
       transform="scale(-1,1)" />
    <rect
       style="display:inline;overflow:visible;visibility:visible;fill:#fefefe;fill-opacity:1;fill-rule:nonzero;stroke:none;stroke-width:2;marker:none;enable-background:accumulate"
       id="rect32x32"
       width="32"
       height="32"
       x="-128"
       y="649.06665"
       inkscape:label="32x32"
       transform="scale(-1,1)" />
    <rect
       inkscape:label="48x48"
       y="633.06665"
       x="-192"
       height="48"
       width="48"
       id="rect48x48"
       style="display:inline;overflow:visible;visibility:visible;fill:#fefefe;fill-opacity:1;fill-rule:nonzero;stroke:none;stroke-width:2;marker:none;enable-background:accumulate"
       transform="scale(-1,1)" />
  </g>
  <g
     inkscape:groupmode="layer"
     id="layer2"
     inkscape:label="Bitmap"
     style="display:inline">
    <path
       inkscape:connector-curvature="0"
       style="display:inline;fill:#4b525f;fill-opacity:1;enable-background:new"
       d="m 167.36289,482.00462 c -1.45045,0.0514 -3.05882,1.51997 -6.51562,5.09765 -10.81677,11.1954 -13.7461,14.60777 -13.7461,16.01367 0,1.7676 1.57122,2.95913 5.46094,4.14063 1.68956,0.5132 3.16681,1.08739 3.2832,1.27539 0.11639,0.1884 -0.59363,0.70544 -1.57617,1.14844 -3.73599,1.6845 -3.41416,2.8139 1.2793,4.5 4.3525,1.5637 5.91992,2.34658 5.91992,2.95508 0,0.2642 -0.40367,1.04944 -0.89844,1.74414 -1.20463,1.6919 -0.7941,2.47846 1.6543,3.16406 1.63745,0.4585 2.16692,0.8627 2.6543,2.0293 0.33484,0.8011 0.86679,1.5615 1.18164,1.6875 1.17504,0.4726 2.43321,0.2629 4.67187,-0.7793 2.74606,-1.2787 3.18664,-1.85561 2.23047,-2.91211 -0.39464,-0.4362 -0.7168,-0.99348 -0.7168,-1.23828 0,-0.2446 1.52204,-1.11189 3.38282,-1.92969 4.85378,-2.1331 5.32135,-3.71308 1.72656,-5.83398 -0.96793,-0.5709 -1.48249,-1.1369 -1.24609,-1.3711 0.22153,-0.2194 2.25116,-1.10324 4.51171,-1.96484 7.56692,-2.8838 8.69781,-3.77954 8.04883,-6.36524 -0.3006,-1.1975 -15.90522,-18.12656 -18.50195,-20.07226 -1.12194,-0.84071 -1.93442,-1.3199 -2.80469,-1.28906 z m 6.53711,8.49609 c 0.79014,0.88101 1.39933,1.62071 1.80859,2.18359 -0.40942,-0.56299 -1.01837,-1.30252 -1.80859,-2.18359 z m -3.49609,4.02344 c 0.2937,0.0219 0.58702,0.14501 0.99023,0.35351 0.29535,0.15273 0.51767,0.2674 0.68945,0.32422 0.17179,0.0568 0.29332,0.0564 0.38672,-0.0195 -0.0935,0.0761 -0.21482,0.0762 -0.38672,0.0195 -0.17189,-0.0567 -0.3941,-0.16954 -0.68945,-0.32226 -0.40321,-0.2085 -0.69659,-0.33338 -0.99023,-0.35547 z m -9.38086,14.55859 c 1.78397,0.10433 6.70501,1.30425 7.00586,1.79102 0.15995,0.2588 0.0122,0.64768 -0.32813,0.86328 -0.74635,0.4728 -0.63911,0.48094 -2.86328,-0.22266 -2.56733,-0.8119 -5.04357,-2.1753 -4.36523,-2.40429 0.10417,-0.0352 0.29592,-0.0422 0.55078,-0.0273 z m 23.89648,5.01563 c -1.03317,-0.0695 -2.14727,0.33675 -2.99023,1.17968 -0.86165,0.8616 -0.85766,0.876 0.22461,1.3086 1.74202,0.6959 4.28013,0.57588 4.95117,-0.23242 0.51657,-0.6224 0.44856,-0.84883 -0.48828,-1.60743 -0.48562,-0.39326 -1.07736,-0.60672 -1.69727,-0.64843 z m -27.49023,3.19531 c -0.37638,0.0238 -0.75464,0.0957 -1.09375,0.22461 -1.11145,0.4226 -1.61171,2.09707 -0.85352,2.85547 0.94484,0.9447 4.19141,-0.75852 4.19141,-2.19922 0,-0.58635 -1.115,-0.95219 -2.24414,-0.88086 z m 23.52539,0.45508 c -0.0996,-0.007 -0.18376,0.008 -0.25,0.0488 -0.5837,0.36079 -0.44237,2.32277 0.18554,2.57617 0.30871,0.1238 0.59522,0.24172 0.63672,0.26172 0.38642,0.1814 1.4961,-0.64138 1.4961,-1.10938 0,-0.63227 -1.37105,-1.73173 -2.06836,-1.77734 z"
       id="path3338" />
    <path
       id="path4166"
       d="m 168.41807,486.21634 c -1.3742,0.1147 -2.85973,1.6693 -5.83594,4.7793 -2.53136,2.6451 -4.60352,5.074 -4.60352,5.3965 0,0.4204 0.8021,0.586 2.83594,0.586 h 2.83594 l 1.07812,-2.5821 1.07813,-2.582 0.6543,2.8066 c 0.36017,1.5436 0.77178,2.8061 0.91406,2.8047 0.14227,0 1.06169,-0.488 2.04297,-1.082 1.60928,-0.9741 1.90134,-1.0208 2.97656,-0.4648 1.1814,0.6109 1.19347,0.6018 1.48242,-1.2051 l 0.29102,-1.8242 1.56054,1.1894 c 2.8448,2.1699 1.71815,0.093 -2.14648,-3.9609 -2.52804,-2.6508 -3.78987,-3.976 -5.16406,-3.8614 z"
       style="display:inline;fill:#000000;fill-opacity:0.2;fill-rule:evenodd;stroke:none;stroke-width:1px;stroke-linecap:butt;stroke-linejoin:miter;stroke-opacity:1;filter:url(#filter4609);enable-background:new"
       inkscape:connector-curvature="0" />
    <path
       inkscape:connector-curvature="0"
       style="display:inline;fill:#ffffff;fill-opacity:0.2;enable-background:new"
       d="m 167.36289,482.00329 c -1.45045,0.051 -3.05881,1.52191 -6.51562,5.09961 -10.81677,11.1954 -13.74609,14.60777 -13.74609,16.01367 0,0.2095 0.025,0.40932 0.0703,0.60352 0.47317,-1.6292 3.74891,-5.34289 13.67578,-15.61719 5.53089,-5.7243 6.32848,-6.05049 9.32031,-3.80859 2.59673,1.9457 18.20135,18.87672 18.50195,20.07422 0.0525,0.2091 0.0709,0.39107 0.0977,0.58007 0.10249,-0.4668 0.0541,-0.97723 -0.0977,-1.58203 -0.3006,-1.1975 -15.90521,-18.12656 -18.50195,-20.07226 -1.12194,-0.8407 -1.93441,-1.32192 -2.80469,-1.29102 z m -12.17187,27.1836 c -0.25937,0.1624 -0.56182,0.32988 -0.92188,0.49218 -2.13306,0.9618 -2.93595,1.74359 -2.36523,2.55079 0.32856,-0.4821 1.11261,-0.98403 2.36523,-1.54883 0.98254,-0.443 1.69257,-0.96004 1.57618,-1.14844 -0.0423,-0.068 -0.30808,-0.1969 -0.6543,-0.3457 z m 5.83203,0.89648 c -0.25485,-0.015 -0.4466,-0.01 -0.55078,0.0273 -0.67834,0.229 1.7979,1.5924 4.36523,2.4043 2.22417,0.7036 2.11694,0.69545 2.86329,0.22265 0.34034,-0.2156 0.48807,-0.60448 0.32812,-0.86328 -0.0332,-0.054 -0.13654,-0.11695 -0.27148,-0.18554 -0.0204,0.015 -0.0345,0.0348 -0.0566,0.0488 -0.74635,0.47279 -0.63912,0.48094 -2.86329,-0.22266 -1.24125,-0.3926 -2.44663,-0.91305 -3.29882,-1.37305 -0.17603,-0.021 -0.37486,-0.0496 -0.51563,-0.0586 z m 15.49024,2.37891 c -0.19181,0.099 -0.35773,0.18827 -0.4043,0.23437 -0.23639,0.2342 0.27815,0.80215 1.24609,1.37305 1.24116,0.7322 1.98478,1.39887 2.24414,2.04687 0.39689,-0.9724 -0.35824,-1.93612 -2.24414,-3.04882 -0.35555,-0.2097 -0.62329,-0.41307 -0.84179,-0.60547 z m 8.40625,1.63672 c -1.03318,-0.07 -2.14728,0.33678 -2.99024,1.17968 -0.73336,0.7334 -0.79213,0.86254 -0.14062,1.14844 0.0537,-0.054 0.0776,-0.0849 0.14062,-0.14844 1.34874,-1.3487 3.39253,-1.57995 4.6875,-0.53125 0.24465,0.1981 0.42726,0.35986 0.55859,0.50196 0.41147,-0.5382 0.31783,-0.79421 -0.55859,-1.50391 -0.48562,-0.3932 -1.07736,-0.60478 -1.69726,-0.64648 z m -27.49024,3.19531 c -0.37638,0.024 -0.75464,0.096 -1.09375,0.22461 -0.90561,0.3443 -1.39062,1.51375 -1.13476,2.34765 0.16125,-0.5831 0.56449,-1.13085 1.13476,-1.34765 1.1105,-0.4223 2.62288,-0.23061 3.14063,0.27929 0.11628,-0.2081 0.19726,-0.41724 0.19726,-0.62304 0,-0.5863 -1.115,-0.95226 -2.24414,-0.88086 z m 3.82227,0.44922 c -0.16536,0.3386 -0.40408,0.74701 -0.68164,1.13672 -0.60745,0.8532 -0.80165,1.4748 -0.53321,1.9707 0.10516,-0.289 0.27308,-0.6053 0.53321,-0.9707 0.49477,-0.6947 0.89843,-1.47994 0.89843,-1.74414 0,-0.1216 -0.082,-0.25238 -0.21679,-0.39258 z m 19.70312,0.01 c -0.0996,-0.01 -0.18376,0.01 -0.25,0.0488 -0.34356,0.2123 -0.43241,0.97624 -0.32226,1.62304 0.0544,-0.284 0.15689,-0.51889 0.32226,-0.62109 0.41266,-0.2551 1.57797,0.49504 2.07813,1.18164 0.13868,-0.1602 0.24023,-0.32118 0.24023,-0.45508 0,-0.6323 -1.37105,-1.73164 -2.06836,-1.77734 z m -8.39844,3.76562 c -0.19151,0.1398 -0.31054,0.25366 -0.31054,0.31836 0,0.2448 0.32216,0.80013 0.71679,1.23633 0.11462,0.1266 0.20642,0.24643 0.2793,0.36133 0.32299,-0.4317 0.19449,-0.83783 -0.2793,-1.36133 -0.15835,-0.1751 -0.28722,-0.36879 -0.40625,-0.55469 z"
       id="path4151" />
    <path
       inkscape:connector-curvature="0"
       style="display:inline;fill:#f5f5f5;fill-opacity:1;fill-rule:evenodd;stroke:none;stroke-width:1px;stroke-linecap:butt;stroke-linejoin:miter;stroke-opacity:1;enable-background:new"
       d="m 167.41758,485.21618 c -1.37419,0.11467 -2.85973,1.66925 -5.83594,4.7793 -2.53135,2.6451 -4.60351,5.07398 -4.60351,5.39648 0,0.4204 0.8021,0.58594 2.83594,0.58594 H 162.65 l 1.07813,-2.58203 1.07812,-2.58203 0.6543,2.80664 c 0.36018,1.5436 0.77179,2.80609 0.91406,2.80469 0.14228,0 1.06169,-0.48803 2.04297,-1.08203 1.60928,-0.9741 1.90134,-1.02085 2.97656,-0.46485 1.18141,0.6109 1.19348,0.60182 1.48243,-1.20508 l 0.29101,-1.82422 1.56055,1.18946 c 2.8448,2.1699 1.71814,0.0931 -2.14649,-3.96094 -2.52804,-2.6508 -3.78986,-3.97599 -5.16406,-3.86133 z"
       id="path4159" />
    <path
       inkscape:connector-curvature="0"
       style="display:inline;fill:#000000;fill-opacity:0.2;enable-background:new"
       d="m 147.17149,502.72009 c -0.0422,0.14556 -0.0703,0.28113 -0.0703,0.39648 0,1.7676 1.57122,2.95913 5.46093,4.14063 1.077,0.32713 2.02379,0.66875 2.63086,0.92969 0.44726,-0.28015 0.72598,-0.53511 0.65235,-0.6543 -0.1164,-0.188 -1.59364,-0.76219 -3.28321,-1.27539 -3.42886,-1.04152 -5.05319,-2.09238 -5.39062,-3.53711 z m 41.5957,1.22851 c -0.33478,1.52976 -2.34757,2.5732 -8.14648,4.78321 -2.26056,0.8616 -4.2902,1.74544 -4.51172,1.96484 -0.14935,0.14797 0.0272,0.43492 0.40234,0.76563 0.71953,-0.36985 2.32232,-1.0513 4.10938,-1.73243 6.95411,-2.65026 8.44994,-3.63456 8.14648,-5.78125 z m -27.74414,4.13477 c -0.25485,-0.0149 -0.4466,-0.008 -0.55078,0.0273 -0.34951,0.11799 0.15249,0.53945 1.05859,1.0293 1.80698,0.21435 5.23237,1.04349 6.22657,1.54882 0.29438,-0.22134 0.42104,-0.57245 0.27148,-0.81445 -0.30085,-0.48676 -5.22188,-1.68668 -7.00586,-1.79101 z m -9.12109,3.14648 c -0.64872,0.95509 0.5286,1.83109 3.64648,2.95118 3.48419,1.25174 5.16355,2.00039 5.70313,2.5625 0.1294,-0.265 0.21679,-0.49144 0.21679,-0.60743 0,-0.6085 -1.56742,-1.38942 -5.91992,-2.95312 -2.0148,-0.72381 -3.2182,-1.34625 -3.64648,-1.95313 z m 27.69726,3.88672 c -0.35963,0.88117 -1.66332,1.77113 -3.9707,2.78516 -1.86078,0.8178 -3.38281,1.68704 -3.38281,1.93164 0,0.14639 0.13333,0.40462 0.31054,0.68164 0.53174,-0.38815 1.70422,-1.01399 3.07227,-1.61523 3.17717,-1.39628 4.46156,-2.55457 3.9707,-3.78321 z m 7.57813,0.13086 c -0.0289,0.038 -0.0381,0.0663 -0.0723,0.10742 -0.67104,0.80831 -3.20915,0.92833 -4.95117,0.23243 -0.16187,-0.0647 -0.25292,-0.10801 -0.36719,-0.15821 -0.67778,0.6875 -0.63472,0.75578 0.36719,1.15625 1.74202,0.6959 4.28013,0.57784 4.95117,-0.23047 0.38139,-0.45952 0.44295,-0.70571 0.0723,-1.10742 z m -27.69922,2.55078 c -0.6971,1.24882 -3.186,2.3881 -3.99609,1.57813 -0.14063,-0.14067 -0.22313,-0.31989 -0.28125,-0.50977 -0.15304,0.55344 -0.0879,1.13854 0.28125,1.50782 0.94484,0.9447 4.1914,-0.75852 4.1914,-2.19922 0,-0.14116 -0.0815,-0.26438 -0.19531,-0.37696 z m 20.9043,0.62305 c -0.13746,0.71838 0.0579,1.77156 0.50781,1.95313 0.3087,0.1238 0.59518,0.24172 0.63672,0.26171 0.38642,0.1814 1.49609,-0.64137 1.49609,-1.10937 0,-0.15961 -0.0986,-0.3502 -0.24023,-0.54492 -0.34615,0.39969 -0.97997,0.78576 -1.25586,0.65625 -0.0415,-0.02 -0.32802,-0.13792 -0.63672,-0.26172 -0.25869,-0.1044 -0.43099,-0.50214 -0.50781,-0.95508 z m -20.34571,1.42969 c -0.38182,1.0494 0.26781,1.65581 2.1875,2.19336 1.63745,0.4585 2.16692,0.86269 2.6543,2.02929 0.33484,0.80111 0.86679,1.56151 1.18164,1.6875 1.17504,0.4726 2.43322,0.26291 4.67188,-0.77929 2.41581,-1.12492 3.04357,-1.70785 2.50976,-2.55078 -0.32885,0.43948 -1.12439,0.90568 -2.50976,1.55078 -2.23866,1.0422 -3.49684,1.25189 -4.67188,0.77929 -0.31485,-0.12599 -0.8468,-0.88444 -1.18164,-1.68554 -0.48738,-1.1666 -1.01685,-1.57275 -2.6543,-2.03125 -1.2138,-0.33989 -1.92361,-0.70583 -2.1875,-1.19336 z"
       id="path4156" />
    <path
       style="display:inline;fill:url(#linearGradient4171-1);fill-opacity:1;stroke:none;stroke-width:2;stroke-linecap:round;stroke-linejoin:round;stroke-miterlimit:4;stroke-dasharray:none;stroke-opacity:1;enable-background:new"
       d="m 167.52825,482.02234 a 21.998641,21.998963 0 0 0 -0.42185,0.02 c -1.38969,0.204 -3.00235,1.6893 -6.2614,5.0624 -10.81677,11.1954 -13.74539,14.6048 -13.74539,16.0107 0,1.7676 1.57094,2.9591 5.46066,4.1406 1.68956,0.5132 3.16859,1.0892 3.28499,1.2772 0.11639,0.188 -0.5916,0.7053 -1.57414,1.1483 -3.736,1.6845 -3.41618,2.8137 1.27728,4.4998 4.3525,1.5637 5.92157,2.3485 5.92157,2.957 0,0.2642 -0.40752,1.0474 -0.9023,1.7421 -1.20462,1.6919 -0.79224,2.4783 1.65617,3.1639 1.63745,0.4585 2.16873,0.8645 2.65611,2.0311 0.33484,0.8011 0.86478,1.5615 1.17963,1.6875 0.2397,0.096 0.48793,0.146 0.74215,0.184 a 21.998641,21.998963 0 0 0 0.49997,0.024 c 0.88878,0 1.93141,-0.2908 3.42951,-0.9884 2.74607,-1.2787 3.18653,-1.8533 2.23036,-2.9098 -0.39464,-0.4362 -0.71481,-0.9936 -0.71481,-1.2384 0,-0.2446 1.52186,-1.1157 3.38264,-1.9335 4.85378,-2.1331 5.32126,-3.7108 1.72647,-5.8317 -0.96793,-0.5709 -1.48242,-1.1367 -1.24603,-1.3709 0.22153,-0.2194 2.25093,-1.1033 4.51149,-1.9649 7.56691,-2.8838 8.69935,-3.7812 8.05037,-6.3669 -0.3006,-1.1975 -15.90622,-18.1274 -18.50296,-20.0731 -1.04922,-0.7862 -1.83176,-1.237 -2.64049,-1.2694 z m -6.50748,27.061 c 1.78398,0.104 6.7066,1.3062 7.00746,1.7929 0.15995,0.2588 0.0122,0.6438 -0.32811,0.8594 -0.74635,0.4728 -0.63897,0.481 -2.86314,-0.2226 -2.56733,-0.8119 -5.04139,-2.1733 -4.36305,-2.4023 0.10417,-0.036 0.29199,-0.042 0.54684,-0.028 z m 23.90112,5.0154 c -1.03318,-0.07 -2.14907,0.3368 -2.99203,1.1797 -0.86165,0.8616 -0.85963,0.876 0.22264,1.3086 1.08264,0.4323 2.43318,0.5181 3.49201,0.3515 a 21.998639,21.998963 0 0 0 1.26165,-1.9335 c -0.0946,-0.084 -0.16437,-0.158 -0.28904,-0.258 -0.48562,-0.3931 -1.07532,-0.6065 -1.69523,-0.6483 z m -27.49078,3.1952 c -0.37637,0.024 -0.75458,0.098 -1.09369,0.2266 -1.11145,0.4226 -1.61362,2.0969 -0.85542,2.8553 0.94484,0.9447 4.19119,-0.7624 4.19119,-2.2031 0,-0.5862 -1.11294,-0.9502 -2.24208,-0.8788 z m 23.52614,0.457 c -0.0996,0 -0.18765,0 -0.25389,0.046 -0.5837,0.3608 -0.44041,2.3247 0.18749,2.5781 0.3087,0.124 0.59515,0.2417 0.63668,0.2617 0.38643,0.182 1.49602,-0.6413 1.49602,-1.1093 0,-0.6324 -1.36899,-1.7317 -2.0663,-1.7773 z"
       id="circle4163-3"
       inkscape:connector-curvature="0" />
    <path
       inkscape:connector-curvature="0"
       style="display:inline;fill:#000000;fill-opacity:0.2;fill-rule:evenodd;stroke:none;stroke-width:1px;stroke-linecap:butt;stroke-linejoin:miter;stroke-opacity:1;enable-background:new"
       d="m 164.80625,489.81384 -1.07812,2.58203 -1.07813,2.58203 h -2.83593 c -1.25776,0 -2.04174,-0.0632 -2.45899,-0.21094 -0.24012,0.32178 -0.37695,0.54324 -0.37695,0.625 0,0.4204 0.8021,0.58594 2.83594,0.58594 H 162.65 l 1.07813,-2.58203 1.07812,-2.58203 0.6543,2.80664 c 0.36018,1.5436 0.77179,2.80609 0.91406,2.80469 0.14228,0 1.06169,-0.48803 2.04297,-1.08203 1.60928,-0.9741 1.90134,-1.02085 2.97656,-0.46485 1.18141,0.6109 1.19348,0.60182 1.48243,-1.20508 l 0.29101,-1.82422 1.56055,1.18946 c 1.76432,1.34575 1.99462,1.05358 0.99805,-0.32617 -0.25346,-0.14145 -0.56438,-0.34305 -0.99805,-0.67383 l -1.56055,-1.18946 -0.29101,1.82422 c -0.28895,1.8069 -0.30102,1.81598 -1.48243,1.20508 -1.07522,-0.556 -1.36728,-0.50925 -2.97656,0.46485 -0.98128,0.594 -1.90069,1.08203 -2.04297,1.08203 -0.14227,0.001 -0.55388,-1.26109 -0.91406,-2.80469 z"
       id="path4152" />
    <path
       inkscape:connector-curvature="0"
       style="display:inline;fill:#4b525f;fill-opacity:1;enable-background:new"
       d="m 63.710548,505.41282 c -0.695192,0.0246 -1.464276,0.7286 -3.121094,2.44336 -5.184401,5.36587 -6.589844,7.00195 -6.589844,7.67578 0,0.8472 0.752877,1.41809 2.617188,1.98437 0.80979,0.24598 1.518418,0.52123 1.574218,0.61133 0.05578,0.0903 -0.282976,0.33845 -0.753906,0.55078 -1.790631,0.80736 -1.638213,1.35008 0.611328,2.15821 2.08612,0.74947 2.837891,1.12436 2.837891,1.41601 0,0.12663 -0.194501,0.50298 -0.431641,0.83594 -0.57737,0.81092 -0.378578,1.18703 0.794922,1.51563 0.78481,0.21976 1.037894,0.4135 1.271484,0.97265 0.16049,0.38396 0.415497,0.7482 0.566407,0.8086 0.56318,0.22651 1.165311,0.12647 2.238281,-0.37305 1.31616,-0.61287 1.528592,-0.89012 1.070312,-1.39649 -0.18915,-0.20907 -0.34375,-0.47446 -0.34375,-0.59179 0,-0.11723 0.729244,-0.53382 1.621094,-0.92578 2.32638,-1.02238 2.551086,-1.78034 0.828125,-2.79688 -0.46392,-0.27362 -0.710956,-0.544 -0.597656,-0.65625 0.10618,-0.10516 1.078649,-0.5304 2.162109,-0.94336 3.626771,-1.38218 4.168472,-1.80952 3.857422,-3.04883 -0.14408,-0.57395 -7.622597,-8.68853 -8.867187,-9.62109 -0.537736,-0.40294 -0.928589,-0.63392 -1.345703,-0.61914 z m -3.03711,12.97851 c 0.855046,0.05 3.213231,0.62608 3.357422,0.85938 0.07667,0.12404 0.0049,0.31072 -0.158203,0.41406 -0.357721,0.22661 -0.305064,0.22981 -1.371094,-0.10742 -1.2305,-0.38913 -2.416917,-1.04258 -2.091797,-1.15234 0.04993,-0.0169 0.141523,-0.0208 0.263672,-0.0137 z m 11.453125,2.4043 c -0.495195,-0.0333 -1.029569,0.1624 -1.433594,0.56641 -0.41298,0.41296 -0.411298,0.41961 0.107422,0.62695 0.83494,0.33354 2.051427,0.27608 2.373047,-0.11133 0.24759,-0.29831 0.214645,-0.40789 -0.234375,-0.77148 -0.232751,-0.18849 -0.515383,-0.29055 -0.8125,-0.31055 z m -13.175781,1.53125 c -0.180396,0.0114 -0.360908,0.0476 -0.523438,0.10938 -0.53271,0.20255 -0.773556,1.00368 -0.410156,1.36718 0.45285,0.45279 2.007813,-0.36221 2.007813,-1.05273 0,-0.28104 -0.533032,-0.45802 -1.074219,-0.42383 z m 11.27539,0.21875 c -0.04774,-0.003 -0.08935,0.004 -0.121093,0.0234 -0.279741,0.17293 -0.211107,1.11292 0.08984,1.23437 0.14796,0.0593 0.284788,0.11696 0.304688,0.12696 0.18521,0.0869 0.716797,-0.3089 0.716797,-0.53321 0,-0.30303 -0.656023,-0.82969 -0.990235,-0.85156 z"
       id="path4464" />
    <path
       style="display:inline;fill:#ffffff;fill-opacity:0.2;stroke:none;stroke-width:2;stroke-linecap:round;stroke-linejoin:round;stroke-miterlimit:4;stroke-dasharray:none;stroke-opacity:1;enable-background:new"
       d="M 63.791016 505.42188 A 10.543776 10.543928 0 0 0 63.587891 505.43164 C 62.921821 505.52944 62.149921 506.24266 60.587891 507.85938 C 55.40349 513.22524 54 514.85936 54 515.5332 C 54 515.73768 54.045908 515.92544 54.138672 516.10156 C 54.57295 515.21474 56.245223 513.35404 60.587891 508.85938 C 62.149921 507.24266 62.921821 506.52944 63.587891 506.43164 A 10.543776 10.543928 0 0 1 63.791016 506.42188 L 63.791016 506.42383 C 64.178636 506.43936 64.553761 506.65443 65.056641 507.03125 C 66.287586 507.95357 73.590563 515.87594 73.890625 516.60547 C 74.016952 516.32857 74.018484 516.02948 73.923828 515.65234 C 73.779758 515.07839 66.301241 506.9638 65.056641 506.03125 C 64.553761 505.65443 64.178636 505.43936 63.791016 505.42383 L 63.791016 505.42188 z "
       id="path4536" />
    <path
       inkscape:connector-curvature="0"
       style="display:inline;fill:#000000;fill-opacity:0.2;fill-rule:evenodd;stroke:none;stroke-width:1px;stroke-linecap:butt;stroke-linejoin:miter;stroke-opacity:1;filter:url(#filter4645);enable-background:new"
       d="m 64.217382,508.43233 c -0.658641,0.055 -1.370651,0.80008 -2.797121,2.29068 -1.21326,1.26777 -2.20643,2.43192 -2.20643,2.5865 0,0.20149 0.38444,0.28086 1.35924,0.28086 h 1.35925 l 0.51673,-1.23758 0.51674,-1.23753 0.3136,1.34518 c 0.17263,0.73984 0.36991,1.34494 0.438101,1.34427 0.0682,0 0.50886,-0.23389 0.97918,-0.51859 0.77132,-0.46688 0.9113,-0.48926 1.42664,-0.22278 0.56624,0.2928 0.57202,0.28844 0.71051,-0.57759 l 0.13949,-0.87433 0.74795,0.57007 c 1.36349,1.04002 0.8235,0.0446 -1.02879,-1.89843 -1.21167,-1.2705 -1.81645,-1.90566 -2.47509,-1.85073 z"
       id="path4466" />
    <path
       id="path4470"
       d="m 63.737852,507.95296 c -0.658641,0.055 -1.370641,0.80006 -2.797121,2.29068 -1.21325,1.26777 -2.20642,2.43192 -2.20642,2.58649 0,0.20149 0.38444,0.28083 1.35924,0.28083 h 1.35924 l 0.51674,-1.23754 0.51673,-1.23755 0.3136,1.3452 c 0.17263,0.73984 0.36992,1.34494 0.4381,1.34427 0.0682,0 0.508861,-0.23391 0.979181,-0.51861 0.77132,-0.46688 0.9113,-0.48929 1.42665,-0.2228 0.56624,0.2928 0.57202,0.28845 0.71051,-0.57759 l 0.13948,-0.87433 0.74796,0.5701 c 1.36349,1.04001 0.82349,0.0446 -1.0288,-1.89845 -1.21166,-1.27051 -1.81645,-1.90566 -2.47509,-1.8507 z"
       style="display:inline;fill:#f5f5f5;fill-opacity:1;fill-rule:evenodd;stroke:none;stroke-width:1px;stroke-linecap:butt;stroke-linejoin:miter;stroke-opacity:1;enable-background:new"
       inkscape:connector-curvature="0" />
    <path
       inkscape:connector-curvature="0"
       id="path4474"
       d="m 63.791282,505.43536 a 10.543776,10.543928 0 0 0 -0.202181,0.01 c -0.66607,0.0978 -1.43901,0.80967 -3.00104,2.42637 C 55.40366,513.2376 54,514.87169 54,515.54553 c 0,0.8472 0.75294,1.41827 2.61725,1.98456 0.809791,0.24597 1.518681,0.52204 1.574471,0.61215 0.0558,0.0901 -0.28355,0.33804 -0.75447,0.55037 -1.790641,0.80737 -1.637351,1.34858 0.61219,2.15672 2.08612,0.74947 2.83816,1.12562 2.83816,1.41727 0,0.12662 -0.19532,0.50201 -0.43247,0.83497 -0.57736,0.81091 -0.37971,1.18783 0.79379,1.51643 0.78482,0.21976 1.03946,0.41435 1.27306,0.97349 0.16048,0.38396 0.41448,0.74842 0.56538,0.80881 0.11489,0.046 0.23386,0.07 0.35571,0.0882 a 10.543776,10.543928 0 0 0 0.239631,0.0115 c 0.42599,0 0.92571,-0.13938 1.64374,-0.47373 1.31617,-0.61287 1.52728,-0.88827 1.06899,-1.39465 -0.18915,-0.20906 -0.3426,-0.47622 -0.3426,-0.59355 0,-0.11724 0.72941,-0.53475 1.62127,-0.92671 2.32638,-1.02238 2.550441,-1.77856 0.82749,-2.79509 -0.46393,-0.27363 -0.71052,-0.54481 -0.59722,-0.65706 0.10618,-0.10516 1.07886,-0.5288 2.16232,-0.94176 3.626761,-1.38219 4.169531,-1.8123 3.858481,-3.05161 -0.14407,-0.57395 -7.623721,-8.68832 -8.868321,-9.62087 -0.50288,-0.37682 -0.87795,-0.59289 -1.26557,-0.60842 z m -3.118981,12.97012 c 0.85505,0.0498 3.214421,0.62605 3.358621,0.85932 0.0767,0.12404 0.006,0.30857 -0.15726,0.4119 -0.357721,0.22661 -0.306251,0.23054 -1.372281,-0.10669 -1.2305,-0.38913 -2.4163,-1.04164 -2.09117,-1.1514 0.0499,-0.0172 0.13994,-0.0201 0.26209,-0.0134 z m 11.455622,2.40384 c -0.4952,-0.0335 -1.03003,0.16142 -1.43406,0.56542 -0.41298,0.41296 -0.41201,0.41986 0.10671,0.6272 0.5189,0.2072 1.16621,0.24832 1.67369,0.16847 a 10.543775,10.543928 0 0 0 0.6047,-0.92671 c -0.0453,-0.0403 -0.0788,-0.0757 -0.13853,-0.12366 -0.23276,-0.18841 -0.51539,-0.29069 -0.81251,-0.31072 z m -13.176112,1.53143 c -0.1804,0.0115 -0.36167,0.047 -0.5242,0.10861 -0.53271,0.20255 -0.7734,1.00503 -0.41,1.36852 0.45286,0.45279 2.00881,-0.36541 2.00881,-1.05593 0,-0.28096 -0.53343,-0.45542 -1.07461,-0.4212 z m 11.275892,0.21904 c -0.0477,0 -0.0899,0 -0.121691,0.022 -0.27976,0.17293 -0.21108,1.11421 0.0899,1.23566 0.14796,0.0594 0.28525,0.11584 0.30516,0.12543 0.18521,0.0872 0.71703,-0.30737 0.71703,-0.53168 0,-0.3031 -0.65615,-0.82999 -0.99036,-0.85184 z"
       style="display:inline;fill:url(#linearGradient4478);fill-opacity:1;stroke:none;stroke-width:2;stroke-linecap:round;stroke-linejoin:round;stroke-miterlimit:4;stroke-dasharray:none;stroke-opacity:1;enable-background:new" />
    <path
       inkscape:connector-curvature="0"
       style="display:inline;fill:#4b525f;fill-opacity:1;enable-background:new"
       d="m 23.76719,512.00071 c -0.52744,0.0187 -1.11211,0.55446 -2.36914,1.85547 -3.93341,4.07116 -4.99805,5.31101 -4.99805,5.82226 0,0.64278 0.57188,1.07622 1.98633,1.50586 0.61439,0.18663 1.15102,0.39645 1.19336,0.46485 0.0423,0.0685 -0.21497,0.25491 -0.57227,0.41601 -1.35855,0.61255 -1.24188,1.02358 0.46485,1.63672 1.58274,0.56863 2.15234,0.85489 2.15234,1.07617 0,0.0961 -0.14625,0.3802 -0.32617,0.63282 -0.43805,0.61526 -0.28877,0.90108 0.60156,1.15039 0.59544,0.16673 0.78762,0.31404 0.96484,0.73828 0.12177,0.29131 0.3152,0.56748 0.42969,0.61328 0.42729,0.17186 0.88516,0.0958 1.69922,-0.2832 0.99857,-0.46499 1.15824,-0.67441 0.81055,-1.0586 -0.14351,-0.15863 -0.25977,-0.36022 -0.25977,-0.44922 0,-0.089 0.55187,-0.40573 1.22852,-0.70312 1.76502,-0.77569 1.93611,-1.34984 0.6289,-2.12109 -0.35197,-0.20761 -0.53908,-0.41285 -0.45312,-0.49805 0.0806,-0.0798 0.8186,-0.40153 1.64062,-0.71485 2.75164,-1.04868 3.16373,-1.37417 2.92774,-2.31445 -0.10932,-0.43547 -5.78425,-6.59323 -6.72852,-7.30078 -0.40798,-0.30572 -0.70502,-0.47997 -1.02148,-0.46875 z m -2.50391,9.85742 c 0.30306,-0.10229 2.62107,0.44029 2.7461,0.64258 0.0582,0.0941 0.005,0.2341 -0.11915,0.3125 -0.2714,0.17191 -0.23221,0.17578 -1.04101,-0.0801 -0.93358,-0.29524 -1.83261,-0.7917 -1.58594,-0.875 z m 8.66211,1.82031 c -0.30588,0.0347 -0.61415,0.17861 -0.85937,0.42383 -0.31333,0.31332 -0.31348,0.3173 0.0801,0.47461 0.63346,0.25303 1.55676,0.20995 1.80078,-0.084 0.18784,-0.22633 0.16293,-0.30813 -0.17774,-0.58399 -0.23545,-0.19068 -0.53787,-0.26519 -0.84375,-0.23047 z m -9.76953,1.15625 c -0.13687,0.009 -0.27317,0.0351 -0.39648,0.082 -0.40417,0.15367 -0.58822,0.7613 -0.3125,1.0371 0.34357,0.34354 1.52539,-0.27492 1.52539,-0.79882 0,-0.21321 -0.40581,-0.34625 -0.81641,-0.32032 z m 8.46289,0.1836 c -0.21224,0.13121 -0.15997,0.84335 0.0684,0.93554 0.11226,0.045 0.21537,0.0877 0.23047,0.0957 0.14052,0.066 0.54492,-0.23216 0.54492,-0.40235 0,-0.26276 -0.65105,-0.74802 -0.84375,-0.6289 z"
       id="path4499" />
    <path
       id="path4501"
       d="m 24.19586,515.12461 c -0.49972,0.0417 -1.03993,0.60703 -2.12221,1.73797 -0.92051,0.96188 -1.67404,1.84514 -1.67404,1.96242 0,0.15287 0.29168,0.21309 1.03127,0.21309 h 1.03128 l 0.39205,-0.93897 0.39206,-0.93893 0.23793,1.02061 c 0.13097,0.56132 0.28065,1.02042 0.33239,1.01991 0.0517,0 0.38608,-0.17745 0.74291,-0.39346 0.58521,-0.35423 0.69142,-0.37121 1.08241,-0.16902 0.42962,0.22215 0.434,0.21884 0.53907,-0.43823 l 0.10584,-0.66337 0.56748,0.43252 c 1.03449,0.78908 0.62479,0.0338 -0.78056,-1.44037 -0.91931,-0.96394 -1.37816,-1.44585 -1.87788,-1.40417 z"
       style="display:inline;fill:#000000;fill-opacity:0.2;fill-rule:evenodd;stroke:none;stroke-width:1px;stroke-linecap:butt;stroke-linejoin:miter;stroke-opacity:1;enable-background:new"
       inkscape:connector-curvature="0" />
    <path
       inkscape:connector-curvature="0"
       style="display:inline;fill:#f5f5f5;fill-opacity:1;fill-rule:evenodd;stroke:none;stroke-width:1px;stroke-linecap:butt;stroke-linejoin:miter;stroke-opacity:1;enable-background:new"
       d="m 23.78801,514.16955 c -0.49971,0.0417 -1.0399,0.60702 -2.12217,1.73798 -0.92049,0.96187 -1.67401,1.84513 -1.67401,1.96241 0,0.15287 0.29167,0.21307 1.03125,0.21307 h 1.03126 l 0.39205,-0.93894 0.39204,-0.93895 0.23793,1.02062 c 0.13097,0.56133 0.28066,1.02043 0.33239,1.01992 0.0518,0 0.38607,-0.17747 0.7429,-0.39348 0.5852,-0.35423 0.69141,-0.37123 1.0824,-0.16904 0.42961,0.22215 0.43399,0.21885 0.53906,-0.43823 l 0.10583,-0.66336 0.56747,0.43254 c 1.03448,0.78907 0.62479,0.0338 -0.78055,-1.44038 -0.91928,-0.96396 -1.37813,-1.44586 -1.87785,-1.40416 z"
       id="path4505" />
    <path
       inkscape:connector-curvature="0"
       style="display:inline;fill:#4b525f;fill-opacity:1;enable-background:new"
       d="m 111.59531,497.27805 c -0.97327,0.0345 -2.05154,1.02122 -4.37109,3.42188 -7.258162,7.51221 -9.22461,9.80078 -9.22461,10.74414 0,1.18608 1.054029,1.9865 3.66406,2.7793 1.13371,0.34437 2.12501,0.72932 2.20313,0.85546 0.0781,0.12642 -0.39734,0.47228 -1.05664,0.76954 -2.50689,1.13031 -2.28998,1.89009 0.85937,3.02148 2.92057,1.04925 3.97266,1.57411 3.97266,1.98242 0,0.17728 -0.27152,0.70377 -0.60352,1.16992 -0.80832,1.13528 -0.53353,1.66301 1.10938,2.12305 1.09873,0.30766 1.45422,0.58047 1.78125,1.36328 0.22468,0.53754 0.58169,1.04626 0.79297,1.13086 0.78846,0.31711 1.6326,0.17588 3.13476,-0.52344 1.84262,-0.85802 2.13965,-1.24421 1.49805,-1.95312 -0.26481,-0.2927 -0.48242,-0.66582 -0.48242,-0.83008 0,-0.16412 1.02093,-0.74813 2.26953,-1.29687 3.25693,-1.43133 3.57034,-2.49092 1.1582,-3.91407 -0.64949,-0.38307 -0.99456,-0.76277 -0.83594,-0.91992 0.14866,-0.14722 1.51245,-0.74021 3.0293,-1.31836 5.07747,-1.93505 5.83586,-2.53449 5.40039,-4.26953 -0.20171,-0.80353 -10.67359,-12.16511 -12.41601,-13.4707 -0.75284,-0.56412 -1.29886,-0.88593 -1.88282,-0.86524 z m 2.375,3.58204 c 0.33266,0.33257 0.70432,0.72081 1.12891,1.16601 -0.42408,-0.44468 -0.79658,-0.83372 -1.12891,-1.16601 z m -4.8125,4.0625 -0.72265,1.73242 h -0.002 z m -1.8164,10.52539 c 1.19706,0.07 4.49931,0.8765 4.70117,1.20312 0.10734,0.17365 0.01,0.43346 -0.21875,0.57813 -0.50081,0.31726 -0.42944,0.32369 -1.92188,-0.14844 -1.7227,-0.54478 -3.38485,-1.45961 -2.92968,-1.61328 0.0699,-0.0236 0.19813,-0.0295 0.36914,-0.0195 z m 16.03711,3.36523 c -0.69328,-0.0466 -1.44218,0.22735 -2.00782,0.79297 -0.57817,0.57814 -0.57582,0.58667 0.15039,0.87695 1.16891,0.46695 2.872,0.38808 3.32227,-0.1543 0.34662,-0.41763 0.30051,-0.57105 -0.32813,-1.08007 -0.32585,-0.26389 -0.72075,-0.40756 -1.13671,-0.43555 z m -18.44727,2.14453 c -0.25255,0.016 -0.50683,0.0658 -0.73437,0.15235 -0.7458,0.28356 -1.08103,1.40711 -0.57227,1.91601 0.63399,0.6339 2.8125,-0.50984 2.8125,-1.47656 0,-0.39349 -0.7482,-0.63967 -1.50586,-0.5918 z m 15.78516,0.30664 c -0.0669,-0.004 -0.12352,0.006 -0.16797,0.0332 -0.39164,0.24209 -0.29633,1.55848 0.125,1.72851 0.20715,0.0831 0.39788,0.16178 0.42578,0.17578 0.25929,0.12171 1.00391,-0.43206 1.00391,-0.74609 0,-0.42426 -0.91882,-1.16079 -1.38672,-1.19141 z"
       id="path4409" />
    <path
       id="path4411"
       d="m 112.30449,501.1053 c -0.9221,0.077 -1.91891,1.12011 -3.91597,3.20695 -1.69856,1.77488 -3.089,3.40469 -3.089,3.6211 0,0.28208 0.53822,0.3932 1.90294,0.3932 h 1.90295 l 0.72342,-1.73261 0.72343,-1.73254 0.43904,1.88325 c 0.24169,1.03578 0.51788,1.88292 0.61335,1.88198 0.0955,0 0.7124,-0.32745 1.37085,-0.72603 1.07985,-0.65363 1.27582,-0.68496 1.99729,-0.31189 0.79274,0.40992 0.80083,0.40382 0.99472,-0.80863 l 0.19528,-1.22406 1.04713,0.7981 c 1.90889,1.45603 1.1529,0.0624 -1.4403,-2.6578 -1.69634,-1.7787 -2.54303,-2.66793 -3.46513,-2.59102 z"
       style="display:inline;fill:#000000;fill-opacity:0.2;fill-rule:evenodd;stroke:none;stroke-width:1px;stroke-linecap:butt;stroke-linejoin:miter;stroke-opacity:1;filter:url(#filter4629);enable-background:new"
       inkscape:connector-curvature="0" />
    <path
       inkscape:connector-curvature="0"
       style="display:inline;fill:#f5f5f5;fill-opacity:1;fill-rule:evenodd;stroke:none;stroke-width:1px;stroke-linecap:butt;stroke-linejoin:miter;stroke-opacity:1;enable-background:new"
       d="m 111.63315,500.43418 c -0.9221,0.077 -1.9189,1.12008 -3.91597,3.20695 -1.69855,1.77488 -3.08899,3.40469 -3.08899,3.62109 0,0.28208 0.53822,0.39316 1.90294,0.39316 h 1.90293 l 0.72344,-1.73256 0.72342,-1.73257 0.43904,1.88328 c 0.24168,1.03578 0.51789,1.88292 0.61334,1.88198 0.0955,0 0.71241,-0.32747 1.37085,-0.72605 1.07985,-0.65364 1.27582,-0.68501 1.99731,-0.31192 0.79274,0.40992 0.80083,0.40383 0.99472,-0.80863 l 0.19527,-1.22406 1.04714,0.79814 c 1.90889,1.45601 1.15289,0.0624 -1.44032,-2.65783 -1.69632,-1.77872 -2.54303,-2.66793 -3.46512,-2.59098 z"
       id="path4415" />
    <path
       style="display:inline;fill:url(#linearGradient4423);fill-opacity:1;stroke:none;stroke-width:2;stroke-linecap:round;stroke-linejoin:round;stroke-miterlimit:4;stroke-dasharray:none;stroke-opacity:1;enable-background:new"
       d="m 111.70741,497.29085 a 14.761286,14.761499 0 0 0 -0.28306,0.014 c -0.9325,0.13692 -2.01461,1.13353 -4.20146,3.39691 -7.258156,7.51222 -9.22328,9.79995 -9.22328,10.74332 0,1.18608 1.054116,1.98558 3.66415,2.77839 1.13371,0.34436 2.12615,0.73085 2.20426,0.85701 0.0781,0.12614 -0.39697,0.47325 -1.05626,0.77052 -2.5069,1.13031 -2.29229,1.88801 0.85707,3.0194 2.92056,1.04926 3.97342,1.57587 3.97342,1.98418 0,0.17727 -0.27345,0.70282 -0.60546,1.16896 -0.8083,1.13527 -0.53159,1.66296 1.11131,2.123 1.09875,0.30767 1.45524,0.58009 1.78228,1.36289 0.22468,0.53754 0.58027,1.04779 0.79154,1.13233 0.16084,0.0644 0.3274,0.098 0.49799,0.12348 a 14.761286,14.761499 0 0 0 0.33548,0.0161 c 0.59639,0 1.296,-0.19513 2.30124,-0.66322 1.84264,-0.85802 2.13819,-1.24358 1.49659,-1.95251 -0.26481,-0.29268 -0.47965,-0.66671 -0.47965,-0.83097 0,-0.16414 1.02118,-0.74865 2.26978,-1.29739 3.25694,-1.43134 3.57062,-2.48999 1.15849,-3.91313 -0.6495,-0.38308 -0.99473,-0.76273 -0.83611,-0.91988 0.14865,-0.14723 1.5104,-0.74032 3.02725,-1.31847 5.07746,-1.93506 5.83734,-2.53722 5.40187,-4.27225 -0.2017,-0.80353 -10.67321,-12.16365 -12.41565,-13.46922 -0.70403,-0.52755 -1.22913,-0.83005 -1.7718,-0.85179 z m -4.36658,18.15816 c 1.19707,0.0697 4.50019,0.87647 4.70207,1.20305 0.10738,0.17366 0.008,0.432 -0.22016,0.57666 -0.50081,0.31726 -0.42876,0.32276 -1.9212,-0.14936 -1.7227,-0.54479 -3.38282,-1.4583 -2.92764,-1.61196 0.0699,-0.0241 0.19592,-0.0281 0.36693,-0.0188 z m 16.03787,3.36538 c -0.69328,-0.0469 -1.44204,0.22599 -2.00768,0.79159 -0.57817,0.57814 -0.57682,0.5878 0.14939,0.87808 0.72646,0.29008 1.6327,0.34765 2.34317,0.23586 a 14.761285,14.761499 0 0 0 0.84658,-1.2974 c -0.0634,-0.0564 -0.11032,-0.10598 -0.19394,-0.17312 -0.32587,-0.26378 -0.72155,-0.40697 -1.13752,-0.43501 z m -18.44656,2.144 c -0.25256,0.0161 -0.50633,0.0658 -0.73388,0.15206 -0.74579,0.28357 -1.08276,1.40704 -0.574,1.91592 0.63401,0.63391 2.81234,-0.51157 2.81234,-1.4783 0,-0.39334 -0.7468,-0.63759 -1.50446,-0.58968 z m 15.78625,0.30666 c -0.0668,0 -0.12586,0 -0.17036,0.0308 -0.39167,0.2421 -0.29552,1.55989 0.12586,1.72992 0.20714,0.0832 0.39935,0.16218 0.42722,0.1756 0.25929,0.12208 1.00384,-0.43031 1.00384,-0.74435 0,-0.42434 -0.91861,-1.16198 -1.3865,-1.19257 z"
       id="path4419"
       inkscape:connector-curvature="0" />
    <path
       style="display:inline;fill:#000000;fill-opacity:0.2;fill-rule:evenodd;stroke:none;stroke-width:1px;stroke-linecap:butt;stroke-linejoin:miter;stroke-opacity:1;enable-background:new"
       d="m 109.88047,503.1904 -0.72266,1.73243 -0.72461,1.73242 h -1.90234 c -0.66204,0 -1.12179,-0.0268 -1.42773,-0.0859 -0.27452,0.34555 -0.47461,0.62042 -0.47461,0.69336 0,0.28208 0.53762,0.39258 1.90234,0.39258 h 1.90234 l 0.72461,-1.73242 0.72266,-1.73243 0.43945,1.88282 c 0.24168,1.03578 0.51783,1.88375 0.61328,1.88281 0.0955,0 0.71266,-0.32798 1.3711,-0.72656 1.07985,-0.65364 1.27655,-0.68559 1.99804,-0.3125 0.79274,0.40992 0.80025,0.40386 0.99415,-0.8086 l 0.19531,-1.22265 1.04687,0.79687 c 1.4364,1.09561 1.35965,0.57431 0.13086,-0.9082 -0.0487,-0.0359 -0.0781,-0.0516 -0.13086,-0.0918 l -1.04687,-0.79687 -0.19531,1.22461 c -0.1939,1.21245 -0.20141,1.21851 -0.99415,0.80859 -0.72149,-0.37309 -0.91819,-0.34309 -1.99804,0.31055 -0.65844,0.39858 -1.2756,0.72656 -1.3711,0.72656 -0.0954,9.4e-4 -0.3716,-0.84703 -0.61328,-1.88281 l -0.43945,-1.88282 z"
       id="path4458"
       inkscape:connector-curvature="0" />
    <path
       inkscape:connector-curvature="0"
       style="display:inline;fill:#000000;fill-opacity:0.2;enable-background:new"
       d="m 98.105079,511.01048 c -0.07034,0.17136 -0.105469,0.31369 -0.105469,0.43359 0,1.18608 1.054029,1.9865 3.66406,2.7793 0.53367,0.1621 1.01996,0.33149 1.41016,0.48046 0.49312,-0.25616 0.8583,-0.51923 0.79297,-0.625 -0.0781,-0.12614 -1.06942,-0.51109 -2.20313,-0.85546 -2.169468,-0.65898 -3.250894,-1.32659 -3.558591,-2.21289 z m 27.820311,0.78906 c -0.30665,0.96036 -1.70021,1.66191 -5.43164,3.08398 -1.51685,0.57815 -2.88064,1.17114 -3.0293,1.31836 -0.1317,0.13049 0.098,0.41645 0.54688,0.72852 0.53244,-0.25915 1.37942,-0.62647 2.48242,-1.04688 4.88172,-1.86045 5.75733,-2.49645 5.43164,-4.08398 z m -18.58398,2.64844 c -0.17101,-0.01 -0.29924,-0.004 -0.36914,0.0195 -0.36025,0.12162 0.61635,0.71401 1.88867,1.22851 0.98982,0.19898 2.0536,0.46391 2.67969,0.69922 0.0818,-0.038 0.16612,-0.0918 0.2832,-0.16601 0.22838,-0.14467 0.32609,-0.40448 0.21875,-0.57813 -0.20186,-0.32662 -3.50411,-1.13311 -4.70117,-1.20312 z m -5.96875,2.28125 c -0.69137,0.70505 0.0319,1.32693 2.29687,2.14062 2.1255,0.76361 3.24024,1.24588 3.70117,1.61133 0.15417,-0.27505 0.27149,-0.52078 0.27149,-0.62891 0,-0.40831 -1.05209,-0.93317 -3.97266,-1.98242 -1.16582,-0.41882 -1.92438,-0.78618 -2.29687,-1.14062 z m 18.35742,2.60156 c -0.32631,0.53847 -1.18166,1.08708 -2.58789,1.70508 -1.2486,0.54874 -2.26953,1.13275 -2.26953,1.29687 0,0.13794 0.16725,0.42032 0.37304,0.68164 0.40127,-0.26129 1.08389,-0.62139 1.89649,-0.97851 2.27395,-0.99934 3.10949,-1.81807 2.58789,-2.70508 z m 4.99023,0.0996 c -0.57299,0.44459 -2.11143,0.48727 -3.19922,0.0527 -0.002,-7e-4 -0.002,-10e-4 -0.004,-0.002 -0.0485,0.0423 -0.10025,0.0788 -0.14649,0.125 -0.57817,0.57814 -0.57582,0.58667 0.15039,0.87695 1.16891,0.46695 2.872,0.38808 3.32227,-0.1543 0.29801,-0.35905 0.28024,-0.53621 -0.12305,-0.89843 z m -18.5664,1.75 c -0.60203,0.74579 -2.03247,1.34246 -2.5293,0.8457 -0.0532,-0.0532 -0.0917,-0.11666 -0.12695,-0.18164 -0.17106,0.41637 -0.15923,0.89538 0.12695,1.18164 0.63399,0.6339 2.8125,-0.50984 2.8125,-1.47656 0,-0.14725 -0.11252,-0.27097 -0.2832,-0.36914 z m 14.22851,0.36133 c -0.17342,0.46121 -0.0508,1.34643 0.29102,1.48437 0.20715,0.0831 0.39788,0.16178 0.42578,0.17578 0.25929,0.12171 1.00391,-0.43206 1.00391,-0.74609 0,-0.15616 -0.14162,-0.34881 -0.32227,-0.53906 -0.23559,0.2003 -0.5335,0.35469 -0.68164,0.28515 -0.0279,-0.014 -0.21863,-0.0927 -0.42578,-0.17578 -0.14035,-0.0566 -0.22905,-0.25541 -0.29102,-0.48437 z m -13.61133,0.91601 c -0.43328,0.8423 -0.0387,1.2911 1.37696,1.6875 1.09873,0.30766 1.45422,0.58047 1.78125,1.36328 0.22468,0.53754 0.58169,1.04626 0.79297,1.13086 0.78846,0.31711 1.6326,0.17588 3.13476,-0.52344 1.78928,-0.83318 2.11275,-1.2236 1.54297,-1.89453 -0.27161,0.25499 -0.76125,0.53052 -1.54297,0.89453 -1.50216,0.69932 -2.3463,0.84055 -3.13476,0.52344 -0.21128,-0.0846 -0.56829,-0.59332 -0.79297,-1.13086 -0.32703,-0.78281 -0.68252,-1.05562 -1.78125,-1.36328 -0.71545,-0.20034 -1.15656,-0.41689 -1.37696,-0.6875 z"
       id="path4463" />
    <path
       inkscape:connector-curvature="0"
       style="display:inline;fill:#ffffff;fill-opacity:0.2;enable-background:new"
       d="m 111.59531,497.27805 c -0.97327,0.0345 -2.05154,1.02122 -4.37109,3.42188 -7.258162,7.51221 -9.22461,9.80078 -9.22461,10.74414 0,0.20021 0.04298,0.38642 0.105469,0.56641 0.48309,-1.1769 2.783491,-3.75314 9.119141,-10.31055 3.71128,-3.84106 4.24636,-4.06096 6.25391,-2.55664 1.74242,1.30559 12.2143,12.66717 12.41601,13.4707 0.0168,0.0669 0.0182,0.12189 0.0312,0.18555 0.11062,-0.34643 0.0842,-0.72559 -0.0312,-1.18555 -0.20171,-0.80353 -10.67359,-12.16511 -12.41601,-13.4707 -0.75284,-0.56412 -1.29886,-0.88593 -1.88282,-0.86524 z m -8.52343,18.42383 c -0.0958,0.0497 -0.15464,0.0982 -0.26172,0.14649 -1.57889,0.71189 -2.07125,1.2778 -1.4375,1.88086 0.26993,-0.27528 0.73356,-0.56152 1.4375,-0.87891 0.6593,-0.29726 1.13473,-0.64504 1.05664,-0.77149 -0.0414,-0.0669 -0.35513,-0.20912 -0.79492,-0.37695 z m 4.26953,0.7461 c -0.17101,-0.01 -0.29924,-0.004 -0.36914,0.0195 -0.45517,0.15367 1.20698,1.0685 2.92968,1.61328 1.49244,0.47213 1.42107,0.4657 1.92188,0.14844 0.22838,-0.14467 0.32609,-0.40448 0.21875,-0.57813 -0.0415,-0.0672 -0.24333,-0.15866 -0.50195,-0.25586 -0.26815,0.12449 -0.49514,0.0473 -1.63868,-0.31445 -0.35926,-0.11361 -0.70576,-0.2492 -1.04101,-0.38477 -0.58887,-0.11837 -1.16487,-0.2273 -1.51953,-0.24804 z m 10.66992,1.48242 c -0.19977,0.0972 -0.50632,0.23132 -0.54688,0.27148 -0.15862,0.15715 0.18645,0.53881 0.83594,0.92188 0.72815,0.4296 1.20427,0.82548 1.42969,1.20898 0.43081,-0.70911 -0.0582,-1.40177 -1.42969,-2.21094 -0.11008,-0.0649 -0.19742,-0.1277 -0.28906,-0.1914 z m 5.36719,0.88281 c -0.69328,-0.0466 -1.44218,0.22735 -2.00782,0.79297 -0.57676,0.57673 -0.57445,0.58678 0.14649,0.875 0.90154,-0.78583 2.1735,-0.90016 2.99804,-0.23242 0.0882,0.0714 0.1393,0.12256 0.20508,0.18164 0.0427,-0.0332 0.0918,-0.0639 0.12305,-0.10157 0.34662,-0.41763 0.30052,-0.57105 -0.32813,-1.08007 -0.32585,-0.26389 -0.72075,-0.40756 -1.13671,-0.43555 z m -18.44727,2.14453 c -0.25255,0.016 -0.50683,0.0658 -0.73437,0.15235 -0.66783,0.25392 -1.00085,1.1778 -0.69922,1.73437 0.13304,-0.32385 0.37293,-0.61031 0.69922,-0.73437 0.65445,-0.24887 1.51937,-0.18107 1.95703,0.0703 0.16665,-0.20618 0.2832,-0.4214 0.2832,-0.63086 0,-0.39349 -0.7482,-0.63967 -1.50586,-0.5918 z m 15.78516,0.30664 c -0.0669,-0.004 -0.12352,0.006 -0.16797,0.0332 -0.26119,0.16145 -0.29008,0.78572 -0.16602,1.24414 0.0403,-0.10728 0.0921,-0.19846 0.16602,-0.24414 0.24106,-0.14902 0.85217,0.21867 1.23242,0.61914 0.17677,-0.1503 0.32227,-0.32632 0.32227,-0.46094 0,-0.42426 -0.91882,-1.16079 -1.38672,-1.19141 z"
       id="path4471" />
    <path
       inkscape:connector-curvature="0"
       id="path4425"
       d="m 439.56592,506.2261 c -3.38048,-1.3536 -9.08736,-9.51216 -12.68224,-18.1128 -5.23248,-12.52496 -10.91648,-16.87088 -28.49616,-21.79344 -26.2864,-7.36064 -30.70592,-15.80576 -17.77288,-33.97024 5.31192,-7.4584 9.65824,-15.88416 9.65824,-18.72064 0,-6.53296 -16.83448,-14.93728 -63.5636,-31.72528 -50.38976,-18.10224 -53.838,-30.24272 -13.72784,-48.32768 10.5488,-4.75616 18.15696,-10.30128 16.90752,-12.324 -1.24992,-2.01824 -17.11336,-8.18512 -35.25272,-13.69504 -41.76056,-12.6848 -58.62776,-25.4704 -58.62776,-44.44768 0,-15.09376 31.45184,-51.732 147.58248,-171.927358 59.3804,-61.45704 67.9524,-64.9612 100.0732,-40.89208 27.87872,20.88944 195.4144,202.653358 198.64176,215.509838 6.96752,27.76064 -5.17152,37.35872 -86.41104,68.31952 -24.2696,9.2504 -46.07232,18.7464 -48.45088,21.10192 -2.53792,2.5144 2.98976,8.60192 13.3816,14.73104 38.59424,22.7704 33.5792,39.7152 -18.53168,62.61648 -19.9776,8.77984 -36.32288,18.11088 -36.32288,20.7368 0,2.62816 3.4664,8.60608 7.70336,13.28928 10.2656,11.34256 5.52048,17.53312 -23.96144,31.26144 -24.03456,11.18912 -37.53184,13.44368 -50.1472,8.36992 z m 17.60992,-150.5648 c 3.65408,-2.31472 5.23872,-6.48032 3.52128,-9.25872 -3.6912,-5.97248 -72.17552,-21.96832 -81.1232,-18.94848 -7.28264,2.45872 19.29136,17.10288 46.85456,25.81936 23.87904,7.55408 22.7344,7.464 30.74736,2.38784 z m 7.69056,-176.0104 c 17.27744,-10.45808 20.40912,-10.9456 31.9528,-4.97616 12.68368,6.55872 12.82576,6.44272 15.928,-12.95632 l 3.13008,-19.57312 16.74016,12.7672 c 30.54224,23.29648 18.46032,1.0096 -23.03072,-42.51488 -54.28288,-56.918958 -54.20256,-56.925198 -118.10872,9.85456 -27.17704,28.3984 -49.41288,54.46448 -49.41288,57.92688 0,4.51344 8.6124,6.29584 30.44792,6.29584 h 30.44792 l 11.56704,-27.72192 11.5672,-27.71856 7.03088,30.12992 c 3.86688,16.57232 8.28064,30.12016 9.808,30.10528 1.528,0 11.39712,-5.24144 21.93232,-11.61872 z M 325.99608,448.3981 c -8.14016,-8.1424 -2.76016,-26.12224 9.17256,-30.65936 14.56272,-5.53776 35.8212,-1.3536 35.8212,7.0408 0,15.46752 -34.84992,33.76096 -44.99376,23.61856 z m 272.77464,0 c -6.74128,-2.72048 -8.2576,-23.784 -1.99136,-27.6576 5.68928,-3.51696 24.88944,10.79744 24.88944,18.55536 0,5.02448 -11.91312,13.8592 -16.06176,11.91184 -0.4464,-0.224 -3.52256,-1.48 -6.83696,-2.8096 z m 13.56688,-40.67504 c -11.61936,-4.64448 -11.64448,-4.79056 -2.39376,-14.0408 14.48032,-14.47984 36.41232,-16.97056 50.31536,-5.71152 10.05808,8.14432 10.80144,10.588 5.25552,17.27008 -7.20432,8.67808 -34.47456,9.95344 -53.17712,2.48224 z"
       style="display:inline;fill:#4b525f;fill-opacity:1;stroke-width:8;enable-background:new" />
    <path
       style="display:inline;fill:#ffffff;fill-opacity:0.2;stroke-width:8;enable-background:new"
       d="M 454.70703,36.433322 C 438.82058,36.223662 421.63237,51.810452 383.5918,91.181372 267.46116,211.37673 236.00781,248.01535 236.00781,263.10911 c 0,0.46285 0.0189,0.91942 0.0391,1.375 0.82801,-15.46623 32.94626,-52.69299 147.54492,-171.302738 59.3804,-61.45704 67.95146,-64.95974 100.07226,-40.89062 27.87872,20.88944 195.41522,202.653278 198.64258,215.509758 0.95997,3.8248 1.53875,7.29458 1.64258,10.5332 0.13053,-3.79855 -0.48213,-7.90962 -1.64258,-12.5332 C 679.07928,252.94403 511.54278,71.180192 483.66406,50.290752 472.12065,41.640912 463.61894,36.550942 454.70703,36.433322 Z m -28.61133,94.601568 -11.56836,27.71875 -11.5664,27.7207 h -30.44727 c -19.82705,0 -28.75055,-1.46977 -30.22461,-5.11914 -0.14279,0.34307 -0.22461,0.6258 -0.22461,0.82422 0,4.51344 8.6137,6.29492 30.44922,6.29492 h 30.44727 l 11.5664,-27.7207 11.56836,-27.71875 7.03125,30.1289 c 3.86688,16.57232 8.27928,30.12035 9.80664,30.10547 1.528,0 11.3984,-5.24186 21.9336,-11.61914 17.27744,-10.45808 20.40749,-10.94405 31.95117,-4.97461 12.68368,6.55872 12.82745,6.44201 15.92969,-12.95703 l 3.1289,-19.57227 16.74024,12.76563 c 12.89252,9.83394 18.16294,11.52093 16.85937,6.94141 -1.10602,1.58555 -6.55178,-1.07917 -16.85937,-8.94141 l -16.74024,-12.76563 -3.1289,19.57227 c -3.10224,19.39904 -3.24601,19.51575 -15.92969,12.95703 -11.54368,-5.96944 -14.67373,-5.48347 -31.95117,4.97461 -10.5352,6.37728 -20.4056,11.61914 -21.9336,11.61914 -1.52736,0.0149 -5.93976,-13.53315 -9.80664,-30.10547 z m -96.52539,191.8789 c -1.7013,2.61262 -8.20898,6.88341 -16.58984,10.66211 -19.03125,8.58086 -28.24708,15.82388 -27.30469,23 0.85357,-6.53155 10.03885,-13.21514 27.30469,-21 10.5488,-4.75616 18.15764,-10.3015 16.9082,-12.32422 -0.0619,-0.1 -0.18625,-0.21815 -0.31836,-0.33789 z m 49.20508,6.98828 c -3.8908,3.42014 21.42065,17.07569 47.65234,25.3711 23.87904,7.55408 22.73509,7.46483 30.74805,2.38867 3.01613,-1.9106 4.61606,-5.08169 4.11914,-7.69336 -0.37353,2.09421 -1.84454,4.25249 -4.11914,5.69336 -8.01296,5.07616 -6.86901,5.16541 -30.74805,-2.38867 -22.54765,-7.13039 -44.42067,-18.22269 -47.65234,-23.3711 z m 168.26172,27.90625 c -1.31872,2.78872 4.12854,8.44675 13.78906,14.14453 16.15485,9.53128 24.66374,18.04058 25.28125,26.39454 0.69702,-9.00011 -7.83615,-18.10202 -25.28125,-28.39454 -7.72375,-4.55548 -12.75394,-9.08501 -13.78906,-12.14453 z m 93.33984,23.13086 c -10.61129,-0.2244 -21.8359,4.14479 -30.43359,12.74219 -5.18186,5.18159 -7.45101,7.50809 -6.4043,9.36719 0.69958,-1.63433 2.87392,-3.83504 6.4043,-7.36524 14.48032,-14.47984 36.41337,-16.97193 50.31641,-5.71289 5.34079,4.3246 8.03314,7.04069 8.57421,9.63868 0.67969,-3.30823 -1.86719,-6.2078 -8.57421,-11.63868 -5.64811,-4.57398 -12.62246,-6.87771 -19.88282,-7.03125 z m -250.24023,33.70899 c -0.74836,3.49711 -4.7378,10.98446 -9.52149,17.70117 -4.96048,6.96701 -7.35874,12.50113 -6.95898,17.0957 0.33163,-4.18389 2.69713,-9.10992 6.95898,-15.0957 5.31192,-7.4584 9.65821,-15.88422 9.65821,-18.7207 0,-0.32167 -0.0535,-0.64895 -0.13672,-0.98047 z m -40.20703,0.57812 c -5.00552,-6e-5 -10.21087,0.78117 -14.76172,2.51172 -8.33412,3.16884 -13.46369,12.89392 -13.03125,21.2461 0.39836,-7.84692 5.35529,-16.32751 13.03125,-19.2461 14.06263,-5.34759 34.3641,-1.62726 35.74219,6.19336 0.0417,-0.38526 0.0801,-0.77007 0.0801,-1.15234 0,-5.77115 -10.0484,-9.55261 -21.06054,-9.55274 z m 248.77929,4.97461 c -0.74391,0.0364 -1.39631,0.20935 -1.92968,0.53906 -2.89505,1.78964 -4.11067,7.25108 -3.93555,12.875 0.14592,-4.87186 1.38699,-9.29955 3.93555,-10.875 5.43662,-3.36077 23.19769,9.55852 24.76562,17.48243 0.0788,-0.31981 0.12305,-0.62949 0.12305,-0.92578 0,-7.03062 -15.76783,-19.44727 -22.95899,-19.09571 z m -92.5039,34.47656 c -0.14549,0.23659 -0.23438,0.45138 -0.23438,0.62891 0,2.62816 3.46617,8.60586 7.70313,13.28906 2.82881,3.12558 4.50983,5.85812 4.85547,8.4668 0.45472,-3.22267 -1.29648,-6.53443 -4.85547,-10.4668 -3.6168,-3.99772 -6.65183,-8.92235 -7.46875,-11.91797 z"
       id="path4942"
       inkscape:connector-curvature="0" />
    <path
       style="display:inline;fill:#000000;fill-opacity:0.2;stroke-width:8;enable-background:new"
       d="m 455.52148,68.866922 c -15.15196,0.27415 -31.09135,16.95145 -64.04296,51.384758 -27.17704,28.3984 -49.41407,54.46534 -49.41407,57.92774 0,0.41515 0.0753,0.8061 0.22461,1.17578 2.34894,-5.64345 23.56985,-30.33254 49.18946,-57.10352 63.90616,-66.779758 63.82454,-66.772468 118.10742,-9.85351 23.97679,25.15187 38.10605,43.18576 39.89062,49.45508 2.17122,-3.11258 -12.40224,-22.61952 -39.89062,-51.45508 C 483.29267,82.828052 469.75515,68.609382 455.52148,68.866922 Z M 236.04688,262.48411 c -0.0111,0.20675 -0.0391,0.42588 -0.0391,0.625 0,18.97728 16.86835,31.76246 58.62891,44.44726 17.24091,5.23701 32.39843,11.05974 34.93359,13.35742 0.44009,-0.67582 0.57514,-1.24641 0.31836,-1.66211 -1.24992,-2.01824 -17.11259,-8.18539 -35.25195,-13.69531 -40.74202,-12.37542 -57.78247,-24.84897 -58.58984,-43.07226 z m 447.90234,13.8496 c -0.65321,19.00849 -20.34575,29.98093 -88.05469,55.78516 -24.2696,9.2504 -46.07261,18.74604 -48.45117,21.10156 -0.65161,0.64557 -0.76382,1.53102 -0.40625,2.58789 0.0998,-0.21111 0.22764,-0.41094 0.40625,-0.58789 2.37856,-2.35552 24.18157,-11.85116 48.45117,-21.10156 70.04651,-26.69509 88.70444,-37.51764 88.05469,-57.78516 z m -300.39063,48.74805 c -1.78294,-0.0272 -3.14553,0.0899 -3.98437,0.37305 -1.32519,0.4474 -1.51769,1.30204 -0.79883,2.44726 0.1975,-0.1736 0.44702,-0.32849 0.79883,-0.44726 8.94768,-3.01984 77.43185,12.97478 81.12305,18.94726 0.29984,0.48507 0.49255,1.01401 0.59765,1.56641 0.22654,-1.27008 0.0507,-2.51751 -0.59765,-3.56641 -3.34515,-5.41256 -59.90356,-19.05716 -77.13868,-19.32031 z m -97.88281,29.49414 c -1.12936,8.64186 12.33425,17.01819 41.0332,27.32813 44.42828,15.96139 61.82147,24.34263 63.42774,30.74414 0.0826,-0.38617 0.13672,-0.73746 0.13672,-1.01953 0,-6.53296 -16.83534,-14.93661 -63.56446,-31.72461 -26.4811,-9.51319 -39.98941,-17.37989 -41.0332,-25.32813 z m 300.43164,41.77149 c -0.84501,10.91106 -15.25836,21.67109 -43.81445,34.2207 -19.9776,8.77984 -36.32227,18.11236 -36.32227,20.73828 0,0.38469 0.0943,0.85744 0.23438,1.37109 2.0065,-3.26279 17.46091,-11.92311 36.08789,-20.10937 30.29821,-13.31522 44.67219,-24.6169 43.81445,-36.2207 z m 82.72656,1.26172 c -0.33959,1.65289 -1.47062,3.40458 -3.31836,5.63085 -7.20432,8.67808 -34.47517,9.95363 -53.17773,2.48243 -5.11069,-2.04284 -7.97694,-3.21405 -8.79883,-4.67383 -1.13354,2.64813 1.61381,3.80183 8.79883,6.67383 18.70256,7.4712 45.97341,6.19565 53.17773,-2.48243 2.60107,-3.13392 3.79627,-5.33617 3.31836,-7.63085 z m -297.92382,26.32226 c -1.64248,15.20323 -35.0206,32.35886 -44.91407,22.4668 -2.45486,-2.45554 -3.67265,-5.80767 -3.85937,-9.41406 -0.22092,4.35156 0.95554,8.50942 3.85937,11.41406 10.14384,10.1424 44.99414,-8.15162 44.99414,-23.61914 0,-0.28827 -0.0311,-0.56954 -0.0801,-0.84766 z m 221.93359,7.68359 c -0.21283,7.10582 1.92729,15.16768 5.92578,16.78321 h 0.002 c 3.3137,1.32932 6.38963,2.58463 6.83594,2.80859 4.14864,1.94736 16.06055,-6.88567 16.06055,-11.91015 0,-0.34452 -0.0502,-0.70598 -0.12305,-1.07422 -1.2578,5.10331 -12.03351,12.81885 -15.9375,10.98632 -0.44631,-0.22395 -3.52224,-1.48122 -6.83594,-2.81054 h -0.002 c -3.62578,-1.46495 -5.72189,-8.23529 -5.92578,-14.78321 z m -219.1875,15.83008 c -0.67473,8.51257 7.10629,13.93993 24.73047,18.875 17.57968,4.92256 23.26361,9.26801 28.49609,21.79297 3.59488,8.60064 9.30312,16.75968 12.6836,18.11328 12.61536,5.07376 26.11192,2.81998 50.14648,-8.36914 21.35782,-9.94531 29.72506,-15.93684 28.81641,-22.79492 -0.85689,6.07283 -9.55562,11.82609 -28.81641,20.79492 -24.03456,11.18912 -37.53112,13.4429 -50.14648,8.36914 -3.38048,-1.3536 -9.08872,-9.51264 -12.6836,-18.11328 -5.23248,-12.52496 -10.91641,-16.87041 -28.49609,-21.79297 -16.20422,-4.53746 -24.08797,-9.49054 -24.73047,-16.875 z"
       id="path4947"
       inkscape:connector-curvature="0" />
    <path
       inkscape:connector-curvature="0"
       id="path4435"
       d="m 455.3248,36.642342 a 236.18067,236.18401 0 0 0 -4.52896,0.224 c -14.92,2.19072 -32.23376,18.13648 -67.22328,54.35064 C 267.442,211.4125 236,248.01618 236,263.1101 c 0,18.97728 16.86584,31.76928 58.6264,44.45424 18.13936,5.50976 34.01848,11.6936 35.26816,13.71216 1.24992,2.01824 -6.35152,7.572 -16.90016,12.32832 -40.11032,18.08496 -36.67664,30.20816 13.71304,48.3104 46.72912,16.78816 63.5748,25.21392 63.5748,31.74688 0,2.83632 -4.37512,11.24512 -9.68728,18.70336 -12.93288,18.16432 -8.50552,26.60736 17.78088,33.968 17.58,4.92272 23.28384,9.28144 28.51648,21.80624 3.59488,8.60064 9.28432,16.76464 12.66464,18.11728 2.57344,1.0304 5.2384,1.568 7.96784,1.97568 a 236.18067,236.18401 0 0 0 5.36768,0.2576 c 9.54224,0 20.736,-3.12208 36.81984,-10.61152 29.48224,-13.72832 34.21104,-19.89728 23.94544,-31.24016 -4.23696,-4.68288 -7.6744,-10.66736 -7.6744,-13.29552 0,-2.62624 16.33888,-11.9784 36.31648,-20.75824 52.11104,-22.90144 57.12992,-39.83984 18.53584,-62.61008 -10.392,-6.12928 -15.91568,-12.20368 -13.37776,-14.71808 2.3784,-2.35568 24.1664,-11.84512 48.436,-21.09552 81.23936,-30.96096 93.39744,-40.59552 86.42992,-68.356 -3.2272,-12.85648 -170.77136,-194.618478 -198.6504,-215.507598 -11.26448,-8.4408 -19.66608,-13.2808 -28.3488,-13.62864 z M 385.45952,327.17298 c 19.15312,1.1152 72.00304,14.02352 75.23312,19.2488 1.71808,2.77856 0.128,6.912 -3.52256,9.22656 -8.01296,5.07616 -6.86016,5.16416 -30.7392,-2.38976 -27.5632,-8.71664 -54.12504,-23.3328 -46.84216,-25.79136 1.11776,-0.3856 3.13464,-0.4496 5.8708,-0.3008 z m 256.60592,53.84608 c -11.09248,-0.7504 -23.07264,3.61584 -32.12288,12.66544 -9.25072,9.25024 -9.22912,9.4048 2.39024,14.04928 11.62336,4.64128 26.1232,5.5624 37.49072,3.77376 a 236.18066,236.18401 0 0 0 13.54528,-20.7584 c -1.0144,-0.9024 -1.76512,-1.69568 -3.10304,-2.76992 -5.21392,-4.22048 -11.5448,-6.51152 -18.20032,-6.96016 z m -295.14488,34.304 c -4.04096,0.2576 -8.10136,1.0528 -11.74208,2.43296 -11.93272,4.53712 -17.32416,22.51264 -9.184,30.65472 10.14408,10.14256 44.99736,-8.18512 44.99736,-23.6528 0,-6.29344 -11.9488,-10.20144 -24.07128,-9.43488 z m 252.57992,4.90656 c -1.0688,0 -2.01376,0 -2.72576,0.4928 -6.26672,3.8736 -4.72832,24.95824 2.01376,27.67872 3.31424,1.3312 6.3896,2.59488 6.83552,2.8096 4.14864,1.95328 16.06144,-6.88496 16.06144,-11.9096 0,-6.78944 -14.69776,-18.59168 -22.184,-19.08112 z"
       style="display:inline;fill:url(#linearGradient4439);fill-opacity:1;stroke:none;stroke-width:16;stroke-linecap:round;stroke-linejoin:round;stroke-miterlimit:4;stroke-dasharray:none;stroke-opacity:1;enable-background:new" />
    <path
       inkscape:connector-curvature="0"
       style="display:inline;fill:#000000;fill-opacity:0.2;fill-rule:evenodd;stroke:none;stroke-width:1px;stroke-linecap:butt;stroke-linejoin:miter;stroke-opacity:1;filter:url(#filter4581);enable-background:new"
       d="m 236.60976,625.2754 c -1.8442,0.154 -3.83782,2.24023 -7.83194,6.41391 -3.39712,3.54976 -6.178,6.80938 -6.178,7.2422 0,0.56416 1.07643,0.7864 3.80587,0.7864 h 3.80591 l 1.44684,-3.46522 1.44686,-3.46508 0.87808,3.7665 c 0.48338,2.07156 1.03576,3.76584 1.2267,3.76396 0.191,0 1.4248,-0.6549 2.7417,-1.45206 2.1597,-1.30726 2.55164,-1.36992 3.99458,-0.62378 1.58548,0.81984 1.60166,0.80764 1.98944,-1.61726 l 0.39056,-2.44812 2.09426,1.5962 c 3.81778,2.91206 2.3058,0.1248 -2.8806,-5.3156 -3.39268,-3.5574 -5.08606,-5.33587 -6.93026,-5.18205 z"
       id="path4427"
       transform="matrix(8,0,0,8,-1428,-4920.5336)" />
    <path
       id="path4431"
       d="m 454.13664,70.931782 c -14.7536,1.232 -30.7024,17.92136 -62.65552,51.311278 -27.1768,28.39808 -49.42384,54.47504 -49.42384,57.93744 0,4.51328 8.61152,6.29056 30.44704,6.29056 h 30.44688 l 11.57504,-27.72096 11.57472,-27.72112 7.02464,30.13248 c 3.86688,16.57248 8.28624,30.12672 9.81344,30.11168 1.528,0 11.39856,-5.23952 21.9336,-11.6168 17.2776,-10.45824 20.41312,-10.96016 31.95696,-4.99072 12.68384,6.55872 12.81328,6.46128 15.91552,-12.93808 l 3.12432,-19.58496 16.75424,12.77024 c 30.54224,23.29616 18.44624,0.9984 -23.04512,-42.52528 C 482.43744,83.927942 468.89008,69.700582 454.13664,70.931782 Z"
       style="display:inline;fill:#f5f5f5;fill-opacity:1;fill-rule:evenodd;stroke:none;stroke-width:8px;stroke-linecap:butt;stroke-linejoin:miter;stroke-opacity:1;enable-background:new"
       inkscape:connector-curvature="0" />
    <path
       style="display:inline;fill:#000000;fill-opacity:0.2;fill-rule:evenodd;stroke:none;stroke-width:8px;stroke-linecap:butt;stroke-linejoin:miter;stroke-opacity:1;enable-background:new"
       d="m 426.10156,129.02903 -11.57617,27.7207 -11.57422,27.7207 h -30.44726 c -19.81233,0 -28.73682,-1.46294 -30.22071,-5.10547 -0.14164,0.33944 -0.22656,0.62096 -0.22656,0.81641 0,4.51328 8.61175,6.28906 30.44727,6.28906 h 30.44726 l 11.57422,-27.7207 11.57617,-27.7207 7.02344,30.13281 c 3.86688,16.57248 8.28725,30.12637 9.81445,30.11133 1.528,0 11.39856,-5.23991 21.9336,-11.61719 17.2776,-10.45824 20.41319,-10.95967 31.95703,-4.99023 12.68384,6.55872 12.81377,6.46186 15.91601,-12.9375 l 3.12305,-19.58594 16.75391,12.77148 c 12.91074,9.84781 18.16586,11.51866 16.81836,6.89844 -1.07441,1.6145 -6.49615,-1.02701 -16.81836,-8.90039 l -16.75391,-12.76953 -3.125,19.58398 c -3.10224,19.39936 -3.23022,19.49818 -15.91406,12.93946 -11.54384,-5.96944 -14.67943,-5.46801 -31.95703,4.99023 -10.53504,6.37728 -20.4056,11.61719 -21.9336,11.61719 -1.5272,0.015 -5.94757,-13.53885 -9.81445,-30.11133 z"
       id="path4437"
       inkscape:connector-curvature="0" />
    <path
       style="display:inline;fill:#000000;fill-opacity:0.2;enable-background:new"
       d="M 54.138672 515.10156 C 54.054563 515.27334 54 515.42194 54 515.53125 C 54 516.37845 54.752877 516.94934 56.617188 517.51562 C 56.874367 517.59375 57.077774 517.67089 57.296875 517.74805 C 57.347532 517.72407 57.383275 517.70218 57.4375 517.67773 C 57.90843 517.4654 58.247186 517.21725 58.191406 517.12695 C 58.135606 517.03685 57.426977 516.76161 56.617188 516.51562 C 55.204237 516.08644 54.430892 515.65432 54.138672 515.10156 z M 73.890625 515.60352 C 73.602914 516.2363 72.591148 516.73898 70.066406 517.70117 C 68.982946 518.11413 68.010477 518.53937 67.904297 518.64453 C 67.790997 518.75678 68.038033 519.02716 68.501953 519.30078 C 68.517337 519.30986 68.525942 519.31909 68.541016 519.32812 C 68.944798 519.14822 69.465406 518.93024 70.066406 518.70117 C 73.693177 517.31899 74.234878 516.89165 73.923828 515.65234 C 73.922203 515.64587 73.894096 515.61189 73.890625 515.60352 z M 60.673828 517.39062 C 60.551679 517.38352 60.460086 517.3874 60.410156 517.4043 C 60.085036 517.51406 61.271453 518.16751 62.501953 518.55664 C 63.567983 518.89387 63.515326 518.89067 63.873047 518.66406 C 64.03615 518.56072 64.10792 518.37404 64.03125 518.25 C 63.887059 518.0167 61.528874 517.44062 60.673828 517.39062 z M 56.589844 519.1543 C 55.822922 519.72333 56.270374 520.19704 58.048828 520.83594 C 58.599379 521.03373 59.044535 521.2045 59.419922 521.35547 C 59.653521 521.39557 59.845689 521.47376 59.945312 521.58398 C 60.214499 521.70572 60.421528 521.81537 60.564453 521.91016 C 60.742371 521.63202 60.886719 521.35582 60.886719 521.25195 C 60.886719 520.9603 60.134948 520.58541 58.048828 519.83594 C 57.359143 519.58817 56.889723 519.36744 56.589844 519.1543 z M 69.419922 521.01758 C 69.134491 521.3585 68.558086 521.70905 67.673828 522.09766 C 66.781978 522.48962 66.052734 522.90621 66.052734 523.02344 C 66.052734 523.14077 66.207334 523.40616 66.396484 523.61523 C 66.424976 523.64672 66.441641 523.67523 66.464844 523.70508 C 66.762616 523.52909 67.186704 523.31174 67.673828 523.09766 C 69.423339 522.32879 69.982118 521.70979 69.419922 521.01758 z M 71.085938 521.0625 C 70.946963 521.14532 70.813689 521.241 70.693359 521.36133 C 70.577766 521.47692 70.503454 521.55781 70.455078 521.62305 C 70.653789 521.71259 70.86419 521.87029 71.019531 522.04492 C 71.83609 522.29397 72.878139 522.23313 73.173828 521.87695 C 73.421418 521.57864 73.388473 521.46906 72.939453 521.10547 C 72.91933 521.08917 72.893892 521.08337 72.873047 521.06836 C 72.435803 521.24269 71.710238 521.2371 71.085938 521.0625 z M 59.623047 522.4043 C 59.133256 522.82752 58.333902 523.10516 58.023438 522.80469 C 57.818867 523.1294 57.774314 523.5594 58.017578 523.80273 C 58.470428 524.25552 60.025391 523.44052 60.025391 522.75 C 60.025391 522.59552 59.857973 522.47811 59.623047 522.4043 z M 70.042969 522.63477 C 69.841182 522.9026 69.920216 523.69172 70.195312 523.80273 C 70.343272 523.86203 70.4801 523.91969 70.5 523.92969 C 70.68521 524.01659 71.216797 523.62079 71.216797 523.39648 C 71.216797 523.23764 71.034119 523.02057 70.814453 522.84375 C 70.691893 522.91459 70.57056 522.96279 70.5 522.92969 C 70.4801 522.91969 70.343272 522.86203 70.195312 522.80273 C 70.133848 522.77793 70.084064 522.71435 70.042969 522.63477 z M 60.371094 523.2207 C 59.9132 523.93788 60.144888 524.29407 61.25 524.60352 C 62.03481 524.82328 62.287894 525.01702 62.521484 525.57617 C 62.681974 525.96013 62.936981 526.32437 63.087891 526.38477 C 63.651071 526.61128 64.253202 526.51124 65.326172 526.01172 C 66.642332 525.39885 66.854764 525.1216 66.396484 524.61523 C 66.354011 524.56829 66.32474 524.51711 66.287109 524.4668 C 66.078698 524.62505 65.793463 524.79412 65.326172 525.01172 C 64.253202 525.51124 63.651071 525.61128 63.087891 525.38477 C 62.936981 525.32437 62.681974 524.96013 62.521484 524.57617 C 62.287894 524.01702 62.03481 523.82328 61.25 523.60352 C 60.837289 523.48795 60.551323 523.36487 60.371094 523.2207 z "
       id="path4548" />
  </g>
</svg>
