<?xml version="1.0" encoding="UTF-8" standalone="no"?>
<!-- Created with Inkscape (http://www.inkscape.org/) -->

<svg
   xmlns:dc="http://purl.org/dc/elements/1.1/"
   xmlns:cc="http://creativecommons.org/ns#"
   xmlns:rdf="http://www.w3.org/1999/02/22-rdf-syntax-ns#"
   xmlns:svg="http://www.w3.org/2000/svg"
   xmlns="http://www.w3.org/2000/svg"
   xmlns:xlink="http://www.w3.org/1999/xlink"
   xmlns:sodipodi="http://sodipodi.sourceforge.net/DTD/sodipodi-0.dtd"
   xmlns:inkscape="http://www.inkscape.org/namespaces/inkscape"
   width="842"
   height="544"
   viewBox="0 0 842 544"
   version="1.1"
   id="svg1087"
   inkscape:version="0.92.1 r"
   sodipodi:docname="libreoffice-draw.svg">
  <defs
     id="defs1081">
    <filter
       inkscape:collect="always"
       style="color-interpolation-filters:sRGB"
       id="filter5087"
       x="-0.048"
       width="1.096"
       y="-0.048"
       height="1.096">
      <feGaussianBlur
         inkscape:collect="always"
         stdDeviation="0.8"
         id="feGaussianBlur5089" />
    </filter>
    <linearGradient
       inkscape:collect="always"
       xlink:href="#linearGradient5320"
       id="linearGradient4256"
       gradientUnits="userSpaceOnUse"
       gradientTransform="matrix(16.5,0,0,15.977305,43.5,-16102.955)"
       x1="35.18182"
       y1="1017.3778"
       x2="41"
       y2="1023.3864" />
    <linearGradient
       id="linearGradient5320"
       inkscape:collect="always">
      <stop
         id="stop5322"
         offset="0"
         style="stop-color:#000000;stop-opacity:0.15000001" />
      <stop
         id="stop5324"
         offset="1"
         style="stop-color:#000000;stop-opacity:0;" />
    </linearGradient>
    <linearGradient
       inkscape:collect="always"
       xlink:href="#linearGradient5320"
       id="linearGradient4669"
       x1="173"
       y1="500.5"
       x2="184"
       y2="500.5"
       gradientUnits="userSpaceOnUse"
       gradientTransform="translate(26)" />
    <linearGradient
       inkscape:collect="always"
       xlink:href="#linearGradient5320"
       id="linearGradient4553"
       x1="116.64645"
       y1="509.35355"
       x2="123.5"
       y2="509.35355"
       gradientUnits="userSpaceOnUse"
       gradientTransform="translate(26)" />
    <linearGradient
       inkscape:collect="always"
       xlink:href="#linearGradient5320"
       id="linearGradient4584"
       x1="67.646446"
       y1="514.35358"
       x2="72.5"
       y2="514.35358"
       gradientUnits="userSpaceOnUse"
       gradientTransform="translate(26)" />
    <linearGradient
       inkscape:collect="always"
       xlink:href="#linearGradient5320"
       id="linearGradient4539"
       gradientUnits="userSpaceOnUse"
       gradientTransform="matrix(2.0625,0,0,1.9971631,200.1875,-1550.8694)"
       x1="35.18182"
       y1="1017.3778"
       x2="41"
       y2="1023.3864" />
    <filter
       inkscape:collect="always"
       style="color-interpolation-filters:sRGB"
       id="filter4540"
       x="-0.0135"
       width="1.027"
       y="-0.0108"
       height="1.0216">
      <feGaussianBlur
         inkscape:collect="always"
         stdDeviation="0.18"
         id="feGaussianBlur4542" />
    </filter>
    <filter
       inkscape:collect="always"
       style="color-interpolation-filters:sRGB"
       id="filter4546"
       x="-0.013636364"
       width="1.0272727"
       y="-0.010714286"
       height="1.0214286">
      <feGaussianBlur
         inkscape:collect="always"
         stdDeviation="0.25"
         id="feGaussianBlur4548" />
    </filter>
    <filter
       inkscape:collect="always"
       style="color-interpolation-filters:sRGB"
       id="filter4564"
       x="-0.027272727"
       width="1.0545455"
       y="-0.02142857"
       height="1.0428571">
      <feGaussianBlur
         inkscape:collect="always"
         stdDeviation="4"
         id="feGaussianBlur4566" />
    </filter>
    <linearGradient
       inkscape:collect="always"
       xlink:href="#linearGradient5320"
       id="linearGradient4572"
       gradientUnits="userSpaceOnUse"
       x1="67.646446"
       y1="514.35358"
       x2="72.5"
       y2="514.35358"
       gradientTransform="translate(-40,6)" />
    <linearGradient
       inkscape:collect="always"
       xlink:href="#linearGradient4730"
       id="linearGradient4620"
       gradientUnits="userSpaceOnUse"
       gradientTransform="matrix(0.4782599,0,0,0.47826359,78.52174,24.17187)"
       x1="7"
       y1="1011.3622"
       x2="41.000019"
       y2="1045.3622" />
    <linearGradient
       id="linearGradient4730"
       inkscape:collect="always">
      <stop
         id="stop4726"
         offset="0"
         style="stop-color:#ffffff;stop-opacity:0.05490196" />
      <stop
         id="stop4728"
         offset="1"
         style="stop-color:#177ed5;stop-opacity:0;" />
    </linearGradient>
    <linearGradient
       inkscape:collect="always"
       xlink:href="#linearGradient4730"
       id="linearGradient4435"
       gradientUnits="userSpaceOnUse"
       gradientTransform="matrix(0.65217041,0,0,0.65217328,122.34777,-158.67056)"
       x1="7"
       y1="1011.3622"
       x2="41.000019"
       y2="1045.3622" />
    <linearGradient
       inkscape:collect="always"
       xlink:href="#linearGradient4730"
       id="linearGradient4171-1-0"
       x1="7"
       y1="1011.3622"
       x2="41.000019"
       y2="1045.3622"
       gradientUnits="userSpaceOnUse"
       gradientTransform="matrix(0.95652174,0,0,0.95652174,171.0435,-479.6504)" />
    <linearGradient
       inkscape:collect="always"
       xlink:href="#linearGradient4730"
       id="linearGradient4537"
       gradientUnits="userSpaceOnUse"
       gradientTransform="matrix(1.3043412,0,0,1.3043465,234.69565,-845.3402)"
       x1="7"
       y1="1011.3622"
       x2="41.000019"
       y2="1045.3622" />
    <linearGradient
       inkscape:collect="always"
       xlink:href="#linearGradient4730"
       id="linearGradient4449-0"
       gradientUnits="userSpaceOnUse"
       gradientTransform="matrix(10.43473,0,0,10.434772,319.56521,-10458.722)"
       x1="7"
       y1="1011.3622"
       x2="41.000019"
       y2="1045.3622" />
    <filter
       inkscape:collect="always"
       style="color-interpolation-filters:sRGB"
       id="filter4919"
       x="-0.011407433"
       width="1.0228149"
       y="-0.012657502"
       height="1.025315">
      <feGaussianBlur
         inkscape:collect="always"
         stdDeviation="0.084230148"
         id="feGaussianBlur4921" />
    </filter>
    <filter
       inkscape:collect="always"
       style="color-interpolation-filters:sRGB"
       id="filter4929"
       x="-0.011406489"
       width="1.022813"
       y="-0.012658665"
       height="1.0253173">
      <feGaussianBlur
         inkscape:collect="always"
         stdDeviation="0.10399246"
         id="feGaussianBlur4931" />
    </filter>
    <filter
       inkscape:collect="always"
       style="color-interpolation-filters:sRGB"
       id="filter4960"
       x="-0.022818441"
       width="1.0456369"
       y="-0.025310606"
       height="1.0506212">
      <feGaussianBlur
         inkscape:collect="always"
         stdDeviation="1.6545174"
         id="feGaussianBlur4962" />
    </filter>
    <linearGradient
       inkscape:collect="always"
       xlink:href="#linearGradient5320"
       id="linearGradient4591"
       gradientUnits="userSpaceOnUse"
       x1="67.646446"
       y1="514.35358"
       x2="72.5"
       y2="514.35358"
       gradientTransform="translate(-9,1)" />
    <linearGradient
       inkscape:collect="always"
       xlink:href="#linearGradient4730"
       id="linearGradient4593"
       gradientUnits="userSpaceOnUse"
       gradientTransform="matrix(0.4782599,0,0,0.47826359,43.52174,25.17187)"
       x1="7"
       y1="1011.3622"
       x2="41.000019"
       y2="1045.3622" />
  </defs>
  <sodipodi:namedview
     id="base"
     pagecolor="#c3c3c3"
     bordercolor="#333333"
     borderopacity="1"
     inkscape:pageopacity="0"
     inkscape:pageshadow="2"
     inkscape:zoom="0.35355339"
     inkscape:cx="-1653.472"
     inkscape:cy="-279.97583"
     inkscape:document-units="px"
     inkscape:current-layer="layer1"
     showgrid="true"
     units="px"
     inkscape:showpageshadow="false"
     inkscape:window-width="2560"
     inkscape:window-height="1369"
     inkscape:window-x="0"
     inkscape:window-y="35"
     inkscape:window-maximized="1"
     showguides="false">
    <inkscape:grid
       type="xygrid"
       id="grid4630" />
  </sodipodi:namedview>
  <metadata
     id="metadata1084">
    <rdf:RDF>
      <cc:Work
         rdf:about="">
        <dc:format>image/svg+xml</dc:format>
        <dc:type
           rdf:resource="http://purl.org/dc/dcmitype/StillImage" />
        <dc:title></dc:title>
        <cc:license
           rdf:resource="http://creativecommons.org/licenses/by-sa/4.0/" />
        <dc:creator>
          <cc:Agent>
            <dc:title>Peter Cornelis</dc:title>
          </cc:Agent>
        </dc:creator>
      </cc:Work>
      <cc:License
         rdf:about="http://creativecommons.org/licenses/by-sa/4.0/">
        <cc:permits
           rdf:resource="http://creativecommons.org/ns#Reproduction" />
        <cc:permits
           rdf:resource="http://creativecommons.org/ns#Distribution" />
        <cc:requires
           rdf:resource="http://creativecommons.org/ns#Notice" />
        <cc:requires
           rdf:resource="http://creativecommons.org/ns#Attribution" />
        <cc:permits
           rdf:resource="http://creativecommons.org/ns#DerivativeWorks" />
        <cc:requires
           rdf:resource="http://creativecommons.org/ns#ShareAlike" />
      </cc:License>
    </rdf:RDF>
  </metadata>
  <g
     inkscape:label="Baseplate"
     inkscape:groupmode="layer"
     id="layer1"
     transform="translate(0,-153.06668)"
     style="display:none">
    <rect
       style="display:inline;overflow:visible;visibility:visible;fill:#fefefe;fill-opacity:1;fill-rule:nonzero;stroke:none;stroke-width:2;marker:none;enable-background:accumulate"
       id="rect3951"
       width="512"
       height="512"
       x="-826"
       y="169.06668"
       inkscape:label="48x48"
       transform="scale(-1,1)" />
    <text
       y="733.32251"
       xml:space="preserve"
       x="15.006836"
       style="font-style:normal;font-variant:normal;font-weight:normal;font-stretch:normal;line-height:0%;font-family:'DejaVu Sans';-inkscape-font-specification:'DejaVu Sans';display:inline;fill:#000000;fill-opacity:1;stroke:none;enable-background:new"
       inkscape:label="context"
       id="context"><tspan
         style="font-style:normal;font-variant:normal;font-weight:normal;font-stretch:normal;font-size:18px;line-height:1.25;font-family:'DejaVu Sans';-inkscape-font-specification:'DejaVu Sans'"
         y="733.32251"
         x="15.006836"
         sodipodi:role="line"
         id="tspan3933">apps</tspan></text>
    <text
       y="733.32251"
       xml:space="preserve"
       x="142.48828"
       style="font-style:normal;font-variant:normal;font-weight:bold;font-stretch:normal;line-height:0%;font-family:'DejaVu Sans';-inkscape-font-specification:'DejaVu Sans Bold';text-align:start;writing-mode:lr-tb;text-anchor:start;display:inline;fill:#000000;fill-opacity:1;stroke:none;enable-background:new"
       inkscape:label="icon-name"
       id="icon-name"><tspan
         style="font-style:normal;font-variant:normal;font-weight:bold;font-stretch:normal;font-size:18px;line-height:1.25;font-family:'DejaVu Sans';-inkscape-font-specification:'DejaVu Sans Bold'"
         y="733.32251"
         x="142.48828"
         sodipodi:role="line"
         id="tspan3937">libreoffice-draw</tspan></text>
    <rect
       style="display:inline;overflow:visible;visibility:visible;fill:#fefefe;fill-opacity:1;fill-rule:nonzero;stroke:none;stroke-width:2;marker:none;enable-background:accumulate"
       id="rect16x16"
       width="16"
       height="16"
       x="-32"
       y="665.06665"
       inkscape:label="16x16"
       transform="scale(-1,1)" />
    <rect
       style="display:inline;overflow:visible;visibility:visible;fill:#fefefe;fill-opacity:1;fill-rule:nonzero;stroke:none;stroke-width:2;marker:none;enable-background:accumulate"
       id="rect24x24"
       width="24"
       height="24"
       x="-102"
       y="657.06665"
       inkscape:label="24x24"
       transform="scale(-1,1)" />
    <rect
       style="display:inline;overflow:visible;visibility:visible;fill:#fefefe;fill-opacity:1;fill-rule:nonzero;stroke:none;stroke-width:2;marker:none;enable-background:accumulate"
       id="rect32x32"
       width="32"
       height="32"
       x="-154"
       y="649.06665"
       inkscape:label="32x32"
       transform="scale(-1,1)" />
    <rect
       inkscape:label="48x48"
       y="633.06665"
       x="-218"
       height="48"
       width="48"
       id="rect48x48"
       style="display:inline;overflow:visible;visibility:visible;fill:#fefefe;fill-opacity:1;fill-rule:nonzero;stroke:none;stroke-width:2;marker:none;enable-background:accumulate"
       transform="scale(-1,1)" />
    <rect
       transform="scale(-1,1)"
       inkscape:label="48x48"
       y="617.06665"
       x="-298"
       height="64"
       width="64"
       id="rect4527"
       style="display:inline;overflow:visible;visibility:visible;fill:#fefefe;fill-opacity:1;fill-rule:nonzero;stroke:none;stroke-width:0.25;marker:none;enable-background:accumulate" />
    <rect
       transform="scale(-1,1)"
       inkscape:label="24x24"
       y="659.06665"
       x="-66"
       height="22"
       width="22"
       id="rect4575"
       style="display:inline;overflow:visible;visibility:visible;fill:#fefefe;fill-opacity:1;fill-rule:nonzero;stroke:none;stroke-width:1.83333325;marker:none;enable-background:accumulate" />
  </g>
  <g
     inkscape:groupmode="layer"
     id="layer2"
     inkscape:label="Bitmap"
     style="display:inline">
    <path
       inkscape:connector-curvature="0"
       id="path4538"
       d="m 181,485 c -1.662,0 -3,1.338 -3,3 v 34 c 0,1.662 1.338,3 3,3 h 26 c 1.662,0 3,-1.338 3,-3 v -25 l -12,-12 z"
       style="opacity:1;fill:#000000;fill-opacity:0.2;stroke:none;filter:url(#filter4540)" />
    <path
       sodipodi:nodetypes="sscsscsscsscs"
       inkscape:connector-curvature="0"
       id="path5069"
       d="m 169,485 c -1.66505,0 -3,1.2912 -3,3 v 17 17 c 0,1.8617 1.34224,3 3,3 h 17 17 c 1.73784,0 3,-1.2767 3,-3 v -17 -17 c 0,-1.6942 -1.29127,-3 -3,-3 h -17 z"
       style="display:inline;fill:none;fill-opacity:0.5;stroke:none;stroke-width:2;stroke-linecap:round;stroke-linejoin:round;stroke-miterlimit:4;stroke-dasharray:none;stroke-opacity:1;filter:url(#filter5087);enable-background:new" />
    <path
       style="opacity:1;fill:#ffb300;fill-opacity:1;stroke:none"
       d="m 181,484 c -1.662,0 -3,1.338 -3,3 v 34 c 0,1.662 1.338,3 3,3 h 26 c 1.662,0 3,-1.338 3,-3 v -25 l -12,-12 z"
       id="rect4648"
       inkscape:connector-curvature="0" />
    <path
       style="opacity:1;fill:#ffffff;fill-opacity:0.2;stroke:none"
       d="m 181,484 c -1.662,0 -3,1.338 -3,3 v 1 c 0,-1.662 1.338,-3 3,-3 h 18 l -1,-1 z"
       id="path4671"
       inkscape:connector-curvature="0" />
    <path
       style="display:inline;fill:none;fill-opacity:0.5;stroke:none;stroke-width:2;stroke-linecap:round;stroke-linejoin:round;stroke-miterlimit:4;stroke-dasharray:none;stroke-opacity:1;filter:url(#filter5087);enable-background:new"
       d="m 169,485 c -1.66505,0 -3,1.2912 -3,3 v 17 17 c 0,1.8617 1.34224,3 3,3 h 17 17 c 1.73784,0 3,-1.2767 3,-3 v -17 -17 c 0,-1.6942 -1.29127,-3 -3,-3 h -17 z"
       id="path4506"
       inkscape:connector-curvature="0"
       sodipodi:nodetypes="sscsscsscsscs" />
    <path
       inkscape:connector-curvature="0"
       id="path4533"
       d="m 84,507 c -1.108,0 -2,0.892 -2,2 v 16 c 0,1.108 0.892,2 2,2 h 12 c 1.108,0 2,-0.892 2,-2 v -12 l -6,-6 z"
       style="opacity:1;fill:#000000;fill-opacity:0.2;stroke:none" />
    <path
       style="opacity:1;fill:#ffb300;fill-opacity:1;stroke:none"
       d="m 84,506 c -1.108,0 -2,0.892 -2,2 v 16 c 0,1.108 0.892,2 2,2 h 12 c 1.108,0 2,-0.892 2,-2 v -12 l -6,-6 z"
       id="rect4555"
       inkscape:connector-curvature="0" />
    <path
       style="opacity:1;fill:#ffffff;fill-opacity:0.2;stroke:none"
       d="m 84,506 c -1.108,0 -2,0.892 -2,2 v 1 c 0,-1.108 0.892,-2 2,-2 h 9 l -1,-1 z"
       id="path4566"
       inkscape:connector-curvature="0" />
    <path
       style="opacity:1;fill:#ffca4c;fill-opacity:1;stroke:none"
       d="m 98,512 -6,-6 v 4 c 0,1.108 0.892,2 2,2 z"
       id="rect4560"
       inkscape:connector-curvature="0" />
    <path
       inkscape:connector-curvature="0"
       style="display:inline;fill:#000000;fill-opacity:0.2;stroke:none;filter:url(#filter4564);enable-background:new"
       d="m 418,50 c -13.296,0 -24,10.704 -24,24 v 400 c 0,13.296 10.704,24 24,24 h 304 c 13.296,0 24,-10.704 24,-24 V 194 L 602,50 Z"
       id="path4558" />
    <path
       id="path4556"
       d="m 418,50 c -13.296,0 -24,10.704 -24,24 v 400 c 0,13.296 10.704,24 24,24 h 304 c 13.296,0 24,-10.704 24,-24 V 194 L 602,50 Z"
       style="display:inline;fill:#000000;fill-opacity:0.2;stroke:none;enable-background:new"
       inkscape:connector-curvature="0" />
    <path
       style="display:inline;fill:#ffb300;fill-opacity:1;stroke:none;enable-background:new"
       d="m 418,48 c -13.296,0 -24,10.704 -24,24 v 400 c 0,13.296 10.704,24 24,24 h 304 c 13.296,0 24,-10.704 24,-24 V 192 L 602,48 Z"
       id="rect3362"
       inkscape:connector-curvature="0" />
    <path
       style="display:inline;fill:#ffffff;fill-opacity:0.2;stroke:none;stroke-width:16;stroke-linecap:round;stroke-linejoin:round;stroke-miterlimit:4;stroke-dasharray:none;stroke-opacity:1;enable-background:new"
       d="m 418,48 c -13.296,0 -24,10.704 -24,24 v 2 c 0,-13.296 10.704,-24 24,-24 h 6 60.625 6 111.375 2 l -2,-2 H 484.625 Z"
       id="path4637"
       inkscape:connector-curvature="0" />
    <path
       style="display:inline;fill:#ffb300;fill-opacity:1;fill-rule:evenodd;stroke:none;stroke-width:4.86648273px;stroke-linecap:butt;stroke-linejoin:miter;stroke-opacity:1;enable-background:new"
       d="m 18,512 c -1.108,0 -2,0.89199 -2,2 v 12 c 0,1.10801 0.892,2 2,2 h 12 c 1.108,0 2,-0.89199 2,-2 v -8 l -6,-6 z"
       id="rect4630-7-2"
       inkscape:connector-curvature="0" />
    <path
       style="display:inline;fill:url(#linearGradient4256);fill-opacity:1;fill-rule:evenodd;stroke:none;stroke-width:8px;stroke-linecap:butt;stroke-linejoin:miter;stroke-opacity:1;enable-background:new"
       d="m 608,184 80,80 58,60 v -60 -72 l -8,-8 h -50 z"
       id="path4254"
       inkscape:connector-curvature="0" />
    <path
       style="display:inline;opacity:1;fill:#ffca4c;fill-opacity:1;stroke:none;enable-background:new"
       d="m 602,48 v 120 c 0,13.2548 10.7452,24 24,24 h 120 z"
       id="path4060"
       inkscape:connector-curvature="0" />
    <path
       style="fill:url(#linearGradient4669);fill-opacity:1;stroke:none;stroke-width:1px;stroke-linecap:butt;stroke-linejoin:miter;stroke-opacity:1"
       d="m 199,495 11,11 v -10 l -11,-1"
       id="path4661"
       inkscape:connector-curvature="0" />
    <path
       inkscape:connector-curvature="0"
       id="path4658"
       d="m 210,496 -12,-12 v 9 c 0,1.662 1.338,3 3,3 z"
       style="fill:#ffca4c;fill-opacity:1;stroke:none;stroke-width:1px;stroke-linecap:butt;stroke-linejoin:miter;stroke-opacity:1" />
    <path
       inkscape:connector-curvature="0"
       id="path4536"
       d="m 129,499 c -1.108,0 -2,0.892 -2,2 v 24 c 0,1.108 0.892,2 2,2 h 18 c 1.108,0 2,-0.892 2,-2 v -18 l -8,-8 z"
       style="opacity:1;fill:#000000;fill-opacity:0.2;stroke:none" />
    <path
       style="opacity:1;fill:#ffb300;fill-opacity:1;stroke:none"
       d="m 129,498 c -1.108,0 -2,0.892 -2,2 v 24 c 0,1.108 0.892,2 2,2 h 18 c 1.108,0 2,-0.892 2,-2 v -18 l -8,-8 z"
       id="rect4526"
       inkscape:connector-curvature="0" />
    <path
       style="opacity:1;fill:#ffffff;fill-opacity:0.2;stroke:none"
       d="m 129,498 c -1.108,0 -2,0.892 -2,2 v 1 c 0,-1.108 0.892,-2 2,-2 h 13 l -1,-1 z"
       id="rect4529"
       inkscape:connector-curvature="0" />
    <path
       id="path4524"
       d="m 149,506 -8,-8 v 6 c 0,1.108 0.892,2 2,2 z"
       style="opacity:1;fill:#ffca4c;fill-opacity:1;stroke:none"
       inkscape:connector-curvature="0" />
    <path
       style="fill:url(#linearGradient4553);fill-opacity:1;stroke:none;stroke-width:1px;stroke-linecap:butt;stroke-linejoin:miter;stroke-opacity:1"
       d="m 143,506 6,6 v -6 h -6"
       id="path4545"
       inkscape:connector-curvature="0" />
    <path
       style="fill:url(#linearGradient4584);fill-opacity:1;stroke:none;stroke-width:1px;stroke-linecap:butt;stroke-linejoin:miter;stroke-opacity:1"
       d="m 94,512 4,4 v -4 h -4"
       id="path4576"
       inkscape:connector-curvature="0" />
    <path
       inkscape:connector-curvature="0"
       id="path4544"
       d="m 247,469 c -1.662,0 -3,1.338 -3,3 v 50 c 0,1.662 1.338,3 3,3 h 38 c 1.662,0 3,-1.338 3,-3 v -35 l -18,-18 z m 38.60547,0.0605 c 0.39058,0.0799 0.75306,0.23552 1.07226,0.45117 -0.31876,-0.21473 -0.68155,-0.37163 -1.07226,-0.45117 z m 1.07422,0.45117 c 0.31825,0.21524 0.59335,0.49034 0.80859,0.80859 -0.21523,-0.3191 -0.48949,-0.59336 -0.80859,-0.80859 z m 0.80859,0.81055 c 0.21565,0.3192 0.37125,0.68168 0.45117,1.07226 -0.0795,-0.39071 -0.23644,-0.7535 -0.45117,-1.07226 z"
       style="opacity:1;fill:#000000;fill-opacity:0.2;stroke:none;stroke-opacity:1;filter:url(#filter4546)" />
    <path
       style="opacity:1;fill:#ffb300;fill-opacity:1;stroke:none;stroke-opacity:1"
       d="m 247,468 c -1.662,0 -3,1.338 -3,3 v 50 c 0,1.662 1.338,3 3,3 h 38 c 1.662,0 3,-1.338 3,-3 v -35 l -18,-18 z m 38.60547,0.0605 c 0.39058,0.0799 0.75306,0.23552 1.07226,0.45117 -0.31876,-0.21473 -0.68155,-0.37163 -1.07226,-0.45117 z m 1.07422,0.45117 c 0.31825,0.21524 0.59335,0.49034 0.80859,0.80859 -0.21523,-0.3191 -0.48949,-0.59336 -0.80859,-0.80859 z m 0.80859,0.81055 c 0.21565,0.3192 0.37125,0.68168 0.45117,1.07226 -0.0795,-0.39071 -0.23644,-0.7535 -0.45117,-1.07226 z"
       id="rect4543"
       inkscape:connector-curvature="0" />
    <path
       style="opacity:1;fill:#ffffff;fill-opacity:0.2;stroke:none;stroke-opacity:1"
       d="m 247,468 c -1.662,0 -3,1.338 -3,3 v 1 c 0,-1.662 1.338,-3 3,-3 h 24 l -1,-1 z"
       id="path4550"
       inkscape:connector-curvature="0"
       sodipodi:nodetypes="sscsccs" />
    <path
       id="path4531"
       d="m 270.75,485.00003 10,10 7.25,7.5 v -7.5 -9 l -1,-1 h -6.25 z"
       style="display:inline;fill:url(#linearGradient4539);fill-opacity:1;fill-rule:evenodd;stroke:none;stroke-width:1px;stroke-linecap:butt;stroke-linejoin:miter;stroke-opacity:1;enable-background:new"
       inkscape:connector-curvature="0" />
    <path
       inkscape:connector-curvature="0"
       id="path4537"
       d="m 270,468.00003 v 15 c 0,1.65685 1.34315,3 3,3 h 15 z"
       style="display:inline;opacity:1;fill:#ffca4c;fill-opacity:1;stroke:none;stroke-width:0.125;enable-background:new" />
    <path
       inkscape:connector-curvature="0"
       id="path4570"
       d="m 28,518 4,4 v -4 h -4"
       style="fill:url(#linearGradient4572);fill-opacity:1;stroke:none;stroke-width:1px;stroke-linecap:butt;stroke-linejoin:miter;stroke-opacity:1" />
    <path
       inkscape:connector-curvature="0"
       id="path4568"
       d="m 32,518 -6,-6 v 4 c 0,1.108 0.892,2 2,2 z"
       style="opacity:1;fill:#ffffff;fill-opacity:0.3;stroke:none" />
    <path
       style="display:inline;fill:url(#linearGradient4171-1-0);fill-opacity:1;stroke:none;stroke-width:2;stroke-linecap:round;stroke-linejoin:round;stroke-miterlimit:4;stroke-dasharray:none;stroke-opacity:1;enable-background:new"
       d="m 181,484 c -1.662,0 -3,1.338 -3,3 v 1.95312 30.13282 V 521 c 0,1.662 1.338,3 3,3 h 3.91992 18.17969 H 207 c 1.662,0 3,-1.338 3,-3 V 519.04492 496 l -12,-12 h -13.09961 z"
       id="circle4163-3-4"
       inkscape:connector-curvature="0" />
    <path
       style="display:inline;fill:url(#linearGradient4435);fill-opacity:1;stroke:none;stroke-width:2;stroke-linecap:round;stroke-linejoin:round;stroke-miterlimit:4;stroke-dasharray:none;stroke-opacity:1;enable-background:new"
       d="m 129,498 c -1.108,0 -2,0.892 -2,2 v 1.8418 20.34375 V 524 c 0,1.108 0.892,2 2,2 h 3.6875 10.64453 H 147 c 1.108,0 2,-0.892 2,-2 V 522.1582 506 l -8,-8 h -8.33594 z"
       id="path4433"
       inkscape:connector-curvature="0" />
    <path
       style="display:inline;fill:url(#linearGradient4449-0);fill-opacity:1;stroke:none;stroke-width:16;stroke-linecap:round;stroke-linejoin:round;stroke-miterlimit:4;stroke-dasharray:none;stroke-opacity:1;enable-background:new"
       d="m 418,48 c -13.296,0 -24,10.704 -24,24 V 109.4668 434.9707 472 c 0,13.296 10.704,24 24,24 H 484.98242 655.36719 722 c 13.296,0 24,-10.704 24,-24 V 434.52344 192 L 602,48 H 484.625 Z"
       id="path4447"
       inkscape:connector-curvature="0" />
    <path
       style="display:inline;fill:url(#linearGradient4537);fill-opacity:1;stroke:none;stroke-width:2;stroke-linecap:round;stroke-linejoin:round;stroke-miterlimit:4;stroke-dasharray:none;stroke-opacity:1;enable-background:new"
       d="m 247,468 c -1.662,0 -3,1.338 -3,3 v 4.68164 40.68945 V 521 c 0,1.662 1.338,3 3,3 h 8.37305 21.29883 H 285 c 1.662,0 3,-1.338 3,-3 V 516.31641 486 l -18,-18 h -14.67188 z m 38.60547,0.0605 c 0.39071,0.0795 0.7535,0.23644 1.07226,0.45117 -0.3192,-0.21565 -0.68168,-0.37127 -1.07226,-0.45117 z m 1.88281,1.26172 c 0.21473,0.31876 0.37167,0.68155 0.45117,1.07226 -0.0799,-0.39058 -0.23552,-0.75306 -0.45117,-1.07226 z"
       id="path4535"
       inkscape:connector-curvature="0" />
    <path
       style="display:inline;fill:url(#linearGradient4620);fill-opacity:1;stroke:none;stroke-width:1.46667397;stroke-linecap:round;stroke-linejoin:round;stroke-miterlimit:4;stroke-dasharray:none;stroke-opacity:1;enable-background:new"
       d="m 84,506 c -1.108,0 -2,0.892 -2,2 v 0.47656 15.06641 V 524 c 0,1.108 0.892,2 2,2 H 85.460938 94.550781 96 c 1.108,0 2,-0.892 2,-2 V 523.52344 512 l -6,-6 h -6.550781 z"
       id="path4618"
       inkscape:connector-curvature="0" />
    <path
       style="display:inline;fill:none;fill-rule:evenodd;stroke:#f5f5f5;stroke-width:1.25;stroke-linecap:round;stroke-linejoin:round;stroke-miterlimit:4;stroke-dasharray:none;stroke-opacity:1;enable-background:new"
       d="m 20.531386,519.85244 c 1.25359,-2.78573 5.7108,-0.41787 1.84556,1.74106 -3.91595,2.18728 -1.07948,3.76073 0,3.79554 0,0 1.60181,0.24375 5.7108,-0.69638"
       id="path4412"
       inkscape:connector-curvature="0"
       sodipodi:nodetypes="cscc" />
    <path
       sodipodi:nodetypes="cscc"
       inkscape:connector-curvature="0"
       id="path4872"
       d="m 86.531386,515.85244 c 1.25359,-2.78573 5.7108,-0.41787 1.84556,1.74106 -3.91595,2.18728 -1.07948,3.76073 0,3.79554 0,0 1.60181,0.24375 5.7108,-0.69638"
       style="display:inline;fill:none;fill-rule:evenodd;stroke:#f5f5f5;stroke-width:1.25;stroke-linecap:round;stroke-linejoin:round;stroke-miterlimit:4;stroke-dasharray:none;stroke-opacity:1;enable-background:new" />
    <path
       style="display:inline;fill:none;fill-rule:evenodd;stroke:#000000;stroke-width:1.65999997;stroke-linecap:round;stroke-linejoin:round;stroke-miterlimit:4;stroke-dasharray:none;stroke-opacity:0.2;enable-background:new"
       d="m 133.45516,514.34401 c 1.55089,-3.44646 7.06519,-0.51698 2.28326,2.154 -4.84467,2.70606 -1.3355,4.6527 0,4.69577 0,0 1.9817,0.30156 7.06519,-0.86155"
       id="path4880"
       inkscape:connector-curvature="0"
       sodipodi:nodetypes="cscc" />
    <path
       sodipodi:nodetypes="cscc"
       inkscape:connector-curvature="0"
       id="path4424"
       d="m 133.45516,513.34401 c 1.55089,-3.44646 7.06519,-0.51698 2.28326,2.154 -4.84467,2.70606 -1.3355,4.6527 0,4.69577 0,0 1.9817,0.30156 7.06519,-0.86155"
       style="display:inline;fill:none;fill-rule:evenodd;stroke:#f5f5f5;stroke-width:1.65999997;stroke-linecap:round;stroke-linejoin:round;stroke-miterlimit:4;stroke-dasharray:none;stroke-opacity:1;enable-background:new" />
    <path
       style="color:#000000;font-style:normal;font-variant:normal;font-weight:normal;font-stretch:normal;font-size:medium;line-height:normal;font-family:sans-serif;font-variant-ligatures:normal;font-variant-position:normal;font-variant-caps:normal;font-variant-numeric:normal;font-variant-alternates:normal;font-feature-settings:normal;text-indent:0;text-align:start;text-decoration:none;text-decoration-line:none;text-decoration-style:solid;text-decoration-color:#000000;letter-spacing:normal;word-spacing:normal;text-transform:none;writing-mode:lr-tb;direction:ltr;text-orientation:mixed;dominant-baseline:auto;baseline-shift:baseline;text-anchor:start;white-space:normal;shape-padding:0;clip-rule:nonzero;display:inline;overflow:visible;visibility:visible;opacity:1;isolation:auto;mix-blend-mode:normal;color-interpolation:sRGB;color-interpolation-filters:linearRGB;solid-color:#000000;solid-opacity:1;vector-effect:none;fill:#000000;fill-opacity:0.2;fill-rule:evenodd;stroke:none;stroke-width:2.32999992;stroke-linecap:round;stroke-linejoin:round;stroke-miterlimit:4;stroke-dasharray:none;stroke-dashoffset:0;stroke-opacity:1;filter:url(#filter4919);color-rendering:auto;image-rendering:auto;shape-rendering:auto;text-rendering:auto;enable-background:new"
       d="m 191.94336,503.0918 c -0.66112,-0.10526 -1.3588,-0.0792 -2.05274,0.0977 -1.38786,0.35369 -2.73518,1.37833 -3.49218,3.06055 a 1.1652823,1.1652823 0 1 0 2.125,0.95703 c 0.49427,-1.09838 1.19819,-1.57036 1.9414,-1.75976 0.74322,-0.18941 1.54678,-0.0242 2.03321,0.29296 0.48643,0.31712 0.64563,0.59496 0.54101,1.07032 -0.10462,0.47535 -0.69425,1.39017 -2.46094,2.37695 -2.05855,1.14982 -3.33861,2.25007 -4.03906,3.44141 -0.70045,1.19133 -0.67995,2.54302 -0.16406,3.51953 0.51589,0.9765 1.36679,1.61953 2.2207,2.0664 0.84122,0.44023 1.68031,0.68637 2.47461,0.71875 0.0652,0.009 0.9401,0.13289 2.77149,0.0195 1.8972,-0.11743 4.80805,-0.47515 8.96289,-1.42578 a 1.1651165,1.1651165 0 1 0 -0.51953,-2.27148 c -4.048,0.92618 -6.83553,1.26263 -8.58789,1.37109 -1.75236,0.10847 -2.37696,0.002 -2.37696,0.002 a 1.1651165,1.1651165 0 0 0 -0.13672,-0.0117 c -0.27259,-0.009 -0.93626,-0.16872 -1.50586,-0.4668 -0.56959,-0.29808 -1.05026,-0.72657 -1.24218,-1.08984 -0.19192,-0.36327 -0.25588,-0.62213 0.11328,-1.25 0.36915,-0.62787 1.31388,-1.55642 3.16406,-2.58985 2.09143,-1.16817 3.28258,-2.46082 3.60156,-3.91015 0.31899,-1.44934 -0.45661,-2.81326 -1.54297,-3.52149 -0.54318,-0.35411 -1.167,-0.592 -1.82812,-0.69726 z"
       id="path4888"
       inkscape:connector-curvature="0" />
    <path
       sodipodi:nodetypes="cscc"
       inkscape:connector-curvature="0"
       id="path4157"
       d="m 187.46095,505.7282 c 2.50255,-5.5612 11.40054,-0.8342 3.68432,3.4757 -7.81747,4.3665 -2.15498,7.5076 0,7.5771 0,0 3.19771,0.4866 11.40054,-1.3902"
       style="display:inline;fill:none;fill-rule:evenodd;stroke:#f5f5f5;stroke-width:2.32999992;stroke-linecap:round;stroke-linejoin:round;stroke-miterlimit:4;stroke-dasharray:none;stroke-opacity:1;enable-background:new" />
    <path
       style="color:#000000;font-style:normal;font-variant:normal;font-weight:normal;font-stretch:normal;font-size:medium;line-height:normal;font-family:sans-serif;font-variant-ligatures:normal;font-variant-position:normal;font-variant-caps:normal;font-variant-numeric:normal;font-variant-alternates:normal;font-feature-settings:normal;text-indent:0;text-align:start;text-decoration:none;text-decoration-line:none;text-decoration-style:solid;text-decoration-color:#000000;letter-spacing:normal;word-spacing:normal;text-transform:none;writing-mode:lr-tb;direction:ltr;text-orientation:mixed;dominant-baseline:auto;baseline-shift:baseline;text-anchor:start;white-space:normal;shape-padding:0;clip-rule:nonzero;display:inline;overflow:visible;visibility:visible;opacity:1;isolation:auto;mix-blend-mode:normal;color-interpolation:sRGB;color-interpolation-filters:linearRGB;solid-color:#000000;solid-opacity:1;vector-effect:none;fill:#ffffff;fill-opacity:1;fill-rule:evenodd;stroke:none;stroke-width:2.32999992;stroke-linecap:round;stroke-linejoin:round;stroke-miterlimit:4;stroke-dasharray:none;stroke-dashoffset:0;stroke-opacity:1;color-rendering:auto;image-rendering:auto;shape-rendering:auto;text-rendering:auto;enable-background:new"
       d="m 190.92969,502.03516 c -0.34381,0.0155 -0.6921,0.0658 -1.03907,0.15429 -1.38785,0.35369 -2.73518,1.37833 -3.49218,3.06055 a 1.1652823,1.1652823 0 0 0 0.0117,0.97852 c 0.75887,-1.66871 2.09887,-2.68697 3.48046,-3.03907 0.69395,-0.1769 1.39162,-0.20291 2.05274,-0.0977 0.66112,0.10526 1.28494,0.34315 1.82812,0.69726 0.7847,0.51157 1.40139,1.3668 1.56641,2.34766 0.22262,-1.38339 -0.52386,-2.66799 -1.56641,-3.34766 -0.54318,-0.35411 -1.167,-0.592 -1.82812,-0.69726 -0.33056,-0.0526 -0.66987,-0.0721 -1.01367,-0.0566 z m 1.98242,4.08007 c -0.24442,0.50978 -0.87791,1.25898 -2.33399,2.07227 -2.05854,1.14982 -3.33861,2.25007 -4.03906,3.44141 -0.46654,0.79349 -0.60844,1.65606 -0.50195,2.43359 0.0673,-0.48145 0.22888,-0.96915 0.50195,-1.43359 0.70045,-1.19134 1.98052,-2.29159 4.03906,-3.44141 1.76669,-0.98678 2.35632,-1.9016 2.46094,-2.37695 0.0632,-0.28705 0.0162,-0.50017 -0.12695,-0.69532 z m -4.48047,7.93555 c -0.21205,0.45193 -0.15983,0.69984 0.004,1.00977 0.19192,0.36327 0.67259,0.79176 1.24218,1.08984 0.5696,0.29808 1.23327,0.4578 1.50586,0.4668 a 1.1651165,1.1651165 0 0 1 0.13672,0.0117 c 0,0 0.6246,0.10651 2.37696,-0.002 1.75236,-0.10846 4.53989,-0.44491 8.58789,-1.37109 a 1.1651165,1.1651165 0 0 1 1.32226,0.63086 1.1651165,1.1651165 0 0 0 -1.32226,-1.63086 c -4.048,0.92618 -6.83553,1.26263 -8.58789,1.37109 -1.75236,0.10847 -2.37696,0.002 -2.37696,0.002 a 1.1651165,1.1651165 0 0 0 -0.13672,-0.0117 c -0.27259,-0.009 -0.93626,-0.16872 -1.50586,-0.4668 -0.56959,-0.29808 -1.05026,-0.72657 -1.24218,-1.08984 -0.002,-0.003 -0.002,-0.006 -0.004,-0.01 z"
       id="path4890"
       inkscape:connector-curvature="0" />
    <path
       style="color:#000000;font-style:normal;font-variant:normal;font-weight:normal;font-stretch:normal;font-size:medium;line-height:normal;font-family:sans-serif;font-variant-ligatures:normal;font-variant-position:normal;font-variant-caps:normal;font-variant-numeric:normal;font-variant-alternates:normal;font-feature-settings:normal;text-indent:0;text-align:start;text-decoration:none;text-decoration-line:none;text-decoration-style:solid;text-decoration-color:#000000;letter-spacing:normal;word-spacing:normal;text-transform:none;writing-mode:lr-tb;direction:ltr;text-orientation:mixed;dominant-baseline:auto;baseline-shift:baseline;text-anchor:start;white-space:normal;shape-padding:0;clip-rule:nonzero;display:inline;overflow:visible;visibility:visible;opacity:1;isolation:auto;mix-blend-mode:normal;color-interpolation:sRGB;color-interpolation-filters:linearRGB;solid-color:#000000;solid-opacity:1;vector-effect:none;fill:#000000;fill-opacity:0.2;fill-rule:evenodd;stroke:none;stroke-width:3;stroke-linecap:round;stroke-linejoin:round;stroke-miterlimit:4;stroke-dasharray:none;stroke-dashoffset:0;stroke-opacity:1;filter:url(#filter4929);color-rendering:auto;image-rendering:auto;shape-rendering:auto;text-rendering:auto;enable-background:new"
       d="m 262.50391,496.21875 c -0.81974,-0.13049 -1.68448,-0.0962 -2.54493,0.12305 -1.72088,0.43855 -3.39223,1.70932 -4.32812,3.78906 a 1.50053,1.50053 0 1 0 2.73633,1.23242 c 0.59761,-1.32801 1.44117,-1.8882 2.33203,-2.11523 0.89086,-0.22703 1.858,-0.0269 2.43555,0.34961 0.57754,0.37651 0.75243,0.68201 0.63085,1.23437 -0.12157,0.55236 -0.82733,1.66152 -2.98242,2.86524 -2.52931,1.41276 -4.1059,2.76859 -4.97461,4.24609 -0.8687,1.4775 -0.84542,3.16705 -0.20312,4.38281 0.64229,1.21576 1.69662,2.00827 2.75195,2.56055 1.03601,0.54216 2.06647,0.8466 3.05274,0.88867 0.0796,0.0106 1.16425,0.16465 3.41406,0.0254 2.3296,-0.1442 5.90278,-0.58422 10.99805,-1.75 a 1.50015,1.50015 0 1 0 -0.66993,-2.92383 c -4.95769,1.13431 -8.37055,1.54704 -10.51367,1.67969 -2.14311,0.13266 -2.89844,0.004 -2.89844,0.004 a 1.50015,1.50015 0 0 0 -0.17773,-0.0176 c -0.31758,-0.0102 -1.1252,-0.2018 -1.81445,-0.5625 -0.68925,-0.3607 -1.26508,-0.88045 -1.49024,-1.30664 -0.22516,-0.42619 -0.30542,-0.70893 0.13672,-1.46094 0.44215,-0.75201 1.59055,-1.88358 3.85156,-3.14648 2.57322,-1.43726 4.05164,-3.03343 4.44922,-4.83985 0.39759,-1.80642 -0.57189,-3.5125 -1.92187,-4.39258 -0.675,-0.44004 -1.4498,-0.73474 -2.26953,-0.86523 z"
       id="path4903"
       inkscape:connector-curvature="0" />
    <path
       style="display:inline;fill:none;fill-rule:evenodd;stroke:#f5f5f5;stroke-width:3;stroke-linecap:round;stroke-linejoin:round;stroke-miterlimit:4;stroke-dasharray:none;stroke-opacity:1;enable-background:new"
       d="m 256.99962,499.74731 c 3.06699,-6.81549 13.97192,-1.02235 4.5153,4.25959 -9.58067,5.35132 -2.64104,9.20087 0,9.28604 0,0 3.91896,0.59634 13.97192,-1.70375"
       id="path4426"
       inkscape:connector-curvature="0"
       sodipodi:nodetypes="cscc" />
    <path
       style="color:#000000;font-style:normal;font-variant:normal;font-weight:normal;font-stretch:normal;font-size:medium;line-height:normal;font-family:sans-serif;font-variant-ligatures:normal;font-variant-position:normal;font-variant-caps:normal;font-variant-numeric:normal;font-variant-alternates:normal;font-feature-settings:normal;text-indent:0;text-align:start;text-decoration:none;text-decoration-line:none;text-decoration-style:solid;text-decoration-color:#000000;letter-spacing:normal;word-spacing:normal;text-transform:none;writing-mode:lr-tb;direction:ltr;text-orientation:mixed;dominant-baseline:auto;baseline-shift:baseline;text-anchor:start;white-space:normal;shape-padding:0;clip-rule:nonzero;display:inline;overflow:visible;visibility:visible;opacity:1;isolation:auto;mix-blend-mode:normal;color-interpolation:sRGB;color-interpolation-filters:linearRGB;solid-color:#000000;solid-opacity:1;vector-effect:none;fill:#ffffff;fill-opacity:1;fill-rule:evenodd;stroke:none;stroke-width:3;stroke-linecap:round;stroke-linejoin:round;stroke-miterlimit:4;stroke-dasharray:none;stroke-dashoffset:0;stroke-opacity:1;color-rendering:auto;image-rendering:auto;shape-rendering:auto;text-rendering:auto;enable-background:new"
       d="m 261.24609,495.14844 c -0.42621,0.0197 -0.85688,0.0837 -1.28711,0.19336 -1.72088,0.43855 -3.39223,1.70932 -4.32812,3.78906 a 1.50053,1.50053 0 0 0 -0.0449,1.11523 1.50053,1.50053 0 0 1 0.0449,-0.11523 c 0.93589,-2.07974 2.60724,-3.35051 4.32812,-3.78906 0.86045,-0.21925 1.72519,-0.25354 2.54493,-0.12305 0.81973,0.13049 1.59453,0.42519 2.26953,0.86523 1.00139,0.65283 1.78877,1.7617 1.96875,3.02735 0.20171,-1.66789 -0.71048,-3.20705 -1.96875,-4.02735 -0.675,-0.44004 -1.4498,-0.73474 -2.26953,-0.86523 -0.40987,-0.0652 -0.83161,-0.09 -1.25782,-0.0703 z m 2.41407,4.93359 c -0.24341,0.59826 -0.98527,1.55864 -2.87696,2.61524 -2.52931,1.41276 -4.1059,2.76859 -4.97461,4.24609 -0.56095,0.95408 -0.74614,1.99516 -0.63671,2.94141 0.0683,-0.65092 0.2681,-1.31446 0.63671,-1.94141 0.86871,-1.4775 2.4453,-2.83333 4.97461,-4.24609 2.15509,-1.20372 2.86086,-2.31288 2.98242,-2.86524 0.0681,-0.30933 0.031,-0.53968 -0.10546,-0.75 z m -5.44532,9.74609 c -0.21075,0.48541 -0.13995,0.74947 0.043,1.09571 0.22516,0.42619 0.80099,0.94594 1.49024,1.30664 0.68925,0.3607 1.49687,0.5523 1.81445,0.5625 a 1.50015,1.50015 0 0 1 0.17773,0.0176 c 0,0 0.75533,0.12875 2.89844,-0.004 2.14312,-0.13265 5.55598,-0.54538 10.51367,-1.67969 a 1.50015,1.50015 0 0 1 1.78125,0.95313 1.50015,1.50015 0 0 0 -1.78125,-1.95313 c -4.95769,1.13431 -8.37055,1.54704 -10.51367,1.67969 -2.14311,0.13266 -2.89844,0.004 -2.89844,0.004 a 1.50015,1.50015 0 0 0 -0.17773,-0.0176 c -0.31758,-0.0102 -1.1252,-0.2018 -1.81445,-0.5625 -0.68925,-0.3607 -1.26508,-0.88045 -1.49024,-1.30664 -0.0178,-0.0337 -0.0272,-0.0635 -0.043,-0.0957 z"
       id="path4933"
       inkscape:connector-curvature="0" />
    <path
       style="display:inline;fill:none;fill-rule:evenodd;stroke:#000000;stroke-width:23.86912918;stroke-linecap:round;stroke-linejoin:round;stroke-miterlimit:4;stroke-dasharray:none;stroke-opacity:0.2;enable-background:new"
       d="m 497.94685,301.62508 c 24.40213,-54.22661 111.16585,-8.1342 35.92543,33.8909 -76.22742,42.57711 -21.01311,73.20558 0,73.88322 0,0 31.18072,4.74471 111.16585,-13.55567"
       id="path4942"
       inkscape:connector-curvature="0"
       sodipodi:nodetypes="cscc" />
    <path
       style="color:#000000;font-style:normal;font-variant:normal;font-weight:normal;font-stretch:normal;font-size:medium;line-height:normal;font-family:sans-serif;font-variant-ligatures:normal;font-variant-position:normal;font-variant-caps:normal;font-variant-numeric:normal;font-variant-alternates:normal;font-feature-settings:normal;text-indent:0;text-align:start;text-decoration:none;text-decoration-line:none;text-decoration-style:solid;text-decoration-color:#000000;letter-spacing:normal;word-spacing:normal;text-transform:none;writing-mode:lr-tb;direction:ltr;text-orientation:mixed;dominant-baseline:auto;baseline-shift:baseline;text-anchor:start;white-space:normal;shape-padding:0;clip-rule:nonzero;display:inline;overflow:visible;visibility:visible;opacity:1;isolation:auto;mix-blend-mode:normal;color-interpolation:sRGB;color-interpolation-filters:linearRGB;solid-color:#000000;solid-opacity:1;vector-effect:none;fill:#000000;fill-opacity:0.2;fill-rule:evenodd;stroke:none;stroke-width:23.86912918;stroke-linecap:round;stroke-linejoin:round;stroke-miterlimit:4;stroke-dasharray:none;stroke-dashoffset:0;stroke-opacity:1;filter:url(#filter4960);color-rendering:auto;image-rendering:auto;shape-rendering:auto;text-rendering:auto;enable-background:new"
       d="m 531.74023,265.03516 c -3.39375,0.15659 -6.82895,0.66088 -10.25195,1.5332 -13.692,3.48929 -26.97951,13.61105 -34.42578,30.1582 a 11.935758,11.935758 0 1 0 21.76758,9.79688 c 4.7548,-10.56615 11.4647,-15.01789 18.55273,-16.82422 7.08804,-1.80633 14.77985,-0.22027 19.375,2.77539 4.59515,2.99566 5.9868,5.43141 5.01953,9.82617 -0.96726,4.39476 -6.5779,13.21773 -23.72461,22.79492 -20.1242,11.24045 -32.67029,22.02763 -39.58203,33.78321 -6.91174,11.75557 -6.72558,25.19218 -1.61523,34.86523 5.11034,9.67305 13.50184,15.99261 21.89844,20.38672 8.06866,4.2225 16.09314,6.68317 23.78906,7.10156 0.60796,0.0814 9.72746,1.2737 27.6543,0.16406 18.53521,-1.14729 46.96211,-4.64451 87.50195,-13.91992 a 11.935758,11.935758 0 1 0 -5.32227,-23.26758 c -39.44528,9.02498 -66.60287,12.30784 -83.65429,13.36329 -17.05143,1.05544 -23.05469,0.0273 -23.05469,0.0273 a 11.935758,11.935758 0 0 0 -1.41016,-0.12891 c -2.5268,-0.0815 -8.95163,-1.61843 -14.43554,-4.48828 -5.48392,-2.86985 -10.07184,-6.99581 -11.86329,-10.38672 -1.79144,-3.39091 -2.42998,-5.63589 1.0879,-11.61914 3.51787,-5.98325 12.65502,-14.99291 30.64453,-25.04101 20.4735,-11.43536 32.23315,-24.13137 35.39648,-38.50391 3.16334,-14.37254 -4.55393,-27.95087 -15.29492,-34.95312 -8.05575,-5.25169 -17.87147,-7.91316 -28.05274,-7.44336 z"
       id="path4944"
       inkscape:connector-curvature="0" />
    <path
       sodipodi:nodetypes="cscc"
       inkscape:connector-curvature="0"
       id="path4940"
       d="m 497.94685,299.62508 c 24.40213,-54.22661 111.16585,-8.1342 35.92543,33.8909 -76.22742,42.57711 -21.01311,73.20558 0,73.88322 0,0 31.18072,4.74471 111.16585,-13.55567"
       style="display:inline;fill:none;fill-rule:evenodd;stroke:#f5f5f5;stroke-width:23.86912918;stroke-linecap:round;stroke-linejoin:round;stroke-miterlimit:4;stroke-dasharray:none;stroke-opacity:1;enable-background:new" />
    <path
       style="color:#000000;font-style:normal;font-variant:normal;font-weight:normal;font-stretch:normal;font-size:medium;line-height:normal;font-family:sans-serif;font-variant-ligatures:normal;font-variant-position:normal;font-variant-caps:normal;font-variant-numeric:normal;font-variant-alternates:normal;font-feature-settings:normal;text-indent:0;text-align:start;text-decoration:none;text-decoration-line:none;text-decoration-style:solid;text-decoration-color:#000000;letter-spacing:normal;word-spacing:normal;text-transform:none;writing-mode:lr-tb;direction:ltr;text-orientation:mixed;dominant-baseline:auto;baseline-shift:baseline;text-anchor:start;white-space:normal;shape-padding:0;clip-rule:nonzero;display:inline;overflow:visible;visibility:visible;opacity:1;isolation:auto;mix-blend-mode:normal;color-interpolation:sRGB;color-interpolation-filters:linearRGB;solid-color:#000000;solid-opacity:1;vector-effect:none;fill:#ffffff;fill-opacity:1;fill-rule:evenodd;stroke:none;stroke-width:23.86912918;stroke-linecap:round;stroke-linejoin:round;stroke-miterlimit:4;stroke-dasharray:none;stroke-dashoffset:0;stroke-opacity:1;color-rendering:auto;image-rendering:auto;shape-rendering:auto;text-rendering:auto;enable-background:new"
       d="m 533.64453,262.98438 c -0.63313,0.005 -1.26797,0.0214 -1.9043,0.0508 -3.39375,0.15659 -6.82895,0.66088 -10.25195,1.5332 -13.692,3.48929 -26.97951,13.61105 -34.42578,30.1582 a 11.935758,11.935758 0 0 0 -1.04102,6.02735 11.935758,11.935758 0 0 1 1.04102,-4.02735 c 7.44627,-16.54715 20.73378,-26.66891 34.42578,-30.1582 3.423,-0.87232 6.8582,-1.37661 10.25195,-1.5332 10.18127,-0.4698 19.99699,2.19167 28.05274,7.44336 8.84095,5.76357 15.62784,15.9837 15.99023,27.43359 0.4201,-12.25242 -6.63725,-23.33622 -15.99023,-29.43359 -7.55227,-4.92346 -16.65144,-7.56962 -26.14844,-7.49414 z m 18.35352,35.94335 c -0.0482,0.43934 -0.11432,0.88967 -0.22071,1.37305 -0.96726,4.39476 -6.5779,13.21773 -23.72461,22.79492 -20.1242,11.24045 -32.67029,22.02763 -39.58203,33.78321 -3.8294,6.5131 -5.47101,13.54099 -5.3125,20.16015 0.18711,-6.02113 1.86702,-12.30004 5.3125,-18.16015 6.91174,-11.75558 19.45783,-22.54276 39.58203,-33.78321 17.14671,-9.57719 22.75735,-18.40016 23.72461,-22.79492 0.27924,-1.26869 0.35496,-2.37027 0.22071,-3.37305 z m -45.41407,78.04688 c -0.29529,2.10889 0.34867,3.6784 1.375,5.62109 1.79145,3.39091 6.37937,7.51687 11.86329,10.38672 5.48391,2.86985 11.90874,4.40678 14.43554,4.48828 a 11.935758,11.935758 0 0 1 1.41016,0.12891 c 0,0 6.00326,1.0281 23.05469,-0.0273 17.05142,-1.05545 44.20901,-4.33831 83.65429,-13.36329 a 11.935758,11.935758 0 0 1 14.72461,10.61719 11.935758,11.935758 0 0 0 -14.72461,-12.61719 c -39.44528,9.02498 -66.60287,12.30784 -83.65429,13.36329 -17.05143,1.05544 -23.05469,0.0273 -23.05469,0.0273 a 11.935758,11.935758 0 0 0 -1.41016,-0.12891 c -2.5268,-0.0815 -8.95163,-1.61843 -14.43554,-4.48828 -5.48392,-2.86985 -10.07184,-6.99581 -11.86329,-10.38672 -0.67752,-1.28244 -1.18976,-2.40225 -1.375,-3.62109 z"
       id="path4964"
       inkscape:connector-curvature="0" />
    <path
       style="opacity:1;fill:#000000;fill-opacity:0.2;stroke:none"
       d="m 49,508 c -1.108,0 -2,0.892 -2,2 v 16 c 0,1.108 0.892,2 2,2 h 12 c 1.108,0 2,-0.892 2,-2 v -12 l -6,-6 z"
       id="path4577"
       inkscape:connector-curvature="0" />
    <path
       inkscape:connector-curvature="0"
       id="path4579"
       d="m 49,507 c -1.108,0 -2,0.892 -2,2 v 16 c 0,1.108 0.892,2 2,2 h 12 c 1.108,0 2,-0.892 2,-2 v -12 l -6,-6 z"
       style="opacity:1;fill:#ffb300;fill-opacity:1;stroke:none" />
    <path
       inkscape:connector-curvature="0"
       id="path4581"
       d="m 49,507 c -1.108,0 -2,0.892 -2,2 v 1 c 0,-1.108 0.892,-2 2,-2 h 9 l -1,-1 z"
       style="opacity:1;fill:#ffffff;fill-opacity:0.2;stroke:none" />
    <path
       inkscape:connector-curvature="0"
       id="path4583"
       d="m 63,513 -6,-6 v 4 c 0,1.108 0.892,2 2,2 z"
       style="opacity:1;fill:#ffca4c;fill-opacity:1;stroke:none" />
    <path
       inkscape:connector-curvature="0"
       id="path4585"
       d="m 59,513 4,4 v -4 h -4"
       style="fill:url(#linearGradient4591);fill-opacity:1;stroke:none;stroke-width:1px;stroke-linecap:butt;stroke-linejoin:miter;stroke-opacity:1" />
    <path
       inkscape:connector-curvature="0"
       id="path4587"
       d="m 49,507 c -1.108,0 -2,0.892 -2,2 v 0.47656 15.06641 V 525 c 0,1.108 0.892,2 2,2 H 50.460938 59.550781 61 c 1.108,0 2,-0.892 2,-2 V 524.52344 513 l -6,-6 h -6.550781 z"
       style="display:inline;fill:url(#linearGradient4593);fill-opacity:1;stroke:none;stroke-width:1.46667397;stroke-linecap:round;stroke-linejoin:round;stroke-miterlimit:4;stroke-dasharray:none;stroke-opacity:1;enable-background:new" />
    <path
       style="display:inline;fill:none;fill-rule:evenodd;stroke:#f5f5f5;stroke-width:1.25;stroke-linecap:round;stroke-linejoin:round;stroke-miterlimit:4;stroke-dasharray:none;stroke-opacity:1;enable-background:new"
       d="m 51.531386,516.85244 c 1.25359,-2.78573 5.7108,-0.41787 1.84556,1.74106 -3.91595,2.18728 -1.07948,3.76073 0,3.79554 0,0 1.60181,0.24375 5.7108,-0.69638"
       id="path4589"
       inkscape:connector-curvature="0"
       sodipodi:nodetypes="cscc" />
  </g>
</svg>
