<?xml version="1.0" encoding="UTF-8" standalone="no"?>
<!-- Created with Inkscape (http://www.inkscape.org/) -->

<svg
   xmlns:dc="http://purl.org/dc/elements/1.1/"
   xmlns:cc="http://creativecommons.org/ns#"
   xmlns:rdf="http://www.w3.org/1999/02/22-rdf-syntax-ns#"
   xmlns:svg="http://www.w3.org/2000/svg"
   xmlns="http://www.w3.org/2000/svg"
   xmlns:xlink="http://www.w3.org/1999/xlink"
   xmlns:sodipodi="http://sodipodi.sourceforge.net/DTD/sodipodi-0.dtd"
   xmlns:inkscape="http://www.inkscape.org/namespaces/inkscape"
   width="842"
   height="544"
   viewBox="0 0 842 544"
   version="1.1"
   id="svg1087"
   inkscape:version="0.92.1 r"
   sodipodi:docname="lollypop.svg">
  <defs
     id="defs1081">
    <filter
       inkscape:collect="always"
       style="color-interpolation-filters:sRGB"
       id="filter4860"
       x="-0.012"
       width="1.024"
       y="-0.012"
       height="1.024">
      <feGaussianBlur
         inkscape:collect="always"
         stdDeviation="0.11"
         id="feGaussianBlur4862" />
    </filter>
    <filter
       inkscape:collect="always"
       style="color-interpolation-filters:sRGB"
       id="filter4815"
       x="-0.012"
       width="1.024"
       y="-0.012"
       height="1.024">
      <feGaussianBlur
         inkscape:collect="always"
         stdDeviation="0.2"
         id="feGaussianBlur4817" />
    </filter>
    <filter
       inkscape:collect="always"
       style="color-interpolation-filters:sRGB"
       id="filter4825"
       x="-0.012"
       width="1.024"
       y="-0.012"
       height="1.024">
      <feGaussianBlur
         inkscape:collect="always"
         stdDeviation="0.15999998"
         id="feGaussianBlur4827" />
    </filter>
    <filter
       inkscape:collect="always"
       style="color-interpolation-filters:sRGB"
       id="filter4831"
       x="-0.012"
       width="1.024"
       y="-0.012"
       height="1.024">
      <feGaussianBlur
         inkscape:collect="always"
         stdDeviation="0.27999996"
         id="feGaussianBlur4833" />
    </filter>
    <filter
       inkscape:collect="always"
       style="color-interpolation-filters:sRGB"
       id="filter4880"
       x="-0.024"
       width="1.048"
       y="-0.024"
       height="1.048">
      <feGaussianBlur
         inkscape:collect="always"
         stdDeviation="2.5599995"
         id="feGaussianBlur4882" />
    </filter>
    <filter
       inkscape:collect="always"
       style="color-interpolation-filters:sRGB"
       id="filter4892"
       x="-0.024"
       width="1.048"
       y="-0.024"
       height="1.048">
      <feGaussianBlur
         inkscape:collect="always"
         stdDeviation="4.4799994"
         id="feGaussianBlur4894" />
    </filter>
    <linearGradient
       inkscape:collect="always"
       xlink:href="#linearGradient4165-3"
       id="linearGradient4449-0"
       gradientUnits="userSpaceOnUse"
       gradientTransform="matrix(10.43473,0,0,10.434772,319.56521,-10458.722)"
       x1="7"
       y1="1011.3622"
       x2="41.000019"
       y2="1045.3622" />
    <linearGradient
       inkscape:collect="always"
       id="linearGradient4165-3">
      <stop
         style="stop-color:#ffffff;stop-opacity:0.05490196"
         offset="0"
         id="stop4167-6" />
      <stop
         style="stop-color:#177ed5;stop-opacity:0;"
         offset="1"
         id="stop4169-7" />
    </linearGradient>
    <linearGradient
       inkscape:collect="always"
       xlink:href="#linearGradient4165-3"
       id="linearGradient4435"
       gradientUnits="userSpaceOnUse"
       gradientTransform="matrix(0.65217041,0,0,0.65217328,122.34777,-158.67056)"
       x1="7"
       y1="1011.3622"
       x2="41.000019"
       y2="1045.3622" />
    <linearGradient
       inkscape:collect="always"
       xlink:href="#linearGradient4165-3"
       id="linearGradient4171-1-0"
       x1="7"
       y1="1011.3622"
       x2="41.000019"
       y2="1045.3622"
       gradientUnits="userSpaceOnUse"
       gradientTransform="matrix(0.95652174,0,0,0.95652174,171.0435,-479.65043)" />
    <linearGradient
       inkscape:collect="always"
       xlink:href="#linearGradient4165-3"
       id="linearGradient4537"
       gradientUnits="userSpaceOnUse"
       gradientTransform="matrix(1.3043412,0,0,1.3043465,234.69565,-845.34025)"
       x1="7"
       y1="1011.3622"
       x2="41.000019"
       y2="1045.3622" />
    <linearGradient
       inkscape:collect="always"
       xlink:href="#linearGradient4165-3"
       id="linearGradient4553"
       gradientUnits="userSpaceOnUse"
       gradientTransform="matrix(0.4782599,0,0,0.47826359,43.52174,25.171867)"
       x1="7"
       y1="1011.3622"
       x2="41.000019"
       y2="1045.3622" />
    <linearGradient
       inkscape:collect="always"
       xlink:href="#linearGradient4165-3"
       id="linearGradient4620"
       gradientUnits="userSpaceOnUse"
       gradientTransform="matrix(0.4782599,0,0,0.47826359,78.52174,24.171867)"
       x1="7"
       y1="1011.3622"
       x2="41.000019"
       y2="1045.3622" />
  </defs>
  <sodipodi:namedview
     id="base"
     pagecolor="#c3c3c3"
     bordercolor="#333333"
     borderopacity="1"
     inkscape:pageopacity="0"
     inkscape:pageshadow="2"
     inkscape:zoom="0.49497477"
     inkscape:cx="1014.5335"
     inkscape:cy="90.15634"
     inkscape:document-units="px"
     inkscape:current-layer="layer1"
     showgrid="true"
     units="px"
     inkscape:showpageshadow="false"
     inkscape:window-width="2560"
     inkscape:window-height="1369"
     inkscape:window-x="0"
     inkscape:window-y="35"
     inkscape:window-maximized="1">
    <inkscape:grid
       type="xygrid"
       id="grid4630" />
  </sodipodi:namedview>
  <metadata
     id="metadata1084">
    <rdf:RDF>
      <cc:Work
         rdf:about="">
        <dc:format>image/svg+xml</dc:format>
        <dc:type
           rdf:resource="http://purl.org/dc/dcmitype/StillImage" />
        <dc:title></dc:title>
        <cc:license
           rdf:resource="http://creativecommons.org/licenses/by-sa/4.0/" />
        <dc:creator>
          <cc:Agent>
            <dc:title>Peter Cornelis</dc:title>
          </cc:Agent>
        </dc:creator>
      </cc:Work>
      <cc:License
         rdf:about="http://creativecommons.org/licenses/by-sa/4.0/">
        <cc:permits
           rdf:resource="http://creativecommons.org/ns#Reproduction" />
        <cc:permits
           rdf:resource="http://creativecommons.org/ns#Distribution" />
        <cc:requires
           rdf:resource="http://creativecommons.org/ns#Notice" />
        <cc:requires
           rdf:resource="http://creativecommons.org/ns#Attribution" />
        <cc:permits
           rdf:resource="http://creativecommons.org/ns#DerivativeWorks" />
        <cc:requires
           rdf:resource="http://creativecommons.org/ns#ShareAlike" />
      </cc:License>
    </rdf:RDF>
  </metadata>
  <g
     inkscape:label="Baseplate"
     inkscape:groupmode="layer"
     id="layer1"
     transform="translate(0,-153.06668)"
     style="display:none">
    <rect
       style="display:inline;overflow:visible;visibility:visible;fill:#fefefe;fill-opacity:1;fill-rule:nonzero;stroke:none;stroke-width:2;marker:none;enable-background:accumulate"
       id="rect3951"
       width="512"
       height="512"
       x="-826"
       y="169.06668"
       inkscape:label="48x48"
       transform="scale(-1,1)" />
    <text
       y="733.32251"
       xml:space="preserve"
       x="15.006836"
       style="font-style:normal;font-variant:normal;font-weight:normal;font-stretch:normal;line-height:0%;font-family:'DejaVu Sans';-inkscape-font-specification:'DejaVu Sans';display:inline;fill:#000000;fill-opacity:1;stroke:none;enable-background:new"
       inkscape:label="context"
       id="context"><tspan
         style="font-style:normal;font-variant:normal;font-weight:normal;font-stretch:normal;font-size:18px;line-height:1.25;font-family:'DejaVu Sans';-inkscape-font-specification:'DejaVu Sans'"
         y="733.32251"
         x="15.006836"
         sodipodi:role="line"
         id="tspan3933">apps</tspan></text>
    <text
       y="733.32251"
       xml:space="preserve"
       x="142.48828"
       style="font-style:normal;font-variant:normal;font-weight:bold;font-stretch:normal;line-height:0%;font-family:'DejaVu Sans';-inkscape-font-specification:'DejaVu Sans Bold';text-align:start;writing-mode:lr-tb;text-anchor:start;display:inline;fill:#000000;fill-opacity:1;stroke:none;enable-background:new"
       inkscape:label="icon-name"
       id="icon-name"><tspan
         style="font-style:normal;font-variant:normal;font-weight:bold;font-stretch:normal;font-size:18px;line-height:1.25;font-family:'DejaVu Sans';-inkscape-font-specification:'DejaVu Sans Bold'"
         y="733.32251"
         x="142.48828"
         sodipodi:role="line"
         id="tspan3937">lollypop</tspan></text>
    <rect
       style="display:inline;overflow:visible;visibility:visible;fill:#fefefe;fill-opacity:1;fill-rule:nonzero;stroke:none;stroke-width:2;marker:none;enable-background:accumulate"
       id="rect16x16"
       width="16"
       height="16"
       x="-32"
       y="665.06665"
       inkscape:label="16x16"
       transform="scale(-1,1)" />
    <rect
       style="display:inline;overflow:visible;visibility:visible;fill:#fefefe;fill-opacity:1;fill-rule:nonzero;stroke:none;stroke-width:2;marker:none;enable-background:accumulate"
       id="rect24x24"
       width="24"
       height="24"
       x="-102"
       y="657.06665"
       inkscape:label="24x24"
       transform="scale(-1,1)" />
    <rect
       style="display:inline;overflow:visible;visibility:visible;fill:#fefefe;fill-opacity:1;fill-rule:nonzero;stroke:none;stroke-width:2;marker:none;enable-background:accumulate"
       id="rect32x32"
       width="32"
       height="32"
       x="-154"
       y="649.06665"
       inkscape:label="32x32"
       transform="scale(-1,1)" />
    <rect
       inkscape:label="48x48"
       y="633.06665"
       x="-218"
       height="48"
       width="48"
       id="rect48x48"
       style="display:inline;overflow:visible;visibility:visible;fill:#fefefe;fill-opacity:1;fill-rule:nonzero;stroke:none;stroke-width:2;marker:none;enable-background:accumulate"
       transform="scale(-1,1)" />
    <rect
       transform="scale(-1,1)"
       inkscape:label="48x48"
       y="617.06665"
       x="-298"
       height="64"
       width="64"
       id="rect4493"
       style="display:inline;overflow:visible;visibility:visible;fill:#fefefe;fill-opacity:1;fill-rule:nonzero;stroke:none;stroke-width:0.25;marker:none;enable-background:accumulate" />
    <rect
       transform="scale(-1,1)"
       inkscape:label="24x24"
       y="659.06665"
       x="-66"
       height="22"
       width="22"
       id="rect4495"
       style="display:inline;overflow:visible;visibility:visible;fill:#fefefe;fill-opacity:1;fill-rule:nonzero;stroke:none;stroke-width:1.83333325;marker:none;enable-background:accumulate" />
    <rect
       transform="matrix(0,-1,-1,0,0,0)"
       style="display:inline;opacity:1;fill:#ffffff;fill-opacity:1;stroke:none;enable-background:new"
       id="rect4577"
       width="8"
       height="8"
       x="-677.06665"
       y="-28"
       rx="4"
       ry="4" />
  </g>
  <g
     inkscape:groupmode="layer"
     id="layer2"
     inkscape:label="Bitmap"
     style="display:inline">
    <rect
       transform="matrix(0,-1,-1,0,0,0)"
       style="display:inline;fill:#000000;fill-opacity:0.2;stroke:none;stroke-width:0.99999994;enable-background:new"
       id="rect4884"
       width="447.99994"
       height="447.99994"
       x="-498.00049"
       y="-794.5"
       rx="223.99997"
       ry="223.99997" />
    <rect
       ry="15"
       rx="15"
       y="-153"
       x="-528"
       height="30"
       width="30"
       id="rect4804"
       style="display:inline;opacity:1;fill:#000000;fill-opacity:0.2;stroke:none;enable-background:new"
       transform="matrix(0,-1,-1,0,0,0)" />
    <rect
       ry="15"
       rx="15"
       y="-153.00003"
       x="-527"
       height="30"
       width="30"
       id="rect4563"
       style="display:inline;fill:#dd4178;fill-opacity:1;stroke:none;enable-background:new"
       transform="matrix(0,-1,-1,0,0,0)" />
    <rect
       ry="20"
       rx="20"
       y="-214"
       x="-678.06665"
       height="40"
       width="40"
       id="rect4209"
       style="display:inline;opacity:1;fill:#000000;fill-opacity:0.2;stroke:none;filter:url(#filter4815);enable-background:new"
       transform="matrix(0,-1,-1,0,-2.7993575e-8,-153.06662)" />
    <rect
       transform="matrix(0,-1,-1,0,0,0)"
       style="display:inline;opacity:1;fill:#000000;fill-opacity:0.2;stroke:none;enable-background:new"
       id="rect4826"
       width="22"
       height="22"
       x="-529"
       y="-66"
       rx="11"
       ry="11" />
    <rect
       ry="11"
       rx="11"
       y="-66"
       x="-528"
       height="22"
       width="22"
       id="rect4243"
       style="display:inline;fill:#dd4178;fill-opacity:1;stroke:none;enable-background:new"
       transform="matrix(0,-1,-1,0,0,0)" />
    <rect
       transform="matrix(0,-1,-1,0,0,0)"
       style="display:inline;fill:#dd4178;fill-opacity:1;stroke:none;enable-background:new"
       id="rect4265"
       width="16"
       height="16"
       x="-528"
       y="-32"
       rx="8"
       ry="8" />
    <path
       id="path4455"
       d="m 266.06249,524.00009 c -15.51199,0 -27.99999,-12.488 -27.99999,-28 0,-0.0843 3.7e-4,-0.16704 0,-0.25 0,15.512 12.488,28 27.99999,28 15.512,0 28,-12.488 28,-28 -3.8e-4,0.083 0,0.16574 0,0.25 0,15.512 -12.488,28 -28,28 z"
       style="display:inline;opacity:0.2;fill:#000000;fill-opacity:1;stroke:none;stroke-width:0.12499999;enable-background:new"
       inkscape:connector-curvature="0" />
    <rect
       ry="20"
       rx="20"
       y="-214"
       x="-524"
       height="40"
       width="40"
       id="rect4549"
       style="display:inline;fill:#dd4178;fill-opacity:1;stroke:none;enable-background:new"
       transform="matrix(0,-1,-1,0,0,0)" />
    <path
       clip-path="none"
       sodipodi:nodetypes="ccccccccccccccccccccccccccccccccccccccccccccccccccccccccccccccc"
       id="path4586"
       d="m 135.09634,497.22862 c -0.38529,0.0707 -0.76768,0.1566 -1.14626,0.2573 -0.48194,0.13374 -0.95689,0.29148 -1.42307,0.47266 -0.46611,0.1812 -0.92287,0.38558 -1.36856,0.6124 -0.44565,0.22684 -0.87966,0.47582 -1.30043,0.74601 -0.42087,0.27027 -0.82796,0.56142 -1.21974,0.87237 -0.39176,0.31082 -0.76772,0.64103 -1.12649,0.98941 -0.0461,0.0488 -0.0919,0.098 -0.13734,0.14748 0.32673,2.24248 2.11352,5.02717 3.87525,6.99909 -0.59861,1.11051 -0.91234,2.35218 -0.9131,3.61373 0.002,0.36091 0.0309,0.72116 0.0846,1.07807 -2.54356,-1.1533 -5.40887,-3.33177 -6.62951,-5.94708 -0.0553,0.14461 -0.10842,0.29007 -0.15925,0.43632 -0.14776,0.47776 -0.27154,0.9626 -0.37087,1.45272 -0.0994,0.49008 -0.1742,0.98482 -0.22417,1.48237 -0.0499,0.49765 -0.0748,0.99747 -0.0748,1.4976 -6e-5,0.35401 0.0125,0.7079 0.0374,1.06102 0.0355,0.49888 0.0958,0.99567 0.1809,1.48852 0.0786,0.44176 0.17688,0.87976 0.29471,1.31271 2.1067,0.8392 5.41356,0.68431 8.00436,0.14352 0.85615,1.38464 2.13295,2.45897 3.64359,3.06578 -2.26915,1.62432 -5.5863,3.01611 -8.45953,2.76643 0.17379,0.20906 0.35323,0.41336 0.53813,0.61266 0.34843,0.35874 0.71459,0.69984 1.0971,1.02201 0.38247,0.32216 0.78082,0.625 1.19354,0.90738 0.41276,0.28236 0.83938,0.54392 1.27826,0.78367 0.43889,0.23976 0.88949,0.45745 1.35013,0.65221 0.46068,0.19473 0.93081,0.36631 1.40864,0.51407 0.18063,0.0497 0.36217,0.096 0.54454,0.13895 1.77529,-1.40433 3.29054,-4.34226 4.11599,-6.85114 1.62705,-0.048 3.19606,-0.61541 4.4775,-1.61916 0.27111,2.77822 -0.18419,6.34814 -1.8391,8.71184 0.38529,-0.0708 0.76767,-0.15661 1.14626,-0.25731 0.48194,-0.13374 0.95688,-0.29148 1.42307,-0.47266 0.46611,-0.1812 0.92287,-0.38559 1.36856,-0.61241 0.44564,-0.22683 0.87966,-0.47581 1.30043,-0.74599 0.42087,-0.27027 0.82796,-0.56144 1.21974,-0.87238 0.39176,-0.31081 0.76772,-0.64104 1.12649,-0.9894 0.0461,-0.0489 0.0919,-0.098 0.13733,-0.14749 -0.32672,-2.24247 -2.11351,-5.02717 -3.87524,-6.99909 0.5986,-1.1105 0.91234,-2.35217 0.9131,-3.61374 -0.003,-0.3609 -0.0309,-0.72115 -0.0846,-1.07805 2.54356,1.15329 5.40887,3.33175 6.62951,5.94707 0.0554,-0.1446 0.10843,-0.29006 0.15926,-0.43632 0.14775,-0.47775 0.27153,-0.9626 0.37086,-1.45271 0.0994,-0.49008 0.1742,-0.98483 0.22417,-1.48238 0.0499,-0.49764 0.0748,-0.99747 0.0748,-1.49761 5e-5,-0.354 -0.0125,-0.70789 -0.0374,-1.061 -0.0355,-0.49889 -0.0958,-0.99568 -0.18089,-1.48853 -0.0788,-0.44375 -0.1776,-0.88373 -0.29604,-1.31858 -2.58178,-0.92013 -5.76311,-0.60213 -8.0045,-0.13984 -0.85613,-1.38358 -2.13234,-2.45708 -3.64212,-3.06359 2.26914,-1.62432 5.5863,-3.0161 8.45953,-2.76642 -0.17379,-0.20906 -0.35324,-0.41336 -0.53813,-0.61267 -0.34843,-0.35875 -0.71459,-0.69984 -1.0971,-1.02201 -0.38247,-0.32216 -0.78082,-0.625 -1.19355,-0.90737 -0.41276,-0.28237 -0.83937,-0.54392 -1.27825,-0.78367 -0.4389,-0.23978 -0.8895,-0.45746 -1.35013,-0.65221 -0.46069,-0.19474 -0.93082,-0.36631 -1.40865,-0.51408 -0.17913,-0.0493 -0.35916,-0.0953 -0.54,-0.13788 -1.77632,1.40425 -3.29341,4.34126 -4.11978,6.85006 -1.62732,0.0478 -3.1966,0.61527 -4.47825,1.61918 -0.27111,-2.77822 0.1842,-6.34814 1.83911,-8.71184 z"
       style="display:inline;opacity:1;fill:#f5f5f5;fill-opacity:1;stroke:none;stroke-opacity:1;enable-background:new"
       inkscape:connector-curvature="0" />
    <rect
       ry="27.999996"
       rx="27.999996"
       y="-294.0625"
       x="-678.06665"
       height="55.999992"
       width="55.999992"
       id="rect4829"
       style="display:inline;fill:#000000;fill-opacity:0.2;stroke:none;stroke-width:0.12499999;filter:url(#filter4831);enable-background:new"
       transform="matrix(0,-1,-1,0,-2.7993575e-8,-153.06662)" />
    <rect
       transform="matrix(0,-1,-1,0,0,0)"
       style="display:inline;fill:#dd4178;fill-opacity:1;stroke:none;stroke-width:0.12499999;enable-background:new"
       id="rect4523"
       width="55.999992"
       height="55.999992"
       x="-524.00006"
       y="-294.0625"
       rx="27.999996"
       ry="27.999996" />
    <path
       clip-path="none"
       sodipodi:nodetypes="ccccccccccccccccccccccccccccccccccccccccccccccccccccccccccccccc"
       id="path4598"
       d="m 260.7123,468.54057 c -0.71922,0.13202 -1.43301,0.29232 -2.13969,0.4803 -0.89962,0.24963 -1.7862,0.5441 -2.65639,0.88229 -0.87009,0.33824 -1.7227,0.71976 -2.55466,1.14316 -0.83187,0.42343 -1.64203,0.88818 -2.42747,1.39253 -0.78563,0.50451 -1.54552,1.048 -2.27685,1.62844 -0.73127,0.5802 -1.43308,1.19659 -2.10276,1.84689 -0.0861,0.0911 -0.17153,0.18296 -0.25637,0.27531 0.60988,4.18595 3.94522,9.38404 7.23378,13.06495 -1.11739,2.07295 -1.70302,4.39073 -1.70445,6.74564 0.004,0.67369 0.0577,1.34617 0.15786,2.01238 -4.74798,-2.15281 -10.09654,-6.21929 -12.37508,-11.10121 -0.10332,0.26994 -0.20238,0.54147 -0.29726,0.81447 -0.27583,0.89181 -0.50687,1.79685 -0.69228,2.71174 -0.18553,0.91481 -0.32518,1.83833 -0.41846,2.76709 -0.0931,0.92894 -0.13972,1.86194 -0.13972,2.79553 -1.1e-4,0.66081 0.0232,1.32142 0.0699,1.98056 0.0662,0.93125 0.17885,1.8586 0.33766,2.77858 0.14664,0.82461 0.33019,1.64222 0.55013,2.45038 3.93251,1.5665 10.10532,1.27739 14.94147,0.26791 1.59816,2.58466 3.98151,4.59007 6.80137,5.72279 -4.23575,3.03206 -10.42775,5.63007 -15.79113,5.16399 0.32441,0.39025 0.65937,0.77161 1.00451,1.14365 0.65041,0.66964 1.33391,1.30636 2.04792,1.90775 0.71396,0.60136 1.45754,1.16667 2.22796,1.69377 0.77047,0.52707 1.56683,1.01532 2.38607,1.46284 0.81926,0.44757 1.6604,0.85392 2.52024,1.21747 0.85994,0.36349 1.73753,0.68378 2.62947,0.9596 0.33717,0.0928 0.67605,0.17925 1.01648,0.25936 3.31388,-2.62141 6.14233,-8.10555 7.68317,-12.78878 3.03717,-0.0896 5.96598,-1.14877 8.358,-3.02244 0.50608,5.18601 -0.34383,11.84986 -3.43299,16.2621 0.71922,-0.13216 1.43299,-0.29234 2.13968,-0.48031 0.89963,-0.24964 1.78619,-0.54409 2.6564,-0.8823 0.87007,-0.33824 1.7227,-0.71977 2.55466,-1.14316 0.83185,-0.42343 1.64203,-0.88818 2.42747,-1.39252 0.78562,-0.5045 1.54551,-1.04801 2.27684,-1.62843 0.73128,-0.58019 1.43307,-1.19661 2.10277,-1.84689 0.0861,-0.0913 0.17153,-0.18297 0.25637,-0.27531 -0.60988,-4.18595 -3.94522,-9.38405 -7.23379,-13.06496 1.11738,-2.07295 1.70303,-4.39073 1.70446,-6.74565 -0.006,-0.67368 -0.0577,-1.34615 -0.15787,-2.01237 4.74798,2.15282 10.09655,6.21928 12.37508,11.10121 0.10332,-0.26993 0.2024,-0.54146 0.29728,-0.81448 0.27581,-0.8918 0.50685,-1.79684 0.69227,-2.71172 0.18553,-0.91482 0.32519,-1.83834 0.41846,-2.76711 0.0931,-0.92893 0.13972,-1.86194 0.13972,-2.79553 1e-4,-0.6608 -0.0232,-1.3214 -0.0699,-1.98055 -0.0662,-0.93125 -0.17885,-1.85859 -0.33767,-2.77857 -0.14714,-0.82834 -0.33153,-1.64963 -0.55262,-2.46137 -4.81931,-1.71756 -10.75779,-1.12397 -14.94172,-0.26103 -1.59811,-2.58268 -3.98038,-4.58654 -6.79863,-5.71869 4.23574,-3.03206 10.42776,-5.63005 15.79112,-5.16399 -0.32441,-0.39025 -0.65937,-0.77159 -1.0045,-1.14364 -0.65041,-0.66966 -1.3339,-1.30637 -2.04791,-1.90775 -0.71396,-0.60137 -1.45754,-1.16668 -2.22797,-1.69377 -0.77048,-0.52709 -1.56682,-1.01531 -2.38607,-1.46285 -0.81927,-0.44758 -1.66039,-0.85391 -2.52024,-1.21746 -0.85995,-0.36351 -1.73754,-0.68378 -2.62947,-0.95962 -0.33438,-0.092 -0.67043,-0.17781 -1.008,-0.25736 -3.3158,2.62126 -6.14771,8.10368 -7.69027,12.78678 -3.03766,0.0893 -5.96699,1.1485 -8.35939,3.02245 -0.50608,-5.18599 0.34383,-11.84985 3.43301,-16.26209 z"
       style="display:inline;opacity:1;fill:#f5f5f5;fill-opacity:1;stroke:#ffffff;stroke-width:0.12499999;stroke-opacity:1;enable-background:new"
       inkscape:connector-curvature="0" />
    <path
       clip-path="none"
       sodipodi:nodetypes="ccccccccccccccccccccccccccccccccccccccccccccccccccccccccccccccc"
       id="path4594"
       d="m 22.47136,512.15452 c -0.20549,0.0377 -0.40944,0.0835 -0.61135,0.13722 -0.25703,0.0713 -0.51034,0.15546 -0.75897,0.25209 -0.24859,0.0966 -0.49219,0.20564 -0.72989,0.32661 -0.23768,0.12098 -0.46916,0.25377 -0.69356,0.39787 -0.22447,0.14415 -0.44158,0.29943 -0.65053,0.46526 -0.20894,0.16578 -0.40946,0.34189 -0.6008,0.52769 -0.0246,0.026 -0.049,0.0523 -0.0732,0.0787 0.17425,1.19599 1.12721,2.68115 2.0668,3.73284 -0.31926,0.59228 -0.48658,1.2545 -0.48699,1.92733 7.3e-4,0.19248 0.0165,0.38461 0.0451,0.57496 -1.35657,-0.61509 -2.88473,-1.77694 -3.53573,-3.17177 -0.0295,0.0771 -0.0578,0.15471 -0.0849,0.23271 -0.0788,0.2548 -0.14483,0.51338 -0.1978,0.77478 -0.053,0.26137 -0.0929,0.52523 -0.11956,0.79059 -0.0266,0.26538 -0.0399,0.53195 -0.0399,0.79869 -3e-5,0.1888 0.007,0.37754 0.0199,0.56587 0.0189,0.26607 0.0511,0.53102 0.0965,0.79388 0.0419,0.2356 0.0943,0.4692 0.15718,0.70011 1.12357,0.44757 2.88723,0.36496 4.26899,0.0765 0.45661,0.73848 1.13757,1.31145 1.94325,1.63509 -1.21022,0.8663 -2.97937,1.60859 -4.51175,1.47542 0.0927,0.1115 0.18839,0.22046 0.287,0.32675 0.18583,0.19133 0.38112,0.37325 0.58512,0.54507 0.20398,0.17182 0.41644,0.33334 0.63655,0.48394 0.22014,0.15059 0.44768,0.29009 0.68174,0.41796 0.23408,0.12787 0.4744,0.24397 0.72007,0.34784 0.24569,0.10386 0.49643,0.19537 0.75128,0.27417 0.0963,0.0265 0.19315,0.0512 0.29042,0.0741 0.94681,-0.74898 1.75495,-2.31587 2.19519,-3.65394 0.86775,-0.0256 1.70456,-0.32822 2.38799,-0.86355 0.1446,1.48171 -0.0982,3.38567 -0.98085,4.64631 0.20549,-0.0378 0.40942,-0.0835 0.61134,-0.13723 0.25704,-0.0713 0.51034,-0.15546 0.75897,-0.25208 0.24859,-0.0966 0.4922,-0.20565 0.7299,-0.32663 0.23767,-0.12097 0.46915,-0.25376 0.69356,-0.39786 0.22446,-0.14414 0.44158,-0.29943 0.65053,-0.46526 0.20894,-0.16577 0.40945,-0.34189 0.6008,-0.52769 0.0246,-0.0261 0.049,-0.0523 0.0732,-0.0787 -0.17425,-1.19598 -1.12721,-2.68115 -2.0668,-3.73284 0.31926,-0.59227 0.48658,-1.25449 0.48699,-1.92732 -0.002,-0.19248 -0.0165,-0.38462 -0.0451,-0.57497 1.35657,0.61509 2.88473,1.77693 3.53574,3.17177 0.0295,-0.0771 0.0578,-0.1547 0.0849,-0.2327 0.0788,-0.2548 0.14481,-0.51339 0.19779,-0.77478 0.053,-0.26137 0.0929,-0.52524 0.11956,-0.7906 0.0266,-0.26532 0.0399,-0.53189 0.0399,-0.79863 3e-5,-0.1888 -0.006,-0.37754 -0.0199,-0.56587 -0.0189,-0.26608 -0.0511,-0.53103 -0.0965,-0.79389 -0.042,-0.23666 -0.0947,-0.47132 -0.15789,-0.70324 -1.37695,-0.49073 -3.07365,-0.32113 -4.26906,-0.0746 -0.4566,-0.73791 -1.13724,-1.31044 -1.94246,-1.63391 1.2102,-0.86631 2.97935,-1.60859 4.51175,-1.47542 -0.0927,-0.1115 -0.1884,-0.22046 -0.28701,-0.32676 -0.18583,-0.19134 -0.38111,-0.37325 -0.58512,-0.54507 -0.20399,-0.17182 -0.41644,-0.33334 -0.63656,-0.48393 -0.22014,-0.1506 -0.44766,-0.29009 -0.68173,-0.41796 -0.23408,-0.12788 -0.4744,-0.24398 -0.72007,-0.34784 -0.2457,-0.10387 -0.49644,-0.19537 -0.75128,-0.27418 -0.0955,-0.0263 -0.19155,-0.0508 -0.288,-0.0735 -0.94737,0.74894 -1.75648,2.31534 -2.19721,3.65337 -0.8679,0.0254 -1.70485,0.32814 -2.3884,0.86356 -0.14459,-1.48172 0.0982,-3.38568 0.98086,-4.64631 z"
       style="display:inline;opacity:1;fill:#f5f5f5;fill-opacity:1;stroke:none;stroke-opacity:1;enable-background:new"
       inkscape:connector-curvature="0" />
    <path
       inkscape:connector-curvature="0"
       style="display:inline;opacity:1;fill:#f5f5f5;fill-opacity:1;stroke:none;stroke-opacity:1;enable-background:new"
       d="m 52.89815,506.21242 c -0.28255,0.0518 -0.56297,0.11484 -0.8406,0.18868 -0.35342,0.0981 -0.70172,0.21376 -1.04359,0.34662 -0.34181,0.13288 -0.67677,0.28276 -1.00361,0.4491 -0.32681,0.16635 -0.64509,0.34893 -0.95365,0.54707 -0.30864,0.1982 -0.60717,0.41171 -0.89448,0.63974 -0.28729,0.22794 -0.563,0.47009 -0.8261,0.72557 -0.0338,0.0358 -0.0674,0.0719 -0.10071,0.10816 0.2396,1.64449 1.54992,3.6866 2.84186,5.13268 -0.43899,0.81438 -0.66905,1.72494 -0.66961,2.65008 10e-4,0.26466 0.0227,0.52885 0.062,0.79058 -1.86529,-0.84575 -3.96652,-2.4433 -4.86166,-4.3612 -0.0405,0.10604 -0.0795,0.21272 -0.11678,0.31997 -0.10836,0.35035 -0.19913,0.70591 -0.27198,1.06533 -0.0729,0.35939 -0.12774,0.7222 -0.16439,1.08707 -0.0366,0.36495 -0.0548,0.73148 -0.0548,1.09825 -4e-5,0.2596 0.009,0.51912 0.0274,0.77808 0.026,0.36585 0.0702,0.73016 0.13266,1.09159 0.0576,0.32395 0.12971,0.64515 0.21612,0.96265 1.54492,0.61542 3.96996,0.50183 5.86988,0.10525 0.62785,1.01541 1.56417,1.80325 2.67198,2.24825 -1.66405,1.19117 -4.09664,2.21182 -6.20368,2.02872 0.12745,0.15331 0.25904,0.30313 0.39463,0.44928 0.25552,0.26308 0.52404,0.51322 0.80454,0.74948 0.28048,0.23625 0.57261,0.45834 0.87527,0.66541 0.30269,0.20707 0.61555,0.39888 0.93739,0.5747 0.32186,0.17582 0.6523,0.33546 0.9901,0.47829 0.33783,0.1428 0.6826,0.26863 1.03301,0.37698 0.13246,0.0365 0.26559,0.0704 0.39933,0.1019 1.30188,-1.02985 2.41307,-3.18433 3.0184,-5.02419 1.19317,-0.0352 2.34379,-0.4513 3.28351,-1.18738 0.19882,2.03736 -0.13507,4.65531 -1.34868,6.3887 0.28255,-0.0519 0.56296,-0.11485 0.8406,-0.18869 0.35342,-0.0981 0.70171,-0.21376 1.04359,-0.34662 0.34181,-0.13288 0.67677,-0.28277 1.00361,-0.44911 0.3268,-0.16634 0.64509,-0.34892 0.95365,-0.54706 0.30864,-0.1982 0.60717,-0.41172 0.89448,-0.63974 0.28729,-0.22793 0.563,-0.4701 0.8261,-0.72557 0.0338,-0.0359 0.0674,-0.0719 0.1007,-0.10816 -0.23959,-1.64448 -1.54991,-3.6866 -2.84185,-5.13268 0.43898,-0.81437 0.66905,-1.72493 0.66961,-2.65008 -0.002,-0.26466 -0.0227,-0.52885 -0.062,-0.79058 1.86529,0.84575 3.96652,2.44329 4.86166,4.3612 0.0406,-0.10604 0.0795,-0.21271 0.11679,-0.31997 0.10835,-0.35035 0.19912,-0.70591 0.27196,-1.06532 0.0729,-0.35939 0.12775,-0.72221 0.1644,-1.08708 0.0366,-0.36494 0.0549,-0.73148 0.0549,-1.09825 4e-5,-0.2596 -0.009,-0.51912 -0.0274,-0.77807 -0.026,-0.36586 -0.0703,-0.73017 -0.13265,-1.0916 -0.0578,-0.32541 -0.13024,-0.64807 -0.2171,-0.96696 -1.89331,-0.67476 -4.22629,-0.44156 -5.86998,-0.10255 -0.62783,-1.01463 -1.56372,-1.80186 -2.6709,-2.24664 1.66404,-1.19117 4.09663,-2.21181 6.20368,-2.02871 -0.12745,-0.15331 -0.25905,-0.30313 -0.39463,-0.44929 -0.25552,-0.26309 -0.52404,-0.51322 -0.80455,-0.74948 -0.28048,-0.23625 -0.5726,-0.45834 -0.87527,-0.66541 -0.30269,-0.20707 -0.61554,-0.39887 -0.93739,-0.57469 -0.32186,-0.17584 -0.6523,-0.33547 -0.99009,-0.47829 -0.33785,-0.14281 -0.68261,-0.26863 -1.03302,-0.37699 -0.13136,-0.0362 -0.26338,-0.0699 -0.396,-0.10112 -1.30264,1.02979 -2.41517,3.18361 -3.02118,5.0234 -1.19337,0.035 -2.34418,0.4512 -3.28406,1.1874 -0.19882,-2.03737 0.13508,-4.65532 1.34868,-6.3887 z"
       id="path4590"
       sodipodi:nodetypes="ccccccccccccccccccccccccccccccccccccccccccccccccccccccccccccccc"
       clip-path="none" />
    <rect
       transform="matrix(0,-1,-1,0,0,0)"
       style="display:inline;opacity:1;fill:#000000;fill-opacity:0.2;stroke:none;enable-background:new"
       id="rect4618"
       width="12"
       height="12"
       x="-524"
       y="-61"
       rx="6"
       ry="6" />
    <rect
       ry="6"
       rx="6"
       y="-61"
       x="-523"
       height="12"
       width="12"
       id="rect4590"
       style="display:inline;opacity:1;fill:#f5f5f5;fill-opacity:1;stroke:none;enable-background:new"
       transform="matrix(0,-1,-1,0,0,0)" />
    <path
       style="display:inline;fill:#dd4178;fill-opacity:1;fill-rule:evenodd;stroke:#dd4178;stroke-width:2;stroke-linecap:butt;stroke-linejoin:round;stroke-miterlimit:4;stroke-dasharray:none;stroke-opacity:1;enable-background:new"
       d="m 54,515.00012 v 4 l 3,-2 z"
       id="path4592"
       inkscape:connector-curvature="0"
       sodipodi:nodetypes="cccc" />
    <path
       inkscape:connector-curvature="0"
       style="display:inline;opacity:1;fill:#f5f5f5;fill-opacity:1;stroke:none;stroke-opacity:1;enable-background:new"
       d="m 190.17843,484.38611 c -0.51373,0.0943 -1.02358,0.2088 -1.52835,0.34307 -0.64259,0.17831 -1.27586,0.38864 -1.89743,0.63021 -0.62149,0.2416 -1.2305,0.51411 -1.82476,0.81654 -0.59419,0.30245 -1.17288,0.63442 -1.73391,0.99467 -0.56116,0.36036 -1.10394,0.74857 -1.62632,1.16317 -0.52234,0.41443 -1.02363,0.85471 -1.50198,1.31921 -0.0615,0.0651 -0.12252,0.13069 -0.18312,0.19665 0.43563,2.98997 2.81802,6.7029 5.167,9.33213 -0.79814,1.48068 -1.21645,3.13624 -1.21747,4.81832 0.003,0.48121 0.0412,0.96155 0.11276,1.43742 -3.39142,-1.53773 -7.21183,-4.44236 -8.83936,-7.92945 -0.0738,0.19281 -0.14456,0.38676 -0.21233,0.58176 -0.19702,0.63701 -0.36205,1.28347 -0.49449,1.93696 -0.13252,0.65344 -0.23227,1.3131 -0.2989,1.9765 -0.0665,0.66353 -0.0998,1.32996 -0.0998,1.99681 -8e-5,0.47201 0.0166,0.94387 0.0499,1.41469 0.0473,0.66518 0.12775,1.32757 0.24119,1.9847 0.10474,0.58901 0.23585,1.17302 0.39295,1.75028 2.80894,1.11893 7.2181,0.91242 10.6725,0.19136 1.14154,1.84619 2.84394,3.27863 4.85813,4.08772 -3.02554,2.16576 -7.44841,4.02148 -11.2794,3.68857 0.23172,0.27875 0.47098,0.55115 0.71751,0.81689 0.46458,0.47832 0.95279,0.93312 1.4628,1.36268 0.50997,0.42955 1.0411,0.83334 1.5914,1.20984 0.55034,0.37648 1.11917,0.72523 1.70434,1.04489 0.58519,0.31969 1.186,0.60994 1.80018,0.86962 0.61424,0.25964 1.24109,0.48842 1.87819,0.68543 0.24084,0.0663 0.4829,0.12804 0.72606,0.18526 2.36706,-1.87244 4.38739,-5.78969 5.48799,-9.13486 2.16941,-0.064 4.26142,-0.82055 5.97001,-2.15889 0.36149,3.7043 -0.24559,8.4642 -2.45214,11.61581 0.51373,-0.0944 1.02357,-0.20882 1.52835,-0.34308 0.64259,-0.17832 1.27585,-0.38864 1.89743,-0.63022 0.62148,-0.2416 1.2305,-0.51412 1.82476,-0.81654 0.59418,-0.30245 1.17288,-0.63442 1.73391,-0.99466 0.56116,-0.36036 1.10394,-0.74858 1.62632,-1.16317 0.52234,-0.41442 1.02362,-0.85472 1.50198,-1.31921 0.0615,-0.0652 0.12252,-0.13069 0.18312,-0.19665 -0.43563,-2.98997 -2.81802,-6.7029 -5.167,-9.33213 0.79813,-1.48068 1.21645,-3.13624 1.21747,-4.81833 -0.004,-0.4812 -0.0412,-0.96154 -0.11276,-1.43741 3.39142,1.53773 7.21183,4.44235 8.83936,7.92945 0.0738,-0.19281 0.14457,-0.38676 0.21234,-0.58177 0.19701,-0.637 0.36204,-1.28346 0.49448,-1.93695 0.13252,-0.65344 0.23228,-1.3131 0.2989,-1.97651 0.0665,-0.66352 0.0998,-1.32996 0.0998,-1.99681 7e-5,-0.472 -0.0166,-0.94386 -0.0499,-1.41468 -0.0473,-0.66518 -0.12775,-1.32757 -0.24119,-1.9847 -0.1051,-0.59167 -0.23681,-1.17831 -0.39473,-1.75812 -3.44237,-1.22683 -7.68415,-0.80284 -10.67268,-0.18645 -1.14151,-1.84478 -2.84313,-3.27611 -4.85617,-4.08479 3.02553,-2.16576 7.44841,-4.02147 11.27939,-3.68857 -0.23172,-0.27875 -0.47098,-0.55114 -0.7175,-0.81689 -0.46458,-0.47833 -0.95279,-0.93312 -1.4628,-1.36268 -0.50997,-0.42955 -1.0411,-0.83334 -1.59141,-1.20984 -0.55034,-0.37649 -1.11916,-0.72522 -1.70434,-1.04489 -0.58519,-0.3197 -1.18599,-0.60994 -1.80017,-0.86962 -0.61425,-0.25965 -1.2411,-0.48841 -1.8782,-0.68544 -0.23884,-0.0657 -0.47888,-0.12701 -0.72,-0.18383 -2.36843,1.87233 -4.39123,5.78835 -5.49306,9.13343 -2.16976,0.0638 -4.26214,0.82036 -5.971,2.1589 -0.36149,-3.70429 0.24559,-8.4642 2.45215,-11.6158 z"
       id="circle5142"
       sodipodi:nodetypes="ccccccccccccccccccccccccccccccccccccccccccccccccccccccccccccccc"
       clip-path="none" />
    <path
       style="display:inline;opacity:0.1;fill:#ffffff;fill-opacity:1;stroke:none;enable-background:new"
       d="m 194,484.00009 c -11.08,0 -20,8.92 -20,20 0,0.16772 -0.004,0.33329 0,0.5 0.26444,-10.84635 9.08772,-19.5 20,-19.5 10.91228,0 19.73556,8.65365 20,19.5 0.004,-0.16671 0,-0.33228 0,-0.5 0,-11.08 -8.92,-20 -20,-20 z"
       id="rect3436"
       inkscape:connector-curvature="0" />
    <circle
       style="display:inline;opacity:1;fill:#000000;fill-opacity:0.2;stroke:none;stroke-width:0.99999988;stroke-linecap:butt;stroke-linejoin:round;stroke-miterlimit:4;stroke-dasharray:none;stroke-opacity:1;filter:url(#filter4825);enable-background:new"
       id="circle4823"
       cx="266.0625"
       cy="497.00006"
       r="15.999998" />
    <circle
       r="15.999998"
       cy="496.00006"
       cx="266.0625"
       id="circle4498"
       style="display:inline;opacity:1;fill:#f5f5f5;fill-opacity:1;stroke:none;stroke-width:0.99999988;stroke-linecap:butt;stroke-linejoin:round;stroke-miterlimit:4;stroke-dasharray:none;stroke-opacity:1;enable-background:new" />
    <path
       sodipodi:nodetypes="cccc"
       inkscape:connector-curvature="0"
       id="path4506"
       d="m 261.06249,503.00009 v -14 l 13,7 z"
       style="display:inline;fill:#dd4178;fill-opacity:1;fill-rule:evenodd;stroke:#dd4178;stroke-width:1.99999976;stroke-linecap:butt;stroke-linejoin:round;stroke-miterlimit:4;stroke-dasharray:none;stroke-opacity:1;enable-background:new" />
    <rect
       ry="10.990003"
       rx="10.990003"
       y="-613.49176"
       x="-339.13474"
       height="21.980005"
       width="21.980005"
       id="rect4614"
       style="display:inline;opacity:1;fill:#000000;fill-opacity:0.2;stroke:none;filter:url(#filter4860);enable-background:new"
       transform="matrix(0.70710678,-0.70710678,-0.70710678,-0.70710678,-2.7993575e-8,-153.06662)" />
    <rect
       transform="matrix(0.70710678,-0.70710678,-0.70710678,-0.70710678,0,0)"
       style="display:inline;opacity:1;fill:#f5f5f5;fill-opacity:1;stroke:none;enable-background:new"
       id="rect4466"
       width="21.980005"
       height="21.980005"
       x="-230.19325"
       y="-504.5502"
       rx="10.990003"
       ry="10.990003" />
    <path
       style="display:inline;fill:#dd4178;fill-opacity:1;fill-rule:evenodd;stroke:#dd4178;stroke-width:2;stroke-linecap:round;stroke-linejoin:round;stroke-miterlimit:4;stroke-dasharray:none;stroke-opacity:1;enable-background:new"
       d="m 191,509.00009 v -10 l 9,5 z"
       id="path4468"
       inkscape:connector-curvature="0"
       sodipodi:nodetypes="cccc" />
    <rect
       transform="matrix(0,-1,-1,0,0,0)"
       style="display:inline;opacity:1;fill:#000000;fill-opacity:0.2;stroke:none;enable-background:new"
       id="rect4616"
       width="15.985458"
       height="15.985458"
       x="-521"
       y="-145.99274"
       rx="7.9927292"
       ry="7.9927292" />
    <rect
       ry="7.9927292"
       rx="7.9927292"
       y="-145.99274"
       x="-519.99268"
       height="15.985458"
       width="15.985458"
       id="rect4480"
       style="display:inline;opacity:1;fill:#f5f5f5;fill-opacity:1;stroke:none;enable-background:new"
       transform="matrix(0,-1,-1,0,0,0)" />
    <path
       style="display:inline;fill:#dd4178;fill-opacity:1;fill-rule:evenodd;stroke:#dd4178;stroke-width:2;stroke-linecap:butt;stroke-linejoin:round;stroke-miterlimit:4;stroke-dasharray:none;stroke-opacity:1;enable-background:new"
       d="m 136,509.00009 v 6 l 6,-3 z"
       id="path4490"
       inkscape:connector-curvature="0"
       sodipodi:nodetypes="cccc" />
    <path
       style="display:inline;opacity:0.1;fill:#ffffff;fill-opacity:1;stroke:none;enable-background:new"
       d="m 138,497.00009 c -8.31,0 -15,6.69 -15,15 0,0.16894 0.0199,0.33244 0.0254,0.5 0.26444,-8.07447 6.83355,-14.5 14.97461,-14.5 8.14106,0 14.71017,6.42553 14.97461,14.5 0.005,-0.16756 0.0254,-0.33106 0.0254,-0.5 0,-8.31 -6.69,-15 -15,-15 z"
       id="rect4475"
       inkscape:connector-curvature="0" />
    <rect
       ry="11"
       rx="11"
       y="-101"
       x="-528"
       height="22"
       width="22"
       id="rect4601"
       style="display:inline;opacity:1;fill:#000000;fill-opacity:0.2;stroke:none;enable-background:new"
       transform="matrix(0,-1,-1,0,0,0)" />
    <rect
       transform="matrix(0,-1,-1,0,0,0)"
       style="display:inline;fill:#dd4178;fill-opacity:1;stroke:none;enable-background:new"
       id="rect4603"
       width="22"
       height="22"
       x="-527"
       y="-101"
       rx="11"
       ry="11" />
    <path
       clip-path="none"
       sodipodi:nodetypes="ccccccccccccccccccccccccccccccccccccccccccccccccccccccccccccccc"
       id="path4605"
       d="m 87.89815,505.21245 c -0.28255,0.0518 -0.56297,0.11484 -0.8406,0.18868 -0.35342,0.0981 -0.70172,0.21376 -1.04359,0.34662 -0.34181,0.13288 -0.67677,0.28276 -1.00361,0.4491 -0.32681,0.16635 -0.64509,0.34893 -0.95365,0.54707 -0.30864,0.1982 -0.60717,0.41171 -0.89448,0.63974 -0.28729,0.22794 -0.563,0.47009 -0.8261,0.72557 -0.0338,0.0358 -0.0674,0.0719 -0.10071,0.10816 0.2396,1.64449 1.54992,3.6866 2.84186,5.13268 -0.43899,0.81438 -0.66905,1.72494 -0.66961,2.65008 10e-4,0.26466 0.0227,0.52885 0.062,0.79058 -1.86529,-0.84575 -3.96652,-2.4433 -4.86166,-4.3612 -0.0405,0.10604 -0.0795,0.21272 -0.11678,0.31997 -0.10836,0.35035 -0.19913,0.70591 -0.27198,1.06533 -0.0729,0.35939 -0.12774,0.7222 -0.16439,1.08707 -0.0366,0.36495 -0.0548,0.73148 -0.0548,1.09825 -4e-5,0.2596 0.009,0.51912 0.0274,0.77808 0.026,0.36585 0.0702,0.73016 0.13266,1.09159 0.0576,0.32395 0.12971,0.64515 0.21612,0.96265 1.54492,0.61542 3.96996,0.50183 5.86988,0.10525 0.62785,1.01541 1.56417,1.80325 2.67198,2.24825 -1.66405,1.19117 -4.09664,2.21182 -6.20368,2.02872 0.12745,0.15331 0.25904,0.30313 0.39463,0.44928 0.25552,0.26308 0.52404,0.51322 0.80454,0.74948 0.28048,0.23625 0.57261,0.45834 0.87527,0.66541 0.30269,0.20707 0.61555,0.39888 0.93739,0.5747 0.32186,0.17582 0.6523,0.33546 0.9901,0.47829 0.33783,0.1428 0.6826,0.26863 1.03301,0.37698 0.13246,0.0365 0.26559,0.0704 0.39933,0.1019 1.30188,-1.02985 2.41307,-3.18433 3.0184,-5.02419 1.19317,-0.0352 2.34379,-0.4513 3.28351,-1.18738 0.19882,2.03736 -0.13507,4.65531 -1.34868,6.3887 0.28255,-0.0519 0.56296,-0.11485 0.8406,-0.18869 0.35342,-0.0981 0.70171,-0.21376 1.04359,-0.34662 0.34181,-0.13288 0.67677,-0.28277 1.00361,-0.44911 0.3268,-0.16634 0.64509,-0.34892 0.95365,-0.54706 0.30864,-0.1982 0.60717,-0.41172 0.89448,-0.63974 0.28729,-0.22793 0.563,-0.4701 0.8261,-0.72557 0.0338,-0.0359 0.0674,-0.0719 0.1007,-0.10816 -0.23959,-1.64448 -1.54991,-3.6866 -2.84185,-5.13268 0.43898,-0.81437 0.66905,-1.72493 0.66961,-2.65008 -0.002,-0.26466 -0.0227,-0.52885 -0.062,-0.79058 1.86529,0.84575 3.96652,2.44329 4.86166,4.3612 0.0406,-0.10604 0.0795,-0.21271 0.11679,-0.31997 0.10835,-0.35035 0.19912,-0.70591 0.27196,-1.06532 0.0729,-0.35939 0.12775,-0.72221 0.1644,-1.08708 0.0366,-0.36494 0.0549,-0.73148 0.0549,-1.09825 4e-5,-0.2596 -0.009,-0.51912 -0.0274,-0.77807 -0.026,-0.36586 -0.0703,-0.73017 -0.13265,-1.0916 -0.0578,-0.32541 -0.13024,-0.64807 -0.2171,-0.96696 -1.89331,-0.67476 -4.22629,-0.44156 -5.86998,-0.10255 -0.62783,-1.01463 -1.56372,-1.80186 -2.6709,-2.24664 1.66404,-1.19117 4.09663,-2.21181 6.20368,-2.02871 -0.12745,-0.15331 -0.25905,-0.30313 -0.39463,-0.44929 -0.25552,-0.26309 -0.52404,-0.51322 -0.80455,-0.74948 -0.28048,-0.23625 -0.5726,-0.45834 -0.87527,-0.66541 -0.30269,-0.20707 -0.61554,-0.39887 -0.93739,-0.57469 -0.32186,-0.17584 -0.6523,-0.33547 -0.99009,-0.47829 -0.33785,-0.14281 -0.68261,-0.26863 -1.03302,-0.37699 -0.13136,-0.0362 -0.26338,-0.0699 -0.396,-0.10112 -1.30264,1.02979 -2.41517,3.18361 -3.02118,5.0234 -1.19337,0.035 -2.34418,0.4512 -3.28406,1.1874 -0.19882,-2.03737 0.13508,-4.65532 1.34868,-6.3887 z"
       style="display:inline;opacity:1;fill:#f5f5f5;fill-opacity:1;stroke:none;stroke-opacity:1;enable-background:new"
       inkscape:connector-curvature="0" />
    <rect
       ry="6"
       rx="6"
       y="-96"
       x="-523"
       height="12"
       width="12"
       id="rect4607"
       style="display:inline;opacity:1;fill:#000000;fill-opacity:0.2;stroke:none;enable-background:new"
       transform="matrix(0,-1,-1,0,0,0)" />
    <rect
       transform="matrix(0,-1,-1,0,0,0)"
       style="display:inline;opacity:1;fill:#f5f5f5;fill-opacity:1;stroke:none;enable-background:new"
       id="rect4609"
       width="12"
       height="12"
       x="-522"
       y="-96"
       rx="6"
       ry="6" />
    <path
       sodipodi:nodetypes="cccc"
       inkscape:connector-curvature="0"
       id="path4611"
       d="m 89,514.00015 v 4 l 3,-2 z"
       style="display:inline;fill:#dd4178;fill-opacity:1;fill-rule:evenodd;stroke:#dd4178;stroke-width:2;stroke-linecap:butt;stroke-linejoin:round;stroke-miterlimit:4;stroke-dasharray:none;stroke-opacity:1;enable-background:new" />
    <path
       inkscape:connector-curvature="0"
       style="display:inline;fill:#ffffff;fill-opacity:0.2;stroke:none;enable-background:new"
       d="m 55,506.00006 c -6.094,0 -11,4.906 -11,11 0,0.16899 0.0179,0.33292 0.0254,0.5 0.26177,-5.85817 5.0496,-10.5 10.97461,-10.5 5.92501,0 10.71284,4.64183 10.97461,10.5 0.007,-0.16708 0.0254,-0.33101 0.0254,-0.5 0,-6.094 -4.906,-11 -11,-11 z"
       id="rect4613" />
    <path
       id="path4618"
       d="m 90,505.00006 c -6.094,0 -11,4.906 -11,11 0,0.16899 0.0179,0.33292 0.0254,0.5 0.26176,-5.85817 5.0496,-10.5 10.97461,-10.5 5.92501,0 10.71284,4.64183 10.97461,10.5 0.008,-0.16708 0.0254,-0.33101 0.0254,-0.5 0,-6.094 -4.906,-11 -11,-11 z"
       style="display:inline;fill:#ffffff;fill-opacity:0.2;stroke:none;enable-background:new"
       inkscape:connector-curvature="0" />
    <path
       inkscape:connector-curvature="0"
       style="display:inline;opacity:1;fill:#ffffff;fill-opacity:0.5;stroke:none;enable-background:new"
       d="m 55,511.00006 c -3.324,0 -6,2.676 -6,6 0,0.16884 0.0118,0.33477 0.0254,0.5 0.25307,-3.08771 2.81945,-5.5 5.97461,-5.5 3.15516,0 5.72154,2.41229 5.97461,5.5 0.0135,-0.16523 0.0254,-0.33116 0.0254,-0.5 0,-3.324 -2.676,-6 -6,-6 z"
       id="rect4620" />
    <path
       id="path4625"
       d="m 90,510.00006 c -3.324,0 -6,2.676 -6,6 0,0.16884 0.0118,0.33477 0.0254,0.5 0.25307,-3.08771 2.81945,-5.5 5.97461,-5.5 3.15516,0 5.72154,2.41229 5.97461,5.5 0.0135,-0.16523 0.0254,-0.33116 0.0254,-0.5 0,-3.324 -2.676,-6 -6,-6 z"
       style="display:inline;opacity:1;fill:#ffffff;fill-opacity:0.5;stroke:none;enable-background:new"
       inkscape:connector-curvature="0" />
    <path
       style="display:inline;opacity:1;fill:#ffffff;fill-opacity:0.5;stroke:none;enable-background:new"
       d="m 138,504.00787 c -4.42797,0 -7.99219,3.56422 -7.99219,7.99219 0,0.16869 0.0152,0.33396 0.0254,0.5 0.25807,-4.19168 3.70792,-7.49219 7.9668,-7.49219 4.25888,0 7.70873,3.30051 7.9668,7.49219 0.0102,-0.16604 0.0254,-0.33131 0.0254,-0.5 0,-4.42797 -3.56422,-7.99219 -7.99219,-7.99219 z"
       id="rect4627"
       inkscape:connector-curvature="0" />
    <path
       inkscape:connector-curvature="0"
       style="display:inline;opacity:1;fill:#ffffff;fill-opacity:0.5;stroke:none;stroke-width:0.99999988;stroke-linecap:butt;stroke-linejoin:round;stroke-miterlimit:4;stroke-dasharray:none;stroke-opacity:1;enable-background:new"
       d="m 266.0625,480.00006 a 15.999998,15.999998 0 0 0 -16,16 15.999998,15.999998 0 0 0 0.0215,0.58008 15.999998,15.999998 0 0 1 15.9785,-15.58008 15.999998,15.999998 0 0 1 15.97852,15.41992 15.999998,15.999998 0 0 0 0.0215,-0.41992 15.999998,15.999998 0 0 0 -16,-16 z"
       id="circle4835" />
    <path
       inkscape:connector-curvature="0"
       style="display:inline;fill:#ffffff;fill-opacity:0.2;stroke:none;stroke-width:0.12499999;enable-background:new"
       d="m 266.0625,468.00006 c -15.512,0 -28,12.488 -28,28 0,0.1677 0.0108,0.33301 0.0137,0.5 0.26601,-15.27852 12.64204,-27.5 27.98633,-27.5 15.34429,0 27.72032,12.22148 27.98633,27.5 0.003,-0.16699 0.0137,-0.3323 0.0137,-0.5 0,-15.512 -12.488,-28 -28,-28 z"
       id="rect4840" />
    <rect
       ry="223.99997"
       rx="223.99997"
       y="-794.5"
       x="-651.06714"
       height="447.99994"
       width="447.99994"
       id="rect4886"
       style="display:inline;fill:#000000;fill-opacity:0.2;stroke:none;stroke-width:0.99999994;filter:url(#filter4892);enable-background:new"
       transform="matrix(0,-1,-1,0,-2.7993575e-8,-153.06662)" />
    <rect
       ry="223.99997"
       rx="223.99997"
       y="-794.5"
       x="-496.00049"
       height="447.99994"
       width="447.99994"
       id="rect4847"
       style="display:inline;fill:#dd4178;fill-opacity:1;stroke:none;stroke-width:0.99999994;enable-background:new"
       transform="matrix(0,-1,-1,0,0,0)" />
    <path
       inkscape:connector-curvature="0"
       style="display:inline;opacity:1;fill:#f5f5f5;fill-opacity:1;stroke:#ffffff;stroke-width:0.99999994;stroke-opacity:1;enable-background:new"
       d="m 527.6984,52.324351 c -5.75376,1.05616 -11.46408,2.33856 -17.11752,3.8424 -7.19696,1.99704 -14.2896,4.3528 -21.25112,7.05832 -6.96072,2.70592 -13.7816,5.75808 -20.43728,9.14528 -6.65496,3.38744 -13.13624,7.10544 -19.41976,11.14024 -6.28504,4.03608 -12.36416,8.384 -18.2148,13.027519 -5.85016,4.6416 -11.46464,9.57272 -16.82208,14.77512 -0.6888,0.7288 -1.37224,1.46368 -2.05096,2.20248 4.87904,33.4876 31.56176,75.07232 57.87024,104.5196 -8.93912,16.5836 -13.62416,35.12584 -13.6356,53.96512 0.032,5.38952 0.4616,10.76936 1.26288,16.09904 -37.98384,-17.22248 -80.77232,-49.75432 -99.00064,-88.80968 -0.82656,2.15952 -1.61904,4.33176 -2.37808,6.51576 -2.20664,7.13448 -4.05496,14.3748 -5.53824,21.69392 -1.48424,7.31848 -2.60144,14.70664 -3.34768,22.13672 -0.7448,7.43152 -1.11776,14.89552 -1.11776,22.36424 -8.8e-4,5.28648 0.1856,10.57136 0.5592,15.84448 0.5296,7.45 1.4308,14.8688 2.70128,22.22864 1.17312,6.59688 2.64152,13.13776 4.40104,19.60304 31.46008,12.532 80.84256,10.21912 119.53176,2.14328 12.78528,20.67728 31.85208,36.72056 54.41096,45.78232 -33.886,24.25648 -83.422,45.04056 -126.32904,41.31192 2.59528,3.122 5.27496,6.17288 8.03608,9.1492 5.20328,5.35712 10.67128,10.45088 16.38336,15.262 5.71168,4.81088 11.66032,9.33336 17.82368,13.55016 6.16376,4.21656 12.53464,8.12256 19.08856,11.70272 6.55408,3.58056 13.2832,6.83136 20.16192,9.73976 6.87952,2.90792 13.90024,5.47024 21.03576,7.6768 2.69736,0.7424 5.4084,1.434 8.13184,2.07488 26.51104,-20.97128 49.13864,-64.8444 61.46536,-102.31024 24.29736,-0.7168 47.72784,-9.19016 66.864,-24.17952 4.04864,41.48808 -2.75064,94.79888 -27.46392,130.0968 5.75376,-1.05728 11.46392,-2.33872 17.11744,-3.84248 7.19704,-1.99712 14.28952,-4.35272 21.2512,-7.0584 6.96056,-2.70592 13.7816,-5.75816 20.43728,-9.14528 6.6548,-3.38744 13.13624,-7.10544 19.41976,-11.14016 6.28496,-4.036 12.36408,-8.38408 18.21472,-13.02744 5.85024,-4.64152 11.46456,-9.57288 16.82216,-14.77512 0.6888,-0.7304 1.37224,-1.46376 2.05096,-2.20248 -4.87904,-33.4876 -31.56176,-75.0724 -57.87032,-104.51968 8.93904,-16.5836 13.62424,-35.12584 13.63568,-53.9652 -0.048,-5.38944 -0.4616,-10.7692 -1.26296,-16.09896 37.98384,17.22256 80.7724,49.75424 99.00064,88.80968 0.82656,-2.15944 1.6192,-4.33168 2.37824,-6.51584 2.20648,-7.1344 4.0548,-14.37472 5.53816,-21.69376 1.48424,-7.31856 2.60152,-14.70672 3.34768,-22.13688 0.7448,-7.43144 1.11776,-14.89552 1.11776,-22.36424 8e-4,-5.2864 -0.1856,-10.5712 -0.5592,-15.8444 -0.5296,-7.45 -1.4308,-14.86872 -2.70136,-22.22856 -1.17712,-6.62672 -2.65224,-13.19704 -4.42096,-19.69096 -38.55448,-13.74048 -86.06232,-8.99176 -119.53376,-2.08824 -12.78488,-20.66144 -31.84304,-36.69232 -54.38904,-45.74952 33.88592,-24.25648 83.42208,-45.0404 126.32896,-41.31192 -2.59528,-3.122 -5.27496,-6.17272 -8.036,-9.14912 -5.20328,-5.35728 -10.6712,-10.45096 -16.38328,-15.262 -5.71168,-4.81096 -11.66032,-9.333439 -17.82376,-13.550159 -6.16384,-4.21672 -12.53456,-8.12248 -19.08856,-11.7028 -6.55416,-3.58064 -13.28312,-6.83128 -20.16192,-9.73968 -6.8796,-2.90808 -13.90032,-5.47024 -21.03576,-7.67696 -2.67504,-0.736 -5.36344,-1.42248 -8.064,-2.05888 -26.5264,20.97008 -49.18168,64.829439 -61.52216,102.294239 -24.30128,0.7144 -47.73592,9.188 -66.87512,24.1796 -4.04864,-41.48792 2.75064,-94.798799 27.46408,-130.096719 z"
       id="path4849"
       sodipodi:nodetypes="ccccccccccccccccccccccccccccccccccccccccccccccccccccccccccccccc"
       clip-path="none" />
    <circle
       r="127.99998"
       cy="274.00052"
       cx="570.5"
       id="circle4864"
       style="display:inline;opacity:1;fill:#000000;fill-opacity:0.2;stroke:none;stroke-width:7.99999905;stroke-linecap:butt;stroke-linejoin:round;stroke-miterlimit:4;stroke-dasharray:none;stroke-opacity:1;enable-background:new" />
    <circle
       style="display:inline;opacity:1;fill:#000000;fill-opacity:0.2;stroke:none;stroke-width:7.99999905;stroke-linecap:butt;stroke-linejoin:round;stroke-miterlimit:4;stroke-dasharray:none;stroke-opacity:1;filter:url(#filter4880);enable-background:new"
       id="circle4866"
       cx="570.5"
       cy="274.00052"
       r="127.99998" />
    <circle
       style="display:inline;opacity:1;fill:#f5f5f5;fill-opacity:1;stroke:none;stroke-width:7.99999905;stroke-linecap:butt;stroke-linejoin:round;stroke-miterlimit:4;stroke-dasharray:none;stroke-opacity:1;enable-background:new"
       id="circle4851"
       cx="570.5"
       cy="272.00052"
       r="127.99998" />
    <path
       style="display:inline;fill:#dd4178;fill-opacity:1;fill-rule:evenodd;stroke:#dd4178;stroke-width:15.99999809;stroke-linecap:butt;stroke-linejoin:round;stroke-miterlimit:4;stroke-dasharray:none;stroke-opacity:1;enable-background:new"
       d="m 530.49992,328.00051 v -112 l 104,56 z"
       id="path4853"
       inkscape:connector-curvature="0"
       sodipodi:nodetypes="cccc" />
    <path
       inkscape:connector-curvature="0"
       style="display:inline;opacity:1;fill:#ffffff;fill-opacity:0.5;stroke:none;enable-background:new"
       d="m 194,493.00006 c -2.80925,0 -5.61889,1.07592 -7.77148,3.22852 -2.28039,2.28038 -3.34046,5.2979 -3.20508,8.27148 0.1202,-2.64031 1.18027,-5.24668 3.20508,-7.27148 4.30519,-4.3052 11.23777,-4.3052 15.54296,0 2.02481,2.0248 3.08488,4.63117 3.20508,7.27148 0.13538,-2.97358 -0.92469,-5.9911 -3.20508,-8.27148 -2.15259,-2.1526 -4.96223,-3.22852 -7.77148,-3.22852 z"
       id="rect4855" />
    <path
       sodipodi:nodetypes="cccc"
       inkscape:connector-curvature="0"
       id="path4579"
       d="m 23,519.00006 v 2 l 2,-1 z"
       style="display:inline;fill:#dd4178;fill-opacity:1;fill-rule:evenodd;stroke:#dd4178;stroke-width:2;stroke-linecap:butt;stroke-linejoin:round;stroke-miterlimit:4;stroke-dasharray:none;stroke-opacity:1;enable-background:new" />
    <path
       style="display:inline;fill:#ffffff;fill-opacity:0.2;stroke:none;stroke-width:0.99999994;enable-background:new"
       d="M 570.5 48 C 446.40402 48 346.5 147.90402 346.5 272 C 346.5 272.33437 346.51027 272.66598 346.51172 273 C 347.0481 149.36896 446.73839 50 570.5 50 C 694.26161 50 793.9519 149.36896 794.48828 273 C 794.48973 272.66598 794.5 272.33437 794.5 272 C 794.5 147.90402 694.59598 48 570.5 48 z "
       id="rect5340" />
    <path
       style="display:inline;opacity:1;fill:#ffffff;fill-opacity:0.5;stroke:none;stroke-width:7.99999905;stroke-linecap:butt;stroke-linejoin:round;stroke-miterlimit:4;stroke-dasharray:none;stroke-opacity:1;enable-background:new"
       d="M 570.5 144 A 127.99998 127.99998 0 0 0 442.5 272 A 127.99998 127.99998 0 0 0 442.54102 273.17188 A 127.99998 127.99998 0 0 1 570.5 146 A 127.99998 127.99998 0 0 1 698.45898 272.82812 A 127.99998 127.99998 0 0 0 698.5 272 A 127.99998 127.99998 0 0 0 570.5 144 z "
       id="circle5345" />
    <path
       style="display:inline;fill:url(#linearGradient4171-1-0);fill-opacity:1;stroke:none;stroke-width:2;stroke-linecap:round;stroke-linejoin:round;stroke-miterlimit:4;stroke-dasharray:none;stroke-opacity:1;enable-background:new"
       d="M 194 484 C 182.92 484 174 492.92 174 504 C 174 515.08 182.92 524 194 524 C 205.08 524 214 515.08 214 504 C 214 492.92 205.08 484 194 484 z "
       id="circle4163-3-4" />
    <path
       style="display:inline;fill:url(#linearGradient4435);fill-opacity:1;stroke:none;stroke-width:2;stroke-linecap:round;stroke-linejoin:round;stroke-miterlimit:4;stroke-dasharray:none;stroke-opacity:1;enable-background:new"
       d="m 137.99987,496.9998 a 14.999763,14.99998 0 0 0 -1.28906,0.064 14.999761,14.99998 0 0 0 -0.70694,0.086 14.999763,14.99998 0 0 0 -0.77955,0.1186 14.999761,14.99998 0 0 0 -0.69675,0.1567 14.999763,14.99998 0 0 0 -0.75153,0.191 14.999761,14.99998 0 0 0 -0.69293,0.2306 14.999763,14.99998 0 0 0 -0.72605,0.265 14.999761,14.99998 0 0 0 -0.6649,0.2981 14.999763,14.99998 0 0 0 -0.68784,0.3324 14.999761,14.99998 0 0 0 -0.64071,0.3668 14.999763,14.99998 0 0 0 -0.65089,0.3988 14.999761,14.99998 0 0 0 -0.5974,0.4279 14.999763,14.99998 0 0 0 -0.60887,0.4636 14.999761,14.99998 0 0 0 -0.53752,0.4713 14.999763,14.99998 0 0 0 -0.57702,0.5374 14.999761,14.99998 0 0 0 -4.39197,10.5916 14.999761,14.99998 0 0 0 4.2251,10.4348 h 0.0217 a 14.999763,14.99998 0 0 0 10.75317,4.5652 14.999763,14.99998 0 0 0 1.27377,-0.064 14.999761,14.99998 0 0 0 0.73753,-0.089 14.999763,14.99998 0 0 0 0.76425,-0.1159 14.999761,14.99998 0 0 0 0.69675,-0.1566 14.999763,14.99998 0 0 0 0.75152,-0.1912 14.999761,14.99998 0 0 0 0.69293,-0.2304 14.999763,14.99998 0 0 0 0.72606,-0.2651 14.999761,14.99998 0 0 0 0.66491,-0.298 14.999763,14.99998 0 0 0 0.68783,-0.3324 14.999761,14.99998 0 0 0 0.6407,-0.367 14.999763,14.99998 0 0 0 0.65091,-0.3986 14.999761,14.99998 0 0 0 0.59739,-0.428 14.999763,14.99998 0 0 0 0.60887,-0.4636 14.999761,14.99998 0 0 0 0.53753,-0.4713 14.999763,14.99998 0 0 0 0.57701,-0.5376 14.999761,14.99998 0 0 0 4.39197,-10.5909 14.999761,14.99998 0 0 0 -4.22637,-10.4348 h -0.0203 A 14.999763,14.99998 0 0 0 138,497 Z"
       id="path4433"
       inkscape:connector-curvature="0" />
    <path
       style="display:inline;fill:url(#linearGradient4449-0);fill-opacity:1;stroke:none;stroke-width:16;stroke-linecap:round;stroke-linejoin:round;stroke-miterlimit:4;stroke-dasharray:none;stroke-opacity:1;enable-background:new"
       d="M 570.5 48 C 446.40402 48 346.5 147.90402 346.5 272 C 346.5 396.09598 446.40402 496 570.5 496 C 694.59598 496 794.5 396.09598 794.5 272 C 794.5 147.90402 694.59598 48 570.5 48 z "
       id="path4447" />
    <path
       style="display:inline;fill:url(#linearGradient4537);fill-opacity:1;stroke:none;stroke-width:2;stroke-linecap:round;stroke-linejoin:round;stroke-miterlimit:4;stroke-dasharray:none;stroke-opacity:1;enable-background:new"
       d="M 266.0625 468 C 250.5505 468 238.0625 480.488 238.0625 496 C 238.0625 511.512 250.5505 524 266.0625 524 C 281.5745 524 294.0625 511.512 294.0625 496 C 294.0625 480.488 281.5745 468 266.0625 468 z "
       id="path4535" />
    <path
       inkscape:connector-curvature="0"
       id="path4618-6"
       d="m 89.99998,505 a 10.999863,11.000059 0 0 0 -0.94531,0.0469 10.999861,11.000059 0 0 0 -0.51842,0.0631 10.999863,11.000059 0 0 0 -0.57167,0.087 10.999861,11.000059 0 0 0 -0.51096,0.11492 10.999863,11.000059 0 0 0 -0.55112,0.14007 10.999861,11.000059 0 0 0 -0.50815,0.1691 10.999863,11.000059 0 0 0 -0.53244,0.19434 10.999861,11.000059 0 0 0 -0.48759,0.21861 10.999863,11.000059 0 0 0 -0.50442,0.24376 10.999861,11.000059 0 0 0 -0.46986,0.26899 10.999863,11.000059 0 0 0 -0.47732,0.29245 10.999861,11.000059 0 0 0 -0.43809,0.3138 10.999863,11.000059 0 0 0 -0.44651,0.33997 10.999861,11.000059 0 0 0 -0.39418,0.34563 10.999863,11.000059 0 0 0 -0.42315,0.39409 10.999861,11.000059 0 0 0 -3.22079,7.7672 10.999861,11.000059 0 0 0 3.09842,7.65223 h 0.0159 A 10.999863,11.000059 0 0 0 90,527 a 10.999863,11.000059 0 0 0 0.9341,-0.0469 10.999861,11.000059 0 0 0 0.54086,-0.0653 10.999863,11.000059 0 0 0 0.56045,-0.085 10.999861,11.000059 0 0 0 0.51095,-0.11485 10.999863,11.000059 0 0 0 0.55112,-0.14021 10.999861,11.000059 0 0 0 0.50815,-0.16896 10.999863,11.000059 0 0 0 0.53245,-0.19441 10.999861,11.000059 0 0 0 0.4876,-0.21853 10.999863,11.000059 0 0 0 0.50441,-0.24377 10.999861,11.000059 0 0 0 0.46985,-0.26913 10.999863,11.000059 0 0 0 0.47733,-0.29231 10.999861,11.000059 0 0 0 0.43809,-0.31387 10.999863,11.000059 0 0 0 0.44651,-0.33997 10.999861,11.000059 0 0 0 0.39419,-0.34563 10.999863,11.000059 0 0 0 0.42314,-0.39424 10.999861,11.000059 0 0 0 3.22079,-7.7667 10.999861,11.000059 0 0 0 -3.09935,-7.65224 h -0.0149 a 10.999863,11.000059 0 0 0 -7.88568,-3.34783 z"
       style="display:inline;fill:url(#linearGradient4620);fill-opacity:1;stroke:none;stroke-width:1.46667397;stroke-linecap:round;stroke-linejoin:round;stroke-miterlimit:4;stroke-dasharray:none;stroke-opacity:1;enable-background:new" />
    <path
       style="display:inline;fill:url(#linearGradient4553);fill-opacity:1;stroke:none;stroke-width:1.46667397;stroke-linecap:round;stroke-linejoin:round;stroke-miterlimit:4;stroke-dasharray:none;stroke-opacity:1;enable-background:new"
       d="m 54.99998,506 a 10.999863,11.000059 0 0 0 -0.94531,0.0469 10.999861,11.000059 0 0 0 -0.51842,0.0631 10.999863,11.000059 0 0 0 -0.57167,0.087 10.999861,11.000059 0 0 0 -0.51096,0.11492 10.999863,11.000059 0 0 0 -0.55112,0.14007 10.999861,11.000059 0 0 0 -0.50815,0.1691 10.999863,11.000059 0 0 0 -0.53244,0.19434 10.999861,11.000059 0 0 0 -0.48759,0.21861 10.999863,11.000059 0 0 0 -0.50442,0.24376 10.999861,11.000059 0 0 0 -0.46986,0.26899 10.999863,11.000059 0 0 0 -0.47732,0.29245 10.999861,11.000059 0 0 0 -0.43809,0.3138 10.999863,11.000059 0 0 0 -0.44651,0.33997 10.999861,11.000059 0 0 0 -0.39418,0.34563 10.999863,11.000059 0 0 0 -0.42315,0.39409 10.999861,11.000059 0 0 0 -3.22079,7.7672 10.999861,11.000059 0 0 0 3.09842,7.65223 h 0.0159 A 10.999863,11.000059 0 0 0 55,528 a 10.999863,11.000059 0 0 0 0.9341,-0.0469 10.999861,11.000059 0 0 0 0.54086,-0.0653 10.999863,11.000059 0 0 0 0.56045,-0.085 10.999861,11.000059 0 0 0 0.51095,-0.11485 10.999863,11.000059 0 0 0 0.55112,-0.14021 10.999861,11.000059 0 0 0 0.50815,-0.16896 10.999863,11.000059 0 0 0 0.53245,-0.19441 10.999861,11.000059 0 0 0 0.4876,-0.21853 10.999863,11.000059 0 0 0 0.50441,-0.24377 10.999861,11.000059 0 0 0 0.46985,-0.26913 10.999863,11.000059 0 0 0 0.47733,-0.29231 10.999861,11.000059 0 0 0 0.43809,-0.31387 10.999863,11.000059 0 0 0 0.44651,-0.33997 10.999861,11.000059 0 0 0 0.39419,-0.34563 10.999863,11.000059 0 0 0 0.42314,-0.39424 10.999861,11.000059 0 0 0 3.22079,-7.7667 10.999861,11.000059 0 0 0 -3.09935,-7.65224 h -0.0149 a 10.999863,11.000059 0 0 0 -7.88568,-3.34783 z"
       id="path4551"
       inkscape:connector-curvature="0" />
  </g>
</svg>
