<?xml version="1.0" encoding="UTF-8" standalone="no"?>
<!-- Created with Inkscape (http://www.inkscape.org/) -->

<svg
   xmlns:dc="http://purl.org/dc/elements/1.1/"
   xmlns:cc="http://creativecommons.org/ns#"
   xmlns:rdf="http://www.w3.org/1999/02/22-rdf-syntax-ns#"
   xmlns:svg="http://www.w3.org/2000/svg"
   xmlns="http://www.w3.org/2000/svg"
   xmlns:xlink="http://www.w3.org/1999/xlink"
   xmlns:sodipodi="http://sodipodi.sourceforge.net/DTD/sodipodi-0.dtd"
   xmlns:inkscape="http://www.inkscape.org/namespaces/inkscape"
   width="842"
   height="544"
   viewBox="0 0 842 544"
   version="1.1"
   id="svg1087"
   inkscape:version="0.92.1 r"
   sodipodi:docname="mumble.svg">
  <defs
     id="defs1081">
    <linearGradient
       id="linearGradient4457"
       inkscape:collect="always">
      <stop
         id="stop4459"
         offset="0"
         style="stop-color:#000000;stop-opacity:0.30000001" />
      <stop
         id="stop4461"
         offset="1"
         style="stop-color:#000000;stop-opacity:0;" />
    </linearGradient>
    <linearGradient
       inkscape:collect="always"
       id="linearGradient4165-3">
      <stop
         style="stop-color:#ffffff;stop-opacity:0.05490196"
         offset="0"
         id="stop4167-6" />
      <stop
         style="stop-color:#177ed5;stop-opacity:0;"
         offset="1"
         id="stop4169-7" />
    </linearGradient>
    <linearGradient
       inkscape:collect="always"
       xlink:href="#linearGradient4165-3"
       id="linearGradient4637-6"
       gradientUnits="userSpaceOnUse"
       gradientTransform="matrix(10.713038,0,0,10.713038,312.88792,-10744.893)"
       x1="7"
       y1="1011.3622"
       x2="41.000019"
       y2="1045.3622" />
    <linearGradient
       inkscape:collect="always"
       xlink:href="#linearGradient4457"
       id="linearGradient4635-2"
       gradientUnits="userSpaceOnUse"
       gradientTransform="matrix(11.199994,0,0,11.199994,301.2,-11234.45)"
       x1="7"
       y1="1033.3622"
       x2="4"
       y2="1030.3622" />
    <linearGradient
       inkscape:collect="always"
       xlink:href="#linearGradient4457"
       id="linearGradient4633-9"
       gradientUnits="userSpaceOnUse"
       gradientTransform="matrix(-11.199994,0,0,11.199994,838.79976,-11234.45)"
       x1="7"
       y1="1033.3622"
       x2="4"
       y2="1030.3622" />
    <linearGradient
       inkscape:collect="always"
       xlink:href="#linearGradient4165"
       id="linearGradient4726"
       gradientUnits="userSpaceOnUse"
       gradientTransform="matrix(0.95652172,0,0,0.95652172,171.04356,-479.65168)"
       x1="7"
       y1="1011.3622"
       x2="41.000019"
       y2="1045.3622" />
    <linearGradient
       inkscape:collect="always"
       id="linearGradient4165">
      <stop
         style="stop-color:#ffffff;stop-opacity:0.05490196"
         offset="0"
         id="stop4167" />
      <stop
         style="stop-color:#177ed5;stop-opacity:0;"
         offset="1"
         id="stop4169" />
    </linearGradient>
    <linearGradient
       gradientTransform="translate(170,-523.36226)"
       inkscape:collect="always"
       xlink:href="#linearGradient4457"
       id="linearGradient4246"
       x1="7"
       y1="1033.3622"
       x2="4"
       y2="1030.3622"
       gradientUnits="userSpaceOnUse" />
    <linearGradient
       inkscape:collect="always"
       xlink:href="#linearGradient4457"
       id="linearGradient4250"
       gradientUnits="userSpaceOnUse"
       x1="7"
       y1="1033.3622"
       x2="4"
       y2="1030.3622"
       gradientTransform="matrix(-1,0,0,1,218,-523.36226)" />
    <linearGradient
       inkscape:collect="always"
       xlink:href="#linearGradient4165"
       id="linearGradient4731"
       gradientUnits="userSpaceOnUse"
       gradientTransform="matrix(0.66956437,0,0,0.66956437,121.9305,-176.55531)"
       x1="7"
       y1="1011.3622"
       x2="41.000019"
       y2="1045.3622" />
    <linearGradient
       inkscape:collect="always"
       xlink:href="#linearGradient4457"
       id="linearGradient4729"
       gradientUnits="userSpaceOnUse"
       gradientTransform="matrix(0.69999915,0,0,0.69999915,121.2,-207.15264)"
       x1="7"
       y1="1033.3622"
       x2="4"
       y2="1030.3622" />
    <linearGradient
       inkscape:collect="always"
       xlink:href="#linearGradient4457"
       id="linearGradient4727"
       gradientUnits="userSpaceOnUse"
       gradientTransform="matrix(-0.69999915,0,0,0.69999915,154.79996,-207.15264)"
       x1="7"
       y1="1033.3622"
       x2="4"
       y2="1030.3622" />
    <linearGradient
       inkscape:collect="always"
       xlink:href="#linearGradient4165"
       id="linearGradient4686"
       gradientUnits="userSpaceOnUse"
       gradientTransform="matrix(0.47826062,0,0,0.47826062,78.521781,24.174384)"
       x1="7"
       y1="1011.3622"
       x2="41.000019"
       y2="1045.3622" />
    <linearGradient
       inkscape:collect="always"
       xlink:href="#linearGradient4457"
       id="linearGradient4684"
       gradientUnits="userSpaceOnUse"
       gradientTransform="matrix(0.49999975,0,0,0.49999975,78.000001,2.3191043)"
       x1="7"
       y1="1033.3622"
       x2="4"
       y2="1030.3622" />
    <linearGradient
       inkscape:collect="always"
       xlink:href="#linearGradient4457"
       id="linearGradient4682"
       gradientUnits="userSpaceOnUse"
       gradientTransform="matrix(-0.49999975,0,0,0.49999975,101.99999,2.3191043)"
       x1="7"
       y1="1033.3622"
       x2="4"
       y2="1030.3622" />
    <filter
       inkscape:collect="always"
       style="color-interpolation-filters:sRGB"
       id="filter4594"
       x="-0.012"
       width="1.024"
       y="-0.012"
       height="1.024">
      <feGaussianBlur
         inkscape:collect="always"
         stdDeviation="0.2"
         id="feGaussianBlur4596" />
    </filter>
    <linearGradient
       inkscape:collect="always"
       xlink:href="#linearGradient4457"
       id="linearGradient4633"
       gradientUnits="userSpaceOnUse"
       gradientTransform="matrix(-1.3999983,0,0,1.3999983,299.59992,-942.30519)"
       x1="7"
       y1="1033.3622"
       x2="4"
       y2="1030.3622" />
    <linearGradient
       inkscape:collect="always"
       xlink:href="#linearGradient4457"
       id="linearGradient4635"
       gradientUnits="userSpaceOnUse"
       gradientTransform="matrix(1.3999983,0,0,1.3999983,232.4,-942.30519)"
       x1="7"
       y1="1033.3622"
       x2="4"
       y2="1030.3622" />
    <linearGradient
       inkscape:collect="always"
       xlink:href="#linearGradient4165"
       id="linearGradient4637"
       gradientUnits="userSpaceOnUse"
       gradientTransform="matrix(1.3391287,0,0,1.3391287,233.861,-881.11053)"
       x1="7"
       y1="1011.3622"
       x2="41.000019"
       y2="1045.3622" />
    <filter
       inkscape:collect="always"
       style="color-interpolation-filters:sRGB"
       id="filter4653"
       x="-0.011967681"
       width="1.0239354"
       y="-0.012032494"
       height="1.024065">
      <feGaussianBlur
         inkscape:collect="always"
         stdDeviation="0.27925584"
         id="feGaussianBlur4655" />
    </filter>
    <filter
       inkscape:collect="always"
       style="color-interpolation-filters:sRGB"
       id="filter4683"
       x="-0.021300001"
       width="1.0426"
       y="-0.027483869"
       height="1.0549676">
      <feGaussianBlur
         inkscape:collect="always"
         stdDeviation="3.975998"
         id="feGaussianBlur4685" />
    </filter>
    <filter
       inkscape:collect="always"
       style="color-interpolation-filters:sRGB"
       id="filter4710"
       x="-0.017399991"
       width="1.0348001"
       y="-0.038666718"
       height="1.0773335">
      <feGaussianBlur
         inkscape:collect="always"
         stdDeviation="3.2479981"
         id="feGaussianBlur4712" />
    </filter>
    <linearGradient
       inkscape:collect="always"
       xlink:href="#linearGradient4457"
       id="linearGradient4638"
       gradientUnits="userSpaceOnUse"
       gradientTransform="matrix(-0.49999975,0,0,0.49999975,66.99999,3.3191043)"
       x1="7"
       y1="1033.3622"
       x2="4"
       y2="1030.3622" />
    <linearGradient
       inkscape:collect="always"
       xlink:href="#linearGradient4457"
       id="linearGradient4640"
       gradientUnits="userSpaceOnUse"
       gradientTransform="matrix(0.49999975,0,0,0.49999975,43.000001,3.3191043)"
       x1="7"
       y1="1033.3622"
       x2="4"
       y2="1030.3622" />
    <linearGradient
       inkscape:collect="always"
       xlink:href="#linearGradient4165"
       id="linearGradient4642"
       gradientUnits="userSpaceOnUse"
       gradientTransform="matrix(0.47826062,0,0,0.47826062,43.521781,25.174384)"
       x1="7"
       y1="1011.3622"
       x2="41.000019"
       y2="1045.3622" />
  </defs>
  <sodipodi:namedview
     id="base"
     pagecolor="#c3c3c3"
     bordercolor="#333333"
     borderopacity="1"
     inkscape:pageopacity="0"
     inkscape:pageshadow="2"
     inkscape:zoom="0.98994949"
     inkscape:cx="761.104"
     inkscape:cy="128.27817"
     inkscape:document-units="px"
     inkscape:current-layer="layer2"
     showgrid="true"
     units="px"
     inkscape:showpageshadow="false"
     inkscape:window-width="2560"
     inkscape:window-height="1369"
     inkscape:window-x="0"
     inkscape:window-y="35"
     inkscape:window-maximized="1">
    <inkscape:grid
       type="xygrid"
       id="grid4630" />
  </sodipodi:namedview>
  <metadata
     id="metadata1084">
    <rdf:RDF>
      <cc:Work
         rdf:about="">
        <dc:format>image/svg+xml</dc:format>
        <dc:type
           rdf:resource="http://purl.org/dc/dcmitype/StillImage" />
        <dc:title></dc:title>
        <cc:license
           rdf:resource="http://creativecommons.org/licenses/by-sa/4.0/" />
        <dc:creator>
          <cc:Agent>
            <dc:title>Peter Cornelis</dc:title>
          </cc:Agent>
        </dc:creator>
      </cc:Work>
      <cc:License
         rdf:about="http://creativecommons.org/licenses/by-sa/4.0/">
        <cc:permits
           rdf:resource="http://creativecommons.org/ns#Reproduction" />
        <cc:permits
           rdf:resource="http://creativecommons.org/ns#Distribution" />
        <cc:requires
           rdf:resource="http://creativecommons.org/ns#Notice" />
        <cc:requires
           rdf:resource="http://creativecommons.org/ns#Attribution" />
        <cc:permits
           rdf:resource="http://creativecommons.org/ns#DerivativeWorks" />
        <cc:requires
           rdf:resource="http://creativecommons.org/ns#ShareAlike" />
      </cc:License>
    </rdf:RDF>
  </metadata>
  <g
     inkscape:label="Baseplate"
     inkscape:groupmode="layer"
     id="layer1"
     transform="translate(0,-153.06668)"
     style="display:none">
    <rect
       style="display:inline;overflow:visible;visibility:visible;fill:#fefefe;fill-opacity:1;fill-rule:nonzero;stroke:none;stroke-width:2;marker:none;enable-background:accumulate"
       id="rect3951"
       width="512"
       height="512"
       x="-826"
       y="169.06668"
       inkscape:label="48x48"
       transform="scale(-1,1)" />
    <text
       y="733.32251"
       xml:space="preserve"
       x="15.006836"
       style="font-style:normal;font-variant:normal;font-weight:normal;font-stretch:normal;line-height:0%;font-family:'DejaVu Sans';-inkscape-font-specification:'DejaVu Sans';display:inline;fill:#000000;fill-opacity:1;stroke:none;enable-background:new"
       inkscape:label="context"
       id="context"><tspan
         style="font-style:normal;font-variant:normal;font-weight:normal;font-stretch:normal;font-size:18px;line-height:1.25;font-family:'DejaVu Sans';-inkscape-font-specification:'DejaVu Sans'"
         y="733.32251"
         x="15.006836"
         sodipodi:role="line"
         id="tspan3933">apps</tspan></text>
    <text
       y="733.32251"
       xml:space="preserve"
       x="142.48828"
       style="font-style:normal;font-variant:normal;font-weight:bold;font-stretch:normal;line-height:0%;font-family:'DejaVu Sans';-inkscape-font-specification:'DejaVu Sans Bold';text-align:start;writing-mode:lr-tb;text-anchor:start;display:inline;fill:#000000;fill-opacity:1;stroke:none;enable-background:new"
       inkscape:label="icon-name"
       id="icon-name"><tspan
         style="font-style:normal;font-variant:normal;font-weight:bold;font-stretch:normal;font-size:18px;line-height:1.25;font-family:'DejaVu Sans';-inkscape-font-specification:'DejaVu Sans Bold'"
         y="733.32251"
         x="142.48828"
         sodipodi:role="line"
         id="tspan3937">mumble</tspan></text>
    <rect
       style="display:inline;overflow:visible;visibility:visible;fill:#fefefe;fill-opacity:1;fill-rule:nonzero;stroke:none;stroke-width:2;marker:none;enable-background:accumulate"
       id="rect16x16"
       width="16"
       height="16"
       x="-32"
       y="665.06665"
       inkscape:label="16x16"
       transform="scale(-1,1)" />
    <rect
       style="display:inline;overflow:visible;visibility:visible;fill:#fefefe;fill-opacity:1;fill-rule:nonzero;stroke:none;stroke-width:2;marker:none;enable-background:accumulate"
       id="rect24x24"
       width="24"
       height="24"
       x="-102"
       y="657.06665"
       inkscape:label="24x24"
       transform="scale(-1,1)" />
    <rect
       style="display:inline;overflow:visible;visibility:visible;fill:#fefefe;fill-opacity:1;fill-rule:nonzero;stroke:none;stroke-width:2;marker:none;enable-background:accumulate"
       id="rect32x32"
       width="32"
       height="32"
       x="-154"
       y="649.06665"
       inkscape:label="32x32"
       transform="scale(-1,1)" />
    <rect
       inkscape:label="48x48"
       y="633.06665"
       x="-218"
       height="48"
       width="48"
       id="rect48x48"
       style="display:inline;overflow:visible;visibility:visible;fill:#fefefe;fill-opacity:1;fill-rule:nonzero;stroke:none;stroke-width:2;marker:none;enable-background:accumulate"
       transform="scale(-1,1)" />
    <rect
       transform="scale(-1,1)"
       inkscape:label="32x32"
       y="617.06665"
       x="-298"
       height="64"
       width="64"
       id="rect4601"
       style="display:inline;overflow:visible;visibility:visible;fill:#fefefe;fill-opacity:1;fill-rule:nonzero;stroke:none;stroke-width:4;marker:none;enable-background:accumulate" />
    <rect
       transform="scale(-1,1)"
       inkscape:label="24x24"
       y="659.06665"
       x="-66"
       height="22"
       width="22"
       id="rect4606"
       style="display:inline;overflow:visible;visibility:visible;fill:#fefefe;fill-opacity:1;fill-rule:nonzero;stroke:none;stroke-width:1.83333325;marker:none;enable-background:accumulate" />
  </g>
  <g
     inkscape:groupmode="layer"
     id="layer2"
     inkscape:label="Bitmap"
     style="display:inline">
    <path
       inkscape:connector-curvature="0"
       id="path4677"
       d="M 569.99992,50.00016 A 223.99989,223.99989 0 0 0 346,274 v 123.2 h 33.6 V 285.2 274 A 190.3999,190.3999 0 0 1 569.99992,83.60016 190.3999,190.3999 0 0 1 760.39976,274 v 11.2 112 h 33.6 V 274 A 223.99989,223.99989 0 0 0 569.99992,50.00016 Z"
       style="display:inline;opacity:1;fill:#000000;fill-opacity:0.2;stroke:none;stroke-width:8;filter:url(#filter4683);enable-background:new" />
    <path
       style="display:inline;opacity:1;fill:#000000;fill-opacity:0.2;stroke:none;stroke-width:8;enable-background:new"
       d="M 569.99992,50.00016 A 223.99989,223.99989 0 0 0 346,274 v 123.2 h 33.6 V 285.2 274 A 190.3999,190.3999 0 0 1 569.99992,83.60016 190.3999,190.3999 0 0 1 760.39976,274 v 11.2 112 h 33.6 V 274 A 223.99989,223.99989 0 0 0 569.99992,50.00016 Z"
       id="path4675"
       inkscape:connector-curvature="0" />
    <path
       inkscape:connector-curvature="0"
       id="path4605-6"
       d="M 569.99992,59.20024 A 223.99986,223.99988 0 0 0 346,283.20008 h 0.3944 A 223.99986,223.99988 0 0 1 570.00008,70.40024 223.99986,223.99988 0 0 1 793.4312,283.20008 H 794 A 223.99986,223.99988 0 0 0 570.00008,59.20024 Z"
       style="display:inline;opacity:1;fill:#ffffff;fill-opacity:0.2;stroke:none;stroke-width:13.32800007;stroke-linecap:round;stroke-linejoin:round;stroke-miterlimit:4;stroke-dasharray:none;stroke-opacity:1;enable-background:new" />
    <path
       style="display:inline;opacity:1;fill:#000000;fill-opacity:0.2;stroke:none;stroke-width:8;enable-background:new"
       d="m 445.19922,296.40039 c -0.66334,0 -1.30839,0.0682 -1.93945,0.17773 A 100.79995,100.79995 0 0 0 346,397.19922 a 100.79995,100.79995 0 0 0 97.70508,100.6914 c 0.48989,0.065 0.98594,0.10938 1.49414,0.10938 h 33.60156 C 485.00535,498 490,493.0057 490,486.80078 V 307.59961 c 0,-6.20492 -4.99465,-11.19922 -11.19922,-11.19922 z m 216,0 c -6.20457,0 -11.19922,4.9943 -11.19922,11.19922 V 466 h -48 c -8.864,0 -16,7.136 -16,16 0,8.864 7.136,16 16,16 h 59.19922 31.98828 1.61328 c 0.66267,0 1.30704,-0.0684 1.9375,-0.17773 A 100.79988,100.79988 0 0 0 794,397.1875 100.79988,100.79988 0 0 0 696.34961,296.51758 c -0.50743,-0.0698 -1.02161,-0.11719 -1.54883,-0.11719 z"
       id="path4694"
       inkscape:connector-curvature="0" />
    <path
       inkscape:connector-curvature="0"
       id="path4704"
       d="m 445.19922,296.40039 c -0.66334,0 -1.30839,0.0682 -1.93945,0.17773 A 100.79995,100.79995 0 0 0 346,397.19922 a 100.79995,100.79995 0 0 0 97.70508,100.6914 c 0.48989,0.065 0.98594,0.10938 1.49414,0.10938 h 33.60156 C 485.00535,498 490,493.0057 490,486.80078 V 307.59961 c 0,-6.20492 -4.99465,-11.19922 -11.19922,-11.19922 z m 216,0 c -6.20457,0 -11.19922,4.9943 -11.19922,11.19922 V 466 h -48 c -8.864,0 -16,7.136 -16,16 0,8.864 7.136,16 16,16 h 59.19922 31.98828 1.61328 c 0.66267,0 1.30704,-0.0684 1.9375,-0.17773 A 100.79988,100.79988 0 0 0 794,397.1875 100.79988,100.79988 0 0 0 696.34961,296.51758 c -0.50743,-0.0698 -1.02161,-0.11719 -1.54883,-0.11719 z"
       style="display:inline;opacity:1;fill:#000000;fill-opacity:0.2;stroke:none;stroke-width:8;filter:url(#filter4710);enable-background:new" />
    <rect
       ry="11.200219"
       rx="11.19958"
       y="294.40015"
       x="434"
       height="201.5999"
       width="55.999973"
       id="rect4607-0"
       style="display:inline;opacity:1;fill:#42a5f5;fill-opacity:1;stroke:none;stroke-width:8;enable-background:new" />
    <path
       inkscape:connector-curvature="0"
       id="path4609-6"
       d="M 569.99992,48.00024 A 223.99989,223.99989 0 0 0 346,272.00008 v 123.2 h 33.6 v -112 -11.2 A 190.3999,190.3999 0 0 1 569.99992,81.60024 190.3999,190.3999 0 0 1 760.39976,272.00008 v 11.2 112 h 33.6 v -123.2 A 223.99989,223.99989 0 0 0 569.99992,48.00024 Z"
       style="display:inline;opacity:1;fill:#4d535c;fill-opacity:1;stroke:none;stroke-width:8;enable-background:new" />
    <path
       style="display:inline;opacity:1;fill:#ffffff;fill-opacity:0.2;stroke:none;stroke-width:13.32800007;stroke-linecap:round;stroke-linejoin:round;stroke-miterlimit:4;stroke-dasharray:none;stroke-opacity:1;enable-background:new"
       d="M 570,48 A 223.99986,223.99988 0 0 0 346,272 v 2 A 223.99986,223.99988 0 0 1 570,50 223.99986,223.99988 0 0 1 794,274 v -2 A 223.99986,223.99988 0 0 0 570,48 Z"
       id="path4611-2"
       inkscape:connector-curvature="0" />
    <rect
       style="display:inline;opacity:1;fill:#42a5f5;fill-opacity:1;stroke:none;stroke-width:8;enable-background:new"
       id="rect4613-6"
       width="55.999973"
       height="201.5999"
       x="650"
       y="294.40015"
       rx="11.19958"
       ry="11.200219" />
    <path
       style="display:inline;fill:url(#linearGradient4633-9);fill-opacity:1;fill-rule:evenodd;stroke:none;stroke-width:8px;stroke-linecap:butt;stroke-linejoin:miter;stroke-opacity:1;enable-background:new"
       d="m 760.39976,328.00008 33.6,-33.6 v 89.6 l -33.6,-56"
       id="path4615-1"
       inkscape:connector-curvature="0" />
    <path
       inkscape:connector-curvature="0"
       id="path4621-8"
       d="m 379.6,328.00008 -33.6,-33.6 v 89.6 l 33.6,-56"
       style="display:inline;fill:url(#linearGradient4635-2);fill-opacity:1;fill-rule:evenodd;stroke:none;stroke-width:8px;stroke-linecap:butt;stroke-linejoin:miter;stroke-opacity:1;enable-background:new" />
    <path
       style="display:inline;opacity:1;fill:#ffffff;fill-opacity:0.2;stroke:none;stroke-width:8;enable-background:new"
       d="m 445.19922,294.40039 c -6.20457,0 -11.19922,4.9943 -11.19922,11.19922 v 2 c 0,-6.20492 4.99465,-11.19922 11.19922,-11.19922 h 33.60156 c 6.20457,0 11.19922,4.9943 11.19922,11.19922 v -2 c 0,-6.20492 -4.99465,-11.19922 -11.19922,-11.19922 z"
       id="rect4594"
       inkscape:connector-curvature="0" />
    <path
       inkscape:connector-curvature="0"
       id="path4623-7"
       d="M 446.79992,294.40008 A 100.79995,100.79995 0 0 0 346,395.20008 100.79995,100.79995 0 0 0 446.79992,496 Z"
       style="display:inline;opacity:1;fill:#4d535c;fill-opacity:1;stroke:none;stroke-width:8;enable-background:new" />
    <path
       style="display:inline;opacity:1;fill:#ffffff;fill-opacity:0.2;stroke:none;stroke-width:8;enable-background:new"
       d="M 446.79688,294.40625 A 100.79995,100.79995 0 0 0 346,395.20312 a 100.79995,100.79995 0 0 0 0.041,0.85938 100.79995,100.79995 0 0 1 100.75586,-99.65625 z"
       id="path4627-2"
       inkscape:connector-curvature="0" />
    <path
       id="path4599"
       d="m 661.19922,294.40039 c -6.20457,0 -11.19922,4.9943 -11.19922,11.19922 v 2 c 0,-6.20492 4.99465,-11.19922 11.19922,-11.19922 h 33.60156 c 6.20457,0 11.19922,4.9943 11.19922,11.19922 v -2 c 0,-6.20492 -4.99465,-11.19922 -11.19922,-11.19922 z"
       style="display:inline;opacity:1;fill:#ffffff;fill-opacity:0.2;stroke:none;stroke-width:8;enable-background:new"
       inkscape:connector-curvature="0" />
    <path
       id="path4553-0"
       d="M 693.18752,294.40624 V 464 H 602 c -8.864,0 -16,7.136 -16,16 0,8.864 7.136,16 16,16 h 91.18752 A 100.79988,100.79988 0 0 0 794,395.18752 100.79988,100.79988 0 0 0 693.18752,294.40624 Z"
       style="display:inline;opacity:1;fill:#4d535c;fill-opacity:1;stroke:none;stroke-width:8;enable-background:new"
       inkscape:connector-curvature="0" />
    <path
       inkscape:connector-curvature="0"
       id="path4631-3"
       d="M 569.99992,48.00024 A 223.99989,223.99989 0 0 0 346,272.00008 v 101.95944 21.24056 a 100.79995,100.79995 0 0 0 10.85,45.23744 100.79995,100.79995 0 0 0 0.372,0.7872 100.79995,100.79995 0 0 0 43.1812,43.42176 100.79995,100.79995 0 0 0 8.48752,3.89368 100.79995,100.79995 0 0 0 0.744,0.328 100.79995,100.79995 0 0 0 7.37184,2.51568 100.79995,100.79995 0 0 0 2.3188,0.7664 100.79995,100.79995 0 0 0 7.15312,1.66248 100.79995,100.79995 0 0 0 2.62496,0.5904 100.79995,100.79995 0 0 0 5.38128,0.7 100.79995,100.79995 0 0 0 5.00936,0.6128 100.79995,100.79995 0 0 0 7.30632,0.2848 h 21.41568 12.18432 c 6.20456,0 11.2,-4.99512 11.2,-11.2 V 305.6008 c 0,-6.20488 -4.99544,-11.2 -11.2,-11.2 h -33.6 A 100.79995,100.79995 0 0 0 379.6,320.21264 v -37.01256 -11.2 A 190.3999,190.3999 0 0 1 569.99992,81.60024 190.3999,190.3999 0 0 1 760.39976,272.00008 v 11.2 37.0344 a 100.79995,100.79995 0 0 0 -67.19992,-25.8344 h -33.6 c -6.20456,0 -11.2,4.99512 -11.2,11.2 V 484.8 c 0,6.20488 4.99544,11.2 11.2,11.2 h 12.14056 21.45944 a 100.79995,100.79995 0 0 0 45.65304,-11.04688 100.79995,100.79995 0 0 0 0.5464,-0.2624 100.79995,100.79995 0 0 0 43.29056,-43.15928 100.79995,100.79995 0 0 0 0,-0.024 100.79995,100.79995 0 0 0 4.17816,-9.14384 100.79995,100.79995 0 0 0 2.53752,-7.43744 100.79995,100.79995 0 0 0 0.7664,-2.31872 100.79995,100.79995 0 0 0 1.5532,-6.69376 100.79995,100.79995 0 0 0 0.7,-3.12816 100.79995,100.79995 0 0 0 0.7,-5.44696 100.79995,100.79995 0 0 0 0.5904,-4.79056 100.79995,100.79995 0 0 0 0.2848,-7.34984 V 373.89192 271.99816 A 223.99989,223.99989 0 0 0 570.00048,47.99832 Z"
       style="display:inline;fill:url(#linearGradient4637-6);fill-opacity:1;stroke:none;stroke-width:16;stroke-linecap:round;stroke-linejoin:round;stroke-miterlimit:4;stroke-dasharray:none;stroke-opacity:1;enable-background:new" />
    <path
       style="display:inline;fill:#000000;fill-opacity:0.2;stroke:none;stroke-width:2;stroke-linecap:round;stroke-linejoin:round;stroke-miterlimit:4;stroke-dasharray:none;stroke-opacity:1;filter:url(#filter4594);enable-background:new"
       d="m 194,485 a 20,20 0 0 0 -20,20 V 514.10352 516 a 9,9 0 0 0 0.96875,4.03906 9,9 0 0 0 0.0332,0.0703 9,9 0 0 0 3.85547,3.87695 9,9 0 0 0 0.75781,0.34765 9,9 0 0 0 0.0664,0.0293 9,9 0 0 0 0.6582,0.22461 9,9 0 0 0 0.20704,0.0684 9,9 0 0 0 0.63867,0.14844 9,9 0 0 0 0.23437,0.0527 9,9 0 0 0 0.48047,0.0625 9,9 0 0 0 0.44727,0.0547 A 9,9 0 0 0 183,525 H 184.91211 186 c 0.55398,0 1,-0.44599 1,-1 v -16 c 0,-0.55401 -0.44602,-1 -1,-1 h -3 a 9,9 0 0 0 -6,2.30469 V 506 505 a 17,17 0 0 1 17,-17 17,17 0 0 1 17,17 v 1 3.30664 a 9,9 0 0 0 -0.69922,-0.56641 9,9 0 0 0 -0.71875,-0.47656 9,9 0 0 0 -0.0859,-0.0469 9,9 0 0 0 -0.69531,-0.36328 9,9 0 0 0 -0.12305,-0.0566 9,9 0 0 0 -0.6875,-0.2754 9,9 0 0 0 -0.19335,-0.0645 9,9 0 0 0 -0.64063,-0.18555 9,9 0 0 0 -0.27148,-0.0605 9,9 0 0 0 -0.56836,-0.10547 9,9 0 0 0 -0.39844,-0.0488 9,9 0 0 0 -0.50977,-0.041 A 9,9 0 0 0 205,507 h -3 c -0.55398,0 -1,0.44599 -1,1 v 13 h -4 c -1.108,0 -2,0.892 -2,2 0,1.108 0.892,2 2,2 h 5 3 a 9,9 0 0 0 4.04883,-0.97266 9,9 0 0 0 0.0273,-0.0137 9,9 0 0 0 0.0488,-0.0234 9,9 0 0 0 0.006,-0.002 9,9 0 0 0 0.73633,-0.42969 9,9 0 0 0 0.0352,-0.0195 9,9 0 0 0 0.01,-0.008 9,9 0 0 0 0.65039,-0.46875 9,9 0 0 0 0.0918,-0.0703 9,9 0 0 0 0.58984,-0.52344 9,9 0 0 0 0.0781,-0.0723 9,9 0 0 0 0.50976,-0.55273 9,9 0 0 0 0.10547,-0.12109 9,9 0 0 0 0.41016,-0.54493 9,9 0 0 0 0.13867,-0.19335 9,9 0 0 0 0.32031,-0.5293 9,9 0 0 0 0.18359,-0.31836 9,9 0 0 0 0,-0.002 9,9 0 0 0 0.37305,-0.81641 9,9 0 0 0 0.22656,-0.66406 9,9 0 0 0 0.0684,-0.20703 9,9 0 0 0 0.13868,-0.59766 9,9 0 0 0 0.0625,-0.2793 9,9 0 0 0 0.0625,-0.48633 9,9 0 0 0 0.0352,-0.29296 9,9 0 0 0 0.0176,-0.13477 9,9 0 0 0 0,-0.004 A 9,9 0 0 0 214,516 V 514.09766 505 a 20,20 0 0 0 -20,-20 z"
       id="path4589"
       inkscape:connector-curvature="0" />
    <path
       style="display:inline;opacity:1;fill:#ffffff;fill-opacity:0.2;stroke:none;stroke-width:1.66600001;stroke-linecap:round;stroke-linejoin:round;stroke-miterlimit:4;stroke-dasharray:none;stroke-opacity:1;enable-background:new"
       d="m 194,484.99994 a 19.999997,19.999999 0 0 0 -20,20 h 0.0352 a 19.999997,19.999999 0 0 1 19.9648,-19 19.999997,19.999999 0 0 1 19.94922,19 h 0.0508 a 19.999997,19.999999 0 0 0 -20,-20 z"
       id="path4240"
       inkscape:connector-curvature="0" />
    <rect
       style="display:inline;opacity:1;fill:#42a5f5;fill-opacity:1;stroke:none;enable-background:new"
       id="rect4206"
       width="5"
       height="18"
       x="182"
       y="506"
       rx="0.99996299"
       ry="1.00002" />
    <path
       style="display:inline;opacity:1;fill:#4d535c;fill-opacity:1;stroke:none;enable-background:new"
       d="m 194,483.99994 a 20,20 0 0 0 -20,20 v 11 h 3 v -10 -1 a 17,17 0 0 1 17,-17 17,17 0 0 1 17,17 v 1 10 h 3 v -11 a 20,20 0 0 0 -20,-20 z"
       id="path4160"
       inkscape:connector-curvature="0" />
    <path
       inkscape:connector-curvature="0"
       style="display:inline;opacity:1;fill:#ffffff;fill-opacity:0.2;stroke:none;stroke-width:1.66600001;stroke-linecap:round;stroke-linejoin:round;stroke-miterlimit:4;stroke-dasharray:none;stroke-opacity:1;enable-background:new"
       d="m 194,483.99994 a 19.999997,19.999999 0 0 0 -20,20 v 1 a 19.999997,19.999999 0 0 1 20,-20 19.999997,19.999999 0 0 1 20,20 v -1 a 19.999997,19.999999 0 0 0 -20,-20 z"
       id="path4179-8" />
    <rect
       ry="1.00002"
       rx="0.99996299"
       y="506"
       x="201"
       height="18"
       width="5"
       id="rect4208"
       style="display:inline;opacity:1;fill:#42a5f5;fill-opacity:1;stroke:none;enable-background:new" />
    <path
       inkscape:connector-curvature="0"
       id="path4248"
       d="m 211,508.99994 3,-3 v 8 l -3,-5"
       style="display:inline;fill:url(#linearGradient4250);fill-opacity:1;fill-rule:evenodd;stroke:none;stroke-width:1px;stroke-linecap:butt;stroke-linejoin:miter;stroke-opacity:1;enable-background:new" />
    <path
       style="display:inline;opacity:1;fill:#4d535c;fill-opacity:1;stroke:none;enable-background:new"
       d="m 205,505.99994 v 14 h -8 c -1.108,0 -2,0.892 -2,2 0,1.108 0.892,2 2,2 h 8 a 9,9 0 0 0 9,-9 9,9 0 0 0 -9,-9 z"
       id="path4189"
       inkscape:connector-curvature="0" />
    <path
       style="display:inline;opacity:1;fill:#ffffff;fill-opacity:0.2;stroke:none;enable-background:new"
       d="m 202,506 c -0.55398,0 -1,0.44599 -1,1 v 1 c 0,-0.55401 0.44602,-1 1,-1 h 3 a 9,9 0 0 1 8.98242,8.49609 A 9,9 0 0 0 214,515 a 9,9 0 0 0 -9,-9 z m -5,14 c -1.108,0 -2,0.892 -2,2 0,0.17383 0.029,0.33941 0.0703,0.5 0.22195,-0.86299 0.99552,-1.5 1.92969,-1.5 h 8 v -1 z"
       id="path4592"
       inkscape:connector-curvature="0" />
    <path
       style="display:inline;fill:url(#linearGradient4246);fill-opacity:1;fill-rule:evenodd;stroke:none;stroke-width:1px;stroke-linecap:butt;stroke-linejoin:miter;stroke-opacity:1;enable-background:new"
       d="m 177,508.99994 -3,-3 v 8 l 3,-5"
       id="path4230"
       inkscape:connector-curvature="0" />
    <path
       style="display:inline;opacity:1;fill:#ffffff;fill-opacity:0.2;stroke:none;enable-background:new"
       d="m 183,506 c -0.55398,0 -1,0.44599 -1,1 v 1 c 0,-0.55401 0.44602,-1 1,-1 h 3 c 0.55398,0 1,0.44599 1,1 v -1 c 0,-0.55401 -0.44602,-1 -1,-1 z"
       id="rect4587"
       inkscape:connector-curvature="0" />
    <path
       style="display:inline;opacity:1;fill:#4d535c;fill-opacity:1;stroke:none;enable-background:new"
       d="m 183,505.99994 a 9,9 0 0 0 -9,9 9,9 0 0 0 9,9 z"
       id="circle4191"
       inkscape:connector-curvature="0" />
    <path
       inkscape:connector-curvature="0"
       style="display:inline;opacity:1;fill:#ffffff;fill-opacity:0.2;stroke:none;enable-background:new"
       d="m 183,505.99994 a 9,9 0 0 0 -9,9 9,9 0 0 0 0.0215,0.42383 9,9 0 0 1 8.9785,-8.42383 z"
       id="path4488" />
    <path
       style="display:inline;fill:url(#linearGradient4726);fill-opacity:1;stroke:none;stroke-width:2;stroke-linecap:round;stroke-linejoin:round;stroke-miterlimit:4;stroke-dasharray:none;stroke-opacity:1;enable-background:new"
       d="m 194,483.99994 a 20,20 0 0 0 -20,20 v 9.10352 1.89648 a 9,9 0 0 0 0.96875,4.03906 9,9 0 0 0 0.0332,0.0703 9,9 0 0 0 3.85547,3.87695 9,9 0 0 0 0.75781,0.34765 9,9 0 0 0 0.0664,0.0293 9,9 0 0 0 0.6582,0.22461 9,9 0 0 0 0.20704,0.0684 9,9 0 0 0 0.63867,0.14844 9,9 0 0 0 0.23437,0.0527 9,9 0 0 0 0.48047,0.0625 9,9 0 0 0 0.44727,0.0547 9,9 0 0 0 0.65235,0.0254 H 184.91211 186 c 0.55398,0 1,-0.44599 1,-1 v -16 c 0,-0.55401 -0.44602,-1 -1,-1 h -3 a 9,9 0 0 0 -6,2.30469 v -3.30469 -1 a 17,17 0 0 1 17,-17 17,17 0 0 1 17,17 v 1 3.30664 a 9,9 0 0 0 -6,-2.30664 h -3 c -0.55398,0 -1,0.44599 -1,1 v 16 c 0,0.55401 0.44602,1 1,1 H 203.08398 205 a 9,9 0 0 0 4.07617,-0.98633 9,9 0 0 0 0.0488,-0.0234 9,9 0 0 0 3.86523,-3.85351 9,9 0 0 0 0,-0.002 9,9 0 0 0 0.37305,-0.81641 9,9 0 0 0 0.22656,-0.66406 9,9 0 0 0 0.0684,-0.20703 9,9 0 0 0 0.13868,-0.59766 9,9 0 0 0 0.0625,-0.2793 9,9 0 0 0 0.0625,-0.48633 9,9 0 0 0 0.0527,-0.42773 9,9 0 0 0 0.0254,-0.65624 v -1.90234 -9.09766 a 20,20 0 0 0 -20,-20 z"
       id="path4724"
       inkscape:connector-curvature="0" />
    <path
       style="display:inline;fill:#000000;fill-opacity:0.2;stroke:none;stroke-width:2;stroke-linecap:round;stroke-linejoin:round;stroke-miterlimit:4;stroke-dasharray:none;stroke-opacity:1;enable-background:new"
       d="m 90,507 a 9.999995,9.999995 0 0 0 -10,10 v 4.55078 0.94922 a 4.4999978,4.4999978 0 0 0 0.484375,2.01953 4.4999978,4.4999978 0 0 0 0.01563,0.0352 4.4999978,4.4999978 0 0 0 1.927734,1.9375 4.4999978,4.4999978 0 0 0 0.378907,0.17383 4.4999978,4.4999978 0 0 0 0.0332,0.0156 4.4999978,4.4999978 0 0 0 0.330078,0.11133 4.4999978,4.4999978 0 0 0 0.103516,0.0352 4.4999978,4.4999978 0 0 0 0.318359,0.0742 4.4999978,4.4999978 0 0 0 0.117187,0.0254 4.4999978,4.4999978 0 0 0 0.240235,0.0312 4.4999978,4.4999978 0 0 0 0.224609,0.0273 A 4.4999978,4.4999978 0 0 0 84.5,527 H 85 85.455078 86 86.5 c 0.27699,0 0.5,-0.22299 0.5,-0.5 v -8 C 87,518.22299 86.77699,518 86.5,518 H 86 85 84.5 a 4.4999978,4.4999978 0 0 0 -3,1.15234 V 517.5 517 a 8.4999958,8.4999958 0 0 1 8.5,-8.5 8.4999958,8.4999958 0 0 1 8.5,8.5 v 0.5 1.65234 A 4.4999978,4.4999978 0 0 0 95.5,518 H 95 94 93.5 c -0.27699,0 -0.5,0.22299 -0.5,0.5 v 6.5 h -2 c -0.554,0 -1,0.446 -1,1 0,0.554 0.446,1 1,1 h 3 1 0.5 a 4.4999978,4.4999978 0 0 0 2.037109,-0.49414 4.4999978,4.4999978 0 0 0 0.02539,-0.0117 4.4999978,4.4999978 0 0 0 1.931641,-1.92578 4.4999978,4.4999978 0 0 0 0,-0.002 4.4999978,4.4999978 0 0 0 0.1875,-0.40821 4.4999978,4.4999978 0 0 0 0.113281,-0.33203 4.4999978,4.4999978 0 0 0 0.0332,-0.10351 4.4999978,4.4999978 0 0 0 0.07031,-0.29883 4.4999978,4.4999978 0 0 0 0.03125,-0.13867 4.4999978,4.4999978 0 0 0 0.03125,-0.24414 4.4999978,4.4999978 0 0 0 0.02539,-0.2129 A 4.4999978,4.4999978 0 0 0 100,522.5 V 521.54883 517 A 9.999995,9.999995 0 0 0 90,507 Z"
       id="path4574"
       inkscape:connector-curvature="0" />
    <rect
       ry="0.50000978"
       rx="0.49998125"
       y="517"
       x="84.5"
       height="8.9999952"
       width="2.4999988"
       id="rect4654"
       style="display:inline;opacity:1;fill:#42a5f5;fill-opacity:1;stroke:none;enable-background:new" />
    <path
       inkscape:connector-curvature="0"
       id="path4656"
       d="M 89.999995,505.99995 A 9.999995,9.999995 0 0 0 80,515.99994 v 5.5 h 1.499999 v -5 -0.5 a 8.4999958,8.4999958 0 0 1 8.499996,-8.49999 8.4999958,8.4999958 0 0 1 8.499996,8.49999 v 0.5 5 h 1.499999 v -5.5 a 9.999995,9.999995 0 0 0 -9.999995,-9.99999 z"
       style="display:inline;opacity:1;fill:#4d535c;fill-opacity:1;stroke:none;enable-background:new" />
    <rect
       style="display:inline;opacity:1;fill:#42a5f5;fill-opacity:1;stroke:none;enable-background:new"
       id="rect4660"
       width="2.4999988"
       height="8.9999952"
       x="93"
       y="517"
       rx="0.49998125"
       ry="0.50000978" />
    <path
       style="display:inline;fill:url(#linearGradient4682);fill-opacity:1;fill-rule:evenodd;stroke:none;stroke-width:1px;stroke-linecap:butt;stroke-linejoin:miter;stroke-opacity:1;enable-background:new"
       d="m 98.499991,518.49994 1.499999,-1.5 v 4 l -1.499999,-2.5"
       id="path4662"
       inkscape:connector-curvature="0" />
    <path
       id="path4578"
       d="m 93.5,517 c -0.27699,0 -0.5,0.22299 -0.5,0.5 v 1 c 0,-0.27701 0.22301,-0.5 0.5,-0.5 H 95 c 0.27699,0 0.5,0.22299 0.5,0.5 v -1 c 0,-0.27701 -0.22301,-0.5 -0.5,-0.5 z"
       style="display:inline;opacity:1;fill:#ffffff;fill-opacity:0.2;stroke:none;enable-background:new"
       inkscape:connector-curvature="0" />
    <path
       inkscape:connector-curvature="0"
       style="display:inline;opacity:1;fill:#4d535c;fill-opacity:1;stroke:none;enable-background:new"
       d="m 95,516.99994 v 9 h 0.5 a 4.4999978,4.4999978 0 0 0 4.5,-4.5 4.4999978,4.4999978 0 0 0 -4.5,-4.5 z"
       id="path4664" />
    <path
       inkscape:connector-curvature="0"
       id="path4668"
       d="M 81.499999,518.49994 80,516.99994 v 4 l 1.499999,-2.5"
       style="display:inline;fill:url(#linearGradient4684);fill-opacity:1;fill-rule:evenodd;stroke:none;stroke-width:1px;stroke-linecap:butt;stroke-linejoin:miter;stroke-opacity:1;enable-background:new" />
    <path
       style="display:inline;opacity:1;fill:#ffffff;fill-opacity:0.2;stroke:none;enable-background:new"
       d="m 85,517 c -0.27699,0 -0.5,0.22299 -0.5,0.5 v 1 c 0,-0.27701 0.22301,-0.5 0.5,-0.5 h 1.5 c 0.27699,0 0.5,0.22299 0.5,0.5 v -1 c 0,-0.27701 -0.22301,-0.5 -0.5,-0.5 z"
       id="rect4573"
       inkscape:connector-curvature="0" />
    <path
       inkscape:connector-curvature="0"
       style="display:inline;opacity:1;fill:#4d535c;fill-opacity:1;stroke:none;enable-background:new"
       d="m 84.5,516.99994 a 4.4999978,4.4999978 0 0 0 -4.5,4.5 4.4999978,4.4999978 0 0 0 4.5,4.5 H 85 v -9 z"
       id="path4671" />
    <path
       style="display:inline;opacity:1;fill:#ffffff;fill-opacity:0.2;stroke:none;enable-background:new"
       d="m 90,506 a 9.999995,9.999995 0 0 0 -10,10 v 1 a 9.999995,9.999995 0 0 1 10,-10 9.999995,9.999995 0 0 1 10,10 v -1 A 9.999995,9.999995 0 0 0 90,506 Z"
       id="path4571"
       inkscape:connector-curvature="0" />
    <path
       style="display:inline;fill:#030303;fill-opacity:0.2;stroke:none;stroke-width:2;stroke-linecap:round;stroke-linejoin:round;stroke-miterlimit:4;stroke-dasharray:none;stroke-opacity:1;enable-background:new"
       d="m 138,499 a 13.999983,13.999983 0 0 0 -14,14 v 6.37305 1.32617 a 6.2999925,6.2999925 0 0 0 0.67773,2.82812 6.2999925,6.2999925 0 0 0 0.0234,0.0488 6.2999925,6.2999925 0 0 0 2.69922,2.71485 6.2999925,6.2999925 0 0 0 0.5293,0.24218 6.2999925,6.2999925 0 0 0 0.0469,0.0215 6.2999925,6.2999925 0 0 0 0.46094,0.15625 6.2999925,6.2999925 0 0 0 0.14453,0.0488 6.2999925,6.2999925 0 0 0 0.44727,0.10351 6.2999925,6.2999925 0 0 0 0.16406,0.0371 6.2999925,6.2999925 0 0 0 0.33594,0.043 6.2999925,6.2999925 0 0 0 0.31445,0.0391 6.2999925,6.2999925 0 0 0 0.45703,0.0176 h 1.33789 0.76172 c 0.38778,0 0.69922,-0.31141 0.69922,-0.69922 v -11.20117 c 0,-0.3878 -0.31144,-0.69922 -0.69922,-0.69922 h -2.09961 a 6.2999925,6.2999925 0 0 0 -4.20117,1.61328 V 513.69922 513 A 11.899986,11.899986 0 0 1 138,501.09961 11.899986,11.899986 0 0 1 149.90039,513 v 0.69922 2.3164 a 6.2999925,6.2999925 0 0 0 -0.47266,-0.38671 6.2999925,6.2999925 0 0 0 -0.0156,-0.0117 6.2999925,6.2999925 0 0 0 -0.0254,-0.0176 6.2999925,6.2999925 0 0 0 -0.47852,-0.3125 6.2999925,6.2999925 0 0 0 -0.0664,-0.0391 6.2999925,6.2999925 0 0 0 -0.45118,-0.23633 6.2999925,6.2999925 0 0 0 -0.16015,-0.0723 6.2999925,6.2999925 0 0 0 -0.42969,-0.17187 6.2999925,6.2999925 0 0 0 -0.15234,-0.0508 6.2999925,6.2999925 0 0 0 -0.42578,-0.12305 6.2999925,6.2999925 0 0 0 -0.23243,-0.0527 6.2999925,6.2999925 0 0 0 -0.36132,-0.0664 6.2999925,6.2999925 0 0 0 -0.28321,-0.0332 6.2999925,6.2999925 0 0 0 -0.35742,-0.0312 6.2999925,6.2999925 0 0 0 -0.28906,-0.01 h -2.09961 c -0.38779,0 -0.69922,0.31141 -0.69922,0.69922 V 525 H 140 c -0.554,0 -1,0.446 -1,1 0,0.554 0.446,1 1,1 h 3.59961 2.09961 a 6.2999925,6.2999925 0 0 0 2.85351,-0.69141 6.2999925,6.2999925 0 0 0 0.0156,-0.006 6.2999925,6.2999925 0 0 0 0.0195,-0.01 6.2999925,6.2999925 0 0 0 0.008,-0.006 6.2999925,6.2999925 0 0 0 0.50391,-0.29102 6.2999925,6.2999925 0 0 0 0.0332,-0.0195 6.2999925,6.2999925 0 0 0 0.01,-0.006 6.2999925,6.2999925 0 0 0 0.48633,-0.35351 6.2999925,6.2999925 0 0 0 0.0137,-0.01 6.2999925,6.2999925 0 0 0 0.004,-0.004 6.2999925,6.2999925 0 0 0 0.4375,-0.38868 6.2999925,6.2999925 0 0 0 0.0293,-0.0254 6.2999925,6.2999925 0 0 0 0.008,-0.01 6.2999925,6.2999925 0 0 0 0.36719,-0.39649 6.2999925,6.2999925 0 0 0 0.0684,-0.0762 6.2999925,6.2999925 0 0 0 0.27148,-0.36133 6.2999925,6.2999925 0 0 0 0.11915,-0.16601 6.2999925,6.2999925 0 0 0 0.20507,-0.33985 6.2999925,6.2999925 0 0 0 0.13868,-0.24218 6.2999925,6.2999925 0 0 0 0.002,-0.002 6.2999925,6.2999925 0 0 0 0,-0.002 6.2999925,6.2999925 0 0 0 0.26172,-0.57031 6.2999925,6.2999925 0 0 0 0.15429,-0.45703 6.2999925,6.2999925 0 0 0 0.004,-0.008 6.2999925,6.2999925 0 0 0 0.0469,-0.14453 6.2999925,6.2999925 0 0 0 0.0977,-0.41992 6.2999925,6.2999925 0 0 0 0.0293,-0.12891 6.2999925,6.2999925 0 0 0 0.0156,-0.0664 6.2999925,6.2999925 0 0 0 0,-0.004 6.2999925,6.2999925 0 0 0 0.043,-0.33594 6.2999925,6.2999925 0 0 0 0.0371,-0.29882 6.2999925,6.2999925 0 0 0 0.0176,-0.43946 6.2999925,6.2999925 0 0 0 0,-0.0195 v -0.002 -1.33008 V 513 a 13.999983,13.999983 0 0 0 -14,-14 z"
       id="path4584"
       inkscape:connector-curvature="0" />
    <path
       style="display:inline;opacity:1;fill:#ffffff;fill-opacity:0.2;stroke:none;stroke-width:1.66600001;stroke-linecap:round;stroke-linejoin:round;stroke-miterlimit:4;stroke-dasharray:none;stroke-opacity:1;enable-background:new"
       d="M 137.99999,498.70002 A 13.999981,13.999983 0 0 0 124,512.7 h 0.0247 A 13.999981,13.999983 0 0 1 138,499.40002 13.999981,13.999983 0 0 1 151.96443,512.7 h 0.0356 A 13.999981,13.999983 0 0 0 138,498.70002 Z"
       id="path4698"
       inkscape:connector-curvature="0" />
    <rect
       style="display:inline;opacity:1;fill:#42a5f5;fill-opacity:1;stroke:none;enable-background:new"
       id="rect4700"
       width="3.4999959"
       height="12.599985"
       x="129.5"
       y="513.40002"
       rx="0.69997329"
       ry="0.70001322" />
    <path
       style="display:inline;opacity:1;fill:#4d535c;fill-opacity:1;stroke:none;enable-background:new"
       d="M 137.99999,498.00002 A 13.999983,13.999983 0 0 0 124,512 v 7.69999 h 2.1 V 512.7 512 A 11.899986,11.899986 0 0 1 137.99999,500.10002 11.899986,11.899986 0 0 1 149.89997,512 v 0.7 6.99999 h 2.1 V 512 a 13.999983,13.999983 0 0 0 -13.99998,-13.99998 z"
       id="path4703"
       inkscape:connector-curvature="0" />
    <path
       inkscape:connector-curvature="0"
       style="display:inline;opacity:1;fill:#ffffff;fill-opacity:0.2;stroke:none;stroke-width:1.66600001;stroke-linecap:round;stroke-linejoin:round;stroke-miterlimit:4;stroke-dasharray:none;stroke-opacity:1;enable-background:new"
       d="m 138,497.99994 a 13.999981,13.999983 0 0 0 -14,14 v 0.5 0.5 a 13.999989,13.999983 0 0 1 14,-14 13.999989,13.999983 0 0 1 13.95703,13.14648 13.999981,13.999983 0 0 1 0.0195,0.375 13.999989,13.999983 0 0 1 0.0235,0.47852 v -0.5 -0.5 a 13.999981,13.999983 0 0 0 -14,-14 z m 0,0.5 a 13.999981,13.999983 0 0 0 -1.19727,0.0606 13.999989,13.999983 0 0 1 1.19727,-0.0606 z m 1.2207,0.0625 a 13.999989,13.999983 0 0 1 0.56641,0.0684 13.999981,13.999983 0 0 0 -0.56641,-0.0684 z m -3.08984,0.0781 a 13.999981,13.999983 0 0 0 -0.71875,0.10938 13.999989,13.999983 0 0 1 0.71875,-0.10938 z m 4.50781,0.1211 a 13.999989,13.999983 0 0 1 0.46485,0.10351 13.999981,13.999983 0 0 0 -0.46485,-0.10351 z m -5.88672,0.13672 a 13.999981,13.999983 0 0 0 -0.6914,0.17578 13.999989,13.999983 0 0 1 0.6914,-0.17578 z m 7.26172,0.20117 a 13.999989,13.999983 0 0 1 0.40625,0.13477 13.999981,13.999983 0 0 0 -0.40625,-0.13477 z m -8.60937,0.19336 a 13.999981,13.999983 0 0 0 -0.66797,0.24414 13.999989,13.999983 0 0 1 0.66797,-0.24414 z m 9.92968,0.27539 a 13.999989,13.999983 0 0 1 0.36914,0.16602 13.999981,13.999983 0 0 0 -0.36914,-0.16602 z m -11.24804,0.25976 a 13.999981,13.999983 0 0 0 -0.59571,0.28711 13.999989,13.999983 0 0 1 0.59571,-0.28711 z m 12.54883,0.35743 a 13.999989,13.999983 0 0 1 0.23046,0.13281 13.999981,13.999983 0 0 0 -0.23046,-0.13281 z m -13.78321,0.29492 a 13.999981,13.999983 0 0 0 -0.59179,0.36328 13.999989,13.999983 0 0 1 0.59179,-0.36328 z m 14.99805,0.44141 a 13.999989,13.999983 0 0 1 0.16797,0.12109 13.999981,13.999983 0 0 0 -0.16797,-0.12109 z m -16.12305,0.30273 a 13.999981,13.999983 0 0 0 -0.59179,0.45117 13.999989,13.999983 0 0 1 0.59179,-0.45117 z m 17.24414,0.54492 a 13.999989,13.999983 0 0 1 0.13868,0.12109 13.999981,13.999983 0 0 0 -0.13868,-0.12109 z m -18.34375,0.35156 a 13.999981,13.999983 0 0 0 -0.51953,0.48633 13.999989,13.999983 0 0 1 0.51953,-0.48633 z m 19.38672,0.61524 a 13.999989,13.999983 0 0 1 0.0742,0.0781 13.999981,13.999983 0 0 0 -0.0742,-0.0781 z m -20.39258,0.39062 a 13.999981,13.999983 0 0 0 -0.44531,0.50782 13.999989,13.999983 0 0 1 0.44531,-0.50782 z m 21.31641,0.65821 a 13.999989,13.999983 0 0 1 0.0703,0.0898 13.999981,13.999983 0 0 0 -0.0703,-0.0898 z m -22.21289,0.4414 a 13.999981,13.999983 0 0 0 -0.37891,0.53125 13.999989,13.999983 0 0 1 0.37891,-0.53125 z m -0.75391,1.14258 a 13.999981,13.999983 0 0 0 -0.35156,0.61328 13.999989,13.999983 0 0 1 0.35156,-0.61328 z m -0.64648,1.22656 a 13.999981,13.999983 0 0 0 -0.28711,0.64063 13.999989,13.999983 0 0 1 0.28711,-0.64063 z m -0.53125,1.3086 a 13.999981,13.999983 0 0 0 -0.21875,0.65625 13.999989,13.999983 0 0 1 0.21875,-0.65625 z m -0.39453,1.34765 a 13.999981,13.999983 0 0 0 -0.14844,0.66016 13.999989,13.999983 0 0 1 0.14844,-0.66016 z m -0.25781,1.37891 a 13.999981,13.999983 0 0 0 -0.0801,0.67187 13.999989,13.999983 0 0 1 0.0801,-0.67187 z"
       id="path4705" />
    <rect
       ry="0.70001322"
       rx="0.69997329"
       y="513.40002"
       x="142.99997"
       height="12.599985"
       width="3.4999959"
       id="rect4707"
       style="display:inline;opacity:1;fill:#42a5f5;fill-opacity:1;stroke:none;enable-background:new" />
    <path
       inkscape:connector-curvature="0"
       id="path4709"
       d="m 149.89997,515.5 2.1,-2.1 v 5.6 l -2.1,-3.5"
       style="display:inline;fill:url(#linearGradient4727);fill-opacity:1;fill-rule:evenodd;stroke:none;stroke-width:1px;stroke-linecap:butt;stroke-linejoin:miter;stroke-opacity:1;enable-background:new" />
    <path
       id="path4585"
       d="m 143.69922,513.40039 c -0.38779,0 -0.69922,0.31141 -0.69922,0.69922 v 1 c 0,-0.38781 0.31143,-0.69922 0.69922,-0.69922 h 2.10156 c 0.38779,0 0.69922,0.31141 0.69922,0.69922 v -1 c 0,-0.38781 -0.31143,-0.69922 -0.69922,-0.69922 z"
       style="display:inline;opacity:1;fill:#ffffff;fill-opacity:0.2;stroke:none;enable-background:new"
       inkscape:connector-curvature="0" />
    <path
       inkscape:connector-curvature="0"
       style="display:inline;opacity:1;fill:#4d535c;fill-opacity:1;stroke:none;enable-background:new"
       d="m 145.69922,513.40033 v 10.59961 H 140 c -0.554,0 -1,0.446 -1,1 0,0.554 0.446,1 1,1 h 5.69922 A 6.2999925,6.2999925 0 0 0 152,519.69916 a 6.2999925,6.2999925 0 0 0 -6.30078,-6.29883 z"
       id="path4711" />
    <path
       inkscape:connector-curvature="0"
       style="display:inline;opacity:1;fill:#ffffff;fill-opacity:0.2;stroke:none;enable-background:new"
       d="m 145.69922,513.40033 v 0.5 a 6.2999925,6.2999925 0 0 1 0.37695,0.0195 6.2999925,6.2999925 0 0 0 -0.37695,-0.0195 v 0.49805 a 6.2999925,6.2999925 0 0 1 6.29101,6.00976 6.2999925,6.2999925 0 0 0 0.01,-0.20898 6.2999925,6.2999925 0 0 0 -0.01,-0.29102 6.2999925,6.2999925 0 0 0 0,-0.008 6.2999925,6.2999925 0 0 0 0.01,-0.19922 6.2999925,6.2999925 0 0 0 -6.30078,-6.30078 z m 0.71289,0.54297 a 6.2999925,6.2999925 0 0 1 0.26367,0.041 6.2999925,6.2999925 0 0 0 -0.26367,-0.041 z m 0.62695,0.10547 a 6.2999925,6.2999925 0 0 1 0.25,0.0625 6.2999925,6.2999925 0 0 0 -0.25,-0.0625 z m 0.60156,0.16211 a 6.2999925,6.2999925 0 0 1 0.2793,0.10156 6.2999925,6.2999925 0 0 0 -0.2793,-0.10156 z m 0.58008,0.2207 a 6.2999925,6.2999925 0 0 1 0.26953,0.12891 6.2999925,6.2999925 0 0 0 -0.26953,-0.12891 z m 0.57227,0.28516 a 6.2999925,6.2999925 0 0 1 0.22265,0.13476 6.2999925,6.2999925 0 0 0 -0.22265,-0.13476 z m 0.53711,0.33789 a 6.2999925,6.2999925 0 0 1 0.19726,0.15039 6.2999925,6.2999925 0 0 0 -0.19726,-0.15039 z m 0.49804,0.39258 a 6.2999925,6.2999925 0 0 1 0.17188,0.16015 6.2999925,6.2999925 0 0 0 -0.17188,-0.16015 z m 0.45313,0.43359 a 6.2999925,6.2999925 0 0 1 0.16016,0.18359 6.2999925,6.2999925 0 0 0 -0.16016,-0.18359 z m 0.41016,0.48437 a 6.2999925,6.2999925 0 0 1 0.125,0.17383 6.2999925,6.2999925 0 0 0 -0.125,-0.17383 z m 0.36132,0.52149 a 6.2999925,6.2999925 0 0 1 0.0918,0.16016 6.2999925,6.2999925 0 0 0 -0.0918,-0.16016 z m 0.3125,0.56836 a 6.2999925,6.2999925 0 0 1 0.0508,0.11523 6.2999925,6.2999925 0 0 0 -0.0508,-0.11523 z m 0.24024,0.56445 a 6.2999925,6.2999925 0 0 1 0.0606,0.18555 6.2999925,6.2999925 0 0 0 -0.0606,-0.18555 z m 0.1875,0.59961 a 6.2999925,6.2999925 0 0 1 0.041,0.17774 6.2999925,6.2999925 0 0 0 -0.041,-0.17774 z m 0.12891,0.625 a 6.2999925,6.2999925 0 0 1 0.0195,0.15234 6.2999925,6.2999925 0 0 0 -0.0195,-0.15234 z"
       id="path4723" />
    <path
       style="display:inline;fill:url(#linearGradient4729);fill-opacity:1;fill-rule:evenodd;stroke:none;stroke-width:1px;stroke-linecap:butt;stroke-linejoin:miter;stroke-opacity:1;enable-background:new"
       d="m 126.1,515.5 -2.1,-2.1 v 5.6 l 2.1,-3.5"
       id="path4713"
       inkscape:connector-curvature="0" />
    <path
       style="display:inline;opacity:1;fill:#ffffff;fill-opacity:0.2;stroke:none;enable-background:new"
       d="m 130.19922,513.40039 c -0.38779,0 -0.69922,0.31141 -0.69922,0.69922 v 1 c 0,-0.38781 0.31143,-0.69922 0.69922,-0.69922 h 2.10156 c 0.38779,0 0.69922,0.31141 0.69922,0.69922 v -1 c 0,-0.38781 -0.31143,-0.69922 -0.69922,-0.69922 z"
       id="rect4580"
       inkscape:connector-curvature="0" />
    <path
       style="display:inline;opacity:1;fill:#4d535c;fill-opacity:1;stroke:none;enable-background:new"
       d="M 130.29999,513.4 A 6.2999925,6.2999925 0 0 0 124,519.69999 a 6.2999925,6.2999925 0 0 0 6.29999,6.3 z"
       id="path4715"
       inkscape:connector-curvature="0" />
    <path
       id="path4744"
       d="m 130.30001,513.40033 v 0.5 a 6.2999925,6.2999925 0 0 0 -0.37695,0.0195 6.2999925,6.2999925 0 0 1 0.37695,-0.0195 v 0.49805 a 6.2999925,6.2999925 0 0 0 -6.29101,6.00976 6.2999925,6.2999925 0 0 1 -0.01,-0.20898 6.2999925,6.2999925 0 0 1 0.01,-0.29102 6.2999925,6.2999925 0 0 1 0,-0.008 6.2999925,6.2999925 0 0 1 -0.01,-0.19922 6.2999925,6.2999925 0 0 1 6.30078,-6.30078 z m -0.71289,0.54297 a 6.2999925,6.2999925 0 0 0 -0.26367,0.041 6.2999925,6.2999925 0 0 1 0.26367,-0.041 z m -0.62695,0.10547 a 6.2999925,6.2999925 0 0 0 -0.25,0.0625 6.2999925,6.2999925 0 0 1 0.25,-0.0625 z m -0.60156,0.16211 a 6.2999925,6.2999925 0 0 0 -0.2793,0.10156 6.2999925,6.2999925 0 0 1 0.2793,-0.10156 z m -0.58008,0.2207 a 6.2999925,6.2999925 0 0 0 -0.26953,0.12891 6.2999925,6.2999925 0 0 1 0.26953,-0.12891 z m -0.57227,0.28516 a 6.2999925,6.2999925 0 0 0 -0.22265,0.13476 6.2999925,6.2999925 0 0 1 0.22265,-0.13476 z m -0.53711,0.33789 a 6.2999925,6.2999925 0 0 0 -0.19726,0.15039 6.2999925,6.2999925 0 0 1 0.19726,-0.15039 z m -0.49804,0.39258 a 6.2999925,6.2999925 0 0 0 -0.17188,0.16015 6.2999925,6.2999925 0 0 1 0.17188,-0.16015 z m -0.45313,0.43359 a 6.2999925,6.2999925 0 0 0 -0.16016,0.18359 6.2999925,6.2999925 0 0 1 0.16016,-0.18359 z m -0.41016,0.48437 a 6.2999925,6.2999925 0 0 0 -0.125,0.17383 6.2999925,6.2999925 0 0 1 0.125,-0.17383 z m -0.36132,0.52149 a 6.2999925,6.2999925 0 0 0 -0.0918,0.16016 6.2999925,6.2999925 0 0 1 0.0918,-0.16016 z m -0.3125,0.56836 a 6.2999925,6.2999925 0 0 0 -0.0508,0.11523 6.2999925,6.2999925 0 0 1 0.0508,-0.11523 z m -0.24024,0.56445 a 6.2999925,6.2999925 0 0 0 -0.0606,0.18555 6.2999925,6.2999925 0 0 1 0.0606,-0.18555 z m -0.1875,0.59961 a 6.2999925,6.2999925 0 0 0 -0.041,0.17774 6.2999925,6.2999925 0 0 1 0.041,-0.17774 z m -0.12891,0.625 a 6.2999925,6.2999925 0 0 0 -0.0195,0.15234 6.2999925,6.2999925 0 0 1 0.0195,-0.15234 z"
       style="display:inline;opacity:1;fill:#ffffff;fill-opacity:0.2;stroke:none;enable-background:new"
       inkscape:connector-curvature="0" />
    <rect
       style="display:inline;opacity:1;fill:#42a5f5;fill-opacity:1;stroke:none;enable-background:new"
       id="rect4758"
       width="2.4999988"
       height="8.9999952"
       x="20.5"
       y="519"
       rx="0.49998125"
       ry="0.50000978" />
    <rect
       ry="0.50000978"
       rx="0.49998125"
       y="519"
       x="25"
       height="8.9999952"
       width="2.4999988"
       id="rect4760"
       style="display:inline;opacity:1;fill:#42a5f5;fill-opacity:1;stroke:none;enable-background:new" />
    <path
       inkscape:connector-curvature="0"
       style="display:inline;opacity:1;fill:#505660;fill-opacity:1;stroke:none;enable-background:new"
       d="m 20.5,518.99994 a 4.4999978,4.4999978 0 0 0 -4.23633,3 H 16 v 1.5 a 4.4999978,4.4999978 0 0 0 4.5,4.5 H 21 v -9 z m 6.5,0 v 7 h -3 c -0.554,0 -1,0.446 -1,1 0,0.554 0.446,1 1,1 h 3.5 a 4.4999978,4.4999978 0 0 0 4.5,-4.5 v -1.5 h -0.263672 a 4.4999978,4.4999978 0 0 0 -4.236328,-3 z"
       id="path4764" />
    <path
       inkscape:connector-curvature="0"
       style="display:inline;opacity:1;fill:#505660;fill-opacity:1;stroke:none;stroke-width:3;stroke-linecap:round;stroke-linejoin:round;stroke-miterlimit:4;stroke-dasharray:none;stroke-opacity:1;enable-background:new"
       d="m 24,511.99994 a 8,8 0 0 0 -0.67578,0.0332 8,8 0 0 0 -0.42774,0.0527 8,8 0 0 0 -0.36718,0.0566 8,8 0 0 0 -0.375,0.082 8,8 0 0 0 -0.41992,0.10742 8,8 0 0 0 -0.3418,0.11524 8,8 0 0 0 -0.39649,0.14257 8,8 0 0 0 -0.39648,0.17969 8,8 0 0 0 -0.3125,0.15039 8,8 0 0 0 -0.38867,0.2207 8,8 0 0 0 -0.31055,0.19141 8,8 0 0 0 -0.33789,0.24024 8,8 0 0 0 -0.30859,0.23632 8,8 0 0 0 -0.3086,0.27149 8,8 0 0 0 -0.28711,0.26562 8,8 0 0 0 -0.26562,0.28711 8,8 0 0 0 -0.27149,0.3086 8,8 0 0 0 -0.23632,0.30859 8,8 0 0 0 -0.24024,0.33789 8,8 0 0 0 -0.1914,0.31055 8,8 0 0 0 -0.22071,0.38867 8,8 0 0 0 -0.15039,0.3125 8,8 0 0 0 -0.17969,0.39648 8,8 0 0 0 -0.14257,0.39649 8,8 0 0 0 -0.11524,0.3418 8,8 0 0 0 -0.10742,0.41992 8,8 0 0 0 -0.082,0.375 8,8 0 0 0 -0.0566,0.36718 8,8 0 0 0 -0.0527,0.42774 8,8 0 0 0 -0.0332,0.67589 v 3 h 2 v -3 a 6,6 0 0 1 0.0234,-0.49414 6,6 0 0 1 0.043,-0.35547 6,6 0 0 1 0.0371,-0.24219 6,6 0 0 1 0.0723,-0.32422 6,6 0 0 1 0.0684,-0.26562 6,6 0 0 1 0.0996,-0.29883 6,6 0 0 1 0.10352,-0.2793 6,6 0 0 1 0.11132,-0.2539 6,6 0 0 1 0.13672,-0.28321 6,6 0 0 1 0.15039,-0.26171 6,6 0 0 1 0.16016,-0.25977 6,6 0 0 1 0.17187,-0.24219 6,6 0 0 1 0.17579,-0.23047 6,6 0 0 1 0.20898,-0.23828 6,6 0 0 1 0.19727,-0.21093 6,6 0 0 1 0.21093,-0.19727 6,6 0 0 1 0.23828,-0.20898 6,6 0 0 1 0.23047,-0.17579 6,6 0 0 1 0.24219,-0.17187 6,6 0 0 1 0.25977,-0.16016 6,6 0 0 1 0.26172,-0.15039 6,6 0 0 1 0.2832,-0.13672 6,6 0 0 1 0.2539,-0.11132 6,6 0 0 1 0.2793,-0.10352 6,6 0 0 1 0.29883,-0.0996 6,6 0 0 1 0.26562,-0.0684 6,6 0 0 1 0.32422,-0.0723 6,6 0 0 1 0.24219,-0.0371 6,6 0 0 1 0.35547,-0.043 6,6 0 0 1 0.49413,-0.0233 6,6 0 0 1 0.49414,0.0234 6,6 0 0 1 0.35547,0.043 6,6 0 0 1 0.242187,0.0371 6,6 0 0 1 0.324219,0.0723 6,6 0 0 1 0.265625,0.0684 6,6 0 0 1 0.298828,0.0996 6,6 0 0 1 0.279297,0.10352 6,6 0 0 1 0.253906,0.11132 6,6 0 0 1 0.283203,0.13672 6,6 0 0 1 0.261719,0.15039 6,6 0 0 1 0.259765,0.16016 6,6 0 0 1 0.242188,0.17187 6,6 0 0 1 0.230469,0.17579 6,6 0 0 1 0.238281,0.20898 6,6 0 0 1 0.210937,0.19727 6,6 0 0 1 0.197266,0.21093 6,6 0 0 1 0.208984,0.23828 6,6 0 0 1 0.175782,0.23047 6,6 0 0 1 0.171875,0.24219 6,6 0 0 1 0.160156,0.25977 6,6 0 0 1 0.150391,0.26171 6,6 0 0 1 0.136718,0.28321 6,6 0 0 1 0.111328,0.2539 6,6 0 0 1 0.103516,0.2793 6,6 0 0 1 0.09961,0.29883 6,6 0 0 1 0.06836,0.26562 6,6 0 0 1 0.07227,0.32422 6,6 0 0 1 0.03711,0.24219 6,6 0 0 1 0.04297,0.35547 6,6 0 0 1 0.02343,0.49409 v 3 h 2 v -3 a 8,8 0 0 0 -0.0332,-0.67578 8,8 0 0 0 -0.05273,-0.42774 8,8 0 0 0 -0.05664,-0.36718 8,8 0 0 0 -0.08203,-0.375 8,8 0 0 0 -0.107422,-0.41992 8,8 0 0 0 -0.115235,-0.3418 8,8 0 0 0 -0.142578,-0.39649 8,8 0 0 0 -0.179687,-0.39648 8,8 0 0 0 -0.150391,-0.3125 8,8 0 0 0 -0.220703,-0.38867 8,8 0 0 0 -0.191406,-0.31055 8,8 0 0 0 -0.240235,-0.33789 8,8 0 0 0 -0.236328,-0.30859 8,8 0 0 0 -0.271484,-0.3086 8,8 0 0 0 -0.265625,-0.28711 8,8 0 0 0 -0.287109,-0.26562 8,8 0 0 0 -0.308594,-0.27149 8,8 0 0 0 -0.308594,-0.23632 8,8 0 0 0 -0.337891,-0.24024 8,8 0 0 0 -0.310547,-0.19141 8,8 0 0 0 -0.388671,-0.2207 8,8 0 0 0 -0.3125,-0.15039 8,8 0 0 0 -0.396485,-0.17969 8,8 0 0 0 -0.396484,-0.14257 8,8 0 0 0 -0.341797,-0.11524 8,8 0 0 0 -0.419922,-0.10742 8,8 0 0 0 -0.375,-0.082 A 8,8 0 0 0 25.103675,512.086 8,8 0 0 0 24.67594,512.0333 8,8 0 0 0 24.00015,512 Z"
       id="path4778" />
    <rect
       style="display:inline;fill:#4d535c;fill-opacity:1;stroke:none;enable-background:new"
       id="rect4476"
       width="6"
       height="2"
       x="90"
       y="524.00006"
       rx="1"
       ry="1" />
    <path
       style="display:inline;fill:url(#linearGradient4731);fill-opacity:1;stroke:none;stroke-width:2;stroke-linecap:round;stroke-linejoin:round;stroke-miterlimit:4;stroke-dasharray:none;stroke-opacity:1;enable-background:new"
       d="M 137.99999,498.00002 A 13.999983,13.999983 0 0 0 124,512 v 6.37246 1.32753 a 6.2999925,6.2999925 0 0 0 0.67812,2.82734 6.2999925,6.2999925 0 0 0 0.0232,0.0492 6.2999925,6.2999925 0 0 0 2.69883,2.71386 6.2999925,6.2999925 0 0 0 0.53047,0.24336 6.2999925,6.2999925 0 0 0 0.0465,0.0205 6.2999925,6.2999925 0 0 0 0.46074,0.15723 6.2999925,6.2999925 0 0 0 0.14492,0.0479 6.2999925,6.2999925 0 0 0 0.44707,0.1039 6.2999925,6.2999925 0 0 0 0.16406,0.0369 6.2999925,6.2999925 0 0 0 0.33633,0.0437 6.2999925,6.2999925 0 0 0 0.31309,0.0383 6.2999925,6.2999925 0 0 0 0.45664,0.0178 h 1.33848 0.76152 c 0.38778,0 0.7,-0.31219 0.7,-0.7 v -11.19999 c 0,-0.3878 -0.31222,-0.7 -0.7,-0.7 h -2.1 A 6.2999925,6.2999925 0 0 0 126.1,515.01328 V 512.7 512 A 11.899986,11.899986 0 0 1 137.99999,500.10002 11.899986,11.899986 0 0 1 149.89997,512 v 0.7 2.31465 a 6.2999925,6.2999925 0 0 0 -4.2,-1.61465 h -2.09999 c -0.38779,0 -0.7,0.31219 -0.7,0.7 v 11.19999 c 0,0.3878 0.31221,0.7 0.7,0.7 h 0.75878 1.34121 a 6.2999925,6.2999925 0 0 0 2.85332,-0.69043 6.2999925,6.2999925 0 0 0 0.0341,-0.0164 6.2999925,6.2999925 0 0 0 2.70566,-2.69746 6.2999925,6.2999925 0 0 0 0,-10e-4 6.2999925,6.2999925 0 0 0 0.26113,-0.57149 6.2999925,6.2999925 0 0 0 0.1586,-0.46484 6.2999925,6.2999925 0 0 0 0.0479,-0.14492 6.2999925,6.2999925 0 0 0 0.0971,-0.41836 6.2999925,6.2999925 0 0 0 0.0437,-0.19551 6.2999925,6.2999925 0 0 0 0.0438,-0.34043 6.2999925,6.2999925 0 0 0 0.0369,-0.29941 6.2999925,6.2999925 0 0 0 0.0178,-0.45937 v -1.33163 -6.36836 A 13.999983,13.999983 0 0 0 138,498.0004 Z"
       id="path4725"
       inkscape:connector-curvature="0" />
    <path
       style="display:inline;opacity:1;fill:#ffffff;fill-opacity:0.2;stroke:none;enable-background:new"
       d="m 84.5,517 a 4.4999978,4.4999978 0 0 0 -4.5,4.5 4.4999978,4.4999978 0 0 0 0.0332,0.51172 A 4.4999978,4.4999978 0 0 1 84.5,518 H 85 v -1 z"
       id="path4577"
       inkscape:connector-curvature="0" />
    <path
       id="path4582"
       d="m 95.5,517 a 4.4999978,4.4999978 0 0 1 4.5,4.5 4.4999978,4.4999978 0 0 1 -0.0332,0.51172 A 4.4999978,4.4999978 0 0 0 95.5,518 H 95 v -1 z"
       style="display:inline;opacity:1;fill:#ffffff;fill-opacity:0.2;stroke:none;enable-background:new"
       inkscape:connector-curvature="0" />
    <path
       inkscape:connector-curvature="0"
       id="path4680"
       d="M 89.999995,505.99995 A 9.999995,9.999995 0 0 0 80,515.99994 v 4.55176 0.94824 a 4.4999978,4.4999978 0 0 0 0.484375,2.01953 4.4999978,4.4999978 0 0 0 0.0166,0.0352 4.4999978,4.4999978 0 0 0 1.927734,1.93848 4.4999978,4.4999978 0 0 0 0.378905,0.17382 4.4999978,4.4999978 0 0 0 0.0332,0.0146 4.4999978,4.4999978 0 0 0 0.329099,0.11231 4.4999978,4.4999978 0 0 0 0.10352,0.0342 4.4999978,4.4999978 0 0 0 0.319335,0.0742 4.4999978,4.4999978 0 0 0 0.117185,0.0264 4.4999978,4.4999978 0 0 0 0.240235,0.0312 4.4999978,4.4999978 0 0 0 0.223635,0.0273 4.4999978,4.4999978 0 0 0 0.326175,0.0127 h 0.956054 0.543945 c 0.27699,0 0.5,-0.22299 0.5,-0.5 v -8 c 0,-0.277 -0.22301,-0.5 -0.5,-0.5 h -1.499999 a 4.4999978,4.4999978 0 0 0 -2.999999,1.15235 v -1.65235 -0.5 a 8.4999958,8.4999958 0 0 1 8.499996,-8.49993 8.4999958,8.4999958 0 0 1 8.499996,8.49999 v 0.5 1.65332 a 4.4999978,4.4999978 0 0 0 -2.999999,-1.15332 h -1.499999 c -0.27699,0 -0.5,0.223 -0.5,0.5 v 8 c 0,0.27701 0.22301,0.5 0.5,0.5 h 0.54199 0.958009 a 4.4999978,4.4999978 0 0 0 2.038084,-0.49316 4.4999978,4.4999978 0 0 0 0.0244,-0.0117 4.4999978,4.4999978 0 0 0 1.932614,-1.92676 4.4999978,4.4999978 0 0 0 0,-10e-4 4.4999978,4.4999978 0 0 0 0.186525,-0.4082 4.4999978,4.4999978 0 0 0 0.11328,-0.33203 4.4999978,4.4999978 0 0 0 0.0342,-0.10352 4.4999978,4.4999978 0 0 0 0.06934,-0.29883 4.4999978,4.4999978 0 0 0 0.03125,-0.13965 4.4999978,4.4999978 0 0 0 0.03125,-0.24316 4.4999978,4.4999978 0 0 0 0.02635,-0.21387 4.4999978,4.4999978 0 0 0 0.0127,-0.32812 v -0.95117 -4.54883 a 9.999995,9.999995 0 0 0 -9.999995,-9.99999 z"
       style="display:inline;fill:url(#linearGradient4686);fill-opacity:1;stroke:none;stroke-width:2;stroke-linecap:round;stroke-linejoin:round;stroke-miterlimit:4;stroke-dasharray:none;stroke-opacity:1;enable-background:new" />
    <path
       inkscape:connector-curvature="0"
       id="path4603"
       d="M 266.00004,469.30071 A 28.000008,27.849627 0 0 0 238,497.15037 v 12.67767 2.63808 a 12.600004,12.532332 0 0 0 1.35546,5.62587 12.600004,12.532332 0 0 0 0.0468,0.097 12.600004,12.532332 0 0 0 5.39845,5.40054 12.600004,12.532332 0 0 0 1.0586,0.48177 12.600004,12.532332 0 0 0 0.0938,0.0427 12.600004,12.532332 0 0 0 0.92188,0.31082 12.600004,12.532332 0 0 0 0.28906,0.097 12.600004,12.532332 0 0 0 0.89455,0.2059 12.600004,12.532332 0 0 0 0.32812,0.0739 12.600004,12.532332 0 0 0 0.67188,0.0854 12.600004,12.532332 0 0 0 0.6289,0.0779 12.600004,12.532332 0 0 0 0.91406,0.0349 h 2.67578 1.52345 c 0.77556,0 1.39844,-0.61948 1.39844,-1.39092 v -22.28207 c 0,-0.77142 -0.62288,-1.39092 -1.39844,-1.39092 h -4.19923 a 12.600004,12.532332 0 0 0 -8.40235,3.20924 v -4.60413 -1.39092 a 23.800008,23.672184 0 0 1 23.80083,-23.67299 23.800008,23.672184 0 0 1 23.80082,23.67299 v 1.39092 4.60794 a 12.600004,12.532332 0 0 0 -0.94532,-0.76927 12.600004,12.532332 0 0 0 -0.0312,-0.0234 12.600004,12.532332 0 0 0 -0.0508,-0.0349 12.600004,12.532332 0 0 0 -0.95704,-0.62167 12.600004,12.532332 0 0 0 -0.1328,-0.0779 12.600004,12.532332 0 0 0 -0.90237,-0.47011 12.600004,12.532332 0 0 0 -0.3203,-0.14385 12.600004,12.532332 0 0 0 -0.85938,-0.34187 12.600004,12.532332 0 0 0 -0.30468,-0.10106 12.600004,12.532332 0 0 0 -0.85156,-0.24478 12.600004,12.532332 0 0 0 -0.46486,-0.10483 12.600004,12.532332 0 0 0 -0.72264,-0.13211 12.600004,12.532332 0 0 0 -0.56642,-0.0661 12.600004,12.532332 0 0 0 -0.71484,-0.0621 12.600004,12.532332 0 0 0 -0.57812,-0.02 h -4.19923 c -0.77558,0 -1.39844,0.61948 -1.39844,1.39092 v 19.69492 h -5.80081 c -1.108,0 -2,0.88722 -2,1.98926 0,1.10205 0.892,1.98927 2,1.98927 h 7.19923 4.19923 a 12.600004,12.532332 0 0 0 5.70702,-1.37539 12.600004,12.532332 0 0 0 0.0312,-0.012 12.600004,12.532332 0 0 0 0.039,-0.02 12.600004,12.532332 0 0 0 0.016,-0.012 12.600004,12.532332 0 0 0 1.00783,-0.57892 12.600004,12.532332 0 0 0 0.0664,-0.0387 12.600004,12.532332 0 0 0 0.02,-0.012 12.600004,12.532332 0 0 0 0.97266,-0.70324 12.600004,12.532332 0 0 0 0.0274,-0.02 12.600004,12.532332 0 0 0 0.008,-0.008 12.600004,12.532332 0 0 0 0.875,-0.77318 12.600004,12.532332 0 0 0 0.0586,-0.0505 12.600004,12.532332 0 0 0 0.016,-0.02 12.600004,12.532332 0 0 0 0.73438,-0.78874 12.600004,12.532332 0 0 0 0.1368,-0.15158 12.600004,12.532332 0 0 0 0.54296,-0.71878 12.600004,12.532332 0 0 0 0.2383,-0.33022 12.600004,12.532332 0 0 0 0.41014,-0.67606 12.600004,12.532332 0 0 0 0.27736,-0.48175 12.600004,12.532332 0 0 0 0.004,-0.004 12.600004,12.532332 0 0 0 0,-0.004 12.600004,12.532332 0 0 0 0.52344,-1.13448 12.600004,12.532332 0 0 0 0.30858,-0.90916 12.600004,12.532332 0 0 0 0.008,-0.016 12.600004,12.532332 0 0 0 0.0938,-0.28753 12.600004,12.532332 0 0 0 0.1954,-0.83533 12.600004,12.532332 0 0 0 0.0586,-0.25644 12.600004,12.532332 0 0 0 0.0312,-0.13207 12.600004,12.532332 0 0 0 0,-0.008 12.600004,12.532332 0 0 0 0.086,-0.66828 12.600004,12.532332 0 0 0 0.0742,-0.59445 12.600004,12.532332 0 0 0 0.0352,-0.8742 12.600004,12.532332 0 0 0 0,-0.0387 v -0.004 -2.64587 -12.66667 a 28.000008,27.849627 0 0 0 -28.00004,-27.84966 z"
       style="display:inline;fill:#030303;fill-opacity:0.2;stroke:none;stroke-width:3.98924994;stroke-linecap:round;stroke-linejoin:round;stroke-miterlimit:4;stroke-dasharray:none;stroke-opacity:1;filter:url(#filter4653);enable-background:new" />
    <path
       inkscape:connector-curvature="0"
       id="path4605"
       d="M 265.99998,469.40013 A 27.999962,27.999966 0 0 0 238,497.40009 h 0.0494 A 27.999962,27.999966 0 0 1 266,470.80013 a 27.999962,27.999966 0 0 1 27.92886,26.59996 h 0.0712 A 27.999962,27.999966 0 0 0 266,469.40013 Z"
       style="display:inline;opacity:1;fill:#ffffff;fill-opacity:0.2;stroke:none;stroke-width:3.33200002;stroke-linecap:round;stroke-linejoin:round;stroke-miterlimit:4;stroke-dasharray:none;stroke-opacity:1;enable-background:new" />
    <rect
       ry="1.4000264"
       rx="1.3999466"
       y="498.80008"
       x="249"
       height="25.19997"
       width="6.9999919"
       id="rect4607"
       style="display:inline;opacity:1;fill:#42a5f5;fill-opacity:1;stroke:none;stroke-width:2;enable-background:new" />
    <path
       inkscape:connector-curvature="0"
       id="path4609"
       d="M 265.99998,468.00013 A 27.999966,27.999966 0 0 0 238,496.00009 v 15.39998 h 4.2 v -13.99998 -1.4 a 23.799972,23.799972 0 0 1 23.79998,-23.79996 23.799972,23.799972 0 0 1 23.79996,23.79996 v 1.4 13.99998 h 4.2 v -15.39998 a 27.999966,27.999966 0 0 0 -27.99996,-27.99996 z"
       style="display:inline;opacity:1;fill:#4d535c;fill-opacity:1;stroke:none;stroke-width:2;enable-background:new" />
    <path
       style="display:inline;opacity:1;fill:#ffffff;fill-opacity:0.2;stroke:none;stroke-width:3.33200002;stroke-linecap:round;stroke-linejoin:round;stroke-miterlimit:4;stroke-dasharray:none;stroke-opacity:1;enable-background:new"
       d="m 266,468 a 27.999962,27.999966 0 0 0 -28,28 v 1 a 27.999962,27.999966 0 0 1 28,-28 27.999962,27.999966 0 0 1 28,28 v -1 a 27.999962,27.999966 0 0 0 -28,-28 z"
       id="path4611"
       inkscape:connector-curvature="0" />
    <rect
       style="display:inline;opacity:1;fill:#42a5f5;fill-opacity:1;stroke:none;stroke-width:2;enable-background:new"
       id="rect4613"
       width="6.9999919"
       height="25.19997"
       x="275.99994"
       y="498.80008"
       rx="1.3999466"
       ry="1.4000264" />
    <path
       style="display:inline;fill:url(#linearGradient4633);fill-opacity:1;fill-rule:evenodd;stroke:none;stroke-width:2px;stroke-linecap:butt;stroke-linejoin:miter;stroke-opacity:1;enable-background:new"
       d="m 289.79994,503.00009 4.2,-4.2 v 11.2 l -4.2,-7"
       id="path4615"
       inkscape:connector-curvature="0" />
    <path
       style="display:inline;opacity:1;fill:#ffffff;fill-opacity:0.2;stroke:none;stroke-width:2;enable-background:new"
       d="m 277.39844,498.80078 c -0.77558,0 -1.39844,0.62282 -1.39844,1.39844 v 1 c 0,-0.77562 0.62286,-1.39844 1.39844,-1.39844 h 4 0.20312 c 0.0354,0 0.0688,0.007 0.10352,0.01 A 12.599985,12.599985 0 0 1 294,512.39844 a 12.599985,12.599985 0 0 0 -0.0195,-0.58203 12.599985,12.599985 0 0 0 0,-0.0156 12.599985,12.599985 0 0 0 0.0195,-0.39844 12.599985,12.599985 0 0 0 -12.29492,-12.59179 c -0.0347,-0.003 -0.0681,-0.01 -0.10352,-0.01 h -0.20312 z"
       id="path4617"
       inkscape:connector-curvature="0" />
    <path
       id="path4619"
       d="m 281.39844,498.80075 v 21.19922 H 270 c -1.108,0 -2,0.892 -2,2 0,1.108 0.892,2 2,2 h 11.39844 A 12.599985,12.599985 0 0 0 294,511.39841 12.599985,12.599985 0 0 0 281.39844,498.80075 Z"
       style="display:inline;opacity:1;fill:#4d535c;fill-opacity:1;stroke:none;stroke-width:2;enable-background:new"
       inkscape:connector-curvature="0" />
    <path
       inkscape:connector-curvature="0"
       id="path4623"
       d="m 242.2,503.00009 -4.2,-4.2 v 11.2 l 4.2,-7"
       style="display:inline;fill:url(#linearGradient4635);fill-opacity:1;fill-rule:evenodd;stroke:none;stroke-width:2px;stroke-linecap:butt;stroke-linejoin:miter;stroke-opacity:1;enable-background:new" />
    <path
       inkscape:connector-curvature="0"
       id="path4627"
       d="M 250.59998,498.80009 A 12.599985,12.599985 0 0 0 238,511.40007 a 12.599985,12.599985 0 0 0 12.59998,12.6 z"
       style="display:inline;opacity:1;fill:#4d535c;fill-opacity:1;stroke:none;stroke-width:2;enable-background:new" />
    <path
       id="path4647"
       d="m 254.60156,498.80078 c 0.77558,0 1.39844,0.62282 1.39844,1.39844 v 1 c 0,-0.77562 -0.62286,-1.39844 -1.39844,-1.39844 h -4 -0.20312 c -0.0354,0 -0.0688,0.007 -0.10352,0.01 A 12.599985,12.599985 0 0 0 238,512.39844 a 12.599985,12.599985 0 0 1 0.0195,-0.58203 12.599985,12.599985 0 0 1 0,-0.0156 12.599985,12.599985 0 0 1 -0.0195,-0.39844 12.599985,12.599985 0 0 1 12.29492,-12.59179 c 0.0347,-0.003 0.0681,-0.01 0.10352,-0.01 h 0.20312 z"
       style="display:inline;opacity:1;fill:#ffffff;fill-opacity:0.2;stroke:none;stroke-width:2;enable-background:new"
       inkscape:connector-curvature="0" />
    <path
       inkscape:connector-curvature="0"
       id="path4631"
       d="M 265.99998,468.00013 A 27.999966,27.999966 0 0 0 238,496.00009 v 12.74492 2.65506 a 12.599985,12.599985 0 0 0 1.35624,5.65468 12.599985,12.599985 0 0 0 0.0464,0.0984 12.599985,12.599985 0 0 0 5.39766,5.42772 12.599985,12.599985 0 0 0 1.06094,0.48672 12.599985,12.599985 0 0 0 0.093,0.041 12.599985,12.599985 0 0 0 0.92148,0.31446 12.599985,12.599985 0 0 0 0.28984,0.0958 12.599985,12.599985 0 0 0 0.89414,0.2078 12.599985,12.599985 0 0 0 0.32812,0.0738 12.599985,12.599985 0 0 0 0.67266,0.0874 12.599985,12.599985 0 0 0 0.62618,0.0766 12.599985,12.599985 0 0 0 0.91328,0.0356 h 2.67696 1.52304 c 0.77556,0 1.4,-0.62438 1.4,-1.4 v -22.39998 c 0,-0.7756 -0.62444,-1.4 -1.4,-1.4 h -4.2 A 12.599985,12.599985 0 0 0 242.2,502.02665 v -4.62656 -1.4 a 23.799972,23.799972 0 0 1 23.79998,-23.79996 23.799972,23.799972 0 0 1 23.79996,23.79996 v 1.4 4.6293 a 12.599985,12.599985 0 0 0 -8.4,-3.2293 h -4.19998 c -0.77558,0 -1.4,0.62438 -1.4,1.4 v 22.39998 c 0,0.7756 0.62442,1.4 1.4,1.4 h 1.51756 2.68242 a 12.599985,12.599985 0 0 0 5.70664,-1.38086 12.599985,12.599985 0 0 0 0.0682,-0.0328 12.599985,12.599985 0 0 0 5.41132,-5.39492 12.599985,12.599985 0 0 0 0,-0.002 12.599985,12.599985 0 0 0 0.52226,-1.14298 12.599985,12.599985 0 0 0 0.3172,-0.92968 12.599985,12.599985 0 0 0 0.0958,-0.28984 12.599985,12.599985 0 0 0 0.1942,-0.83672 12.599985,12.599985 0 0 0 0.0874,-0.39102 12.599985,12.599985 0 0 0 0.0876,-0.68086 12.599985,12.599985 0 0 0 0.0738,-0.59882 12.599985,12.599985 0 0 0 0.0356,-0.91874 v -2.66326 -12.73672 A 27.999966,27.999966 0 0 0 266,468.00089 Z"
       style="display:inline;fill:url(#linearGradient4637);fill-opacity:1;stroke:none;stroke-width:4;stroke-linecap:round;stroke-linejoin:round;stroke-miterlimit:4;stroke-dasharray:none;stroke-opacity:1;enable-background:new" />
    <path
       style="display:inline;opacity:1;fill:#ffffff;fill-opacity:0.2;stroke:none;stroke-width:2;enable-background:new"
       d="m 281.39844,498.80078 v 1 A 12.599985,12.599985 0 0 1 293.97852,511.98633 12.599985,12.599985 0 0 0 294,511.39844 12.599985,12.599985 0 0 0 281.39844,498.80078 Z M 270,520 c -1.108,0 -2,0.892 -2,2 0,0.17383 0.029,0.33941 0.0703,0.5 0.22195,-0.86299 0.99552,-1.5 1.92969,-1.5 h 11.39844 v -1 z"
       id="path4669"
       inkscape:connector-curvature="0" />
    <path
       style="display:inline;opacity:1;fill:#ffffff;fill-opacity:0.2;stroke:none;stroke-width:8;enable-background:new"
       d="m 693.1875,294.40625 v 2 A 100.79988,100.79988 0 0 1 793.95898,396.35938 100.79988,100.79988 0 0 0 794,395.1875 100.79988,100.79988 0 0 0 693.1875,294.40625 Z M 602,464 c -8.864,0 -16,7.136 -16,16 0,0.33769 0.0304,0.66763 0.0508,1 0.51545,-8.39211 7.42291,-15 15.94922,-15 h 91.1875 v -2 z"
       id="path4689"
       inkscape:connector-curvature="0" />
    <path
       inkscape:connector-curvature="0"
       id="path4608"
       d="m 55,508 a 9.999995,9.999995 0 0 0 -10,10 v 4.55078 0.94922 a 4.4999978,4.4999978 0 0 0 0.484375,2.01953 4.4999978,4.4999978 0 0 0 0.01563,0.0352 4.4999978,4.4999978 0 0 0 1.927734,1.9375 4.4999978,4.4999978 0 0 0 0.378907,0.17383 4.4999978,4.4999978 0 0 0 0.0332,0.0156 4.4999978,4.4999978 0 0 0 0.330078,0.11133 4.4999978,4.4999978 0 0 0 0.103516,0.0352 4.4999978,4.4999978 0 0 0 0.318359,0.0742 4.4999978,4.4999978 0 0 0 0.117187,0.0254 4.4999978,4.4999978 0 0 0 0.240235,0.0312 4.4999978,4.4999978 0 0 0 0.224609,0.0273 A 4.4999978,4.4999978 0 0 0 49.5,528 H 50 50.455078 51 51.5 c 0.27699,0 0.5,-0.22299 0.5,-0.5 v -8 C 52,519.22299 51.77699,519 51.5,519 H 51 50 49.5 a 4.4999978,4.4999978 0 0 0 -3,1.15234 V 518.5 518 a 8.4999958,8.4999958 0 0 1 8.5,-8.5 8.4999958,8.4999958 0 0 1 8.5,8.5 v 0.5 1.65234 A 4.4999978,4.4999978 0 0 0 60.5,519 H 60 59 58.5 c -0.27699,0 -0.5,0.22299 -0.5,0.5 v 6.5 h -2 c -0.554,0 -1,0.446 -1,1 0,0.554 0.446,1 1,1 h 3 1 0.5 a 4.4999978,4.4999978 0 0 0 2.037109,-0.49414 4.4999978,4.4999978 0 0 0 0.02539,-0.0117 4.4999978,4.4999978 0 0 0 1.931641,-1.92578 4.4999978,4.4999978 0 0 0 0,-0.002 4.4999978,4.4999978 0 0 0 0.1875,-0.40821 4.4999978,4.4999978 0 0 0 0.113281,-0.33203 4.4999978,4.4999978 0 0 0 0.0332,-0.10351 4.4999978,4.4999978 0 0 0 0.07031,-0.29883 4.4999978,4.4999978 0 0 0 0.03125,-0.13867 4.4999978,4.4999978 0 0 0 0.03125,-0.24414 4.4999978,4.4999978 0 0 0 0.02539,-0.2129 A 4.4999978,4.4999978 0 0 0 65,523.5 V 522.54883 518 A 9.999995,9.999995 0 0 0 55,508 Z"
       style="display:inline;fill:#000000;fill-opacity:0.2;stroke:none;stroke-width:2;stroke-linecap:round;stroke-linejoin:round;stroke-miterlimit:4;stroke-dasharray:none;stroke-opacity:1;enable-background:new" />
    <rect
       style="display:inline;opacity:1;fill:#42a5f5;fill-opacity:1;stroke:none;enable-background:new"
       id="rect4610"
       width="2.4999988"
       height="8.9999952"
       x="49.5"
       y="518"
       rx="0.49998125"
       ry="0.50000978" />
    <path
       style="display:inline;opacity:1;fill:#4d535c;fill-opacity:1;stroke:none;enable-background:new"
       d="M 54.999995,506.99995 A 9.999995,9.999995 0 0 0 45,516.99994 v 5.5 h 1.499999 v -5 -0.5 a 8.4999958,8.4999958 0 0 1 8.499996,-8.49999 8.4999958,8.4999958 0 0 1 8.499996,8.49999 v 0.5 5 h 1.499999 v -5.5 a 9.999995,9.999995 0 0 0 -9.999995,-9.99999 z"
       id="path4612"
       inkscape:connector-curvature="0" />
    <rect
       ry="0.50000978"
       rx="0.49998125"
       y="518"
       x="58"
       height="8.9999952"
       width="2.4999988"
       id="rect4614"
       style="display:inline;opacity:1;fill:#42a5f5;fill-opacity:1;stroke:none;enable-background:new" />
    <path
       inkscape:connector-curvature="0"
       id="path4616"
       d="m 63.499991,519.49994 1.499999,-1.5 v 4 l -1.499999,-2.5"
       style="display:inline;fill:url(#linearGradient4638);fill-opacity:1;fill-rule:evenodd;stroke:none;stroke-width:1px;stroke-linecap:butt;stroke-linejoin:miter;stroke-opacity:1;enable-background:new" />
    <path
       inkscape:connector-curvature="0"
       style="display:inline;opacity:1;fill:#ffffff;fill-opacity:0.2;stroke:none;enable-background:new"
       d="m 58.5,518 c -0.27699,0 -0.5,0.22299 -0.5,0.5 v 1 c 0,-0.27701 0.22301,-0.5 0.5,-0.5 H 60 c 0.27699,0 0.5,0.22299 0.5,0.5 v -1 c 0,-0.27701 -0.22301,-0.5 -0.5,-0.5 z"
       id="path4618" />
    <path
       id="path4620"
       d="m 60,517.99994 v 9 h 0.5 a 4.4999978,4.4999978 0 0 0 4.5,-4.5 4.4999978,4.4999978 0 0 0 -4.5,-4.5 z"
       style="display:inline;opacity:1;fill:#4d535c;fill-opacity:1;stroke:none;enable-background:new"
       inkscape:connector-curvature="0" />
    <path
       style="display:inline;fill:url(#linearGradient4640);fill-opacity:1;fill-rule:evenodd;stroke:none;stroke-width:1px;stroke-linecap:butt;stroke-linejoin:miter;stroke-opacity:1;enable-background:new"
       d="M 46.499999,519.49994 45,517.99994 v 4 l 1.499999,-2.5"
       id="path4622"
       inkscape:connector-curvature="0" />
    <path
       inkscape:connector-curvature="0"
       id="path4624"
       d="m 50,518 c -0.27699,0 -0.5,0.22299 -0.5,0.5 v 1 c 0,-0.27701 0.22301,-0.5 0.5,-0.5 h 1.5 c 0.27699,0 0.5,0.22299 0.5,0.5 v -1 c 0,-0.27701 -0.22301,-0.5 -0.5,-0.5 z"
       style="display:inline;opacity:1;fill:#ffffff;fill-opacity:0.2;stroke:none;enable-background:new" />
    <path
       id="path4626"
       d="m 49.5,517.99994 a 4.4999978,4.4999978 0 0 0 -4.5,4.5 4.4999978,4.4999978 0 0 0 4.5,4.5 H 50 v -9 z"
       style="display:inline;opacity:1;fill:#4d535c;fill-opacity:1;stroke:none;enable-background:new"
       inkscape:connector-curvature="0" />
    <path
       inkscape:connector-curvature="0"
       id="path4628"
       d="m 55,507 a 9.999995,9.999995 0 0 0 -10,10 v 1 a 9.999995,9.999995 0 0 1 10,-10 9.999995,9.999995 0 0 1 10,10 v -1 A 9.999995,9.999995 0 0 0 55,507 Z"
       style="display:inline;opacity:1;fill:#ffffff;fill-opacity:0.2;stroke:none;enable-background:new" />
    <rect
       ry="1"
       rx="1"
       y="525.00006"
       x="55"
       height="2"
       width="6"
       id="rect4630"
       style="display:inline;fill:#4d535c;fill-opacity:1;stroke:none;enable-background:new" />
    <path
       inkscape:connector-curvature="0"
       id="path4632"
       d="m 49.5,518 a 4.4999978,4.4999978 0 0 0 -4.5,4.5 4.4999978,4.4999978 0 0 0 0.0332,0.51172 A 4.4999978,4.4999978 0 0 1 49.5,519 H 50 v -1 z"
       style="display:inline;opacity:1;fill:#ffffff;fill-opacity:0.2;stroke:none;enable-background:new" />
    <path
       inkscape:connector-curvature="0"
       style="display:inline;opacity:1;fill:#ffffff;fill-opacity:0.2;stroke:none;enable-background:new"
       d="m 60.5,518 a 4.4999978,4.4999978 0 0 1 4.5,4.5 4.4999978,4.4999978 0 0 1 -0.0332,0.51172 A 4.4999978,4.4999978 0 0 0 60.5,519 H 60 v -1 z"
       id="path4634" />
    <path
       style="display:inline;fill:url(#linearGradient4642);fill-opacity:1;stroke:none;stroke-width:2;stroke-linecap:round;stroke-linejoin:round;stroke-miterlimit:4;stroke-dasharray:none;stroke-opacity:1;enable-background:new"
       d="M 54.999995,506.99995 A 9.999995,9.999995 0 0 0 45,516.99994 v 4.55176 0.94824 a 4.4999978,4.4999978 0 0 0 0.484375,2.01953 4.4999978,4.4999978 0 0 0 0.0166,0.0352 4.4999978,4.4999978 0 0 0 1.927734,1.93848 4.4999978,4.4999978 0 0 0 0.378905,0.17382 4.4999978,4.4999978 0 0 0 0.0332,0.0146 4.4999978,4.4999978 0 0 0 0.329099,0.11231 4.4999978,4.4999978 0 0 0 0.10352,0.0342 4.4999978,4.4999978 0 0 0 0.319335,0.0742 4.4999978,4.4999978 0 0 0 0.117185,0.0264 4.4999978,4.4999978 0 0 0 0.240235,0.0312 4.4999978,4.4999978 0 0 0 0.223635,0.0273 4.4999978,4.4999978 0 0 0 0.326175,0.0127 h 0.956054 0.543945 c 0.27699,0 0.5,-0.22299 0.5,-0.5 v -8 c 0,-0.277 -0.22301,-0.5 -0.5,-0.5 h -1.499999 a 4.4999978,4.4999978 0 0 0 -2.999999,1.15235 v -1.65235 -0.5 a 8.4999958,8.4999958 0 0 1 8.499996,-8.49993 8.4999958,8.4999958 0 0 1 8.499996,8.49999 v 0.5 1.65332 a 4.4999978,4.4999978 0 0 0 -2.999999,-1.15332 h -1.499999 c -0.27699,0 -0.5,0.223 -0.5,0.5 v 8 c 0,0.27701 0.22301,0.5 0.5,0.5 h 0.54199 0.958009 a 4.4999978,4.4999978 0 0 0 2.038084,-0.49316 4.4999978,4.4999978 0 0 0 0.0244,-0.0117 4.4999978,4.4999978 0 0 0 1.932614,-1.92676 4.4999978,4.4999978 0 0 0 0,-10e-4 4.4999978,4.4999978 0 0 0 0.186525,-0.4082 4.4999978,4.4999978 0 0 0 0.11328,-0.33203 4.4999978,4.4999978 0 0 0 0.0342,-0.10352 4.4999978,4.4999978 0 0 0 0.06934,-0.29883 4.4999978,4.4999978 0 0 0 0.03125,-0.13965 4.4999978,4.4999978 0 0 0 0.03125,-0.24316 4.4999978,4.4999978 0 0 0 0.02635,-0.21387 4.4999978,4.4999978 0 0 0 0.0127,-0.32812 v -0.95117 -4.54883 a 9.999995,9.999995 0 0 0 -9.999995,-9.99999 z"
       id="path4636"
       inkscape:connector-curvature="0" />
  </g>
</svg>
