<?xml version="1.0" encoding="UTF-8" standalone="no"?>
<!-- Created with Inkscape (http://www.inkscape.org/) -->

<svg
   xmlns:dc="http://purl.org/dc/elements/1.1/"
   xmlns:cc="http://creativecommons.org/ns#"
   xmlns:rdf="http://www.w3.org/1999/02/22-rdf-syntax-ns#"
   xmlns:svg="http://www.w3.org/2000/svg"
   xmlns="http://www.w3.org/2000/svg"
   xmlns:sodipodi="http://sodipodi.sourceforge.net/DTD/sodipodi-0.dtd"
   xmlns:inkscape="http://www.inkscape.org/namespaces/inkscape"
   width="842"
   height="544"
   viewBox="0 0 842 544"
   version="1.1"
   id="svg1087"
   inkscape:version="0.92.1 r"
   sodipodi:docname="opera.svg">
  <defs
     id="defs1081">
    <filter
       inkscape:collect="always"
       style="color-interpolation-filters:sRGB"
       id="filter4570"
       x="-0.024"
       width="1.048"
       y="-0.024"
       height="1.048">
      <feGaussianBlur
         inkscape:collect="always"
         stdDeviation="4.8"
         id="feGaussianBlur4572" />
    </filter>
  </defs>
  <sodipodi:namedview
     id="base"
     pagecolor="#c3c3c3"
     bordercolor="#333333"
     borderopacity="1"
     inkscape:pageopacity="0"
     inkscape:pageshadow="2"
     inkscape:zoom="0.49497475"
     inkscape:cx="-478.82312"
     inkscape:cy="346.26489"
     inkscape:document-units="px"
     inkscape:current-layer="layer1"
     showgrid="false"
     units="px"
     inkscape:showpageshadow="false"
     inkscape:window-width="2560"
     inkscape:window-height="1369"
     inkscape:window-x="0"
     inkscape:window-y="35"
     inkscape:window-maximized="1">
    <inkscape:grid
       type="xygrid"
       id="grid4630" />
  </sodipodi:namedview>
  <metadata
     id="metadata1084">
    <rdf:RDF>
      <cc:Work
         rdf:about="">
        <dc:format>image/svg+xml</dc:format>
        <dc:type
           rdf:resource="http://purl.org/dc/dcmitype/StillImage" />
        <dc:title />
        <cc:license
           rdf:resource="http://creativecommons.org/licenses/by-sa/4.0/" />
        <dc:creator>
          <cc:Agent>
            <dc:title>Peter Cornelis</dc:title>
          </cc:Agent>
        </dc:creator>
      </cc:Work>
      <cc:License
         rdf:about="http://creativecommons.org/licenses/by-sa/4.0/">
        <cc:permits
           rdf:resource="http://creativecommons.org/ns#Reproduction" />
        <cc:permits
           rdf:resource="http://creativecommons.org/ns#Distribution" />
        <cc:requires
           rdf:resource="http://creativecommons.org/ns#Notice" />
        <cc:requires
           rdf:resource="http://creativecommons.org/ns#Attribution" />
        <cc:permits
           rdf:resource="http://creativecommons.org/ns#DerivativeWorks" />
        <cc:requires
           rdf:resource="http://creativecommons.org/ns#ShareAlike" />
      </cc:License>
    </rdf:RDF>
  </metadata>
  <g
     inkscape:label="Baseplate"
     inkscape:groupmode="layer"
     id="layer1"
     transform="translate(0,-153.06668)"
     style="display:none">
    <rect
       style="display:inline;overflow:visible;visibility:visible;fill:#fefefe;fill-opacity:1;fill-rule:nonzero;stroke:none;stroke-width:2;marker:none;enable-background:accumulate"
       id="rect3951"
       width="512"
       height="512"
       x="-826"
       y="169.06668"
       inkscape:label="48x48"
       transform="scale(-1,1)" />
    <text
       y="733.32251"
       xml:space="preserve"
       x="15.006836"
       style="font-style:normal;font-variant:normal;font-weight:normal;font-stretch:normal;line-height:0%;font-family:'DejaVu Sans';-inkscape-font-specification:'DejaVu Sans';display:inline;fill:#000000;fill-opacity:1;stroke:none;enable-background:new"
       inkscape:label="context"
       id="context"><tspan
         style="font-style:normal;font-variant:normal;font-weight:normal;font-stretch:normal;font-size:18px;line-height:1.25;font-family:'DejaVu Sans';-inkscape-font-specification:'DejaVu Sans'"
         y="733.32251"
         x="15.006836"
         sodipodi:role="line"
         id="tspan3933">apps</tspan></text>
    <text
       y="733.32251"
       xml:space="preserve"
       x="142.48828"
       style="font-style:normal;font-variant:normal;font-weight:bold;font-stretch:normal;line-height:0%;font-family:'DejaVu Sans';-inkscape-font-specification:'DejaVu Sans Bold';text-align:start;writing-mode:lr-tb;text-anchor:start;display:inline;fill:#000000;fill-opacity:1;stroke:none;enable-background:new"
       inkscape:label="icon-name"
       id="icon-name"><tspan
         style="font-style:normal;font-variant:normal;font-weight:bold;font-stretch:normal;font-size:18px;line-height:1.25;font-family:'DejaVu Sans';-inkscape-font-specification:'DejaVu Sans Bold'"
         y="733.32251"
         x="142.48828"
         sodipodi:role="line"
         id="tspan3937">opera</tspan></text>
    <rect
       style="display:inline;overflow:visible;visibility:visible;fill:#fefefe;fill-opacity:1;fill-rule:nonzero;stroke:none;stroke-width:2;marker:none;enable-background:accumulate"
       id="rect16x16"
       width="16"
       height="16"
       x="-32"
       y="665.06665"
       inkscape:label="16x16"
       transform="scale(-1,1)" />
    <rect
       style="display:inline;overflow:visible;visibility:visible;fill:#fefefe;fill-opacity:1;fill-rule:nonzero;stroke:none;stroke-width:2;marker:none;enable-background:accumulate"
       id="rect24x24"
       width="24"
       height="24"
       x="-102"
       y="657.06665"
       inkscape:label="24x24"
       transform="scale(-1,1)" />
    <rect
       style="display:inline;overflow:visible;visibility:visible;fill:#fefefe;fill-opacity:1;fill-rule:nonzero;stroke:none;stroke-width:2;marker:none;enable-background:accumulate"
       id="rect32x32"
       width="32"
       height="32"
       x="-154"
       y="649.06665"
       inkscape:label="32x32"
       transform="scale(-1,1)" />
    <rect
       inkscape:label="48x48"
       y="633.06665"
       x="-218"
       height="48"
       width="48"
       id="rect48x48"
       style="display:inline;overflow:visible;visibility:visible;fill:#fefefe;fill-opacity:1;fill-rule:nonzero;stroke:none;stroke-width:2;marker:none;enable-background:accumulate"
       transform="scale(-1,1)" />
    <rect
       transform="scale(-1,1)"
       inkscape:label="48x48"
       y="617.06665"
       x="-298"
       height="64"
       width="64"
       id="rect4493"
       style="display:inline;overflow:visible;visibility:visible;fill:#fefefe;fill-opacity:1;fill-rule:nonzero;stroke:none;stroke-width:0.25;marker:none;enable-background:accumulate" />
    <rect
       transform="scale(-1,1)"
       inkscape:label="24x24"
       y="659.06665"
       x="-66"
       height="22"
       width="22"
       id="rect4495"
       style="display:inline;overflow:visible;visibility:visible;fill:#fefefe;fill-opacity:1;fill-rule:nonzero;stroke:none;stroke-width:1.83333325;marker:none;enable-background:accumulate" />
    <path
       style="display:inline;fill:#ffffff;fill-opacity:0.2;stroke:none;enable-background:new"
       d="m 55,506 c -6.094,0 -11,4.906 -11,11 0,0.16899 0.01792,0.33292 0.02539,0.5 C 44.287156,511.64183 49.074989,507 55,507 c 5.925011,0 10.712844,4.64183 10.974609,10.5 C 65.982075,517.33292 66,517.16899 66,517 66,510.906 61.094,506 55,506 Z"
       transform="translate(0,153.06668)"
       id="rect4613"
       inkscape:connector-curvature="0" />
    <path
       id="path4618"
       d="m 90,658.06668 c -6.094,0 -11,4.906 -11,11 0,0.16899 0.01792,0.33292 0.02539,0.5 0.261765,-5.85817 5.049598,-10.5 10.974609,-10.5 5.925011,0 10.712841,4.64183 10.974611,10.5 0.008,-0.16708 0.0254,-0.33101 0.0254,-0.5 0,-6.094 -4.906002,-11 -11.000002,-11 z"
       style="display:inline;fill:#ffffff;fill-opacity:0.2;stroke:none;enable-background:new"
       inkscape:connector-curvature="0" />
    <rect
       style="display:inline;overflow:visible;visibility:visible;fill:#fefefe;fill-opacity:1;fill-rule:nonzero;stroke:none;stroke-width:2;marker:none;enable-background:accumulate"
       id="rect4543"
       width="512"
       height="512"
       x="-826"
       y="169.06665"
       inkscape:label="48x48"
       transform="scale(-1,1)" />
  </g>
  <g
     inkscape:groupmode="layer"
     id="layer2"
     inkscape:label="Bitmap"
     style="display:inline">
    <path
       inkscape:connector-curvature="0"
       style="display:inline;opacity:1;fill:#bf1d37;fill-opacity:1;stroke:none;stroke-width:2;stroke-miterlimit:4;stroke-dasharray:none;stroke-opacity:1;enable-background:new"
       d="m 24,512 a 8,8 0 0 0 -8,8 8,8 0 0 0 8,8 8,8 0 0 0 8,-8 8,8 0 0 0 -8,-8 z m 0,2.54545 A 4,5.4545455 0 0 1 28,520 4,5.4545455 0 0 1 24,525.45455 4,5.4545455 0 0 1 20,520 a 4,5.4545455 0 0 1 4,-5.45455 z"
       id="path4548" />
    <path
       id="path4540"
       d="m 138,498 a 15,15 0 0 0 -15,15 15,15 0 0 0 15,15 15,15 0 0 0 15,-15 15,15 0 0 0 -15,-15 z m 0,4.77273 A 7.5,10.227273 0 0 1 145.5,513 7.5,10.227273 0 0 1 138,523.22727 7.5,10.227273 0 0 1 130.5,513 7.5,10.227273 0 0 1 138,502.77273 Z"
       style="display:inline;opacity:1;fill:#000000;fill-opacity:0.2;stroke:none;stroke-width:2;stroke-miterlimit:4;stroke-dasharray:none;stroke-opacity:1;enable-background:new"
       inkscape:connector-curvature="0" />
    <path
       inkscape:connector-curvature="0"
       style="display:inline;opacity:1;fill:#bf1d37;fill-opacity:1;stroke:none;stroke-width:2;stroke-miterlimit:4;stroke-dasharray:none;stroke-opacity:1;enable-background:new"
       d="m 138,497 a 15,15 0 0 0 -15,15 15,15 0 0 0 15,15 15,15 0 0 0 15,-15 15,15 0 0 0 -15,-15 z m 0,4.77273 A 7.5,10.227273 0 0 1 145.5,512 7.5,10.227273 0 0 1 138,522.22727 7.5,10.227273 0 0 1 130.5,512 7.5,10.227273 0 0 1 138,501.77273 Z"
       id="path4539" />
    <path
       inkscape:connector-curvature="0"
       style="display:inline;opacity:1;fill:#000000;fill-opacity:0.2;stroke:none;stroke-width:2;stroke-miterlimit:4;stroke-dasharray:none;stroke-opacity:1;enable-background:new"
       d="m 55,507 a 11,11 0 0 0 -11,11 11,11 0 0 0 11,11 11,11 0 0 0 11,-11 11,11 0 0 0 -11,-11 z m 0,3.5 a 5.5,7.5 0 0 1 5.5,7.5 5.5,7.5 0 0 1 -5.5,7.5 5.5,7.5 0 0 1 -5.5,-7.5 5.5,7.5 0 0 1 5.5,-7.5 z"
       id="path4533" />
    <path
       id="path4530"
       d="m 55,506 a 11,11 0 0 0 -11,11 11,11 0 0 0 11,11 11,11 0 0 0 11,-11 11,11 0 0 0 -11,-11 z m 0,3.5 a 5.5,7.5 0 0 1 5.5,7.5 5.5,7.5 0 0 1 -5.5,7.5 5.5,7.5 0 0 1 -5.5,-7.5 5.5,7.5 0 0 1 5.5,-7.5 z"
       style="display:inline;opacity:1;fill:#bf1d37;fill-opacity:1;stroke:none;stroke-width:2;stroke-miterlimit:4;stroke-dasharray:none;stroke-opacity:1;enable-background:new"
       inkscape:connector-curvature="0" />
    <path
       id="path4531"
       d="m 90,506 a 11,11 0 0 0 -11,11 11,11 0 0 0 11,11 11,11 0 0 0 11,-11 11,11 0 0 0 -11,-11 z m 0,3.5 a 5.5,7.5 0 0 1 5.5,7.5 5.5,7.5 0 0 1 -5.5,7.5 5.5,7.5 0 0 1 -5.5,-7.5 5.5,7.5 0 0 1 5.5,-7.5 z"
       style="display:inline;opacity:1;fill:#000000;fill-opacity:0.2;stroke:none;stroke-width:2;stroke-miterlimit:4;stroke-dasharray:none;stroke-opacity:1;enable-background:new"
       inkscape:connector-curvature="0" />
    <path
       inkscape:connector-curvature="0"
       style="display:inline;opacity:1;fill:#bf1d37;fill-opacity:1;stroke:none;stroke-width:2;stroke-miterlimit:4;stroke-dasharray:none;stroke-opacity:1;enable-background:new"
       d="m 90,505 a 11,11 0 0 0 -11,11 11,11 0 0 0 11,11 11,11 0 0 0 11,-11 11,11 0 0 0 -11,-11 z m 0,3.5 a 5.5,7.5 0 0 1 5.5,7.5 5.5,7.5 0 0 1 -5.5,7.5 5.5,7.5 0 0 1 -5.5,-7.5 5.5,7.5 0 0 1 5.5,-7.5 z"
       id="path4507" />
    <path
       style="display:inline;opacity:1;fill:#000000;fill-opacity:0.15000001;stroke:none;stroke-width:2;stroke-miterlimit:4;stroke-dasharray:none;stroke-opacity:1;enable-background:new"
       d="M 57.763672 506.35938 A 11 11 0 0 0 49.623047 515.43945 A 5.5 7.5 0 0 1 55 509.5 A 5.5 7.5 0 0 1 60.5 517 A 5.5 7.5 0 0 1 55 524.5 A 5.5 7.5 0 0 1 49.595703 518.36914 A 11 11 0 0 0 57.736328 527.64062 A 11 11 0 0 0 66 517 A 11 11 0 0 0 57.763672 506.35938 z M 49.5625 515.93164 A 11 11 0 0 0 49.5 517 A 5.5 7.5 0 0 1 49.5625 515.93164 z M 49.542969 517.85547 A 11 11 0 0 0 49.578125 518.25195 A 5.5 7.5 0 0 1 49.542969 517.85547 z "
       id="path4509" />
    <path
       id="path4517"
       d="M 92.763672,505.35976 A 11,11 0 0 0 84.623047,514.43983 5.5,7.5 0 0 1 90,508.50038 a 5.5,7.5 0 0 1 5.5,7.5 5.5,7.5 0 0 1 -5.5,7.5 5.5,7.5 0 0 1 -5.404297,-6.13086 11,11 0 0 0 8.140625,9.27148 A 11,11 0 0 0 101,516.00038 11,11 0 0 0 92.763672,505.35976 Z m -8.201172,9.57226 a 11,11 0 0 0 -0.0625,1.06836 5.5,7.5 0 0 1 0.0625,-1.06836 z m -0.01953,1.92383 a 11,11 0 0 0 0.03516,0.39648 5.5,7.5 0 0 1 -0.03516,-0.39648 z"
       style="display:inline;opacity:1;fill:#000000;fill-opacity:0.15;stroke:none;stroke-width:2;stroke-miterlimit:4;stroke-dasharray:none;stroke-opacity:1;enable-background:new"
       inkscape:connector-curvature="0" />
    <path
       id="path4521"
       d="m 26.009943,512.26136 a 8,8 0 0 0 -5.920454,6.60369 4,5.4545455 0 0 1 3.910511,-4.3196 4,5.4545455 0 0 1 4,5.45454 4,5.4545455 0 0 1 -4,5.45455 4,5.4545455 0 0 1 -3.930398,-4.45881 8,8 0 0 0 5.920455,6.74289 A 8,8 0 0 0 32,519.99999 8,8 0 0 0 26.009943,512.26136 Z M 20.045455,519.223 A 8,8 0 0 0 20,519.99999 4,5.4545455 0 0 1 20.04546,519.223 Z m -0.0142,1.39915 a 8,8 0 0 0 0.02557,0.28835 4,5.4545455 0 0 1 -0.02557,-0.28835 z"
       style="display:inline;opacity:1;fill:#000000;fill-opacity:0.15000001;stroke:none;stroke-width:1.4545455;stroke-miterlimit:4;stroke-dasharray:none;stroke-opacity:1;enable-background:new"
       inkscape:connector-curvature="0" />
    <path
       style="display:inline;opacity:1;fill:#ffffff;fill-opacity:0.2;stroke:none;stroke-width:2;stroke-miterlimit:4;stroke-dasharray:none;stroke-opacity:1;enable-background:new"
       d="M 55 506 A 11 11 0 0 0 44 517 A 11 11 0 0 0 44.021484 517.41406 A 11 11 0 0 1 55 507 A 11 11 0 0 1 65.978516 517.58594 A 11 11 0 0 0 66 517 A 11 11 0 0 0 55 506 z M 60.484375 517.44141 A 5.5 7.5 0 0 1 55 524.5 A 5.5 7.5 0 0 1 49.515625 517.55859 A 5.5 7.5 0 0 0 49.5 518 A 5.5 7.5 0 0 0 55 525.5 A 5.5 7.5 0 0 0 60.5 518 A 5.5 7.5 0 0 0 60.484375 517.44141 z "
       id="path4523" />
    <path
       id="path4528"
       d="m 90,505 a 11,11 0 0 0 -11,11 11,11 0 0 0 0.02148,0.41406 A 11,11 0 0 1 90,506 11,11 0 0 1 100.97852,516.58594 11,11 0 0 0 101,516 11,11 0 0 0 90,505 Z m 5.484375,11.44141 A 5.5,7.5 0 0 1 90,523.5 5.5,7.5 0 0 1 84.515625,516.55859 5.5,7.5 0 0 0 84.5,517 a 5.5,7.5 0 0 0 5.5,7.5 5.5,7.5 0 0 0 5.5,-7.5 5.5,7.5 0 0 0 -0.01563,-0.55859 z"
       style="display:inline;opacity:1;fill:#ffffff;fill-opacity:0.2;stroke:none;stroke-width:2;stroke-miterlimit:4;stroke-dasharray:none;stroke-opacity:1;enable-background:new"
       inkscape:connector-curvature="0" />
    <path
       id="path4537"
       d="m 141.76864,497.49012 a 15,15 0 0 0 -11.10084,12.38191 7.5,10.227273 0 0 1 7.3322,-8.09925 7.5,10.227273 0 0 1 7.5,10.22727 7.5,10.227273 0 0 1 -7.5,10.22727 7.5,10.227273 0 0 1 -7.3695,-8.36026 15,15 0 0 0 11.10086,12.64293 A 15,15 0 0 0 153,512.00005 15,15 0 0 0 141.76864,497.49012 Z m -11.18341,13.05308 a 15,15 0 0 0 -0.0852,1.45685 7.5,10.227273 0 0 1 0.0852,-1.45685 z m -0.0266,2.6234 a 15,15 0 0 0 0.048,0.54066 7.5,10.227273 0 0 1 -0.048,-0.54066 z"
       style="display:inline;opacity:1;fill:#000000;fill-opacity:0.15;stroke:none;stroke-width:2.72727275;stroke-miterlimit:4;stroke-dasharray:none;stroke-opacity:1;enable-background:new"
       inkscape:connector-curvature="0" />
    <path
       style="display:inline;opacity:1;fill:#ffffff;fill-opacity:0.2;stroke:none;stroke-width:2;stroke-miterlimit:4;stroke-dasharray:none;stroke-opacity:1;enable-background:new"
       d="M 138 497 A 15 15 0 0 0 123 512 A 15 15 0 0 0 123.01953 512.41406 A 15 15 0 0 1 138 498 A 15 15 0 0 1 152.98047 512.58594 A 15 15 0 0 0 153 512 A 15 15 0 0 0 138 497 z M 145.48438 512.42578 A 7.5 10.227273 0 0 1 138 522.22656 A 7.5 10.227273 0 0 1 130.51562 512.57422 A 7.5 10.227273 0 0 0 130.5 513 A 7.5 10.227273 0 0 0 138 523.22656 A 7.5 10.227273 0 0 0 145.5 513 A 7.5 10.227273 0 0 0 145.48438 512.42578 z "
       id="path4542" />
    <path
       inkscape:connector-curvature="0"
       style="display:inline;opacity:1;fill:#000000;fill-opacity:0.2;stroke:none;stroke-width:4;stroke-miterlimit:4;stroke-dasharray:none;stroke-opacity:1;enable-background:new"
       d="m 194,483 a 22,22 0 0 0 -22,22 22,22 0 0 0 22,22 22,22 0 0 0 22,-22 22,22 0 0 0 -22,-22 z m 0,7 a 11,15 0 0 1 11,15 11,15 0 0 1 -11,15 11,15 0 0 1 -11,-15 11,15 0 0 1 11,-15 z"
       id="path4518" />
    <path
       id="path4513"
       d="m 194,482.00003 a 22,22 0 0 0 -22,22 22,22 0 0 0 22,22 22,22 0 0 0 22,-22 22,22 0 0 0 -22,-22 z m 0,7 a 11,15 0 0 1 11,15 11,15 0 0 1 -11,15 11,15 0 0 1 -11,-15 11,15 0 0 1 11,-15 z"
       style="display:inline;opacity:1;fill:#bf1d37;fill-opacity:1;stroke:none;stroke-width:4;stroke-miterlimit:4;stroke-dasharray:none;stroke-opacity:1;enable-background:new"
       inkscape:connector-curvature="0" />
    <path
       inkscape:connector-curvature="0"
       style="display:inline;opacity:1;fill:#000000;fill-opacity:0.15;stroke:none;stroke-width:4;stroke-miterlimit:4;stroke-dasharray:none;stroke-opacity:1;enable-background:new"
       d="M 199.52734,482.71955 A 22,22 0 0 0 183.2461,500.87969 11,15 0 0 1 194,489.00079 a 11,15 0 0 1 11,15 11,15 0 0 1 -11,15 11,15 0 0 1 -10.8086,-12.26172 22,22 0 0 0 16.28126,18.54296 A 22,22 0 0 0 216,504.00079 22,22 0 0 0 199.52734,482.71955 Z M 183.125,501.86407 a 22,22 0 0 0 -0.125,2.13672 11,15 0 0 1 0.125,-2.13672 z m -0.039,3.84766 a 22,22 0 0 0 0.0704,0.79296 11,15 0 0 1 -0.0704,-0.79296 z"
       id="path4515" />
    <path
       style="display:inline;opacity:1;fill:#ffffff;fill-opacity:0.2;stroke:none;stroke-width:4;stroke-miterlimit:4;stroke-dasharray:none;stroke-opacity:1;enable-background:new"
       d="M 194 482 A 22 22 0 0 0 172 504 A 22 22 0 0 0 172.02148 504.41406 A 22 22 0 0 1 194 483 A 22 22 0 0 1 215.97852 504.58594 A 22 22 0 0 0 216 504 A 22 22 0 0 0 194 482 z M 204.98438 504.41406 A 11 15 0 0 1 194 519 A 11 15 0 0 1 183.01562 504.58594 A 11 15 0 0 0 183 505 A 11 15 0 0 0 194 520 A 11 15 0 0 0 205 505 A 11 15 0 0 0 204.98438 504.41406 z "
       id="path4520" />
    <path
       inkscape:connector-curvature="0"
       style="display:inline;opacity:1;fill:#000000;fill-opacity:0.2;stroke:none;stroke-width:4;stroke-miterlimit:4;stroke-dasharray:none;stroke-opacity:1;enable-background:new"
       d="m 266,467 a 30,30 0 0 0 -30,30 30,30 0 0 0 30,30 30,30 0 0 0 30,-30 30,30 0 0 0 -30,-30 z m 0,9.54546 A 15,20.454546 0 0 1 281,497 15,20.454546 0 0 1 266,517.45454 15,20.454546 0 0 1 251,497 15,20.454546 0 0 1 266,476.54546 Z"
       id="path4532" />
    <path
       id="path4527"
       d="m 266,466.00003 a 30,30 0 0 0 -30,30 30,30 0 0 0 30,30 30,30 0 0 0 30,-30 30,30 0 0 0 -30,-30 z m 0,9.54546 a 15,20.454546 0 0 1 15,20.45454 15,20.454546 0 0 1 -15,20.45454 15,20.454546 0 0 1 -15,-20.45454 15,20.454546 0 0 1 15,-20.45454 z"
       style="display:inline;opacity:1;fill:#bf1d37;fill-opacity:1;stroke:none;stroke-width:4;stroke-miterlimit:4;stroke-dasharray:none;stroke-opacity:1;enable-background:new"
       inkscape:connector-curvature="0" />
    <path
       inkscape:connector-curvature="0"
       style="display:inline;opacity:1;fill:#000000;fill-opacity:0.15;stroke:none;stroke-width:5.4545455;stroke-miterlimit:4;stroke-dasharray:none;stroke-opacity:1;enable-background:new"
       d="M 273.53728,466.98027 A 30,30 0 0 0 251.3356,491.74409 15,20.454546 0 0 1 266,475.54559 a 15,20.454546 0 0 1 15,20.45454 15,20.454546 0 0 1 -15,20.45454 15,20.454546 0 0 1 -14.739,-16.72052 30,30 0 0 0 22.20172,25.28586 A 30,30 0 0 0 296,496.00013 30,30 0 0 0 273.53728,466.98027 Z m -22.36682,26.10616 a 30,30 0 0 0 -0.1704,2.9137 15,20.454546 0 0 1 0.1704,-2.9137 z m -0.0532,5.2468 a 30,30 0 0 0 0.096,1.08132 15,20.454546 0 0 1 -0.096,-1.08132 z"
       id="path4529" />
    <path
       style="display:inline;opacity:1;fill:#ffffff;fill-opacity:0.2;stroke:none;stroke-width:4;stroke-miterlimit:4;stroke-dasharray:none;stroke-opacity:1;enable-background:new"
       d="M 266 466 A 30 30 0 0 0 236 496 A 30 30 0 0 0 236.02148 496.41016 A 30 30 0 0 1 266 467 A 30 30 0 0 1 295.97852 496.58984 A 30 30 0 0 0 296 496 A 30 30 0 0 0 266 466 z M 280.98438 496.41406 A 15 20.454546 0 0 1 266 516.45508 A 15 20.454546 0 0 1 251.01562 496.58594 A 15 20.454546 0 0 0 251 497 A 15 20.454546 0 0 0 266 517.45508 A 15 20.454546 0 0 0 281 497 A 15 20.454546 0 0 0 280.98438 496.41406 z "
       id="path4534" />
    <path
       inkscape:connector-curvature="0"
       style="display:inline;opacity:1;fill:#000000;fill-opacity:0.2;stroke:none;stroke-width:32;stroke-miterlimit:4;stroke-dasharray:none;stroke-opacity:1;enable-background:new;filter:url(#filter4570)"
       d="m 570,34.000447 a 240,240 0 0 0 -240,240.000003 240,240 0 0 0 240,240 240,240 0 0 0 240,-240 A 240,240 0 0 0 570,34.000447 Z m 0,76.363683 A 120,163.63637 0 0 1 690,274.00045 120,163.63637 0 0 1 570,437.63677 120,163.63637 0 0 1 450,274.00045 120,163.63637 0 0 1 570,110.36413 Z"
       id="path4556" />
    <path
       id="path4549"
       d="m 570,34.000447 a 240,240 0 0 0 -240,240.000003 240,240 0 0 0 240,240 240,240 0 0 0 240,-240 A 240,240 0 0 0 570,34.000447 Z m 0,76.363683 A 120,163.63637 0 0 1 690,274.00045 120,163.63637 0 0 1 570,437.63677 120,163.63637 0 0 1 450,274.00045 120,163.63637 0 0 1 570,110.36413 Z"
       style="display:inline;opacity:1;fill:#000000;fill-opacity:0.2;stroke:none;stroke-width:32;stroke-miterlimit:4;stroke-dasharray:none;stroke-opacity:1;enable-background:new"
       inkscape:connector-curvature="0" />
    <path
       inkscape:connector-curvature="0"
       style="display:inline;opacity:1;fill:#bf1d37;fill-opacity:1;stroke:none;stroke-width:32;stroke-miterlimit:4;stroke-dasharray:none;stroke-opacity:1;enable-background:new"
       d="m 570,32.000447 a 240,240 0 0 0 -240,240.000003 240,240 0 0 0 240,240 240,240 0 0 0 240,-240 A 240,240 0 0 0 570,32.000447 Z m 0,76.363683 A 120,163.63637 0 0 1 690,272.00045 120,163.63637 0 0 1 570,435.63677 120,163.63637 0 0 1 450,272.00045 120,163.63637 0 0 1 570,108.36413 Z"
       id="path4545" />
    <path
       id="path4547"
       d="M 630.29824,39.842367 A 240,240 0 0 0 452.6848,237.95293 120,163.63637 0 0 1 570,108.36493 120,163.63637 0 0 1 690,272.00125 120,163.63637 0 0 1 570,435.63757 120,163.63637 0 0 1 452.088,301.87341 240,240 0 0 0 629.70176,504.16029 240,240 0 0 0 810,272.00125 240,240 0 0 0 630.29824,39.842367 Z M 451.36368,248.69165 a 240,240 0 0 0 -1.3632,23.3096 120,163.63637 0 0 1 1.3632,-23.3096 z m -0.4256,41.9744 a 240,240 0 0 0 0.768,8.65056 120,163.63637 0 0 1 -0.768,-8.65056 z"
       style="display:inline;opacity:1;fill:#000000;fill-opacity:0.15;stroke:none;stroke-width:43.63636398;stroke-miterlimit:4;stroke-dasharray:none;stroke-opacity:1;enable-background:new"
       inkscape:connector-curvature="0" />
    <path
       style="display:inline;opacity:1;fill:#ffffff;fill-opacity:0.2;stroke:none;stroke-width:32;stroke-miterlimit:4;stroke-dasharray:none;stroke-opacity:1;enable-background:new"
       d="M 570 32 A 240 240 0 0 0 330 272 A 240 240 0 0 0 330.04102 272.82812 A 240 240 0 0 1 570 34 A 240 240 0 0 1 809.95898 273.17188 A 240 240 0 0 0 810 272 A 240 240 0 0 0 570 32 z M 689.96875 272.82812 A 120 163.63637 0 0 1 570 435.63672 A 120 163.63637 0 0 1 450.03125 273.17188 A 120 163.63637 0 0 0 450 274 A 120 163.63637 0 0 0 570 437.63672 A 120 163.63637 0 0 0 690 274 A 120 163.63637 0 0 0 689.96875 272.82812 z "
       id="path4551" />
  </g>
</svg>
