<?xml version="1.0" encoding="UTF-8" standalone="no"?>
<!-- Created with Inkscape (http://www.inkscape.org/) -->

<svg
   xmlns:dc="http://purl.org/dc/elements/1.1/"
   xmlns:cc="http://creativecommons.org/ns#"
   xmlns:rdf="http://www.w3.org/1999/02/22-rdf-syntax-ns#"
   xmlns:svg="http://www.w3.org/2000/svg"
   xmlns="http://www.w3.org/2000/svg"
   xmlns:xlink="http://www.w3.org/1999/xlink"
   xmlns:sodipodi="http://sodipodi.sourceforge.net/DTD/sodipodi-0.dtd"
   xmlns:inkscape="http://www.inkscape.org/namespaces/inkscape"
   width="842"
   height="544"
   viewBox="0 0 842 544"
   version="1.1"
   id="svg1087"
   inkscape:version="0.92.1 r"
   sodipodi:docname="org.gnome.Weather.Application.svg">
  <defs
     id="defs1081">
    <linearGradient
       inkscape:collect="always"
       xlink:href="#linearGradient4165-3"
       id="linearGradient4537"
       gradientUnits="userSpaceOnUse"
       gradientTransform="matrix(1.3043412,0,0,1.3043465,234.69565,-845.34)"
       x1="7"
       y1="1011.3622"
       x2="41.000019"
       y2="1045.3622" />
    <linearGradient
       inkscape:collect="always"
       id="linearGradient4165-3">
      <stop
         style="stop-color:#ffffff;stop-opacity:0.05490196"
         offset="0"
         id="stop4167-6" />
      <stop
         style="stop-color:#177ed5;stop-opacity:0;"
         offset="1"
         id="stop4169-7" />
    </linearGradient>
    <filter
       inkscape:collect="always"
       style="color-interpolation-filters:sRGB"
       id="filter4542"
       x="-0.012"
       width="1.024"
       y="-0.012"
       height="1.024">
      <feGaussianBlur
         inkscape:collect="always"
         stdDeviation="0.2969922"
         id="feGaussianBlur4544" />
    </filter>
    <filter
       inkscape:collect="always"
       style="color-interpolation-filters:sRGB"
       id="filter4640"
       x="-0.0099999998"
       width="1.02"
       y="-0.015"
       height="1.03">
      <feGaussianBlur
         inkscape:collect="always"
         stdDeviation="0.1625"
         id="feGaussianBlur4642" />
    </filter>
    <linearGradient
       inkscape:collect="always"
       xlink:href="#linearGradient4165-3"
       id="linearGradient4684"
       gradientUnits="userSpaceOnUse"
       gradientTransform="matrix(10.43473,0,0,10.434772,319.5652,-10458.72)"
       x1="7"
       y1="1011.3622"
       x2="41.000019"
       y2="1045.3622" />
    <linearGradient
       inkscape:collect="always"
       xlink:href="#linearGradient4165-3"
       id="linearGradient4708"
       gradientUnits="userSpaceOnUse"
       gradientTransform="matrix(0.9782559,0,0,0.97825987,170.52174,-502.00498)"
       x1="7"
       y1="1011.3622"
       x2="41.000019"
       y2="1045.3622" />
    <linearGradient
       inkscape:collect="always"
       xlink:href="#linearGradient4165-3"
       id="linearGradient4732"
       gradientUnits="userSpaceOnUse"
       gradientTransform="matrix(0.6521706,0,0,0.65217325,122.34783,-158.66998)"
       x1="7"
       y1="1011.3622"
       x2="41.000019"
       y2="1045.3622" />
    <linearGradient
       inkscape:collect="always"
       xlink:href="#linearGradient4165-3"
       id="linearGradient4756"
       gradientUnits="userSpaceOnUse"
       gradientTransform="matrix(0.48912795,0,0,0.48912994,78.26087,12.997527)"
       x1="7"
       y1="1011.3622"
       x2="41.000019"
       y2="1045.3622" />
    <filter
       inkscape:collect="always"
       style="color-interpolation-filters:sRGB"
       id="filter4820"
       x="-0.024"
       width="1.048"
       y="-0.024"
       height="1.048">
      <feGaussianBlur
         inkscape:collect="always"
         stdDeviation="4.7518752"
         id="feGaussianBlur4822" />
    </filter>
    <filter
       inkscape:collect="always"
       style="color-interpolation-filters:sRGB"
       id="filter4858"
       x="-0.02"
       width="1.04"
       y="-0.029999999"
       height="1.0599999">
      <feGaussianBlur
         inkscape:collect="always"
         stdDeviation="2.6"
         id="feGaussianBlur4860" />
    </filter>
    <filter
       inkscape:collect="always"
       style="color-interpolation-filters:sRGB"
       id="filter4879"
       x="-0.024"
       width="1.048"
       y="-0.024"
       height="1.048">
      <feGaussianBlur
         inkscape:collect="always"
         stdDeviation="2.88"
         id="feGaussianBlur4881" />
    </filter>
    <filter
       inkscape:collect="always"
       style="color-interpolation-filters:sRGB"
       id="filter4885"
       x="-0.0099999998"
       width="1.02"
       y="-0.015"
       height="1.03">
      <feGaussianBlur
         inkscape:collect="always"
         stdDeviation="0.121875"
         id="feGaussianBlur4887" />
    </filter>
    <filter
       inkscape:collect="always"
       style="color-interpolation-filters:sRGB"
       id="filter4913"
       x="-0.012"
       width="1.024"
       y="-0.012"
       height="1.024">
      <feGaussianBlur
         inkscape:collect="always"
         stdDeviation="0.14"
         id="feGaussianBlur4915" />
    </filter>
    <filter
       inkscape:collect="always"
       style="color-interpolation-filters:sRGB"
       id="filter4923"
       x="-0.012"
       width="1.024"
       y="-0.012"
       height="1.024">
      <feGaussianBlur
         inkscape:collect="always"
         stdDeviation="0.2262695"
         id="feGaussianBlur4925" />
    </filter>
    <filter
       inkscape:collect="always"
       style="color-interpolation-filters:sRGB"
       id="filter4949"
       x="-0.012"
       width="1.024"
       y="-0.012"
       height="1.024">
      <feGaussianBlur
         inkscape:collect="always"
         stdDeviation="0.1414258"
         id="feGaussianBlur4951" />
    </filter>
    <filter
       inkscape:collect="always"
       style="color-interpolation-filters:sRGB"
       id="filter4955"
       x="-0.012"
       width="1.024"
       y="-0.012"
       height="1.024">
      <feGaussianBlur
         inkscape:collect="always"
         stdDeviation="0.08"
         id="feGaussianBlur4957" />
    </filter>
    <filter
       inkscape:collect="always"
       style="color-interpolation-filters:sRGB"
       id="filter4608"
       x="-0.02"
       width="1.04"
       y="-0.029999999"
       height="1.0599999">
      <feGaussianBlur
         inkscape:collect="always"
         stdDeviation="0.325"
         id="feGaussianBlur4610" />
    </filter>
    <filter
       inkscape:collect="always"
       style="color-interpolation-filters:sRGB"
       id="filter4618"
       x="-0.02"
       width="1.04"
       y="-0.029999999"
       height="1.0599999">
      <feGaussianBlur
         inkscape:collect="always"
         stdDeviation="0.24375"
         id="feGaussianBlur4620" />
    </filter>
    <filter
       inkscape:collect="always"
       style="color-interpolation-filters:sRGB"
       id="filter4628"
       x="-0.02"
       width="1.04"
       y="-0.029999999"
       height="1.0599999">
      <feGaussianBlur
         inkscape:collect="always"
         stdDeviation="0.1625"
         id="feGaussianBlur4630" />
    </filter>
    <filter
       inkscape:collect="always"
       style="color-interpolation-filters:sRGB"
       id="filter4639"
       x="-0.02"
       width="1.04"
       y="-0.029999999"
       height="1.0599999">
      <feGaussianBlur
         inkscape:collect="always"
         stdDeviation="0.121875"
         id="feGaussianBlur4641" />
    </filter>
    <linearGradient
       inkscape:collect="always"
       xlink:href="#linearGradient4165-3"
       id="linearGradient4615"
       gradientUnits="userSpaceOnUse"
       gradientTransform="matrix(0.48912795,0,0,0.48912994,43.261323,13.997527)"
       x1="7"
       y1="1011.3622"
       x2="41.000019"
       y2="1045.3622" />
  </defs>
  <sodipodi:namedview
     id="base"
     pagecolor="#c3c3c3"
     bordercolor="#333333"
     borderopacity="1"
     inkscape:pageopacity="0"
     inkscape:pageshadow="2"
     inkscape:zoom="0.99999999"
     inkscape:cx="463.25584"
     inkscape:cy="182.44787"
     inkscape:document-units="px"
     inkscape:current-layer="layer1"
     showgrid="true"
     units="px"
     inkscape:showpageshadow="false"
     inkscape:window-width="2560"
     inkscape:window-height="1369"
     inkscape:window-x="0"
     inkscape:window-y="35"
     inkscape:window-maximized="1">
    <inkscape:grid
       type="xygrid"
       id="grid4630" />
  </sodipodi:namedview>
  <metadata
     id="metadata1084">
    <rdf:RDF>
      <cc:Work
         rdf:about="">
        <dc:format>image/svg+xml</dc:format>
        <dc:type
           rdf:resource="http://purl.org/dc/dcmitype/StillImage" />
        <dc:title></dc:title>
        <cc:license
           rdf:resource="http://creativecommons.org/licenses/by-sa/4.0/" />
        <dc:creator>
          <cc:Agent>
            <dc:title>Peter Cornelis</dc:title>
          </cc:Agent>
        </dc:creator>
      </cc:Work>
      <cc:License
         rdf:about="http://creativecommons.org/licenses/by-sa/4.0/">
        <cc:permits
           rdf:resource="http://creativecommons.org/ns#Reproduction" />
        <cc:permits
           rdf:resource="http://creativecommons.org/ns#Distribution" />
        <cc:requires
           rdf:resource="http://creativecommons.org/ns#Notice" />
        <cc:requires
           rdf:resource="http://creativecommons.org/ns#Attribution" />
        <cc:permits
           rdf:resource="http://creativecommons.org/ns#DerivativeWorks" />
        <cc:requires
           rdf:resource="http://creativecommons.org/ns#ShareAlike" />
      </cc:License>
    </rdf:RDF>
  </metadata>
  <g
     inkscape:label="Baseplate"
     inkscape:groupmode="layer"
     id="layer1"
     transform="translate(0,-153.06668)"
     style="display:none">
    <text
       y="733.32251"
       xml:space="preserve"
       x="15.006836"
       style="font-style:normal;font-variant:normal;font-weight:normal;font-stretch:normal;line-height:0%;font-family:'DejaVu Sans';-inkscape-font-specification:'DejaVu Sans';display:inline;fill:#000000;fill-opacity:1;stroke:none;enable-background:new"
       inkscape:label="context"
       id="context"><tspan
         style="font-style:normal;font-variant:normal;font-weight:normal;font-stretch:normal;font-size:18px;line-height:1.25;font-family:'DejaVu Sans';-inkscape-font-specification:'DejaVu Sans'"
         y="733.32251"
         x="15.006836"
         sodipodi:role="line"
         id="tspan3933">apps</tspan></text>
    <text
       y="733.32251"
       xml:space="preserve"
       x="142.48828"
       style="font-style:normal;font-variant:normal;font-weight:bold;font-stretch:normal;line-height:0%;font-family:'DejaVu Sans';-inkscape-font-specification:'DejaVu Sans Bold';text-align:start;writing-mode:lr-tb;text-anchor:start;display:inline;fill:#000000;fill-opacity:1;stroke:none;enable-background:new"
       inkscape:label="icon-name"
       id="icon-name"><tspan
         style="font-style:normal;font-variant:normal;font-weight:bold;font-stretch:normal;font-size:18px;line-height:1.25;font-family:'DejaVu Sans';-inkscape-font-specification:'DejaVu Sans Bold'"
         y="733.32251"
         x="142.48828"
         sodipodi:role="line"
         id="tspan3937">org.gnome.weather.application</tspan></text>
    <rect
       style="display:inline;overflow:visible;visibility:visible;fill:#fefefe;fill-opacity:1;fill-rule:nonzero;stroke:none;stroke-width:2;marker:none;enable-background:accumulate"
       id="rect16x16"
       width="16"
       height="16"
       x="-32"
       y="665.06665"
       inkscape:label="16x16"
       transform="scale(-1,1)" />
    <rect
       transform="scale(-1,1)"
       inkscape:label="48x48"
       y="617.06665"
       x="-298"
       height="64"
       width="64"
       id="rect4531"
       style="display:inline;overflow:visible;visibility:visible;fill:#fefefe;fill-opacity:1;fill-rule:nonzero;stroke:none;stroke-width:0.25;marker:none;enable-background:accumulate" />
    <rect
       style="display:inline;overflow:visible;visibility:visible;fill:#fefefe;fill-opacity:1;fill-rule:nonzero;stroke:none;stroke-width:2;marker:none;enable-background:accumulate"
       id="rect4662"
       width="512"
       height="512"
       x="-826"
       y="169.06665"
       inkscape:label="48x48"
       transform="scale(-1,1)" />
    <rect
       style="display:inline;overflow:visible;visibility:visible;fill:#fefefe;fill-opacity:1;fill-rule:nonzero;stroke:none;stroke-width:0.1875;marker:none;enable-background:accumulate"
       id="rect4686"
       width="48"
       height="48"
       x="-218"
       y="633.06665"
       inkscape:label="48x48"
       transform="scale(-1,1)" />
    <rect
       transform="scale(-1,1)"
       inkscape:label="48x48"
       y="649.06665"
       x="-154"
       height="32"
       width="32"
       id="rect4710"
       style="display:inline;overflow:visible;visibility:visible;fill:#fefefe;fill-opacity:1;fill-rule:nonzero;stroke:none;stroke-width:0.125;marker:none;enable-background:accumulate" />
    <rect
       style="display:inline;overflow:visible;visibility:visible;fill:#fefefe;fill-opacity:1;fill-rule:nonzero;stroke:none;stroke-width:0.09375;marker:none;enable-background:accumulate"
       id="rect4734"
       width="24"
       height="24"
       x="-102"
       y="657.06665"
       inkscape:label="48x48"
       transform="scale(-1,1)" />
    <rect
       transform="scale(-1,1)"
       inkscape:label="48x48"
       y="659.06665"
       x="-66"
       height="22"
       width="22"
       id="rect4590"
       style="display:inline;overflow:visible;visibility:visible;fill:#fefefe;fill-opacity:1;fill-rule:nonzero;stroke:none;stroke-width:0.0859375;marker:none;enable-background:accumulate" />
  </g>
  <g
     inkscape:groupmode="layer"
     id="layer2"
     inkscape:label="Bitmap"
     style="display:inline">
    <path
       id="path4540-3"
       d="M 266,467.30078 257.30078,476 H 245 v 12.30078 L 236.30078,497 245,505.69922 V 518 h 12.30078 L 266,526.69922 274.69922,518 H 287 V 505.69922 L 295.69922,497 287,488.30078 V 476 h -12.30078 z"
       style="display:inline;opacity:1;fill:#000000;fill-opacity:0.2;stroke:none;stroke-opacity:1;filter:url(#filter4542)"
       inkscape:connector-curvature="0" />
    <path
       inkscape:connector-curvature="0"
       style="display:inline;opacity:1;fill:#ffbf00;fill-opacity:1;stroke:none;stroke-opacity:1"
       d="m 266,466.301 -8.69922,8.69922 H 245 V 487.301 l -8.69922,8.69922 8.69922,8.69922 v 12.30078 h 12.30078 l 8.69922,8.69922 8.69922,-8.69922 H 287 v -12.30078 l 8.69922,-8.69922 L 287,487.301 v -12.30078 h -12.30078 z"
       id="rect4532" />
    <circle
       r="18"
       cy="497"
       cx="266"
       id="circle4883"
       style="display:inline;opacity:1;fill:#000000;fill-opacity:0.2;stroke:none;stroke-width:0.85714287;stroke-opacity:1" />
    <circle
       style="display:inline;opacity:1;fill:#fae63f;fill-opacity:1;stroke:none;stroke-width:0.85714287;stroke-opacity:1"
       id="path4539"
       cx="266"
       cy="496.00021"
       r="18" />
    <path
       inkscape:connector-curvature="0"
       style="display:inline;opacity:1;fill:#ffffff;fill-opacity:0.2;stroke:none;stroke-opacity:1"
       d="m 266,466.301 -8.69922,8.69922 H 245 v 1 h 12.30078 L 266,467.301 l 8.69922,8.69922 H 287 v -1 h -12.30078 z m -21,21 -8.69922,8.69922 0.5,0.5 L 245,488.301 Z m 42,0 v 1 l 8.19922,8.19922 0.5,-0.5 z"
       id="path4548" />
    <path
       inkscape:connector-curvature="0"
       style="display:inline;opacity:1;fill:#ffffff;fill-opacity:0.2;stroke:none;stroke-width:0.85714287;stroke-opacity:1"
       d="m 266,478.00022 a 18,18 0 0 0 -18,18 18,18 0 0 0 0.0215,0.58594 18,18 0 0 1 17.9785,-17.58594 18,18 0 0 1 17.97852,17.41406 18,18 0 0 0 0.0215,-0.41406 18,18 0 0 0 -18,-18 z"
       id="circle4533" />
    <path
       inkscape:connector-curvature="0"
       d="m 287.45188,504.8069 c -1.105,-5.59 -6.03687,-9.8069 -11.95187,-9.8069 -4.69625,0 -8.76688,2.6651 -10.80625,6.5569 -4.88313,0.5281 -8.69375,4.6638 -8.69375,9.6931 0,5.3869 4.36312,9.75 9.75,9.75 h 21.125 c 4.485,0 8.125,-3.64 8.125,-8.125 0,-4.29 -3.33938,-7.7675 -7.54813,-8.0681 z"
       id="path4638"
       style="display:inline;fill:#000000;fill-opacity:0.2;filter:url(#filter4640);enable-background:new" />
    <path
       inkscape:connector-curvature="0"
       d="m 287.45188,503.8069 c -1.105,-5.59 -6.03687,-9.8069 -11.95187,-9.8069 -4.69625,0 -8.76688,2.6651 -10.80625,6.5569 -4.88313,0.5281 -8.69375,4.6638 -8.69375,9.6931 0,5.3869 4.36312,9.75 9.75,9.75 h 21.125 c 4.485,0 8.125,-3.64 8.125,-8.125 0,-4.29 -3.33938,-7.7675 -7.54813,-8.0681 z"
       id="path4578"
       style="display:inline;fill:#000000;fill-opacity:0.2;filter:url(#filter4608);enable-background:new" />
    <path
       inkscape:connector-curvature="0"
       style="display:inline;fill:url(#linearGradient4537);fill-opacity:1;stroke:none;stroke-width:2;stroke-linecap:round;stroke-linejoin:round;stroke-miterlimit:4;stroke-dasharray:none;stroke-opacity:1;enable-background:new"
       d="m 266,466.301 -8.69922,8.69922 H 245 V 487.301 l -8.69922,8.69922 8.69922,8.69922 v 12.30078 h 12.30078 l 8.69922,8.69922 8.69922,-8.69922 H 287 v -12.30078 l 8.69922,-8.69922 L 287,487.301 v -12.30078 h -12.30078 z"
       id="path4535-7" />
    <path
       style="display:inline;fill:#f5f5f5;fill-opacity:1;enable-background:new"
       id="path4632"
       d="m 287.45188,503.8069 c -1.105,-5.59 -6.03687,-9.8069 -11.95187,-9.8069 -4.69625,0 -8.76688,2.6651 -10.80625,6.5569 -4.88313,0.5281 -8.69375,4.6638 -8.69375,9.6931 0,5.3869 4.36312,9.75 9.75,9.75 h 21.125 c 4.485,0 8.125,-3.64 8.125,-8.125 0,-4.29 -3.33938,-7.7675 -7.54813,-8.0681 z"
       inkscape:connector-curvature="0" />
    <path
       id="path4636"
       d="m 275.50001,494 c -4.69625,0 -8.76727,2.66484 -10.80664,6.55664 -4.88313,0.5281 -8.69336,4.66406 -8.69336,9.69336 0,0.16407 0.0174,0.32425 0.0254,0.48633 0.25045,-4.79341 3.95312,-8.66979 8.66797,-9.17969 2.03937,-3.8918 6.11039,-6.55664 10.80664,-6.55664 5.915,0 10.84617,4.21664 11.95117,9.80664 4.04264,0.28873 7.27394,3.51087 7.52344,7.5664 0.0101,-0.16567 0.0254,-0.32984 0.0254,-0.49804 0,-4.29 -3.34008,-7.76776 -7.54883,-8.06836 C 286.3462,498.21664 281.41503,494 275.50003,494 Z"
       style="display:inline;fill:#ffffff;fill-opacity:1;enable-background:new"
       inkscape:connector-curvature="0" />
    <path
       inkscape:connector-curvature="0"
       d="m 741.61504,336.4556 c -8.84,-44.72 -48.29496,-78.4552 -95.61496,-78.4552 -37.57,0 -70.13504,21.3208 -86.45,52.4552 -39.06504,4.2248 -69.55,37.3104 -69.55,77.5448 0,43.0952 34.90496,78 78,78 h 169 c 35.88,0 65,-29.12 65,-65 0,-34.32 -26.71504,-62.14 -60.38504,-64.5448 z"
       id="path4852"
       style="display:inline;fill:#000000;fill-opacity:0.2;stroke-width:8;filter:url(#filter4858);enable-background:new" />
    <path
       id="path4814"
       d="M 570,36.40664 500.40624,106.0004 H 402 v 98.40624 L 332.40624,274.0004 402,343.59416 v 98.40624 h 98.40624 L 570,511.59416 639.59376,442.0004 H 738 V 343.59416 L 807.59376,274.0004 738,204.40664 V 106.0004 h -98.40624 z"
       style="display:inline;opacity:1;fill:#000000;fill-opacity:0.2;stroke:none;stroke-width:8;stroke-opacity:1;filter:url(#filter4820)"
       inkscape:connector-curvature="0" />
    <path
       inkscape:connector-curvature="0"
       style="display:inline;opacity:1;fill:#000000;fill-opacity:0.2;stroke:none;stroke-width:8;stroke-opacity:1"
       d="M 570,36.40664 500.40624,106.0004 H 402 v 98.40624 L 332.40624,274.0004 402,343.59416 v 98.40624 h 98.40624 L 570,511.59416 639.59376,442.0004 H 738 V 343.59416 L 807.59376,274.0004 738,204.40664 V 106.0004 h -98.40624 z"
       id="path4664" />
    <path
       id="path4666"
       d="M 570,34.408447 500.40624,104.00221 H 402 v 98.40624 L 332.40624,272.00221 402,341.59597 v 98.40624 h 98.40624 L 570,509.59597 639.59376,440.00221 H 738 V 341.59597 L 807.59376,272.00221 738,202.40845 v -98.40624 h -98.40624 z"
       style="display:inline;opacity:1;fill:#ffbf00;fill-opacity:1;stroke:none;stroke-width:8;stroke-opacity:1"
       inkscape:connector-curvature="0" />
    <circle
       r="144"
       style="display:inline;opacity:1;fill:#000000;fill-opacity:0.2;stroke:none;stroke-width:6.8571434;stroke-opacity:1"
       id="circle4871"
       cx="570"
       cy="274.00201" />
    <circle
       cy="274.00201"
       cx="570"
       id="circle4873"
       style="display:inline;opacity:1;fill:#000000;fill-opacity:0.2;stroke:none;stroke-width:6.8571434;stroke-opacity:1;filter:url(#filter4879)"
       r="144" />
    <circle
       cy="272.00217"
       cx="570"
       id="circle4668"
       style="display:inline;opacity:1;fill:#fae63f;fill-opacity:1;stroke:none;stroke-width:6.8571434;stroke-opacity:1"
       r="144" />
    <path
       style="display:inline;opacity:1;fill:#ffffff;fill-opacity:0.2;stroke:none;stroke-width:8;stroke-opacity:1"
       d="M 570,34.408203 500.40625,104.00195 H 402 v 2 h 98.40625 L 570,36.408203 639.59375,106.00195 H 738 v -2 H 639.59375 Z M 402,202.4082 l -69.59375,69.59375 1,1 L 402,204.4082 Z m 336,0 v 2 l 68.59375,68.59375 1,-1 z"
       id="path4670"
       inkscape:connector-curvature="0" />
    <path
       style="display:inline;opacity:1;fill:#ffffff;fill-opacity:0.2;stroke:none;stroke-width:6.8571434;stroke-opacity:1"
       d="m 570,128.00195 a 144,144 0 0 0 -144,144 144,144 0 0 0 0.0352,0.98438 A 144,144 0 0 1 570,130.00195 144,144 0 0 1 713.94922,272.98438 144,144 0 0 0 714,272.00195 a 144,144 0 0 0 -144,-144 z"
       id="path4672"
       inkscape:connector-curvature="0" />
    <path
       style="display:inline;fill:#000000;fill-opacity:0.2;stroke-width:8;enable-background:new"
       id="path4676"
       d="m 741.61504,336.4556 c -8.84,-44.72 -48.29496,-78.4552 -95.61496,-78.4552 -37.57,0 -70.13504,21.3208 -86.45,52.4552 -39.06504,4.2248 -69.55,37.3104 -69.55,77.5448 0,43.0952 34.90496,78 78,78 h 169 c 35.88,0 65,-29.12 65,-65 0,-34.32 -26.71504,-62.14 -60.38504,-64.5448 z"
       inkscape:connector-curvature="0" />
    <path
       inkscape:connector-curvature="0"
       d="m 741.61504,334.45565 c -8.84,-44.72 -48.29496,-78.4552 -95.61496,-78.4552 -37.57,0 -70.13504,21.3208 -86.45,52.4552 -39.06504,4.2248 -69.55,37.3104 -69.55,77.5448 0,43.0952 34.90496,78 78,78 h 169 c 35.88,0 65,-29.12 65,-65 0,-34.32 -26.71504,-62.14 -60.38504,-64.5448 z"
       id="path4678"
       style="display:inline;fill:#f5f5f5;fill-opacity:1;stroke-width:8;enable-background:new" />
    <path
       style="display:inline;fill:#ffffff;fill-opacity:1;stroke-width:8;enable-background:new"
       d="m 646,256 c -37.57,0 -70.13816,21.31872 -86.45312,52.45312 C 520.48183,312.67793 490,345.7656 490,386 c 0,0.24832 0.0208,0.49188 0.0293,0.73828 0.63185,-39.66028 30.86328,-72.10478 69.51758,-76.28516 C 575.86184,279.31872 608.43,258 646,258 c 47.32,0 86.76937,33.73312 95.60938,78.45312 33.28177,2.37708 59.75483,29.59352 60.36132,63.36719 C 801.97958,399.54668 802,399.27596 802,399 802,364.68 775.27938,336.85792 741.60938,334.45312 732.76937,289.73312 693.32,256 646,256 Z"
       id="path4680"
       inkscape:connector-curvature="0" />
    <path
       id="path4682"
       d="m 570,34.40845 -69.59376,69.59376 H 402 v 98.40624 L 332.40624,272.00221 402,341.59597 v 98.40624 h 98.40624 L 570,509.59597 639.59376,440.00221 H 738 V 341.59597 L 807.59376,272.00221 738,202.40845 v -98.40624 h -98.40624 z"
       style="display:inline;fill:url(#linearGradient4684);fill-opacity:1;stroke:none;stroke-width:16;stroke-linecap:round;stroke-linejoin:round;stroke-miterlimit:4;stroke-dasharray:none;stroke-opacity:1;enable-background:new"
       inkscape:connector-curvature="0" />
    <path
       id="path4917"
       d="m 194,482.3731 -6.62695,6.62695 H 178 v 9.37305 l -6.62695,6.62695 L 178,511.627 v 9.37305 h 9.37305 L 194,527.627 l 6.62695,-6.62695 H 210 V 511.627 l 6.62695,-6.62695 L 210,498.3731 v -9.37305 h -9.37305 z"
       style="opacity:1;fill:#000000;fill-opacity:0.2;stroke:none;stroke-opacity:1;filter:url(#filter4923)"
       inkscape:connector-curvature="0" />
    <path
       style="opacity:1;fill:#ffbf00;fill-opacity:1;stroke:none;stroke-opacity:1"
       d="M 194,481.37305 187.37305,488 H 178 v 9.37305 L 171.37305,504 178,510.62695 V 520 h 9.37305 L 194,526.62695 200.62695,520 H 210 v -9.37305 L 216.62695,504 210,497.37305 V 488 h -9.37305 z"
       id="rect4903"
       inkscape:connector-curvature="0" />
    <circle
       r="14"
       style="display:inline;opacity:1;fill:#000000;fill-opacity:0.2;stroke:none;stroke-width:0.66666669;stroke-opacity:1;filter:url(#filter4913)"
       id="circle4911"
       cx="194"
       cy="505" />
    <circle
       cy="504"
       cx="194"
       id="circle4692"
       style="display:inline;opacity:1;fill:#fae63f;fill-opacity:1;stroke:none;stroke-width:0.66666669;stroke-opacity:1"
       r="14" />
    <path
       style="display:inline;fill:url(#linearGradient4708);fill-opacity:1;stroke:none;stroke-width:1.5;stroke-linecap:round;stroke-linejoin:round;stroke-miterlimit:4;stroke-dasharray:none;stroke-opacity:1;enable-background:new"
       d="M 194,481.37305 187.37305,488 H 178 v 9.37305 L 171.37305,504 178,510.62695 V 520 h 9.37305 L 194,526.62695 200.62695,520 H 210 v -9.37305 L 216.62695,504 210,497.37305 V 488 h -9.37305 z"
       id="path4706"
       inkscape:connector-curvature="0" />
    <path
       style="display:inline;fill:#000000;fill-opacity:0.2;stroke-width:0.75;filter:url(#filter4885);enable-background:new"
       id="path4700"
       d="m 210.08891,510.85518 c -0.82875,-4.1925 -4.52765,-7.35518 -8.9639,-7.35518 -3.52219,0 -6.57516,1.99883 -8.10469,4.91768 -3.66235,0.39607 -6.52031,3.49785 -6.52031,7.26982 0,4.04018 3.27234,7.3125 7.3125,7.3125 h 15.84375 c 3.36375,0 6.09375,-2.73 6.09375,-6.09375 0,-3.2175 -2.50454,-5.82562 -5.6611,-6.05107 z"
       inkscape:connector-curvature="0" />
    <path
       style="display:inline;fill:#000000;fill-opacity:0.2;stroke-width:0.75;filter:url(#filter4618);enable-background:new"
       id="path4612"
       d="m 210.08891,509.8552 c -0.82875,-4.1925 -4.52765,-7.35518 -8.9639,-7.35518 -3.52219,0 -6.57516,1.99883 -8.10469,4.91768 -3.66235,0.39607 -6.52031,3.49785 -6.52031,7.26982 0,4.04018 3.27234,7.3125 7.3125,7.3125 h 15.84375 c 3.36375,0 6.09375,-2.73 6.09375,-6.09375 0,-3.2175 -2.50454,-5.82562 -5.6611,-6.05107 z"
       inkscape:connector-curvature="0" />
    <path
       inkscape:connector-curvature="0"
       d="m 210.08891,509.8552 c -0.82875,-4.1925 -4.52765,-7.35518 -8.9639,-7.35518 -3.52219,0 -6.57516,1.99883 -8.10469,4.91768 -3.66235,0.39607 -6.52031,3.49785 -6.52031,7.26982 0,4.04018 3.27234,7.3125 7.3125,7.3125 h 15.84375 c 3.36375,0 6.09375,-2.73 6.09375,-6.09375 0,-3.2175 -2.50454,-5.82562 -5.6611,-6.05107 z"
       id="path4702"
       style="display:inline;fill:#f5f5f5;fill-opacity:1;stroke-width:0.75;enable-background:new" />
    <path
       id="path4947"
       d="m 138,498.85784 -4.14258,4.14258 H 128 v 5.85742 l -4.14258,4.14258 L 128,517.143 v 5.85742 h 5.85742 L 138,527.143 l 4.14258,-4.14258 H 148 V 517.143 l 4.14258,-4.14258 L 148,508.85784 v -5.85742 h -5.85742 z"
       style="opacity:1;fill:#000000;fill-opacity:0.2;stroke:none;stroke-opacity:1;filter:url(#filter4949)"
       inkscape:connector-curvature="0" />
    <path
       style="opacity:1;fill:#ffbf00;fill-opacity:1;stroke:none;stroke-opacity:1"
       d="M 138,497.85742 133.85742,502 H 128 v 5.85742 L 123.85742,512 128,516.14258 V 522 h 5.85742 L 138,526.14258 142.14258,522 H 148 v -5.85742 L 152.14258,512 148,507.85742 V 502 h -5.85742 z"
       id="rect4942"
       inkscape:connector-curvature="0" />
    <circle
       r="8"
       cy="513"
       cx="138"
       id="circle4953"
       style="display:inline;opacity:1;fill:#000000;fill-opacity:0.2;stroke:none;stroke-width:0.38095239;stroke-opacity:1;filter:url(#filter4955)" />
    <path
       style="display:inline;fill:url(#linearGradient4732);fill-opacity:1;stroke:none;stroke-width:1;stroke-linecap:round;stroke-linejoin:round;stroke-miterlimit:4;stroke-dasharray:none;stroke-opacity:1;enable-background:new"
       d="M 138,497.85742 133.85742,502 H 128 v 5.85742 L 123.85742,512 128,516.14258 V 522 h 5.85742 L 138,526.14258 142.14258,522 H 148 v -5.85742 L 152.14258,512 148,507.85742 V 502 h -5.85742 z"
       id="path4730"
       inkscape:connector-curvature="0" />
    <circle
       style="display:inline;opacity:1;fill:#fae63f;fill-opacity:1;stroke:none;stroke-width:0.38095239;stroke-opacity:1"
       id="circle4716"
       cx="138"
       cy="512"
       r="8" />
    <path
       style="display:inline;opacity:1;fill:#ffffff;fill-opacity:0.2;stroke:none;stroke-width:0.38095239;stroke-opacity:1"
       d="m 138,504 a 8,8 0 0 0 -8,8 8,8 0 0 0 0.0215,0.57617 A 8,8 0 0 1 138,505 8,8 0 0 1 145.97852,512.42383 8,8 0 0 0 146,512 a 8,8 0 0 0 -8,-8 z"
       id="circle4959"
       inkscape:connector-curvature="0" />
    <path
       inkscape:connector-curvature="0"
       d="M 148.72594,516.90346 C 148.17344,514.10846 145.70751,512 142.75001,512 c -2.34813,0 -4.38344,1.33256 -5.40313,3.27846 -2.44157,0.26404 -4.34687,2.3319 -4.34687,4.84654 0,2.69346 2.18156,4.875 4.875,4.875 h 10.5625 c 2.2425,0 4.0625,-1.82 4.0625,-4.0625 0,-2.145 -1.6697,-3.88374 -3.77407,-4.03404 z"
       id="path4935"
       style="display:inline;fill:#000000;fill-opacity:0.2;stroke-width:0.5;enable-background:new" />
    <path
       inkscape:connector-curvature="0"
       d="m 148.72672,515.9043 c -0.5525,-2.795 -3.01843,-4.90346 -5.97593,-4.90346 -2.34813,0 -4.38344,1.33256 -5.40313,3.27846 -2.44157,0.26404 -4.34687,2.3319 -4.34687,4.84654 0,2.69346 2.18156,4.875 4.875,4.875 h 10.5625 c 2.2425,0 4.0625,-1.82 4.0625,-4.0625 0,-2.145 -1.6697,-3.88374 -3.77407,-4.03404 z"
       id="path4622"
       style="display:inline;fill:#000000;fill-opacity:0.2;stroke-width:0.5;filter:url(#filter4628);enable-background:new" />
    <path
       style="display:inline;fill:#f5f5f5;fill-opacity:1;stroke-width:0.5;enable-background:new"
       id="path4726"
       d="m 148.72672,515.9043 c -0.5525,-2.795 -3.01843,-4.90346 -5.97593,-4.90346 -2.34813,0 -4.38344,1.33256 -5.40313,3.27846 -2.44157,0.26404 -4.34687,2.3319 -4.34687,4.84654 0,2.69346 2.18156,4.875 4.875,4.875 h 10.5625 c 2.2425,0 4.0625,-1.82 4.0625,-4.0625 0,-2.145 -1.6697,-3.88374 -3.77407,-4.03404 z"
       inkscape:connector-curvature="0" />
    <path
       id="path4805"
       d="m 90,505.3711 -3.314453,3.31445 H 82 v 4.68555 L 78.685547,516.68555 82,520 v 4.68555 h 4.685547 L 90,528 93.314453,524.68555 H 98 V 520 l 3.31445,-3.31445 L 98,513.3711 v -4.68555 h -4.685547 z"
       style="opacity:1;fill:#000000;fill-opacity:0.2;stroke:none;stroke-opacity:1"
       inkscape:connector-curvature="0" />
    <path
       style="opacity:1;fill:#ffbf00;fill-opacity:1;stroke:none;stroke-opacity:1"
       d="M 90,504.68555 86.685547,508 H 82 v 4.68555 L 78.685547,516 82,519.31445 V 524 h 4.685547 L 90,527.31445 93.314453,524 H 98 v -4.68555 L 101.31445,516 98,512.68555 V 508 h -4.685547 z"
       id="rect4786"
       inkscape:connector-curvature="0" />
    <circle
       cy="516"
       cx="90"
       id="circle4740"
       style="display:inline;opacity:1;fill:#fae63f;fill-opacity:1;stroke:none;stroke-width:0.33333334;stroke-opacity:1"
       r="7" />
    <rect
       style="opacity:1;fill:#ffbf00;fill-opacity:1;stroke:none;stroke-opacity:1"
       id="rect4782"
       width="10"
       height="10"
       x="19"
       y="515" />
    <rect
       y="379.66608"
       x="-355.72498"
       height="10"
       width="10"
       id="rect4784"
       style="opacity:1;fill:#ffbf00;fill-opacity:1;stroke:none;stroke-opacity:1"
       transform="rotate(-45)" />
    <circle
       style="display:inline;opacity:1;fill:#fae63f;fill-opacity:1;stroke:none;stroke-width:0.19047621;stroke-opacity:1"
       id="circle4760"
       cx="24"
       cy="520"
       r="4" />
    <path
       style="display:inline;opacity:1;fill:#ffffff;fill-opacity:0.2;stroke:none;stroke-width:0.33333334;stroke-opacity:1"
       d="m 90,509 a 7,7 0 0 0 -7,7 7,7 0 0 0 0.02344,0.54102 A 7,7 0 0 1 90,510 7,7 0 0 1 96.976562,516.45898 7,7 0 0 0 97,516 7,7 0 0 0 90,509 Z"
       id="circle4792"
       inkscape:connector-curvature="0" />
    <path
       id="path4797"
       d="m 90,523 a 7,7 0 0 1 -7,-7 7,7 0 0 1 0.02344,-0.54102 A 7,7 0 0 0 90,522 7,7 0 0 0 96.976562,515.54102 7,7 0 0 1 97,516 a 7,7 0 0 1 -7,7 z"
       style="display:inline;opacity:1;fill:#020202;fill-opacity:0.2;stroke:none;stroke-width:0.33333334;stroke-opacity:1"
       inkscape:connector-curvature="0" />
    <path
       style="display:inline;fill:url(#linearGradient4756);fill-opacity:1;stroke:none;stroke-width:0.75;stroke-linecap:round;stroke-linejoin:round;stroke-miterlimit:4;stroke-dasharray:none;stroke-opacity:1;enable-background:new"
       d="M 90,504.68555 86.685547,508 H 82 v 4.68555 L 78.685547,516 82,519.31445 V 524 h 4.685547 L 90,527.31445 93.314453,524 H 98 v -4.68555 L 101.31445,516 98,512.68555 V 508 h -4.685547 z"
       id="path4754"
       inkscape:connector-curvature="0" />
    <path
       style="display:inline;fill:#000000;fill-opacity:0.2;stroke-width:0.375;enable-background:new"
       id="path4807"
       d="m 98.044455,519.9276 c -0.414375,-2.09625 -2.263823,-3.6776 -4.481948,-3.6776 -1.761097,0 -3.28758,0.99942 -4.052347,2.45885 -1.831178,0.19803 -3.260153,1.74892 -3.260153,3.6349 0,2.0201 1.63617,3.65625 3.65625,3.65625 h 7.921875 c 1.681875,0 3.046878,-1.365 3.046878,-3.04687 0,-1.60875 -1.252278,-2.91281 -2.830555,-3.02553 z"
       inkscape:connector-curvature="0" />
    <path
       style="display:inline;fill:#000000;fill-opacity:0.2;stroke-width:0.375;filter:url(#filter4639);enable-background:new"
       id="path4633"
       d="m 98.044455,518.92763 c -0.414375,-2.09625 -2.263823,-3.6776 -4.481948,-3.6776 -1.761097,0 -3.28758,0.99942 -4.052347,2.45885 -1.831178,0.19803 -3.260153,1.74892 -3.260153,3.6349 0,2.0201 1.63617,3.65625 3.65625,3.65625 h 7.921875 c 1.681875,0 3.046878,-1.365 3.046878,-3.04687 0,-1.60875 -1.252278,-2.91281 -2.830555,-3.02553 z"
       inkscape:connector-curvature="0" />
    <path
       inkscape:connector-curvature="0"
       d="m 98.044455,518.92763 c -0.414375,-2.09625 -2.263823,-3.6776 -4.481948,-3.6776 -1.761097,0 -3.28758,0.99942 -4.052347,2.45885 -1.831178,0.19803 -3.260153,1.74892 -3.260153,3.6349 0,2.0201 1.63617,3.65625 3.65625,3.65625 h 7.921875 c 1.681875,0 3.046878,-1.365 3.046878,-3.04687 0,-1.60875 -1.252278,-2.91281 -2.830555,-3.02553 z"
       id="path4750"
       style="display:inline;fill:#f5f5f5;fill-opacity:1;stroke-width:0.375;enable-background:new" />
    <path
       style="opacity:1;fill:#ffffff;fill-opacity:0.2;stroke:none;stroke-opacity:1"
       d="M 90,504.68555 86.685547,508 H 82 v 1 h 4.685547 L 90,505.68555 93.314453,509 H 98 v -1 h -4.685547 z m -8,8 -3.314453,3.31445 0.5,0.5 L 82,513.68555 Z m 16,0 v 1 l 2.81445,2.81445 0.5,-0.5 z"
       id="path4800"
       inkscape:connector-curvature="0" />
    <path
       style="display:inline;fill:#ffffff;fill-opacity:1;stroke-width:0.375;enable-background:new"
       d="m 93.5625,515.25 c -1.761097,0 -3.287967,0.99955 -4.052734,2.45898 -1.831178,0.19803 -3.259766,1.74879 -3.259766,3.63477 0,0.16478 0.02773,0.32147 0.04883,0.48047 0.235599,-1.64297 1.552251,-2.93586 3.210938,-3.11524 0.764767,-1.45943 2.291637,-2.45898 4.052734,-2.45898 2.218125,0 4.068047,1.58148 4.482422,3.67773 1.40592,0.10041 2.547446,1.14736 2.781246,2.51172 0.0258,-0.15944 0.0488,-0.31964 0.0488,-0.48633 0,-1.60874 -1.251797,-2.91267 -2.830074,-3.02539 C 97.630547,516.83148 95.780625,515.25 93.5625,515.25 Z"
       id="path4809"
       inkscape:connector-curvature="0" />
    <path
       style="display:inline;fill:#ffffff;fill-opacity:1;stroke-width:0.75;enable-background:new"
       d="m 201.125,502.5 c -3.52219,0 -6.57594,1.99912 -8.10547,4.91797 -3.66235,0.39607 -6.51953,3.49756 -6.51953,7.26953 0,0.16481 0.0127,0.3262 0.0234,0.48828 0.24537,-3.53689 3.00124,-6.37986 6.49609,-6.75781 1.52953,-2.91885 4.58328,-4.91797 8.10547,-4.91797 4.43625,0 8.13609,3.16297 8.96484,7.35547 2.98902,0.21348 5.38796,2.56418 5.63477,5.54492 0.0132,-0.16338 0.0254,-0.32739 0.0254,-0.49414 0,-3.2175 -2.5036,-5.82533 -5.66016,-6.05078 C 209.26109,505.66297 205.56125,502.5 201.125,502.5 Z"
       id="path4889"
       inkscape:connector-curvature="0" />
    <path
       style="display:inline;opacity:1;fill:#ffffff;fill-opacity:0.2;stroke:none;stroke-width:0.66666669;stroke-opacity:1"
       d="m 194,490 a 14,14 0 0 0 -14,14 14,14 0 0 0 0.0215,0.58594 A 14,14 0 0 1 194,491 14,14 0 0 1 207.97852,504.41406 14,14 0 0 0 208,504 14,14 0 0 0 194,490 Z"
       id="circle4906"
       inkscape:connector-curvature="0" />
    <path
       style="opacity:1;fill:#ffffff;fill-opacity:0.2;stroke:none;stroke-opacity:1"
       d="M 194,481.37305 187.37305,488 H 178 v 1 h 9.37305 L 194,482.37305 200.62695,489 H 210 v -1 h -9.37305 z m -16,16 -6.62695,6.62695 0.5,0.5 L 178,498.37305 Z m 32,0 v 1 l 6.12695,6.12695 0.5,-0.5 z"
       id="path4927"
       inkscape:connector-curvature="0" />
    <path
       style="display:inline;fill:#ffffff;fill-opacity:1;stroke-width:0.5;enable-background:new"
       d="m 142.75,511 c -2.34813,0 -4.38265,1.3334 -5.40234,3.2793 -2.44157,0.26404 -4.34766,2.33106 -4.34766,4.8457 0,0.1989 0.0159,0.3933 0.0391,0.58594 0.19826,-2.32164 2.00441,-4.18246 4.3086,-4.43164 1.01969,-1.9459 3.05421,-3.2793 5.40234,-3.2793 2.9575,0 5.42406,2.1093 5.97656,4.9043 1.93384,0.13812 3.48338,1.62186 3.72461,3.52539 0.02,-0.16321 0.0488,-0.32362 0.0488,-0.49219 0,-2.145 -1.66907,-3.8829 -3.77344,-4.0332 C 148.17406,513.1093 145.7075,511 142.75,511 Z"
       id="path4937"
       inkscape:connector-curvature="0" />
    <path
       style="opacity:1;fill:#ffffff;fill-opacity:0.2;stroke:none;stroke-opacity:1"
       d="M 138,497.85742 133.85742,502 H 128 v 1 h 5.85742 L 138,498.85742 142.14258,503 H 148 v -1 h -5.85742 z m -10,10 -4.14258,4.14258 0.5,0.5 L 128,508.85742 Z m 20,0 v 1 l 3.64258,3.64258 0.5,-0.5 z"
       id="path4964"
       inkscape:connector-curvature="0" />
    <path
       inkscape:connector-curvature="0"
       style="opacity:1;fill:#000000;fill-opacity:0.2;stroke:none;stroke-opacity:1"
       d="M 55.000453,506.3711 51.686,509.68555 h -4.685547 v 4.68555 L 43.686,517.68555 47.000453,521 v 4.68555 H 51.686 L 55.000453,529 l 3.314453,-3.31445 h 4.685547 V 521 l 3.31445,-3.31445 -3.31445,-3.31445 v -4.68555 h -4.685547 z"
       id="path4592" />
    <path
       inkscape:connector-curvature="0"
       id="path4594"
       d="M 55.000453,505.68555 51.686,509 h -4.685547 v 4.68555 L 43.686,517 l 3.314453,3.31445 V 525 H 51.686 l 3.314453,3.31445 L 58.314906,525 h 4.685547 v -4.68555 L 66.314903,517 63.000453,513.68555 V 509 h -4.685547 z"
       style="opacity:1;fill:#ffbf00;fill-opacity:1;stroke:none;stroke-opacity:1" />
    <circle
       r="7"
       style="display:inline;opacity:1;fill:#fae63f;fill-opacity:1;stroke:none;stroke-width:0.33333334;stroke-opacity:1"
       id="circle4596"
       cx="55.000454"
       cy="517" />
    <path
       inkscape:connector-curvature="0"
       id="path4598"
       d="m 55.000453,510 a 7,7 0 0 0 -7,7 7,7 0 0 0 0.02344,0.54102 7,7 0 0 1 6.97656,-6.54102 7,7 0 0 1 6.976562,6.45898 7,7 0 0 0 0.02344,-0.45898 7,7 0 0 0 -7,-7 z"
       style="display:inline;opacity:1;fill:#ffffff;fill-opacity:0.2;stroke:none;stroke-width:0.33333334;stroke-opacity:1" />
    <path
       inkscape:connector-curvature="0"
       style="display:inline;opacity:1;fill:#020202;fill-opacity:0.2;stroke:none;stroke-width:0.33333334;stroke-opacity:1"
       d="m 55.000453,524 a 7,7 0 0 1 -7,-7 7,7 0 0 1 0.02344,-0.54102 7,7 0 0 0 6.97656,6.54102 7,7 0 0 0 6.976562,-6.45898 7,7 0 0 1 0.02344,0.45898 7,7 0 0 1 -7,7 z"
       id="path4600" />
    <path
       inkscape:connector-curvature="0"
       id="path4602"
       d="M 55.000453,505.68555 51.686,509 h -4.685547 v 4.68555 L 43.686,517 l 3.314453,3.31445 V 525 H 51.686 l 3.314453,3.31445 L 58.314906,525 h 4.685547 v -4.68555 L 66.314903,517 63.000453,513.68555 V 509 h -4.685547 z"
       style="display:inline;fill:url(#linearGradient4615);fill-opacity:1;stroke:none;stroke-width:0.75;stroke-linecap:round;stroke-linejoin:round;stroke-miterlimit:4;stroke-dasharray:none;stroke-opacity:1;enable-background:new" />
    <path
       inkscape:connector-curvature="0"
       d="m 63.044908,520.9276 c -0.414375,-2.09625 -2.263823,-3.6776 -4.481948,-3.6776 -1.761097,0 -3.28758,0.99942 -4.052347,2.45885 -1.831178,0.19803 -3.260153,1.74892 -3.260153,3.6349 0,2.0201 1.63617,3.65625 3.65625,3.65625 h 7.921875 c 1.681875,0 3.046878,-1.365 3.046878,-3.04687 0,-1.60875 -1.252278,-2.91281 -2.830555,-3.02553 z"
       id="path4604"
       style="display:inline;fill:#000000;fill-opacity:0.2;stroke-width:0.375;enable-background:new" />
    <path
       inkscape:connector-curvature="0"
       d="m 63.044908,519.92763 c -0.414375,-2.09625 -2.263823,-3.6776 -4.481948,-3.6776 -1.761097,0 -3.28758,0.99942 -4.052347,2.45885 -1.831178,0.19803 -3.260153,1.74892 -3.260153,3.6349 0,2.0201 1.63617,3.65625 3.65625,3.65625 h 7.921875 c 1.681875,0 3.046878,-1.365 3.046878,-3.04687 0,-1.60875 -1.252278,-2.91281 -2.830555,-3.02553 z"
       id="path4606"
       style="display:inline;fill:#000000;fill-opacity:0.2;stroke-width:0.375;filter:url(#filter4639);enable-background:new" />
    <path
       style="display:inline;fill:#f5f5f5;fill-opacity:1;stroke-width:0.375;enable-background:new"
       id="path4608"
       d="m 63.044908,519.92763 c -0.414375,-2.09625 -2.263823,-3.6776 -4.481948,-3.6776 -1.761097,0 -3.28758,0.99942 -4.052347,2.45885 -1.831178,0.19803 -3.260153,1.74892 -3.260153,3.6349 0,2.0201 1.63617,3.65625 3.65625,3.65625 h 7.921875 c 1.681875,0 3.046878,-1.365 3.046878,-3.04687 0,-1.60875 -1.252278,-2.91281 -2.830555,-3.02553 z"
       inkscape:connector-curvature="0" />
    <path
       inkscape:connector-curvature="0"
       id="path4610"
       d="M 55.000453,505.68555 51.686,509 h -4.685547 v 1 H 51.686 L 55.000453,506.68555 58.314906,510 h 4.685547 v -1 h -4.685547 z m -8,8 L 43.686,517 l 0.5,0.5 2.814453,-2.81445 z m 16,0 v 1 l 2.81445,2.81445 0.5,-0.5 z"
       style="opacity:1;fill:#ffffff;fill-opacity:0.2;stroke:none;stroke-opacity:1" />
    <path
       inkscape:connector-curvature="0"
       id="path4613"
       d="m 58.562953,516.25 c -1.761097,0 -3.287967,0.99955 -4.052734,2.45898 -1.831178,0.19803 -3.259766,1.74879 -3.259766,3.63477 0,0.16478 0.02773,0.32147 0.04883,0.48047 0.235599,-1.64297 1.552251,-2.93586 3.210938,-3.11524 0.764767,-1.45943 2.291637,-2.45898 4.052734,-2.45898 2.218125,0 4.068047,1.58148 4.482422,3.67773 1.40592,0.10041 2.547446,1.14736 2.781246,2.51172 0.0258,-0.15944 0.0488,-0.31964 0.0488,-0.48633 0,-1.60874 -1.251797,-2.91267 -2.830074,-3.02539 C 62.631,517.83148 60.781078,516.25 58.562953,516.25 Z"
       style="display:inline;fill:#ffffff;fill-opacity:1;stroke-width:0.375;enable-background:new" />
  </g>
</svg>
