<?xml version="1.0" encoding="UTF-8" standalone="no"?>
<!-- Created with Inkscape (http://www.inkscape.org/) -->

<svg
   xmlns:dc="http://purl.org/dc/elements/1.1/"
   xmlns:cc="http://creativecommons.org/ns#"
   xmlns:rdf="http://www.w3.org/1999/02/22-rdf-syntax-ns#"
   xmlns:svg="http://www.w3.org/2000/svg"
   xmlns="http://www.w3.org/2000/svg"
   xmlns:xlink="http://www.w3.org/1999/xlink"
   xmlns:sodipodi="http://sodipodi.sourceforge.net/DTD/sodipodi-0.dtd"
   xmlns:inkscape="http://www.inkscape.org/namespaces/inkscape"
   width="816"
   height="544"
   viewBox="0 0 816 544"
   version="1.1"
   id="svg1087"
   inkscape:version="0.92.1 r"
   sodipodi:docname="org.gnome.Weather.Application.svg">
  <defs
     id="defs1081">
    <linearGradient
       inkscape:collect="always"
       xlink:href="#linearGradient4165-3"
       id="linearGradient4537"
       gradientUnits="userSpaceOnUse"
       gradientTransform="matrix(1.3043412,0,0,1.3043465,208.69565,-845.34)"
       x1="7"
       y1="1011.3622"
       x2="41.000019"
       y2="1045.3622" />
    <linearGradient
       inkscape:collect="always"
       id="linearGradient4165-3">
      <stop
         style="stop-color:#ffffff;stop-opacity:0.05490196"
         offset="0"
         id="stop4167-6" />
      <stop
         style="stop-color:#177ed5;stop-opacity:0;"
         offset="1"
         id="stop4169-7" />
    </linearGradient>
    <filter
       inkscape:collect="always"
       style="color-interpolation-filters:sRGB"
       id="filter4542"
       x="-0.012"
       width="1.024"
       y="-0.012"
       height="1.024">
      <feGaussianBlur
         inkscape:collect="always"
         stdDeviation="0.2969922"
         id="feGaussianBlur4544" />
    </filter>
    <filter
       inkscape:collect="always"
       style="color-interpolation-filters:sRGB"
       id="filter4640"
       x="-0.01"
       width="1.02"
       y="-0.015"
       height="1.03">
      <feGaussianBlur
         inkscape:collect="always"
         stdDeviation="0.1625"
         id="feGaussianBlur4642" />
    </filter>
    <linearGradient
       inkscape:collect="always"
       xlink:href="#linearGradient4165-3"
       id="linearGradient4684"
       gradientUnits="userSpaceOnUse"
       gradientTransform="matrix(10.43473,0,0,10.434772,293.5652,-10458.72)"
       x1="7"
       y1="1011.3622"
       x2="41.000019"
       y2="1045.3622" />
    <linearGradient
       inkscape:collect="always"
       xlink:href="#linearGradient4165-3"
       id="linearGradient4708"
       gradientUnits="userSpaceOnUse"
       gradientTransform="matrix(0.9782559,0,0,0.97825987,144.52174,-502.00498)"
       x1="7"
       y1="1011.3622"
       x2="41.000019"
       y2="1045.3622" />
    <linearGradient
       inkscape:collect="always"
       xlink:href="#linearGradient4165-3"
       id="linearGradient4732"
       gradientUnits="userSpaceOnUse"
       gradientTransform="matrix(0.6521706,0,0,0.65217325,96.347827,-158.66998)"
       x1="7"
       y1="1011.3622"
       x2="41.000019"
       y2="1045.3622" />
    <linearGradient
       inkscape:collect="always"
       xlink:href="#linearGradient4165-3"
       id="linearGradient4756"
       gradientUnits="userSpaceOnUse"
       gradientTransform="matrix(0.48912795,0,0,0.48912994,52.26087,12.997527)"
       x1="7"
       y1="1011.3622"
       x2="41.000019"
       y2="1045.3622" />
    <filter
       inkscape:collect="always"
       style="color-interpolation-filters:sRGB"
       id="filter4820"
       x="-0.024"
       width="1.048"
       y="-0.024"
       height="1.048">
      <feGaussianBlur
         inkscape:collect="always"
         stdDeviation="4.7518752"
         id="feGaussianBlur4822" />
    </filter>
    <filter
       inkscape:collect="always"
       style="color-interpolation-filters:sRGB"
       id="filter4858"
       x="-0.02"
       width="1.04"
       y="-0.03"
       height="1.06">
      <feGaussianBlur
         inkscape:collect="always"
         stdDeviation="2.6"
         id="feGaussianBlur4860" />
    </filter>
    <filter
       inkscape:collect="always"
       style="color-interpolation-filters:sRGB"
       id="filter4879"
       x="-0.024"
       width="1.048"
       y="-0.024"
       height="1.048">
      <feGaussianBlur
         inkscape:collect="always"
         stdDeviation="2.88"
         id="feGaussianBlur4881" />
    </filter>
    <filter
       inkscape:collect="always"
       style="color-interpolation-filters:sRGB"
       id="filter4885"
       x="-0.01"
       width="1.02"
       y="-0.015"
       height="1.03">
      <feGaussianBlur
         inkscape:collect="always"
         stdDeviation="0.121875"
         id="feGaussianBlur4887" />
    </filter>
    <filter
       inkscape:collect="always"
       style="color-interpolation-filters:sRGB"
       id="filter4913"
       x="-0.012"
       width="1.024"
       y="-0.012"
       height="1.024">
      <feGaussianBlur
         inkscape:collect="always"
         stdDeviation="0.14"
         id="feGaussianBlur4915" />
    </filter>
    <filter
       inkscape:collect="always"
       style="color-interpolation-filters:sRGB"
       id="filter4923"
       x="-0.012"
       width="1.024"
       y="-0.012"
       height="1.024">
      <feGaussianBlur
         inkscape:collect="always"
         stdDeviation="0.2262695"
         id="feGaussianBlur4925" />
    </filter>
    <filter
       inkscape:collect="always"
       style="color-interpolation-filters:sRGB"
       id="filter4949"
       x="-0.012"
       width="1.024"
       y="-0.012"
       height="1.024">
      <feGaussianBlur
         inkscape:collect="always"
         stdDeviation="0.1414258"
         id="feGaussianBlur4951" />
    </filter>
    <filter
       inkscape:collect="always"
       style="color-interpolation-filters:sRGB"
       id="filter4955"
       x="-0.012"
       width="1.024"
       y="-0.012"
       height="1.024">
      <feGaussianBlur
         inkscape:collect="always"
         stdDeviation="0.08"
         id="feGaussianBlur4957" />
    </filter>
    <filter
       inkscape:collect="always"
       style="color-interpolation-filters:sRGB"
       id="filter4608"
       x="-0.02"
       width="1.04"
       y="-0.03"
       height="1.06">
      <feGaussianBlur
         inkscape:collect="always"
         stdDeviation="0.325"
         id="feGaussianBlur4610" />
    </filter>
    <filter
       inkscape:collect="always"
       style="color-interpolation-filters:sRGB"
       id="filter4618"
       x="-0.02"
       width="1.04"
       y="-0.03"
       height="1.06">
      <feGaussianBlur
         inkscape:collect="always"
         stdDeviation="0.24375"
         id="feGaussianBlur4620" />
    </filter>
    <filter
       inkscape:collect="always"
       style="color-interpolation-filters:sRGB"
       id="filter4628"
       x="-0.02"
       width="1.04"
       y="-0.03"
       height="1.06">
      <feGaussianBlur
         inkscape:collect="always"
         stdDeviation="0.1625"
         id="feGaussianBlur4630" />
    </filter>
    <filter
       inkscape:collect="always"
       style="color-interpolation-filters:sRGB"
       id="filter4639"
       x="-0.02"
       width="1.04"
       y="-0.03"
       height="1.06">
      <feGaussianBlur
         inkscape:collect="always"
         stdDeviation="0.121875"
         id="feGaussianBlur4641" />
    </filter>
  </defs>
  <sodipodi:namedview
     id="base"
     pagecolor="#c3c3c3"
     bordercolor="#333333"
     borderopacity="1"
     inkscape:pageopacity="0"
     inkscape:pageshadow="2"
     inkscape:zoom="5.6568542"
     inkscape:cx="45.837152"
     inkscape:cy="92.876971"
     inkscape:document-units="px"
     inkscape:current-layer="layer2"
     showgrid="false"
     units="px"
     inkscape:showpageshadow="false"
     inkscape:window-width="1280"
     inkscape:window-height="1370"
     inkscape:window-x="1280"
     inkscape:window-y="34"
     inkscape:window-maximized="0">
    <inkscape:grid
       type="xygrid"
       id="grid4630" />
  </sodipodi:namedview>
  <metadata
     id="metadata1084">
    <rdf:RDF>
      <cc:Work
         rdf:about="">
        <dc:format>image/svg+xml</dc:format>
        <dc:type
           rdf:resource="http://purl.org/dc/dcmitype/StillImage" />
        <dc:title />
        <cc:license
           rdf:resource="http://creativecommons.org/licenses/by-sa/4.0/" />
        <dc:creator>
          <cc:Agent>
            <dc:title>Peter Cornelis</dc:title>
          </cc:Agent>
        </dc:creator>
      </cc:Work>
      <cc:License
         rdf:about="http://creativecommons.org/licenses/by-sa/4.0/">
        <cc:permits
           rdf:resource="http://creativecommons.org/ns#Reproduction" />
        <cc:permits
           rdf:resource="http://creativecommons.org/ns#Distribution" />
        <cc:requires
           rdf:resource="http://creativecommons.org/ns#Notice" />
        <cc:requires
           rdf:resource="http://creativecommons.org/ns#Attribution" />
        <cc:permits
           rdf:resource="http://creativecommons.org/ns#DerivativeWorks" />
        <cc:requires
           rdf:resource="http://creativecommons.org/ns#ShareAlike" />
      </cc:License>
    </rdf:RDF>
  </metadata>
  <g
     inkscape:label="Baseplate"
     inkscape:groupmode="layer"
     id="layer1"
     transform="translate(0,-153.06668)"
     style="display:none">
    <text
       y="733.32251"
       xml:space="preserve"
       x="15.006836"
       style="font-style:normal;font-variant:normal;font-weight:normal;font-stretch:normal;line-height:0%;font-family:'DejaVu Sans';-inkscape-font-specification:'DejaVu Sans';display:inline;fill:#000000;fill-opacity:1;stroke:none;enable-background:new"
       inkscape:label="context"
       id="context"><tspan
         style="font-style:normal;font-variant:normal;font-weight:normal;font-stretch:normal;font-size:18px;line-height:1.25;font-family:'DejaVu Sans';-inkscape-font-specification:'DejaVu Sans'"
         y="733.32251"
         x="15.006836"
         sodipodi:role="line"
         id="tspan3933">apps</tspan></text>
    <text
       y="733.32251"
       xml:space="preserve"
       x="142.48828"
       style="font-style:normal;font-variant:normal;font-weight:bold;font-stretch:normal;line-height:0%;font-family:'DejaVu Sans';-inkscape-font-specification:'DejaVu Sans Bold';text-align:start;writing-mode:lr-tb;text-anchor:start;display:inline;fill:#000000;fill-opacity:1;stroke:none;enable-background:new"
       inkscape:label="icon-name"
       id="icon-name"><tspan
         style="font-style:normal;font-variant:normal;font-weight:bold;font-stretch:normal;font-size:18px;line-height:1.25;font-family:'DejaVu Sans';-inkscape-font-specification:'DejaVu Sans Bold'"
         y="733.32251"
         x="142.48828"
         sodipodi:role="line"
         id="tspan3937">org.gnome.weather.application</tspan></text>
    <rect
       style="display:inline;overflow:visible;visibility:visible;fill:#fefefe;fill-opacity:1;fill-rule:nonzero;stroke:none;stroke-width:2;marker:none;enable-background:accumulate"
       id="rect16x16"
       width="16"
       height="16"
       x="-32"
       y="665.06665"
       inkscape:label="16x16"
       transform="scale(-1,1)" />
    <rect
       transform="scale(-1,1)"
       inkscape:label="48x48"
       y="617.06665"
       x="-272"
       height="64"
       width="64"
       id="rect4531"
       style="display:inline;overflow:visible;visibility:visible;fill:#fefefe;fill-opacity:1;fill-rule:nonzero;stroke:none;stroke-width:0.25;marker:none;enable-background:accumulate" />
    <rect
       style="display:inline;overflow:visible;visibility:visible;fill:#fefefe;fill-opacity:1;fill-rule:nonzero;stroke:none;stroke-width:2;marker:none;enable-background:accumulate"
       id="rect4662"
       width="512"
       height="512"
       x="-800"
       y="169.06665"
       inkscape:label="48x48"
       transform="scale(-1,1)" />
    <rect
       style="display:inline;overflow:visible;visibility:visible;fill:#fefefe;fill-opacity:1;fill-rule:nonzero;stroke:none;stroke-width:0.1875;marker:none;enable-background:accumulate"
       id="rect4686"
       width="48"
       height="48"
       x="-192"
       y="633.06665"
       inkscape:label="48x48"
       transform="scale(-1,1)" />
    <rect
       transform="scale(-1,1)"
       inkscape:label="48x48"
       y="649.06665"
       x="-128"
       height="32"
       width="32"
       id="rect4710"
       style="display:inline;overflow:visible;visibility:visible;fill:#fefefe;fill-opacity:1;fill-rule:nonzero;stroke:none;stroke-width:0.125;marker:none;enable-background:accumulate" />
    <rect
       style="display:inline;overflow:visible;visibility:visible;fill:#fefefe;fill-opacity:1;fill-rule:nonzero;stroke:none;stroke-width:0.09375;marker:none;enable-background:accumulate"
       id="rect4734"
       width="24"
       height="24"
       x="-76"
       y="657.06665"
       inkscape:label="48x48"
       transform="scale(-1,1)" />
  </g>
  <g
     inkscape:groupmode="layer"
     id="layer2"
     inkscape:label="Bitmap"
     style="display:inline">
    <path
       id="path4540-3"
       d="M 240,467.30078 231.30078,476 H 219 v 12.30078 L 210.30078,497 219,505.69922 V 518 h 12.30078 L 240,526.69922 248.69922,518 H 261 V 505.69922 L 269.69922,497 261,488.30078 V 476 h -12.30078 z"
       style="display:inline;opacity:1;fill:#000000;fill-opacity:0.2;stroke:none;stroke-opacity:1;filter:url(#filter4542)"
       inkscape:connector-curvature="0" />
    <path
       inkscape:connector-curvature="0"
       style="display:inline;opacity:1;fill:#ffbf00;fill-opacity:1;stroke:none;stroke-opacity:1"
       d="m 240,466.301 -8.69922,8.69922 H 219 V 487.301 l -8.69922,8.69922 8.69922,8.69922 v 12.30078 h 12.30078 l 8.69922,8.69922 8.69922,-8.69922 H 261 v -12.30078 l 8.69922,-8.69922 L 261,487.301 v -12.30078 h -12.30078 z"
       id="rect4532" />
    <circle
       r="18"
       cy="497"
       cx="240"
       id="circle4883"
       style="display:inline;opacity:1;fill:#000000;fill-opacity:0.2;stroke:none;stroke-width:0.85714287;stroke-opacity:1" />
    <circle
       style="display:inline;opacity:1;fill:#fae63f;fill-opacity:1;stroke:none;stroke-width:0.85714287;stroke-opacity:1"
       id="path4539"
       cx="240"
       cy="496.00021"
       r="18" />
    <path
       inkscape:connector-curvature="0"
       style="display:inline;opacity:1;fill:#ffffff;fill-opacity:0.2;stroke:none;stroke-opacity:1"
       d="m 240,466.301 -8.69922,8.69922 H 219 v 1 h 12.30078 L 240,467.301 l 8.69922,8.69922 H 261 v -1 h -12.30078 z m -21,21 -8.69922,8.69922 0.5,0.5 L 219,488.301 Z m 42,0 v 1 l 8.19922,8.19922 0.5,-0.5 z"
       id="path4548" />
    <path
       inkscape:connector-curvature="0"
       style="display:inline;opacity:1;fill:#ffffff;fill-opacity:0.2;stroke:none;stroke-width:0.85714287;stroke-opacity:1"
       d="m 240,478.00022 a 18,18 0 0 0 -18,18 18,18 0 0 0 0.0215,0.58594 18,18 0 0 1 17.9785,-17.58594 18,18 0 0 1 17.97852,17.41406 18,18 0 0 0 0.0215,-0.41406 18,18 0 0 0 -18,-18 z"
       id="circle4533" />
    <path
       inkscape:connector-curvature="0"
       d="m 261.45188,504.8069 c -1.105,-5.59 -6.03687,-9.8069 -11.95187,-9.8069 -4.69625,0 -8.76688,2.6651 -10.80625,6.5569 -4.88313,0.5281 -8.69375,4.6638 -8.69375,9.6931 0,5.3869 4.36312,9.75 9.75,9.75 h 21.125 c 4.485,0 8.125,-3.64 8.125,-8.125 0,-4.29 -3.33938,-7.7675 -7.54813,-8.0681 z"
       id="path4638"
       style="display:inline;fill:#000000;fill-opacity:0.2;enable-background:new;filter:url(#filter4640)" />
    <path
       inkscape:connector-curvature="0"
       d="m 261.45188,503.8069 c -1.105,-5.59 -6.03687,-9.8069 -11.95187,-9.8069 -4.69625,0 -8.76688,2.6651 -10.80625,6.5569 -4.88313,0.5281 -8.69375,4.6638 -8.69375,9.6931 0,5.3869 4.36312,9.75 9.75,9.75 h 21.125 c 4.485,0 8.125,-3.64 8.125,-8.125 0,-4.29 -3.33938,-7.7675 -7.54813,-8.0681 z"
       id="path4578"
       style="display:inline;fill:#000000;fill-opacity:0.2;enable-background:new;filter:url(#filter4608)" />
    <path
       inkscape:connector-curvature="0"
       style="display:inline;fill:url(#linearGradient4537);fill-opacity:1;stroke:none;stroke-width:2;stroke-linecap:round;stroke-linejoin:round;stroke-miterlimit:4;stroke-dasharray:none;stroke-opacity:1;enable-background:new"
       d="m 240,466.301 -8.69922,8.69922 H 219 V 487.301 l -8.69922,8.69922 8.69922,8.69922 v 12.30078 h 12.30078 l 8.69922,8.69922 8.69922,-8.69922 H 261 v -12.30078 l 8.69922,-8.69922 L 261,487.301 v -12.30078 h -12.30078 z"
       id="path4535-7" />
    <path
       style="display:inline;fill:#f5f5f5;fill-opacity:1;enable-background:new"
       id="path4632"
       d="m 261.45188,503.8069 c -1.105,-5.59 -6.03687,-9.8069 -11.95187,-9.8069 -4.69625,0 -8.76688,2.6651 -10.80625,6.5569 -4.88313,0.5281 -8.69375,4.6638 -8.69375,9.6931 0,5.3869 4.36312,9.75 9.75,9.75 h 21.125 c 4.485,0 8.125,-3.64 8.125,-8.125 0,-4.29 -3.33938,-7.7675 -7.54813,-8.0681 z"
       inkscape:connector-curvature="0" />
    <path
       id="path4636"
       d="m 249.50001,494 c -4.69625,0 -8.76727,2.66484 -10.80664,6.55664 -4.88313,0.5281 -8.69336,4.66406 -8.69336,9.69336 0,0.16407 0.0174,0.32425 0.0254,0.48633 0.25045,-4.79341 3.95312,-8.66979 8.66797,-9.17969 2.03937,-3.8918 6.11039,-6.55664 10.80664,-6.55664 5.915,0 10.84617,4.21664 11.95117,9.80664 4.04264,0.28873 7.27394,3.51087 7.52344,7.5664 0.0101,-0.16567 0.0254,-0.32984 0.0254,-0.49804 0,-4.29 -3.34008,-7.76776 -7.54883,-8.06836 C 260.3462,498.21664 255.41503,494 249.50003,494 Z"
       style="display:inline;fill:#ffffff;fill-opacity:1;enable-background:new"
       inkscape:connector-curvature="0" />
    <path
       inkscape:connector-curvature="0"
       d="m 715.61504,336.4556 c -8.84,-44.72 -48.29496,-78.4552 -95.61496,-78.4552 -37.57,0 -70.13504,21.3208 -86.45,52.4552 -39.06504,4.2248 -69.55,37.3104 -69.55,77.5448 0,43.0952 34.90496,78 78,78 h 169 c 35.88,0 65,-29.12 65,-65 0,-34.32 -26.71504,-62.14 -60.38504,-64.5448 z"
       id="path4852"
       style="display:inline;fill:#000000;fill-opacity:0.2;stroke-width:8;enable-background:new;filter:url(#filter4858)" />
    <path
       id="path4814"
       d="M 544,36.40664 474.40624,106.0004 H 376 v 98.40624 L 306.40624,274.0004 376,343.59416 v 98.40624 h 98.40624 L 544,511.59416 613.59376,442.0004 H 712 V 343.59416 L 781.59376,274.0004 712,204.40664 V 106.0004 h -98.40624 z"
       style="display:inline;opacity:1;fill:#000000;fill-opacity:0.2;stroke:none;stroke-width:8;stroke-opacity:1;filter:url(#filter4820)"
       inkscape:connector-curvature="0" />
    <path
       inkscape:connector-curvature="0"
       style="display:inline;opacity:1;fill:#000000;fill-opacity:0.2;stroke:none;stroke-width:8;stroke-opacity:1"
       d="M 544,36.40664 474.40624,106.0004 H 376 v 98.40624 L 306.40624,274.0004 376,343.59416 v 98.40624 h 98.40624 L 544,511.59416 613.59376,442.0004 H 712 V 343.59416 L 781.59376,274.0004 712,204.40664 V 106.0004 h -98.40624 z"
       id="path4664" />
    <path
       id="path4666"
       d="M 544,34.408447 474.40624,104.00221 H 376 v 98.40624 L 306.40624,272.00221 376,341.59597 v 98.40624 h 98.40624 L 544,509.59597 613.59376,440.00221 H 712 V 341.59597 L 781.59376,272.00221 712,202.40845 v -98.40624 h -98.40624 z"
       style="display:inline;opacity:1;fill:#ffbf00;fill-opacity:1;stroke:none;stroke-width:8;stroke-opacity:1"
       inkscape:connector-curvature="0" />
    <circle
       r="144"
       style="display:inline;opacity:1;fill:#000000;fill-opacity:0.2;stroke:none;stroke-width:6.8571434;stroke-opacity:1"
       id="circle4871"
       cx="544"
       cy="274.00201" />
    <circle
       cy="274.00201"
       cx="544"
       id="circle4873"
       style="display:inline;opacity:1;fill:#000000;fill-opacity:0.2;stroke:none;stroke-width:6.8571434;stroke-opacity:1;filter:url(#filter4879)"
       r="144" />
    <circle
       cy="272.00217"
       cx="544"
       id="circle4668"
       style="display:inline;opacity:1;fill:#fae63f;fill-opacity:1;stroke:none;stroke-width:6.8571434;stroke-opacity:1"
       r="144" />
    <path
       style="display:inline;opacity:1;fill:#ffffff;fill-opacity:0.2;stroke:none;stroke-width:8;stroke-opacity:1"
       d="M 544 34.408203 L 474.40625 104.00195 L 376 104.00195 L 376 106.00195 L 474.40625 106.00195 L 544 36.408203 L 613.59375 106.00195 L 712 106.00195 L 712 104.00195 L 613.59375 104.00195 L 544 34.408203 z M 376 202.4082 L 306.40625 272.00195 L 307.40625 273.00195 L 376 204.4082 L 376 202.4082 z M 712 202.4082 L 712 204.4082 L 780.59375 273.00195 L 781.59375 272.00195 L 712 202.4082 z "
       id="path4670" />
    <path
       style="display:inline;opacity:1;fill:#ffffff;fill-opacity:0.2;stroke:none;stroke-width:6.8571434;stroke-opacity:1"
       d="M 544 128.00195 A 144 144 0 0 0 400 272.00195 A 144 144 0 0 0 400.03516 272.98633 A 144 144 0 0 1 544 130.00195 A 144 144 0 0 1 687.94922 272.98438 A 144 144 0 0 0 688 272.00195 A 144 144 0 0 0 544 128.00195 z "
       id="path4672" />
    <path
       style="display:inline;fill:#000000;fill-opacity:0.2;stroke-width:8;enable-background:new"
       id="path4676"
       d="m 715.61504,336.4556 c -8.84,-44.72 -48.29496,-78.4552 -95.61496,-78.4552 -37.57,0 -70.13504,21.3208 -86.45,52.4552 -39.06504,4.2248 -69.55,37.3104 -69.55,77.5448 0,43.0952 34.90496,78 78,78 h 169 c 35.88,0 65,-29.12 65,-65 0,-34.32 -26.71504,-62.14 -60.38504,-64.5448 z"
       inkscape:connector-curvature="0" />
    <path
       inkscape:connector-curvature="0"
       d="m 715.61504,334.45565 c -8.84,-44.72 -48.29496,-78.4552 -95.61496,-78.4552 -37.57,0 -70.13504,21.3208 -86.45,52.4552 -39.06504,4.2248 -69.55,37.3104 -69.55,77.5448 0,43.0952 34.90496,78 78,78 h 169 c 35.88,0 65,-29.12 65,-65 0,-34.32 -26.71504,-62.14 -60.38504,-64.5448 z"
       id="path4678"
       style="display:inline;fill:#f5f5f5;fill-opacity:1;stroke-width:8;enable-background:new" />
    <path
       style="display:inline;fill:#ffffff;fill-opacity:1;stroke-width:8;enable-background:new"
       d="M 620 256 C 582.43 256 549.86184 277.31872 533.54688 308.45312 C 494.48183 312.67793 464 345.7656 464 386 C 464 386.24832 464.02078 386.49188 464.0293 386.73828 C 464.66115 347.078 494.89258 314.6335 533.54688 310.45312 C 549.86184 279.31872 582.43 258 620 258 C 667.32 258 706.76937 291.73312 715.60938 336.45312 C 748.89115 338.8302 775.36421 366.04664 775.9707 399.82031 C 775.97958 399.54668 776 399.27596 776 399 C 776 364.68 749.27938 336.85792 715.60938 334.45312 C 706.76937 289.73312 667.32 256 620 256 z "
       id="path4680" />
    <path
       id="path4682"
       d="m 544,34.40845 -69.59376,69.59376 H 376 v 98.40624 L 306.40624,272.00221 376,341.59597 v 98.40624 h 98.40624 L 544,509.59597 613.59376,440.00221 H 712 V 341.59597 L 781.59376,272.00221 712,202.40845 v -98.40624 h -98.40624 z"
       style="display:inline;fill:url(#linearGradient4684);fill-opacity:1;stroke:none;stroke-width:16;stroke-linecap:round;stroke-linejoin:round;stroke-miterlimit:4;stroke-dasharray:none;stroke-opacity:1;enable-background:new"
       inkscape:connector-curvature="0" />
    <path
       id="path4917"
       d="m 168,482.3731 -6.62695,6.62695 H 152 v 9.37305 l -6.62695,6.62695 L 152,511.627 v 9.37305 h 9.37305 L 168,527.627 l 6.62695,-6.62695 H 184 V 511.627 l 6.62695,-6.62695 L 184,498.3731 v -9.37305 h -9.37305 z"
       style="opacity:1;fill:#000000;fill-opacity:0.2;stroke:none;stroke-opacity:1;filter:url(#filter4923)"
       inkscape:connector-curvature="0" />
    <path
       style="opacity:1;fill:#ffbf00;fill-opacity:1;stroke:none;stroke-opacity:1"
       d="M 168 481.37305 L 161.37305 488 L 152 488 L 152 497.37305 L 145.37305 504 L 152 510.62695 L 152 520 L 161.37305 520 L 168 526.62695 L 174.62695 520 L 184 520 L 184 510.62695 L 190.62695 504 L 184 497.37305 L 184 488 L 174.62695 488 L 168 481.37305 z "
       id="rect4903" />
    <circle
       r="14"
       style="display:inline;opacity:1;fill:#000000;fill-opacity:0.2;stroke:none;stroke-width:0.66666669;stroke-opacity:1;filter:url(#filter4913)"
       id="circle4911"
       cx="168"
       cy="505" />
    <circle
       cy="504"
       cx="168"
       id="circle4692"
       style="display:inline;opacity:1;fill:#fae63f;fill-opacity:1;stroke:none;stroke-width:0.66666669;stroke-opacity:1"
       r="14" />
    <path
       style="display:inline;fill:url(#linearGradient4708);fill-opacity:1;stroke:none;stroke-width:1.5;stroke-linecap:round;stroke-linejoin:round;stroke-miterlimit:4;stroke-dasharray:none;stroke-opacity:1;enable-background:new"
       d="M 168 481.37305 L 161.37305 488 L 152 488 L 152 497.37305 L 145.37305 504 L 152 510.62695 L 152 520 L 161.37305 520 L 168 526.62695 L 174.62695 520 L 184 520 L 184 510.62695 L 190.62695 504 L 184 497.37305 L 184 488 L 174.62695 488 L 168 481.37305 z "
       id="path4706" />
    <path
       style="display:inline;fill:#000000;fill-opacity:0.2;stroke-width:0.75;enable-background:new;filter:url(#filter4885)"
       id="path4700"
       d="m 184.08891,510.85518 c -0.82875,-4.1925 -4.52765,-7.35518 -8.9639,-7.35518 -3.52219,0 -6.57516,1.99883 -8.10469,4.91768 -3.66235,0.39607 -6.52031,3.49785 -6.52031,7.26982 0,4.04018 3.27234,7.3125 7.3125,7.3125 h 15.84375 c 3.36375,0 6.09375,-2.73 6.09375,-6.09375 0,-3.2175 -2.50454,-5.82562 -5.6611,-6.05107 z"
       inkscape:connector-curvature="0" />
    <path
       style="display:inline;fill:#000000;fill-opacity:0.2;stroke-width:0.75;enable-background:new;filter:url(#filter4618)"
       id="path4612"
       d="m 184.08891,509.8552 c -0.82875,-4.1925 -4.52765,-7.35518 -8.9639,-7.35518 -3.52219,0 -6.57516,1.99883 -8.10469,4.91768 -3.66235,0.39607 -6.52031,3.49785 -6.52031,7.26982 0,4.04018 3.27234,7.3125 7.3125,7.3125 h 15.84375 c 3.36375,0 6.09375,-2.73 6.09375,-6.09375 0,-3.2175 -2.50454,-5.82562 -5.6611,-6.05107 z"
       inkscape:connector-curvature="0" />
    <path
       inkscape:connector-curvature="0"
       d="m 184.08891,509.8552 c -0.82875,-4.1925 -4.52765,-7.35518 -8.9639,-7.35518 -3.52219,0 -6.57516,1.99883 -8.10469,4.91768 -3.66235,0.39607 -6.52031,3.49785 -6.52031,7.26982 0,4.04018 3.27234,7.3125 7.3125,7.3125 h 15.84375 c 3.36375,0 6.09375,-2.73 6.09375,-6.09375 0,-3.2175 -2.50454,-5.82562 -5.6611,-6.05107 z"
       id="path4702"
       style="display:inline;fill:#f5f5f5;fill-opacity:1;stroke-width:0.75;enable-background:new" />
    <path
       id="path4947"
       d="m 112,498.85784 -4.14258,4.14258 H 102 v 5.85742 L 97.857422,513.00042 102,517.143 v 5.85742 h 5.85742 L 112,527.143 l 4.14258,-4.14258 H 122 V 517.143 l 4.14258,-4.14258 L 122,508.85784 v -5.85742 h -5.85742 z"
       style="opacity:1;fill:#000000;fill-opacity:0.2;stroke:none;stroke-opacity:1;filter:url(#filter4949)"
       inkscape:connector-curvature="0" />
    <path
       style="opacity:1;fill:#ffbf00;fill-opacity:1;stroke:none;stroke-opacity:1"
       d="M 112 497.85742 L 107.85742 502 L 102 502 L 102 507.85742 L 97.857422 512 L 102 516.14258 L 102 522 L 107.85742 522 L 112 526.14258 L 116.14258 522 L 122 522 L 122 516.14258 L 126.14258 512 L 122 507.85742 L 122 502 L 116.14258 502 L 112 497.85742 z "
       id="rect4942" />
    <circle
       r="8"
       cy="513"
       cx="112"
       id="circle4953"
       style="display:inline;opacity:1;fill:#000000;fill-opacity:0.2;stroke:none;stroke-width:0.38095239;stroke-opacity:1;filter:url(#filter4955)" />
    <path
       style="display:inline;fill:url(#linearGradient4732);fill-opacity:1;stroke:none;stroke-width:1;stroke-linecap:round;stroke-linejoin:round;stroke-miterlimit:4;stroke-dasharray:none;stroke-opacity:1;enable-background:new"
       d="M 112 497.85742 L 107.85742 502 L 102 502 L 102 507.85742 L 97.857422 512 L 102 516.14258 L 102 522 L 107.85742 522 L 112 526.14258 L 116.14258 522 L 122 522 L 122 516.14258 L 126.14258 512 L 122 507.85742 L 122 502 L 116.14258 502 L 112 497.85742 z "
       id="path4730" />
    <circle
       style="display:inline;opacity:1;fill:#fae63f;fill-opacity:1;stroke:none;stroke-width:0.38095239;stroke-opacity:1"
       id="circle4716"
       cx="112"
       cy="512"
       r="8" />
    <path
       style="display:inline;opacity:1;fill:#ffffff;fill-opacity:0.2;stroke:none;stroke-width:0.38095239;stroke-opacity:1"
       d="M 112 504 A 8 8 0 0 0 104 512 A 8 8 0 0 0 104.02148 512.57617 A 8 8 0 0 1 112 505 A 8 8 0 0 1 119.97852 512.42383 A 8 8 0 0 0 120 512 A 8 8 0 0 0 112 504 z "
       id="circle4959" />
    <path
       inkscape:connector-curvature="0"
       d="M 122.72594,516.90346 C 122.17344,514.10846 119.70751,512 116.75001,512 c -2.34813,0 -4.38344,1.33256 -5.40313,3.27846 -2.44157,0.26404 -4.34687,2.3319 -4.34687,4.84654 0,2.69346 2.18156,4.875 4.875,4.875 h 10.5625 c 2.2425,0 4.0625,-1.82 4.0625,-4.0625 0,-2.145 -1.6697,-3.88374 -3.77407,-4.03404 z"
       id="path4935"
       style="display:inline;fill:#000000;fill-opacity:0.2;stroke-width:0.5;enable-background:new" />
    <path
       inkscape:connector-curvature="0"
       d="m 122.72672,515.9043 c -0.5525,-2.795 -3.01843,-4.90346 -5.97593,-4.90346 -2.34813,0 -4.38344,1.33256 -5.40313,3.27846 -2.44157,0.26404 -4.34687,2.3319 -4.34687,4.84654 0,2.69346 2.18156,4.875 4.875,4.875 h 10.5625 c 2.2425,0 4.0625,-1.82 4.0625,-4.0625 0,-2.145 -1.6697,-3.88374 -3.77407,-4.03404 z"
       id="path4622"
       style="display:inline;fill:#000000;fill-opacity:0.2;stroke-width:0.5;enable-background:new;filter:url(#filter4628)" />
    <path
       style="display:inline;fill:#f5f5f5;fill-opacity:1;stroke-width:0.5;enable-background:new"
       id="path4726"
       d="m 122.72672,515.9043 c -0.5525,-2.795 -3.01843,-4.90346 -5.97593,-4.90346 -2.34813,0 -4.38344,1.33256 -5.40313,3.27846 -2.44157,0.26404 -4.34687,2.3319 -4.34687,4.84654 0,2.69346 2.18156,4.875 4.875,4.875 h 10.5625 c 2.2425,0 4.0625,-1.82 4.0625,-4.0625 0,-2.145 -1.6697,-3.88374 -3.77407,-4.03404 z"
       inkscape:connector-curvature="0" />
    <path
       id="path4805"
       d="m 64,505.3711 -3.314453,3.31445 H 56 v 4.68555 L 52.685547,516.68555 56,520 v 4.68555 h 4.685547 L 64,528 67.314453,524.68555 H 72 V 520 L 75.314453,516.68555 72,513.3711 v -4.68555 h -4.685547 z"
       style="opacity:1;fill:#000000;fill-opacity:0.2;stroke:none;stroke-opacity:1"
       inkscape:connector-curvature="0" />
    <path
       style="opacity:1;fill:#ffbf00;fill-opacity:1;stroke:none;stroke-opacity:1"
       d="M 64,504.68555 60.685547,508 H 56 v 4.68555 L 52.685547,516 56,519.31445 V 524 h 4.685547 L 64,527.31445 67.314453,524 H 72 v -4.68555 L 75.314453,516 72,512.68555 V 508 h -4.685547 z"
       id="rect4786"
       inkscape:connector-curvature="0" />
    <circle
       cy="516"
       cx="64"
       id="circle4740"
       style="display:inline;opacity:1;fill:#fae63f;fill-opacity:1;stroke:none;stroke-width:0.33333334;stroke-opacity:1"
       r="7" />
    <rect
       style="opacity:1;fill:#ffbf00;fill-opacity:1;stroke:none;stroke-opacity:1"
       id="rect4782"
       width="10"
       height="10"
       x="19"
       y="515" />
    <rect
       y="379.66608"
       x="-355.72498"
       height="10"
       width="10"
       id="rect4784"
       style="opacity:1;fill:#ffbf00;fill-opacity:1;stroke:none;stroke-opacity:1"
       transform="rotate(-45)" />
    <circle
       style="display:inline;opacity:1;fill:#fae63f;fill-opacity:1;stroke:none;stroke-width:0.19047621;stroke-opacity:1"
       id="circle4760"
       cx="24"
       cy="520"
       r="4" />
    <path
       style="display:inline;opacity:1;fill:#ffffff;fill-opacity:0.2;stroke:none;stroke-width:0.33333334;stroke-opacity:1"
       d="M 64 509 A 7 7 0 0 0 57 516 A 7 7 0 0 0 57.023438 516.54102 A 7 7 0 0 1 64 510 A 7 7 0 0 1 70.976562 516.45898 A 7 7 0 0 0 71 516 A 7 7 0 0 0 64 509 z "
       id="circle4792" />
    <path
       id="path4797"
       d="m 64,523 a 7,7 0 0 1 -7,-7 7,7 0 0 1 0.02344,-0.54102 A 7,7 0 0 0 64,522 7,7 0 0 0 70.976562,515.54102 7,7 0 0 1 71,516 a 7,7 0 0 1 -7,7 z"
       style="display:inline;opacity:1;fill:#020202;fill-opacity:0.2;stroke:none;stroke-width:0.33333334;stroke-opacity:1"
       inkscape:connector-curvature="0" />
    <path
       style="display:inline;fill:url(#linearGradient4756);fill-opacity:1;stroke:none;stroke-width:0.75;stroke-linecap:round;stroke-linejoin:round;stroke-miterlimit:4;stroke-dasharray:none;stroke-opacity:1;enable-background:new"
       d="M 64 504.68555 L 60.685547 508 L 56 508 L 56 512.68555 L 52.685547 516 L 56 519.31445 L 56 524 L 60.685547 524 L 64 527.31445 L 67.314453 524 L 72 524 L 72 519.31445 L 75.314453 516 L 72 512.68555 L 72 508 L 67.314453 508 L 64 504.68555 z "
       id="path4754" />
    <path
       style="display:inline;fill:#000000;fill-opacity:0.2;stroke-width:0.375;enable-background:new"
       id="path4807"
       d="m 72.044455,519.9276 c -0.414375,-2.09625 -2.263823,-3.6776 -4.481948,-3.6776 -1.761097,0 -3.28758,0.99942 -4.052347,2.45885 -1.831178,0.19803 -3.260153,1.74892 -3.260153,3.6349 0,2.0201 1.63617,3.65625 3.65625,3.65625 h 7.921875 c 1.681875,0 3.046875,-1.365 3.046875,-3.04687 0,-1.60875 -1.252275,-2.91281 -2.830552,-3.02553 z"
       inkscape:connector-curvature="0" />
    <path
       style="display:inline;fill:#000000;fill-opacity:0.2;stroke-width:0.375;enable-background:new;filter:url(#filter4639)"
       id="path4633"
       d="m 72.044455,518.92763 c -0.414375,-2.09625 -2.263823,-3.6776 -4.481948,-3.6776 -1.761097,0 -3.28758,0.99942 -4.052347,2.45885 -1.831178,0.19803 -3.260153,1.74892 -3.260153,3.6349 0,2.0201 1.63617,3.65625 3.65625,3.65625 h 7.921875 c 1.681875,0 3.046875,-1.365 3.046875,-3.04687 0,-1.60875 -1.252275,-2.91281 -2.830552,-3.02553 z"
       inkscape:connector-curvature="0" />
    <path
       inkscape:connector-curvature="0"
       d="m 72.044455,518.92763 c -0.414375,-2.09625 -2.263823,-3.6776 -4.481948,-3.6776 -1.761097,0 -3.28758,0.99942 -4.052347,2.45885 -1.831178,0.19803 -3.260153,1.74892 -3.260153,3.6349 0,2.0201 1.63617,3.65625 3.65625,3.65625 h 7.921875 c 1.681875,0 3.046875,-1.365 3.046875,-3.04687 0,-1.60875 -1.252275,-2.91281 -2.830552,-3.02553 z"
       id="path4750"
       style="display:inline;fill:#f5f5f5;fill-opacity:1;stroke-width:0.375;enable-background:new" />
    <path
       style="opacity:1;fill:#ffffff;fill-opacity:0.2;stroke:none;stroke-opacity:1"
       d="M 64 504.68555 L 60.685547 508 L 56 508 L 56 509 L 60.685547 509 L 64 505.68555 L 67.314453 509 L 72 509 L 72 508 L 67.314453 508 L 64 504.68555 z M 56 512.68555 L 52.685547 516 L 53.185547 516.5 L 56 513.68555 L 56 512.68555 z M 72 512.68555 L 72 513.68555 L 74.814453 516.5 L 75.314453 516 L 72 512.68555 z "
       id="path4800" />
    <path
       style="display:inline;fill:#ffffff;fill-opacity:1;stroke-width:0.375;enable-background:new"
       d="M 67.5625 515.25 C 65.801403 515.25 64.274533 516.24955 63.509766 517.70898 C 61.678588 517.90701 60.25 519.45777 60.25 521.34375 C 60.25 521.50853 60.277734 521.66522 60.298828 521.82422 C 60.534427 520.18125 61.851079 518.88836 63.509766 518.70898 C 64.274533 517.24955 65.801403 516.25 67.5625 516.25 C 69.780625 516.25 71.630547 517.83148 72.044922 519.92773 C 73.450842 520.02814 74.59237 521.07509 74.826172 522.43945 C 74.851967 522.28001 74.875 522.11981 74.875 521.95312 C 74.875 520.34438 73.623199 519.04045 72.044922 518.92773 C 71.630547 516.83148 69.780625 515.25 67.5625 515.25 z "
       id="path4809" />
    <path
       style="display:inline;fill:#ffffff;fill-opacity:1;stroke-width:0.75;enable-background:new"
       d="M 175.125 502.5 C 171.60281 502.5 168.54906 504.49912 167.01953 507.41797 C 163.35718 507.81404 160.5 510.91553 160.5 514.6875 C 160.5 514.85231 160.51272 515.0137 160.52344 515.17578 C 160.76881 511.63889 163.52468 508.79592 167.01953 508.41797 C 168.54906 505.49912 171.60281 503.5 175.125 503.5 C 179.56125 503.5 183.26109 506.66297 184.08984 510.85547 C 187.07886 511.06895 189.4778 513.41965 189.72461 516.40039 C 189.73777 516.23701 189.75 516.073 189.75 515.90625 C 189.75 512.68875 187.2464 510.08092 184.08984 509.85547 C 183.26109 505.66297 179.56125 502.5 175.125 502.5 z "
       id="path4889" />
    <path
       style="display:inline;opacity:1;fill:#ffffff;fill-opacity:0.2;stroke:none;stroke-width:0.66666669;stroke-opacity:1"
       d="M 168 490 A 14 14 0 0 0 154 504 A 14 14 0 0 0 154.02148 504.58594 A 14 14 0 0 1 168 491 A 14 14 0 0 1 181.97852 504.41406 A 14 14 0 0 0 182 504 A 14 14 0 0 0 168 490 z "
       id="circle4906" />
    <path
       style="opacity:1;fill:#ffffff;fill-opacity:0.2;stroke:none;stroke-opacity:1"
       d="M 168 481.37305 L 161.37305 488 L 152 488 L 152 489 L 161.37305 489 L 168 482.37305 L 174.62695 489 L 184 489 L 184 488 L 174.62695 488 L 168 481.37305 z M 152 497.37305 L 145.37305 504 L 145.87305 504.5 L 152 498.37305 L 152 497.37305 z M 184 497.37305 L 184 498.37305 L 190.12695 504.5 L 190.62695 504 L 184 497.37305 z "
       id="path4927" />
    <path
       style="display:inline;fill:#ffffff;fill-opacity:1;stroke-width:0.5;enable-background:new"
       d="M 116.75 511 C 114.40187 511 112.36735 512.3334 111.34766 514.2793 C 108.90609 514.54334 107 516.61036 107 519.125 C 107 519.3239 107.01594 519.5183 107.03906 519.71094 C 107.23732 517.3893 109.04347 515.52848 111.34766 515.2793 C 112.36735 513.3334 114.40187 512 116.75 512 C 119.7075 512 122.17406 514.1093 122.72656 516.9043 C 124.6604 517.04242 126.20994 518.52616 126.45117 520.42969 C 126.47115 520.26648 126.5 520.10607 126.5 519.9375 C 126.5 517.7925 124.83093 516.0546 122.72656 515.9043 C 122.17406 513.1093 119.7075 511 116.75 511 z "
       id="path4937" />
    <path
       style="opacity:1;fill:#ffffff;fill-opacity:0.2;stroke:none;stroke-opacity:1"
       d="M 112 497.85742 L 107.85742 502 L 102 502 L 102 503 L 107.85742 503 L 112 498.85742 L 116.14258 503 L 122 503 L 122 502 L 116.14258 502 L 112 497.85742 z M 102 507.85742 L 97.857422 512 L 98.357422 512.5 L 102 508.85742 L 102 507.85742 z M 122 507.85742 L 122 508.85742 L 125.64258 512.5 L 126.14258 512 L 122 507.85742 z "
       id="path4964" />
  </g>
</svg>
