<?xml version="1.0" encoding="UTF-8" standalone="no"?>
<!-- Created with Inkscape (http://www.inkscape.org/) -->

<svg
   xmlns:dc="http://purl.org/dc/elements/1.1/"
   xmlns:cc="http://creativecommons.org/ns#"
   xmlns:rdf="http://www.w3.org/1999/02/22-rdf-syntax-ns#"
   xmlns:svg="http://www.w3.org/2000/svg"
   xmlns="http://www.w3.org/2000/svg"
   xmlns:xlink="http://www.w3.org/1999/xlink"
   xmlns:sodipodi="http://sodipodi.sourceforge.net/DTD/sodipodi-0.dtd"
   xmlns:inkscape="http://www.inkscape.org/namespaces/inkscape"
   width="816"
   height="544"
   viewBox="0 0 816 544"
   version="1.1"
   id="svg1087"
   inkscape:version="0.92.1 r"
   sodipodi:docname="plex.svg">
  <defs
     id="defs1081">
    <linearGradient
       id="linearGradient4540"
       inkscape:collect="always">
      <stop
         id="stop4536"
         offset="0"
         style="stop-color:#ffffff;stop-opacity:0.05490196" />
      <stop
         id="stop4538"
         offset="1"
         style="stop-color:#177ed5;stop-opacity:0;" />
    </linearGradient>
    <linearGradient
       id="linearGradient4534"
       inkscape:collect="always">
      <stop
         id="stop4530"
         offset="0"
         style="stop-color:#ffffff;stop-opacity:0.05490196" />
      <stop
         id="stop4532"
         offset="1"
         style="stop-color:#177ed5;stop-opacity:0;" />
    </linearGradient>
    <filter
       inkscape:collect="always"
       style="color-interpolation-filters:sRGB"
       id="filter5087"
       x="-0.048"
       width="1.096"
       y="-0.048"
       height="1.096">
      <feGaussianBlur
         inkscape:collect="always"
         stdDeviation="0.8"
         id="feGaussianBlur5089" />
    </filter>
    <linearGradient
       inkscape:collect="always"
       xlink:href="#linearGradient4534"
       id="linearGradient4347"
       gradientUnits="userSpaceOnUse"
       gradientTransform="matrix(0.47825838,0,0,0.47826068,52.5218,-775.8251)"
       x1="7"
       y1="1011.3622"
       x2="41.000019"
       y2="1045.3622" />
    <linearGradient
       inkscape:collect="always"
       id="linearGradient4165">
      <stop
         style="stop-color:#ffffff;stop-opacity:0.05490196"
         offset="0"
         id="stop4167" />
      <stop
         style="stop-color:#177ed5;stop-opacity:0;"
         offset="1"
         id="stop4169" />
    </linearGradient>
    <linearGradient
       inkscape:collect="always"
       xlink:href="#linearGradient4540"
       id="linearGradient4435"
       gradientUnits="userSpaceOnUse"
       gradientTransform="matrix(0.65217041,0,0,0.65217328,96.3479,-958.67021)"
       x1="7"
       y1="1011.3622"
       x2="41.000019"
       y2="1045.3622" />
    <linearGradient
       inkscape:collect="always"
       xlink:href="#linearGradient4165"
       id="linearGradient4171-1-0"
       x1="7"
       y1="1011.3622"
       x2="41.000019"
       y2="1045.3622"
       gradientUnits="userSpaceOnUse"
       gradientTransform="matrix(0.95652174,0,0,0.95652174,145.04353,-1279.6505)" />
    <linearGradient
       inkscape:collect="always"
       xlink:href="#linearGradient4165-3"
       id="linearGradient4449-0"
       gradientUnits="userSpaceOnUse"
       gradientTransform="matrix(10.43473,0,0,10.434772,293.56525,-11258.721)"
       x1="7"
       y1="1011.3622"
       x2="41.000019"
       y2="1045.3622" />
    <linearGradient
       inkscape:collect="always"
       id="linearGradient4165-3">
      <stop
         style="stop-color:#ffffff;stop-opacity:0.05490196"
         offset="0"
         id="stop4167-6" />
      <stop
         style="stop-color:#177ed5;stop-opacity:0;"
         offset="1"
         id="stop4169-7" />
    </linearGradient>
    <linearGradient
       inkscape:collect="always"
       xlink:href="#linearGradient4165-3"
       id="linearGradient4535"
       gradientUnits="userSpaceOnUse"
       gradientTransform="matrix(1.3043412,0,0,1.3043465,208.69566,-1645.3401)"
       x1="7"
       y1="1011.3622"
       x2="41.000019"
       y2="1045.3622" />
    <filter
       inkscape:collect="always"
       style="color-interpolation-filters:sRGB"
       id="filter4553"
       x="-0.012"
       width="1.024"
       y="-0.012"
       height="1.024">
      <feGaussianBlur
         inkscape:collect="always"
         stdDeviation="0.2"
         id="feGaussianBlur4555" />
    </filter>
    <filter
       inkscape:collect="always"
       style="color-interpolation-filters:sRGB"
       id="filter4559"
       x="-0.012"
       width="1.024"
       y="-0.012"
       height="1.024">
      <feGaussianBlur
         inkscape:collect="always"
         stdDeviation="0.28"
         id="feGaussianBlur4561" />
    </filter>
    <filter
       inkscape:collect="always"
       style="color-interpolation-filters:sRGB"
       id="filter4573"
       x="-0.024"
       width="1.048"
       y="-0.024"
       height="1.048">
      <feGaussianBlur
         inkscape:collect="always"
         stdDeviation="4.48"
         id="feGaussianBlur4575" />
    </filter>
    <filter
       inkscape:collect="always"
       style="color-interpolation-filters:sRGB"
       id="filter4733"
       x="-0.029999989"
       width="1.06"
       y="-0.020000005"
       height="1.04">
      <feGaussianBlur
         inkscape:collect="always"
         stdDeviation="2.6666615"
         id="feGaussianBlur4735" />
    </filter>
    <filter
       inkscape:collect="always"
       style="color-interpolation-filters:sRGB"
       id="filter4749"
       x="-0.015047727"
       width="1.0300955"
       y="-0.0099789"
       height="1.0199578">
      <feGaussianBlur
         inkscape:collect="always"
         stdDeviation="0.166315"
         id="feGaussianBlur4751" />
    </filter>
    <filter
       inkscape:collect="always"
       style="color-interpolation-filters:sRGB"
       id="filter4764"
       x="-0.014999998"
       width="1.03"
       y="-0.010000001"
       height="1.02">
      <feGaussianBlur
         inkscape:collect="always"
         stdDeviation="0.11666667"
         id="feGaussianBlur4766" />
    </filter>
  </defs>
  <sodipodi:namedview
     id="base"
     pagecolor="#c3c3c3"
     bordercolor="#333333"
     borderopacity="1"
     inkscape:pageopacity="0"
     inkscape:pageshadow="2"
     inkscape:zoom="0.98994949"
     inkscape:cx="119.28432"
     inkscape:cy="-6.4840017"
     inkscape:document-units="px"
     inkscape:current-layer="layer1"
     showgrid="false"
     units="px"
     inkscape:showpageshadow="false"
     inkscape:window-width="2560"
     inkscape:window-height="1370"
     inkscape:window-x="0"
     inkscape:window-y="34"
     inkscape:window-maximized="1">
    <inkscape:grid
       type="xygrid"
       id="grid4630" />
  </sodipodi:namedview>
  <metadata
     id="metadata1084">
    <rdf:RDF>
      <cc:Work
         rdf:about="">
        <dc:format>image/svg+xml</dc:format>
        <dc:type
           rdf:resource="http://purl.org/dc/dcmitype/StillImage" />
        <dc:title></dc:title>
        <cc:license
           rdf:resource="http://creativecommons.org/licenses/by-sa/4.0/" />
        <dc:creator>
          <cc:Agent>
            <dc:title>Peter Cornelis</dc:title>
          </cc:Agent>
        </dc:creator>
      </cc:Work>
      <cc:License
         rdf:about="http://creativecommons.org/licenses/by-sa/4.0/">
        <cc:permits
           rdf:resource="http://creativecommons.org/ns#Reproduction" />
        <cc:permits
           rdf:resource="http://creativecommons.org/ns#Distribution" />
        <cc:requires
           rdf:resource="http://creativecommons.org/ns#Notice" />
        <cc:requires
           rdf:resource="http://creativecommons.org/ns#Attribution" />
        <cc:permits
           rdf:resource="http://creativecommons.org/ns#DerivativeWorks" />
        <cc:requires
           rdf:resource="http://creativecommons.org/ns#ShareAlike" />
      </cc:License>
    </rdf:RDF>
  </metadata>
  <g
     inkscape:label="Baseplate"
     inkscape:groupmode="layer"
     id="layer1"
     transform="translate(0,-153.06668)"
     style="display:none">
    <rect
       style="display:inline;overflow:visible;visibility:visible;fill:#fefefe;fill-opacity:1;fill-rule:nonzero;stroke:none;stroke-width:2;marker:none;enable-background:accumulate"
       id="rect3951"
       width="512"
       height="512"
       x="-800"
       y="169.06668"
       inkscape:label="48x48"
       transform="scale(-1,1)" />
    <text
       y="733.32251"
       xml:space="preserve"
       x="15.006836"
       style="font-style:normal;font-variant:normal;font-weight:normal;font-stretch:normal;line-height:0%;font-family:'DejaVu Sans';-inkscape-font-specification:'DejaVu Sans';display:inline;fill:#000000;fill-opacity:1;stroke:none;enable-background:new"
       inkscape:label="context"
       id="context"><tspan
         style="font-style:normal;font-variant:normal;font-weight:normal;font-stretch:normal;font-size:18px;line-height:1.25;font-family:'DejaVu Sans';-inkscape-font-specification:'DejaVu Sans'"
         y="733.32251"
         x="15.006836"
         sodipodi:role="line"
         id="tspan3933">apps</tspan></text>
    <text
       y="733.32251"
       xml:space="preserve"
       x="142.48828"
       style="font-style:normal;font-variant:normal;font-weight:bold;font-stretch:normal;line-height:0%;font-family:'DejaVu Sans';-inkscape-font-specification:'DejaVu Sans Bold';text-align:start;writing-mode:lr-tb;text-anchor:start;display:inline;fill:#000000;fill-opacity:1;stroke:none;enable-background:new"
       inkscape:label="icon-name"
       id="icon-name"><tspan
         style="font-style:normal;font-variant:normal;font-weight:bold;font-stretch:normal;font-size:18px;line-height:1.25;font-family:'DejaVu Sans';-inkscape-font-specification:'DejaVu Sans Bold'"
         y="733.32251"
         x="142.48828"
         sodipodi:role="line"
         id="tspan3937">plexmediamanager</tspan></text>
    <rect
       style="display:inline;overflow:visible;visibility:visible;fill:#fefefe;fill-opacity:1;fill-rule:nonzero;stroke:none;stroke-width:2;marker:none;enable-background:accumulate"
       id="rect16x16"
       width="16"
       height="16"
       x="-32"
       y="665.06665"
       inkscape:label="16x16"
       transform="scale(-1,1)" />
    <rect
       style="display:inline;overflow:visible;visibility:visible;fill:#fefefe;fill-opacity:1;fill-rule:nonzero;stroke:none;stroke-width:2;marker:none;enable-background:accumulate"
       id="rect24x24"
       width="24"
       height="24"
       x="-76"
       y="657.06665"
       inkscape:label="24x24"
       transform="scale(-1,1)" />
    <rect
       style="display:inline;overflow:visible;visibility:visible;fill:#fefefe;fill-opacity:1;fill-rule:nonzero;stroke:none;stroke-width:2;marker:none;enable-background:accumulate"
       id="rect32x32"
       width="32"
       height="32"
       x="-128"
       y="649.06665"
       inkscape:label="32x32"
       transform="scale(-1,1)" />
    <rect
       inkscape:label="48x48"
       y="633.06665"
       x="-192"
       height="48"
       width="48"
       id="rect48x48"
       style="display:inline;overflow:visible;visibility:visible;fill:#fefefe;fill-opacity:1;fill-rule:nonzero;stroke:none;stroke-width:2;marker:none;enable-background:accumulate"
       transform="scale(-1,1)" />
    <rect
       transform="scale(-1,1)"
       inkscape:label="48x48"
       y="617.06665"
       x="-272"
       height="64"
       width="64"
       id="rect4524"
       style="display:inline;overflow:visible;visibility:visible;fill:#fefefe;fill-opacity:1;fill-rule:nonzero;stroke:none;stroke-width:0.25;marker:none;enable-background:accumulate" />
  </g>
  <g
     inkscape:groupmode="layer"
     id="layer2"
     inkscape:label="Bitmap"
     style="display:inline">
    <path
       inkscape:connector-curvature="0"
       id="path4551"
       d="m 151,485 c -1.662,0 -3,1.338 -3,3 v 7.91992 18.19141 V 522 c 0,1.662 1.338,3 3,3 h 7.91992 18.17969 H 185 c 1.662,0 3,-1.338 3,-3 V 514.07812 495.89258 488 c 0,-1.662 -1.338,-3 -3,-3 h -7.91992 -18.17969 z"
       style="display:inline;fill:#000000;fill-opacity:0.2;stroke:none;stroke-width:2;stroke-linecap:round;stroke-linejoin:round;stroke-miterlimit:4;stroke-dasharray:none;stroke-opacity:1;enable-background:new;filter:url(#filter4553)" />
    <path
       sodipodi:nodetypes="sscsscsscsscs"
       inkscape:connector-curvature="0"
       id="path5069"
       d="m 143,485 c -1.66505,0 -3,1.2912 -3,3 v 17 17 c 0,1.8617 1.34224,3 3,3 h 17 17 c 1.73784,0 3,-1.2767 3,-3 v -17 -17 c 0,-1.6942 -1.29127,-3 -3,-3 h -17 z"
       style="display:inline;fill:none;fill-opacity:0.5;stroke:none;stroke-width:2;stroke-linecap:round;stroke-linejoin:round;stroke-miterlimit:4;stroke-dasharray:none;stroke-opacity:1;filter:url(#filter5087);enable-background:new" />
    <path
       style="display:inline;fill:none;fill-opacity:0.5;stroke:none;stroke-width:2;stroke-linecap:round;stroke-linejoin:round;stroke-miterlimit:4;stroke-dasharray:none;stroke-opacity:1;filter:url(#filter5087);enable-background:new"
       d="m 143,485 c -1.66505,0 -3,1.2912 -3,3 v 17 17 c 0,1.8617 1.34224,3 3,3 h 17 17 c 1.73784,0 3,-1.2767 3,-3 v -17 -17 c 0,-1.6942 -1.29127,-3 -3,-3 h -17 z"
       id="path4506"
       inkscape:connector-curvature="0"
       sodipodi:nodetypes="sscsscsscsscs" />
    <path
       inkscape:connector-curvature="0"
       id="path4543"
       d="m 56,507 c -1.108,0 -2,0.892 -2,2 v 3.46094 9.09375 V 525 c 0,1.108 0.892,2 2,2 H 59.460938 68.550781 72 c 1.108,0 2,-0.892 2,-2 V 521.53906 512.44531 509 c 0,-1.108 -0.892,-2 -2,-2 h -3.460938 -9.089843 z"
       style="display:inline;fill:#000000;fill-opacity:0.2;stroke:none;stroke-width:2;stroke-linecap:round;stroke-linejoin:round;stroke-miterlimit:4;stroke-dasharray:none;stroke-opacity:1;enable-background:new" />
    <rect
       ry="2"
       rx="2"
       y="-74"
       x="-526"
       height="20"
       width="20"
       id="rect4243"
       style="display:inline;fill:#333a42;fill-opacity:1;stroke:none;enable-background:new"
       transform="matrix(0,-1,-1,0,0,0)" />
    <rect
       transform="matrix(0,-1,-1,0,0,0)"
       style="display:inline;fill:#333a42;fill-opacity:1;stroke:none;enable-background:new"
       id="rect4203"
       width="40"
       height="40"
       x="-524"
       y="-188"
       rx="3"
       ry="3" />
    <path
       inkscape:connector-curvature="0"
       id="path4547"
       d="m 101,499 c -1.662,0 -3,1.338 -3,3 v 5.66211 10.67578 V 524 c 0,1.662 1.338,3 3,3 h 5.6875 10.64844 H 123 c 1.662,0 3,-1.338 3,-3 V 518.33789 507.66602 502 c 0,-1.662 -1.338,-3 -3,-3 h -5.6875 -10.64844 z"
       style="display:inline;fill:#000000;fill-opacity:0.2;stroke:none;stroke-width:2;stroke-linecap:round;stroke-linejoin:round;stroke-miterlimit:4;stroke-dasharray:none;stroke-opacity:1;enable-background:new" />
    <rect
       transform="matrix(0,-1,-1,0,0,0)"
       style="display:inline;fill:#333a42;fill-opacity:1;stroke:none;enable-background:new"
       id="rect4255"
       width="28"
       height="28"
       x="-526"
       y="-126"
       rx="3"
       ry="3" />
    <rect
       transform="matrix(0,-1,-1,0,0,0)"
       style="display:inline;fill:#404752;fill-opacity:1;stroke:none;enable-background:new"
       id="rect4265"
       width="16"
       height="16"
       x="-528"
       y="-32"
       rx="2"
       ry="2" />
    <path
       style="display:inline;fill:#000000;fill-opacity:0.2;stroke:none;stroke-width:16;stroke-linecap:round;stroke-linejoin:round;stroke-miterlimit:4;stroke-dasharray:none;stroke-opacity:1;enable-background:new;filter:url(#filter4573)"
       d="m 356,50 c -19.944,0 -36,16.056 -36,36 V 188.5918 359.37695 462 c 0,19.944 16.056,36 36,36 H 458.98242 629.36523 732 c 19.944,0 36,-16.056 36,-36 V 359.39648 188.6543 86 C 768,66.056 751.944,50 732,50 H 629.00586 458.625 Z"
       id="path4567"
       inkscape:connector-curvature="0" />
    <path
       inkscape:connector-curvature="0"
       id="path4563"
       d="m 356,50 c -19.944,0 -36,16.056 -36,36 V 188.5918 359.37695 462 c 0,19.944 16.056,36 36,36 H 458.98242 629.36523 732 c 19.944,0 36,-16.056 36,-36 V 359.39648 188.6543 86 C 768,66.056 751.944,50 732,50 H 629.00586 458.625 Z"
       style="display:inline;fill:#000000;fill-opacity:0.2;stroke:none;stroke-width:16;stroke-linecap:round;stroke-linejoin:round;stroke-miterlimit:4;stroke-dasharray:none;stroke-opacity:1;enable-background:new" />
    <rect
       ry="36"
       rx="36"
       y="-768"
       x="-496"
       height="448"
       width="448"
       id="rect4229"
       style="display:inline;fill:#333a42;fill-opacity:1;stroke:none;enable-background:new"
       transform="matrix(0,-1,-1,0,0,0)" />
    <path
       id="path4507"
       d="m 320,86 v -2 c 0,-19.944 16.056,-36 36,-36 h 376 c 19.944,0 36,16.056 36,36 v 2 C 768,66.056 751.944,50 732,50 H 356 c -19.944,0 -36,16.056 -36,36 z"
       style="display:inline;fill:#ffffff;fill-opacity:0.2;stroke:none;enable-background:new"
       inkscape:connector-curvature="0" />
    <path
       id="path4514"
       d="m 148,488 v -1 c 0,-1.662 1.338,-3 3,-3 h 34 c 1.662,0 3,1.338 3,3 v 1 c 0,-1.662 -1.338,-3 -3,-3 h -34 c -1.662,0 -3,1.338 -3,3 z"
       style="display:inline;fill:#ffffff;fill-opacity:0.2;stroke:none;enable-background:new"
       inkscape:connector-curvature="0" />
    <path
       id="path4521"
       d="m 98,502 v -1 c 0,-1.662 1.338,-3 3,-3 h 22 c 1.662,0 3,1.338 3,3 v 1 c 0,-1.662 -1.338,-3 -3,-3 h -22 c -1.662,0 -3,1.338 -3,3 z"
       style="display:inline;fill:#fafafa;fill-opacity:0.2;stroke:none;enable-background:new"
       inkscape:connector-curvature="0" />
    <path
       id="path4528"
       d="m 54,509 v -1 c 0,-1.108 0.892,-2 2,-2 h 16 c 1.108,0 2,0.892 2,2 v 1 c 0,-1.108 -0.892,-2 -2,-2 H 56 c -1.108,0 -2,0.892 -2,2 z"
       style="display:inline;fill:#ffffff;fill-opacity:0.2;stroke:none;enable-background:new"
       inkscape:connector-curvature="0" />
    <path
       style="display:inline;fill:url(#linearGradient4171-1-0);fill-opacity:1;stroke:none;stroke-width:2;stroke-linecap:round;stroke-linejoin:round;stroke-miterlimit:4;stroke-dasharray:none;stroke-opacity:1;enable-background:new"
       d="m 151,-316 c -1.662,0 -3,1.338 -3,3 v 7.91992 18.19141 V -279 c 0,1.662 1.338,3 3,3 h 7.91992 18.17969 H 185 c 1.662,0 3,-1.338 3,-3 v -7.92188 -18.18554 V -313 c 0,-1.662 -1.338,-3 -3,-3 h -7.91992 -18.17969 z"
       id="circle4163-3-4"
       inkscape:connector-curvature="0" />
    <path
       style="display:inline;fill:url(#linearGradient4347);fill-opacity:1;stroke:none;stroke-width:2;stroke-linecap:round;stroke-linejoin:round;stroke-miterlimit:4;stroke-dasharray:none;stroke-opacity:1;enable-background:new"
       d="m 56,-294 c -1.108,0 -2,0.892 -2,2 v 3.46094 9.09375 V -276 c 0,1.108 0.892,2 2,2 H 59.460938 68.550781 72 c 1.108,0 2,-0.892 2,-2 v -3.46094 -9.09375 V -292 c 0,-1.108 -0.892,-2 -2,-2 h -3.460938 -9.089843 z"
       id="path4345"
       inkscape:connector-curvature="0" />
    <path
       style="display:inline;fill:url(#linearGradient4435);fill-opacity:1;stroke:none;stroke-width:2;stroke-linecap:round;stroke-linejoin:round;stroke-miterlimit:4;stroke-dasharray:none;stroke-opacity:1;enable-background:new"
       d="m 101,-302 c -1.662,0 -3,1.338 -3,3 v 5.66211 10.67578 V -277 c 0,1.662 1.338,3 3,3 h 5.6875 10.64844 H 123 c 1.662,0 3,-1.338 3,-3 v -5.66211 -10.67187 V -299 c 0,-1.662 -1.338,-3 -3,-3 h -5.6875 -10.64844 z"
       id="path4433"
       inkscape:connector-curvature="0" />
    <path
       style="display:inline;fill:url(#linearGradient4449-0);fill-opacity:1;stroke:none;stroke-width:16;stroke-linecap:round;stroke-linejoin:round;stroke-miterlimit:4;stroke-dasharray:none;stroke-opacity:1;enable-background:new"
       d="m 356,-752 c -19.944,0 -36,16.056 -36,36 V -613.4082 -442.62305 -340 c 0,19.944 16.056,36 36,36 H 458.98242 629.36523 732 c 19.944,0 36,-16.056 36,-36 V -442.60352 -613.3457 -716 c 0,-19.944 -16.056,-36 -36,-36 H 629.00586 458.625 Z"
       id="path4447"
       inkscape:connector-curvature="0" />
    <path
       style="display:inline;fill:#000000;fill-opacity:0.2;stroke:none;stroke-width:2;stroke-linecap:round;stroke-linejoin:round;stroke-miterlimit:4;stroke-dasharray:none;stroke-opacity:1;enable-background:new;filter:url(#filter4559)"
       d="m 216.5,469 c -2.493,0 -4.5,2.007 -4.5,4.5 V 486.32398 507.67212 520.5 c 0,2.493 2.007,4.5 4.5,4.5 H 229.3728 250.67065 263.5 c 2.493,0 4.5,-2.007 4.5,-4.5 V 507.67456 486.33179 473.5 c 0,-2.493 -2.007,-4.5 -4.5,-4.5 h -12.87427 -21.29761 z"
       id="path4557"
       inkscape:connector-curvature="0" />
    <rect
       transform="matrix(0,-1,-1,0,0,0)"
       style="display:inline;fill:#333a42;fill-opacity:1;stroke:none;stroke-width:0.125;enable-background:new"
       id="rect4526"
       width="56"
       height="56"
       x="-524"
       y="-268"
       rx="4.5"
       ry="4.5" />
    <path
       style="display:inline;fill:#ffffff;fill-opacity:0.2;stroke:none;stroke-width:0.125;enable-background:new"
       d="M 216.5 468 C 214.007 468 212 470.007 212 472.5 L 212 473.5 C 212 471.007 214.007 469 216.5 469 L 263.5 469 C 265.993 469 268 471.007 268 473.5 L 268 472.5 C 268 470.007 265.993 468 263.5 468 L 216.5 468 z "
       id="rect4537" />
    <path
       inkscape:connector-curvature="0"
       id="path4533"
       d="m 216.5,-332 c -2.493,0 -4.5,2.007 -4.5,4.5 v 12.82398 21.34814 12.82788 c 0,2.493 2.007,4.5 4.5,4.5 H 229.3728 250.67065 263.5 c 2.493,0 4.5,-2.007 4.5,-4.5 V -293.32544 -314.66821 -327.5 c 0,-2.493 -2.007,-4.5 -4.5,-4.5 h -12.87427 -21.29761 z"
       style="display:inline;fill:url(#linearGradient4535);fill-opacity:1;stroke:none;stroke-width:2;stroke-linecap:round;stroke-linejoin:round;stroke-miterlimit:4;stroke-dasharray:none;stroke-opacity:1;enable-background:new" />
    <path
       sodipodi:nodetypes="ccccccc"
       inkscape:connector-curvature="0"
       id="path4758"
       d="m 160.66674,519 h 9.33334 l 9.33333,-14 -9.33333,-14 h -9.33334 l 9.33334,14 z"
       style="display:inline;fill:#000000;fill-opacity:0.2;fill-rule:evenodd;stroke:none;stroke-width:1px;stroke-linecap:butt;stroke-linejoin:miter;stroke-opacity:1;enable-background:new;filter:url(#filter4764)" />
    <path
       style="display:inline;fill:#ff9100;fill-opacity:1;fill-rule:evenodd;stroke:none;stroke-width:1px;stroke-linecap:butt;stroke-linejoin:miter;stroke-opacity:1;enable-background:new"
       d="m 160.66674,518 h 9.33334 l 9.33333,-14 -9.33333,-14 h -9.33334 l 9.33334,14 z"
       id="path4172"
       inkscape:connector-curvature="0"
       sodipodi:nodetypes="ccccccc" />
    <path
       style="display:inline;fill:#000000;fill-opacity:0.2;fill-rule:evenodd;stroke:none;stroke-width:1px;stroke-linecap:butt;stroke-linejoin:miter;stroke-opacity:1;enable-background:new"
       d="m 106.36847,524 h 6.63158 l 6.63158,-10 -6.63158,-10 h -6.63158 l 6.63158,10 z"
       id="path4773"
       inkscape:connector-curvature="0"
       sodipodi:nodetypes="ccccccc" />
    <path
       sodipodi:nodetypes="ccccccc"
       inkscape:connector-curvature="0"
       id="path4377"
       d="m 106.36847,523 h 6.63158 l 6.63158,-10 -6.63158,-10 h -6.63158 l 6.63158,10 z"
       style="display:inline;fill:#ff9100;fill-opacity:1;fill-rule:evenodd;stroke:none;stroke-width:1px;stroke-linecap:butt;stroke-linejoin:miter;stroke-opacity:1;enable-background:new" />
    <path
       style="display:inline;fill:#000000;fill-opacity:0.2;fill-rule:evenodd;stroke:none;stroke-width:0.999964px;stroke-linecap:butt;stroke-linejoin:miter;stroke-opacity:1;enable-background:new"
       d="m 59.663325,524 h 4.666505 l 4.666495,-6.99975 -4.666495,-6.99975 h -4.666505 l 4.666505,6.99975 z"
       id="path4775"
       inkscape:connector-curvature="0"
       sodipodi:nodetypes="ccccccc" />
    <path
       style="display:inline;fill:#ff9100;fill-opacity:1;fill-rule:evenodd;stroke:none;stroke-width:1px;stroke-linecap:butt;stroke-linejoin:miter;stroke-opacity:1;enable-background:new"
       d="m 20,526 h 4.363643 l 4.363643,-6 -4.363643,-6 H 20 l 4.363643,6 z"
       id="path4385"
       inkscape:connector-curvature="0"
       sodipodi:nodetypes="ccccccc" />
    <path
       style="display:inline;fill:#000000;fill-opacity:0.2;fill-rule:evenodd;stroke:none;stroke-width:0.99999779px;stroke-linecap:butt;stroke-linejoin:miter;stroke-opacity:1;enable-background:new"
       d="M 448,434 H 554.6665 L 661.333,274.00035 554.6665,114.0007 H 448 l 106.6665,159.99965 z"
       id="path4717"
       inkscape:connector-curvature="0"
       sodipodi:nodetypes="ccccccc" />
    <path
       sodipodi:nodetypes="ccccccc"
       inkscape:connector-curvature="0"
       id="path4719"
       d="M 448,434 H 554.6665 L 661.333,274.00035 554.6665,114.0007 H 448 l 106.6665,159.99965 z"
       style="display:inline;fill:#000000;fill-opacity:0.2;fill-rule:evenodd;stroke:none;stroke-width:0.99999779px;stroke-linecap:butt;stroke-linejoin:miter;stroke-opacity:1;enable-background:new;filter:url(#filter4733)" />
    <path
       sodipodi:nodetypes="ccccccc"
       inkscape:connector-curvature="0"
       id="path4389"
       d="M 448,432 H 554.66674 L 661.33347,272 554.66674,112 H 448 l 106.66674,160 z"
       style="display:inline;fill:#ff9100;fill-opacity:1;fill-rule:evenodd;stroke:none;stroke-width:1px;stroke-linecap:butt;stroke-linejoin:miter;stroke-opacity:1;enable-background:new" />
    <path
       sodipodi:nodetypes="ccccccc"
       inkscape:connector-curvature="0"
       id="path4747"
       d="m 226.74,517 h 13.263 l 13.263,-20 -13.263,-20 H 226.74 l 13.263,20 z"
       style="display:inline;fill:#000000;fill-opacity:0.2;fill-rule:evenodd;stroke:none;stroke-width:1.99998796px;stroke-linecap:butt;stroke-linejoin:miter;stroke-opacity:1;enable-background:new;filter:url(#filter4749)" />
    <path
       style="display:inline;fill:#ff9100;fill-opacity:1;fill-rule:evenodd;stroke:none;stroke-width:1.99998796px;stroke-linecap:butt;stroke-linejoin:miter;stroke-opacity:1;enable-background:new"
       d="m 226.74,516 h 13.263 l 13.263,-20 -13.263,-20 H 226.74 l 13.263,20 z"
       id="path4558"
       inkscape:connector-curvature="0"
       sodipodi:nodetypes="ccccccc" />
    <path
       style="display:inline;fill:#ffffff;fill-opacity:0.2;fill-rule:evenodd;stroke:none;stroke-width:1px;stroke-linecap:butt;stroke-linejoin:miter;stroke-opacity:1;enable-background:new"
       d="M 448 112 L 449.33398 114 L 554.66602 114 L 660.66602 273.00195 L 661.33398 272 L 554.66602 112 L 448 112 z M 554 273 L 448 432 L 449.33398 432 L 554.66602 274 L 554 273 z "
       id="path4737" />
    <path
       style="display:inline;fill:#ffffff;fill-opacity:0.2;fill-rule:evenodd;stroke:none;stroke-width:1.99998796px;stroke-linecap:butt;stroke-linejoin:miter;stroke-opacity:1;enable-background:new"
       d="M 226.74023 476 L 227.4043 477 L 240.00391 477 L 252.93359 496.5 L 253.26562 496 L 240.00391 476 L 226.74023 476 z M 239.67188 496.5 L 226.74023 516 L 227.4043 516 L 240.00391 497 L 239.67188 496.5 z "
       id="path4742" />
    <path
       style="display:inline;fill:#ffffff;fill-opacity:0.2;fill-rule:evenodd;stroke:none;stroke-width:1px;stroke-linecap:butt;stroke-linejoin:miter;stroke-opacity:1;enable-background:new"
       d="M 160.66602 490 L 161.33203 491 L 170 491 L 179 504.5 L 179.33398 504 L 170 490 L 160.66602 490 z M 169.66602 504.5 L 160.66602 518 L 161.33203 518 L 170 505 L 169.66602 504.5 z "
       id="path4753" />
    <path
       style="display:inline;fill:#ffffff;fill-opacity:0.2;fill-rule:evenodd;stroke:none;stroke-width:1px;stroke-linecap:butt;stroke-linejoin:miter;stroke-opacity:1;enable-background:new"
       d="M 106.36914 503 L 107.03125 504 L 113 504 L 119.29883 513.5 L 119.63086 513 L 113 503 L 106.36914 503 z M 112.66797 513.5 L 106.36914 523 L 107.03125 523 L 113 514 L 112.66797 513.5 z "
       id="path4768" />
    <path
       style="display:inline;fill:#ff9100;fill-opacity:1;fill-rule:evenodd;stroke:none;stroke-width:1px;stroke-linecap:butt;stroke-linejoin:miter;stroke-opacity:1;enable-background:new"
       d="m 59.663325,523 h 4.666673 l 4.666663,-7 -4.666663,-7 h -4.666673 l 4.666673,7 z"
       id="path4777"
       inkscape:connector-curvature="0"
       sodipodi:nodetypes="ccccccc" />
    <path
       style="display:inline;fill:#ffffff;fill-opacity:0.2;fill-rule:evenodd;stroke:none;stroke-width:1px;stroke-linecap:butt;stroke-linejoin:miter;stroke-opacity:1;enable-background:new"
       d="M 59.664062 509 L 60.330078 510 L 64.330078 510 L 68.662109 516.5 L 68.996094 516 L 64.330078 509 L 59.664062 509 z M 63.996094 516.5 L 59.664062 523 L 60.330078 523 L 64.330078 517 L 63.996094 516.5 z "
       id="path4782" />
  </g>
</svg>
