<?xml version="1.0" encoding="UTF-8" standalone="no"?>
<!-- Created with Inkscape (http://www.inkscape.org/) -->

<svg
   xmlns:dc="http://purl.org/dc/elements/1.1/"
   xmlns:cc="http://creativecommons.org/ns#"
   xmlns:rdf="http://www.w3.org/1999/02/22-rdf-syntax-ns#"
   xmlns:svg="http://www.w3.org/2000/svg"
   xmlns="http://www.w3.org/2000/svg"
   xmlns:xlink="http://www.w3.org/1999/xlink"
   xmlns:sodipodi="http://sodipodi.sourceforge.net/DTD/sodipodi-0.dtd"
   xmlns:inkscape="http://www.inkscape.org/namespaces/inkscape"
   width="842"
   height="544"
   viewBox="0 0 842 544"
   version="1.1"
   id="svg1087"
   inkscape:version="0.92.1 r"
   sodipodi:docname="prefernces-system-windows.svg">
  <defs
     id="defs1081">
    <filter
       inkscape:collect="always"
       style="color-interpolation-filters:sRGB"
       id="filter4650"
       x="-0.022363637"
       width="1.0447273"
       y="-0.025894737"
       height="1.0517895">
      <feGaussianBlur
         inkscape:collect="always"
         stdDeviation="3.28"
         id="feGaussianBlur4652" />
    </filter>
    <filter
       inkscape:collect="always"
       style="color-interpolation-filters:sRGB"
       id="filter4660"
       x="-0.022363637"
       width="1.0447273"
       y="-0.025894737"
       height="1.0517895">
      <feGaussianBlur
         inkscape:collect="always"
         stdDeviation="3.28"
         id="feGaussianBlur4662" />
    </filter>
    <filter
       inkscape:collect="always"
       style="color-interpolation-filters:sRGB"
       id="filter4858"
       x="-0.011181818"
       width="1.0223636"
       y="-0.012947368"
       height="1.0258947">
      <feGaussianBlur
         inkscape:collect="always"
         stdDeviation="0.205"
         id="feGaussianBlur4860" />
    </filter>
    <filter
       inkscape:collect="always"
       style="color-interpolation-filters:sRGB"
       id="filter4862"
       x="-0.011181818"
       width="1.0223636"
       y="-0.012947368"
       height="1.0258947">
      <feGaussianBlur
         inkscape:collect="always"
         stdDeviation="0.205"
         id="feGaussianBlur4864" />
    </filter>
    <filter
       inkscape:collect="always"
       style="color-interpolation-filters:sRGB"
       id="filter4870"
       x="-0.011249983"
       width="1.0225"
       y="-0.012857165"
       height="1.0257143">
      <feGaussianBlur
         inkscape:collect="always"
         stdDeviation="0.14999978"
         id="feGaussianBlur4872" />
    </filter>
    <filter
       inkscape:collect="always"
       style="color-interpolation-filters:sRGB"
       id="filter4874"
       x="-0.011249983"
       width="1.0225"
       y="-0.012857165"
       height="1.0257143">
      <feGaussianBlur
         inkscape:collect="always"
         stdDeviation="0.14999978"
         id="feGaussianBlur4876" />
    </filter>
    <linearGradient
       inkscape:collect="always"
       xlink:href="#linearGradient4165-3"
       id="linearGradient4449-0"
       gradientUnits="userSpaceOnUse"
       gradientTransform="matrix(10.43473,0,0,10.434772,319.56521,-10458.722)"
       x1="7"
       y1="1011.3622"
       x2="41.000019"
       y2="1045.3622" />
    <linearGradient
       inkscape:collect="always"
       id="linearGradient4165-3">
      <stop
         style="stop-color:#ffffff;stop-opacity:0.05490196"
         offset="0"
         id="stop4167-6" />
      <stop
         style="stop-color:#177ed5;stop-opacity:0;"
         offset="1"
         id="stop4169-7" />
    </linearGradient>
    <linearGradient
       inkscape:collect="always"
       xlink:href="#linearGradient4165-3"
       id="linearGradient4537"
       gradientUnits="userSpaceOnUse"
       gradientTransform="matrix(1.3043412,0,0,1.3043465,234.69565,-845.3403)"
       x1="7"
       y1="1011.3622"
       x2="41.000019"
       y2="1045.3622" />
    <linearGradient
       inkscape:collect="always"
       xlink:href="#linearGradient4165-3"
       id="linearGradient4171-1-0"
       x1="7"
       y1="1011.3622"
       x2="41.000019"
       y2="1045.3622"
       gradientUnits="userSpaceOnUse"
       gradientTransform="matrix(0.95652174,0,0,0.95652174,171.0435,-479.6504)" />
    <linearGradient
       inkscape:collect="always"
       xlink:href="#linearGradient4165-3"
       id="linearGradient4435"
       gradientUnits="userSpaceOnUse"
       gradientTransform="matrix(0.65217041,0,0,0.65217328,122.34777,-158.67056)"
       x1="7"
       y1="1011.3622"
       x2="41.000019"
       y2="1045.3622" />
    <linearGradient
       inkscape:collect="always"
       xlink:href="#linearGradient4165-3"
       id="linearGradient4620"
       gradientUnits="userSpaceOnUse"
       gradientTransform="matrix(0.4782599,0,0,0.47826359,80.52174,24.17187)"
       x1="7"
       y1="1011.3622"
       x2="41.000019"
       y2="1045.3622" />
    <linearGradient
       inkscape:collect="always"
       xlink:href="#linearGradient4165-3"
       id="linearGradient4553"
       gradientUnits="userSpaceOnUse"
       gradientTransform="matrix(0.4782599,0,0,0.47826359,43.52174,25.17187)"
       x1="7"
       y1="1011.3622"
       x2="41.000019"
       y2="1045.3622" />
  </defs>
  <sodipodi:namedview
     id="base"
     pagecolor="#c3c3c3"
     bordercolor="#333333"
     borderopacity="1"
     inkscape:pageopacity="0"
     inkscape:pageshadow="2"
     inkscape:zoom="0.49497475"
     inkscape:cx="-708.52463"
     inkscape:cy="283.2336"
     inkscape:document-units="px"
     inkscape:current-layer="layer2"
     showgrid="true"
     units="px"
     inkscape:showpageshadow="false"
     inkscape:window-width="2560"
     inkscape:window-height="1369"
     inkscape:window-x="0"
     inkscape:window-y="35"
     inkscape:window-maximized="1">
    <inkscape:grid
       type="xygrid"
       id="grid4630" />
  </sodipodi:namedview>
  <metadata
     id="metadata1084">
    <rdf:RDF>
      <cc:Work
         rdf:about="">
        <dc:format>image/svg+xml</dc:format>
        <dc:type
           rdf:resource="http://purl.org/dc/dcmitype/StillImage" />
        <dc:title />
        <cc:license
           rdf:resource="http://creativecommons.org/licenses/by-sa/4.0/" />
        <dc:creator>
          <cc:Agent>
            <dc:title>Peter Cornelis</dc:title>
          </cc:Agent>
        </dc:creator>
      </cc:Work>
      <cc:License
         rdf:about="http://creativecommons.org/licenses/by-sa/4.0/">
        <cc:permits
           rdf:resource="http://creativecommons.org/ns#Reproduction" />
        <cc:permits
           rdf:resource="http://creativecommons.org/ns#Distribution" />
        <cc:requires
           rdf:resource="http://creativecommons.org/ns#Notice" />
        <cc:requires
           rdf:resource="http://creativecommons.org/ns#Attribution" />
        <cc:permits
           rdf:resource="http://creativecommons.org/ns#DerivativeWorks" />
        <cc:requires
           rdf:resource="http://creativecommons.org/ns#ShareAlike" />
      </cc:License>
    </rdf:RDF>
  </metadata>
  <g
     inkscape:label="Baseplate"
     inkscape:groupmode="layer"
     id="layer1"
     transform="translate(0,-153.06668)"
     style="display:none">
    <rect
       style="display:inline;overflow:visible;visibility:visible;fill:#fefefe;fill-opacity:1;fill-rule:nonzero;stroke:none;stroke-width:2;marker:none;enable-background:accumulate"
       id="rect3951"
       width="512"
       height="512"
       x="-826"
       y="169.06668"
       inkscape:label="48x48"
       transform="scale(-1,1)" />
    <text
       y="733.32251"
       xml:space="preserve"
       x="15.006836"
       style="font-style:normal;font-variant:normal;font-weight:normal;font-stretch:normal;line-height:0%;font-family:'DejaVu Sans';-inkscape-font-specification:'DejaVu Sans';display:inline;fill:#000000;fill-opacity:1;stroke:none;enable-background:new"
       inkscape:label="context"
       id="context"><tspan
         style="font-style:normal;font-variant:normal;font-weight:normal;font-stretch:normal;font-size:18px;line-height:1.25;font-family:'DejaVu Sans';-inkscape-font-specification:'DejaVu Sans'"
         y="733.32251"
         x="15.006836"
         sodipodi:role="line"
         id="tspan3933">apps</tspan></text>
    <text
       y="733.32251"
       xml:space="preserve"
       x="142.48828"
       style="font-style:normal;font-variant:normal;font-weight:bold;font-stretch:normal;line-height:0%;font-family:'DejaVu Sans';-inkscape-font-specification:'DejaVu Sans Bold';text-align:start;writing-mode:lr-tb;text-anchor:start;display:inline;fill:#000000;fill-opacity:1;stroke:none;enable-background:new"
       inkscape:label="icon-name"
       id="icon-name"><tspan
         style="font-style:normal;font-variant:normal;font-weight:bold;font-stretch:normal;font-size:18px;line-height:1.25;font-family:'DejaVu Sans';-inkscape-font-specification:'DejaVu Sans Bold'"
         y="733.32251"
         x="142.48828"
         sodipodi:role="line"
         id="tspan3937">preferences-system-windows</tspan></text>
    <rect
       style="display:inline;overflow:visible;visibility:visible;fill:#fefefe;fill-opacity:1;fill-rule:nonzero;stroke:none;stroke-width:2;marker:none;enable-background:accumulate"
       id="rect16x16"
       width="16"
       height="16"
       x="-32"
       y="665.06665"
       inkscape:label="16x16"
       transform="scale(-1,1)" />
    <rect
       style="display:inline;overflow:visible;visibility:visible;fill:#fefefe;fill-opacity:1;fill-rule:nonzero;stroke:none;stroke-width:2;marker:none;enable-background:accumulate"
       id="rect24x24"
       width="24"
       height="24"
       x="-104"
       y="657.06665"
       inkscape:label="24x24"
       transform="scale(-1,1)" />
    <rect
       style="display:inline;overflow:visible;visibility:visible;fill:#fefefe;fill-opacity:1;fill-rule:nonzero;stroke:none;stroke-width:2;marker:none;enable-background:accumulate"
       id="rect32x32"
       width="32"
       height="32"
       x="-154"
       y="649.06665"
       inkscape:label="32x32"
       transform="scale(-1,1)" />
    <rect
       inkscape:label="48x48"
       y="633.06665"
       x="-218"
       height="48"
       width="48"
       id="rect48x48"
       style="display:inline;overflow:visible;visibility:visible;fill:#fefefe;fill-opacity:1;fill-rule:nonzero;stroke:none;stroke-width:2;marker:none;enable-background:accumulate"
       transform="scale(-1,1)" />
    <rect
       transform="scale(-1,1)"
       inkscape:label="48x48"
       y="617.06665"
       x="-298"
       height="64"
       width="64"
       id="rect4493"
       style="display:inline;overflow:visible;visibility:visible;fill:#fefefe;fill-opacity:1;fill-rule:nonzero;stroke:none;stroke-width:0.25;marker:none;enable-background:accumulate" />
    <rect
       transform="scale(-1,1)"
       inkscape:label="24x24"
       y="659.06665"
       x="-67"
       height="22"
       width="22"
       id="rect4495"
       style="display:inline;overflow:visible;visibility:visible;fill:#fefefe;fill-opacity:1;fill-rule:nonzero;stroke:none;stroke-width:1.83333325;marker:none;enable-background:accumulate" />
    <path
       style="display:inline;fill:#ffffff;fill-opacity:0.2;stroke:none;enable-background:new"
       d="m 56,659.06668 c -6.094,0 -11,4.906 -11,11 0,0.16899 0.01792,0.33292 0.02539,0.5 0.261765,-5.85817 5.049598,-10.5 10.974609,-10.5 5.925011,0 10.712844,4.64183 10.974609,10.5 0.0075,-0.16708 0.02539,-0.33101 0.02539,-0.5 0,-6.094 -4.906,-11 -11,-11 z"
       id="rect4613"
       inkscape:connector-curvature="0" />
  </g>
  <g
     inkscape:groupmode="layer"
     id="layer2"
     inkscape:label="Bitmap"
     style="display:inline">
    <path
       inkscape:connector-curvature="0"
       id="path4654"
       d="m 466,50 c -13.296,0 -24,10.704 -24,24 v 24 232 c 0,13.296 10.704,24 24,24 h 304 c 13.296,0 24,-10.704 24,-24 V 98 74 C 794,60.704 783.296,50 770,50 Z"
       style="display:inline;fill:#000000;fill-opacity:0.2;stroke:none;stroke-width:16;filter:url(#filter4660);enable-background:new" />
    <path
       style="display:inline;fill:#000000;fill-opacity:0.2;stroke:none;stroke-width:16;enable-background:new"
       d="m 466,50 c -13.296,0 -24,10.704 -24,24 v 24 232 c 0,13.296 10.704,24 24,24 h 304 c 13.296,0 24,-10.704 24,-24 V 98 74 C 794,60.704 783.296,50 770,50 Z"
       id="path4644"
       inkscape:connector-curvature="0" />
    <path
       style="display:inline;opacity:1;fill:#000000;fill-opacity:0.2;stroke:none;enable-background:new"
       d="m 152,500.5 v 16 c 0,0.831 -0.669,1.5 -1.5,1.5 h -19 c -0.831,0 -1.5,-0.669 -1.5,-1.5 v -16 c 0,-0.831 0.669,-1.5 1.5,-1.5 h 19 c 0.831,0 1.5,0.669 1.5,1.5 z"
       id="rect4512"
       inkscape:connector-curvature="0"
       sodipodi:nodetypes="sssssssss" />
    <path
       style="display:inline;fill:#cdcfd1;fill-opacity:1;stroke:none;enable-background:new"
       d="m 131.5,498 c -0.14795,0 -0.28706,0.0288 -0.42187,0.0684 C 131.21468,498.0357 131.34988,498 131.5,498 Z m -1.5,3 v 14.5 c 0,0.831 0.669,1.5 1.5,1.5 h 19 c 0.831,0 1.5,-0.669 1.5,-1.5 V 501 Z"
       id="rect4468"
       inkscape:connector-curvature="0" />
    <path
       style="display:inline;opacity:1;fill:#000000;fill-opacity:0.2;stroke:none;enable-background:new"
       d="m 51.5,508 c -0.831,0 -1.5,0.669 -1.5,1.5 v 10.5 0.5 0.70117 C 50,521.64437 50.35758,522 50.80078,522 H 51.5 h 13 0.70117 C 66.19903,521.5706 66,521.02328 66,520 v -10.5 c 0,-0.831 -0.669,-1.5 -1.5,-1.5 z"
       id="rect4516"
       inkscape:connector-curvature="0" />
    <path
       style="display:inline;opacity:1;fill:#000000;fill-opacity:0.2;stroke:none;enable-background:new"
       d="m 47.5,514 c -0.831,0 -1.5,0.669 -1.5,1.5 v 10.5 0.5 0.70117 C 46,527.64437 46.35758,528 46.80078,528 H 47.5 h 13 0.70117 C 61.64437,528 62,527.64437 62,527.20117 V 526.5 526 515.5 c 0,-0.831 -0.669,-1.5 -1.5,-1.5 z"
       id="rect4518"
       inkscape:connector-curvature="0" />
    <path
       style="display:inline;fill:#cdcfd1;fill-opacity:1;stroke:none;enable-background:new"
       d="m 50,509 v 10 0.5 0.70117 C 50,520.64437 50.35758,521 50.80078,521 H 51.5 h 13 0.70117 C 66.19903,520.5706 66,520.02328 66,519 v -10 z"
       id="rect4440"
       inkscape:connector-curvature="0" />
    <path
       style="display:inline;fill:#e2e5e7;fill-opacity:1;stroke:none;enable-background:new"
       d="m 46,515 v 10 0.5 0.70117 C 46,526.64437 46.35758,527 46.80078,527 H 47.5 h 13 0.70117 C 61.64437,527 62,526.64437 62,526.20117 V 525.5 525 515 Z"
       id="rect4446"
       inkscape:connector-curvature="0" />
    <path
       style="display:inline;opacity:1;fill:#000000;fill-opacity:0.2;stroke:none;enable-background:new;filter:url(#filter4874)"
       d="m 214,486.6 v 24.79991 c 0,0.8864 -0.7136,1.6 -1.6,1.6 h -28.8 c -0.8864,0 -1.6,-0.7136 -1.6,-1.6 V 486.6 c 0,-0.8864 0.7136,-1.6 1.6,-1.6 h 28.8 c 0.8864,0 1.6,0.7136 1.6,1.6 z"
       id="rect4372"
       inkscape:connector-curvature="0"
       sodipodi:nodetypes="sssssssss" />
    <path
       style="display:inline;fill:#cdcfd1;fill-opacity:1;stroke:none;enable-background:new"
       d="m 182,488 v 22.40039 c 0,0.8864 0.71321,1.59961 1.59961,1.59961 h 28.80078 C 213.28679,512 214,511.28679 214,510.40039 V 488 Z"
       id="rect4203"
       inkscape:connector-curvature="0" />
    <path
       style="display:inline;fill:#4b525f;fill-opacity:1;stroke:none;enable-background:new"
       d="M 183.59961,484 C 182.71321,484 182,484.71321 182,485.59961 V 488 h 32 v -2.40039 C 214,484.71321 213.28679,484 212.40039,484 Z"
       id="path4458"
       inkscape:connector-curvature="0" />
    <path
       style="display:inline;fill:#e2e5e7;fill-opacity:1;stroke:none;enable-background:new"
       d="m 16,516 v 9.5 c 0,0.831 0.669,1.5 1.5,1.5 h 13 c 0.831,0 1.5,-0.669 1.5,-1.5 V 516 Z"
       id="rect4265"
       inkscape:connector-curvature="0"
       sodipodi:nodetypes="csssscc" />
    <path
       style="display:inline;opacity:1;fill:#000000;fill-opacity:0.2;stroke:none;enable-background:new;filter:url(#filter4870)"
       d="M 206,498.60009 V 523.4 c 0,0.8864 -0.7136,1.6 -1.6,1.6 h -28.8 c -0.8864,0 -1.6,-0.7136 -1.6,-1.6 v -24.79991 c 0,-0.8864 0.7136,-1.6 1.6,-1.6 h 28.8 c 0.8864,0 1.6,0.7136 1.6,1.6 z"
       id="rect3598"
       inkscape:connector-curvature="0"
       sodipodi:nodetypes="sssssssss" />
    <path
       style="display:inline;fill:#e2e5e7;fill-opacity:1;stroke:none;enable-background:new"
       d="m 174,500 v 22.40039 c 0,0.8864 0.71321,1.59961 1.59961,1.59961 h 28.80078 C 205.28679,524 206,523.28679 206,522.40039 V 500 Z"
       id="rect3552"
       inkscape:connector-curvature="0" />
    <path
       style="display:inline;fill:#4b525f;fill-opacity:1;stroke:none;enable-background:new"
       d="M 175.59961,496 C 174.71321,496 174,496.71321 174,497.59961 V 500 h 32 v -2.40039 C 206,496.71321 205.28679,496 204.40039,496 Z"
       id="path4460"
       inkscape:connector-curvature="0" />
    <path
       style="display:inline;opacity:1;fill:#000000;fill-opacity:0.2;stroke:none;enable-background:new"
       d="m 145.99999,509.5 v 16 c 0,0.831 -0.669,1.5 -1.5,1.5 h -19 c -0.831,0 -1.5,-0.669 -1.5,-1.5 v -16 c 0,-0.831 0.669,-1.5 1.5,-1.5 h 19 c 0.831,0 1.5,0.669 1.5,1.5 z"
       id="rect4514"
       inkscape:connector-curvature="0"
       sodipodi:nodetypes="sssssssss" />
    <path
       style="display:inline;fill:#e2e5e7;fill-opacity:1;stroke:none;enable-background:new"
       d="m 124,510 v 14.5 c 0,0.831 0.669,1.5 1.5,1.5 h 19 c 0.831,0 1.5,-0.669 1.5,-1.5 V 510 Z"
       id="rect4474"
       inkscape:connector-curvature="0" />
    <path
       id="path4499"
       d="m 125.5,507 c -0.831,0 -1.5,0.669 -1.5,1.5 v 1.5 h 22 v -1.5 c 0,-0.831 -0.669,-1.5 -1.5,-1.5 z"
       style="display:inline;fill:#4b525f;fill-opacity:1;stroke:none;enable-background:new"
       inkscape:connector-curvature="0"
       sodipodi:nodetypes="ssccsss" />
    <path
       style="display:inline;opacity:1;fill:#ffffff;fill-opacity:0.2;stroke:none;enable-background:new"
       d="m 125.5,507 c -0.831,0 -1.5,0.669 -1.5,1.5 v 1 c 0,-0.831 0.669,-1.5 1.5,-1.5 h 19 c 0.831,0 1.5,0.669 1.5,1.5 v -1 c 0,-0.831 -0.669,-1.5 -1.5,-1.5 z"
       id="rect4578"
       inkscape:connector-curvature="0"
       sodipodi:nodetypes="sscsscsss" />
    <path
       id="path4521"
       d="m 47,513 c 0.2002,0 -1,0 -0.9743,0.99604 0,0 -0.0257,0.49232 -0.0257,1.00396 h 16 v -1.2002 C 62,513.3566 61.64339,513 61.20019,513 Z"
       style="display:inline;fill:#4b525f;fill-opacity:1;stroke:none;enable-background:new"
       inkscape:connector-curvature="0"
       sodipodi:nodetypes="csccssc" />
    <path
       sodipodi:nodetypes="ssccsss"
       inkscape:connector-curvature="0"
       style="display:inline;fill:#4b525f;fill-opacity:1;stroke:none;enable-background:new"
       d="m 131.5,498 c -0.831,0 -1.5,0.5 -1.5,1.5 v 1.5 h 22 v -1.5 c 0,-0.831 -0.669,-1.5 -1.5,-1.5 z"
       id="path4501" />
    <path
       style="display:inline;opacity:1;fill:#ffffff;fill-opacity:0.2;stroke:none;enable-background:new"
       d="m 131.5,498 c -0.831,0 -1.5,0.669 -1.5,1.5 v 1 c 0,-0.831 0.669,-1.5 1.5,-1.5 h 19 c 0.831,0 1.5,0.669 1.5,1.5 v -1 c 0,-0.831 -0.669,-1.5 -1.5,-1.5 z"
       id="rect4576"
       inkscape:connector-curvature="0"
       sodipodi:nodetypes="sscsscsss" />
    <path
       id="path4519"
       d="M 50.7998,507 C 50.3566,507 50,507.3566 50,507.7998 V 509 h 16 v -1.2002 C 66,507.3566 65.64339,507 65.20019,507 Z"
       style="display:inline;fill:#4b525f;fill-opacity:1;stroke:none;enable-background:new"
       inkscape:connector-curvature="0" />
    <path
       style="display:inline;opacity:1;fill:#ffffff;fill-opacity:0.2;stroke:none;enable-background:new"
       d="M 50.79883,507 C 50.35563,507 50,507.35563 50,507.79883 v 1 C 50,508.35563 50.35563,508 50.79883,508 H 65.19922 C 65.64242,508 66,508.35563 66,508.79883 v -1 C 66,507.35563 65.64242,507 65.19922,507 Z"
       id="path4552"
       inkscape:connector-curvature="0" />
    <path
       id="path4557"
       d="M 46.79883,513 C 46.35563,513 46,513.35563 46,513.79883 v 1 C 46,514.35563 46.35563,514 46.79883,514 H 61.19922 C 61.64242,514 62,514.35563 62,514.79883 v -1 C 62,513.35563 61.64242,513 61.19922,513 Z"
       style="display:inline;opacity:1;fill:#ffffff;fill-opacity:0.2;stroke:none;enable-background:new"
       inkscape:connector-curvature="0" />
    <path
       style="display:inline;fill:#4b525f;fill-opacity:1;stroke:none;enable-background:new"
       d="m 17.5,513 c -0.831,0 -1.5,0.669 -1.5,1.5 v 1.5 h 16 v -1.5 c 0,-0.831 -0.669,-1.5 -1.5,-1.5 z"
       id="path4563"
       inkscape:connector-curvature="0"
       sodipodi:nodetypes="ssccsss" />
    <path
       inkscape:connector-curvature="0"
       id="path4574"
       d="m 87.5,507 c -0.831,0 -1.5,0.669 -1.5,1.5 v 10.5 0.5 0.70117 C 86,520.64437 86.35758,521 86.80078,521 H 87.5 h 13 0.70117 C 102.19903,520.5706 102,520.02328 102,519 v -10.5 c 0,-0.831 -0.669,-1.5 -1.5,-1.5 z"
       style="display:inline;opacity:1;fill:#000000;fill-opacity:0.2;stroke:none;enable-background:new" />
    <path
       inkscape:connector-curvature="0"
       id="path4576"
       d="m 83.5,513 c -0.831,0 -1.5,0.669 -1.5,1.5 v 10.5 0.5 0.70117 C 82,526.64437 82.35758,527 82.80078,527 H 83.5 h 13 0.70117 C 97.64437,527 98,526.64437 98,526.20117 V 525.5 525 514.5 c 0,-0.831 -0.669,-1.5 -1.5,-1.5 z"
       style="display:inline;opacity:1;fill:#000000;fill-opacity:0.2;stroke:none;enable-background:new" />
    <path
       inkscape:connector-curvature="0"
       id="path4578"
       d="m 86,508 v 10 0.5 0.70117 C 86,519.64437 86.35758,520 86.80078,520 H 87.5 h 13 0.70117 C 102.19903,519.5706 102,519.02328 102,518 v -10 z"
       style="display:inline;fill:#cdcfd1;fill-opacity:1;stroke:none;enable-background:new" />
    <path
       inkscape:connector-curvature="0"
       id="path4580"
       d="m 82,514 v 10 0.5 0.70117 C 82,525.64437 82.35758,526 82.80078,526 H 83.5 h 13 0.70117 C 97.64437,526 98,525.64437 98,525.20117 V 524.5 524 514 Z"
       style="display:inline;fill:#e2e5e7;fill-opacity:1;stroke:none;enable-background:new" />
    <path
       sodipodi:nodetypes="csccssc"
       inkscape:connector-curvature="0"
       style="display:inline;fill:#4b525f;fill-opacity:1;stroke:none;enable-background:new"
       d="m 83,512 c 0.2002,0 -1,0 -0.9743,0.99604 0,0 -0.0257,0.49232 -0.0257,1.00396 h 16 v -1.2002 C 98,512.3566 97.64339,512 97.20019,512 Z"
       id="path4582" />
    <path
       inkscape:connector-curvature="0"
       style="display:inline;fill:#4b525f;fill-opacity:1;stroke:none;enable-background:new"
       d="M 86.7998,506 C 86.3566,506 86,506.3566 86,506.7998 V 508 h 16 v -1.2002 C 102,506.3566 101.64339,506 101.20019,506 Z"
       id="path4584" />
    <path
       inkscape:connector-curvature="0"
       id="path4586"
       d="M 86.79883,506 C 86.35563,506 86,506.35563 86,506.79883 v 1 C 86,507.35563 86.35563,507 86.79883,507 h 14.40039 c 0.4432,0 0.80078,0.35563 0.80078,0.79883 v -1 C 102,506.35563 101.64242,506 101.19922,506 Z"
       style="display:inline;opacity:1;fill:#ffffff;fill-opacity:0.2;stroke:none;enable-background:new" />
    <path
       inkscape:connector-curvature="0"
       style="display:inline;opacity:1;fill:#ffffff;fill-opacity:0.2;stroke:none;enable-background:new"
       d="M 82.79883,512 C 82.35563,512 82,512.35563 82,512.79883 v 1 C 82,513.35563 82.35563,513 82.79883,513 H 97.19922 C 97.64242,513 98,513.35563 98,513.79883 v -1 C 98,512.35563 97.64242,512 97.19922,512 Z"
       id="path4588" />
    <path
       style="display:inline;fill:#000000;fill-opacity:0.2;stroke:none;stroke-width:2;enable-background:new;filter:url(#filter4862)"
       d="M 241 487 C 240.84146 487 240.68885 487.01934 240.53906 487.04688 C 239.09936 487.26902 238 488.49618 238 490 L 238 493 L 238 522 C 238 523.662 239.338 525 241 525 L 279 525 C 280.662 525 282 523.662 282 522 L 282 493 L 282 490 C 282 488.338 280.662 487 279 487 L 241 487 z "
       id="path4611" />
    <path
       id="path4856"
       d="m 253,469 c -0.15854,0 -0.31115,0.0193 -0.46094,0.0469 C 251.09936,469.26902 250,470.49618 250,472 v 3 29 c 0,1.662 1.338,3 3,3 h 38 c 1.662,0 3,-1.338 3,-3 v -29 -3 c 0,-1.662 -1.338,-3 -3,-3 z"
       style="display:inline;fill:#000000;fill-opacity:0.2;stroke:none;stroke-width:2;enable-background:new;filter:url(#filter4858)"
       inkscape:connector-curvature="0" />
    <path
       inkscape:connector-curvature="0"
       id="path4601"
       d="m 253,468.00003 c -0.2959,0 -0.57412,0.0576 -0.84374,0.1368 0.2731,-0.0654 0.5435,-0.1368 0.84374,-0.1368 z m -3,6 v 29 c 0,1.662 1.338,3 3,3 h 38 c 1.662,0 3,-1.338 3,-3 v -29 z"
       style="display:inline;fill:#cdcfd1;fill-opacity:1;stroke:none;stroke-width:2;enable-background:new" />
    <path
       inkscape:connector-curvature="0"
       id="path4603"
       d="m 238,492.00003 v 29 c 0,1.662 1.338,3 3,3 h 38 c 1.662,0 3,-1.338 3,-3 v -29 z"
       style="display:inline;fill:#e2e5e7;fill-opacity:1;stroke:none;stroke-width:2;enable-background:new" />
    <path
       sodipodi:nodetypes="ssccsss"
       inkscape:connector-curvature="0"
       style="display:inline;fill:#4b525f;fill-opacity:1;stroke:none;stroke-width:2;enable-background:new"
       d="m 241,486.00003 c -1.662,0 -3,1.338 -3,3 v 3 h 44 v -3 c 0,-1.662 -1.338,-3 -3,-3 z"
       id="path4605" />
    <path
       id="path4607"
       d="m 253,468.00003 c -1.662,0 -3,1 -3,3 v 3 h 44 v -3 c 0,-1.662 -1.338,-3 -3,-3 z"
       style="display:inline;fill:#4b525f;fill-opacity:1;stroke:none;stroke-width:2;enable-background:new"
       inkscape:connector-curvature="0"
       sodipodi:nodetypes="ssccsss" />
    <path
       inkscape:connector-curvature="0"
       style="display:inline;fill:#ffffff;fill-opacity:0.2;stroke:none;stroke-width:2;enable-background:new"
       d="m 241,486 c -1.662,0 -3,1.338 -3,3 v 1 c 0,-1.662 1.338,-3 3,-3 h 38 c 1.662,0 3,1.338 3,3 v -1 c 0,-1.662 -1.338,-3 -3,-3 z"
       id="path4613" />
    <path
       id="path4618"
       d="m 291,468 c 1.662,0 3,1.338 3,3 v 1 c 0,-1.662 -1.338,-3 -3,-3 h -38 c -1.662,0 -3,1.338 -3,3 v -1 c 0,-1.662 1.338,-3 3,-3 z"
       style="display:inline;fill:#ffffff;fill-opacity:0.2;stroke:none;stroke-width:2;enable-background:new"
       inkscape:connector-curvature="0" />
    <path
       inkscape:connector-curvature="0"
       style="display:inline;fill:#ffffff;fill-opacity:0.2;stroke:none;enable-background:new"
       d="M 175.59961,496 C 174.71321,496 174,496.71321 174,497.59961 v 1 C 174,497.71321 174.71321,497 175.59961,497 h 28.80078 c 0.8864,0 1.59961,0.71321 1.59961,1.59961 v -1 C 206,496.71321 205.28679,496 204.40039,496 Z"
       id="path4620" />
    <path
       id="path4625"
       d="M 183.59961,484 C 182.71321,484 182,484.71321 182,485.59961 v 1 C 182,485.71321 182.71321,485 183.59961,485 h 28.80078 c 0.8864,0 1.59961,0.71321 1.59961,1.59961 v -1 C 214,484.71321 213.28679,484 212.40039,484 Z"
       style="display:inline;fill:#ffffff;fill-opacity:0.2;stroke:none;enable-background:new"
       inkscape:connector-curvature="0" />
    <path
       style="display:inline;fill:#cdcfd1;fill-opacity:1;stroke:none;stroke-width:16;enable-background:new"
       d="m 466,48.00045 c -2.3672,0 -4.59296,0.4608 -6.74992,1.0944 2.1848,-0.5232 4.348,-1.0944 6.74992,-1.0944 z m -24,48 v 232 c 0,13.296 10.704,24 24,24 h 304 c 13.296,0 24,-10.704 24,-24 v -232 z"
       id="path4629"
       inkscape:connector-curvature="0" />
    <path
       inkscape:connector-curvature="0"
       style="display:inline;fill:#000000;fill-opacity:0.2;stroke:none;stroke-width:16;enable-background:new"
       d="m 370,194 c -13.296,0 -24,10.704 -24,24 v 24 232 c 0,13.296 10.704,24 24,24 h 304 c 13.296,0 24,-10.704 24,-24 V 242 218 c 0,-13.296 -10.704,-24 -24,-24 z"
       id="path4637" />
    <path
       inkscape:connector-curvature="0"
       id="path4642"
       d="m 370,194 c -13.296,0 -24,10.704 -24,24 v 24 232 c 0,13.296 10.704,24 24,24 h 304 c 13.296,0 24,-10.704 24,-24 V 242 218 c 0,-13.296 -10.704,-24 -24,-24 z"
       style="display:inline;fill:#000000;fill-opacity:0.2;stroke:none;stroke-width:16;filter:url(#filter4650);enable-background:new" />
    <path
       style="display:inline;fill:#e2e5e7;fill-opacity:1;stroke:none;stroke-width:16;enable-background:new"
       d="m 346,240.00045 v 232 c 0,13.296 10.704,24 24,24 h 304 c 13.296,0 24,-10.704 24,-24 v -232 z"
       id="path4631"
       inkscape:connector-curvature="0" />
    <path
       id="path4633"
       d="m 370,192.00045 c -13.296,0 -24,10.704 -24,24 v 24 h 352 v -24 c 0,-13.296 -10.704,-24 -24,-24 z"
       style="display:inline;fill:#4b525f;fill-opacity:1;stroke:none;stroke-width:16;enable-background:new"
       inkscape:connector-curvature="0"
       sodipodi:nodetypes="ssccsss" />
    <path
       sodipodi:nodetypes="ssccsss"
       inkscape:connector-curvature="0"
       style="display:inline;fill:#4b525f;fill-opacity:1;stroke:none;stroke-width:16;enable-background:new"
       d="m 466,48.00045 c -13.296,0 -24,8 -24,24 v 24 h 352 v -24 c 0,-13.296 -10.704,-24 -24,-24 z"
       id="path4635" />
    <path
       style="display:inline;fill:#ffffff;fill-opacity:0.2;stroke:none;stroke-width:16;enable-background:new"
       d="M 466 48 C 452.704 48 442 56 442 72 L 442 74 C 442 58 452.704 50 466 50 L 770 50 C 783.296 50 794 60.704 794 74 L 794 72 C 794 58.704 783.296 48 770 48 L 466 48 z "
       id="path4841" />
    <path
       style="display:inline;fill:#ffffff;fill-opacity:0.2;stroke:none;stroke-width:16;enable-background:new"
       d="M 370 192 C 356.704 192 346 202.704 346 216 L 346 218 C 346 204.704 356.704 194 370 194 L 674 194 C 687.296 194 698 204.704 698 218 L 698 216 C 698 202.704 687.296 192 674 192 L 370 192 z "
       id="path4848" />
    <path
       style="display:inline;fill:url(#linearGradient4171-1-0);fill-opacity:1;stroke:none;stroke-width:2;stroke-linecap:round;stroke-linejoin:round;stroke-miterlimit:4;stroke-dasharray:none;stroke-opacity:1;enable-background:new"
       d="m 183.59961,484 c -0.22008,0 -0.42868,0.0434 -0.61914,0.12305 -0.0951,0.0399 -0.18687,0.0898 -0.27149,0.14648 -0.0846,0.0567 -0.16233,0.11997 -0.23437,0.19141 -0.072,0.0714 -0.1379,0.15025 -0.19531,0.23437 -0.10505,0.15392 -0.18022,0.32906 -0.22657,0.51563 -0.005,0.0186 -0.0117,0.0358 -0.0156,0.0547 -0.0215,0.10213 -0.034,0.20799 -0.0352,0.31641 -6e-5,0.006 -0.002,0.0115 -0.002,0.0176 V 488 v 8 h -6.40039 c -0.8864,0 -1.59961,0.71321 -1.59961,1.59961 V 500 v 13.11133 9.28906 c 0,0.8864 0.71321,1.59961 1.59961,1.59961 h 9.32031 18.17969 1.30078 c 0.22008,0 0.42868,-0.0434 0.61914,-0.12305 0.0952,-0.0399 0.18683,-0.0897 0.27149,-0.14648 0.0847,-0.0568 0.16427,-0.12183 0.23632,-0.19336 0.13835,-0.13735 0.24927,-0.29984 0.33008,-0.48047 0.003,-0.007 0.008,-0.014 0.0117,-0.0215 2.4e-4,-5.7e-4 -2.4e-4,-10e-4 0,-0.002 0.0361,-0.0844 0.0627,-0.17436 0.084,-0.26562 0.003,-0.0107 0.007,-0.0204 0.01,-0.0312 1.3e-4,-6.2e-4 -1.3e-4,-10e-4 0,-0.002 0.0217,-0.10282 0.0341,-0.20916 0.0352,-0.31836 5e-5,-0.005 0.002,-0.0102 0.002,-0.0156 V 512 h 6.40039 c 0.8864,0 1.59961,-0.71321 1.59961,-1.59961 V 494.89258 488 485.59961 C 214,484.71321 213.28679,484 212.40039,484 h -9.32031 -18.17969 z"
       id="circle4163-3-4"
       inkscape:connector-curvature="0" />
    <path
       style="display:inline;fill:url(#linearGradient4435);fill-opacity:1;stroke:none;stroke-width:2;stroke-linecap:round;stroke-linejoin:round;stroke-miterlimit:4;stroke-dasharray:none;stroke-opacity:1;enable-background:new"
       d="m 131.5,498 c -0.14795,0 -0.28706,0.0288 -0.42188,0.0684 -0.14513,0.0347 -0.27868,0.0922 -0.40234,0.16211 -0.0961,0.0563 -0.17978,0.12792 -0.25781,0.20703 -0.018,0.0174 -0.0397,0.0303 -0.0566,0.0488 -0.17987,0.20617 -0.2972,0.4815 -0.33203,0.82422 -1.6e-4,0.002 -0.002,0.002 -0.002,0.004 -0.006,0.0642 -0.0273,0.11632 -0.0273,0.18555 v 1.5 6 h -4.5 c -0.831,0 -1.5,0.669 -1.5,1.5 v 1.5 7.33594 7.16406 c 0,0.831 0.669,1.5 1.5,1.5 h 7.1875 10.64453 1.16797 c 0.10321,0 0.20354,-0.0116 0.30078,-0.0312 0.0101,-0.002 0.0193,-0.006 0.0293,-0.008 0.0769,-0.0172 0.15076,-0.0399 0.22265,-0.0684 0.15941,-0.0637 0.30524,-0.15397 0.43165,-0.26563 0.006,-0.005 0.0121,-0.009 0.0176,-0.0137 0.12655,-0.11519 0.23324,-0.25354 0.31446,-0.40625 0.004,-0.007 0.008,-0.0142 0.0117,-0.0215 0.0385,-0.0754 0.0701,-0.15413 0.0957,-0.23633 0.0263,-0.0845 0.0453,-0.17152 0.0566,-0.26172 3.3e-4,-0.003 0.002,-0.005 0.002,-0.008 0.007,-0.0596 0.0176,-0.11807 0.0176,-0.17969 v -7.5 h 4.5 c 0.831,0 1.5,-0.669 1.5,-1.5 v -8.83594 -5.66406 -1.5 c 0,-0.831 -0.669,-1.5 -1.5,-1.5 h -7.18555 -10.65039 z"
       id="path4433"
       inkscape:connector-curvature="0" />
    <path
       style="display:inline;fill:url(#linearGradient4449-0);fill-opacity:1;stroke:none;stroke-width:16;stroke-linecap:round;stroke-linejoin:round;stroke-miterlimit:4;stroke-dasharray:none;stroke-opacity:1;enable-background:new"
       d="m 466,48 c -0.80197,0 -1.59367,0.0316 -2.375,0.0898 -0.29901,0.0223 -0.58914,0.0668 -0.88477,0.0977 -0.48568,0.0506 -0.97337,0.0983 -1.44921,0.17188 -0.62799,0.0972 -1.24644,0.21426 -1.85547,0.35156 -0.10541,0.0237 -0.21161,0.0454 -0.31641,0.0703 -0.61735,0.14705 -1.2232,0.31714 -1.81836,0.50586 -0.0913,0.0289 -0.18271,0.058 -0.27344,0.0879 -0.59986,0.19785 -1.18724,0.41555 -1.76172,0.65625 -0.0813,0.0341 -0.16137,0.0706 -0.24218,0.10547 -0.57925,0.25046 -1.14684,0.52181 -1.69727,0.81641 -0.12007,0.0642 -0.23879,0.13092 -0.35742,0.19726 -0.18582,0.10395 -0.37248,0.20731 -0.55469,0.31641 -0.12675,0.0759 -0.25003,0.15601 -0.375,0.23437 -0.16555,0.10384 -0.33179,0.20624 -0.49414,0.31446 -0.17568,0.11706 -0.34768,0.23914 -0.51953,0.36132 -0.11984,0.0852 -0.24143,0.16814 -0.35937,0.25586 -0.12389,0.0921 -0.24348,0.19029 -0.36524,0.28516 -0.16707,0.13022 -0.33508,0.25913 -0.49805,0.39453 -0.2664,0.22132 -0.52808,0.44844 -0.7832,0.68359 -0.15084,0.139 -0.29462,0.28587 -0.44141,0.42969 -0.10587,0.10377 -0.21463,0.20426 -0.31835,0.31055 -0.17767,0.18206 -0.3483,0.37111 -0.51954,0.56055 -0.0637,0.0705 -0.13051,0.13743 -0.19335,0.20898 -0.17763,0.20224 -0.34928,0.41263 -0.51954,0.62305 -0.0556,0.0688 -0.11311,0.13543 -0.16796,0.20507 -0.15493,0.19673 -0.30275,0.39983 -0.45118,0.60352 -0.0675,0.0926 -0.13697,0.18328 -0.20312,0.27734 -0.1426,0.20284 -0.27986,0.41156 -0.41602,0.6211 -0.0631,0.097 -0.12779,0.19255 -0.18945,0.29101 -0.13364,0.21347 -0.26174,0.43213 -0.38867,0.65235 -0.0595,0.10325 -0.1197,0.2058 -0.17774,0.31054 -0.11845,0.21383 -0.23162,0.43233 -0.34375,0.65235 -0.0611,0.11983 -0.12246,0.23966 -0.18164,0.36133 -0.10538,0.2167 -0.20739,0.43763 -0.30664,0.66015 -0.0611,0.13701 -0.12093,0.27485 -0.17969,0.41406 -0.0884,0.20947 -0.17483,0.42031 -0.25781,0.63477 -0.0574,0.14834 -0.11319,0.29849 -0.16797,0.44922 -0.0859,0.23634 -0.16873,0.47458 -0.24804,0.7168 -0.0421,0.12852 -0.0828,0.25849 -0.12305,0.38867 -0.0761,0.24631 -0.14943,0.49581 -0.21875,0.74804 -0.0428,0.15592 -0.0828,0.31449 -0.12305,0.47266 -0.0613,0.24113 -0.1226,0.48213 -0.17773,0.72852 -0.0363,0.1621 -0.068,0.3278 -0.10156,0.49218 -0.0518,0.2539 -0.10315,0.50826 -0.14844,0.76758 -0.0268,0.15372 -0.0497,0.31117 -0.0742,0.4668 -0.0438,0.27804 -0.0887,0.55571 -0.125,0.83984 -0.0153,0.12016 -0.0251,0.244 -0.0391,0.36524 -0.038,0.33 -0.0757,0.65997 -0.10352,0.99804 C 442.04001,70.1368 442,71.05328 442,72 v 24 96 h -72 c -13.296,0 -24,10.704 -24,24 V 240 357.37695 472 c 0,13.296 10.704,24 24,24 H 484.98242 655.36523 674 c 0.39976,0 0.79655,-0.0102 1.19141,-0.0293 0.17103,-0.008 0.33971,-0.0253 0.50976,-0.0371 0.21771,-0.0151 0.43631,-0.028 0.65235,-0.0488 0.18677,-0.018 0.37116,-0.0422 0.55664,-0.0645 0.21084,-0.0253 0.42176,-0.0494 0.63086,-0.0801 0.15449,-0.0227 0.30743,-0.0506 0.46093,-0.0762 0.23624,-0.0394 0.47323,-0.0788 0.70703,-0.125 0.15206,-0.03 0.30214,-0.0648 0.45313,-0.0976 0.22385,-0.0487 0.44654,-0.0994 0.66797,-0.1543 0.15044,-0.0373 0.29993,-0.0771 0.44922,-0.11719 0.22571,-0.0606 0.45083,-0.12249 0.67382,-0.18945 0.14527,-0.0436 0.28953,-0.0885 0.4336,-0.13477 0.21252,-0.0683 0.42296,-0.13894 0.63281,-0.21289 0.15615,-0.055 0.31217,-0.11176 0.4668,-0.16992 0.13958,-0.0525 0.2777,-0.10907 0.41601,-0.16406 0.5984,-0.238 1.18648,-0.49575 1.75977,-0.7793 0.0546,-0.027 0.10775,-0.0566 0.16211,-0.084 0.60239,-0.30372 1.19202,-0.62879 1.76367,-0.98047 0.0229,-0.0141 0.0455,-0.0288 0.0684,-0.043 0.59292,-0.36753 1.16985,-0.75746 1.72656,-1.17383 0.5706,-0.42675 1.12095,-0.88054 1.65039,-1.35547 10e-4,-9.4e-4 0.003,-10e-4 0.004,-0.002 6.9e-4,-6.2e-4 10e-4,-10e-4 0.002,-0.002 0.51459,-0.46188 1.00772,-0.94672 1.48047,-1.45118 0.0221,-0.0235 0.0444,-0.0467 0.0664,-0.0703 0.46,-0.49484 0.89727,-1.01033 1.31445,-1.54297 0.028,-0.0358 0.0561,-0.0715 0.084,-0.10742 0.41739,-0.53921 0.81262,-1.09528 1.18359,-1.66992 0.0133,-0.0206 0.0258,-0.0418 0.0391,-0.0625 0.37515,-0.58507 0.72849,-1.18799 1.05274,-1.80664 0.004,-0.007 0.008,-0.0128 0.0117,-0.0195 0.005,-0.01 0.009,-0.0198 0.0137,-0.0293 1.32541,-2.54311 2.20932,-5.35521 2.55078,-8.33789 C 697.94043,473.86849 698,472.94164 698,472 V 352 h 72 c 13.296,0 24,-10.704 24,-24 V 186.6543 96 72 C 794,58.704 783.296,48 770,48 H 655.00781 484.625 Z"
       id="path4447"
       inkscape:connector-curvature="0" />
    <path
       style="display:inline;fill:url(#linearGradient4537);fill-opacity:1;stroke:none;stroke-width:2;stroke-linecap:round;stroke-linejoin:round;stroke-miterlimit:4;stroke-dasharray:none;stroke-opacity:1;enable-background:new"
       d="m 253,468 c -0.2017,0 -0.39754,0.0155 -0.58789,0.0449 -0.0775,0.0122 -0.14953,0.0356 -0.22461,0.0527 -0.10409,0.0234 -0.20948,0.0454 -0.30859,0.0781 -0.11626,0.039 -0.22376,0.0905 -0.33203,0.14258 -0.0484,0.0229 -0.0998,0.0409 -0.14649,0.0664 -0.13306,0.0738 -0.25756,0.16091 -0.375,0.25585 -0.0139,0.011 -0.0293,0.0199 -0.043,0.0313 -0.12879,0.10865 -0.24724,0.23035 -0.35351,0.36523 -0.10858,0.13781 -0.20515,0.28803 -0.28711,0.45312 -0.082,0.1651 -0.15091,0.34482 -0.20313,0.53711 -0.0522,0.1923 -0.0881,0.3978 -0.10742,0.61719 C 250.02082,470.76295 250,470.87359 250,471 v 3 12 h -9 c -1.662,0 -3,1.338 -3,3 v 3 14.67188 V 521 c 0,1.662 1.338,3 3,3 H 255.37305 276.67188 279 c 0.19972,0 0.39343,-0.0217 0.58203,-0.0586 0.0796,-0.0156 0.15338,-0.0446 0.23047,-0.0664 0.10327,-0.029 0.20827,-0.0543 0.30664,-0.0937 0.0946,-0.0383 0.18212,-0.0893 0.27148,-0.13672 0.072,-0.0378 0.14649,-0.0719 0.21485,-0.11523 0.1009,-0.0647 0.19311,-0.13878 0.28515,-0.21485 0.0438,-0.0358 0.0892,-0.0693 0.13086,-0.10742 0.10199,-0.0946 0.19717,-0.19866 0.28516,-0.30664 0.0227,-0.0275 0.0467,-0.0537 0.0684,-0.082 0.097,-0.12808 0.18396,-0.26308 0.25977,-0.40625 0.002,-0.005 0.005,-0.009 0.008,-0.0137 0.002,-0.003 0.002,-0.007 0.004,-0.01 0.0802,-0.15475 0.14829,-0.31711 0.20118,-0.48633 4.3e-4,-10e-4 0.002,-0.003 0.002,-0.004 3.7e-4,-10e-4 -3.7e-4,-0.003 0,-0.004 0.053,-0.17107 0.0911,-0.34847 0.11328,-0.53125 2.4e-4,-0.002 0.002,-0.004 0.002,-0.006 C 281.979,521.23874 282,521.12262 282,521 v -15 h 9 c 1.662,0 3,-1.338 3,-3 V 485.33008 474 471 c 0,-1.662 -1.338,-3 -3,-3 h -14.375 -21.29688 z"
       id="path4535"
       inkscape:connector-curvature="0" />
    <path
       style="display:inline;fill:url(#linearGradient4620);fill-opacity:1;stroke:none;stroke-width:1.46667397;stroke-linecap:round;stroke-linejoin:round;stroke-miterlimit:4;stroke-dasharray:none;stroke-opacity:1;enable-background:new"
       d="m 86.798828,506 c -0.1108,0 -0.216835,0.0222 -0.3125,0.0625 -0.09439,0.0398 -0.178579,0.0969 -0.25,0.16797 -0.07181,0.0714 -0.129413,0.1572 -0.169922,0.25195 -0.04051,0.0948 -0.06334,0.19877 -0.06445,0.3086 -2.8e-5,0.003 -0.002,0.005 -0.002,0.008 V 508 v 4 h -3 c 0.2002,0 -1.000309,5e-5 -0.974609,0.99609 0,0 -0.02539,0.49227 -0.02539,1.00391 v 6.55469 3.44531 0.5 0.70117 c 0,0.4432 0.357581,0.79883 0.800781,0.79883 H 83.5 87.460938 96.5 h 0.05078 0.650391 c 0.220201,0 0.418888,-0.0876 0.5625,-0.23047 0.07181,-0.0714 0.129413,-0.1572 0.169922,-0.25195 0.04051,-0.0948 0.06334,-0.19877 0.06445,-0.3086 2.8e-5,-0.003 0.002,-0.005 0.002,-0.008 v -0.70117 -0.5 -4 h 2.499997 0.70117 C 102.19903,519.5706 102,519.02328 102,518 V 511.44531 508 506.79883 C 102,506.35563 101.64242,506 101.19922,506 h -4.660158 -9.089843 z"
       id="path4618-3"
       inkscape:connector-curvature="0" />
    <path
       style="display:inline;fill:url(#linearGradient4553);fill-opacity:1;stroke:none;stroke-width:1.46667397;stroke-linecap:round;stroke-linejoin:round;stroke-miterlimit:4;stroke-dasharray:none;stroke-opacity:1;enable-background:new"
       d="M 50.798828,507 C 50.355628,507 50,507.35563 50,507.79883 V 509 v 4 h -3 c 0.2002,0 -1.000309,5e-5 -0.974609,0.99609 0,0 -0.02539,0.49227 -0.02539,1.00391 v 8.31445 1.68555 0.5 0.70117 C 46,526.64437 46.357581,527 46.800781,527 H 47.5 50.460938 59.550781 60.5 61.201172 C 61.644372,527 62,526.64437 62,526.20117 V 525.5 525.47266 525 521 h 2.5 0.701172 c 0.01656,-0.007 0.02706,-0.0143 0.04297,-0.0215 a 10.999861,11.000059 0 0 0 0,-0.002 c 0.117696,-0.0533 0.217701,-0.10838 0.302734,-0.16601 C 66.142108,520.40709 66,519.88022 66,519 v -2 -8 -1.20117 C 66,507.35563 65.642419,507 65.199219,507 h -5.660157 z"
       id="path4551"
       inkscape:connector-curvature="0" />
  </g>
</svg>
