<?xml version="1.0" encoding="UTF-8" standalone="no"?>
<!-- Created with Inkscape (http://www.inkscape.org/) -->

<svg
   xmlns:dc="http://purl.org/dc/elements/1.1/"
   xmlns:cc="http://creativecommons.org/ns#"
   xmlns:rdf="http://www.w3.org/1999/02/22-rdf-syntax-ns#"
   xmlns:svg="http://www.w3.org/2000/svg"
   xmlns="http://www.w3.org/2000/svg"
   xmlns:xlink="http://www.w3.org/1999/xlink"
   xmlns:sodipodi="http://sodipodi.sourceforge.net/DTD/sodipodi-0.dtd"
   xmlns:inkscape="http://www.inkscape.org/namespaces/inkscape"
   width="736"
   height="544"
   viewBox="0 0 736 544"
   version="1.1"
   id="svg1087"
   inkscape:version="0.92.1 r"
   sodipodi:docname="preferences-system-notifications.svg">
  <defs
     id="defs1081">
    <linearGradient
       id="linearGradient5354"
       inkscape:collect="always">
      <stop
         id="stop5350"
         offset="0"
         style="stop-color:#ffffff;stop-opacity:0.05490196" />
      <stop
         id="stop5352"
         offset="1"
         style="stop-color:#177ed5;stop-opacity:0;" />
    </linearGradient>
    <linearGradient
       id="linearGradient5348"
       inkscape:collect="always">
      <stop
         id="stop5344"
         offset="0"
         style="stop-color:#ffffff;stop-opacity:0.05490196" />
      <stop
         id="stop5346"
         offset="1"
         style="stop-color:#177ed5;stop-opacity:0;" />
    </linearGradient>
    <linearGradient
       id="linearGradient5342"
       inkscape:collect="always">
      <stop
         id="stop5338"
         offset="0"
         style="stop-color:#ffffff;stop-opacity:0.05490196" />
      <stop
         id="stop5340"
         offset="1"
         style="stop-color:#177ed5;stop-opacity:0;" />
    </linearGradient>
    <linearGradient
       inkscape:collect="always"
       xlink:href="#linearGradient4165"
       id="linearGradient4603"
       gradientUnits="userSpaceOnUse"
       gradientTransform="matrix(0.43478029,0,0,0.43478192,53.56526,68.886871)"
       x1="7"
       y1="1011.3622"
       x2="41.000019"
       y2="1045.3622" />
    <linearGradient
       inkscape:collect="always"
       id="linearGradient4165">
      <stop
         style="stop-color:#ffffff;stop-opacity:0.05490196"
         offset="0"
         id="stop4167" />
      <stop
         style="stop-color:#177ed5;stop-opacity:0;"
         offset="1"
         id="stop4169" />
    </linearGradient>
    <linearGradient
       inkscape:collect="always"
       xlink:href="#linearGradient4462"
       id="linearGradient4601"
       gradientUnits="userSpaceOnUse"
       gradientTransform="matrix(0.5,0,0,0.5,-15,382)"
       x1="170"
       y1="256"
       x2="177"
       y2="264" />
    <linearGradient
       id="linearGradient4462"
       inkscape:collect="always">
      <stop
         id="stop4464"
         offset="0"
         style="stop-color:#000000;stop-opacity:0.47843137" />
      <stop
         id="stop4466"
         offset="1"
         style="stop-color:#000000;stop-opacity:0;" />
    </linearGradient>
    <linearGradient
       inkscape:collect="always"
       xlink:href="#linearGradient5354"
       id="linearGradient4511"
       gradientUnits="userSpaceOnUse"
       gradientTransform="matrix(0.60869125,0,0,0.60869331,97.39137,-113.95689)"
       x1="7"
       y1="1011.3622"
       x2="41.000019"
       y2="1045.3622" />
    <linearGradient
       inkscape:collect="always"
       xlink:href="#linearGradient4462"
       id="linearGradient4770"
       x1="112"
       y1="261"
       x2="117"
       y2="266"
       gradientUnits="userSpaceOnUse"
       gradientTransform="translate(7.9999996,243)" />
    <linearGradient
       inkscape:collect="always"
       xlink:href="#linearGradient5348"
       id="linearGradient4450"
       gradientUnits="userSpaceOnUse"
       gradientTransform="matrix(0.86956058,0,0,0.86956384,147.13052,-390.22626)"
       x1="7"
       y1="1011.3622"
       x2="41.000019"
       y2="1045.3622" />
    <linearGradient
       inkscape:collect="always"
       xlink:href="#linearGradient4462"
       id="linearGradient4458"
       x1="170"
       y1="256"
       x2="177"
       y2="264"
       gradientUnits="userSpaceOnUse"
       gradientTransform="translate(9.9999996,236)" />
    <linearGradient
       inkscape:collect="always"
       xlink:href="#linearGradient5342"
       id="linearGradient4640"
       gradientUnits="userSpaceOnUse"
       gradientTransform="matrix(9.73906,0,0,9.7390928,230.26184,-9743.3104)"
       x1="7"
       y1="1011.3622"
       x2="41.000019"
       y2="1045.3622" />
    <linearGradient
       inkscape:collect="always"
       xlink:href="#linearGradient4462"
       id="linearGradient4638"
       gradientUnits="userSpaceOnUse"
       gradientTransform="matrix(16,0,0,16,-1200,-4032)"
       x1="112"
       y1="261"
       x2="117"
       y2="266" />
    <filter
       inkscape:collect="always"
       style="color-interpolation-filters:sRGB"
       id="filter4580"
       x="-0.049714272"
       width="1.0994285"
       y="-0.046400012"
       height="1.0928">
      <feGaussianBlur
         inkscape:collect="always"
         stdDeviation="3.3142848"
         id="feGaussianBlur4582" />
    </filter>
    <filter
       inkscape:collect="always"
       style="color-interpolation-filters:sRGB"
       id="filter4601"
       x="-0.049714286"
       width="1.0994286"
       y="-0.0464"
       height="1.0928">
      <feGaussianBlur
         inkscape:collect="always"
         stdDeviation="0.29"
         id="feGaussianBlur4603" />
    </filter>
    <filter
       inkscape:collect="always"
       style="color-interpolation-filters:sRGB"
       id="filter4635"
       x="-0.049714272"
       width="1.0994285"
       y="-0.046400012"
       height="1.0928">
      <feGaussianBlur
         inkscape:collect="always"
         stdDeviation="0.2071428"
         id="feGaussianBlur4637" />
    </filter>
    <filter
       inkscape:collect="always"
       style="color-interpolation-filters:sRGB"
       id="filter4653"
       x="-0.049714286"
       width="1.0994286"
       y="-0.0464"
       height="1.0928">
      <feGaussianBlur
         inkscape:collect="always"
         stdDeviation="0.145"
         id="feGaussianBlur4655" />
    </filter>
  </defs>
  <sodipodi:namedview
     id="base"
     pagecolor="#c3c3c3"
     bordercolor="#333333"
     borderopacity="1"
     inkscape:pageopacity="0"
     inkscape:pageshadow="2"
     inkscape:zoom="1.979899"
     inkscape:cx="72.410406"
     inkscape:cy="-7.8640911"
     inkscape:document-units="px"
     inkscape:current-layer="layer2"
     showgrid="false"
     units="px"
     inkscape:showpageshadow="false"
     inkscape:window-width="1280"
     inkscape:window-height="1370"
     inkscape:window-x="1280"
     inkscape:window-y="34"
     inkscape:window-maximized="0"
     showguides="false">
    <inkscape:grid
       type="xygrid"
       id="grid4630" />
  </sodipodi:namedview>
  <metadata
     id="metadata1084">
    <rdf:RDF>
      <cc:Work
         rdf:about="">
        <dc:format>image/svg+xml</dc:format>
        <dc:type
           rdf:resource="http://purl.org/dc/dcmitype/StillImage" />
        <dc:title />
        <cc:license
           rdf:resource="http://creativecommons.org/licenses/by-sa/4.0/" />
        <dc:creator>
          <cc:Agent>
            <dc:title>Peter Cornelis</dc:title>
          </cc:Agent>
        </dc:creator>
      </cc:Work>
      <cc:License
         rdf:about="http://creativecommons.org/licenses/by-sa/4.0/">
        <cc:permits
           rdf:resource="http://creativecommons.org/ns#Reproduction" />
        <cc:permits
           rdf:resource="http://creativecommons.org/ns#Distribution" />
        <cc:requires
           rdf:resource="http://creativecommons.org/ns#Notice" />
        <cc:requires
           rdf:resource="http://creativecommons.org/ns#Attribution" />
        <cc:permits
           rdf:resource="http://creativecommons.org/ns#DerivativeWorks" />
        <cc:requires
           rdf:resource="http://creativecommons.org/ns#ShareAlike" />
      </cc:License>
    </rdf:RDF>
  </metadata>
  <g
     inkscape:label="Baseplate"
     inkscape:groupmode="layer"
     id="layer1"
     transform="translate(0,-153.06668)"
     style="display:none">
    <rect
       style="display:inline;overflow:visible;visibility:visible;fill:#fefefe;fill-opacity:1;fill-rule:nonzero;stroke:none;stroke-width:2;marker:none;enable-background:accumulate"
       id="rect3951"
       width="512"
       height="512"
       x="-720"
       y="169.06668"
       inkscape:label="48x48"
       transform="scale(-1,1)" />
    <text
       y="733.32251"
       xml:space="preserve"
       x="15.006836"
       style="font-style:normal;font-variant:normal;font-weight:normal;font-stretch:normal;line-height:0%;font-family:'DejaVu Sans';-inkscape-font-specification:'DejaVu Sans';display:inline;fill:#000000;fill-opacity:1;stroke:none;enable-background:new"
       inkscape:label="context"
       id="context"><tspan
         style="font-style:normal;font-variant:normal;font-weight:normal;font-stretch:normal;font-size:18px;line-height:1.25;font-family:'DejaVu Sans';-inkscape-font-specification:'DejaVu Sans'"
         y="733.32251"
         x="15.006836"
         sodipodi:role="line"
         id="tspan3933">apps</tspan></text>
    <text
       y="733.32251"
       xml:space="preserve"
       x="142.48828"
       style="font-style:normal;font-variant:normal;font-weight:bold;font-stretch:normal;line-height:0%;font-family:'DejaVu Sans';-inkscape-font-specification:'DejaVu Sans Bold';text-align:start;writing-mode:lr-tb;text-anchor:start;display:inline;fill:#000000;fill-opacity:1;stroke:none;enable-background:new"
       inkscape:label="icon-name"
       id="icon-name"><tspan
         style="font-style:normal;font-variant:normal;font-weight:bold;font-stretch:normal;font-size:18px;line-height:1.25;font-family:'DejaVu Sans';-inkscape-font-specification:'DejaVu Sans Bold'"
         y="733.32251"
         x="142.48828"
         sodipodi:role="line"
         id="tspan3937">preferences-system-notifications</tspan></text>
    <rect
       style="display:inline;overflow:visible;visibility:visible;fill:#fefefe;fill-opacity:1;fill-rule:nonzero;stroke:none;stroke-width:2;marker:none;enable-background:accumulate"
       id="rect16x16"
       width="16"
       height="16"
       x="-32"
       y="665.06665"
       inkscape:label="16x16"
       transform="scale(-1,1)" />
    <rect
       style="display:inline;overflow:visible;visibility:visible;fill:#fefefe;fill-opacity:1;fill-rule:nonzero;stroke:none;stroke-width:2;marker:none;enable-background:accumulate"
       id="rect24x24"
       width="24"
       height="24"
       x="-76"
       y="657.06665"
       inkscape:label="24x24"
       transform="scale(-1,1)" />
    <rect
       style="display:inline;overflow:visible;visibility:visible;fill:#fefefe;fill-opacity:1;fill-rule:nonzero;stroke:none;stroke-width:2;marker:none;enable-background:accumulate"
       id="rect32x32"
       width="32"
       height="32"
       x="-128"
       y="649.06665"
       inkscape:label="32x32"
       transform="scale(-1,1)" />
    <rect
       inkscape:label="48x48"
       y="633.06665"
       x="-192"
       height="48"
       width="48"
       id="rect48x48"
       style="display:inline;overflow:visible;visibility:visible;fill:#fefefe;fill-opacity:1;fill-rule:nonzero;stroke:none;stroke-width:2;marker:none;enable-background:accumulate"
       transform="scale(-1,1)" />
  </g>
  <g
     inkscape:groupmode="layer"
     id="layer2"
     inkscape:label="Bitmap"
     style="display:inline">
    <rect
       style="display:inline;opacity:1;fill:#d5314f;fill-opacity:1;stroke:none;stroke-width:0;stroke-linecap:butt;stroke-linejoin:miter;stroke-miterlimit:0;stroke-dasharray:none;stroke-opacity:1;enable-background:new"
       id="rect4437"
       width="16"
       height="15.999948"
       x="-32"
       y="512.00006"
       rx="1.000002"
       ry="1"
       transform="scale(-1,1)"
       inkscape:export-filename="/home/peter/Bureaublad/user-desktop.png"
       inkscape:export-xdpi="90"
       inkscape:export-ydpi="90" />
    <path
       inkscape:export-ydpi="90"
       inkscape:export-xdpi="90"
       inkscape:export-filename="/home/peter/Bureaublad/test.png"
       inkscape:connector-curvature="0"
       id="path4535"
       d="m 24.000731,515.579 c 0.315589,0 0.571429,0.25581 0.571429,0.5714 -1.77e-4,0.0189 -0.0017,0.0383 -0.004,0.0571 1.308754,0.26216 2.289166,1.41205 2.289057,2.80009 l -7.4e-5,1.1428 v 1.4285 L 28,522.72169 v 0.2857 H 26.857143 21.142857 20 v -0.2857 l 1.142857,-1.1428 7.4e-5,-2.5713 c 4.6e-5,-1.38804 0.980389,-2.53793 2.289069,-2.80009 -0.0023,-0.0188 -0.004,-0.0377 -0.004,-0.0571 0,-0.31559 0.25584,-0.5714 0.571429,-0.5714 z m 0.98764,7.9996 c -0.203777,0.35294 -0.580142,0.57065 -0.987725,0.5714 -0.407983,-3.4e-4 -0.784852,-0.21812 -0.988846,-0.5714 z"
       style="display:inline;opacity:1;fill:#ffffff;fill-opacity:1;stroke:none;stroke-width:3;stroke-linecap:round;stroke-miterlimit:4;stroke-dasharray:none;stroke-opacity:1;enable-background:new"
       sodipodi:nodetypes="sccscccccccccscssscccc" />
    <path
       inkscape:connector-curvature="0"
       id="path4475"
       d="m 159,492 c -1.662,0 -3,1.338 -3,3 v 19 3 7 l 4,-4 h 25 c 1.662,0 3,-1.338 3,-3 v -22 c 0,-1.662 -1.338,-3 -3,-3 z"
       style="display:inline;opacity:1;fill:#3b414b;fill-opacity:1;stroke:none;stroke-width:3;stroke-linecap:round;stroke-linejoin:round;stroke-miterlimit:4;stroke-dasharray:none;stroke-opacity:1;enable-background:new" />
    <path
       inkscape:connector-curvature="0"
       style="display:inline;fill:url(#linearGradient4458);fill-opacity:1;fill-rule:evenodd;stroke:none;stroke-width:1px;stroke-linecap:butt;stroke-linejoin:miter;stroke-opacity:1;enable-background:new"
       d="m 173,490 v 1 h -14 c -1.662,0 -3,1.338 -3,3 v 13 c 0,0.35292 0.0707,0.68601 0.18164,1 C 156.07069,508.31399 156,508.64708 156,509 v 7 1 7 l 4,-4 h 25 c 1.662,0 3,-1.338 3,-3 v -3 -5 -2 -3 -3 l -4,-4 -5.08398,-5.08398 L 177,490 Z"
       id="path4441" />
    <path
       id="path4507"
       d="m 159,492 c -1.662,0 -3,1.338 -3,3 v 1 c 0,-1.662 1.338,-3 3,-3 h 26 c 1.662,0 3,1.338 3,3 v -1 c 0,-1.662 -1.338,-3 -3,-3 z"
       style="display:inline;opacity:1;fill:#ffffff;fill-opacity:0.2;stroke:none;stroke-width:3;stroke-linecap:round;stroke-linejoin:round;stroke-miterlimit:4;stroke-dasharray:none;stroke-opacity:1;enable-background:new"
       inkscape:connector-curvature="0" />
    <path
       style="display:inline;opacity:1;fill:#d5314f;fill-opacity:1;stroke:none;stroke-width:3;stroke-linecap:round;stroke-linejoin:round;stroke-miterlimit:4;stroke-dasharray:none;stroke-opacity:1;enable-background:new"
       d="m 151,484 c -1.662,0 -3,1.338 -3,3 v 19 3 7 l 4,-4 h 25 c 1.662,0 3,-1.338 3,-3 v -22 c 0,-1.662 -1.338,-3 -3,-3 z"
       id="rect4458"
       inkscape:connector-curvature="0" />
    <path
       inkscape:export-ydpi="90"
       inkscape:export-xdpi="90"
       inkscape:export-filename="/home/peter/Bureaublad/test.png"
       inkscape:connector-curvature="0"
       id="path4585"
       d="m 165.00128,491 c 0.55228,0 1,0.44769 1,1 -3.1e-4,0.0331 -0.003,0.0671 -0.007,0.1 2.29032,0.4588 4.00604,2.4712 4.00585,4.9004 l -1.3e-4,2 v 2.5 l 2,2 v 0.5 h -2 -10 -2 v -0.5 l 2,-2 1.3e-4,-4.5 c 8e-5,-2.4292 1.71568,-4.4416 4.00587,-4.9004 -0.004,-0.0331 -0.007,-0.066 -0.007,-0.1 0,-0.55231 0.44772,-1 1,-1 z m 1.72837,14 c -0.35661,0.61769 -1.01525,0.99869 -1.72852,1 -0.71397,-6e-4 -1.37349,-0.38171 -1.73048,-1 z"
       style="display:inline;opacity:1;fill:#000000;fill-opacity:0.2;stroke:none;stroke-width:3;stroke-linecap:round;stroke-miterlimit:4;stroke-dasharray:none;stroke-opacity:1;enable-background:new;filter:url(#filter4601)"
       sodipodi:nodetypes="sccscccccccccscssscccc" />
    <path
       sodipodi:nodetypes="sccscccccccccscssscccc"
       style="display:inline;opacity:1;fill:#ffffff;fill-opacity:1;stroke:none;stroke-width:3;stroke-linecap:round;stroke-miterlimit:4;stroke-dasharray:none;stroke-opacity:1;enable-background:new"
       d="m 164.00128,490 c 0.55228,0 1,0.44769 1,1 -3.1e-4,0.0331 -0.003,0.0671 -0.007,0.1 2.29032,0.4588 4.00604,2.4712 4.00585,4.9004 l -1.3e-4,2 v 2.5 l 2,2 v 0.5 h -2 -10 -2 v -0.5 l 2,-2 1.3e-4,-4.5 c 8e-5,-2.4292 1.71568,-4.4416 4.00587,-4.9004 -0.004,-0.0331 -0.007,-0.066 -0.007,-0.1 0,-0.55231 0.44772,-1 1,-1 z m 1.72837,14 c -0.35661,0.61769 -1.01525,0.99869 -1.72852,1 -0.71397,-6e-4 -1.37349,-0.38171 -1.73048,-1 z"
       id="rect11474"
       inkscape:connector-curvature="0"
       inkscape:export-filename="/home/peter/Bureaublad/test.png"
       inkscape:export-xdpi="90"
       inkscape:export-ydpi="90" />
    <path
       inkscape:connector-curvature="0"
       style="display:inline;opacity:1;fill:#ffffff;fill-opacity:0.2;stroke:none;stroke-width:3;stroke-linecap:round;stroke-linejoin:round;stroke-miterlimit:4;stroke-dasharray:none;stroke-opacity:1;enable-background:new"
       d="m 151,484 c -1.662,0 -3,1.338 -3,3 v 1 c 0,-1.662 1.338,-3 3,-3 h 26 c 1.662,0 3,1.338 3,3 v -1 c 0,-1.662 -1.338,-3 -3,-3 z"
       id="path4499" />
    <path
       inkscape:connector-curvature="0"
       style="display:inline;opacity:1;fill:#000000;fill-opacity:0.2;stroke:none;stroke-width:3;stroke-linecap:round;stroke-linejoin:round;stroke-miterlimit:4;stroke-dasharray:none;stroke-opacity:1;enable-background:new"
       d="m 180,508 c 0,1.662 -1.338,3 -3,3 h -25 l -4,4 v 1 l 4,-4 h 25 c 1.662,0 3,-1.338 3,-3 z"
       id="path4509" />
    <path
       id="path4514"
       d="m 188,516 c 0,1.662 -1.338,3 -3,3 h -25 l -4,4 v 1 l 4,-4 h 25 c 1.662,0 3,-1.338 3,-3 z"
       style="display:inline;opacity:1;fill:#000000;fill-opacity:0.2;stroke:none;stroke-width:3;stroke-linecap:round;stroke-linejoin:round;stroke-miterlimit:4;stroke-dasharray:none;stroke-opacity:1;enable-background:new"
       inkscape:connector-curvature="0" />
    <path
       inkscape:connector-curvature="0"
       style="display:inline;fill:url(#linearGradient4450);fill-opacity:1;stroke:none;stroke-width:2;stroke-linecap:round;stroke-linejoin:round;stroke-miterlimit:4;stroke-dasharray:none;stroke-opacity:1;enable-background:new"
       d="m 151,484 c -1.662,0 -3,1.338 -3,3 v 7 2 10 3 7 l 2,-2 2,-2 h 4 v 5 7 l 4,-4 H 181.81836 184 l 4,4 v -7 -3 -19 c 0,-0.18698 -0.0223,-0.36759 -0.0547,-0.54492 -0.0117,-0.0638 -0.0292,-0.12524 -0.0449,-0.1875 -0.0279,-0.11127 -0.0617,-0.2203 -0.10156,-0.32617 -0.0272,-0.0714 -0.0555,-0.14232 -0.0879,-0.21094 -0.0416,-0.089 -0.0908,-0.17384 -0.14063,-0.25781 -0.0404,-0.0674 -0.0756,-0.13744 -0.12109,-0.20118 -0.046,-0.0652 -0.10137,-0.12234 -0.15234,-0.18359 -0.12824,-0.15241 -0.26781,-0.29369 -0.42383,-0.41797 -0.0289,-0.0232 -0.0562,-0.0481 -0.0859,-0.0703 -0.10478,-0.0773 -0.21739,-0.14546 -0.33203,-0.20899 -0.0221,-0.0123 -0.0439,-0.0253 -0.0664,-0.0371 -0.12388,-0.0646 -0.25147,-0.12261 -0.38476,-0.16993 -0.001,-4.7e-4 -0.003,-9.5e-4 -0.004,-0.002 C 185.68605,492.07073 185.35292,492 185,492 h -5 v -5 c 0,-0.35292 -0.0707,-0.68601 -0.18164,-1 -4.9e-4,-10e-4 -9.5e-4,-0.003 -0.002,-0.004 -0.0473,-0.13329 -0.10533,-0.26088 -0.16993,-0.38476 -0.0118,-0.0225 -0.0248,-0.0443 -0.0371,-0.0664 -0.0635,-0.11464 -0.13168,-0.22725 -0.20899,-0.33203 -0.0222,-0.0298 -0.0471,-0.057 -0.0703,-0.0859 -0.12428,-0.15602 -0.26556,-0.29559 -0.41797,-0.42383 -0.0613,-0.051 -0.11834,-0.1063 -0.18359,-0.15234 -0.0637,-0.0455 -0.13383,-0.0807 -0.20118,-0.12109 -0.084,-0.0498 -0.16876,-0.099 -0.25781,-0.14063 -0.0686,-0.0324 -0.13952,-0.0607 -0.21094,-0.0879 -0.10587,-0.0399 -0.2149,-0.0737 -0.32617,-0.10156 -0.0623,-0.0157 -0.12369,-0.0332 -0.1875,-0.0449 -0.17725,-0.0324 -0.3579,-0.0547 -0.54488,-0.0547 z"
       id="path4461-6" />
    <path
       inkscape:connector-curvature="0"
       style="display:inline;opacity:1;fill:#2a3740;fill-opacity:1;stroke:none;stroke-width:3;stroke-linecap:round;stroke-linejoin:round;stroke-miterlimit:4;stroke-dasharray:none;stroke-opacity:1;enable-background:new"
       d="m 124,504 c 1.108,0 2,0.892 2,2 v 15 c 0,1.108 -0.892,2 -2,2 h -17 l -3,3 v -5 -15 c 0,-1.108 0.892,-2 2,-2 z"
       id="rect4534-8" />
    <path
       style="display:inline;fill:url(#linearGradient4770);fill-opacity:1;fill-rule:evenodd;stroke:none;stroke-width:1px;stroke-linecap:butt;stroke-linejoin:miter;stroke-opacity:1;enable-background:new"
       d="m 106,504 c -1.108,0 -2,0.892 -2,2 v 15 5 l 3,-3 h 16 l 3,3 v -5 -11 l -6,-6 z"
       id="path4762"
       inkscape:connector-curvature="0" />
    <path
       id="path4574-2"
       d="m 124,504 c 1.108,0 2,0.892 2,2 v 1 c 0,-1.108 -0.892,-2 -2,-2 h -18 c -1.108,0 -2,0.892 -2,2 v -1 c 0,-1.108 0.892,-2 2,-2 z"
       style="display:inline;opacity:1;fill:#ffffff;fill-opacity:0.2;stroke:none;stroke-width:3;stroke-linecap:round;stroke-linejoin:round;stroke-miterlimit:4;stroke-dasharray:none;stroke-opacity:1;enable-background:new"
       inkscape:connector-curvature="0" />
    <path
       id="path4576-9"
       d="m 126,520 c 0,1.108 -0.892,2 -2,2 h -17 l -3,3 v 1 l 3,-3 h 17 c 1.108,0 2,-0.892 2,-2 z"
       style="display:inline;opacity:1;fill:#000000;fill-opacity:0.2;stroke:none;stroke-width:3;stroke-linecap:round;stroke-linejoin:round;stroke-miterlimit:4;stroke-dasharray:none;stroke-opacity:1;enable-background:new"
       inkscape:connector-curvature="0" />
    <path
       id="path4539"
       d="m 118,498 c 1.108,0 2,0.892 2,2 v 15 c 0,1.108 -0.892,2 -2,2 h -17 l -3,3 v -5 -15 c 0,-1.108 0.892,-2 2,-2 z"
       style="display:inline;opacity:1;fill:#d5314f;fill-opacity:1;stroke:none;stroke-width:3;stroke-linecap:round;stroke-linejoin:round;stroke-miterlimit:4;stroke-dasharray:none;stroke-opacity:1;enable-background:new"
       inkscape:connector-curvature="0" />
    <path
       sodipodi:nodetypes="sccscccccccccscssscccc"
       style="display:inline;opacity:1;fill:#000000;fill-opacity:0.2;stroke:none;stroke-width:3;stroke-linecap:round;stroke-miterlimit:4;stroke-dasharray:none;stroke-opacity:1;enable-background:new;filter:url(#filter4635)"
       d="m 109.50091,503.21472 c 0.39449,0 0.71429,0.31976 0.71429,0.71428 -2.2e-4,0.0236 -0.002,0.0478 -0.005,0.0714 1.63594,0.32771 2.86146,1.76515 2.86132,3.50029 l -1e-4,1.42856 v 1.78572 l 1.42858,1.42858 v 0.35714 H 113.07142 105.92857 104.5 v -0.35714 l 1.42857,-1.42858 9e-5,-3.21428 c 6e-5,-1.73514 1.22549,-3.17258 2.86134,-3.50029 -0.003,-0.0236 -0.005,-0.0472 -0.005,-0.0714 0,-0.39452 0.3198,-0.71428 0.71429,-0.71428 z m 1.23455,10 c -0.25472,0.44121 -0.72517,0.71334 -1.23465,0.71428 -0.50998,-4.2e-4 -0.98107,-0.27266 -1.23606,-0.71428 z"
       id="path4605"
       inkscape:connector-curvature="0"
       inkscape:export-filename="/home/peter/Bureaublad/test.png"
       inkscape:export-xdpi="90"
       inkscape:export-ydpi="90" />
    <path
       inkscape:export-ydpi="90"
       inkscape:export-xdpi="90"
       inkscape:export-filename="/home/peter/Bureaublad/test.png"
       inkscape:connector-curvature="0"
       id="path4544"
       d="m 109.00091,502.71472 c 0.39449,0 0.71429,0.31976 0.71429,0.71428 -2.2e-4,0.0236 -0.002,0.0478 -0.005,0.0714 1.63594,0.32771 2.86146,1.76515 2.86132,3.50029 l -1e-4,1.42856 v 1.78572 L 114,511.64355 v 0.35714 H 112.57142 105.42857 104 v -0.35714 l 1.42857,-1.42858 9e-5,-3.21428 c 6e-5,-1.73514 1.22549,-3.17258 2.86134,-3.50029 -0.003,-0.0236 -0.005,-0.0472 -0.005,-0.0714 0,-0.39452 0.3198,-0.71428 0.71429,-0.71428 z m 1.23455,10 c -0.25472,0.44121 -0.72517,0.71334 -1.23465,0.71428 -0.50998,-4.2e-4 -0.98107,-0.27266 -1.23606,-0.71428 z"
       style="display:inline;opacity:1;fill:#ffffff;fill-opacity:1;stroke:none;stroke-width:3;stroke-linecap:round;stroke-miterlimit:4;stroke-dasharray:none;stroke-opacity:1;enable-background:new"
       sodipodi:nodetypes="sccscccccccccscssscccc" />
    <path
       inkscape:connector-curvature="0"
       style="display:inline;opacity:1;fill:#ffffff;fill-opacity:0.2;stroke:none;stroke-width:3;stroke-linecap:round;stroke-linejoin:round;stroke-miterlimit:4;stroke-dasharray:none;stroke-opacity:1;enable-background:new"
       d="m 100,498 c -1.108,0 -2,0.892 -2,2 v 1 c 0,-1.108 0.892,-2 2,-2 h 18 c 1.108,0 2,0.892 2,2 v -1 c 0,-1.108 -0.892,-2 -2,-2 z"
       id="path4564" />
    <path
       inkscape:connector-curvature="0"
       style="display:inline;opacity:1;fill:#000000;fill-opacity:0.2;stroke:none;stroke-width:3;stroke-linecap:round;stroke-linejoin:round;stroke-miterlimit:4;stroke-dasharray:none;stroke-opacity:1;enable-background:new"
       d="m 120,514 c 0,1.108 -0.892,2 -2,2 h -17 l -3,3 v 1 l 3,-3 h 17 c 1.108,0 2,-0.892 2,-2 z"
       id="path4569" />
    <path
       style="display:inline;fill:url(#linearGradient4511);fill-opacity:1;stroke:none;stroke-width:2;stroke-linecap:round;stroke-linejoin:round;stroke-miterlimit:4;stroke-dasharray:none;stroke-opacity:1;enable-background:new"
       d="m 100,498 c -1.108,0 -2,0.892 -2,2 v 5 1 9 5 l 2,-2 1,-1 h 3 v 4 5 l 3,-3 H 121.72461 123 l 3,3 v -5 -15 c 0,-1.108 -0.892,-2 -2,-2 h -4 v -4 c 0,-1.108 -0.892,-2 -2,-2 z"
       id="path4785-9"
       inkscape:connector-curvature="0" />
    <path
       style="display:inline;opacity:1;fill:#3b414b;fill-opacity:1;stroke:none;stroke-width:3;stroke-linecap:round;stroke-linejoin:round;stroke-miterlimit:4;stroke-dasharray:none;stroke-opacity:1;enable-background:new"
       d="m 59.5,510 c -0.831,0 -1.5,0.669 -1.5,1.5 v 9.5 1.5 3.5 l 2,-2 h 12.5 c 0.831,0 1.5,-0.669 1.5,-1.5 v -11 c 0,-0.831 -0.669,-1.5 -1.5,-1.5 z"
       id="path4582"
       inkscape:connector-curvature="0" />
    <path
       id="path4584"
       d="m 66.5,509 v 0.5 h -7 c -0.831,0 -1.5,0.669 -1.5,1.5 v 6.5 c 0,0.17646 0.0353,0.343 0.0908,0.5 C 58.0353,518.15699 58,518.32354 58,518.5 v 3.5 0.5 3.5 l 2,-2 h 12.5 c 0.831,0 1.5,-0.669 1.5,-1.5 v -1.5 -2.5 -1 -1.5 -1.5 l -2,-2 -2.54199,-2.54199 L 68.5,509 Z"
       style="display:inline;fill:url(#linearGradient4601);fill-opacity:1;fill-rule:evenodd;stroke:none;stroke-width:1px;stroke-linecap:butt;stroke-linejoin:miter;stroke-opacity:1;enable-background:new"
       inkscape:connector-curvature="0" />
    <path
       id="path4662"
       d="m 59.5,510 c -0.831,0 -1.5,0.669 -1.5,1.5 v 1 c 0,-0.831 0.669,-1.5 1.5,-1.5 h 13 c 0.831,0 1.5,0.669 1.5,1.5 v -1 c 0,-0.831 -0.669,-1.5 -1.5,-1.5 z"
       style="display:inline;opacity:1;fill:#ffffff;fill-opacity:0.2;stroke:none;stroke-width:3;stroke-linecap:round;stroke-linejoin:round;stroke-miterlimit:4;stroke-dasharray:none;stroke-opacity:1;enable-background:new"
       inkscape:connector-curvature="0" />
    <path
       inkscape:connector-curvature="0"
       id="path4588"
       d="m 55.5,506 c -0.831,0 -1.5,0.669 -1.5,1.5 v 9.5 1.5 3.5 l 2,-2 h 12.5 c 0.831,0 1.5,-0.669 1.5,-1.5 v -11 c 0,-0.831 -0.669,-1.5 -1.5,-1.5 z"
       style="display:inline;opacity:1;fill:#d5314f;fill-opacity:1;stroke:none;stroke-width:3;stroke-linecap:round;stroke-linejoin:round;stroke-miterlimit:4;stroke-dasharray:none;stroke-opacity:1;enable-background:new" />
    <path
       sodipodi:nodetypes="sccscccccccccscssscccc"
       style="display:inline;opacity:1;fill:#000000;fill-opacity:0.2;stroke:none;stroke-width:3;stroke-linecap:round;stroke-miterlimit:4;stroke-dasharray:none;stroke-opacity:1;enable-background:new;filter:url(#filter4653)"
       d="m 62.50114,510 c 0.27614,0 0.5,0.22384 0.5,0.5 -1.6e-4,0.0165 -10e-4,0.0335 -0.004,0.05 1.14516,0.2294 2.00302,1.2356 2.00292,2.4502 l -6e-5,1 v 1.25 l 1,1 v 0.25 h -1 -5 -1 v -0.25 l 1,-1 6e-5,-2.25 c 5e-5,-1.2146 0.85785,-2.2208 2.00294,-2.4502 C 62.001,510.5335 62,510.517 62,510.5 c 0,-0.27616 0.22386,-0.5 0.5,-0.5 z m 0.86418,7 c -0.1783,0.30885 -0.50762,0.49934 -0.86426,0.5 -0.35698,-3e-4 -0.68674,-0.19086 -0.86523,-0.5 z"
       id="path4639"
       inkscape:connector-curvature="0"
       inkscape:export-filename="/home/peter/Bureaublad/test.png"
       inkscape:export-xdpi="90"
       inkscape:export-ydpi="90" />
    <path
       inkscape:export-ydpi="90"
       inkscape:export-xdpi="90"
       inkscape:export-filename="/home/peter/Bureaublad/test.png"
       inkscape:connector-curvature="0"
       id="path4591"
       d="m 62.00064,509.5 c 0.27614,0 0.5,0.22384 0.5,0.5 -1.6e-4,0.0165 -10e-4,0.0335 -0.004,0.05 1.14516,0.2294 2.00302,1.2356 2.00292,2.4502 l -6e-5,1 v 1.25 l 1,1 v 0.25 h -1 -5 -1 v -0.25 l 1,-1 6e-5,-2.25 c 5e-5,-1.2146 0.85785,-2.2208 2.00294,-2.4502 -0.002,-0.0165 -0.003,-0.033 -0.003,-0.05 0,-0.27616 0.22386,-0.5 0.5,-0.5 z m 0.86418,7 c -0.1783,0.30885 -0.50762,0.49934 -0.86426,0.5 -0.35698,-3e-4 -0.68674,-0.19086 -0.86523,-0.5 z"
       style="display:inline;opacity:1;fill:#ffffff;fill-opacity:1;stroke:none;stroke-width:3;stroke-linecap:round;stroke-miterlimit:4;stroke-dasharray:none;stroke-opacity:1;enable-background:new"
       sodipodi:nodetypes="sccscccccccccscssscccc" />
    <path
       style="display:inline;opacity:1;fill:#ffffff;fill-opacity:0.2;stroke:none;stroke-width:3;stroke-linecap:round;stroke-linejoin:round;stroke-miterlimit:4;stroke-dasharray:none;stroke-opacity:1;enable-background:new"
       d="M 55.5 506 C 54.669 506 54 506.669 54 507.5 L 54 508.5 C 54 507.669 54.669 507 55.5 507 L 68.5 507 C 69.331 507 70 507.669 70 508.5 L 70 507.5 C 70 506.669 69.331 506 68.5 506 L 55.5 506 z "
       id="path4657" />
    <path
       id="path4672"
       d="m 74,521.5 c 0,0.831 -0.669,1.5 -1.5,1.5 H 60 l -2,2 v 1 l 2,-2 h 12.5 c 0.831,0 1.5,-0.669 1.5,-1.5 z"
       style="display:inline;opacity:1;fill:#000000;fill-opacity:0.2;stroke:none;stroke-width:3;stroke-linecap:round;stroke-linejoin:round;stroke-miterlimit:4;stroke-dasharray:none;stroke-opacity:1;enable-background:new"
       inkscape:connector-curvature="0" />
    <path
       style="display:inline;opacity:1;fill:#000000;fill-opacity:0.2;stroke:none;stroke-width:3;stroke-linecap:round;stroke-linejoin:round;stroke-miterlimit:4;stroke-dasharray:none;stroke-opacity:1;enable-background:new"
       d="M 70 517.5 C 70 518.331 69.331 519 68.5 519 L 56 519 L 54 521 L 54 522 L 56 520 L 68.5 520 C 69.331 520 70 519.331 70 518.5 L 70 517.5 z "
       id="path4666" />
    <path
       id="path4599"
       d="m 55.5,506 c -0.831,0 -1.5,0.669 -1.5,1.5 v 3.5 1 5 1.5 3.5 l 1,-1 1,-1 h 2 v 2.5 3.5 l 2,-2 H 70.90918 72 l 2,2 v -3.5 -1.5 -9.5 c 0,-0.0935 -0.0111,-0.1838 -0.0274,-0.27246 -0.006,-0.0319 -0.0146,-0.0626 -0.0224,-0.0937 -0.0139,-0.0556 -0.0308,-0.11015 -0.0508,-0.16309 -0.0136,-0.0357 -0.0277,-0.0712 -0.0439,-0.10547 -0.0208,-0.0445 -0.0454,-0.0869 -0.0703,-0.1289 -0.0202,-0.0337 -0.0378,-0.0687 -0.0605,-0.10059 -0.023,-0.0326 -0.0507,-0.0612 -0.0762,-0.0918 -0.0641,-0.0762 -0.13391,-0.14684 -0.21192,-0.20898 -0.0145,-0.0116 -0.0281,-0.0241 -0.0429,-0.0352 -0.0524,-0.0386 -0.10869,-0.0727 -0.16601,-0.1045 -0.0111,-0.006 -0.022,-0.0127 -0.0332,-0.0186 -0.0619,-0.0323 -0.12574,-0.0613 -0.19238,-0.085 -5e-4,-2.4e-4 -10e-4,-4.8e-4 -0.002,-10e-4 -0.15707,-0.0553 -0.32363,-0.0907 -0.50009,-0.0907 H 70 v -2.5 c 0,-0.17646 -0.0353,-0.34301 -0.0908,-0.5 -2.5e-4,-5e-4 -4.8e-4,-0.002 -0.001,-0.002 -0.0236,-0.0666 -0.0527,-0.13044 -0.085,-0.19238 -0.006,-0.0112 -0.0124,-0.0221 -0.0185,-0.0332 -0.0318,-0.0573 -0.0658,-0.11363 -0.10449,-0.16602 -0.0111,-0.0149 -0.0236,-0.0285 -0.0352,-0.043 -0.0621,-0.078 -0.13278,-0.14779 -0.20899,-0.21191 -0.0307,-0.0255 -0.0592,-0.0532 -0.0918,-0.0762 -0.0318,-0.0228 -0.0669,-0.0403 -0.10059,-0.0605 -0.042,-0.0249 -0.0844,-0.0495 -0.12891,-0.0703 -0.0343,-0.0162 -0.0698,-0.0303 -0.10547,-0.044 -0.0529,-0.0199 -0.10745,-0.0368 -0.16308,-0.0508 -0.0311,-0.008 -0.0618,-0.0166 -0.0937,-0.0224 C 68.68381,506.0111 68.59349,506 68.5,506 Z"
       style="display:inline;fill:url(#linearGradient4603);fill-opacity:1;stroke:none;stroke-width:2;stroke-linecap:round;stroke-linejoin:round;stroke-miterlimit:4;stroke-dasharray:none;stroke-opacity:1;enable-background:new"
       inkscape:connector-curvature="0" />
    <path
       id="path4620"
       d="m 655.99992,144 c 17.728,0 32,14.272 32,32 v 240 c 0,17.728 -14.272,32 -32,32 h -272 l -48,48 V 416 176 c 0,-17.728 14.272,-32 32,-32 z"
       style="display:inline;opacity:1;fill:#2a3740;fill-opacity:1;stroke:none;stroke-width:23.99999809;stroke-linecap:round;stroke-linejoin:round;stroke-miterlimit:4;stroke-dasharray:none;stroke-opacity:1;enable-background:new"
       inkscape:connector-curvature="0" />
    <path
       style="display:inline;opacity:1;fill:#ffffff;fill-opacity:0.2;stroke:none;stroke-width:23.99999809;stroke-linecap:round;stroke-linejoin:round;stroke-miterlimit:4;stroke-dasharray:none;stroke-opacity:1;enable-background:new"
       d="M 368 144 C 350.272 144 336 158.272 336 176 L 336 178 C 336 160.272 350.272 146 368 146 L 656 146 C 673.728 146 688 160.272 688 178 L 688 176 C 688 158.272 673.728 144 656 144 L 368 144 z "
       id="path4668" />
    <path
       inkscape:connector-curvature="0"
       id="path4622"
       d="m 367.99992,144 c -17.728,0 -32,14.272 -32,32 v 240 80 l 48,-48 h 256 l 48,48 V 416 240 l -96,-96 z"
       style="display:inline;fill:url(#linearGradient4638);fill-opacity:1;fill-rule:evenodd;stroke:none;stroke-width:8px;stroke-linecap:butt;stroke-linejoin:miter;stroke-opacity:1;enable-background:new" />
    <path
       style="display:inline;opacity:1;fill:#000000;fill-opacity:0.2;stroke:none;stroke-width:23.99999809;stroke-linecap:round;stroke-linejoin:round;stroke-miterlimit:4;stroke-dasharray:none;stroke-opacity:1;enable-background:new"
       d="M 688 414 C 688 431.728 673.728 446 656 446 L 384 446 L 336 494 L 336 496 L 384 448 L 656 448 C 673.728 448 688 433.728 688 416 L 688 414 z "
       id="path4670" />
    <path
       inkscape:connector-curvature="0"
       style="display:inline;opacity:1;fill:#d5314f;fill-opacity:1;stroke:none;stroke-width:23.99999809;stroke-linecap:round;stroke-linejoin:round;stroke-miterlimit:4;stroke-dasharray:none;stroke-opacity:1;enable-background:new"
       d="m 559.99992,48 c 17.728,0 32,14.272 32,32 v 240 c 0,17.728 -14.272,32 -32,32 h -272 l -48,48 V 320 80 c 0,-17.728 14.272,-32 32,-32 z"
       id="path4628" />
    <path
       inkscape:export-ydpi="90"
       inkscape:export-xdpi="90"
       inkscape:export-filename="/home/peter/Bureaublad/test.png"
       inkscape:connector-curvature="0"
       id="path4550"
       d="m 420.01496,127.43552 c 6.31184,0 11.42864,5.11616 11.42864,11.42848 -0.004,0.3776 -0.032,0.7648 -0.08,1.1424 26.17504,5.24336 45.78336,28.2424 45.78112,56.00464 l -0.002,22.85696 v 28.57152 L 500,270.2968 v 5.71424 H 477.14272 362.85712 340 v -5.71424 l 22.85712,-22.85728 0.002,-51.42848 c 8.8e-4,-27.76224 19.60776,-50.76128 45.78136,-56.00464 -0.048,-0.3776 -0.08,-0.7552 -0.08,-1.1424 0,-6.31232 5.1168,-11.42848 11.42864,-11.42848 z m 19.7528,160 c -4.07552,7.05936 -11.60272,11.41344 -19.7544,11.42848 -8.15968,-0.007 -15.69712,-4.36256 -19.77696,-11.42848 z"
       style="display:inline;opacity:1;fill:#000000;fill-opacity:0.2;stroke:none;stroke-width:23.99999809;stroke-linecap:round;stroke-miterlimit:4;stroke-dasharray:none;stroke-opacity:1;enable-background:new;filter:url(#filter4580)"
       sodipodi:nodetypes="sccscccccccccscssscccc" />
    <path
       sodipodi:nodetypes="sccscccccccccscssscccc"
       style="display:inline;opacity:1;fill:#ffffff;fill-opacity:1;stroke:none;stroke-width:23.99999809;stroke-linecap:round;stroke-miterlimit:4;stroke-dasharray:none;stroke-opacity:1;enable-background:new"
       d="m 416.01448,123.43552 c 6.31184,0 11.42864,5.11616 11.42864,11.42848 -0.004,0.3776 -0.032,0.7648 -0.08,1.1424 26.17504,5.24336 45.78336,28.2424 45.78112,56.00464 l -0.002,22.85696 v 28.57152 l 22.85728,22.85728 v 5.71424 h -22.85728 -114.2856 -22.85712 v -5.71424 l 22.85712,-22.85728 0.002,-51.42848 c 8.8e-4,-27.76224 19.60776,-50.76128 45.78136,-56.00464 -0.048,-0.3776 -0.08,-0.7552 -0.08,-1.1424 0,-6.31232 5.1168,-11.42848 11.42864,-11.42848 z m 19.7528,160 c -4.07552,7.05936 -11.60272,11.41344 -19.7544,11.42848 -8.15968,-0.007 -15.69712,-4.36256 -19.77696,-11.42848 z"
       id="path4630"
       inkscape:connector-curvature="0"
       inkscape:export-filename="/home/peter/Bureaublad/test.png"
       inkscape:export-xdpi="90"
       inkscape:export-ydpi="90" />
    <path
       style="display:inline;opacity:1;fill:#ffffff;fill-opacity:0.2;stroke:none;stroke-width:23.99999809;stroke-linecap:round;stroke-linejoin:round;stroke-miterlimit:4;stroke-dasharray:none;stroke-opacity:1;enable-background:new"
       d="M 272 48 C 254.272 48 240 62.272 240 80 L 240 82 C 240 64.272 254.272 50 272 50 L 560 50 C 577.728 50 592 64.272 592 82 L 592 80 C 592 62.272 577.728 48 560 48 L 272 48 z "
       id="path4632" />
    <path
       style="display:inline;opacity:1;fill:#000000;fill-opacity:0.2;stroke:none;stroke-width:23.99999809;stroke-linecap:round;stroke-linejoin:round;stroke-miterlimit:4;stroke-dasharray:none;stroke-opacity:1;enable-background:new"
       d="M 592 318 C 592 335.728 577.728 350 560 350 L 288 350 L 240 398 L 240 400 L 288 352 L 560 352 C 577.728 352 592 337.728 592 320 L 592 318 z "
       id="path4634" />
    <path
       inkscape:connector-curvature="0"
       id="path4636"
       d="m 271.99992,48 c -17.728,0 -32,14.272 -32,32 v 80 16 144 80 l 32,-32 16,-16 h 48 v 64 80 l 48,-48 h 235.59376 20.40624 l 48,48 V 416 176 c 0,-17.728 -14.272,-32 -32,-32 h -64 V 80 c 0,-17.728 -14.272,-32 -32,-32 z"
       style="display:inline;fill:url(#linearGradient4640);fill-opacity:1;stroke:none;stroke-width:16;stroke-linecap:round;stroke-linejoin:round;stroke-miterlimit:4;stroke-dasharray:none;stroke-opacity:1;enable-background:new" />
  </g>
</svg>
