<?xml version="1.0" encoding="UTF-8" standalone="no"?>
<!-- Created with Inkscape (http://www.inkscape.org/) -->

<svg
   xmlns:dc="http://purl.org/dc/elements/1.1/"
   xmlns:cc="http://creativecommons.org/ns#"
   xmlns:rdf="http://www.w3.org/1999/02/22-rdf-syntax-ns#"
   xmlns:svg="http://www.w3.org/2000/svg"
   xmlns="http://www.w3.org/2000/svg"
   xmlns:xlink="http://www.w3.org/1999/xlink"
   xmlns:sodipodi="http://sodipodi.sourceforge.net/DTD/sodipodi-0.dtd"
   xmlns:inkscape="http://www.inkscape.org/namespaces/inkscape"
   width="842"
   height="544"
   viewBox="0 0 842 544"
   version="1.1"
   id="svg1087"
   inkscape:version="0.92.1 r"
   sodipodi:docname="prefernces-system-windows.svg">
  <defs
     id="defs1081">
    <filter
       inkscape:collect="always"
       style="color-interpolation-filters:sRGB"
       id="filter4650"
       x="-0.022363637"
       width="1.0447273"
       y="-0.025894737"
       height="1.0517895">
      <feGaussianBlur
         inkscape:collect="always"
         stdDeviation="3.28"
         id="feGaussianBlur4652" />
    </filter>
    <filter
       inkscape:collect="always"
       style="color-interpolation-filters:sRGB"
       id="filter4660"
       x="-0.022363637"
       width="1.0447273"
       y="-0.025894737"
       height="1.0517895">
      <feGaussianBlur
         inkscape:collect="always"
         stdDeviation="3.28"
         id="feGaussianBlur4662" />
    </filter>
    <filter
       inkscape:collect="always"
       style="color-interpolation-filters:sRGB"
       id="filter4858"
       x="-0.011181818"
       width="1.0223636"
       y="-0.012947368"
       height="1.0258947">
      <feGaussianBlur
         inkscape:collect="always"
         stdDeviation="0.205"
         id="feGaussianBlur4860" />
    </filter>
    <filter
       inkscape:collect="always"
       style="color-interpolation-filters:sRGB"
       id="filter4862"
       x="-0.011181818"
       width="1.0223636"
       y="-0.012947368"
       height="1.0258947">
      <feGaussianBlur
         inkscape:collect="always"
         stdDeviation="0.205"
         id="feGaussianBlur4864" />
    </filter>
    <filter
       inkscape:collect="always"
       style="color-interpolation-filters:sRGB"
       id="filter4870"
       x="-0.011249983"
       width="1.0225"
       y="-0.012857165"
       height="1.0257143">
      <feGaussianBlur
         inkscape:collect="always"
         stdDeviation="0.14999978"
         id="feGaussianBlur4872" />
    </filter>
    <filter
       inkscape:collect="always"
       style="color-interpolation-filters:sRGB"
       id="filter4874"
       x="-0.011249983"
       width="1.0225"
       y="-0.012857165"
       height="1.0257143">
      <feGaussianBlur
         inkscape:collect="always"
         stdDeviation="0.14999978"
         id="feGaussianBlur4876" />
    </filter>
    <linearGradient
       inkscape:collect="always"
       xlink:href="#linearGradient4165-3"
       id="linearGradient4449-0"
       gradientUnits="userSpaceOnUse"
       gradientTransform="matrix(10.43473,0,0,10.434772,319.56521,-10458.722)"
       x1="7"
       y1="1011.3622"
       x2="41.000019"
       y2="1045.3622" />
    <linearGradient
       inkscape:collect="always"
       id="linearGradient4165-3">
      <stop
         style="stop-color:#ffffff;stop-opacity:0.05490196"
         offset="0"
         id="stop4167-6" />
      <stop
         style="stop-color:#177ed5;stop-opacity:0;"
         offset="1"
         id="stop4169-7" />
    </linearGradient>
    <linearGradient
       inkscape:collect="always"
       xlink:href="#linearGradient4165-3"
       id="linearGradient4537"
       gradientUnits="userSpaceOnUse"
       gradientTransform="matrix(1.3043412,0,0,1.3043465,234.69565,-845.3403)"
       x1="7"
       y1="1011.3622"
       x2="41.000019"
       y2="1045.3622" />
    <linearGradient
       inkscape:collect="always"
       xlink:href="#linearGradient4165-3"
       id="linearGradient4171-1-0"
       x1="7"
       y1="1011.3622"
       x2="41.000019"
       y2="1045.3622"
       gradientUnits="userSpaceOnUse"
       gradientTransform="matrix(0.95652174,0,0,0.95652174,171.0435,-479.65043)" />
    <linearGradient
       inkscape:collect="always"
       xlink:href="#linearGradient4165-3"
       id="linearGradient4435"
       gradientUnits="userSpaceOnUse"
       gradientTransform="matrix(0.65217041,0,0,0.65217328,122.34777,-158.67056)"
       x1="7"
       y1="1011.3622"
       x2="41.000019"
       y2="1045.3622" />
    <linearGradient
       inkscape:collect="always"
       xlink:href="#linearGradient4165-3"
       id="linearGradient4620"
       gradientUnits="userSpaceOnUse"
       gradientTransform="matrix(0.4782599,0,0,0.47826359,80.52174,24.17187)"
       x1="7"
       y1="1011.3622"
       x2="41.000019"
       y2="1045.3622" />
    <linearGradient
       inkscape:collect="always"
       xlink:href="#linearGradient4165-3"
       id="linearGradient4553"
       gradientUnits="userSpaceOnUse"
       gradientTransform="matrix(0.4782599,0,0,0.47826359,43.52174,25.17187)"
       x1="7"
       y1="1011.3622"
       x2="41.000019"
       y2="1045.3622" />
  </defs>
  <sodipodi:namedview
     id="base"
     pagecolor="#c3c3c3"
     bordercolor="#333333"
     borderopacity="1"
     inkscape:pageopacity="0"
     inkscape:pageshadow="2"
     inkscape:zoom="0.9899495"
     inkscape:cx="848.70869"
     inkscape:cy="93.263409"
     inkscape:document-units="px"
     inkscape:current-layer="layer2"
     showgrid="true"
     units="px"
     inkscape:showpageshadow="false"
     inkscape:window-width="2560"
     inkscape:window-height="1369"
     inkscape:window-x="0"
     inkscape:window-y="35"
     inkscape:window-maximized="1">
    <inkscape:grid
       type="xygrid"
       id="grid4630" />
  </sodipodi:namedview>
  <metadata
     id="metadata1084">
    <rdf:RDF>
      <cc:Work
         rdf:about="">
        <dc:format>image/svg+xml</dc:format>
        <dc:type
           rdf:resource="http://purl.org/dc/dcmitype/StillImage" />
        <dc:title></dc:title>
        <cc:license
           rdf:resource="http://creativecommons.org/licenses/by-sa/4.0/" />
        <dc:creator>
          <cc:Agent>
            <dc:title>Peter Cornelis</dc:title>
          </cc:Agent>
        </dc:creator>
      </cc:Work>
      <cc:License
         rdf:about="http://creativecommons.org/licenses/by-sa/4.0/">
        <cc:permits
           rdf:resource="http://creativecommons.org/ns#Reproduction" />
        <cc:permits
           rdf:resource="http://creativecommons.org/ns#Distribution" />
        <cc:requires
           rdf:resource="http://creativecommons.org/ns#Notice" />
        <cc:requires
           rdf:resource="http://creativecommons.org/ns#Attribution" />
        <cc:permits
           rdf:resource="http://creativecommons.org/ns#DerivativeWorks" />
        <cc:requires
           rdf:resource="http://creativecommons.org/ns#ShareAlike" />
      </cc:License>
    </rdf:RDF>
  </metadata>
  <g
     inkscape:label="Baseplate"
     inkscape:groupmode="layer"
     id="layer1"
     transform="translate(0,-153.06668)"
     style="display:none">
    <rect
       style="display:inline;overflow:visible;visibility:visible;fill:#fefefe;fill-opacity:1;fill-rule:nonzero;stroke:none;stroke-width:2;marker:none;enable-background:accumulate"
       id="rect3951"
       width="512"
       height="512"
       x="-826"
       y="169.06668"
       inkscape:label="48x48"
       transform="scale(-1,1)" />
    <text
       y="733.32251"
       xml:space="preserve"
       x="15.006836"
       style="font-style:normal;font-variant:normal;font-weight:normal;font-stretch:normal;line-height:0%;font-family:'DejaVu Sans';-inkscape-font-specification:'DejaVu Sans';display:inline;fill:#000000;fill-opacity:1;stroke:none;enable-background:new"
       inkscape:label="context"
       id="context"><tspan
         style="font-style:normal;font-variant:normal;font-weight:normal;font-stretch:normal;font-size:18px;line-height:1.25;font-family:'DejaVu Sans';-inkscape-font-specification:'DejaVu Sans'"
         y="733.32251"
         x="15.006836"
         sodipodi:role="line"
         id="tspan3933">apps</tspan></text>
    <text
       y="733.32251"
       xml:space="preserve"
       x="142.48828"
       style="font-style:normal;font-variant:normal;font-weight:bold;font-stretch:normal;line-height:0%;font-family:'DejaVu Sans';-inkscape-font-specification:'DejaVu Sans Bold';text-align:start;writing-mode:lr-tb;text-anchor:start;display:inline;fill:#000000;fill-opacity:1;stroke:none;enable-background:new"
       inkscape:label="icon-name"
       id="icon-name"><tspan
         style="font-style:normal;font-variant:normal;font-weight:bold;font-stretch:normal;font-size:18px;line-height:1.25;font-family:'DejaVu Sans';-inkscape-font-specification:'DejaVu Sans Bold'"
         y="733.32251"
         x="142.48828"
         sodipodi:role="line"
         id="tspan3937">preferences-system-windows</tspan></text>
    <rect
       style="display:inline;overflow:visible;visibility:visible;fill:#fefefe;fill-opacity:1;fill-rule:nonzero;stroke:none;stroke-width:2;marker:none;enable-background:accumulate"
       id="rect16x16"
       width="16"
       height="16"
       x="-32"
       y="665.06665"
       inkscape:label="16x16"
       transform="scale(-1,1)" />
    <rect
       style="display:inline;overflow:visible;visibility:visible;fill:#fefefe;fill-opacity:1;fill-rule:nonzero;stroke:none;stroke-width:2;marker:none;enable-background:accumulate"
       id="rect24x24"
       width="24"
       height="24"
       x="-104"
       y="657.06665"
       inkscape:label="24x24"
       transform="scale(-1,1)" />
    <rect
       style="display:inline;overflow:visible;visibility:visible;fill:#fefefe;fill-opacity:1;fill-rule:nonzero;stroke:none;stroke-width:2;marker:none;enable-background:accumulate"
       id="rect32x32"
       width="32"
       height="32"
       x="-154"
       y="649.06665"
       inkscape:label="32x32"
       transform="scale(-1,1)" />
    <rect
       inkscape:label="48x48"
       y="633.06665"
       x="-218"
       height="48"
       width="48"
       id="rect48x48"
       style="display:inline;overflow:visible;visibility:visible;fill:#fefefe;fill-opacity:1;fill-rule:nonzero;stroke:none;stroke-width:2;marker:none;enable-background:accumulate"
       transform="scale(-1,1)" />
    <rect
       transform="scale(-1,1)"
       inkscape:label="48x48"
       y="617.06665"
       x="-298"
       height="64"
       width="64"
       id="rect4493"
       style="display:inline;overflow:visible;visibility:visible;fill:#fefefe;fill-opacity:1;fill-rule:nonzero;stroke:none;stroke-width:0.25;marker:none;enable-background:accumulate" />
    <rect
       transform="scale(-1,1)"
       inkscape:label="24x24"
       y="659.06665"
       x="-67"
       height="22"
       width="22"
       id="rect4495"
       style="display:inline;overflow:visible;visibility:visible;fill:#fefefe;fill-opacity:1;fill-rule:nonzero;stroke:none;stroke-width:1.83333325;marker:none;enable-background:accumulate" />
    <path
       style="display:inline;fill:#ffffff;fill-opacity:0.2;stroke:none;enable-background:new"
       d="m 56,659.06668 c -6.094,0 -11,4.906 -11,11 0,0.16899 0.01792,0.33292 0.02539,0.5 0.261765,-5.85817 5.049598,-10.5 10.974609,-10.5 5.925011,0 10.712844,4.64183 10.974609,10.5 0.0075,-0.16708 0.02539,-0.33101 0.02539,-0.5 0,-6.094 -4.906,-11 -11,-11 z"
       id="rect4613"
       inkscape:connector-curvature="0" />
  </g>
  <g
     inkscape:groupmode="layer"
     id="layer2"
     inkscape:label="Bitmap"
     style="display:inline">
    <path
       inkscape:connector-curvature="0"
       id="path4654"
       d="m 466,50 c -13.296,0 -24,10.704 -24,24 v 24 232 c 0,13.296 10.704,24 24,24 h 304 c 13.296,0 24,-10.704 24,-24 V 98 74 C 794,60.704 783.296,50 770,50 Z"
       style="display:inline;fill:#000000;fill-opacity:0.2;stroke:none;stroke-width:16;filter:url(#filter4660);enable-background:new" />
    <path
       style="display:inline;fill:#000000;fill-opacity:0.2;stroke:none;stroke-width:16;enable-background:new"
       d="m 466,50 c -13.296,0 -24,10.704 -24,24 v 24 232 c 0,13.296 10.704,24 24,24 h 304 c 13.296,0 24,-10.704 24,-24 V 98 74 C 794,60.704 783.296,50 770,50 Z"
       id="path4644"
       inkscape:connector-curvature="0" />
    <path
       style="display:inline;opacity:1;fill:#000000;fill-opacity:0.2;stroke:none;enable-background:new"
       d="m 152,500.5 v 16 c 0,0.831 -0.669,1.5 -1.5,1.5 h -19 c -0.831,0 -1.5,-0.669 -1.5,-1.5 v -16 c 0,-0.831 0.669,-1.5 1.5,-1.5 h 19 c 0.831,0 1.5,0.669 1.5,1.5 z"
       id="rect4512"
       inkscape:connector-curvature="0"
       sodipodi:nodetypes="sssssssss" />
    <path
       style="display:inline;fill:#d7d9db;fill-opacity:1;stroke:none;enable-background:new"
       d="m 131.5,498 c -0.14795,0 -0.28706,0.0288 -0.42187,0.0684 C 131.21468,498.0357 131.34988,498 131.5,498 Z m -1.5,3 v 14.5 c 0,0.831 0.669,1.5 1.5,1.5 h 19 c 0.831,0 1.5,-0.669 1.5,-1.5 V 501 Z"
       id="rect4468"
       inkscape:connector-curvature="0" />
    <path
       style="display:inline;opacity:1;fill:#000000;fill-opacity:0.2;stroke:none;enable-background:new"
       d="m 51.5,508 c -0.831,0 -1.5,0.669 -1.5,1.5 v 10.5 0.5 0.70117 C 50,521.64437 50.35758,522 50.80078,522 H 51.5 h 13 0.70117 C 66.19903,521.5706 66,521.02328 66,520 v -10.5 c 0,-0.831 -0.669,-1.5 -1.5,-1.5 z"
       id="rect4516"
       inkscape:connector-curvature="0" />
    <path
       style="display:inline;opacity:1;fill:#000000;fill-opacity:0.2;stroke:none;enable-background:new"
       d="m 47.5,514 c -0.831,0 -1.5,0.669 -1.5,1.5 v 10.5 0.5 0.70117 C 46,527.64437 46.35758,528 46.80078,528 H 47.5 h 13 0.70117 C 61.64437,528 62,527.64437 62,527.20117 V 526.5 526 515.5 c 0,-0.831 -0.669,-1.5 -1.5,-1.5 z"
       id="rect4518"
       inkscape:connector-curvature="0" />
    <path
       style="display:inline;fill:#d7d9db;fill-opacity:1;stroke:none;enable-background:new"
       d="m 50,509 v 10 0.5 0.70117 C 50,520.64437 50.35758,521 50.80078,521 H 51.5 h 13 0.70117 C 66.19903,520.5706 66,520.02328 66,519 v -10 z"
       id="rect4440"
       inkscape:connector-curvature="0" />
    <path
       style="display:inline;fill:#e2e5e7;fill-opacity:1;stroke:none;enable-background:new"
       d="m 46,515 v 10 0.5 0.70117 C 46,526.64437 46.35758,527 46.80078,527 H 47.5 h 13 0.70117 C 61.64437,527 62,526.64437 62,526.20117 V 525.5 525 515 Z"
       id="rect4446"
       inkscape:connector-curvature="0" />
    <path
       style="display:inline;opacity:1;fill:#000000;fill-opacity:0.2;stroke:none;enable-background:new;filter:url(#filter4874)"
       d="m 214,486.6 v 24.79991 c 0,0.8864 -0.7136,1.6 -1.6,1.6 h -28.8 c -0.8864,0 -1.6,-0.7136 -1.6,-1.6 V 486.6 c 0,-0.8864 0.7136,-1.6 1.6,-1.6 h 28.8 c 0.8864,0 1.6,0.7136 1.6,1.6 z"
       id="rect4372"
       inkscape:connector-curvature="0"
       sodipodi:nodetypes="sssssssss" />
    <path
       style="display:inline;fill:#d7d9db;fill-opacity:1;stroke:none;enable-background:new"
       d="m 182,488 v 22.40039 c 0,0.8864 0.71321,1.59961 1.59961,1.59961 h 28.80078 C 213.28679,512 214,511.28679 214,510.40039 V 488 Z"
       id="rect4203"
       inkscape:connector-curvature="0" />
    <path
       style="display:inline;fill:#4b525f;fill-opacity:1;stroke:none;enable-background:new"
       d="M 183.59961,484 C 182.71321,484 182,484.71321 182,485.59961 V 488 h 32 v -2.40039 C 214,484.71321 213.28679,484 212.40039,484 Z"
       id="path4458"
       inkscape:connector-curvature="0" />
    <path
       style="display:inline;fill:#e2e5e7;fill-opacity:1;stroke:none;enable-background:new"
       d="m 16,516 v 9.5 c 0,0.831 0.669,1.5 1.5,1.5 h 13 c 0.831,0 1.5,-0.669 1.5,-1.5 V 516 Z"
       id="rect4265"
       inkscape:connector-curvature="0"
       sodipodi:nodetypes="csssscc" />
    <path
       style="display:inline;opacity:1;fill:#000000;fill-opacity:0.2;stroke:none;enable-background:new;filter:url(#filter4870)"
       d="M 206,498.60009 V 523.4 c 0,0.8864 -0.7136,1.6 -1.6,1.6 h -28.8 c -0.8864,0 -1.6,-0.7136 -1.6,-1.6 v -24.79991 c 0,-0.8864 0.7136,-1.6 1.6,-1.6 h 28.8 c 0.8864,0 1.6,0.7136 1.6,1.6 z"
       id="rect3598"
       inkscape:connector-curvature="0"
       sodipodi:nodetypes="sssssssss" />
    <path
       style="display:inline;fill:#e2e5e7;fill-opacity:1;stroke:none;enable-background:new"
       d="m 174,500 v 22.40039 c 0,0.8864 0.71321,1.59961 1.59961,1.59961 h 28.80078 C 205.28679,524 206,523.28679 206,522.40039 V 500 Z"
       id="rect3552"
       inkscape:connector-curvature="0" />
    <path
       style="display:inline;fill:#4b525f;fill-opacity:1;stroke:none;enable-background:new"
       d="M 175.59961,496 C 174.71321,496 174,496.71321 174,497.59961 V 500 h 32 v -2.40039 C 206,496.71321 205.28679,496 204.40039,496 Z"
       id="path4460"
       inkscape:connector-curvature="0" />
    <path
       style="display:inline;opacity:1;fill:#000000;fill-opacity:0.2;stroke:none;enable-background:new"
       d="m 145.99999,509.5 v 16 c 0,0.831 -0.669,1.5 -1.5,1.5 h -19 c -0.831,0 -1.5,-0.669 -1.5,-1.5 v -16 c 0,-0.831 0.669,-1.5 1.5,-1.5 h 19 c 0.831,0 1.5,0.669 1.5,1.5 z"
       id="rect4514"
       inkscape:connector-curvature="0"
       sodipodi:nodetypes="sssssssss" />
    <path
       style="display:inline;fill:#e2e5e7;fill-opacity:1;stroke:none;enable-background:new"
       d="m 124,510 v 14.5 c 0,0.831 0.669,1.5 1.5,1.5 h 19 c 0.831,0 1.5,-0.669 1.5,-1.5 V 510 Z"
       id="rect4474"
       inkscape:connector-curvature="0" />
    <path
       id="path4499"
       d="m 125.5,507 c -0.831,0 -1.5,0.669 -1.5,1.5 v 1.5 h 22 v -1.5 c 0,-0.831 -0.669,-1.5 -1.5,-1.5 z"
       style="display:inline;fill:#4b525f;fill-opacity:1;stroke:none;enable-background:new"
       inkscape:connector-curvature="0"
       sodipodi:nodetypes="ssccsss" />
    <path
       style="display:inline;opacity:1;fill:#ffffff;fill-opacity:0.2;stroke:none;enable-background:new"
       d="m 125.5,507 c -0.831,0 -1.5,0.669 -1.5,1.5 v 1 c 0,-0.831 0.669,-1.5 1.5,-1.5 h 19 c 0.831,0 1.5,0.669 1.5,1.5 v -1 c 0,-0.831 -0.669,-1.5 -1.5,-1.5 z"
       id="rect4578"
       inkscape:connector-curvature="0"
       sodipodi:nodetypes="sscsscsss" />
    <path
       id="path4521"
       d="m 47,513 c 0.2002,0 -1,0 -0.9743,0.99604 0,0 -0.0257,0.49232 -0.0257,1.00396 h 16 v -1.2002 C 62,513.3566 61.64339,513 61.20019,513 Z"
       style="display:inline;fill:#4b525f;fill-opacity:1;stroke:none;enable-background:new"
       inkscape:connector-curvature="0"
       sodipodi:nodetypes="csccssc" />
    <path
       sodipodi:nodetypes="ssccsss"
       inkscape:connector-curvature="0"
       style="display:inline;fill:#4b525f;fill-opacity:1;stroke:none;enable-background:new"
       d="m 131.5,498 c -0.831,0 -1.5,0.5 -1.5,1.5 v 1.5 h 22 v -1.5 c 0,-0.831 -0.669,-1.5 -1.5,-1.5 z"
       id="path4501" />
    <path
       style="display:inline;opacity:1;fill:#ffffff;fill-opacity:0.2;stroke:none;enable-background:new"
       d="m 131.5,498 c -0.831,0 -1.5,0.669 -1.5,1.5 v 1 c 0,-0.831 0.669,-1.5 1.5,-1.5 h 19 c 0.831,0 1.5,0.669 1.5,1.5 v -1 c 0,-0.831 -0.669,-1.5 -1.5,-1.5 z"
       id="rect4576"
       inkscape:connector-curvature="0"
       sodipodi:nodetypes="sscsscsss" />
    <path
       id="path4519"
       d="M 50.7998,507 C 50.3566,507 50,507.3566 50,507.7998 V 509 h 16 v -1.2002 C 66,507.3566 65.64339,507 65.20019,507 Z"
       style="display:inline;fill:#4b525f;fill-opacity:1;stroke:none;enable-background:new"
       inkscape:connector-curvature="0" />
    <path
       style="display:inline;opacity:1;fill:#ffffff;fill-opacity:0.2;stroke:none;enable-background:new"
       d="M 50.79883,507 C 50.35563,507 50,507.35563 50,507.79883 v 1 C 50,508.35563 50.35563,508 50.79883,508 H 65.19922 C 65.64242,508 66,508.35563 66,508.79883 v -1 C 66,507.35563 65.64242,507 65.19922,507 Z"
       id="path4552"
       inkscape:connector-curvature="0" />
    <path
       id="path4557"
       d="M 46.79883,513 C 46.35563,513 46,513.35563 46,513.79883 v 1 C 46,514.35563 46.35563,514 46.79883,514 H 61.19922 C 61.64242,514 62,514.35563 62,514.79883 v -1 C 62,513.35563 61.64242,513 61.19922,513 Z"
       style="display:inline;opacity:1;fill:#ffffff;fill-opacity:0.2;stroke:none;enable-background:new"
       inkscape:connector-curvature="0" />
    <path
       style="display:inline;fill:#4b525f;fill-opacity:1;stroke:none;enable-background:new"
       d="m 17.5,513 c -0.831,0 -1.5,0.669 -1.5,1.5 v 1.5 h 16 v -1.5 c 0,-0.831 -0.669,-1.5 -1.5,-1.5 z"
       id="path4563"
       inkscape:connector-curvature="0"
       sodipodi:nodetypes="ssccsss" />
    <path
       inkscape:connector-curvature="0"
       id="path4574"
       d="m 87.5,507 c -0.831,0 -1.5,0.669 -1.5,1.5 v 10.5 0.5 0.70117 C 86,520.64437 86.35758,521 86.80078,521 H 87.5 h 13 0.70117 C 102.19903,520.5706 102,520.02328 102,519 v -10.5 c 0,-0.831 -0.669,-1.5 -1.5,-1.5 z"
       style="display:inline;opacity:1;fill:#000000;fill-opacity:0.2;stroke:none;enable-background:new" />
    <path
       inkscape:connector-curvature="0"
       id="path4576"
       d="m 83.5,513 c -0.831,0 -1.5,0.669 -1.5,1.5 v 10.5 0.5 0.70117 C 82,526.64437 82.35758,527 82.80078,527 H 83.5 h 13 0.70117 C 97.64437,527 98,526.64437 98,526.20117 V 525.5 525 514.5 c 0,-0.831 -0.669,-1.5 -1.5,-1.5 z"
       style="display:inline;opacity:1;fill:#000000;fill-opacity:0.2;stroke:none;enable-background:new" />
    <path
       inkscape:connector-curvature="0"
       id="path4578"
       d="m 86,508 v 10 0.5 0.70117 C 86,519.64437 86.35758,520 86.80078,520 H 87.5 h 13 0.70117 C 102.19903,519.5706 102,519.02328 102,518 v -10 z"
       style="display:inline;fill:#d7d9db;fill-opacity:1;stroke:none;enable-background:new" />
    <path
       inkscape:connector-curvature="0"
       id="path4580"
       d="m 82,514 v 10 0.5 0.70117 C 82,525.64437 82.35758,526 82.80078,526 H 83.5 h 13 0.70117 C 97.64437,526 98,525.64437 98,525.20117 V 524.5 524 514 Z"
       style="display:inline;fill:#e2e5e7;fill-opacity:1;stroke:none;enable-background:new" />
    <path
       sodipodi:nodetypes="csccssc"
       inkscape:connector-curvature="0"
       style="display:inline;fill:#4b525f;fill-opacity:1;stroke:none;enable-background:new"
       d="m 83,512 c 0.2002,0 -1,0 -0.9743,0.99604 0,0 -0.0257,0.49232 -0.0257,1.00396 h 16 v -1.2002 C 98,512.3566 97.64339,512 97.20019,512 Z"
       id="path4582" />
    <path
       inkscape:connector-curvature="0"
       style="display:inline;fill:#4b525f;fill-opacity:1;stroke:none;enable-background:new"
       d="M 86.7998,506 C 86.3566,506 86,506.3566 86,506.7998 V 508 h 16 v -1.2002 C 102,506.3566 101.64339,506 101.20019,506 Z"
       id="path4584" />
    <path
       inkscape:connector-curvature="0"
       id="path4586"
       d="M 86.79883,506 C 86.35563,506 86,506.35563 86,506.79883 v 1 C 86,507.35563 86.35563,507 86.79883,507 h 14.40039 c 0.4432,0 0.80078,0.35563 0.80078,0.79883 v -1 C 102,506.35563 101.64242,506 101.19922,506 Z"
       style="display:inline;opacity:1;fill:#ffffff;fill-opacity:0.2;stroke:none;enable-background:new" />
    <path
       inkscape:connector-curvature="0"
       style="display:inline;opacity:1;fill:#ffffff;fill-opacity:0.2;stroke:none;enable-background:new"
       d="M 82.79883,512 C 82.35563,512 82,512.35563 82,512.79883 v 1 C 82,513.35563 82.35563,513 82.79883,513 H 97.19922 C 97.64242,513 98,513.35563 98,513.79883 v -1 C 98,512.35563 97.64242,512 97.19922,512 Z"
       id="path4588" />
    <path
       style="display:inline;fill:#000000;fill-opacity:0.2;stroke:none;stroke-width:2;enable-background:new;filter:url(#filter4862)"
       d="M 241 487 C 240.84146 487 240.68885 487.01934 240.53906 487.04688 C 239.09936 487.26902 238 488.49618 238 490 L 238 493 L 238 522 C 238 523.662 239.338 525 241 525 L 279 525 C 280.662 525 282 523.662 282 522 L 282 493 L 282 490 C 282 488.338 280.662 487 279 487 L 241 487 z "
       id="path4611" />
    <path
       id="path4856"
       d="m 253,469 c -0.15854,0 -0.31115,0.0193 -0.46094,0.0469 C 251.09936,469.26902 250,470.49618 250,472 v 3 29 c 0,1.662 1.338,3 3,3 h 38 c 1.662,0 3,-1.338 3,-3 v -29 -3 c 0,-1.662 -1.338,-3 -3,-3 z"
       style="display:inline;fill:#000000;fill-opacity:0.2;stroke:none;stroke-width:2;enable-background:new;filter:url(#filter4858)"
       inkscape:connector-curvature="0" />
    <path
       inkscape:connector-curvature="0"
       id="path4601"
       d="m 253,468.00003 c -0.2959,0 -0.57412,0.0576 -0.84374,0.1368 0.2731,-0.0654 0.5435,-0.1368 0.84374,-0.1368 z m -3,6 v 29 c 0,1.662 1.338,3 3,3 h 38 c 1.662,0 3,-1.338 3,-3 v -29 z"
       style="display:inline;fill:#d7d9db;fill-opacity:1;stroke:none;stroke-width:2;enable-background:new" />
    <path
       inkscape:connector-curvature="0"
       id="path4603"
       d="m 238,492.00003 v 29 c 0,1.662 1.338,3 3,3 h 38 c 1.662,0 3,-1.338 3,-3 v -29 z"
       style="display:inline;fill:#e2e5e7;fill-opacity:1;stroke:none;stroke-width:2;enable-background:new" />
    <path
       sodipodi:nodetypes="ssccsss"
       inkscape:connector-curvature="0"
       style="display:inline;fill:#4b525f;fill-opacity:1;stroke:none;stroke-width:2;enable-background:new"
       d="m 241,486.00003 c -1.662,0 -3,1.338 -3,3 v 3 h 44 v -3 c 0,-1.662 -1.338,-3 -3,-3 z"
       id="path4605" />
    <path
       id="path4607"
       d="m 253,468.00003 c -1.662,0 -3,1 -3,3 v 3 h 44 v -3 c 0,-1.662 -1.338,-3 -3,-3 z"
       style="display:inline;fill:#4b525f;fill-opacity:1;stroke:none;stroke-width:2;enable-background:new"
       inkscape:connector-curvature="0"
       sodipodi:nodetypes="ssccsss" />
    <path
       inkscape:connector-curvature="0"
       style="display:inline;fill:#ffffff;fill-opacity:0.2;stroke:none;stroke-width:2;enable-background:new"
       d="m 241,486 c -1.662,0 -3,1.338 -3,3 v 1 c 0,-1.662 1.338,-3 3,-3 h 38 c 1.662,0 3,1.338 3,3 v -1 c 0,-1.662 -1.338,-3 -3,-3 z"
       id="path4613" />
    <path
       id="path4618"
       d="m 291,468 c 1.662,0 3,1.338 3,3 v 1 c 0,-1.662 -1.338,-3 -3,-3 h -38 c -1.662,0 -3,1.338 -3,3 v -1 c 0,-1.662 1.338,-3 3,-3 z"
       style="display:inline;fill:#ffffff;fill-opacity:0.2;stroke:none;stroke-width:2;enable-background:new"
       inkscape:connector-curvature="0" />
    <path
       inkscape:connector-curvature="0"
       style="display:inline;fill:#ffffff;fill-opacity:0.2;stroke:none;enable-background:new"
       d="M 175.59961,496 C 174.71321,496 174,496.71321 174,497.59961 v 1 C 174,497.71321 174.71321,497 175.59961,497 h 28.80078 c 0.8864,0 1.59961,0.71321 1.59961,1.59961 v -1 C 206,496.71321 205.28679,496 204.40039,496 Z"
       id="path4620" />
    <path
       id="path4625"
       d="M 183.59961,484 C 182.71321,484 182,484.71321 182,485.59961 v 1 C 182,485.71321 182.71321,485 183.59961,485 h 28.80078 c 0.8864,0 1.59961,0.71321 1.59961,1.59961 v -1 C 214,484.71321 213.28679,484 212.40039,484 Z"
       style="display:inline;fill:#ffffff;fill-opacity:0.2;stroke:none;enable-background:new"
       inkscape:connector-curvature="0" />
    <path
       style="display:inline;fill:#d7d9db;fill-opacity:1;stroke:none;stroke-width:16;enable-background:new"
       d="m 466,48.00045 c -2.3672,0 -4.59296,0.4608 -6.74992,1.0944 2.1848,-0.5232 4.348,-1.0944 6.74992,-1.0944 z m -24,48 v 232 c 0,13.296 10.704,24 24,24 h 304 c 13.296,0 24,-10.704 24,-24 v -232 z"
       id="path4629"
       inkscape:connector-curvature="0" />
    <path
       inkscape:connector-curvature="0"
       style="display:inline;fill:#000000;fill-opacity:0.2;stroke:none;stroke-width:16;enable-background:new"
       d="m 370,194 c -13.296,0 -24,10.704 -24,24 v 24 232 c 0,13.296 10.704,24 24,24 h 304 c 13.296,0 24,-10.704 24,-24 V 242 218 c 0,-13.296 -10.704,-24 -24,-24 z"
       id="path4637" />
    <path
       inkscape:connector-curvature="0"
       id="path4642"
       d="m 370,194 c -13.296,0 -24,10.704 -24,24 v 24 232 c 0,13.296 10.704,24 24,24 h 304 c 13.296,0 24,-10.704 24,-24 V 242 218 c 0,-13.296 -10.704,-24 -24,-24 z"
       style="display:inline;fill:#000000;fill-opacity:0.2;stroke:none;stroke-width:16;filter:url(#filter4650);enable-background:new" />
    <path
       style="display:inline;fill:#e2e5e7;fill-opacity:1;stroke:none;stroke-width:16;enable-background:new"
       d="m 346,240.00045 v 232 c 0,13.296 10.704,24 24,24 h 304 c 13.296,0 24,-10.704 24,-24 v -232 z"
       id="path4631"
       inkscape:connector-curvature="0" />
    <path
       id="path4633"
       d="m 370,192.00045 c -13.296,0 -24,10.704 -24,24 v 24 h 352 v -24 c 0,-13.296 -10.704,-24 -24,-24 z"
       style="display:inline;fill:#4b525f;fill-opacity:1;stroke:none;stroke-width:16;enable-background:new"
       inkscape:connector-curvature="0"
       sodipodi:nodetypes="ssccsss" />
    <path
       sodipodi:nodetypes="ssccsss"
       inkscape:connector-curvature="0"
       style="display:inline;fill:#4b525f;fill-opacity:1;stroke:none;stroke-width:16;enable-background:new"
       d="m 466,48.00045 c -13.296,0 -24,8 -24,24 v 24 h 352 v -24 c 0,-13.296 -10.704,-24 -24,-24 z"
       id="path4635" />
    <path
       style="display:inline;fill:#ffffff;fill-opacity:0.2;stroke:none;stroke-width:16;enable-background:new"
       d="M 466 48 C 452.704 48 442 56 442 72 L 442 74 C 442 58 452.704 50 466 50 L 770 50 C 783.296 50 794 60.704 794 74 L 794 72 C 794 58.704 783.296 48 770 48 L 466 48 z "
       id="path4841" />
    <path
       style="display:inline;fill:#ffffff;fill-opacity:0.2;stroke:none;stroke-width:16;enable-background:new"
       d="M 370 192 C 356.704 192 346 202.704 346 216 L 346 218 C 346 204.704 356.704 194 370 194 L 674 194 C 687.296 194 698 204.704 698 218 L 698 216 C 698 202.704 687.296 192 674 192 L 370 192 z "
       id="path4848" />
    <path
       style="display:inline;fill:url(#linearGradient4171-1-0);fill-opacity:1;stroke:none;stroke-width:2;stroke-linecap:round;stroke-linejoin:round;stroke-miterlimit:4;stroke-dasharray:none;stroke-opacity:1;enable-background:new"
       d="M 183.59961 484 C 183.37953 484 183.17093 484.04338 182.98047 484.12305 C 182.88532 484.16291 182.7936 484.21285 182.70898 484.26953 C 182.62436 484.32622 182.54665 484.3895 182.47461 484.46094 C 182.40257 484.53238 182.33671 484.61119 182.2793 484.69531 C 182.17425 484.84923 182.09908 485.02437 182.05273 485.21094 C 182.04812 485.22953 182.04108 485.24677 182.03711 485.26562 C 182.01562 485.36775 182.00314 485.47361 182.00195 485.58203 C 182.00189 485.58806 182 485.59356 182 485.59961 L 182 488 L 182 496 L 175.59961 496 C 174.71321 496 174 496.71321 174 497.59961 L 174 500 L 174 513.11133 L 174 522.40039 C 174 523.28679 174.71321 524 175.59961 524 L 184.91992 524 L 203.09961 524 L 204.40039 524 C 204.62047 524 204.82907 523.95662 205.01953 523.87695 C 205.11473 523.83704 205.20636 523.78723 205.29102 523.73047 C 205.37567 523.67371 205.45529 523.60864 205.52734 523.53711 C 205.66569 523.39976 205.77661 523.23727 205.85742 523.05664 C 205.86078 523.04918 205.8659 523.04268 205.86914 523.03516 C 205.86938 523.03459 205.8689 523.03377 205.86914 523.0332 C 205.90523 522.94878 205.93181 522.85884 205.95312 522.76758 C 205.95565 522.75684 205.96059 522.74715 205.96289 522.73633 C 205.96302 522.73571 205.96276 522.735 205.96289 522.73438 C 205.98454 522.63156 205.99698 522.52522 205.99805 522.41602 C 205.9981 522.41064 206 522.40577 206 522.40039 L 206 512 L 212.40039 512 C 213.28679 512 214 511.28679 214 510.40039 L 214 494.89258 L 214 488 L 214 485.59961 C 214 484.71321 213.28679 484 212.40039 484 L 203.08008 484 L 184.90039 484 L 183.59961 484 z "
       id="circle4163-3-4" />
    <path
       style="display:inline;fill:url(#linearGradient4435);fill-opacity:1;stroke:none;stroke-width:2;stroke-linecap:round;stroke-linejoin:round;stroke-miterlimit:4;stroke-dasharray:none;stroke-opacity:1;enable-background:new"
       d="M 131.5 498 C 131.35205 498 131.21294 498.02876 131.07812 498.06836 C 130.93299 498.10304 130.79944 498.16056 130.67578 498.23047 C 130.57972 498.28679 130.496 498.35839 130.41797 498.4375 C 130.4 498.45492 130.37829 498.46776 130.36133 498.48633 C 130.18146 498.6925 130.06413 498.96783 130.0293 499.31055 C 130.02914 499.31208 130.0275 499.31292 130.02734 499.31445 C 130.02097 499.37864 130 499.43077 130 499.5 L 130 501 L 130 507 L 125.5 507 C 124.669 507 124 507.669 124 508.5 L 124 510 L 124 517.33594 L 124 524.5 C 124 525.331 124.669 526 125.5 526 L 132.6875 526 L 143.33203 526 L 144.5 526 C 144.60321 526 144.70354 525.98842 144.80078 525.96875 C 144.81083 525.9667 144.8201 525.96319 144.83008 525.96094 C 144.90701 525.94372 144.98084 525.92105 145.05273 525.89258 C 145.21214 525.8289 145.35797 525.73861 145.48438 525.62695 C 145.48997 525.62207 145.49643 525.61825 145.50195 525.61328 C 145.6285 525.49809 145.73519 525.35974 145.81641 525.20703 C 145.82025 525.19986 145.82439 525.19278 145.82812 525.18555 C 145.86665 525.11014 145.89822 525.03142 145.92383 524.94922 C 145.95014 524.86476 145.96916 524.7777 145.98047 524.6875 C 145.9808 524.68487 145.98211 524.68232 145.98242 524.67969 C 145.98957 524.62005 146 524.56162 146 524.5 L 146 517 L 150.5 517 C 151.331 517 152 516.331 152 515.5 L 152 506.66406 L 152 501 L 152 499.5 C 152 498.669 151.331 498 150.5 498 L 143.31445 498 L 132.66406 498 L 131.5 498 z "
       id="path4433" />
    <path
       style="display:inline;fill:url(#linearGradient4449-0);fill-opacity:1;stroke:none;stroke-width:16;stroke-linecap:round;stroke-linejoin:round;stroke-miterlimit:4;stroke-dasharray:none;stroke-opacity:1;enable-background:new"
       d="M 466 48 C 465.19803 48 464.40633 48.031634 463.625 48.089844 C 463.32599 48.112132 463.03586 48.156684 462.74023 48.1875 C 462.25455 48.238105 461.76686 48.28576 461.29102 48.359375 C 460.66303 48.45658 460.04458 48.573642 459.43555 48.710938 C 459.33014 48.73469 459.22394 48.756297 459.11914 48.78125 C 458.50179 48.928299 457.89594 49.098394 457.30078 49.287109 C 457.2095 49.316044 457.11807 49.345086 457.02734 49.375 C 456.42748 49.572854 455.8401 49.790553 455.26562 50.03125 C 455.18428 50.065312 455.10425 50.101798 455.02344 50.136719 C 454.44419 50.387179 453.8766 50.658532 453.32617 50.953125 C 453.2061 51.017366 453.08738 51.08405 452.96875 51.150391 C 452.78293 51.254338 452.59627 51.357697 452.41406 51.466797 C 452.28731 51.542668 452.16403 51.622808 452.03906 51.701172 C 451.87351 51.80501 451.70727 51.907412 451.54492 52.015625 C 451.36924 52.132691 451.19724 52.254765 451.02539 52.376953 C 450.90555 52.462187 450.78396 52.545088 450.66602 52.632812 C 450.54213 52.724932 450.42254 52.823101 450.30078 52.917969 C 450.13371 53.048188 449.9657 53.177105 449.80273 53.3125 C 449.53633 53.533825 449.27465 53.760938 449.01953 53.996094 C 448.86869 54.135086 448.72491 54.281955 448.57812 54.425781 C 448.47225 54.529555 448.36349 54.630039 448.25977 54.736328 C 448.0821 54.918387 447.91147 55.107435 447.74023 55.296875 C 447.67648 55.367403 447.60972 55.434309 447.54688 55.505859 C 447.36925 55.7081 447.1976 55.918493 447.02734 56.128906 C 446.97169 56.197674 446.91423 56.264344 446.85938 56.333984 C 446.70445 56.53071 446.55663 56.733809 446.4082 56.9375 C 446.34069 57.030119 446.27123 57.120784 446.20508 57.214844 C 446.06248 57.417684 445.92522 57.6264 445.78906 57.835938 C 445.726 57.932963 445.66127 58.028491 445.59961 58.126953 C 445.46597 58.340416 445.33787 58.559084 445.21094 58.779297 C 445.1514 58.882552 445.09124 58.985104 445.0332 59.089844 C 444.91475 59.303674 444.80158 59.522173 444.68945 59.742188 C 444.62837 59.862015 444.56699 59.981853 444.50781 60.103516 C 444.40243 60.320219 444.30042 60.541149 444.20117 60.763672 C 444.14005 60.900681 444.08024 61.038519 444.02148 61.177734 C 443.93309 61.387203 443.84665 61.598036 443.76367 61.8125 C 443.70626 61.960836 443.65048 62.110993 443.5957 62.261719 C 443.50984 62.498056 443.42697 62.736304 443.34766 62.978516 C 443.30555 63.10704 443.26484 63.237008 443.22461 63.367188 C 443.14851 63.613498 443.07518 63.863002 443.00586 64.115234 C 442.96301 64.271147 442.92304 64.429715 442.88281 64.587891 C 442.82149 64.829022 442.76021 65.070017 442.70508 65.316406 C 442.6688 65.478514 442.63708 65.644209 442.60352 65.808594 C 442.55168 66.062488 442.50037 66.316848 442.45508 66.576172 C 442.42824 66.729889 442.40537 66.887343 442.38086 67.042969 C 442.33706 67.32101 442.29212 67.598681 442.25586 67.882812 C 442.24053 68.002965 442.23077 68.126805 442.2168 68.248047 C 442.17877 68.578054 442.14109 68.908019 442.11328 69.246094 C 442.04001 70.136798 442 71.053278 442 72 L 442 96 L 442 192 L 370 192 C 356.704 192 346 202.704 346 216 L 346 240 L 346 357.37695 L 346 472 C 346 485.296 356.704 496 370 496 L 484.98242 496 L 655.36523 496 L 674 496 C 674.39976 496 674.79655 495.98984 675.19141 495.9707 C 675.36244 495.96242 675.53112 495.94541 675.70117 495.93359 C 675.91888 495.91847 676.13748 495.90561 676.35352 495.88477 C 676.54029 495.86674 676.72468 495.84256 676.91016 495.82031 C 677.121 495.79503 677.33192 495.77091 677.54102 495.74023 C 677.69551 495.71756 677.84845 495.68964 678.00195 495.66406 C 678.23819 495.62471 678.47518 495.58522 678.70898 495.53906 C 678.86104 495.50903 679.01112 495.47428 679.16211 495.44141 C 679.38596 495.39269 679.60865 495.34199 679.83008 495.28711 C 679.98052 495.24981 680.13001 495.21004 680.2793 495.16992 C 680.50501 495.1093 680.73013 495.04743 680.95312 494.98047 C 681.09839 494.93683 681.24265 494.892 681.38672 494.8457 C 681.59924 494.77745 681.80968 494.70676 682.01953 494.63281 C 682.17568 494.57776 682.3317 494.52105 682.48633 494.46289 C 682.62591 494.41041 682.76403 494.35382 682.90234 494.29883 C 683.50074 494.06083 684.08882 493.80308 684.66211 493.51953 C 684.71671 493.49254 684.76986 493.46294 684.82422 493.43555 C 685.42661 493.13183 686.01624 492.80676 686.58789 492.45508 C 686.61082 492.44098 686.63337 492.42628 686.65625 492.41211 C 687.24917 492.04458 687.8261 491.65465 688.38281 491.23828 C 688.95341 490.81153 689.50376 490.35774 690.0332 489.88281 C 690.03425 489.88187 690.03606 489.8818 690.03711 489.88086 C 690.0378 489.88024 690.03838 489.87952 690.03906 489.87891 C 690.55365 489.41703 691.04678 488.93219 691.51953 488.42773 C 691.5416 488.4042 691.56396 488.38105 691.58594 488.35742 C 692.04594 487.86258 692.48321 487.34709 692.90039 486.81445 C 692.92843 486.77867 692.95653 486.74297 692.98438 486.70703 C 693.40177 486.16782 693.797 485.61175 694.16797 485.03711 C 694.18129 485.01649 694.19377 484.99527 694.20703 484.97461 C 694.58218 484.38954 694.93552 483.78662 695.25977 483.16797 C 695.26328 483.16127 695.26798 483.15514 695.27148 483.14844 C 695.27646 483.13892 695.28019 483.12867 695.28516 483.11914 C 696.61057 480.57603 697.49448 477.76393 697.83594 474.78125 C 697.94043 473.86849 698 472.94164 698 472 L 698 352 L 770 352 C 783.296 352 794 341.296 794 328 L 794 186.6543 L 794 96 L 794 72 C 794 58.704 783.296 48 770 48 L 655.00781 48 L 484.625 48 L 466 48 z "
       id="path4447" />
    <path
       style="display:inline;fill:url(#linearGradient4537);fill-opacity:1;stroke:none;stroke-width:2;stroke-linecap:round;stroke-linejoin:round;stroke-miterlimit:4;stroke-dasharray:none;stroke-opacity:1;enable-background:new"
       d="M 253 468 C 252.7983 468 252.60246 468.01546 252.41211 468.04492 C 252.33465 468.05708 252.26258 468.08055 252.1875 468.09766 C 252.08341 468.12102 251.97802 468.14306 251.87891 468.17578 C 251.76265 468.21477 251.65515 468.26631 251.54688 468.31836 C 251.49845 468.34126 251.4471 468.3593 251.40039 468.38477 C 251.26733 468.45855 251.14283 468.54568 251.02539 468.64062 C 251.01152 468.65166 250.99606 468.66055 250.98242 468.67188 C 250.85363 468.78053 250.73518 468.90223 250.62891 469.03711 C 250.52033 469.17492 250.42376 469.32514 250.3418 469.49023 C 250.25983 469.65533 250.19089 469.83505 250.13867 470.02734 C 250.08646 470.21964 250.05058 470.42514 250.03125 470.64453 C 250.02082 470.76295 250 470.87359 250 471 L 250 474 L 250 486 L 241 486 C 239.338 486 238 487.338 238 489 L 238 492 L 238 506.67188 L 238 521 C 238 522.662 239.338 524 241 524 L 255.37305 524 L 276.67188 524 L 279 524 C 279.19972 524 279.39343 523.97829 279.58203 523.94141 C 279.66161 523.92576 279.73541 523.89681 279.8125 523.875 C 279.91577 523.84598 280.02077 523.82069 280.11914 523.78125 C 280.2137 523.743 280.30126 523.69192 280.39062 523.64453 C 280.46262 523.60671 280.53711 523.57265 280.60547 523.5293 C 280.70637 523.46463 280.79858 523.39052 280.89062 523.31445 C 280.93443 523.27867 280.9798 523.2452 281.02148 523.20703 C 281.12347 523.11247 281.21865 523.00837 281.30664 522.90039 C 281.32932 522.87286 281.3533 522.84671 281.375 522.81836 C 281.47199 522.69028 281.55896 522.55528 281.63477 522.41211 C 281.63724 522.40748 281.64012 522.40308 281.64258 522.39844 C 281.64419 522.39535 281.64488 522.39176 281.64648 522.38867 C 281.7267 522.23392 281.79477 522.07156 281.84766 521.90234 C 281.84809 521.90097 281.84918 521.89981 281.84961 521.89844 C 281.84998 521.89723 281.84924 521.89573 281.84961 521.89453 C 281.90256 521.72346 281.94071 521.54606 281.96289 521.36328 C 281.96313 521.36129 281.96461 521.35941 281.96484 521.35742 C 281.979 521.23874 282 521.12262 282 521 L 282 506 L 291 506 C 292.662 506 294 504.662 294 503 L 294 485.33008 L 294 474 L 294 471 C 294 469.338 292.662 468 291 468 L 276.625 468 L 255.32812 468 L 253 468 z "
       id="path4535" />
    <path
       style="display:inline;fill:url(#linearGradient4620);fill-opacity:1;stroke:none;stroke-width:1.46667397;stroke-linecap:round;stroke-linejoin:round;stroke-miterlimit:4;stroke-dasharray:none;stroke-opacity:1;enable-background:new"
       d="M 86.798828 506 C 86.688028 506 86.581993 506.02223 86.486328 506.0625 C 86.391937 506.10231 86.307749 506.15943 86.236328 506.23047 C 86.164522 506.30189 86.106915 506.38767 86.066406 506.48242 C 86.025897 506.57717 86.003065 506.68119 86.001953 506.79102 C 86.001925 506.79381 86 506.79603 86 506.79883 L 86 508 L 86 512 L 83 512 C 83.2002 512 81.999691 512.00005 82.025391 512.99609 C 82.025391 512.99609 82 513.48836 82 514 L 82 520.55469 L 82 524 L 82 524.5 L 82 525.20117 C 82 525.64437 82.357581 526 82.800781 526 L 83.5 526 L 87.460938 526 L 96.5 526 L 96.550781 526 L 97.201172 526 C 97.421373 526 97.62006 525.91237 97.763672 525.76953 C 97.835478 525.69811 97.893085 525.61233 97.933594 525.51758 C 97.974103 525.42283 97.996935 525.31881 97.998047 525.20898 C 97.998075 525.20619 98 525.20397 98 525.20117 L 98 524.5 L 98 524 L 98 520 L 100.5 520 L 101.20117 520 C 102.19903 519.5706 102 519.02328 102 518 L 102 511.44531 L 102 508 L 102 506.79883 C 102 506.35563 101.64242 506 101.19922 506 L 96.539062 506 L 87.449219 506 L 86.798828 506 z "
       id="path4618-3" />
    <path
       style="display:inline;fill:url(#linearGradient4553);fill-opacity:1;stroke:none;stroke-width:1.46667397;stroke-linecap:round;stroke-linejoin:round;stroke-miterlimit:4;stroke-dasharray:none;stroke-opacity:1;enable-background:new"
       d="M 50.798828 507 C 50.355628 507 50 507.35563 50 507.79883 L 50 509 L 50 513 L 47 513 C 47.2002 513 45.999691 513.00005 46.025391 513.99609 C 46.025391 513.99609 46 514.48836 46 515 L 46 523.31445 L 46 525 L 46 525.5 L 46 526.20117 C 46 526.64437 46.357581 527 46.800781 527 L 47.5 527 L 50.460938 527 L 59.550781 527 L 60.5 527 L 61.201172 527 C 61.644372 527 62 526.64437 62 526.20117 L 62 525.5 L 62 525.47266 L 62 525 L 62 521 L 64.5 521 L 65.201172 521 C 65.217736 520.99287 65.228229 520.98571 65.244141 520.97852 A 10.999861 11.000059 0 0 0 65.244141 520.97656 C 65.361837 520.92329 65.461842 520.86818 65.546875 520.81055 C 66.142108 520.40709 66 519.88022 66 519 L 66 517 L 66 509 L 66 507.79883 C 66 507.35563 65.642419 507 65.199219 507 L 59.539062 507 L 50.798828 507 z "
       id="path4551" />
  </g>
</svg>
