<?xml version="1.0" encoding="UTF-8" standalone="no"?>
<!-- Created with Inkscape (http://www.inkscape.org/) -->

<svg
   xmlns:dc="http://purl.org/dc/elements/1.1/"
   xmlns:cc="http://creativecommons.org/ns#"
   xmlns:rdf="http://www.w3.org/1999/02/22-rdf-syntax-ns#"
   xmlns:svg="http://www.w3.org/2000/svg"
   xmlns="http://www.w3.org/2000/svg"
   xmlns:xlink="http://www.w3.org/1999/xlink"
   xmlns:sodipodi="http://sodipodi.sourceforge.net/DTD/sodipodi-0.dtd"
   xmlns:inkscape="http://www.inkscape.org/namespaces/inkscape"
   width="842"
   height="544"
   viewBox="0 0 842 544"
   version="1.1"
   id="svg1087"
   inkscape:version="0.92.1 r"
   sodipodi:docname="preferences-desktop-font.svg">
  <defs
     id="defs1081">
    <filter
       inkscape:collect="always"
       style="color-interpolation-filters:sRGB"
       id="filter5133"
       x="-0.024"
       width="1.048"
       y="-0.024"
       height="1.048">
      <feGaussianBlur
         inkscape:collect="always"
         stdDeviation="3.04"
         id="feGaussianBlur5135" />
    </filter>
    <filter
       inkscape:collect="always"
       style="color-interpolation-filters:sRGB"
       id="filter5143"
       x="-0.024"
       width="1.048"
       y="-0.024"
       height="1.048">
      <feGaussianBlur
         inkscape:collect="always"
         stdDeviation="3.04"
         id="feGaussianBlur5145" />
    </filter>
    <filter
       inkscape:collect="always"
       style="color-interpolation-filters:sRGB"
       id="filter5147"
       x="-0.01768421"
       width="1.0353684"
       y="-0.01768421"
       height="1.0353684">
      <feGaussianBlur
         inkscape:collect="always"
         stdDeviation="0.28"
         id="feGaussianBlur5149" />
    </filter>
    <filter
       inkscape:collect="always"
       style="color-interpolation-filters:sRGB"
       id="filter5151"
       x="-0.01768421"
       width="1.0353684"
       y="-0.01768421"
       height="1.0353684">
      <feGaussianBlur
         inkscape:collect="always"
         stdDeviation="0.28"
         id="feGaussianBlur5153" />
    </filter>
    <filter
       inkscape:collect="always"
       style="color-interpolation-filters:sRGB"
       id="filter5155"
       x="-0.017142868"
       width="1.0342857"
       y="-0.017142868"
       height="1.0342857">
      <feGaussianBlur
         inkscape:collect="always"
         stdDeviation="0.20000011"
         id="feGaussianBlur5157" />
    </filter>
    <filter
       inkscape:collect="always"
       style="color-interpolation-filters:sRGB"
       id="filter5159"
       x="-0.017142868"
       width="1.0342857"
       y="-0.017142868"
       height="1.0342857">
      <feGaussianBlur
         inkscape:collect="always"
         stdDeviation="0.20000011"
         id="feGaussianBlur5161" />
    </filter>
    <linearGradient
       inkscape:collect="always"
       xlink:href="#linearGradient4981"
       id="linearGradient4449-0"
       gradientUnits="userSpaceOnUse"
       gradientTransform="matrix(10.434724,0,0,10.434772,319.56536,-10458.722)"
       x1="7"
       y1="1011.3622"
       x2="41.000019"
       y2="1045.3622" />
    <linearGradient
       id="linearGradient4981"
       inkscape:collect="always">
      <stop
         id="stop4977"
         offset="0"
         style="stop-color:#ffffff;stop-opacity:0.05490196" />
      <stop
         id="stop4979"
         offset="1"
         style="stop-color:#177ed5;stop-opacity:0;" />
    </linearGradient>
    <linearGradient
       inkscape:collect="always"
       xlink:href="#linearGradient4981"
       id="linearGradient4749"
       gradientUnits="userSpaceOnUse"
       gradientTransform="matrix(1.3043405,0,0,1.3043465,234.69568,-845.3402)"
       x1="7"
       y1="1011.3622"
       x2="41.000019"
       y2="1045.3622" />
    <linearGradient
       inkscape:collect="always"
       xlink:href="#linearGradient4981"
       id="linearGradient4171-1-0"
       x1="7"
       y1="1011.3622"
       x2="41.000019"
       y2="1045.3622"
       gradientUnits="userSpaceOnUse"
       gradientTransform="matrix(0.95652174,0,0,0.95652174,171.04348,-479.6505)" />
    <linearGradient
       inkscape:collect="always"
       xlink:href="#linearGradient4981"
       id="linearGradient4435"
       gradientUnits="userSpaceOnUse"
       gradientTransform="matrix(0.65217041,0,0,0.65217328,122.34783,-158.67016)"
       x1="7"
       y1="1011.3622"
       x2="41.000019"
       y2="1045.3622" />
    <linearGradient
       inkscape:collect="always"
       xlink:href="#linearGradient4981"
       id="linearGradient4347"
       gradientUnits="userSpaceOnUse"
       gradientTransform="matrix(0.47825838,0,0,0.47826068,78.52174,24.17493)"
       x1="7"
       y1="1011.3622"
       x2="41.000019"
       y2="1045.3622" />
    <linearGradient
       inkscape:collect="always"
       xlink:href="#linearGradient4981"
       id="linearGradient4583"
       gradientUnits="userSpaceOnUse"
       gradientTransform="matrix(0.47825838,0,0,0.47826068,43.52174,25.17493)"
       x1="7"
       y1="1011.3622"
       x2="41.000019"
       y2="1045.3622" />
  </defs>
  <sodipodi:namedview
     id="base"
     pagecolor="#c3c3c3"
     bordercolor="#333333"
     borderopacity="1"
     inkscape:pageopacity="0"
     inkscape:pageshadow="2"
     inkscape:zoom="0.70710678"
     inkscape:cx="703.72274"
     inkscape:cy="1.8178562"
     inkscape:document-units="px"
     inkscape:current-layer="layer2"
     showgrid="true"
     units="px"
     inkscape:showpageshadow="false"
     inkscape:window-width="2560"
     inkscape:window-height="1369"
     inkscape:window-x="0"
     inkscape:window-y="35"
     inkscape:window-maximized="1">
    <inkscape:grid
       type="xygrid"
       id="grid4630" />
  </sodipodi:namedview>
  <metadata
     id="metadata1084">
    <rdf:RDF>
      <cc:Work
         rdf:about="">
        <dc:format>image/svg+xml</dc:format>
        <dc:type
           rdf:resource="http://purl.org/dc/dcmitype/StillImage" />
        <dc:title />
        <cc:license
           rdf:resource="http://creativecommons.org/licenses/by-sa/4.0/" />
        <dc:creator>
          <cc:Agent>
            <dc:title>Peter Cornelis</dc:title>
          </cc:Agent>
        </dc:creator>
      </cc:Work>
      <cc:License
         rdf:about="http://creativecommons.org/licenses/by-sa/4.0/">
        <cc:permits
           rdf:resource="http://creativecommons.org/ns#Reproduction" />
        <cc:permits
           rdf:resource="http://creativecommons.org/ns#Distribution" />
        <cc:requires
           rdf:resource="http://creativecommons.org/ns#Notice" />
        <cc:requires
           rdf:resource="http://creativecommons.org/ns#Attribution" />
        <cc:permits
           rdf:resource="http://creativecommons.org/ns#DerivativeWorks" />
        <cc:requires
           rdf:resource="http://creativecommons.org/ns#ShareAlike" />
      </cc:License>
    </rdf:RDF>
  </metadata>
  <g
     inkscape:label="Baseplate"
     inkscape:groupmode="layer"
     id="layer1"
     transform="translate(0,-153.06668)"
     style="display:none">
    <rect
       style="display:inline;overflow:visible;visibility:visible;fill:#fefefe;fill-opacity:1;fill-rule:nonzero;stroke:none;stroke-width:2;marker:none;enable-background:accumulate"
       id="rect3951"
       width="512"
       height="512"
       x="-826"
       y="169.06668"
       inkscape:label="48x48"
       transform="scale(-1,1)" />
    <text
       y="733.32251"
       xml:space="preserve"
       x="15.006836"
       style="font-style:normal;font-variant:normal;font-weight:normal;font-stretch:normal;line-height:0%;font-family:'DejaVu Sans';-inkscape-font-specification:'DejaVu Sans';display:inline;fill:#000000;fill-opacity:1;stroke:none;enable-background:new"
       inkscape:label="context"
       id="context"><tspan
         style="font-style:normal;font-variant:normal;font-weight:normal;font-stretch:normal;font-size:18px;line-height:1.25;font-family:'DejaVu Sans';-inkscape-font-specification:'DejaVu Sans'"
         y="733.32251"
         x="15.006836"
         sodipodi:role="line"
         id="tspan3933">apps</tspan></text>
    <text
       y="733.32251"
       xml:space="preserve"
       x="142.48828"
       style="font-style:normal;font-variant:normal;font-weight:bold;font-stretch:normal;line-height:0%;font-family:'DejaVu Sans';-inkscape-font-specification:'DejaVu Sans Bold';text-align:start;writing-mode:lr-tb;text-anchor:start;display:inline;fill:#000000;fill-opacity:1;stroke:none;enable-background:new"
       inkscape:label="icon-name"
       id="icon-name"><tspan
         style="font-style:normal;font-variant:normal;font-weight:bold;font-stretch:normal;font-size:18px;line-height:1.25;font-family:'DejaVu Sans';-inkscape-font-specification:'DejaVu Sans Bold'"
         y="733.32251"
         x="142.48828"
         sodipodi:role="line"
         id="tspan3937">preferences-desktop-font</tspan></text>
    <rect
       style="display:inline;overflow:visible;visibility:visible;fill:#fefefe;fill-opacity:1;fill-rule:nonzero;stroke:none;stroke-width:2;marker:none;enable-background:accumulate"
       id="rect16x16"
       width="16"
       height="16"
       x="-32"
       y="665.06665"
       inkscape:label="16x16"
       transform="scale(-1,1)" />
    <rect
       style="display:inline;overflow:visible;visibility:visible;fill:#fefefe;fill-opacity:1;fill-rule:nonzero;stroke:none;stroke-width:2;marker:none;enable-background:accumulate"
       id="rect24x24"
       width="24"
       height="24"
       x="-102"
       y="657.06665"
       inkscape:label="24x24"
       transform="scale(-1,1)" />
    <rect
       style="display:inline;overflow:visible;visibility:visible;fill:#fefefe;fill-opacity:1;fill-rule:nonzero;stroke:none;stroke-width:2;marker:none;enable-background:accumulate"
       id="rect32x32"
       width="32"
       height="32"
       x="-154"
       y="649.06665"
       inkscape:label="32x32"
       transform="scale(-1,1)" />
    <rect
       inkscape:label="48x48"
       y="633.06665"
       x="-218"
       height="48"
       width="48"
       id="rect48x48"
       style="display:inline;overflow:visible;visibility:visible;fill:#fefefe;fill-opacity:1;fill-rule:nonzero;stroke:none;stroke-width:2;marker:none;enable-background:accumulate"
       transform="scale(-1,1)" />
    <rect
       transform="scale(-1,1)"
       inkscape:label="48x48"
       y="617.06665"
       x="-298"
       height="64"
       width="64"
       id="rect4493"
       style="display:inline;overflow:visible;visibility:visible;fill:#fefefe;fill-opacity:1;fill-rule:nonzero;stroke:none;stroke-width:0.25;marker:none;enable-background:accumulate" />
    <rect
       transform="scale(-1,1)"
       inkscape:label="24x24"
       y="659.06665"
       x="-66"
       height="22"
       width="22"
       id="rect4563"
       style="display:inline;overflow:visible;visibility:visible;fill:#fefefe;fill-opacity:1;fill-rule:nonzero;stroke:none;stroke-width:1.83333325;marker:none;enable-background:accumulate" />
  </g>
  <g
     inkscape:groupmode="layer"
     id="layer2"
     inkscape:label="Bitmap"
     style="display:inline">
    <rect
       ry="1"
       rx="1"
       y="513"
       x="80"
       height="14"
       width="14"
       id="rect4511"
       style="display:inline;opacity:1;fill:#000000;fill-opacity:0.2;stroke:none;stroke-width:8;stroke-linecap:round;stroke-linejoin:miter;stroke-miterlimit:4;stroke-dasharray:none;stroke-opacity:1;enable-background:new" />
    <rect
       style="display:inline;opacity:0.2;fill:#000000;fill-opacity:1;stroke:none;stroke-width:8;stroke-linecap:round;stroke-linejoin:miter;stroke-miterlimit:4;stroke-dasharray:none;stroke-opacity:1;enable-background:new"
       id="rect4513"
       width="19"
       height="19"
       x="124"
       y="508"
       rx="2"
       ry="2" />
    <rect
       ry="3"
       rx="3"
       y="497"
       x="173.99998"
       height="28"
       width="28"
       id="rect4475"
       style="display:inline;opacity:0.2;fill:#000000;fill-opacity:1;stroke:none;stroke-width:8;stroke-linecap:round;stroke-linejoin:miter;stroke-miterlimit:4;stroke-dasharray:none;stroke-opacity:1;filter:url(#filter5155);enable-background:new" />
    <rect
       ry="24"
       rx="24"
       y="194"
       x="346"
       height="304"
       width="304"
       id="rect5123"
       style="display:inline;opacity:1;fill:#000000;fill-opacity:0.2;stroke:none;stroke-width:8;stroke-linecap:round;stroke-linejoin:miter;stroke-miterlimit:4;stroke-dasharray:none;stroke-opacity:1;enable-background:new" />
    <rect
       style="display:inline;opacity:1;fill:#000000;fill-opacity:0.2;stroke:none;stroke-width:8;stroke-linecap:round;stroke-linejoin:miter;stroke-miterlimit:4;stroke-dasharray:none;stroke-opacity:1;filter:url(#filter5133);enable-background:new"
       id="rect5127"
       width="304"
       height="304"
       x="346"
       y="194"
       rx="24"
       ry="24" />
    <rect
       style="display:inline;opacity:1;fill:#e2e5e7;fill-opacity:1;stroke:none;stroke-width:8;stroke-linecap:round;stroke-linejoin:miter;stroke-miterlimit:4;stroke-dasharray:none;stroke-opacity:1;enable-background:new"
       id="rect4415"
       width="14"
       height="14"
       x="17"
       y="513"
       rx="1"
       ry="1" />
    <path
       inkscape:connector-curvature="0"
       id="path4417"
       style="font-style:normal;font-variant:normal;font-weight:bold;font-stretch:normal;font-size:medium;line-height:125%;font-family:'Source Sans Pro';-inkscape-font-specification:'Source Sans Pro Bold';text-align:center;letter-spacing:0px;word-spacing:0px;text-anchor:middle;display:inline;fill:#2f3c45;fill-opacity:1;stroke:none;enable-background:new"
       d="m 23.110419,520.68712 0.19632,-0.73619 c 0.22086,-0.79755 0.42945,-1.73006 0.62577,-2.57669 h 0.0491 c 0.20859,0.83436 0.42945,1.77914 0.65031,2.57669 l 0.18404,0.73619 h -1.70552 m 2.56442,3.31289 h 1.91411 l -2.50307,-8 h -2.17178 l -2.50306,8 h 1.84049 l 0.4908,-1.90184 h 2.44171 l 0.4908,1.90184" />
    <rect
       style="display:inline;opacity:0.2;fill:#000000;fill-opacity:1;stroke:none;stroke-width:8;stroke-linecap:round;stroke-linejoin:miter;stroke-miterlimit:4;stroke-dasharray:none;stroke-opacity:1;filter:url(#filter5159);enable-background:new"
       id="rect4473"
       width="28"
       height="28"
       x="186.00003"
       y="485"
       rx="3"
       ry="3" />
    <rect
       ry="3"
       rx="3"
       y="484"
       x="186.00003"
       height="28"
       width="28"
       id="rect4405"
       style="display:inline;opacity:1;fill:#cdcfd1;fill-opacity:1;stroke:none;stroke-width:8;stroke-linecap:round;stroke-linejoin:miter;stroke-miterlimit:4;stroke-dasharray:none;stroke-opacity:1;enable-background:new" />
    <rect
       style="display:inline;opacity:1;fill:#e2e5e7;fill-opacity:1;stroke:none;stroke-width:8;stroke-linecap:round;stroke-linejoin:miter;stroke-miterlimit:4;stroke-dasharray:none;stroke-opacity:1;enable-background:new"
       id="rect4407"
       width="28"
       height="28"
       x="173.99998"
       y="496"
       rx="3"
       ry="3" />
    <path
       inkscape:connector-curvature="0"
       id="path4104"
       style="font-style:normal;font-variant:normal;font-weight:bold;font-stretch:normal;font-size:medium;line-height:125%;font-family:'Source Sans Pro';-inkscape-font-specification:'Source Sans Pro Bold';text-align:center;letter-spacing:0px;word-spacing:0px;text-anchor:middle;display:inline;fill:#2f3c45;fill-opacity:1;stroke:none;enable-background:new"
       d="m 186.22085,511.37425 0.39264,-1.47239 c 0.44172,-1.59509 0.8589,-3.46012 1.25153,-5.15337 h 0.0982 c 0.41718,1.66871 0.8589,3.55828 1.30062,5.15337 l 0.36809,1.47239 h -3.41104 m 5.12884,6.62577 h 3.82822 l -5.00614,-16 h -4.34356 l -5.00613,16 h 3.68098 l 0.9816,-3.80368 h 4.88343 l 0.9816,3.80368" />
    <path
       inkscape:connector-curvature="0"
       style="display:inline;opacity:1;fill:#ffffff;fill-opacity:0.2;stroke:none;stroke-width:8;stroke-linecap:round;stroke-linejoin:miter;stroke-miterlimit:4;stroke-dasharray:none;stroke-opacity:1;enable-background:new"
       d="m 177,496.00002 c -1.662,0 -3,1.338 -3,3 v 1 c 0,-1.662 1.338,-3 3,-3 h 22 c 1.662,0 3,1.338 3,3 v -1 c 0,-1.662 -1.338,-3 -3,-3 z"
       id="rect4477" />
    <rect
       style="display:inline;opacity:1;fill:#000000;fill-opacity:0.2;stroke:none;stroke-width:8;stroke-linecap:round;stroke-linejoin:miter;stroke-miterlimit:4;stroke-dasharray:none;stroke-opacity:1;enable-background:new"
       id="rect5125"
       width="304"
       height="304"
       x="490"
       y="49.999985"
       rx="24"
       ry="24" />
    <rect
       ry="24"
       rx="24"
       y="49.999985"
       x="490"
       height="304"
       width="304"
       id="rect5137"
       style="display:inline;opacity:1;fill:#000000;fill-opacity:0.2;stroke:none;stroke-width:8;stroke-linecap:round;stroke-linejoin:miter;stroke-miterlimit:4;stroke-dasharray:none;stroke-opacity:1;filter:url(#filter5143);enable-background:new" />
    <rect
       ry="24"
       rx="24"
       y="48.000015"
       x="490"
       height="304"
       width="304"
       id="rect4431"
       style="display:inline;opacity:1;fill:#cdcfd1;fill-opacity:1;stroke:none;stroke-width:8;stroke-linecap:round;stroke-linejoin:miter;stroke-miterlimit:4;stroke-dasharray:none;stroke-opacity:1;enable-background:new" />
    <rect
       style="display:inline;opacity:1;fill:#e2e5e7;fill-opacity:1;stroke:none;stroke-width:8;stroke-linecap:round;stroke-linejoin:miter;stroke-miterlimit:4;stroke-dasharray:none;stroke-opacity:1;enable-background:new"
       id="rect4427"
       width="304"
       height="304"
       x="345"
       y="190"
       rx="24"
       ry="24" />
    <path
       d="m 471.48624,357.1165 4.31904,-16.19616 c 4.85888,-17.54608 9.44784,-38.06144 13.76688,-56.6872 h 1.08 c 4.58896,18.35584 9.44784,39.14112 14.30688,56.6872 l 4.04896,16.19616 h -37.52144 m 56.41728,72.88352 h 42.1104 l -55.06752,-176 h -47.7792 l -55.06752,176 h 40.49088 l 10.7976,-41.84048 h 53.71776 l 10.7976,41.84048"
       style="font-style:normal;font-variant:normal;font-weight:bold;font-stretch:normal;font-size:medium;line-height:125%;font-family:'Source Sans Pro';-inkscape-font-specification:'Source Sans Pro Bold';text-align:center;letter-spacing:0px;word-spacing:0px;text-anchor:middle;display:inline;fill:#2f3c45;fill-opacity:1;stroke:none;enable-background:new"
       id="path4433"
       inkscape:connector-curvature="0" />
    <path
       inkscape:connector-curvature="0"
       style="display:inline;opacity:1;fill:#ffffff;fill-opacity:0.2;stroke:none;stroke-width:8;stroke-linecap:round;stroke-linejoin:miter;stroke-miterlimit:4;stroke-dasharray:none;stroke-opacity:1;enable-background:new"
       d="m 370,192.00002 c -13.296,0 -24,10.704 -24,24 v 2 c 0,-13.296 10.704,-24 24,-24 h 256 c 13.296,0 24,10.704 24,24 v -2 c 0,-13.296 -10.704,-24 -24,-24 z"
       id="rect4462" />
    <path
       id="path4467"
       d="m 514,48.000019 c -13.296,0 -24,10.704 -24,24 v 2 c 0,-13.296 10.704,-24 24,-24 h 256 c 13.296,0 24,10.704 24,24 v -2 c 0,-13.296 -10.704,-24 -24,-24 z"
       style="display:inline;opacity:1;fill:#ffffff;fill-opacity:0.2;stroke:none;stroke-width:8;stroke-linecap:round;stroke-linejoin:miter;stroke-miterlimit:4;stroke-dasharray:none;stroke-opacity:1;enable-background:new"
       inkscape:connector-curvature="0" />
    <path
       inkscape:connector-curvature="0"
       style="display:inline;opacity:1;fill:#ffffff;fill-opacity:0.2;stroke:none;stroke-width:8;stroke-linecap:round;stroke-linejoin:miter;stroke-miterlimit:4;stroke-dasharray:none;stroke-opacity:1;enable-background:new"
       d="m 189,484.00002 c -1.662,0 -3,1.338 -3,3 v 1 c 0,-1.662 1.338,-3 3,-3 h 22 c 1.662,0 3,1.338 3,3 v -1 c 0,-1.662 -1.338,-3 -3,-3 z"
       id="rect4479" />
    <rect
       style="display:inline;opacity:1;fill:#000000;fill-opacity:0.2;stroke:none;stroke-width:8;stroke-linecap:round;stroke-linejoin:miter;stroke-miterlimit:4;stroke-dasharray:none;stroke-opacity:1;enable-background:new"
       id="rect4517"
       width="14"
       height="14"
       x="86"
       y="507"
       rx="1"
       ry="1" />
    <rect
       ry="1"
       rx="1"
       y="506"
       x="86"
       height="14"
       width="14"
       id="rect4411"
       style="display:inline;opacity:1;fill:#cdcfd1;fill-opacity:1;stroke:none;stroke-width:8;stroke-linecap:round;stroke-linejoin:miter;stroke-miterlimit:4;stroke-dasharray:none;stroke-opacity:1;enable-background:new" />
    <rect
       style="display:inline;opacity:1;fill:#e2e5e7;fill-opacity:1;stroke:none;stroke-width:8;stroke-linecap:round;stroke-linejoin:miter;stroke-miterlimit:4;stroke-dasharray:none;stroke-opacity:1;enable-background:new"
       id="rect4409"
       width="14"
       height="14"
       x="80"
       y="512"
       rx="1"
       ry="1" />
    <path
       inkscape:connector-curvature="0"
       style="display:inline;opacity:1;fill:#ffffff;fill-opacity:0.5;stroke:none;stroke-width:8;stroke-linecap:round;stroke-linejoin:miter;stroke-miterlimit:4;stroke-dasharray:none;stroke-opacity:1;enable-background:new"
       d="m 81,512.00002 c -0.554,0 -1,0.446 -1,1 v 1 c 0,-0.554 0.446,-1 1,-1 h 12 c 0.554,0 1,0.446 1,1 v -1 c 0,-0.554 -0.446,-1 -1,-1 z"
       id="rect4487" />
    <path
       d="m 86.11042,519.68713 0.19632,-0.73619 c 0.22086,-0.79755 0.42945,-1.73006 0.62577,-2.57669 h 0.0491 c 0.20859,0.83436 0.42945,1.77914 0.65031,2.57669 l 0.18404,0.73619 h -1.70552 m 2.56442,3.31289 h 1.91411 l -2.50307,-8 h -2.17178 l -2.50306,8 h 1.84049 l 0.4908,-1.90184 h 2.44171 l 0.4908,1.90184"
       style="font-style:normal;font-variant:normal;font-weight:bold;font-stretch:normal;font-size:medium;line-height:125%;font-family:'Source Sans Pro';-inkscape-font-specification:'Source Sans Pro Bold';text-align:center;letter-spacing:0px;word-spacing:0px;text-anchor:middle;display:inline;fill:#2f3c45;fill-opacity:1;stroke:none;enable-background:new"
       id="path4422"
       inkscape:connector-curvature="0" />
    <path
       inkscape:connector-curvature="0"
       style="display:inline;opacity:1;fill:#ffffff;fill-opacity:0.2;stroke:none;stroke-width:8;stroke-linecap:round;stroke-linejoin:miter;stroke-miterlimit:4;stroke-dasharray:none;stroke-opacity:1;enable-background:new"
       d="m 87,506.00002 c -0.554,0 -1,0.446 -1,1 v 1 c 0,-0.554 0.446,-1 1,-1 h 12 c 0.554,0 1,0.446 1,1 v -1 c 0,-0.554 -0.446,-1 -1,-1 z"
       id="rect4493-6" />
    <rect
       ry="2"
       rx="2"
       y="499"
       x="133"
       height="19"
       width="19"
       id="rect4515"
       style="display:inline;opacity:0.2;fill:#000000;fill-opacity:1;stroke:none;stroke-width:8;stroke-linecap:round;stroke-linejoin:miter;stroke-miterlimit:4;stroke-dasharray:none;stroke-opacity:1;enable-background:new" />
    <rect
       style="display:inline;opacity:1;fill:#cdcfd1;fill-opacity:1;stroke:none;stroke-width:8;stroke-linecap:round;stroke-linejoin:miter;stroke-miterlimit:4;stroke-dasharray:none;stroke-opacity:1;enable-background:new"
       id="rect4399"
       width="19"
       height="19"
       x="133"
       y="498"
       rx="2"
       ry="2" />
    <rect
       ry="2"
       rx="2"
       y="507"
       x="124"
       height="19"
       width="19"
       id="rect4401"
       style="display:inline;opacity:1;fill:#e2e5e7;fill-opacity:1;stroke:none;stroke-width:8;stroke-linecap:round;stroke-linejoin:miter;stroke-miterlimit:4;stroke-dasharray:none;stroke-opacity:1;enable-background:new" />
    <path
       inkscape:connector-curvature="0"
       style="display:inline;opacity:1;fill:#ffffff;fill-opacity:0.5;stroke:none;stroke-width:8;stroke-linecap:round;stroke-linejoin:miter;stroke-miterlimit:4;stroke-dasharray:none;stroke-opacity:1;enable-background:new"
       d="m 126,507.00002 c -1.108,0 -2,0.892 -2,2 v 1 c 0,-1.108 0.892,-2 2,-2 h 15 c 1.108,0 2,0.892 2,2 v -1 c 0,-1.108 -0.892,-2 -2,-2 z"
       id="rect4489" />
    <path
       inkscape:connector-curvature="0"
       id="path4489"
       style="font-style:normal;font-variant:normal;font-weight:bold;font-stretch:normal;font-size:medium;line-height:125%;font-family:'Source Sans Pro';-inkscape-font-specification:'Source Sans Pro Bold';text-align:center;letter-spacing:0px;word-spacing:0px;text-anchor:middle;display:inline;fill:#2f3c45;fill-opacity:1;stroke:none;stroke-width:1.00001824;enable-background:new"
       d="m 132.28078,517.44478 0.26995,-1.01226 c 0.30369,-1.09663 0.59051,-2.37884 0.86046,-3.54295 h 0.0675 c 0.28682,1.14724 0.59051,2.44632 0.89421,3.54295 l 0.25307,1.01226 H 132.2808 M 135.807,522 h 2.632 l -3.44185,-11 h -2.9863 l -3.44185,11 h 2.53077 l 0.67488,-2.61503 h 3.35748 L 135.807,522" />
    <path
       inkscape:connector-curvature="0"
       style="display:inline;opacity:1;fill:#ffffff;fill-opacity:0.2;stroke:none;stroke-width:8;stroke-linecap:round;stroke-linejoin:miter;stroke-miterlimit:4;stroke-dasharray:none;stroke-opacity:1;enable-background:new"
       d="m 135,498.00002 c -1.108,0 -2,0.892 -2,2 v 1 c 0,-1.108 0.892,-2 2,-2 h 15 c 1.108,0 2,0.892 2,2 v -1 c 0,-1.108 -0.892,-2 -2,-2 z"
       id="rect4491" />
    <rect
       ry="4"
       rx="4"
       y="487"
       x="238"
       height="38"
       width="38"
       id="rect5098"
       style="display:inline;opacity:1;fill:#000000;fill-opacity:0.2;stroke:none;stroke-width:16;stroke-linecap:round;stroke-linejoin:miter;stroke-miterlimit:4;stroke-dasharray:none;stroke-opacity:1;filter:url(#filter5147);enable-background:new" />
    <rect
       style="display:inline;opacity:1;fill:#000000;fill-opacity:0.2;stroke:none;stroke-width:16;stroke-linecap:round;stroke-linejoin:miter;stroke-miterlimit:4;stroke-dasharray:none;stroke-opacity:1;filter:url(#filter5151);enable-background:new"
       id="rect5100"
       width="38"
       height="38"
       x="256"
       y="469"
       rx="4"
       ry="4" />
    <rect
       ry="4"
       rx="4"
       y="468"
       x="256"
       height="38"
       width="38"
       id="rect5091"
       style="display:inline;opacity:1;fill:#cdcfd1;fill-opacity:1;stroke:none;stroke-width:16;stroke-linecap:round;stroke-linejoin:miter;stroke-miterlimit:4;stroke-dasharray:none;stroke-opacity:1;enable-background:new" />
    <rect
       style="display:inline;opacity:1;fill:#e2e5e7;fill-opacity:1;stroke:none;stroke-width:16;stroke-linecap:round;stroke-linejoin:miter;stroke-miterlimit:4;stroke-dasharray:none;stroke-opacity:1;enable-background:new"
       id="rect5089"
       width="38"
       height="38"
       x="238"
       y="486"
       rx="4"
       ry="4" />
    <path
       d="m 254.56082,507.88956 0.53988,-2.02452 c 0.60736,-2.19326 1.18098,-4.75768 1.72086,-7.0859 h 0.135 c 0.57362,2.29448 1.18098,4.89264 1.78836,7.0859 l 0.50612,2.02452 h -4.69018 M 261.61302,517 h 5.2638 l -6.88344,-22 h -5.9724 l -6.88344,22 h 5.06136 l 1.3497,-5.23006 h 6.71472 L 261.61302,517"
       style="font-style:normal;font-variant:normal;font-weight:bold;font-stretch:normal;font-size:medium;line-height:125%;font-family:'Source Sans Pro';-inkscape-font-specification:'Source Sans Pro Bold';text-align:center;letter-spacing:0px;word-spacing:0px;text-anchor:middle;display:inline;fill:#2f3c45;fill-opacity:1;stroke:none;stroke-width:2;enable-background:new"
       id="path5093"
       inkscape:connector-curvature="0" />
    <path
       id="path5107"
       d="m 242,486 c -2.216,0 -4,1.784 -4,4 v 1 c 0,-2.216 1.784,-4 4,-4 h 30 c 2.216,0 4,1.784 4,4 v -1 c 0,-2.216 -1.784,-4 -4,-4 z"
       style="display:inline;opacity:1;fill:#ffffff;fill-opacity:0.2;stroke:none;stroke-width:16;stroke-linecap:round;stroke-linejoin:miter;stroke-miterlimit:4;stroke-dasharray:none;stroke-opacity:1;enable-background:new"
       inkscape:connector-curvature="0" />
    <path
       style="display:inline;opacity:1;fill:#ffffff;fill-opacity:0.2;stroke:none;stroke-width:16;stroke-linecap:round;stroke-linejoin:miter;stroke-miterlimit:4;stroke-dasharray:none;stroke-opacity:1;enable-background:new"
       d="m 260,468 c -2.216,0 -4,1.784 -4,4 v 1 c 0,-2.216 1.784,-4 4,-4 h 30 c 2.216,0 4,1.784 4,4 v -1 c 0,-2.216 -1.784,-4 -4,-4 z"
       id="rect5102"
       inkscape:connector-curvature="0" />
    <path
       style="display:inline;fill:url(#linearGradient4347);fill-opacity:1;stroke:none;stroke-width:2;stroke-linecap:round;stroke-linejoin:round;stroke-miterlimit:4;stroke-dasharray:none;stroke-opacity:1;enable-background:new"
       d="m 87,506 c -0.554,0 -1,0.446 -1,1 v 5 h -5 c -0.554,0 -1,0.446 -1,1 V 520.55469 525 c 0,0.554 0.446,1 1,1 H 85.460938 93 c 0.554,0 1,-0.446 1,-1 v -5 h 5 c 0.554,0 1,-0.446 1,-1 V 511.44531 507 c 0,-0.554 -0.446,-1 -1,-1 h -4.460938 z"
       id="path4345"
       inkscape:connector-curvature="0" />
    <path
       style="display:inline;fill:url(#linearGradient4435);fill-opacity:1;stroke:none;stroke-width:2;stroke-linecap:round;stroke-linejoin:round;stroke-miterlimit:4;stroke-dasharray:none;stroke-opacity:1;enable-background:new"
       d="m 135,498 c -1.108,0 -2,0.892 -2,2 v 7 h -7 c -1.108,0 -2,0.892 -2,2 V 517.33789 524 c 0,1.108 0.892,2 2,2 H 132.68555 141 c 1.108,0 2,-0.892 2,-2 v -7 h 7 c 1.108,0 2,-0.892 2,-2 V 506.66602 500 c 0,-1.108 -0.892,-2 -2,-2 h -6.6875 z"
       id="path4433-7"
       inkscape:connector-curvature="0" />
    <path
       style="display:inline;fill:url(#linearGradient4171-1-0);fill-opacity:1;stroke:none;stroke-width:2;stroke-linecap:round;stroke-linejoin:round;stroke-miterlimit:4;stroke-dasharray:none;stroke-opacity:1;enable-background:new"
       d="m 189,484 c -1.662,0 -3,1.338 -3,3 v 9 h -9 c -1.662,0 -3,1.338 -3,3 V 513.11133 521 c 0,1.662 1.338,3 3,3 H 184.91992 199 c 1.662,0 3,-1.338 3,-3 v -9 h 9 c 1.662,0 3,-1.338 3,-3 V 494.89258 487 c 0,-1.662 -1.338,-3 -3,-3 h -7.91992 z"
       id="circle4163-3-4"
       inkscape:connector-curvature="0" />
    <path
       style="display:inline;fill:url(#linearGradient4449-0);fill-opacity:1;stroke:none;stroke-width:15.99999523;stroke-linecap:round;stroke-linejoin:round;stroke-miterlimit:4;stroke-dasharray:none;stroke-opacity:1;enable-background:new"
       d="m 514,48 c -13.296,0 -24,10.704 -24,24 V 192 H 370 c -13.296,0 -24,10.704 -24,24 V 357.37695 472 c 0,13.296 10.704,24 24,24 H 484.98047 626 c 13.296,0 24,-10.704 24,-24 V 352 h 120 c 13.296,0 24,-10.704 24,-24 V 186.65625 72 C 794,58.704 783.296,48 770,48 H 655.00195 Z"
       id="path4447"
       inkscape:connector-curvature="0" />
    <path
       style="display:inline;fill:url(#linearGradient4749);fill-opacity:1;stroke:none;stroke-width:1.9999994;stroke-linecap:round;stroke-linejoin:round;stroke-miterlimit:4;stroke-dasharray:none;stroke-opacity:1;enable-background:new"
       d="m 260,468 c -2.216,0 -4,1.784 -4,4 v 14 h -14 c -2.216,0 -4,1.784 -4,4 V 506.67188 520 c 0,2.216 1.784,4 4,4 H 255.37305 272 c 2.216,0 4,-1.784 4,-4 v -14 h 14 c 2.216,0 4,-1.784 4,-4 V 485.33008 472 c 0,-2.216 -1.784,-4 -4,-4 h -13.375 z"
       id="path4747"
       inkscape:connector-curvature="0" />
    <rect
       style="display:inline;opacity:1;fill:#000000;fill-opacity:0.2;stroke:none;stroke-width:8;stroke-linecap:round;stroke-linejoin:miter;stroke-miterlimit:4;stroke-dasharray:none;stroke-opacity:1;enable-background:new"
       id="rect4565"
       width="14"
       height="14"
       x="45"
       y="514"
       rx="1"
       ry="1" />
    <rect
       ry="1"
       rx="1"
       y="508"
       x="51"
       height="14"
       width="14"
       id="rect4573"
       style="display:inline;opacity:1;fill:#000000;fill-opacity:0.2;stroke:none;stroke-width:8;stroke-linecap:round;stroke-linejoin:miter;stroke-miterlimit:4;stroke-dasharray:none;stroke-opacity:1;enable-background:new" />
    <rect
       style="display:inline;opacity:1;fill:#cecfd1;fill-opacity:1;stroke:none;stroke-width:8;stroke-linecap:round;stroke-linejoin:miter;stroke-miterlimit:4;stroke-dasharray:none;stroke-opacity:1;enable-background:new"
       id="rect4575"
       width="14"
       height="14"
       x="51"
       y="507"
       rx="1"
       ry="1" />
    <rect
       ry="1"
       rx="1"
       y="513"
       x="45"
       height="14"
       width="14"
       id="rect4567"
       style="display:inline;opacity:1;fill:#e2e5e7;fill-opacity:1;stroke:none;stroke-width:8;stroke-linecap:round;stroke-linejoin:miter;stroke-miterlimit:4;stroke-dasharray:none;stroke-opacity:1;enable-background:new" />
    <path
       id="path4569"
       d="m 46,513.00002 c -0.554,0 -1,0.446 -1,1 v 1 c 0,-0.554 0.446,-1 1,-1 h 12 c 0.554,0 1,0.446 1,1 v -1 c 0,-0.554 -0.446,-1 -1,-1 z"
       style="display:inline;opacity:1;fill:#ffffff;fill-opacity:0.5;stroke:none;stroke-width:8;stroke-linecap:round;stroke-linejoin:miter;stroke-miterlimit:4;stroke-dasharray:none;stroke-opacity:1;enable-background:new"
       inkscape:connector-curvature="0" />
    <path
       d="m 51.11036,520.68711 0.19632,-0.73619 c 0.22086,-0.79755 0.42945,-1.73006 0.62577,-2.57669 h 0.0491 c 0.20859,0.83436 0.42945,1.77914 0.65031,2.57669 l 0.18404,0.73619 H 51.11038 M 53.6748,524 h 1.91411 l -2.50307,-8 h -2.17178 l -2.50306,8 h 1.84049 l 0.4908,-1.90184 H 53.184 L 53.6748,524"
       style="font-style:normal;font-variant:normal;font-weight:bold;font-stretch:normal;font-size:medium;line-height:125%;font-family:'Source Sans Pro';-inkscape-font-specification:'Source Sans Pro Bold';text-align:center;letter-spacing:0px;word-spacing:0px;text-anchor:middle;display:inline;fill:#2f3c45;fill-opacity:1;stroke:none;enable-background:new"
       id="path4574"
       inkscape:connector-curvature="0" />
    <path
       id="path4579"
       d="m 52,507.00002 c -0.554,0 -1,0.446 -1,1 v 1 c 0,-0.554 0.446,-1 1,-1 h 12 c 0.554,0 1,0.446 1,1 v -1 c 0,-0.554 -0.446,-1 -1,-1 z"
       style="display:inline;opacity:1;fill:#ffffff;fill-opacity:0.2;stroke:none;stroke-width:8;stroke-linecap:round;stroke-linejoin:miter;stroke-miterlimit:4;stroke-dasharray:none;stroke-opacity:1;enable-background:new"
       inkscape:connector-curvature="0" />
    <path
       inkscape:connector-curvature="0"
       id="path4581"
       d="m 52,507 c -0.554,0 -1,0.446 -1,1 v 5 h -5 c -0.554,0 -1,0.446 -1,1 V 521.55469 526 c 0,0.554 0.446,1 1,1 H 50.460938 58 c 0.554,0 1,-0.446 1,-1 v -5 h 5 c 0.554,0 1,-0.446 1,-1 V 512.44531 508 c 0,-0.554 -0.446,-1 -1,-1 h -4.460938 z"
       style="display:inline;fill:url(#linearGradient4583);fill-opacity:1;stroke:none;stroke-width:2;stroke-linecap:round;stroke-linejoin:round;stroke-miterlimit:4;stroke-dasharray:none;stroke-opacity:1;enable-background:new" />
  </g>
</svg>
