<?xml version="1.0" encoding="UTF-8" standalone="no"?>
<!-- Created with Inkscape (http://www.inkscape.org/) -->

<svg
   xmlns:dc="http://purl.org/dc/elements/1.1/"
   xmlns:cc="http://creativecommons.org/ns#"
   xmlns:rdf="http://www.w3.org/1999/02/22-rdf-syntax-ns#"
   xmlns:svg="http://www.w3.org/2000/svg"
   xmlns="http://www.w3.org/2000/svg"
   xmlns:xlink="http://www.w3.org/1999/xlink"
   xmlns:sodipodi="http://sodipodi.sourceforge.net/DTD/sodipodi-0.dtd"
   xmlns:inkscape="http://www.inkscape.org/namespaces/inkscape"
   width="736"
   height="544"
   viewBox="0 0 736 544"
   version="1.1"
   id="svg1087"
   inkscape:version="0.92.1 r"
   sodipodi:docname="preferences-desktop-display.svg">
  <defs
     id="defs1081">
    <linearGradient
       id="linearGradient5643"
       inkscape:collect="always">
      <stop
         id="stop5639"
         offset="0"
         style="stop-color:#ffffff;stop-opacity:0.05490196" />
      <stop
         id="stop5641"
         offset="1"
         style="stop-color:#177ed5;stop-opacity:0;" />
    </linearGradient>
    <linearGradient
       id="linearGradient5637"
       inkscape:collect="always">
      <stop
         id="stop5633"
         offset="0"
         style="stop-color:#ffffff;stop-opacity:0.05490196" />
      <stop
         id="stop5635"
         offset="1"
         style="stop-color:#177ed5;stop-opacity:0;" />
    </linearGradient>
    <filter
       inkscape:collect="always"
       style="color-interpolation-filters:sRGB"
       id="filter5087"
       x="-0.048"
       width="1.096"
       y="-0.048"
       height="1.096">
      <feGaussianBlur
         inkscape:collect="always"
         stdDeviation="0.8"
         id="feGaussianBlur5089" />
    </filter>
    <linearGradient
       inkscape:collect="always"
       xlink:href="#linearGradient4165"
       id="linearGradient4512"
       gradientUnits="userSpaceOnUse"
       gradientTransform="matrix(0.46795346,0,0,0.46583796,53.03204,37.20952)"
       x1="7"
       y1="1011.3622"
       x2="41.000019"
       y2="1045.3622" />
    <linearGradient
       inkscape:collect="always"
       id="linearGradient4165">
      <stop
         style="stop-color:#ffffff;stop-opacity:0.05490196"
         offset="0"
         id="stop4167" />
      <stop
         style="stop-color:#177ed5;stop-opacity:0;"
         offset="1"
         id="stop4169" />
    </linearGradient>
    <linearGradient
       inkscape:collect="always"
       xlink:href="#linearGradient5637"
       id="linearGradient4171-1"
       x1="7"
       y1="1011.3622"
       x2="41.000019"
       y2="1045.3622"
       gradientUnits="userSpaceOnUse"
       gradientTransform="matrix(0.96086443,0,0,0.9565206,145.03914,-479.64935)" />
    <linearGradient
       inkscape:collect="always"
       xlink:href="#linearGradient5643"
       id="linearGradient4550"
       gradientUnits="userSpaceOnUse"
       gradientTransform="matrix(0.65513485,0,0,0.65217315,96.34486,-158.30667)"
       x1="7"
       y1="1011.3622"
       x2="41.000019"
       y2="1045.3622" />
    <linearGradient
       inkscape:collect="always"
       xlink:href="#linearGradient4446"
       id="linearGradient4527"
       gradientUnits="userSpaceOnUse"
       gradientTransform="matrix(0.70701639,0,0,0.70701366,-1.14527,328.10017)"
       x1="159"
       y1="271"
       x2="159"
       y2="277" />
    <linearGradient
       inkscape:collect="always"
       id="linearGradient4446">
      <stop
         style="stop-color:#000000;stop-opacity:0.40000001"
         offset="0"
         id="stop4448" />
      <stop
         style="stop-color:#000000;stop-opacity:0"
         offset="1"
         id="stop4450" />
    </linearGradient>
    <linearGradient
       inkscape:collect="always"
       xlink:href="#linearGradient4446"
       id="linearGradient4452"
       x1="159"
       y1="271"
       x2="159"
       y2="277"
       gradientUnits="userSpaceOnUse"
       gradientTransform="translate(8,244)" />
    <linearGradient
       inkscape:collect="always"
       xlink:href="#linearGradient4165-3"
       id="linearGradient4502"
       gradientUnits="userSpaceOnUse"
       gradientTransform="matrix(10.482158,0,0,10.43477,213.51784,-10452.903)"
       x1="7"
       y1="1011.3622"
       x2="41.000019"
       y2="1045.3622" />
    <linearGradient
       inkscape:collect="always"
       id="linearGradient4165-3">
      <stop
         style="stop-color:#ffffff;stop-opacity:0.05490196"
         offset="0"
         id="stop4167-6" />
      <stop
         style="stop-color:#177ed5;stop-opacity:0;"
         offset="1"
         id="stop4169-7" />
    </linearGradient>
    <linearGradient
       inkscape:collect="always"
       xlink:href="#linearGradient4446"
       id="linearGradient4503"
       gradientUnits="userSpaceOnUse"
       gradientTransform="matrix(11.31253,0,0,11.31253,-1346.369,-2670.4834)"
       x1="159"
       y1="271"
       x2="159"
       y2="277" />
  </defs>
  <sodipodi:namedview
     id="base"
     pagecolor="#c3c3c3"
     bordercolor="#333333"
     borderopacity="1"
     inkscape:pageopacity="0"
     inkscape:pageshadow="2"
     inkscape:zoom="0.49497475"
     inkscape:cx="-625.75758"
     inkscape:cy="515.0417"
     inkscape:document-units="px"
     inkscape:current-layer="layer2"
     showgrid="false"
     units="px"
     inkscape:showpageshadow="false"
     inkscape:window-width="2560"
     inkscape:window-height="1370"
     inkscape:window-x="0"
     inkscape:window-y="34"
     inkscape:window-maximized="1">
    <inkscape:grid
       type="xygrid"
       id="grid4630" />
  </sodipodi:namedview>
  <metadata
     id="metadata1084">
    <rdf:RDF>
      <cc:Work
         rdf:about="">
        <dc:format>image/svg+xml</dc:format>
        <dc:type
           rdf:resource="http://purl.org/dc/dcmitype/StillImage" />
        <dc:title />
        <cc:license
           rdf:resource="http://creativecommons.org/licenses/by-sa/4.0/" />
        <dc:creator>
          <cc:Agent>
            <dc:title>Peter Cornelis</dc:title>
          </cc:Agent>
        </dc:creator>
      </cc:Work>
      <cc:License
         rdf:about="http://creativecommons.org/licenses/by-sa/4.0/">
        <cc:permits
           rdf:resource="http://creativecommons.org/ns#Reproduction" />
        <cc:permits
           rdf:resource="http://creativecommons.org/ns#Distribution" />
        <cc:requires
           rdf:resource="http://creativecommons.org/ns#Notice" />
        <cc:requires
           rdf:resource="http://creativecommons.org/ns#Attribution" />
        <cc:permits
           rdf:resource="http://creativecommons.org/ns#DerivativeWorks" />
        <cc:requires
           rdf:resource="http://creativecommons.org/ns#ShareAlike" />
      </cc:License>
    </rdf:RDF>
  </metadata>
  <g
     inkscape:label="Baseplate"
     inkscape:groupmode="layer"
     id="layer1"
     transform="translate(0,-153.06668)"
     style="display:none">
    <rect
       style="display:inline;overflow:visible;visibility:visible;fill:#fefefe;fill-opacity:1;fill-rule:nonzero;stroke:none;stroke-width:2;marker:none;enable-background:accumulate"
       id="rect3951"
       width="512"
       height="512"
       x="-720"
       y="169.06668"
       inkscape:label="48x48"
       transform="scale(-1,1)" />
    <text
       y="733.32251"
       xml:space="preserve"
       x="15.006836"
       style="font-style:normal;font-variant:normal;font-weight:normal;font-stretch:normal;line-height:0%;font-family:'DejaVu Sans';-inkscape-font-specification:'DejaVu Sans';display:inline;fill:#000000;fill-opacity:1;stroke:none;enable-background:new"
       inkscape:label="context"
       id="context"><tspan
         style="font-style:normal;font-variant:normal;font-weight:normal;font-stretch:normal;font-size:18px;line-height:1.25;font-family:'DejaVu Sans';-inkscape-font-specification:'DejaVu Sans'"
         y="733.32251"
         x="15.006836"
         sodipodi:role="line"
         id="tspan3933">apps</tspan></text>
    <text
       y="733.32251"
       xml:space="preserve"
       x="142.48828"
       style="font-style:normal;font-variant:normal;font-weight:bold;font-stretch:normal;line-height:0%;font-family:'DejaVu Sans';-inkscape-font-specification:'DejaVu Sans Bold';text-align:start;writing-mode:lr-tb;text-anchor:start;display:inline;fill:#000000;fill-opacity:1;stroke:none;enable-background:new"
       inkscape:label="icon-name"
       id="icon-name"><tspan
         style="font-style:normal;font-variant:normal;font-weight:bold;font-stretch:normal;font-size:18px;line-height:1.25;font-family:'DejaVu Sans';-inkscape-font-specification:'DejaVu Sans Bold'"
         y="733.32251"
         x="142.48828"
         sodipodi:role="line"
         id="tspan3937">preferences-destktop-display</tspan></text>
    <rect
       style="display:inline;overflow:visible;visibility:visible;fill:#fefefe;fill-opacity:1;fill-rule:nonzero;stroke:none;stroke-width:2;marker:none;enable-background:accumulate"
       id="rect16x16"
       width="16"
       height="16"
       x="-32"
       y="665.06665"
       inkscape:label="16x16"
       transform="scale(-1,1)" />
    <rect
       style="display:inline;overflow:visible;visibility:visible;fill:#fefefe;fill-opacity:1;fill-rule:nonzero;stroke:none;stroke-width:2;marker:none;enable-background:accumulate"
       id="rect24x24"
       width="24"
       height="24"
       x="-76"
       y="657.06665"
       inkscape:label="24x24"
       transform="scale(-1,1)" />
    <rect
       style="display:inline;overflow:visible;visibility:visible;fill:#fefefe;fill-opacity:1;fill-rule:nonzero;stroke:none;stroke-width:2;marker:none;enable-background:accumulate"
       id="rect32x32"
       width="32"
       height="32"
       x="-128"
       y="649.06665"
       inkscape:label="32x32"
       transform="scale(-1,1)" />
    <rect
       inkscape:label="48x48"
       y="633.06665"
       x="-192"
       height="48"
       width="48"
       id="rect48x48"
       style="display:inline;overflow:visible;visibility:visible;fill:#fefefe;fill-opacity:1;fill-rule:nonzero;stroke:none;stroke-width:2;marker:none;enable-background:accumulate"
       transform="scale(-1,1)" />
  </g>
  <g
     inkscape:groupmode="layer"
     id="layer2"
     inkscape:label="Bitmap"
     style="display:inline">
    <path
       sodipodi:nodetypes="sscsscsscsscs"
       inkscape:connector-curvature="0"
       id="path5069"
       d="m 151,485 c -1.66505,0 -3,1.2912 -3,3 v 17 17 c 0,1.8617 1.34224,3 3,3 h 17 17 c 1.73784,0 3,-1.2767 3,-3 v -17 -17 c 0,-1.6942 -1.29127,-3 -3,-3 h -17 z"
       style="display:inline;fill:none;fill-opacity:0.5;stroke:none;stroke-width:2;stroke-linecap:round;stroke-linejoin:round;stroke-miterlimit:4;stroke-dasharray:none;stroke-opacity:1;filter:url(#filter5087);enable-background:new" />
    <path
       style="display:inline;fill:none;fill-opacity:0.5;stroke:none;stroke-width:2;stroke-linecap:round;stroke-linejoin:round;stroke-miterlimit:4;stroke-dasharray:none;stroke-opacity:1;filter:url(#filter5087);enable-background:new"
       d="m 151,485 c -1.66505,0 -3,1.2912 -3,3 v 17 17 c 0,1.8617 1.34224,3 3,3 h 17 17 c 1.73784,0 3,-1.2767 3,-3 v -17 -17 c 0,-1.6942 -1.29127,-3 -3,-3 h -17 z"
       id="path4506"
       inkscape:connector-curvature="0"
       sodipodi:nodetypes="sscsscsscsscs" />
    <path
       inkscape:connector-curvature="0"
       style="display:inline;opacity:1;fill:#3b414b;fill-opacity:1;stroke:none;stroke-width:3;stroke-linecap:round;stroke-linejoin:round;stroke-miterlimit:4;stroke-dasharray:none;stroke-opacity:1;enable-background:new"
       d="m 157.56445,514 -1.5,7 c -0.42303,1.97417 1.29273,2.97059 2.93555,2.99609 V 524 h 0.0644 17.9356 0.0644 v -0.004 c 1.64287,-0.0253 3.35864,-1.02183 2.9356,-2.996 l -1.5,-7 h -1.43555 -5.24609 c 0.11095,0.31399 0.18164,0.64708 0.18164,1 h -0.13086 a 4,4 0 0 1 0.13086,1 4,4 0 0 1 -4,4 4,4 0 0 1 -4,-4 4,4 0 0 1 0.13281,-1 H 164 c 0,-0.35292 0.0707,-0.68601 0.18164,-1 H 159 Z"
       id="rect4150" />
    <path
       inkscape:connector-curvature="0"
       style="display:inline;opacity:1;fill:url(#linearGradient4452);fill-opacity:1;stroke:none;stroke-width:3;stroke-linecap:round;stroke-linejoin:round;stroke-miterlimit:4;stroke-dasharray:none;stroke-opacity:1;enable-background:new"
       d="m 157.56445,514 -0.21484,1 -1.28516,6 c -0.0797,0.37178 -0.0631,0.69753 -0.006,1 h 23.94727 c 0.0573,-0.30248 0.0738,-0.62822 -0.006,-1 l -1.28516,-6 -0.21484,-1 h -1.43555 -5.24609 c 0.11095,0.31399 0.18164,0.64708 0.18164,1 h -0.13086 a 4,4 0 0 1 0.13086,1 4,4 0 0 1 -4,4 4,4 0 0 1 -4,-4 4,4 0 0 1 0.13281,-1 H 164 c 0,-0.35292 0.0707,-0.68601 0.18164,-1 H 159 Z"
       id="rect4444" />
    <path
       inkscape:connector-curvature="0"
       style="display:inline;fill:#3b414b;fill-opacity:1;enable-background:new"
       d="m 150,484 c -2.21,0 -4,1.79 -4,4 v 24 c 0,2.21 1.79,4 4,4 h 6 8 8 8 6 c 2.21,0 4,-1.79 4,-4 v -24 c 0,-2.21 -1.79,-4 -4,-4 z"
       id="path4" />
    <path
       inkscape:connector-curvature="0"
       style="display:inline;fill:#ffffff;fill-opacity:0.2;stroke:none;stroke-opacity:1;enable-background:new"
       d="m 150,484 c -2.21,0 -4,1.79 -4,4 v 1 c 0,-2.21 1.79,-4 4,-4 h 36 c 2.21,0 4,1.79 4,4 v -1 c 0,-2.21 -1.79,-4 -4,-4 z"
       id="path4190" />
    <path
       inkscape:connector-curvature="0"
       style="display:inline;fill:#000000;fill-opacity:0.2;enable-background:new"
       d="m 146,511 v 1 c 0,2.21 1.79,4 4,4 h 22 14 c 2.21,0 4,-1.79 4,-4 v -1 c 0,2.21 -1.79,4 -4,4 h -14 -22 c -2.21,0 -4,-1.79 -4,-4 z"
       id="path4195" />
    <path
       inkscape:connector-curvature="0"
       id="path4167"
       d="m 150,488 v 24 h 36 v -24 z"
       style="display:inline;opacity:1;fill:#5b6573;fill-opacity:1;stroke:none;stroke-width:0;stroke-linecap:butt;stroke-linejoin:miter;stroke-miterlimit:0;stroke-dasharray:none;stroke-opacity:1;enable-background:new" />
    <path
       inkscape:connector-curvature="0"
       style="display:inline;opacity:1;fill:#000000;fill-opacity:0.2;stroke:none;stroke-width:3;stroke-linecap:round;stroke-linejoin:round;stroke-miterlimit:4;stroke-dasharray:none;stroke-opacity:1;enable-background:new"
       d="m 156.0625,521.02148 c -0.40497,1.95902 1.30103,2.94921 2.9375,2.97461 v 0.004 h 0.0645 L 177,524 h 0.0645 v -0.004 c 1.63647,-0.0254 3.34247,-1.01559 2.9375,-2.97461 -0.25783,1.28938 -1.61139,1.95362 -2.9375,1.97461 H 177 h -17.93555 -0.0645 c -1.32611,-0.0206 -2.67966,-0.68512 -2.9375,-1.97461 z"
       id="path4172" />
    <rect
       style="display:inline;fill:#3b414b;fill-opacity:1;stroke:none;enable-background:new"
       id="rect4442"
       width="16"
       height="16"
       x="16"
       y="512"
       rx="1"
       ry="1" />
    <path
       inkscape:connector-curvature="0"
       id="path4461"
       d="m 18,514 v 12 h 12 v -12 z"
       style="display:inline;opacity:1;fill:#5b6573;fill-opacity:1;stroke:none;stroke-width:0;stroke-linecap:butt;stroke-linejoin:miter;stroke-miterlimit:0;stroke-dasharray:none;stroke-opacity:1;enable-background:new" />
    <path
       inkscape:connector-curvature="0"
       style="display:inline;fill:#000000;fill-opacity:0.2;stroke:none;enable-background:new"
       d="m 17,512 c -0.554,0 -1,0.446 -1,1 v 7 h 16 v -7 c 0,-0.554 -0.446,-1 -1,-1 z"
       id="rect4446" />
    <path
       id="path4522"
       d="m 104.60575,518.93665 -1.05954,4.9442 c -0.29882,1.39447 0.9137,2.09814 2.07417,2.11615 V 526 h 0.0449 12.66961 0.0459 v -0.003 c 1.16047,-0.0179 2.37202,-0.72168 2.0732,-2.11615 l -1.05954,-4.9442 h -1.01366 -3.57706 a 2.9999288,2.9999173 0 0 1 0.19629,1.06345 2.9999288,2.9999173 0 0 1 -2.99993,2.99991 2.9999288,2.9999173 0 0 1 -2.99993,-2.99991 2.9999288,2.9999173 0 0 1 0.19922,-1.06345 h -3.57902 -1.01463 z"
       style="display:inline;opacity:1;fill:#3b414b;fill-opacity:1;stroke:none;stroke-width:3;stroke-linecap:round;stroke-linejoin:round;stroke-miterlimit:4;stroke-dasharray:none;stroke-opacity:1;enable-background:new"
       inkscape:connector-curvature="0" />
    <path
       id="path4524"
       d="m 104.59892,518.99426 -0.15137,0.70701 -0.90915,4.24208 c -0.0564,0.26285 -0.0445,0.49316 -0.004,0.70701 h 16.93124 c 0.0405,-0.21386 0.0523,-0.44416 -0.004,-0.70701 l -0.90818,-4.24208 -0.15234,-0.70701 h -1.01463 -3.56339 a 2.9999288,2.9999173 0 0 1 0.17676,1.00584 2.9999288,2.9999173 0 0 1 -2.99993,2.99991 A 2.9999288,2.9999173 0 0 1 109,520.0001 a 2.9999288,2.9999173 0 0 1 0.17773,-1.00584 h -3.56338 -1.01464 -9.7e-4 z"
       style="display:inline;opacity:1;fill:url(#linearGradient4527);fill-opacity:1;stroke:none;stroke-width:3;stroke-linecap:round;stroke-linejoin:round;stroke-miterlimit:4;stroke-dasharray:none;stroke-opacity:1;enable-background:new"
       inkscape:connector-curvature="0" />
    <rect
       ry="2"
       rx="2"
       y="497.99979"
       x="97"
       height="22"
       width="30"
       id="rect4540"
       style="display:inline;fill:#3b414b;fill-opacity:1;stroke:none;enable-background:new" />
    <path
       inkscape:connector-curvature="0"
       style="display:inline;opacity:1;fill:#000000;fill-opacity:0.2;stroke:none;stroke-width:3;stroke-linecap:round;stroke-linejoin:round;stroke-miterlimit:4;stroke-dasharray:none;stroke-opacity:1;enable-background:new"
       d="m 103.57617,523.74219 -0.0293,0.13867 c -0.0129,0.0604 -0.008,0.11209 -0.0156,0.16992 0.0189,0.11567 0.0438,0.22819 0.0859,0.33008 -0.0401,-0.0969 -0.0687,-0.20116 -0.0879,-0.31055 -0.004,0.0364 -0.008,0.0721 -0.01,0.10742 -0.006,0.0928 -0.012,0.18582 -0.004,0.27149 0.005,0.0546 0.0188,0.10452 0.0293,0.15625 0.0176,0.0875 0.0351,0.1747 0.0664,0.25391 0.0179,0.045 0.0444,0.0847 0.0664,0.12695 0.0374,0.0722 0.0748,0.14457 0.12305,0.20898 0.0319,0.0424 0.0693,0.0801 0.10547,0.11914 0.0532,0.0576 0.10465,0.1158 0.16601,0.16602 0.0374,0.0305 0.0811,0.0543 0.1211,0.082 0.0702,0.0488 0.13951,0.10018 0.21679,0.14062 0.0405,0.0211 0.0849,0.0359 0.12696,0.0547 0.0819,0.0367 0.1631,0.0755 0.25,0.10352 0.0417,0.0134 0.0863,0.0198 0.1289,0.0312 0.22824,0.0613 0.46548,0.0998 0.70313,0.10351 v 0.002 0.002 h 0.0449 0.002 12.66796 0.0469 v -0.002 -0.002 c 0.23764,-0.004 0.47489,-0.0422 0.70312,-0.10351 0.0426,-0.0114 0.0872,-0.0178 0.12891,-0.0312 0.0869,-0.028 0.16808,-0.0668 0.25,-0.10352 0.0421,-0.0188 0.0865,-0.0336 0.12695,-0.0547 0.0773,-0.0404 0.14658,-0.0918 0.2168,-0.14062 0.04,-0.0278 0.0837,-0.0516 0.12109,-0.082 0.0614,-0.0502 0.11284,-0.10843 0.16602,-0.16602 0.0362,-0.039 0.0735,-0.0767 0.10547,-0.11914 0.0483,-0.0644 0.0856,-0.13677 0.12305,-0.20898 0.022,-0.0423 0.0485,-0.082 0.0664,-0.12695 0.0314,-0.0792 0.0489,-0.1664 0.0664,-0.25391 0.0105,-0.0517 0.0241,-0.10161 0.0293,-0.15625 0.008,-0.0857 0.002,-0.17867 -0.004,-0.27149 -0.002,-0.0353 -0.005,-0.071 -0.01,-0.10742 -0.0195,0.11173 -0.0484,0.21767 -0.0898,0.31641 0.0431,-0.10309 0.0687,-0.21665 0.0879,-0.33399 -0.007,-0.0584 -0.003,-0.11076 -0.0156,-0.17187 l -0.0293,-0.13867 c -0.24778,0.81924 -1.1549,1.2402 -2.04297,1.2539 V 525 h -0.0469 -12.66992 -0.0449 v -0.004 c -0.88807,-0.0138 -1.79518,-0.43468 -2.04296,-1.2539 z"
       id="path4544" />
    <path
       inkscape:connector-curvature="0"
       style="display:inline;fill:#000000;fill-opacity:0.2;stroke:none;enable-background:new"
       d="m 97,517 v 0.5 0.5 c 0,1.108 0.892,2 2,2 h 26 c 1.108,0 2,-0.892 2,-2 v -0.5 -0.5 c 0,1.108 -0.892,2 -2,2 H 99 c -1.108,0 -2,-0.892 -2,-2 z"
       id="path4546" />
    <path
       inkscape:connector-curvature="0"
       style="display:inline;fill:#ffffff;fill-opacity:0.2;stroke:none;enable-background:new"
       d="m 99,498 c -1.108,0 -2,0.892 -2,2 v 0.5 0.5 c 0,-1.108 0.892,-2 2,-2 h 26 c 1.108,0 2,0.892 2,2 v -0.5 -0.5 c 0,-1.108 -0.892,-2 -2,-2 z"
       id="path4548" />
    <path
       inkscape:connector-curvature="0"
       id="path4452"
       d="m 100,501 v 16 h 24 v -16 z"
       style="display:inline;opacity:1;fill:#5b6573;fill-opacity:1;stroke:none;stroke-width:0;stroke-linecap:butt;stroke-linejoin:miter;stroke-miterlimit:0;stroke-dasharray:none;stroke-opacity:1;enable-background:new" />
    <path
       style="display:inline;fill:url(#linearGradient4550);fill-opacity:1;stroke:none;stroke-width:2;stroke-linecap:round;stroke-linejoin:round;stroke-miterlimit:4;stroke-dasharray:none;stroke-opacity:1;enable-background:new"
       d="m 99,498 c -1.108,0 -2,0.892 -2,2 v 1.45312 10.91016 5.45508 V 518 c 0,0.11475 0.0148,0.22461 0.0332,0.33398 0.008,0.0444 0.0164,0.0895 0.0273,0.13282 0.0126,0.0528 0.0302,0.10324 0.0469,0.15429 0.0366,0.10767 0.0803,0.21133 0.13281,0.31055 10e-4,0.002 9.6e-4,0.006 0.002,0.008 C 97.57824,519.56902 98.23378,520 99,520 h 5.37891 l -0.11719,0.54492 -0.71484,3.33594 c -0.29883,1.39451 0.91373,2.09721 2.07421,2.11523 v 0.004 h 0.0449 12.66993 0.0449 v -0.004 c 0.79783,-0.0123 1.62025,-0.34751 1.95898,-1.00976 0.0616,-0.12042 0.10818,-0.25257 0.13477,-0.39453 0.0399,-0.21294 0.0366,-0.44947 -0.0195,-0.71094 L 119.74021,520.54492 119.62305,520 H 125 c 0.76621,0 1.42174,-0.43097 1.75781,-1.06055 10e-4,-0.002 0.003,-0.006 0.004,-0.008 0.0525,-0.0992 0.0962,-0.20288 0.13281,-0.31055 0.0166,-0.051 0.0343,-0.10149 0.0469,-0.15429 0.011,-0.0433 0.0174,-0.0884 0.0254,-0.13282 C 126.9852,518.22462 127,518.11475 127,518 v -18 c 0,-1.108 -0.892,-2 -2,-2 z m 10,22 h 6 a 3,3 0 0 1 -3,3 3,3 0 0 1 -3,-3 z"
       id="path4538"
       inkscape:connector-curvature="0" />
    <path
       style="display:inline;fill:url(#linearGradient4171-1);fill-opacity:1;stroke:none;stroke-width:2;stroke-linecap:round;stroke-linejoin:round;stroke-miterlimit:4;stroke-dasharray:none;stroke-opacity:1;enable-background:new"
       d="m 150,484 c -2.21,0 -4,1.79 -4,4 v 16 8 c 0,2.21 1.79,4 4,4 h 7.13672 l -1.07227,5 c -0.42303,1.97417 1.29273,2.97059 2.93555,2.99609 v 0.004 h 0.0644 0.93555 16 1 0.0644 v -0.004 C 178.70717,523.97059 180.42304,522.97417 180,521 l -1.07227,-5 H 186 c 2.21,0 4,-1.79 4,-4 v -24 c 0,-2.21 -1.79,-4 -4,-4 z m 14,32 h 8 a 4,4 0 0 1 -4,4 4,4 0 0 1 -4,-4 z"
       id="circle4163-3"
       inkscape:connector-curvature="0" />
    <rect
       ry="1.5"
       rx="1.5"
       y="506"
       x="54"
       height="20"
       width="20"
       id="rect4456"
       style="display:inline;fill:#3b414b;fill-opacity:1;stroke:none;enable-background:new" />
    <path
       style="display:inline;opacity:1;fill:#5b6573;fill-opacity:1;stroke:none;stroke-width:0;stroke-linecap:butt;stroke-linejoin:miter;stroke-miterlimit:0;stroke-dasharray:none;stroke-opacity:1;enable-background:new"
       d="m 57,509 v 14 h 14 v -14 z"
       id="path4458"
       inkscape:connector-curvature="0" />
    <path
       inkscape:connector-curvature="0"
       style="display:inline;fill:#000000;fill-opacity:0.2;stroke:none;enable-background:new"
       d="m 55.5,507 c -0.831,0 -1.5,0.669 -1.5,1.5 v 6.5 1 h 1.5 4.5918 4.8164 H 65.5 74 v -7.5 c 0,-0.831 -0.669,-1.5 -1.5,-1.5 z"
       id="path4460" />
    <path
       style="display:inline;fill:#ffffff;fill-opacity:0.2;stroke:none;stroke-width:2;stroke-linecap:round;stroke-linejoin:round;stroke-miterlimit:4;stroke-dasharray:none;stroke-opacity:1;enable-background:new"
       d="M 55.5 506 C 54.669 506 54 506.669 54 507.5 L 54 508.5 C 54 507.669 54.669 507 55.5 507 L 72.5 507 C 73.331 507 74 507.669 74 508.5 L 74 507.5 C 74 506.669 73.331 506 72.5 506 L 55.5 506 z "
       id="path4550" />
    <path
       inkscape:connector-curvature="0"
       style="display:inline;fill:url(#linearGradient4512);fill-opacity:1;stroke:none;stroke-width:2;stroke-linecap:round;stroke-linejoin:round;stroke-miterlimit:4;stroke-dasharray:none;stroke-opacity:1;enable-background:new"
       d="m 55.5,506 c -0.831,0 -1.5,0.669 -1.5,1.5 V 521.35352 524.5 c 0,0.831 0.669,1.5 1.5,1.5 h 17 c 0.831,0 1.5,-0.669 1.5,-1.5 V 521.61133 507.5 c 0,-0.831 -0.669,-1.5 -1.5,-1.5 z"
       id="path4510" />
    <path
       inkscape:connector-curvature="0"
       style="display:inline;opacity:1;fill:#3b414b;fill-opacity:1;stroke:none;stroke-width:23.99999809;stroke-linecap:round;stroke-linejoin:round;stroke-miterlimit:4;stroke-dasharray:none;stroke-opacity:1;enable-background:new"
       d="m 345.68752,382.9844 -16.95312,79.10936 c -4.78128,22.31216 14.6196,33.57112 33.18744,33.85936 V 496 h 0.7192 202.71872 0.7344 v -0.048 c 18.56776,-0.2864 37.9532,-11.5472 33.17184,-33.85936 l -16.95312,-79.10936 h -16.21872 -57.2344 A 48,48 0 0 1 512,400 a 48,48 0 0 1 -48,48 48,48 0 0 1 -48,-48 48,48 0 0 1 3.18752,-17.0156 h -57.26568 z"
       id="path4488" />
    <path
       inkscape:connector-curvature="0"
       style="display:inline;opacity:1;fill:url(#linearGradient4503);fill-opacity:1;stroke:none;stroke-width:23.99999809;stroke-linecap:round;stroke-linejoin:round;stroke-miterlimit:4;stroke-dasharray:none;stroke-opacity:1;enable-background:new"
       d="m 345.57816,383.90624 -2.42192,11.31248 -14.54688,67.87504 c -0.90168,4.20584 -0.712,7.8908 -0.064,11.31248 H 599.4516 c 0.648,-3.42184 0.8364,-7.10664 -0.064,-11.31248 L 584.85632,395.21872 582.4188,383.90624 H 566.18448 509.1688 A 48,48 0 0 1 512,400 a 48,48 0 0 1 -48,48 48,48 0 0 1 -48,-48 48,48 0 0 1 2.84376,-16.09376 h -57.0156 -16.2344 z"
       id="path4500" />
    <rect
       style="display:inline;fill:#3b414b;fill-opacity:1;stroke:none;stroke-width:8;enable-background:new"
       id="rect4504"
       width="480"
       height="352"
       x="224"
       y="48"
       rx="32"
       ry="32" />
    <path
       style="display:inline;fill:#000000;fill-opacity:0.2;stroke:none;stroke-width:8;enable-background:new"
       d="M 224 366 L 224 368 C 224 385.728 238.272 400 256 400 L 672 400 C 689.728 400 704 385.728 704 368 L 704 366 C 704 383.728 689.728 398 672 398 L 256 398 C 238.272 398 224 383.728 224 366 z "
       id="rect4516" />
    <path
       style="display:inline;fill:#ffffff;fill-opacity:0.2;stroke:none;stroke-width:8;enable-background:new"
       d="M 256 48 C 238.272 48 224 62.272 224 80 L 224 82 C 224 64.272 238.272 50 256 50 L 672 50 C 689.728 50 704 64.272 704 82 L 704 80 C 704 62.272 689.728 48 672 48 L 256 48 z "
       id="path4521" />
    <path
       style="display:inline;opacity:1;fill:#5b6573;fill-opacity:1;stroke:none;stroke-width:0;stroke-linecap:butt;stroke-linejoin:miter;stroke-miterlimit:0;stroke-dasharray:none;stroke-opacity:1;enable-background:new"
       d="M 264,88 V 360 H 664 V 88 Z"
       id="path4447"
       inkscape:connector-curvature="0" />
    <path
       style="display:inline;fill:url(#linearGradient4502);fill-opacity:1;stroke:none;stroke-width:16;stroke-linecap:round;stroke-linejoin:round;stroke-miterlimit:4;stroke-dasharray:none;stroke-opacity:1;enable-background:new"
       d="m 256,48 c -17.728,0 -32,14.272 -32,32 V 103.2656 277.81248 365.09376 368 c 0,1.836 0.2368,3.60952 0.5312,5.35936 0.128,0.7112 0.2472,1.41632 0.4216,2.10936 0.2016,0.84472 0.484,1.652 0.7496,2.4688 0.5864,1.72264 1.28432,3.3968 2.12504,4.98432 0.016,0.032 0.032,0.072 0.048,0.1096 C 233.25176,393.1044 243.74056,400 256,400 h 86.04688 l -1.87504,8.71872 -11.43744,53.37504 c -4.78128,22.31216 14.6196,33.57112 33.18744,33.85936 v 0.048 h 0.7192 202.71872 0.7344 v -0.048 c 12.76536,-0.1968 25.92416,-5.57576 31.34376,-16.17184 0.98536,-1.92664 1.71528,-4.0256 2.14064,-6.29688 0.6376,-3.40704 0.584,-7.20712 -0.3128,-11.39064 L 587.82816,408.71872 585.95312,400 H 672 c 12.25944,0 22.74784,-6.89544 28.12496,-16.96872 0.016,-0.032 0.032,-0.072 0.048,-0.1096 0.84072,-1.58752 1.53904,-3.26168 2.12504,-4.98432 0.2664,-0.8168 0.5488,-1.62408 0.7496,-2.4688 0.1752,-0.6928 0.2944,-1.39856 0.4216,-2.10936 C 703.7624,371.60968 704,369.836 704,368 V 80 C 704,62.272 689.728,48 672,48 Z m 160,352 h 96 a 48,48 0 0 1 -48,48 48,48 0 0 1 -48,-48 z"
       id="path4498"
       inkscape:connector-curvature="0" />
    <path
       style="display:inline;opacity:1;fill:#000000;fill-opacity:0.2;stroke:none;stroke-width:23.99999809;stroke-linecap:round;stroke-linejoin:round;stroke-miterlimit:4;stroke-dasharray:none;stroke-opacity:1;enable-background:new"
       d="M 328.0918 467.74023 C 327.45928 486.28841 345.00152 495.69046 361.92188 495.95312 L 361.92188 496 L 362.64062 496 L 565.35938 496 L 566.09375 496 L 566.09375 495.95117 C 583.01115 495.69014 600.53771 486.29194 599.91016 467.75 C 599.25798 484.96821 582.39201 493.6997 566.09375 493.95117 L 566.09375 494 L 565.35938 494 L 362.64062 494 L 361.92188 494 L 361.92188 493.95312 C 345.6201 493.70006 328.73941 484.96554 328.0918 467.74023 z "
       id="path4511" />
    <path
       id="path4559"
       d="m 55.5,526 c -0.831,0 -1.5,-0.669 -1.5,-1.5 v -1 c 0,0.831 0.669,1.5 1.5,1.5 h 17 c 0.831,0 1.5,-0.669 1.5,-1.5 v 1 c 0,0.831 -0.669,1.5 -1.5,1.5 z"
       style="display:inline;fill:#000000;fill-opacity:0.2;stroke:none;stroke-width:2;stroke-linecap:round;stroke-linejoin:round;stroke-miterlimit:4;stroke-dasharray:none;stroke-opacity:1;enable-background:new"
       inkscape:connector-curvature="0" />
  </g>
</svg>
