<?xml version="1.0" encoding="UTF-8" standalone="no"?>
<!-- Created with Inkscape (http://www.inkscape.org/) -->

<svg
   xmlns:dc="http://purl.org/dc/elements/1.1/"
   xmlns:cc="http://creativecommons.org/ns#"
   xmlns:rdf="http://www.w3.org/1999/02/22-rdf-syntax-ns#"
   xmlns:svg="http://www.w3.org/2000/svg"
   xmlns="http://www.w3.org/2000/svg"
   xmlns:xlink="http://www.w3.org/1999/xlink"
   xmlns:sodipodi="http://sodipodi.sourceforge.net/DTD/sodipodi-0.dtd"
   xmlns:inkscape="http://www.inkscape.org/namespaces/inkscape"
   width="816"
   height="544"
   viewBox="0 0 816 544"
   version="1.1"
   id="svg1087"
   inkscape:version="0.92.1 r"
   sodipodi:docname="rhythmbox.svg">
  <defs
     id="defs1081">
    <linearGradient
       id="linearGradient5497"
       inkscape:collect="always">
      <stop
         id="stop5493"
         offset="0"
         style="stop-color:#ffffff;stop-opacity:0.05490196" />
      <stop
         id="stop5495"
         offset="1"
         style="stop-color:#177ed5;stop-opacity:0;" />
    </linearGradient>
    <linearGradient
       id="linearGradient5491"
       inkscape:collect="always">
      <stop
         id="stop5487"
         offset="0"
         style="stop-color:#ffffff;stop-opacity:0.05490196" />
      <stop
         id="stop5489"
         offset="1"
         style="stop-color:#177ed5;stop-opacity:0;" />
    </linearGradient>
    <linearGradient
       id="linearGradient5485"
       inkscape:collect="always">
      <stop
         id="stop5481"
         offset="0"
         style="stop-color:#ffffff;stop-opacity:0.05490196" />
      <stop
         id="stop5483"
         offset="1"
         style="stop-color:#177ed5;stop-opacity:0;" />
    </linearGradient>
    <linearGradient
       inkscape:collect="always"
       id="linearGradient4165">
      <stop
         style="stop-color:#ffffff;stop-opacity:0.05490196"
         offset="0"
         id="stop4167" />
      <stop
         style="stop-color:#177ed5;stop-opacity:0;"
         offset="1"
         id="stop4169" />
    </linearGradient>
    <linearGradient
       id="linearGradient4457"
       inkscape:collect="always">
      <stop
         id="stop4459"
         offset="0"
         style="stop-color:#000000;stop-opacity:0.30000001" />
      <stop
         id="stop4461"
         offset="1"
         style="stop-color:#000000;stop-opacity:0;" />
    </linearGradient>
    <linearGradient
       inkscape:collect="always"
       xlink:href="#linearGradient5485"
       id="linearGradient4637"
       gradientUnits="userSpaceOnUse"
       gradientTransform="matrix(10.713038,0,0,10.713038,286.88474,-10746.893)"
       x1="7"
       y1="1011.3622"
       x2="41.000019"
       y2="1045.3622" />
    <linearGradient
       inkscape:collect="always"
       xlink:href="#linearGradient4457"
       id="linearGradient4635"
       gradientUnits="userSpaceOnUse"
       gradientTransform="matrix(11.199994,0,0,11.199994,275.19674,-11236.45)"
       x1="7"
       y1="1033.3622"
       x2="4"
       y2="1030.3622" />
    <linearGradient
       inkscape:collect="always"
       xlink:href="#linearGradient4457"
       id="linearGradient4633"
       gradientUnits="userSpaceOnUse"
       gradientTransform="matrix(-11.199994,0,0,11.199994,812.79674,-11236.45)"
       x1="7"
       y1="1033.3622"
       x2="4"
       y2="1030.3622" />
    <linearGradient
       inkscape:collect="always"
       xlink:href="#linearGradient4165"
       id="linearGradient4686"
       gradientUnits="userSpaceOnUse"
       gradientTransform="matrix(0.47826062,0,0,0.47826062,52.52178,24.174354)"
       x1="7"
       y1="1011.3622"
       x2="41.000019"
       y2="1045.3622" />
    <linearGradient
       inkscape:collect="always"
       xlink:href="#linearGradient4457"
       id="linearGradient4684"
       gradientUnits="userSpaceOnUse"
       gradientTransform="matrix(0.49999975,0,0,0.49999975,52,2.3190737)"
       x1="7"
       y1="1033.3622"
       x2="4"
       y2="1030.3622" />
    <linearGradient
       inkscape:collect="always"
       xlink:href="#linearGradient4457"
       id="linearGradient4682"
       gradientUnits="userSpaceOnUse"
       gradientTransform="matrix(-0.49999975,0,0,0.49999975,75.99999,2.3190737)"
       x1="7"
       y1="1033.3622"
       x2="4"
       y2="1030.3622" />
    <linearGradient
       inkscape:collect="always"
       xlink:href="#linearGradient5497"
       id="linearGradient4731"
       gradientUnits="userSpaceOnUse"
       gradientTransform="matrix(0.66956437,0,0,0.66956437,95.9305,-176.55534)"
       x1="7"
       y1="1011.3622"
       x2="41.000019"
       y2="1045.3622" />
    <linearGradient
       inkscape:collect="always"
       xlink:href="#linearGradient4457"
       id="linearGradient4729"
       gradientUnits="userSpaceOnUse"
       gradientTransform="matrix(0.69999915,0,0,0.69999915,95.2,-207.15267)"
       x1="7"
       y1="1033.3622"
       x2="4"
       y2="1030.3622" />
    <linearGradient
       inkscape:collect="always"
       xlink:href="#linearGradient4457"
       id="linearGradient4727"
       gradientUnits="userSpaceOnUse"
       gradientTransform="matrix(-0.69999915,0,0,0.69999915,128.79996,-207.15267)"
       x1="7"
       y1="1033.3622"
       x2="4"
       y2="1030.3622" />
    <linearGradient
       inkscape:collect="always"
       xlink:href="#linearGradient5491"
       id="linearGradient4726"
       gradientUnits="userSpaceOnUse"
       gradientTransform="matrix(0.95652172,0,0,0.95652172,145.04356,-479.65171)"
       x1="7"
       y1="1011.3622"
       x2="41.000019"
       y2="1045.3622" />
    <linearGradient
       gradientTransform="translate(144,-523.36229)"
       inkscape:collect="always"
       xlink:href="#linearGradient4457"
       id="linearGradient4246"
       x1="7"
       y1="1033.3622"
       x2="4"
       y2="1030.3622"
       gradientUnits="userSpaceOnUse" />
    <linearGradient
       inkscape:collect="always"
       xlink:href="#linearGradient4457"
       id="linearGradient4250"
       gradientUnits="userSpaceOnUse"
       x1="7"
       y1="1033.3622"
       x2="4"
       y2="1030.3622"
       gradientTransform="matrix(-1,0,0,1,192,-523.36229)" />
    <linearGradient
       inkscape:collect="always"
       xlink:href="#linearGradient4457"
       id="linearGradient4651"
       gradientUnits="userSpaceOnUse"
       gradientTransform="matrix(-1.3999992,0,0,1.3999992,273.59959,-942.55625)"
       x1="7"
       y1="1033.3622"
       x2="4"
       y2="1030.3622" />
    <linearGradient
       inkscape:collect="always"
       xlink:href="#linearGradient4457"
       id="linearGradient4653"
       gradientUnits="userSpaceOnUse"
       gradientTransform="matrix(1.3999992,0,0,1.3999992,206.39959,-942.55625)"
       x1="7"
       y1="1033.3622"
       x2="4"
       y2="1030.3622" />
    <linearGradient
       inkscape:collect="always"
       xlink:href="#linearGradient5485"
       id="linearGradient4655"
       gradientUnits="userSpaceOnUse"
       gradientTransform="matrix(1.3391297,0,0,1.3391297,207.86059,-881.36162)"
       x1="7"
       y1="1011.3622"
       x2="41.000019"
       y2="1045.3622" />
    <filter
       inkscape:collect="always"
       style="color-interpolation-filters:sRGB"
       id="filter4669"
       x="-0.028799967"
       width="1.0575999"
       y="-0.020571445"
       height="1.0411429">
      <feGaussianBlur
         inkscape:collect="always"
         stdDeviation="1.727998"
         id="feGaussianBlur4671" />
    </filter>
    <filter
       inkscape:collect="always"
       style="color-interpolation-filters:sRGB"
       id="filter4682"
       x="-0.028799967"
       width="1.0575999"
       y="-0.020571445"
       height="1.0411429">
      <feGaussianBlur
         inkscape:collect="always"
         stdDeviation="1.727998"
         id="feGaussianBlur4684" />
    </filter>
    <filter
       inkscape:collect="always"
       style="color-interpolation-filters:sRGB"
       id="filter4702"
       x="-0.021299998"
       width="1.0426"
       y="-0.027483875"
       height="1.0549677">
      <feGaussianBlur
         inkscape:collect="always"
         stdDeviation="3.9759996"
         id="feGaussianBlur4704" />
    </filter>
    <filter
       inkscape:collect="always"
       style="color-interpolation-filters:sRGB"
       id="filter4724"
       x="-0.010649999"
       width="1.0213"
       y="-0.013741937"
       height="1.0274839">
      <feGaussianBlur
         inkscape:collect="always"
         stdDeviation="0.24849998"
         id="feGaussianBlur4726" />
    </filter>
    <filter
       inkscape:collect="always"
       style="color-interpolation-filters:sRGB"
       id="filter4733"
       x="-0.01439974"
       width="1.0287995"
       y="-0.010285847"
       height="1.0205717">
      <feGaussianBlur
         inkscape:collect="always"
         stdDeviation="0.10799805"
         id="feGaussianBlur4735" />
    </filter>
    <filter
       inkscape:collect="always"
       style="color-interpolation-filters:sRGB"
       id="filter4754"
       x="-0.012000003"
       width="1.024"
       y="-0.011999997"
       height="1.024">
      <feGaussianBlur
         inkscape:collect="always"
         stdDeviation="0.2"
         id="feGaussianBlur4756" />
    </filter>
  </defs>
  <sodipodi:namedview
     id="base"
     pagecolor="#c3c3c3"
     bordercolor="#333333"
     borderopacity="1"
     inkscape:pageopacity="0"
     inkscape:pageshadow="2"
     inkscape:zoom="0.35"
     inkscape:cx="-642.21614"
     inkscape:cy="317.93717"
     inkscape:document-units="px"
     inkscape:current-layer="layer2"
     showgrid="true"
     units="px"
     inkscape:showpageshadow="false"
     inkscape:window-width="1280"
     inkscape:window-height="1370"
     inkscape:window-x="1280"
     inkscape:window-y="34"
     inkscape:window-maximized="0"
     showguides="false">
    <inkscape:grid
       type="xygrid"
       id="grid4630" />
  </sodipodi:namedview>
  <metadata
     id="metadata1084">
    <rdf:RDF>
      <cc:Work
         rdf:about="">
        <dc:format>image/svg+xml</dc:format>
        <dc:type
           rdf:resource="http://purl.org/dc/dcmitype/StillImage" />
        <dc:title />
        <cc:license
           rdf:resource="http://creativecommons.org/licenses/by-sa/4.0/" />
        <dc:creator>
          <cc:Agent>
            <dc:title>Peter Cornelis</dc:title>
          </cc:Agent>
        </dc:creator>
      </cc:Work>
      <cc:License
         rdf:about="http://creativecommons.org/licenses/by-sa/4.0/">
        <cc:permits
           rdf:resource="http://creativecommons.org/ns#Reproduction" />
        <cc:permits
           rdf:resource="http://creativecommons.org/ns#Distribution" />
        <cc:requires
           rdf:resource="http://creativecommons.org/ns#Notice" />
        <cc:requires
           rdf:resource="http://creativecommons.org/ns#Attribution" />
        <cc:permits
           rdf:resource="http://creativecommons.org/ns#DerivativeWorks" />
        <cc:requires
           rdf:resource="http://creativecommons.org/ns#ShareAlike" />
      </cc:License>
    </rdf:RDF>
  </metadata>
  <g
     inkscape:label="Baseplate"
     inkscape:groupmode="layer"
     id="layer1"
     transform="translate(0,-153.06668)"
     style="display:none">
    <rect
       style="display:inline;overflow:visible;visibility:visible;fill:#fefefe;fill-opacity:1;fill-rule:nonzero;stroke:none;stroke-width:2;marker:none;enable-background:accumulate"
       id="rect3951"
       width="512"
       height="512"
       x="-800"
       y="169.06668"
       inkscape:label="48x48"
       transform="scale(-1,1)" />
    <text
       y="733.32251"
       xml:space="preserve"
       x="15.006836"
       style="font-style:normal;font-variant:normal;font-weight:normal;font-stretch:normal;line-height:0%;font-family:'DejaVu Sans';-inkscape-font-specification:'DejaVu Sans';display:inline;fill:#000000;fill-opacity:1;stroke:none;enable-background:new"
       inkscape:label="context"
       id="context"><tspan
         style="font-style:normal;font-variant:normal;font-weight:normal;font-stretch:normal;font-size:18px;line-height:1.25;font-family:'DejaVu Sans';-inkscape-font-specification:'DejaVu Sans'"
         y="733.32251"
         x="15.006836"
         sodipodi:role="line"
         id="tspan3933">apps</tspan></text>
    <text
       y="733.32251"
       xml:space="preserve"
       x="142.48828"
       style="font-style:normal;font-variant:normal;font-weight:bold;font-stretch:normal;line-height:0%;font-family:'DejaVu Sans';-inkscape-font-specification:'DejaVu Sans Bold';text-align:start;writing-mode:lr-tb;text-anchor:start;display:inline;fill:#000000;fill-opacity:1;stroke:none;enable-background:new"
       inkscape:label="icon-name"
       id="icon-name"><tspan
         style="font-style:normal;font-variant:normal;font-weight:bold;font-stretch:normal;font-size:18px;line-height:1.25;font-family:'DejaVu Sans';-inkscape-font-specification:'DejaVu Sans Bold'"
         y="733.32251"
         x="142.48828"
         sodipodi:role="line"
         id="tspan3937">rhythmbox</tspan></text>
    <rect
       style="display:inline;overflow:visible;visibility:visible;fill:#fefefe;fill-opacity:1;fill-rule:nonzero;stroke:none;stroke-width:2;marker:none;enable-background:accumulate"
       id="rect16x16"
       width="16"
       height="16"
       x="-32"
       y="665.06665"
       inkscape:label="16x16"
       transform="scale(-1,1)" />
    <rect
       style="display:inline;overflow:visible;visibility:visible;fill:#fefefe;fill-opacity:1;fill-rule:nonzero;stroke:none;stroke-width:2;marker:none;enable-background:accumulate"
       id="rect24x24"
       width="24"
       height="24"
       x="-76"
       y="657.06665"
       inkscape:label="24x24"
       transform="scale(-1,1)" />
    <rect
       style="display:inline;overflow:visible;visibility:visible;fill:#fefefe;fill-opacity:1;fill-rule:nonzero;stroke:none;stroke-width:2;marker:none;enable-background:accumulate"
       id="rect32x32"
       width="32"
       height="32"
       x="-128"
       y="649.06665"
       inkscape:label="32x32"
       transform="scale(-1,1)" />
    <rect
       inkscape:label="48x48"
       y="633.06665"
       x="-192"
       height="48"
       width="48"
       id="rect48x48"
       style="display:inline;overflow:visible;visibility:visible;fill:#fefefe;fill-opacity:1;fill-rule:nonzero;stroke:none;stroke-width:2;marker:none;enable-background:accumulate"
       transform="scale(-1,1)" />
    <rect
       transform="scale(-1,1)"
       inkscape:label="48x48"
       y="617.06665"
       x="-272"
       height="64"
       width="64"
       id="rect4620"
       style="display:inline;overflow:visible;visibility:visible;fill:#fefefe;fill-opacity:1;fill-rule:nonzero;stroke:none;stroke-width:0.25;marker:none;enable-background:accumulate" />
  </g>
  <g
     inkscape:groupmode="layer"
     id="layer2"
     inkscape:label="Bitmap"
     style="display:inline">
    <path
       inkscape:connector-curvature="0"
       id="path4688"
       d="M 543.99674,48.00008 A 223.99989,223.99989 0 0 0 319.99674,272 v 123.2 h 33.6 V 283.2 272 a 190.3999,190.3999 0 0 1 190.4,-190.39992 190.3999,190.3999 0 0 1 190.4,190.39992 v 11.2 112 h 33.6 V 272 a 223.99989,223.99989 0 0 0 -224,-223.99992 z"
       style="display:inline;opacity:1;fill:#000000;fill-opacity:0.2;stroke:none;stroke-width:8;filter:url(#filter4702);enable-background:new" />
    <path
       inkscape:connector-curvature="0"
       id="path4605"
       d="m 543.99674,57.20045 a 223.99986,223.99988 0 0 0 -224,223.99992 h 0.392 a 223.99986,223.99988 0 0 1 223.608,-212.79992 223.99986,223.99988 0 0 1 223.4312,212.79992 h 0.5688 a 223.99986,223.99988 0 0 0 -224,-223.99992 z"
       style="display:inline;opacity:1;fill:#ffffff;fill-opacity:0.2;stroke:none;stroke-width:13.32800007;stroke-linecap:round;stroke-linejoin:round;stroke-miterlimit:4;stroke-dasharray:none;stroke-opacity:1;enable-background:new" />
    <path
       style="display:inline;opacity:1;fill:#000000;fill-opacity:0.2;stroke:none;stroke-width:8;enable-background:new"
       d="m 419.19531,294.40039 c -0.66333,0 -1.30839,0.0682 -1.93945,0.17773 a 100.79995,100.79995 0 0 0 -97.25977,100.62305 100.79995,100.79995 0 0 0 97.70508,100.68945 c 0.48989,0.065 0.98594,0.10938 1.49414,0.10938 h 1.60157 32 c 6.20456,0 11.19921,-4.9943 11.19921,-11.19922 V 305.60156 c 0,-6.20492 -4.99465,-11.20117 -11.19921,-11.20117 h -32 z"
       id="rect4657"
       inkscape:connector-curvature="0" />
    <path
       inkscape:connector-curvature="0"
       id="path4663"
       d="m 419.19531,294.40039 c -0.66333,0 -1.30839,0.0682 -1.93945,0.17773 a 100.79995,100.79995 0 0 0 -97.25977,100.62305 100.79995,100.79995 0 0 0 97.70508,100.68945 c 0.48989,0.065 0.98594,0.10938 1.49414,0.10938 h 1.60157 32 c 6.20456,0 11.19921,-4.9943 11.19921,-11.19922 V 305.60156 c 0,-6.20492 -4.99465,-11.20117 -11.19921,-11.20117 h -32 z"
       style="display:inline;opacity:1;fill:#000000;fill-opacity:0.2;stroke:none;stroke-width:8;filter:url(#filter4669);enable-background:new" />
    <rect
       ry="11.200219"
       rx="11.19958"
       y="292.40039"
       x="407.99585"
       height="201.5999"
       width="55.999973"
       id="rect4607"
       style="display:inline;opacity:1;fill:#59d8de;fill-opacity:1;stroke:none;stroke-width:8;enable-background:new" />
    <path
       style="display:inline;opacity:1;fill:#ffffff;fill-opacity:0.2;stroke:none;stroke-width:8;enable-background:new"
       d="m 419.19531,292.40039 c -0.66333,0 -1.30839,0.0682 -1.93945,0.17773 a 100.79995,100.79995 0 0 0 -97.25977,100.62305 100.79995,100.79995 0 0 0 0.0274,0.53516 100.79995,100.79995 0 0 1 97.23242,-99.15821 c 0.63106,-0.10953 1.27612,-0.17773 1.93945,-0.17773 h 1.60157 32 c 6.20455,0 11.19921,4.99625 11.19921,11.20117 v -2 c 0,-6.20492 -4.99466,-11.20117 -11.19921,-11.20117 h -32 z"
       id="rect4706"
       inkscape:connector-curvature="0" />
    <path
       style="display:inline;opacity:1;fill:#000000;fill-opacity:0.2;stroke:none;stroke-width:8;enable-background:new"
       d="M 543.99674,48.00008 A 223.99989,223.99989 0 0 0 319.99674,272 v 123.2 h 33.6 V 283.2 272 a 190.3999,190.3999 0 0 1 190.4,-190.39992 190.3999,190.3999 0 0 1 190.4,190.39992 v 11.2 112 h 33.6 V 272 a 223.99989,223.99989 0 0 0 -224,-223.99992 z"
       id="path4686"
       inkscape:connector-curvature="0" />
    <path
       inkscape:connector-curvature="0"
       id="path4609"
       d="m 543.99674,46.00045 a 223.99989,223.99989 0 0 0 -224,223.99992 v 123.2 h 33.6 v -112 -11.2 a 190.3999,190.3999 0 0 1 190.4,-190.39992 190.3999,190.3999 0 0 1 190.4,190.39992 v 11.2 112 h 33.6 v -123.2 a 223.99989,223.99989 0 0 0 -224,-223.99992 z"
       style="display:inline;opacity:1;fill:#1e9eae;fill-opacity:1;stroke:none;stroke-width:8;enable-background:new" />
    <path
       style="display:inline;opacity:1;fill:#ffffff;fill-opacity:0.2;stroke:none;stroke-width:13.32800007;stroke-linecap:round;stroke-linejoin:round;stroke-miterlimit:4;stroke-dasharray:none;stroke-opacity:1;enable-background:new"
       d="m 543.99609,46 a 223.99986,223.99988 0 0 0 -224,224 v 2 a 223.99986,223.99988 0 0 1 224,-224 h 0.002 a 223.99986,223.99988 0 0 1 224,224 v -2 a 223.99986,223.99988 0 0 0 -224,-224 z"
       id="path4611"
       inkscape:connector-curvature="0" />
    <path
       style="display:inline;opacity:1;fill:#000000;fill-opacity:0.2;stroke:none;stroke-width:8;filter:url(#filter4682);enable-background:new"
       d="m 668.79687,294.40039 c 0.66333,0 1.30839,0.0682 1.93945,0.17773 a 100.79995,100.79995 0 0 1 97.25977,100.62305 100.79995,100.79995 0 0 1 -97.70508,100.68945 C 669.80112,495.95562 669.30507,496 668.79687,496 h -1.60157 -32 c -6.20456,0 -11.19921,-4.9943 -11.19921,-11.19922 V 305.60156 c 0,-6.20492 4.99465,-11.20117 11.19921,-11.20117 h 32 z"
       id="path4676"
       inkscape:connector-curvature="0" />
    <path
       inkscape:connector-curvature="0"
       id="path4673"
       d="m 668.79687,294.40039 c 0.66333,0 1.30839,0.0682 1.93945,0.17773 a 100.79995,100.79995 0 0 1 97.25977,100.62305 100.79995,100.79995 0 0 1 -97.70508,100.68945 C 669.80112,495.95562 669.30507,496 668.79687,496 h -1.60157 -32 c -6.20456,0 -11.19921,-4.9943 -11.19921,-11.19922 V 305.60156 c 0,-6.20492 4.99465,-11.20117 11.19921,-11.20117 h 32 z"
       style="display:inline;opacity:1;fill:#000000;fill-opacity:0.2;stroke:none;stroke-width:8;enable-background:new" />
    <rect
       style="display:inline;opacity:1;fill:#59d8de;fill-opacity:1;stroke:none;stroke-width:8;enable-background:new"
       id="rect4613"
       width="55.999973"
       height="201.5999"
       x="624"
       y="292.40039"
       rx="11.19958"
       ry="11.200219" />
    <path
       inkscape:connector-curvature="0"
       id="path4716"
       d="m 668.79692,292.40039 c 0.66333,0 1.30839,0.0682 1.93945,0.17773 a 100.79995,100.79995 0 0 1 97.25977,100.62305 100.79995,100.79995 0 0 1 -0.0274,0.53516 100.79995,100.79995 0 0 0 -97.23242,-99.15821 c -0.63106,-0.10953 -1.27612,-0.17773 -1.93945,-0.17773 h -1.60157 -32 c -6.20455,0 -11.19921,4.99625 -11.19921,11.20117 v -2 c 0,-6.20492 4.99466,-11.20117 11.19921,-11.20117 h 32 z"
       style="display:inline;opacity:1;fill:#ffffff;fill-opacity:0.2;stroke:none;stroke-width:8;enable-background:new" />
    <path
       style="display:inline;fill:url(#linearGradient4633);fill-opacity:1;fill-rule:evenodd;stroke:none;stroke-width:8px;stroke-linecap:butt;stroke-linejoin:miter;stroke-opacity:1;enable-background:new"
       d="m 734.39674,326.00037 33.6,-33.6 v 89.6 l -33.6,-56"
       id="path4615"
       inkscape:connector-curvature="0" />
    <path
       inkscape:connector-curvature="0"
       id="path4617"
       d="M 667.19674,292.40037 V 494.0003 a 100.79995,100.79995 0 0 0 100.8,-100.79993 100.79995,100.79995 0 0 0 -100.8,-100.8 z"
       style="display:inline;opacity:1;fill:#1e9eae;fill-opacity:1;stroke:none;stroke-width:8;enable-background:new" />
    <path
       inkscape:connector-curvature="0"
       id="path4621"
       d="m 353.59674,326.00037 -33.6,-33.6 v 89.6 l 33.6,-56"
       style="display:inline;fill:url(#linearGradient4635);fill-opacity:1;fill-rule:evenodd;stroke:none;stroke-width:8px;stroke-linecap:butt;stroke-linejoin:miter;stroke-opacity:1;enable-background:new" />
    <path
       inkscape:connector-curvature="0"
       id="path4623"
       d="m 420.79674,292.40037 a 100.79995,100.79995 0 0 0 -100.8,100.8 100.79995,100.79995 0 0 0 100.8,100.79993 z"
       style="display:inline;opacity:1;fill:#1e9eae;fill-opacity:1;stroke:none;stroke-width:8;enable-background:new" />
    <path
       style="display:inline;opacity:1;fill:#ffffff;fill-opacity:0.2;stroke:none;stroke-width:8;enable-background:new"
       d="m 420.79297,292.40625 a 100.79995,100.79995 0 0 0 -100.79688,100.79687 100.79995,100.79995 0 0 0 0.041,0.84766 100.79995,100.79995 0 0 1 100.75586,-99.64453 z m 0,2 0.002,5.98437 h 0.002 z"
       id="path4627"
       inkscape:connector-curvature="0" />
    <path
       style="display:inline;opacity:1;fill:#ffffff;fill-opacity:0.2;stroke:none;stroke-width:8;enable-background:new"
       d="m 667.19727,292.40625 v 2 a 100.79995,100.79995 0 0 1 100.75585,99.64453 100.79995,100.79995 0 0 0 0.041,-0.84766 100.79995,100.79995 0 0 0 -100.79687,-100.79687 z m 0,2 -0.004,5.98437 h 0.002 z"
       id="path4650"
       inkscape:connector-curvature="0" />
    <path
       inkscape:connector-curvature="0"
       id="path4631"
       d="m 543.99674,46.00045 a 223.99989,223.99989 0 0 0 -224,223.99992 v 101.9592 21.2408 a 100.79995,100.79995 0 0 0 10.8504,45.23763 100.79995,100.79995 0 0 0 0.376,0.784 100.79995,100.79995 0 0 0 43.1808,43.4216 100.79995,100.79995 0 0 0 8.4872,3.8935 100.79995,100.79995 0 0 0 0.744,0.328 100.79995,100.79995 0 0 0 7.372,2.516 100.79995,100.79995 0 0 0 2.3192,0.768 100.79995,100.79995 0 0 0 7.1528,1.6624 100.79995,100.79995 0 0 0 2.6248,0.592 100.79995,100.79995 0 0 0 5.3816,0.704 100.79995,100.79995 0 0 0 5.0096,0.616 100.79995,100.79995 0 0 0 7.3064,0.288 h 21.4152 12.1848 c 6.204,0 11.2,-4.9952 11.2,-11.1999 V 303.61157 c 0,-6.2048 -4.996,-11.2 -11.2,-11.2 h -33.6 a 100.79995,100.79995 0 0 0 -67.2008,25.812 v -37.0128 -11.2 a 190.3999,190.3999 0 0 1 190.4,-190.39992 190.3999,190.3999 0 0 1 190.4,190.39992 v 11.2 37.0344 a 100.79995,100.79995 0 0 0 -67.2,-25.8344 h -33.6 c -6.2048,0 -11.2,4.9952 -11.2,11.2 V 482.8108 c 0,6.2047 4.9952,11.1999 11.2,11.1999 h 12.1408 21.4592 a 100.79995,100.79995 0 0 0 45.6528,-11.0471 100.79995,100.79995 0 0 0 0.544,-0.264 100.79995,100.79995 0 0 0 43.2904,-43.1592 100.79995,100.79995 0 0 0 4.1784,-9.144 100.79995,100.79995 0 0 0 2.5376,-7.4376 100.79995,100.79995 0 0 0 0.768,-2.3184 100.79995,100.79995 0 0 0 1.5528,-6.6936 100.79995,100.79995 0 0 0 0.704,-3.128 100.79995,100.79995 0 0 0 0.696,-5.44723 100.79995,100.79995 0 0 0 0.592,-4.7904 100.79995,100.79995 0 0 0 0.288,-7.3504 v -21.3056 -101.8944 A 223.99989,223.99989 0 0 0 544.00554,46.03133 Z"
       style="display:inline;fill:url(#linearGradient4637);fill-opacity:1;stroke:none;stroke-width:16;stroke-linecap:round;stroke-linejoin:round;stroke-miterlimit:4;stroke-dasharray:none;stroke-opacity:1;enable-background:new" />
    <path
       inkscape:connector-curvature="0"
       id="path4752"
       d="m 168,484.99999 a 20,20 0 0 0 -20,20 v 9.10352 1.89648 a 9,9 0 0 0 0.96875,4.03906 9,9 0 0 0 0.0332,0.0703 9,9 0 0 0 3.85547,3.87695 9,9 0 0 0 0.75781,0.34765 9,9 0 0 0 0.0664,0.0293 9,9 0 0 0 0.6582,0.22461 9,9 0 0 0 0.20704,0.0684 9,9 0 0 0 0.63867,0.14844 9,9 0 0 0 0.23437,0.0527 9,9 0 0 0 0.48047,0.0625 9,9 0 0 0 0.44727,0.0547 A 9,9 0 0 0 157,525 H 158.91211 160 c 0.55398,0 1,-0.44599 1,-1 v -16 c 0,-0.55401 -0.44602,-1 -1,-1 h -3 a 9,9 0 0 0 -6,2.30469 V 506 505 a 17,17 0 0 1 17,-17 17,17 0 0 1 17,17 v 1 3.30664 A 9,9 0 0 0 179,507 h -3 c -0.55398,0 -1,0.44599 -1,1 v 16 c 0,0.55401 0.44602,1 1,1 H 177.08398 179 a 9,9 0 0 0 4.07617,-0.98633 9,9 0 0 0 0.0488,-0.0234 9,9 0 0 0 3.86523,-3.85351 9,9 0 0 0 0,-0.002 9,9 0 0 0 0.37305,-0.81641 9,9 0 0 0 0.22656,-0.66406 9,9 0 0 0 0.0684,-0.20703 9,9 0 0 0 0.13868,-0.59766 9,9 0 0 0 0.0625,-0.2793 9,9 0 0 0 0.0625,-0.48633 9,9 0 0 0 0.0527,-0.42773 A 9,9 0 0 0 187.99999,516 V 514.09766 505 a 20,20 0 0 0 -20,-20 z"
       style="display:inline;fill:#000000;fill-opacity:0.2;stroke:none;stroke-width:2;stroke-linecap:round;stroke-linejoin:round;stroke-miterlimit:4;stroke-dasharray:none;stroke-opacity:1;filter:url(#filter4754);enable-background:new" />
    <path
       style="display:inline;opacity:1;fill:#ffffff;fill-opacity:0.2;stroke:none;stroke-width:1.66600001;stroke-linecap:round;stroke-linejoin:round;stroke-miterlimit:4;stroke-dasharray:none;stroke-opacity:1;enable-background:new"
       d="m 168,484.99991 a 19.999997,19.999999 0 0 0 -20,20 h 0.0352 a 19.999997,19.999999 0 0 1 19.9648,-19 19.999997,19.999999 0 0 1 19.94922,19 h 0.0508 a 19.999997,19.999999 0 0 0 -20,-20 z"
       id="path4240"
       inkscape:connector-curvature="0" />
    <rect
       style="display:inline;opacity:1;fill:#59d8de;fill-opacity:1;stroke:none;enable-background:new"
       id="rect4206"
       width="5"
       height="18"
       x="156"
       y="506"
       rx="0.99996299"
       ry="1.00002" />
    <path
       style="display:inline;opacity:1;fill:#1e9eae;fill-opacity:1;stroke:none;enable-background:new"
       d="m 168,483.99991 a 20,20 0 0 0 -20,20 v 11 h 3 v -10 -1 a 17,17 0 0 1 17,-17 17,17 0 0 1 17,17 v 1 10 h 3 v -11 a 20,20 0 0 0 -20,-20 z"
       id="path4160"
       inkscape:connector-curvature="0" />
    <path
       inkscape:connector-curvature="0"
       style="display:inline;opacity:1;fill:#ffffff;fill-opacity:0.2;stroke:none;stroke-width:1.66600001;stroke-linecap:round;stroke-linejoin:round;stroke-miterlimit:4;stroke-dasharray:none;stroke-opacity:1;enable-background:new"
       d="m 168,483.99991 a 19.999997,19.999999 0 0 0 -20,20 v 1 a 19.999997,19.999999 0 0 1 20,-20 19.999997,19.999999 0 0 1 20,20 v -1 a 19.999997,19.999999 0 0 0 -20,-20 z"
       id="path4179-8" />
    <rect
       ry="1.00002"
       rx="0.99996299"
       y="506"
       x="175"
       height="18"
       width="5"
       id="rect4208"
       style="display:inline;opacity:1;fill:#59d8de;fill-opacity:1;stroke:none;enable-background:new" />
    <path
       inkscape:connector-curvature="0"
       id="path4248"
       d="m 185,508.99991 3,-3 v 8 l -3,-5"
       style="display:inline;fill:url(#linearGradient4250);fill-opacity:1;fill-rule:evenodd;stroke:none;stroke-width:1px;stroke-linecap:butt;stroke-linejoin:miter;stroke-opacity:1;enable-background:new" />
    <path
       style="display:inline;opacity:1;fill:#1e9eae;fill-opacity:1;stroke:none;enable-background:new"
       d="m 179,505.99991 v 18 a 9,9 0 0 0 9,-9 9,9 0 0 0 -9,-9 z"
       id="path4189"
       inkscape:connector-curvature="0" />
    <path
       style="display:inline;fill:url(#linearGradient4246);fill-opacity:1;fill-rule:evenodd;stroke:none;stroke-width:1px;stroke-linecap:butt;stroke-linejoin:miter;stroke-opacity:1;enable-background:new"
       d="m 151,508.99991 -3,-3 v 8 l 3,-5"
       id="path4230"
       inkscape:connector-curvature="0" />
    <path
       style="display:inline;opacity:1;fill:#1e9eae;fill-opacity:1;stroke:none;enable-background:new"
       d="m 157,505.99991 a 9,9 0 0 0 -9,9 9,9 0 0 0 9,9 z"
       id="circle4191"
       inkscape:connector-curvature="0" />
    <path
       inkscape:connector-curvature="0"
       style="display:inline;opacity:1;fill:#ffffff;fill-opacity:0.2;stroke:none;enable-background:new"
       d="m 157,505.99991 a 9,9 0 0 0 -9,9 9,9 0 0 0 0.0215,0.42383 9,9 0 0 1 8.9785,-8.42383 z"
       id="path4488" />
    <path
       style="display:inline;fill:#000000;fill-opacity:0.2;stroke:none;stroke-width:2;stroke-linecap:round;stroke-linejoin:round;stroke-miterlimit:4;stroke-dasharray:none;stroke-opacity:1;enable-background:new"
       d="M 63.99999,507.00001 A 9.999995,9.999995 0 0 0 54,517 v 4.55176 0.94824 a 4.4999978,4.4999978 0 0 0 0.48438,2.01953 4.4999978,4.4999978 0 0 0 0.0166,0.0352 4.4999978,4.4999978 0 0 0 1.92774,1.93848 4.4999978,4.4999978 0 0 0 0.3789,0.17382 4.4999978,4.4999978 0 0 0 0.0332,0.0146 4.4999978,4.4999978 0 0 0 0.3291,0.11231 4.4999978,4.4999978 0 0 0 0.10352,0.0342 4.4999978,4.4999978 0 0 0 0.31934,0.0742 4.4999978,4.4999978 0 0 0 0.11718,0.0264 4.4999978,4.4999978 0 0 0 0.24024,0.0312 4.4999978,4.4999978 0 0 0 0.22363,0.0273 4.4999978,4.4999978 0 0 0 0.32618,0.0127 H 59.45606 60 c 0.27699,0 0.5,-0.22299 0.5,-0.5 v -8 c 0,-0.277 -0.22301,-0.5 -0.5,-0.5 h -1.5 a 4.4999978,4.4999978 0 0 0 -3,1.15235 v -1.65235 -0.5 a 8.4999958,8.4999958 0 0 1 8.49999,-8.49993 8.4999958,8.4999958 0 0 1 8.5,8.49999 v 0.5 1.65332 a 4.4999978,4.4999978 0 0 0 -3,-1.15332 h -1.5 c -0.27699,0 -0.5,0.223 -0.5,0.5 v 8 c 0,0.27701 0.22301,0.5 0.5,0.5 h 0.54199 0.95801 a 4.4999978,4.4999978 0 0 0 2.03809,-0.49316 4.4999978,4.4999978 0 0 0 0.0244,-0.0117 4.4999978,4.4999978 0 0 0 1.93261,-1.92676 4.4999978,4.4999978 0 0 0 0,-0.001 4.4999978,4.4999978 0 0 0 0.18652,-0.4082 4.4999978,4.4999978 0 0 0 0.11328,-0.33203 4.4999978,4.4999978 0 0 0 0.0342,-0.10352 4.4999978,4.4999978 0 0 0 0.0693,-0.29883 4.4999978,4.4999978 0 0 0 0.0312,-0.13965 4.4999978,4.4999978 0 0 0 0.0312,-0.24316 4.4999978,4.4999978 0 0 0 0.0263,-0.21387 4.4999978,4.4999978 0 0 0 0.0127,-0.32812 V 521.54883 517 a 9.999995,9.999995 0 0 0 -9.99999,-9.99999 z"
       id="path4800"
       inkscape:connector-curvature="0" />
    <path
       inkscape:connector-curvature="0"
       id="path4652"
       d="M 63.99999,506.49992 A 9.9999935,9.9999945 0 0 0 54,516.49991 h 0.0176 a 9.9999935,9.9999945 0 0 1 9.98239,-9.49999 9.9999935,9.9999945 0 0 1 9.97461,9.49999 H 74 a 9.9999935,9.9999945 0 0 0 -10,-9.99999 z"
       style="display:inline;opacity:1;fill:#ffffff;fill-opacity:0.2;stroke:none;stroke-width:1.66600001;stroke-linecap:round;stroke-linejoin:round;stroke-miterlimit:4;stroke-dasharray:none;stroke-opacity:1;enable-background:new" />
    <rect
       ry="0.50000978"
       rx="0.49998125"
       y="517"
       x="58.5"
       height="8.9999952"
       width="2.4999988"
       id="rect4654"
       style="display:inline;opacity:1;fill:#59d8de;fill-opacity:1;stroke:none;enable-background:new" />
    <path
       inkscape:connector-curvature="0"
       id="path4656"
       d="M 63.99999,505.99992 A 9.999995,9.999995 0 0 0 54,515.99991 v 5.5 h 1.5 v -5 -0.5 a 8.4999958,8.4999958 0 0 1 8.49999,-8.49999 8.4999958,8.4999958 0 0 1 8.5,8.49999 v 0.5 5 h 1.5 v -5.5 a 9.999995,9.999995 0 0 0 -10,-9.99999 z"
       style="display:inline;opacity:1;fill:#1e9eae;fill-opacity:1;stroke:none;enable-background:new" />
    <path
       inkscape:connector-curvature="0"
       style="display:inline;opacity:1;fill:#ffffff;fill-opacity:0.2;stroke:none;stroke-width:1.66600001;stroke-linecap:round;stroke-linejoin:round;stroke-miterlimit:4;stroke-dasharray:none;stroke-opacity:1;enable-background:new"
       d="m 64,505.99991 a 9.9999935,9.9999945 0 0 0 -10,10 v 0.5 0.5 a 9.9999935,9.9999945 0 0 1 10,-10 9.9999935,9.9999945 0 0 1 10,10 v -0.5 a 9.9999935,9.9999945 0 0 0 -0.043,-0.85547 9.9999935,9.9999945 0 0 1 0.043,0.85547 v -0.5 a 9.9999935,9.9999945 0 0 0 -10,-10 z m 0,0.5 a 9.9999935,9.9999945 0 0 0 -0.85547,0.043 9.9999935,9.9999945 0 0 1 0.85547,-0.043 z m 0.85547,0.043 a 9.9999935,9.9999945 0 0 1 0.50195,0.0625 9.9999935,9.9999945 0 0 0 -0.50195,-0.0625 z m -2.21289,0.0625 a 9.9999935,9.9999945 0 0 0 -0.47266,0.0703 9.9999935,9.9999945 0 0 1 0.47266,-0.0703 z m 3.1875,0.0703 a 9.9999935,9.9999945 0 0 1 0.51758,0.11524 9.9999935,9.9999945 0 0 0 -0.51758,-0.11524 z m -4.17774,0.11524 a 9.9999935,9.9999945 0 0 0 -0.46679,0.12109 9.9999935,9.9999945 0 0 1 0.46679,-0.12109 z m 5.16211,0.12109 a 9.9999935,9.9999945 0 0 1 0.47657,0.15625 9.9999935,9.9999945 0 0 0 -0.47657,-0.15625 z m -6.10547,0.15625 a 9.9999935,9.9999945 0 0 0 -0.45898,0.16795 9.9999935,9.9999945 0 0 1 0.45898,-0.16797 z m 7.04102,0.16795 a 9.9999935,9.9999945 0 0 1 0.48047,0.21484 9.9999935,9.9999945 0 0 0 -0.48047,-0.21484 z m -7.98047,0.21484 a 9.9999935,9.9999945 0 0 0 -0.42773,0.20703 9.9999935,9.9999945 0 0 1 0.42773,-0.20703 z m 8.88867,0.20703 a 9.9999935,9.9999945 0 0 1 0.46485,0.26758 9.9999935,9.9999945 0 0 0 -0.46485,-0.26758 z m -9.78125,0.26758 a 9.9999935,9.9999945 0 0 0 -0.38672,0.23633 9.9999935,9.9999945 0 0 1 0.38672,-0.23633 z m 10.63282,0.23633 a 9.9999935,9.9999945 0 0 1 0.41406,0.29492 9.9999935,9.9999945 0 0 0 -0.41406,-0.29492 z m -11.4336,0.29492 a 9.9999935,9.9999945 0 0 0 -0.41406,0.31641 9.9999935,9.9999945 0 0 1 0.41406,-0.31641 z m 12.26172,0.31641 a 9.9999935,9.9999945 0 0 1 0.34375,0.30273 9.9999935,9.9999945 0 0 0 -0.34375,-0.30273 z m -13.01953,0.30273 a 9.9999935,9.9999945 0 0 0 -0.38477,0.35742 9.9999935,9.9999945 0 0 1 0.38477,-0.35742 z m 13.74805,0.35742 a 9.9999935,9.9999945 0 0 1 0.35742,0.38477 9.9999935,9.9999945 0 0 0 -0.35742,-0.38477 z m -14.49024,0.38477 a 9.9999935,9.9999945 0 0 0 -0.30273,0.34375 9.9999935,9.9999945 0 0 1 0.30273,-0.34375 z m 15.15039,0.34375 a 9.9999935,9.9999945 0 0 1 0.31641,0.41406 9.9999935,9.9999945 0 0 0 -0.31641,-0.41406 z m -15.76953,0.41406 a 9.9999935,9.9999945 0 0 0 -0.29492,0.41406 9.9999935,9.9999945 0 0 1 0.29492,-0.41406 z m 16.38086,0.41406 a 9.9999935,9.9999945 0 0 1 0.23633,0.38672 9.9999935,9.9999945 0 0 0 -0.23633,-0.38672 z m -16.91211,0.38672 a 9.9999935,9.9999945 0 0 0 -0.26758,0.46485 9.9999935,9.9999945 0 0 1 0.26758,-0.46485 z m 17.41602,0.46485 a 9.9999935,9.9999945 0 0 1 0.20703,0.42773 9.9999935,9.9999945 0 0 0 -0.20703,-0.42773 z m -17.89063,0.42773 a 9.9999935,9.9999945 0 0 0 -0.21484,0.48047 9.9999935,9.9999945 0 0 1 0.21484,-0.48047 z m 18.3125,0.48047 a 9.9999935,9.9999945 0 0 1 0.16797,0.45898 9.9999935,9.9999945 0 0 0 -0.16797,-0.45898 z m -18.69531,0.45898 a 9.9999935,9.9999945 0 0 0 -0.15625,0.47657 9.9999935,9.9999945 0 0 1 0.15625,-0.47657 z m 19.01953,0.47657 a 9.9999935,9.9999945 0 0 1 0.12109,0.46679 9.9999935,9.9999945 0 0 0 -0.12109,-0.46679 z m -19.30273,0.48828 a 9.9999935,9.9999945 0 0 0 -0.10547,0.47461 9.9999935,9.9999945 0 0 1 0.10547,-0.47461 z m 19.53906,0.49609 a 9.9999935,9.9999945 0 0 1 0.0703,0.47266 9.9999935,9.9999945 0 0 0 -0.0703,-0.47266 z m -19.72656,0.51563 a 9.9999935,9.9999945 0 0 0 -0.0547,0.45507 9.9999935,9.9999945 0 0 1 0.0547,-0.45507 z"
       id="path4658" />
    <rect
       style="display:inline;opacity:1;fill:#59d8de;fill-opacity:1;stroke:none;enable-background:new"
       id="rect4660"
       width="2.4999988"
       height="8.9999952"
       x="67"
       y="517"
       rx="0.49998125"
       ry="0.50000978" />
    <path
       style="display:inline;fill:url(#linearGradient4682);fill-opacity:1;fill-rule:evenodd;stroke:none;stroke-width:1px;stroke-linecap:butt;stroke-linejoin:miter;stroke-opacity:1;enable-background:new"
       d="m 72.49999,518.49991 1.5,-1.5 v 4 l -1.5,-2.5"
       id="path4662"
       inkscape:connector-curvature="0" />
    <path
       inkscape:connector-curvature="0"
       style="display:inline;opacity:1;fill:#1e9eae;fill-opacity:1;stroke:none;enable-background:new"
       d="m 69,516.99991 v 9 h 0.5 a 4.4999978,4.4999978 0 0 0 4.5,-4.5 4.4999978,4.4999978 0 0 0 -4.5,-4.5 z"
       id="path4664" />
    <path
       inkscape:connector-curvature="0"
       id="path4668"
       d="m 55.5,518.49991 -1.5,-1.5 v 4 l 1.5,-2.5"
       style="display:inline;fill:url(#linearGradient4684);fill-opacity:1;fill-rule:evenodd;stroke:none;stroke-width:1px;stroke-linecap:butt;stroke-linejoin:miter;stroke-opacity:1;enable-background:new" />
    <path
       inkscape:connector-curvature="0"
       style="display:inline;opacity:1;fill:#1e9eae;fill-opacity:1;stroke:none;enable-background:new"
       d="m 58.5,516.99991 a 4.4999978,4.4999978 0 0 0 -4.5,4.5 4.4999978,4.4999978 0 0 0 4.5,4.5 H 59 v -9 z"
       id="path4671" />
    <path
       inkscape:connector-curvature="0"
       id="path4786"
       d="M 111.99999,499.00003 A 13.999983,13.999983 0 0 0 98,513.00001 v 6.37246 1.32753 a 6.2999925,6.2999925 0 0 0 0.67812,2.82734 6.2999925,6.2999925 0 0 0 0.0232,0.0492 6.2999925,6.2999925 0 0 0 2.69883,2.71386 6.2999925,6.2999925 0 0 0 0.53047,0.24336 6.2999925,6.2999925 0 0 0 0.0465,0.0205 6.2999925,6.2999925 0 0 0 0.46074,0.15723 6.2999925,6.2999925 0 0 0 0.14492,0.0479 6.2999925,6.2999925 0 0 0 0.44707,0.1039 6.2999925,6.2999925 0 0 0 0.16406,0.0369 6.2999925,6.2999925 0 0 0 0.33633,0.0437 6.2999925,6.2999925 0 0 0 0.31309,0.0383 6.2999925,6.2999925 0 0 0 0.45664,0.0178 h 1.33848 0.76152 c 0.38778,0 0.7,-0.31219 0.7,-0.7 V 515.1 c 0,-0.3878 -0.31222,-0.7 -0.7,-0.7 h -2.1 A 6.2999925,6.2999925 0 0 0 100.1,516.01329 v -2.31328 -0.7 a 11.899986,11.899986 0 0 1 11.89999,-11.89998 11.899986,11.899986 0 0 1 11.89998,11.89998 v 0.7 2.31465 a 6.2999925,6.2999925 0 0 0 -4.2,-1.61465 h -2.09999 c -0.38779,0 -0.7,0.31219 -0.7,0.7 V 526.3 c 0,0.3878 0.31221,0.7 0.7,0.7 h 0.75878 1.34121 a 6.2999925,6.2999925 0 0 0 2.85332,-0.69043 6.2999925,6.2999925 0 0 0 0.0341,-0.0164 6.2999925,6.2999925 0 0 0 2.70566,-2.69746 6.2999925,6.2999925 0 0 0 0,-0.001 6.2999925,6.2999925 0 0 0 0.26113,-0.57149 6.2999925,6.2999925 0 0 0 0.1586,-0.46484 6.2999925,6.2999925 0 0 0 0.0479,-0.14492 6.2999925,6.2999925 0 0 0 0.0971,-0.41836 6.2999925,6.2999925 0 0 0 0.0437,-0.19551 6.2999925,6.2999925 0 0 0 0.0438,-0.34043 6.2999925,6.2999925 0 0 0 0.0369,-0.29941 6.2999925,6.2999925 0 0 0 0.0178,-0.45937 v -1.33163 -6.36836 A 13.999983,13.999983 0 0 0 112,499.00041 Z"
       style="display:inline;fill:#000000;fill-opacity:0.2;stroke:none;stroke-width:2;stroke-linecap:round;stroke-linejoin:round;stroke-miterlimit:4;stroke-dasharray:none;stroke-opacity:1;enable-background:new" />
    <path
       style="display:inline;opacity:1;fill:#ffffff;fill-opacity:0.2;stroke:none;stroke-width:1.66600001;stroke-linecap:round;stroke-linejoin:round;stroke-miterlimit:4;stroke-dasharray:none;stroke-opacity:1;enable-background:new"
       d="M 111.99999,498.69999 A 13.999981,13.999983 0 0 0 98,512.69997 h 0.0247 A 13.999981,13.999983 0 0 1 112,499.39999 a 13.999981,13.999983 0 0 1 13.96443,13.29998 h 0.0356 A 13.999981,13.999983 0 0 0 112,498.69999 Z"
       id="path4698"
       inkscape:connector-curvature="0" />
    <rect
       style="display:inline;opacity:1;fill:#59d8de;fill-opacity:1;stroke:none;enable-background:new"
       id="rect4700"
       width="3.4999959"
       height="12.599985"
       x="103.5"
       y="513.40002"
       rx="0.69997329"
       ry="0.70001322" />
    <path
       style="display:inline;opacity:1;fill:#1e9eae;fill-opacity:1;stroke:none;enable-background:new"
       d="M 111.99999,497.99999 A 13.999983,13.999983 0 0 0 98,511.99997 v 7.69999 h 2.1 v -6.99999 -0.7 a 11.899986,11.899986 0 0 1 11.89999,-11.89998 11.899986,11.899986 0 0 1 11.89998,11.89998 v 0.7 6.99999 h 2.1 v -7.69999 a 13.999983,13.999983 0 0 0 -13.99998,-13.99998 z"
       id="path4703"
       inkscape:connector-curvature="0" />
    <path
       inkscape:connector-curvature="0"
       style="display:inline;opacity:1;fill:#ffffff;fill-opacity:0.2;stroke:none;stroke-width:1.66600001;stroke-linecap:round;stroke-linejoin:round;stroke-miterlimit:4;stroke-dasharray:none;stroke-opacity:1;enable-background:new"
       d="m 112,497.99991 a 13.999981,13.999983 0 0 0 -14,14 v 0.5 0.5 a 13.999989,13.999983 0 0 1 14,-14 13.999989,13.999983 0 0 1 13.95703,13.14648 13.999981,13.999983 0 0 1 0.0195,0.375 13.999989,13.999983 0 0 1 0.0235,0.47852 v -0.5 -0.5 a 13.999981,13.999983 0 0 0 -14,-14 z m 0,0.5 a 13.999981,13.999983 0 0 0 -1.19727,0.0606 13.999989,13.999983 0 0 1 1.19727,-0.0606 z m 1.2207,0.0625 a 13.999989,13.999983 0 0 1 0.56641,0.0684 13.999981,13.999983 0 0 0 -0.56641,-0.0684 z m -3.08984,0.0781 a 13.999981,13.999983 0 0 0 -0.71875,0.10938 13.999989,13.999983 0 0 1 0.71875,-0.10938 z m 4.50781,0.1211 a 13.999989,13.999983 0 0 1 0.46485,0.10351 13.999981,13.999983 0 0 0 -0.46485,-0.10351 z m -5.88672,0.13672 a 13.999981,13.999983 0 0 0 -0.6914,0.17578 13.999989,13.999983 0 0 1 0.6914,-0.17578 z m 7.26172,0.20117 a 13.999989,13.999983 0 0 1 0.40625,0.13477 13.999981,13.999983 0 0 0 -0.40625,-0.13477 z m -8.60937,0.19336 a 13.999981,13.999983 0 0 0 -0.66797,0.24414 13.999989,13.999983 0 0 1 0.66797,-0.24414 z m 9.92968,0.27539 a 13.999989,13.999983 0 0 1 0.36914,0.16602 13.999981,13.999983 0 0 0 -0.36914,-0.16602 z m -11.24804,0.25976 a 13.999981,13.999983 0 0 0 -0.59571,0.28711 13.999989,13.999983 0 0 1 0.59571,-0.28711 z m 12.54883,0.35743 a 13.999989,13.999983 0 0 1 0.23046,0.13281 13.999981,13.999983 0 0 0 -0.23046,-0.13281 z m -13.78321,0.29492 a 13.999981,13.999983 0 0 0 -0.59179,0.36328 13.999989,13.999983 0 0 1 0.59179,-0.36328 z m 14.99805,0.44141 a 13.999989,13.999983 0 0 1 0.16797,0.12109 13.999981,13.999983 0 0 0 -0.16797,-0.12109 z m -16.12305,0.30273 a 13.999981,13.999983 0 0 0 -0.59179,0.45117 13.999989,13.999983 0 0 1 0.59179,-0.45117 z m 17.24414,0.54492 a 13.999989,13.999983 0 0 1 0.13868,0.12109 13.999981,13.999983 0 0 0 -0.13868,-0.12109 z m -18.34375,0.35156 a 13.999981,13.999983 0 0 0 -0.51953,0.48633 13.999989,13.999983 0 0 1 0.51953,-0.48633 z m 19.38672,0.61524 a 13.999989,13.999983 0 0 1 0.0742,0.0781 13.999981,13.999983 0 0 0 -0.0742,-0.0781 z m -20.39258,0.39062 a 13.999981,13.999983 0 0 0 -0.44531,0.50782 13.999989,13.999983 0 0 1 0.44531,-0.50782 z m 21.31641,0.65821 a 13.999989,13.999983 0 0 1 0.0703,0.0898 13.999981,13.999983 0 0 0 -0.0703,-0.0898 z m -22.21289,0.4414 a 13.999981,13.999983 0 0 0 -0.37891,0.53125 13.999989,13.999983 0 0 1 0.37891,-0.53125 z m -0.753907,1.14258 a 13.999981,13.999983 0 0 0 -0.351562,0.61328 13.999989,13.999983 0 0 1 0.351562,-0.61328 z m -0.646484,1.22656 a 13.999981,13.999983 0 0 0 -0.28711,0.64063 13.999989,13.999983 0 0 1 0.28711,-0.64063 z m -0.53125,1.3086 a 13.999981,13.999983 0 0 0 -0.21875,0.65625 13.999989,13.999983 0 0 1 0.21875,-0.65625 z m -0.394531,1.34765 A 13.999981,13.999983 0 0 0 98.25,509.912 a 13.999989,13.999983 0 0 1 0.148438,-0.66016 z m -0.257813,1.37891 a 13.999981,13.999983 0 0 0 -0.08008,0.67187 13.999989,13.999983 0 0 1 0.08008,-0.67187 z"
       id="path4705" />
    <rect
       ry="0.70001322"
       rx="0.69997329"
       y="513.40002"
       x="116.99998"
       height="12.599985"
       width="3.4999959"
       id="rect4707"
       style="display:inline;opacity:1;fill:#59d8de;fill-opacity:1;stroke:none;enable-background:new" />
    <path
       inkscape:connector-curvature="0"
       id="path4709"
       d="m 123.89997,515.49997 2.1,-2.1 v 5.6 l -2.1,-3.5"
       style="display:inline;fill:url(#linearGradient4727);fill-opacity:1;fill-rule:evenodd;stroke:none;stroke-width:1px;stroke-linecap:butt;stroke-linejoin:miter;stroke-opacity:1;enable-background:new" />
    <path
       style="display:inline;opacity:1;fill:#1e9eae;fill-opacity:1;stroke:none;enable-background:new"
       d="m 119.69997,513.39997 v 12.59999 a 6.2999925,6.2999925 0 0 0 6.3,-6.3 6.2999925,6.2999925 0 0 0 -6.3,-6.29999 z"
       id="path4711"
       inkscape:connector-curvature="0" />
    <path
       style="display:inline;fill:url(#linearGradient4729);fill-opacity:1;fill-rule:evenodd;stroke:none;stroke-width:1px;stroke-linecap:butt;stroke-linejoin:miter;stroke-opacity:1;enable-background:new"
       d="m 100.1,515.49997 -2.1,-2.1 v 5.6 l 2.1,-3.5"
       id="path4713"
       inkscape:connector-curvature="0" />
    <path
       style="display:inline;opacity:1;fill:#1e9eae;fill-opacity:1;stroke:none;enable-background:new"
       d="M 104.29999,513.39997 A 6.2999925,6.2999925 0 0 0 98,519.69996 a 6.2999925,6.2999925 0 0 0 6.29999,6.3 z"
       id="path4715"
       inkscape:connector-curvature="0" />
    <rect
       style="display:inline;opacity:1;fill:#59d8de;fill-opacity:1;stroke:none;enable-background:new"
       id="rect4758"
       width="2.4999988"
       height="8.9999952"
       x="19.5"
       y="519"
       rx="0.49998125"
       ry="0.50000978" />
    <rect
       ry="0.50000978"
       rx="0.49998125"
       y="519"
       x="26"
       height="8.9999952"
       width="2.4999988"
       id="rect4760"
       style="display:inline;opacity:1;fill:#59d8de;fill-opacity:1;stroke:none;enable-background:new" />
    <path
       inkscape:connector-curvature="0"
       style="display:inline;opacity:1;fill:#1e9eae;fill-opacity:1;stroke:none;enable-background:new"
       d="m 28,519.03311 v 8.93555 a 4.4999978,4.4999978 0 0 0 4,-4.46875 4.4999978,4.4999978 0 0 0 -4,-4.4668 z"
       id="path4764" />
    <path
       inkscape:connector-curvature="0"
       style="display:inline;opacity:1;fill:#1e9eae;fill-opacity:1;stroke:none;enable-background:new"
       d="m 20,519.03116 a 4.4999978,4.4999978 0 0 0 -4,4.46875 4.4999978,4.4999978 0 0 0 4,4.4668 z"
       id="path4768" />
    <path
       inkscape:connector-curvature="0"
       style="display:inline;opacity:1;fill:#1e9eae;fill-opacity:1;stroke:none;stroke-width:3;stroke-linecap:round;stroke-linejoin:round;stroke-miterlimit:4;stroke-dasharray:none;stroke-opacity:1;enable-background:new"
       d="m 24,511.99991 a 8,8 0 0 0 -0.67578,0.0332 8,8 0 0 0 -0.42774,0.0527 8,8 0 0 0 -0.36718,0.0566 8,8 0 0 0 -0.375,0.082 8,8 0 0 0 -0.41992,0.10742 8,8 0 0 0 -0.3418,0.11524 8,8 0 0 0 -0.39649,0.14257 8,8 0 0 0 -0.39648,0.17969 8,8 0 0 0 -0.3125,0.15039 8,8 0 0 0 -0.38867,0.2207 8,8 0 0 0 -0.31055,0.19141 8,8 0 0 0 -0.33789,0.24024 8,8 0 0 0 -0.30859,0.23632 8,8 0 0 0 -0.3086,0.27149 8,8 0 0 0 -0.28711,0.26562 8,8 0 0 0 -0.26562,0.28711 8,8 0 0 0 -0.27149,0.3086 8,8 0 0 0 -0.23632,0.30859 8,8 0 0 0 -0.24024,0.33789 8,8 0 0 0 -0.1914,0.31055 8,8 0 0 0 -0.22071,0.38867 8,8 0 0 0 -0.15039,0.3125 8,8 0 0 0 -0.17969,0.39648 8,8 0 0 0 -0.14257,0.39649 8,8 0 0 0 -0.11524,0.3418 8,8 0 0 0 -0.10742,0.41992 8,8 0 0 0 -0.082,0.375 8,8 0 0 0 -0.0566,0.36718 8,8 0 0 0 -0.0527,0.42774 8,8 0 0 0 -0.0332,0.67589 v 3 h 2 v -3 a 6,6 0 0 1 0.0234,-0.49414 6,6 0 0 1 0.043,-0.35547 6,6 0 0 1 0.0371,-0.24219 6,6 0 0 1 0.0723,-0.32422 6,6 0 0 1 0.0684,-0.26562 6,6 0 0 1 0.0996,-0.29883 6,6 0 0 1 0.10352,-0.2793 6,6 0 0 1 0.11132,-0.2539 6,6 0 0 1 0.13672,-0.28321 6,6 0 0 1 0.15039,-0.26171 6,6 0 0 1 0.16016,-0.25977 6,6 0 0 1 0.17187,-0.24219 6,6 0 0 1 0.17579,-0.23047 6,6 0 0 1 0.20898,-0.23828 6,6 0 0 1 0.19727,-0.21093 6,6 0 0 1 0.21093,-0.19727 6,6 0 0 1 0.23828,-0.20898 6,6 0 0 1 0.23047,-0.17579 6,6 0 0 1 0.24219,-0.17187 6,6 0 0 1 0.25977,-0.16016 6,6 0 0 1 0.26172,-0.15039 6,6 0 0 1 0.2832,-0.13672 6,6 0 0 1 0.2539,-0.11132 6,6 0 0 1 0.2793,-0.10352 6,6 0 0 1 0.29883,-0.0996 6,6 0 0 1 0.26562,-0.0684 6,6 0 0 1 0.32422,-0.0723 6,6 0 0 1 0.24219,-0.0371 6,6 0 0 1 0.35547,-0.043 6,6 0 0 1 0.49413,-0.0233 6,6 0 0 1 0.49414,0.0234 6,6 0 0 1 0.35547,0.043 6,6 0 0 1 0.24219,0.0371 6,6 0 0 1 0.32422,0.0723 6,6 0 0 1 0.26562,0.0684 6,6 0 0 1 0.29883,0.0996 6,6 0 0 1 0.2793,0.10352 6,6 0 0 1 0.2539,0.11132 6,6 0 0 1 0.28321,0.13672 6,6 0 0 1 0.26171,0.15039 6,6 0 0 1 0.25977,0.16016 6,6 0 0 1 0.24219,0.17187 6,6 0 0 1 0.23047,0.17579 6,6 0 0 1 0.23828,0.20898 6,6 0 0 1 0.21093,0.19727 6,6 0 0 1 0.19727,0.21093 6,6 0 0 1 0.20898,0.23828 6,6 0 0 1 0.17579,0.23047 6,6 0 0 1 0.17187,0.24219 6,6 0 0 1 0.16016,0.25977 6,6 0 0 1 0.15039,0.26171 6,6 0 0 1 0.13672,0.28321 6,6 0 0 1 0.11132,0.2539 6,6 0 0 1 0.10352,0.2793 6,6 0 0 1 0.0996,0.29883 6,6 0 0 1 0.0684,0.26562 6,6 0 0 1 0.0723,0.32422 6,6 0 0 1 0.0371,0.24219 6,6 0 0 1 0.043,0.35547 6,6 0 0 1 0.0234,0.49409 v 3 h 2 v -3 a 8,8 0 0 0 -0.0332,-0.67578 8,8 0 0 0 -0.0527,-0.42774 8,8 0 0 0 -0.0566,-0.36718 8,8 0 0 0 -0.082,-0.375 8,8 0 0 0 -0.10742,-0.41992 8,8 0 0 0 -0.11524,-0.3418 8,8 0 0 0 -0.14257,-0.39649 8,8 0 0 0 -0.17969,-0.39648 8,8 0 0 0 -0.15039,-0.3125 8,8 0 0 0 -0.22071,-0.38867 8,8 0 0 0 -0.1914,-0.31055 8,8 0 0 0 -0.24024,-0.33789 8,8 0 0 0 -0.23632,-0.30859 8,8 0 0 0 -0.27149,-0.3086 8,8 0 0 0 -0.26562,-0.28711 8,8 0 0 0 -0.28711,-0.26562 8,8 0 0 0 -0.3086,-0.27149 8,8 0 0 0 -0.30859,-0.23632 8,8 0 0 0 -0.33789,-0.24024 8,8 0 0 0 -0.31055,-0.19141 8,8 0 0 0 -0.38867,-0.2207 8,8 0 0 0 -0.3125,-0.15039 8,8 0 0 0 -0.39648,-0.17969 8,8 0 0 0 -0.39649,-0.14257 8,8 0 0 0 -0.3418,-0.11524 8,8 0 0 0 -0.41992,-0.10742 8,8 0 0 0 -0.375,-0.082 8,8 0 0 0 -0.36718,-0.0566 8,8 0 0 0 -0.42774,-0.0527 8,8 0 0 0 -0.67579,-0.0333 z"
       id="path4778" />
    <path
       inkscape:connector-curvature="0"
       id="path4680"
       d="M 63.99999,505.99992 A 9.999995,9.999995 0 0 0 54,515.99991 v 4.55176 0.94824 a 4.4999978,4.4999978 0 0 0 0.48438,2.01953 4.4999978,4.4999978 0 0 0 0.0166,0.0352 4.4999978,4.4999978 0 0 0 1.92774,1.93848 4.4999978,4.4999978 0 0 0 0.3789,0.17382 4.4999978,4.4999978 0 0 0 0.0332,0.0146 4.4999978,4.4999978 0 0 0 0.3291,0.11231 4.4999978,4.4999978 0 0 0 0.10352,0.0342 4.4999978,4.4999978 0 0 0 0.31934,0.0742 4.4999978,4.4999978 0 0 0 0.11718,0.0264 4.4999978,4.4999978 0 0 0 0.24024,0.0312 4.4999978,4.4999978 0 0 0 0.22363,0.0273 4.4999978,4.4999978 0 0 0 0.32618,0.0127 H 59.45606 60 c 0.27699,0 0.5,-0.22299 0.5,-0.5 v -8 c 0,-0.277 -0.22301,-0.5 -0.5,-0.5 h -1.5 a 4.4999978,4.4999978 0 0 0 -3,1.15235 v -1.65235 -0.5 a 8.4999958,8.4999958 0 0 1 8.49999,-8.49993 8.4999958,8.4999958 0 0 1 8.5,8.49999 v 0.5 1.65332 a 4.4999978,4.4999978 0 0 0 -3,-1.15332 h -1.5 c -0.27699,0 -0.5,0.223 -0.5,0.5 v 8 c 0,0.27701 0.22301,0.5 0.5,0.5 h 0.54199 0.95801 a 4.4999978,4.4999978 0 0 0 2.03809,-0.49316 4.4999978,4.4999978 0 0 0 0.0244,-0.0117 4.4999978,4.4999978 0 0 0 1.93261,-1.92676 4.4999978,4.4999978 0 0 0 0,-0.001 4.4999978,4.4999978 0 0 0 0.18652,-0.4082 4.4999978,4.4999978 0 0 0 0.11328,-0.33203 4.4999978,4.4999978 0 0 0 0.0342,-0.10352 4.4999978,4.4999978 0 0 0 0.0693,-0.29883 4.4999978,4.4999978 0 0 0 0.0312,-0.13965 4.4999978,4.4999978 0 0 0 0.0312,-0.24316 4.4999978,4.4999978 0 0 0 0.0263,-0.21387 4.4999978,4.4999978 0 0 0 0.0127,-0.32812 v -0.95117 -4.54883 a 9.999995,9.999995 0 0 0 -9.99999,-9.99999 z"
       style="display:inline;fill:url(#linearGradient4686);fill-opacity:1;stroke:none;stroke-width:2;stroke-linecap:round;stroke-linejoin:round;stroke-miterlimit:4;stroke-dasharray:none;stroke-opacity:1;enable-background:new" />
    <path
       style="display:inline;opacity:1;fill:#ffffff;fill-opacity:0.2;stroke:none;stroke-width:1.66600001;stroke-linecap:round;stroke-linejoin:round;stroke-miterlimit:4;stroke-dasharray:none;stroke-opacity:1;enable-background:new"
       d="m 239.99959,469.15006 a 27.999983,27.999985 0 0 0 -28,27.99999 h 0.049 a 27.999983,27.999985 0 0 1 27.951,-26.59999 27.999983,27.999985 0 0 1 27.9289,26.59999 h 0.0711 a 27.999983,27.999985 0 0 0 -28,-27.99999 z"
       id="path4622"
       inkscape:connector-curvature="0" />
    <path
       inkscape:connector-curvature="0"
       id="path4737"
       d="m 213.40039,499.55078 c -0.77557,0 -1.40039,0.62282 -1.40039,1.39844 v 22.40039 c 0,0.77561 0.62482,1.40039 1.40039,1.40039 h 4 0.19922 c 0.0722,0 0.14176,-0.009 0.21094,-0.0195 A 12.599994,12.599994 0 0 0 230,512.15039 12.599994,12.599994 0 0 0 217.71289,499.5625 c -0.038,-0.003 -0.0745,-0.0117 -0.11328,-0.0117 h -0.19922 z"
       style="display:inline;opacity:1;fill:#000000;fill-opacity:0.2;stroke:none;stroke-width:1;filter:url(#filter4733);enable-background:new"
       transform="matrix(-1,0,0,1,442,0)" />
    <rect
       style="display:inline;opacity:1;fill:#59d8de;fill-opacity:1;stroke:none;stroke-width:1;enable-background:new"
       id="rect4624"
       width="6.9999967"
       height="25.199987"
       x="222.99948"
       y="498.55005"
       rx="1.3999475"
       ry="1.4000274" />
    <path
       inkscape:connector-curvature="0"
       id="path4718"
       d="m 239.99959,468.75001 a 27.999986,27.999986 0 0 0 -28,27.99999 v 15.4 h 4.2 v -14 -1.4 a 23.799987,23.799987 0 0 1 23.8,-23.79999 23.799987,23.799987 0 0 1 23.8,23.79999 v 1.4 14 h 4.2 v -15.4 a 27.999986,27.999986 0 0 0 -28,-27.99999 z"
       style="display:inline;opacity:1;fill:#000000;fill-opacity:0.2;stroke:none;stroke-width:1;filter:url(#filter4724);enable-background:new" />
    <path
       style="display:inline;opacity:1;fill:#1e9eae;fill-opacity:1;stroke:none;stroke-width:1;enable-background:new"
       d="m 239.99959,467.75006 a 27.999986,27.999986 0 0 0 -28,27.99999 v 15.4 h 4.2 v -14 -1.4 a 23.799987,23.799987 0 0 1 23.8,-23.79999 23.799987,23.799987 0 0 1 23.8,23.79999 v 1.4 14 h 4.2 v -15.4 a 27.999986,27.999986 0 0 0 -28,-27.99999 z"
       id="path4626"
       inkscape:connector-curvature="0" />
    <path
       style="display:inline;opacity:1;fill:#000000;fill-opacity:0.2;stroke:none;stroke-width:1;filter:url(#filter4733);enable-background:new"
       d="m 251.40039,499.55078 c -0.77557,0 -1.40039,0.62282 -1.40039,1.39844 v 22.40039 c 0,0.77561 0.62482,1.40039 1.40039,1.40039 h 4 0.19922 c 0.0722,0 0.14176,-0.009 0.21094,-0.0195 A 12.599994,12.599994 0 0 0 268,512.15039 12.599994,12.599994 0 0 0 255.71289,499.5625 c -0.038,-0.003 -0.0745,-0.0117 -0.11328,-0.0117 h -0.19922 z"
       id="rect4728"
       inkscape:connector-curvature="0" />
    <rect
       ry="1.4000274"
       rx="1.3999475"
       y="498.55005"
       x="250"
       height="25.199987"
       width="6.9999967"
       id="rect4630"
       style="display:inline;opacity:1;fill:#59d8de;fill-opacity:1;stroke:none;stroke-width:1;enable-background:new" />
    <path
       inkscape:connector-curvature="0"
       id="path4632"
       d="m 263.79959,502.75005 4.2,-4.2 v 11.2 l -4.2,-7"
       style="display:inline;fill:url(#linearGradient4651);fill-opacity:1;fill-rule:evenodd;stroke:none;stroke-width:1px;stroke-linecap:butt;stroke-linejoin:miter;stroke-opacity:1;enable-background:new" />
    <path
       style="display:inline;opacity:1;fill:#1e9eae;fill-opacity:1;stroke:none;stroke-width:1;enable-background:new"
       d="m 255.39959,498.55005 v 25.19999 a 12.599994,12.599994 0 0 0 12.6,-12.59999 12.599994,12.599994 0 0 0 -12.6,-12.6 z"
       id="path4634"
       inkscape:connector-curvature="0" />
    <path
       style="display:inline;fill:url(#linearGradient4653);fill-opacity:1;fill-rule:evenodd;stroke:none;stroke-width:1px;stroke-linecap:butt;stroke-linejoin:miter;stroke-opacity:1;enable-background:new"
       d="m 216.19959,502.75005 -4.2,-4.2 v 11.2 l 4.2,-7"
       id="path4636"
       inkscape:connector-curvature="0" />
    <path
       style="display:inline;opacity:1;fill:#1e9eae;fill-opacity:1;stroke:none;stroke-width:1;enable-background:new"
       d="m 224.59959,498.55005 a 12.599994,12.599994 0 0 0 -12.6,12.6 12.599994,12.599994 0 0 0 12.6,12.59999 z"
       id="path4638"
       inkscape:connector-curvature="0" />
    <path
       style="display:inline;opacity:1;fill:#ffffff;fill-opacity:0.2;stroke:none;stroke-width:1;enable-background:new"
       d="m 224.40039,498.55078 c -0.0388,0 -0.0753,0.009 -0.11328,0.0117 A 12.599994,12.599994 0 0 0 212,511.15039 a 12.599994,12.599994 0 0 0 0.0215,0.59375 12.599994,12.599994 0 0 1 12.26563,-12.18164 c 0.038,-0.003 0.0745,-0.0117 0.11328,-0.0117 h 0.19922 4 c 0.77557,0 1.40039,0.62282 1.40039,1.39844 v -1 c 0,-0.77562 -0.62482,-1.39844 -1.40039,-1.39844 h -4 z"
       id="path4739"
       inkscape:connector-curvature="0" />
    <path
       inkscape:connector-curvature="0"
       id="path4745"
       d="m 255.59963,498.55078 c 0.0388,0 0.0753,0.009 0.11328,0.0117 a 12.599994,12.599994 0 0 1 12.28711,12.58791 12.599994,12.599994 0 0 1 -0.0215,0.59375 12.599994,12.599994 0 0 0 -12.26563,-12.18164 c -0.038,-0.003 -0.0745,-0.0117 -0.11328,-0.0117 h -0.19922 -4 c -0.77557,0 -1.40039,0.62282 -1.40039,1.39844 v -1 c 0,-0.77562 0.62482,-1.39844 1.40039,-1.39844 h 4 z"
       style="display:inline;opacity:1;fill:#ffffff;fill-opacity:0.2;stroke:none;stroke-width:1;enable-background:new" />
    <path
       style="display:inline;fill:url(#linearGradient4655);fill-opacity:1;stroke:none;stroke-width:2;stroke-linecap:round;stroke-linejoin:round;stroke-miterlimit:4;stroke-dasharray:none;stroke-opacity:1;enable-background:new"
       d="m 239.99959,467.75006 a 27.999986,27.999986 0 0 0 -28,27.99999 v 12.7449 2.6551 a 12.599994,12.599994 0 0 0 1.3563,5.6547 12.599994,12.599994 0 0 0 0.047,0.098 12.599994,12.599994 0 0 0 5.3976,5.4277 12.599994,12.599994 0 0 0 1.0609,0.48669 12.599994,12.599994 0 0 0 0.093,0.041 12.599994,12.599994 0 0 0 0.9215,0.3145 12.599994,12.599994 0 0 0 0.2899,0.096 12.599994,12.599994 0 0 0 0.8941,0.2078 12.599994,12.599994 0 0 0 0.3281,0.074 12.599994,12.599994 0 0 0 0.6727,0.088 12.599994,12.599994 0 0 0 0.6262,0.077 12.599994,12.599994 0 0 0 0.9133,0.036 h 2.6769 1.5231 c 0.7755,0 1.4,-0.6244 1.4,-1.39999 v -22.4 c 0,-0.7756 -0.6245,-1.4 -1.4,-1.4 h -4.2 a 12.599994,12.599994 0 0 0 -8.4001,3.2265 v -4.6266 -1.4 a 23.799987,23.799987 0 0 1 23.8,-23.79999 23.799987,23.799987 0 0 1 23.8,23.79999 v 1.4 4.6293 a 12.599994,12.599994 0 0 0 -8.4,-3.2293 h -4.2 c -0.7756,0 -1.4,0.6244 -1.4,1.4 v 22.4 c 0,0.77559 0.6244,1.39999 1.4,1.39999 h 1.5176 2.6824 a 12.599994,12.599994 0 0 0 5.7066,-1.38089 12.599994,12.599994 0 0 0 0.068,-0.033 12.599994,12.599994 0 0 0 5.4113,-5.3949 12.599994,12.599994 0 0 0 0.5223,-1.143 12.599994,12.599994 0 0 0 0.3172,-0.9297 12.599994,12.599994 0 0 0 0.096,-0.2898 12.599994,12.599994 0 0 0 0.1941,-0.8367 12.599994,12.599994 0 0 0 0.088,-0.391 12.599994,12.599994 0 0 0 0.087,-0.6809 12.599994,12.599994 0 0 0 0.074,-0.5988 12.599994,12.599994 0 0 0 0.036,-0.9188 v -2.6632 -12.7368 a 27.999986,27.999986 0 0 0 -27.9999,-27.99993 z"
       id="path4649"
       inkscape:connector-curvature="0" />
    <path
       style="display:inline;opacity:1;fill:#ffffff;fill-opacity:0.2;stroke:none;stroke-width:1;enable-background:new"
       d="m 240,467.75 a 27.999986,27.999986 0 0 0 -28,28 v 1 a 27.999986,27.999986 0 0 1 28,-28 27.999986,27.999986 0 0 1 28,28 v -1 a 27.999986,27.999986 0 0 0 -28,-28 z"
       id="path4747"
       inkscape:connector-curvature="0" />
    <path
       style="display:inline;opacity:1;fill:#ffffff;fill-opacity:0.2;stroke:none;enable-background:new"
       d="m 157,506 a 9,9 0 0 0 -9,9 9,9 0 0 0 0.0215,0.42383 A 9,9 0 0 1 157,507 h 3 c 0.55398,0 1,0.44599 1,1 v -1 c 0,-0.55401 -0.44602,-1 -1,-1 z"
       id="rect4759"
       inkscape:connector-curvature="0" />
    <path
       id="path4769"
       d="m 179,506.00017 a 9,9 0 0 1 9,9 9,9 0 0 1 -0.0215,0.42383 A 9,9 0 0 0 179,507.00017 h -3 c -0.55398,0 -1,0.44599 -1,1 v -1 c 0,-0.55401 0.44602,-1 1,-1 z"
       style="display:inline;opacity:1;fill:#ffffff;fill-opacity:0.2;stroke:none;enable-background:new"
       inkscape:connector-curvature="0" />
    <path
       style="display:inline;fill:url(#linearGradient4726);fill-opacity:1;stroke:none;stroke-width:2;stroke-linecap:round;stroke-linejoin:round;stroke-miterlimit:4;stroke-dasharray:none;stroke-opacity:1;enable-background:new"
       d="m 168,483.99991 a 20,20 0 0 0 -20,20 v 9.10352 1.89648 a 9,9 0 0 0 0.96875,4.03906 9,9 0 0 0 0.0332,0.0703 9,9 0 0 0 3.85547,3.87695 9,9 0 0 0 0.75781,0.34765 9,9 0 0 0 0.0664,0.0293 9,9 0 0 0 0.6582,0.22461 9,9 0 0 0 0.20704,0.0684 9,9 0 0 0 0.63867,0.14844 9,9 0 0 0 0.23437,0.0527 9,9 0 0 0 0.48047,0.0625 9,9 0 0 0 0.44727,0.0547 9,9 0 0 0 0.65235,0.0254 H 158.91211 160 c 0.55398,0 1,-0.44599 1,-1 v -16 c 0,-0.55401 -0.44602,-1 -1,-1 h -3 a 9,9 0 0 0 -6,2.30469 v -3.30469 -1 a 17,17 0 0 1 17,-17 17,17 0 0 1 17,17 v 1 3.30664 a 9,9 0 0 0 -6,-2.30664 h -3 c -0.55398,0 -1,0.44599 -1,1 v 16 c 0,0.55401 0.44602,1 1,1 H 177.08398 179 a 9,9 0 0 0 4.07617,-0.98633 9,9 0 0 0 0.0488,-0.0234 9,9 0 0 0 3.86523,-3.85351 9,9 0 0 0 0,-0.002 9,9 0 0 0 0.37305,-0.81641 9,9 0 0 0 0.22656,-0.66406 9,9 0 0 0 0.0684,-0.20703 9,9 0 0 0 0.13868,-0.59766 9,9 0 0 0 0.0625,-0.2793 9,9 0 0 0 0.0625,-0.48633 9,9 0 0 0 0.0527,-0.42773 9,9 0 0 0 0.0254,-0.65624 v -1.90234 -9.09766 a 20,20 0 0 0 -20,-20 z"
       id="path4724"
       inkscape:connector-curvature="0" />
    <path
       style="display:inline;opacity:1;fill:#ffffff;fill-opacity:0.2;stroke:none;enable-background:new"
       d="m 117.69922,513.40039 c -0.38779,0 -0.69922,0.31141 -0.69922,0.69922 v 1 c 0,-0.38781 0.31143,-0.69922 0.69922,-0.69922 h 2 0.10156 c 0.008,0 0.0135,0.004 0.0215,0.004 a 6.2999925,6.2999925 0 0 1 6.15234,5.78125 6.2999925,6.2999925 0 0 0 0.0254,-0.48633 6.2999925,6.2999925 0 0 0 -6.17773,-6.29492 c -0.008,-2.4e-4 -0.0139,-0.004 -0.0215,-0.004 h -0.10156 z"
       id="rect4771"
       inkscape:connector-curvature="0" />
    <path
       id="path4784"
       d="m 106.3008,513.40039 c 0.38779,0 0.69922,0.31141 0.69922,0.69922 v 1 c 0,-0.38781 -0.31143,-0.69922 -0.69922,-0.69922 h -2 -0.10156 c -0.008,0 -0.0135,0.004 -0.0215,0.004 A 6.2999925,6.2999925 0 0 0 98.0254,520.18564 6.2999925,6.2999925 0 0 1 98,519.69931 a 6.2999925,6.2999925 0 0 1 6.17773,-6.29492 c 0.008,-2.4e-4 0.0139,-0.004 0.0215,-0.004 h 0.10156 z"
       style="display:inline;opacity:1;fill:#ffffff;fill-opacity:0.2;stroke:none;enable-background:new"
       inkscape:connector-curvature="0" />
    <path
       style="display:inline;fill:url(#linearGradient4731);fill-opacity:1;stroke:none;stroke-width:2;stroke-linecap:round;stroke-linejoin:round;stroke-miterlimit:4;stroke-dasharray:none;stroke-opacity:1;enable-background:new"
       d="M 111.99999,497.99999 A 13.999983,13.999983 0 0 0 98,511.99997 v 6.37246 1.32753 a 6.2999925,6.2999925 0 0 0 0.67812,2.82734 6.2999925,6.2999925 0 0 0 0.0232,0.0492 6.2999925,6.2999925 0 0 0 2.69883,2.71386 6.2999925,6.2999925 0 0 0 0.53047,0.24336 6.2999925,6.2999925 0 0 0 0.0465,0.0205 6.2999925,6.2999925 0 0 0 0.46074,0.15723 6.2999925,6.2999925 0 0 0 0.14492,0.0479 6.2999925,6.2999925 0 0 0 0.44707,0.1039 6.2999925,6.2999925 0 0 0 0.16406,0.0369 6.2999925,6.2999925 0 0 0 0.33633,0.0437 6.2999925,6.2999925 0 0 0 0.31309,0.0383 6.2999925,6.2999925 0 0 0 0.45664,0.0178 h 1.33848 0.76152 c 0.38778,0 0.7,-0.31219 0.7,-0.7 v -11.19999 c 0,-0.3878 -0.31222,-0.7 -0.7,-0.7 h -2.1 A 6.2999925,6.2999925 0 0 0 100.1,515.01325 v -2.31328 -0.7 a 11.899986,11.899986 0 0 1 11.89999,-11.89998 11.899986,11.899986 0 0 1 11.89998,11.89998 v 0.7 2.31465 a 6.2999925,6.2999925 0 0 0 -4.2,-1.61465 h -2.09999 c -0.38779,0 -0.7,0.31219 -0.7,0.7 v 11.19999 c 0,0.3878 0.31221,0.7 0.7,0.7 h 0.75878 1.34121 a 6.2999925,6.2999925 0 0 0 2.85332,-0.69043 6.2999925,6.2999925 0 0 0 0.0341,-0.0164 6.2999925,6.2999925 0 0 0 2.70566,-2.69746 6.2999925,6.2999925 0 0 0 0,-0.001 6.2999925,6.2999925 0 0 0 0.26113,-0.57149 6.2999925,6.2999925 0 0 0 0.1586,-0.46484 6.2999925,6.2999925 0 0 0 0.0479,-0.14492 6.2999925,6.2999925 0 0 0 0.0971,-0.41836 6.2999925,6.2999925 0 0 0 0.0437,-0.19551 6.2999925,6.2999925 0 0 0 0.0438,-0.34043 6.2999925,6.2999925 0 0 0 0.0369,-0.29941 6.2999925,6.2999925 0 0 0 0.0178,-0.45937 v -1.33163 -6.36836 A 13.999983,13.999983 0 0 0 112,498.00037 Z"
       id="path4725"
       inkscape:connector-curvature="0" />
    <path
       style="display:inline;opacity:1;fill:#ffffff;fill-opacity:0.2;stroke:none;enable-background:new"
       d="m 67.5,517 c -0.27699,0 -0.5,0.22299 -0.5,0.5 v 1 c 0,-0.27701 0.22301,-0.5 0.5,-0.5 h 1.5 0.5 a 4.4999978,4.4999978 0 0 1 4.466797,3.98828 A 4.4999978,4.4999978 0 0 0 74,521.5 4.4999978,4.4999978 0 0 0 69.5,517 H 69 Z"
       id="rect4788"
       inkscape:connector-curvature="0" />
    <path
       id="path4798"
       d="m 60.5,517 c 0.27699,0 0.5,0.22299 0.5,0.5 v 1 C 61,518.22299 60.77699,518 60.5,518 H 59 58.5 A 4.4999978,4.4999978 0 0 0 54.033203,521.98828 4.4999978,4.4999978 0 0 1 54,521.5 4.4999978,4.4999978 0 0 1 58.5,517 H 59 Z"
       style="display:inline;opacity:1;fill:#ffffff;fill-opacity:0.2;stroke:none;enable-background:new"
       inkscape:connector-curvature="0" />
  </g>
</svg>
