<?xml version="1.0" encoding="UTF-8" standalone="no"?>
<!-- Created with Inkscape (http://www.inkscape.org/) -->

<svg
   xmlns:dc="http://purl.org/dc/elements/1.1/"
   xmlns:cc="http://creativecommons.org/ns#"
   xmlns:rdf="http://www.w3.org/1999/02/22-rdf-syntax-ns#"
   xmlns:svg="http://www.w3.org/2000/svg"
   xmlns="http://www.w3.org/2000/svg"
   xmlns:xlink="http://www.w3.org/1999/xlink"
   xmlns:sodipodi="http://sodipodi.sourceforge.net/DTD/sodipodi-0.dtd"
   xmlns:inkscape="http://www.inkscape.org/namespaces/inkscape"
   width="842"
   height="544"
   viewBox="0 0 842 544"
   version="1.1"
   id="svg1087"
   inkscape:version="0.92.1 r"
   sodipodi:docname="simplescreenrecorder.svg">
  <defs
     id="defs1081">
    <linearGradient
       inkscape:collect="always"
       id="linearGradient4753">
      <stop
         style="stop-color:#000000;stop-opacity:0.1"
         offset="0"
         id="stop4749" />
      <stop
         style="stop-color:#000000;stop-opacity:0"
         offset="1"
         id="stop4751" />
    </linearGradient>
    <linearGradient
       inkscape:collect="always"
       id="linearGradient4647">
      <stop
         style="stop-color:#000000;stop-opacity:0.1"
         offset="0"
         id="stop4643" />
      <stop
         style="stop-color:#000000;stop-opacity:0"
         offset="1"
         id="stop4645" />
    </linearGradient>
    <linearGradient
       id="linearGradient5643"
       inkscape:collect="always">
      <stop
         id="stop5639"
         offset="0"
         style="stop-color:#ffffff;stop-opacity:0.05490196" />
      <stop
         id="stop5641"
         offset="1"
         style="stop-color:#177ed5;stop-opacity:0;" />
    </linearGradient>
    <linearGradient
       id="linearGradient5637"
       inkscape:collect="always">
      <stop
         id="stop5633"
         offset="0"
         style="stop-color:#ffffff;stop-opacity:0.05490196" />
      <stop
         id="stop5635"
         offset="1"
         style="stop-color:#177ed5;stop-opacity:0;" />
    </linearGradient>
    <filter
       inkscape:collect="always"
       style="color-interpolation-filters:sRGB"
       id="filter5087"
       x="-0.048"
       width="1.096"
       y="-0.048"
       height="1.096">
      <feGaussianBlur
         inkscape:collect="always"
         stdDeviation="0.8"
         id="feGaussianBlur5089" />
    </filter>
    <linearGradient
       inkscape:collect="always"
       xlink:href="#linearGradient4165"
       id="linearGradient4512"
       gradientUnits="userSpaceOnUse"
       gradientTransform="matrix(0.46795346,0,0,0.46583796,79.03204,37.20952)"
       x1="7"
       y1="1011.3622"
       x2="41.000019"
       y2="1045.3622" />
    <linearGradient
       inkscape:collect="always"
       id="linearGradient4165">
      <stop
         style="stop-color:#ffffff;stop-opacity:0.05490196"
         offset="0"
         id="stop4167" />
      <stop
         style="stop-color:#177ed5;stop-opacity:0;"
         offset="1"
         id="stop4169" />
    </linearGradient>
    <linearGradient
       inkscape:collect="always"
       xlink:href="#linearGradient5637"
       id="linearGradient4171-1"
       x1="7"
       y1="1011.3622"
       x2="41.000019"
       y2="1045.3622"
       gradientUnits="userSpaceOnUse"
       gradientTransform="matrix(0.96086443,0,0,0.9565206,171.03914,-479.6494)" />
    <linearGradient
       inkscape:collect="always"
       xlink:href="#linearGradient5643"
       id="linearGradient4550"
       gradientUnits="userSpaceOnUse"
       gradientTransform="matrix(0.65513485,0,0,0.65217315,122.34486,-158.30676)"
       x1="7"
       y1="1011.3622"
       x2="41.000019"
       y2="1045.3622" />
    <linearGradient
       inkscape:collect="always"
       xlink:href="#linearGradient4165-3"
       id="linearGradient4502"
       gradientUnits="userSpaceOnUse"
       gradientTransform="matrix(10.482158,0,0,10.43477,319.51784,-10452.903)"
       x1="7"
       y1="1011.3622"
       x2="41.000019"
       y2="1045.3622" />
    <linearGradient
       inkscape:collect="always"
       id="linearGradient4165-3">
      <stop
         style="stop-color:#ffffff;stop-opacity:0.05490196"
         offset="0"
         id="stop4167-6" />
      <stop
         style="stop-color:#177ed5;stop-opacity:0;"
         offset="1"
         id="stop4169-7" />
    </linearGradient>
    <linearGradient
       inkscape:collect="always"
       xlink:href="#linearGradient4160"
       id="linearGradient4463"
       gradientUnits="userSpaceOnUse"
       gradientTransform="matrix(-0.27272726,0,0,0.40909094,30.545453,98.306334)"
       x1="5"
       y1="1008.3622"
       x2="46"
       y2="1050.3622" />
    <linearGradient
       inkscape:collect="always"
       id="linearGradient4160">
      <stop
         style="stop-color:#365994;stop-opacity:1"
         offset="0"
         id="stop4162" />
      <stop
         style="stop-color:#856c86;stop-opacity:1"
         offset="1"
         id="stop4164" />
    </linearGradient>
    <linearGradient
       inkscape:collect="always"
       xlink:href="#linearGradient4160"
       id="linearGradient4465"
       gradientUnits="userSpaceOnUse"
       gradientTransform="matrix(-0.31818181,0,0,0.47727277,97.636362,24.024051)"
       x1="5"
       y1="1008.3622"
       x2="46"
       y2="1050.3622" />
    <linearGradient
       inkscape:collect="always"
       xlink:href="#linearGradient4160"
       id="linearGradient4455"
       gradientUnits="userSpaceOnUse"
       gradientTransform="matrix(-0.54545453,0,0,0.54545459,151.09091,-50.258223)"
       x1="5"
       y1="1008.3622"
       x2="46"
       y2="1050.3622" />
    <linearGradient
       inkscape:collect="always"
       xlink:href="#linearGradient4160"
       id="linearGradient4157"
       gradientUnits="userSpaceOnUse"
       gradientTransform="matrix(-0.81818182,0,0,0.81818182,213.63636,-339.38725)"
       x1="5"
       y1="1008.3622"
       x2="46"
       y2="1050.3622" />
    <linearGradient
       inkscape:collect="always"
       xlink:href="#linearGradient4160"
       id="linearGradient4450"
       gradientUnits="userSpaceOnUse"
       gradientTransform="matrix(-9.0909088,0,0,9.272728,788.18175,-9286.3896)"
       x1="5"
       y1="1008.3622"
       x2="46"
       y2="1050.3622" />
    <linearGradient
       inkscape:collect="always"
       xlink:href="#linearGradient4160"
       id="linearGradient166"
       gradientUnits="userSpaceOnUse"
       gradientTransform="matrix(-1.1363636,0,0,1.159091,293.27272,-698.7987)"
       x1="5"
       y1="1008.3622"
       x2="46"
       y2="1050.3622" />
    <linearGradient
       inkscape:collect="always"
       xlink:href="#linearGradient4165-3"
       id="linearGradient168"
       gradientUnits="userSpaceOnUse"
       gradientTransform="matrix(1.3102697,0,0,1.3043462,234.7213,-844.613)"
       x1="7"
       y1="1011.3622"
       x2="41.000019"
       y2="1045.3622" />
    <filter
       inkscape:collect="always"
       style="color-interpolation-filters:sRGB"
       id="filter4731"
       x="-0.0104"
       width="1.0208"
       y="-0.014181818"
       height="1.0283636">
      <feGaussianBlur
         inkscape:collect="always"
         stdDeviation="0.26"
         id="feGaussianBlur4733" />
    </filter>
    <filter
       inkscape:collect="always"
       style="color-interpolation-filters:sRGB"
       id="filter4763"
       x="-0.0208"
       width="1.0416"
       y="-0.028363636"
       height="1.0567273">
      <feGaussianBlur
         inkscape:collect="always"
         stdDeviation="4.16"
         id="feGaussianBlur4765" />
    </filter>
    <filter
       inkscape:collect="always"
       style="color-interpolation-filters:sRGB"
       id="filter4807"
       x="-0.010363636"
       width="1.0207273"
       y="-0.01425"
       height="1.0285">
      <feGaussianBlur
         inkscape:collect="always"
         stdDeviation="0.19"
         id="feGaussianBlur4809" />
    </filter>
    <linearGradient
       inkscape:collect="always"
       xlink:href="#linearGradient4160"
       id="linearGradient4666"
       gradientUnits="userSpaceOnUse"
       gradientTransform="matrix(-0.31818181,0,0,0.47727277,62.636362,25.024051)"
       x1="5"
       y1="1008.3622"
       x2="46"
       y2="1050.3622" />
    <linearGradient
       inkscape:collect="always"
       xlink:href="#linearGradient4165"
       id="linearGradient4668"
       gradientUnits="userSpaceOnUse"
       gradientTransform="matrix(0.46795346,0,0,0.46583796,44.03204,38.20952)"
       x1="7"
       y1="1011.3622"
       x2="41.000019"
       y2="1045.3622" />
    <linearGradient
       inkscape:collect="always"
       xlink:href="#linearGradient4647"
       id="linearGradient4649"
       x1="185"
       y1="499"
       x2="209"
       y2="523"
       gradientUnits="userSpaceOnUse" />
    <linearGradient
       inkscape:collect="always"
       xlink:href="#linearGradient4753"
       id="linearGradient4755"
       x1="131"
       y1="508"
       x2="150"
       y2="527"
       gradientUnits="userSpaceOnUse" />
    <linearGradient
       inkscape:collect="always"
       xlink:href="#linearGradient4753"
       id="linearGradient4771"
       gradientUnits="userSpaceOnUse"
       x1="131"
       y1="508"
       x2="150"
       y2="527"
       gradientTransform="matrix(2,0,0,2,-10,-527.99997)" />
    <linearGradient
       inkscape:collect="always"
       xlink:href="#linearGradient4753"
       id="linearGradient4787"
       gradientUnits="userSpaceOnUse"
       gradientTransform="matrix(16,0,0,16,-1638,-7919.9996)"
       x1="131"
       y1="508"
       x2="150"
       y2="527" />
  </defs>
  <sodipodi:namedview
     id="base"
     pagecolor="#c3c3c3"
     bordercolor="#333333"
     borderopacity="1"
     inkscape:pageopacity="0"
     inkscape:pageshadow="2"
     inkscape:zoom="1"
     inkscape:cx="317.6167"
     inkscape:cy="53.71012"
     inkscape:document-units="px"
     inkscape:current-layer="layer1"
     showgrid="true"
     units="px"
     inkscape:showpageshadow="false"
     inkscape:window-width="2560"
     inkscape:window-height="1369"
     inkscape:window-x="0"
     inkscape:window-y="35"
     inkscape:window-maximized="1"
     showguides="false">
    <inkscape:grid
       type="xygrid"
       id="grid4630" />
  </sodipodi:namedview>
  <metadata
     id="metadata1084">
    <rdf:RDF>
      <cc:Work
         rdf:about="">
        <dc:format>image/svg+xml</dc:format>
        <dc:type
           rdf:resource="http://purl.org/dc/dcmitype/StillImage" />
        <dc:title></dc:title>
        <cc:license
           rdf:resource="http://creativecommons.org/licenses/by-sa/4.0/" />
        <dc:creator>
          <cc:Agent>
            <dc:title>Peter Cornelis</dc:title>
          </cc:Agent>
        </dc:creator>
      </cc:Work>
      <cc:License
         rdf:about="http://creativecommons.org/licenses/by-sa/4.0/">
        <cc:permits
           rdf:resource="http://creativecommons.org/ns#Reproduction" />
        <cc:permits
           rdf:resource="http://creativecommons.org/ns#Distribution" />
        <cc:requires
           rdf:resource="http://creativecommons.org/ns#Notice" />
        <cc:requires
           rdf:resource="http://creativecommons.org/ns#Attribution" />
        <cc:permits
           rdf:resource="http://creativecommons.org/ns#DerivativeWorks" />
        <cc:requires
           rdf:resource="http://creativecommons.org/ns#ShareAlike" />
      </cc:License>
    </rdf:RDF>
  </metadata>
  <g
     inkscape:label="Baseplate"
     inkscape:groupmode="layer"
     id="layer1"
     transform="translate(0,-153.06668)"
     style="display:none">
    <rect
       style="display:inline;overflow:visible;visibility:visible;fill:#fefefe;fill-opacity:1;fill-rule:nonzero;stroke:none;stroke-width:2;marker:none;enable-background:accumulate"
       id="rect3951"
       width="512"
       height="512"
       x="-826"
       y="169.06668"
       inkscape:label="48x48"
       transform="scale(-1,1)" />
    <text
       y="733.32251"
       xml:space="preserve"
       x="15.006836"
       style="font-style:normal;font-variant:normal;font-weight:normal;font-stretch:normal;line-height:0%;font-family:'DejaVu Sans';-inkscape-font-specification:'DejaVu Sans';display:inline;fill:#000000;fill-opacity:1;stroke:none;enable-background:new"
       inkscape:label="context"
       id="context"><tspan
         style="font-style:normal;font-variant:normal;font-weight:normal;font-stretch:normal;font-size:18px;line-height:1.25;font-family:'DejaVu Sans';-inkscape-font-specification:'DejaVu Sans'"
         y="733.32251"
         x="15.006836"
         sodipodi:role="line"
         id="tspan3933">apps</tspan></text>
    <text
       y="733.32251"
       xml:space="preserve"
       x="142.48828"
       style="font-style:normal;font-variant:normal;font-weight:bold;font-stretch:normal;line-height:0%;font-family:'DejaVu Sans';-inkscape-font-specification:'DejaVu Sans Bold';text-align:start;writing-mode:lr-tb;text-anchor:start;display:inline;fill:#000000;fill-opacity:1;stroke:none;enable-background:new"
       inkscape:label="icon-name"
       id="icon-name"><tspan
         style="font-style:normal;font-variant:normal;font-weight:bold;font-stretch:normal;font-size:18px;line-height:1.25;font-family:'DejaVu Sans';-inkscape-font-specification:'DejaVu Sans Bold'"
         y="733.32251"
         x="142.48828"
         sodipodi:role="line"
         id="tspan3937">simplescreenrecorder</tspan></text>
    <rect
       style="display:inline;overflow:visible;visibility:visible;fill:#fefefe;fill-opacity:1;fill-rule:nonzero;stroke:none;stroke-width:2;marker:none;enable-background:accumulate"
       id="rect16x16"
       width="16"
       height="16"
       x="-32"
       y="665.06665"
       inkscape:label="16x16"
       transform="scale(-1,1)" />
    <rect
       style="display:inline;overflow:visible;visibility:visible;fill:#fefefe;fill-opacity:1;fill-rule:nonzero;stroke:none;stroke-width:2;marker:none;enable-background:accumulate"
       id="rect24x24"
       width="24"
       height="24"
       x="-102"
       y="657.06665"
       inkscape:label="24x24"
       transform="scale(-1,1)" />
    <rect
       style="display:inline;overflow:visible;visibility:visible;fill:#fefefe;fill-opacity:1;fill-rule:nonzero;stroke:none;stroke-width:2;marker:none;enable-background:accumulate"
       id="rect32x32"
       width="32"
       height="32"
       x="-154"
       y="649.06665"
       inkscape:label="32x32"
       transform="scale(-1,1)" />
    <rect
       inkscape:label="48x48"
       y="633.06665"
       x="-218"
       height="48"
       width="48"
       id="rect48x48"
       style="display:inline;overflow:visible;visibility:visible;fill:#fefefe;fill-opacity:1;fill-rule:nonzero;stroke:none;stroke-width:2;marker:none;enable-background:accumulate"
       transform="scale(-1,1)" />
    <rect
       transform="scale(-1,1)"
       inkscape:label="48x48"
       y="617.06665"
       x="-298"
       height="64"
       width="64"
       id="rect140"
       style="display:inline;overflow:visible;visibility:visible;fill:#fefefe;fill-opacity:1;fill-rule:nonzero;stroke:none;stroke-width:0.25;marker:none;enable-background:accumulate" />
    <rect
       transform="scale(-1,1)"
       inkscape:label="24x24"
       y="659.06665"
       x="-66"
       height="22"
       width="22"
       id="rect4637"
       style="display:inline;overflow:visible;visibility:visible;fill:#fefefe;fill-opacity:1;fill-rule:nonzero;stroke:none;stroke-width:1.83333325;marker:none;enable-background:accumulate" />
    <rect
       transform="scale(-1,1)"
       style="display:inline;overflow:visible;visibility:visible;fill:#fefefe;fill-opacity:1;fill-rule:nonzero;stroke:none;stroke-width:1;marker:none;enable-background:accumulate"
       id="rect4752"
       width="24"
       height="24"
       x="-102"
       y="657.06665"
       inkscape:label="48x48" />
    <rect
       transform="scale(-1,1)"
       style="display:inline;overflow:visible;visibility:visible;fill:#fefefe;fill-opacity:1;fill-rule:nonzero;stroke:none;stroke-width:1.33333337;marker:none;enable-background:accumulate"
       id="rect4724"
       width="32"
       height="32"
       x="-154"
       y="649.06665"
       inkscape:label="48x48" />
    <rect
       style="display:inline;overflow:visible;visibility:visible;fill:#fefefe;fill-opacity:1;fill-rule:nonzero;stroke:none;stroke-width:2;marker:none;enable-background:accumulate"
       id="rect4777"
       width="512"
       height="512"
       x="-826"
       y="169.06665"
       inkscape:label="48x48"
       transform="scale(-1,1)" />
  </g>
  <g
     inkscape:groupmode="layer"
     id="layer2"
     inkscape:label="Bitmap"
     style="display:inline">
    <path
       id="path4805"
       d="m 176,489 c -2.21,0 -4,1.79 -4,4 v 24 c 0,2.21 1.79,4 4,4 h 6 8 8 8 6 c 2.21,0 4,-1.79 4,-4 v -24 c 0,-2.21 -1.79,-4 -4,-4 z"
       style="display:inline;fill:#000000;fill-opacity:0.2;filter:url(#filter4807);enable-background:new"
       inkscape:connector-curvature="0" />
    <path
       style="display:inline;opacity:1;fill:url(#linearGradient4157);fill-opacity:1;stroke:none;stroke-width:0;stroke-linecap:butt;stroke-linejoin:miter;stroke-miterlimit:0;stroke-dasharray:none;stroke-opacity:1;enable-background:new"
       d="M 176 488 C 173.79 488 172 489.79 172 492 L 172 516 C 172 518.21 173.79 520 176 520 L 182 520 L 190 520 L 198 520 L 206 520 L 212 520 C 214.21 520 216 518.21 216 516 L 216 492 C 216 489.79 214.21 488 212 488 L 176 488 z "
       id="path4167-2" />
    <path
       sodipodi:nodetypes="sscsscsscsscs"
       inkscape:connector-curvature="0"
       id="path5069"
       d="m 177,485 c -1.66505,0 -3,1.2912 -3,3 v 17 17 c 0,1.8617 1.34224,3 3,3 h 17 17 c 1.73784,0 3,-1.2767 3,-3 v -17 -17 c 0,-1.6942 -1.29127,-3 -3,-3 h -17 z"
       style="display:inline;fill:none;fill-opacity:0.5;stroke:none;stroke-width:2;stroke-linecap:round;stroke-linejoin:round;stroke-miterlimit:4;stroke-dasharray:none;stroke-opacity:1;filter:url(#filter5087);enable-background:new" />
    <path
       style="display:inline;fill:none;fill-opacity:0.5;stroke:none;stroke-width:2;stroke-linecap:round;stroke-linejoin:round;stroke-miterlimit:4;stroke-dasharray:none;stroke-opacity:1;filter:url(#filter5087);enable-background:new"
       d="m 177,485 c -1.66505,0 -3,1.2912 -3,3 v 17 17 c 0,1.8617 1.34224,3 3,3 h 17 17 c 1.73784,0 3,-1.2767 3,-3 v -17 -17 c 0,-1.6942 -1.29127,-3 -3,-3 h -17 z"
       id="path4506"
       inkscape:connector-curvature="0"
       sodipodi:nodetypes="sscsscsscsscs" />
    <path
       inkscape:connector-curvature="0"
       style="display:inline;fill:#ffffff;fill-opacity:0.2;stroke:none;stroke-opacity:1;enable-background:new"
       d="m 176,488 c -2.21,0 -4,1.79 -4,4 v 1 c 0,-2.21 1.79,-4 4,-4 h 36 c 2.21,0 4,1.79 4,4 v -1 c 0,-2.21 -1.79,-4 -4,-4 z"
       id="path4190" />
    <path
       style="display:inline;opacity:1;fill:url(#linearGradient4463);fill-opacity:1;stroke:none;stroke-width:0;stroke-linecap:butt;stroke-linejoin:miter;stroke-miterlimit:0;stroke-dasharray:none;stroke-opacity:1;enable-background:new"
       d="M 17 512 C 16.446 512 16 512.446 16 513 L 16 527 C 16 527.554 16.446 528 17 528 L 31 528 C 31.554 528 32 527.554 32 527 L 32 513 C 32 512.446 31.554 512 31 512 L 17 512 z "
       id="path4461-6" />
    <rect
       style="display:inline;fill:#000000;fill-opacity:0.2;stroke:none;enable-background:new"
       id="rect4837"
       width="30"
       height="22"
       x="123"
       y="502"
       rx="2"
       ry="2" />
    <path
       style="display:inline;opacity:1;fill:url(#linearGradient4455);fill-opacity:1;stroke:none;stroke-width:0;stroke-linecap:butt;stroke-linejoin:miter;stroke-miterlimit:0;stroke-dasharray:none;stroke-opacity:1;enable-background:new"
       d="M 125 501 C 123.892 501 123 501.892 123 503 L 123 521 C 123 522.108 123.892 523 125 523 L 151 523 C 152.108 523 153 522.108 153 521 L 153 503 C 153 501.892 152.108 501 151 501 L 125 501 z "
       id="path4452-2" />
    <path
       style="fill:url(#linearGradient4755);stroke:none;stroke-width:1px;stroke-linecap:butt;stroke-linejoin:miter;stroke-opacity:1;fill-opacity:1"
       d="M 140 508 L 131 514 L 140 523 L 151 523 C 152.108 523 153 522.108 153 521 L 153 517 L 145 509 L 143 511 L 140 508 z "
       id="path4747" />
    <path
       inkscape:connector-curvature="0"
       style="display:inline;fill:#ffffff;fill-opacity:0.2;stroke:none;enable-background:new"
       d="m 125,501 c -1.108,0 -2,0.892 -2,2 v 0.5 0.5 c 0,-1.108 0.892,-2 2,-2 h 26 c 1.108,0 2,0.892 2,2 v -0.5 -0.5 c 0,-1.108 -0.892,-2 -2,-2 z"
       id="path4548" />
    <path
       style="display:inline;fill:url(#linearGradient4550);fill-opacity:1;stroke:none;stroke-width:2;stroke-linecap:round;stroke-linejoin:round;stroke-miterlimit:4;stroke-dasharray:none;stroke-opacity:1;enable-background:new"
       d="m 125,501 c -1.108,0 -2,0.892 -2,2 v 9.36328 5.45508 0.18164 3 c 0,1.108 0.892,2 2,2 h 4.73633 16.52929 H 151 c 1.108,0 2,-0.892 2,-2 v -18 c 0,-1.108 -0.892,-2 -2,-2 z"
       id="path4538"
       inkscape:connector-curvature="0" />
    <path
       style="display:inline;fill:url(#linearGradient4171-1);fill-opacity:1;stroke:none;stroke-width:2;stroke-linecap:round;stroke-linejoin:round;stroke-miterlimit:4;stroke-dasharray:none;stroke-opacity:1;enable-background:new"
       d="M 176 488 C 173.79 488 172 489.79 172 492 L 172 504 L 172 512 L 172 516 C 172 518.21 173.79 520 176 520 L 182 520 L 182.2793 520 L 190 520 L 198 520 L 205.78516 520 L 206 520 L 212 520 C 214.21 520 216 518.21 216 516 L 216 492 C 216 489.79 214.21 488 212 488 L 176 488 z "
       id="circle4163-3" />
    <path
       id="path4817"
       d="m 81.5,507 c -0.831,0 -1.5,0.669 -1.5,1.5 V 522.35352 525.5 c 0,0.831 0.669,1.5 1.5,1.5 h 17 c 0.831,0 1.5,-0.669 1.5,-1.5 V 522.61133 508.5 c 0,-0.831 -0.669,-1.5 -1.5,-1.5 z"
       style="display:inline;fill:#000000;fill-opacity:0.2;stroke:none;stroke-width:2;stroke-linecap:round;stroke-linejoin:round;stroke-miterlimit:4;stroke-dasharray:none;stroke-opacity:1;enable-background:new"
       inkscape:connector-curvature="0" />
    <path
       style="display:inline;opacity:1;fill:url(#linearGradient4465);fill-opacity:1;stroke:none;stroke-width:0;stroke-linecap:butt;stroke-linejoin:miter;stroke-miterlimit:0;stroke-dasharray:none;stroke-opacity:1;enable-background:new"
       d="M 81.5 506 C 80.669 506 80 506.669 80 507.5 L 80 524.5 C 80 525.331 80.669 526 81.5 526 L 98.5 526 C 99.331 526 100 525.331 100 524.5 L 100 507.5 C 100 506.669 99.331 506 98.5 506 L 81.5 506 z "
       id="path4458-3" />
    <path
       inkscape:connector-curvature="0"
       style="display:inline;fill:#ffffff;fill-opacity:0.2;stroke:none;stroke-width:2;stroke-linecap:round;stroke-linejoin:round;stroke-miterlimit:4;stroke-dasharray:none;stroke-opacity:1;enable-background:new"
       d="m 81.5,506 c -0.831,0 -1.5,0.669 -1.5,1.5 v 1 c 0,-0.831 0.669,-1.5 1.5,-1.5 h 17 c 0.831,0 1.5,0.669 1.5,1.5 v -1 c 0,-0.831 -0.669,-1.5 -1.5,-1.5 z"
       id="path4550" />
    <rect
       style="display:inline;fill:#000000;fill-opacity:0.2;stroke:none;stroke-width:8;filter:url(#filter4763);enable-background:new"
       id="rect4685"
       width="480"
       height="352"
       x="330"
       y="98"
       rx="32"
       ry="32" />
    <rect
       ry="32"
       rx="32"
       y="98"
       x="330"
       height="352"
       width="480"
       id="rect4683"
       style="display:inline;fill:#000000;fill-opacity:0.2;stroke:none;stroke-width:8;enable-background:new" />
    <path
       style="display:inline;opacity:1;fill:url(#linearGradient4450);fill-opacity:1;stroke:none;stroke-width:0;stroke-linecap:butt;stroke-linejoin:miter;stroke-miterlimit:0;stroke-dasharray:none;stroke-opacity:1;enable-background:new"
       d="M 362 96 C 344.272 96 330 110.272 330 128 L 330 416 C 330 433.728 344.272 448 362 448 L 778 448 C 795.728 448 810 433.728 810 416 L 810 128 C 810 110.272 795.728 96 778 96 L 362 96 z "
       id="path4447-9" />
    <path
       style="display:inline;fill:#ffffff;fill-opacity:0.2;stroke:none;stroke-width:8;enable-background:new"
       d="m 362,96 c -17.728,0 -32,14.272 -32,32 v 2 c 0,-17.728 14.272,-32 32,-32 h 416 c 17.728,0 32,14.272 32,32 v -2 c 0,-17.728 -14.272,-32 -32,-32 z"
       id="path4521"
       inkscape:connector-curvature="0" />
    <path
       inkscape:connector-curvature="0"
       style="display:inline;fill:url(#linearGradient4512);fill-opacity:1;stroke:none;stroke-width:2;stroke-linecap:round;stroke-linejoin:round;stroke-miterlimit:4;stroke-dasharray:none;stroke-opacity:1;enable-background:new"
       d="m 81.5,506 c -0.831,0 -1.5,0.669 -1.5,1.5 V 521.35352 524.5 c 0,0.831 0.669,1.5 1.5,1.5 h 17 c 0.831,0 1.5,-0.669 1.5,-1.5 V 521.61133 507.5 c 0,-0.831 -0.669,-1.5 -1.5,-1.5 z"
       id="path4510" />
    <rect
       style="display:inline;fill:#000000;fill-opacity:0.2;stroke:none;stroke-width:1;filter:url(#filter4731);enable-background:new"
       id="rect4725"
       width="60"
       height="44"
       x="236"
       y="475"
       rx="4"
       ry="4" />
    <path
       style="display:inline;opacity:1;fill:url(#linearGradient166);fill-opacity:1;stroke:none;stroke-width:0;stroke-linecap:butt;stroke-linejoin:miter;stroke-miterlimit:0;stroke-dasharray:none;stroke-opacity:1;enable-background:new"
       d="M 240 474 C 237.784 474 236 475.784 236 478 L 236 514 C 236 516.216 237.784 518 240 518 L 292 518 C 294.216 518 296 516.216 296 514 L 296 478 C 296 475.784 294.216 474 292 474 L 240 474 z "
       id="path154" />
    <path
       style="display:inline;fill:#f2f2f2;fill-opacity:0.2;stroke:none;stroke-width:1;enable-background:new"
       d="m 240,474 c -2.216,0 -4,1.784 -4,4 v 1 c 0,-2.216 1.784,-4 4,-4 h 52 c 2.216,0 4,1.784 4,4 v -1 c 0,-2.216 -1.784,-4 -4,-4 z"
       id="rect170"
       inkscape:connector-curvature="0" />
    <path
       style="display:inline;fill:url(#linearGradient4502);fill-opacity:1;stroke:none;stroke-width:16;stroke-linecap:round;stroke-linejoin:round;stroke-miterlimit:4;stroke-dasharray:none;stroke-opacity:1;enable-background:new"
       d="M 362 96 C 344.272 96 330 110.272 330 128 L 330 277.8125 L 330 365.09375 L 330 368 L 330 416 C 330 433.728 344.272 448 362 448 L 437.75391 448 L 702.24609 448 L 778 448 C 795.728 448 810 433.728 810 416 L 810 128 C 810 110.272 795.728 96 778 96 L 362 96 z "
       id="path4498" />
    <path
       style="display:inline;fill:url(#linearGradient168);fill-opacity:1;stroke:none;stroke-width:2;stroke-linecap:round;stroke-linejoin:round;stroke-miterlimit:4;stroke-dasharray:none;stroke-opacity:1;enable-background:new"
       d="M 240 474 C 237.89239 474 236.19415 475.61925 236.03125 477.68359 C 236.02287 477.78976 236 477.89161 236 478 L 236 514 C 236 516.216 237.784 518 240 518 L 249.5 518 L 282.5625 518 L 292 518 C 294.216 518 296 516.216 296 514 L 296 508.31445 L 296 478 C 296 475.784 294.216 474 292 474 L 240 474 z "
       id="path156" />
    <path
       inkscape:connector-curvature="0"
       style="display:inline;fill:#000000;fill-opacity:0.2;stroke:none;stroke-width:2;stroke-linecap:round;stroke-linejoin:round;stroke-miterlimit:4;stroke-dasharray:none;stroke-opacity:1;enable-background:new"
       d="m 46.5,508 c -0.831,0 -1.5,0.669 -1.5,1.5 V 523.35352 526.5 c 0,0.831 0.669,1.5 1.5,1.5 h 17 c 0.831,0 1.5,-0.669 1.5,-1.5 V 523.61133 509.5 c 0,-0.831 -0.669,-1.5 -1.5,-1.5 z"
       id="path4639" />
    <path
       style="display:inline;opacity:1;fill:url(#linearGradient4666);fill-opacity:1;stroke:none;stroke-width:0;stroke-linecap:butt;stroke-linejoin:miter;stroke-miterlimit:0;stroke-dasharray:none;stroke-opacity:1;enable-background:new"
       d="M 46.5 507 C 45.669 507 45 507.669 45 508.5 L 45 525.5 C 45 526.331 45.669 527 46.5 527 L 63.5 527 C 64.331 527 65 526.331 65 525.5 L 65 508.5 C 65 507.669 64.331 507 63.5 507 L 46.5 507 z "
       id="path4645" />
    <path
       id="path4649"
       d="m 46.5,507 c -0.831,0 -1.5,0.669 -1.5,1.5 v 1 c 0,-0.831 0.669,-1.5 1.5,-1.5 h 17 c 0.831,0 1.5,0.669 1.5,1.5 v -1 c 0,-0.831 -0.669,-1.5 -1.5,-1.5 z"
       style="display:inline;fill:#ffffff;fill-opacity:0.2;stroke:none;stroke-width:2;stroke-linecap:round;stroke-linejoin:round;stroke-miterlimit:4;stroke-dasharray:none;stroke-opacity:1;enable-background:new"
       inkscape:connector-curvature="0" />
    <path
       id="path4651"
       d="m 46.5,507 c -0.831,0 -1.5,0.669 -1.5,1.5 V 522.35352 525.5 c 0,0.831 0.669,1.5 1.5,1.5 h 17 c 0.831,0 1.5,-0.669 1.5,-1.5 V 522.61133 508.5 c 0,-0.831 -0.669,-1.5 -1.5,-1.5 z"
       style="display:inline;fill:url(#linearGradient4668);fill-opacity:1;stroke:none;stroke-width:2;stroke-linecap:round;stroke-linejoin:round;stroke-miterlimit:4;stroke-dasharray:none;stroke-opacity:1;enable-background:new"
       inkscape:connector-curvature="0" />
    <path
       style="fill:url(#linearGradient4649);stroke:none;stroke-width:1px;stroke-linecap:butt;stroke-linejoin:miter;stroke-opacity:1;fill-opacity:1"
       d="M 197 499 L 189.36328 506.63672 L 185 507 L 198 520 L 214.61914 520 C 215.45826 519.26689 216 518.20243 216 517 L 216 513 L 203 500 L 201 503 L 197 499 z "
       id="path4637" />
    <path
       style="opacity:1;fill:#f5f5f5;fill-opacity:1;stroke:none;stroke-opacity:1"
       d="m 187,499 c -1.108,0 -2,0.892 -2,2 v 6 c 0,1.108 0.892,2 2,2 h 10 c 1.108,0 2,-0.892 2,-2 v -3 -3 c 0,-1.108 -0.892,-2 -2,-2 z m 12,5 4,4 v -8 z"
       id="rect4629"
       inkscape:connector-curvature="0" />
    <path
       style="opacity:1;fill:#000000;fill-opacity:0.1;stroke:none;stroke-opacity:1"
       d="M 187 499 C 185.892 499 185 499.892 185 501 L 185 504 L 199 504 L 199 501 C 199 499.892 198.108 499 197 499 L 187 499 z M 199 504 L 203 504 L 203 500 L 199 504 z "
       id="rect4655" />
    <path
       style="opacity:1;fill:#f5f5f5;fill-opacity:1;stroke:none;stroke-opacity:1"
       d="M 187 499 C 185.892 499 185 499.892 185 501 L 185 502 C 185 500.892 185.892 500 187 500 L 197 500 C 198.108 500 199 500.892 199 502 L 199 501 C 199 499.892 198.108 499 197 499 L 187 499 z M 203 500 L 199 504 L 200 504 L 203 501 L 203 500 z "
       id="path4660" />
    <path
       style="opacity:1;fill:#f5f5f5;fill-opacity:1;stroke:none;stroke-opacity:1"
       d="m 51,514 c -0.554,0 -1,0.446 -1,1 v 4 c 0,0.554 0.446,1 1,1 h 1 2 3 c 0.554,0 1,-0.446 1,-1 v -2 -2 c 0,-0.554 -0.446,-1 -1,-1 h -3 -2 z m 7,3 2.5,2.5 v -5 z"
       id="rect4694"
       inkscape:connector-curvature="0" />
    <path
       style="opacity:1;fill:#000000;fill-opacity:0.1;stroke:none;stroke-opacity:1"
       d="M 51 514 C 50.446 514 50 514.446 50 515 L 50 517 L 58 517 L 58 515 C 58 514.446 57.554 514 57 514 L 54 514 L 52 514 L 51 514 z M 58 517 L 60.5 517 L 60.5 514.5 L 58 517 z "
       id="rect4710" />
    <path
       inkscape:connector-curvature="0"
       id="path4715"
       d="m 86,513 c -0.554,0 -1,0.446 -1,1 v 4 c 0,0.554 0.446,1 1,1 h 1 2 3 c 0.554,0 1,-0.446 1,-1 v -2 -2 c 0,-0.554 -0.446,-1 -1,-1 h -3 -2 z m 7,3 2.5,2.5 v -5 z"
       style="opacity:1;fill:#f5f5f5;fill-opacity:1;stroke:none;stroke-opacity:1" />
    <path
       id="path4717"
       d="m 86,513 c -0.554,0 -1,0.446 -1,1 v 2 h 8 v -2 c 0,-0.554 -0.446,-1 -1,-1 h -3 -2 z m 7,3 h 2.5 v -2.5 z"
       style="opacity:1;fill:#000000;fill-opacity:0.1;stroke:none;stroke-opacity:1"
       inkscape:connector-curvature="0" />
    <path
       inkscape:connector-curvature="0"
       id="path4719"
       d="m 20,517 c -0.554,0 -1,0.446 -1,1 v 4 c 0,0.554 0.446,1 1,1 h 1 2 3 c 0.554,0 1,-0.446 1,-1 v -2 -2 c 0,-0.554 -0.446,-1 -1,-1 h -3 -2 z m 7,3 2.5,2.5 v -5 z"
       style="opacity:1;fill:#f5f5f5;fill-opacity:1;stroke:none;stroke-opacity:1" />
    <path
       id="path4722"
       d="m 20,517 c -0.554,0 -1,0.446 -1,1 v 2 h 8 v -2 c 0,-0.554 -0.446,-1 -1,-1 h -3 -2 z m 7,3 h 2.5 v -2.5 z"
       style="opacity:1;fill:#000000;fill-opacity:0.1;stroke:none;stroke-opacity:1"
       inkscape:connector-curvature="0" />
    <path
       style="opacity:1;fill:#f5f5f5;fill-opacity:1;stroke:none;stroke-opacity:1"
       d="M 132.5 508 C 131.669 508 131 508.669 131 509.5 L 131 514.5 C 131 515.331 131.669 516 132.5 516 L 133.5 516 L 135.5 516 L 140.5 516 C 141.331 516 142 515.331 142 514.5 L 142 512 L 142 509.5 C 142 508.669 141.331 508 140.5 508 L 135.5 508 L 133.5 508 L 132.5 508 z M 142 512 L 145 515 L 145 509 L 142 512 z "
       id="rect4728" />
    <path
       style="opacity:1;fill:#000000;fill-opacity:0.1;stroke:none;stroke-opacity:1"
       d="M 132.5 508 C 131.669 508 131 508.669 131 509.5 L 131 512 L 142 512 L 142 509.5 C 142 508.669 141.331 508 140.5 508 L 135.5 508 L 133.5 508 L 132.5 508 z M 142 512 L 145 512 L 145 509 L 142 512 z "
       id="rect4736" />
    <path
       style="opacity:1;fill:#f5f5f5;fill-opacity:1;stroke:none;stroke-opacity:1"
       d="M 132.5 508 C 131.669 508 131 508.669 131 509.5 L 131 510.5 C 131 509.669 131.669 509 132.5 509 L 133.5 509 L 135.5 509 L 140.5 509 C 141.331 509 142 509.669 142 510.5 L 142 509.5 C 142 508.669 141.331 508 140.5 508 L 135.5 508 L 133.5 508 L 132.5 508 z M 145 509 L 142 512 L 143 512 L 145 510 L 145 509 z "
       id="path4742" />
    <path
       id="path4763"
       d="m 270,488.00003 -18,12 18,18 h 22 c 2.216,0 4,-1.784 4,-4 v -8 l -16,-16 -4,4 z"
       style="fill:url(#linearGradient4771);fill-opacity:1;stroke:none;stroke-width:2px;stroke-linecap:butt;stroke-linejoin:miter;stroke-opacity:1"
       inkscape:connector-curvature="0" />
    <path
       id="path4765"
       d="m 255,488.00003 c -1.662,0 -3,1.338 -3,3 v 10 c 0,1.662 1.338,3 3,3 h 2 4 10 c 1.662,0 3,-1.338 3,-3 v -5 -5 c 0,-1.662 -1.338,-3 -3,-3 h -10 -4 z m 19,8 6,6 v -12 z"
       style="opacity:1;fill:#f5f5f5;fill-opacity:1;stroke:none;stroke-width:2;stroke-opacity:1"
       inkscape:connector-curvature="0" />
    <path
       id="path4767"
       d="m 255,488.00003 c -1.662,0 -3,1.338 -3,3 v 5 h 22 v -5 c 0,-1.662 -1.338,-3 -3,-3 h -10 -4 z m 19,8 h 6 v -6 z"
       style="opacity:1;fill:#000000;fill-opacity:0.1;stroke:none;stroke-width:2;stroke-opacity:1"
       inkscape:connector-curvature="0" />
    <path
       style="opacity:1;fill:#f5f5f5;fill-opacity:1;stroke:none;stroke-width:2;stroke-opacity:1"
       d="M 255 488 C 253.338 488 252 489.338 252 491 L 252 492 C 252 490.338 253.338 489 255 489 L 257 489 L 261 489 L 271 489 C 272.662 489 274 490.338 274 492 L 274 491 C 274 489.338 272.662 488 271 488 L 261 488 L 257 488 L 255 488 z M 280 490 L 274 496 L 275 496 L 280 491 L 280 490 z "
       id="path4769" />
    <path
       inkscape:connector-curvature="0"
       style="fill:url(#linearGradient4787);fill-opacity:1;stroke:none;stroke-width:16px;stroke-linecap:butt;stroke-linejoin:miter;stroke-opacity:1"
       d="m 602,208.00045 -144,96 144,144 h 176 c 17.728,0 32,-14.272 32,-32 v -64 l -128,-128 -32,32 z"
       id="path4779" />
    <path
       inkscape:connector-curvature="0"
       style="opacity:1;fill:#f5f5f5;fill-opacity:1;stroke:none;stroke-width:16;stroke-opacity:1"
       d="m 482,208.00045 c -13.296,0 -24,10.704 -24,24 v 80 c 0,13.296 10.704,24 24,24 h 16 32 80 c 13.296,0 24,-10.704 24,-24 v -40 -40 c 0,-13.296 -10.704,-24 -24,-24 h -80 -32 z m 152,64 48,48 v -96 z"
       id="path4781" />
    <path
       inkscape:connector-curvature="0"
       style="opacity:1;fill:#000000;fill-opacity:0.1;stroke:none;stroke-width:16;stroke-opacity:1"
       d="m 482,208.00045 c -13.296,0 -24,10.704 -24,24 v 40 h 176 v -40 c 0,-13.296 -10.704,-24 -24,-24 h -80 -32 z m 152,64 h 48 v -48 z"
       id="path4783" />
    <path
       style="opacity:1;fill:#f5f5f5;fill-opacity:1;stroke:none;stroke-width:16;stroke-opacity:1"
       d="M 482 208 C 468.704 208 458 218.704 458 232 L 458 234 C 458 220.704 468.704 210 482 210 L 498 210 L 530 210 L 610 210 C 623.296 210 634 220.704 634 234 L 634 232 C 634 218.704 623.296 208 610 208 L 530 208 L 498 208 L 482 208 z M 682 224 L 634 272 L 636 272 L 682 226 L 682 224 z "
       id="path4785" />
  </g>
</svg>
