<?xml version="1.0" encoding="UTF-8" standalone="no"?>
<!-- Created with Inkscape (http://www.inkscape.org/) -->

<svg
   xmlns:dc="http://purl.org/dc/elements/1.1/"
   xmlns:cc="http://creativecommons.org/ns#"
   xmlns:rdf="http://www.w3.org/1999/02/22-rdf-syntax-ns#"
   xmlns:svg="http://www.w3.org/2000/svg"
   xmlns="http://www.w3.org/2000/svg"
   xmlns:xlink="http://www.w3.org/1999/xlink"
   xmlns:sodipodi="http://sodipodi.sourceforge.net/DTD/sodipodi-0.dtd"
   xmlns:inkscape="http://www.inkscape.org/namespaces/inkscape"
   width="842"
   height="544"
   viewBox="0 0 842 544"
   version="1.1"
   id="svg1087"
   inkscape:version="0.92.1 r"
   sodipodi:docname="skype.svg">
  <defs
     id="defs1081">
    <linearGradient
       inkscape:collect="always"
       xlink:href="#linearGradient4165-3"
       id="linearGradient4553"
       gradientUnits="userSpaceOnUse"
       gradientTransform="matrix(0.4782599,0,0,0.47826359,43.52174,25.17187)"
       x1="7"
       y1="1011.3622"
       x2="41.000019"
       y2="1045.3622" />
    <linearGradient
       inkscape:collect="always"
       id="linearGradient4165-3">
      <stop
         style="stop-color:#ffffff;stop-opacity:0.05490196"
         offset="0"
         id="stop4167-6" />
      <stop
         style="stop-color:#177ed5;stop-opacity:0;"
         offset="1"
         id="stop4169-7" />
    </linearGradient>
    <linearGradient
       inkscape:collect="always"
       xlink:href="#linearGradient4165-3"
       id="linearGradient4620"
       gradientUnits="userSpaceOnUse"
       gradientTransform="matrix(0.4782599,0,0,0.47826359,78.52174,24.17187)"
       x1="7"
       y1="1011.3622"
       x2="41.000019"
       y2="1045.3622" />
    <linearGradient
       inkscape:collect="always"
       xlink:href="#linearGradient4165-3"
       id="linearGradient4435"
       gradientUnits="userSpaceOnUse"
       gradientTransform="matrix(0.65217041,0,0,0.65217328,122.34777,-158.67056)"
       x1="7"
       y1="1011.3622"
       x2="41.000019"
       y2="1045.3622" />
    <linearGradient
       inkscape:collect="always"
       xlink:href="#linearGradient4165-3"
       id="linearGradient4171-1-0"
       x1="7"
       y1="1011.3622"
       x2="41.000019"
       y2="1045.3622"
       gradientUnits="userSpaceOnUse"
       gradientTransform="matrix(0.95652174,0,0,0.95652174,171.0435,-479.65043)" />
    <linearGradient
       inkscape:collect="always"
       xlink:href="#linearGradient4165-3"
       id="linearGradient4537"
       gradientUnits="userSpaceOnUse"
       gradientTransform="matrix(1.3043412,0,0,1.3043465,234.69565,-845.34025)"
       x1="7"
       y1="1011.3622"
       x2="41.000019"
       y2="1045.3622" />
    <linearGradient
       inkscape:collect="always"
       xlink:href="#linearGradient4165-3"
       id="linearGradient4449-0"
       gradientUnits="userSpaceOnUse"
       gradientTransform="matrix(10.43473,0,0,10.434772,319.56521,-10458.722)"
       x1="7"
       y1="1011.3622"
       x2="41.000019"
       y2="1045.3622" />
    <filter
       inkscape:collect="always"
       style="color-interpolation-filters:sRGB"
       id="filter4586"
       x="-0.023999987"
       width="1.048"
       y="-0.024000011"
       height="1.048">
      <feGaussianBlur
         inkscape:collect="always"
         stdDeviation="4.7999976"
         id="feGaussianBlur4588" />
    </filter>
  </defs>
  <sodipodi:namedview
     id="base"
     pagecolor="#c3c3c3"
     bordercolor="#333333"
     borderopacity="1"
     inkscape:pageopacity="0"
     inkscape:pageshadow="2"
     inkscape:zoom="1.4"
     inkscape:cx="354.15523"
     inkscape:cy="219.45409"
     inkscape:document-units="px"
     inkscape:current-layer="layer1"
     showgrid="false"
     units="px"
     inkscape:showpageshadow="false"
     inkscape:window-width="2560"
     inkscape:window-height="1369"
     inkscape:window-x="0"
     inkscape:window-y="35"
     inkscape:window-maximized="1">
    <inkscape:grid
       type="xygrid"
       id="grid4630" />
  </sodipodi:namedview>
  <metadata
     id="metadata1084">
    <rdf:RDF>
      <cc:Work
         rdf:about="">
        <dc:format>image/svg+xml</dc:format>
        <dc:type
           rdf:resource="http://purl.org/dc/dcmitype/StillImage" />
        <dc:title></dc:title>
        <cc:license
           rdf:resource="http://creativecommons.org/licenses/by-sa/4.0/" />
        <dc:creator>
          <cc:Agent>
            <dc:title>Peter Cornelis</dc:title>
          </cc:Agent>
        </dc:creator>
      </cc:Work>
      <cc:License
         rdf:about="http://creativecommons.org/licenses/by-sa/4.0/">
        <cc:permits
           rdf:resource="http://creativecommons.org/ns#Reproduction" />
        <cc:permits
           rdf:resource="http://creativecommons.org/ns#Distribution" />
        <cc:requires
           rdf:resource="http://creativecommons.org/ns#Notice" />
        <cc:requires
           rdf:resource="http://creativecommons.org/ns#Attribution" />
        <cc:permits
           rdf:resource="http://creativecommons.org/ns#DerivativeWorks" />
        <cc:requires
           rdf:resource="http://creativecommons.org/ns#ShareAlike" />
      </cc:License>
    </rdf:RDF>
  </metadata>
  <g
     inkscape:label="Baseplate"
     inkscape:groupmode="layer"
     id="layer1"
     transform="translate(0,-153.06668)"
     style="display:none">
    <rect
       style="display:inline;overflow:visible;visibility:visible;fill:#fefefe;fill-opacity:1;fill-rule:nonzero;stroke:none;stroke-width:2;marker:none;enable-background:accumulate"
       id="rect3951"
       width="512"
       height="512"
       x="-826"
       y="169.06668"
       inkscape:label="48x48"
       transform="scale(-1,1)" />
    <text
       y="733.32251"
       xml:space="preserve"
       x="15.006836"
       style="font-style:normal;font-variant:normal;font-weight:normal;font-stretch:normal;line-height:0%;font-family:'DejaVu Sans';-inkscape-font-specification:'DejaVu Sans';display:inline;fill:#000000;fill-opacity:1;stroke:none;enable-background:new"
       inkscape:label="context"
       id="context"><tspan
         style="font-style:normal;font-variant:normal;font-weight:normal;font-stretch:normal;font-size:18px;line-height:1.25;font-family:'DejaVu Sans';-inkscape-font-specification:'DejaVu Sans'"
         y="733.32251"
         x="15.006836"
         sodipodi:role="line"
         id="tspan3933">apps</tspan></text>
    <text
       y="733.32251"
       xml:space="preserve"
       x="142.48828"
       style="font-style:normal;font-variant:normal;font-weight:bold;font-stretch:normal;line-height:0%;font-family:'DejaVu Sans';-inkscape-font-specification:'DejaVu Sans Bold';text-align:start;writing-mode:lr-tb;text-anchor:start;display:inline;fill:#000000;fill-opacity:1;stroke:none;enable-background:new"
       inkscape:label="icon-name"
       id="icon-name"><tspan
         style="font-style:normal;font-variant:normal;font-weight:bold;font-stretch:normal;font-size:18px;line-height:1.25;font-family:'DejaVu Sans';-inkscape-font-specification:'DejaVu Sans Bold'"
         y="733.32251"
         x="142.48828"
         sodipodi:role="line"
         id="tspan3937">skype</tspan></text>
    <rect
       style="display:inline;overflow:visible;visibility:visible;fill:#fefefe;fill-opacity:1;fill-rule:nonzero;stroke:none;stroke-width:2;marker:none;enable-background:accumulate"
       id="rect16x16"
       width="16"
       height="16"
       x="-32"
       y="665.06665"
       inkscape:label="16x16"
       transform="scale(-1,1)" />
    <rect
       style="display:inline;overflow:visible;visibility:visible;fill:#fefefe;fill-opacity:1;fill-rule:nonzero;stroke:none;stroke-width:2;marker:none;enable-background:accumulate"
       id="rect24x24"
       width="24"
       height="24"
       x="-102"
       y="657.06665"
       inkscape:label="24x24"
       transform="scale(-1,1)" />
    <rect
       style="display:inline;overflow:visible;visibility:visible;fill:#fefefe;fill-opacity:1;fill-rule:nonzero;stroke:none;stroke-width:2;marker:none;enable-background:accumulate"
       id="rect32x32"
       width="32"
       height="32"
       x="-154"
       y="649.06665"
       inkscape:label="32x32"
       transform="scale(-1,1)" />
    <rect
       inkscape:label="48x48"
       y="633.06665"
       x="-218"
       height="48"
       width="48"
       id="rect48x48"
       style="display:inline;overflow:visible;visibility:visible;fill:#fefefe;fill-opacity:1;fill-rule:nonzero;stroke:none;stroke-width:2;marker:none;enable-background:accumulate"
       transform="scale(-1,1)" />
    <rect
       transform="scale(-1,1)"
       inkscape:label="48x48"
       y="617.06665"
       x="-298"
       height="64"
       width="64"
       id="rect4493"
       style="display:inline;overflow:visible;visibility:visible;fill:#fefefe;fill-opacity:1;fill-rule:nonzero;stroke:none;stroke-width:0.25;marker:none;enable-background:accumulate" />
    <rect
       transform="scale(-1,1)"
       inkscape:label="24x24"
       y="659.06665"
       x="-66"
       height="22"
       width="22"
       id="rect4495"
       style="display:inline;overflow:visible;visibility:visible;fill:#fefefe;fill-opacity:1;fill-rule:nonzero;stroke:none;stroke-width:1.83333325;marker:none;enable-background:accumulate" />
    <path
       style="display:inline;fill:#ffffff;fill-opacity:0.2;stroke:none;enable-background:new"
       d="m 55,506 c -6.094,0 -11,4.906 -11,11 0,0.16899 0.01792,0.33292 0.02539,0.5 C 44.287156,511.64183 49.074989,507 55,507 c 5.925011,0 10.712844,4.64183 10.974609,10.5 C 65.982075,517.33292 66,517.16899 66,517 66,510.906 61.094,506 55,506 Z"
       transform="translate(0,153.06668)"
       id="rect4613"
       inkscape:connector-curvature="0" />
  </g>
  <g
     inkscape:groupmode="layer"
     id="layer2"
     inkscape:label="Bitmap"
     style="display:inline">
    <path
       id="path4618"
       d="m 90,505 c -6.094,0 -11,4.906 -11,11 0,0.16899 0.0179,0.33292 0.0254,0.5 0.26176,-5.85817 5.0496,-10.5 10.97461,-10.5 5.92501,0 10.71284,4.64183 10.97461,10.5 0.008,-0.16708 0.0254,-0.33101 0.0254,-0.5 0,-6.094 -4.906,-11 -11,-11 z"
       style="display:inline;fill:#ffffff;fill-opacity:0.2;stroke:none;enable-background:new"
       inkscape:connector-curvature="0" />
    <path
       id="path4508"
       d="m 131,498 a 8,8 0 0 0 -8,8 8,8 0 0 0 1.26367,4.31641 A 14,14 0 0 0 124,513 a 14,14 0 0 0 14,14 14,14 0 0 0 2.68555,-0.27148 A 8,8 0 0 0 145,528 a 8,8 0 0 0 8,-8 8,8 0 0 0 -1.26367,-4.31641 A 14,14 0 0 0 152,513 14,14 0 0 0 138,499 14,14 0 0 0 135.31445,499.27148 8,8 0 0 0 131,498 Z"
       style="display:inline;opacity:1;fill:#000000;fill-opacity:0.2;stroke:none;stroke-width:2;stroke-miterlimit:4;stroke-dasharray:none;stroke-opacity:1;enable-background:new"
       inkscape:connector-curvature="0" />
    <path
       id="path4510"
       d="m 85,506 a 6,6 0 0 0 -6,6 6,6 0 0 0 1.12695,3.48828 A 10,10 0 0 0 80,517 10,10 0 0 0 90,527 10,10 0 0 0 91.51367,526.87695 6,6 0 0 0 95,528 6,6 0 0 0 101,522 6,6 0 0 0 99.87305,518.51172 10,10 0 0 0 100,517 10,10 0 0 0 90,507 10,10 0 0 0 88.48633,507.12305 6,6 0 0 0 85,506 Z"
       style="display:inline;opacity:1;fill:#000000;fill-opacity:0.2;stroke:none;stroke-width:2;stroke-miterlimit:4;stroke-dasharray:none;stroke-opacity:1;enable-background:new"
       inkscape:connector-curvature="0" />
    <path
       id="path4512"
       d="m 184,484 a 11,11 0 0 0 -11,11 11,11 0 0 0 1.51953,5.55273 A 20,20 0 0 0 174,505 a 20,20 0 0 0 20,20 20,20 0 0 0 4.4375,-0.52344 A 11,11 0 0 0 204,526 11,11 0 0 0 215,515 11,11 0 0 0 213.48047,509.44727 20,20 0 0 0 214,505 20,20 0 0 0 194,485 20,20 0 0 0 189.5625,485.52344 11,11 0 0 0 184,484 Z"
       style="display:inline;opacity:1;fill:#000000;fill-opacity:0.2;stroke:none;stroke-width:2;stroke-miterlimit:4;stroke-dasharray:none;stroke-opacity:1;enable-background:new"
       inkscape:connector-curvature="0" />
    <path
       style="display:inline;opacity:1;fill:#00a9f2;fill-opacity:1;stroke:none;stroke-width:2;stroke-miterlimit:4;stroke-dasharray:none;stroke-opacity:1;enable-background:new"
       d="m 131,497 a 8,8 0 0 0 -8,8 8,8 0 0 0 1.26367,4.31641 A 14,14 0 0 0 124,512 a 14,14 0 0 0 14,14 14,14 0 0 0 2.68555,-0.27148 A 8,8 0 0 0 145,527 a 8,8 0 0 0 8,-8 8,8 0 0 0 -1.26367,-4.31641 A 14,14 0 0 0 152,512 14,14 0 0 0 138,498 14,14 0 0 0 135.31445,498.27148 8,8 0 0 0 131,497 Z"
       id="circle4411"
       inkscape:connector-curvature="0" />
    <path
       style="display:inline;opacity:1;fill:#00a9f2;fill-opacity:1;stroke:none;stroke-width:2;stroke-miterlimit:4;stroke-dasharray:none;stroke-opacity:1;enable-background:new"
       d="m 85,505 a 6,6 0 0 0 -6,6 6,6 0 0 0 1.12695,3.48828 A 10,10 0 0 0 80,516 10,10 0 0 0 90,526 10,10 0 0 0 91.51367,525.87695 6,6 0 0 0 95,527 6,6 0 0 0 101,521 6,6 0 0 0 99.87305,517.51172 10,10 0 0 0 100,516 10,10 0 0 0 90,506 10,10 0 0 0 88.48633,506.12305 6,6 0 0 0 85,505 Z"
       id="circle4452"
       inkscape:connector-curvature="0" />
    <path
       style="display:inline;opacity:1;fill:#00a9f2;fill-opacity:1;stroke:none;stroke-width:2;stroke-miterlimit:4;stroke-dasharray:none;stroke-opacity:1;enable-background:new"
       d="m 184,483 a 11,11 0 0 0 -11,11 11,11 0 0 0 1.51953,5.55273 A 20,20 0 0 0 174,504 a 20,20 0 0 0 20,20 20,20 0 0 0 4.4375,-0.52344 A 11,11 0 0 0 204,525 11,11 0 0 0 215,514 11,11 0 0 0 213.48047,508.44727 20,20 0 0 0 214,504 20,20 0 0 0 194,484 20,20 0 0 0 189.5625,484.52344 11,11 0 0 0 184,483 Z"
       id="circle4357"
       inkscape:connector-curvature="0" />
    <path
       id="path3818"
       d="m 193.60259,490.71148 c 6.56932,0 9.95617,3.46743 9.95617,5.4962 0,2.02879 -0.98115,2.36152 -2.59362,2.36152 -3.1299,0 -1.84434,-3.76171 -7.71813,-3.76171 -1.94544,0 -4.3506,0.87022 -4.3506,3.13479 0,1.81695 2.12175,2.48522 5.91932,3.40641 5.70925,1.52845 10.01894,3.07516 10.01894,8.2966 0,5.07194 -4.18168,7.607 -10.75101,7.607 -6.56933,0 -10.751,-3.92729 -10.751,-5.95607 0,-2.02868 0.79291,-2.54947 2.40538,-2.54947 3.1299,0 2.681,4.26317 8.55478,4.26317 1.94544,0 4.81077,-0.87022 4.81077,-3.1347 0,-1.81695 -0.12473,-2.45907 -4.28786,-3.57365 -4.4477,-0.60594 -11.6504,-2.04784 -11.6504,-7.56512 0,-5.07194 3.86793,-8.02497 10.43726,-8.02497 z"
       style="display:inline;fill:#f5f5f5;fill-opacity:1;fill-rule:nonzero;stroke:none;enable-background:new"
       inkscape:connector-curvature="0"
       sodipodi:nodetypes="ssssscsssssscss" />
    <path
       style="display:inline;opacity:1;fill:#00a9f2;fill-opacity:1;stroke:none;stroke-width:2;stroke-miterlimit:4;stroke-dasharray:none;stroke-opacity:1;enable-background:new"
       d="m 20.5,512 a 4.5,4.5 0 0 0 -4.5,4.5 4.5,4.5 0 0 0 0.61328,2.25586 A 7.4999995,7.4999995 0 0 0 16.5,520 7.4999995,7.4999995 0 0 0 24,527.5 7.4999995,7.4999995 0 0 0 25.25,527.39453 4.5,4.5 0 0 0 27.5,528 4.5,4.5 0 0 0 32,523.5 4.5,4.5 0 0 0 31.38672,521.24414 7.4999995,7.4999995 0 0 0 31.5,520 7.4999995,7.4999995 0 0 0 24,512.5 7.4999995,7.4999995 0 0 0 22.75,512.60547 4.5,4.5 0 0 0 20.5,512 Z"
       id="circle4419"
       inkscape:connector-curvature="0" />
    <path
       sodipodi:nodetypes="ssssscsssssscss"
       inkscape:connector-curvature="0"
       style="display:inline;fill:#f5f5f5;fill-opacity:1;fill-rule:nonzero;stroke:none;enable-background:new"
       d="m 137.72181,502.69803 c 4.59853,0 6.96932,2.42721 6.96932,3.84734 0,1.42016 -0.6868,1.65307 -1.81553,1.65307 -2.19093,0 -1.29104,-2.6332 -5.40269,-2.6332 -1.36181,0 -3.04542,0.60916 -3.04542,2.19435 0,1.27187 1.48522,1.73966 4.14352,2.38449 3.99648,1.06992 7.01326,2.15261 7.01326,5.80762 0,3.55036 -2.92718,5.3249 -7.52571,5.3249 -4.59853,0 -7.5257,-2.7491 -7.5257,-4.16925 0,-1.42007 0.55504,-1.78463 1.68377,-1.78463 2.19093,0 1.8767,2.98422 5.98834,2.98422 1.36181,0 3.36754,-0.60915 3.36754,-2.19429 0,-1.27186 -0.0873,-1.72135 -3.0015,-2.50155 -3.11339,-0.42416 -8.15528,-1.43349 -8.15528,-5.29559 0,-3.55035 2.70755,-5.61747 7.30608,-5.61747 z"
       id="path4440" />
    <path
       id="path4446"
       d="m 23.85097,515.01681 c 2.4635,0 3.73357,1.30029 3.73357,2.06108 0,0.7608 -0.36794,0.88557 -0.97261,0.88557 -1.17371,0 -0.69163,-1.41064 -2.8943,-1.41064 -0.72954,0 -1.63148,0.32633 -1.63148,1.17554 0,0.68136 0.79566,0.93196 2.21975,1.27741 2.14097,0.57317 3.7571,1.15318 3.7571,3.11122 0,1.90198 -1.56813,2.85263 -4.03163,2.85263 -2.4635,0 -4.03162,-1.47273 -4.03162,-2.23353 0,-0.76075 0.29734,-0.95605 0.90202,-0.95605 1.17371,0 1.00537,1.59869 3.20804,1.59869 0.72954,0 1.80404,-0.32633 1.80404,-1.17551 0,-0.68136 -0.0468,-0.92215 -1.60795,-1.34012 -1.66789,-0.22723 -4.3689,-0.76794 -4.3689,-2.83692 0,-1.90198 1.45047,-3.00936 3.91397,-3.00936 z"
       style="display:inline;fill:#f5f5f5;fill-opacity:1;fill-rule:nonzero;stroke:none;enable-background:new"
       inkscape:connector-curvature="0"
       sodipodi:nodetypes="ssssscsssssscss" />
    <path
       id="path4462"
       d="m 89.80129,509.35574 c 3.28466,0 4.97809,1.73371 4.97809,2.7481 0,1.01439 -0.49058,1.18076 -1.29681,1.18076 -1.56495,0 -0.92217,-1.88085 -3.85907,-1.88085 -0.97272,0 -2.1753,0.4351 -2.1753,1.56739 0,0.90847 1.06088,1.24261 2.95966,1.70321 2.85463,0.76422 5.00947,1.53757 5.00947,4.1483 0,2.53596 -2.09084,3.8035 -5.3755,3.8035 -3.28467,0 -5.3755,-1.96365 -5.3755,-2.97804 0,-1.01434 0.39645,-1.27474 1.20269,-1.27474 1.56495,0 1.3405,2.13159 4.27739,2.13159 0.97272,0 2.40538,-0.43511 2.40538,-1.56735 0,-0.90848 -0.0624,-1.22954 -2.14393,-1.78682 -2.22385,-0.30297 -5.8252,-1.02392 -5.8252,-3.78256 0,-2.53597 1.93397,-4.01249 5.21863,-4.01249 z"
       style="display:inline;fill:#f5f5f5;fill-opacity:1;fill-rule:nonzero;stroke:none;enable-background:new"
       inkscape:connector-curvature="0"
       sodipodi:nodetypes="ssssscsssssscss" />
    <path
       style="display:inline;opacity:1;fill:#ffffff;fill-opacity:0.2;stroke:none;stroke-width:2;stroke-miterlimit:4;stroke-dasharray:none;stroke-opacity:1;enable-background:new"
       d="m 131,497 a 8,8 0 0 0 -8,8 8,8 0 0 0 0.0215,0.42383 8,8 0 0 1 7.97852,-7.42383 8,8 0 0 1 4.31445,1.27148 14,14 0 0 1 2.68555,-0.27148 14,14 0 0 1 13.97461,13.51172 14,14 0 0 0 0.0254,-0.51172 14,14 0 0 0 -14,-14 14,14 0 0 0 -2.68555,0.27148 A 8,8 0 0 0 131,497 Z m -6.85352,13.11914 A 14,14 0 0 0 124,512 a 14,14 0 0 0 0.0254,0.48828 14,14 0 0 1 0.23828,-2.17187 8,8 0 0 1 -0.11719,-0.19727 z m 27.70704,4.76172 a 14,14 0 0 1 -0.11719,0.80273 8,8 0 0 1 1.24219,3.89258 8,8 0 0 0 0.0215,-0.57617 8,8 0 0 0 -1.14648,-4.11914 z"
       id="path4529"
       inkscape:connector-curvature="0" />
    <path
       style="display:inline;opacity:1;fill:#ffffff;fill-opacity:0.2;stroke:none;stroke-width:2;stroke-miterlimit:4;stroke-dasharray:none;stroke-opacity:1;enable-background:new"
       d="m 85,505 a 6,6 0 0 0 -6,6 6,6 0 0 0 0.0254,0.49219 A 6,6 0 0 1 85,506 6,6 0 0 1 88.48633,507.12305 10,10 0 0 1 90,507 10,10 0 0 1 99.97852,516.56055 10,10 0 0 0 100,516 10,10 0 0 0 90,506 10,10 0 0 0 88.48632,506.12305 6,6 0 0 0 85,505 Z m -4.9668,10.34766 A 10,10 0 0 0 80,516 a 10,10 0 0 0 0.0215,0.43945 10,10 0 0 1 0.10547,-0.95117 6,6 0 0 1 -0.0937,-0.14062 z m 19.9336,2.30468 a 10,10 0 0 1 -0.0937,0.85938 6,6 0 0 1 1.10156,2.99609 6,6 0 0 0 0.0254,-0.50781 6,6 0 0 0 -1.0332,-3.34766 z"
       id="path4531"
       inkscape:connector-curvature="0" />
    <path
       style="display:inline;opacity:1;fill:#ffffff;fill-opacity:0.2;stroke:none;stroke-width:2;stroke-miterlimit:4;stroke-dasharray:none;stroke-opacity:1;enable-background:new"
       d="m 184,483 a 11,11 0 0 0 -11,11 11,11 0 0 0 0.0215,0.40625 A 11,11 0 0 1 184,484 11,11 0 0 1 189.5625,485.52344 20,20 0 0 1 194,485 a 20,20 0 0 1 19.98047,19.625 20,20 0 0 0 0.0195,-0.625 20,20 0 0 0 -20,-20 20,20 0 0 0 -4.4375,0.52344 A 11,11 0 0 0 184,483 Z m -9.61719,17.31055 A 20,20 0 0 0 174,504 a 20,20 0 0 0 0.0195,0.375 20,20 0 0 1 0.5,-3.82227 11,11 0 0 1 -0.13672,-0.24218 z m 39.23438,8.3789 a 20,20 0 0 1 -0.13672,0.75782 11,11 0 0 1 1.49805,5.14648 11,11 0 0 0 0.0215,-0.59375 11,11 0 0 0 -1.38281,-5.31055 z"
       id="path4533"
       inkscape:connector-curvature="0" />
    <path
       inkscape:connector-curvature="0"
       style="display:inline;opacity:1;fill:#000000;fill-opacity:0.2;stroke:none;stroke-width:2;stroke-miterlimit:4;stroke-dasharray:none;stroke-opacity:1;enable-background:new"
       d="m 50,507 a 6,6 0 0 0 -6,6 6,6 0 0 0 1.12695,3.48828 A 10,10 0 0 0 45,518 10,10 0 0 0 55,528 10,10 0 0 0 56.51367,527.87695 6,6 0 0 0 60,529 6,6 0 0 0 66,523 6,6 0 0 0 64.87305,519.51172 10,10 0 0 0 65,518 10,10 0 0 0 55,508 10,10 0 0 0 53.48633,508.12305 6,6 0 0 0 50,507 Z"
       id="path4530" />
    <path
       inkscape:connector-curvature="0"
       style="display:inline;opacity:1;fill:#000000;fill-opacity:0.2;stroke:none;stroke-width:3.99999809;stroke-miterlimit:4;stroke-dasharray:none;stroke-opacity:1;enable-background:new"
       d="m 252,467.00006 a 16,15.999985 0 0 0 -16,15.99998 16,15.999985 0 0 0 2.52734,8.63281 A 28,27.999974 0 0 0 238,497.00003 28,27.999974 0 0 0 266,525 28,27.999974 0 0 0 271.3711,524.45704 16,15.999985 0 0 0 280,527 16,15.999985 0 0 0 296,511.00001 16,15.999985 0 0 0 293.47266,502.3672 28,27.999974 0 0 0 294,497.00003 28,27.999974 0 0 0 266,469.00005 28,27.999974 0 0 0 260.6289,469.54301 16,15.999985 0 0 0 252,467.00006 Z"
       id="path4559" />
    <path
       inkscape:connector-curvature="0"
       id="path4561"
       d="m 252,466.00006 a 16,15.999985 0 0 0 -16,15.99998 16,15.999985 0 0 0 2.52734,8.63281 A 28,27.999974 0 0 0 238,496.00003 28,27.999974 0 0 0 266,524 28,27.999974 0 0 0 271.3711,523.45704 16,15.999985 0 0 0 280,526 16,15.999985 0 0 0 296,510.00002 16,15.999985 0 0 0 293.47266,501.3672 28,27.999974 0 0 0 294,496.00003 28,27.999974 0 0 0 266,468.00006 28,27.999974 0 0 0 260.6289,468.54302 16,15.999985 0 0 0 252,466.00006 Z"
       style="display:inline;opacity:1;fill:#00a9f2;fill-opacity:1;stroke:none;stroke-width:3.99999809;stroke-miterlimit:4;stroke-dasharray:none;stroke-opacity:1;enable-background:new" />
    <path
       id="path4563"
       d="m 265.44362,477.39611 c 9.19706,0 13.93864,4.85441 13.93864,7.69467 0,2.84032 -1.3736,3.30614 -3.63106,3.30614 -4.38186,0 -2.58208,-5.2664 -10.80538,-5.2664 -2.72362,0 -6.09084,1.21832 -6.09084,4.3887 0,2.54374 2.97044,3.47931 8.28704,4.76897 7.99296,2.13984 14.02652,4.30522 14.02652,11.61523 0,7.10072 -5.85436,10.64979 -15.05142,10.64979 -9.19706,0 -15.0514,-5.49819 -15.0514,-8.33849 0,-2.84014 1.11008,-3.56926 3.36754,-3.56926 4.38186,0 3.7534,5.96844 11.97668,5.96844 2.72362,0 6.73508,-1.2183 6.73508,-4.38858 0,-2.54372 -0.1746,-3.44269 -6.003,-5.00309 -6.22678,-0.84832 -16.31056,-2.86698 -16.31056,-10.59117 0,-7.1007 5.4151,-11.23493 14.61216,-11.23493 z"
       style="display:inline;fill:#f5f5f5;fill-opacity:1;fill-rule:nonzero;stroke:none;stroke-width:1.99999905;enable-background:new"
       inkscape:connector-curvature="0"
       sodipodi:nodetypes="ssssscsssssscss" />
    <path
       style="display:inline;opacity:1;fill:#ffffff;fill-opacity:0.2;stroke:none;stroke-width:3.99999809;stroke-miterlimit:4;stroke-dasharray:none;stroke-opacity:1;enable-background:new"
       d="m 252,466 a 16,15.999985 0 0 0 -16,16 16,15.999985 0 0 0 0.0215,0.41602 A 16,15.999985 0 0 1 252,467 16,15.999985 0 0 1 260.62891,469.54297 28,27.999974 0 0 1 266,469 28,27.999974 0 0 1 293.97461,496.50391 28,27.999974 0 0 0 294,496 28,27.999974 0 0 0 266,468 28,27.999974 0 0 0 260.62891,468.54297 16,15.999985 0 0 0 252,466 Z m -13.70703,26.23828 A 28,27.999974 0 0 0 238,496 a 28,27.999974 0 0 0 0.0176,0.34961 28,27.999974 0 0 1 0.27539,-3.11133 16,15.999985 0 0 0 0.10742,0.18164 28,27.999974 0 0 1 0.12695,-0.78711 16,15.999985 0 0 1 -0.23437,-0.39453 z m 55.41406,9.52344 a 28,27.999974 0 0 1 -0.23437,1.60547 16,15.999985 0 0 1 0.11523,0.20508 28,27.999974 0 0 0 0.11914,-0.81055 16,15.999985 0 0 1 2.27149,7.81836 16,15.999985 0 0 0 0.0215,-0.58008 16,15.999985 0 0 0 -2.29297,-8.23828 z"
       id="path4565"
       inkscape:connector-curvature="0" />
    <path
       id="path4572"
       d="M 458,34.00069 A 128,127.99988 0 0 0 330,162.00053 128,127.99988 0 0 0 350.21872,231.06301 224,223.99979 0 0 0 346,274.00045 224,223.99979 0 0 0 570,498.00021 224,223.99979 0 0 0 612.9688,493.65653 128,127.99988 0 0 0 682,514.00021 128,127.99988 0 0 0 810,386.00029 128,127.99988 0 0 0 789.78128,316.93781 224,223.99979 0 0 0 794,274.00045 224,223.99979 0 0 0 570,50.00061 224,223.99979 0 0 0 527.0312,54.34429 128,127.99988 0 0 0 458,34.00069 Z"
       style="display:inline;opacity:1;fill:#000000;fill-opacity:0.2;stroke:none;stroke-width:31.99998665;stroke-miterlimit:4;stroke-dasharray:none;stroke-opacity:1;enable-background:new"
       inkscape:connector-curvature="0" />
    <path
       inkscape:connector-curvature="0"
       style="display:inline;opacity:1;fill:#000000;fill-opacity:0.2;stroke:none;stroke-width:31.99998665;stroke-miterlimit:4;stroke-dasharray:none;stroke-opacity:1;filter:url(#filter4586);enable-background:new"
       d="M 458,34.00069 A 128,127.99988 0 0 0 330,162.00053 128,127.99988 0 0 0 350.21872,231.06301 224,223.99979 0 0 0 346,274.00045 224,223.99979 0 0 0 570,498.00021 224,223.99979 0 0 0 612.9688,493.65653 128,127.99988 0 0 0 682,514.00021 128,127.99988 0 0 0 810,386.00029 128,127.99988 0 0 0 789.78128,316.93781 224,223.99979 0 0 0 794,274.00045 224,223.99979 0 0 0 570,50.00061 224,223.99979 0 0 0 527.0312,54.34429 128,127.99988 0 0 0 458,34.00069 Z"
       id="path4580" />
    <path
       style="display:inline;opacity:1;fill:#00a9f2;fill-opacity:1;stroke:none;stroke-width:31.99998665;stroke-miterlimit:4;stroke-dasharray:none;stroke-opacity:1;enable-background:new"
       d="M 458,32.00069 A 128,127.99988 0 0 0 330,160.00053 128,127.99988 0 0 0 350.21872,229.06301 224,223.99979 0 0 0 346,272.00045 224,223.99979 0 0 0 570,496.00021 224,223.99979 0 0 0 612.9688,491.65653 128,127.99988 0 0 0 682,512.00021 128,127.99988 0 0 0 810,384.00037 128,127.99988 0 0 0 789.78128,314.93781 224,223.99979 0 0 0 794,272.00045 224,223.99979 0 0 0 570,48.00069 224,223.99979 0 0 0 527.0312,52.34437 128,127.99988 0 0 0 458,32.00069 Z"
       id="path4574"
       inkscape:connector-curvature="0" />
    <path
       sodipodi:nodetypes="ssssscsssssscss"
       inkscape:connector-curvature="0"
       style="display:inline;fill:#f5f5f5;fill-opacity:1;fill-rule:nonzero;stroke:none;stroke-width:15.99999332;enable-background:new"
       d="m 565.54896,123.16909 c 73.57648,0 111.50912,38.83528 111.50912,61.55736 0,22.72256 -10.9888,26.44912 -29.04848,26.44912 -35.05488,0 -20.65664,-42.1312 -86.44304,-42.1312 -21.78896,0 -48.72672,9.74656 -48.72672,35.1096 0,20.34992 23.76352,27.83448 66.29632,38.15176 63.94368,17.11872 112.21216,34.44176 112.21216,92.92184 0,56.80576 -46.83488,85.19832 -120.41136,85.19832 -73.57648,0 -120.4112,-43.98552 -120.4112,-66.70792 0,-22.72112 8.88064,-28.55408 26.94032,-28.55408 35.05488,0 30.0272,47.74752 95.81344,47.74752 21.78896,0 53.88064,-9.7464 53.88064,-35.10864 0,-20.34976 -1.3968,-27.54152 -48.024,-40.02472 -49.81424,-6.78656 -130.48448,-22.93584 -130.48448,-84.72936 0,-56.8056 43.3208,-89.87944 116.89728,-89.87944 z"
       id="path4576" />
    <path
       style="display:inline;opacity:1;fill:#ffffff;fill-opacity:0.2;stroke:none;stroke-width:31.99998665;stroke-miterlimit:4;stroke-dasharray:none;stroke-opacity:1;enable-background:new"
       d="m 458,32 a 128,127.99988 0 0 0 -128,128 128,127.99988 0 0 0 0.041,0.8125 A 128,127.99988 0 0 1 458,34 128,127.99988 0 0 1 527.03125,54.34375 224,223.99979 0 0 1 570,50 224,223.99979 0 0 1 793.94922,272.99609 224,223.99979 0 0 0 794,272 224,223.99979 0 0 0 570,48 224,223.99979 0 0 0 527.03125,52.34375 128,127.99988 0 0 0 458,32 Z M 348.34375,241.90625 A 224,223.99979 0 0 0 346,272 a 224,223.99979 0 0 0 0.0352,0.71094 224,223.99979 0 0 1 2.30859,-28.80469 128,127.99988 0 0 0 1.62109,2.72852 224,223.99979 0 0 1 0.25391,-1.57227 128,127.99988 0 0 1 -1.875,-3.15625 z m 443.3125,76.1875 a 224,223.99979 0 0 1 -1.875,12.84375 128,127.99988 0 0 1 0.23242,0.41211 224,223.99979 0 0 0 1.64258,-11.25586 128,127.99988 0 0 1 18.30078,65.06445 128,127.99988 0 0 0 0.043,-1.1582 128,127.99988 0 0 0 -18.34375,-65.90625 z"
       id="path4578"
       inkscape:connector-curvature="0" />
    <path
       style="display:inline;fill:url(#linearGradient4171-1-0);fill-opacity:1;stroke:none;stroke-width:2;stroke-linecap:round;stroke-linejoin:round;stroke-miterlimit:4;stroke-dasharray:none;stroke-opacity:1;enable-background:new"
       d="m 184,483 a 11,11 0 0 0 -11,11 11,11 0 0 0 0.32617,2.57812 11,11 0 0 0 0,0.002 11,11 0 0 0 1.19336,2.97265 A 20,20 0 0 0 174,504 a 20,20 0 0 0 20,20 20,20 0 0 0 4.4375,-0.52344 11,11 0 0 0 2.97852,1.20508 21.99977,21.999992 0 0 0 0.002,0 11,11 0 0 0 1.08008,0.20898 11,11 0 0 0 0.87109,0.0801 11,11 0 0 0 0.25781,0.0195 11,11 0 0 0 0.373,0.01 11,11 0 0 0 11,-11 11,11 0 0 0 -0.32617,-2.57812 21.999769,21.999992 0 0 0 0,-0.002 11,11 0 0 0 -1.19336,-2.97265 A 20,20 0 0 0 214,504 a 20,20 0 0 0 -20,-20 20,20 0 0 0 -4.4375,0.52344 11,11 0 0 0 -2.97852,-1.20508 11,11 0 0 0 -0.002,0 11,11 0 0 0 -1.08008,-0.20898 11,11 0 0 0 -0.87109,-0.0801 11,11 0 0 0 -0.25781,-0.0195 11,11 0 0 0 -0.373,-0.01 z"
       id="circle4163-3-4"
       inkscape:connector-curvature="0" />
    <path
       style="display:inline;fill:url(#linearGradient4435);fill-opacity:1;stroke:none;stroke-width:2;stroke-linecap:round;stroke-linejoin:round;stroke-miterlimit:4;stroke-dasharray:none;stroke-opacity:1;enable-background:new"
       d="m 131,497 a 8,8 0 0 0 -8,8 8,8 0 0 0 0.53711,2.85547 8,8 0 0 0 0.0312,0.0898 8,8 0 0 0 0.69531,1.3711 A 14,14 0 0 0 124,512 a 14,14 0 0 0 14,14 14,14 0 0 0 2.68555,-0.27148 8,8 0 0 0 1.36328,0.69921 8,8 0 0 0 0.64453,0.22071 8,8 0 0 0 0.12305,0.041 8,8 0 0 0 0.71093,0.16602 8,8 0 0 0 0.0566,0.0137 8,8 0 0 0 0.004,0 8,8 0 0 0 0.58594,0.0781 8,8 0 0 0 0.22851,0.0293 8,8 0 0 0 0.59761,0.0234 8,8 0 0 0 8,-8 8,8 0 0 0 -0.53711,-2.85547 8,8 0 0 0 -0.0312,-0.0898 8,8 0 0 0 -0.69531,-1.3711 14,14 0 0 0 0.26362,-2.68363 14,14 0 0 0 -14,-14 14,14 0 0 0 -2.68555,0.27148 8,8 0 0 0 -1.36328,-0.69921 8,8 0 0 0 -0.002,0 8,8 0 0 0 -0.70313,-0.24219 8,8 0 0 0 -0.0527,-0.0176 8,8 0 0 0 -0.006,-0.002 8,8 0 0 0 -0.77344,-0.17969 8,8 0 0 0 -0.61328,-0.082 8,8 0 0 0 -0.20117,-0.0234 A 8,8 0 0 0 131,497 Z"
       id="path4433"
       inkscape:connector-curvature="0" />
    <path
       style="display:inline;fill:url(#linearGradient4449-0);fill-opacity:1;stroke:none;stroke-width:16;stroke-linecap:round;stroke-linejoin:round;stroke-miterlimit:4;stroke-dasharray:none;stroke-opacity:1;enable-background:new"
       d="m 458,32 a 128,127.99988 0 0 0 -37.82617,5.7168 128,127.99988 0 0 0 -23.54102,9.95313 128,127.99988 0 0 0 -10.90625,6.6875 128,127.99988 0 0 0 -19.54883,16.46484 128,127.99988 0 0 0 -22.25195,31.11718 128,127.99988 0 0 0 -5.22656,11.67774 128,127.99988 0 0 0 0,0.002 128,127.99988 0 0 0 -4.03516,12.14063 A 128,127.99988 0 0 0 330,160 128,127.99988 0 0 0 339.10938,207.13867 128,127.99988 0 0 0 350.21875,229.0625 224,223.99979 0 0 0 346,272 a 224,223.99979 0 0 0 224,224 224,223.99979 0 0 0 42.96875,-4.34375 128,127.99988 0 0 0 21.82227,11.18555 128,127.99988 0 0 0 10.99414,3.77148 128,127.99988 0 0 0 1.21875,0.40625 128,127.99988 0 0 0 9.69336,2.27735 128,127.99988 0 0 0 2.92578,0.6582 128,127.99988 0 0 0 8.3125,1.0918 128,127.99988 0 0 0 4.56054,0.55859 A 128,127.99988 0 0 0 682,512 128,127.99988 0 0 0 810,384 a 128,127.99988 0 0 0 -9.09375,-47.0957 128,127.99988 0 0 0 -0.0176,-0.0488 128,127.99988 0 0 0 -11.1074,-21.918 A 224,223.99979 0 0 0 794,272 224,223.99979 0 0 0 570,48 a 224,223.99979 0 0 0 -42.96875,4.34375 128,127.99988 0 0 0 -21.82813,-11.1875 128,127.99988 0 0 0 -10.83398,-3.71679 128,127.99988 0 0 0 -1.39648,-0.4668 128,127.99988 0 0 0 -9.71094,-2.2793 128,127.99988 0 0 0 -2.87891,-0.64843 128,127.99988 0 0 0 -8.27539,-1.08594 128,127.99988 0 0 0 -4.625,-0.56446 A 128,127.99988 0 0 0 458,32 Z"
       id="path4447"
       inkscape:connector-curvature="0" />
    <path
       style="display:inline;fill:url(#linearGradient4537);fill-opacity:1;stroke:none;stroke-width:2;stroke-linecap:round;stroke-linejoin:round;stroke-miterlimit:4;stroke-dasharray:none;stroke-opacity:1;enable-background:new"
       d="m 252,466 a 16,15.999985 0 0 0 -16,16 16,15.999985 0 0 0 1.13867,5.89062 16,15.999985 0 0 0 0,0.002 16,15.999985 0 0 0 1.38867,2.74023 A 28,27.999974 0 0 0 238,496 a 28,27.999974 0 0 0 28,28 28,27.999974 0 0 0 5.37109,-0.54297 16,15.999985 0 0 0 2.72657,1.39844 16,15.999985 0 0 0 0.006,0.002 16,15.999985 0 0 0 1.31054,0.44922 16,15.999985 0 0 0 0.2168,0.0723 16,15.999985 0 0 0 1.19336,0.28125 16,15.999985 0 0 0 0.37695,0.084 16,15.999985 0 0 0 1.09961,0.14453 16,15.999985 0 0 0 0.50391,0.0605 16,15.999985 0 0 0 1.19517,0.0507 16,15.999985 0 0 0 16,-16 16,15.999985 0 0 0 -1.11133,-5.81836 16,15.999985 0 0 0 -0.0273,-0.0762 16,15.999985 0 0 0 -1.38867,-2.73828 28,27.999974 0 0 0 0.5273,-5.36716 28,27.999974 0 0 0 -28,-28 28,27.999974 0 0 0 -5.37109,0.54297 16,15.999985 0 0 0 -2.72852,-1.39844 16,15.999985 0 0 0 -1.38281,-0.47461 16,15.999985 0 0 0 -0.13086,-0.0449 16,15.999985 0 0 0 -0.0137,-0.004 16,15.999985 0 0 0 -1.2461,-0.29101 16,15.999985 0 0 0 -0.32617,-0.0742 16,15.999985 0 0 0 -1.13086,-0.14648 16,15.999985 0 0 0 -0.47265,-0.0586 A 16,15.999985 0 0 0 252,466 Z"
       id="path4535"
       inkscape:connector-curvature="0" />
    <path
       style="display:inline;fill:url(#linearGradient4620);fill-opacity:1;stroke:none;stroke-width:1.46667397;stroke-linecap:round;stroke-linejoin:round;stroke-miterlimit:4;stroke-dasharray:none;stroke-opacity:1;enable-background:new"
       d="M 85,505 A 6,6 0 0 0 84.40039,505.0293 6,6 0 0 0 79,511 a 6,6 0 0 0 0.38281,2.07812 6,6 0 0 0 0.0137,0.0371 6,6 0 0 0 0.73047,1.37305 A 10,10 0 0 0 80,516 a 10,10 0 0 0 10,10 10,10 0 0 0 1.51367,-0.12305 6,6 0 0 0 1.36719,0.72461 6,6 0 0 0 0.52148,0.17188 6,6 0 0 0 0.0879,0.0234 6,6 0 0 0 0.45118,0.0996 6,6 0 0 0 0.17578,0.0312 6,6 0 0 0 0.3789,0.043 6,6 0 0 0 0.30469,0.0215 6,6 0 0 0 0.19922,0.008 6,6 0 0 0 5.5918,-3.82617 6,6 0 0 0 0.18945,-0.56836 6,6 0 0 0 0.21875,-1.60547 6,6 0 0 0 -0.38281,-2.07812 6,6 0 0 0 -0.0137,-0.0371 6,6 0 0 0 -0.73047,-1.37305 10,10 0 0 0 0.12695,-1.51172 10,10 0 0 0 -10,-10 10,10 0 0 0 -1.51367,0.12305 6,6 0 0 0 -1.36914,-0.72657 6,6 0 0 0 -0.0137,-0.004 6,6 0 0 0 -0.51563,-0.16797 6,6 0 0 0 -0.0703,-0.0195 6,6 0 0 0 -0.46679,-0.10352 6,6 0 0 0 -0.16407,-0.0273 6,6 0 0 0 -0.38867,-0.0449 6,6 0 0 0 -0.29883,-0.0215 A 6,6 0 0 0 85,505 Z"
       id="path4618-3"
       inkscape:connector-curvature="0" />
    <path
       inkscape:connector-curvature="0"
       id="path4532"
       d="m 50,506 a 6,6 0 0 0 -6,6 6,6 0 0 0 1.126953,3.48828 A 10,10 0 0 0 45,517 10,10 0 0 0 55,527 10,10 0 0 0 56.513672,526.87695 6,6 0 0 0 60,528 6,6 0 0 0 66,522 6,6 0 0 0 64.873047,518.51172 10,10 0 0 0 65,517 10,10 0 0 0 55,507 10,10 0 0 0 53.486328,507.12305 6,6 0 0 0 50,506 Z"
       style="display:inline;opacity:1;fill:#00a9f2;fill-opacity:1;stroke:none;stroke-width:2;stroke-miterlimit:4;stroke-dasharray:none;stroke-opacity:1;enable-background:new" />
    <path
       inkscape:connector-curvature="0"
       id="path4536"
       d="m 50,506 a 6,6 0 0 0 -6,6 6,6 0 0 0 0.02539,0.49219 A 6,6 0 0 1 50,507 6,6 0 0 1 53.486328,508.12305 10,10 0 0 1 55,508 a 10,10 0 0 1 9.978516,9.56055 10,10 0 0 0 0.02148,-0.56055 10,10 0 0 0 -10,-10 10,10 0 0 0 -1.513672,0.12305 A 6,6 0 0 0 50,506 Z m -4.966797,10.34766 A 10,10 0 0 0 45,517 a 10,10 0 0 0 0.02148,0.43945 10,10 0 0 1 0.105469,-0.95117 6,6 0 0 1 -0.09375,-0.14062 z m 19.933594,2.30468 a 10,10 0 0 1 -0.09375,0.85938 6,6 0 0 1 1.101563,2.99609 6,6 0 0 0 0.0254,-0.50781 6,6 0 0 0 -1.033203,-3.34766 z"
       style="display:inline;opacity:1;fill:#ffffff;fill-opacity:0.2;stroke:none;stroke-width:2;stroke-miterlimit:4;stroke-dasharray:none;stroke-opacity:1;enable-background:new" />
    <path
       sodipodi:nodetypes="ssssscsssssscss"
       inkscape:connector-curvature="0"
       style="display:inline;fill:#f5f5f5;fill-opacity:1;fill-rule:nonzero;stroke:none;enable-background:new"
       d="m 54.801294,510.35574 c 3.28466,0 4.978085,1.73371 4.978085,2.7481 0,1.01439 -0.490575,1.18076 -1.29681,1.18076 -1.56495,0 -0.92217,-1.88085 -3.859065,-1.88085 -0.97272,0 -2.1753,0.4351 -2.1753,1.56739 0,0.90847 1.060875,1.24261 2.95966,1.70321 2.854625,0.76422 5.00947,1.53757 5.00947,4.1483 0,2.53596 -2.09084,3.8035 -5.375505,3.8035 -3.284665,0 -5.3755,-1.96365 -5.3755,-2.97804 0,-1.01434 0.396455,-1.27474 1.20269,-1.27474 1.56495,0 1.3405,2.13159 4.27739,2.13159 0.97272,0 2.405385,-0.43511 2.405385,-1.56735 0,-0.90848 -0.06236,-1.22954 -2.14393,-1.78682 -2.22385,-0.30297 -5.8252,-1.02392 -5.8252,-3.78256 0,-2.53597 1.933965,-4.01249 5.21863,-4.01249 z"
       id="path4534" />
    <path
       style="display:inline;fill:url(#linearGradient4553);fill-opacity:1;stroke:none;stroke-width:1.46667397;stroke-linecap:round;stroke-linejoin:round;stroke-miterlimit:4;stroke-dasharray:none;stroke-opacity:1;enable-background:new"
       d="M 50,506 A 6,6 0 0 0 49.40039,506.0293 6,6 0 0 0 44,512 a 6,6 0 0 0 0.38281,2.07812 6,6 0 0 0 0.0137,0.0371 6,6 0 0 0 0.73047,1.37305 A 10,10 0 0 0 45,517 a 10,10 0 0 0 10,10 10,10 0 0 0 1.51367,-0.12305 6,6 0 0 0 1.36719,0.72461 6,6 0 0 0 0.52148,0.17188 6,6 0 0 0 0.0879,0.0234 6,6 0 0 0 0.45118,0.0996 6,6 0 0 0 0.17578,0.0312 6,6 0 0 0 0.3789,0.043 6,6 0 0 0 0.30469,0.0215 A 6,6 0 0 0 60,528 6,6 0 0 0 65.5918,524.17383 6,6 0 0 0 65.78125,523.60547 6,6 0 0 0 66,522 a 6,6 0 0 0 -0.38281,-2.07812 6,6 0 0 0 -0.0137,-0.0371 6,6 0 0 0 -0.73047,-1.37305 A 10,10 0 0 0 65,517 10,10 0 0 0 55,507 a 10,10 0 0 0 -1.51367,0.12305 6,6 0 0 0 -1.36914,-0.72657 6,6 0 0 0 -0.0137,-0.004 6,6 0 0 0 -0.51563,-0.16797 6,6 0 0 0 -0.0703,-0.0195 6,6 0 0 0 -0.46679,-0.10352 6,6 0 0 0 -0.16407,-0.0273 6,6 0 0 0 -0.38867,-0.0449 6,6 0 0 0 -0.29883,-0.0215 A 6,6 0 0 0 50,506 Z"
       id="path4551"
       inkscape:connector-curvature="0" />
  </g>
</svg>
