<?xml version="1.0" encoding="UTF-8" standalone="no"?>
<!-- Created with Inkscape (http://www.inkscape.org/) -->

<svg
   xmlns:dc="http://purl.org/dc/elements/1.1/"
   xmlns:cc="http://creativecommons.org/ns#"
   xmlns:rdf="http://www.w3.org/1999/02/22-rdf-syntax-ns#"
   xmlns:svg="http://www.w3.org/2000/svg"
   xmlns="http://www.w3.org/2000/svg"
   xmlns:xlink="http://www.w3.org/1999/xlink"
   xmlns:sodipodi="http://sodipodi.sourceforge.net/DTD/sodipodi-0.dtd"
   xmlns:inkscape="http://www.inkscape.org/namespaces/inkscape"
   width="842"
   height="544"
   viewBox="0 0 842 544"
   version="1.1"
   id="svg1087"
   inkscape:version="0.92.1 r"
   sodipodi:docname="spotify.svg">
  <defs
     id="defs1081">
    <linearGradient
       id="linearGradient4595"
       inkscape:collect="always">
      <stop
         id="stop4591"
         offset="0"
         style="stop-color:#ffffff;stop-opacity:0.05490196" />
      <stop
         id="stop4593"
         offset="1"
         style="stop-color:#177ed5;stop-opacity:0;" />
    </linearGradient>
    <linearGradient
       id="linearGradient4589"
       inkscape:collect="always">
      <stop
         id="stop4585"
         offset="0"
         style="stop-color:#ffffff;stop-opacity:0.05490196" />
      <stop
         id="stop4587"
         offset="1"
         style="stop-color:#177ed5;stop-opacity:0;" />
    </linearGradient>
    <filter
       inkscape:collect="always"
       style="color-interpolation-filters:sRGB"
       id="filter5087"
       x="-0.048"
       width="1.096"
       y="-0.048"
       height="1.096">
      <feGaussianBlur
         inkscape:collect="always"
         stdDeviation="0.8"
         id="feGaussianBlur5089" />
    </filter>
    <linearGradient
       inkscape:collect="always"
       xlink:href="#linearGradient4595"
       id="linearGradient4435"
       gradientUnits="userSpaceOnUse"
       gradientTransform="matrix(0.65217041,0,0,0.65217328,122.34782,-158.67016)"
       x1="7"
       y1="1011.3622"
       x2="41.000019"
       y2="1045.3622" />
    <linearGradient
       inkscape:collect="always"
       xlink:href="#linearGradient4589"
       id="linearGradient4347"
       gradientUnits="userSpaceOnUse"
       gradientTransform="matrix(0.47825838,0,0,0.47826068,78.521729,24.17493)"
       x1="7"
       y1="1011.3622"
       x2="41.000019"
       y2="1045.3622" />
    <linearGradient
       inkscape:collect="always"
       xlink:href="#linearGradient4595"
       id="linearGradient4171-1-0"
       x1="7"
       y1="1011.3622"
       x2="41.000019"
       y2="1045.3622"
       gradientUnits="userSpaceOnUse"
       gradientTransform="matrix(0.95652174,0,0,0.95652174,171.04348,-479.6504)" />
    <linearGradient
       inkscape:collect="always"
       xlink:href="#linearGradient4595"
       id="linearGradient4449-0"
       gradientUnits="userSpaceOnUse"
       gradientTransform="matrix(10.43473,0,0,10.434772,319.5652,-10458.722)"
       x1="7"
       y1="1011.3622"
       x2="41.000019"
       y2="1045.3622" />
    <linearGradient
       inkscape:collect="always"
       xlink:href="#linearGradient4595"
       id="linearGradient4541"
       gradientUnits="userSpaceOnUse"
       gradientTransform="matrix(1.3043412,0,0,1.3043465,234.69565,-845.3401)"
       x1="7"
       y1="1011.3622"
       x2="41.000019"
       y2="1045.3622" />
    <filter
       inkscape:collect="always"
       style="color-interpolation-filters:sRGB"
       id="filter4554"
       x="-0.01199998"
       width="1.024"
       y="-0.01200002"
       height="1.024">
      <feGaussianBlur
         inkscape:collect="always"
         stdDeviation="0.2999985"
         id="feGaussianBlur4556" />
    </filter>
    <filter
       inkscape:collect="always"
       style="color-interpolation-filters:sRGB"
       id="filter4560"
       x="-0.011999967"
       width="1.0239999"
       y="-0.012000033"
       height="1.024">
      <feGaussianBlur
         inkscape:collect="always"
         stdDeviation="0.2199996"
         id="feGaussianBlur4562" />
    </filter>
    <filter
       inkscape:collect="always"
       style="color-interpolation-filters:sRGB"
       id="filter4610"
       x="-0.023999959"
       width="1.0479999"
       y="-0.024000039"
       height="1.0480001">
      <feGaussianBlur
         inkscape:collect="always"
         stdDeviation="4.799976"
         id="feGaussianBlur4612" />
    </filter>
    <linearGradient
       inkscape:collect="always"
       xlink:href="#linearGradient4589"
       id="linearGradient4555"
       gradientUnits="userSpaceOnUse"
       gradientTransform="matrix(0.47825838,0,0,0.47826068,45.52174,25.17493)"
       x1="7"
       y1="1011.3622"
       x2="41.000019"
       y2="1045.3622" />
  </defs>
  <sodipodi:namedview
     id="base"
     pagecolor="#c3c3c3"
     bordercolor="#333333"
     borderopacity="1"
     inkscape:pageopacity="0"
     inkscape:pageshadow="2"
     inkscape:zoom="0.24748737"
     inkscape:cx="435.66201"
     inkscape:cy="-684.92043"
     inkscape:document-units="px"
     inkscape:current-layer="layer1"
     showgrid="true"
     units="px"
     inkscape:showpageshadow="false"
     inkscape:window-width="1280"
     inkscape:window-height="1369"
     inkscape:window-x="1280"
     inkscape:window-y="35"
     inkscape:window-maximized="0">
    <inkscape:grid
       type="xygrid"
       id="grid4630" />
  </sodipodi:namedview>
  <metadata
     id="metadata1084">
    <rdf:RDF>
      <cc:Work
         rdf:about="">
        <dc:format>image/svg+xml</dc:format>
        <dc:type
           rdf:resource="http://purl.org/dc/dcmitype/StillImage" />
        <dc:title></dc:title>
        <cc:license
           rdf:resource="http://creativecommons.org/licenses/by-sa/4.0/" />
        <dc:creator>
          <cc:Agent>
            <dc:title>Peter Cornelis</dc:title>
          </cc:Agent>
        </dc:creator>
      </cc:Work>
      <cc:License
         rdf:about="http://creativecommons.org/licenses/by-sa/4.0/">
        <cc:permits
           rdf:resource="http://creativecommons.org/ns#Reproduction" />
        <cc:permits
           rdf:resource="http://creativecommons.org/ns#Distribution" />
        <cc:requires
           rdf:resource="http://creativecommons.org/ns#Notice" />
        <cc:requires
           rdf:resource="http://creativecommons.org/ns#Attribution" />
        <cc:permits
           rdf:resource="http://creativecommons.org/ns#DerivativeWorks" />
        <cc:requires
           rdf:resource="http://creativecommons.org/ns#ShareAlike" />
      </cc:License>
    </rdf:RDF>
  </metadata>
  <g
     inkscape:label="Baseplate"
     inkscape:groupmode="layer"
     id="layer1"
     transform="translate(0,-153.06668)"
     style="display:none">
    <rect
       style="display:inline;overflow:visible;visibility:visible;fill:#fefefe;fill-opacity:1;fill-rule:nonzero;stroke:none;stroke-width:2;marker:none;enable-background:accumulate"
       id="rect3951"
       width="512"
       height="512"
       x="-826"
       y="169.06668"
       inkscape:label="48x48"
       transform="scale(-1,1)" />
    <text
       y="733.32251"
       xml:space="preserve"
       x="15.006836"
       style="font-style:normal;font-variant:normal;font-weight:normal;font-stretch:normal;line-height:0%;font-family:'DejaVu Sans';-inkscape-font-specification:'DejaVu Sans';display:inline;fill:#000000;fill-opacity:1;stroke:none;enable-background:new"
       inkscape:label="context"
       id="context"><tspan
         style="font-style:normal;font-variant:normal;font-weight:normal;font-stretch:normal;font-size:18px;line-height:1.25;font-family:'DejaVu Sans';-inkscape-font-specification:'DejaVu Sans'"
         y="733.32251"
         x="15.006836"
         sodipodi:role="line"
         id="tspan3933">apps</tspan></text>
    <text
       y="733.32251"
       xml:space="preserve"
       x="142.48828"
       style="font-style:normal;font-variant:normal;font-weight:bold;font-stretch:normal;line-height:0%;font-family:'DejaVu Sans';-inkscape-font-specification:'DejaVu Sans Bold';text-align:start;writing-mode:lr-tb;text-anchor:start;display:inline;fill:#000000;fill-opacity:1;stroke:none;enable-background:new"
       inkscape:label="icon-name"
       id="icon-name"><tspan
         style="font-style:normal;font-variant:normal;font-weight:bold;font-stretch:normal;font-size:18px;line-height:1.25;font-family:'DejaVu Sans';-inkscape-font-specification:'DejaVu Sans Bold'"
         y="733.32251"
         x="142.48828"
         sodipodi:role="line"
         id="tspan3937">spotify</tspan></text>
    <rect
       style="display:inline;overflow:visible;visibility:visible;fill:#fefefe;fill-opacity:1;fill-rule:nonzero;stroke:none;stroke-width:2;marker:none;enable-background:accumulate"
       id="rect16x16"
       width="16"
       height="16"
       x="-32"
       y="665.06665"
       inkscape:label="16x16"
       transform="scale(-1,1)" />
    <rect
       style="display:inline;overflow:visible;visibility:visible;fill:#fefefe;fill-opacity:1;fill-rule:nonzero;stroke:none;stroke-width:2;marker:none;enable-background:accumulate"
       id="rect24x24"
       width="24"
       height="24"
       x="-102"
       y="657.06665"
       inkscape:label="24x24"
       transform="scale(-1,1)" />
    <rect
       style="display:inline;overflow:visible;visibility:visible;fill:#fefefe;fill-opacity:1;fill-rule:nonzero;stroke:none;stroke-width:2;marker:none;enable-background:accumulate"
       id="rect32x32"
       width="32"
       height="32"
       x="-154"
       y="649.06665"
       inkscape:label="32x32"
       transform="scale(-1,1)" />
    <rect
       inkscape:label="48x48"
       y="633.06665"
       x="-218"
       height="48"
       width="48"
       id="rect48x48"
       style="display:inline;overflow:visible;visibility:visible;fill:#fefefe;fill-opacity:1;fill-rule:nonzero;stroke:none;stroke-width:2;marker:none;enable-background:accumulate"
       transform="scale(-1,1)" />
    <rect
       transform="scale(-1,1)"
       inkscape:label="48x48"
       y="617.06665"
       x="-298"
       height="64"
       width="64"
       id="rect4529"
       style="display:inline;overflow:visible;visibility:visible;fill:#fefefe;fill-opacity:1;fill-rule:nonzero;stroke:none;stroke-width:0.25;marker:none;enable-background:accumulate" />
    <rect
       transform="scale(-1,1)"
       inkscape:label="24x24"
       y="659.06665"
       x="-68"
       height="22"
       width="22"
       id="rect4543"
       style="display:inline;overflow:visible;visibility:visible;fill:#fefefe;fill-opacity:1;fill-rule:nonzero;stroke:none;stroke-width:1.83333325;marker:none;enable-background:accumulate" />
  </g>
  <g
     inkscape:groupmode="layer"
     id="layer2"
     inkscape:label="Bitmap"
     style="display:inline">
    <path
       sodipodi:nodetypes="sscsscsscsscs"
       inkscape:connector-curvature="0"
       id="path5069"
       d="m 177,485 c -1.66505,0 -3,1.2912 -3,3 v 17 17 c 0,1.8617 1.34224,3 3,3 h 17 17 c 1.73784,0 3,-1.2767 3,-3 v -17 -17 c 0,-1.6942 -1.29127,-3 -3,-3 h -17 z"
       style="display:inline;fill:none;fill-opacity:0.5;stroke:none;stroke-width:2;stroke-linecap:round;stroke-linejoin:round;stroke-miterlimit:4;stroke-dasharray:none;stroke-opacity:1;filter:url(#filter5087);enable-background:new" />
    <path
       style="display:inline;fill:none;fill-opacity:0.5;stroke:none;stroke-width:2;stroke-linecap:round;stroke-linejoin:round;stroke-miterlimit:4;stroke-dasharray:none;stroke-opacity:1;filter:url(#filter5087);enable-background:new"
       d="m 177,485 c -1.66505,0 -3,1.2912 -3,3 v 17 17 c 0,1.8617 1.34224,3 3,3 h 17 17 c 1.73784,0 3,-1.2767 3,-3 v -17 -17 c 0,-1.6942 -1.29127,-3 -3,-3 h -17 z"
       id="path4506"
       inkscape:connector-curvature="0"
       sodipodi:nodetypes="sscsscsscsscs" />
    <rect
       style="display:inline;fill:#82e861;fill-opacity:1;stroke:none;stroke-opacity:0.1;enable-background:new"
       id="rect4413"
       width="16"
       height="16"
       x="16"
       y="512"
       rx="8"
       ry="8" />
    <path
       inkscape:connector-curvature="0"
       id="path4558"
       d="m 194,483.0002 a 21.99977,21.999992 0 0 0 -1.89063,0.095 21.999769,21.999992 0 0 0 -1.03685,0.1252 21.99977,21.999992 0 0 0 -1.14334,0.1737 21.999769,21.999992 0 0 0 -1.02191,0.2298 21.99977,21.999992 0 0 0 -1.10224,0.2803 21.999769,21.999992 0 0 0 -1.01631,0.3381 21.99977,21.999992 0 0 0 -1.06488,0.3886 21.999769,21.999992 0 0 0 -0.9752,0.4372 21.99977,21.999992 0 0 0 -1.00883,0.4876 21.999769,21.999992 0 0 0 -0.93971,0.538 21.99977,21.999992 0 0 0 -0.95465,0.5848 21.999769,21.999992 0 0 0 -0.87619,0.6277 21.99977,21.999992 0 0 0 -0.89301,0.68 21.999769,21.999992 0 0 0 -0.78838,0.6912 21.99977,21.999992 0 0 0 -0.8463,0.7881 A 21.999769,21.999992 0 0 0 172,505 a 21.999769,21.999992 0 0 0 6.19684,15.3043 h 0.0318 a 21.99977,21.999992 0 0 0 15.7714,6.6957 21.99977,21.999992 0 0 0 1.86821,-0.094 21.999769,21.999992 0 0 0 1.08169,-0.1308 21.99977,21.999992 0 0 0 1.12092,-0.17 21.999769,21.999992 0 0 0 1.02191,-0.2297 21.99977,21.999992 0 0 0 1.10224,-0.2803 21.999769,21.999992 0 0 0 1.01631,-0.3381 21.99977,21.999992 0 0 0 1.06488,-0.3887 21.999769,21.999992 0 0 0 0.9752,-0.4371 21.99977,21.999992 0 0 0 1.00883,-0.4876 21.999769,21.999992 0 0 0 0.93971,-0.5381 21.99977,21.999992 0 0 0 0.95465,-0.5847 21.999769,21.999992 0 0 0 0.87619,-0.6277 21.99977,21.999992 0 0 0 0.893,-0.68 21.999769,21.999992 0 0 0 0.78839,-0.6912 21.99977,21.999992 0 0 0 0.84629,-0.7885 21.999769,21.999992 0 0 0 6.44158,-15.5333 21.999769,21.999992 0 0 0 -6.19871,-15.3044 h -0.0299 a 21.99977,21.999992 0 0 0 -15.7714,-6.6956 z"
       style="display:inline;fill:#000000;fill-opacity:0.2;stroke:none;stroke-width:2;stroke-linecap:round;stroke-linejoin:round;stroke-miterlimit:4;stroke-dasharray:none;stroke-opacity:1;filter:url(#filter4560);enable-background:new" />
    <circle
       style="display:inline;fill:#82e861;fill-opacity:1;stroke:none;stroke-width:2;stroke-linecap:round;stroke-linejoin:round;stroke-miterlimit:4;stroke-dasharray:none;stroke-opacity:1;enable-background:new"
       id="path4136"
       cx="194.00021"
       cy="503.99988"
       r="22" />
    <path
       inkscape:connector-curvature="0"
       style="display:inline;fill:#ffffff;fill-opacity:0.2;stroke:none;stroke-width:2;stroke-linecap:round;stroke-linejoin:round;stroke-miterlimit:4;stroke-dasharray:none;stroke-opacity:1;enable-background:new"
       d="m 193.99999,481.99991 a 22,22 0 0 0 -22,21.99999 22,22 0 0 0 0.0215,0.5859 A 22,22 0 0 1 194,482.99991 a 22,22 0 0 1 21.97852,21.41409 22,22 0 0 0 0.0215,-0.4141 22,22 0 0 0 -22,-21.99999 z"
       id="circle4149" />
    <path
       style="display:inline;fill:#000000;fill-opacity:0.2;stroke:none;stroke-width:2;stroke-linecap:round;stroke-linejoin:round;stroke-miterlimit:4;stroke-dasharray:none;stroke-opacity:1;enable-background:new"
       d="m 89.999929,506.0001 a 10.999828,10.999992 0 0 0 -0.94531,0.047 10.999827,10.999992 0 0 0 -0.51842,0.063 10.999828,10.999992 0 0 0 -0.57167,0.087 10.999827,10.999992 0 0 0 -0.51095,0.1149 10.999828,10.999992 0 0 0 -0.55112,0.1401 10.999827,10.999992 0 0 0 -0.50815,0.1691 10.999828,10.999992 0 0 0 -0.53244,0.1943 10.999827,10.999992 0 0 0 -0.48759,0.2186 10.999828,10.999992 0 0 0 -0.50442,0.2438 10.999827,10.999992 0 0 0 -0.46985,0.269 10.999828,10.999992 0 0 0 -0.47732,0.2924 10.999827,10.999992 0 0 0 -0.43809,0.3138 10.999828,10.999992 0 0 0 -0.44651,0.34 10.999827,10.999992 0 0 0 -0.39418,0.3456 10.999828,10.999992 0 0 0 -0.42315,0.3941 10.999827,10.999992 0 0 0 -3.22077,7.7672 10.999827,10.999992 0 0 0 3.0984,7.6522 h 0.0159 a 10.999828,10.999992 0 0 0 7.88566,3.3478 10.999828,10.999992 0 0 0 0.9341,-0.047 10.999827,10.999992 0 0 0 0.54085,-0.065 10.999828,10.999992 0 0 0 0.56045,-0.085 10.999827,10.999992 0 0 0 0.51095,-0.1148 10.999828,10.999992 0 0 0 0.55112,-0.1402 10.999827,10.999992 0 0 0 0.50815,-0.169 10.999828,10.999992 0 0 0 0.53244,-0.1944 10.999827,10.999992 0 0 0 0.4876,-0.2185 10.999828,10.999992 0 0 0 0.50441,-0.2438 10.999827,10.999992 0 0 0 0.46985,-0.2691 10.999828,10.999992 0 0 0 0.47733,-0.2923 10.999827,10.999992 0 0 0 0.43809,-0.3139 10.999828,10.999992 0 0 0 0.4465,-0.34 10.999827,10.999992 0 0 0 0.39419,-0.3456 10.999828,10.999992 0 0 0 0.42314,-0.3942 10.999827,10.999992 0 0 0 3.220781,-7.7667 10.999827,10.999992 0 0 0 -3.099341,-7.6522 h -0.0149 a 10.999828,10.999992 0 0 0 -7.88566,-3.3478 z"
       id="path4574"
       inkscape:connector-curvature="0" />
    <ellipse
       cy="515.99988"
       cx="90.000053"
       id="circle4335"
       style="display:inline;fill:#82e861;fill-opacity:1;stroke:none;stroke-width:2;stroke-linecap:round;stroke-linejoin:round;stroke-miterlimit:4;stroke-dasharray:none;stroke-opacity:1;enable-background:new"
       rx="10.999943"
       ry="10.999995" />
    <path
       inkscape:connector-curvature="0"
       style="display:inline;fill:#ffffff;fill-opacity:0.2;stroke:none;stroke-width:2;stroke-linecap:round;stroke-linejoin:round;stroke-miterlimit:4;stroke-dasharray:none;stroke-opacity:1;enable-background:new"
       d="m 89.999989,504.9999 a 10.999943,10.999996 0 0 0 -11,11 10.999943,10.999996 0 0 0 0.0098,0.23438 10.999943,10.999996 0 0 0 -0.0098,0.26562 10.999943,10.999996 0 0 0 0.01172,0.29297 10.999943,10.999996 0 0 1 10.98828,-10.79297 10.999943,10.999996 0 0 1 10.988281,10.70703 10.999943,10.999996 0 0 0 0.0117,-0.20703 10.999943,10.999996 0 0 0 -0.043,-0.84375 10.999943,10.999996 0 0 1 0.0312,0.55078 10.999943,10.999996 0 0 0 0.0117,-0.20703 10.999943,10.999996 0 0 0 -11.000001,-11 z m 0,0.5 a 10.999943,10.999996 0 0 0 -0.800781,0.0391 10.999943,10.999996 0 0 1 0.800781,-0.0391 z m 0.935547,0.0469 a 10.999943,10.999996 0 0 1 0.537109,0.0645 10.999943,10.999996 0 0 0 -0.537109,-0.0645 z m -2.347656,0.0547 a 10.999943,10.999996 0 0 0 -0.466797,0.0703 10.999943,10.999996 0 0 1 0.466797,-0.0703 z m 3.453125,0.0977 a 10.999943,10.999996 0 0 1 0.451172,0.0996 10.999943,10.999996 0 0 0 -0.451172,-0.0996 z m -4.542969,0.10156 a 10.999943,10.999996 0 0 0 -0.455078,0.11719 10.999943,10.999996 0 0 1 0.455078,-0.11719 z m 5.640625,0.16406 a 10.999943,10.999996 0 0 1 0.380859,0.12696 10.999943,10.999996 0 0 0 -0.380859,-0.12696 z m -6.681641,0.13477 a 10.999943,10.999996 0 0 0 -0.449219,0.16406 10.999943,10.999996 0 0 1 0.449219,-0.16406 z m 7.707031,0.22851 a 10.999943,10.999996 0 0 1 0.392579,0.17579 10.999943,10.999996 0 0 0 -0.392579,-0.17579 z m -8.777343,0.19922 a 10.999943,10.999996 0 0 0 -0.333985,0.16211 10.999943,10.999996 0 0 1 0.333985,-0.16211 z m 9.77539,0.26758 a 10.999943,10.999996 0 0 1 0.351563,0.20313 10.999943,10.999996 0 0 0 -0.351563,-0.20313 z m -10.748047,0.24414 a 10.999943,10.999996 0 0 0 -0.335937,0.20508 10.999943,10.999996 0 0 1 0.335937,-0.20508 z m 11.712891,0.33594 a 10.999943,10.999996 0 0 1 0.251953,0.17969 10.999943,10.999996 0 0 0 -0.251953,-0.17969 z m -12.632812,0.27148 a 10.999943,10.999996 0 0 0 -0.291016,0.21875 10.999943,10.999996 0 0 1 0.291016,-0.21875 z m 13.527343,0.39649 a 10.999943,10.999996 0 0 1 0.203125,0.17969 10.999943,10.999996 0 0 0 -0.203125,-0.17969 z m -14.404296,0.32031 a 10.999943,10.999996 0 0 0 -0.226563,0.21094 10.999943,10.999996 0 0 1 0.226563,-0.21094 z m 15.210937,0.42188 a 10.999943,10.999996 0 0 1 0.1875,0.20117 10.999943,10.999996 0 0 0 -0.1875,-0.20117 z m -15.992187,0.36132 a 10.999943,10.999996 0 0 0 -0.189454,0.2168 10.999943,10.999996 0 0 1 0.189454,-0.2168 z m 16.728515,0.4668 a 10.999943,10.999996 0 0 1 0.158203,0.20703 10.999943,10.999996 0 0 0 -0.158203,-0.20703 z m -17.435547,0.4043 a 10.999943,10.999996 0 0 0 -0.146484,0.20508 10.999943,10.999996 0 0 1 0.146484,-0.20508 z m 18.070313,0.46875 a 10.999943,10.999996 0 0 1 0.158203,0.25586 10.999943,10.999996 0 0 0 -0.158203,-0.25586 z m -18.673828,0.45312 a 10.999943,10.999996 0 0 0 -0.121094,0.20899 10.999943,10.999996 0 0 1 0.121094,-0.20899 z m 19.238281,0.51563 a 10.999943,10.999996 0 0 1 0.107422,0.2207 10.999943,10.999996 0 0 0 -0.107422,-0.2207 z M 80.015614,511.916 a 10.999943,10.999996 0 0 0 -0.09961,0.2207 10.999943,10.999996 0 0 1 0.09961,-0.2207 z m 20.195316,0.52148 a 10.999943,10.999996 0 0 1 0.10351,0.2793 10.999943,10.999996 0 0 0 -0.10351,-0.2793 z m -20.605472,0.50586 a 10.999943,10.999996 0 0 0 -0.07031,0.20898 10.999943,10.999996 0 0 1 0.07031,-0.20898 z m 20.964842,0.55078 a 10.999943,10.999996 0 0 1 0.0586,0.22656 10.999943,10.999996 0 0 0 -0.0586,-0.22656 z m -21.273436,0.52148 a 10.999943,10.999996 0 0 0 -0.04102,0.1875 10.999943,10.999996 0 0 1 0.04102,-0.1875 z m 21.525386,0.56446 a 10.999943,10.999996 0 0 1 0.0293,0.19922 10.999943,10.999996 0 0 0 -0.0293,-0.19922 z m -21.716792,0.5039 a 10.999943,10.999996 0 0 0 -0.02734,0.21485 10.999943,10.999996 0 0 1 0.02734,-0.21485 z"
       id="path4337" />
    <path
       inkscape:connector-curvature="0"
       id="path4564"
       d="m 137.99991,498.0002 a 14.999763,14.99998 0 0 0 -1.28906,0.064 14.999761,14.99998 0 0 0 -0.70694,0.086 14.999763,14.99998 0 0 0 -0.77955,0.1186 14.999761,14.99998 0 0 0 -0.69675,0.1567 14.999763,14.99998 0 0 0 -0.75153,0.191 14.999761,14.99998 0 0 0 -0.69293,0.2306 14.999763,14.99998 0 0 0 -0.72605,0.265 14.999761,14.99998 0 0 0 -0.6649,0.2981 14.999763,14.99998 0 0 0 -0.68784,0.3324 14.999761,14.99998 0 0 0 -0.64071,0.3668 14.999763,14.99998 0 0 0 -0.65089,0.3988 14.999761,14.99998 0 0 0 -0.5974,0.4279 14.999763,14.99998 0 0 0 -0.60887,0.4636 14.999761,14.99998 0 0 0 -0.53752,0.4713 14.999763,14.99998 0 0 0 -0.57702,0.5374 14.999761,14.99998 0 0 0 -4.39196,10.5916 14.999761,14.99998 0 0 0 4.22509,10.4348 h 0.0217 a 14.999763,14.99998 0 0 0 10.75317,4.5652 14.999763,14.99998 0 0 0 1.27377,-0.064 14.999761,14.99998 0 0 0 0.73753,-0.089 14.999763,14.99998 0 0 0 0.76425,-0.1159 14.999761,14.99998 0 0 0 0.69675,-0.1566 14.999763,14.99998 0 0 0 0.75152,-0.1912 14.999761,14.99998 0 0 0 0.69293,-0.2304 14.999763,14.99998 0 0 0 0.72606,-0.2651 14.999761,14.99998 0 0 0 0.66491,-0.298 14.999763,14.99998 0 0 0 0.68783,-0.3324 14.999761,14.99998 0 0 0 0.6407,-0.367 14.999763,14.99998 0 0 0 0.65091,-0.3986 14.999761,14.99998 0 0 0 0.59739,-0.428 14.999763,14.99998 0 0 0 0.60887,-0.4636 14.999761,14.99998 0 0 0 0.53753,-0.4713 14.999763,14.99998 0 0 0 0.57701,-0.5376 14.999761,14.99998 0 0 0 4.39197,-10.5909 14.999761,14.99998 0 0 0 -4.22637,-10.4348 h -0.0203 a 14.999763,14.99998 0 0 0 -10.75317,-4.5652 z"
       style="display:inline;fill:#000000;fill-opacity:0.2;stroke:none;stroke-width:2;stroke-linecap:round;stroke-linejoin:round;stroke-miterlimit:4;stroke-dasharray:none;stroke-opacity:1;enable-background:new" />
    <ellipse
       ry="14.999985"
       rx="14.999919"
       style="display:inline;fill:#82e861;fill-opacity:1;stroke:none;stroke-width:2;stroke-linecap:round;stroke-linejoin:round;stroke-miterlimit:4;stroke-dasharray:none;stroke-opacity:1;enable-background:new"
       id="ellipse4423"
       cx="138.00006"
       cy="511.99988" />
    <path
       inkscape:connector-curvature="0"
       style="display:inline;fill:#ffffff;fill-opacity:0.2;stroke:none;stroke-width:2;stroke-linecap:round;stroke-linejoin:round;stroke-miterlimit:4;stroke-dasharray:none;stroke-opacity:1;enable-background:new"
       d="m 137.99999,496.9999 a 14.999763,14.99998 0 0 0 -1.28906,0.0644 14.999761,14.99998 0 0 0 -0.70703,0.0859 14.999763,14.99998 0 0 0 -0.7793,0.11914 14.999761,14.99998 0 0 0 -0.69727,0.15625 14.999763,14.99998 0 0 0 -0.75195,0.19141 14.999761,14.99998 0 0 0 -0.69141,0.23047 14.999763,14.99998 0 0 0 -0.72656,0.26367 14.999761,14.99998 0 0 0 -0.66602,0.29883 14.999763,14.99998 0 0 0 -0.6875,0.33203 14.999761,14.99998 0 0 0 -0.64062,0.36719 14.999763,14.99998 0 0 0 -0.65039,0.39843 14.999761,14.99998 0 0 0 -0.59766,0.42774 14.999763,14.99998 0 0 0 -0.60937,0.46484 14.999761,14.99998 0 0 0 -0.53711,0.4707 14.999763,14.99998 0 0 0 -0.57617,0.53711 14.999761,14.99998 0 0 0 -4.39258,10.59189 14.999761,14.99998 0 0 0 0.0234,0.4668 14.999761,14.99998 0 0 1 4.36914,-10.0586 14.999763,14.99998 0 0 1 0.57617,-0.53711 14.999761,14.99998 0 0 1 0.53711,-0.4707 14.999763,14.99998 0 0 1 0.60937,-0.46484 14.999761,14.99998 0 0 1 0.59766,-0.42774 14.999763,14.99998 0 0 1 0.65039,-0.39843 14.999761,14.99998 0 0 1 0.64063,-0.36719 14.999763,14.99998 0 0 1 0.6875,-0.33203 14.999761,14.99998 0 0 1 0.66601,-0.29883 14.999763,14.99998 0 0 1 0.72656,-0.26367 14.999761,14.99998 0 0 1 0.69141,-0.23047 14.999763,14.99998 0 0 1 0.75195,-0.19141 14.999761,14.99998 0 0 1 0.69727,-0.15625 14.999763,14.99998 0 0 1 0.7793,-0.11914 14.999761,14.99998 0 0 1 0.70703,-0.0859 14.999763,14.99998 0 0 1 1.28906,-0.0645 14.999763,14.99998 0 0 1 10.75391,4.56641 h 0.0195 a 14.999761,14.99998 0 0 1 4.20312,9.97461 14.999761,14.99998 0 0 0 0.0235,-0.54101 14.999761,14.99998 0 0 0 -4.22656,-10.43359 h -0.0195 a 14.999763,14.99998 0 0 0 -10.75394,-4.56641 z"
       id="path4678" />
    <path
       style="display:inline;fill:url(#linearGradient4171-1-0);fill-opacity:1;stroke:none;stroke-width:2;stroke-linecap:round;stroke-linejoin:round;stroke-miterlimit:4;stroke-dasharray:none;stroke-opacity:1;enable-background:new"
       d="m 194,482.0003 a 21.99977,21.999992 0 0 0 -1.89063,0.095 21.999769,21.999992 0 0 0 -1.03685,0.1252 21.99977,21.999992 0 0 0 -1.14334,0.1737 21.999769,21.999992 0 0 0 -1.02191,0.2298 21.99977,21.999992 0 0 0 -1.10224,0.2803 21.999769,21.999992 0 0 0 -1.01631,0.3381 21.99977,21.999992 0 0 0 -1.06488,0.3886 21.999769,21.999992 0 0 0 -0.9752,0.4372 21.99977,21.999992 0 0 0 -1.00883,0.4876 21.999769,21.999992 0 0 0 -0.93971,0.538 21.99977,21.999992 0 0 0 -0.95465,0.5848 21.999769,21.999992 0 0 0 -0.87619,0.6277 21.99977,21.999992 0 0 0 -0.89301,0.68 21.999769,21.999992 0 0 0 -0.78838,0.6912 21.99977,21.999992 0 0 0 -0.8463,0.7881 21.999769,21.999992 0 0 0 -6.44157,15.5345 21.999769,21.999992 0 0 0 6.19684,15.3043 h 0.0318 a 21.99977,21.999992 0 0 0 15.7714,6.6957 21.99977,21.999992 0 0 0 1.86821,-0.094 21.999769,21.999992 0 0 0 1.08169,-0.1308 21.99977,21.999992 0 0 0 1.12092,-0.17 21.999769,21.999992 0 0 0 1.02191,-0.2297 21.99977,21.999992 0 0 0 1.10224,-0.2803 21.999769,21.999992 0 0 0 1.01631,-0.3381 21.99977,21.999992 0 0 0 1.06488,-0.3887 21.999769,21.999992 0 0 0 0.9752,-0.4371 21.99977,21.999992 0 0 0 1.00883,-0.4876 21.999769,21.999992 0 0 0 0.93971,-0.5381 21.99977,21.999992 0 0 0 0.95465,-0.5847 21.999769,21.999992 0 0 0 0.87619,-0.6277 21.99977,21.999992 0 0 0 0.893,-0.68 21.999769,21.999992 0 0 0 0.78839,-0.6912 21.99977,21.999992 0 0 0 0.84629,-0.7885 21.999769,21.999992 0 0 0 6.44158,-15.5333 21.999769,21.999992 0 0 0 -6.19871,-15.3044 h -0.0299 a 21.99977,21.999992 0 0 0 -15.7714,-6.6956 z"
       id="circle4163-3-4"
       inkscape:connector-curvature="0" />
    <path
       inkscape:connector-curvature="0"
       id="path4345"
       d="m 89.999929,505.0001 a 10.999828,10.999992 0 0 0 -0.94531,0.047 10.999827,10.999992 0 0 0 -0.51842,0.063 10.999828,10.999992 0 0 0 -0.57167,0.087 10.999827,10.999992 0 0 0 -0.51095,0.1149 10.999828,10.999992 0 0 0 -0.55112,0.1401 10.999827,10.999992 0 0 0 -0.50815,0.1691 10.999828,10.999992 0 0 0 -0.53244,0.1943 10.999827,10.999992 0 0 0 -0.48759,0.2186 10.999828,10.999992 0 0 0 -0.50442,0.2438 10.999827,10.999992 0 0 0 -0.46985,0.269 10.999828,10.999992 0 0 0 -0.47732,0.2924 10.999827,10.999992 0 0 0 -0.43809,0.3138 10.999828,10.999992 0 0 0 -0.44651,0.34 10.999827,10.999992 0 0 0 -0.39418,0.3456 10.999828,10.999992 0 0 0 -0.42315,0.3941 10.999827,10.999992 0 0 0 -3.22077,7.7672 10.999827,10.999992 0 0 0 3.0984,7.6522 h 0.0159 a 10.999828,10.999992 0 0 0 7.88566,3.3478 10.999828,10.999992 0 0 0 0.9341,-0.047 10.999827,10.999992 0 0 0 0.54085,-0.065 10.999828,10.999992 0 0 0 0.56045,-0.085 10.999827,10.999992 0 0 0 0.51095,-0.1148 10.999828,10.999992 0 0 0 0.55112,-0.1402 10.999827,10.999992 0 0 0 0.50815,-0.169 10.999828,10.999992 0 0 0 0.53244,-0.1944 10.999827,10.999992 0 0 0 0.4876,-0.2185 10.999828,10.999992 0 0 0 0.50441,-0.2438 10.999827,10.999992 0 0 0 0.46985,-0.2691 10.999828,10.999992 0 0 0 0.47733,-0.2923 10.999827,10.999992 0 0 0 0.43809,-0.3139 10.999828,10.999992 0 0 0 0.4465,-0.34 10.999827,10.999992 0 0 0 0.39419,-0.3456 10.999828,10.999992 0 0 0 0.42314,-0.3942 10.999827,10.999992 0 0 0 3.220781,-7.7667 10.999827,10.999992 0 0 0 -3.099341,-7.6522 h -0.0149 a 10.999828,10.999992 0 0 0 -7.88566,-3.3478 z"
       style="display:inline;fill:url(#linearGradient4347);fill-opacity:1;stroke:none;stroke-width:2;stroke-linecap:round;stroke-linejoin:round;stroke-miterlimit:4;stroke-dasharray:none;stroke-opacity:1;enable-background:new" />
    <path
       style="display:inline;fill:url(#linearGradient4435);fill-opacity:1;stroke:none;stroke-width:2;stroke-linecap:round;stroke-linejoin:round;stroke-miterlimit:4;stroke-dasharray:none;stroke-opacity:1;enable-background:new"
       d="m 137.99991,497.0002 a 14.999763,14.99998 0 0 0 -1.28906,0.064 14.999761,14.99998 0 0 0 -0.70694,0.086 14.999763,14.99998 0 0 0 -0.77955,0.1186 14.999761,14.99998 0 0 0 -0.69675,0.1567 14.999763,14.99998 0 0 0 -0.75153,0.191 14.999761,14.99998 0 0 0 -0.69293,0.2306 14.999763,14.99998 0 0 0 -0.72605,0.265 14.999761,14.99998 0 0 0 -0.6649,0.2981 14.999763,14.99998 0 0 0 -0.68784,0.3324 14.999761,14.99998 0 0 0 -0.64071,0.3668 14.999763,14.99998 0 0 0 -0.65089,0.3988 14.999761,14.99998 0 0 0 -0.5974,0.4279 14.999763,14.99998 0 0 0 -0.60887,0.4636 14.999761,14.99998 0 0 0 -0.53752,0.4713 14.999763,14.99998 0 0 0 -0.57702,0.5374 14.999761,14.99998 0 0 0 -4.39196,10.5916 14.999761,14.99998 0 0 0 4.22509,10.4348 h 0.0217 a 14.999763,14.99998 0 0 0 10.75317,4.5652 14.999763,14.99998 0 0 0 1.27377,-0.064 14.999761,14.99998 0 0 0 0.73753,-0.089 14.999763,14.99998 0 0 0 0.76425,-0.1159 14.999761,14.99998 0 0 0 0.69675,-0.1566 14.999763,14.99998 0 0 0 0.75152,-0.1912 14.999761,14.99998 0 0 0 0.69293,-0.2304 14.999763,14.99998 0 0 0 0.72606,-0.2651 14.999761,14.99998 0 0 0 0.66491,-0.298 14.999763,14.99998 0 0 0 0.68783,-0.3324 14.999761,14.99998 0 0 0 0.6407,-0.367 14.999763,14.99998 0 0 0 0.65091,-0.3986 14.999761,14.99998 0 0 0 0.59739,-0.428 14.999763,14.99998 0 0 0 0.60887,-0.4636 14.999761,14.99998 0 0 0 0.53753,-0.4713 14.999763,14.99998 0 0 0 0.57701,-0.5376 14.999761,14.99998 0 0 0 4.39197,-10.5909 14.999761,14.99998 0 0 0 -4.22637,-10.4348 h -0.0203 a 14.999763,14.99998 0 0 0 -10.75317,-4.5652 z"
       id="path4433"
       inkscape:connector-curvature="0" />
    <path
       style="display:inline;fill:#1a1a1a;fill-opacity:1;enable-background:new"
       d="m 142.94837,518.61129 c -3.2417,-1.72463 -7.04215,-2.14439 -11.56204,-1.27704 -1.26244,0.24226 -1.35185,0.24828 -1.62096,0.10904 -0.65943,-0.34118 -0.64771,-1.33402 0.0192,-1.62789 0.31222,-0.13757 1.68426,-0.40913 2.85797,-0.56564 4.06353,-0.54188 7.75077,-0.0171 10.86626,1.5466 1.32359,0.66431 1.56385,0.90614 1.50534,1.51514 -0.0459,0.47714 -0.31406,0.73318 -0.79892,0.76265 -0.33185,0.0202 -0.41833,-0.0114 -1.26687,-0.46286 z m 1.53371,-4.03211 c -0.60719,-0.31223 -1.37346,-0.67176 -1.70281,-0.79895 -2.22136,-0.85789 -4.75305,-1.31193 -7.31521,-1.31193 -1.81251,0 -3.21247,0.17368 -4.91123,0.60928 -0.66396,0.17025 -0.82403,0.19022 -1.04595,0.13046 -0.67956,-0.18298 -1.05701,-0.92828 -0.79171,-1.56325 0.1554,-0.37192 0.50429,-0.61483 1.12278,-0.78171 0.84541,-0.22812 1.93763,-0.449 2.87157,-0.58073 1.18973,-0.16781 4.36091,-0.16796 5.59152,-2.7e-4 2.70937,0.3692 4.93913,1.03524 6.99777,2.09026 1.35059,0.69215 1.60738,0.9481 1.60689,1.60161 -4.7e-4,0.63202 -0.50763,1.14921 -1.14517,1.16783 -0.0959,0.003 -0.67125,-0.25037 -1.27845,-0.5626 z m 1.78541,-4.6443 c -1.55215,-0.7916 -3.02363,-1.28868 -4.96486,-1.67717 -3.73453,-0.74736 -8.16886,-0.70407 -11.16803,0.10904 -0.43564,0.11811 -0.84203,0.18272 -1.15274,0.18328 -0.42596,7.6e-4 -0.51192,-0.0217 -0.76495,-0.20003 -0.42156,-0.2971 -0.61337,-0.69935 -0.58206,-1.22072 0.0476,-0.79247 0.4494,-1.13904 1.68986,-1.45745 4.56951,-1.17294 10.75675,-0.93189 15.4049,0.60015 1.69776,0.55959 3.70692,1.53047 4.02198,1.94353 0.52416,0.68722 0.29701,1.73724 -0.45451,2.10105 -0.55199,0.26721 -0.87722,0.20605 -2.02959,-0.38168 z"
       id="path4513"
       inkscape:connector-curvature="0" />
    <path
       inkscape:connector-curvature="0"
       id="path4519"
       d="m 93.628696,520.84816 c -2.37724,-1.26473 -5.16424,-1.57256 -8.47882,-0.9365 -0.92579,0.17766 -0.99136,0.18207 -1.18871,0.08 -0.48358,-0.2502 -0.47499,-0.97829 0.0141,-1.19379 0.22896,-0.10089 1.23513,-0.30003 2.09585,-0.4148 2.97992,-0.39738 5.6839,-0.0125 7.96859,1.13417 0.97063,0.48716 1.14682,0.6645 1.10391,1.11111 -0.0336,0.3499 -0.23031,0.53766 -0.58587,0.55927 -0.24336,0.0148 -0.30678,-0.008 -0.92904,-0.33943 z m 1.12473,-2.95688 c -0.44528,-0.22897 -1.00721,-0.49262 -1.24873,-0.5859 -1.629,-0.62912 -3.48557,-0.96208 -5.36449,-0.96208 -1.32917,0 -2.35581,0.12736 -3.60157,0.4468 -0.4869,0.12486 -0.60429,0.1395 -0.76703,0.0957 -0.49834,-0.13419 -0.77514,-0.68074 -0.58058,-1.14639 0.11395,-0.27274 0.36981,-0.45087 0.82337,-0.57325 0.61996,-0.16729 1.42092,-0.32927 2.10582,-0.42587 0.87246,-0.12306 3.198,-0.12317 4.10044,-2e-4 1.98687,0.27075 3.62203,0.75917 5.1317,1.53286 0.99043,0.50758 1.17874,0.69527 1.17839,1.17451 -3.5e-4,0.46348 -0.37227,0.84275 -0.8398,0.85641 -0.0704,0.002 -0.49224,-0.1836 -0.93752,-0.41257 z m 1.30929,-3.40582 c -1.13824,-0.58051 -2.21733,-0.94503 -3.64089,-1.22992 -2.73866,-0.54807 -5.9905,-0.51632 -8.18989,0.08 -0.31947,0.0866 -0.61749,0.13399 -0.84534,0.1344 -0.31237,5.6e-4 -0.37541,-0.0159 -0.56096,-0.14669 -0.30915,-0.21787 -0.44981,-0.51285 -0.42685,-0.89519 0.0349,-0.58115 0.32956,-0.83529 1.23923,-1.0688 3.35097,-0.86015 7.88829,-0.68339 11.29693,0.44011 1.24502,0.41037 2.7184,1.12235 2.94944,1.42526 0.38439,0.50396 0.21782,1.27397 -0.3333,1.54076 -0.40479,0.19596 -0.64329,0.15111 -1.48837,-0.27989 z"
       style="display:inline;fill:#1a1a1a;fill-opacity:1;enable-background:new" />
    <path
       style="display:inline;fill:#1a1a1a;fill-opacity:1;enable-background:new"
       d="m 26.638967,523.52581 c -1.7289,-0.9198 -3.75581,-1.14368 -6.16642,-0.68108 -0.6733,0.1292 -0.72099,0.13241 -0.86451,0.0581 -0.351701,-0.18196 -0.345451,-0.71148 0.0102,-0.86821 0.16651,-0.0734 0.89827,-0.2182 1.52425,-0.30168 2.16722,-0.289 4.13375,-0.009 5.79534,0.82486 0.70591,0.3543 0.83405,0.48328 0.80284,0.80808 -0.0245,0.25447 -0.16749,0.39102 -0.42608,0.40674 -0.17699,0.0108 -0.22311,-0.006 -0.67567,-0.24686 z m 0.81798,-2.15046 c -0.32384,-0.16652 -0.73251,-0.35827 -0.90817,-0.4261 -1.18472,-0.45755 -2.53495,-0.6997 -3.90144,-0.6997 -0.96667,0 -1.71332,0.0926 -2.61933,0.32495 -0.35411,0.0908 -0.43948,0.10145 -0.55783,0.0696 -0.362441,-0.0976 -0.563751,-0.49509 -0.422251,-0.83374 0.0829,-0.19835 0.26896,-0.3279 0.598821,-0.41691 0.45088,-0.12166 1.0334,-0.23947 1.5315,-0.30972 0.63452,-0.0895 2.32582,-0.0896 2.98214,-1.4e-4 1.445,0.1969 2.63421,0.55212 3.73215,1.1148 0.720309,0.36915 0.857269,0.50565 0.857009,0.85419 -2.5e-4,0.33708 -0.27074,0.61291 -0.610759,0.62284 -0.0512,10e-4 -0.358,-0.13352 -0.68184,-0.30005 z m 0.95222,-2.47695 c -0.82782,-0.4222 -1.61261,-0.6873 -2.64793,-0.8945 -1.99175,-0.39859 -4.35672,-0.3755 -5.95628,0.0582 -0.23234,0.063 -0.449081,0.0975 -0.614791,0.0977 -0.22718,4.1e-4 -0.27303,-0.0116 -0.40798,-0.10668 -0.22483,-0.15845 -0.32713,-0.37298 -0.31043,-0.65105 0.0254,-0.42265 0.23968,-0.60748 0.90126,-0.7773 2.437071,-0.62557 5.736931,-0.49701 8.215951,0.32008 0.905469,0.29844 1.977019,0.81625 2.145049,1.03655 0.27955,0.36651 0.15841,0.92652 -0.24241,1.12055 -0.29439,0.14252 -0.46784,0.1099 -1.082439,-0.20355 z"
       id="path4527"
       inkscape:connector-curvature="0" />
    <path
       inkscape:connector-curvature="0"
       id="path4507"
       d="m 201.02924,513.77154 c -4.6252,-2.46068 -10.04761,-3.05959 -16.49651,-1.82206 -1.80124,0.34565 -1.92881,0.35423 -2.31276,0.15557 -0.94088,-0.48678 -0.92415,-1.90336 0.0274,-2.32265 0.44547,-0.19628 2.40309,-0.58373 4.0777,-0.80705 5.79779,-0.77314 11.05868,-0.0244 15.5038,2.20668 1.88848,0.94783 2.23129,1.29286 2.1478,2.16178 -0.0654,0.68076 -0.4481,1.04607 -1.13988,1.08813 -0.47348,0.0288 -0.59687,-0.0163 -1.80756,-0.6604 z m 2.18829,-5.75295 c -0.86635,-0.44549 -1.95964,-0.95846 -2.42955,-1.13993 -3.1694,-1.22402 -6.78158,-1.87184 -10.43723,-1.87184 -2.58605,0 -4.5835,0.2478 -7.00726,0.8693 -0.94732,0.24292 -1.17571,0.27141 -1.49234,0.18615 -0.96959,-0.26108 -1.50813,-1.32446 -1.1296,-2.23042 0.22173,-0.53065 0.71952,-0.87723 1.60197,-1.11534 1.20621,-0.32547 2.76457,-0.64062 4.09711,-0.82857 1.69749,-0.23943 6.22208,-0.23965 7.97789,-3.9e-4 3.86568,0.52678 7.04706,1.47706 9.98429,2.98235 1.927,0.98755 2.29339,1.35273 2.2927,2.28515 -6.8e-4,0.90175 -0.72428,1.63967 -1.63392,1.66623 -0.1369,0.004 -0.95773,-0.35721 -1.82406,-0.80269 z m 2.54737,-6.62641 c -2.21458,-1.12946 -4.31406,-1.83868 -7.08377,-2.39296 -5.32837,-1.06633 -11.6552,-1.00456 -15.93436,0.15558 -0.62157,0.1685 -1.20139,0.26069 -1.6447,0.26149 -0.60776,10e-4 -0.73041,-0.031 -1.09142,-0.2854 -0.60149,-0.42389 -0.87515,-0.99781 -0.83049,-1.74171 0.0678,-1.13068 0.6412,-1.62515 2.41108,-2.07946 6.51969,-1.67353 15.34755,-1.3296 21.97945,0.85629 2.42233,0.79841 5.28897,2.18364 5.73849,2.773 0.74787,0.9805 0.42378,2.47866 -0.64849,2.99774 -0.78756,0.38125 -1.2516,0.29398 -2.89579,-0.54457 z"
       style="display:inline;fill:#1a1a1a;fill-opacity:1;enable-background:new" />
    <path
       inkscape:connector-curvature="0"
       id="path4580"
       d="m 569.99872,34.0032 a 239.9963,239.99966 0 0 0 -20.62496,1.024 239.99626,239.99966 0 0 0 -11.31104,1.376 239.9963,239.99966 0 0 0 -12.4728,1.8976 239.99626,239.99966 0 0 0 -11.148,2.5072 239.9963,239.99966 0 0 0 -12.0244,3.056 239.99626,239.99966 0 0 0 -11.08688,3.6896 239.9963,239.99966 0 0 0 -11.61688,4.24 239.99626,239.99966 0 0 0 -10.63832,4.7696 239.9963,239.99966 0 0 0 -11.00552,5.3184 239.99626,239.99966 0 0 0 -10.25128,5.8688 239.9963,239.99966 0 0 0 -10.41424,6.3808 239.99626,239.99966 0 0 0 -9.5584,6.8464 239.9963,239.99966 0 0 0 -9.74208,7.4176 239.99626,239.99966 0 0 0 -8.60024,7.5408 239.9963,239.99966 0 0 0 -9.23232,8.5984 A 239.99626,239.99966 0 0 0 330,274 239.99626,239.99966 0 0 0 397.60144,440.9568 h 0.3472 A 239.9963,239.99966 0 0 0 569.99936,514 a 239.9963,239.99966 0 0 0 20.3804,-1.024 239.99626,239.99966 0 0 0 11.80048,-1.424 239.9963,239.99966 0 0 0 12.228,-1.8544 239.99626,239.99966 0 0 0 11.148,-2.5056 239.9963,239.99966 0 0 0 12.02432,-3.0592 239.99626,239.99966 0 0 0 11.08688,-3.6864 239.9963,239.99966 0 0 0 11.61696,-4.2416 239.99626,239.99966 0 0 0 10.63856,-4.768 239.9963,239.99966 0 0 0 11.00528,-5.3184 239.99626,239.99966 0 0 0 10.2512,-5.872 239.9963,239.99966 0 0 0 10.41456,-6.3776 239.99626,239.99966 0 0 0 9.55824,-6.848 239.9963,239.99966 0 0 0 9.74192,-7.4176 239.99626,239.99966 0 0 0 8.60048,-7.5408 239.9963,239.99966 0 0 0 9.23216,-8.6016 239.99626,239.99966 0 0 0 70.2716,-169.4544 239.99626,239.99966 0 0 0 -67.622,-166.9568 h -0.3248 A 239.9963,239.99966 0 0 0 570.0008,34.0064 Z"
       style="display:inline;fill:#000000;fill-opacity:0.2;stroke:none;stroke-width:16;stroke-linecap:round;stroke-linejoin:round;stroke-miterlimit:4;stroke-dasharray:none;stroke-opacity:1;filter:url(#filter4610);enable-background:new" />
    <path
       style="display:inline;fill:#000000;fill-opacity:0.2;stroke:none;stroke-width:16;stroke-linecap:round;stroke-linejoin:round;stroke-miterlimit:4;stroke-dasharray:none;stroke-opacity:1;enable-background:new"
       d="m 569.99872,34.0032 a 239.9963,239.99966 0 0 0 -20.62496,1.024 239.99626,239.99966 0 0 0 -11.31104,1.376 239.9963,239.99966 0 0 0 -12.4728,1.8976 239.99626,239.99966 0 0 0 -11.148,2.5072 239.9963,239.99966 0 0 0 -12.0244,3.056 239.99626,239.99966 0 0 0 -11.08688,3.6896 239.9963,239.99966 0 0 0 -11.61688,4.24 239.99626,239.99966 0 0 0 -10.63832,4.7696 239.9963,239.99966 0 0 0 -11.00552,5.3184 239.99626,239.99966 0 0 0 -10.25128,5.8688 239.9963,239.99966 0 0 0 -10.41424,6.3808 239.99626,239.99966 0 0 0 -9.5584,6.8464 239.9963,239.99966 0 0 0 -9.74208,7.4176 239.99626,239.99966 0 0 0 -8.60024,7.5408 239.9963,239.99966 0 0 0 -9.23232,8.5984 A 239.99626,239.99966 0 0 0 330,274 239.99626,239.99966 0 0 0 397.60144,440.9568 h 0.3472 A 239.9963,239.99966 0 0 0 569.99936,514 a 239.9963,239.99966 0 0 0 20.3804,-1.024 239.99626,239.99966 0 0 0 11.80048,-1.424 239.9963,239.99966 0 0 0 12.228,-1.8544 239.99626,239.99966 0 0 0 11.148,-2.5056 239.9963,239.99966 0 0 0 12.02432,-3.0592 239.99626,239.99966 0 0 0 11.08688,-3.6864 239.9963,239.99966 0 0 0 11.61696,-4.2416 239.99626,239.99966 0 0 0 10.63856,-4.768 239.9963,239.99966 0 0 0 11.00528,-5.3184 239.99626,239.99966 0 0 0 10.2512,-5.872 239.9963,239.99966 0 0 0 10.41456,-6.3776 239.99626,239.99966 0 0 0 9.55824,-6.848 239.9963,239.99966 0 0 0 9.74192,-7.4176 239.99626,239.99966 0 0 0 8.60048,-7.5408 239.9963,239.99966 0 0 0 9.23216,-8.6016 239.99626,239.99966 0 0 0 70.2716,-169.4544 239.99626,239.99966 0 0 0 -67.622,-166.9568 h -0.3248 A 239.9963,239.99966 0 0 0 570.0008,34.0064 Z"
       id="path4578"
       inkscape:connector-curvature="0" />
    <ellipse
       cy="271.99902"
       cx="570.00134"
       id="ellipse4437"
       style="display:inline;fill:#82e861;fill-opacity:1;stroke:none;stroke-width:16;stroke-linecap:round;stroke-linejoin:round;stroke-miterlimit:4;stroke-dasharray:none;stroke-opacity:1;enable-background:new"
       rx="239.99876"
       ry="239.99974" />
    <path
       inkscape:connector-curvature="0"
       style="display:inline;fill:#ffffff;fill-opacity:0.2;stroke:none;stroke-width:16;stroke-linecap:round;stroke-linejoin:round;stroke-miterlimit:4;stroke-dasharray:none;stroke-opacity:1;enable-background:new"
       d="m 570.00016,32 a 239.99881,239.99976 0 0 0 -240,240 239.99881,239.99976 0 0 0 0.0352,0.99219 A 239.99881,239.99976 0 0 1 570.00016,34 239.99881,239.99976 0 0 1 809.94938,272.98438 239.99881,239.99976 0 0 0 810.00018,272 a 239.99881,239.99976 0 0 0 -240,-240 z"
       id="path4439" />
    <path
       inkscape:connector-curvature="0"
       id="path4447"
       d="m 569.99872,32.00258 a 239.9963,239.99966 0 0 0 -20.62496,1.024 239.99626,239.99966 0 0 0 -11.31104,1.376 239.9963,239.99966 0 0 0 -12.4728,1.8976 239.99626,239.99966 0 0 0 -11.148,2.5072 239.9963,239.99966 0 0 0 -12.0244,3.056 239.99626,239.99966 0 0 0 -11.08688,3.6896 239.9963,239.99966 0 0 0 -11.61688,4.24 239.99626,239.99966 0 0 0 -10.63832,4.7696 239.9963,239.99966 0 0 0 -11.00552,5.3184 239.99626,239.99966 0 0 0 -10.25128,5.8688 239.9963,239.99966 0 0 0 -10.41424,6.3808 239.99626,239.99966 0 0 0 -9.5584,6.8464 239.9963,239.99966 0 0 0 -9.74208,7.4176 239.99626,239.99966 0 0 0 -8.60024,7.5408 239.9963,239.99966 0 0 0 -9.23232,8.5984 A 239.99626,239.99966 0 0 0 330,271.99938 a 239.99626,239.99966 0 0 0 67.60144,166.9568 h 0.3472 a 239.9963,239.99966 0 0 0 172.05072,73.0432 239.9963,239.99966 0 0 0 20.3804,-1.024 239.99626,239.99966 0 0 0 11.80048,-1.424 239.9963,239.99966 0 0 0 12.228,-1.8544 239.99626,239.99966 0 0 0 11.148,-2.5056 239.9963,239.99966 0 0 0 12.02432,-3.0592 239.99626,239.99966 0 0 0 11.08688,-3.6864 239.9963,239.99966 0 0 0 11.61696,-4.2416 239.99626,239.99966 0 0 0 10.63856,-4.768 239.9963,239.99966 0 0 0 11.00528,-5.3184 239.99626,239.99966 0 0 0 10.2512,-5.872 239.9963,239.99966 0 0 0 10.41456,-6.3776 239.99626,239.99966 0 0 0 9.55824,-6.848 239.9963,239.99966 0 0 0 9.74192,-7.4176 239.99626,239.99966 0 0 0 8.60048,-7.5408 239.9963,239.99966 0 0 0 9.23216,-8.6016 239.99626,239.99966 0 0 0 70.2716,-169.4544 239.99626,239.99966 0 0 0 -67.622,-166.9568 h -0.3248 A 239.9963,239.99966 0 0 0 570.0008,32.00578 Z"
       style="display:inline;fill:url(#linearGradient4449-0);fill-opacity:1;stroke:none;stroke-width:16;stroke-linecap:round;stroke-linejoin:round;stroke-miterlimit:4;stroke-dasharray:none;stroke-opacity:1;enable-background:new" />
    <path
       style="display:inline;fill:#1a1a1a;fill-opacity:1;enable-background:new"
       d="m 643.90009,370.73572 c -48.40932,-25.7545 -105.16272,-32.02297 -172.65974,-19.07046 -18.85249,3.61775 -20.18762,3.70756 -24.20635,1.62835 -9.84755,-5.09495 -9.67252,-19.92144 0.28698,-24.3099 4.66243,-2.05441 25.1517,-6.10958 42.679,-8.44689 60.68209,-8.0921 115.74492,-0.25497 162.26954,23.09591 19.76557,9.92042 23.3535,13.53173 22.47964,22.62615 -0.68464,7.12523 -4.68995,10.94872 -11.93044,11.38887 -4.95568,0.30126 -6.24708,-0.17057 -18.91863,-6.91203 z m 22.90347,-60.21284 c -9.0675,-4.66263 -20.5104,-10.03159 -25.42867,-11.93103 -33.17227,-12.81114 -70.97886,-19.59147 -109.24051,-19.59147 -27.06672,0 -47.97284,2.59358 -73.34105,9.09858 -9.91507,2.54245 -12.30546,2.84061 -15.61945,1.94825 -10.14809,-2.7326 -15.78477,-13.86238 -11.82286,-23.34457 2.3206,-5.55397 7.53074,-9.18143 16.76685,-11.6736 12.62477,-3.40653 28.93517,-6.70505 42.88211,-8.67222 17.76664,-2.50593 65.12295,-2.50819 83.5,-0.004 40.45995,5.5134 73.75762,15.45953 104.5,31.2145 20.16886,10.33621 24.00354,14.15829 23.99626,23.91745 -0.007,9.43811 -7.5806,17.16148 -17.10129,17.43952 -1.43276,0.0418 -10.02389,-3.7388 -19.09139,-8.40142 z m 26.662,-69.35483 c -23.17878,-11.82136 -45.15284,-19.24439 -74.14187,-25.04577 -55.76895,-11.16065 -121.9883,-10.51414 -166.77588,1.62828 -6.50558,1.76374 -12.57426,2.72862 -17.21421,2.73695 -6.361,0.0114 -7.64476,-0.32428 -11.42322,-2.98713 -6.29544,-4.43668 -9.15967,-10.44358 -8.69223,-18.22943 0.71049,-11.83422 6.71111,-17.00952 25.23533,-21.76448 68.23793,-17.51591 160.63416,-13.91631 230.0465,8.96221 25.35318,8.35649 55.35659,22.85499 60.06147,29.0234 7.82752,10.26242 4.43548,25.94272 -6.78733,31.37559 -8.24297,3.99035 -13.09973,3.07702 -30.30856,-5.69962 z"
       id="path4495"
       inkscape:connector-curvature="0" />
    <path
       inkscape:connector-curvature="0"
       id="path4552"
       d="m 265.99984,467.0004 a 29.999537,29.999957 0 0 0 -2.57812,0.128 29.999532,29.999957 0 0 0 -1.41388,0.172 29.999537,29.999957 0 0 0 -1.5591,0.2372 29.999532,29.999957 0 0 0 -1.3935,0.3134 29.999537,29.999957 0 0 0 -1.50305,0.382 29.999532,29.999957 0 0 0 -1.38586,0.4612 29.999537,29.999957 0 0 0 -1.45211,0.53 29.999532,29.999957 0 0 0 -1.32979,0.5962 29.999537,29.999957 0 0 0 -1.37569,0.6648 29.999532,29.999957 0 0 0 -1.28141,0.7336 29.999537,29.999957 0 0 0 -1.30178,0.7976 29.999532,29.999957 0 0 0 -1.1948,0.8558 29.999537,29.999957 0 0 0 -1.21776,0.9272 29.999532,29.999957 0 0 0 -1.07503,0.9426 29.999537,29.999957 0 0 0 -1.15404,1.0748 A 29.999532,29.999957 0 0 0 236,497 a 29.999532,29.999957 0 0 0 8.45018,20.8696 h 0.0434 a 29.999537,29.999957 0 0 0 21.50634,9.1304 29.999537,29.999957 0 0 0 2.54755,-0.128 29.999532,29.999957 0 0 0 1.47506,-0.178 29.999537,29.999957 0 0 0 1.5285,-0.2318 29.999532,29.999957 0 0 0 1.3935,-0.3132 29.999537,29.999957 0 0 0 1.50304,-0.3824 29.999532,29.999957 0 0 0 1.38586,-0.4608 29.999537,29.999957 0 0 0 1.45212,-0.5302 29.999532,29.999957 0 0 0 1.32982,-0.596 29.999537,29.999957 0 0 0 1.37566,-0.6648 29.999532,29.999957 0 0 0 1.2814,-0.734 29.999537,29.999957 0 0 0 1.30182,-0.7972 29.999532,29.999957 0 0 0 1.19478,-0.856 29.999537,29.999957 0 0 0 1.21774,-0.9272 29.999532,29.999957 0 0 0 1.07506,-0.9426 29.999537,29.999957 0 0 0 1.15402,-1.0752 29.999532,29.999957 0 0 0 8.78395,-21.1818 29.999532,29.999957 0 0 0 -8.45275,-20.8696 h -0.0406 a 29.999537,29.999957 0 0 0 -21.50635,-9.1304 z"
       style="display:inline;fill:#000000;fill-opacity:0.2;stroke:none;stroke-width:2;stroke-linecap:round;stroke-linejoin:round;stroke-miterlimit:4;stroke-dasharray:none;stroke-opacity:1;filter:url(#filter4554);enable-background:new" />
    <ellipse
       ry="29.999968"
       rx="29.999846"
       style="display:inline;fill:#82e861;fill-opacity:1;stroke:none;stroke-width:2;stroke-linecap:round;stroke-linejoin:round;stroke-miterlimit:4;stroke-dasharray:none;stroke-opacity:1;enable-background:new"
       id="ellipse4531"
       cx="266.00018"
       cy="495.99988" />
    <path
       style="display:inline;fill:url(#linearGradient4541);fill-opacity:1;stroke:none;stroke-width:2;stroke-linecap:round;stroke-linejoin:round;stroke-miterlimit:4;stroke-dasharray:none;stroke-opacity:1;enable-background:new"
       d="m 265.99984,466.00041 a 29.999537,29.999957 0 0 0 -2.57812,0.128 29.999532,29.999957 0 0 0 -1.41388,0.172 29.999537,29.999957 0 0 0 -1.5591,0.2372 29.999532,29.999957 0 0 0 -1.3935,0.3134 29.999537,29.999957 0 0 0 -1.50305,0.382 29.999532,29.999957 0 0 0 -1.38586,0.4612 29.999537,29.999957 0 0 0 -1.45211,0.53 29.999532,29.999957 0 0 0 -1.32979,0.5962 29.999537,29.999957 0 0 0 -1.37569,0.6648 29.999532,29.999957 0 0 0 -1.28141,0.7336 29.999537,29.999957 0 0 0 -1.30178,0.7976 29.999532,29.999957 0 0 0 -1.1948,0.8558 29.999537,29.999957 0 0 0 -1.21776,0.9272 29.999532,29.999957 0 0 0 -1.07503,0.9426 29.999537,29.999957 0 0 0 -1.15404,1.0748 29.999532,29.999957 0 0 0 -8.78392,21.1832 29.999532,29.999957 0 0 0 8.45018,20.8696 h 0.0434 a 29.999537,29.999957 0 0 0 21.50634,9.1304 29.999537,29.999957 0 0 0 2.54755,-0.128 29.999532,29.999957 0 0 0 1.47506,-0.178 29.999537,29.999957 0 0 0 1.5285,-0.2318 29.999532,29.999957 0 0 0 1.3935,-0.3132 29.999537,29.999957 0 0 0 1.50304,-0.3824 29.999532,29.999957 0 0 0 1.38586,-0.4608 29.999537,29.999957 0 0 0 1.45212,-0.5302 29.999532,29.999957 0 0 0 1.32982,-0.596 29.999537,29.999957 0 0 0 1.37566,-0.6648 29.999532,29.999957 0 0 0 1.2814,-0.734 29.999537,29.999957 0 0 0 1.30182,-0.7972 29.999532,29.999957 0 0 0 1.19478,-0.856 29.999537,29.999957 0 0 0 1.21774,-0.9272 29.999532,29.999957 0 0 0 1.07506,-0.9426 29.999537,29.999957 0 0 0 1.15402,-1.0752 29.999532,29.999957 0 0 0 8.78395,-21.1818 29.999532,29.999957 0 0 0 -8.45275,-20.8696 h -0.0406 a 29.999537,29.999957 0 0 0 -21.50635,-9.1304 z"
       id="path4537"
       inkscape:connector-curvature="0" />
    <path
       inkscape:connector-curvature="0"
       id="path4539"
       d="m 275.23751,508.34197 c -6.05116,-3.21932 -13.14534,-4.00288 -21.58247,-2.38381 -2.35656,0.45222 -2.52345,0.46344 -3.02579,0.20354 -1.23094,-0.63687 -1.20907,-2.49018 0.0359,-3.03874 0.58281,-0.2568 3.14396,-0.76369 5.33488,-1.05586 7.58526,-1.01151 14.46811,-0.0319 20.28369,2.88699 2.4707,1.24005 2.91919,1.69147 2.80995,2.82827 -0.0856,0.89065 -0.58624,1.36859 -1.4913,1.42361 -0.61946,0.0377 -0.78088,-0.0213 -2.36483,-0.864 z m 2.86293,-7.52661 c -1.13343,-0.58283 -2.5638,-1.25395 -3.17858,-1.49138 -4.14653,-1.60139 -8.87236,-2.44893 -13.65506,-2.44893 -3.38334,0 -5.99661,0.3242 -9.16763,1.13732 -1.23939,0.31781 -1.53819,0.35508 -1.95244,0.24353 -1.26851,-0.34157 -1.97309,-1.7328 -1.47785,-2.91807 0.29007,-0.69425 0.94134,-1.14768 2.09585,-1.4592 1.5781,-0.42582 3.6169,-0.83813 5.36027,-1.08403 2.22083,-0.31324 8.14037,-0.31352 10.4375,-5e-4 5.05749,0.68918 9.2197,1.93244 13.0625,3.90182 2.5211,1.29202 3.00044,1.76978 2.99953,2.98968 -8.8e-4,1.17976 -0.94758,2.14518 -2.13766,2.17994 -0.1791,0.005 -1.25299,-0.46735 -2.38643,-1.05018 z m 3.33275,-8.66935 c -2.89734,-1.47767 -5.6441,-2.40555 -9.26773,-3.13072 -6.97112,-1.39509 -15.24854,-1.31427 -20.84698,0.20353 -0.8132,0.22047 -1.57179,0.34108 -2.15178,0.34212 -0.79513,10e-4 -0.9556,-0.0405 -1.4279,-0.37339 -0.78693,-0.55459 -1.14496,-1.30545 -1.08653,-2.27868 0.0888,-1.47928 0.83889,-2.12619 3.15441,-2.72056 8.52975,-2.18949 20.07927,-1.73954 28.75582,1.12028 3.16914,1.04456 6.91957,2.85687 7.50768,3.62792 0.97844,1.2828 0.55444,3.24284 -0.84842,3.92195 -1.03037,0.49879 -1.63746,0.38463 -3.78857,-0.71245 z"
       style="display:inline;fill:#1a1a1a;fill-opacity:1;stroke-width:0.125;enable-background:new" />
    <path
       style="display:inline;fill:#ffffff;fill-opacity:0.2;stroke:none;stroke-width:2;stroke-linecap:round;stroke-linejoin:round;stroke-miterlimit:4;stroke-dasharray:none;stroke-opacity:1;enable-background:new"
       d="m 266,466 a 29.999537,29.999957 0 0 0 -2.57812,0.12891 29.999532,29.999957 0 0 0 -1.41407,0.17187 29.999537,29.999957 0 0 0 -1.55859,0.23633 29.999532,29.999957 0 0 0 -1.39453,0.31445 29.999537,29.999957 0 0 0 -1.50196,0.38086 29.999532,29.999957 0 0 0 -1.38671,0.46094 29.999537,29.999957 0 0 0 -1.45118,0.53125 29.999532,29.999957 0 0 0 -1.33007,0.5957 29.999537,29.999957 0 0 0 -1.37696,0.66407 29.999532,29.999957 0 0 0 -1.28125,0.73437 29.999537,29.999957 0 0 0 -1.30078,0.79687 29.999532,29.999957 0 0 0 -1.19531,0.85743 29.999537,29.999957 0 0 0 -1.2168,0.92578 29.999532,29.999957 0 0 0 -1.07617,0.94336 29.999537,29.999957 0 0 0 -1.1543,1.07422 A 29.999532,29.999957 0 0 0 236,496 a 29.999532,29.999957 0 0 0 0.0234,0.46289 29.999532,29.999957 0 0 1 8.75976,-20.64648 29.999537,29.999957 0 0 1 1.1543,-1.07422 29.999532,29.999957 0 0 1 1.07617,-0.94336 29.999537,29.999957 0 0 1 1.2168,-0.92578 29.999532,29.999957 0 0 1 1.19531,-0.85743 29.999537,29.999957 0 0 1 1.30078,-0.79687 29.999532,29.999957 0 0 1 1.28125,-0.73437 29.999537,29.999957 0 0 1 1.37696,-0.66407 29.999532,29.999957 0 0 1 1.33007,-0.5957 29.999537,29.999957 0 0 1 1.45118,-0.53125 29.999532,29.999957 0 0 1 1.38671,-0.46094 29.999537,29.999957 0 0 1 1.50196,-0.38086 29.999532,29.999957 0 0 1 1.39453,-0.31445 29.999537,29.999957 0 0 1 1.55859,-0.23633 29.999532,29.999957 0 0 1 1.41407,-0.17187 A 29.999537,29.999957 0 0 1 266,467 a 29.999537,29.999957 0 0 1 21.50586,9.13086 h 0.041 a 29.999532,29.999957 0 0 1 8.42968,20.40625 A 29.999532,29.999957 0 0 0 296,496 29.999532,29.999957 0 0 0 287.54688,475.13086 h -0.041 A 29.999537,29.999957 0 0 0 266,466 Z"
       id="path4543"
       inkscape:connector-curvature="0" />
    <path
       inkscape:connector-curvature="0"
       id="path4545"
       d="m 56.99994,507.0001 a 10.999828,10.999992 0 0 0 -0.94531,0.047 10.999827,10.999992 0 0 0 -0.51842,0.063 10.999828,10.999992 0 0 0 -0.57167,0.087 10.999827,10.999992 0 0 0 -0.51095,0.1149 10.999828,10.999992 0 0 0 -0.55112,0.1401 10.999827,10.999992 0 0 0 -0.50815,0.1691 10.999828,10.999992 0 0 0 -0.53244,0.1943 10.999827,10.999992 0 0 0 -0.48759,0.2186 10.999828,10.999992 0 0 0 -0.50442,0.2438 10.999827,10.999992 0 0 0 -0.46985,0.269 10.999828,10.999992 0 0 0 -0.47732,0.2924 10.999827,10.999992 0 0 0 -0.43809,0.3138 10.999828,10.999992 0 0 0 -0.44651,0.34 10.999827,10.999992 0 0 0 -0.39418,0.3456 10.999828,10.999992 0 0 0 -0.42315,0.3941 A 10.999827,10.999992 0 0 0 46,518 a 10.999827,10.999992 0 0 0 3.0984,7.6522 h 0.0159 a 10.999828,10.999992 0 0 0 7.88566,3.3478 10.999828,10.999992 0 0 0 0.9341,-0.047 10.999827,10.999992 0 0 0 0.54085,-0.065 10.999828,10.999992 0 0 0 0.56045,-0.085 10.999827,10.999992 0 0 0 0.51095,-0.1148 10.999828,10.999992 0 0 0 0.55112,-0.1402 10.999827,10.999992 0 0 0 0.50815,-0.169 10.999828,10.999992 0 0 0 0.53244,-0.1944 10.999827,10.999992 0 0 0 0.4876,-0.2185 10.999828,10.999992 0 0 0 0.50441,-0.2438 10.999827,10.999992 0 0 0 0.46985,-0.2691 10.999828,10.999992 0 0 0 0.47733,-0.2923 10.999827,10.999992 0 0 0 0.43809,-0.3139 10.999828,10.999992 0 0 0 0.4465,-0.34 10.999827,10.999992 0 0 0 0.39419,-0.3456 10.999828,10.999992 0 0 0 0.42314,-0.3942 10.999827,10.999992 0 0 0 3.220781,-7.7667 10.999827,10.999992 0 0 0 -3.099341,-7.6522 h -0.0149 a 10.999828,10.999992 0 0 0 -7.88566,-3.3478 z"
       style="display:inline;fill:#000000;fill-opacity:0.2;stroke:none;stroke-width:2;stroke-linecap:round;stroke-linejoin:round;stroke-miterlimit:4;stroke-dasharray:none;stroke-opacity:1;enable-background:new" />
    <ellipse
       ry="10.999995"
       rx="10.999943"
       style="display:inline;fill:#82e861;fill-opacity:1;stroke:none;stroke-width:2;stroke-linecap:round;stroke-linejoin:round;stroke-miterlimit:4;stroke-dasharray:none;stroke-opacity:1;enable-background:new"
       id="ellipse4547"
       cx="57.000065"
       cy="516.99988" />
    <path
       id="path4549"
       d="m 57,505.9999 a 10.999943,10.999996 0 0 0 -11,11 10.999943,10.999996 0 0 0 0.0098,0.23438 A 10.999943,10.999996 0 0 0 46,517.4999 10.999943,10.999996 0 0 0 46.01172,517.79287 10.999943,10.999996 0 0 1 57,506.9999 a 10.999943,10.999996 0 0 1 10.988281,10.70703 10.999943,10.999996 0 0 0 0.0117,-0.20703 10.999943,10.999996 0 0 0 -0.043,-0.84375 10.999943,10.999996 0 0 1 0.0312,0.55078 10.999943,10.999996 0 0 0 0.0117,-0.20703 10.999943,10.999996 0 0 0 -11.000001,-11 z m 0,0.5 A 10.999943,10.999996 0 0 0 56.199219,506.539 10.999943,10.999996 0 0 1 57,506.4999 Z m 0.935547,0.0469 a 10.999943,10.999996 0 0 1 0.537109,0.0645 10.999943,10.999996 0 0 0 -0.537109,-0.0645 z m -2.347656,0.0547 a 10.999943,10.999996 0 0 0 -0.466797,0.0703 10.999943,10.999996 0 0 1 0.466797,-0.0703 z m 3.453125,0.0977 a 10.999943,10.999996 0 0 1 0.451172,0.0996 10.999943,10.999996 0 0 0 -0.451172,-0.0996 z m -4.542969,0.10156 a 10.999943,10.999996 0 0 0 -0.455078,0.11719 10.999943,10.999996 0 0 1 0.455078,-0.11719 z m 5.640625,0.16406 a 10.999943,10.999996 0 0 1 0.380859,0.12696 10.999943,10.999996 0 0 0 -0.380859,-0.12696 z m -6.681641,0.13477 a 10.999943,10.999996 0 0 0 -0.449219,0.16406 10.999943,10.999996 0 0 1 0.449219,-0.16406 z m 7.707031,0.22851 a 10.999943,10.999996 0 0 1 0.392579,0.17579 10.999943,10.999996 0 0 0 -0.392579,-0.17579 z m -8.777343,0.19922 a 10.999943,10.999996 0 0 0 -0.333985,0.16211 10.999943,10.999996 0 0 1 0.333985,-0.16211 z m 9.77539,0.26758 a 10.999943,10.999996 0 0 1 0.351563,0.20313 10.999943,10.999996 0 0 0 -0.351563,-0.20313 z m -10.748047,0.24414 a 10.999943,10.999996 0 0 0 -0.335937,0.20508 10.999943,10.999996 0 0 1 0.335937,-0.20508 z m 11.712891,0.33594 a 10.999943,10.999996 0 0 1 0.251953,0.17969 10.999943,10.999996 0 0 0 -0.251953,-0.17969 z m -12.632812,0.27148 a 10.999943,10.999996 0 0 0 -0.291016,0.21875 10.999943,10.999996 0 0 1 0.291016,-0.21875 z m 13.527343,0.39649 a 10.999943,10.999996 0 0 1 0.203125,0.17969 10.999943,10.999996 0 0 0 -0.203125,-0.17969 z m -14.404296,0.32031 a 10.999943,10.999996 0 0 0 -0.226563,0.21094 10.999943,10.999996 0 0 1 0.226563,-0.21094 z m 15.210937,0.42188 a 10.999943,10.999996 0 0 1 0.1875,0.20117 10.999943,10.999996 0 0 0 -0.1875,-0.20117 z m -15.992187,0.36132 a 10.999943,10.999996 0 0 0 -0.189454,0.2168 10.999943,10.999996 0 0 1 0.189454,-0.2168 z m 16.728515,0.4668 a 10.999943,10.999996 0 0 1 0.158203,0.20703 10.999943,10.999996 0 0 0 -0.158203,-0.20703 z m -17.435547,0.4043 a 10.999943,10.999996 0 0 0 -0.146484,0.20508 10.999943,10.999996 0 0 1 0.146484,-0.20508 z m 18.070313,0.46875 a 10.999943,10.999996 0 0 1 0.158203,0.25586 10.999943,10.999996 0 0 0 -0.158203,-0.25586 z m -18.673828,0.45312 a 10.999943,10.999996 0 0 0 -0.121094,0.20899 10.999943,10.999996 0 0 1 0.121094,-0.20899 z m 19.238281,0.51563 a 10.999943,10.999996 0 0 1 0.107422,0.2207 10.999943,10.999996 0 0 0 -0.107422,-0.2207 z M 47.015625,512.916 a 10.999943,10.999996 0 0 0 -0.09961,0.2207 10.999943,10.999996 0 0 1 0.09961,-0.2207 z m 20.195316,0.52148 a 10.999943,10.999996 0 0 1 0.10351,0.2793 10.999943,10.999996 0 0 0 -0.10351,-0.2793 z m -20.605472,0.50586 a 10.999943,10.999996 0 0 0 -0.07031,0.20898 10.999943,10.999996 0 0 1 0.07031,-0.20898 z m 20.964842,0.55078 a 10.999943,10.999996 0 0 1 0.0586,0.22656 10.999943,10.999996 0 0 0 -0.0586,-0.22656 z m -21.273436,0.52148 a 10.999943,10.999996 0 0 0 -0.04102,0.1875 10.999943,10.999996 0 0 1 0.04102,-0.1875 z m 21.525386,0.56446 a 10.999943,10.999996 0 0 1 0.0293,0.19922 10.999943,10.999996 0 0 0 -0.0293,-0.19922 z m -21.716792,0.5039 a 10.999943,10.999996 0 0 0 -0.02734,0.21485 10.999943,10.999996 0 0 1 0.02734,-0.21485 z"
       style="display:inline;fill:#ffffff;fill-opacity:0.2;stroke:none;stroke-width:2;stroke-linecap:round;stroke-linejoin:round;stroke-miterlimit:4;stroke-dasharray:none;stroke-opacity:1;enable-background:new"
       inkscape:connector-curvature="0" />
    <path
       style="display:inline;fill:url(#linearGradient4555);fill-opacity:1;stroke:none;stroke-width:2;stroke-linecap:round;stroke-linejoin:round;stroke-miterlimit:4;stroke-dasharray:none;stroke-opacity:1;enable-background:new"
       d="m 56.99994,506.0001 a 10.999828,10.999992 0 0 0 -0.94531,0.047 10.999827,10.999992 0 0 0 -0.51842,0.063 10.999828,10.999992 0 0 0 -0.57167,0.087 10.999827,10.999992 0 0 0 -0.51095,0.1149 10.999828,10.999992 0 0 0 -0.55112,0.1401 10.999827,10.999992 0 0 0 -0.50815,0.1691 10.999828,10.999992 0 0 0 -0.53244,0.1943 10.999827,10.999992 0 0 0 -0.48759,0.2186 10.999828,10.999992 0 0 0 -0.50442,0.2438 10.999827,10.999992 0 0 0 -0.46985,0.269 10.999828,10.999992 0 0 0 -0.47732,0.2924 10.999827,10.999992 0 0 0 -0.43809,0.3138 10.999828,10.999992 0 0 0 -0.44651,0.34 10.999827,10.999992 0 0 0 -0.39418,0.3456 10.999828,10.999992 0 0 0 -0.42315,0.3941 A 10.999827,10.999992 0 0 0 46,517 a 10.999827,10.999992 0 0 0 3.0984,7.6522 h 0.0159 a 10.999828,10.999992 0 0 0 7.88566,3.3478 10.999828,10.999992 0 0 0 0.9341,-0.047 10.999827,10.999992 0 0 0 0.54085,-0.065 10.999828,10.999992 0 0 0 0.56045,-0.085 10.999827,10.999992 0 0 0 0.51095,-0.1148 10.999828,10.999992 0 0 0 0.55112,-0.1402 10.999827,10.999992 0 0 0 0.50815,-0.169 10.999828,10.999992 0 0 0 0.53244,-0.1944 10.999827,10.999992 0 0 0 0.4876,-0.2185 10.999828,10.999992 0 0 0 0.50441,-0.2438 10.999827,10.999992 0 0 0 0.46985,-0.2691 10.999828,10.999992 0 0 0 0.47733,-0.2923 10.999827,10.999992 0 0 0 0.43809,-0.3139 10.999828,10.999992 0 0 0 0.4465,-0.34 10.999827,10.999992 0 0 0 0.39419,-0.3456 10.999828,10.999992 0 0 0 0.42314,-0.3942 10.999827,10.999992 0 0 0 3.220781,-7.7667 10.999827,10.999992 0 0 0 -3.099341,-7.6522 h -0.0149 a 10.999828,10.999992 0 0 0 -7.88566,-3.3478 z"
       id="path4551"
       inkscape:connector-curvature="0" />
    <path
       style="display:inline;fill:#1a1a1a;fill-opacity:1;enable-background:new"
       d="m 60.628707,521.84816 c -2.37724,-1.26473 -5.16424,-1.57256 -8.47882,-0.9365 -0.92579,0.17766 -0.99136,0.18207 -1.18871,0.08 -0.48358,-0.2502 -0.47499,-0.97829 0.0141,-1.19379 0.22896,-0.10089 1.23513,-0.30003 2.09585,-0.4148 2.97992,-0.39738 5.6839,-0.0125 7.96859,1.13417 0.97063,0.48716 1.14682,0.6645 1.10391,1.11111 -0.0336,0.3499 -0.23031,0.53766 -0.58587,0.55927 -0.24336,0.0148 -0.30678,-0.008 -0.92904,-0.33943 z m 1.12473,-2.95688 c -0.44528,-0.22897 -1.00721,-0.49262 -1.24873,-0.5859 -1.629,-0.62912 -3.48557,-0.96208 -5.36449,-0.96208 -1.32917,0 -2.35581,0.12736 -3.60157,0.4468 -0.4869,0.12486 -0.60429,0.1395 -0.76703,0.0957 -0.49834,-0.13419 -0.77514,-0.68074 -0.58058,-1.14639 0.11395,-0.27274 0.36981,-0.45087 0.82337,-0.57325 0.61996,-0.16729 1.42092,-0.32927 2.10582,-0.42587 0.87246,-0.12306 3.198,-0.12317 4.10044,-2e-4 1.98687,0.27075 3.62203,0.75917 5.1317,1.53286 0.99043,0.50758 1.17874,0.69527 1.17839,1.17451 -3.5e-4,0.46348 -0.37227,0.84275 -0.8398,0.85641 -0.0704,0.002 -0.49224,-0.1836 -0.93752,-0.41257 z m 1.30929,-3.40582 c -1.13824,-0.58051 -2.21733,-0.94503 -3.64089,-1.22992 -2.73866,-0.54807 -5.9905,-0.51632 -8.18989,0.08 -0.31947,0.0866 -0.61749,0.13399 -0.84534,0.1344 -0.31237,5.6e-4 -0.37541,-0.0159 -0.56096,-0.14669 -0.30915,-0.21787 -0.44981,-0.51285 -0.42685,-0.89519 0.0349,-0.58115 0.32956,-0.83529 1.23923,-1.0688 3.35097,-0.86015 7.88829,-0.68339 11.29693,0.44011 1.24502,0.41037 2.7184,1.12235 2.94944,1.42526 0.38439,0.50396 0.21782,1.27397 -0.3333,1.54076 -0.40479,0.19596 -0.64329,0.15111 -1.48837,-0.27989 z"
       id="path4553"
       inkscape:connector-curvature="0" />
  </g>
</svg>
