<?xml version="1.0" encoding="UTF-8" standalone="no"?>
<!-- Created with Inkscape (http://www.inkscape.org/) -->

<svg
   xmlns:dc="http://purl.org/dc/elements/1.1/"
   xmlns:cc="http://creativecommons.org/ns#"
   xmlns:rdf="http://www.w3.org/1999/02/22-rdf-syntax-ns#"
   xmlns:svg="http://www.w3.org/2000/svg"
   xmlns="http://www.w3.org/2000/svg"
   xmlns:xlink="http://www.w3.org/1999/xlink"
   xmlns:sodipodi="http://sodipodi.sourceforge.net/DTD/sodipodi-0.dtd"
   xmlns:inkscape="http://www.inkscape.org/namespaces/inkscape"
   width="816"
   height="544"
   viewBox="0 0 816 544"
   version="1.1"
   id="svg1087"
   inkscape:version="0.92.1 r"
   sodipodi:docname="steam.svg">
  <defs
     id="defs1081">
    <linearGradient
       id="linearGradient4981"
       inkscape:collect="always">
      <stop
         id="stop4977"
         offset="0"
         style="stop-color:#ffffff;stop-opacity:0.05490196" />
      <stop
         id="stop4979"
         offset="1"
         style="stop-color:#177ed5;stop-opacity:0;" />
    </linearGradient>
    <linearGradient
       inkscape:collect="always"
       xlink:href="#linearGradient4981"
       id="linearGradient4435"
       gradientUnits="userSpaceOnUse"
       gradientTransform="matrix(0.65217041,0,0,0.65217328,96.347816,-158.67026)"
       x1="7"
       y1="1011.3622"
       x2="41.000019"
       y2="1045.3622" />
    <linearGradient
       inkscape:collect="always"
       xlink:href="#linearGradient4981"
       id="linearGradient4347"
       gradientUnits="userSpaceOnUse"
       gradientTransform="matrix(0.47825838,0,0,0.47826068,52.52173,24.174828)"
       x1="7"
       y1="1011.3622"
       x2="41.000019"
       y2="1045.3622" />
    <linearGradient
       inkscape:collect="always"
       xlink:href="#linearGradient4981"
       id="linearGradient4171-1-0"
       x1="7"
       y1="1011.3622"
       x2="41.000019"
       y2="1045.3622"
       gradientUnits="userSpaceOnUse"
       gradientTransform="matrix(0.95652174,0,0,0.95652174,145.04347,-479.65063)" />
    <linearGradient
       inkscape:collect="always"
       xlink:href="#linearGradient4981"
       id="linearGradient4449-0"
       gradientUnits="userSpaceOnUse"
       gradientTransform="matrix(10.434724,0,0,10.434772,293.56535,-10458.722)"
       x1="7"
       y1="1011.3622"
       x2="41.000019"
       y2="1045.3622" />
    <clipPath
       clipPathUnits="userSpaceOnUse"
       id="clipPath4486">
      <circle
         r="120"
         cy="576"
         cx="-240"
         id="circle4488"
         style="opacity:0.2;fill:#ff0000;fill-opacity:1;stroke:none;stroke-width:8;stroke-linecap:round;stroke-linejoin:miter;stroke-miterlimit:4;stroke-dasharray:none;stroke-opacity:1" />
    </clipPath>
    <clipPath
       clipPathUnits="userSpaceOnUse"
       id="clipPath1057">
      <circle
         r="120"
         cy="576"
         cx="-240"
         id="circle1055"
         style="opacity:0.2;fill:#ff0000;fill-opacity:1;stroke:none;stroke-width:8;stroke-linecap:round;stroke-linejoin:miter;stroke-miterlimit:4;stroke-dasharray:none;stroke-opacity:1" />
    </clipPath>
    <clipPath
       clipPathUnits="userSpaceOnUse"
       id="clipPath1061">
      <circle
         r="120"
         cy="576"
         cx="-240"
         id="circle1059"
         style="opacity:0.2;fill:#ff0000;fill-opacity:1;stroke:none;stroke-width:8;stroke-linecap:round;stroke-linejoin:miter;stroke-miterlimit:4;stroke-dasharray:none;stroke-opacity:1" />
    </clipPath>
    <clipPath
       clipPathUnits="userSpaceOnUse"
       id="clipPath1065">
      <circle
         r="120"
         cy="576"
         cx="-240"
         id="circle1063"
         style="opacity:0.2;fill:#ff0000;fill-opacity:1;stroke:none;stroke-width:8;stroke-linecap:round;stroke-linejoin:miter;stroke-miterlimit:4;stroke-dasharray:none;stroke-opacity:1" />
    </clipPath>
    <clipPath
       clipPathUnits="userSpaceOnUse"
       id="clipPath1069">
      <circle
         r="120"
         cy="576"
         cx="-240"
         id="circle1067"
         style="opacity:0.2;fill:#ff0000;fill-opacity:1;stroke:none;stroke-width:8;stroke-linecap:round;stroke-linejoin:miter;stroke-miterlimit:4;stroke-dasharray:none;stroke-opacity:1" />
    </clipPath>
    <filter
       inkscape:collect="always"
       style="color-interpolation-filters:sRGB"
       id="filter4645"
       x="-0.010342622"
       width="1.0206852"
       y="-0.014289923"
       height="1.0285798">
      <feGaussianBlur
         inkscape:collect="always"
         stdDeviation="0.15083007"
         id="feGaussianBlur4647" />
    </filter>
    <filter
       inkscape:collect="always"
       style="color-interpolation-filters:sRGB"
       id="filter4656"
       x="-0.011999967"
       width="1.0239999"
       y="-0.012000033"
       height="1.024">
      <feGaussianBlur
         inkscape:collect="always"
         stdDeviation="0.2199996"
         id="feGaussianBlur4658" />
    </filter>
    <filter
       inkscape:collect="always"
       style="color-interpolation-filters:sRGB"
       id="filter4672"
       x="-0.023999967"
       width="1.0479999"
       y="-0.024000034"
       height="1.0480001">
      <feGaussianBlur
         inkscape:collect="always"
         stdDeviation="4.7999748"
         id="feGaussianBlur4674" />
    </filter>
    <filter
       inkscape:collect="always"
       style="color-interpolation-filters:sRGB"
       id="filter4698"
       x="-0.020712921"
       width="1.0414258"
       y="-0.028527178"
       height="1.0570544">
      <feGaussianBlur
         inkscape:collect="always"
         stdDeviation="3.3725586"
         id="feGaussianBlur4700" />
    </filter>
    <filter
       inkscape:collect="always"
       style="color-interpolation-filters:sRGB"
       id="filter4720"
       x="-0.010470211"
       width="1.0209404"
       y="-0.01405331"
       height="1.0281066">
      <feGaussianBlur
         inkscape:collect="always"
         stdDeviation="0.103833"
         id="feGaussianBlur4722" />
    </filter>
    <linearGradient
       inkscape:collect="always"
       xlink:href="#linearGradient4981"
       id="linearGradient4749"
       gradientUnits="userSpaceOnUse"
       gradientTransform="matrix(1.3043405,0,0,1.3043465,208.69567,-845.34025)"
       x1="7"
       y1="1011.3622"
       x2="41.000019"
       y2="1045.3622" />
    <filter
       inkscape:collect="always"
       style="color-interpolation-filters:sRGB"
       id="filter4757"
       x="-0.012000027"
       width="1.0240001"
       y="-0.011999973"
       height="1.0239999">
      <feGaussianBlur
         inkscape:collect="always"
         stdDeviation="0.29999899"
         id="feGaussianBlur4759" />
    </filter>
    <filter
       inkscape:collect="always"
       style="color-interpolation-filters:sRGB"
       id="filter4769"
       x="-0.010356222"
       width="1.0207124"
       y="-0.014264041"
       height="1.0285281">
      <feGaussianBlur
         inkscape:collect="always"
         stdDeviation="0.21079163"
         id="feGaussianBlur4771" />
    </filter>
  </defs>
  <sodipodi:namedview
     id="base"
     pagecolor="#c3c3c3"
     bordercolor="#333333"
     borderopacity="1"
     inkscape:pageopacity="0"
     inkscape:pageshadow="2"
     inkscape:zoom="2"
     inkscape:cx="126.62043"
     inkscape:cy="43.277128"
     inkscape:document-units="px"
     inkscape:current-layer="layer2"
     showgrid="false"
     units="px"
     inkscape:showpageshadow="false"
     inkscape:window-width="2560"
     inkscape:window-height="1370"
     inkscape:window-x="0"
     inkscape:window-y="34"
     inkscape:window-maximized="1">
    <inkscape:grid
       type="xygrid"
       id="grid4630" />
  </sodipodi:namedview>
  <metadata
     id="metadata1084">
    <rdf:RDF>
      <cc:Work
         rdf:about="">
        <dc:format>image/svg+xml</dc:format>
        <dc:type
           rdf:resource="http://purl.org/dc/dcmitype/StillImage" />
        <dc:title></dc:title>
        <cc:license
           rdf:resource="http://creativecommons.org/licenses/by-sa/4.0/" />
        <dc:creator>
          <cc:Agent>
            <dc:title>Peter Cornelis</dc:title>
          </cc:Agent>
        </dc:creator>
      </cc:Work>
      <cc:License
         rdf:about="http://creativecommons.org/licenses/by-sa/4.0/">
        <cc:permits
           rdf:resource="http://creativecommons.org/ns#Reproduction" />
        <cc:permits
           rdf:resource="http://creativecommons.org/ns#Distribution" />
        <cc:requires
           rdf:resource="http://creativecommons.org/ns#Notice" />
        <cc:requires
           rdf:resource="http://creativecommons.org/ns#Attribution" />
        <cc:permits
           rdf:resource="http://creativecommons.org/ns#DerivativeWorks" />
        <cc:requires
           rdf:resource="http://creativecommons.org/ns#ShareAlike" />
      </cc:License>
    </rdf:RDF>
  </metadata>
  <g
     inkscape:label="Baseplate"
     inkscape:groupmode="layer"
     id="layer1"
     transform="translate(0,-153.06668)"
     style="display:none">
    <rect
       style="display:inline;overflow:visible;visibility:visible;fill:#fefefe;fill-opacity:1;fill-rule:nonzero;stroke:none;stroke-width:2;marker:none;enable-background:accumulate"
       id="rect3951"
       width="512"
       height="512"
       x="-800"
       y="169.06668"
       inkscape:label="48x48"
       transform="scale(-1,1)" />
    <text
       y="733.32251"
       xml:space="preserve"
       x="15.006836"
       style="font-style:normal;font-variant:normal;font-weight:normal;font-stretch:normal;line-height:0%;font-family:'DejaVu Sans';-inkscape-font-specification:'DejaVu Sans';display:inline;fill:#000000;fill-opacity:1;stroke:none;enable-background:new"
       inkscape:label="context"
       id="context"><tspan
         style="font-style:normal;font-variant:normal;font-weight:normal;font-stretch:normal;font-size:18px;line-height:1.25;font-family:'DejaVu Sans';-inkscape-font-specification:'DejaVu Sans'"
         y="733.32251"
         x="15.006836"
         sodipodi:role="line"
         id="tspan3933">apps</tspan></text>
    <text
       y="733.32251"
       xml:space="preserve"
       x="142.48828"
       style="font-style:normal;font-variant:normal;font-weight:bold;font-stretch:normal;line-height:0%;font-family:'DejaVu Sans';-inkscape-font-specification:'DejaVu Sans Bold';text-align:start;writing-mode:lr-tb;text-anchor:start;display:inline;fill:#000000;fill-opacity:1;stroke:none;enable-background:new"
       inkscape:label="icon-name"
       id="icon-name"><tspan
         style="font-style:normal;font-variant:normal;font-weight:bold;font-stretch:normal;font-size:18px;line-height:1.25;font-family:'DejaVu Sans';-inkscape-font-specification:'DejaVu Sans Bold'"
         y="733.32251"
         x="142.48828"
         sodipodi:role="line"
         id="tspan3937">steam</tspan></text>
    <rect
       style="display:inline;overflow:visible;visibility:visible;fill:#fefefe;fill-opacity:1;fill-rule:nonzero;stroke:none;stroke-width:2;marker:none;enable-background:accumulate"
       id="rect16x16"
       width="16"
       height="16"
       x="-32"
       y="665.06665"
       inkscape:label="16x16"
       transform="scale(-1,1)" />
    <rect
       style="display:inline;overflow:visible;visibility:visible;fill:#fefefe;fill-opacity:1;fill-rule:nonzero;stroke:none;stroke-width:2;marker:none;enable-background:accumulate"
       id="rect24x24"
       width="24"
       height="24"
       x="-76"
       y="657.06665"
       inkscape:label="24x24"
       transform="scale(-1,1)" />
    <rect
       style="display:inline;overflow:visible;visibility:visible;fill:#fefefe;fill-opacity:1;fill-rule:nonzero;stroke:none;stroke-width:2;marker:none;enable-background:accumulate"
       id="rect32x32"
       width="32"
       height="32"
       x="-128"
       y="649.06665"
       inkscape:label="32x32"
       transform="scale(-1,1)" />
    <rect
       inkscape:label="48x48"
       y="633.06665"
       x="-192"
       height="48"
       width="48"
       id="rect48x48"
       style="display:inline;overflow:visible;visibility:visible;fill:#fefefe;fill-opacity:1;fill-rule:nonzero;stroke:none;stroke-width:2;marker:none;enable-background:accumulate"
       transform="scale(-1,1)" />
    <rect
       transform="scale(-1,1)"
       inkscape:label="48x48"
       y="617.06665"
       x="-272"
       height="64"
       width="64"
       id="rect4729"
       style="display:inline;overflow:visible;visibility:visible;fill:#fefefe;fill-opacity:1;fill-rule:nonzero;stroke:none;stroke-width:0.25;marker:none;enable-background:accumulate" />
  </g>
  <g
     inkscape:groupmode="layer"
     id="layer2"
     inkscape:label="Bitmap"
     style="display:inline">
    <rect
       style="display:inline;fill:#177399;fill-opacity:1;stroke:none;stroke-opacity:0.1;enable-background:new"
       id="rect4437"
       width="16"
       height="16"
       x="16"
       y="512"
       rx="8"
       ry="8" />
    <path
       inkscape:connector-curvature="0"
       id="path4654"
       d="m 167.99999,483.0002 a 21.99977,21.999992 0 0 0 -1.89063,0.095 21.999769,21.999992 0 0 0 -1.03685,0.1252 21.99977,21.999992 0 0 0 -1.14334,0.1737 21.999769,21.999992 0 0 0 -1.02191,0.2298 21.99977,21.999992 0 0 0 -1.10224,0.2803 21.999769,21.999992 0 0 0 -1.01631,0.3381 21.99977,21.999992 0 0 0 -1.06488,0.3886 21.999769,21.999992 0 0 0 -0.9752,0.4372 21.99977,21.999992 0 0 0 -1.00883,0.4876 21.999769,21.999992 0 0 0 -0.93971,0.538 21.99977,21.999992 0 0 0 -0.95465,0.5848 21.999769,21.999992 0 0 0 -0.87619,0.6277 21.99977,21.999992 0 0 0 -0.89301,0.68 21.999769,21.999992 0 0 0 -0.78838,0.6912 21.99977,21.999992 0 0 0 -0.8463,0.7881 21.999769,21.999992 0 0 0 -6.44157,15.5345 21.999769,21.999992 0 0 0 6.19684,15.3043 h 0.0318 a 21.99977,21.999992 0 0 0 15.7714,6.6957 21.99977,21.999992 0 0 0 1.86821,-0.094 21.999769,21.999992 0 0 0 1.08169,-0.1308 21.99977,21.999992 0 0 0 1.12092,-0.17 21.999769,21.999992 0 0 0 1.02191,-0.2297 21.99977,21.999992 0 0 0 1.10224,-0.2803 21.999769,21.999992 0 0 0 1.01631,-0.3381 21.99977,21.999992 0 0 0 1.06488,-0.3887 21.999769,21.999992 0 0 0 0.9752,-0.4371 21.99977,21.999992 0 0 0 1.00883,-0.4876 21.999769,21.999992 0 0 0 0.93971,-0.5381 21.99977,21.999992 0 0 0 0.95465,-0.5847 21.999769,21.999992 0 0 0 0.87619,-0.6277 21.99977,21.999992 0 0 0 0.893,-0.68 21.999769,21.999992 0 0 0 0.78839,-0.6912 21.99977,21.999992 0 0 0 0.84629,-0.7885 21.999769,21.999992 0 0 0 6.44158,-15.5333 21.999769,21.999992 0 0 0 -6.19871,-15.3044 h -0.0299 a 21.99977,21.999992 0 0 0 -15.7714,-6.6956 z"
       style="display:inline;fill:#000000;fill-opacity:0.2;stroke:none;stroke-width:2;stroke-linecap:round;stroke-linejoin:round;stroke-miterlimit:4;stroke-dasharray:none;stroke-opacity:1;filter:url(#filter4656);enable-background:new" />
    <circle
       style="display:inline;fill:#177399;fill-opacity:1;stroke:none;stroke-width:2;stroke-linecap:round;stroke-linejoin:round;stroke-miterlimit:4;stroke-dasharray:none;stroke-opacity:1;enable-background:new"
       id="path4136"
       cx="168.00021"
       cy="503.99988"
       r="22" />
    <path
       inkscape:connector-curvature="0"
       style="display:inline;fill:#ffffff;fill-opacity:0.2;stroke:none;stroke-width:2;stroke-linecap:round;stroke-linejoin:round;stroke-miterlimit:4;stroke-dasharray:none;stroke-opacity:1;enable-background:new"
       d="m 167.99999,481.99991 a 22,22 0 0 0 -22,21.99999 22,22 0 0 0 0.0215,0.5859 A 22,22 0 0 1 168,482.99991 a 22,22 0 0 1 21.97852,21.41409 22,22 0 0 0 0.0215,-0.4141 22,22 0 0 0 -22,-21.99999 z"
       id="circle4149" />
    <ellipse
       ry="10.999995"
       rx="10.999943"
       style="display:inline;fill:#000000;fill-opacity:0.2;stroke:none;stroke-width:2;stroke-linecap:round;stroke-linejoin:round;stroke-miterlimit:4;stroke-dasharray:none;stroke-opacity:1;enable-background:new"
       id="ellipse4662"
       cx="64.000053"
       cy="517" />
    <ellipse
       cy="515.99988"
       cx="64.000053"
       id="circle4335"
       style="display:inline;fill:#177399;fill-opacity:1;stroke:none;stroke-width:2;stroke-linecap:round;stroke-linejoin:round;stroke-miterlimit:4;stroke-dasharray:none;stroke-opacity:1;enable-background:new"
       rx="10.999943"
       ry="10.999995" />
    <path
       inkscape:connector-curvature="0"
       style="display:inline;fill:#ffffff;fill-opacity:0.2;stroke:none;stroke-width:2;stroke-linecap:round;stroke-linejoin:round;stroke-miterlimit:4;stroke-dasharray:none;stroke-opacity:1;enable-background:new"
       d="m 63.999989,504.9999 a 10.999943,10.999996 0 0 0 -10.999999,11 10.999943,10.999996 0 0 0 0.01,0.23438 10.999943,10.999996 0 0 0 -0.01,0.26562 10.999943,10.999996 0 0 0 0.0117,0.29297 10.999943,10.999996 0 0 1 10.988279,-10.79297 10.999943,10.999996 0 0 1 10.988281,10.70703 10.999943,10.999996 0 0 0 0.01172,-0.20703 10.999943,10.999996 0 0 0 -0.04297,-0.84375 10.999943,10.999996 0 0 1 0.03125,0.55078 10.999943,10.999996 0 0 0 0.01172,-0.20703 10.999943,10.999996 0 0 0 -11.000001,-11 z m 0,0.5 a 10.999943,10.999996 0 0 0 -0.800781,0.0391 10.999943,10.999996 0 0 1 0.800781,-0.0391 z m 0.935547,0.0469 a 10.999943,10.999996 0 0 1 0.537109,0.0645 10.999943,10.999996 0 0 0 -0.537109,-0.0645 z m -2.347656,0.0547 a 10.999943,10.999996 0 0 0 -0.466797,0.0703 10.999943,10.999996 0 0 1 0.466797,-0.0703 z m 3.453125,0.0977 a 10.999943,10.999996 0 0 1 0.451172,0.0996 10.999943,10.999996 0 0 0 -0.451172,-0.0996 z m -4.542969,0.10156 a 10.999943,10.999996 0 0 0 -0.455078,0.11719 10.999943,10.999996 0 0 1 0.455078,-0.11719 z m 5.640625,0.16406 a 10.999943,10.999996 0 0 1 0.380859,0.12696 10.999943,10.999996 0 0 0 -0.380859,-0.12696 z m -6.681641,0.13477 a 10.999943,10.999996 0 0 0 -0.449219,0.16406 10.999943,10.999996 0 0 1 0.449219,-0.16406 z m 7.707031,0.22851 a 10.999943,10.999996 0 0 1 0.392579,0.17579 10.999943,10.999996 0 0 0 -0.392579,-0.17579 z m -8.777343,0.19922 a 10.999943,10.999996 0 0 0 -0.333985,0.16211 10.999943,10.999996 0 0 1 0.333985,-0.16211 z m 9.77539,0.26758 a 10.999943,10.999996 0 0 1 0.351563,0.20313 10.999943,10.999996 0 0 0 -0.351563,-0.20313 z m -10.748047,0.24414 a 10.999943,10.999996 0 0 0 -0.335937,0.20508 10.999943,10.999996 0 0 1 0.335937,-0.20508 z m 11.712891,0.33594 a 10.999943,10.999996 0 0 1 0.251953,0.17969 10.999943,10.999996 0 0 0 -0.251953,-0.17969 z m -12.632812,0.27148 a 10.999943,10.999996 0 0 0 -0.291016,0.21875 10.999943,10.999996 0 0 1 0.291016,-0.21875 z m 13.527343,0.39649 a 10.999943,10.999996 0 0 1 0.203125,0.17969 10.999943,10.999996 0 0 0 -0.203125,-0.17969 z m -14.404296,0.32031 a 10.999943,10.999996 0 0 0 -0.226563,0.21094 10.999943,10.999996 0 0 1 0.226563,-0.21094 z m 15.210937,0.42188 a 10.999943,10.999996 0 0 1 0.1875,0.20117 10.999943,10.999996 0 0 0 -0.1875,-0.20117 z m -15.992187,0.36132 a 10.999943,10.999996 0 0 0 -0.189454,0.2168 10.999943,10.999996 0 0 1 0.189454,-0.2168 z m 16.728515,0.4668 a 10.999943,10.999996 0 0 1 0.158203,0.20703 10.999943,10.999996 0 0 0 -0.158203,-0.20703 z m -17.435547,0.4043 a 10.999943,10.999996 0 0 0 -0.146484,0.20508 10.999943,10.999996 0 0 1 0.146484,-0.20508 z m 18.070313,0.46875 a 10.999943,10.999996 0 0 1 0.158203,0.25586 10.999943,10.999996 0 0 0 -0.158203,-0.25586 z m -18.673828,0.45312 a 10.999943,10.999996 0 0 0 -0.121094,0.20899 10.999943,10.999996 0 0 1 0.121094,-0.20899 z m 19.238281,0.51563 a 10.999943,10.999996 0 0 1 0.107422,0.2207 10.999943,10.999996 0 0 0 -0.107422,-0.2207 z M 54.015614,511.916 a 10.999943,10.999996 0 0 0 -0.09961,0.2207 10.999943,10.999996 0 0 1 0.09961,-0.2207 z m 20.195313,0.52148 a 10.999943,10.999996 0 0 1 0.103515,0.2793 10.999943,10.999996 0 0 0 -0.103515,-0.2793 z m -20.605467,0.50586 a 10.999943,10.999996 0 0 0 -0.0703,0.20898 10.999943,10.999996 0 0 1 0.0703,-0.20898 z m 20.964841,0.55078 a 10.999943,10.999996 0 0 1 0.05859,0.22656 10.999943,10.999996 0 0 0 -0.05859,-0.22656 z M 53.29686,514.0156 a 10.999943,10.999996 0 0 0 -0.041,0.1875 10.999943,10.999996 0 0 1 0.041,-0.1875 z m 21.525395,0.56446 a 10.999943,10.999996 0 0 1 0.0293,0.19922 10.999943,10.999996 0 0 0 -0.0293,-0.19922 z m -21.716795,0.5039 a 10.999943,10.999996 0 0 0 -0.0273,0.21485 10.999943,10.999996 0 0 1 0.0273,-0.21485 z"
       id="path4337" />
    <ellipse
       cy="513"
       cx="112.00007"
       id="ellipse4660"
       style="display:inline;fill:#000000;fill-opacity:0.2;stroke:none;stroke-width:2;stroke-linecap:round;stroke-linejoin:round;stroke-miterlimit:4;stroke-dasharray:none;stroke-opacity:1;enable-background:new"
       rx="14.999919"
       ry="14.999985" />
    <ellipse
       ry="14.999985"
       rx="14.999919"
       style="display:inline;fill:#177399;fill-opacity:1;stroke:none;stroke-width:2;stroke-linecap:round;stroke-linejoin:round;stroke-miterlimit:4;stroke-dasharray:none;stroke-opacity:1;enable-background:new"
       id="ellipse4423"
       cx="112.00007"
       cy="511.99988" />
    <path
       inkscape:connector-curvature="0"
       style="display:inline;fill:#ffffff;fill-opacity:0.2;stroke:none;stroke-width:2;stroke-linecap:round;stroke-linejoin:round;stroke-miterlimit:4;stroke-dasharray:none;stroke-opacity:1;enable-background:new"
       d="m 111.99999,496.9999 a 14.999763,14.99998 0 0 0 -1.28906,0.0644 14.999761,14.99998 0 0 0 -0.70703,0.0859 14.999763,14.99998 0 0 0 -0.7793,0.11914 14.999761,14.99998 0 0 0 -0.69727,0.15625 14.999763,14.99998 0 0 0 -0.75195,0.19141 14.999761,14.99998 0 0 0 -0.69141,0.23047 14.999763,14.99998 0 0 0 -0.72656,0.26367 14.999761,14.99998 0 0 0 -0.66602,0.29883 14.999763,14.99998 0 0 0 -0.6875,0.33203 14.999761,14.99998 0 0 0 -0.64062,0.36719 14.999763,14.99998 0 0 0 -0.65039,0.39843 14.999761,14.99998 0 0 0 -0.59766,0.42774 14.999763,14.99998 0 0 0 -0.60937,0.46484 14.999761,14.99998 0 0 0 -0.53711,0.4707 14.999763,14.99998 0 0 0 -0.57617,0.53711 14.999761,14.99998 0 0 0 -4.392581,10.59189 14.999761,14.99998 0 0 0 0.02344,0.4668 14.999761,14.99998 0 0 1 4.369141,-10.0586 14.999763,14.99998 0 0 1 0.57617,-0.53711 14.999761,14.99998 0 0 1 0.53711,-0.4707 14.999763,14.99998 0 0 1 0.60937,-0.46484 14.999761,14.99998 0 0 1 0.59766,-0.42774 14.999763,14.99998 0 0 1 0.65039,-0.39843 14.999761,14.99998 0 0 1 0.64063,-0.36719 14.999763,14.99998 0 0 1 0.6875,-0.33203 14.999761,14.99998 0 0 1 0.66601,-0.29883 14.999763,14.99998 0 0 1 0.72656,-0.26367 14.999761,14.99998 0 0 1 0.69141,-0.23047 14.999763,14.99998 0 0 1 0.75195,-0.19141 14.999761,14.99998 0 0 1 0.69727,-0.15625 14.999763,14.99998 0 0 1 0.7793,-0.11914 14.999761,14.99998 0 0 1 0.70703,-0.0859 14.999763,14.99998 0 0 1 1.28906,-0.0645 14.999763,14.99998 0 0 1 10.75391,4.56641 h 0.0195 a 14.999761,14.99998 0 0 1 4.20312,9.97461 14.999761,14.99998 0 0 0 0.0235,-0.54101 14.999761,14.99998 0 0 0 -4.22656,-10.43359 h -0.0195 a 14.999763,14.99998 0 0 0 -10.75394,-4.56641 z"
       id="path4678" />
    <path
       inkscape:connector-curvature="0"
       id="path4666"
       d="m 543.99876,34.0032 a 239.99618,239.99966 0 0 0 -20.62495,1.024 239.99614,239.99966 0 0 0 -11.31103,1.376 239.99618,239.99966 0 0 0 -12.4728,1.8976 239.99614,239.99966 0 0 0 -11.14799,2.5072 239.99618,239.99966 0 0 0 -12.0244,3.056 239.99614,239.99966 0 0 0 -11.08687,3.6896 239.99618,239.99966 0 0 0 -11.61687,4.24 239.99614,239.99966 0 0 0 -10.63832,4.7696 239.99618,239.99966 0 0 0 -11.00551,5.3184 239.99614,239.99966 0 0 0 -10.25128,5.8688 239.99618,239.99966 0 0 0 -10.41423,6.3808 239.99614,239.99966 0 0 0 -9.5584,6.8464 239.99618,239.99966 0 0 0 -9.74207,7.4176 239.99614,239.99966 0 0 0 -8.60024,7.5408 239.99618,239.99966 0 0 0 -9.23232,8.5984 A 239.99614,239.99966 0 0 0 304.00016,274 239.99614,239.99966 0 0 0 371.60157,440.9568 h 0.3472 A 239.99618,239.99966 0 0 0 543.9994,514 a 239.99618,239.99966 0 0 0 20.38039,-1.024 239.99614,239.99966 0 0 0 11.80047,-1.424 239.99618,239.99966 0 0 0 12.228,-1.8544 239.99614,239.99966 0 0 0 11.14799,-2.5056 239.99618,239.99966 0 0 0 12.02432,-3.0592 239.99614,239.99966 0 0 0 11.08687,-3.6864 239.99618,239.99966 0 0 0 11.61695,-4.2416 239.99614,239.99966 0 0 0 10.63856,-4.768 239.99618,239.99966 0 0 0 11.00527,-5.3184 239.99614,239.99966 0 0 0 10.2512,-5.872 239.99618,239.99966 0 0 0 10.41455,-6.3776 239.99614,239.99966 0 0 0 9.55824,-6.848 239.99618,239.99966 0 0 0 9.74191,-7.4176 239.99614,239.99966 0 0 0 8.60048,-7.5408 239.99618,239.99966 0 0 0 9.23216,-8.6016 239.99614,239.99966 0 0 0 70.27156,-169.4544 239.99614,239.99966 0 0 0 -67.62197,-166.9568 h -0.3248 A 239.99618,239.99966 0 0 0 544.00084,34.0064 Z"
       style="display:inline;fill:#000000;fill-opacity:0.2;stroke:none;stroke-width:15.99999523;stroke-linecap:round;stroke-linejoin:round;stroke-miterlimit:4;stroke-dasharray:none;stroke-opacity:1;filter:url(#filter4672);enable-background:new" />
    <path
       style="display:inline;fill:#000000;fill-opacity:0.2;stroke:none;stroke-width:15.99999523;stroke-linecap:round;stroke-linejoin:round;stroke-miterlimit:4;stroke-dasharray:none;stroke-opacity:1;enable-background:new"
       d="m 543.99876,34.0032 a 239.99618,239.99966 0 0 0 -20.62495,1.024 239.99614,239.99966 0 0 0 -11.31103,1.376 239.99618,239.99966 0 0 0 -12.4728,1.8976 239.99614,239.99966 0 0 0 -11.14799,2.5072 239.99618,239.99966 0 0 0 -12.0244,3.056 239.99614,239.99966 0 0 0 -11.08687,3.6896 239.99618,239.99966 0 0 0 -11.61687,4.24 239.99614,239.99966 0 0 0 -10.63832,4.7696 239.99618,239.99966 0 0 0 -11.00551,5.3184 239.99614,239.99966 0 0 0 -10.25128,5.8688 239.99618,239.99966 0 0 0 -10.41423,6.3808 239.99614,239.99966 0 0 0 -9.5584,6.8464 239.99618,239.99966 0 0 0 -9.74207,7.4176 239.99614,239.99966 0 0 0 -8.60024,7.5408 239.99618,239.99966 0 0 0 -9.23232,8.5984 A 239.99614,239.99966 0 0 0 304.00016,274 239.99614,239.99966 0 0 0 371.60157,440.9568 h 0.3472 A 239.99618,239.99966 0 0 0 543.9994,514 a 239.99618,239.99966 0 0 0 20.38039,-1.024 239.99614,239.99966 0 0 0 11.80047,-1.424 239.99618,239.99966 0 0 0 12.228,-1.8544 239.99614,239.99966 0 0 0 11.14799,-2.5056 239.99618,239.99966 0 0 0 12.02432,-3.0592 239.99614,239.99966 0 0 0 11.08687,-3.6864 239.99618,239.99966 0 0 0 11.61695,-4.2416 239.99614,239.99966 0 0 0 10.63856,-4.768 239.99618,239.99966 0 0 0 11.00527,-5.3184 239.99614,239.99966 0 0 0 10.2512,-5.872 239.99618,239.99966 0 0 0 10.41455,-6.3776 239.99614,239.99966 0 0 0 9.55824,-6.848 239.99618,239.99966 0 0 0 9.74191,-7.4176 239.99614,239.99966 0 0 0 8.60048,-7.5408 239.99618,239.99966 0 0 0 9.23216,-8.6016 239.99614,239.99966 0 0 0 70.27156,-169.4544 239.99614,239.99966 0 0 0 -67.62197,-166.9568 h -0.3248 A 239.99618,239.99966 0 0 0 544.00084,34.0064 Z"
       id="path4664"
       inkscape:connector-curvature="0" />
    <ellipse
       cy="271.99979"
       cx="544.00134"
       id="ellipse4437"
       style="display:inline;fill:#177399;fill-opacity:1;stroke:none;stroke-width:15.99999523;stroke-linecap:round;stroke-linejoin:round;stroke-miterlimit:4;stroke-dasharray:none;stroke-opacity:1;enable-background:new"
       rx="239.99864"
       ry="239.99974" />
    <path
       style="display:inline;fill:#ffffff;fill-opacity:0.2;stroke:none;stroke-width:15.99999523;stroke-linecap:round;stroke-linejoin:round;stroke-miterlimit:4;stroke-dasharray:none;stroke-opacity:1;enable-background:new"
       d="m 544,32 a 239.99869,239.99976 0 0 0 -240,240 239.99869,239.99976 0 0 0 0.0352,0.99219 A 239.99869,239.99976 0 0 1 544,34 239.99869,239.99976 0 0 1 783.94922,272.98438 239.99869,239.99976 0 0 0 784,272 239.99869,239.99976 0 0 0 544,32 Z"
       id="path4439"
       inkscape:connector-curvature="0" />
    <path
       style="display:inline;fill:#000000;fill-opacity:0.2;stroke:none;stroke-width:15.99999523;stroke-linecap:round;stroke-linejoin:round;stroke-miterlimit:4;stroke-dasharray:none;stroke-opacity:1;enable-background:new"
       d="m 612.66602,139.59961 a 82.133335,82.133335 0 0 0 -82.13282,82.13281 82.133335,82.133335 0 0 0 0.11719,2.33399 l -59.84961,79.80078 0.95508,0.38281 a 59.733334,59.733334 0 0 0 -21.55859,6.70312 L 370.44336,276.77344 305.375,248.88672 a 239.99864,239.99974 0 0 0 -1.35156,23.69336 239.99864,239.99974 0 0 0 0.1875,5.29297 239.99864,239.99974 0 0 0 0.75781,14.10547 239.99864,239.99974 0 0 0 2.19336,18.07226 239.99864,239.99974 0 0 0 0.62695,4.05469 239.99864,239.99974 0 0 0 4.23438,18.86719 l 58.41992,25.03711 50.33203,21.57031 a 59.733334,59.733334 0 0 0 57.49219,43.7539 A 59.733334,59.733334 0 0 0 538,363.59961 a 59.733334,59.733334 0 0 0 -0.26953,-5.39649 l 72.55859,-54.41992 a 82.133335,82.133335 0 0 0 2.37696,0.084 82.133335,82.133335 0 0 0 82.13476,-82.13477 82.133335,82.133335 0 0 0 -82.13476,-82.13281 z m 0,29.86719 A 52.266668,52.266668 0 0 1 664.93359,221.73242 52.266668,52.266668 0 0 1 612.66602,274 52.266668,52.266668 0 0 1 560.40039,221.73242 52.266668,52.266668 0 0 1 612.66602,169.4668 Z m 0,14.93359 a 37.333334,37.333334 0 0 0 -37.33204,37.33203 37.333334,37.333334 0 0 0 37.33204,37.33399 A 37.333334,37.333334 0 0 0 650,221.73242 37.333334,37.333334 0 0 0 612.66602,184.40039 Z M 478.26758,318.79883 a 44.800001,44.800001 0 0 1 44.79883,44.80078 44.800001,44.800001 0 0 1 -44.79883,44.80078 44.800001,44.800001 0 0 1 -37.4336,-20.22461 l 22.72461,9.73828 0.0195,-0.0391 a 37.333334,37.333334 0 0 0 14.68946,3.05859 37.333334,37.333334 0 0 0 37.33203,-37.33398 37.333334,37.333334 0 0 0 -22.64453,-34.27344 l 0.0195,-0.041 -22.73242,-9.74219 a 44.800001,44.800001 0 0 1 8.02539,-0.74414 z"
       id="ellipse4689"
       inkscape:connector-curvature="0" />
    <path
       id="path4692"
       d="m 612.66602,139.59961 a 82.133335,82.133335 0 0 0 -82.13282,82.13281 82.133335,82.133335 0 0 0 0.11719,2.33399 l -59.84961,79.80078 0.95508,0.38281 a 59.733334,59.733334 0 0 0 -21.55859,6.70312 L 370.44336,276.77344 305.375,248.88672 a 239.99864,239.99974 0 0 0 -1.35156,23.69336 239.99864,239.99974 0 0 0 0.1875,5.29297 239.99864,239.99974 0 0 0 0.75781,14.10547 239.99864,239.99974 0 0 0 2.19336,18.07226 239.99864,239.99974 0 0 0 0.62695,4.05469 239.99864,239.99974 0 0 0 4.23438,18.86719 l 58.41992,25.03711 50.33203,21.57031 a 59.733334,59.733334 0 0 0 57.49219,43.7539 A 59.733334,59.733334 0 0 0 538,363.59961 a 59.733334,59.733334 0 0 0 -0.26953,-5.39649 l 72.55859,-54.41992 a 82.133335,82.133335 0 0 0 2.37696,0.084 82.133335,82.133335 0 0 0 82.13476,-82.13477 82.133335,82.133335 0 0 0 -82.13476,-82.13281 z m 0,29.86719 A 52.266668,52.266668 0 0 1 664.93359,221.73242 52.266668,52.266668 0 0 1 612.66602,274 52.266668,52.266668 0 0 1 560.40039,221.73242 52.266668,52.266668 0 0 1 612.66602,169.4668 Z m 0,14.93359 a 37.333334,37.333334 0 0 0 -37.33204,37.33203 37.333334,37.333334 0 0 0 37.33204,37.33399 A 37.333334,37.333334 0 0 0 650,221.73242 37.333334,37.333334 0 0 0 612.66602,184.40039 Z M 478.26758,318.79883 a 44.800001,44.800001 0 0 1 44.79883,44.80078 44.800001,44.800001 0 0 1 -44.79883,44.80078 44.800001,44.800001 0 0 1 -37.4336,-20.22461 l 22.72461,9.73828 0.0195,-0.0391 a 37.333334,37.333334 0 0 0 14.68946,3.05859 37.333334,37.333334 0 0 0 37.33203,-37.33398 37.333334,37.333334 0 0 0 -22.64453,-34.27344 l 0.0195,-0.041 -22.73242,-9.74219 a 44.800001,44.800001 0 0 1 8.02539,-0.74414 z"
       style="display:inline;fill:#000000;fill-opacity:0.2;stroke:none;stroke-width:15.99999523;stroke-linecap:round;stroke-linejoin:round;stroke-miterlimit:4;stroke-dasharray:none;stroke-opacity:1;filter:url(#filter4698);enable-background:new"
       inkscape:connector-curvature="0" />
    <path
       clip-path="url(#clipPath4486)"
       id="path4543"
       transform="matrix(0.06666667,0,0,0.06666667,40.000001,481.59966)"
       d="m -200,504 a 44,44 0 0 0 -44,44 44,44 0 0 0 0.0625,1.25 L -276,592 l 0.51172,0.20508 a 32,32 0 0 0 -11.54883,3.5918 L -376.12109,557.61719 -384,596 v -40 l -7.87891,38.38281 89.08008,38.17774 A 32,32 0 0 0 -272,656 a 32,32 0 0 0 32,-32 32,32 0 0 0 -0.14453,-2.89062 l 38.87109,-29.1543 A 44,44 0 0 0 -200,592 a 44,44 0 0 0 44,-44 44,44 0 0 0 -44,-44 z m 0,16 a 28,28 0 0 1 28,28 28,28 0 0 1 -28,28 28,28 0 0 1 -28,-28 28,28 0 0 1 28,-28 z m 0,8 a 20,20 0 0 0 -20,20 20,20 0 0 0 20,20 20,20 0 0 0 20,-20 20,20 0 0 0 -20,-20 z m -72,72 a 24,24 0 0 1 24,24 24,24 0 0 1 -24,24 24,24 0 0 1 -20.05273,-10.83398 l 12.17382,5.21679 0.01,-0.0215 A 20,20 0 0 0 -272,644 a 20,20 0 0 0 20,-20 20,20 0 0 0 -12.13086,-18.36133 l 0.01,-0.0215 -12.17774,-5.21875 A 24,24 0 0 1 -272,600 Z"
       style="display:inline;opacity:1;fill:#f5f5f5;fill-opacity:1;stroke:none;stroke-width:8;stroke-linecap:round;stroke-linejoin:miter;stroke-miterlimit:4;stroke-dasharray:none;stroke-opacity:1;enable-background:new"
       inkscape:connector-curvature="0" />
    <path
       style="display:inline;fill:#000000;fill-opacity:0.2;stroke:none;stroke-width:2;stroke-linecap:round;stroke-linejoin:round;stroke-miterlimit:4;stroke-dasharray:none;stroke-opacity:1;enable-background:new"
       d="m 67.666016,510.40039 a 4.0333335,4.0333335 0 0 0 -4.033204,4.0332 4.0333335,4.0333335 0 0 0 0.0059,0.11329 l -2.939453,3.91992 0.04687,0.0176 a 2.9333334,2.9333334 0 0 0 -1.058594,0.33007 l -6.685547,-2.86523 A 10.999943,10.999995 0 0 0 53,516 a 10.999943,10.999995 0 0 0 0.898438,4.32227 l 4.345703,1.86132 a 2.9333334,2.9333334 0 0 0 2.822265,2.14844 A 2.9333334,2.9333334 0 0 0 64,521.40039 2.9333334,2.9333334 0 0 0 63.98633,521.13477 l 3.564453,-2.67188 a 4.0333335,4.0333335 0 0 0 0.115235,0.004 4.0333335,4.0333335 0 0 0 4.033203,-4.03321 4.0333335,4.0333335 0 0 0 -4.033203,-4.0332 z m 0,1.4668 a 2.5666668,2.5666668 0 0 1 2.566406,2.5664 2.5666668,2.5666668 0 0 1 -2.566406,2.56641 2.5666668,2.5666668 0 0 1 -2.566407,-2.56641 2.5666668,2.5666668 0 0 1 2.566407,-2.5664 z m 0,0.73242 a 1.8333334,1.8333334 0 0 0 -1.832032,1.83398 1.8333334,1.8333334 0 0 0 1.832032,1.83203 1.8333334,1.8333334 0 0 0 1.833984,-1.83203 1.8333334,1.8333334 0 0 0 -1.833984,-1.83398 z m -6.59961,6.59961 a 2.2000001,2.2000001 0 0 1 2.201172,2.20117 2.2000001,2.2000001 0 0 1 -2.201172,2.19922 2.2000001,2.2000001 0 0 1 -1.83789,-0.99219 l 1.115234,0.47656 0.002,-0.002 a 1.8333334,1.8333334 0 0 0 0.720703,0.15039 1.8333334,1.8333334 0 0 0 1.833985,-1.83203 1.8333334,1.8333334 0 0 0 -1.113282,-1.68359 l 0.002,-0.002 -1.117187,-0.47851 a 2.2000001,2.2000001 0 0 1 0.394531,-0.0371 z"
       id="ellipse4709"
       inkscape:connector-curvature="0" />
    <path
       inkscape:connector-curvature="0"
       style="display:inline;opacity:1;fill:#f5f5f5;fill-opacity:1;stroke:none;stroke-width:8;stroke-linecap:round;stroke-linejoin:miter;stroke-miterlimit:4;stroke-dasharray:none;stroke-opacity:1;enable-background:new"
       d="m -200,504 a 44,44 0 0 0 -44,44 44,44 0 0 0 0.0625,1.25 L -276,592 l 0.51172,0.20508 a 32,32 0 0 0 -11.54883,3.5918 L -376.12109,557.61719 -384,596 v -40 l -7.87891,38.38281 89.08008,38.17774 A 32,32 0 0 0 -272,656 a 32,32 0 0 0 32,-32 32,32 0 0 0 -0.14453,-2.89062 l 38.87109,-29.1543 A 44,44 0 0 0 -200,592 a 44,44 0 0 0 44,-44 44,44 0 0 0 -44,-44 z m 0,16 a 28,28 0 0 1 28,28 28,28 0 0 1 -28,28 28,28 0 0 1 -28,-28 28,28 0 0 1 28,-28 z m 0,8 a 20,20 0 0 0 -20,20 20,20 0 0 0 20,20 20,20 0 0 0 20,-20 20,20 0 0 0 -20,-20 z m -72,72 a 24,24 0 0 1 24,24 24,24 0 0 1 -24,24 24,24 0 0 1 -20.05273,-10.83398 l 12.17382,5.21679 0.01,-0.0215 A 20,20 0 0 0 -272,644 a 20,20 0 0 0 20,-20 20,20 0 0 0 -12.13086,-18.36133 l 0.01,-0.0215 -12.17774,-5.21875 A 24,24 0 0 1 -272,600 Z"
       transform="matrix(0.09166667,0,0,0.09166667,85.999998,463.19966)"
       id="path4537"
       clip-path="url(#clipPath4486)" />
    <path
       inkscape:connector-curvature="0"
       id="path4345"
       d="m 63.999929,505 a 10.999828,10.999992 0 0 0 -0.94531,0.047 10.999827,10.999992 0 0 0 -0.51842,0.063 10.999828,10.999992 0 0 0 -0.57167,0.087 10.999827,10.999992 0 0 0 -0.51095,0.1149 10.999828,10.999992 0 0 0 -0.55112,0.1401 10.999827,10.999992 0 0 0 -0.50815,0.1691 10.999828,10.999992 0 0 0 -0.53244,0.1943 10.999827,10.999992 0 0 0 -0.48759,0.2186 10.999828,10.999992 0 0 0 -0.50442,0.2438 10.999827,10.999992 0 0 0 -0.46985,0.269 10.999828,10.999992 0 0 0 -0.47732,0.2924 10.999827,10.999992 0 0 0 -0.43809,0.3138 10.999828,10.999992 0 0 0 -0.44651,0.34 10.999827,10.999992 0 0 0 -0.39418,0.3456 10.999828,10.999992 0 0 0 -0.42315,0.3941 10.999827,10.999992 0 0 0 -3.220769,7.7672 10.999827,10.999992 0 0 0 3.098399,7.6522 h 0.0159 a 10.999828,10.999992 0 0 0 7.88566,3.3478 10.999828,10.999992 0 0 0 0.9341,-0.047 10.999827,10.999992 0 0 0 0.54085,-0.065 10.999828,10.999992 0 0 0 0.56045,-0.085 10.999827,10.999992 0 0 0 0.51095,-0.1148 10.999828,10.999992 0 0 0 0.55112,-0.1402 10.999827,10.999992 0 0 0 0.50815,-0.169 10.999828,10.999992 0 0 0 0.53244,-0.1944 10.999827,10.999992 0 0 0 0.4876,-0.2185 10.999828,10.999992 0 0 0 0.50441,-0.2438 10.999827,10.999992 0 0 0 0.46985,-0.2691 10.999828,10.999992 0 0 0 0.47733,-0.2923 10.999827,10.999992 0 0 0 0.43809,-0.3139 10.999828,10.999992 0 0 0 0.4465,-0.34 10.999827,10.999992 0 0 0 0.39419,-0.3456 10.999828,10.999992 0 0 0 0.42314,-0.3942 10.999827,10.999992 0 0 0 3.22078,-7.7667 10.999827,10.999992 0 0 0 -3.09934,-7.6522 h -0.0149 a 10.999828,10.999992 0 0 0 -7.88566,-3.3478 z"
       style="display:inline;fill:url(#linearGradient4347);fill-opacity:1;stroke:none;stroke-width:2;stroke-linecap:round;stroke-linejoin:round;stroke-miterlimit:4;stroke-dasharray:none;stroke-opacity:1;enable-background:new" />
    <path
       style="display:inline;fill:#000000;fill-opacity:0.2;stroke:none;stroke-width:2;stroke-linecap:round;stroke-linejoin:round;stroke-miterlimit:4;stroke-dasharray:none;stroke-opacity:1;filter:url(#filter4720);enable-background:new"
       d="m 115.66602,504.59961 a 5.1333335,5.1333335 0 0 0 -5.13282,5.13281 5.1333335,5.1333335 0 0 0 0.008,0.14649 l -3.74024,4.98828 0.0586,0.0234 a 3.7333334,3.7333334 0 0 0 -1.34766,0.41797 l -8.498048,-3.64062 A 14.999761,14.99998 0 0 0 97,512 a 14.999761,14.99998 0 0 0 0.925781,5.13477 l 5.748049,2.46289 a 3.7333334,3.7333334 0 0 0 3.59375,2.73437 3.7333334,3.7333334 0 0 0 3.73242,-3.73242 3.7333334,3.7333334 0 0 0 -0.0176,-0.33789 l 4.53516,-3.40039 a 5.1333335,5.1333335 0 0 0 0.14844,0.006 5.1333335,5.1333335 0 0 0 5.13476,-5.13477 5.1333335,5.1333335 0 0 0 -5.13476,-5.13281 z m 0,1.86719 a 3.2666668,3.2666668 0 0 1 3.26757,3.26562 3.2666668,3.2666668 0 0 1 -3.26757,3.26758 3.2666668,3.2666668 0 0 1 -3.26563,-3.26758 3.2666668,3.2666668 0 0 1 3.26563,-3.26562 z m 0,0.93359 a 2.3333334,2.3333334 0 0 0 -2.33204,2.33203 2.3333334,2.3333334 0 0 0 2.33204,2.33399 2.3333334,2.3333334 0 0 0 2.33398,-2.33399 2.3333334,2.3333334 0 0 0 -2.33398,-2.33203 z m -8.39844,8.39844 a 2.8000001,2.8000001 0 0 1 2.79883,2.80078 2.8000001,2.8000001 0 0 1 -2.79883,2.80078 2.8000001,2.8000001 0 0 1 -2.33985,-1.26562 l 1.41993,0.60937 v -0.002 a 2.3333334,2.3333334 0 0 0 0.91992,0.1914 2.3333334,2.3333334 0 0 0 2.33203,-2.33398 2.3333334,2.3333334 0 0 0 -1.41406,-2.14258 v -0.002 l -1.41993,-0.60938 a 2.8000001,2.8000001 0 0 1 0.50196,-0.0469 z"
       id="path4715"
       inkscape:connector-curvature="0" />
    <path
       inkscape:connector-curvature="0"
       style="display:inline;opacity:1;fill:#f5f5f5;fill-opacity:1;stroke:none;stroke-width:17.1428566;stroke-linecap:round;stroke-linejoin:miter;stroke-miterlimit:4;stroke-dasharray:none;stroke-opacity:1;enable-background:new"
       d="m -200,504 a 44,44 0 0 0 -44,44 44,44 0 0 0 0.0625,1.25 L -276,592 l 0.51172,0.20508 a 32,32 0 0 0 -11.54883,3.5918 L -376.12109,557.61719 -384,596 v -40 l -7.87891,38.38281 89.08008,38.17774 A 32,32 0 0 0 -272,656 a 32,32 0 0 0 32,-32 32,32 0 0 0 -0.14453,-2.89062 l 38.87109,-29.1543 A 44,44 0 0 0 -200,592 a 44,44 0 0 0 44,-44 44,44 0 0 0 -44,-44 z m 0,16 a 28,28 0 0 1 28,28 28,28 0 0 1 -28,28 28,28 0 0 1 -28,-28 28,28 0 0 1 28,-28 z m 0,8 a 20,20 0 0 0 -20,20 20,20 0 0 0 20,20 20,20 0 0 0 20,-20 20,20 0 0 0 -20,-20 z m -72,72 a 24,24 0 0 1 24,24 24,24 0 0 1 -24,24 24,24 0 0 1 -20.05273,-10.83398 l 12.17382,5.21679 0.01,-0.0215 A 20,20 0 0 0 -272,644 a 20,20 0 0 0 20,-20 20,20 0 0 0 -12.13086,-18.36133 l 0.01,-0.0215 -12.17774,-5.21875 A 24,24 0 0 1 -272,600 Z"
       transform="matrix(0.11666667,0,0,0.11666667,139,444.79966)"
       id="path4504"
       clip-path="url(#clipPath4486)" />
    <path
       style="display:inline;fill:url(#linearGradient4435);fill-opacity:1;stroke:none;stroke-width:2;stroke-linecap:round;stroke-linejoin:round;stroke-miterlimit:4;stroke-dasharray:none;stroke-opacity:1;enable-background:new"
       d="m 111.99991,497.0001 a 14.999763,14.99998 0 0 0 -1.28906,0.064 14.999761,14.99998 0 0 0 -0.70694,0.086 14.999763,14.99998 0 0 0 -0.77955,0.1186 14.999761,14.99998 0 0 0 -0.69675,0.1567 14.999763,14.99998 0 0 0 -0.75153,0.191 14.999761,14.99998 0 0 0 -0.69293,0.2306 14.999763,14.99998 0 0 0 -0.72605,0.265 14.999761,14.99998 0 0 0 -0.6649,0.2981 14.999763,14.99998 0 0 0 -0.68784,0.3324 14.999761,14.99998 0 0 0 -0.64071,0.3668 14.999763,14.99998 0 0 0 -0.65089,0.3988 14.999761,14.99998 0 0 0 -0.5974,0.4279 14.999763,14.99998 0 0 0 -0.60887,0.4636 14.999761,14.99998 0 0 0 -0.53752,0.4713 14.999763,14.99998 0 0 0 -0.57702,0.5374 14.999761,14.99998 0 0 0 -4.391961,10.5916 14.999761,14.99998 0 0 0 4.225091,10.4348 h 0.0217 a 14.999763,14.99998 0 0 0 10.75317,4.5652 14.999763,14.99998 0 0 0 1.27377,-0.064 14.999761,14.99998 0 0 0 0.73753,-0.089 14.999763,14.99998 0 0 0 0.76425,-0.1159 14.999761,14.99998 0 0 0 0.69675,-0.1566 14.999763,14.99998 0 0 0 0.75152,-0.1912 14.999761,14.99998 0 0 0 0.69293,-0.2304 14.999763,14.99998 0 0 0 0.72606,-0.2651 14.999761,14.99998 0 0 0 0.66491,-0.298 14.999763,14.99998 0 0 0 0.68783,-0.3324 14.999761,14.99998 0 0 0 0.6407,-0.367 14.999763,14.99998 0 0 0 0.65091,-0.3986 14.999761,14.99998 0 0 0 0.59739,-0.428 14.999763,14.99998 0 0 0 0.60887,-0.4636 14.999761,14.99998 0 0 0 0.53753,-0.4713 14.999763,14.99998 0 0 0 0.57701,-0.5376 14.999761,14.99998 0 0 0 4.39197,-10.5909 14.999761,14.99998 0 0 0 -4.22637,-10.4348 h -0.0203 a 14.999763,14.99998 0 0 0 -10.75317,-4.5652 z"
       id="path4433"
       inkscape:connector-curvature="0" />
    <path
       id="path4643"
       d="m 173.66602,492.99997 c -4.05009,0 -7.33204,3.28194 -7.33204,7.33203 0.002,0.0695 0.005,0.13959 0.01,0.20899 l -5.34375,7.125 0.0859,0.0351 c -0.67382,0.0754 -1.32807,0.27758 -1.92578,0.59766 l -13.02149,-5.58008 a 21.999769,21.999992 0 0 0 -0.13886,2.2813 21.999769,21.999992 0 0 0 0.64844,5.19141 L 152,512.48435 v -0.002 l 4.5332,1.94336 c 0.6404,2.30663 2.73894,3.90364 5.13282,3.90625 2.94551,0 5.33398,-2.38651 5.33398,-5.33203 -8.3e-4,-0.16087 -0.008,-0.32228 -0.0234,-0.48242 l 6.47852,-4.85938 c 0.0707,0.004 0.14016,0.006 0.21094,0.008 4.05008,0 7.33398,-3.2839 7.33398,-7.33399 0,-4.05009 -3.2839,-7.33203 -7.33398,-7.33203 z m 0,2.66602 c 2.57732,0 4.66796,2.08868 4.66796,4.66601 0,2.57733 -2.09064,4.66797 -4.66796,4.66797 -2.57733,0 -4.66602,-2.09064 -4.66602,-4.66797 0,-2.57733 2.08869,-4.66601 4.66602,-4.66601 z m 0,1.33398 c -1.84095,0 -3.33204,1.49108 -3.33204,3.33203 0,1.84095 1.49109,3.33399 3.33204,3.33399 1.84094,0 3.33398,-1.49304 3.33398,-3.33399 0,-1.84095 -1.49304,-3.33203 -3.33398,-3.33203 z m -12,12 c 2.20913,0 4,1.79086 4,4 0,2.20914 -1.79087,4 -4,4 -1.34701,-8.3e-4 -2.60285,-0.68041 -3.3418,-1.80664 l 2.0293,0.86914 0.002,-0.002 c 0.41417,0.17885 0.85941,0.27013 1.31055,0.27148 1.84094,0 3.33398,-1.49108 3.33398,-3.33203 -0.002,-1.33249 -0.79647,-2.53627 -2.02148,-3.06055 l 0.002,-0.004 -2.0293,-0.86914 c 0.23633,-0.0436 0.47452,-0.0658 0.71485,-0.0664 z"
       style="fill:#000000;fill-opacity:0.2;filter:url(#filter4645)"
       inkscape:connector-curvature="0" />
    <path
       style="fill:#f5f5f5;fill-opacity:1"
       d="m 173.66602,492 c -4.05009,0 -7.33204,3.28194 -7.33204,7.33203 0.002,0.0695 0.005,0.13959 0.01,0.20899 l -5.34375,7.125 0.0859,0.0351 c -0.67382,0.0754 -1.32807,0.27758 -1.92578,0.59766 L 146.13886,501.7187 A 21.999769,21.999992 0 0 0 146,504 a 21.999769,21.999992 0 0 0 0.64844,5.19141 L 152,511.48438 v -0.002 l 4.5332,1.94336 c 0.6404,2.30663 2.73894,3.90364 5.13282,3.90625 2.94551,0 5.33398,-2.38651 5.33398,-5.33203 -8.3e-4,-0.16087 -0.008,-0.32228 -0.0234,-0.48242 l 6.47852,-4.85938 c 0.0707,0.004 0.14016,0.006 0.21094,0.008 4.05008,0 7.33398,-3.2839 7.33398,-7.33399 C 181,495.28194 177.7161,492 173.66602,492 Z m 0,2.66602 c 2.57732,0 4.66796,2.08868 4.66796,4.66601 0,2.57733 -2.09064,4.66797 -4.66796,4.66797 C 171.08869,504 169,501.90936 169,499.33203 c 0,-2.57733 2.08869,-4.66601 4.66602,-4.66601 z m 0,1.33398 c -1.84095,0 -3.33204,1.49108 -3.33204,3.33203 0,1.84095 1.49109,3.33399 3.33204,3.33399 1.84094,0 3.33398,-1.49304 3.33398,-3.33399 C 177,497.49108 175.50696,496 173.66602,496 Z m -12,12 c 2.20913,0 4,1.79086 4,4 0,2.20914 -1.79087,4 -4,4 -1.34701,-8.3e-4 -2.60285,-0.68041 -3.3418,-1.80664 l 2.0293,0.86914 0.002,-0.002 c 0.41417,0.17885 0.85941,0.27013 1.31055,0.27148 1.84094,0 3.33398,-1.49108 3.33398,-3.33203 -0.002,-1.33249 -0.79647,-2.53627 -2.02148,-3.06055 l 0.002,-0.004 -2.0293,-0.86914 c 0.23633,-0.0436 0.47452,-0.0658 0.71485,-0.0664 z"
       id="path4636"
       inkscape:connector-curvature="0" />
    <path
       style="fill:#ffffff;fill-opacity:1"
       d="m 173.66602,492 c -4.05009,0 -7.33204,3.28194 -7.33204,7.33203 0.002,0.0695 0.005,0.13959 0.01,0.20899 l -5.34375,7.125 0.0859,0.0351 c -0.67382,0.0754 -1.32807,0.27758 -1.92578,0.59766 L 146.13886,501.7187 A 21.999769,21.999992 0 0 0 146,504 a 21.999769,21.999992 0 0 0 0.0273,0.48828 21.999769,21.999992 0 0 1 0.11133,-1.76953 l 13.02149,5.58008 c 0.59771,-0.32008 1.25196,-0.52226 1.92578,-0.59766 l -0.0859,-0.0351 5.34375,-7.125 c -0.005,-0.0694 -0.008,-0.13949 -0.01,-0.20899 0,-4.05009 3.28195,-7.33203 7.33204,-7.33203 3.88131,0 7.05051,3.01624 7.30859,6.83203 0.0112,-0.16592 0.0254,-0.33123 0.0254,-0.5 C 181,495.28194 177.7161,492 173.66602,492 Z m 0,4 c -1.84095,0 -3.33204,1.49108 -3.33204,3.33203 0,0.17125 0.0259,0.3357 0.0508,0.5 0.24264,-1.60171 1.61154,-2.83203 3.28125,-2.83203 1.66969,0 3.04025,1.23032 3.2832,2.83203 0.0249,-0.1643 0.0508,-0.32875 0.0508,-0.5 C 177,497.49108 175.50696,496 173.66602,496 Z m -4.61524,3.83203 c -0.0179,0.16633 -0.0508,0.32889 -0.0508,0.5 0,2.57733 2.08869,4.66797 4.66602,4.66797 2.57732,0 4.66796,-2.09064 4.66796,-4.66797 0,-0.17111 -0.0328,-0.33367 -0.0508,-0.5 -0.25256,2.33929 -2.21097,4.16797 -4.61718,4.16797 -2.40623,0 -4.3629,-1.82868 -4.61524,-4.16797 z M 161.66602,509 c -0.24033,6e-4 -0.47852,0.0228 -0.71485,0.0664 l 2.0293,0.86914 -0.002,0.004 c 1.05741,0.45256 1.79156,1.41254 1.9746,2.52344 C 164.97454,512.31028 165,512.15853 165,512 c -9e-4,-0.7056 -0.2293,-1.37219 -0.62109,-1.92383 C 163.66513,509.41368 162.71667,509 161.66602,509 Z m 3.94921,3.5 c -0.1201,0.95275 -0.56387,1.7977 -1.23242,2.41992 -0.60397,0.85205 -1.59272,1.41211 -2.71679,1.41211 -0.45114,-10e-4 -0.89638,-0.0926 -1.31055,-0.27148 l -0.002,0.002 -2.0293,-0.86914 c 0.73895,1.12623 1.99479,1.80581 3.3418,1.80664 2.20913,0 4,-1.79086 4,-4 0,-0.17117 -0.0299,-0.33449 -0.0508,-0.5 z"
       id="path4649"
       inkscape:connector-curvature="0" />
    <path
       style="display:inline;fill:url(#linearGradient4171-1-0);fill-opacity:1;stroke:none;stroke-width:2;stroke-linecap:round;stroke-linejoin:round;stroke-miterlimit:4;stroke-dasharray:none;stroke-opacity:1;enable-background:new"
       d="m 167.99999,482.0001 a 21.99977,21.999992 0 0 0 -1.89063,0.095 21.999769,21.999992 0 0 0 -1.03685,0.1252 21.99977,21.999992 0 0 0 -1.14334,0.1737 21.999769,21.999992 0 0 0 -1.02191,0.2298 21.99977,21.999992 0 0 0 -1.10224,0.2803 21.999769,21.999992 0 0 0 -1.01631,0.3381 21.99977,21.999992 0 0 0 -1.06488,0.3886 21.999769,21.999992 0 0 0 -0.9752,0.4372 21.99977,21.999992 0 0 0 -1.00883,0.4876 21.999769,21.999992 0 0 0 -0.93971,0.538 21.99977,21.999992 0 0 0 -0.95465,0.5848 21.999769,21.999992 0 0 0 -0.87619,0.6277 21.99977,21.999992 0 0 0 -0.89301,0.68 21.999769,21.999992 0 0 0 -0.78838,0.6912 21.99977,21.999992 0 0 0 -0.8463,0.7881 21.999769,21.999992 0 0 0 -6.44157,15.5345 21.999769,21.999992 0 0 0 6.19684,15.3043 h 0.0318 a 21.99977,21.999992 0 0 0 15.7714,6.6957 21.99977,21.999992 0 0 0 1.86821,-0.094 21.999769,21.999992 0 0 0 1.08169,-0.1308 21.99977,21.999992 0 0 0 1.12092,-0.17 21.999769,21.999992 0 0 0 1.02191,-0.2297 21.99977,21.999992 0 0 0 1.10224,-0.2803 21.999769,21.999992 0 0 0 1.01631,-0.3381 21.99977,21.999992 0 0 0 1.06488,-0.3887 21.999769,21.999992 0 0 0 0.9752,-0.4371 21.99977,21.999992 0 0 0 1.00883,-0.4876 21.999769,21.999992 0 0 0 0.93971,-0.5381 21.99977,21.999992 0 0 0 0.95465,-0.5847 21.999769,21.999992 0 0 0 0.87619,-0.6277 21.99977,21.999992 0 0 0 0.893,-0.68 21.999769,21.999992 0 0 0 0.78839,-0.6912 21.99977,21.999992 0 0 0 0.84629,-0.7885 21.999769,21.999992 0 0 0 6.44158,-15.5333 21.999769,21.999992 0 0 0 -6.19871,-15.3044 h -0.0299 a 21.99977,21.999992 0 0 0 -15.7714,-6.6956 z"
       id="circle4163-3-4"
       inkscape:connector-curvature="0" />
    <path
       style="fill:#f5f5f5;fill-opacity:1"
       d="m 612.66602,137.59961 a 82.133335,82.133335 0 0 0 -82.13282,82.13281 82.133335,82.133335 0 0 0 0.11719,2.33399 l -59.84961,79.80078 0.95508,0.38281 a 59.733334,59.733334 0 0 0 -21.55859,6.70312 L 370.44336,274.77344 305.375,246.88672 A 239.99864,239.99974 0 0 0 304.00195,272 a 239.99864,239.99974 0 0 0 7.52539,58.75977 l 58.91602,25.25 50.33203,21.57031 a 59.733334,59.733334 0 0 0 57.49219,43.7539 A 59.733334,59.733334 0 0 0 538,361.59961 a 59.733334,59.733334 0 0 0 -0.26953,-5.39649 l 72.55859,-54.41992 a 82.133335,82.133335 0 0 0 2.37696,0.084 82.133335,82.133335 0 0 0 82.13476,-82.13477 82.133335,82.133335 0 0 0 -82.13476,-82.13281 z m 0,29.86719 A 52.266668,52.266668 0 0 1 664.93359,219.73242 52.266668,52.266668 0 0 1 612.66602,272 52.266668,52.266668 0 0 1 560.40039,219.73242 52.266668,52.266668 0 0 1 612.66602,167.4668 Z m 0,14.93359 a 37.333334,37.333334 0 0 0 -37.33204,37.33203 37.333334,37.333334 0 0 0 37.33204,37.33399 A 37.333334,37.333334 0 0 0 650,219.73242 37.333334,37.333334 0 0 0 612.66602,182.40039 Z M 478.26758,316.79883 a 44.800001,44.800001 0 0 1 44.79883,44.80078 44.800001,44.800001 0 0 1 -44.79883,44.80078 44.800001,44.800001 0 0 1 -37.4336,-20.22461 l 22.72461,9.73828 0.0195,-0.0391 a 37.333334,37.333334 0 0 0 14.68946,3.05859 37.333334,37.333334 0 0 0 37.33203,-37.33398 37.333334,37.333334 0 0 0 -22.64453,-34.27344 l 0.0195,-0.041 -22.73242,-9.74219 a 44.800001,44.800001 0 0 1 8.02539,-0.74414 z"
       id="rect4678"
       inkscape:connector-curvature="0" />
    <path
       style="fill:#ffffff;fill-opacity:1"
       d="m 612.66602,137.59961 a 82.133335,82.133335 0 0 0 -82.13282,82.13281 82.133335,82.133335 0 0 0 0.041,0.82617 82.133335,82.133335 0 0 1 82.0918,-80.95898 82.133335,82.133335 0 0 1 82.09375,81.30469 82.133335,82.133335 0 0 0 0.041,-1.17188 82.133335,82.133335 0 0 0 -82.13476,-82.13281 z m 0,44.80078 a 37.333334,37.333334 0 0 0 -37.33204,37.33203 37.333334,37.333334 0 0 0 0.041,0.83203 37.333334,37.333334 0 0 1 37.29102,-36.16406 37.333334,37.333334 0 0 1 37.29296,36.50586 37.333334,37.333334 0 0 0 0.041,-1.17383 37.333334,37.333334 0 0 0 -37.33398,-37.33203 z m 52.22656,38.16016 A 52.266668,52.266668 0 0 1 612.66602,272 a 52.266668,52.266668 0 0 1 -52.22461,-51.0957 52.266668,52.266668 0 0 0 -0.041,0.82812 52.266668,52.266668 0 0 0 52.26563,52.26758 52.266668,52.266668 0 0 0 52.26757,-52.26758 52.266668,52.266668 0 0 0 -0.041,-1.17187 z m -134.33594,1.63086 -59.75586,79.67578 0.95508,0.38281 a 59.733334,59.733334 0 0 0 -21.55859,6.70312 L 370.44336,274.77344 305.375,246.88672 A 239.99864,239.99974 0 0 0 304.00195,272 a 239.99864,239.99974 0 0 0 0.0254,0.48438 239.99864,239.99974 0 0 1 1.34766,-23.59766 l 65.06836,27.88672 79.75391,34.17968 A 59.733334,59.733334 0 0 1 471.75586,304.25 l -0.95508,-0.38281 59.84961,-79.80078 a 82.133335,82.133335 0 0 1 -0.0937,-1.875 z m -56.75391,96.87695 a 44.800001,44.800001 0 0 0 -3.56054,0.47461 l 22.73242,9.74219 -0.0195,0.041 a 37.333334,37.333334 0 0 1 22.60351,33.45508 37.333334,37.333334 0 0 0 0.041,-1.18164 37.333334,37.333334 0 0 0 -22.64453,-34.27344 l 0.0195,-0.041 z m 64.02344,39.0625 -0.0957,0.0723 a 59.733334,59.733334 0 0 1 0.22851,4.56446 59.733334,59.733334 0 0 0 0.041,-1.16797 59.733334,59.733334 0 0 0 -0.17383,-3.46875 z m -14.80078,4.29297 a 44.800001,44.800001 0 0 1 -44.75781,43.97656 44.800001,44.800001 0 0 1 -35.3418,-17.32812 l -2.0918,-0.89649 a 44.800001,44.800001 0 0 0 37.4336,20.22461 44.800001,44.800001 0 0 0 44.79883,-44.80078 44.800001,44.800001 0 0 0 -0.041,-1.17578 z"
       id="path4702"
       inkscape:connector-curvature="0" />
    <path
       inkscape:connector-curvature="0"
       id="path4447"
       d="m 543.99876,32.0032 a 239.99618,239.99966 0 0 0 -20.62495,1.024 239.99614,239.99966 0 0 0 -11.31103,1.376 239.99618,239.99966 0 0 0 -12.4728,1.8976 239.99614,239.99966 0 0 0 -11.14799,2.5072 239.99618,239.99966 0 0 0 -12.0244,3.056 239.99614,239.99966 0 0 0 -11.08687,3.6896 239.99618,239.99966 0 0 0 -11.61687,4.24 239.99614,239.99966 0 0 0 -10.63832,4.7696 239.99618,239.99966 0 0 0 -11.00551,5.3184 239.99614,239.99966 0 0 0 -10.25128,5.8688 239.99618,239.99966 0 0 0 -10.41423,6.3808 239.99614,239.99966 0 0 0 -9.5584,6.8464 239.99618,239.99966 0 0 0 -9.74207,7.4176 239.99614,239.99966 0 0 0 -8.60024,7.5408 239.99618,239.99966 0 0 0 -9.23232,8.5984 A 239.99614,239.99966 0 0 0 304.00016,272 239.99614,239.99966 0 0 0 371.60157,438.9568 h 0.3472 A 239.99618,239.99966 0 0 0 543.9994,512 a 239.99618,239.99966 0 0 0 20.38039,-1.024 239.99614,239.99966 0 0 0 11.80047,-1.424 239.99618,239.99966 0 0 0 12.228,-1.8544 239.99614,239.99966 0 0 0 11.14799,-2.5056 239.99618,239.99966 0 0 0 12.02432,-3.0592 239.99614,239.99966 0 0 0 11.08687,-3.6864 239.99618,239.99966 0 0 0 11.61695,-4.2416 239.99614,239.99966 0 0 0 10.63856,-4.768 239.99618,239.99966 0 0 0 11.00527,-5.3184 239.99614,239.99966 0 0 0 10.2512,-5.872 239.99618,239.99966 0 0 0 10.41455,-6.3776 239.99614,239.99966 0 0 0 9.55824,-6.848 239.99618,239.99966 0 0 0 9.74191,-7.4176 239.99614,239.99966 0 0 0 8.60048,-7.5408 239.99618,239.99966 0 0 0 9.23216,-8.6016 239.99614,239.99966 0 0 0 70.27156,-169.4544 239.99614,239.99966 0 0 0 -67.62197,-166.9568 h -0.3248 A 239.99618,239.99966 0 0 0 544.00084,32.0064 Z"
       style="display:inline;fill:url(#linearGradient4449-0);fill-opacity:1;stroke:none;stroke-width:15.99999523;stroke-linecap:round;stroke-linejoin:round;stroke-miterlimit:4;stroke-dasharray:none;stroke-opacity:1;enable-background:new" />
    <path
       style="display:inline;opacity:1;fill:#ffffff;fill-opacity:1;stroke:none;stroke-width:2;stroke-linecap:round;stroke-linejoin:miter;stroke-miterlimit:4;stroke-dasharray:none;stroke-opacity:1;enable-background:new"
       clip-path="url(#clipPath4486)"
       d="m 115.66602,503.59961 a 5.1333335,5.1333335 0 0 0 -5.13282,5.13281 5.1333335,5.1333335 0 0 0 0.008,0.14649 l -3.74024,4.98828 0.0586,0.0234 a 3.7333334,3.7333334 0 0 0 -1.34766,0.41797 l -10.392579,-4.45312 -0.919922,4.47656 v 0.20508 l 0.15039,0.0644 0.769532,-3.74609 10.392579,4.45312 a 3.7333334,3.7333334 0 0 1 1.34766,-0.41797 l -0.0586,-0.0234 0.004,-0.004 -0.0391,-0.0176 a 2.8000001,2.8000001 0 0 1 0.0567,-0.008 l 3.71875,-4.95898 a 5.1333335,5.1333335 0 0 1 -0.008,-0.14649 5.1333335,5.1333335 0 0 1 5.13282,-5.13281 5.1333335,5.1333335 0 0 1 5.10742,4.61523 5.1333335,5.1333335 0 0 0 0.0273,-0.48242 5.1333335,5.1333335 0 0 0 -5.13476,-5.13281 z m 0,2.86719 a 3.2666668,3.2666668 0 0 0 -0.99219,0.1582 2.3333334,2.3333334 0 0 0 -1.33985,2.10742 2.3333334,2.3333334 0 0 0 0.0547,0.50391 2.3333334,2.3333334 0 0 1 2.27735,-1.83594 2.3333334,2.3333334 0 0 1 2.27734,1.83008 2.3333334,2.3333334 0 0 0 0.0566,-0.49805 2.3333334,2.3333334 0 0 0 -1.375,-2.12304 3.2666668,3.2666668 0 0 0 -0.95898,-0.14258 z m 3.22656,2.75976 a 3.2666668,3.2666668 0 0 1 -2.22461,2.61133 2.3333334,2.3333334 0 0 1 -1.00195,0.22852 2.3333334,2.3333334 0 0 1 -0.96485,-0.21289 3.2666668,3.2666668 0 0 1 -0.0137,-0.004 3.2666668,3.2666668 0 0 1 -2.24609,-2.60938 3.2666668,3.2666668 0 0 0 -0.041,0.49219 3.2666668,3.2666668 0 0 0 3.26563,3.26758 3.2666668,3.2666668 0 0 0 3.26757,-3.26758 3.2666668,3.2666668 0 0 0 -0.041,-0.50586 z m -24.693361,0.43946 -0.917969,4.47851 0.1875,0.0801 0.730469,-3.55859 z m 13.068361,6.13281 a 2.8000001,2.8000001 0 0 0 -0.50196,0.0469 l 1.41993,0.60938 v 0.002 a 2.3333334,2.3333334 0 0 1 1.35742,1.64258 2.3333334,2.3333334 0 0 0 0.0566,-0.5 2.3333334,2.3333334 0 0 0 -0.10938,-0.69922 2.8000001,2.8000001 0 0 0 -2.22265,-1.10156 z m 2.75195,2.30078 a 2.8000001,2.8000001 0 0 1 -0.52734,1.19336 2.3333334,2.3333334 0 0 1 -2.22461,1.64062 2.3333334,2.3333334 0 0 1 -0.91992,-0.1914 v 0.002 l -1.41993,-0.60937 a 2.8000001,2.8000001 0 0 0 1.17383,1.00781 3.7333334,3.7333334 0 0 0 1.16602,0.18945 3.7333334,3.7333334 0 0 0 1.15039,-0.18359 2.8000001,2.8000001 0 0 0 1.64844,-2.54883 2.8000001,2.8000001 0 0 0 -0.0469,-0.5 z"
       id="path4724"
       inkscape:connector-curvature="0" />
    <ellipse
       cy="497.00003"
       cx="240.00017"
       id="ellipse4751"
       style="display:inline;fill:#000000;fill-opacity:0.2;stroke:none;stroke-width:1.9999994;stroke-linecap:round;stroke-linejoin:round;stroke-miterlimit:4;stroke-dasharray:none;stroke-opacity:1;enable-background:new;filter:url(#filter4757)"
       rx="29.99983"
       ry="29.999968" />
    <ellipse
       ry="29.999968"
       rx="29.99983"
       style="display:inline;fill:#177399;fill-opacity:1;stroke:none;stroke-width:1.9999994;stroke-linecap:round;stroke-linejoin:round;stroke-miterlimit:4;stroke-dasharray:none;stroke-opacity:1;enable-background:new"
       id="ellipse4735"
       cx="240.00017"
       cy="495.99997" />
    <path
       style="display:inline;fill:#ffffff;fill-opacity:0.2;stroke:none;stroke-width:1.9999994;stroke-linecap:round;stroke-linejoin:round;stroke-miterlimit:4;stroke-dasharray:none;stroke-opacity:1;enable-background:new"
       d="M 240 466 A 29.99983 29.999968 0 0 0 210 496 A 29.99983 29.999968 0 0 0 210.02148 496.58398 A 29.99983 29.999968 0 0 1 240 467 A 29.99983 29.999968 0 0 1 269.97852 496.41016 A 29.99983 29.999968 0 0 0 270 496 A 29.99983 29.999968 0 0 0 240 466 z "
       id="ellipse4761" />
    <path
       style="fill:#000000;fill-opacity:0.2;stroke-width:0.125;filter:url(#filter4769)"
       d="m 248.58325,480.2002 a 10.266667,10.266667 0 0 0 -10.2666,10.2666 10.266667,10.266667 0 0 0 0.0146,0.29175 l -7.4812,9.9751 0.11938,0.0478 a 7.4666667,7.4666667 0 0 0 -2.69482,0.83789 l -9.96924,-4.27246 -8.13355,-3.48584 a 29.99983,29.999967 0 0 0 -0.17158,3.13921 29.99983,29.999967 0 0 0 0.94068,7.34497 l 7.3645,3.15625 6.2915,2.69629 a 7.4666667,7.4666667 0 0 0 7.18653,5.46924 7.4666667,7.4666667 0 0 0 7.46655,-7.4668 7.4666667,7.4666667 0 0 0 -0.0337,-0.67456 l 9.06982,-6.80249 a 10.266667,10.266667 0 0 0 0.29712,0.0105 10.266667,10.266667 0 0 0 10.26685,-10.26685 10.266667,10.266667 0 0 0 -10.26685,-10.2666 z m 0,3.7334 a 6.5333335,6.5333335 0 0 1 6.53345,6.5332 6.5333335,6.5333335 0 0 1 -6.53345,6.53345 6.5333335,6.5333335 0 0 1 -6.5332,-6.53345 6.5333335,6.5333335 0 0 1 6.5332,-6.5332 z m 0,1.8667 a 4.6666667,4.6666667 0 0 0 -4.6665,4.6665 4.6666667,4.6666667 0 0 0 4.6665,4.66675 4.6666667,4.6666667 0 0 0 4.66675,-4.66675 4.6666667,4.6666667 0 0 0 -4.66675,-4.6665 z m -16.7998,16.7998 a 5.6000001,5.6000001 0 0 1 5.59985,5.6001 5.6000001,5.6000001 0 0 1 -5.59985,5.6001 5.6000001,5.6000001 0 0 1 -4.6792,-2.52808 l 2.84057,1.21729 0.002,-0.005 a 4.6666667,4.6666667 0 0 0 1.83618,0.38232 4.6666667,4.6666667 0 0 0 4.66651,-4.66674 4.6666667,4.6666667 0 0 0 -2.83057,-4.28418 l 0.002,-0.005 -2.84155,-1.21777 a 5.6000001,5.6000001 0 0 1 1.00317,-0.093 z"
       id="path4767"
       inkscape:connector-curvature="0" />
    <path
       inkscape:connector-curvature="0"
       id="path4743"
       d="m 248.58325,479.19995 a 10.266667,10.266667 0 0 0 -10.2666,10.2666 10.266667,10.266667 0 0 0 0.0146,0.29175 l -7.4812,9.9751 0.11938,0.0478 a 7.4666667,7.4666667 0 0 0 -2.69482,0.83789 l -9.96924,-4.27246 -8.13355,-3.48584 A 29.99983,29.999967 0 0 0 210.00024,496 a 29.99983,29.999967 0 0 0 0.94068,7.34497 l 7.3645,3.15625 6.2915,2.69629 a 7.4666667,7.4666667 0 0 0 7.18653,5.46924 7.4666667,7.4666667 0 0 0 7.46655,-7.4668 7.4666667,7.4666667 0 0 0 -0.0337,-0.67456 l 9.06982,-6.80249 a 10.266667,10.266667 0 0 0 0.29712,0.0105 10.266667,10.266667 0 0 0 10.26685,-10.26685 10.266667,10.266667 0 0 0 -10.26685,-10.2666 z m 0,3.7334 a 6.5333335,6.5333335 0 0 1 6.53345,6.5332 6.5333335,6.5333335 0 0 1 -6.53345,6.53345 6.5333335,6.5333335 0 0 1 -6.5332,-6.53345 6.5333335,6.5333335 0 0 1 6.5332,-6.5332 z m 0,1.8667 a 4.6666667,4.6666667 0 0 0 -4.6665,4.6665 4.6666667,4.6666667 0 0 0 4.6665,4.66675 4.6666667,4.6666667 0 0 0 4.66675,-4.66675 4.6666667,4.6666667 0 0 0 -4.66675,-4.6665 z m -16.7998,16.7998 a 5.6000001,5.6000001 0 0 1 5.59985,5.6001 5.6000001,5.6000001 0 0 1 -5.59985,5.6001 5.6000001,5.6000001 0 0 1 -4.6792,-2.52808 l 2.84057,1.21729 0.002,-0.005 a 4.6666667,4.6666667 0 0 0 1.83618,0.38232 4.6666667,4.6666667 0 0 0 4.66651,-4.66674 4.6666667,4.6666667 0 0 0 -2.83057,-4.28418 l 0.002,-0.005 -2.84155,-1.21777 a 5.6000001,5.6000001 0 0 1 1.00317,-0.093 z"
       style="fill:#f5f5f5;fill-opacity:1;stroke-width:0.125" />
    <path
       style="fill:#ffffff;fill-opacity:1;stroke-width:0.125"
       d="M 248.58398 479.19922 A 10.266667 10.266667 0 0 0 238.31641 489.4668 A 10.266667 10.266667 0 0 0 238.33203 489.75781 L 230.84961 499.73438 L 230.96875 499.78125 A 7.4666667 7.4666667 0 0 0 228.27539 500.61914 L 218.30469 496.3457 L 210.17188 492.86133 A 29.99983 29.999967 0 0 0 210 496 A 29.99983 29.999967 0 0 0 210.02344 496.44336 A 29.99983 29.999967 0 0 1 210.17188 493.86133 L 218.30469 497.34766 L 228.27539 501.61914 A 7.4666667 7.4666667 0 0 1 230.96875 500.78125 L 230.84961 500.73438 L 238.33203 490.75781 A 10.266667 10.266667 0 0 1 238.31641 490.4668 A 10.266667 10.266667 0 0 1 248.58398 480.20117 A 10.266667 10.266667 0 0 1 258.83008 490.05273 A 10.266667 10.266667 0 0 0 258.84961 489.4668 A 10.266667 10.266667 0 0 0 248.58398 479.19922 z M 248.58398 484.80078 A 4.6666667 4.6666667 0 0 0 243.91602 489.4668 A 4.6666667 4.6666667 0 0 0 243.94727 489.98047 A 4.6666667 4.6666667 0 0 1 248.58398 485.80078 A 4.6666667 4.6666667 0 0 1 253.21875 489.95312 A 4.6666667 4.6666667 0 0 0 253.25 489.4668 A 4.6666667 4.6666667 0 0 0 248.58398 484.80078 z M 255.0918 489.94727 A 6.5333335 6.5333335 0 0 1 248.58398 496 A 6.5333335 6.5333335 0 0 1 242.07422 489.98828 A 6.5333335 6.5333335 0 0 0 242.05078 490.4668 A 6.5333335 6.5333335 0 0 0 248.58398 497 A 6.5333335 6.5333335 0 0 0 255.11719 490.4668 A 6.5333335 6.5333335 0 0 0 255.0918 489.94727 z M 231.7832 502.59961 A 5.6000001 5.6000001 0 0 0 230.7793 502.69336 L 233.62109 503.91016 L 233.61914 503.91602 A 4.6666667 4.6666667 0 0 1 236.41797 507.68555 A 4.6666667 4.6666667 0 0 0 236.44922 507.19922 A 4.6666667 4.6666667 0 0 0 233.62109 502.91602 A 5.6000001 5.6000001 0 0 0 233.61914 502.91602 A 5.6000001 5.6000001 0 0 0 231.7832 502.59961 z M 239.23828 507.50977 L 239.2168 507.52539 A 7.4666667 7.4666667 0 0 1 239.22852 507.75 A 7.4666667 7.4666667 0 0 0 239.23828 507.50977 z M 237.35742 507.71094 A 5.6000001 5.6000001 0 0 1 233.65039 512.47461 A 4.6666667 4.6666667 0 0 1 231.7832 512.86719 A 4.6666667 4.6666667 0 0 1 229.94727 512.48438 L 229.94531 512.49023 L 229.81641 512.43555 A 5.6000001 5.6000001 0 0 1 229.35547 512.23828 L 227.10352 511.27148 A 5.6000001 5.6000001 0 0 0 231.7832 513.80078 A 5.6000001 5.6000001 0 0 0 237.38281 508.20117 A 5.6000001 5.6000001 0 0 0 237.35742 507.71094 z "
       id="path4773" />
    <path
       style="display:inline;fill:url(#linearGradient4749);fill-opacity:1;stroke:none;stroke-width:1.9999994;stroke-linecap:round;stroke-linejoin:round;stroke-miterlimit:4;stroke-dasharray:none;stroke-opacity:1;enable-background:new"
       d="m 239.99984,466.0004 a 29.999522,29.999957 0 0 0 -2.57811,0.128 29.999517,29.999957 0 0 0 -1.41388,0.172 29.999522,29.999957 0 0 0 -1.5591,0.2372 29.999517,29.999957 0 0 0 -1.3935,0.3134 29.999522,29.999957 0 0 0 -1.50305,0.382 29.999517,29.999957 0 0 0 -1.38586,0.4612 29.999522,29.999957 0 0 0 -1.45211,0.53 29.999517,29.999957 0 0 0 -1.32979,0.5962 29.999522,29.999957 0 0 0 -1.37569,0.6648 29.999517,29.999957 0 0 0 -1.28141,0.7336 29.999522,29.999957 0 0 0 -1.30178,0.7976 29.999517,29.999957 0 0 0 -1.1948,0.8558 29.999522,29.999957 0 0 0 -1.21776,0.9272 29.999517,29.999957 0 0 0 -1.07503,0.9426 29.999522,29.999957 0 0 0 -1.15404,1.0748 29.999517,29.999957 0 0 0 -8.78391,21.1832 29.999517,29.999957 0 0 0 8.45018,20.8696 h 0.0434 a 29.999522,29.999957 0 0 0 21.50632,9.1304 29.999522,29.999957 0 0 0 2.54755,-0.128 29.999517,29.999957 0 0 0 1.47506,-0.178 29.999522,29.999957 0 0 0 1.5285,-0.2318 29.999517,29.999957 0 0 0 1.3935,-0.3132 29.999522,29.999957 0 0 0 1.50304,-0.3824 29.999517,29.999957 0 0 0 1.38586,-0.4608 29.999522,29.999957 0 0 0 1.45212,-0.5302 29.999517,29.999957 0 0 0 1.32982,-0.596 29.999522,29.999957 0 0 0 1.37566,-0.6648 29.999517,29.999957 0 0 0 1.2814,-0.734 29.999522,29.999957 0 0 0 1.30182,-0.7972 29.999517,29.999957 0 0 0 1.19478,-0.856 29.999522,29.999957 0 0 0 1.21773,-0.9272 29.999517,29.999957 0 0 0 1.07506,-0.9426 29.999522,29.999957 0 0 0 1.15402,-1.0752 29.999517,29.999957 0 0 0 8.78395,-21.1818 29.999517,29.999957 0 0 0 -8.45275,-20.8696 h -0.0406 a 29.999522,29.999957 0 0 0 -21.50634,-9.1304 z"
       id="path4747"
       inkscape:connector-curvature="0" />
  </g>
</svg>
