<?xml version="1.0" encoding="UTF-8" standalone="no"?>
<!-- Created with Inkscape (http://www.inkscape.org/) -->

<svg
   xmlns:dc="http://purl.org/dc/elements/1.1/"
   xmlns:cc="http://creativecommons.org/ns#"
   xmlns:rdf="http://www.w3.org/1999/02/22-rdf-syntax-ns#"
   xmlns:svg="http://www.w3.org/2000/svg"
   xmlns="http://www.w3.org/2000/svg"
   xmlns:xlink="http://www.w3.org/1999/xlink"
   xmlns:sodipodi="http://sodipodi.sourceforge.net/DTD/sodipodi-0.dtd"
   xmlns:inkscape="http://www.inkscape.org/namespaces/inkscape"
   width="736"
   height="544"
   viewBox="0 0 736 544"
   version="1.1"
   id="svg1087"
   inkscape:version="0.92.1 r"
   sodipodi:docname="system-software-install.svg">
  <defs
     id="defs1081">
    <linearGradient
       inkscape:collect="always"
       id="linearGradient4165">
      <stop
         style="stop-color:#ffffff;stop-opacity:0.15000001"
         offset="0"
         id="stop4167" />
      <stop
         style="stop-color:#177ed5;stop-opacity:0;"
         offset="1"
         id="stop4169" />
    </linearGradient>
    <linearGradient
       inkscape:collect="always"
       xlink:href="#linearGradient4165"
       id="linearGradient4435"
       gradientUnits="userSpaceOnUse"
       gradientTransform="matrix(0.65217041,0,0,0.65217328,96.3479,-158.67021)"
       x1="7"
       y1="1011.3622"
       x2="41.000019"
       y2="1045.3622" />
    <linearGradient
       inkscape:collect="always"
       xlink:href="#linearGradient4165"
       id="linearGradient4549"
       gradientUnits="userSpaceOnUse"
       gradientTransform="matrix(0.931672,0,0,0.9316761,145.63985,-454.1003)"
       x1="7"
       y1="1011.3622"
       x2="41.000019"
       y2="1045.3622" />
    <linearGradient
       inkscape:collect="always"
       xlink:href="#linearGradient4165"
       id="linearGradient4601"
       gradientUnits="userSpaceOnUse"
       gradientTransform="matrix(0.465836,0,0,0.46583805,52.819928,36.949853)"
       x1="7"
       y1="1011.3622"
       x2="41.000019"
       y2="1045.3622" />
    <filter
       inkscape:collect="always"
       style="color-interpolation-filters:sRGB"
       id="filter5298"
       x="-0.0246"
       width="1.0492"
       y="-0.023428571"
       height="1.0468571">
      <feGaussianBlur
         inkscape:collect="always"
         stdDeviation="0.1435"
         id="feGaussianBlur5300" />
    </filter>
    <filter
       inkscape:collect="always"
       style="color-interpolation-filters:sRGB"
       id="filter5334"
       x="-0.024162903"
       width="1.0483258"
       y="-0.023839279"
       height="1.0476786">
      <feGaussianBlur
         inkscape:collect="always"
         stdDeviation="0.13906254"
         id="feGaussianBlur5336" />
    </filter>
  </defs>
  <sodipodi:namedview
     id="base"
     pagecolor="#c3c3c3"
     bordercolor="#333333"
     borderopacity="1"
     inkscape:pageopacity="0"
     inkscape:pageshadow="2"
     inkscape:zoom="0.5"
     inkscape:cx="71.472379"
     inkscape:cy="295.62041"
     inkscape:document-units="px"
     inkscape:current-layer="layer2"
     showgrid="false"
     units="px"
     inkscape:showpageshadow="false"
     inkscape:window-width="1280"
     inkscape:window-height="1370"
     inkscape:window-x="1280"
     inkscape:window-y="34"
     inkscape:window-maximized="0">
    <inkscape:grid
       type="xygrid"
       id="grid4630" />
  </sodipodi:namedview>
  <metadata
     id="metadata1084">
    <rdf:RDF>
      <cc:Work
         rdf:about="">
        <dc:format>image/svg+xml</dc:format>
        <dc:type
           rdf:resource="http://purl.org/dc/dcmitype/StillImage" />
        <dc:title />
        <cc:license
           rdf:resource="http://creativecommons.org/licenses/by-sa/4.0/" />
        <dc:creator>
          <cc:Agent>
            <dc:title>Peter Cornelis</dc:title>
          </cc:Agent>
        </dc:creator>
      </cc:Work>
      <cc:License
         rdf:about="http://creativecommons.org/licenses/by-sa/4.0/">
        <cc:permits
           rdf:resource="http://creativecommons.org/ns#Reproduction" />
        <cc:permits
           rdf:resource="http://creativecommons.org/ns#Distribution" />
        <cc:requires
           rdf:resource="http://creativecommons.org/ns#Notice" />
        <cc:requires
           rdf:resource="http://creativecommons.org/ns#Attribution" />
        <cc:permits
           rdf:resource="http://creativecommons.org/ns#DerivativeWorks" />
        <cc:requires
           rdf:resource="http://creativecommons.org/ns#ShareAlike" />
      </cc:License>
    </rdf:RDF>
  </metadata>
  <g
     inkscape:label="Baseplate"
     inkscape:groupmode="layer"
     id="layer1"
     transform="translate(0,-153.06668)"
     style="display:none">
    <rect
       style="display:inline;overflow:visible;visibility:visible;fill:#fefefe;fill-opacity:1;fill-rule:nonzero;stroke:none;stroke-width:2;marker:none;enable-background:accumulate"
       id="rect3951"
       width="512"
       height="512"
       x="-720"
       y="169.06668"
       inkscape:label="48x48"
       transform="scale(-1,1)" />
    <text
       y="733.32251"
       xml:space="preserve"
       x="15.006836"
       style="font-style:normal;font-variant:normal;font-weight:normal;font-stretch:normal;line-height:0%;font-family:'DejaVu Sans';-inkscape-font-specification:'DejaVu Sans';display:inline;fill:#000000;fill-opacity:1;stroke:none;enable-background:new"
       inkscape:label="context"
       id="context"><tspan
         style="font-style:normal;font-variant:normal;font-weight:normal;font-stretch:normal;font-size:18px;line-height:1.25;font-family:'DejaVu Sans';-inkscape-font-specification:'DejaVu Sans'"
         y="733.32251"
         x="15.006836"
         sodipodi:role="line"
         id="tspan3933">apps</tspan></text>
    <text
       y="733.32251"
       xml:space="preserve"
       x="142.48828"
       style="font-style:normal;font-variant:normal;font-weight:bold;font-stretch:normal;line-height:0%;font-family:'DejaVu Sans';-inkscape-font-specification:'DejaVu Sans Bold';text-align:start;writing-mode:lr-tb;text-anchor:start;display:inline;fill:#000000;fill-opacity:1;stroke:none;enable-background:new"
       inkscape:label="icon-name"
       id="icon-name"><tspan
         style="font-style:normal;font-variant:normal;font-weight:bold;font-stretch:normal;font-size:18px;line-height:1.25;font-family:'DejaVu Sans';-inkscape-font-specification:'DejaVu Sans Bold'"
         y="733.32251"
         x="142.48828"
         sodipodi:role="line"
         id="tspan3937">example</tspan></text>
    <rect
       style="display:inline;overflow:visible;visibility:visible;fill:#fefefe;fill-opacity:1;fill-rule:nonzero;stroke:none;stroke-width:2;marker:none;enable-background:accumulate"
       id="rect16x16"
       width="16"
       height="16"
       x="-32"
       y="665.06665"
       inkscape:label="16x16"
       transform="scale(-1,1)" />
    <rect
       style="display:inline;overflow:visible;visibility:visible;fill:#fefefe;fill-opacity:1;fill-rule:nonzero;stroke:none;stroke-width:2;marker:none;enable-background:accumulate"
       id="rect24x24"
       width="24"
       height="24"
       x="-76"
       y="657.06665"
       inkscape:label="24x24"
       transform="scale(-1,1)" />
    <rect
       style="display:inline;overflow:visible;visibility:visible;fill:#fefefe;fill-opacity:1;fill-rule:nonzero;stroke:none;stroke-width:2;marker:none;enable-background:accumulate"
       id="rect32x32"
       width="32"
       height="32"
       x="-128"
       y="649.06665"
       inkscape:label="32x32"
       transform="scale(-1,1)" />
    <rect
       inkscape:label="48x48"
       y="633.06665"
       x="-192"
       height="48"
       width="48"
       id="rect48x48"
       style="display:inline;overflow:visible;visibility:visible;fill:#fefefe;fill-opacity:1;fill-rule:nonzero;stroke:none;stroke-width:2;marker:none;enable-background:accumulate"
       transform="scale(-1,1)" />
  </g>
  <g
     inkscape:groupmode="layer"
     id="layer2"
     inkscape:label="Bitmap"
     style="display:inline">
    <path
       style="fill:#e2e5e7;stroke:none;stroke-width:1px;stroke-linecap:butt;stroke-linejoin:miter;stroke-opacity:1;fill-opacity:1"
       d="m 24,528 8,-8 h -4 v -8 h -8 v 8 h -4 z"
       id="path4524"
       inkscape:connector-curvature="0" />
    <path
       style="fill:#333a42;stroke:none;stroke-width:1px;stroke-linecap:butt;stroke-linejoin:miter;stroke-opacity:1;fill-opacity:1"
       d="M 24 513 L 24 528 L 32 520 L 28 520 L 28 513 L 24 513 z "
       id="path4529" />
    <path
       style="fill:#36b3a2;fill-opacity:1;stroke:none;stroke-width:1px;stroke-linecap:butt;stroke-linejoin:miter;stroke-opacity:1"
       d="M 20 512 L 20 515 L 20 516 L 20 520 L 16 520 L 20 524 L 24 520 L 28 516 L 28 512 L 24 512 L 20 512 z "
       id="path4534" />
    <path
       inkscape:connector-curvature="0"
       id="path4559"
       d="m 112,526 14,-14 h -7 v -14 h -14 v 14 h -7 z"
       style="fill:#e2e5e7;fill-opacity:1;stroke:none;stroke-width:1.75px;stroke-linecap:butt;stroke-linejoin:miter;stroke-opacity:1" />
    <path
       style="fill:#333a42;fill-opacity:1;stroke:none;stroke-width:1.75px;stroke-linecap:butt;stroke-linejoin:miter;stroke-opacity:1"
       d="M 112,501.5 V 526 l 14,-14 h -7 v -10.5 z"
       id="path4561"
       inkscape:connector-curvature="0" />
    <path
       id="path4563"
       d="m 105,498 v 5.25 1.75 7 h -7 l 7,7 7,-7 7,-7 v -7 h -7 z"
       style="fill:#36b3a2;fill-opacity:1;stroke:none;stroke-width:1.75px;stroke-linecap:butt;stroke-linejoin:miter;stroke-opacity:1"
       inkscape:connector-curvature="0" />
    <path
       style="display:inline;fill:url(#linearGradient4435);fill-opacity:1;stroke:none;stroke-width:2;stroke-linecap:round;stroke-linejoin:round;stroke-miterlimit:4;stroke-dasharray:none;stroke-opacity:1;enable-background:new"
       d="m 105,498 v 14 h -7 l 14,14 14,-14 h -7 v -14 h -12.33594 z"
       id="path4433"
       inkscape:connector-curvature="0" />
    <path
       style="fill:#000000;fill-opacity:0.2;stroke:none;stroke-width:1px;stroke-linecap:butt;stroke-linejoin:miter;stroke-opacity:1"
       d="M 105.5,518.5 119,505 v 1 l -13,13"
       id="path4951"
       inkscape:connector-curvature="0"
       sodipodi:nodetypes="cccc" />
    <path
       inkscape:connector-curvature="0"
       style="fill:#36b3a2;fill-opacity:1;stroke:none;stroke-width:1.75px;stroke-linecap:butt;stroke-linejoin:miter;stroke-opacity:1"
       d="m 105,498 v 5.25 1.75 7 h -7 l 7,7 7,-7 7,-7 v -7 h -7 z"
       id="path4949" />
    <path
       style="display:inline;fill:#ffffff;fill-opacity:0.2;stroke:none;stroke-width:2;stroke-linecap:round;stroke-linejoin:round;stroke-miterlimit:4;stroke-dasharray:none;stroke-opacity:1;enable-background:new"
       d="M 105 498 L 105 499 L 106.66406 499 L 119 499 L 119 498 L 106.66406 498 L 105 498 z M 98 512 L 99 513 L 105 513 L 105 512 L 98 512 z M 119 512 L 119 513 L 125 513 L 126 512 L 119 512 z "
       id="path4940" />
    <path
       style="display:inline;fill:#040404;fill-opacity:0.2;stroke:none;stroke-width:2;stroke-linecap:round;stroke-linejoin:round;stroke-miterlimit:4;stroke-dasharray:none;stroke-opacity:1;enable-background:new"
       d="M 99 513 L 112 526 L 125 513 L 124 513 L 112 525 L 100 513 L 99 513 z "
       id="path4573" />
    <path
       style="fill:#e2e5e7;fill-opacity:1;stroke:none;stroke-width:2.5px;stroke-linecap:butt;stroke-linejoin:miter;stroke-opacity:1"
       d="m 168,524 20,-20 h -10 v -20 h -20 v 20 h -10 z"
       id="path4532"
       inkscape:connector-curvature="0" />
    <path
       inkscape:connector-curvature="0"
       id="path4535"
       d="m 168,489 v 35 l 20,-20 h -10 v -15 z"
       style="fill:#333a42;fill-opacity:1;stroke:none;stroke-width:2.5px;stroke-linecap:butt;stroke-linejoin:miter;stroke-opacity:1" />
    <path
       inkscape:connector-curvature="0"
       style="fill:#36b3a2;fill-opacity:1;stroke:none;stroke-width:2.5px;stroke-linecap:butt;stroke-linejoin:miter;stroke-opacity:1"
       d="m 158,484 v 7.5 2.5 10 h -10 l 10,10 10,-10 10,-10 v -10 h -10 z"
       id="path4537" />
    <path
       inkscape:connector-curvature="0"
       id="path4539"
       d="m 158,484 v 20 h -10 l 20,20 20,-20 h -10 v -20 h -17.62277 z"
       style="display:inline;fill:url(#linearGradient4549);fill-opacity:1;stroke:none;stroke-width:2.85714269;stroke-linecap:round;stroke-linejoin:round;stroke-miterlimit:4;stroke-dasharray:none;stroke-opacity:1;enable-background:new" />
    <path
       sodipodi:nodetypes="cccc"
       inkscape:connector-curvature="0"
       id="path4541"
       d="m 105,580.30001 14,-14 0,1.4 -13.3,13.3"
       style="fill:#000000;fill-opacity:0.2;stroke:none;stroke-width:1px;stroke-linecap:butt;stroke-linejoin:miter;stroke-opacity:1;filter:url(#filter5298)"
       transform="matrix(1.4285714,0,0,1.4285714,8,-316)" />
    <path
       id="path4543"
       d="m 158,484 v 7.5 2.5 10 h -10 l 10,10 10,-10 10,-10 v -10 h -10 z"
       style="fill:#36b3a2;fill-opacity:1;stroke:none;stroke-width:2.5px;stroke-linecap:butt;stroke-linejoin:miter;stroke-opacity:1"
       inkscape:connector-curvature="0" />
    <path
       style="display:inline;fill:#ffffff;fill-opacity:0.2;stroke:none;stroke-width:2.85714269;stroke-linecap:round;stroke-linejoin:round;stroke-miterlimit:4;stroke-dasharray:none;stroke-opacity:1;enable-background:new"
       d="m 158,484 v 1 H 160.37695 178 v -1 h -17.62305 z m -10,20 1,1 h 9 v -1 z m 30,0 v 1 h 9 l 1,-1 z"
       id="path4545"
       inkscape:connector-curvature="0" />
    <path
       style="display:inline;fill:#040404;fill-opacity:0.2;stroke:none;stroke-width:2.85714269;stroke-linecap:round;stroke-linejoin:round;stroke-miterlimit:4;stroke-dasharray:none;stroke-opacity:1;enable-background:new"
       d="m 149,505 19,19 19,-19 h -1 l -18,18 -18,-18 z"
       id="path4547"
       inkscape:connector-curvature="0"
       sodipodi:nodetypes="ccccccc" />
    <path
       style="fill:#e2e5e7;fill-opacity:1;stroke:none;stroke-width:1.25px;stroke-linecap:butt;stroke-linejoin:miter;stroke-opacity:1"
       d="M 64,526 74,516 H 69 V 506 H 59 v 10 h -5 z"
       id="path4585"
       inkscape:connector-curvature="0" />
    <path
       inkscape:connector-curvature="0"
       id="path4587"
       d="M 64,508.5 V 526 l 10,-10 h -5 v -7.5 z"
       style="fill:#333a42;fill-opacity:1;stroke:none;stroke-width:1.25px;stroke-linecap:butt;stroke-linejoin:miter;stroke-opacity:1" />
    <path
       inkscape:connector-curvature="0"
       style="fill:#36b3a2;fill-opacity:1;stroke:none;stroke-width:1.25px;stroke-linecap:butt;stroke-linejoin:miter;stroke-opacity:1"
       d="m 59,506 v 3.75 1.25 5 h -5 l 5,5 5,-5 5,-5 v -5 h -5 z"
       id="path4589" />
    <path
       inkscape:connector-curvature="0"
       id="path4591"
       d="m 59,506 v 10 h -5 l 10,10 10,-10 h -5 v -10 h -8.811386 z"
       style="display:inline;fill:url(#linearGradient4601);fill-opacity:1;stroke:none;stroke-width:1.42857134;stroke-linecap:round;stroke-linejoin:round;stroke-miterlimit:4;stroke-dasharray:none;stroke-opacity:1;enable-background:new" />
    <path
       id="path4595"
       d="m 59,506 v 3.75 1.25 5 h -5 l 5,5 5,-5 5,-5 v -5 h -5 z"
       style="fill:#36b3a2;fill-opacity:1;stroke:none;stroke-width:1.25px;stroke-linecap:butt;stroke-linejoin:miter;stroke-opacity:1"
       inkscape:connector-curvature="0" />
    <path
       style="display:inline;fill:#ffffff;fill-opacity:0.2;stroke:none;stroke-width:1.42857134;stroke-linecap:round;stroke-linejoin:round;stroke-miterlimit:4;stroke-dasharray:none;stroke-opacity:1;enable-background:new"
       d="M 59 506 L 59 506.28516 L 59 506.71484 L 59 507 L 60.189453 507 L 69 507 L 69 506 L 60.189453 506 L 59 506 z M 54 516 L 54.285156 516.28516 L 55 517 L 59 517 L 59 516.71484 L 59 516.28516 L 59 516 L 54 516 z M 69 516 L 69 516.28516 L 69 516.71484 L 69 517 L 73 517 L 73.714844 516.28516 L 74 516 L 69 516 z "
       id="path4597" />
    <path
       style="display:inline;fill:#040404;fill-opacity:0.2;stroke:none;stroke-width:1.42857134;stroke-linecap:round;stroke-linejoin:round;stroke-miterlimit:4;stroke-dasharray:none;stroke-opacity:1;enable-background:new"
       d="M 69 511 L 59.5 520.5 L 56 517 L 55 517 L 59 521 L 59.5 521.5 L 64 526 L 73 517 L 72 517 L 64 525 L 60 521 L 69 512 L 69 511 z "
       id="path4599" />
    <path
       inkscape:connector-curvature="0"
       id="path4791"
       d="M 464,496 688,272 H 576 V 48 H 352 V 272 H 240 Z"
       style="fill:#e2e5e7;fill-opacity:1;stroke:none;stroke-width:28px;stroke-linecap:butt;stroke-linejoin:miter;stroke-opacity:1" />
    <path
       style="fill:#333a42;fill-opacity:1;stroke:none;stroke-width:28px;stroke-linecap:butt;stroke-linejoin:miter;stroke-opacity:1"
       d="M 464,104 V 496 L 688,272 H 576 V 104 Z"
       id="path4793"
       inkscape:connector-curvature="0" />
    <path
       id="path4795"
       d="m 352,48 v 84 28 112 H 240 L 352,384 464,272 576,160 V 48 H 464 Z"
       style="fill:#36b3a2;fill-opacity:1;stroke:none;stroke-width:28px;stroke-linecap:butt;stroke-linejoin:miter;stroke-opacity:1"
       inkscape:connector-curvature="0" />
    <path
       transform="matrix(16,0,0,16,-1328,-8912)"
       style="fill:#000000;fill-opacity:0.4;stroke:none;stroke-width:1px;stroke-linecap:butt;stroke-linejoin:miter;stroke-opacity:1;filter:url(#filter5334)"
       d="m 105,580.875 13.9375,-13.9375 c -6.1e-4,-0.002 0,0.375 0,0.375 L 105.25,581"
       id="path4799"
       inkscape:connector-curvature="0"
       sodipodi:nodetypes="cccc" />
    <path
       inkscape:connector-curvature="0"
       style="fill:#36b3a2;fill-opacity:1;stroke:none;stroke-width:28px;stroke-linecap:butt;stroke-linejoin:miter;stroke-opacity:1"
       d="m 352,48 v 84 28 112 H 240 L 352,384 464,272 576,160 V 48 H 464 Z"
       id="path4801" />
    <path
       style="display:inline;fill:#ffffff;fill-opacity:0.2;stroke:none;stroke-width:32;stroke-linecap:round;stroke-linejoin:round;stroke-miterlimit:4;stroke-dasharray:none;stroke-opacity:1;enable-background:new"
       d="M 352 48 L 352 50 L 378.62109 50 L 576 50 L 576 48 L 378.62109 48 L 352 48 z M 240 272 L 242 274 L 352 274 L 352 272 L 240 272 z M 576 272 L 576 274 L 686 274 L 688 272 L 576 272 z "
       id="path4803" />
    <path
       style="fill:#000000;fill-opacity:0.2;stroke:none;stroke-width:28px;stroke-linecap:butt;stroke-linejoin:miter;stroke-opacity:1"
       d="M 240 272 L 464 496 L 688 272 L 686 272 L 464 494 L 242 272 L 240 272 z "
       id="path4817" />
  </g>
</svg>
