<?xml version="1.0" encoding="UTF-8" standalone="no"?>
<!-- Created with Inkscape (http://www.inkscape.org/) -->

<svg
   xmlns:dc="http://purl.org/dc/elements/1.1/"
   xmlns:cc="http://creativecommons.org/ns#"
   xmlns:rdf="http://www.w3.org/1999/02/22-rdf-syntax-ns#"
   xmlns:svg="http://www.w3.org/2000/svg"
   xmlns="http://www.w3.org/2000/svg"
   xmlns:xlink="http://www.w3.org/1999/xlink"
   xmlns:sodipodi="http://sodipodi.sourceforge.net/DTD/sodipodi-0.dtd"
   xmlns:inkscape="http://www.inkscape.org/namespaces/inkscape"
   width="816"
   height="544"
   viewBox="0 0 816 544"
   version="1.1"
   id="svg1087"
   inkscape:version="0.92.1 r"
   sodipodi:docname="system-users.svg">
  <defs
     id="defs1081">
    <linearGradient
       id="linearGradient4730"
       inkscape:collect="always">
      <stop
         id="stop4726"
         offset="0"
         style="stop-color:#ffffff;stop-opacity:0.05490196" />
      <stop
         id="stop4728"
         offset="1"
         style="stop-color:#177ed5;stop-opacity:0;" />
    </linearGradient>
    <linearGradient
       id="linearGradient4724"
       inkscape:collect="always">
      <stop
         id="stop4720"
         offset="0"
         style="stop-color:#ffffff;stop-opacity:0.05490196" />
      <stop
         id="stop4722"
         offset="1"
         style="stop-color:#177ed5;stop-opacity:0;" />
    </linearGradient>
    <filter
       inkscape:collect="always"
       style="color-interpolation-filters:sRGB"
       id="filter5087"
       x="-0.048"
       width="1.096"
       y="-0.048"
       height="1.096">
      <feGaussianBlur
         inkscape:collect="always"
         stdDeviation="0.8"
         id="feGaussianBlur5089" />
    </filter>
    <linearGradient
       inkscape:collect="always"
       id="linearGradient4165">
      <stop
         style="stop-color:#ffffff;stop-opacity:0.05490196"
         offset="0"
         id="stop4167" />
      <stop
         style="stop-color:#177ed5;stop-opacity:0;"
         offset="1"
         id="stop4169" />
    </linearGradient>
    <linearGradient
       inkscape:collect="always"
       xlink:href="#linearGradient4724"
       id="linearGradient4435"
       gradientUnits="userSpaceOnUse"
       gradientTransform="matrix(0.65217044,0,0,0.65217328,96.347774,-158.67056)"
       x1="7"
       y1="1011.3622"
       x2="41.000019"
       y2="1045.3622" />
    <linearGradient
       inkscape:collect="always"
       xlink:href="#linearGradient4165"
       id="linearGradient4171-1-0"
       x1="7"
       y1="1011.3622"
       x2="41.000019"
       y2="1045.3622"
       gradientUnits="userSpaceOnUse"
       gradientTransform="matrix(0.95652178,0,0,0.95652174,145.04351,-479.6504)" />
    <linearGradient
       inkscape:collect="always"
       xlink:href="#linearGradient4165-3"
       id="linearGradient4449-0"
       gradientUnits="userSpaceOnUse"
       gradientTransform="matrix(10.434731,0,0,10.434772,293.56522,-10458.722)"
       x1="7"
       y1="1011.3622"
       x2="41.000019"
       y2="1045.3622" />
    <linearGradient
       inkscape:collect="always"
       id="linearGradient4165-3">
      <stop
         style="stop-color:#ffffff;stop-opacity:0.05490196"
         offset="0"
         id="stop4167-6" />
      <stop
         style="stop-color:#177ed5;stop-opacity:0;"
         offset="1"
         id="stop4169-7" />
    </linearGradient>
    <linearGradient
       inkscape:collect="always"
       xlink:href="#linearGradient4165-3"
       id="linearGradient4537"
       gradientUnits="userSpaceOnUse"
       gradientTransform="matrix(1.3043413,0,0,1.3043465,208.69566,-845.3402)"
       x1="7"
       y1="1011.3622"
       x2="41.000019"
       y2="1045.3622" />
    <filter
       inkscape:collect="always"
       style="color-interpolation-filters:sRGB"
       id="filter4542"
       x="-0.011999969"
       width="1.0239999"
       y="-0.012000031"
       height="1.0240001">
      <feGaussianBlur
         inkscape:collect="always"
         stdDeviation="0.21999957"
         id="feGaussianBlur4544" />
    </filter>
    <filter
       inkscape:collect="always"
       style="color-interpolation-filters:sRGB"
       id="filter4606"
       x="-0.02399996"
       width="1.0479999"
       y="-0.02400004"
       height="1.0480001">
      <feGaussianBlur
         inkscape:collect="always"
         stdDeviation="4.799976"
         id="feGaussianBlur4608" />
    </filter>
    <linearGradient
       inkscape:collect="always"
       xlink:href="#linearGradient4730"
       id="linearGradient4620"
       gradientUnits="userSpaceOnUse"
       gradientTransform="matrix(0.47825992,0,0,0.47826359,52.521743,24.17187)"
       x1="7"
       y1="1011.3622"
       x2="41.000019"
       y2="1045.3622" />
    <filter
       inkscape:collect="always"
       style="color-interpolation-filters:sRGB"
       id="filter5217"
       x="-0.01199998"
       width="1.024"
       y="-0.01200002"
       height="1.024">
      <feGaussianBlur
         inkscape:collect="always"
         stdDeviation="0.2999985"
         id="feGaussianBlur5219" />
    </filter>
    <filter
       inkscape:collect="always"
       style="color-interpolation-filters:sRGB"
       id="filter4951"
       x="-0.020957413"
       width="1.0419148"
       y="-0.018915375"
       height="1.0378307">
      <feGaussianBlur
         inkscape:collect="always"
         stdDeviation="0.1261025"
         id="feGaussianBlur4953" />
    </filter>
    <filter
       inkscape:collect="always"
       style="color-interpolation-filters:sRGB"
       id="filter4955"
       x="-0.020957413"
       width="1.0419148"
       y="-0.018915375"
       height="1.0378307">
      <feGaussianBlur
         inkscape:collect="always"
         stdDeviation="0.1261025"
         id="feGaussianBlur4957" />
    </filter>
    <filter
       inkscape:collect="always"
       style="color-interpolation-filters:sRGB"
       id="filter4970"
       x="-0.020957413"
       width="1.0419148"
       y="-0.018915375"
       height="1.0378308">
      <feGaussianBlur
         inkscape:collect="always"
         stdDeviation="0.1765435"
         id="feGaussianBlur4972" />
    </filter>
    <filter
       inkscape:collect="always"
       style="color-interpolation-filters:sRGB"
       id="filter4974"
       x="-0.020957413"
       width="1.0419148"
       y="-0.018915375"
       height="1.0378308">
      <feGaussianBlur
         inkscape:collect="always"
         stdDeviation="0.1765435"
         id="feGaussianBlur4976" />
    </filter>
    <filter
       inkscape:collect="always"
       style="color-interpolation-filters:sRGB"
       id="filter5021"
       x="-0.041914826"
       width="1.0838297"
       y="-0.03783075"
       height="1.0756615">
      <feGaussianBlur
         inkscape:collect="always"
         stdDeviation="2.824696"
         id="feGaussianBlur5023" />
    </filter>
    <filter
       inkscape:collect="always"
       style="color-interpolation-filters:sRGB"
       id="filter5025"
       x="-0.041914826"
       width="1.0838297"
       y="-0.03783075"
       height="1.0756615">
      <feGaussianBlur
         inkscape:collect="always"
         stdDeviation="2.824696"
         id="feGaussianBlur5027" />
    </filter>
  </defs>
  <sodipodi:namedview
     id="base"
     pagecolor="#c3c3c3"
     bordercolor="#333333"
     borderopacity="1"
     inkscape:pageopacity="0"
     inkscape:pageshadow="2"
     inkscape:zoom="1"
     inkscape:cx="596.68873"
     inkscape:cy="45.554768"
     inkscape:document-units="px"
     inkscape:current-layer="layer2"
     showgrid="false"
     units="px"
     inkscape:showpageshadow="false"
     inkscape:window-width="1280"
     inkscape:window-height="1370"
     inkscape:window-x="1280"
     inkscape:window-y="34"
     inkscape:window-maximized="0">
    <inkscape:grid
       type="xygrid"
       id="grid4630" />
  </sodipodi:namedview>
  <metadata
     id="metadata1084">
    <rdf:RDF>
      <cc:Work
         rdf:about="">
        <dc:format>image/svg+xml</dc:format>
        <dc:type
           rdf:resource="http://purl.org/dc/dcmitype/StillImage" />
        <dc:title></dc:title>
        <cc:license
           rdf:resource="http://creativecommons.org/licenses/by-sa/4.0/" />
        <dc:creator>
          <cc:Agent>
            <dc:title>Peter Cornelis</dc:title>
          </cc:Agent>
        </dc:creator>
      </cc:Work>
      <cc:License
         rdf:about="http://creativecommons.org/licenses/by-sa/4.0/">
        <cc:permits
           rdf:resource="http://creativecommons.org/ns#Reproduction" />
        <cc:permits
           rdf:resource="http://creativecommons.org/ns#Distribution" />
        <cc:requires
           rdf:resource="http://creativecommons.org/ns#Notice" />
        <cc:requires
           rdf:resource="http://creativecommons.org/ns#Attribution" />
        <cc:permits
           rdf:resource="http://creativecommons.org/ns#DerivativeWorks" />
        <cc:requires
           rdf:resource="http://creativecommons.org/ns#ShareAlike" />
      </cc:License>
    </rdf:RDF>
  </metadata>
  <g
     inkscape:label="Baseplate"
     inkscape:groupmode="layer"
     id="layer1"
     transform="translate(0,-153.06668)"
     style="display:none">
    <rect
       style="display:inline;overflow:visible;visibility:visible;fill:#fefefe;fill-opacity:1;fill-rule:nonzero;stroke:none;stroke-width:2;marker:none;enable-background:accumulate"
       id="rect3951"
       width="512"
       height="512"
       x="-800"
       y="169.06668"
       inkscape:label="48x48"
       transform="scale(-1,1)" />
    <text
       y="733.32251"
       xml:space="preserve"
       x="15.006836"
       style="font-style:normal;font-variant:normal;font-weight:normal;font-stretch:normal;line-height:0%;font-family:'DejaVu Sans';-inkscape-font-specification:'DejaVu Sans';display:inline;fill:#000000;fill-opacity:1;stroke:none;enable-background:new"
       inkscape:label="context"
       id="context"><tspan
         style="font-style:normal;font-variant:normal;font-weight:normal;font-stretch:normal;font-size:18px;line-height:1.25;font-family:'DejaVu Sans';-inkscape-font-specification:'DejaVu Sans'"
         y="733.32251"
         x="15.006836"
         sodipodi:role="line"
         id="tspan3933">apps</tspan></text>
    <text
       y="733.32251"
       xml:space="preserve"
       x="142.48828"
       style="font-style:normal;font-variant:normal;font-weight:bold;font-stretch:normal;line-height:0%;font-family:'DejaVu Sans';-inkscape-font-specification:'DejaVu Sans Bold';text-align:start;writing-mode:lr-tb;text-anchor:start;display:inline;fill:#000000;fill-opacity:1;stroke:none;enable-background:new"
       inkscape:label="icon-name"
       id="icon-name"><tspan
         style="font-style:normal;font-variant:normal;font-weight:bold;font-stretch:normal;font-size:18px;line-height:1.25;font-family:'DejaVu Sans';-inkscape-font-specification:'DejaVu Sans Bold'"
         y="733.32251"
         x="142.48828"
         sodipodi:role="line"
         id="tspan4564">system-users</tspan></text>
    <rect
       style="display:inline;overflow:visible;visibility:visible;fill:#fefefe;fill-opacity:1;fill-rule:nonzero;stroke:none;stroke-width:2;marker:none;enable-background:accumulate"
       id="rect16x16"
       width="16"
       height="16"
       x="-32"
       y="665.06665"
       inkscape:label="16x16"
       transform="scale(-1,1)" />
    <rect
       style="display:inline;overflow:visible;visibility:visible;fill:#fefefe;fill-opacity:1;fill-rule:nonzero;stroke:none;stroke-width:2;marker:none;enable-background:accumulate"
       id="rect24x24"
       width="24"
       height="24"
       x="-76"
       y="657.06665"
       inkscape:label="24x24"
       transform="scale(-1,1)" />
    <rect
       style="display:inline;overflow:visible;visibility:visible;fill:#fefefe;fill-opacity:1;fill-rule:nonzero;stroke:none;stroke-width:2;marker:none;enable-background:accumulate"
       id="rect32x32"
       width="32"
       height="32"
       x="-128"
       y="649.06665"
       inkscape:label="32x32"
       transform="scale(-1,1)" />
    <rect
       inkscape:label="48x48"
       y="633.06665"
       x="-192"
       height="48"
       width="48"
       id="rect48x48"
       style="display:inline;overflow:visible;visibility:visible;fill:#fefefe;fill-opacity:1;fill-rule:nonzero;stroke:none;stroke-width:2;marker:none;enable-background:accumulate"
       transform="scale(-1,1)" />
    <rect
       transform="scale(-1,1)"
       inkscape:label="48x48"
       y="617.06665"
       x="-272"
       height="64"
       width="64"
       id="rect4524"
       style="display:inline;overflow:visible;visibility:visible;fill:#fefefe;fill-opacity:1;fill-rule:nonzero;stroke:none;stroke-width:0.25;marker:none;enable-background:accumulate" />
  </g>
  <g
     inkscape:groupmode="layer"
     id="layer2"
     inkscape:label="Bitmap"
     style="display:inline">
    <path
       sodipodi:nodetypes="sscsscsscsscs"
       inkscape:connector-curvature="0"
       id="path5069"
       d="m 143,485 c -1.66505,0 -3,1.2912 -3,3 v 17 17 c 0,1.8617 1.34224,3 3,3 h 17 17 c 1.73784,0 3,-1.2767 3,-3 v -17 -17 c 0,-1.6942 -1.29127,-3 -3,-3 h -17 z"
       style="display:inline;fill:none;fill-opacity:0.5;stroke:none;stroke-width:2;stroke-linecap:round;stroke-linejoin:round;stroke-miterlimit:4;stroke-dasharray:none;stroke-opacity:1;filter:url(#filter5087);enable-background:new" />
    <path
       style="display:inline;fill:none;fill-opacity:0.5;stroke:none;stroke-width:2;stroke-linecap:round;stroke-linejoin:round;stroke-miterlimit:4;stroke-dasharray:none;stroke-opacity:1;filter:url(#filter5087);enable-background:new"
       d="m 143,485 c -1.66505,0 -3,1.2912 -3,3 v 17 17 c 0,1.8617 1.34224,3 3,3 h 17 17 c 1.73784,0 3,-1.2767 3,-3 v -17 -17 c 0,-1.6942 -1.29127,-3 -3,-3 h -17 z"
       id="path4506"
       inkscape:connector-curvature="0"
       sodipodi:nodetypes="sscsscsscsscs" />
    <circle
       r="8"
       cy="520"
       cx="24"
       id="circle4526"
       style="display:inline;opacity:1;fill:#36b3a2;fill-opacity:1;stroke:none;stroke-width:2;stroke-miterlimit:4;stroke-dasharray:none;stroke-opacity:1;enable-background:new" />
    <path
       style="display:inline;fill:#000000;fill-opacity:0.2;stroke:none;stroke-width:2;stroke-linecap:round;stroke-linejoin:round;stroke-miterlimit:4;stroke-dasharray:none;stroke-opacity:1;enable-background:new"
       d="m 63.99994,506.0001 a 10.999828,10.999992 0 0 0 -0.94531,0.047 10.999827,10.999992 0 0 0 -0.51842,0.063 10.999828,10.999992 0 0 0 -0.57167,0.087 10.999827,10.999992 0 0 0 -0.51095,0.1149 10.999828,10.999992 0 0 0 -0.55112,0.1401 10.999827,10.999992 0 0 0 -0.50815,0.1691 10.999828,10.999992 0 0 0 -0.53244,0.1943 10.999827,10.999992 0 0 0 -0.48759,0.2186 10.999828,10.999992 0 0 0 -0.50442,0.2438 10.999827,10.999992 0 0 0 -0.46985,0.269 10.999828,10.999992 0 0 0 -0.47732,0.2924 10.999827,10.999992 0 0 0 -0.43809,0.3138 10.999828,10.999992 0 0 0 -0.44651,0.34 10.999827,10.999992 0 0 0 -0.39418,0.3456 10.999828,10.999992 0 0 0 -0.42315,0.3941 A 10.999827,10.999992 0 0 0 53,517 a 10.999827,10.999992 0 0 0 3.0984,7.6522 h 0.0159 a 10.999828,10.999992 0 0 0 7.88566,3.3478 10.999828,10.999992 0 0 0 0.9341,-0.047 10.999827,10.999992 0 0 0 0.54085,-0.065 10.999828,10.999992 0 0 0 0.56045,-0.085 10.999827,10.999992 0 0 0 0.51095,-0.1148 10.999828,10.999992 0 0 0 0.55112,-0.1402 10.999827,10.999992 0 0 0 0.50815,-0.169 10.999828,10.999992 0 0 0 0.53244,-0.1944 10.999827,10.999992 0 0 0 0.4876,-0.2185 10.999828,10.999992 0 0 0 0.50441,-0.2438 10.999827,10.999992 0 0 0 0.46985,-0.2691 10.999828,10.999992 0 0 0 0.47733,-0.2923 10.999827,10.999992 0 0 0 0.43809,-0.3139 10.999828,10.999992 0 0 0 0.4465,-0.34 10.999827,10.999992 0 0 0 0.39419,-0.3456 10.999828,10.999992 0 0 0 0.42314,-0.3942 10.999827,10.999992 0 0 0 3.22078,-7.7667 10.999827,10.999992 0 0 0 -3.09934,-7.6522 h -0.0149 a 10.999828,10.999992 0 0 0 -7.88566,-3.3478 z"
       id="path4530"
       inkscape:connector-curvature="0" />
    <circle
       style="display:inline;opacity:1;fill:#36b3a2;fill-opacity:1;stroke:none;stroke-width:2;stroke-miterlimit:4;stroke-dasharray:none;stroke-opacity:1;enable-background:new"
       id="path4524"
       cx="64"
       cy="516"
       r="11" />
    <path
       inkscape:connector-curvature="0"
       id="path4534"
       d="m 168.00001,483.0002 a 21.99977,21.999992 0 0 0 -1.89063,0.095 21.999769,21.999992 0 0 0 -1.03685,0.1252 21.99977,21.999992 0 0 0 -1.14334,0.1737 21.999769,21.999992 0 0 0 -1.02191,0.2298 21.99977,21.999992 0 0 0 -1.10224,0.2803 21.999769,21.999992 0 0 0 -1.01631,0.3381 21.99977,21.999992 0 0 0 -1.06488,0.3886 21.999769,21.999992 0 0 0 -0.9752,0.4372 21.99977,21.999992 0 0 0 -1.00883,0.4876 21.999769,21.999992 0 0 0 -0.93971,0.538 21.99977,21.999992 0 0 0 -0.95465,0.5848 21.999769,21.999992 0 0 0 -0.87619,0.6277 21.99977,21.999992 0 0 0 -0.89301,0.68 21.999769,21.999992 0 0 0 -0.78838,0.6912 21.99977,21.999992 0 0 0 -0.84629,0.7881 21.999769,21.999992 0 0 0 -6.44157,15.5345 21.999769,21.999992 0 0 0 6.19684,15.3043 h 0.0318 a 21.99977,21.999992 0 0 0 15.77139,6.6957 21.99977,21.999992 0 0 0 1.86821,-0.094 21.999769,21.999992 0 0 0 1.08169,-0.1308 21.99977,21.999992 0 0 0 1.12092,-0.17 21.999769,21.999992 0 0 0 1.02191,-0.2297 21.99977,21.999992 0 0 0 1.10224,-0.2803 21.999769,21.999992 0 0 0 1.01631,-0.3381 21.99977,21.999992 0 0 0 1.06488,-0.3887 21.999769,21.999992 0 0 0 0.9752,-0.4371 21.99977,21.999992 0 0 0 1.00883,-0.4876 21.999769,21.999992 0 0 0 0.93971,-0.5381 21.99977,21.999992 0 0 0 0.95465,-0.5847 21.999769,21.999992 0 0 0 0.87619,-0.6277 21.99977,21.999992 0 0 0 0.893,-0.68 21.999769,21.999992 0 0 0 0.78839,-0.6912 21.99977,21.999992 0 0 0 0.84629,-0.7885 21.999769,21.999992 0 0 0 6.44158,-15.5333 21.999769,21.999992 0 0 0 -6.19871,-15.3044 h -0.0299 a 21.99977,21.999992 0 0 0 -15.7714,-6.6956 z"
       style="display:inline;fill:#000000;fill-opacity:0.2;stroke:none;stroke-width:2;stroke-linecap:round;stroke-linejoin:round;stroke-miterlimit:4;stroke-dasharray:none;stroke-opacity:1;enable-background:new;filter:url(#filter4542)" />
    <circle
       style="display:inline;opacity:1;fill:#36b3a2;fill-opacity:1;stroke:none;stroke-width:2;stroke-miterlimit:4;stroke-dasharray:none;stroke-opacity:1;enable-background:new"
       id="path4520"
       cx="168"
       cy="504"
       r="22" />
    <path
       style="display:inline;fill:#000000;fill-opacity:0.2;stroke:none;stroke-width:16;stroke-linecap:round;stroke-linejoin:round;stroke-miterlimit:4;stroke-dasharray:none;stroke-opacity:1;enable-background:new"
       d="m 543.99874,34.0032 a 239.9963,239.99966 0 0 0 -20.62496,1.024 239.99626,239.99966 0 0 0 -11.31104,1.376 239.9963,239.99966 0 0 0 -12.4728,1.8976 239.99626,239.99966 0 0 0 -11.148,2.5072 239.9963,239.99966 0 0 0 -12.0244,3.056 239.99626,239.99966 0 0 0 -11.08688,3.6896 239.9963,239.99966 0 0 0 -11.61688,4.24 239.99626,239.99966 0 0 0 -10.63832,4.7696 239.9963,239.99966 0 0 0 -11.00552,5.3184 239.99626,239.99966 0 0 0 -10.25128,5.8688 239.9963,239.99966 0 0 0 -10.41425,6.3808 239.99626,239.99966 0 0 0 -9.5584,6.8464 239.9963,239.99966 0 0 0 -9.74208,7.4176 239.99626,239.99966 0 0 0 -8.60024,7.5408 239.9963,239.99966 0 0 0 -9.23232,8.5984 A 239.99626,239.99966 0 0 0 304.00001,274 239.99626,239.99966 0 0 0 371.60145,440.9568 h 0.3472 A 239.9963,239.99966 0 0 0 543.99938,514 a 239.9963,239.99966 0 0 0 20.3804,-1.024 239.99626,239.99966 0 0 0 11.80048,-1.424 239.9963,239.99966 0 0 0 12.228,-1.8544 239.99626,239.99966 0 0 0 11.148,-2.5056 239.9963,239.99966 0 0 0 12.02432,-3.0592 239.99626,239.99966 0 0 0 11.08687,-3.6864 239.9963,239.99966 0 0 0 11.61696,-4.2416 239.99626,239.99966 0 0 0 10.63856,-4.768 239.9963,239.99966 0 0 0 11.00528,-5.3184 239.99626,239.99966 0 0 0 10.25121,-5.872 239.9963,239.99966 0 0 0 10.41456,-6.3776 239.99626,239.99966 0 0 0 9.55824,-6.848 239.9963,239.99966 0 0 0 9.74192,-7.4176 239.99626,239.99966 0 0 0 8.60048,-7.5408 239.9963,239.99966 0 0 0 9.23216,-8.6016 239.99626,239.99966 0 0 0 70.2716,-169.4544 239.99626,239.99966 0 0 0 -67.622,-166.9568 h -0.3248 A 239.9963,239.99966 0 0 0 544.00082,34.0064 Z"
       id="path4550"
       inkscape:connector-curvature="0" />
    <path
       inkscape:connector-curvature="0"
       id="path4554"
       d="m 543.99874,34.0032 a 239.9963,239.99966 0 0 0 -20.62496,1.024 239.99626,239.99966 0 0 0 -11.31104,1.376 239.9963,239.99966 0 0 0 -12.4728,1.8976 239.99626,239.99966 0 0 0 -11.148,2.5072 239.9963,239.99966 0 0 0 -12.0244,3.056 239.99626,239.99966 0 0 0 -11.08688,3.6896 239.9963,239.99966 0 0 0 -11.61688,4.24 239.99626,239.99966 0 0 0 -10.63832,4.7696 239.9963,239.99966 0 0 0 -11.00552,5.3184 239.99626,239.99966 0 0 0 -10.25128,5.8688 239.9963,239.99966 0 0 0 -10.41425,6.3808 239.99626,239.99966 0 0 0 -9.5584,6.8464 239.9963,239.99966 0 0 0 -9.74208,7.4176 239.99626,239.99966 0 0 0 -8.60024,7.5408 239.9963,239.99966 0 0 0 -9.23232,8.5984 A 239.99626,239.99966 0 0 0 304.00001,274 239.99626,239.99966 0 0 0 371.60145,440.9568 h 0.3472 A 239.9963,239.99966 0 0 0 543.99938,514 a 239.9963,239.99966 0 0 0 20.3804,-1.024 239.99626,239.99966 0 0 0 11.80048,-1.424 239.9963,239.99966 0 0 0 12.228,-1.8544 239.99626,239.99966 0 0 0 11.148,-2.5056 239.9963,239.99966 0 0 0 12.02432,-3.0592 239.99626,239.99966 0 0 0 11.08687,-3.6864 239.9963,239.99966 0 0 0 11.61696,-4.2416 239.99626,239.99966 0 0 0 10.63856,-4.768 239.9963,239.99966 0 0 0 11.00528,-5.3184 239.99626,239.99966 0 0 0 10.25121,-5.872 239.9963,239.99966 0 0 0 10.41456,-6.3776 239.99626,239.99966 0 0 0 9.55824,-6.848 239.9963,239.99966 0 0 0 9.74192,-7.4176 239.99626,239.99966 0 0 0 8.60048,-7.5408 239.9963,239.99966 0 0 0 9.23216,-8.6016 239.99626,239.99966 0 0 0 70.2716,-169.4544 239.99626,239.99966 0 0 0 -67.622,-166.9568 h -0.3248 A 239.9963,239.99966 0 0 0 544.00082,34.0064 Z"
       style="display:inline;fill:#000000;fill-opacity:0.2;stroke:none;stroke-width:16;stroke-linecap:round;stroke-linejoin:round;stroke-miterlimit:4;stroke-dasharray:none;stroke-opacity:1;enable-background:new;filter:url(#filter4606)" />
    <circle
       style="display:inline;opacity:1;fill:#36b3a2;fill-opacity:1;stroke:none;stroke-width:2;stroke-miterlimit:4;stroke-dasharray:none;stroke-opacity:1;enable-background:new"
       id="path4518"
       cx="544"
       cy="272"
       r="240" />
    <path
       inkscape:connector-curvature="0"
       id="path4532"
       d="m 111.99993,498.0002 a 14.999763,14.99998 0 0 0 -1.28906,0.064 14.999761,14.99998 0 0 0 -0.70694,0.086 14.999763,14.99998 0 0 0 -0.77955,0.1186 14.999761,14.99998 0 0 0 -0.69675,0.1567 14.999763,14.99998 0 0 0 -0.75153,0.191 14.999761,14.99998 0 0 0 -0.69293,0.2306 14.999763,14.99998 0 0 0 -0.72605,0.265 14.999761,14.99998 0 0 0 -0.6649,0.2981 14.999763,14.99998 0 0 0 -0.68784,0.3324 14.999761,14.99998 0 0 0 -0.64071,0.3668 14.999763,14.99998 0 0 0 -0.65089,0.3988 14.999761,14.99998 0 0 0 -0.5974,0.4279 14.999763,14.99998 0 0 0 -0.60887,0.4636 14.999761,14.99998 0 0 0 -0.53752,0.4713 14.999763,14.99998 0 0 0 -0.57702,0.5374 A 14.999761,14.99998 0 0 0 97,513 a 14.999761,14.99998 0 0 0 4.2251,10.4348 h 0.0217 a 14.999763,14.99998 0 0 0 10.75317,4.5652 14.999763,14.99998 0 0 0 1.27377,-0.064 14.999761,14.99998 0 0 0 0.73753,-0.089 14.999763,14.99998 0 0 0 0.76425,-0.1159 14.999761,14.99998 0 0 0 0.69675,-0.1566 14.999763,14.99998 0 0 0 0.75152,-0.1912 14.999761,14.99998 0 0 0 0.69293,-0.2304 14.999763,14.99998 0 0 0 0.72606,-0.2651 14.999761,14.99998 0 0 0 0.66491,-0.298 14.999763,14.99998 0 0 0 0.68783,-0.3324 14.999761,14.99998 0 0 0 0.6407,-0.367 14.999763,14.99998 0 0 0 0.65091,-0.3986 14.999761,14.99998 0 0 0 0.59739,-0.428 14.999763,14.99998 0 0 0 0.60887,-0.4636 14.999761,14.99998 0 0 0 0.53753,-0.4713 14.999763,14.99998 0 0 0 0.57701,-0.5376 14.999761,14.99998 0 0 0 4.39197,-10.5909 14.999761,14.99998 0 0 0 -4.22637,-10.4348 h -0.0203 a 14.999763,14.99998 0 0 0 -10.75317,-4.5652 z"
       style="display:inline;fill:#000000;fill-opacity:0.2;stroke:none;stroke-width:2;stroke-linecap:round;stroke-linejoin:round;stroke-miterlimit:4;stroke-dasharray:none;stroke-opacity:1;enable-background:new" />
    <circle
       style="display:inline;opacity:1;fill:#36b3a2;fill-opacity:1;stroke:none;stroke-width:2;stroke-miterlimit:4;stroke-dasharray:none;stroke-opacity:1;enable-background:new"
       id="path4522"
       cx="112"
       cy="512"
       r="15" />
    <path
       id="path4507"
       d="M 783.95898,273.17 A 240,240 0 0 0 544,33.99812 240,240 0 0 0 304.04102,272.82624 240,240 0 0 1 304,271.99812 a 240,240 0 0 1 240,-240 240,240 0 0 1 240,240 240,240 0 0 1 -0.041,1.17188 z"
       style="display:inline;opacity:1;fill:#ffffff;fill-opacity:0.2;stroke:none;stroke-width:2;stroke-miterlimit:4;stroke-dasharray:none;stroke-opacity:1;enable-background:new"
       inkscape:connector-curvature="0" />
    <path
       id="path4514"
       d="M 189.97852,504.588 A 22,22 0 0 0 168,483.00206 22,22 0 0 0 146.02148,504.41612 22,22 0 0 1 146,504.00206 a 22,22 0 0 1 22,-22 22,22 0 0 1 22,22 22,22 0 0 1 -0.0215,0.58594 z"
       style="display:inline;opacity:1;fill:#ffffff;fill-opacity:0.2;stroke:none;stroke-width:2;stroke-miterlimit:4;stroke-dasharray:none;stroke-opacity:1;enable-background:new"
       inkscape:connector-curvature="0" />
    <path
       style="display:inline;opacity:1;fill:#ffffff;fill-opacity:0.2;stroke:none;stroke-width:2;stroke-miterlimit:4;stroke-dasharray:none;stroke-opacity:1;enable-background:new"
       d="m 112,497 a 15,15 0 0 0 -15,15 15,15 0 0 0 0.01953,0.58594 A 15,15 0 0 1 112,498 15,15 0 0 1 126.98047,512.41406 15,15 0 0 0 127,512 15,15 0 0 0 112,497 Z"
       id="circle4521"
       inkscape:connector-curvature="0" />
    <path
       style="display:inline;opacity:1;fill:#ffffff;fill-opacity:0.2;stroke:none;stroke-width:2;stroke-miterlimit:4;stroke-dasharray:none;stroke-opacity:1;enable-background:new"
       d="m 64,505 a 11,11 0 0 0 -11,11 11,11 0 0 0 0.02148,0.58594 A 11,11 0 0 1 64,506 11,11 0 0 1 74.978516,516.41406 11,11 0 0 0 75,516 11,11 0 0 0 64,505 Z"
       id="circle4527"
       inkscape:connector-curvature="0" />
    <path
       inkscape:connector-curvature="0"
       id="path4546"
       d="m 239.99984,467.0004 a 29.999537,29.999957 0 0 0 -2.57812,0.128 29.999532,29.999957 0 0 0 -1.41388,0.172 29.999537,29.999957 0 0 0 -1.5591,0.2372 29.999532,29.999957 0 0 0 -1.3935,0.3134 29.999537,29.999957 0 0 0 -1.50305,0.382 29.999532,29.999957 0 0 0 -1.38586,0.4612 29.999537,29.999957 0 0 0 -1.45211,0.53 29.999532,29.999957 0 0 0 -1.32979,0.5962 29.999537,29.999957 0 0 0 -1.37569,0.6648 29.999532,29.999957 0 0 0 -1.28141,0.7336 29.999537,29.999957 0 0 0 -1.30178,0.7976 29.999532,29.999957 0 0 0 -1.1948,0.8558 29.999537,29.999957 0 0 0 -1.21776,0.9272 29.999532,29.999957 0 0 0 -1.07503,0.9426 29.999537,29.999957 0 0 0 -1.15404,1.0748 A 29.999532,29.999957 0 0 0 210,497 a 29.999532,29.999957 0 0 0 8.45018,20.8696 h 0.0434 a 29.999537,29.999957 0 0 0 21.50634,9.1304 29.999537,29.999957 0 0 0 2.54755,-0.128 29.999532,29.999957 0 0 0 1.47506,-0.178 29.999537,29.999957 0 0 0 1.5285,-0.2318 29.999532,29.999957 0 0 0 1.3935,-0.3132 29.999537,29.999957 0 0 0 1.50304,-0.3824 29.999532,29.999957 0 0 0 1.38586,-0.4608 29.999537,29.999957 0 0 0 1.45212,-0.5302 29.999532,29.999957 0 0 0 1.32982,-0.596 29.999537,29.999957 0 0 0 1.37566,-0.6648 29.999532,29.999957 0 0 0 1.2814,-0.734 29.999537,29.999957 0 0 0 1.30182,-0.7972 29.999532,29.999957 0 0 0 1.19478,-0.856 29.999537,29.999957 0 0 0 1.21774,-0.9272 29.999532,29.999957 0 0 0 1.07506,-0.9426 29.999537,29.999957 0 0 0 1.15402,-1.0752 29.999532,29.999957 0 0 0 8.78395,-21.1818 29.999532,29.999957 0 0 0 -8.45275,-20.8696 h -0.0406 a 29.999537,29.999957 0 0 0 -21.50635,-9.1304 z"
       style="display:inline;fill:#000000;fill-opacity:0.2;stroke:none;stroke-width:2;stroke-linecap:round;stroke-linejoin:round;stroke-miterlimit:4;stroke-dasharray:none;stroke-opacity:1;enable-background:new;filter:url(#filter5217)" />
    <circle
       cy="496"
       cx="240"
       id="circle4528"
       style="display:inline;opacity:1;fill:#36b3a2;fill-opacity:1;stroke:none;stroke-width:0.25;stroke-miterlimit:4;stroke-dasharray:none;stroke-opacity:1;enable-background:new"
       r="30" />
    <path
       style="display:inline;opacity:1;fill:#ffffff;fill-opacity:0.2;stroke:none;stroke-width:0.25;stroke-miterlimit:4;stroke-dasharray:none;stroke-opacity:1;enable-background:new"
       d="m 240,466 a 30,30 0 0 0 -30,30 30,30 0 0 0 0.0215,0.58984 A 30,30 0 0 1 240,467 30,30 0 0 1 269.97852,496.41016 30,30 0 0 0 270,496 30,30 0 0 0 240,466 Z"
       id="circle4539"
       inkscape:connector-curvature="0" />
    <path
       style="display:inline;fill:#f5f5f5;fill-opacity:1;enable-background:new"
       d="m 24.00025,516 c -1.10497,0 -1.99994,0.895 -1.99994,2 0,1.1025 0.89497,2 1.99994,2 1.10497,0 1.99995,-0.8975 1.99995,-2 0,-1.105 -0.89498,-2 -1.99995,-2 z m 0,5 c -1.02149,0 -2.82317,0.39375 -3.61025,1.17725 A 4.4998735,4.5 0 0 0 24.00025,524 4.4998735,4.5 0 0 0 27.6105,522.17725 C 26.8235,521.3937 25.02176,521 24.00025,521 Z"
       id="path4558"
       inkscape:connector-curvature="0" />
    <path
       inkscape:connector-curvature="0"
       id="path4940"
       d="m 160.0205,499 c -2.20994,0 -3.99989,1.79 -3.99989,4 0,2.205 1.78995,4 3.99989,4 2.20994,0 3.99989,-1.795 3.99989,-4 0,-2.21 -1.78995,-4 -3.99989,-4 z m 0,10 c -2.04297,0 -5.64633,0.7875 -7.2205,2.3545 a 8.999747,9 0 0 0 7.2205,3.6455 8.999747,9 0 0 0 7.2205,-3.6455 C 165.667,509.7874 162.06351,509 160.0205,509 Z"
       style="display:inline;fill:#000000;fill-opacity:0.2;enable-background:new;filter:url(#filter4951)" />
    <path
       style="display:inline;fill:#f5f5f5;fill-opacity:1;enable-background:new"
       d="m 160.0205,498 c -2.20994,0 -3.99989,1.79 -3.99989,4 0,2.205 1.78995,4 3.99989,4 2.20994,0 3.99989,-1.795 3.99989,-4 0,-2.21 -1.78995,-4 -3.99989,-4 z m 0,10 c -2.04297,0 -5.64633,0.7875 -7.2205,2.3545 a 8.999747,9 0 0 0 7.2205,3.6455 8.999747,9 0 0 0 7.2205,-3.6455 C 165.667,508.7874 162.06351,508 160.0205,508 Z"
       id="path4155"
       inkscape:connector-curvature="0" />
    <path
       style="display:inline;fill:#000000;fill-opacity:0.2;enable-background:new;filter:url(#filter4955)"
       d="m 176.0205,495 c -2.20994,0 -3.99989,1.79 -3.99989,4 0,2.205 1.78995,4 3.99989,4 2.20994,0 3.99989,-1.795 3.99989,-4 0,-2.21 -1.78995,-4 -3.99989,-4 z m 0,10 c -2.04297,0 -5.64633,0.7875 -7.2205,2.3545 a 8.999747,9 0 0 0 7.2205,3.6455 8.999747,9 0 0 0 7.2205,-3.6455 C 181.667,505.7874 178.06351,505 176.0205,505 Z"
       id="path4942"
       inkscape:connector-curvature="0" />
    <path
       inkscape:connector-curvature="0"
       id="path4159"
       d="m 176.0205,494 c -2.20994,0 -3.99989,1.79 -3.99989,4 0,2.205 1.78995,4 3.99989,4 2.20994,0 3.99989,-1.795 3.99989,-4 0,-2.21 -1.78995,-4 -3.99989,-4 z m 0,10 c -2.04297,0 -5.64633,0.7875 -7.2205,2.3545 a 8.999747,9 0 0 0 7.2205,3.6455 8.999747,9 0 0 0 7.2205,-3.6455 C 181.667,504.7874 178.06351,504 176.0205,504 Z"
       style="display:inline;fill:#f5f5f5;fill-opacity:1;enable-background:new" />
    <path
       style="display:inline;fill:#000000;fill-opacity:0.2;stroke-width:1.00001645;enable-background:new"
       d="m 60.000369,514 c -1.105007,0 -2.000006,0.895 -2.000006,2 0,1.1025 0.894999,2 2.000006,2 1.105006,0 2.000015,-0.8975 2.000015,-2 0,-1.105 -0.895009,-2 -2.000015,-2 z m 0,5 c -1.021524,0 -2.823263,0.39375 -3.610369,1.17725 A 4.5000213,4.5 0 0 0 60.000369,522 4.5000213,4.5 0 0 0 63.610737,520.17725 C 62.823711,519.3937 61.021912,519 60.000369,519 Z"
       id="path4918"
       inkscape:connector-curvature="0" />
    <path
       inkscape:connector-curvature="0"
       id="path4508"
       d="m 60.00025,513 c -1.10497,0 -1.99994,0.895 -1.99994,2 0,1.1025 0.89497,2 1.99994,2 1.10497,0 1.99995,-0.8975 1.99995,-2 0,-1.105 -0.89498,-2 -1.99995,-2 z m 0,5 c -1.02149,0 -2.82317,0.39375 -3.61025,1.17725 A 4.4998735,4.5 0 0 0 60.00025,521 4.4998735,4.5 0 0 0 63.6105,519.17725 C 62.8235,518.3937 61.02176,518 60.00025,518 Z"
       style="display:inline;fill:#f5f5f5;fill-opacity:1;enable-background:new" />
    <path
       inkscape:connector-curvature="0"
       id="path4920"
       d="m 68.000631,512 c -1.105006,0 -2.000005,0.895 -2.000005,2 0,1.1025 0.894999,2 2.000005,2 1.105007,0 2.000016,-0.8975 2.000016,-2 0,-1.105 -0.895009,-2 -2.000016,-2 z m 0,5 c -1.021523,0 -2.823262,0.39375 -3.610368,1.17725 A 4.5000213,4.5 0 0 0 68.000631,520 4.5000213,4.5 0 0 0 71.611,518.17725 C 70.823974,517.3937 69.022175,517 68.000631,517 Z"
       style="display:inline;fill:#000000;fill-opacity:0.2;stroke-width:1.00001645;enable-background:new" />
    <path
       style="display:inline;fill:#f5f5f5;fill-opacity:1;enable-background:new"
       d="m 68.00025,511 c -1.10497,0 -1.99994,0.895 -1.99994,2 0,1.1025 0.89497,2 1.99994,2 1.10497,0 1.99995,-0.8975 1.99995,-2 0,-1.105 -0.89498,-2 -1.99995,-2 z m 0,5 c -1.02149,0 -2.82317,0.39375 -3.61025,1.17725 A 4.4998735,4.5 0 0 0 68.00025,519 4.4998735,4.5 0 0 0 71.6105,517.17725 C 70.8235,516.3937 69.02176,516 68.00025,516 Z"
       id="path4510"
       inkscape:connector-curvature="0" />
    <path
       inkscape:connector-curvature="0"
       id="path4929"
       d="m 106.50066,508.7 c -1.54696,0 -2.79992,1.253 -2.79992,2.8 0,1.5435 1.25296,2.8 2.79992,2.8 1.54696,0 2.79993,-1.2565 2.79993,-2.8 0,-1.547 -1.25297,-2.8 -2.79993,-2.8 z m 0,7 c -1.43009,0 -3.95244,0.55125 -5.05435,1.64815 a 6.2998229,6.3 0 0 0 5.05435,2.55185 6.2998229,6.3 0 0 0 5.05434,-2.55185 C 110.45321,516.25118 107.93077,515.7 106.50066,515.7 Z"
       style="display:inline;fill:#000000;fill-opacity:0.2;enable-background:new" />
    <path
       style="display:inline;fill:#f5f5f5;fill-opacity:1;enable-background:new"
       d="m 106.50066,507.69959 c -1.54696,0 -2.79992,1.253 -2.79992,2.8 0,1.5435 1.25296,2.8 2.79992,2.8 1.54696,0 2.79993,-1.2565 2.79993,-2.8 0,-1.547 -1.25297,-2.8 -2.79993,-2.8 z m 0,7 c -1.43009,0 -3.95244,0.55125 -5.05435,1.64815 a 6.2998229,6.3 0 0 0 5.05435,2.55185 6.2998229,6.3 0 0 0 5.05434,-2.55185 c -1.10179,-1.09697 -3.62423,-1.64815 -5.05434,-1.64815 z"
       id="path4566"
       inkscape:connector-curvature="0" />
    <path
       style="display:inline;fill:#000000;fill-opacity:0.2;enable-background:new"
       d="m 117.70065,506.20041 c -1.54694,0 -2.79991,1.253 -2.79991,2.8 0,1.5435 1.25297,2.8 2.79991,2.8 1.54697,0 2.79995,-1.2565 2.79995,-2.8 0,-1.547 -1.25298,-2.8 -2.79995,-2.8 z m 0,7 c -1.43008,0 -3.95243,0.55125 -5.05434,1.64815 a 6.2998229,6.3 0 0 0 5.05434,2.55185 6.2998229,6.3 0 0 0 5.05435,-2.55185 c -1.10179,-1.09697 -3.62424,-1.64815 -5.05435,-1.64815 z"
       id="path4931"
       inkscape:connector-curvature="0" />
    <path
       inkscape:connector-curvature="0"
       id="path4570"
       d="m 117.70065,505.2 c -1.54694,0 -2.79991,1.253 -2.79991,2.8 0,1.5435 1.25297,2.8 2.79991,2.8 1.54697,0 2.79995,-1.2565 2.79995,-2.8 0,-1.547 -1.25298,-2.8 -2.79995,-2.8 z m 0,7 c -1.43008,0 -3.95243,0.55125 -5.05434,1.64815 a 6.2998229,6.3 0 0 0 5.05434,2.55185 6.2998229,6.3 0 0 0 5.05435,-2.55185 C 121.65321,512.75118 119.13076,512.2 117.70065,512.2 Z"
       style="display:inline;fill:#f5f5f5;fill-opacity:1;enable-background:new" />
    <path
       style="display:inline;fill:#000000;fill-opacity:0.2;enable-background:new;filter:url(#filter4970)"
       d="m 228.8007,488.6 c -3.09392,0 -5.59984,2.506 -5.59984,5.6 0,3.087 2.50592,5.6 5.59984,5.6 3.09392,0 5.59984,-2.513 5.59984,-5.6 0,-3.094 -2.50592,-5.6 -5.59984,-5.6 z m 0,14 c -2.86016,0 -7.90486,1.1025 -10.1087,3.2963 A 12.599646,12.6 0 0 0 228.8007,511 12.599646,12.6 0 0 0 238.9094,505.8963 C 236.7058,503.70236 231.66092,502.6 228.8007,502.6 Z"
       id="path4966"
       inkscape:connector-curvature="0" />
    <path
       inkscape:connector-curvature="0"
       id="path4608"
       d="m 228.8007,487.6 c -3.09392,0 -5.59984,2.506 -5.59984,5.6 0,3.087 2.50592,5.6 5.59984,5.6 3.09392,0 5.59984,-2.513 5.59984,-5.6 0,-3.094 -2.50592,-5.6 -5.59984,-5.6 z m 0,14 c -2.86016,0 -7.90486,1.1025 -10.1087,3.2963 A 12.599646,12.6 0 0 0 228.8007,510 12.599646,12.6 0 0 0 238.9094,504.8963 C 236.7058,502.70236 231.66092,501.6 228.8007,501.6 Z"
       style="display:inline;fill:#f5f5f5;fill-opacity:1;enable-background:new" />
    <path
       inkscape:connector-curvature="0"
       id="path4968"
       d="m 251.2007,483 c -3.09392,0 -5.59984,2.506 -5.59984,5.6 0,3.087 2.50592,5.6 5.59984,5.6 3.09392,0 5.59984,-2.513 5.59984,-5.6 0,-3.094 -2.50592,-5.6 -5.59984,-5.6 z m 0,14 c -2.86016,0 -7.90486,1.1025 -10.1087,3.2963 a 12.599646,12.6 0 0 0 10.1087,5.1037 12.599646,12.6 0 0 0 10.1087,-5.1037 C 259.1058,498.10236 254.06092,497 251.2007,497 Z"
       style="display:inline;fill:#000000;fill-opacity:0.2;enable-background:new;filter:url(#filter4974)" />
    <path
       style="display:inline;fill:#f5f5f5;fill-opacity:1;enable-background:new"
       d="m 251.2007,482 c -3.09392,0 -5.59984,2.506 -5.59984,5.6 0,3.087 2.50592,5.6 5.59984,5.6 3.09392,0 5.59984,-2.513 5.59984,-5.6 0,-3.094 -2.50592,-5.6 -5.59984,-5.6 z m 0,14 c -2.86016,0 -7.90486,1.1025 -10.1087,3.2963 a 12.599646,12.6 0 0 0 10.1087,5.1037 12.599646,12.6 0 0 0 10.1087,-5.1037 C 259.1058,497.10236 254.06092,496 251.2007,496 Z"
       id="path4610"
       inkscape:connector-curvature="0" />
    <path
       style="display:inline;fill:#fefefe;fill-opacity:1;enable-background:new"
       d="M 60 513 C 58.89503 513 58 513.895 58 515 C 58 515.17378 58.030478 515.33912 58.072266 515.5 C 58.295444 514.63903 59.068962 514 60 514 C 60.930386 514 61.70588 514.638 61.929688 515.49805 C 61.971101 515.33784 62 515.17297 62 515 C 62 513.895 61.10497 513 60 513 z M 60 518 C 58.97851 518 57.177705 518.39423 56.390625 519.17773 A 4.4998735 4.5 0 0 0 56.935547 519.7832 C 57.832981 519.26531 59.169851 519 60 519 C 60.829677 519 62.167049 519.26395 63.064453 519.78125 A 4.4998735 4.5 0 0 0 63.611328 519.17773 C 62.824328 518.39418 61.02151 518 60 518 z "
       id="path4922" />
    <path
       id="path4927"
       d="m 68,511 c -1.10497,0 -2,0.895 -2,2 0,0.17378 0.03048,0.33912 0.07227,0.5 0.223174,-0.86097 0.996692,-1.5 1.92773,-1.5 0.930386,0 1.70588,0.638 1.929688,1.49805 C 69.971101,513.33784 70,513.17297 70,513 c 0,-1.105 -0.89503,-2 -2,-2 z m 0,5 c -1.02149,0 -2.822295,0.39423 -3.609375,1.17773 a 4.4998735,4.5 0 0 0 0.544922,0.60547 C 65.832981,517.26531 67.169851,517 68,517 c 0.829677,0 2.167049,0.26395 3.064453,0.78125 a 4.4998735,4.5 0 0 0 0.546875,-0.60352 C 70.824328,516.39418 69.02151,516 68,516 Z"
       style="display:inline;fill:#fefefe;fill-opacity:1;enable-background:new"
       inkscape:connector-curvature="0" />
    <path
       inkscape:connector-curvature="0"
       id="path4618"
       d="m 63.999985,505 a 10.999863,11.000059 0 0 0 -0.945313,0.0469 10.999861,11.000059 0 0 0 -0.518425,0.0631 10.999863,11.000059 0 0 0 -0.571672,0.087 10.999861,11.000059 0 0 0 -0.510951,0.11492 10.999863,11.000059 0 0 0 -0.551124,0.14007 10.999861,11.000059 0 0 0 -0.508151,0.1691 10.999863,11.000059 0 0 0 -0.532438,0.19434 10.999861,11.000059 0 0 0 -0.487595,0.21861 10.999863,11.000059 0 0 0 -0.504418,0.24376 10.999861,11.000059 0 0 0 -0.469855,0.26899 10.999863,11.000059 0 0 0 -0.477321,0.29245 10.999861,11.000059 0 0 0 -0.438095,0.3138 10.999863,11.000059 0 0 0 -0.446506,0.33997 10.999861,11.000059 0 0 0 -0.394183,0.34563 10.999863,11.000059 0 0 0 -0.423149,0.39409 10.999861,11.000059 0 0 0 -3.220789,7.7672 10.999861,11.000059 0 0 0 3.098417,7.65223 h 0.01591 A 10.999863,11.000059 0 0 0 64.000012,527 a 10.999863,11.000059 0 0 0 0.934101,-0.0469 10.999861,11.000059 0 0 0 0.540857,-0.0653 10.999863,11.000059 0 0 0 0.560452,-0.085 10.999861,11.000059 0 0 0 0.510951,-0.11485 10.999863,11.000059 0 0 0 0.551117,-0.14021 10.999861,11.000059 0 0 0 0.50815,-0.16896 10.999863,11.000059 0 0 0 0.532446,-0.19441 10.999861,11.000059 0 0 0 0.487602,-0.21853 10.999863,11.000059 0 0 0 0.504411,-0.24377 10.999861,11.000059 0 0 0 0.469848,-0.26913 10.999863,11.000059 0 0 0 0.477336,-0.29231 10.999861,11.000059 0 0 0 0.438087,-0.31387 10.999863,11.000059 0 0 0 0.446506,-0.33997 10.999861,11.000059 0 0 0 0.39419,-0.34563 10.999863,11.000059 0 0 0 0.423142,-0.39424 A 10.999861,11.000059 0 0 0 75,516.00022 10.999861,11.000059 0 0 0 71.900652,508.34798 h -0.01489 a 10.999863,11.000059 0 0 0 -7.885684,-3.34783 z"
       style="display:inline;fill:url(#linearGradient4620);fill-opacity:1;stroke:none;stroke-width:1.46667397;stroke-linecap:round;stroke-linejoin:round;stroke-miterlimit:4;stroke-dasharray:none;stroke-opacity:1;enable-background:new" />
    <path
       style="display:inline;fill:#ffffff;fill-opacity:1;enable-background:new"
       d="M 106.5 507.69922 C 104.95304 507.69922 103.70117 508.953 103.70117 510.5 C 103.70117 510.67151 103.72233 510.8369 103.75195 511 C 103.98827 509.69268 105.12435 508.69922 106.5 508.69922 C 107.87565 508.69922 109.01368 509.69268 109.25 511 C 109.27963 510.8369 109.30078 510.67151 109.30078 510.5 C 109.30078 508.953 108.04696 507.69922 106.5 507.69922 z M 106.5 514.69922 C 105.06991 514.69922 102.54918 515.25076 101.44727 516.34766 A 6.2998229 6.3 0 0 0 101.95508 516.94336 C 103.19912 516.11675 105.25897 515.69922 106.5 515.69922 C 107.74221 515.69922 109.80717 516.11713 111.05078 516.94531 A 6.2998229 6.3 0 0 0 111.55469 516.34766 C 110.4529 515.25069 107.93011 514.69922 106.5 514.69922 z "
       id="path4933" />
    <path
       id="path4938"
       d="m 117.69873,505.19891 c -1.54696,0 -2.79883,1.25378 -2.79883,2.80078 0,0.17151 0.0212,0.3369 0.0508,0.5 0.23632,-1.30732 1.3724,-2.30078 2.74805,-2.30078 1.37565,0 2.51368,0.99346 2.75,2.30078 0.0296,-0.1631 0.0508,-0.32849 0.0508,-0.5 0,-1.547 -1.25382,-2.80078 -2.80078,-2.80078 z m 0,7 c -1.43009,0 -3.95082,0.55154 -5.05273,1.64844 a 6.2998229,6.3 0 0 0 0.50781,0.5957 c 1.24404,-0.82661 3.30389,-1.24414 4.54492,-1.24414 1.24221,0 3.30717,0.41791 4.55078,1.24609 a 6.2998229,6.3 0 0 0 0.50391,-0.59765 c -1.10179,-1.09697 -3.62458,-1.64844 -5.05469,-1.64844 z"
       style="display:inline;fill:#ffffff;fill-opacity:1;enable-background:new"
       inkscape:connector-curvature="0" />
    <path
       style="display:inline;fill:url(#linearGradient4435);fill-opacity:1;stroke:none;stroke-width:2;stroke-linecap:round;stroke-linejoin:round;stroke-miterlimit:4;stroke-dasharray:none;stroke-opacity:1;enable-background:new"
       d="m 111.99987,496.9998 a 14.999763,14.99998 0 0 0 -1.28906,0.064 14.999761,14.99998 0 0 0 -0.70694,0.086 14.999763,14.99998 0 0 0 -0.77955,0.1186 14.999761,14.99998 0 0 0 -0.69675,0.1567 14.999763,14.99998 0 0 0 -0.75153,0.191 14.999761,14.99998 0 0 0 -0.69293,0.2306 14.999763,14.99998 0 0 0 -0.72605,0.265 14.999761,14.99998 0 0 0 -0.6649,0.2981 14.999763,14.99998 0 0 0 -0.68784,0.3324 14.999761,14.99998 0 0 0 -0.64071,0.3668 14.999763,14.99998 0 0 0 -0.65089,0.3988 14.999761,14.99998 0 0 0 -0.5974,0.4279 14.999763,14.99998 0 0 0 -0.60887,0.4636 14.999761,14.99998 0 0 0 -0.53752,0.4713 14.999763,14.99998 0 0 0 -0.57702,0.5374 14.999761,14.99998 0 0 0 -4.39197,10.5916 14.999761,14.99998 0 0 0 4.2251,10.4348 h 0.0217 a 14.999763,14.99998 0 0 0 10.75317,4.5652 14.999763,14.99998 0 0 0 1.27377,-0.064 14.999761,14.99998 0 0 0 0.73753,-0.089 14.999763,14.99998 0 0 0 0.76425,-0.1159 14.999761,14.99998 0 0 0 0.69675,-0.1566 14.999763,14.99998 0 0 0 0.75152,-0.1912 14.999761,14.99998 0 0 0 0.69293,-0.2304 14.999763,14.99998 0 0 0 0.72606,-0.2651 14.999761,14.99998 0 0 0 0.66491,-0.298 14.999763,14.99998 0 0 0 0.68783,-0.3324 14.999761,14.99998 0 0 0 0.6407,-0.367 14.999763,14.99998 0 0 0 0.65091,-0.3986 14.999761,14.99998 0 0 0 0.59739,-0.428 14.999763,14.99998 0 0 0 0.60887,-0.4636 14.999761,14.99998 0 0 0 0.53753,-0.4713 14.999763,14.99998 0 0 0 0.57701,-0.5376 14.999761,14.99998 0 0 0 4.39192,-10.5909 14.999761,14.99998 0 0 0 -4.22637,-10.4348 h -0.0203 A 14.999763,14.99998 0 0 0 112,497 Z"
       id="path4433"
       inkscape:connector-curvature="0" />
    <path
       style="display:inline;fill:#ffffff;fill-opacity:1;enable-background:new"
       d="M 160.01953 498 C 157.80959 498 156.02148 499.79 156.02148 502 C 156.02148 502.17123 156.04937 502.33436 156.07031 502.5 C 156.31858 500.52883 157.98079 499 160.01953 499 C 162.05827 499 163.72244 500.52883 163.9707 502.5 C 163.99165 502.33436 164.01953 502.17123 164.01953 502 C 164.01953 499.79 162.22947 498 160.01953 498 z M 160.01953 508 C 157.97656 508 154.37495 508.78847 152.80078 510.35547 A 8.999747 9 0 0 0 153.29297 510.95508 C 155.0322 509.6588 158.16183 509 160.01953 509 C 161.87566 509 165.00409 509.65707 166.74414 510.95117 A 8.999747 9 0 0 0 167.24023 510.35547 C 165.66623 508.78837 162.06254 508 160.01953 508 z "
       id="path4944" />
    <path
       id="path4949"
       d="m 176.01953,494 c -2.20994,0 -3.99805,1.79 -3.99805,4 0,0.17123 0.0279,0.33436 0.0488,0.5 0.24827,-1.97117 1.91048,-3.5 3.94922,-3.5 2.03874,0 3.70291,1.52883 3.95117,3.5 0.0209,-0.16564 0.0488,-0.32877 0.0488,-0.5 0,-2.21 -1.79006,-4 -4,-4 z m 0,10 c -2.04297,0 -5.64458,0.78847 -7.21875,2.35547 a 8.999747,9 0 0 0 0.49219,0.59961 C 171.0322,505.6588 174.16183,505 176.01953,505 c 1.85613,0 4.98456,0.65707 6.72461,1.95117 a 8.999747,9 0 0 0 0.49609,-0.5957 C 181.66623,504.78837 178.06254,504 176.01953,504 Z"
       style="display:inline;fill:#ffffff;fill-opacity:1;enable-background:new"
       inkscape:connector-curvature="0" />
    <path
       style="display:inline;fill:url(#linearGradient4171-1-0);fill-opacity:1;stroke:none;stroke-width:2;stroke-linecap:round;stroke-linejoin:round;stroke-miterlimit:4;stroke-dasharray:none;stroke-opacity:1;enable-background:new"
       d="m 168.00001,482.0003 a 21.99977,21.999992 0 0 0 -1.89063,0.095 21.999769,21.999992 0 0 0 -1.03685,0.1252 21.99977,21.999992 0 0 0 -1.14334,0.1737 21.999769,21.999992 0 0 0 -1.02191,0.2298 21.99977,21.999992 0 0 0 -1.10224,0.2803 21.999769,21.999992 0 0 0 -1.01631,0.3381 21.99977,21.999992 0 0 0 -1.06488,0.3886 21.999769,21.999992 0 0 0 -0.9752,0.4372 21.99977,21.999992 0 0 0 -1.00883,0.4876 21.999769,21.999992 0 0 0 -0.93971,0.538 21.99977,21.999992 0 0 0 -0.95465,0.5848 21.999769,21.999992 0 0 0 -0.87619,0.6277 21.99977,21.999992 0 0 0 -0.89301,0.68 21.999769,21.999992 0 0 0 -0.78838,0.6912 21.99977,21.999992 0 0 0 -0.84629,0.7881 21.999769,21.999992 0 0 0 -6.44157,15.5345 21.999769,21.999992 0 0 0 6.19684,15.3043 h 0.0318 a 21.99977,21.999992 0 0 0 15.77139,6.6957 21.99977,21.999992 0 0 0 1.86821,-0.094 21.999769,21.999992 0 0 0 1.08169,-0.1308 21.99977,21.999992 0 0 0 1.12092,-0.17 21.999769,21.999992 0 0 0 1.02191,-0.2297 21.99977,21.999992 0 0 0 1.10224,-0.2803 21.999769,21.999992 0 0 0 1.01631,-0.3381 21.99977,21.999992 0 0 0 1.06488,-0.3887 21.999769,21.999992 0 0 0 0.9752,-0.4371 21.99977,21.999992 0 0 0 1.00884,-0.4876 21.999769,21.999992 0 0 0 0.9397,-0.5381 21.99977,21.999992 0 0 0 0.95465,-0.5847 21.999769,21.999992 0 0 0 0.87619,-0.6277 21.99977,21.999992 0 0 0 0.893,-0.68 21.999769,21.999992 0 0 0 0.78839,-0.6912 21.99977,21.999992 0 0 0 0.84629,-0.7885 21.999769,21.999992 0 0 0 6.44158,-15.5333 21.999769,21.999992 0 0 0 -6.19871,-15.3044 h -0.0299 a 21.99977,21.999992 0 0 0 -15.7714,-6.6956 z"
       id="circle4163-3-4"
       inkscape:connector-curvature="0" />
    <path
       style="display:inline;fill:#ffffff;fill-opacity:1;enable-background:new"
       d="M 251.20117 482 C 248.10725 482 245.60156 484.50561 245.60156 487.59961 C 245.60156 487.76818 245.61037 487.93478 245.625 488.09961 C 245.87832 485.24067 248.2762 483 251.20117 483 C 254.12614 483 256.52206 485.24068 256.77539 488.09961 C 256.79002 487.93478 256.80078 487.76818 256.80078 487.59961 C 256.80078 484.50561 254.29509 482 251.20117 482 z M 251.20117 496 C 248.34101 496 243.29564 497.10308 241.0918 499.29688 A 12.599646 12.6 0 0 0 241.56836 499.87695 C 243.95714 497.96367 248.53058 497 251.20117 497 C 253.87227 497 258.44572 497.96293 260.83398 499.87695 A 12.599646 12.6 0 0 0 261.30859 499.29688 C 259.10499 497.10294 254.06139 496 251.20117 496 z "
       id="path4959" />
    <path
       id="path4964"
       d="m 228.80137,487.60005 c -3.09392,0 -5.59961,2.50561 -5.59961,5.59961 0,0.16857 0.009,0.33517 0.0234,0.5 0.25332,-2.85894 2.6512,-5.09961 5.57617,-5.09961 2.92497,0 5.32089,2.24068 5.57422,5.09961 0.0146,-0.16483 0.0254,-0.33143 0.0254,-0.5 0,-3.094 -2.50569,-5.59961 -5.59961,-5.59961 z m 0,14 c -2.86016,0 -7.90553,1.10308 -10.10937,3.29688 a 12.599646,12.6 0 0 0 0.47656,0.58007 c 2.38878,-1.91328 6.96222,-2.87695 9.63281,-2.87695 2.6711,0 7.24455,0.96293 9.63281,2.87695 a 12.599646,12.6 0 0 0 0.47461,-0.58007 c -2.2036,-2.19394 -7.2472,-3.29688 -10.10742,-3.29688 z"
       style="display:inline;fill:#ffffff;fill-opacity:1;enable-background:new"
       inkscape:connector-curvature="0" />
    <path
       style="display:inline;fill:url(#linearGradient4537);fill-opacity:1;stroke:none;stroke-width:2;stroke-linecap:round;stroke-linejoin:round;stroke-miterlimit:4;stroke-dasharray:none;stroke-opacity:1;enable-background:new"
       d="m 239.99984,466.00032 a 29.999537,29.999957 0 0 0 -2.57812,0.128 29.999532,29.999957 0 0 0 -1.41388,0.172 29.999537,29.999957 0 0 0 -1.5591,0.2372 29.999532,29.999957 0 0 0 -1.3935,0.3134 29.999537,29.999957 0 0 0 -1.50305,0.382 29.999532,29.999957 0 0 0 -1.38586,0.4612 29.999537,29.999957 0 0 0 -1.45211,0.53 29.999532,29.999957 0 0 0 -1.32979,0.5962 29.999537,29.999957 0 0 0 -1.37569,0.6648 29.999532,29.999957 0 0 0 -1.28141,0.7336 29.999537,29.999957 0 0 0 -1.30178,0.7976 29.999532,29.999957 0 0 0 -1.1948,0.8558 29.999537,29.999957 0 0 0 -1.21776,0.9272 29.999532,29.999957 0 0 0 -1.07503,0.9426 29.999537,29.999957 0 0 0 -1.15404,1.0748 29.999532,29.999957 0 0 0 -8.78392,21.1832 29.999532,29.999957 0 0 0 8.45018,20.8696 h 0.0434 a 29.999537,29.999957 0 0 0 21.50634,9.1304 29.999537,29.999957 0 0 0 2.54755,-0.128 29.999532,29.999957 0 0 0 1.47506,-0.178 29.999537,29.999957 0 0 0 1.5285,-0.2318 29.999532,29.999957 0 0 0 1.3935,-0.3132 29.999537,29.999957 0 0 0 1.50304,-0.3824 29.999532,29.999957 0 0 0 1.38586,-0.4608 29.999537,29.999957 0 0 0 1.45212,-0.5302 29.999532,29.999957 0 0 0 1.32982,-0.596 29.999537,29.999957 0 0 0 1.37566,-0.6648 29.999532,29.999957 0 0 0 1.2814,-0.734 29.999537,29.999957 0 0 0 1.30182,-0.7972 29.999532,29.999957 0 0 0 1.19478,-0.856 29.999537,29.999957 0 0 0 1.21774,-0.9272 29.999532,29.999957 0 0 0 1.07506,-0.9426 29.999537,29.999957 0 0 0 1.15402,-1.0752 29.999532,29.999957 0 0 0 8.78395,-21.1818 29.999532,29.999957 0 0 0 -8.45275,-20.8696 h -0.0406 a 29.999537,29.999957 0 0 0 -21.50635,-9.1304 z"
       id="path4535"
       inkscape:connector-curvature="0" />
    <path
       inkscape:connector-curvature="0"
       id="path5005"
       d="m 454.4056,206.8 c -24.75136,0 -44.79872,20.048 -44.79872,44.8 0,24.696 20.04736,44.8 44.79872,44.8 24.75136,0 44.79872,-20.104 44.79872,-44.8 0,-24.752 -20.04736,-44.8 -44.79872,-44.8 z m 0,112 c -22.88128,0 -63.23888,8.82 -80.8696,26.3704 A 100.79717,100.8 0 0 0 454.4056,386 100.79717,100.8 0 0 0 535.2752,345.1704 C 517.6464,327.61888 477.28736,318.8 454.4056,318.8 Z"
       style="display:inline;fill:#000000;fill-opacity:0.2;stroke-width:8;enable-background:new" />
    <path
       style="display:inline;fill:#000000;fill-opacity:0.2;stroke-width:8;enable-background:new;filter:url(#filter5021)"
       d="m 454.4056,206.8 c -24.75136,0 -44.79872,20.048 -44.79872,44.8 0,24.696 20.04736,44.8 44.79872,44.8 24.75136,0 44.79872,-20.104 44.79872,-44.8 0,-24.752 -20.04736,-44.8 -44.79872,-44.8 z m 0,112 c -22.88128,0 -63.23888,8.82 -80.8696,26.3704 A 100.79717,100.8 0 0 0 454.4056,386 100.79717,100.8 0 0 0 535.2752,345.1704 C 517.6464,327.61888 477.28736,318.8 454.4056,318.8 Z"
       id="path5009"
       inkscape:connector-curvature="0" />
    <path
       style="display:inline;fill:#f5f5f5;fill-opacity:1;stroke-width:8;enable-background:new"
       d="m 454.4056,204.80045 c -24.75136,0 -44.79872,20.048 -44.79872,44.8 0,24.696 20.04736,44.8 44.79872,44.8 24.75136,0 44.79872,-20.104 44.79872,-44.8 0,-24.752 -20.04736,-44.8 -44.79872,-44.8 z m 0,112 c -22.88128,0 -63.23888,8.82 -80.8696,26.3704 a 100.79717,100.8 0 0 0 80.8696,40.8296 100.79717,100.8 0 0 0 80.8696,-40.8296 c -17.6288,-17.55152 -57.98784,-26.3704 -80.8696,-26.3704 z"
       id="path4988"
       inkscape:connector-curvature="0" />
    <path
       inkscape:connector-curvature="0"
       id="path5011"
       d="m 633.6056,162 c -24.75136,0 -44.79872,20.048 -44.79872,44.8 0,24.696 20.04736,44.8 44.79872,44.8 24.75136,0 44.79872,-20.104 44.79872,-44.8 0,-24.752 -20.04736,-44.8 -44.79872,-44.8 z m 0,112 c -22.88128,0 -63.23888,8.82 -80.8696,26.3704 A 100.79717,100.8 0 0 0 633.6056,341.2 100.79717,100.8 0 0 0 714.4752,300.3704 C 696.8464,282.81888 656.48736,274 633.6056,274 Z"
       style="display:inline;fill:#000000;fill-opacity:0.2;stroke-width:8;enable-background:new;filter:url(#filter5025)" />
    <path
       style="display:inline;fill:#000000;fill-opacity:0.2;stroke-width:8;enable-background:new"
       d="m 633.6056,162 c -24.75136,0 -44.79872,20.048 -44.79872,44.8 0,24.696 20.04736,44.8 44.79872,44.8 24.75136,0 44.79872,-20.104 44.79872,-44.8 0,-24.752 -20.04736,-44.8 -44.79872,-44.8 z m 0,112 c -22.88128,0 -63.23888,8.82 -80.8696,26.3704 A 100.79717,100.8 0 0 0 633.6056,341.2 100.79717,100.8 0 0 0 714.4752,300.3704 C 696.8464,282.81888 656.48736,274 633.6056,274 Z"
       id="path5007"
       inkscape:connector-curvature="0" />
    <path
       inkscape:connector-curvature="0"
       id="path4992"
       d="m 633.6056,160.00045 c -24.75136,0 -44.79872,20.048 -44.79872,44.8 0,24.696 20.04736,44.8 44.79872,44.8 24.75136,0 44.79872,-20.104 44.79872,-44.8 0,-24.752 -20.04736,-44.8 -44.79872,-44.8 z m 0,112 c -22.88128,0 -63.23888,8.82 -80.8696,26.3704 a 100.79717,100.8 0 0 0 80.8696,40.8296 100.79717,100.8 0 0 0 80.8696,-40.8296 c -17.6288,-17.55152 -57.98784,-26.3704 -80.8696,-26.3704 z"
       style="display:inline;fill:#f5f5f5;fill-opacity:1;stroke-width:8;enable-background:new" />
    <path
       style="display:inline;fill:#fafafa;fill-opacity:1;stroke-width:8;enable-background:new"
       d="M 633.60547 160 C 608.85411 160 588.80664 180.04878 588.80664 204.80078 C 588.80664 205.13556 588.8247 205.46578 588.83203 205.79883 C 589.36611 181.51158 609.19009 162 633.60547 162 C 658.02085 162 677.84483 181.51158 678.37891 205.79883 C 678.38624 205.46578 678.4043 205.13556 678.4043 204.80078 C 678.4043 180.04878 658.35683 160 633.60547 160 z M 633.60547 272 C 610.72419 272 570.36705 280.82069 552.73633 298.37109 A 100.79717 100.8 0 0 0 553.66211 299.49805 C 571.73705 282.53201 611.10931 274 633.60547 274 C 656.11694 274 695.52901 282.54184 713.58594 299.53125 A 100.79717 100.8 0 0 0 714.47461 298.37109 C 696.84581 280.81957 656.48723 272 633.60547 272 z "
       id="path4998" />
    <path
       id="path5003"
       d="m 454.40514,204.79975 c -24.75136,0 -44.79883,20.04878 -44.79883,44.80078 0,0.33478 0.0181,0.665 0.0254,0.99805 0.53407,-24.28725 20.35805,-43.79883 44.77343,-43.79883 24.41538,0 44.23936,19.51158 44.77344,43.79883 0.007,-0.33305 0.0254,-0.66327 0.0254,-0.99805 -10e-6,-24.752 -20.04748,-44.80078 -44.79884,-44.80078 z m 0,112 c -22.88128,0 -63.23842,8.82069 -80.86914,26.37109 a 100.79717,100.8 0 0 0 0.92578,1.12696 c 18.07494,-16.96604 57.4472,-25.49805 79.94336,-25.49805 22.51147,0 61.92354,8.54184 79.98047,25.53125 a 100.79717,100.8 0 0 0 0.88867,-1.16016 c -17.6288,-17.55152 -57.98738,-26.37109 -80.86914,-26.37109 z"
       style="display:inline;fill:#fafafa;fill-opacity:1;stroke-width:8;enable-background:new"
       inkscape:connector-curvature="0" />
    <path
       inkscape:connector-curvature="0"
       id="path4447"
       d="m 543.99874,32.00258 a 239.9963,239.99966 0 0 0 -20.62496,1.024 239.99626,239.99966 0 0 0 -11.31104,1.376 239.9963,239.99966 0 0 0 -12.4728,1.8976 239.99626,239.99966 0 0 0 -11.148,2.5072 239.9963,239.99966 0 0 0 -12.0244,3.056 239.99626,239.99966 0 0 0 -11.08688,3.6896 239.9963,239.99966 0 0 0 -11.61688,4.24 239.99626,239.99966 0 0 0 -10.63832,4.7696 239.9963,239.99966 0 0 0 -11.00552,5.3184 239.99626,239.99966 0 0 0 -10.25128,5.8688 239.9963,239.99966 0 0 0 -10.41425,6.3808 239.99626,239.99966 0 0 0 -9.5584,6.8464 239.9963,239.99966 0 0 0 -9.74208,7.4176 239.99626,239.99966 0 0 0 -8.60024,7.5408 239.9963,239.99966 0 0 0 -9.23232,8.5984 239.99626,239.99966 0 0 0 -70.27136,169.4656 239.99626,239.99966 0 0 0 67.60144,166.9568 h 0.3472 a 239.9963,239.99966 0 0 0 172.05073,73.0432 239.9963,239.99966 0 0 0 20.3804,-1.024 239.99626,239.99966 0 0 0 11.80048,-1.424 239.9963,239.99966 0 0 0 12.228,-1.8544 239.99626,239.99966 0 0 0 11.148,-2.5056 239.9963,239.99966 0 0 0 12.02432,-3.0592 239.99626,239.99966 0 0 0 11.08687,-3.6864 239.9963,239.99966 0 0 0 11.61696,-4.2416 239.99626,239.99966 0 0 0 10.63856,-4.768 239.9963,239.99966 0 0 0 11.00528,-5.3184 239.99626,239.99966 0 0 0 10.25121,-5.872 239.9963,239.99966 0 0 0 10.41456,-6.3776 239.99626,239.99966 0 0 0 9.55824,-6.848 239.9963,239.99966 0 0 0 9.74192,-7.4176 239.99626,239.99966 0 0 0 8.60048,-7.5408 239.9963,239.99966 0 0 0 9.23216,-8.6016 239.99626,239.99966 0 0 0 70.2716,-169.4544 239.99626,239.99966 0 0 0 -67.622,-166.9568 h -0.3248 a 239.9963,239.99966 0 0 0 -172.0508,-73.0432 z"
       style="display:inline;fill:url(#linearGradient4449-0);fill-opacity:1;stroke:none;stroke-width:16;stroke-linecap:round;stroke-linejoin:round;stroke-miterlimit:4;stroke-dasharray:none;stroke-opacity:1;enable-background:new" />
  </g>
</svg>
