<?xml version="1.0" encoding="UTF-8" standalone="no"?>
<!-- Created with Inkscape (http://www.inkscape.org/) -->

<svg
   xmlns:dc="http://purl.org/dc/elements/1.1/"
   xmlns:cc="http://creativecommons.org/ns#"
   xmlns:rdf="http://www.w3.org/1999/02/22-rdf-syntax-ns#"
   xmlns:svg="http://www.w3.org/2000/svg"
   xmlns="http://www.w3.org/2000/svg"
   xmlns:xlink="http://www.w3.org/1999/xlink"
   xmlns:sodipodi="http://sodipodi.sourceforge.net/DTD/sodipodi-0.dtd"
   xmlns:inkscape="http://www.inkscape.org/namespaces/inkscape"
   width="816"
   height="544"
   viewBox="0 0 816 544"
   version="1.1"
   id="svg1087"
   inkscape:version="0.92.1 r"
   sodipodi:docname="transmission.svg">
  <defs
     id="defs1081">
    <linearGradient
       id="linearGradient4730"
       inkscape:collect="always">
      <stop
         id="stop4726"
         offset="0"
         style="stop-color:#ffffff;stop-opacity:0.05490196" />
      <stop
         id="stop4728"
         offset="1"
         style="stop-color:#177ed5;stop-opacity:0;" />
    </linearGradient>
    <linearGradient
       id="linearGradient4724"
       inkscape:collect="always">
      <stop
         id="stop4720"
         offset="0"
         style="stop-color:#ffffff;stop-opacity:0.05490196" />
      <stop
         id="stop4722"
         offset="1"
         style="stop-color:#177ed5;stop-opacity:0;" />
    </linearGradient>
    <filter
       inkscape:collect="always"
       style="color-interpolation-filters:sRGB"
       id="filter5087"
       x="-0.048"
       width="1.096"
       y="-0.048"
       height="1.096">
      <feGaussianBlur
         inkscape:collect="always"
         stdDeviation="0.8"
         id="feGaussianBlur5089" />
    </filter>
    <linearGradient
       inkscape:collect="always"
       id="linearGradient4165">
      <stop
         style="stop-color:#ffffff;stop-opacity:0.05490196"
         offset="0"
         id="stop4167" />
      <stop
         style="stop-color:#177ed5;stop-opacity:0;"
         offset="1"
         id="stop4169" />
    </linearGradient>
    <linearGradient
       inkscape:collect="always"
       xlink:href="#linearGradient4724"
       id="linearGradient4435"
       gradientUnits="userSpaceOnUse"
       gradientTransform="matrix(0.65217041,0,0,0.65217328,96.34777,-158.67056)"
       x1="7"
       y1="1011.3622"
       x2="41.000019"
       y2="1045.3622" />
    <linearGradient
       inkscape:collect="always"
       xlink:href="#linearGradient4165"
       id="linearGradient4171-1-0"
       x1="7"
       y1="1011.3622"
       x2="41.000019"
       y2="1045.3622"
       gradientUnits="userSpaceOnUse"
       gradientTransform="matrix(0.95652174,0,0,0.95652174,145.0435,-479.6504)" />
    <linearGradient
       inkscape:collect="always"
       xlink:href="#linearGradient4165-3"
       id="linearGradient4449-0"
       gradientUnits="userSpaceOnUse"
       gradientTransform="matrix(10.43473,0,0,10.434772,293.56521,-10458.722)"
       x1="7"
       y1="1011.3622"
       x2="41.000019"
       y2="1045.3622" />
    <linearGradient
       inkscape:collect="always"
       id="linearGradient4165-3">
      <stop
         style="stop-color:#ffffff;stop-opacity:0.05490196"
         offset="0"
         id="stop4167-6" />
      <stop
         style="stop-color:#177ed5;stop-opacity:0;"
         offset="1"
         id="stop4169-7" />
    </linearGradient>
    <linearGradient
       inkscape:collect="always"
       xlink:href="#linearGradient4165-3"
       id="linearGradient4537"
       gradientUnits="userSpaceOnUse"
       gradientTransform="matrix(1.3043412,0,0,1.3043465,208.69565,-845.3402)"
       x1="7"
       y1="1011.3622"
       x2="41.000019"
       y2="1045.3622" />
    <filter
       inkscape:collect="always"
       style="color-interpolation-filters:sRGB"
       id="filter4542"
       x="-0.011999969"
       width="1.0239999"
       y="-0.012000031"
       height="1.0240001">
      <feGaussianBlur
         inkscape:collect="always"
         stdDeviation="0.21999957"
         id="feGaussianBlur4544" />
    </filter>
    <filter
       inkscape:collect="always"
       style="color-interpolation-filters:sRGB"
       id="filter4606"
       x="-0.02399996"
       width="1.0479999"
       y="-0.02400004"
       height="1.0480001">
      <feGaussianBlur
         inkscape:collect="always"
         stdDeviation="4.799976"
         id="feGaussianBlur4608" />
    </filter>
    <linearGradient
       inkscape:collect="always"
       xlink:href="#linearGradient4730"
       id="linearGradient4620"
       gradientUnits="userSpaceOnUse"
       gradientTransform="matrix(0.4782599,0,0,0.47826359,52.521741,24.17187)"
       x1="7"
       y1="1011.3622"
       x2="41.000019"
       y2="1045.3622" />
    <filter
       inkscape:collect="always"
       style="color-interpolation-filters:sRGB"
       id="filter4541"
       x="-0.01199998"
       width="1.024"
       y="-0.01200002"
       height="1.024">
      <feGaussianBlur
         inkscape:collect="always"
         stdDeviation="0.2999985"
         id="feGaussianBlur4543" />
    </filter>
    <filter
       inkscape:collect="always"
       style="color-interpolation-filters:sRGB"
       id="filter1334"
       x="-0.015789474"
       width="1.0315789"
       y="-0.05"
       height="1.1">
      <feGaussianBlur
         inkscape:collect="always"
         stdDeviation="2"
         id="feGaussianBlur1336" />
    </filter>
  </defs>
  <sodipodi:namedview
     id="base"
     pagecolor="#c3c3c3"
     bordercolor="#333333"
     borderopacity="1"
     inkscape:pageopacity="0"
     inkscape:pageshadow="2"
     inkscape:zoom="1.4142136"
     inkscape:cx="333.37623"
     inkscape:cy="156.12367"
     inkscape:document-units="px"
     inkscape:current-layer="layer1"
     showgrid="true"
     units="px"
     inkscape:showpageshadow="false"
     inkscape:window-width="1280"
     inkscape:window-height="1370"
     inkscape:window-x="0"
     inkscape:window-y="34"
     inkscape:window-maximized="0">
    <inkscape:grid
       type="xygrid"
       id="grid4630" />
  </sodipodi:namedview>
  <metadata
     id="metadata1084">
    <rdf:RDF>
      <cc:Work
         rdf:about="">
        <dc:format>image/svg+xml</dc:format>
        <dc:type
           rdf:resource="http://purl.org/dc/dcmitype/StillImage" />
        <dc:title></dc:title>
        <cc:license
           rdf:resource="http://creativecommons.org/licenses/by-sa/4.0/" />
        <dc:creator>
          <cc:Agent>
            <dc:title>Peter Cornelis</dc:title>
          </cc:Agent>
        </dc:creator>
      </cc:Work>
      <cc:License
         rdf:about="http://creativecommons.org/licenses/by-sa/4.0/">
        <cc:permits
           rdf:resource="http://creativecommons.org/ns#Reproduction" />
        <cc:permits
           rdf:resource="http://creativecommons.org/ns#Distribution" />
        <cc:requires
           rdf:resource="http://creativecommons.org/ns#Notice" />
        <cc:requires
           rdf:resource="http://creativecommons.org/ns#Attribution" />
        <cc:permits
           rdf:resource="http://creativecommons.org/ns#DerivativeWorks" />
        <cc:requires
           rdf:resource="http://creativecommons.org/ns#ShareAlike" />
      </cc:License>
    </rdf:RDF>
  </metadata>
  <g
     inkscape:label="Baseplate"
     inkscape:groupmode="layer"
     id="layer1"
     transform="translate(0,-153.06668)"
     style="display:none">
    <rect
       style="display:inline;overflow:visible;visibility:visible;fill:#fefefe;fill-opacity:1;fill-rule:nonzero;stroke:none;stroke-width:2;marker:none;enable-background:accumulate"
       id="rect3951"
       width="512"
       height="512"
       x="-800"
       y="169.06668"
       inkscape:label="48x48"
       transform="scale(-1,1)" />
    <text
       y="733.32251"
       xml:space="preserve"
       x="15.006836"
       style="font-style:normal;font-variant:normal;font-weight:normal;font-stretch:normal;line-height:0%;font-family:'DejaVu Sans';-inkscape-font-specification:'DejaVu Sans';display:inline;fill:#000000;fill-opacity:1;stroke:none;enable-background:new"
       inkscape:label="context"
       id="context"><tspan
         style="font-style:normal;font-variant:normal;font-weight:normal;font-stretch:normal;font-size:18px;line-height:1.25;font-family:'DejaVu Sans';-inkscape-font-specification:'DejaVu Sans'"
         y="733.32251"
         x="15.006836"
         sodipodi:role="line"
         id="tspan3933">apps</tspan></text>
    <text
       y="733.32251"
       xml:space="preserve"
       x="142.48828"
       style="font-style:normal;font-variant:normal;font-weight:bold;font-stretch:normal;line-height:0%;font-family:'DejaVu Sans';-inkscape-font-specification:'DejaVu Sans Bold';text-align:start;writing-mode:lr-tb;text-anchor:start;display:inline;fill:#000000;fill-opacity:1;stroke:none;enable-background:new"
       inkscape:label="icon-name"
       id="icon-name"><tspan
         style="font-style:normal;font-variant:normal;font-weight:bold;font-stretch:normal;font-size:18px;line-height:1.25;font-family:'DejaVu Sans';-inkscape-font-specification:'DejaVu Sans Bold'"
         y="733.32251"
         x="142.48828"
         sodipodi:role="line"
         id="tspan3937">transmission</tspan></text>
    <rect
       style="display:inline;overflow:visible;visibility:visible;fill:#fefefe;fill-opacity:1;fill-rule:nonzero;stroke:none;stroke-width:2;marker:none;enable-background:accumulate"
       id="rect16x16"
       width="16"
       height="16"
       x="-32"
       y="665.06665"
       inkscape:label="16x16"
       transform="scale(-1,1)" />
    <rect
       style="display:inline;overflow:visible;visibility:visible;fill:#fefefe;fill-opacity:1;fill-rule:nonzero;stroke:none;stroke-width:2;marker:none;enable-background:accumulate"
       id="rect24x24"
       width="24"
       height="24"
       x="-76"
       y="657.06665"
       inkscape:label="24x24"
       transform="scale(-1,1)" />
    <rect
       style="display:inline;overflow:visible;visibility:visible;fill:#fefefe;fill-opacity:1;fill-rule:nonzero;stroke:none;stroke-width:2;marker:none;enable-background:accumulate"
       id="rect32x32"
       width="32"
       height="32"
       x="-128"
       y="649.06665"
       inkscape:label="32x32"
       transform="scale(-1,1)" />
    <rect
       inkscape:label="48x48"
       y="633.06665"
       x="-192"
       height="48"
       width="48"
       id="rect48x48"
       style="display:inline;overflow:visible;visibility:visible;fill:#fefefe;fill-opacity:1;fill-rule:nonzero;stroke:none;stroke-width:2;marker:none;enable-background:accumulate"
       transform="scale(-1,1)" />
    <rect
       transform="scale(-1,1)"
       inkscape:label="48x48"
       y="617.06665"
       x="-272"
       height="64"
       width="64"
       id="rect4524"
       style="display:inline;overflow:visible;visibility:visible;fill:#fefefe;fill-opacity:1;fill-rule:nonzero;stroke:none;stroke-width:0.25;marker:none;enable-background:accumulate" />
  </g>
  <g
     inkscape:groupmode="layer"
     id="layer2"
     inkscape:label="Bitmap"
     style="display:inline">
    <path
       sodipodi:nodetypes="sscsscsscsscs"
       inkscape:connector-curvature="0"
       id="path5069"
       d="m 143,485 c -1.66505,0 -3,1.2912 -3,3 v 17 17 c 0,1.8617 1.34224,3 3,3 h 17 17 c 1.73784,0 3,-1.2767 3,-3 v -17 -17 c 0,-1.6942 -1.29127,-3 -3,-3 h -17 z"
       style="display:inline;fill:none;fill-opacity:0.5;stroke:none;stroke-width:2;stroke-linecap:round;stroke-linejoin:round;stroke-miterlimit:4;stroke-dasharray:none;stroke-opacity:1;filter:url(#filter5087);enable-background:new" />
    <path
       style="display:inline;fill:none;fill-opacity:0.5;stroke:none;stroke-width:2;stroke-linecap:round;stroke-linejoin:round;stroke-miterlimit:4;stroke-dasharray:none;stroke-opacity:1;filter:url(#filter5087);enable-background:new"
       d="m 143,485 c -1.66505,0 -3,1.2912 -3,3 v 17 17 c 0,1.8617 1.34224,3 3,3 h 17 17 c 1.73784,0 3,-1.2767 3,-3 v -17 -17 c 0,-1.6942 -1.29127,-3 -3,-3 h -17 z"
       id="path4506"
       inkscape:connector-curvature="0"
       sodipodi:nodetypes="sscsscsscsscs" />
    <circle
       r="8"
       cy="520"
       cx="24"
       id="circle4526"
       style="display:inline;opacity:1;fill:#e2e5e7;fill-opacity:1;stroke:none;stroke-width:2;stroke-miterlimit:4;stroke-dasharray:none;stroke-opacity:1;enable-background:new" />
    <path
       style="display:inline;fill:#000000;fill-opacity:0.2;stroke:none;stroke-width:2;stroke-linecap:round;stroke-linejoin:round;stroke-miterlimit:4;stroke-dasharray:none;stroke-opacity:1;enable-background:new"
       d="m 63.99994,506.0001 a 10.999828,10.999992 0 0 0 -0.94531,0.047 10.999827,10.999992 0 0 0 -0.51842,0.063 10.999828,10.999992 0 0 0 -0.57167,0.087 10.999827,10.999992 0 0 0 -0.51095,0.1149 10.999828,10.999992 0 0 0 -0.55112,0.1401 10.999827,10.999992 0 0 0 -0.50815,0.1691 10.999828,10.999992 0 0 0 -0.53244,0.1943 10.999827,10.999992 0 0 0 -0.48759,0.2186 10.999828,10.999992 0 0 0 -0.50442,0.2438 10.999827,10.999992 0 0 0 -0.46985,0.269 10.999828,10.999992 0 0 0 -0.47732,0.2924 10.999827,10.999992 0 0 0 -0.43809,0.3138 10.999828,10.999992 0 0 0 -0.44651,0.34 10.999827,10.999992 0 0 0 -0.39418,0.3456 10.999828,10.999992 0 0 0 -0.42315,0.3941 A 10.999827,10.999992 0 0 0 53,517 a 10.999827,10.999992 0 0 0 3.0984,7.6522 h 0.0159 a 10.999828,10.999992 0 0 0 7.88566,3.3478 10.999828,10.999992 0 0 0 0.9341,-0.047 10.999827,10.999992 0 0 0 0.54085,-0.065 10.999828,10.999992 0 0 0 0.56045,-0.085 10.999827,10.999992 0 0 0 0.51095,-0.1148 10.999828,10.999992 0 0 0 0.55112,-0.1402 10.999827,10.999992 0 0 0 0.50815,-0.169 10.999828,10.999992 0 0 0 0.53244,-0.1944 10.999827,10.999992 0 0 0 0.4876,-0.2185 10.999828,10.999992 0 0 0 0.50441,-0.2438 10.999827,10.999992 0 0 0 0.46985,-0.2691 10.999828,10.999992 0 0 0 0.47733,-0.2923 10.999827,10.999992 0 0 0 0.43809,-0.3139 10.999828,10.999992 0 0 0 0.4465,-0.34 10.999827,10.999992 0 0 0 0.39419,-0.3456 10.999828,10.999992 0 0 0 0.42314,-0.3942 10.999827,10.999992 0 0 0 3.22078,-7.7667 10.999827,10.999992 0 0 0 -3.09934,-7.6522 h -0.0149 a 10.999828,10.999992 0 0 0 -7.88566,-3.3478 z"
       id="path4530"
       inkscape:connector-curvature="0" />
    <circle
       style="display:inline;opacity:1;fill:#e2e5e7;fill-opacity:1;stroke:none;stroke-width:2;stroke-miterlimit:4;stroke-dasharray:none;stroke-opacity:1;enable-background:new"
       id="path4524"
       cx="64"
       cy="516"
       r="11" />
    <path
       inkscape:connector-curvature="0"
       id="path4534"
       d="m 168.00001,483.0002 a 21.99977,21.999992 0 0 0 -1.89063,0.095 21.999769,21.999992 0 0 0 -1.03685,0.1252 21.99977,21.999992 0 0 0 -1.14334,0.1737 21.999769,21.999992 0 0 0 -1.02191,0.2298 21.99977,21.999992 0 0 0 -1.10224,0.2803 21.999769,21.999992 0 0 0 -1.01631,0.3381 21.99977,21.999992 0 0 0 -1.06488,0.3886 21.999769,21.999992 0 0 0 -0.9752,0.4372 21.99977,21.999992 0 0 0 -1.00883,0.4876 21.999769,21.999992 0 0 0 -0.93971,0.538 21.99977,21.999992 0 0 0 -0.95465,0.5848 21.999769,21.999992 0 0 0 -0.87619,0.6277 21.99977,21.999992 0 0 0 -0.89301,0.68 21.999769,21.999992 0 0 0 -0.78838,0.6912 21.99977,21.999992 0 0 0 -0.84629,0.7881 21.999769,21.999992 0 0 0 -6.44157,15.5345 21.999769,21.999992 0 0 0 6.19684,15.3043 h 0.0318 a 21.99977,21.999992 0 0 0 15.77139,6.6957 21.99977,21.999992 0 0 0 1.86821,-0.094 21.999769,21.999992 0 0 0 1.08169,-0.1308 21.99977,21.999992 0 0 0 1.12092,-0.17 21.999769,21.999992 0 0 0 1.02191,-0.2297 21.99977,21.999992 0 0 0 1.10224,-0.2803 21.999769,21.999992 0 0 0 1.01631,-0.3381 21.99977,21.999992 0 0 0 1.06488,-0.3887 21.999769,21.999992 0 0 0 0.9752,-0.4371 21.99977,21.999992 0 0 0 1.00883,-0.4876 21.999769,21.999992 0 0 0 0.93971,-0.5381 21.99977,21.999992 0 0 0 0.95465,-0.5847 21.999769,21.999992 0 0 0 0.87619,-0.6277 21.99977,21.999992 0 0 0 0.893,-0.68 21.999769,21.999992 0 0 0 0.78839,-0.6912 21.99977,21.999992 0 0 0 0.84629,-0.7885 21.999769,21.999992 0 0 0 6.44158,-15.5333 21.999769,21.999992 0 0 0 -6.19871,-15.3044 h -0.0299 a 21.99977,21.999992 0 0 0 -15.7714,-6.6956 z"
       style="display:inline;fill:#000000;fill-opacity:0.2;stroke:none;stroke-width:2;stroke-linecap:round;stroke-linejoin:round;stroke-miterlimit:4;stroke-dasharray:none;stroke-opacity:1;enable-background:new;filter:url(#filter4542)" />
    <circle
       style="display:inline;opacity:1;fill:#e2e5e7;fill-opacity:1;stroke:none;stroke-width:2;stroke-miterlimit:4;stroke-dasharray:none;stroke-opacity:1;enable-background:new"
       id="path4520"
       cx="168"
       cy="504"
       r="22" />
    <path
       style="display:inline;fill:#000000;fill-opacity:0.2;stroke:none;stroke-width:16;stroke-linecap:round;stroke-linejoin:round;stroke-miterlimit:4;stroke-dasharray:none;stroke-opacity:1;enable-background:new"
       d="m 543.99874,34.0032 a 239.9963,239.99966 0 0 0 -20.62496,1.024 239.99626,239.99966 0 0 0 -11.31104,1.376 239.9963,239.99966 0 0 0 -12.4728,1.8976 239.99626,239.99966 0 0 0 -11.148,2.5072 239.9963,239.99966 0 0 0 -12.0244,3.056 239.99626,239.99966 0 0 0 -11.08688,3.6896 239.9963,239.99966 0 0 0 -11.61688,4.24 239.99626,239.99966 0 0 0 -10.63832,4.7696 239.9963,239.99966 0 0 0 -11.00552,5.3184 239.99626,239.99966 0 0 0 -10.25128,5.8688 239.9963,239.99966 0 0 0 -10.41425,6.3808 239.99626,239.99966 0 0 0 -9.5584,6.8464 239.9963,239.99966 0 0 0 -9.74208,7.4176 239.99626,239.99966 0 0 0 -8.60024,7.5408 239.9963,239.99966 0 0 0 -9.23232,8.5984 A 239.99626,239.99966 0 0 0 304.00001,274 239.99626,239.99966 0 0 0 371.60145,440.9568 h 0.3472 A 239.9963,239.99966 0 0 0 543.99938,514 a 239.9963,239.99966 0 0 0 20.3804,-1.024 239.99626,239.99966 0 0 0 11.80048,-1.424 239.9963,239.99966 0 0 0 12.228,-1.8544 239.99626,239.99966 0 0 0 11.148,-2.5056 239.9963,239.99966 0 0 0 12.02432,-3.0592 239.99626,239.99966 0 0 0 11.08687,-3.6864 239.9963,239.99966 0 0 0 11.61696,-4.2416 239.99626,239.99966 0 0 0 10.63856,-4.768 239.9963,239.99966 0 0 0 11.00528,-5.3184 239.99626,239.99966 0 0 0 10.25121,-5.872 239.9963,239.99966 0 0 0 10.41456,-6.3776 239.99626,239.99966 0 0 0 9.55824,-6.848 239.9963,239.99966 0 0 0 9.74192,-7.4176 239.99626,239.99966 0 0 0 8.60048,-7.5408 239.9963,239.99966 0 0 0 9.23216,-8.6016 239.99626,239.99966 0 0 0 70.2716,-169.4544 239.99626,239.99966 0 0 0 -67.622,-166.9568 h -0.3248 A 239.9963,239.99966 0 0 0 544.00082,34.0064 Z"
       id="path4550"
       inkscape:connector-curvature="0" />
    <path
       inkscape:connector-curvature="0"
       id="path4554"
       d="m 543.99874,34.0032 a 239.9963,239.99966 0 0 0 -20.62496,1.024 239.99626,239.99966 0 0 0 -11.31104,1.376 239.9963,239.99966 0 0 0 -12.4728,1.8976 239.99626,239.99966 0 0 0 -11.148,2.5072 239.9963,239.99966 0 0 0 -12.0244,3.056 239.99626,239.99966 0 0 0 -11.08688,3.6896 239.9963,239.99966 0 0 0 -11.61688,4.24 239.99626,239.99966 0 0 0 -10.63832,4.7696 239.9963,239.99966 0 0 0 -11.00552,5.3184 239.99626,239.99966 0 0 0 -10.25128,5.8688 239.9963,239.99966 0 0 0 -10.41425,6.3808 239.99626,239.99966 0 0 0 -9.5584,6.8464 239.9963,239.99966 0 0 0 -9.74208,7.4176 239.99626,239.99966 0 0 0 -8.60024,7.5408 239.9963,239.99966 0 0 0 -9.23232,8.5984 A 239.99626,239.99966 0 0 0 304.00001,274 239.99626,239.99966 0 0 0 371.60145,440.9568 h 0.3472 A 239.9963,239.99966 0 0 0 543.99938,514 a 239.9963,239.99966 0 0 0 20.3804,-1.024 239.99626,239.99966 0 0 0 11.80048,-1.424 239.9963,239.99966 0 0 0 12.228,-1.8544 239.99626,239.99966 0 0 0 11.148,-2.5056 239.9963,239.99966 0 0 0 12.02432,-3.0592 239.99626,239.99966 0 0 0 11.08687,-3.6864 239.9963,239.99966 0 0 0 11.61696,-4.2416 239.99626,239.99966 0 0 0 10.63856,-4.768 239.9963,239.99966 0 0 0 11.00528,-5.3184 239.99626,239.99966 0 0 0 10.25121,-5.872 239.9963,239.99966 0 0 0 10.41456,-6.3776 239.99626,239.99966 0 0 0 9.55824,-6.848 239.9963,239.99966 0 0 0 9.74192,-7.4176 239.99626,239.99966 0 0 0 8.60048,-7.5408 239.9963,239.99966 0 0 0 9.23216,-8.6016 239.99626,239.99966 0 0 0 70.2716,-169.4544 239.99626,239.99966 0 0 0 -67.622,-166.9568 h -0.3248 A 239.9963,239.99966 0 0 0 544.00082,34.0064 Z"
       style="display:inline;fill:#000000;fill-opacity:0.2;stroke:none;stroke-width:16;stroke-linecap:round;stroke-linejoin:round;stroke-miterlimit:4;stroke-dasharray:none;stroke-opacity:1;enable-background:new;filter:url(#filter4606)" />
    <circle
       style="display:inline;opacity:1;fill:#e2e5e7;fill-opacity:1;stroke:none;stroke-width:2;stroke-miterlimit:4;stroke-dasharray:none;stroke-opacity:1;enable-background:new"
       id="path4518"
       cx="544"
       cy="272"
       r="240" />
    <path
       inkscape:connector-curvature="0"
       id="path4532"
       d="m 111.99993,498.0002 a 14.999763,14.99998 0 0 0 -1.28906,0.064 14.999761,14.99998 0 0 0 -0.70694,0.086 14.999763,14.99998 0 0 0 -0.77955,0.1186 14.999761,14.99998 0 0 0 -0.69675,0.1567 14.999763,14.99998 0 0 0 -0.75153,0.191 14.999761,14.99998 0 0 0 -0.69293,0.2306 14.999763,14.99998 0 0 0 -0.72605,0.265 14.999761,14.99998 0 0 0 -0.6649,0.2981 14.999763,14.99998 0 0 0 -0.68784,0.3324 14.999761,14.99998 0 0 0 -0.64071,0.3668 14.999763,14.99998 0 0 0 -0.65089,0.3988 14.999761,14.99998 0 0 0 -0.5974,0.4279 14.999763,14.99998 0 0 0 -0.60887,0.4636 14.999761,14.99998 0 0 0 -0.53752,0.4713 14.999763,14.99998 0 0 0 -0.57702,0.5374 A 14.999761,14.99998 0 0 0 97,513 a 14.999761,14.99998 0 0 0 4.2251,10.4348 h 0.0217 a 14.999763,14.99998 0 0 0 10.75317,4.5652 14.999763,14.99998 0 0 0 1.27377,-0.064 14.999761,14.99998 0 0 0 0.73753,-0.089 14.999763,14.99998 0 0 0 0.76425,-0.1159 14.999761,14.99998 0 0 0 0.69675,-0.1566 14.999763,14.99998 0 0 0 0.75152,-0.1912 14.999761,14.99998 0 0 0 0.69293,-0.2304 14.999763,14.99998 0 0 0 0.72606,-0.2651 14.999761,14.99998 0 0 0 0.66491,-0.298 14.999763,14.99998 0 0 0 0.68783,-0.3324 14.999761,14.99998 0 0 0 0.6407,-0.367 14.999763,14.99998 0 0 0 0.65091,-0.3986 14.999761,14.99998 0 0 0 0.59739,-0.428 14.999763,14.99998 0 0 0 0.60887,-0.4636 14.999761,14.99998 0 0 0 0.53753,-0.4713 14.999763,14.99998 0 0 0 0.57701,-0.5376 14.999761,14.99998 0 0 0 4.39197,-10.5909 14.999761,14.99998 0 0 0 -4.22637,-10.4348 h -0.0203 a 14.999763,14.99998 0 0 0 -10.75317,-4.5652 z"
       style="display:inline;fill:#000000;fill-opacity:0.2;stroke:none;stroke-width:2;stroke-linecap:round;stroke-linejoin:round;stroke-miterlimit:4;stroke-dasharray:none;stroke-opacity:1;enable-background:new" />
    <circle
       style="display:inline;opacity:1;fill:#e2e5e7;fill-opacity:1;stroke:none;stroke-width:2;stroke-miterlimit:4;stroke-dasharray:none;stroke-opacity:1;enable-background:new"
       id="path4522"
       cx="112"
       cy="512"
       r="15" />
    <path
       id="path4507"
       d="M 783.95898,273.17 A 240,240 0 0 0 544,33.99812 240,240 0 0 0 304.04102,272.82624 240,240 0 0 1 304,271.99812 a 240,240 0 0 1 240,-240 240,240 0 0 1 240,240 240,240 0 0 1 -0.041,1.17188 z"
       style="display:inline;opacity:1;fill:#ffffff;fill-opacity:0.2;stroke:none;stroke-width:2;stroke-miterlimit:4;stroke-dasharray:none;stroke-opacity:1;enable-background:new"
       inkscape:connector-curvature="0" />
    <path
       id="path4514"
       d="M 189.97852,504.588 A 22,22 0 0 0 168,483.00206 22,22 0 0 0 146.02148,504.41612 22,22 0 0 1 146,504.00206 a 22,22 0 0 1 22,-22 22,22 0 0 1 22,22 22,22 0 0 1 -0.0215,0.58594 z"
       style="display:inline;opacity:1;fill:#ffffff;fill-opacity:0.2;stroke:none;stroke-width:2;stroke-miterlimit:4;stroke-dasharray:none;stroke-opacity:1;enable-background:new"
       inkscape:connector-curvature="0" />
    <path
       style="display:inline;opacity:1;fill:#ffffff;fill-opacity:0.2;stroke:none;stroke-width:2;stroke-miterlimit:4;stroke-dasharray:none;stroke-opacity:1;enable-background:new"
       d="m 112,497 a 15,15 0 0 0 -15,15 15,15 0 0 0 0.01953,0.58594 A 15,15 0 0 1 112,498 15,15 0 0 1 126.98047,512.41406 15,15 0 0 0 127,512 15,15 0 0 0 112,497 Z"
       id="circle4521"
       inkscape:connector-curvature="0" />
    <path
       style="display:inline;opacity:1;fill:#ffffff;fill-opacity:0.2;stroke:none;stroke-width:2;stroke-miterlimit:4;stroke-dasharray:none;stroke-opacity:1;enable-background:new"
       d="m 64,505 a 11,11 0 0 0 -11,11 11,11 0 0 0 0.02148,0.58594 A 11,11 0 0 1 64,506 11,11 0 0 1 74.978516,516.41406 11,11 0 0 0 75,516 11,11 0 0 0 64,505 Z"
       id="circle4527"
       inkscape:connector-curvature="0" />
    <path
       inkscape:connector-curvature="0"
       id="path4546"
       d="m 239.99984,467.0004 a 29.999537,29.999957 0 0 0 -2.57812,0.128 29.999532,29.999957 0 0 0 -1.41388,0.172 29.999537,29.999957 0 0 0 -1.5591,0.2372 29.999532,29.999957 0 0 0 -1.3935,0.3134 29.999537,29.999957 0 0 0 -1.50305,0.382 29.999532,29.999957 0 0 0 -1.38586,0.4612 29.999537,29.999957 0 0 0 -1.45211,0.53 29.999532,29.999957 0 0 0 -1.32979,0.5962 29.999537,29.999957 0 0 0 -1.37569,0.6648 29.999532,29.999957 0 0 0 -1.28141,0.7336 29.999537,29.999957 0 0 0 -1.30178,0.7976 29.999532,29.999957 0 0 0 -1.1948,0.8558 29.999537,29.999957 0 0 0 -1.21776,0.9272 29.999532,29.999957 0 0 0 -1.07503,0.9426 29.999537,29.999957 0 0 0 -1.15404,1.0748 A 29.999532,29.999957 0 0 0 210,497 a 29.999532,29.999957 0 0 0 8.45018,20.8696 h 0.0434 a 29.999537,29.999957 0 0 0 21.50634,9.1304 29.999537,29.999957 0 0 0 2.54755,-0.128 29.999532,29.999957 0 0 0 1.47506,-0.178 29.999537,29.999957 0 0 0 1.5285,-0.2318 29.999532,29.999957 0 0 0 1.3935,-0.3132 29.999537,29.999957 0 0 0 1.50304,-0.3824 29.999532,29.999957 0 0 0 1.38586,-0.4608 29.999537,29.999957 0 0 0 1.45212,-0.5302 29.999532,29.999957 0 0 0 1.32982,-0.596 29.999537,29.999957 0 0 0 1.37566,-0.6648 29.999532,29.999957 0 0 0 1.2814,-0.734 29.999537,29.999957 0 0 0 1.30182,-0.7972 29.999532,29.999957 0 0 0 1.19478,-0.856 29.999537,29.999957 0 0 0 1.21774,-0.9272 29.999532,29.999957 0 0 0 1.07506,-0.9426 29.999537,29.999957 0 0 0 1.15402,-1.0752 29.999532,29.999957 0 0 0 8.78395,-21.1818 29.999532,29.999957 0 0 0 -8.45275,-20.8696 h -0.0406 a 29.999537,29.999957 0 0 0 -21.50635,-9.1304 z"
       style="display:inline;fill:#000000;fill-opacity:0.2;stroke:none;stroke-width:2;stroke-linecap:round;stroke-linejoin:round;stroke-miterlimit:4;stroke-dasharray:none;stroke-opacity:1;enable-background:new;filter:url(#filter4541)" />
    <circle
       cy="496"
       cx="240"
       id="circle4528"
       style="display:inline;opacity:1;fill:#e2e5e7;fill-opacity:1;stroke:none;stroke-width:0.25;stroke-miterlimit:4;stroke-dasharray:none;stroke-opacity:1;enable-background:new"
       r="30" />
    <path
       style="display:inline;opacity:1;fill:#ffffff;fill-opacity:0.2;stroke:none;stroke-width:0.25;stroke-miterlimit:4;stroke-dasharray:none;stroke-opacity:1;enable-background:new"
       d="m 240,466 a 30,30 0 0 0 -30,30 30,30 0 0 0 0.0215,0.58984 A 30,30 0 0 1 240,467 30,30 0 0 1 269.97852,496.41016 30,30 0 0 0 270,496 30,30 0 0 0 240,466 Z"
       id="circle4539"
       inkscape:connector-curvature="0" />
    <path
       inkscape:connector-curvature="0"
       style="display:inline;fill:#2f3c45;fill-opacity:1;fill-rule:evenodd;stroke:none;stroke-width:1px;stroke-linecap:butt;stroke-linejoin:miter;stroke-opacity:1;enable-background:new"
       d="m 24,513 -5,5 h 3 v 2 2 h -3 l 5,5 5,-5 h -3 v -2 -2 h 3 z"
       id="path4577" />
    <path
       style="display:inline;fill:#687484;fill-opacity:1;fill-rule:evenodd;stroke:none;stroke-width:1px;stroke-linecap:butt;stroke-linejoin:miter;stroke-opacity:1;enable-background:new"
       d="m 23,521 h 2 l 1,-3 h -4 l 1,3"
       id="path4583"
       inkscape:connector-curvature="0" />
    <ellipse
       style="display:inline;fill:#d5314f;fill-opacity:1;stroke:none;stroke-opacity:0.1;enable-background:new"
       id="path4585"
       cx="24"
       cy="517.5"
       rx="6"
       ry="1.5" />
    <path
       sodipodi:nodetypes="ccccccccccc"
       inkscape:connector-curvature="0"
       id="path4576"
       d="m 64,506.50001 -5,5 h 3 V 520.5 h -3 l 5,5 5,-5 h -3 v -8.99999 h 3 z"
       style="display:inline;fill:#2f3c45;fill-opacity:1;stroke:none;enable-background:new" />
    <path
       inkscape:connector-curvature="0"
       id="path4578"
       d="M 62,514.00001 62.5,517.5 h 3 l 0.5,-3.49999 z"
       style="display:inline;fill:#687484;fill-opacity:1;stroke:none;enable-background:new" />
    <path
       style="display:inline;fill:#000000;fill-opacity:0.2;stroke:none;enable-background:new"
       d="m 71,513.50001 c 0,1.24265 -1.003216,2.24999 -7,2.24999 -5.996784,0 -7,-1.00734 -7,-2.24999 0,-1.24265 1.011108,-2.25 7,-2.25 5.988892,0 7,1.00735 7,2.25 z"
       id="path898"
       inkscape:connector-curvature="0"
       sodipodi:nodetypes="szszs" />
    <path
       sodipodi:nodetypes="szszs"
       inkscape:connector-curvature="0"
       id="path4584"
       d="m 71,512.50001 c 0,1.24265 -1.003216,2.24999 -7,2.24999 -5.996784,0 -7,-1.00734 -7,-2.24999 0,-1.24265 1.011108,-2.25 7,-2.25 5.988892,0 7,1.00735 7,2.25 z"
       style="display:inline;fill:#d5314f;fill-opacity:1;stroke:none;enable-background:new" />
    <path
       style="display:inline;fill:#ffffff;fill-opacity:0.2;stroke:none;enable-background:new"
       d="M 64 510.25 C 58.011108 510.25 57 511.25735 57 512.5 C 57 512.67256 57.026796 512.83858 57.076172 513 C 57.383802 511.99896 58.842603 511.25 64 511.25 C 69.157397 511.25 70.616198 511.99896 70.923828 513 C 70.973204 512.83858 71 512.67256 71 512.5 C 71 511.25735 69.988892 510.25 64 510.25 z "
       id="path893" />
    <path
       inkscape:connector-curvature="0"
       id="path4532-3"
       d="m 114.99999,506.00004 h 3.99999 l -6.99999,-6.99999 -7,6.99999 h 4 v 11.99998 h -4 l 7,6.99998 6.99999,-6.99998 h -3.99999 v -11.99998"
       style="display:inline;fill:#2f3c45;fill-opacity:1;fill-rule:evenodd;stroke:none;stroke-width:1px;stroke-linecap:butt;stroke-linejoin:miter;stroke-opacity:1;enable-background:new" />
    <path
       style="display:inline;fill:#687484;fill-opacity:1;stroke:none;enable-background:new"
       d="m 109.27272,509.2273 0.68181,4.77272 h 4.09091 l 0.68182,-4.77272 z"
       id="path4534-6"
       inkscape:connector-curvature="0" />
    <path
       sodipodi:nodetypes="szszs"
       inkscape:connector-curvature="0"
       id="path910"
       d="m 121.49998,508 c 0,1.65687 -1.3615,3 -9.49999,3 -8.13848,0 -9.49999,-1.34313 -9.49999,-3 0,-1.65686 1.37222,-2.99999 9.49999,-2.99999 8.12777,0 9.49999,1.34313 9.49999,2.99999 z"
       style="display:inline;fill:#000000;fill-opacity:0.2;stroke:none;enable-background:new" />
    <path
       style="display:inline;fill:#d5314f;fill-opacity:1;stroke:none;enable-background:new"
       d="m 121.49998,507.00003 c 0,1.65687 -1.3615,3 -9.49999,3 -8.13848,0 -9.49999,-1.34313 -9.49999,-3 0,-1.65686 1.37222,-2.99999 9.49999,-2.99999 8.12777,0 9.49999,1.34313 9.49999,2.99999 z"
       id="path4541"
       inkscape:connector-curvature="0"
       sodipodi:nodetypes="szszs" />
    <path
       style="display:inline;fill:#ffffff;fill-opacity:0.2;stroke:none;enable-background:new"
       d="M 112 504 C 103.87223 504 102.5 505.34314 102.5 507 C 102.5 507.171 102.52559 507.33681 102.56055 507.5 C 102.86598 506.08205 104.71107 505 112 505 C 119.28893 505 121.13402 506.08205 121.43945 507.5 C 121.47441 507.33681 121.5 507.171 121.5 507 C 121.5 505.34314 120.12777 504 112 504 z "
       id="path912" />
    <path
       style="display:inline;fill:#2f3c45;fill-opacity:1;stroke:none;enable-background:new"
       d="m 168,485 -10,10 h 6 v 18 h -6 l 10,10 10,-10 h -6 v -18 h 6 z"
       id="path2985"
       inkscape:connector-curvature="0"
       sodipodi:nodetypes="ccccccccccc" />
    <path
       style="display:inline;fill:#687484;fill-opacity:1;stroke:none;enable-background:new"
       d="m 164,500 1,7 h 6 l 1,-7 z"
       id="path3762"
       inkscape:connector-curvature="0" />
    <path
       sodipodi:nodetypes="szszs"
       inkscape:connector-curvature="0"
       id="path932"
       d="m 182,498.5 c 0,2.4853 -2.00643,4.5 -14,4.5 -11.99357,0 -14,-2.0147 -14,-4.5 0,-2.4853 2.02222,-4.5 14,-4.5 11.97778,0 14,2.0147 14,4.5 z"
       style="display:inline;fill:#000000;fill-opacity:0.2;stroke:none;enable-background:new" />
    <path
       style="display:inline;fill:#d5314f;fill-opacity:1;stroke:none;enable-background:new"
       d="m 182,497.5 c 0,2.4853 -2.00643,4.5 -14,4.5 -11.99357,0 -14,-2.0147 -14,-4.5 0,-2.4853 2.02222,-4.5 14,-4.5 11.97778,0 14,2.0147 14,4.5 z"
       id="path3757"
       inkscape:connector-curvature="0"
       sodipodi:nodetypes="szszs" />
    <path
       style="display:inline;fill:#ffffff;fill-opacity:0.2;stroke:none;enable-background:new"
       d="m 168,493 c -11.97778,0 -14,2.0147 -14,4.5 0,0.16899 0.0121,0.33585 0.0332,0.5 0.29049,-2.25002 2.80344,-4 13.9668,-4 11.16336,0 13.67631,1.74998 13.9668,4 0.0211,-0.16415 0.0332,-0.33101 0.0332,-0.5 0,-2.4853 -2.02222,-4.5 -14,-4.5 z"
       id="path927"
       inkscape:connector-curvature="0" />
    <path
       style="display:inline;fill:#2f3c45;fill-opacity:1;fill-rule:evenodd;stroke:none;stroke-width:1px;stroke-linecap:butt;stroke-linejoin:miter;stroke-opacity:1;enable-background:new"
       d="m 246,484 h 8 l -14,-14 -14,14 h 8 v 24 h -8 l 14,14 14,-14 h -8 v -24"
       id="path4493"
       inkscape:connector-curvature="0" />
    <path
       inkscape:connector-curvature="0"
       id="path4456"
       d="M 234.54546,490.45455 235.90909,500 h 8.18182 l 1.36364,-9.54545 z"
       style="display:inline;fill:#687484;fill-opacity:1;stroke:none;enable-background:new" />
    <path
       style="display:inline;fill:#000000;fill-opacity:0.2;stroke:none;enable-background:new"
       d="m 259,487 c 0,3.31373 -2.72301,6 -19,6 -16.27698,0 -19,-2.68627 -19,-6 0,-3.31373 2.74444,-6 19,-6 16.25556,0 19,2.68627 19,6 z"
       id="path1311"
       inkscape:connector-curvature="0"
       sodipodi:nodetypes="szszs" />
    <path
       sodipodi:nodetypes="szszs"
       inkscape:connector-curvature="0"
       id="path4462"
       d="m 259,486 c 0,3.31373 -2.72301,6 -19,6 -16.27698,0 -19,-2.68627 -19,-6 0,-3.31373 2.74444,-6 19,-6 16.25556,0 19,2.68627 19,6 z"
       style="display:inline;fill:#d5314f;fill-opacity:1;stroke:none;enable-background:new" />
    <path
       style="display:inline;fill:#ffffff;fill-opacity:0.2;stroke:none;enable-background:new"
       d="M 240 480 C 223.74444 480 221 482.68627 221 486 C 221 486.16886 221.01372 486.33467 221.0293 486.5 C 221.32129 483.4209 224.57281 481 240 481 C 255.42719 481 258.67871 483.4209 258.9707 486.5 C 258.98628 486.33467 259 486.16886 259 486 C 259 482.68627 256.25556 480 240 480 z "
       id="path1306" />
    <path
       inkscape:connector-curvature="0"
       id="path1315"
       d="m 592,176.00021 h 64 L 544,64.000207 432,176.00021 h 64 v 192 h -64 l 112,112 112,-112 h -64 v -192"
       style="display:inline;fill:#2f3c45;fill-opacity:1;fill-rule:evenodd;stroke:none;stroke-width:8px;stroke-linecap:butt;stroke-linejoin:miter;stroke-opacity:1;enable-background:new" />
    <path
       style="display:inline;fill:#687484;fill-opacity:1;stroke:none;stroke-width:8;enable-background:new"
       d="m 500.36368,227.63661 10.90904,76.3636 h 65.45456 l 10.90912,-76.3636 z"
       id="path1317"
       inkscape:connector-curvature="0" />
    <path
       sodipodi:nodetypes="szszs"
       inkscape:connector-curvature="0"
       id="path1326"
       d="m 696,194 c 0,26.50984 -21.78408,48 -152,48 -130.21584,0 -152,-21.49016 -152,-48 0,-26.50984 21.95552,-48 152,-48 130.04448,0 152,21.49016 152,48 z"
       style="display:inline;fill:#000000;fill-opacity:0.2;stroke:none;stroke-width:8;enable-background:new" />
    <path
       style="display:inline;fill:#000000;fill-opacity:0.2;stroke:none;stroke-width:8;enable-background:new;filter:url(#filter1334)"
       d="m 696,194 c 0,26.50984 -21.78408,48 -152,48 -130.21584,0 -152,-21.49016 -152,-48 0,-26.50984 21.95552,-48 152,-48 130.04448,0 152,21.49016 152,48 z"
       id="path1328"
       inkscape:connector-curvature="0"
       sodipodi:nodetypes="szszs" />
    <path
       style="display:inline;fill:#d5314f;fill-opacity:1;stroke:none;stroke-width:8;enable-background:new"
       d="m 696,192.00021 c 0,26.50984 -21.78408,48 -152,48 -130.21584,0 -152,-21.49016 -152,-48 0,-26.50984 21.95552,-48 152,-48 130.04448,0 152,21.49016 152,48 z"
       id="path1319"
       inkscape:connector-curvature="0"
       sodipodi:nodetypes="szszs" />
    <path
       style="display:inline;fill:#ffffff;fill-opacity:0.2;stroke:none;stroke-width:8;enable-background:new"
       d="M 544 144 C 413.95552 144 392 165.49016 392 192 C 392 192.33531 392.0202 192.66633 392.02734 193 C 392.58933 166.95344 415.60037 146 544 146 C 672.39963 146 695.41067 166.95344 695.97266 193 C 695.9798 192.66633 696 192.33531 696 192 C 696 165.49016 674.04448 144 544 144 z "
       id="path1321" />
    <path
       style="display:inline;fill:url(#linearGradient4171-1-0);fill-opacity:1;stroke:none;stroke-width:2;stroke-linecap:round;stroke-linejoin:round;stroke-miterlimit:4;stroke-dasharray:none;stroke-opacity:1;enable-background:new"
       d="m 168.00001,482.0003 a 21.99977,21.999992 0 0 0 -1.89063,0.095 21.999769,21.999992 0 0 0 -1.03685,0.1252 21.99977,21.999992 0 0 0 -1.14334,0.1737 21.999769,21.999992 0 0 0 -1.02191,0.2298 21.99977,21.999992 0 0 0 -1.10224,0.2803 21.999769,21.999992 0 0 0 -1.01631,0.3381 21.99977,21.999992 0 0 0 -1.06488,0.3886 21.999769,21.999992 0 0 0 -0.9752,0.4372 21.99977,21.999992 0 0 0 -1.00883,0.4876 21.999769,21.999992 0 0 0 -0.93971,0.538 21.99977,21.999992 0 0 0 -0.95465,0.5848 21.999769,21.999992 0 0 0 -0.87619,0.6277 21.99977,21.999992 0 0 0 -0.89301,0.68 21.999769,21.999992 0 0 0 -0.78838,0.6912 21.99977,21.999992 0 0 0 -0.84629,0.7881 21.999769,21.999992 0 0 0 -6.44157,15.5345 21.999769,21.999992 0 0 0 6.19684,15.3043 h 0.0318 a 21.99977,21.999992 0 0 0 15.77139,6.6957 21.99977,21.999992 0 0 0 1.86821,-0.094 21.999769,21.999992 0 0 0 1.08169,-0.1308 21.99977,21.999992 0 0 0 1.12092,-0.17 21.999769,21.999992 0 0 0 1.02191,-0.2297 21.99977,21.999992 0 0 0 1.10224,-0.2803 21.999769,21.999992 0 0 0 1.01631,-0.3381 21.99977,21.999992 0 0 0 1.06488,-0.3887 21.999769,21.999992 0 0 0 0.9752,-0.4371 21.99977,21.999992 0 0 0 1.00883,-0.4876 21.999769,21.999992 0 0 0 0.93971,-0.5381 21.99977,21.999992 0 0 0 0.95465,-0.5847 21.999769,21.999992 0 0 0 0.87619,-0.6277 21.99977,21.999992 0 0 0 0.893,-0.68 21.999769,21.999992 0 0 0 0.78839,-0.6912 21.99977,21.999992 0 0 0 0.84629,-0.7885 21.999769,21.999992 0 0 0 6.44158,-15.5333 21.999769,21.999992 0 0 0 -6.19871,-15.3044 h -0.0299 a 21.99977,21.999992 0 0 0 -15.7714,-6.6956 z"
       id="circle4163-3-4"
       inkscape:connector-curvature="0" />
    <path
       style="display:inline;fill:url(#linearGradient4435);fill-opacity:1;stroke:none;stroke-width:2;stroke-linecap:round;stroke-linejoin:round;stroke-miterlimit:4;stroke-dasharray:none;stroke-opacity:1;enable-background:new"
       d="m 111.99987,496.9998 a 14.999763,14.99998 0 0 0 -1.28906,0.064 14.999761,14.99998 0 0 0 -0.70694,0.086 14.999763,14.99998 0 0 0 -0.77955,0.1186 14.999761,14.99998 0 0 0 -0.69675,0.1567 14.999763,14.99998 0 0 0 -0.75153,0.191 14.999761,14.99998 0 0 0 -0.69293,0.2306 14.999763,14.99998 0 0 0 -0.72605,0.265 14.999761,14.99998 0 0 0 -0.6649,0.2981 14.999763,14.99998 0 0 0 -0.68784,0.3324 14.999761,14.99998 0 0 0 -0.64071,0.3668 14.999763,14.99998 0 0 0 -0.65089,0.3988 14.999761,14.99998 0 0 0 -0.5974,0.4279 14.999763,14.99998 0 0 0 -0.60887,0.4636 14.999761,14.99998 0 0 0 -0.53752,0.4713 14.999763,14.99998 0 0 0 -0.57702,0.5374 14.999761,14.99998 0 0 0 -4.39197,10.5916 14.999761,14.99998 0 0 0 4.2251,10.4348 h 0.0217 a 14.999763,14.99998 0 0 0 10.75317,4.5652 14.999763,14.99998 0 0 0 1.27377,-0.064 14.999761,14.99998 0 0 0 0.73753,-0.089 14.999763,14.99998 0 0 0 0.76425,-0.1159 14.999761,14.99998 0 0 0 0.69675,-0.1566 14.999763,14.99998 0 0 0 0.75152,-0.1912 14.999761,14.99998 0 0 0 0.69293,-0.2304 14.999763,14.99998 0 0 0 0.72606,-0.2651 14.999761,14.99998 0 0 0 0.66491,-0.298 14.999763,14.99998 0 0 0 0.68783,-0.3324 14.999761,14.99998 0 0 0 0.6407,-0.367 14.999763,14.99998 0 0 0 0.65091,-0.3986 14.999761,14.99998 0 0 0 0.59739,-0.428 14.999763,14.99998 0 0 0 0.60887,-0.4636 14.999761,14.99998 0 0 0 0.53753,-0.4713 14.999763,14.99998 0 0 0 0.57701,-0.5376 14.999761,14.99998 0 0 0 4.39197,-10.5909 14.999761,14.99998 0 0 0 -4.22637,-10.4348 h -0.0203 A 14.999763,14.99998 0 0 0 112,497 Z"
       id="path4433"
       inkscape:connector-curvature="0" />
    <path
       inkscape:connector-curvature="0"
       id="path4447"
       d="m 543.99874,32.00258 a 239.9963,239.99966 0 0 0 -20.62496,1.024 239.99626,239.99966 0 0 0 -11.31104,1.376 239.9963,239.99966 0 0 0 -12.4728,1.8976 239.99626,239.99966 0 0 0 -11.148,2.5072 239.9963,239.99966 0 0 0 -12.0244,3.056 239.99626,239.99966 0 0 0 -11.08688,3.6896 239.9963,239.99966 0 0 0 -11.61688,4.24 239.99626,239.99966 0 0 0 -10.63832,4.7696 239.9963,239.99966 0 0 0 -11.00552,5.3184 239.99626,239.99966 0 0 0 -10.25128,5.8688 239.9963,239.99966 0 0 0 -10.41425,6.3808 239.99626,239.99966 0 0 0 -9.5584,6.8464 239.9963,239.99966 0 0 0 -9.74208,7.4176 239.99626,239.99966 0 0 0 -8.60024,7.5408 239.9963,239.99966 0 0 0 -9.23232,8.5984 239.99626,239.99966 0 0 0 -70.27136,169.4656 239.99626,239.99966 0 0 0 67.60144,166.9568 h 0.3472 a 239.9963,239.99966 0 0 0 172.05073,73.0432 239.9963,239.99966 0 0 0 20.3804,-1.024 239.99626,239.99966 0 0 0 11.80048,-1.424 239.9963,239.99966 0 0 0 12.228,-1.8544 239.99626,239.99966 0 0 0 11.148,-2.5056 239.9963,239.99966 0 0 0 12.02432,-3.0592 239.99626,239.99966 0 0 0 11.08687,-3.6864 239.9963,239.99966 0 0 0 11.61696,-4.2416 239.99626,239.99966 0 0 0 10.63856,-4.768 239.9963,239.99966 0 0 0 11.00528,-5.3184 239.99626,239.99966 0 0 0 10.25121,-5.872 239.9963,239.99966 0 0 0 10.41456,-6.3776 239.99626,239.99966 0 0 0 9.55824,-6.848 239.9963,239.99966 0 0 0 9.74192,-7.4176 239.99626,239.99966 0 0 0 8.60048,-7.5408 239.9963,239.99966 0 0 0 9.23216,-8.6016 239.99626,239.99966 0 0 0 70.2716,-169.4544 239.99626,239.99966 0 0 0 -67.622,-166.9568 h -0.3248 a 239.9963,239.99966 0 0 0 -172.0508,-73.0432 z"
       style="display:inline;fill:url(#linearGradient4449-0);fill-opacity:1;stroke:none;stroke-width:16;stroke-linecap:round;stroke-linejoin:round;stroke-miterlimit:4;stroke-dasharray:none;stroke-opacity:1;enable-background:new" />
    <path
       style="display:inline;fill:url(#linearGradient4537);fill-opacity:1;stroke:none;stroke-width:2;stroke-linecap:round;stroke-linejoin:round;stroke-miterlimit:4;stroke-dasharray:none;stroke-opacity:1;enable-background:new"
       d="m 239.99984,466.00032 a 29.999537,29.999957 0 0 0 -2.57812,0.128 29.999532,29.999957 0 0 0 -1.41388,0.172 29.999537,29.999957 0 0 0 -1.5591,0.2372 29.999532,29.999957 0 0 0 -1.3935,0.3134 29.999537,29.999957 0 0 0 -1.50305,0.382 29.999532,29.999957 0 0 0 -1.38586,0.4612 29.999537,29.999957 0 0 0 -1.45211,0.53 29.999532,29.999957 0 0 0 -1.32979,0.5962 29.999537,29.999957 0 0 0 -1.37569,0.6648 29.999532,29.999957 0 0 0 -1.28141,0.7336 29.999537,29.999957 0 0 0 -1.30178,0.7976 29.999532,29.999957 0 0 0 -1.1948,0.8558 29.999537,29.999957 0 0 0 -1.21776,0.9272 29.999532,29.999957 0 0 0 -1.07503,0.9426 29.999537,29.999957 0 0 0 -1.15404,1.0748 29.999532,29.999957 0 0 0 -8.78392,21.1832 29.999532,29.999957 0 0 0 8.45018,20.8696 h 0.0434 a 29.999537,29.999957 0 0 0 21.50634,9.1304 29.999537,29.999957 0 0 0 2.54755,-0.128 29.999532,29.999957 0 0 0 1.47506,-0.178 29.999537,29.999957 0 0 0 1.5285,-0.2318 29.999532,29.999957 0 0 0 1.3935,-0.3132 29.999537,29.999957 0 0 0 1.50304,-0.3824 29.999532,29.999957 0 0 0 1.38586,-0.4608 29.999537,29.999957 0 0 0 1.45212,-0.5302 29.999532,29.999957 0 0 0 1.32982,-0.596 29.999537,29.999957 0 0 0 1.37566,-0.6648 29.999532,29.999957 0 0 0 1.2814,-0.734 29.999537,29.999957 0 0 0 1.30182,-0.7972 29.999532,29.999957 0 0 0 1.19478,-0.856 29.999537,29.999957 0 0 0 1.21774,-0.9272 29.999532,29.999957 0 0 0 1.07506,-0.9426 29.999537,29.999957 0 0 0 1.15402,-1.0752 29.999532,29.999957 0 0 0 8.78395,-21.1818 29.999532,29.999957 0 0 0 -8.45275,-20.8696 h -0.0406 a 29.999537,29.999957 0 0 0 -21.50635,-9.1304 z"
       id="path4535"
       inkscape:connector-curvature="0" />
    <path
       inkscape:connector-curvature="0"
       id="path4618"
       d="m 63.999985,505 a 10.999863,11.000059 0 0 0 -0.945313,0.0469 10.999861,11.000059 0 0 0 -0.518425,0.0631 10.999863,11.000059 0 0 0 -0.571672,0.087 10.999861,11.000059 0 0 0 -0.510951,0.11492 10.999863,11.000059 0 0 0 -0.551124,0.14007 10.999861,11.000059 0 0 0 -0.508151,0.1691 10.999863,11.000059 0 0 0 -0.532438,0.19434 10.999861,11.000059 0 0 0 -0.487595,0.21861 10.999863,11.000059 0 0 0 -0.504418,0.24376 10.999861,11.000059 0 0 0 -0.469855,0.26899 10.999863,11.000059 0 0 0 -0.477321,0.29245 10.999861,11.000059 0 0 0 -0.438095,0.3138 10.999863,11.000059 0 0 0 -0.446506,0.33997 10.999861,11.000059 0 0 0 -0.394183,0.34563 10.999863,11.000059 0 0 0 -0.423149,0.39409 10.999861,11.000059 0 0 0 -3.220789,7.7672 10.999861,11.000059 0 0 0 3.098417,7.65223 h 0.01591 A 10.999863,11.000059 0 0 0 64.000012,527 a 10.999863,11.000059 0 0 0 0.934101,-0.0469 10.999861,11.000059 0 0 0 0.540857,-0.0653 10.999863,11.000059 0 0 0 0.560452,-0.085 10.999861,11.000059 0 0 0 0.510951,-0.11485 10.999863,11.000059 0 0 0 0.551117,-0.14021 10.999861,11.000059 0 0 0 0.50815,-0.16896 10.999863,11.000059 0 0 0 0.532446,-0.19441 10.999861,11.000059 0 0 0 0.487602,-0.21853 10.999863,11.000059 0 0 0 0.504411,-0.24377 10.999861,11.000059 0 0 0 0.469848,-0.26913 10.999863,11.000059 0 0 0 0.477336,-0.29231 10.999861,11.000059 0 0 0 0.438087,-0.31387 10.999863,11.000059 0 0 0 0.446506,-0.33997 10.999861,11.000059 0 0 0 0.39419,-0.34563 10.999863,11.000059 0 0 0 0.423142,-0.39424 A 10.999861,11.000059 0 0 0 75,516.00022 10.999861,11.000059 0 0 0 71.900652,508.34798 h -0.01489 a 10.999863,11.000059 0 0 0 -7.885684,-3.34783 z"
       style="display:inline;fill:url(#linearGradient4620);fill-opacity:1;stroke:none;stroke-width:1.46667397;stroke-linecap:round;stroke-linejoin:round;stroke-miterlimit:4;stroke-dasharray:none;stroke-opacity:1;enable-background:new" />
  </g>
</svg>
