<?xml version="1.0" encoding="UTF-8" standalone="no"?>
<!-- Created with Inkscape (http://www.inkscape.org/) -->

<svg
   xmlns:dc="http://purl.org/dc/elements/1.1/"
   xmlns:cc="http://creativecommons.org/ns#"
   xmlns:rdf="http://www.w3.org/1999/02/22-rdf-syntax-ns#"
   xmlns:svg="http://www.w3.org/2000/svg"
   xmlns="http://www.w3.org/2000/svg"
   xmlns:xlink="http://www.w3.org/1999/xlink"
   xmlns:sodipodi="http://sodipodi.sourceforge.net/DTD/sodipodi-0.dtd"
   xmlns:inkscape="http://www.inkscape.org/namespaces/inkscape"
   width="816"
   height="544"
   viewBox="0 0 816 544"
   version="1.1"
   id="svg1087"
   inkscape:version="0.92.1 r"
   sodipodi:docname="utilities-system-monitor.svg">
  <defs
     id="defs1081">
    <linearGradient
       id="linearGradient4540"
       inkscape:collect="always">
      <stop
         id="stop4536"
         offset="0"
         style="stop-color:#ffffff;stop-opacity:0.05490196" />
      <stop
         id="stop4538"
         offset="1"
         style="stop-color:#177ed5;stop-opacity:0;" />
    </linearGradient>
    <linearGradient
       id="linearGradient4534"
       inkscape:collect="always">
      <stop
         id="stop4530"
         offset="0"
         style="stop-color:#ffffff;stop-opacity:0.05490196" />
      <stop
         id="stop4532"
         offset="1"
         style="stop-color:#177ed5;stop-opacity:0;" />
    </linearGradient>
    <filter
       inkscape:collect="always"
       style="color-interpolation-filters:sRGB"
       id="filter5087"
       x="-0.048"
       width="1.096"
       y="-0.048"
       height="1.096">
      <feGaussianBlur
         inkscape:collect="always"
         stdDeviation="0.8"
         id="feGaussianBlur5089" />
    </filter>
    <linearGradient
       inkscape:collect="always"
       xlink:href="#linearGradient4534"
       id="linearGradient4347"
       gradientUnits="userSpaceOnUse"
       gradientTransform="matrix(0.47825838,0,0,0.47826068,52.52174,24.17493)"
       x1="7"
       y1="1011.3622"
       x2="41.000019"
       y2="1045.3622" />
    <linearGradient
       inkscape:collect="always"
       id="linearGradient4165">
      <stop
         style="stop-color:#ffffff;stop-opacity:0.05490196"
         offset="0"
         id="stop4167" />
      <stop
         style="stop-color:#177ed5;stop-opacity:0;"
         offset="1"
         id="stop4169" />
    </linearGradient>
    <linearGradient
       inkscape:collect="always"
       xlink:href="#linearGradient4540"
       id="linearGradient4435"
       gradientUnits="userSpaceOnUse"
       gradientTransform="matrix(0.65217041,0,0,0.65217328,96.34783,-158.67016)"
       x1="7"
       y1="1011.3622"
       x2="41.000019"
       y2="1045.3622" />
    <linearGradient
       inkscape:collect="always"
       xlink:href="#linearGradient4165"
       id="linearGradient4171-1-0"
       x1="7"
       y1="1011.3622"
       x2="41.000019"
       y2="1045.3622"
       gradientUnits="userSpaceOnUse"
       gradientTransform="matrix(0.95652174,0,0,0.95652174,145.04349,-479.6504)" />
    <linearGradient
       inkscape:collect="always"
       xlink:href="#linearGradient4165-3"
       id="linearGradient4449-0"
       gradientUnits="userSpaceOnUse"
       gradientTransform="matrix(10.43473,0,0,10.434772,293.56521,-10458.721)"
       x1="7"
       y1="1011.3622"
       x2="41.000019"
       y2="1045.3622" />
    <linearGradient
       inkscape:collect="always"
       id="linearGradient4165-3">
      <stop
         style="stop-color:#ffffff;stop-opacity:0.05490196"
         offset="0"
         id="stop4167-6" />
      <stop
         style="stop-color:#177ed5;stop-opacity:0;"
         offset="1"
         id="stop4169-7" />
    </linearGradient>
    <linearGradient
       inkscape:collect="always"
       xlink:href="#linearGradient4165-3"
       id="linearGradient4535"
       gradientUnits="userSpaceOnUse"
       gradientTransform="matrix(1.3043412,0,0,1.3043465,208.69565,-845.3401)"
       x1="7"
       y1="1011.3622"
       x2="41.000019"
       y2="1045.3622" />
    <filter
       inkscape:collect="always"
       style="color-interpolation-filters:sRGB"
       id="filter4557"
       x="-0.0108"
       width="1.0216"
       y="-0.0135"
       height="1.027">
      <feGaussianBlur
         inkscape:collect="always"
         stdDeviation="0.18"
         id="feGaussianBlur4559" />
    </filter>
    <filter
       inkscape:collect="always"
       style="color-interpolation-filters:sRGB"
       id="filter4565"
       x="-0.010714286"
       width="1.0214286"
       y="-0.013636364"
       height="1.0272727">
      <feGaussianBlur
         inkscape:collect="always"
         stdDeviation="0.25"
         id="feGaussianBlur4567" />
    </filter>
    <filter
       inkscape:collect="always"
       style="color-interpolation-filters:sRGB"
       id="filter4579"
       x="-0.021428571"
       width="1.0428571"
       y="-0.027272727"
       height="1.0545455">
      <feGaussianBlur
         inkscape:collect="always"
         stdDeviation="4"
         id="feGaussianBlur4581" />
    </filter>
  </defs>
  <sodipodi:namedview
     id="base"
     pagecolor="#c3c3c3"
     bordercolor="#333333"
     borderopacity="1"
     inkscape:pageopacity="0"
     inkscape:pageshadow="2"
     inkscape:zoom="0.9899495"
     inkscape:cx="504.19694"
     inkscape:cy="-38.986621"
     inkscape:document-units="px"
     inkscape:current-layer="layer1"
     showgrid="false"
     units="px"
     inkscape:showpageshadow="false"
     inkscape:window-width="1280"
     inkscape:window-height="1370"
     inkscape:window-x="0"
     inkscape:window-y="34"
     inkscape:window-maximized="0">
    <inkscape:grid
       type="xygrid"
       id="grid4630" />
  </sodipodi:namedview>
  <metadata
     id="metadata1084">
    <rdf:RDF>
      <cc:Work
         rdf:about="">
        <dc:format>image/svg+xml</dc:format>
        <dc:type
           rdf:resource="http://purl.org/dc/dcmitype/StillImage" />
        <dc:title></dc:title>
        <cc:license
           rdf:resource="http://creativecommons.org/licenses/by-sa/4.0/" />
        <dc:creator>
          <cc:Agent>
            <dc:title>Peter Cornelis</dc:title>
          </cc:Agent>
        </dc:creator>
      </cc:Work>
      <cc:License
         rdf:about="http://creativecommons.org/licenses/by-sa/4.0/">
        <cc:permits
           rdf:resource="http://creativecommons.org/ns#Reproduction" />
        <cc:permits
           rdf:resource="http://creativecommons.org/ns#Distribution" />
        <cc:requires
           rdf:resource="http://creativecommons.org/ns#Notice" />
        <cc:requires
           rdf:resource="http://creativecommons.org/ns#Attribution" />
        <cc:permits
           rdf:resource="http://creativecommons.org/ns#DerivativeWorks" />
        <cc:requires
           rdf:resource="http://creativecommons.org/ns#ShareAlike" />
      </cc:License>
    </rdf:RDF>
  </metadata>
  <g
     inkscape:label="Baseplate"
     inkscape:groupmode="layer"
     id="layer1"
     transform="translate(0,-153.06668)"
     style="display:none">
    <rect
       style="display:inline;overflow:visible;visibility:visible;fill:#fefefe;fill-opacity:1;fill-rule:nonzero;stroke:none;stroke-width:2;marker:none;enable-background:accumulate"
       id="rect3951"
       width="512"
       height="512"
       x="-800"
       y="169.06668"
       inkscape:label="48x48"
       transform="scale(-1,1)" />
    <text
       y="733.32251"
       xml:space="preserve"
       x="15.006836"
       style="font-style:normal;font-variant:normal;font-weight:normal;font-stretch:normal;line-height:0%;font-family:'DejaVu Sans';-inkscape-font-specification:'DejaVu Sans';display:inline;fill:#000000;fill-opacity:1;stroke:none;enable-background:new"
       inkscape:label="context"
       id="context"><tspan
         style="font-style:normal;font-variant:normal;font-weight:normal;font-stretch:normal;font-size:18px;line-height:1.25;font-family:'DejaVu Sans';-inkscape-font-specification:'DejaVu Sans'"
         y="733.32251"
         x="15.006836"
         sodipodi:role="line"
         id="tspan3933">apps</tspan></text>
    <text
       y="733.32251"
       xml:space="preserve"
       x="142.48828"
       style="font-style:normal;font-variant:normal;font-weight:bold;font-stretch:normal;line-height:0%;font-family:'DejaVu Sans';-inkscape-font-specification:'DejaVu Sans Bold';text-align:start;writing-mode:lr-tb;text-anchor:start;display:inline;fill:#000000;fill-opacity:1;stroke:none;enable-background:new"
       inkscape:label="icon-name"
       id="icon-name"><tspan
         style="font-style:normal;font-variant:normal;font-weight:bold;font-stretch:normal;font-size:18px;line-height:1.25;font-family:'DejaVu Sans';-inkscape-font-specification:'DejaVu Sans Bold'"
         y="733.32251"
         x="142.48828"
         sodipodi:role="line"
         id="tspan3937">utilities-system-monitor</tspan></text>
    <rect
       style="display:inline;overflow:visible;visibility:visible;fill:#fefefe;fill-opacity:1;fill-rule:nonzero;stroke:none;stroke-width:2;marker:none;enable-background:accumulate"
       id="rect16x16"
       width="16"
       height="16"
       x="-32"
       y="665.06665"
       inkscape:label="16x16"
       transform="scale(-1,1)" />
    <rect
       style="display:inline;overflow:visible;visibility:visible;fill:#fefefe;fill-opacity:1;fill-rule:nonzero;stroke:none;stroke-width:2;marker:none;enable-background:accumulate"
       id="rect24x24"
       width="24"
       height="24"
       x="-76"
       y="657.06665"
       inkscape:label="24x24"
       transform="scale(-1,1)" />
    <rect
       style="display:inline;overflow:visible;visibility:visible;fill:#fefefe;fill-opacity:1;fill-rule:nonzero;stroke:none;stroke-width:2;marker:none;enable-background:accumulate"
       id="rect32x32"
       width="32"
       height="32"
       x="-128"
       y="649.06665"
       inkscape:label="32x32"
       transform="scale(-1,1)" />
    <rect
       inkscape:label="48x48"
       y="633.06665"
       x="-192"
       height="48"
       width="48"
       id="rect48x48"
       style="display:inline;overflow:visible;visibility:visible;fill:#fefefe;fill-opacity:1;fill-rule:nonzero;stroke:none;stroke-width:2;marker:none;enable-background:accumulate"
       transform="scale(-1,1)" />
    <rect
       transform="scale(-1,1)"
       inkscape:label="48x48"
       y="617.06665"
       x="-272"
       height="64"
       width="64"
       id="rect4524"
       style="display:inline;overflow:visible;visibility:visible;fill:#fefefe;fill-opacity:1;fill-rule:nonzero;stroke:none;stroke-width:0.25;marker:none;enable-background:accumulate" />
  </g>
  <g
     inkscape:groupmode="layer"
     id="layer2"
     inkscape:label="Bitmap"
     style="display:inline">
    <path
       inkscape:connector-curvature="0"
       id="path4553"
       d="m 151,489 c -1.662,0 -3,1.338 -3,3 V 495.91992 501 514.11133 518 c 0,1.662 1.338,3 3,3 h 1.97266 30.08593 H 185 c 1.662,0 3,-1.338 3,-3 V 514.07812 495.89258 492 c 0,-1.662 -1.338,-3 -3,-3 H 183.02734 160 152.94141 Z"
       style="display:inline;fill:#000000;fill-opacity:0.2;stroke:none;stroke-width:2;stroke-linecap:round;stroke-linejoin:round;stroke-miterlimit:4;stroke-dasharray:none;stroke-opacity:1;enable-background:new;filter:url(#filter4557)" />
    <path
       sodipodi:nodetypes="sscsscsscsscs"
       inkscape:connector-curvature="0"
       id="path5069"
       d="m 143,485 c -1.66505,0 -3,1.2912 -3,3 v 17 17 c 0,1.8617 1.34224,3 3,3 h 17 17 c 1.73784,0 3,-1.2767 3,-3 v -17 -17 c 0,-1.6942 -1.29127,-3 -3,-3 h -17 z"
       style="display:inline;fill:none;fill-opacity:0.5;stroke:none;stroke-width:2;stroke-linecap:round;stroke-linejoin:round;stroke-miterlimit:4;stroke-dasharray:none;stroke-opacity:1;filter:url(#filter5087);enable-background:new" />
    <path
       style="opacity:1;fill:#333a42;fill-opacity:1;stroke:none"
       d="m 148,517 c 0,1.662 1.338,3 3,3 h 34 c 1.662,0 3,-1.338 3,-3 v -26 c 0,-1.662 -1.338,-3 -3,-3 h -25 -9 c -1.662,0 -3,1.338 -3,3 v 9 z"
       id="rect4648"
       inkscape:connector-curvature="0" />
    <path
       style="display:inline;fill:none;fill-opacity:0.5;stroke:none;stroke-width:2;stroke-linecap:round;stroke-linejoin:round;stroke-miterlimit:4;stroke-dasharray:none;stroke-opacity:1;filter:url(#filter5087);enable-background:new"
       d="m 143,485 c -1.66505,0 -3,1.2912 -3,3 v 17 17 c 0,1.8617 1.34224,3 3,3 h 17 17 c 1.73784,0 3,-1.2767 3,-3 v -17 -17 c 0,-1.6942 -1.29127,-3 -3,-3 h -17 z"
       id="path4506"
       inkscape:connector-curvature="0"
       sodipodi:nodetypes="sscsscsscsscs" />
    <path
       inkscape:connector-curvature="0"
       id="path4543"
       d="m 56,509 c -1.108,0 -2,0.892 -2,2 V 512.46094 515 521.55469 523 c 0,1.108 0.892,2 2,2 H 56.488281 71.529297 72 c 1.108,0 2,-0.892 2,-2 V 521.53906 512.44531 511 c 0,-1.108 -0.892,-2 -2,-2 H 71.511719 60 56.470703 Z"
       style="display:inline;fill:#000000;fill-opacity:0.2;stroke:none;stroke-width:2;stroke-linecap:round;stroke-linejoin:round;stroke-miterlimit:4;stroke-dasharray:none;stroke-opacity:1;enable-background:new" />
    <path
       style="opacity:1;fill:#333a42;fill-opacity:1;stroke:none"
       d="m 54,522 c 0,1.108 0.892,2 2,2 h 16 c 1.108,0 2,-0.892 2,-2 v -12 c 0,-1.108 -0.892,-2 -2,-2 H 60 56 c -1.108,0 -2,0.892 -2,2 v 4 z"
       id="rect4555"
       inkscape:connector-curvature="0" />
    <rect
       ry="2.0000179"
       rx="2"
       y="512"
       x="16"
       height="16"
       width="16"
       id="rect4630-7-2"
       style="display:inline;fill:#404752;fill-opacity:1;fill-rule:evenodd;stroke:none;stroke-width:4.86648273px;stroke-linecap:butt;stroke-linejoin:miter;stroke-opacity:1;enable-background:new" />
    <path
       inkscape:connector-curvature="0"
       id="path4547"
       d="m 100,502 c -1.108,0 -2,0.892 -2,2 V 507.66211 510 518.33789 522 c 0,1.108 0.892,2 2,2 h 1.84961 20.32031 H 124 c 1.108,0 2,-0.892 2,-2 V 518.33789 507.66602 504 c 0,-1.108 -0.892,-2 -2,-2 H 122.14844 106 101.83008 Z"
       style="display:inline;fill:#000000;fill-opacity:0.2;stroke:none;stroke-width:2;stroke-linecap:round;stroke-linejoin:round;stroke-miterlimit:4;stroke-dasharray:none;stroke-opacity:1;enable-background:new" />
    <path
       style="opacity:1;fill:#333a42;fill-opacity:1;stroke:none"
       d="m 98,521 c 0,1.108 0.892,2 2,2 h 24 c 1.108,0 2,-0.892 2,-2 v -18 c 0,-1.108 -0.892,-2 -2,-2 h -18 -6 c -1.108,0 -2,0.892 -2,2 v 6 z"
       id="rect4526"
       inkscape:connector-curvature="0" />
    <path
       style="display:inline;fill:#000000;fill-opacity:0.2;stroke:none;stroke-width:16;stroke-linecap:round;stroke-linejoin:round;stroke-miterlimit:4;stroke-dasharray:none;stroke-opacity:1;enable-background:new;filter:url(#filter4579)"
       d="m 344,98 c -13.296,0 -24,10.704 -24,24 V 188.5918 359.37695 426 c 0,13.296 10.704,24 24,24 H 381.62891 706.70703 744 c 13.296,0 24,-10.704 24,-24 V 359.39648 188.6543 122 C 768,108.704 757.296,98 744,98 H 706.36719 381.28711 Z"
       id="path4573"
       inkscape:connector-curvature="0" />
    <path
       inkscape:connector-curvature="0"
       id="path4569"
       d="m 344,98 c -13.296,0 -24,10.704 -24,24 V 188.5918 359.37695 426 c 0,13.296 10.704,24 24,24 H 381.62891 706.70703 744 c 13.296,0 24,-10.704 24,-24 V 359.39648 188.6543 122 C 768,108.704 757.296,98 744,98 H 706.36719 381.28711 Z"
       style="display:inline;fill:#000000;fill-opacity:0.2;stroke:none;stroke-width:16;stroke-linecap:round;stroke-linejoin:round;stroke-miterlimit:4;stroke-dasharray:none;stroke-opacity:1;enable-background:new" />
    <rect
       style="opacity:1;fill:#333a42;fill-opacity:1;stroke:none;stroke-width:1.00622773"
       id="rect4609"
       width="352"
       height="448"
       x="-448"
       y="320"
       rx="24"
       ry="24"
       transform="rotate(-90)" />
    <path
       id="path4616"
       d="m 320,122 v -2 c 0,-13.296 10.704,-24 24,-24 h 400 c 13.296,0 24,10.704 24,24 v 2 C 768,108.704 757.296,98 744,98 H 344 c -13.296,0 -24,10.704 -24,24 z"
       style="opacity:1;fill:#ffffff;fill-opacity:0.2;stroke:none;stroke-width:1.00622773"
       inkscape:connector-curvature="0" />
    <path
       id="path4624"
       d="m 148,492 v -1 c 0,-1.662 1.338,-3 3,-3 h 34 c 1.662,0 3,1.338 3,3 v 1 c 0,-1.662 -1.338,-3 -3,-3 h -34 c -1.662,0 -3,1.338 -3,3 z"
       style="opacity:1;fill:#ffffff;fill-opacity:0.2;stroke:none"
       inkscape:connector-curvature="0" />
    <path
       id="path4631"
       d="m 98,504 v -1 c 0,-1.108 0.892,-2 2,-2 h 24 c 1.108,0 2,0.892 2,2 v 1 c 0,-1.108 -0.892,-2 -2,-2 h -24 c -1.108,0 -2,0.892 -2,2 z"
       style="opacity:1;fill:#ffffff;fill-opacity:0.2;stroke:none"
       inkscape:connector-curvature="0" />
    <path
       id="path4638"
       d="m 54,511 v -1 c 0,-1.108 0.892,-2 2,-2 h 16 c 1.108,0 2,0.892 2,2 v 1 c 0,-1.108 -0.892,-2 -2,-2 H 56 c -1.108,0 -2,0.892 -2,2 z"
       style="opacity:1;fill:#ffffff;fill-opacity:0.2;stroke:none"
       inkscape:connector-curvature="0" />
    <path
       style="display:inline;fill:url(#linearGradient4171-1-0);fill-opacity:1;stroke:none;stroke-width:2;stroke-linecap:round;stroke-linejoin:round;stroke-miterlimit:4;stroke-dasharray:none;stroke-opacity:1;enable-background:new"
       d="m 151,488 c -1.662,0 -3,1.338 -3,3 V 494.91992 500 513.11133 517 c 0,1.662 1.338,3 3,3 h 1.97266 30.08593 H 185 c 1.662,0 3,-1.338 3,-3 V 513.07812 494.89258 491 c 0,-1.662 -1.338,-3 -3,-3 H 183.02734 160 152.94141 Z"
       id="circle4163-3-4"
       inkscape:connector-curvature="0" />
    <path
       style="display:inline;fill:url(#linearGradient4347);fill-opacity:1;stroke:none;stroke-width:2;stroke-linecap:round;stroke-linejoin:round;stroke-miterlimit:4;stroke-dasharray:none;stroke-opacity:1;enable-background:new"
       d="m 56,508 c -1.108,0 -2,0.892 -2,2 V 511.46094 514 520.55469 522 c 0,1.108 0.892,2 2,2 H 56.488281 71.529297 72 c 1.108,0 2,-0.892 2,-2 V 520.53906 511.44531 510 c 0,-1.108 -0.892,-2 -2,-2 H 71.511719 60 56.470703 Z"
       id="path4345"
       inkscape:connector-curvature="0" />
    <path
       style="display:inline;fill:url(#linearGradient4435);fill-opacity:1;stroke:none;stroke-width:2;stroke-linecap:round;stroke-linejoin:round;stroke-miterlimit:4;stroke-dasharray:none;stroke-opacity:1;enable-background:new"
       d="m 100,501 c -1.108,0 -2,0.892 -2,2 V 506.66211 509 517.33789 521 c 0,1.108 0.892,2 2,2 h 1.84961 20.32031 H 124 c 1.108,0 2,-0.892 2,-2 V 517.33789 506.66602 503 c 0,-1.108 -0.892,-2 -2,-2 H 122.14844 106 101.83008 Z"
       id="path4433"
       inkscape:connector-curvature="0" />
    <path
       style="display:inline;fill:url(#linearGradient4449-0);fill-opacity:1;stroke:none;stroke-width:16;stroke-linecap:round;stroke-linejoin:round;stroke-miterlimit:4;stroke-dasharray:none;stroke-opacity:1;enable-background:new"
       d="m 344,96 c -13.296,0 -24,10.704 -24,24 V 186.5918 357.37695 424 c 0,13.296 10.704,24 24,24 H 381.62891 706.70703 744 c 13.296,0 24,-10.704 24,-24 V 357.39648 186.6543 120 C 768,106.704 757.296,96 744,96 H 706.36719 381.28711 Z"
       id="path4447"
       inkscape:connector-curvature="0" />
    <path
       style="display:inline;fill:#000000;fill-opacity:0.2;stroke:none;stroke-width:2;stroke-linecap:round;stroke-linejoin:round;stroke-miterlimit:4;stroke-dasharray:none;stroke-opacity:1;enable-background:new;filter:url(#filter4565)"
       d="m 215,475 c -1.662,0 -3,1.338 -3,3 v 8.32398 21.34814 V 516 c 0,1.662 1.338,3 3,3 h 4.70361 40.63477 H 265 c 1.662,0 3,-1.338 3,-3 V 507.67456 486.33179 478 c 0,-1.662 -1.338,-3 -3,-3 h -4.7041 -40.63501 z"
       id="path4561"
       inkscape:connector-curvature="0" />
    <rect
       transform="rotate(-90)"
       ry="3"
       rx="3"
       y="212"
       x="-518"
       height="56"
       width="44"
       id="rect4527"
       style="opacity:1;fill:#333a42;fill-opacity:1;stroke:none;stroke-width:0.12577847" />
    <path
       inkscape:connector-curvature="0"
       id="path4533"
       d="m 215,474 c -1.662,0 -3,1.338 -3,3 v 8.32398 21.34814 V 515 c 0,1.662 1.338,3 3,3 h 4.70361 40.63477 H 265 c 1.662,0 3,-1.338 3,-3 V 506.67456 485.33179 477 c 0,-1.662 -1.338,-3 -3,-3 h -4.7041 -40.63501 z"
       style="display:inline;fill:url(#linearGradient4535);fill-opacity:1;stroke:none;stroke-width:2;stroke-linecap:round;stroke-linejoin:round;stroke-miterlimit:4;stroke-dasharray:none;stroke-opacity:1;enable-background:new" />
    <path
       style="opacity:1;fill:#ffffff;fill-opacity:0.2;stroke:none;stroke-width:0.12577847"
       d="M 215 474 C 213.338 474 212 475.338 212 477 L 212 478 C 212 476.338 213.338 475 215 475 L 265 475 C 266.662 475 268 476.338 268 478 L 268 477 C 268 475.338 266.662 474 265 474 L 215 474 z "
       id="rect4537" />
    <path
       sodipodi:nodetypes="cccccccc"
       inkscape:connector-curvature="0"
       id="path4880"
       d="m 183.01424,507.0007 h -5 l -4,-4e-4 v -4e-4 l -4,-11.9996 -5,20 -3,-11 -9,4e-4"
       style="display:inline;fill:none;fill-rule:evenodd;stroke:#000000;stroke-width:2;stroke-linecap:round;stroke-linejoin:round;stroke-miterlimit:4;stroke-dasharray:none;stroke-opacity:0.2;enable-background:new" />
    <path
       style="color:#000000;font-style:normal;font-variant:normal;font-weight:normal;font-stretch:normal;font-size:medium;line-height:normal;font-family:sans-serif;font-variant-ligatures:normal;font-variant-position:normal;font-variant-caps:normal;font-variant-numeric:normal;font-variant-alternates:normal;font-feature-settings:normal;text-indent:0;text-align:start;text-decoration:none;text-decoration-line:none;text-decoration-style:solid;text-decoration-color:#000000;letter-spacing:normal;word-spacing:normal;text-transform:none;writing-mode:lr-tb;direction:ltr;text-orientation:mixed;dominant-baseline:auto;baseline-shift:baseline;text-anchor:start;white-space:normal;shape-padding:0;clip-rule:nonzero;display:inline;overflow:visible;visibility:visible;opacity:1;isolation:auto;mix-blend-mode:normal;color-interpolation:sRGB;color-interpolation-filters:linearRGB;solid-color:#000000;solid-opacity:1;vector-effect:none;fill:#00c853;fill-opacity:1;fill-rule:evenodd;stroke:none;stroke-width:2;stroke-linecap:round;stroke-linejoin:round;stroke-miterlimit:4;stroke-dasharray:none;stroke-dashoffset:0;stroke-opacity:1;color-rendering:auto;image-rendering:auto;shape-rendering:auto;text-rendering:auto;enable-background:new"
       d="m 169.96289,493.00195 a 1.0001,1.0001 0 0 0 -0.91797,0.75586 l -4.07226,16.28907 -1.99414,-7.31055 A 1.0001,1.0001 0 0 0 162.01367,502 h -9 a 1.0001,1.0001 0 1 0 0,2 H 161.25 l 2.79883,10.26367 a 1.0001,1.0001 0 0 0 1.93555,-0.0215 l 4.16796,-16.66992 2.86133,8.58984 V 506 a 1.0001,1.0001 0 0 0 1,1 h 4 5 a 1.0001,1.0001 0 1 0 0,-2 h -5 H 176 h -0.98633 -0.27929 l -3.77149,-11.31641 a 1.0001,1.0001 0 0 0 -1,-0.68164 z"
       id="path4158"
       inkscape:connector-curvature="0" />
    <path
       style="display:inline;fill:none;fill-rule:evenodd;stroke:#000000;stroke-width:1.00002515;stroke-linecap:round;stroke-linejoin:round;stroke-miterlimit:4;stroke-dasharray:none;stroke-opacity:0.2;enable-background:new"
       d="m 71.507518,517.50014 h -2.50006 l -2.00005,-2e-4 v 10e-5 l -2.00006,-5.5001 -2.500064,10.0002 -1.50004,-5.5001 -4.50011,2e-4"
       id="path4557"
       inkscape:connector-curvature="0"
       sodipodi:nodetypes="cccccccc" />
    <path
       sodipodi:nodetypes="cccccccc"
       inkscape:connector-curvature="0"
       id="path4265"
       d="m 71.507518,516.50014 h -2.50006 l -2.00005,-2e-4 v 10e-5 l -2.00006,-5.5001 -2.500064,10.0002 -1.50004,-5.5001 -4.50011,2e-4"
       style="display:inline;fill:none;fill-rule:evenodd;stroke:#00c853;stroke-width:1.00002515;stroke-linecap:round;stroke-linejoin:round;stroke-miterlimit:4;stroke-dasharray:none;stroke-opacity:1;enable-background:new" />
    <path
       style="display:inline;fill:none;fill-rule:evenodd;stroke:#00c853;stroke-width:1.00002515;stroke-linecap:round;stroke-linejoin:round;stroke-miterlimit:4;stroke-dasharray:none;stroke-opacity:1;enable-background:new"
       d="m 31.507514,520.50014 h -2.50006 l -2.00005,-2e-4 v 10e-5 l -2.00006,-5.5001 -2.50006,10.0002 -1.50004,-5.5001 -4.50011,2e-4"
       id="path4301"
       inkscape:connector-curvature="0"
       sodipodi:nodetypes="cccccccc"
       inkscape:export-filename="/home/peter/Bureaublad/utilities-system-monitor.png"
       inkscape:export-xdpi="90"
       inkscape:export-ydpi="90" />
    <path
       style="display:inline;fill:none;fill-rule:evenodd;stroke:#000000;stroke-width:1;stroke-linecap:round;stroke-linejoin:round;stroke-miterlimit:4;stroke-dasharray:none;stroke-opacity:0.2;enable-background:new"
       d="m 123.2613,513.60015 h -3.7501 l -3.00008,-4e-4 v 2e-4 l -3.0001,-8.0502 -3.75009,15.0004 -2.25006,-8.0504 -6.75016,4e-4"
       id="path4559"
       inkscape:connector-curvature="0"
       sodipodi:nodetypes="cccccccc" />
    <path
       sodipodi:nodetypes="cccccccc"
       inkscape:connector-curvature="0"
       id="path4303"
       d="m 123.2613,512.60024 h -3.7501 l -3.00008,-4e-4 v 2e-4 l -3.0001,-8.0502 -3.75009,15.0004 -2.25006,-8.0504 -6.75016,4e-4"
       style="display:inline;fill:none;fill-rule:evenodd;stroke:#00c853;stroke-width:1;stroke-linecap:round;stroke-linejoin:round;stroke-miterlimit:4;stroke-dasharray:none;stroke-opacity:1;enable-background:new" />
    <path
       sodipodi:nodetypes="cccccccc"
       inkscape:connector-curvature="0"
       id="path4896"
       d="m 262.52263,497.50103 h -7.50022 l -6.00017,-0.001 v 0 l -6.00021,-16.00014 -7.50018,30.00054 -4.50013,-16.0008 -13.50035,8e-4"
       style="display:inline;fill:none;fill-rule:evenodd;stroke:#000000;stroke-width:3;stroke-linecap:round;stroke-linejoin:round;stroke-miterlimit:4;stroke-dasharray:none;stroke-opacity:0.2;enable-background:new" />
    <path
       style="display:inline;fill:none;fill-rule:evenodd;stroke:#00c853;stroke-width:3;stroke-linecap:round;stroke-linejoin:round;stroke-miterlimit:4;stroke-dasharray:none;stroke-opacity:1;enable-background:new"
       d="m 262.52263,496.50104 h -7.50022 l -6.00017,-10e-4 v 0 l -6.00021,-16.00014 -7.50018,30.00054 -4.50013,-16.0008 -13.50035,8e-4"
       id="path4375"
       inkscape:connector-curvature="0"
       sodipodi:nodetypes="cccccccc" />
    <path
       style="color:#000000;font-style:normal;font-variant:normal;font-weight:normal;font-stretch:normal;font-size:medium;line-height:normal;font-family:sans-serif;font-variant-ligatures:normal;font-variant-position:normal;font-variant-caps:normal;font-variant-numeric:normal;font-variant-alternates:normal;font-feature-settings:normal;text-indent:0;text-align:start;text-decoration:none;text-decoration-line:none;text-decoration-style:solid;text-decoration-color:#000000;letter-spacing:normal;word-spacing:normal;text-transform:none;writing-mode:lr-tb;direction:ltr;text-orientation:mixed;dominant-baseline:auto;baseline-shift:baseline;text-anchor:start;white-space:normal;shape-padding:0;clip-rule:nonzero;display:inline;overflow:visible;visibility:visible;opacity:1;isolation:auto;mix-blend-mode:normal;color-interpolation:sRGB;color-interpolation-filters:linearRGB;solid-color:#000000;solid-opacity:1;vector-effect:none;fill:#ffffff;fill-opacity:0.2;fill-rule:evenodd;stroke:none;stroke-width:2;stroke-linecap:round;stroke-linejoin:round;stroke-miterlimit:4;stroke-dasharray:none;stroke-dashoffset:0;stroke-opacity:1;color-rendering:auto;image-rendering:auto;shape-rendering:auto;text-rendering:auto;enable-background:new"
       d="M 169.96289 493.00195 A 1.0001 1.0001 0 0 0 169.04492 493.75781 L 164.97266 510.04688 L 162.97852 502.73633 A 1.0001 1.0001 0 0 0 162.01367 502 L 153.01367 502 A 1.0001 1.0001 0 0 0 152.13477 503.5 A 1.0001 1.0001 0 0 1 153.01367 503 L 162.01367 503 A 1.0001 1.0001 0 0 1 162.97852 503.73633 L 164.97266 511.04688 L 169.04492 494.75781 A 1.0001 1.0001 0 0 1 169.96289 494.00195 A 1.0001 1.0001 0 0 1 170.96289 494.68359 L 174.73438 506 L 175.01367 506 L 176 506 L 178.01367 506 L 183.01367 506 A 1.0001 1.0001 0 0 1 183.89258 506.5 A 1.0001 1.0001 0 0 0 183.01367 505 L 178.01367 505 L 176 505 L 175.01367 505 L 174.73438 505 L 170.96289 493.68359 A 1.0001 1.0001 0 0 0 169.96289 493.00195 z "
       id="path4891" />
    <path
       style="color:#000000;font-style:normal;font-variant:normal;font-weight:normal;font-stretch:normal;font-size:medium;line-height:normal;font-family:sans-serif;font-variant-ligatures:normal;font-variant-position:normal;font-variant-caps:normal;font-variant-numeric:normal;font-variant-alternates:normal;font-feature-settings:normal;text-indent:0;text-align:start;text-decoration:none;text-decoration-line:none;text-decoration-style:solid;text-decoration-color:#000000;letter-spacing:normal;word-spacing:normal;text-transform:none;writing-mode:lr-tb;direction:ltr;text-orientation:mixed;dominant-baseline:auto;baseline-shift:baseline;text-anchor:start;white-space:normal;shape-padding:0;clip-rule:nonzero;display:inline;overflow:visible;visibility:visible;opacity:1;isolation:auto;mix-blend-mode:normal;color-interpolation:sRGB;color-interpolation-filters:linearRGB;solid-color:#000000;solid-opacity:1;vector-effect:none;fill:#ffffff;fill-opacity:0.2;fill-rule:evenodd;stroke:none;stroke-width:3;stroke-linecap:round;stroke-linejoin:round;stroke-miterlimit:4;stroke-dasharray:none;stroke-dashoffset:0;stroke-opacity:1;color-rendering:auto;image-rendering:auto;shape-rendering:auto;text-rendering:auto;enable-background:new"
       d="M 243.03906 479 A 1.50015 1.50015 0 0 0 241.56641 480.13672 L 235.4375 504.65625 L 232.46484 494.09375 A 1.50015 1.50015 0 0 0 231.02148 493 L 217.52148 493 A 1.50015 1.50015 0 0 0 216.08789 495.00195 A 1.50015 1.50015 0 0 1 217.52148 494.00195 L 231.02148 494.00195 A 1.50015 1.50015 0 0 1 232.46484 495.0957 L 235.4375 505.6582 L 241.56641 481.13867 A 1.50015 1.50015 0 0 1 243.03906 480.00195 A 1.50015 1.50015 0 0 1 244.42578 480.97461 L 250.0625 496.00195 L 255.02344 496.00391 L 262.52344 496.00391 A 1.50015 1.50015 0 0 1 263.95703 497.00195 A 1.50015 1.50015 0 0 0 262.52344 495.00195 L 255.02344 495.00195 L 250.0625 495 L 244.42578 479.97266 A 1.50015 1.50015 0 0 0 243.03906 479 z "
       id="path4898" />
    <path
       style="display:inline;fill:none;fill-rule:evenodd;stroke:#000000;stroke-width:24;stroke-linecap:round;stroke-linejoin:round;stroke-miterlimit:4;stroke-dasharray:none;stroke-opacity:0.2;enable-background:new"
       d="m 724.18104,278.00845 h -60.00176 l -48.00136,-0.008 v 0 l -48.00168,-128.00112 -60.00144,240.00432 -36.00104,-128.0064 -108.0028,0.006"
       id="path4917"
       inkscape:connector-curvature="0"
       sodipodi:nodetypes="cccccccc" />
    <path
       sodipodi:nodetypes="cccccccc"
       inkscape:connector-curvature="0"
       id="path4919"
       d="m 724.18104,276.00853 h -60.00176 l -48.00136,-0.008 v 0 l -48.00168,-128.00112 -60.00144,240.00432 -36.00104,-128.0064 -108.0028,0.006"
       style="display:inline;fill:none;fill-rule:evenodd;stroke:#00c853;stroke-width:24;stroke-linecap:round;stroke-linejoin:round;stroke-miterlimit:4;stroke-dasharray:none;stroke-opacity:1;enable-background:new" />
    <path
       style="color:#000000;font-style:normal;font-variant:normal;font-weight:normal;font-stretch:normal;font-size:medium;line-height:normal;font-family:sans-serif;font-variant-ligatures:normal;font-variant-position:normal;font-variant-caps:normal;font-variant-numeric:normal;font-variant-alternates:normal;font-feature-settings:normal;text-indent:0;text-align:start;text-decoration:none;text-decoration-line:none;text-decoration-style:solid;text-decoration-color:#000000;letter-spacing:normal;word-spacing:normal;text-transform:none;writing-mode:lr-tb;direction:ltr;text-orientation:mixed;dominant-baseline:auto;baseline-shift:baseline;text-anchor:start;white-space:normal;shape-padding:0;clip-rule:nonzero;display:inline;overflow:visible;visibility:visible;opacity:1;isolation:auto;mix-blend-mode:normal;color-interpolation:sRGB;color-interpolation-filters:linearRGB;solid-color:#000000;solid-opacity:1;vector-effect:none;fill:#ffffff;fill-opacity:0.2;fill-rule:evenodd;stroke:none;stroke-width:24;stroke-linecap:round;stroke-linejoin:round;stroke-miterlimit:4;stroke-dasharray:none;stroke-dashoffset:0;stroke-opacity:1;color-rendering:auto;image-rendering:auto;shape-rendering:auto;text-rendering:auto;enable-background:new"
       d="M 568.31641 136.00391 A 12.0012 12.0012 0 0 0 556.53516 145.08984 L 507.49219 341.25586 L 483.72656 256.74805 A 12.0012 12.0012 0 0 0 472.17383 247.99805 L 364.16992 248.00391 A 12.0012 12.0012 0 0 0 352.05078 260.93164 A 12.0012 12.0012 0 0 1 364.16992 250.00391 L 472.17383 249.99805 A 12.0012 12.0012 0 0 1 483.72656 258.74805 L 507.49219 343.25586 L 556.53516 147.08984 A 12.0012 12.0012 0 0 1 568.31641 138.00391 A 12.0012 12.0012 0 0 1 579.41211 145.78516 L 624.49414 266.00195 L 664.17969 266.00781 L 724.18164 266.00781 A 12.0012 12.0012 0 0 1 736.30273 277.07227 A 12.0012 12.0012 0 0 0 724.18164 264.00781 L 664.17969 264.00781 L 624.49414 264.00195 L 579.41211 143.78516 A 12.0012 12.0012 0 0 0 568.31641 136.00391 z "
       id="path4923" />
  </g>
</svg>
