<?xml version="1.0" encoding="UTF-8" standalone="no"?>
<!-- Created with Inkscape (http://www.inkscape.org/) -->

<svg
   xmlns:dc="http://purl.org/dc/elements/1.1/"
   xmlns:cc="http://creativecommons.org/ns#"
   xmlns:rdf="http://www.w3.org/1999/02/22-rdf-syntax-ns#"
   xmlns:svg="http://www.w3.org/2000/svg"
   xmlns="http://www.w3.org/2000/svg"
   xmlns:xlink="http://www.w3.org/1999/xlink"
   xmlns:sodipodi="http://sodipodi.sourceforge.net/DTD/sodipodi-0.dtd"
   xmlns:inkscape="http://www.inkscape.org/namespaces/inkscape"
   width="816"
   height="544"
   viewBox="0 0 816 544"
   version="1.1"
   id="svg1087"
   inkscape:version="0.92.1 r"
   sodipodi:docname="virtualbox.svg">
  <defs
     id="defs1081">
    <linearGradient
       id="linearGradient4540"
       inkscape:collect="always">
      <stop
         id="stop4536"
         offset="0"
         style="stop-color:#ffffff;stop-opacity:0.05490196" />
      <stop
         id="stop4538"
         offset="1"
         style="stop-color:#177ed5;stop-opacity:0;" />
    </linearGradient>
    <linearGradient
       id="linearGradient4534"
       inkscape:collect="always">
      <stop
         id="stop4530"
         offset="0"
         style="stop-color:#ffffff;stop-opacity:0.05490196" />
      <stop
         id="stop4532"
         offset="1"
         style="stop-color:#177ed5;stop-opacity:0;" />
    </linearGradient>
    <filter
       inkscape:collect="always"
       style="color-interpolation-filters:sRGB"
       id="filter5087"
       x="-0.048"
       width="1.096"
       y="-0.048"
       height="1.096">
      <feGaussianBlur
         inkscape:collect="always"
         stdDeviation="0.8"
         id="feGaussianBlur5089" />
    </filter>
    <linearGradient
       inkscape:collect="always"
       xlink:href="#linearGradient4534"
       id="linearGradient4347"
       gradientUnits="userSpaceOnUse"
       gradientTransform="matrix(0.47825838,0,0,0.47826068,52.52174,24.17493)"
       x1="7"
       y1="1011.3622"
       x2="41.000019"
       y2="1045.3622" />
    <linearGradient
       inkscape:collect="always"
       id="linearGradient4165">
      <stop
         style="stop-color:#ffffff;stop-opacity:0.05490196"
         offset="0"
         id="stop4167" />
      <stop
         style="stop-color:#177ed5;stop-opacity:0;"
         offset="1"
         id="stop4169" />
    </linearGradient>
    <linearGradient
       inkscape:collect="always"
       xlink:href="#linearGradient4540"
       id="linearGradient4435"
       gradientUnits="userSpaceOnUse"
       gradientTransform="matrix(0.65217041,0,0,0.65217328,96.34783,-158.67016)"
       x1="7"
       y1="1011.3622"
       x2="41.000019"
       y2="1045.3622" />
    <linearGradient
       inkscape:collect="always"
       xlink:href="#linearGradient4165"
       id="linearGradient4171-1-0"
       x1="7"
       y1="1011.3622"
       x2="41.000019"
       y2="1045.3622"
       gradientUnits="userSpaceOnUse"
       gradientTransform="matrix(0.95652174,0,0,0.95652174,145.04349,-479.6504)" />
    <linearGradient
       inkscape:collect="always"
       xlink:href="#linearGradient4165-3"
       id="linearGradient4449-0"
       gradientUnits="userSpaceOnUse"
       gradientTransform="matrix(10.43473,0,0,10.434772,293.56521,-10458.721)"
       x1="7"
       y1="1011.3622"
       x2="41.000019"
       y2="1045.3622" />
    <linearGradient
       inkscape:collect="always"
       id="linearGradient4165-3">
      <stop
         style="stop-color:#ffffff;stop-opacity:0.05490196"
         offset="0"
         id="stop4167-6" />
      <stop
         style="stop-color:#177ed5;stop-opacity:0;"
         offset="1"
         id="stop4169-7" />
    </linearGradient>
    <linearGradient
       inkscape:collect="always"
       xlink:href="#linearGradient4165-3"
       id="linearGradient4535"
       gradientUnits="userSpaceOnUse"
       gradientTransform="matrix(1.3043412,0,0,1.3043465,208.69565,-845.3401)"
       x1="7"
       y1="1011.3622"
       x2="41.000019"
       y2="1045.3622" />
    <filter
       inkscape:collect="always"
       style="color-interpolation-filters:sRGB"
       id="filter4557"
       x="-0.0108"
       width="1.0216"
       y="-0.0135"
       height="1.027">
      <feGaussianBlur
         inkscape:collect="always"
         stdDeviation="0.18"
         id="feGaussianBlur4559" />
    </filter>
    <filter
       inkscape:collect="always"
       style="color-interpolation-filters:sRGB"
       id="filter4565"
       x="-0.010714286"
       width="1.0214286"
       y="-0.013636364"
       height="1.0272727">
      <feGaussianBlur
         inkscape:collect="always"
         stdDeviation="0.25"
         id="feGaussianBlur4567" />
    </filter>
    <filter
       inkscape:collect="always"
       style="color-interpolation-filters:sRGB"
       id="filter4579"
       x="-0.021428571"
       width="1.0428571"
       y="-0.027272727"
       height="1.0545455">
      <feGaussianBlur
         inkscape:collect="always"
         stdDeviation="4"
         id="feGaussianBlur4581" />
    </filter>
    <filter
       inkscape:collect="always"
       style="color-interpolation-filters:sRGB"
       id="filter4920"
       x="-0.010124568"
       width="1.0202491"
       y="-0.014728188"
       height="1.0294564">
      <feGaussianBlur
         inkscape:collect="always"
         stdDeviation="0.18000604"
         id="feGaussianBlur4922" />
    </filter>
    <filter
       inkscape:collect="always"
       style="color-interpolation-filters:sRGB"
       id="filter4929"
       x="-0.010121535"
       width="1.0202431"
       y="-0.014734611"
       height="1.0294692">
      <feGaussianBlur
         inkscape:collect="always"
         stdDeviation="0.13507393"
         id="feGaussianBlur4931" />
    </filter>
    <filter
       inkscape:collect="always"
       style="color-interpolation-filters:sRGB"
       id="filter4967"
       x="-0.020249135"
       width="1.0404983"
       y="-0.029456375"
       height="1.0589128">
      <feGaussianBlur
         inkscape:collect="always"
         stdDeviation="2.8800966"
         id="feGaussianBlur4969" />
    </filter>
  </defs>
  <sodipodi:namedview
     id="base"
     pagecolor="#c3c3c3"
     bordercolor="#333333"
     borderopacity="1"
     inkscape:pageopacity="0"
     inkscape:pageshadow="2"
     inkscape:zoom="0.175"
     inkscape:cx="-292.89612"
     inkscape:cy="-1596.0348"
     inkscape:document-units="px"
     inkscape:current-layer="layer2"
     showgrid="false"
     units="px"
     inkscape:showpageshadow="false"
     inkscape:window-width="1280"
     inkscape:window-height="1370"
     inkscape:window-x="0"
     inkscape:window-y="34"
     inkscape:window-maximized="0">
    <inkscape:grid
       type="xygrid"
       id="grid4630" />
  </sodipodi:namedview>
  <metadata
     id="metadata1084">
    <rdf:RDF>
      <cc:Work
         rdf:about="">
        <dc:format>image/svg+xml</dc:format>
        <dc:type
           rdf:resource="http://purl.org/dc/dcmitype/StillImage" />
        <dc:title></dc:title>
        <cc:license
           rdf:resource="http://creativecommons.org/licenses/by-sa/4.0/" />
        <dc:creator>
          <cc:Agent>
            <dc:title>Peter Cornelis</dc:title>
          </cc:Agent>
        </dc:creator>
      </cc:Work>
      <cc:License
         rdf:about="http://creativecommons.org/licenses/by-sa/4.0/">
        <cc:permits
           rdf:resource="http://creativecommons.org/ns#Reproduction" />
        <cc:permits
           rdf:resource="http://creativecommons.org/ns#Distribution" />
        <cc:requires
           rdf:resource="http://creativecommons.org/ns#Notice" />
        <cc:requires
           rdf:resource="http://creativecommons.org/ns#Attribution" />
        <cc:permits
           rdf:resource="http://creativecommons.org/ns#DerivativeWorks" />
        <cc:requires
           rdf:resource="http://creativecommons.org/ns#ShareAlike" />
      </cc:License>
    </rdf:RDF>
  </metadata>
  <g
     inkscape:label="Baseplate"
     inkscape:groupmode="layer"
     id="layer1"
     transform="translate(0,-153.06668)"
     style="display:none">
    <rect
       style="display:inline;overflow:visible;visibility:visible;fill:#fefefe;fill-opacity:1;fill-rule:nonzero;stroke:none;stroke-width:2;marker:none;enable-background:accumulate"
       id="rect3951"
       width="512"
       height="512"
       x="-800"
       y="169.06668"
       inkscape:label="48x48"
       transform="scale(-1,1)" />
    <text
       y="733.32251"
       xml:space="preserve"
       x="15.006836"
       style="font-style:normal;font-variant:normal;font-weight:normal;font-stretch:normal;line-height:0%;font-family:'DejaVu Sans';-inkscape-font-specification:'DejaVu Sans';display:inline;fill:#000000;fill-opacity:1;stroke:none;enable-background:new"
       inkscape:label="context"
       id="context"><tspan
         style="font-style:normal;font-variant:normal;font-weight:normal;font-stretch:normal;font-size:18px;line-height:1.25;font-family:'DejaVu Sans';-inkscape-font-specification:'DejaVu Sans'"
         y="733.32251"
         x="15.006836"
         sodipodi:role="line"
         id="tspan3933">apps</tspan></text>
    <text
       y="733.32251"
       xml:space="preserve"
       x="142.48828"
       style="font-style:normal;font-variant:normal;font-weight:bold;font-stretch:normal;line-height:0%;font-family:'DejaVu Sans';-inkscape-font-specification:'DejaVu Sans Bold';text-align:start;writing-mode:lr-tb;text-anchor:start;display:inline;fill:#000000;fill-opacity:1;stroke:none;enable-background:new"
       inkscape:label="icon-name"
       id="icon-name"><tspan
         style="font-style:normal;font-variant:normal;font-weight:bold;font-stretch:normal;font-size:18px;line-height:1.25;font-family:'DejaVu Sans';-inkscape-font-specification:'DejaVu Sans Bold'"
         y="733.32251"
         x="142.48828"
         sodipodi:role="line"
         id="tspan3937">virtualbox</tspan></text>
    <rect
       style="display:inline;overflow:visible;visibility:visible;fill:#fefefe;fill-opacity:1;fill-rule:nonzero;stroke:none;stroke-width:2;marker:none;enable-background:accumulate"
       id="rect16x16"
       width="16"
       height="16"
       x="-32"
       y="665.06665"
       inkscape:label="16x16"
       transform="scale(-1,1)" />
    <rect
       style="display:inline;overflow:visible;visibility:visible;fill:#fefefe;fill-opacity:1;fill-rule:nonzero;stroke:none;stroke-width:2;marker:none;enable-background:accumulate"
       id="rect24x24"
       width="24"
       height="24"
       x="-76"
       y="657.06665"
       inkscape:label="24x24"
       transform="scale(-1,1)" />
    <rect
       style="display:inline;overflow:visible;visibility:visible;fill:#fefefe;fill-opacity:1;fill-rule:nonzero;stroke:none;stroke-width:2;marker:none;enable-background:accumulate"
       id="rect32x32"
       width="32"
       height="32"
       x="-128"
       y="649.06665"
       inkscape:label="32x32"
       transform="scale(-1,1)" />
    <rect
       inkscape:label="48x48"
       y="633.06665"
       x="-192"
       height="48"
       width="48"
       id="rect48x48"
       style="display:inline;overflow:visible;visibility:visible;fill:#fefefe;fill-opacity:1;fill-rule:nonzero;stroke:none;stroke-width:2;marker:none;enable-background:accumulate"
       transform="scale(-1,1)" />
    <rect
       transform="scale(-1,1)"
       inkscape:label="48x48"
       y="617.06665"
       x="-272"
       height="64"
       width="64"
       id="rect4524"
       style="display:inline;overflow:visible;visibility:visible;fill:#fefefe;fill-opacity:1;fill-rule:nonzero;stroke:none;stroke-width:0.25;marker:none;enable-background:accumulate" />
  </g>
  <g
     inkscape:groupmode="layer"
     id="layer2"
     inkscape:label="Bitmap"
     style="display:inline">
    <path
       inkscape:connector-curvature="0"
       id="path4553"
       d="m 151,489 c -1.662,0 -3,1.338 -3,3 V 495.91992 501 514.11133 518 c 0,1.662 1.338,3 3,3 h 1.97266 30.08593 H 185 c 1.662,0 3,-1.338 3,-3 V 514.07812 495.89258 492 c 0,-1.662 -1.338,-3 -3,-3 H 183.02734 160 152.94141 Z"
       style="display:inline;fill:#000000;fill-opacity:0.2;stroke:none;stroke-width:2;stroke-linecap:round;stroke-linejoin:round;stroke-miterlimit:4;stroke-dasharray:none;stroke-opacity:1;enable-background:new;filter:url(#filter4557)" />
    <path
       sodipodi:nodetypes="sscsscsscsscs"
       inkscape:connector-curvature="0"
       id="path5069"
       d="m 143,485 c -1.66505,0 -3,1.2912 -3,3 v 17 17 c 0,1.8617 1.34224,3 3,3 h 17 17 c 1.73784,0 3,-1.2767 3,-3 v -17 -17 c 0,-1.6942 -1.29127,-3 -3,-3 h -17 z"
       style="display:inline;fill:none;fill-opacity:0.5;stroke:none;stroke-width:2;stroke-linecap:round;stroke-linejoin:round;stroke-miterlimit:4;stroke-dasharray:none;stroke-opacity:1;filter:url(#filter5087);enable-background:new" />
    <path
       style="opacity:1;fill:#0288d1;fill-opacity:1;stroke:none"
       d="m 148,517 c 0,1.662 1.338,3 3,3 h 34 c 1.662,0 3,-1.338 3,-3 v -26 c 0,-1.662 -1.338,-3 -3,-3 h -25 -9 c -1.662,0 -3,1.338 -3,3 v 9 z"
       id="rect4648"
       inkscape:connector-curvature="0" />
    <path
       style="display:inline;fill:none;fill-opacity:0.5;stroke:none;stroke-width:2;stroke-linecap:round;stroke-linejoin:round;stroke-miterlimit:4;stroke-dasharray:none;stroke-opacity:1;filter:url(#filter5087);enable-background:new"
       d="m 143,485 c -1.66505,0 -3,1.2912 -3,3 v 17 17 c 0,1.8617 1.34224,3 3,3 h 17 17 c 1.73784,0 3,-1.2767 3,-3 v -17 -17 c 0,-1.6942 -1.29127,-3 -3,-3 h -17 z"
       id="path4506"
       inkscape:connector-curvature="0"
       sodipodi:nodetypes="sscsscsscsscs" />
    <path
       inkscape:connector-curvature="0"
       id="path4543"
       d="m 56,509 c -1.108,0 -2,0.892 -2,2 V 512.46094 515 521.55469 523 c 0,1.108 0.892,2 2,2 H 56.488281 71.529297 72 c 1.108,0 2,-0.892 2,-2 V 521.53906 512.44531 511 c 0,-1.108 -0.892,-2 -2,-2 H 71.511719 60 56.470703 Z"
       style="display:inline;fill:#000000;fill-opacity:0.2;stroke:none;stroke-width:2;stroke-linecap:round;stroke-linejoin:round;stroke-miterlimit:4;stroke-dasharray:none;stroke-opacity:1;enable-background:new" />
    <path
       style="opacity:1;fill:#0288d1;fill-opacity:1;stroke:none"
       d="m 54,522 c 0,1.108 0.892,2 2,2 h 16 c 1.108,0 2,-0.892 2,-2 v -12 c 0,-1.108 -0.892,-2 -2,-2 H 60 56 c -1.108,0 -2,0.892 -2,2 v 4 z"
       id="rect4555"
       inkscape:connector-curvature="0" />
    <rect
       ry="2.0000179"
       rx="2"
       y="512"
       x="16"
       height="16"
       width="16"
       id="rect4630-7-2"
       style="display:inline;fill:#0288d1;fill-opacity:1;fill-rule:evenodd;stroke:none;stroke-width:4.86648273px;stroke-linecap:butt;stroke-linejoin:miter;stroke-opacity:1;enable-background:new" />
    <path
       inkscape:connector-curvature="0"
       id="path4547"
       d="m 100,502 c -1.108,0 -2,0.892 -2,2 V 507.66211 510 518.33789 522 c 0,1.108 0.892,2 2,2 h 1.84961 20.32031 H 124 c 1.108,0 2,-0.892 2,-2 V 518.33789 507.66602 504 c 0,-1.108 -0.892,-2 -2,-2 H 122.14844 106 101.83008 Z"
       style="display:inline;fill:#000000;fill-opacity:0.2;stroke:none;stroke-width:2;stroke-linecap:round;stroke-linejoin:round;stroke-miterlimit:4;stroke-dasharray:none;stroke-opacity:1;enable-background:new" />
    <path
       style="opacity:1;fill:#0288d1;fill-opacity:1;stroke:none"
       d="m 98,521 c 0,1.108 0.892,2 2,2 h 24 c 1.108,0 2,-0.892 2,-2 v -18 c 0,-1.108 -0.892,-2 -2,-2 h -18 -6 c -1.108,0 -2,0.892 -2,2 v 6 z"
       id="rect4526"
       inkscape:connector-curvature="0" />
    <path
       style="display:inline;fill:#000000;fill-opacity:0.2;stroke:none;stroke-width:16;stroke-linecap:round;stroke-linejoin:round;stroke-miterlimit:4;stroke-dasharray:none;stroke-opacity:1;enable-background:new;filter:url(#filter4579)"
       d="m 344,98 c -13.296,0 -24,10.704 -24,24 V 188.5918 359.37695 426 c 0,13.296 10.704,24 24,24 H 381.62891 706.70703 744 c 13.296,0 24,-10.704 24,-24 V 359.39648 188.6543 122 C 768,108.704 757.296,98 744,98 H 706.36719 381.28711 Z"
       id="path4573"
       inkscape:connector-curvature="0" />
    <path
       inkscape:connector-curvature="0"
       id="path4569"
       d="m 344,98 c -13.296,0 -24,10.704 -24,24 V 188.5918 359.37695 426 c 0,13.296 10.704,24 24,24 H 381.62891 706.70703 744 c 13.296,0 24,-10.704 24,-24 V 359.39648 188.6543 122 C 768,108.704 757.296,98 744,98 H 706.36719 381.28711 Z"
       style="display:inline;fill:#000000;fill-opacity:0.2;stroke:none;stroke-width:16;stroke-linecap:round;stroke-linejoin:round;stroke-miterlimit:4;stroke-dasharray:none;stroke-opacity:1;enable-background:new" />
    <rect
       style="opacity:1;fill:#0288d1;fill-opacity:1;stroke:none;stroke-width:1.00622773"
       id="rect4609"
       width="352"
       height="448"
       x="-448"
       y="320"
       rx="24"
       ry="24"
       transform="rotate(-90)" />
    <path
       id="path4616"
       d="m 320,122 v -2 c 0,-13.296 10.704,-24 24,-24 h 400 c 13.296,0 24,10.704 24,24 v 2 C 768,108.704 757.296,98 744,98 H 344 c -13.296,0 -24,10.704 -24,24 z"
       style="opacity:1;fill:#ffffff;fill-opacity:0.2;stroke:none;stroke-width:1.00622773"
       inkscape:connector-curvature="0" />
    <path
       id="path4624"
       d="m 148,492 v -1 c 0,-1.662 1.338,-3 3,-3 h 34 c 1.662,0 3,1.338 3,3 v 1 c 0,-1.662 -1.338,-3 -3,-3 h -34 c -1.662,0 -3,1.338 -3,3 z"
       style="opacity:1;fill:#ffffff;fill-opacity:0.2;stroke:none"
       inkscape:connector-curvature="0" />
    <path
       id="path4631"
       d="m 98,504 v -1 c 0,-1.108 0.892,-2 2,-2 h 24 c 1.108,0 2,0.892 2,2 v 1 c 0,-1.108 -0.892,-2 -2,-2 h -24 c -1.108,0 -2,0.892 -2,2 z"
       style="opacity:1;fill:#ffffff;fill-opacity:0.2;stroke:none"
       inkscape:connector-curvature="0" />
    <path
       id="path4638"
       d="m 54,511 v -1 c 0,-1.108 0.892,-2 2,-2 h 16 c 1.108,0 2,0.892 2,2 v 1 c 0,-1.108 -0.892,-2 -2,-2 H 56 c -1.108,0 -2,0.892 -2,2 z"
       style="opacity:1;fill:#ffffff;fill-opacity:0.2;stroke:none"
       inkscape:connector-curvature="0" />
    <path
       style="display:inline;fill:url(#linearGradient4347);fill-opacity:1;stroke:none;stroke-width:2;stroke-linecap:round;stroke-linejoin:round;stroke-miterlimit:4;stroke-dasharray:none;stroke-opacity:1;enable-background:new"
       d="m 56,508 c -1.108,0 -2,0.892 -2,2 V 511.46094 514 520.55469 522 c 0,1.108 0.892,2 2,2 H 56.488281 71.529297 72 c 1.108,0 2,-0.892 2,-2 V 520.53906 511.44531 510 c 0,-1.108 -0.892,-2 -2,-2 H 71.511719 60 56.470703 Z"
       id="path4345"
       inkscape:connector-curvature="0" />
    <path
       style="display:inline;fill:#000000;fill-opacity:0.2;stroke:none;stroke-width:2;stroke-linecap:round;stroke-linejoin:round;stroke-miterlimit:4;stroke-dasharray:none;stroke-opacity:1;enable-background:new;filter:url(#filter4565)"
       d="m 215,475 c -1.662,0 -3,1.338 -3,3 v 8.32398 21.34814 V 516 c 0,1.662 1.338,3 3,3 h 4.70361 40.63477 H 265 c 1.662,0 3,-1.338 3,-3 V 507.67456 486.33179 478 c 0,-1.662 -1.338,-3 -3,-3 h -4.7041 -40.63501 z"
       id="path4561"
       inkscape:connector-curvature="0" />
    <rect
       transform="rotate(-90)"
       ry="3"
       rx="3"
       y="212"
       x="-518"
       height="56"
       width="44"
       id="rect4527"
       style="opacity:1;fill:#0288d1;fill-opacity:1;stroke:none;stroke-width:0.12577847" />
    <path
       style="opacity:1;fill:#ffffff;fill-opacity:0.2;stroke:none;stroke-width:0.12577847"
       d="M 215 474 C 213.338 474 212 475.338 212 477 L 212 478 C 212 476.338 213.338 475 215 475 L 265 475 C 266.662 475 268 476.338 268 478 L 268 477 C 268 475.338 266.662 474 265 474 L 215 474 z "
       id="rect4537" />
    <path
       style="display:inline;fill:none;fill-rule:evenodd;stroke:#f5f5f5;stroke-width:1.00002515;stroke-linecap:round;stroke-linejoin:round;stroke-miterlimit:4;stroke-dasharray:none;stroke-opacity:1;enable-background:new"
       d="m 31.507514,520.50014 h -2.50006 l -2.00005,-2e-4 v 10e-5 l -2.00006,-5.5001 -2.50006,10.0002 -1.50004,-5.5001 -4.50011,2e-4"
       id="path4301"
       inkscape:connector-curvature="0"
       sodipodi:nodetypes="cccccccc"
       inkscape:export-filename="/home/peter/Bureaublad/utilities-system-monitor.png"
       inkscape:export-xdpi="90"
       inkscape:export-ydpi="90" />
    <path
       style="color:#000000;font-style:normal;font-variant:normal;font-weight:normal;font-stretch:normal;font-size:medium;line-height:normal;font-family:sans-serif;font-variant-ligatures:normal;font-variant-position:normal;font-variant-caps:normal;font-variant-numeric:normal;font-variant-alternates:normal;font-feature-settings:normal;text-indent:0;text-align:start;text-decoration:none;text-decoration-line:none;text-decoration-style:solid;text-decoration-color:#000000;letter-spacing:normal;word-spacing:normal;text-transform:none;writing-mode:lr-tb;direction:ltr;text-orientation:mixed;dominant-baseline:auto;baseline-shift:baseline;text-anchor:start;white-space:normal;shape-padding:0;clip-rule:nonzero;display:inline;overflow:visible;visibility:visible;opacity:1;isolation:auto;mix-blend-mode:normal;color-interpolation:sRGB;color-interpolation-filters:linearRGB;solid-color:#000000;solid-opacity:1;vector-effect:none;fill:#000000;fill-opacity:0.2;fill-rule:evenodd;stroke:none;stroke-width:2;stroke-linecap:round;stroke-linejoin:round;stroke-miterlimit:4;stroke-dasharray:none;stroke-dashoffset:0;stroke-opacity:1;color-rendering:auto;image-rendering:auto;shape-rendering:auto;text-rendering:auto;enable-background:new;filter:url(#filter4929)"
       d="m 166.02344,494 a 1.0001,1.0001 0 0 0 -0.97852,0.75781 l -4.07226,16.28907 -1.99414,-7.31055 A 1.0001,1.0001 0 0 0 158.01367,503 h -5 a 1.0001,1.0001 0 1 0 0,2 H 157.25 l 2.79883,10.26367 a 1.0001,1.0001 0 0 0 1.93555,-0.0215 l 4.06054,-16.2461 3.00391,11.26172 a 1.0001,1.0001 0 0 0 1.93164,0 l 3.14062,-11.77734 2.94532,8.83594 A 1.0001,1.0001 0 0 0 178.01367,508 h 5 a 1.0001,1.0001 0 1 0 0,-2 h -4.27929 l -3.77149,-11.31641 a 1.0001,1.0001 0 0 0 -1.91406,0.0586 l -3.03321,11.3789 -3.03515,-11.3789 A 1.0001,1.0001 0 0 0 166.02344,494 Z"
       id="path4574"
       inkscape:connector-curvature="0" />
    <path
       sodipodi:nodetypes="cccccccc"
       inkscape:connector-curvature="0"
       id="path4432"
       d="m 183.01424,506.0004 h -5 l -4,-12 -4,15 -4,-15 -5,20 -3,-11 h -5"
       style="display:inline;fill:none;fill-rule:evenodd;stroke:#f5f5f5;stroke-width:2;stroke-linecap:round;stroke-linejoin:round;stroke-miterlimit:4;stroke-dasharray:none;stroke-opacity:1;enable-background:new" />
    <path
       style="display:inline;fill:url(#linearGradient4171-1-0);fill-opacity:1;stroke:none;stroke-width:2;stroke-linecap:round;stroke-linejoin:round;stroke-miterlimit:4;stroke-dasharray:none;stroke-opacity:1;enable-background:new"
       d="m 151,488 c -1.662,0 -3,1.338 -3,3 V 494.91992 500 513.11133 517 c 0,1.662 1.338,3 3,3 h 1.97266 30.08593 H 185 c 1.662,0 3,-1.338 3,-3 V 513.07812 494.89258 491 c 0,-1.662 -1.338,-3 -3,-3 H 183.02734 160 152.94141 Z"
       id="circle4163-3-4"
       inkscape:connector-curvature="0" />
    <path
       sodipodi:nodetypes="cccccccc"
       inkscape:connector-curvature="0"
       id="path4570"
       d="m 71.507861,518.00003 h -2.500119 l -2.000097,-6.00014 -2.000096,7.50018 -2.000098,-7.50018 -2.500119,10.00024 L 59.007257,516.5 h -2.500118"
       style="display:inline;fill:none;fill-rule:evenodd;stroke:#000000;stroke-width:1.00003588;stroke-linecap:round;stroke-linejoin:round;stroke-miterlimit:4;stroke-dasharray:none;stroke-opacity:0.2;enable-background:new" />
    <path
       style="display:inline;fill:none;fill-rule:evenodd;stroke:#f5f5f5;stroke-width:1.00003588;stroke-linecap:round;stroke-linejoin:round;stroke-miterlimit:4;stroke-dasharray:none;stroke-opacity:1;enable-background:new"
       d="m 71.507861,517.00003 h -2.500119 l -2.000097,-6.00014 -2.000096,7.50018 -2.000098,-7.50018 -2.500119,10.00024 L 59.007257,515.5 h -2.500118"
       id="path4455"
       inkscape:connector-curvature="0"
       sodipodi:nodetypes="cccccccc" />
    <path
       sodipodi:nodetypes="cccccccc"
       inkscape:connector-curvature="0"
       id="path4572"
       d="m 121.67585,513.99954 h -3.33328 l -2.66661,-7.99999 -2.66664,9.99999 -2.66664,-9.99999 -3.33329,13.33399 -1.99997,-7.334 h -3.33327"
       style="display:inline;fill:none;fill-rule:evenodd;stroke:#000000;stroke-width:1.33330905;stroke-linecap:round;stroke-linejoin:round;stroke-miterlimit:4;stroke-dasharray:none;stroke-opacity:0.2;enable-background:new" />
    <path
       style="display:inline;fill:none;fill-rule:evenodd;stroke:#f5f5f5;stroke-width:1.33330524;stroke-linecap:round;stroke-linejoin:round;stroke-miterlimit:4;stroke-dasharray:none;stroke-opacity:1;enable-background:new"
       d="m 121.67573,513.00043 h -3.33326 l -2.6666,-7.99983 -2.66662,9.99977 -2.66662,-9.99977 -3.33327,13.33305 -1.99996,-7.33318 h -3.33325"
       id="path4457"
       inkscape:connector-curvature="0"
       sodipodi:nodetypes="cccccccc" />
    <path
       style="display:inline;fill:url(#linearGradient4435);fill-opacity:1;stroke:none;stroke-width:2;stroke-linecap:round;stroke-linejoin:round;stroke-miterlimit:4;stroke-dasharray:none;stroke-opacity:1;enable-background:new"
       d="m 100,501 c -1.108,0 -2,0.892 -2,2 V 506.66211 509 517.33789 521 c 0,1.108 0.892,2 2,2 h 1.84961 20.32031 H 124 c 1.108,0 2,-0.892 2,-2 V 517.33789 506.66602 503 c 0,-1.108 -0.892,-2 -2,-2 H 122.14844 106 101.83008 Z"
       id="path4433"
       inkscape:connector-curvature="0" />
    <path
       style="color:#000000;font-style:normal;font-variant:normal;font-weight:normal;font-stretch:normal;font-size:medium;line-height:normal;font-family:sans-serif;font-variant-ligatures:normal;font-variant-position:normal;font-variant-caps:normal;font-variant-numeric:normal;font-variant-alternates:normal;font-feature-settings:normal;text-indent:0;text-align:start;text-decoration:none;text-decoration-line:none;text-decoration-style:solid;text-decoration-color:#000000;letter-spacing:normal;word-spacing:normal;text-transform:none;writing-mode:lr-tb;direction:ltr;text-orientation:mixed;dominant-baseline:auto;baseline-shift:baseline;text-anchor:start;white-space:normal;shape-padding:0;clip-rule:nonzero;display:inline;overflow:visible;visibility:visible;opacity:1;isolation:auto;mix-blend-mode:normal;color-interpolation:sRGB;color-interpolation-filters:linearRGB;solid-color:#000000;solid-opacity:1;vector-effect:none;fill:#000000;fill-opacity:0.2;fill-rule:evenodd;stroke:none;stroke-width:2.66670275;stroke-linecap:round;stroke-linejoin:round;stroke-miterlimit:4;stroke-dasharray:none;stroke-dashoffset:0;stroke-opacity:1;color-rendering:auto;image-rendering:auto;shape-rendering:auto;text-rendering:auto;enable-background:new;filter:url(#filter4920)"
       d="m 237.19922,481.66797 a 1.3334847,1.3334847 0 0 0 -1.30664,1.00781 l -5.42969,21.71875 -2.6582,-9.74609 a 1.3334847,1.3334847 0 0 0 -1.28516,-0.98242 h -6.66797 a 1.33398,1.33398 0 1 0 0,2.66796 H 225.5 l 3.73242,13.6836 a 1.3334847,1.3334847 0 0 0 2.58008,-0.0274 l 5.41406,-21.66211 4.00391,15.01563 a 1.3334847,1.3334847 0 0 0 2.57617,0 l 4.1875,-15.70313 3.92774,11.78126 a 1.3334847,1.3334847 0 0 0 1.26367,0.9121 h 6.66797 a 1.33398,1.33398 0 1 0 0,-2.66796 h -5.70704 l -5.02929,-15.0879 a 1.3334847,1.3334847 0 0 0 -2.55274,0.0781 l -4.04492,15.16992 -4.04492,-15.16992 a 1.3334847,1.3334847 0 0 0 -1.27539,-0.98828 z"
       id="path4585"
       inkscape:connector-curvature="0" />
    <path
       sodipodi:nodetypes="cccccccc"
       inkscape:connector-curvature="0"
       id="path4459"
       d="m 259.85266,498.00023 h -6.66671 l -5.33336,-16.00021 -5.33339,20.00023 -5.33339,-20.00023 -6.66672,26.66702 -4.00004,-14.66687 h -6.66671"
       style="display:inline;fill:none;fill-rule:evenodd;stroke:#f5f5f5;stroke-width:2.66670275;stroke-linecap:round;stroke-linejoin:round;stroke-miterlimit:4;stroke-dasharray:none;stroke-opacity:1;enable-background:new" />
    <path
       style="color:#000000;font-style:normal;font-variant:normal;font-weight:normal;font-stretch:normal;font-size:medium;line-height:normal;font-family:sans-serif;font-variant-ligatures:normal;font-variant-position:normal;font-variant-caps:normal;font-variant-numeric:normal;font-variant-alternates:normal;font-feature-settings:normal;text-indent:0;text-align:start;text-decoration:none;text-decoration-line:none;text-decoration-style:solid;text-decoration-color:#000000;letter-spacing:normal;word-spacing:normal;text-transform:none;writing-mode:lr-tb;direction:ltr;text-orientation:mixed;dominant-baseline:auto;baseline-shift:baseline;text-anchor:start;white-space:normal;shape-padding:0;clip-rule:nonzero;display:inline;overflow:visible;visibility:visible;opacity:1;isolation:auto;mix-blend-mode:normal;color-interpolation:sRGB;color-interpolation-filters:linearRGB;solid-color:#000000;solid-opacity:1;vector-effect:none;fill:#ffffff;fill-opacity:1;fill-rule:evenodd;stroke:none;stroke-width:2;stroke-linecap:round;stroke-linejoin:round;stroke-miterlimit:4;stroke-dasharray:none;stroke-dashoffset:0;stroke-opacity:1;color-rendering:auto;image-rendering:auto;shape-rendering:auto;text-rendering:auto;enable-background:new"
       d="M 166.02344 493 A 1.0001 1.0001 0 0 0 165.04492 493.75781 L 160.97266 510.04688 L 158.97852 502.73633 A 1.0001 1.0001 0 0 0 158.01367 502 L 153.01367 502 A 1.0001 1.0001 0 0 0 152.13477 503.5 A 1.0001 1.0001 0 0 1 153.01367 503 L 158.01367 503 A 1.0001 1.0001 0 0 1 158.97852 503.73633 L 160.97266 511.04688 L 165.04492 494.75781 A 1.0001 1.0001 0 0 1 166.02344 494 A 1.0001 1.0001 0 0 1 166.98047 494.74219 L 170.01562 506.12109 L 173.04883 494.74219 A 1.0001 1.0001 0 0 1 174.96289 494.68359 L 178.73438 506 L 183.01367 506 A 1.0001 1.0001 0 0 1 183.89258 506.5 A 1.0001 1.0001 0 0 0 183.01367 505 L 178.73438 505 L 174.96289 493.68359 A 1.0001 1.0001 0 0 0 173.04883 493.74219 L 170.01562 505.12109 L 166.98047 493.74219 A 1.0001 1.0001 0 0 0 166.02344 493 z "
       id="path4576" />
    <path
       style="color:#000000;font-style:normal;font-variant:normal;font-weight:normal;font-stretch:normal;font-size:medium;line-height:normal;font-family:sans-serif;font-variant-ligatures:normal;font-variant-position:normal;font-variant-caps:normal;font-variant-numeric:normal;font-variant-alternates:normal;font-feature-settings:normal;text-indent:0;text-align:start;text-decoration:none;text-decoration-line:none;text-decoration-style:solid;text-decoration-color:#000000;letter-spacing:normal;word-spacing:normal;text-transform:none;writing-mode:lr-tb;direction:ltr;text-orientation:mixed;dominant-baseline:auto;baseline-shift:baseline;text-anchor:start;white-space:normal;shape-padding:0;clip-rule:nonzero;display:inline;overflow:visible;visibility:visible;opacity:1;isolation:auto;mix-blend-mode:normal;color-interpolation:sRGB;color-interpolation-filters:linearRGB;solid-color:#000000;solid-opacity:1;vector-effect:none;fill:#ffffff;fill-opacity:1;fill-rule:evenodd;stroke:none;stroke-width:2.66670275;stroke-linecap:round;stroke-linejoin:round;stroke-miterlimit:4;stroke-dasharray:none;stroke-dashoffset:0;stroke-opacity:1;color-rendering:auto;image-rendering:auto;shape-rendering:auto;text-rendering:auto;enable-background:new"
       d="M 237.19922 480.66797 A 1.3334847 1.3334847 0 0 0 235.89258 481.67578 L 230.46289 503.39453 L 227.80469 493.64844 A 1.3334847 1.3334847 0 0 0 226.51953 492.66602 L 219.85156 492.66602 A 1.33398 1.33398 0 0 0 218.61523 494.49609 A 1.33398 1.33398 0 0 1 219.85156 493.66602 L 226.51953 493.66602 A 1.3334847 1.3334847 0 0 1 227.80469 494.64844 L 230.46289 504.39453 L 235.89258 482.67578 A 1.3334847 1.3334847 0 0 1 237.19922 481.66797 A 1.3334847 1.3334847 0 0 1 238.47461 482.65625 L 242.51953 497.82617 L 246.56445 482.65625 A 1.3334847 1.3334847 0 0 1 249.11719 482.57812 L 254.14648 497.66602 L 259.85352 497.66602 A 1.33398 1.33398 0 0 1 261.08984 498.50195 A 1.33398 1.33398 0 0 0 259.85352 496.66602 L 254.14648 496.66602 L 249.11719 481.57812 A 1.3334847 1.3334847 0 0 0 246.56445 481.65625 L 242.51953 496.82617 L 238.47461 481.65625 A 1.3334847 1.3334847 0 0 0 237.19922 480.66797 z "
       id="path4591" />
    <path
       inkscape:connector-curvature="0"
       id="path4533"
       d="m 215,474 c -1.662,0 -3,1.338 -3,3 v 8.32398 21.34814 V 515 c 0,1.662 1.338,3 3,3 h 4.70361 40.63477 H 265 c 1.662,0 3,-1.338 3,-3 V 506.67456 485.33179 477 c 0,-1.662 -1.338,-3 -3,-3 h -4.7041 -40.63501 z"
       style="display:inline;fill:url(#linearGradient4535);fill-opacity:1;stroke:none;stroke-width:2;stroke-linecap:round;stroke-linejoin:round;stroke-miterlimit:4;stroke-dasharray:none;stroke-opacity:1;enable-background:new" />
    <path
       style="color:#000000;font-style:normal;font-variant:normal;font-weight:normal;font-stretch:normal;font-size:medium;line-height:normal;font-family:sans-serif;font-variant-ligatures:normal;font-variant-position:normal;font-variant-caps:normal;font-variant-numeric:normal;font-variant-alternates:normal;font-feature-settings:normal;text-indent:0;text-align:start;text-decoration:none;text-decoration-line:none;text-decoration-style:solid;text-decoration-color:#000000;letter-spacing:normal;word-spacing:normal;text-transform:none;writing-mode:lr-tb;direction:ltr;text-orientation:mixed;dominant-baseline:auto;baseline-shift:baseline;text-anchor:start;white-space:normal;shape-padding:0;clip-rule:nonzero;display:inline;overflow:visible;visibility:visible;opacity:1;isolation:auto;mix-blend-mode:normal;color-interpolation:sRGB;color-interpolation-filters:linearRGB;solid-color:#000000;solid-opacity:1;vector-effect:none;fill:#000000;fill-opacity:0.2;fill-rule:evenodd;stroke:none;stroke-width:21.33362198;stroke-linecap:round;stroke-linejoin:round;stroke-miterlimit:4;stroke-dasharray:none;stroke-dashoffset:0;stroke-opacity:1;color-rendering:auto;image-rendering:auto;shape-rendering:auto;text-rendering:auto;enable-background:new;filter:url(#filter4967)"
       d="m 521.59376,151.34396 a 10.667878,10.667878 0 0 0 -10.45312,8.06248 l -43.43752,173.75 -21.2656,-77.96872 a 10.667878,10.667878 0 0 0 -10.28128,-7.85936 h -53.34376 a 10.67184,10.67184 0 1 0 0,21.34368 H 428 l 29.85936,109.4688 A 10.667878,10.667878 0 0 0 478.5,377.92164 l 43.31248,-173.29688 32.03128,120.12504 a 10.667878,10.667878 0 0 0 20.60936,0 l 33.5,-125.62504 31.42192,94.25008 a 10.667878,10.667878 0 0 0 10.10936,7.2968 h 53.34376 a 10.67184,10.67184 0 1 0 0,-21.34368 h -45.65632 l -40.23432,-120.7032 a 10.667878,10.667878 0 0 0 -20.42192,0.6248 L 564.15624,280.60892 531.79688,159.24956 a 10.667878,10.667878 0 0 0 -10.20312,-7.90624 z"
       id="path4961"
       inkscape:connector-curvature="0" />
    <path
       inkscape:connector-curvature="0"
       id="path4943"
       d="m 521.59376,151.34396 a 10.667878,10.667878 0 0 0 -10.45312,8.06248 l -43.43752,173.75 -21.2656,-77.96872 a 10.667878,10.667878 0 0 0 -10.28128,-7.85936 h -53.34376 a 10.67184,10.67184 0 1 0 0,21.34368 H 428 l 29.85936,109.4688 A 10.667878,10.667878 0 0 0 478.5,377.92164 l 43.31248,-173.29688 32.03128,120.12504 a 10.667878,10.667878 0 0 0 20.60936,0 l 33.5,-125.62504 31.42192,94.25008 a 10.667878,10.667878 0 0 0 10.10936,7.2968 h 53.34376 a 10.67184,10.67184 0 1 0 0,-21.34368 h -45.65632 l -40.23432,-120.7032 a 10.667878,10.667878 0 0 0 -20.42192,0.6248 L 564.15624,280.60892 531.79688,159.24956 a 10.667878,10.667878 0 0 0 -10.20312,-7.90624 z"
       style="color:#000000;font-style:normal;font-variant:normal;font-weight:normal;font-stretch:normal;font-size:medium;line-height:normal;font-family:sans-serif;font-variant-ligatures:normal;font-variant-position:normal;font-variant-caps:normal;font-variant-numeric:normal;font-variant-alternates:normal;font-feature-settings:normal;text-indent:0;text-align:start;text-decoration:none;text-decoration-line:none;text-decoration-style:solid;text-decoration-color:#000000;letter-spacing:normal;word-spacing:normal;text-transform:none;writing-mode:lr-tb;direction:ltr;text-orientation:mixed;dominant-baseline:auto;baseline-shift:baseline;text-anchor:start;white-space:normal;shape-padding:0;clip-rule:nonzero;display:inline;overflow:visible;visibility:visible;opacity:1;isolation:auto;mix-blend-mode:normal;color-interpolation:sRGB;color-interpolation-filters:linearRGB;solid-color:#000000;solid-opacity:1;vector-effect:none;fill:#000000;fill-opacity:0.2;fill-rule:evenodd;stroke:none;stroke-width:21.33362198;stroke-linecap:round;stroke-linejoin:round;stroke-miterlimit:4;stroke-dasharray:none;stroke-dashoffset:0;stroke-opacity:1;color-rendering:auto;image-rendering:auto;shape-rendering:auto;text-rendering:auto;enable-background:new" />
    <path
       style="display:inline;fill:none;fill-rule:evenodd;stroke:#f5f5f5;stroke-width:21.33362198;stroke-linecap:round;stroke-linejoin:round;stroke-miterlimit:4;stroke-dasharray:none;stroke-opacity:1;enable-background:new"
       d="M 702.82128,288.00205 H 649.4876 L 606.82072,160.00037 564.1536,320.00221 521.48648,160.00037 468.15272,373.33653 436.1524,256.00157 h -53.33368"
       id="path4945"
       inkscape:connector-curvature="0"
       sodipodi:nodetypes="cccccccc" />
    <path
       style="display:inline;fill:url(#linearGradient4449-0);fill-opacity:1;stroke:none;stroke-width:16;stroke-linecap:round;stroke-linejoin:round;stroke-miterlimit:4;stroke-dasharray:none;stroke-opacity:1;enable-background:new"
       d="m 344,96 c -13.296,0 -24,10.704 -24,24 V 186.5918 357.37695 424 c 0,13.296 10.704,24 24,24 H 381.62891 706.70703 744 c 13.296,0 24,-10.704 24,-24 V 357.39648 186.6543 120 C 768,106.704 757.296,96 744,96 H 706.36719 381.28711 Z"
       id="path4447"
       inkscape:connector-curvature="0" />
  </g>
</svg>
