<?xml version="1.0" encoding="UTF-8" standalone="no"?>
<svg
   xmlns:dc="http://purl.org/dc/elements/1.1/"
   xmlns:cc="http://creativecommons.org/ns#"
   xmlns:rdf="http://www.w3.org/1999/02/22-rdf-syntax-ns#"
   xmlns:svg="http://www.w3.org/2000/svg"
   xmlns="http://www.w3.org/2000/svg"
   xmlns:sodipodi="http://sodipodi.sourceforge.net/DTD/sodipodi-0.dtd"
   xmlns:inkscape="http://www.inkscape.org/namespaces/inkscape"
   width="24"
   height="24"
   viewBox="0 0 24 24"
   id="svg2"
   version="1.1"
   inkscape:version="0.91 r13725"
   sodipodi:docname="preferences-desktop-wallpaper-symbolic.svg">
  <metadata
     id="metadata10">
    <rdf:RDF>
      <cc:Work
         rdf:about="">
        <dc:format>image/svg+xml</dc:format>
        <dc:type
           rdf:resource="http://purl.org/dc/dcmitype/StillImage" />
        <dc:title></dc:title>
      </cc:Work>
    </rdf:RDF>
  </metadata>
  <defs
     id="defs8" />
  <sodipodi:namedview
     pagecolor="#ffffff"
     bordercolor="#666666"
     borderopacity="1"
     objecttolerance="10"
     gridtolerance="10"
     guidetolerance="10"
     inkscape:pageopacity="0"
     inkscape:pageshadow="2"
     inkscape:window-width="959"
     inkscape:window-height="1000"
     id="namedview6"
     showgrid="true"
     inkscape:zoom="39.333332"
     inkscape:cx="2.6222105"
     inkscape:cy="14.164733"
     inkscape:window-x="959"
     inkscape:window-y="0"
     inkscape:window-maximized="0"
     inkscape:current-layer="svg2">
    <inkscape:grid
       type="xygrid"
       id="grid4142" />
  </sodipodi:namedview>
  <path
     inkscape:connector-curvature="0"
     d="m 21,1.9999996 -18,0 c -1.1,0 -2,0.9 -2,2 L 1,16 c 0,1.1 0.9,2 2,2 l 7,0 0,2 -2,0 0,2 8,0 0,-2 -2,0 0,-2 7,0 c 1.1,0 2,-0.9 2,-2 L 23,3.9999996 c 0,-1.1 -0.9,-2 -2,-2 z M 21,16 3,16 3,3.9999996 l 18,0 L 21,16 Z"
     id="path4"
     style="fill:#bebebe;fill-opacity:1" />
  <path
     style="opacity:1;fill:#bebebe;fill-opacity:0.4;stroke:none;stroke-width:1;stroke-linecap:butt;stroke-linejoin:round;stroke-miterlimit:14.5;stroke-dasharray:none;stroke-opacity:1"
     d="M 8,4 3,9 3,16 21,16 21,4 Z"
     id="rect4134"
     inkscape:connector-curvature="0"
     sodipodi:nodetypes="cccccc" />
  <path
     style="opacity:1;fill:#bebebe;fill-opacity:0.5;stroke:none;stroke-width:2;stroke-linecap:butt;stroke-linejoin:miter;stroke-miterlimit:4;stroke-dasharray:none;stroke-opacity:0"
     d="M 8,4.0000002 3,9 6.3333333,9 C 7.2566667,9 8,8.256667 8,7.3333335 L 8,4.0000002 Z"
     id="rect4138"
     inkscape:connector-curvature="0" />
</svg>
