<?xml version="1.0" encoding="UTF-8" standalone="no"?>
<!-- Created with Inkscape (http://www.inkscape.org/) -->

<svg
   xmlns:dc="http://purl.org/dc/elements/1.1/"
   xmlns:cc="http://creativecommons.org/ns#"
   xmlns:rdf="http://www.w3.org/1999/02/22-rdf-syntax-ns#"
   xmlns:svg="http://www.w3.org/2000/svg"
   xmlns="http://www.w3.org/2000/svg"
   xmlns:xlink="http://www.w3.org/1999/xlink"
   xmlns:sodipodi="http://sodipodi.sourceforge.net/DTD/sodipodi-0.dtd"
   xmlns:inkscape="http://www.inkscape.org/namespaces/inkscape"
   width="842"
   height="544"
   viewBox="0 0 842 544"
   version="1.1"
   id="svg1087"
   inkscape:version="0.92.1 r"
   sodipodi:docname="audio-input-microphone.svg">
  <defs
     id="defs1081">
    <linearGradient
       id="linearGradient4770"
       inkscape:collect="always">
      <stop
         id="stop4766"
         offset="0"
         style="stop-color:#ffffff;stop-opacity:0.05490196" />
      <stop
         id="stop4768"
         offset="1"
         style="stop-color:#177ed5;stop-opacity:0;" />
    </linearGradient>
    <filter
       inkscape:collect="always"
       style="color-interpolation-filters:sRGB"
       id="filter4684"
       x="-0.030666666"
       width="1.0613333"
       y="-0.019714287"
       height="1.0394286">
      <feGaussianBlur
         inkscape:collect="always"
         stdDeviation="3.68"
         id="feGaussianBlur4686" />
    </filter>
    <filter
       inkscape:collect="always"
       style="color-interpolation-filters:sRGB"
       id="filter4687"
       x="-0.014571429"
       width="1.0291429"
       y="-0.0102"
       height="1.0204">
      <feGaussianBlur
         inkscape:collect="always"
         stdDeviation="0.17"
         id="feGaussianBlur4689" />
    </filter>
    <filter
       inkscape:collect="always"
       style="color-interpolation-filters:sRGB"
       id="filter4700"
       x="-0.015333333"
       width="1.0306667"
       y="-0.0098571433"
       height="1.0197144">
      <feGaussianBlur
         inkscape:collect="always"
         stdDeviation="0.23"
         id="feGaussianBlur4702" />
    </filter>
    <filter
       inkscape:collect="always"
       style="color-interpolation-filters:sRGB"
       id="filter4714"
       x="-0.030666666"
       width="1.0613333"
       y="-0.019714287"
       height="1.0394286">
      <feGaussianBlur
         inkscape:collect="always"
         stdDeviation="3.68"
         id="feGaussianBlur4716" />
    </filter>
    <linearGradient
       inkscape:collect="always"
       xlink:href="#linearGradient4770"
       id="linearGradient4347"
       gradientUnits="userSpaceOnUse"
       gradientTransform="matrix(0.47825811,0,0,0.47826068,78.52174,-775.82507)"
       x1="7"
       y1="1011.3622"
       x2="41.000019"
       y2="1045.3622" />
    <linearGradient
       inkscape:collect="always"
       xlink:href="#linearGradient4770"
       id="linearGradient4435"
       gradientUnits="userSpaceOnUse"
       gradientTransform="matrix(0.65217004,0,0,0.65217328,122.34781,-958.67016)"
       x1="7"
       y1="1011.3622"
       x2="41.000019"
       y2="1045.3622" />
    <linearGradient
       inkscape:collect="always"
       xlink:href="#linearGradient4770"
       id="linearGradient4171-1-0"
       x1="7"
       y1="1011.3622"
       x2="41.000019"
       y2="1045.3622"
       gradientUnits="userSpaceOnUse"
       gradientTransform="matrix(0.9565212,0,0,0.95652174,171.04344,-1279.6504)" />
    <linearGradient
       inkscape:collect="always"
       xlink:href="#linearGradient4770"
       id="linearGradient4541"
       gradientUnits="userSpaceOnUse"
       gradientTransform="matrix(1.3043405,0,0,1.3043465,234.69557,-1645.3402)"
       x1="7"
       y1="1011.3622"
       x2="41.000019"
       y2="1045.3622" />
    <linearGradient
       inkscape:collect="always"
       xlink:href="#linearGradient4770"
       id="linearGradient4449-0"
       gradientUnits="userSpaceOnUse"
       gradientTransform="matrix(10.434724,0,0,10.434772,319.56508,-11258.721)"
       x1="7"
       y1="1011.3622"
       x2="41.000019"
       y2="1045.3622" />
    <linearGradient
       inkscape:collect="always"
       xlink:href="#linearGradient4770"
       id="linearGradient4552"
       gradientUnits="userSpaceOnUse"
       gradientTransform="matrix(0.47825811,0,0,0.47826068,43.52174,-774.82507)"
       x1="7"
       y1="1011.3622"
       x2="41.000019"
       y2="1045.3622" />
  </defs>
  <sodipodi:namedview
     id="base"
     pagecolor="#c3c3c3"
     bordercolor="#333333"
     borderopacity="1"
     inkscape:pageopacity="0"
     inkscape:pageshadow="2"
     inkscape:zoom="1.979899"
     inkscape:cx="237.94323"
     inkscape:cy="-42.6329"
     inkscape:document-units="px"
     inkscape:current-layer="layer1"
     showgrid="true"
     units="px"
     inkscape:showpageshadow="false"
     inkscape:window-width="2560"
     inkscape:window-height="1369"
     inkscape:window-x="0"
     inkscape:window-y="35"
     inkscape:window-maximized="1">
    <inkscape:grid
       type="xygrid"
       id="grid4630" />
  </sodipodi:namedview>
  <metadata
     id="metadata1084">
    <rdf:RDF>
      <cc:Work
         rdf:about="">
        <dc:format>image/svg+xml</dc:format>
        <dc:type
           rdf:resource="http://purl.org/dc/dcmitype/StillImage" />
        <dc:title />
        <cc:license
           rdf:resource="http://creativecommons.org/licenses/by-sa/4.0/" />
        <dc:creator>
          <cc:Agent>
            <dc:title>Peter Cornelis</dc:title>
          </cc:Agent>
        </dc:creator>
      </cc:Work>
      <cc:License
         rdf:about="http://creativecommons.org/licenses/by-sa/4.0/">
        <cc:permits
           rdf:resource="http://creativecommons.org/ns#Reproduction" />
        <cc:permits
           rdf:resource="http://creativecommons.org/ns#Distribution" />
        <cc:requires
           rdf:resource="http://creativecommons.org/ns#Notice" />
        <cc:requires
           rdf:resource="http://creativecommons.org/ns#Attribution" />
        <cc:permits
           rdf:resource="http://creativecommons.org/ns#DerivativeWorks" />
        <cc:requires
           rdf:resource="http://creativecommons.org/ns#ShareAlike" />
      </cc:License>
    </rdf:RDF>
  </metadata>
  <g
     inkscape:label="Baseplate"
     inkscape:groupmode="layer"
     id="layer1"
     transform="translate(0,-153.06668)"
     style="display:none">
    <rect
       style="display:inline;overflow:visible;visibility:visible;fill:#fefefe;fill-opacity:1;fill-rule:nonzero;stroke:none;stroke-width:2;marker:none;enable-background:accumulate"
       id="rect3951"
       width="512"
       height="512"
       x="-826"
       y="169.06668"
       inkscape:label="48x48"
       transform="scale(-1,1)" />
    <text
       y="733.32251"
       xml:space="preserve"
       x="15.006836"
       style="font-style:normal;font-variant:normal;font-weight:normal;font-stretch:normal;line-height:0%;font-family:'DejaVu Sans';-inkscape-font-specification:'DejaVu Sans';display:inline;fill:#000000;fill-opacity:1;stroke:none;enable-background:new"
       inkscape:label="context"
       id="context"><tspan
         style="font-style:normal;font-variant:normal;font-weight:normal;font-stretch:normal;font-size:18px;line-height:1.25;font-family:'DejaVu Sans';-inkscape-font-specification:'DejaVu Sans'"
         y="733.32251"
         x="15.006836"
         sodipodi:role="line"
         id="tspan3933">devices</tspan></text>
    <text
       y="733.32251"
       xml:space="preserve"
       x="142.48828"
       style="font-style:normal;font-variant:normal;font-weight:bold;font-stretch:normal;line-height:0%;font-family:'DejaVu Sans';-inkscape-font-specification:'DejaVu Sans Bold';text-align:start;writing-mode:lr-tb;text-anchor:start;display:inline;fill:#000000;fill-opacity:1;stroke:none;enable-background:new"
       inkscape:label="icon-name"
       id="icon-name"><tspan
         style="font-style:normal;font-variant:normal;font-weight:bold;font-stretch:normal;font-size:18px;line-height:1.25;font-family:'DejaVu Sans';-inkscape-font-specification:'DejaVu Sans Bold'"
         y="733.32251"
         x="142.48828"
         sodipodi:role="line"
         id="tspan3937">audio-input-microphone</tspan></text>
    <rect
       style="display:inline;overflow:visible;visibility:visible;fill:#fefefe;fill-opacity:1;fill-rule:nonzero;stroke:none;stroke-width:2;marker:none;enable-background:accumulate"
       id="rect16x16"
       width="16"
       height="16"
       x="-32"
       y="665.06665"
       inkscape:label="16x16"
       transform="scale(-1,1)" />
    <rect
       style="display:inline;overflow:visible;visibility:visible;fill:#fefefe;fill-opacity:1;fill-rule:nonzero;stroke:none;stroke-width:2;marker:none;enable-background:accumulate"
       id="rect24x24"
       width="24"
       height="24"
       x="-102"
       y="657.06665"
       inkscape:label="24x24"
       transform="scale(-1,1)" />
    <rect
       style="display:inline;overflow:visible;visibility:visible;fill:#fefefe;fill-opacity:1;fill-rule:nonzero;stroke:none;stroke-width:2;marker:none;enable-background:accumulate"
       id="rect32x32"
       width="32"
       height="32"
       x="-154"
       y="649.06665"
       inkscape:label="32x32"
       transform="scale(-1,1)" />
    <rect
       inkscape:label="48x48"
       y="633.06665"
       x="-218"
       height="48"
       width="48"
       id="rect48x48"
       style="display:inline;overflow:visible;visibility:visible;fill:#fefefe;fill-opacity:1;fill-rule:nonzero;stroke:none;stroke-width:2;marker:none;enable-background:accumulate"
       transform="scale(-1,1)" />
    <rect
       transform="scale(-1,1)"
       inkscape:label="48x48"
       y="617.06665"
       x="-298"
       height="64"
       width="64"
       id="rect4641"
       style="display:inline;overflow:visible;visibility:visible;fill:#fefefe;fill-opacity:1;fill-rule:nonzero;stroke:none;stroke-width:0.25;marker:none;enable-background:accumulate" />
    <rect
       transform="scale(-1,1)"
       inkscape:label="24x24"
       y="659.06665"
       x="-66"
       height="22"
       width="22"
       id="rect4540"
       style="display:inline;overflow:visible;visibility:visible;fill:#fefefe;fill-opacity:1;fill-rule:nonzero;stroke:none;stroke-width:1.83333325;marker:none;enable-background:accumulate" />
  </g>
  <g
     inkscape:groupmode="layer"
     id="layer2"
     inkscape:label="Bitmap"
     style="display:inline">
    <rect
       ry="144"
       rx="160"
       y="-712"
       x="-498"
       height="288"
       width="448"
       id="rect4688"
       style="display:inline;opacity:1;fill:#000000;fill-opacity:0.2;stroke:none;stroke-width:8;stroke-miterlimit:4;stroke-dasharray:none;stroke-opacity:1;enable-background:new"
       transform="matrix(0,-1,-1,0,0,0)" />
    <rect
       transform="matrix(0,-1,-1,0,26,0)"
       style="display:inline;opacity:1;fill:#000000;fill-opacity:0.2;stroke:none;stroke-width:8;stroke-miterlimit:4;stroke-dasharray:none;stroke-opacity:1;filter:url(#filter4714);enable-background:new"
       id="rect4708"
       width="448"
       height="288"
       x="-498"
       y="-686"
       rx="160"
       ry="144" />
    <rect
       transform="matrix(0,-1,-1,0,104,244)"
       style="display:inline;opacity:0.2;fill:#000000;fill-opacity:0.2;stroke:none;filter:url(#filter4684);enable-background:new"
       id="rect4399"
       width="448"
       height="288"
       x="-256"
       y="-608"
       rx="160"
       ry="144" />
    <rect
       transform="matrix(0,-1,-1,0,0,0)"
       style="display:inline;opacity:1;fill:#000000;fill-opacity:0.2;stroke:none;enable-background:new"
       id="rect4038"
       width="28"
       height="20"
       x="-527"
       y="-148.00003"
       rx="11"
       ry="10" />
    <rect
       ry="14"
       rx="14"
       y="-182.00002"
       x="-525"
       height="28"
       width="40"
       id="rect3296"
       style="display:inline;opacity:1;fill:#000000;fill-opacity:0.2;stroke:none;filter:url(#filter4687);enable-background:new"
       transform="matrix(0,-1,-1,0,26,0)" />
    <rect
       transform="matrix(0,-1,-1,0,0,0)"
       style="display:inline;fill:#949daa;fill-opacity:1;stroke:none;enable-background:new"
       id="rect4203"
       width="40"
       height="28"
       x="-524"
       y="-208.00002"
       rx="14"
       ry="14" />
    <rect
       transform="matrix(0,-1,-1,0,0,0)"
       style="display:inline;fill:#949daa;fill-opacity:1;stroke:none;enable-background:new"
       id="rect4265"
       width="16"
       height="11"
       x="-528"
       y="-29.000015"
       rx="6"
       ry="5.5" />
    <path
       style="display:inline;opacity:0.1;fill:#ffffff;fill-opacity:1;stroke:none;enable-background:new"
       d="m 194,484 c -7.756,0 -14,6.244 -14,14 v 1 c 0,-7.756 6.244,-14 14,-14 7.756,0 14,6.244 14,14 v -1 c 0,-7.756 -6.244,-14 -14,-14 z"
       id="rect4070"
       inkscape:connector-curvature="0" />
    <rect
       ry="10"
       rx="11"
       y="-148.00003"
       x="-526"
       height="20"
       width="28"
       id="rect3220"
       style="display:inline;fill:#949daa;fill-opacity:1;stroke:none;enable-background:new"
       transform="matrix(0,-1,-1,0,0,0)" />
    <path
       style="display:inline;opacity:0.1;fill:#ffffff;fill-opacity:1;stroke:none;enable-background:new"
       d="m 138,498 c -5.54,0 -10,4.906 -10,11 v 1 c 0,-6.094 4.46,-11 10,-11 5.54,0 10,4.906 10,11 v -1 c 0,-6.094 -4.46,-11 -10,-11 z"
       id="rect4044"
       inkscape:connector-curvature="0" />
    <rect
       transform="matrix(0,-1,-1,0,0,0)"
       style="display:inline;opacity:1;fill:#000000;fill-opacity:0.2;stroke:none;enable-background:new"
       id="rect4069"
       width="20"
       height="13"
       x="-527"
       y="-96.000015"
       rx="7"
       ry="6.5" />
    <rect
       ry="6.5"
       rx="7"
       y="-96.000015"
       x="-526"
       height="13"
       width="20"
       id="rect4071"
       style="display:inline;fill:#949daa;fill-opacity:1;stroke:none;enable-background:new"
       transform="matrix(0,-1,-1,0,0,0)" />
    <path
       id="path4612"
       d="m 84.162109,509 c -0.38974,0.6035 -0.692008,1.2772 -0.890625,2 H 87 c 0.554,0 1,-0.446 1,-1 0,-0.554 -0.446,-1 -1,-1 z M 92,509 c -0.554,0 -1,0.446 -1,1 0,0.554 0.446,1 1,1 h 3.728516 c -0.198617,-0.7228 -0.500885,-1.3965 -0.890625,-2 z m -9,4 v 2 h 4 c 0.554,0 1,-0.446 1,-1 0,-0.554 -0.446,-1 -1,-1 z m 9,0 c -0.554,0 -1,0.446 -1,1 0,0.554 0.446,1 1,1 h 4 v -2 z m -9,4 v 2 h 4 c 0.554,0 1,-0.446 1,-1 0,-0.554 -0.446,-1 -1,-1 z m 9,0 c -0.554,0 -1,0.446 -1,1 0,0.554 0.446,1 1,1 h 4 v -2 z"
       style="display:inline;opacity:1;fill:#3b414b;fill-opacity:1;stroke:none;stroke-opacity:1"
       inkscape:connector-curvature="0" />
    <path
       style="display:inline;opacity:0.2;fill:#ffffff;fill-opacity:1;stroke:none;enable-background:new"
       d="m 89.5,506 c -3.601,0 -6.5,3.122 -6.5,7 v 1 c 0,-3.878 2.899,-7 6.5,-7 3.601,0 6.5,3.122 6.5,7 v -1 c 0,-3.878 -2.899,-7 -6.5,-7 z"
       id="rect4096"
       inkscape:connector-curvature="0" />
    <rect
       ry="144"
       rx="160"
       y="-712"
       x="-496"
       height="288"
       width="448"
       id="rect4375"
       style="display:inline;fill:#949daa;fill-opacity:1;stroke:none;enable-background:new"
       transform="matrix(0,-1,-1,0,0,0)" />
    <path
       style="display:inline;opacity:0.1;fill:#ffffff;fill-opacity:1;stroke:none;enable-background:new"
       d="M 568,47.999998 C 488.224,47.999998 424,119.36 424,208 v 2 C 424,121.36 488.224,49.999998 568,49.999998 647.776,49.999998 712,121.36 712,210 v -2 C 712,119.36 647.776,47.999998 568,47.999998 Z"
       id="rect4394"
       inkscape:connector-curvature="0" />
    <rect
       ry="144"
       rx="160"
       y="-608"
       x="-256"
       height="288"
       width="448"
       id="rect4645"
       style="display:inline;opacity:0.2;fill:#000000;fill-opacity:1;stroke:none;filter:url(#filter4684);enable-background:new"
       transform="matrix(0,-0.125,-0.125,0,207.75,492.5)" />
    <rect
       transform="matrix(0,-1,-1,0,26,0)"
       style="display:inline;opacity:1;fill:#000000;fill-opacity:0.2;stroke:none;stroke-width:1;stroke-miterlimit:4;stroke-dasharray:none;stroke-opacity:1;filter:url(#filter4700);enable-background:new"
       id="rect4643"
       width="56"
       height="36"
       x="-525"
       y="-257.75"
       rx="20"
       ry="18" />
    <rect
       transform="matrix(0,-1,-1,0,0,0)"
       style="display:inline;fill:#949daa;fill-opacity:1;stroke:none;stroke-width:0.125;enable-background:new"
       id="rect4647"
       width="56"
       height="36"
       x="-524"
       y="-283.75"
       rx="20"
       ry="18" />
    <path
       style="display:inline;fill:#ffffff;fill-opacity:0.2;stroke:none;stroke-width:0.125;enable-background:new"
       d="m 265.75,468 c -9.972,0 -18,8.92 -18,20 v 1 c 0,-11.08 8.028,-20 18,-20 9.972,0 18,8.92 18,20 v -1 c 0,-11.08 -8.028,-20 -18,-20 z"
       id="rect4691"
       inkscape:connector-curvature="0" />
    <path
       style="display:inline;fill:url(#linearGradient4171-1-0);fill-opacity:1;stroke:none;stroke-width:2;stroke-linecap:round;stroke-linejoin:round;stroke-miterlimit:4;stroke-dasharray:none;stroke-opacity:1;enable-background:new"
       d="m 194,-316 c -7.756,0 -14,6.244 -14,14 v 12 c 0,7.756 6.244,14 14,14 7.756,0 14,-6.244 14,-14 v -12 c 0,-7.756 -6.244,-14 -14,-14 z"
       id="circle4163-3-4"
       inkscape:connector-curvature="0" />
    <path
       style="display:inline;fill:url(#linearGradient4347);fill-opacity:1;stroke:none;stroke-width:2;stroke-linecap:round;stroke-linejoin:round;stroke-miterlimit:4;stroke-dasharray:none;stroke-opacity:1;enable-background:new"
       d="m 89.5,-294 c -3.601,0 -6.5,3.122 -6.5,7 v 6 c 0,3.878 2.899,7 6.5,7 3.601,0 6.5,-3.122 6.5,-7 v -6 c 0,-3.878 -2.899,-7 -6.5,-7 z"
       id="path4345"
       inkscape:connector-curvature="0" />
    <path
       style="display:inline;fill:url(#linearGradient4435);fill-opacity:1;stroke:none;stroke-width:2;stroke-linecap:round;stroke-linejoin:round;stroke-miterlimit:4;stroke-dasharray:none;stroke-opacity:1;enable-background:new"
       d="m 138,-302 c -5.54,0 -10,4.906 -10,11 v 6 c 0,6.094 4.46,11 10,11 5.54,0 10,-4.906 10,-11 v -6 c 0,-6.094 -4.46,-11 -10,-11 z"
       id="path4433"
       inkscape:connector-curvature="0" />
    <path
       style="display:inline;fill:url(#linearGradient4449-0);fill-opacity:1;stroke:none;stroke-width:16;stroke-linecap:round;stroke-linejoin:round;stroke-miterlimit:4;stroke-dasharray:none;stroke-opacity:1;enable-background:new"
       d="m 568,-752 c -79.776,0 -144,71.36 -144,160 v 128 c 0,88.64 64.224,160 144,160 79.776,0 144,-71.36 144,-160 v -128 c 0,-88.64 -64.224,-160 -144,-160 z"
       id="path4447"
       inkscape:connector-curvature="0" />
    <path
       style="display:inline;fill:url(#linearGradient4541);fill-opacity:1;stroke:none;stroke-width:2;stroke-linecap:round;stroke-linejoin:round;stroke-miterlimit:4;stroke-dasharray:none;stroke-opacity:1;enable-background:new"
       d="m 265.75,-332 c -9.972,0 -18,8.92 -18,20 v 16 c 0,11.08 8.028,20 18,20 9.972,0 18,-8.92 18,-20 v -16 c 0,-11.08 -8.028,-20 -18,-20 z"
       id="path4537"
       inkscape:connector-curvature="0" />
    <rect
       ry="6.5"
       rx="7"
       y="-61.000015"
       x="-528"
       height="13"
       width="20"
       id="rect4542"
       style="display:inline;opacity:1;fill:#000000;fill-opacity:0.2;stroke:none;enable-background:new"
       transform="matrix(0,-1,-1,0,0,0)" />
    <rect
       transform="matrix(0,-1,-1,0,0,0)"
       style="display:inline;fill:#949daa;fill-opacity:1;stroke:none;enable-background:new"
       id="rect4544"
       width="20"
       height="13"
       x="-527"
       y="-61.000015"
       rx="7"
       ry="6.5" />
    <path
       style="display:inline;opacity:1;fill:#3b414b;fill-opacity:1;stroke:none;stroke-opacity:1"
       d="M 49.162109 510 C 48.772369 510.6035 48.470101 511.2772 48.271484 512 L 52 512 C 52.554 512 53 511.554 53 511 C 53 510.446 52.554 510 52 510 L 49.162109 510 z M 57 510 C 56.446 510 56 510.446 56 511 C 56 511.554 56.446 512 57 512 L 60.728516 512 C 60.529899 511.2772 60.227631 510.6035 59.837891 510 L 57 510 z M 48 514 L 48 516 L 52 516 C 52.554 516 53 515.554 53 515 C 53 514.446 52.554 514 52 514 L 48 514 z M 57 514 C 56.446 514 56 514.446 56 515 C 56 515.554 56.446 516 57 516 L 61 516 L 61 514 L 57 514 z M 48 518 L 48 520 L 52 520 C 52.554 520 53 519.554 53 519 C 53 518.446 52.554 518 52 518 L 48 518 z M 57 518 C 56.446 518 56 518.446 56 519 C 56 519.554 56.446 520 57 520 L 61 520 L 61 518 L 57 518 z "
       id="rect4575" />
    <path
       inkscape:connector-curvature="0"
       id="path4548"
       d="m 54.5,507 c -3.601,0 -6.5,3.122 -6.5,7 v 1 c 0,-3.878 2.899,-7 6.5,-7 3.601,0 6.5,3.122 6.5,7 v -1 c 0,-3.878 -2.899,-7 -6.5,-7 z"
       style="display:inline;opacity:0.2;fill:#ffffff;fill-opacity:1;stroke:none;enable-background:new" />
    <path
       inkscape:connector-curvature="0"
       id="path4550"
       d="m 54.5,-293 c -3.601,0 -6.5,3.122 -6.5,7 v 6 c 0,3.878 2.899,7 6.5,7 3.601,0 6.5,-3.122 6.5,-7 v -6 c 0,-3.878 -2.899,-7 -6.5,-7 z"
       style="display:inline;fill:url(#linearGradient4552);fill-opacity:1;stroke:none;stroke-width:2;stroke-linecap:round;stroke-linejoin:round;stroke-miterlimit:4;stroke-dasharray:none;stroke-opacity:1;enable-background:new" />
    <path
       style="opacity:1;fill:#3b414b;fill-opacity:1;stroke:none;stroke-opacity:1"
       d="M 18.736328 515 C 18.415545 515.60697 18.19188 516.28133 18.082031 517 L 21 517 C 21.554 517 22 516.554 22 516 C 22 515.446 21.554 515 21 515 L 18.736328 515 z M 26 515 C 25.446 515 25 515.446 25 516 C 25 516.554 25.446 517 26 517 L 28.917969 517 C 28.80812 516.28133 28.584455 515.60697 28.263672 515 L 26 515 z M 18 519 L 18 521 L 21 521 C 21.554 521 22 520.554 22 520 C 22 519.446 21.554 519 21 519 L 18 519 z M 26 519 C 25.446 519 25 519.446 25 520 C 25 520.554 25.446 521 26 521 L 29 521 L 29 519 L 26 519 z "
       id="rect4614" />
  </g>
</svg>
