<?xml version="1.0" encoding="UTF-8" standalone="no"?>
<!-- Created with Inkscape (http://www.inkscape.org/) -->

<svg
   xmlns:dc="http://purl.org/dc/elements/1.1/"
   xmlns:cc="http://creativecommons.org/ns#"
   xmlns:rdf="http://www.w3.org/1999/02/22-rdf-syntax-ns#"
   xmlns:svg="http://www.w3.org/2000/svg"
   xmlns="http://www.w3.org/2000/svg"
   xmlns:xlink="http://www.w3.org/1999/xlink"
   xmlns:sodipodi="http://sodipodi.sourceforge.net/DTD/sodipodi-0.dtd"
   xmlns:inkscape="http://www.inkscape.org/namespaces/inkscape"
   width="842"
   height="544"
   viewBox="0 0 842 544"
   version="1.1"
   id="svg1087"
   inkscape:version="0.92.1 r"
   sodipodi:docname="camera-web.svg">
  <defs
     id="defs1081">
    <linearGradient
       id="linearGradient4730"
       inkscape:collect="always">
      <stop
         id="stop4726"
         offset="0"
         style="stop-color:#ffffff;stop-opacity:0.05490196" />
      <stop
         id="stop4728"
         offset="1"
         style="stop-color:#177ed5;stop-opacity:0;" />
    </linearGradient>
    <linearGradient
       id="linearGradient4724"
       inkscape:collect="always">
      <stop
         id="stop4720"
         offset="0"
         style="stop-color:#ffffff;stop-opacity:0.05490196" />
      <stop
         id="stop4722"
         offset="1"
         style="stop-color:#177ed5;stop-opacity:0;" />
    </linearGradient>
    <filter
       inkscape:collect="always"
       style="color-interpolation-filters:sRGB"
       id="filter5087"
       x="-0.048"
       width="1.096"
       y="-0.048"
       height="1.096">
      <feGaussianBlur
         inkscape:collect="always"
         stdDeviation="0.8"
         id="feGaussianBlur5089" />
    </filter>
    <linearGradient
       inkscape:collect="always"
       id="linearGradient4165">
      <stop
         style="stop-color:#ffffff;stop-opacity:0.05490196"
         offset="0"
         id="stop4167" />
      <stop
         style="stop-color:#177ed5;stop-opacity:0;"
         offset="1"
         id="stop4169" />
    </linearGradient>
    <linearGradient
       inkscape:collect="always"
       xlink:href="#linearGradient4724"
       id="linearGradient4435"
       gradientUnits="userSpaceOnUse"
       gradientTransform="matrix(0.65217041,0,0,0.65217328,122.34777,-958.67056)"
       x1="7"
       y1="1011.3622"
       x2="41.000019"
       y2="1045.3622" />
    <linearGradient
       inkscape:collect="always"
       xlink:href="#linearGradient4165"
       id="linearGradient4171-1-0"
       x1="7"
       y1="1011.3622"
       x2="41.000019"
       y2="1045.3622"
       gradientUnits="userSpaceOnUse"
       gradientTransform="matrix(0.95652174,0,0,0.95652174,171.0435,-1279.6504)" />
    <linearGradient
       inkscape:collect="always"
       xlink:href="#linearGradient4165-3"
       id="linearGradient4449-0"
       gradientUnits="userSpaceOnUse"
       gradientTransform="matrix(10.43473,0,0,10.434772,319.56521,-11258.722)"
       x1="7"
       y1="1011.3622"
       x2="41.000019"
       y2="1045.3622" />
    <linearGradient
       inkscape:collect="always"
       id="linearGradient4165-3">
      <stop
         style="stop-color:#ffffff;stop-opacity:0.05490196"
         offset="0"
         id="stop4167-6" />
      <stop
         style="stop-color:#177ed5;stop-opacity:0;"
         offset="1"
         id="stop4169-7" />
    </linearGradient>
    <linearGradient
       inkscape:collect="always"
       xlink:href="#linearGradient4165-3"
       id="linearGradient4537"
       gradientUnits="userSpaceOnUse"
       gradientTransform="matrix(1.3043412,0,0,1.3043465,234.69565,-1645.3402)"
       x1="7"
       y1="1011.3622"
       x2="41.000019"
       y2="1045.3622" />
    <filter
       inkscape:collect="always"
       style="color-interpolation-filters:sRGB"
       id="filter4542"
       x="-0.011999969"
       width="1.0239999"
       y="-0.012000031"
       height="1.024">
      <feGaussianBlur
         inkscape:collect="always"
         stdDeviation="0.21999957"
         id="feGaussianBlur4544" />
    </filter>
    <filter
       inkscape:collect="always"
       style="color-interpolation-filters:sRGB"
       id="filter4606"
       x="-0.023999959"
       width="1.0479999"
       y="-0.024000039"
       height="1.0480001">
      <feGaussianBlur
         inkscape:collect="always"
         stdDeviation="4.799976"
         id="feGaussianBlur4608" />
    </filter>
    <linearGradient
       inkscape:collect="always"
       xlink:href="#linearGradient4730"
       id="linearGradient4620"
       gradientUnits="userSpaceOnUse"
       gradientTransform="matrix(0.4782599,0,0,0.47826359,78.521741,-775.82813)"
       x1="7"
       y1="1011.3622"
       x2="41.000019"
       y2="1045.3622" />
    <filter
       inkscape:collect="always"
       style="color-interpolation-filters:sRGB"
       id="filter4541"
       x="-0.01199998"
       width="1.024"
       y="-0.01200002"
       height="1.024">
      <feGaussianBlur
         inkscape:collect="always"
         stdDeviation="0.2999985"
         id="feGaussianBlur4543" />
    </filter>
    <linearGradient
       inkscape:collect="always"
       xlink:href="#linearGradient4730"
       id="linearGradient4553"
       gradientUnits="userSpaceOnUse"
       gradientTransform="matrix(0.4782599,0,0,0.47826359,43.521741,-774.82813)"
       x1="7"
       y1="1011.3622"
       x2="41.000019"
       y2="1045.3622" />
    <filter
       inkscape:collect="always"
       style="color-interpolation-filters:sRGB"
       id="filter4786"
       x="-0.024"
       width="1.048"
       y="-0.024"
       height="1.048">
      <feGaussianBlur
         inkscape:collect="always"
         stdDeviation="3.2"
         id="feGaussianBlur4788" />
    </filter>
    <filter
       inkscape:collect="always"
       style="color-interpolation-filters:sRGB"
       id="filter4796"
       x="-0.024"
       width="1.048"
       y="-0.024"
       height="1.048">
      <feGaussianBlur
         inkscape:collect="always"
         stdDeviation="0.32"
         id="feGaussianBlur4798" />
    </filter>
    <filter
       inkscape:collect="always"
       style="color-interpolation-filters:sRGB"
       id="filter4800"
       x="-0.0123"
       width="1.0246"
       y="-0.0123"
       height="1.0246">
      <feGaussianBlur
         inkscape:collect="always"
         stdDeviation="0.205"
         id="feGaussianBlur4802" />
    </filter>
    <filter
       inkscape:collect="always"
       style="color-interpolation-filters:sRGB"
       id="filter4804"
       x="-0.123"
       width="1.246"
       y="-0.123"
       height="1.246">
      <feGaussianBlur
         inkscape:collect="always"
         stdDeviation="0.205"
         id="feGaussianBlur4806" />
    </filter>
    <filter
       inkscape:collect="always"
       style="color-interpolation-filters:sRGB"
       id="filter4808"
       x="-0.012428571"
       width="1.0248571"
       y="-0.012428571"
       height="1.0248571">
      <feGaussianBlur
         inkscape:collect="always"
         stdDeviation="0.145"
         id="feGaussianBlur4810" />
    </filter>
    <filter
       inkscape:collect="always"
       style="color-interpolation-filters:sRGB"
       id="filter4812"
       x="-0.116"
       width="1.232"
       y="-0.116"
       height="1.232">
      <feGaussianBlur
         inkscape:collect="always"
         stdDeviation="0.145"
         id="feGaussianBlur4814" />
    </filter>
  </defs>
  <sodipodi:namedview
     id="base"
     pagecolor="#c3c3c3"
     bordercolor="#333333"
     borderopacity="1"
     inkscape:pageopacity="0"
     inkscape:pageshadow="2"
     inkscape:zoom="1.4142136"
     inkscape:cx="249.21292"
     inkscape:cy="27.031255"
     inkscape:document-units="px"
     inkscape:current-layer="layer1"
     showgrid="true"
     units="px"
     inkscape:showpageshadow="false"
     inkscape:window-width="1280"
     inkscape:window-height="1369"
     inkscape:window-x="1280"
     inkscape:window-y="35"
     inkscape:window-maximized="0"
     showguides="false">
    <inkscape:grid
       type="xygrid"
       id="grid4630" />
  </sodipodi:namedview>
  <metadata
     id="metadata1084">
    <rdf:RDF>
      <cc:Work
         rdf:about="">
        <dc:format>image/svg+xml</dc:format>
        <dc:type
           rdf:resource="http://purl.org/dc/dcmitype/StillImage" />
        <dc:title></dc:title>
        <cc:license
           rdf:resource="http://creativecommons.org/licenses/by-sa/4.0/" />
        <dc:creator>
          <cc:Agent>
            <dc:title>Peter Cornelis</dc:title>
          </cc:Agent>
        </dc:creator>
      </cc:Work>
      <cc:License
         rdf:about="http://creativecommons.org/licenses/by-sa/4.0/">
        <cc:permits
           rdf:resource="http://creativecommons.org/ns#Reproduction" />
        <cc:permits
           rdf:resource="http://creativecommons.org/ns#Distribution" />
        <cc:requires
           rdf:resource="http://creativecommons.org/ns#Notice" />
        <cc:requires
           rdf:resource="http://creativecommons.org/ns#Attribution" />
        <cc:permits
           rdf:resource="http://creativecommons.org/ns#DerivativeWorks" />
        <cc:requires
           rdf:resource="http://creativecommons.org/ns#ShareAlike" />
      </cc:License>
    </rdf:RDF>
  </metadata>
  <g
     inkscape:label="Baseplate"
     inkscape:groupmode="layer"
     id="layer1"
     transform="translate(0,-153.06668)"
     style="display:none">
    <rect
       style="display:inline;overflow:visible;visibility:visible;fill:#fefefe;fill-opacity:1;fill-rule:nonzero;stroke:none;stroke-width:2;marker:none;enable-background:accumulate"
       id="rect3951"
       width="512"
       height="512"
       x="-826"
       y="169.06668"
       inkscape:label="48x48"
       transform="scale(-1,1)" />
    <text
       y="733.32251"
       xml:space="preserve"
       x="15.006836"
       style="font-style:normal;font-variant:normal;font-weight:normal;font-stretch:normal;line-height:0%;font-family:'DejaVu Sans';-inkscape-font-specification:'DejaVu Sans';display:inline;fill:#000000;fill-opacity:1;stroke:none;enable-background:new"
       inkscape:label="context"
       id="context"><tspan
         style="font-style:normal;font-variant:normal;font-weight:normal;font-stretch:normal;font-size:18px;line-height:1.25;font-family:'DejaVu Sans';-inkscape-font-specification:'DejaVu Sans'"
         y="733.32251"
         x="15.006836"
         sodipodi:role="line"
         id="tspan3933">devices</tspan></text>
    <text
       y="733.32251"
       xml:space="preserve"
       x="142.48828"
       style="font-style:normal;font-variant:normal;font-weight:bold;font-stretch:normal;line-height:0%;font-family:'DejaVu Sans';-inkscape-font-specification:'DejaVu Sans Bold';text-align:start;writing-mode:lr-tb;text-anchor:start;display:inline;fill:#000000;fill-opacity:1;stroke:none;enable-background:new"
       inkscape:label="icon-name"
       id="icon-name"><tspan
         style="font-style:normal;font-variant:normal;font-weight:bold;font-stretch:normal;font-size:18px;line-height:1.25;font-family:'DejaVu Sans';-inkscape-font-specification:'DejaVu Sans Bold'"
         y="733.32251"
         x="142.48828"
         sodipodi:role="line"
         id="tspan3937">camera-web</tspan></text>
    <rect
       style="display:inline;overflow:visible;visibility:visible;fill:#fefefe;fill-opacity:1;fill-rule:nonzero;stroke:none;stroke-width:2;marker:none;enable-background:accumulate"
       id="rect16x16"
       width="16"
       height="16"
       x="-32"
       y="665.06665"
       inkscape:label="16x16"
       transform="scale(-1,1)" />
    <rect
       style="display:inline;overflow:visible;visibility:visible;fill:#fefefe;fill-opacity:1;fill-rule:nonzero;stroke:none;stroke-width:2;marker:none;enable-background:accumulate"
       id="rect24x24"
       width="24"
       height="24"
       x="-102"
       y="657.06665"
       inkscape:label="24x24"
       transform="scale(-1,1)" />
    <rect
       style="display:inline;overflow:visible;visibility:visible;fill:#fefefe;fill-opacity:1;fill-rule:nonzero;stroke:none;stroke-width:2;marker:none;enable-background:accumulate"
       id="rect32x32"
       width="32"
       height="32"
       x="-154"
       y="649.06665"
       inkscape:label="32x32"
       transform="scale(-1,1)" />
    <rect
       inkscape:label="48x48"
       y="633.06665"
       x="-218"
       height="48"
       width="48"
       id="rect48x48"
       style="display:inline;overflow:visible;visibility:visible;fill:#fefefe;fill-opacity:1;fill-rule:nonzero;stroke:none;stroke-width:2;marker:none;enable-background:accumulate"
       transform="scale(-1,1)" />
    <rect
       transform="scale(-1,1)"
       inkscape:label="48x48"
       y="617.06665"
       x="-298"
       height="64"
       width="64"
       id="rect4524"
       style="display:inline;overflow:visible;visibility:visible;fill:#fefefe;fill-opacity:1;fill-rule:nonzero;stroke:none;stroke-width:0.25;marker:none;enable-background:accumulate" />
    <rect
       transform="scale(-1,1)"
       inkscape:label="24x24"
       y="659.06665"
       x="-66"
       height="22"
       width="22"
       id="rect4543"
       style="display:inline;overflow:visible;visibility:visible;fill:#fefefe;fill-opacity:1;fill-rule:nonzero;stroke:none;stroke-width:1.83333325;marker:none;enable-background:accumulate" />
  </g>
  <g
     inkscape:groupmode="layer"
     id="layer2"
     inkscape:label="Bitmap"
     style="display:inline">
    <path
       sodipodi:nodetypes="sscsscsscsscs"
       inkscape:connector-curvature="0"
       id="path5069"
       d="m 169,485 c -1.66505,0 -3,1.2912 -3,3 v 17 17 c 0,1.8617 1.34224,3 3,3 h 17 17 c 1.73784,0 3,-1.2767 3,-3 v -17 -17 c 0,-1.6942 -1.29127,-3 -3,-3 h -17 z"
       style="display:inline;fill:none;fill-opacity:0.5;stroke:none;stroke-width:2;stroke-linecap:round;stroke-linejoin:round;stroke-miterlimit:4;stroke-dasharray:none;stroke-opacity:1;filter:url(#filter5087);enable-background:new" />
    <path
       style="display:inline;fill:none;fill-opacity:0.5;stroke:none;stroke-width:2;stroke-linecap:round;stroke-linejoin:round;stroke-miterlimit:4;stroke-dasharray:none;stroke-opacity:1;filter:url(#filter5087);enable-background:new"
       d="m 169,485 c -1.66505,0 -3,1.2912 -3,3 v 17 17 c 0,1.8617 1.34224,3 3,3 h 17 17 c 1.73784,0 3,-1.2767 3,-3 v -17 -17 c 0,-1.6942 -1.29127,-3 -3,-3 h -17 z"
       id="path4506"
       inkscape:connector-curvature="0"
       sodipodi:nodetypes="sscsscsscsscs" />
    <circle
       r="8"
       cy="520"
       cx="24"
       id="circle4526"
       style="display:inline;opacity:1;fill:#b3bac3;fill-opacity:1;stroke:none;stroke-width:2;stroke-miterlimit:4;stroke-dasharray:none;stroke-opacity:1;enable-background:new" />
    <path
       style="display:inline;fill:#000000;fill-opacity:0.2;stroke:none;stroke-width:2;stroke-linecap:round;stroke-linejoin:round;stroke-miterlimit:4;stroke-dasharray:none;stroke-opacity:1;enable-background:new"
       d="m 89.99994,506.0001 a 10.999828,10.999992 0 0 0 -0.94531,0.047 10.999827,10.999992 0 0 0 -0.51842,0.063 10.999828,10.999992 0 0 0 -0.57167,0.087 10.999827,10.999992 0 0 0 -0.51095,0.1149 10.999828,10.999992 0 0 0 -0.55112,0.1401 10.999827,10.999992 0 0 0 -0.50815,0.1691 10.999828,10.999992 0 0 0 -0.53244,0.1943 10.999827,10.999992 0 0 0 -0.48759,0.2186 10.999828,10.999992 0 0 0 -0.50442,0.2438 10.999827,10.999992 0 0 0 -0.46985,0.269 10.999828,10.999992 0 0 0 -0.47732,0.2924 10.999827,10.999992 0 0 0 -0.43809,0.3138 10.999828,10.999992 0 0 0 -0.44651,0.34 10.999827,10.999992 0 0 0 -0.39418,0.3456 10.999828,10.999992 0 0 0 -0.42315,0.3941 A 10.999827,10.999992 0 0 0 79,517 a 10.999827,10.999992 0 0 0 3.0984,7.6522 h 0.0159 a 10.999828,10.999992 0 0 0 7.88566,3.3478 10.999828,10.999992 0 0 0 0.9341,-0.047 10.999827,10.999992 0 0 0 0.54085,-0.065 10.999828,10.999992 0 0 0 0.56045,-0.085 10.999827,10.999992 0 0 0 0.51095,-0.1148 10.999828,10.999992 0 0 0 0.55112,-0.1402 10.999827,10.999992 0 0 0 0.50815,-0.169 10.999828,10.999992 0 0 0 0.53244,-0.1944 10.999827,10.999992 0 0 0 0.4876,-0.2185 10.999828,10.999992 0 0 0 0.50441,-0.2438 10.999827,10.999992 0 0 0 0.46985,-0.2691 10.999828,10.999992 0 0 0 0.47733,-0.2923 10.999827,10.999992 0 0 0 0.43809,-0.3139 10.999828,10.999992 0 0 0 0.4465,-0.34 10.999827,10.999992 0 0 0 0.39419,-0.3456 10.999828,10.999992 0 0 0 0.42314,-0.3942 10.999827,10.999992 0 0 0 3.22078,-7.7667 10.999827,10.999992 0 0 0 -3.09934,-7.6522 h -0.0149 a 10.999828,10.999992 0 0 0 -7.88566,-3.3478 z"
       id="path4530"
       inkscape:connector-curvature="0" />
    <circle
       style="display:inline;opacity:1;fill:#b3bac3;fill-opacity:1;stroke:none;stroke-width:2;stroke-miterlimit:4;stroke-dasharray:none;stroke-opacity:1;enable-background:new"
       id="path4524"
       cx="90"
       cy="516"
       r="11" />
    <path
       inkscape:connector-curvature="0"
       id="path4534"
       d="m 194.00001,483.0002 a 21.99977,21.999992 0 0 0 -1.89063,0.095 21.999769,21.999992 0 0 0 -1.03685,0.1252 21.99977,21.999992 0 0 0 -1.14334,0.1737 21.999769,21.999992 0 0 0 -1.02191,0.2298 21.99977,21.999992 0 0 0 -1.10224,0.2803 21.999769,21.999992 0 0 0 -1.01631,0.3381 21.99977,21.999992 0 0 0 -1.06488,0.3886 21.999769,21.999992 0 0 0 -0.9752,0.4372 21.99977,21.999992 0 0 0 -1.00883,0.4876 21.999769,21.999992 0 0 0 -0.93971,0.538 21.99977,21.999992 0 0 0 -0.95465,0.5848 21.999769,21.999992 0 0 0 -0.87619,0.6277 21.99977,21.999992 0 0 0 -0.89301,0.68 21.999769,21.999992 0 0 0 -0.78838,0.6912 21.99977,21.999992 0 0 0 -0.84629,0.7881 21.999769,21.999992 0 0 0 -6.44157,15.5345 21.999769,21.999992 0 0 0 6.19684,15.3043 h 0.0318 a 21.99977,21.999992 0 0 0 15.77139,6.6957 21.99977,21.999992 0 0 0 1.86821,-0.094 21.999769,21.999992 0 0 0 1.08169,-0.1308 21.99977,21.999992 0 0 0 1.12092,-0.17 21.999769,21.999992 0 0 0 1.02191,-0.2297 21.99977,21.999992 0 0 0 1.10224,-0.2803 21.999769,21.999992 0 0 0 1.01631,-0.3381 21.99977,21.999992 0 0 0 1.06488,-0.3887 21.999769,21.999992 0 0 0 0.9752,-0.4371 21.99977,21.999992 0 0 0 1.00883,-0.4876 21.999769,21.999992 0 0 0 0.93971,-0.5381 21.99977,21.999992 0 0 0 0.95465,-0.5847 21.999769,21.999992 0 0 0 0.87619,-0.6277 21.99977,21.999992 0 0 0 0.893,-0.68 21.999769,21.999992 0 0 0 0.78839,-0.6912 21.99977,21.999992 0 0 0 0.84629,-0.7885 21.999769,21.999992 0 0 0 6.44158,-15.5333 21.999769,21.999992 0 0 0 -6.19871,-15.3044 h -0.0299 a 21.99977,21.999992 0 0 0 -15.7714,-6.6956 z"
       style="display:inline;fill:#000000;fill-opacity:0.2;stroke:none;stroke-width:2;stroke-linecap:round;stroke-linejoin:round;stroke-miterlimit:4;stroke-dasharray:none;stroke-opacity:1;filter:url(#filter4542);enable-background:new" />
    <circle
       style="display:inline;opacity:1;fill:#b3bac3;fill-opacity:1;stroke:none;stroke-width:2;stroke-miterlimit:4;stroke-dasharray:none;stroke-opacity:1;enable-background:new"
       id="path4520"
       cx="194"
       cy="504"
       r="22" />
    <path
       style="display:inline;fill:#000000;fill-opacity:0.2;stroke:none;stroke-width:16;stroke-linecap:round;stroke-linejoin:round;stroke-miterlimit:4;stroke-dasharray:none;stroke-opacity:1;enable-background:new"
       d="m 569.99874,34.0032 a 239.9963,239.99966 0 0 0 -20.62496,1.024 239.99626,239.99966 0 0 0 -11.31104,1.376 239.9963,239.99966 0 0 0 -12.4728,1.8976 239.99626,239.99966 0 0 0 -11.148,2.5072 239.9963,239.99966 0 0 0 -12.0244,3.056 239.99626,239.99966 0 0 0 -11.08688,3.6896 239.9963,239.99966 0 0 0 -11.61688,4.24 239.99626,239.99966 0 0 0 -10.63832,4.7696 239.9963,239.99966 0 0 0 -11.00552,5.3184 239.99626,239.99966 0 0 0 -10.25128,5.8688 239.9963,239.99966 0 0 0 -10.41425,6.3808 239.99626,239.99966 0 0 0 -9.5584,6.8464 239.9963,239.99966 0 0 0 -9.74208,7.4176 239.99626,239.99966 0 0 0 -8.60024,7.5408 239.9963,239.99966 0 0 0 -9.23232,8.5984 A 239.99626,239.99966 0 0 0 330.00001,274 239.99626,239.99966 0 0 0 397.60145,440.9568 h 0.3472 A 239.9963,239.99966 0 0 0 569.99938,514 a 239.9963,239.99966 0 0 0 20.3804,-1.024 239.99626,239.99966 0 0 0 11.80048,-1.424 239.9963,239.99966 0 0 0 12.228,-1.8544 239.99626,239.99966 0 0 0 11.148,-2.5056 239.9963,239.99966 0 0 0 12.02432,-3.0592 239.99626,239.99966 0 0 0 11.08687,-3.6864 239.9963,239.99966 0 0 0 11.61696,-4.2416 239.99626,239.99966 0 0 0 10.63856,-4.768 239.9963,239.99966 0 0 0 11.00528,-5.3184 239.99626,239.99966 0 0 0 10.25121,-5.872 239.9963,239.99966 0 0 0 10.41456,-6.3776 239.99626,239.99966 0 0 0 9.55824,-6.848 239.9963,239.99966 0 0 0 9.74192,-7.4176 239.99626,239.99966 0 0 0 8.60048,-7.5408 239.9963,239.99966 0 0 0 9.23216,-8.6016 239.99626,239.99966 0 0 0 70.2716,-169.4544 239.99626,239.99966 0 0 0 -67.622,-166.9568 h -0.3248 A 239.9963,239.99966 0 0 0 570.00082,34.0064 Z"
       id="path4550"
       inkscape:connector-curvature="0" />
    <path
       inkscape:connector-curvature="0"
       id="path4554"
       d="m 569.99874,34.0032 a 239.9963,239.99966 0 0 0 -20.62496,1.024 239.99626,239.99966 0 0 0 -11.31104,1.376 239.9963,239.99966 0 0 0 -12.4728,1.8976 239.99626,239.99966 0 0 0 -11.148,2.5072 239.9963,239.99966 0 0 0 -12.0244,3.056 239.99626,239.99966 0 0 0 -11.08688,3.6896 239.9963,239.99966 0 0 0 -11.61688,4.24 239.99626,239.99966 0 0 0 -10.63832,4.7696 239.9963,239.99966 0 0 0 -11.00552,5.3184 239.99626,239.99966 0 0 0 -10.25128,5.8688 239.9963,239.99966 0 0 0 -10.41425,6.3808 239.99626,239.99966 0 0 0 -9.5584,6.8464 239.9963,239.99966 0 0 0 -9.74208,7.4176 239.99626,239.99966 0 0 0 -8.60024,7.5408 239.9963,239.99966 0 0 0 -9.23232,8.5984 A 239.99626,239.99966 0 0 0 330.00001,274 239.99626,239.99966 0 0 0 397.60145,440.9568 h 0.3472 A 239.9963,239.99966 0 0 0 569.99938,514 a 239.9963,239.99966 0 0 0 20.3804,-1.024 239.99626,239.99966 0 0 0 11.80048,-1.424 239.9963,239.99966 0 0 0 12.228,-1.8544 239.99626,239.99966 0 0 0 11.148,-2.5056 239.9963,239.99966 0 0 0 12.02432,-3.0592 239.99626,239.99966 0 0 0 11.08687,-3.6864 239.9963,239.99966 0 0 0 11.61696,-4.2416 239.99626,239.99966 0 0 0 10.63856,-4.768 239.9963,239.99966 0 0 0 11.00528,-5.3184 239.99626,239.99966 0 0 0 10.25121,-5.872 239.9963,239.99966 0 0 0 10.41456,-6.3776 239.99626,239.99966 0 0 0 9.55824,-6.848 239.9963,239.99966 0 0 0 9.74192,-7.4176 239.99626,239.99966 0 0 0 8.60048,-7.5408 239.9963,239.99966 0 0 0 9.23216,-8.6016 239.99626,239.99966 0 0 0 70.2716,-169.4544 239.99626,239.99966 0 0 0 -67.622,-166.9568 h -0.3248 A 239.9963,239.99966 0 0 0 570.00082,34.0064 Z"
       style="display:inline;fill:#000000;fill-opacity:0.2;stroke:none;stroke-width:16;stroke-linecap:round;stroke-linejoin:round;stroke-miterlimit:4;stroke-dasharray:none;stroke-opacity:1;filter:url(#filter4606);enable-background:new" />
    <circle
       style="display:inline;opacity:1;fill:#b3bac3;fill-opacity:1;stroke:none;stroke-width:2;stroke-miterlimit:4;stroke-dasharray:none;stroke-opacity:1;enable-background:new"
       id="path4518"
       cx="570"
       cy="272"
       r="240" />
    <path
       inkscape:connector-curvature="0"
       id="path4532"
       d="m 137.99993,498.0002 a 14.999763,14.99998 0 0 0 -1.28906,0.064 14.999761,14.99998 0 0 0 -0.70694,0.086 14.999763,14.99998 0 0 0 -0.77955,0.1186 14.999761,14.99998 0 0 0 -0.69675,0.1567 14.999763,14.99998 0 0 0 -0.75153,0.191 14.999761,14.99998 0 0 0 -0.69293,0.2306 14.999763,14.99998 0 0 0 -0.72605,0.265 14.999761,14.99998 0 0 0 -0.6649,0.2981 14.999763,14.99998 0 0 0 -0.68784,0.3324 14.999761,14.99998 0 0 0 -0.64071,0.3668 14.999763,14.99998 0 0 0 -0.65089,0.3988 14.999761,14.99998 0 0 0 -0.5974,0.4279 14.999763,14.99998 0 0 0 -0.60887,0.4636 14.999761,14.99998 0 0 0 -0.53752,0.4713 14.999763,14.99998 0 0 0 -0.57702,0.5374 A 14.999761,14.99998 0 0 0 123,513 a 14.999761,14.99998 0 0 0 4.2251,10.4348 h 0.0217 a 14.999763,14.99998 0 0 0 10.75317,4.5652 14.999763,14.99998 0 0 0 1.27377,-0.064 14.999761,14.99998 0 0 0 0.73753,-0.089 14.999763,14.99998 0 0 0 0.76425,-0.1159 14.999761,14.99998 0 0 0 0.69675,-0.1566 14.999763,14.99998 0 0 0 0.75152,-0.1912 14.999761,14.99998 0 0 0 0.69293,-0.2304 14.999763,14.99998 0 0 0 0.72606,-0.2651 14.999761,14.99998 0 0 0 0.66491,-0.298 14.999763,14.99998 0 0 0 0.68783,-0.3324 14.999761,14.99998 0 0 0 0.6407,-0.367 14.999763,14.99998 0 0 0 0.65091,-0.3986 14.999761,14.99998 0 0 0 0.59739,-0.428 14.999763,14.99998 0 0 0 0.60887,-0.4636 14.999761,14.99998 0 0 0 0.53753,-0.4713 14.999763,14.99998 0 0 0 0.57701,-0.5376 14.999761,14.99998 0 0 0 4.39197,-10.5909 14.999761,14.99998 0 0 0 -4.22637,-10.4348 h -0.0203 a 14.999763,14.99998 0 0 0 -10.75317,-4.5652 z"
       style="display:inline;fill:#000000;fill-opacity:0.2;stroke:none;stroke-width:2;stroke-linecap:round;stroke-linejoin:round;stroke-miterlimit:4;stroke-dasharray:none;stroke-opacity:1;enable-background:new" />
    <circle
       style="display:inline;opacity:1;fill:#b3bac3;fill-opacity:1;stroke:none;stroke-width:2;stroke-miterlimit:4;stroke-dasharray:none;stroke-opacity:1;enable-background:new"
       id="path4522"
       cx="138"
       cy="512"
       r="15" />
    <path
       id="path4507"
       d="M 809.95898,273.17 A 240,240 0 0 0 570,33.99812 240,240 0 0 0 330.04102,272.82624 240,240 0 0 1 330,271.99812 a 240,240 0 0 1 240,-240 240,240 0 0 1 240,240 240,240 0 0 1 -0.041,1.17188 z"
       style="display:inline;opacity:1;fill:#ffffff;fill-opacity:0.2;stroke:none;stroke-width:2;stroke-miterlimit:4;stroke-dasharray:none;stroke-opacity:1;enable-background:new"
       inkscape:connector-curvature="0" />
    <path
       id="path4514"
       d="M 215.97852,504.588 A 22,22 0 0 0 194,483.00206 22,22 0 0 0 172.02148,504.41612 22,22 0 0 1 172,504.00206 a 22,22 0 0 1 22,-22 22,22 0 0 1 22,22 22,22 0 0 1 -0.0215,0.58594 z"
       style="display:inline;opacity:1;fill:#ffffff;fill-opacity:0.2;stroke:none;stroke-width:2;stroke-miterlimit:4;stroke-dasharray:none;stroke-opacity:1;enable-background:new"
       inkscape:connector-curvature="0" />
    <path
       style="display:inline;opacity:1;fill:#ffffff;fill-opacity:0.2;stroke:none;stroke-width:2;stroke-miterlimit:4;stroke-dasharray:none;stroke-opacity:1;enable-background:new"
       d="m 138,497 a 15,15 0 0 0 -15,15 15,15 0 0 0 0.0195,0.58594 A 15,15 0 0 1 138,498 15,15 0 0 1 152.98047,512.41406 15,15 0 0 0 153,512 15,15 0 0 0 138,497 Z"
       id="circle4521"
       inkscape:connector-curvature="0" />
    <path
       style="display:inline;opacity:1;fill:#ffffff;fill-opacity:0.2;stroke:none;stroke-width:2;stroke-miterlimit:4;stroke-dasharray:none;stroke-opacity:1;enable-background:new"
       d="m 90,505 a 11,11 0 0 0 -11,11 11,11 0 0 0 0.02148,0.58594 A 11,11 0 0 1 90,506 11,11 0 0 1 100.97852,516.41406 11,11 0 0 0 101,516 11,11 0 0 0 90,505 Z"
       id="circle4527"
       inkscape:connector-curvature="0" />
    <path
       style="display:inline;fill:url(#linearGradient4171-1-0);fill-opacity:1;stroke:none;stroke-width:2;stroke-linecap:round;stroke-linejoin:round;stroke-miterlimit:4;stroke-dasharray:none;stroke-opacity:1;enable-background:new"
       d="m 194.00001,-317.9997 a 21.99977,21.999992 0 0 0 -1.89063,0.095 21.999769,21.999992 0 0 0 -1.03685,0.1252 21.99977,21.999992 0 0 0 -1.14334,0.1737 21.999769,21.999992 0 0 0 -1.02191,0.2298 21.99977,21.999992 0 0 0 -1.10224,0.2803 21.999769,21.999992 0 0 0 -1.01631,0.3381 21.99977,21.999992 0 0 0 -1.06488,0.3886 21.999769,21.999992 0 0 0 -0.9752,0.4372 21.99977,21.999992 0 0 0 -1.00883,0.4876 21.999769,21.999992 0 0 0 -0.93971,0.538 21.99977,21.999992 0 0 0 -0.95465,0.5848 21.999769,21.999992 0 0 0 -0.87619,0.6277 21.99977,21.999992 0 0 0 -0.89301,0.68 21.999769,21.999992 0 0 0 -0.78838,0.6912 21.99977,21.999992 0 0 0 -0.84629,0.7881 21.999769,21.999992 0 0 0 -6.44157,15.5345 21.999769,21.999992 0 0 0 6.19684,15.3043 h 0.0318 a 21.99977,21.999992 0 0 0 15.77139,6.6957 21.99977,21.999992 0 0 0 1.86821,-0.094 21.999769,21.999992 0 0 0 1.08169,-0.1308 21.99977,21.999992 0 0 0 1.12092,-0.17 21.999769,21.999992 0 0 0 1.02191,-0.2297 21.99977,21.999992 0 0 0 1.10224,-0.2803 21.999769,21.999992 0 0 0 1.01631,-0.3381 21.99977,21.999992 0 0 0 1.06488,-0.3887 21.999769,21.999992 0 0 0 0.9752,-0.4371 21.99977,21.999992 0 0 0 1.00883,-0.4876 21.999769,21.999992 0 0 0 0.93971,-0.5381 21.99977,21.999992 0 0 0 0.95465,-0.5847 21.999769,21.999992 0 0 0 0.87619,-0.6277 21.99977,21.999992 0 0 0 0.893,-0.68 21.999769,21.999992 0 0 0 0.78839,-0.6912 21.99977,21.999992 0 0 0 0.84629,-0.7885 21.999769,21.999992 0 0 0 6.44158,-15.5333 21.999769,21.999992 0 0 0 -6.19871,-15.3044 h -0.0299 a 21.99977,21.999992 0 0 0 -15.7714,-6.6956 z"
       id="circle4163-3-4"
       inkscape:connector-curvature="0" />
    <path
       style="display:inline;fill:url(#linearGradient4435);fill-opacity:1;stroke:none;stroke-width:2;stroke-linecap:round;stroke-linejoin:round;stroke-miterlimit:4;stroke-dasharray:none;stroke-opacity:1;enable-background:new"
       d="m 137.99987,-303.0002 a 14.999763,14.99998 0 0 0 -1.28906,0.064 14.999761,14.99998 0 0 0 -0.70694,0.086 14.999763,14.99998 0 0 0 -0.77955,0.1186 14.999761,14.99998 0 0 0 -0.69675,0.1567 14.999763,14.99998 0 0 0 -0.75153,0.191 14.999761,14.99998 0 0 0 -0.69293,0.2306 14.999763,14.99998 0 0 0 -0.72605,0.265 14.999761,14.99998 0 0 0 -0.6649,0.2981 14.999763,14.99998 0 0 0 -0.68784,0.3324 14.999761,14.99998 0 0 0 -0.64071,0.3668 14.999763,14.99998 0 0 0 -0.65089,0.3988 14.999761,14.99998 0 0 0 -0.5974,0.4279 14.999763,14.99998 0 0 0 -0.60887,0.4636 14.999761,14.99998 0 0 0 -0.53752,0.4713 14.999763,14.99998 0 0 0 -0.57702,0.5374 14.999761,14.99998 0 0 0 -4.39197,10.5916 14.999761,14.99998 0 0 0 4.2251,10.4348 h 0.0217 a 14.999763,14.99998 0 0 0 10.75317,4.5652 14.999763,14.99998 0 0 0 1.27377,-0.064 14.999761,14.99998 0 0 0 0.73753,-0.089 14.999763,14.99998 0 0 0 0.76425,-0.1159 14.999761,14.99998 0 0 0 0.69675,-0.1566 14.999763,14.99998 0 0 0 0.75152,-0.1912 14.999761,14.99998 0 0 0 0.69293,-0.2304 14.999763,14.99998 0 0 0 0.72606,-0.2651 14.999761,14.99998 0 0 0 0.66491,-0.298 14.999763,14.99998 0 0 0 0.68783,-0.3324 14.999761,14.99998 0 0 0 0.6407,-0.367 14.999763,14.99998 0 0 0 0.65091,-0.3986 14.999761,14.99998 0 0 0 0.59739,-0.428 14.999763,14.99998 0 0 0 0.60887,-0.4636 14.999761,14.99998 0 0 0 0.53753,-0.4713 14.999763,14.99998 0 0 0 0.57701,-0.5376 14.999761,14.99998 0 0 0 4.39197,-10.5909 14.999761,14.99998 0 0 0 -4.22637,-10.4348 h -0.0203 A 14.999763,14.99998 0 0 0 138,-303 Z"
       id="path4433"
       inkscape:connector-curvature="0" />
    <path
       inkscape:connector-curvature="0"
       id="path4447"
       d="m 569.99874,-767.99742 a 239.9963,239.99966 0 0 0 -20.62496,1.024 239.99626,239.99966 0 0 0 -11.31104,1.376 239.9963,239.99966 0 0 0 -12.4728,1.8976 239.99626,239.99966 0 0 0 -11.148,2.5072 239.9963,239.99966 0 0 0 -12.0244,3.056 239.99626,239.99966 0 0 0 -11.08688,3.6896 239.9963,239.99966 0 0 0 -11.61688,4.24 239.99626,239.99966 0 0 0 -10.63832,4.7696 239.9963,239.99966 0 0 0 -11.00552,5.3184 239.99626,239.99966 0 0 0 -10.25128,5.8688 239.9963,239.99966 0 0 0 -10.41425,6.3808 239.99626,239.99966 0 0 0 -9.5584,6.8464 239.9963,239.99966 0 0 0 -9.74208,7.4176 239.99626,239.99966 0 0 0 -8.60024,7.5408 239.9963,239.99966 0 0 0 -9.23232,8.5984 239.99626,239.99966 0 0 0 -70.27136,169.4656 239.99626,239.99966 0 0 0 67.60144,166.9568 h 0.3472 a 239.9963,239.99966 0 0 0 172.05073,73.0432 239.9963,239.99966 0 0 0 20.3804,-1.024 239.99626,239.99966 0 0 0 11.80048,-1.424 239.9963,239.99966 0 0 0 12.228,-1.8544 239.99626,239.99966 0 0 0 11.148,-2.5056 239.9963,239.99966 0 0 0 12.02432,-3.0592 239.99626,239.99966 0 0 0 11.08687,-3.6864 239.9963,239.99966 0 0 0 11.61696,-4.2416 239.99626,239.99966 0 0 0 10.63856,-4.768 239.9963,239.99966 0 0 0 11.00528,-5.3184 239.99626,239.99966 0 0 0 10.25121,-5.872 239.9963,239.99966 0 0 0 10.41456,-6.3776 239.99626,239.99966 0 0 0 9.55824,-6.848 239.9963,239.99966 0 0 0 9.74192,-7.4176 239.99626,239.99966 0 0 0 8.60048,-7.5408 239.9963,239.99966 0 0 0 9.23216,-8.6016 239.99626,239.99966 0 0 0 70.2716,-169.4544 239.99626,239.99966 0 0 0 -67.622,-166.9568 h -0.3248 a 239.9963,239.99966 0 0 0 -172.0508,-73.0432 z"
       style="display:inline;fill:url(#linearGradient4449-0);fill-opacity:1;stroke:none;stroke-width:16;stroke-linecap:round;stroke-linejoin:round;stroke-miterlimit:4;stroke-dasharray:none;stroke-opacity:1;enable-background:new" />
    <path
       inkscape:connector-curvature="0"
       id="path4546"
       d="m 265.99984,467.0004 a 29.999537,29.999957 0 0 0 -2.57812,0.128 29.999532,29.999957 0 0 0 -1.41388,0.172 29.999537,29.999957 0 0 0 -1.5591,0.2372 29.999532,29.999957 0 0 0 -1.3935,0.3134 29.999537,29.999957 0 0 0 -1.50305,0.382 29.999532,29.999957 0 0 0 -1.38586,0.4612 29.999537,29.999957 0 0 0 -1.45211,0.53 29.999532,29.999957 0 0 0 -1.32979,0.5962 29.999537,29.999957 0 0 0 -1.37569,0.6648 29.999532,29.999957 0 0 0 -1.28141,0.7336 29.999537,29.999957 0 0 0 -1.30178,0.7976 29.999532,29.999957 0 0 0 -1.1948,0.8558 29.999537,29.999957 0 0 0 -1.21776,0.9272 29.999532,29.999957 0 0 0 -1.07503,0.9426 29.999537,29.999957 0 0 0 -1.15404,1.0748 A 29.999532,29.999957 0 0 0 236,497 a 29.999532,29.999957 0 0 0 8.45018,20.8696 h 0.0434 a 29.999537,29.999957 0 0 0 21.50634,9.1304 29.999537,29.999957 0 0 0 2.54755,-0.128 29.999532,29.999957 0 0 0 1.47506,-0.178 29.999537,29.999957 0 0 0 1.5285,-0.2318 29.999532,29.999957 0 0 0 1.3935,-0.3132 29.999537,29.999957 0 0 0 1.50304,-0.3824 29.999532,29.999957 0 0 0 1.38586,-0.4608 29.999537,29.999957 0 0 0 1.45212,-0.5302 29.999532,29.999957 0 0 0 1.32982,-0.596 29.999537,29.999957 0 0 0 1.37566,-0.6648 29.999532,29.999957 0 0 0 1.2814,-0.734 29.999537,29.999957 0 0 0 1.30182,-0.7972 29.999532,29.999957 0 0 0 1.19478,-0.856 29.999537,29.999957 0 0 0 1.21774,-0.9272 29.999532,29.999957 0 0 0 1.07506,-0.9426 29.999537,29.999957 0 0 0 1.15402,-1.0752 29.999532,29.999957 0 0 0 8.78395,-21.1818 29.999532,29.999957 0 0 0 -8.45275,-20.8696 h -0.0406 a 29.999537,29.999957 0 0 0 -21.50635,-9.1304 z"
       style="display:inline;fill:#000000;fill-opacity:0.2;stroke:none;stroke-width:2;stroke-linecap:round;stroke-linejoin:round;stroke-miterlimit:4;stroke-dasharray:none;stroke-opacity:1;filter:url(#filter4541);enable-background:new" />
    <circle
       cy="496"
       cx="266"
       id="circle4528"
       style="display:inline;opacity:1;fill:#b3bac3;fill-opacity:1;stroke:none;stroke-width:0.25;stroke-miterlimit:4;stroke-dasharray:none;stroke-opacity:1;enable-background:new"
       r="30" />
    <path
       style="display:inline;opacity:1;fill:#ffffff;fill-opacity:0.2;stroke:none;stroke-width:0.25;stroke-miterlimit:4;stroke-dasharray:none;stroke-opacity:1;enable-background:new"
       d="m 266,466 a 30,30 0 0 0 -30,30 30,30 0 0 0 0.0215,0.58984 A 30,30 0 0 1 266,467 30,30 0 0 1 295.97852,496.41016 30,30 0 0 0 296,496 30,30 0 0 0 266,466 Z"
       id="circle4539"
       inkscape:connector-curvature="0" />
    <path
       style="display:inline;fill:url(#linearGradient4537);fill-opacity:1;stroke:none;stroke-width:2;stroke-linecap:round;stroke-linejoin:round;stroke-miterlimit:4;stroke-dasharray:none;stroke-opacity:1;enable-background:new"
       d="m 265.99984,-333.99968 a 29.999537,29.999957 0 0 0 -2.57812,0.128 29.999532,29.999957 0 0 0 -1.41388,0.172 29.999537,29.999957 0 0 0 -1.5591,0.2372 29.999532,29.999957 0 0 0 -1.3935,0.3134 29.999537,29.999957 0 0 0 -1.50305,0.382 29.999532,29.999957 0 0 0 -1.38586,0.4612 29.999537,29.999957 0 0 0 -1.45211,0.53 29.999532,29.999957 0 0 0 -1.32979,0.5962 29.999537,29.999957 0 0 0 -1.37569,0.6648 29.999532,29.999957 0 0 0 -1.28141,0.7336 29.999537,29.999957 0 0 0 -1.30178,0.7976 29.999532,29.999957 0 0 0 -1.1948,0.8558 29.999537,29.999957 0 0 0 -1.21776,0.9272 29.999532,29.999957 0 0 0 -1.07503,0.9426 29.999537,29.999957 0 0 0 -1.15404,1.0748 29.999532,29.999957 0 0 0 -8.78392,21.1832 29.999532,29.999957 0 0 0 8.45018,20.8696 h 0.0434 a 29.999537,29.999957 0 0 0 21.50634,9.1304 29.999537,29.999957 0 0 0 2.54755,-0.128 29.999532,29.999957 0 0 0 1.47506,-0.178 29.999537,29.999957 0 0 0 1.5285,-0.2318 29.999532,29.999957 0 0 0 1.3935,-0.3132 29.999537,29.999957 0 0 0 1.50304,-0.3824 29.999532,29.999957 0 0 0 1.38586,-0.4608 29.999537,29.999957 0 0 0 1.45212,-0.5302 29.999532,29.999957 0 0 0 1.32982,-0.596 29.999537,29.999957 0 0 0 1.37566,-0.6648 29.999532,29.999957 0 0 0 1.2814,-0.734 29.999537,29.999957 0 0 0 1.30182,-0.7972 29.999532,29.999957 0 0 0 1.19478,-0.856 29.999537,29.999957 0 0 0 1.21774,-0.9272 29.999532,29.999957 0 0 0 1.07506,-0.9426 29.999537,29.999957 0 0 0 1.15402,-1.0752 29.999532,29.999957 0 0 0 8.78395,-21.1818 29.999532,29.999957 0 0 0 -8.45275,-20.8696 h -0.0406 a 29.999537,29.999957 0 0 0 -21.50635,-9.1304 z"
       id="path4535"
       inkscape:connector-curvature="0" />
    <path
       inkscape:connector-curvature="0"
       id="path4618"
       d="m 89.999985,-295 a 10.999863,11.000059 0 0 0 -0.945313,0.0469 10.999861,11.000059 0 0 0 -0.518425,0.0631 10.999863,11.000059 0 0 0 -0.571672,0.087 10.999861,11.000059 0 0 0 -0.510951,0.11492 10.999863,11.000059 0 0 0 -0.551124,0.14007 10.999861,11.000059 0 0 0 -0.508151,0.1691 10.999863,11.000059 0 0 0 -0.532438,0.19434 10.999861,11.000059 0 0 0 -0.487595,0.21861 10.999863,11.000059 0 0 0 -0.504418,0.24376 10.999861,11.000059 0 0 0 -0.469855,0.26899 10.999863,11.000059 0 0 0 -0.477321,0.29245 10.999861,11.000059 0 0 0 -0.438095,0.3138 10.999863,11.000059 0 0 0 -0.446506,0.33997 10.999861,11.000059 0 0 0 -0.394183,0.34563 10.999863,11.000059 0 0 0 -0.423149,0.39409 10.999861,11.000059 0 0 0 -3.220789,7.7672 10.999861,11.000059 0 0 0 3.098417,7.65223 h 0.01591 a 10.999863,11.000059 0 0 0 7.885685,3.34784 10.999863,11.000059 0 0 0 0.934101,-0.0469 10.999861,11.000059 0 0 0 0.540857,-0.0653 10.999863,11.000059 0 0 0 0.560452,-0.085 10.999861,11.000059 0 0 0 0.510951,-0.11485 10.999863,11.000059 0 0 0 0.551117,-0.14021 10.999861,11.000059 0 0 0 0.50815,-0.16896 10.999863,11.000059 0 0 0 0.532446,-0.19441 10.999861,11.000059 0 0 0 0.487602,-0.21853 10.999863,11.000059 0 0 0 0.504411,-0.24377 10.999861,11.000059 0 0 0 0.469848,-0.26913 10.999863,11.000059 0 0 0 0.477336,-0.29231 10.999861,11.000059 0 0 0 0.438087,-0.31387 10.999863,11.000059 0 0 0 0.446506,-0.33997 10.999861,11.000059 0 0 0 0.39419,-0.34563 10.999863,11.000059 0 0 0 0.423142,-0.39424 10.999861,11.000059 0 0 0 3.220792,-7.7667 10.999861,11.000059 0 0 0 -3.099348,-7.65224 h -0.01489 a 10.999863,11.000059 0 0 0 -7.885684,-3.34783 z"
       style="display:inline;fill:url(#linearGradient4620);fill-opacity:1;stroke:none;stroke-width:1.46667397;stroke-linecap:round;stroke-linejoin:round;stroke-miterlimit:4;stroke-dasharray:none;stroke-opacity:1;enable-background:new" />
    <path
       inkscape:connector-curvature="0"
       id="path4545"
       d="m 54.99994,507.0001 a 10.999828,10.999992 0 0 0 -0.94531,0.047 10.999827,10.999992 0 0 0 -0.51842,0.063 10.999828,10.999992 0 0 0 -0.57167,0.087 10.999827,10.999992 0 0 0 -0.51095,0.1149 10.999828,10.999992 0 0 0 -0.55112,0.1401 10.999827,10.999992 0 0 0 -0.50815,0.1691 10.999828,10.999992 0 0 0 -0.53244,0.1943 10.999827,10.999992 0 0 0 -0.48759,0.2186 10.999828,10.999992 0 0 0 -0.50442,0.2438 10.999827,10.999992 0 0 0 -0.46985,0.269 10.999828,10.999992 0 0 0 -0.47732,0.2924 10.999827,10.999992 0 0 0 -0.43809,0.3138 10.999828,10.999992 0 0 0 -0.44651,0.34 10.999827,10.999992 0 0 0 -0.39418,0.3456 10.999828,10.999992 0 0 0 -0.42315,0.3941 A 10.999827,10.999992 0 0 0 44,518 a 10.999827,10.999992 0 0 0 3.0984,7.6522 h 0.0159 a 10.999828,10.999992 0 0 0 7.88566,3.3478 10.999828,10.999992 0 0 0 0.9341,-0.047 10.999827,10.999992 0 0 0 0.54085,-0.065 10.999828,10.999992 0 0 0 0.56045,-0.085 10.999827,10.999992 0 0 0 0.51095,-0.1148 10.999828,10.999992 0 0 0 0.55112,-0.1402 10.999827,10.999992 0 0 0 0.50815,-0.169 10.999828,10.999992 0 0 0 0.53244,-0.1944 10.999827,10.999992 0 0 0 0.4876,-0.2185 10.999828,10.999992 0 0 0 0.50441,-0.2438 10.999827,10.999992 0 0 0 0.46985,-0.2691 10.999828,10.999992 0 0 0 0.47733,-0.2923 10.999827,10.999992 0 0 0 0.43809,-0.3139 10.999828,10.999992 0 0 0 0.4465,-0.34 10.999827,10.999992 0 0 0 0.39419,-0.3456 10.999828,10.999992 0 0 0 0.42314,-0.3942 10.999827,10.999992 0 0 0 3.22078,-7.7667 10.999827,10.999992 0 0 0 -3.09934,-7.6522 h -0.0149 a 10.999828,10.999992 0 0 0 -7.88566,-3.3478 z"
       style="display:inline;fill:#000000;fill-opacity:0.2;stroke:none;stroke-width:2;stroke-linecap:round;stroke-linejoin:round;stroke-miterlimit:4;stroke-dasharray:none;stroke-opacity:1;enable-background:new" />
    <circle
       r="11"
       cy="517"
       cx="55"
       id="circle4547"
       style="display:inline;opacity:1;fill:#b3bac3;fill-opacity:1;stroke:none;stroke-width:2;stroke-miterlimit:4;stroke-dasharray:none;stroke-opacity:1;enable-background:new" />
    <path
       inkscape:connector-curvature="0"
       id="path4549"
       d="m 55,506 a 11,11 0 0 0 -11,11 11,11 0 0 0 0.02148,0.58594 A 11,11 0 0 1 55,507 11,11 0 0 1 65.97852,517.41406 11,11 0 0 0 66,517 11,11 0 0 0 55,506 Z"
       style="display:inline;opacity:1;fill:#ffffff;fill-opacity:0.2;stroke:none;stroke-width:2;stroke-miterlimit:4;stroke-dasharray:none;stroke-opacity:1;enable-background:new" />
    <path
       style="display:inline;fill:url(#linearGradient4553);fill-opacity:1;stroke:none;stroke-width:1.46667397;stroke-linecap:round;stroke-linejoin:round;stroke-miterlimit:4;stroke-dasharray:none;stroke-opacity:1;enable-background:new"
       d="m 54.999985,-294 a 10.999863,11.000059 0 0 0 -0.945313,0.0469 10.999861,11.000059 0 0 0 -0.518425,0.0631 10.999863,11.000059 0 0 0 -0.571672,0.087 10.999861,11.000059 0 0 0 -0.510951,0.11492 10.999863,11.000059 0 0 0 -0.551124,0.14007 10.999861,11.000059 0 0 0 -0.508151,0.1691 10.999863,11.000059 0 0 0 -0.532438,0.19434 10.999861,11.000059 0 0 0 -0.487595,0.21861 10.999863,11.000059 0 0 0 -0.504418,0.24376 10.999861,11.000059 0 0 0 -0.469855,0.26899 10.999863,11.000059 0 0 0 -0.477321,0.29245 10.999861,11.000059 0 0 0 -0.438095,0.3138 10.999863,11.000059 0 0 0 -0.446506,0.33997 10.999861,11.000059 0 0 0 -0.394183,0.34563 10.999863,11.000059 0 0 0 -0.423149,0.39409 10.999861,11.000059 0 0 0 -3.220789,7.7672 10.999861,11.000059 0 0 0 3.098417,7.65223 h 0.01591 a 10.999863,11.000059 0 0 0 7.885685,3.34784 10.999863,11.000059 0 0 0 0.934101,-0.0469 10.999861,11.000059 0 0 0 0.540857,-0.0653 10.999863,11.000059 0 0 0 0.560452,-0.085 10.999861,11.000059 0 0 0 0.510951,-0.11485 10.999863,11.000059 0 0 0 0.551117,-0.14021 10.999861,11.000059 0 0 0 0.50815,-0.16896 10.999863,11.000059 0 0 0 0.532446,-0.19441 10.999861,11.000059 0 0 0 0.487602,-0.21853 10.999863,11.000059 0 0 0 0.504411,-0.24377 10.999861,11.000059 0 0 0 0.469848,-0.26913 10.999863,11.000059 0 0 0 0.477336,-0.29231 10.999861,11.000059 0 0 0 0.438087,-0.31387 10.999863,11.000059 0 0 0 0.446506,-0.33997 10.999861,11.000059 0 0 0 0.39419,-0.34563 10.999863,11.000059 0 0 0 0.423142,-0.39424 10.999861,11.000059 0 0 0 3.220792,-7.7667 10.999861,11.000059 0 0 0 -3.099348,-7.65224 h -0.01489 a 10.999863,11.000059 0 0 0 -7.885684,-3.34783 z"
       id="path4551"
       inkscape:connector-curvature="0" />
    <circle
       style="opacity:1;fill:#7b1fa2;fill-opacity:1;stroke:none;stroke-width:2.4000001;stroke-linecap:round;stroke-linejoin:round;stroke-miterlimit:4;stroke-dasharray:none;stroke-opacity:1"
       id="path4735"
       cx="194"
       cy="504"
       r="12" />
    <path
       id="path4588"
       d="m 194,491 a 14,14 0 0 0 -14,14 14,14 0 0 0 14,14 14,14 0 0 0 14,-14 14,14 0 0 0 -14,-14 z m 0,2 a 12,12 0 0 1 12,12 12,12 0 0 1 -12,12 12,12 0 0 1 -12,-12 12,12 0 0 1 12,-12 z"
       style="opacity:1;fill:#000000;fill-opacity:0.2;stroke:none;stroke-width:1.07692313;stroke-opacity:1;filter:url(#filter4808)"
       inkscape:connector-curvature="0" />
    <path
       style="opacity:1;fill:#f5f5f5;fill-opacity:1;stroke:none;stroke-width:1.07692313;stroke-opacity:1"
       d="M 194 490 A 14 14 0 0 0 180 504 A 14 14 0 0 0 194 518 A 14 14 0 0 0 208 504 A 14 14 0 0 0 194 490 z M 194 492 A 12 12 0 0 1 206 504 A 12 12 0 0 1 194 516 A 12 12 0 0 1 182 504 A 12 12 0 0 1 194 492 z "
       id="path4583" />
    <ellipse
       style="opacity:1;fill:#ffffff;fill-opacity:0.2;stroke:none;stroke-width:2.34639764;stroke-linecap:round;stroke-linejoin:round;stroke-miterlimit:4;stroke-dasharray:none;stroke-opacity:1"
       id="path4737"
       cx="193.99823"
       cy="504"
       rx="7.9981866"
       ry="7.9999785" />
    <path
       style="opacity:1;fill:#ffffff;fill-opacity:0.4;stroke:none;stroke-width:2.34639764;stroke-linecap:round;stroke-linejoin:round;stroke-miterlimit:4;stroke-dasharray:none;stroke-opacity:1"
       d="m 188.34269,509.65686 a 7.998186,7.9999787 0 0 0 11.31116,0 l -11.31116,-11.31384 a 7.998186,7.9999787 0 0 0 0,11.31384 z"
       id="circle4758"
       inkscape:connector-curvature="0" />
    <path
       inkscape:connector-curvature="0"
       id="path4763"
       d="m 199.65731,509.65686 a 7.998186,7.9999787 0 0 1 -11.31114,0 l 11.31114,-11.31384 a 7.998186,7.9999787 0 0 1 0,11.31384 z"
       style="opacity:1;fill:#ffffff;fill-opacity:0.5;stroke:none;stroke-width:2.34639764;stroke-linecap:round;stroke-linejoin:round;stroke-miterlimit:4;stroke-dasharray:none;stroke-opacity:1" />
    <circle
       r="1.5"
       cy="493.5"
       cx="208.5"
       id="circle4595"
       style="opacity:1;fill:#000000;fill-opacity:0.2;stroke:none;stroke-width:2;stroke-linecap:round;stroke-linejoin:round;stroke-miterlimit:4;stroke-dasharray:none;stroke-opacity:1;filter:url(#filter4812)" />
    <circle
       style="opacity:1;fill:#ec407a;fill-opacity:1;stroke:none;stroke-width:2;stroke-linecap:round;stroke-linejoin:round;stroke-miterlimit:4;stroke-dasharray:none;stroke-opacity:1"
       id="path4765"
       cx="208.5"
       cy="492.5"
       r="1.5" />
    <path
       style="opacity:1;fill:#ffffff;fill-opacity:1;stroke:none;stroke-width:1.07692313;stroke-opacity:1"
       d="M 194 490 A 14 14 0 0 0 180 504 A 14 14 0 0 0 180.02148 504.41406 A 14 14 0 0 1 194 491 A 14 14 0 0 1 207.97852 504.58594 A 14 14 0 0 0 208 504 A 14 14 0 0 0 194 490 z M 205.98047 504.40625 A 12 12 0 0 1 194 516 A 12 12 0 0 1 182.01953 504.59375 A 12 12 0 0 0 182 505 A 12 12 0 0 0 194 517 A 12 12 0 0 0 206 505 A 12 12 0 0 0 205.98047 504.40625 z "
       id="path4590" />
    <path
       style="opacity:1;fill:#ffffff;fill-opacity:0.2;stroke:none;stroke-width:2;stroke-linecap:round;stroke-linejoin:round;stroke-miterlimit:4;stroke-dasharray:none;stroke-opacity:1"
       d="M 208.5 491 A 1.5 1.5 0 0 0 207 492.5 A 1.5 1.5 0 0 0 207.08789 493 A 1.5 1.5 0 0 1 208.5 492 A 1.5 1.5 0 0 1 209.91211 493 A 1.5 1.5 0 0 0 210 492.5 A 1.5 1.5 0 0 0 208.5 491 z "
       id="circle4597" />
    <circle
       cy="496"
       cx="266"
       id="circle4623"
       style="opacity:1;fill:#7b1fa2;fill-opacity:1;stroke:none;stroke-width:3.20000029;stroke-linecap:round;stroke-linejoin:round;stroke-miterlimit:4;stroke-dasharray:none;stroke-opacity:1"
       r="16" />
    <path
       id="path4672"
       d="m 266,477 a 19.999997,19.999997 0 0 0 -20,20 19.999997,19.999997 0 0 0 20,20 19.999997,19.999997 0 0 0 20,-20 19.999997,19.999997 0 0 0 -20,-20 z m 0,4 a 16,16 0 0 1 16,16 16,16 0 0 1 -16,16 16,16 0 0 1 -16,-16 16,16 0 0 1 16,-16 z"
       style="opacity:1;fill:#000000;fill-opacity:0.2;stroke:none;stroke-width:1.53846133;stroke-opacity:1;filter:url(#filter4800)"
       inkscape:connector-curvature="0" />
    <path
       style="opacity:1;fill:#f5f5f5;fill-opacity:1;stroke:none;stroke-width:1.53846133;stroke-opacity:1"
       d="M 266 476 A 19.999997 19.999997 0 0 0 246 496 A 19.999997 19.999997 0 0 0 266 516 A 19.999997 19.999997 0 0 0 286 496 A 19.999997 19.999997 0 0 0 266 476 z M 266 480 A 16 16 0 0 1 282 496 A 16 16 0 0 1 266 512 A 16 16 0 0 1 250 496 A 16 16 0 0 1 266 480 z "
       id="path4627" />
    <ellipse
       ry="11.999968"
       rx="11.997272"
       cy="495.99997"
       cx="265.99738"
       id="ellipse4629"
       style="opacity:1;fill:#ffffff;fill-opacity:0.2;stroke:none;stroke-width:3.51959515;stroke-linecap:round;stroke-linejoin:round;stroke-miterlimit:4;stroke-dasharray:none;stroke-opacity:1" />
    <path
       inkscape:connector-curvature="0"
       id="path4631"
       d="m 257.51404,504.48528 a 11.997271,11.999967 0 0 0 16.96673,0 l -16.96673,-16.97076 a 11.997271,11.999967 0 0 0 0,16.97076 z"
       style="opacity:1;fill:#ffffff;fill-opacity:0.4;stroke:none;stroke-width:3.51959515;stroke-linecap:round;stroke-linejoin:round;stroke-miterlimit:4;stroke-dasharray:none;stroke-opacity:1" />
    <path
       style="opacity:1;fill:#ffffff;fill-opacity:0.5;stroke:none;stroke-width:3.51959515;stroke-linecap:round;stroke-linejoin:round;stroke-miterlimit:4;stroke-dasharray:none;stroke-opacity:1"
       d="m 274.48595,504.48528 a 11.997271,11.999967 0 0 1 -16.96669,0 l 16.96669,-16.97076 a 11.997271,11.999967 0 0 1 0,16.97076 z"
       id="path4633"
       inkscape:connector-curvature="0" />
    <circle
       r="2"
       style="opacity:1;fill:#000000;fill-opacity:0.2;stroke:none;stroke-width:2.66666651;stroke-linecap:round;stroke-linejoin:round;stroke-miterlimit:4;stroke-dasharray:none;stroke-opacity:1;filter:url(#filter4804)"
       id="circle4643"
       cx="286"
       cy="481" />
    <circle
       cy="480"
       cx="286"
       id="circle4637"
       style="opacity:1;fill:#ec407a;fill-opacity:1;stroke:none;stroke-width:2.66666651;stroke-linecap:round;stroke-linejoin:round;stroke-miterlimit:4;stroke-dasharray:none;stroke-opacity:1"
       r="2" />
    <path
       style="opacity:1;fill:#ffffff;fill-opacity:0.2;stroke:none;stroke-width:2.66666651;stroke-linecap:round;stroke-linejoin:round;stroke-miterlimit:4;stroke-dasharray:none;stroke-opacity:1"
       d="M 286 478 A 2 2 0 0 0 284 480 A 2 2 0 0 0 284.06445 480.50391 A 2 2 0 0 1 286 479 A 2 2 0 0 1 287.93555 480.49609 A 2 2 0 0 0 288 480 A 2 2 0 0 0 286 478 z "
       id="circle4661" />
    <path
       style="opacity:1;fill:#ffffff;fill-opacity:1;stroke:none;stroke-width:1.53846133;stroke-opacity:1"
       d="M 266 476 A 19.999997 19.999997 0 0 0 246 496 A 19.999997 19.999997 0 0 0 246.02148 496.41797 A 19.999997 19.999997 0 0 1 266 477 A 19.999997 19.999997 0 0 1 285.97852 496.58203 A 19.999997 19.999997 0 0 0 286 496 A 19.999997 19.999997 0 0 0 266 476 z M 281.97852 496.41992 A 16 16 0 0 1 266 512 A 16 16 0 0 1 250.02148 496.58008 A 16 16 0 0 0 250 497 A 16 16 0 0 0 266 513 A 16 16 0 0 0 282 497 A 16 16 0 0 0 281.97852 496.41992 z "
       id="path4674" />
    <circle
       cy="516"
       cx="90"
       id="circle4685"
       style="opacity:1;fill:#7b1fa2;fill-opacity:1;stroke:none;stroke-width:1.20000005;stroke-linecap:round;stroke-linejoin:round;stroke-miterlimit:4;stroke-dasharray:none;stroke-opacity:1"
       r="6" />
    <path
       inkscape:connector-curvature="0"
       style="opacity:1;fill:#000000;fill-opacity:0.2;stroke:none;stroke-width:0.53846157;stroke-opacity:1"
       d="m 90,510 a 7,7 0 0 0 -7,7 7,7 0 0 0 7,7 7,7 0 0 0 7,-7 7,7 0 0 0 -7,-7 z m 0,1 a 6,6 0 0 1 6,6 6,6 0 0 1 -6,6 6,6 0 0 1 -6,-6 6,6 0 0 1 6,-6 z"
       id="path4687" />
    <path
       id="path4689"
       d="m 90,508.99999 a 7,7 0 0 0 -7,7 7,7 0 0 0 7,7 7,7 0 0 0 7,-7 7,7 0 0 0 -7,-7 z m 0,1 a 6,6 0 0 1 6,6 6,6 0 0 1 -6,6 6,6 0 0 1 -6,-6 6,6 0 0 1 6,-6 z"
       style="opacity:1;fill:#f5f5f5;fill-opacity:1;stroke:none;stroke-width:0.53846157;stroke-opacity:1"
       inkscape:connector-curvature="0" />
    <ellipse
       ry="3.9999893"
       rx="3.9990933"
       cy="516"
       cx="89.999115"
       id="ellipse4691"
       style="opacity:1;fill:#ffffff;fill-opacity:0.2;stroke:none;stroke-width:1.17319882;stroke-linecap:round;stroke-linejoin:round;stroke-miterlimit:4;stroke-dasharray:none;stroke-opacity:1" />
    <path
       inkscape:connector-curvature="0"
       id="path4693"
       d="m 87.171345,518.82842 a 3.999093,3.9999894 0 0 0 5.65558,0 l -5.65558,-5.65692 a 3.999093,3.9999894 0 0 0 0,5.65692 z"
       style="opacity:1;fill:#ffffff;fill-opacity:0.4;stroke:none;stroke-width:1.17319882;stroke-linecap:round;stroke-linejoin:round;stroke-miterlimit:4;stroke-dasharray:none;stroke-opacity:1" />
    <path
       style="opacity:1;fill:#ffffff;fill-opacity:0.5;stroke:none;stroke-width:1.17319882;stroke-linecap:round;stroke-linejoin:round;stroke-miterlimit:4;stroke-dasharray:none;stroke-opacity:1"
       d="m 92.828655,518.82842 a 3.999093,3.9999894 0 0 1 -5.65557,0 l 5.65557,-5.65692 a 3.999093,3.9999894 0 0 1 0,5.65692 z"
       id="path4695"
       inkscape:connector-curvature="0" />
    <circle
       style="opacity:1;fill:#000000;fill-opacity:0.2;stroke:none;stroke-width:1;stroke-linecap:round;stroke-linejoin:round;stroke-miterlimit:4;stroke-dasharray:none;stroke-opacity:1"
       id="circle4697"
       cx="97.25"
       cy="510.75"
       r="0.75" />
    <circle
       cy="510.25"
       cx="97.25"
       id="circle4699"
       style="opacity:1;fill:#ec407a;fill-opacity:1;stroke:none;stroke-width:1;stroke-linecap:round;stroke-linejoin:round;stroke-miterlimit:4;stroke-dasharray:none;stroke-opacity:1"
       r="0.75" />
    <path
       id="path4703"
       d="m 97.25,509.49999 a 0.75,0.75 0 0 0 -0.75,0.75 0.75,0.75 0 0 0 0.04395,0.25 0.75,0.75 0 0 1 0.706055,-0.5 0.75,0.75 0 0 1 0.706055,0.5 0.75,0.75 0 0 0 0.04395,-0.25 0.75,0.75 0 0 0 -0.75,-0.75 z"
       style="opacity:1;fill:#ffffff;fill-opacity:0.2;stroke:none;stroke-width:1;stroke-linecap:round;stroke-linejoin:round;stroke-miterlimit:4;stroke-dasharray:none;stroke-opacity:1"
       inkscape:connector-curvature="0" />
    <circle
       r="6"
       style="opacity:1;fill:#7b1fa2;fill-opacity:1;stroke:none;stroke-width:1.20000005;stroke-linecap:round;stroke-linejoin:round;stroke-miterlimit:4;stroke-dasharray:none;stroke-opacity:1"
       id="circle4705"
       cx="55"
       cy="517" />
    <path
       id="path4707"
       d="m 55,511 a 7,7 0 0 0 -7,7 7,7 0 0 0 7,7 7,7 0 0 0 7,-7 7,7 0 0 0 -7,-7 z m 0,1 a 6,6 0 0 1 6,6 6,6 0 0 1 -6,6 6,6 0 0 1 -6,-6 6,6 0 0 1 6,-6 z"
       style="opacity:1;fill:#000000;fill-opacity:0.2;stroke:none;stroke-width:0.53846157;stroke-opacity:1"
       inkscape:connector-curvature="0" />
    <path
       inkscape:connector-curvature="0"
       style="opacity:1;fill:#f5f5f5;fill-opacity:1;stroke:none;stroke-width:0.53846157;stroke-opacity:1"
       d="m 55,509.99999 a 7,7 0 0 0 -7,7 7,7 0 0 0 7,7 7,7 0 0 0 7,-7 7,7 0 0 0 -7,-7 z m 0,1 a 6,6 0 0 1 6,6 6,6 0 0 1 -6,6 6,6 0 0 1 -6,-6 6,6 0 0 1 6,-6 z"
       id="path4709" />
    <ellipse
       style="opacity:1;fill:#ffffff;fill-opacity:0.2;stroke:none;stroke-width:1.17319882;stroke-linecap:round;stroke-linejoin:round;stroke-miterlimit:4;stroke-dasharray:none;stroke-opacity:1"
       id="ellipse4711"
       cx="54.999115"
       cy="517"
       rx="3.9990933"
       ry="3.9999893" />
    <path
       style="opacity:1;fill:#ffffff;fill-opacity:0.4;stroke:none;stroke-width:1.17319882;stroke-linecap:round;stroke-linejoin:round;stroke-miterlimit:4;stroke-dasharray:none;stroke-opacity:1"
       d="m 52.171345,519.82842 a 3.999093,3.9999894 0 0 0 5.65558,0 l -5.65558,-5.65692 a 3.999093,3.9999894 0 0 0 0,5.65692 z"
       id="path4713"
       inkscape:connector-curvature="0" />
    <path
       inkscape:connector-curvature="0"
       id="path4715"
       d="m 57.828655,519.82842 a 3.999093,3.9999894 0 0 1 -5.65557,0 l 5.65557,-5.65692 a 3.999093,3.9999894 0 0 1 0,5.65692 z"
       style="opacity:1;fill:#ffffff;fill-opacity:0.5;stroke:none;stroke-width:1.17319882;stroke-linecap:round;stroke-linejoin:round;stroke-miterlimit:4;stroke-dasharray:none;stroke-opacity:1" />
    <circle
       r="0.75"
       cy="511.75"
       cx="62.25"
       id="circle4717"
       style="opacity:1;fill:#000000;fill-opacity:0.2;stroke:none;stroke-width:1;stroke-linecap:round;stroke-linejoin:round;stroke-miterlimit:4;stroke-dasharray:none;stroke-opacity:1" />
    <circle
       r="0.75"
       style="opacity:1;fill:#ec407a;fill-opacity:1;stroke:none;stroke-width:1;stroke-linecap:round;stroke-linejoin:round;stroke-miterlimit:4;stroke-dasharray:none;stroke-opacity:1"
       id="circle4719"
       cx="62.25"
       cy="511.25" />
    <path
       inkscape:connector-curvature="0"
       style="opacity:1;fill:#ffffff;fill-opacity:0.2;stroke:none;stroke-width:1;stroke-linecap:round;stroke-linejoin:round;stroke-miterlimit:4;stroke-dasharray:none;stroke-opacity:1"
       d="m 62.25,510.49999 a 0.75,0.75 0 0 0 -0.75,0.75 0.75,0.75 0 0 0 0.04395,0.25 0.75,0.75 0 0 1 0.706055,-0.5 0.75,0.75 0 0 1 0.706055,0.5 0.75,0.75 0 0 0 0.04395,-0.25 0.75,0.75 0 0 0 -0.75,-0.75 z"
       id="path4721" />
    <circle
       style="opacity:1;fill:#7b1fa2;fill-opacity:1;stroke:none;stroke-width:1.60000002;stroke-linecap:round;stroke-linejoin:round;stroke-miterlimit:4;stroke-dasharray:none;stroke-opacity:1"
       id="circle4725"
       cx="138"
       cy="512"
       r="8" />
    <path
       inkscape:connector-curvature="0"
       style="opacity:1;fill:#000000;fill-opacity:0.2;stroke:none;stroke-width:0.76923066;stroke-opacity:1"
       d="m 138,503 a 9.9999985,9.9999985 0 0 0 -10,10 9.9999985,9.9999985 0 0 0 10,10 9.9999985,9.9999985 0 0 0 10,-10 9.9999985,9.9999985 0 0 0 -10,-10 z m 0,2 a 8,8 0 0 1 8,8 8,8 0 0 1 -8,8 8,8 0 0 1 -8,-8 8,8 0 0 1 8,-8 z"
       id="path4727" />
    <path
       id="path4729"
       d="m 138,501.99999 a 9.9999985,9.9999985 0 0 0 -10,10 9.9999985,9.9999985 0 0 0 10,10 9.9999985,9.9999985 0 0 0 10,-10 9.9999985,9.9999985 0 0 0 -10,-10 z m 0,2 a 8,8 0 0 1 8,8 8,8 0 0 1 -8,8 8,8 0 0 1 -8,-8 8,8 0 0 1 8,-8 z"
       style="opacity:1;fill:#f5f5f5;fill-opacity:1;stroke:none;stroke-width:0.76923066;stroke-opacity:1"
       inkscape:connector-curvature="0" />
    <ellipse
       style="opacity:1;fill:#ffffff;fill-opacity:0.2;stroke:none;stroke-width:1.75979745;stroke-linecap:round;stroke-linejoin:round;stroke-miterlimit:4;stroke-dasharray:none;stroke-opacity:1"
       id="ellipse4731"
       cx="137.99869"
       cy="511.99997"
       rx="5.9986358"
       ry="5.9999838" />
    <path
       style="opacity:1;fill:#ffffff;fill-opacity:0.4;stroke:none;stroke-width:1.75979745;stroke-linecap:round;stroke-linejoin:round;stroke-miterlimit:4;stroke-dasharray:none;stroke-opacity:1"
       d="m 133.75702,516.24263 a 5.9986355,5.9999835 0 0 0 8.48336,0 l -8.48336,-8.48538 a 5.9986355,5.9999835 0 0 0 0,8.48538 z"
       id="path4733"
       inkscape:connector-curvature="0" />
    <path
       inkscape:connector-curvature="0"
       id="path4736"
       d="m 142.24297,516.24263 a 5.9986355,5.9999835 0 0 1 -8.48334,0 l 8.48334,-8.48538 a 5.9986355,5.9999835 0 0 1 0,8.48538 z"
       style="opacity:1;fill:#ffffff;fill-opacity:0.5;stroke:none;stroke-width:1.75979745;stroke-linecap:round;stroke-linejoin:round;stroke-miterlimit:4;stroke-dasharray:none;stroke-opacity:1" />
    <circle
       cy="505"
       cx="148"
       id="circle4738"
       style="opacity:1;fill:#000000;fill-opacity:0.2;stroke:none;stroke-width:1.33333325;stroke-linecap:round;stroke-linejoin:round;stroke-miterlimit:4;stroke-dasharray:none;stroke-opacity:1"
       r="1" />
    <circle
       style="opacity:1;fill:#ec407a;fill-opacity:1;stroke:none;stroke-width:1.33333325;stroke-linecap:round;stroke-linejoin:round;stroke-miterlimit:4;stroke-dasharray:none;stroke-opacity:1"
       id="circle4740"
       cx="148"
       cy="504"
       r="1" />
    <path
       id="path4742"
       d="m 148,502.99999 a 1,1 0 0 0 -1,1 1,1 0 0 0 0.0323,0.25195 1,1 0 0 1 0.9677,-0.75195 1,1 0 0 1 0.96778,0.74804 1,1 0 0 0 0.0322,-0.24804 1,1 0 0 0 -1,-1 z"
       style="opacity:1;fill:#ffffff;fill-opacity:0.2;stroke:none;stroke-width:1.33333325;stroke-linecap:round;stroke-linejoin:round;stroke-miterlimit:4;stroke-dasharray:none;stroke-opacity:1"
       inkscape:connector-curvature="0" />
    <path
       style="opacity:1;fill:#ffffff;fill-opacity:1;stroke:none;stroke-width:0.76923066;stroke-opacity:1"
       d="M 138 502 A 9.9999985 9.9999985 0 0 0 128 512 A 9.9999985 9.9999985 0 0 0 128.01172 512.19531 A 9.9999985 9.9999985 0 0 0 128 512.5 A 9.9999985 9.9999985 0 0 0 128.01172 512.70898 A 9.9999985 9.9999985 0 0 1 138 503 A 9.9999985 9.9999985 0 0 1 147.99023 512.79102 A 9.9999985 9.9999985 0 0 0 148 512.5 A 9.9999985 9.9999985 0 0 0 147.99023 512.29102 A 9.9999985 9.9999985 0 0 0 147.96289 511.76562 A 9.9999985 9.9999985 0 0 1 147.99023 512.29102 A 9.9999985 9.9999985 0 0 0 148 512 A 9.9999985 9.9999985 0 0 0 138 502 z M 138 502.5 A 9.9999985 9.9999985 0 0 0 137.27344 502.53711 A 9.9999985 9.9999985 0 0 1 138 502.5 z M 138.85938 502.54297 A 9.9999985 9.9999985 0 0 1 139.29492 502.5957 A 9.9999985 9.9999985 0 0 0 138.85938 502.54297 z M 136.80859 502.58008 A 9.9999985 9.9999985 0 0 0 136.31641 502.6543 A 9.9999985 9.9999985 0 0 1 136.80859 502.58008 z M 139.875 502.68359 A 9.9999985 9.9999985 0 0 1 140.26172 502.77148 A 9.9999985 9.9999985 0 0 0 139.875 502.68359 z M 135.78906 502.75586 A 9.9999985 9.9999985 0 0 0 135.36914 502.86328 A 9.9999985 9.9999985 0 0 1 135.78906 502.75586 z M 140.83984 502.91992 A 9.9999985 9.9999985 0 0 1 141.20703 503.04102 A 9.9999985 9.9999985 0 0 0 140.83984 502.91992 z M 134.82227 503.0293 A 9.9999985 9.9999985 0 0 0 134.4375 503.16797 A 9.9999985 9.9999985 0 0 1 134.82227 503.0293 z M 141.80273 503.25977 A 9.9999985 9.9999985 0 0 1 142.0957 503.39062 A 9.9999985 9.9999985 0 0 0 141.80273 503.25977 z M 133.87891 503.39844 A 9.9999985 9.9999985 0 0 0 133.5332 503.56641 A 9.9999985 9.9999985 0 0 1 133.87891 503.39844 z M 142.71094 503.68945 A 9.9999985 9.9999985 0 0 1 142.97656 503.8418 A 9.9999985 9.9999985 0 0 0 142.71094 503.68945 z M 132.97656 503.86523 A 9.9999985 9.9999985 0 0 0 132.68945 504.04102 A 9.9999985 9.9999985 0 0 1 132.97656 503.86523 z M 143.57812 504.21094 A 9.9999985 9.9999985 0 0 1 143.77539 504.35156 A 9.9999985 9.9999985 0 0 0 143.57812 504.21094 z M 132.13867 504.41016 A 9.9999985 9.9999985 0 0 0 131.86523 504.61914 A 9.9999985 9.9999985 0 0 1 132.13867 504.41016 z M 144.40039 504.82812 A 9.9999985 9.9999985 0 0 1 144.5293 504.94141 A 9.9999985 9.9999985 0 0 0 144.40039 504.82812 z M 131.35156 505.04492 A 9.9999985 9.9999985 0 0 0 131.12695 505.25195 A 9.9999985 9.9999985 0 0 1 131.35156 505.04492 z M 145.11914 505.49023 A 9.9999985 9.9999985 0 0 1 145.28125 505.66406 A 9.9999985 9.9999985 0 0 0 145.11914 505.49023 z M 130.63281 505.75391 A 9.9999985 9.9999985 0 0 0 130.44922 505.96289 A 9.9999985 9.9999985 0 0 1 130.63281 505.75391 z M 145.79492 506.25 A 9.9999985 9.9999985 0 0 1 145.89844 506.38672 A 9.9999985 9.9999985 0 0 0 145.79492 506.25 z M 129.98828 506.5332 A 9.9999985 9.9999985 0 0 0 129.83398 506.75 A 9.9999985 9.9999985 0 0 1 129.98828 506.5332 z M 146.38867 507.07227 A 9.9999985 9.9999985 0 0 1 146.45703 507.18555 A 9.9999985 9.9999985 0 0 0 146.38867 507.07227 z M 129.44336 507.3457 A 9.9999985 9.9999985 0 0 0 129.29297 507.60742 A 9.9999985 9.9999985 0 0 1 129.44336 507.3457 z M 146.88086 507.92383 A 9.9999985 9.9999985 0 0 1 146.95703 508.08008 A 9.9999985 9.9999985 0 0 0 146.88086 507.92383 z M 128.95898 508.25391 A 9.9999985 9.9999985 0 0 0 128.86328 508.4668 A 9.9999985 9.9999985 0 0 1 128.95898 508.25391 z M 147.30469 508.86133 A 9.9999985 9.9999985 0 0 1 147.33398 508.94336 A 9.9999985 9.9999985 0 0 0 147.30469 508.86133 z M 128.58398 509.16406 A 9.9999985 9.9999985 0 0 0 128.49805 509.42383 A 9.9999985 9.9999985 0 0 1 128.58398 509.16406 z M 147.61914 509.80469 A 9.9999985 9.9999985 0 0 1 147.64453 509.90234 A 9.9999985 9.9999985 0 0 0 147.61914 509.80469 z M 128.29688 510.125 A 9.9999985 9.9999985 0 0 0 128.24219 510.36719 A 9.9999985 9.9999985 0 0 1 128.29688 510.125 z M 147.83984 510.77344 A 9.9999985 9.9999985 0 0 1 147.85742 510.89453 A 9.9999985 9.9999985 0 0 0 147.83984 510.77344 z M 128.10547 511.12695 A 9.9999985 9.9999985 0 0 0 128.08008 511.33789 A 9.9999985 9.9999985 0 0 1 128.10547 511.12695 z M 145.98828 512.20898 A 8 8 0 0 1 145.98828 512.22461 A 8 8 0 0 0 145.99023 512.20898 L 145.98828 512.20898 z M 145.98828 512.22461 A 8 8 0 0 1 138 520 A 8 8 0 0 1 130.00977 512.28906 A 8 8 0 0 0 130 512.5 A 8 8 0 0 0 130.0293 513.08789 A 8 8 0 0 1 130.00977 512.79102 A 8 8 0 0 0 130 513 A 8 8 0 0 0 138 521 A 8 8 0 0 0 146 513 A 8 8 0 0 0 145.99023 512.77539 A 8 8 0 0 0 146 512.5 A 8 8 0 0 0 145.98828 512.22461 z M 145.92969 513.47266 A 8 8 0 0 1 145.92188 513.53906 A 8 8 0 0 0 145.92969 513.47266 z M 130.10938 513.76367 A 8 8 0 0 0 130.13086 513.89453 A 8 8 0 0 1 130.10938 513.76367 z M 145.80078 514.22656 A 8 8 0 0 1 145.77539 514.3457 A 8 8 0 0 0 145.80078 514.22656 z M 130.26562 514.50586 A 8 8 0 0 0 130.3125 514.68945 A 8 8 0 0 1 130.26562 514.50586 z M 145.58398 515.01758 A 8 8 0 0 1 145.55664 515.09961 A 8 8 0 0 0 145.58398 515.01758 z M 130.50781 515.27734 A 8 8 0 0 0 130.56641 515.43945 A 8 8 0 0 1 130.50781 515.27734 z M 145.29492 515.75977 A 8 8 0 0 1 145.25586 515.84766 A 8 8 0 0 0 145.29492 515.75977 z M 130.83789 516.04297 A 8 8 0 0 0 130.89062 516.1543 A 8 8 0 0 1 130.83789 516.04297 z M 144.94141 516.45508 A 8 8 0 0 1 144.88086 516.5625 A 8 8 0 0 0 144.94141 516.45508 z M 131.23047 516.74805 A 8 8 0 0 0 131.29102 516.8457 A 8 8 0 0 1 131.23047 516.74805 z M 144.51953 517.11914 A 8 8 0 0 1 144.43359 517.24023 A 8 8 0 0 0 144.51953 517.11914 z M 131.68359 517.39453 A 8 8 0 0 0 131.76172 517.49805 A 8 8 0 0 1 131.68359 517.39453 z M 144.01758 517.75781 A 8 8 0 0 1 143.93164 517.85352 A 8 8 0 0 0 144.01758 517.75781 z M 132.17969 517.97461 A 8 8 0 0 0 132.30469 518.10938 A 8 8 0 0 1 132.17969 517.97461 z M 143.48242 518.3125 A 8 8 0 0 1 143.35352 518.43164 A 8 8 0 0 0 143.48242 518.3125 z M 132.74023 518.51367 A 8 8 0 0 0 132.89648 518.65234 A 8 8 0 0 1 132.74023 518.51367 z M 142.86914 518.83594 A 8 8 0 0 1 142.73828 518.93555 A 8 8 0 0 0 142.86914 518.83594 z M 133.36719 519.00977 A 8 8 0 0 0 133.53711 519.13281 A 8 8 0 0 1 133.36719 519.00977 z M 142.24023 519.27344 A 8 8 0 0 1 142.04883 519.39062 A 8 8 0 0 0 142.24023 519.27344 z M 134.02148 519.42969 A 8 8 0 0 0 134.23633 519.55078 A 8 8 0 0 1 134.02148 519.42969 z M 141.54297 519.66211 A 8 8 0 0 1 141.33984 519.75977 A 8 8 0 0 0 141.54297 519.66211 z M 134.68164 519.76953 A 8 8 0 0 0 134.97266 519.89844 A 8 8 0 0 1 134.68164 519.76953 z M 140.82422 519.97461 A 8 8 0 0 1 140.58008 520.06445 A 8 8 0 0 0 140.82422 519.97461 z M 135.45508 520.07422 A 8 8 0 0 0 135.71289 520.16016 A 8 8 0 0 1 135.45508 520.07422 z M 140.10352 520.20898 A 8 8 0 0 1 139.7832 520.29102 A 8 8 0 0 0 140.10352 520.20898 z M 136.17383 520.2793 A 8 8 0 0 0 136.52539 520.35742 A 8 8 0 0 1 136.17383 520.2793 z M 139.32812 520.37891 A 8 8 0 0 1 139.00586 520.42969 A 8 8 0 0 0 139.32812 520.37891 z M 136.94141 520.41992 A 8 8 0 0 0 137.30078 520.46484 A 8 8 0 0 1 136.94141 520.41992 z M 138.54492 520.47266 A 8 8 0 0 1 138 520.5 A 8 8 0 0 0 138.54492 520.47266 z "
       id="path4744" />
    <circle
       style="opacity:1;fill:#7b1fa2;fill-opacity:1;stroke:none;stroke-width:25.60000038;stroke-linecap:round;stroke-linejoin:round;stroke-miterlimit:4;stroke-dasharray:none;stroke-opacity:1"
       id="circle4753"
       cx="570"
       cy="272.00021"
       r="128" />
    <path
       inkscape:connector-curvature="0"
       style="opacity:1;fill:#000000;fill-opacity:0.2;stroke:none;stroke-width:12.30769062;stroke-opacity:1"
       d="m 570,114.00021 a 159.99998,159.99998 0 0 0 -160,160 159.99998,159.99998 0 0 0 160,160 159.99998,159.99998 0 0 0 160,-160 159.99998,159.99998 0 0 0 -160,-160 z m 0,32 a 128,128 0 0 1 128,128 128,128 0 0 1 -128,128 128,128 0 0 1 -128,-128 128,128 0 0 1 128,-128 z"
       id="path4755" />
    <path
       id="path4780"
       d="m 570,114.00021 a 159.99998,159.99998 0 0 0 -160,160 159.99998,159.99998 0 0 0 160,160 159.99998,159.99998 0 0 0 160,-160 159.99998,159.99998 0 0 0 -160,-160 z m 0,32 a 128,128 0 0 1 128,128 128,128 0 0 1 -128,128 128,128 0 0 1 -128,-128 128,128 0 0 1 128,-128 z"
       style="opacity:1;fill:#000000;fill-opacity:0.2;stroke:none;stroke-width:12.30769062;stroke-opacity:1;filter:url(#filter4786)"
       inkscape:connector-curvature="0" />
    <path
       id="path4757"
       d="m 570,112.00021 a 159.99998,159.99998 0 0 0 -160,160 159.99998,159.99998 0 0 0 160,160 159.99998,159.99998 0 0 0 160,-160 159.99998,159.99998 0 0 0 -160,-160 z m 0,32 a 128,128 0 0 1 128,128 128,128 0 0 1 -128,128 128,128 0 0 1 -128,-128 128,128 0 0 1 128,-128 z"
       style="opacity:1;fill:#f5f5f5;fill-opacity:1;stroke:none;stroke-width:12.30769062;stroke-opacity:1"
       inkscape:connector-curvature="0" />
    <ellipse
       style="opacity:1;fill:#ffffff;fill-opacity:0.2;stroke:none;stroke-width:28.15675926;stroke-linecap:round;stroke-linejoin:round;stroke-miterlimit:4;stroke-dasharray:none;stroke-opacity:1"
       id="ellipse4759"
       cx="569.979"
       cy="271.99997"
       rx="95.978172"
       ry="95.999741" />
    <path
       style="opacity:1;fill:#ffffff;fill-opacity:0.4;stroke:none;stroke-width:28.15675926;stroke-linecap:round;stroke-linejoin:round;stroke-miterlimit:4;stroke-dasharray:none;stroke-opacity:1"
       d="m 502.11232,339.88245 a 95.978168,95.999736 0 0 0 135.73384,0 L 502.11232,204.11637 a 95.978168,95.999736 0 0 0 0,135.76608 z"
       id="path4761"
       inkscape:connector-curvature="0" />
    <path
       inkscape:connector-curvature="0"
       id="path4764"
       d="m 637.8876,339.88245 a 95.978168,95.999736 0 0 1 -135.73352,0 L 637.8876,204.11637 a 95.978168,95.999736 0 0 1 0,135.76608 z"
       style="opacity:1;fill:#ffffff;fill-opacity:0.5;stroke:none;stroke-width:28.15675926;stroke-linecap:round;stroke-linejoin:round;stroke-miterlimit:4;stroke-dasharray:none;stroke-opacity:1" />
    <circle
       cy="146.00021"
       cx="730"
       id="circle4766"
       style="opacity:1;fill:#000000;fill-opacity:0.2;stroke:none;stroke-width:21.33333206;stroke-linecap:round;stroke-linejoin:round;stroke-miterlimit:4;stroke-dasharray:none;stroke-opacity:1"
       r="16" />
    <circle
       r="16"
       style="opacity:1;fill:#000000;fill-opacity:0.2;stroke:none;stroke-width:21.33333206;stroke-linecap:round;stroke-linejoin:round;stroke-miterlimit:4;stroke-dasharray:none;stroke-opacity:1;filter:url(#filter4796)"
       id="circle4790"
       cx="730"
       cy="146.00021" />
    <circle
       style="opacity:1;fill:#ec407a;fill-opacity:1;stroke:none;stroke-width:21.33333206;stroke-linecap:round;stroke-linejoin:round;stroke-miterlimit:4;stroke-dasharray:none;stroke-opacity:1"
       id="circle4768"
       cx="730"
       cy="144.00021"
       r="16" />
    <path
       style="opacity:1;fill:#ffffff;fill-opacity:0.2;stroke:none;stroke-width:21.33333206;stroke-linecap:round;stroke-linejoin:round;stroke-miterlimit:4;stroke-dasharray:none;stroke-opacity:1"
       d="M 730 128 A 16 16 0 0 0 714 144 A 16 16 0 0 0 714.04297 144.85352 A 16 16 0 0 1 730 130 A 16 16 0 0 1 745.95117 145.04492 A 16 16 0 0 0 746 144 A 16 16 0 0 0 730 128 z "
       id="path4770" />
    <path
       style="opacity:1;fill:#ffffff;fill-opacity:1;stroke:none;stroke-width:12.30769062;stroke-opacity:1"
       d="M 570 112 A 159.99998 159.99998 0 0 0 410 272 A 159.99998 159.99998 0 0 0 410.04102 272.81445 A 159.99998 159.99998 0 0 1 570 114 A 159.99998 159.99998 0 0 1 729.95703 273.15039 A 159.99998 159.99998 0 0 0 730 272 A 159.99998 159.99998 0 0 0 570 112 z M 697.82812 275.35938 A 128 128 0 0 1 570 400 A 128 128 0 0 1 442.17188 276.64062 A 128 128 0 0 0 442 280 A 128 128 0 0 0 442.05078 281.01172 A 128 128 0 0 1 442.17188 278.64062 A 128 128 0 0 0 570 402 A 128 128 0 0 0 697.82812 277.35938 A 128 128 0 0 1 697.96289 281.02344 A 128 128 0 0 0 698 280 A 128 128 0 0 0 697.82812 275.35938 z "
       id="path4772" />
    <circle
       cy="520"
       cx="24"
       id="circle4555"
       style="display:inline;opacity:1;fill:#7b1fa2;fill-opacity:1;stroke:none;stroke-width:2;stroke-linecap:round;stroke-linejoin:round;stroke-miterlimit:4;stroke-dasharray:none;stroke-opacity:1;enable-background:new"
       r="4.7142859" />
    <path
       id="path4557"
       d="m 24,514 a 6,6 0 0 0 -6,6 6,6 0 0 0 6,6 6,6 0 0 0 6,-6 6,6 0 0 0 -6,-6 z m 0,1.28573 A 4.7142857,4.7142857 0 0 1 28.71429,520 4.7142857,4.7142857 0 0 1 24,524.71427 4.7142857,4.7142857 0 0 1 19.28571,520 4.7142857,4.7142857 0 0 1 24,515.28573 Z"
       style="display:inline;opacity:1;fill:#f5f5f5;fill-opacity:1;stroke:none;stroke-width:2;stroke-linecap:round;stroke-linejoin:round;stroke-miterlimit:4;stroke-dasharray:none;stroke-opacity:1;enable-background:new"
       inkscape:connector-curvature="0" />
    <circle
       cy="520"
       cx="24"
       id="circle4559"
       style="display:inline;opacity:1;fill:#ffffff;fill-opacity:0.2;stroke:none;stroke-width:2;stroke-linecap:round;stroke-linejoin:round;stroke-miterlimit:4;stroke-dasharray:none;stroke-opacity:1;enable-background:new"
       r="3.2142859" />
    <path
       inkscape:connector-curvature="0"
       id="path4565"
       d="m 21.72718,522.27287 a 3.2142857,3.2142857 0 0 0 4.54569,0 l -4.54569,-4.54574 a 3.2142857,3.2142857 0 0 0 0,4.54574 z"
       style="display:inline;opacity:1;fill:#ffffff;fill-opacity:0.4;stroke:none;stroke-width:2;stroke-linecap:round;stroke-linejoin:round;stroke-miterlimit:4;stroke-dasharray:none;stroke-opacity:1;enable-background:new" />
    <path
       style="display:inline;opacity:1;fill:#ffffff;fill-opacity:0.5;stroke:none;stroke-width:2;stroke-linecap:round;stroke-linejoin:round;stroke-miterlimit:4;stroke-dasharray:none;stroke-opacity:1;enable-background:new"
       d="m 26.27426,522.27287 a 3.2142857,3.2142857 0 0 1 -4.54569,0 l 4.54569,-4.54574 a 3.2142857,3.2142857 0 0 1 0,4.54574 z"
       id="path4567"
       inkscape:connector-curvature="0" />
  </g>
</svg>
