<?xml version="1.0" encoding="UTF-8" standalone="no"?>
<!-- Created with Inkscape (http://www.inkscape.org/) -->

<svg
   xmlns:dc="http://purl.org/dc/elements/1.1/"
   xmlns:cc="http://creativecommons.org/ns#"
   xmlns:rdf="http://www.w3.org/1999/02/22-rdf-syntax-ns#"
   xmlns:svg="http://www.w3.org/2000/svg"
   xmlns="http://www.w3.org/2000/svg"
   xmlns:xlink="http://www.w3.org/1999/xlink"
   xmlns:sodipodi="http://sodipodi.sourceforge.net/DTD/sodipodi-0.dtd"
   xmlns:inkscape="http://www.inkscape.org/namespaces/inkscape"
   width="842"
   height="544"
   viewBox="0 0 842 544"
   version="1.1"
   id="svg1087"
   inkscape:version="0.92.1 r"
   sodipodi:docname="input-tablet.svg">
  <defs
     id="defs1081">
    <linearGradient
       id="linearGradient4540"
       inkscape:collect="always">
      <stop
         id="stop4536"
         offset="0"
         style="stop-color:#ffffff;stop-opacity:0.05490196" />
      <stop
         id="stop4538"
         offset="1"
         style="stop-color:#177ed5;stop-opacity:0;" />
    </linearGradient>
    <linearGradient
       id="linearGradient4534"
       inkscape:collect="always">
      <stop
         id="stop4530"
         offset="0"
         style="stop-color:#ffffff;stop-opacity:0.05490196" />
      <stop
         id="stop4532"
         offset="1"
         style="stop-color:#177ed5;stop-opacity:0;" />
    </linearGradient>
    <filter
       inkscape:collect="always"
       style="color-interpolation-filters:sRGB"
       id="filter5087"
       x="-0.048"
       width="1.096"
       y="-0.048"
       height="1.096">
      <feGaussianBlur
         inkscape:collect="always"
         stdDeviation="0.8"
         id="feGaussianBlur5089" />
    </filter>
    <linearGradient
       inkscape:collect="always"
       xlink:href="#linearGradient4534"
       id="linearGradient4347"
       gradientUnits="userSpaceOnUse"
       gradientTransform="matrix(0.47825838,0,0,0.47826068,78.52174,24.17493)"
       x1="7"
       y1="1011.3622"
       x2="41.000019"
       y2="1045.3622" />
    <linearGradient
       inkscape:collect="always"
       id="linearGradient4165">
      <stop
         style="stop-color:#ffffff;stop-opacity:0.05490196"
         offset="0"
         id="stop4167" />
      <stop
         style="stop-color:#177ed5;stop-opacity:0;"
         offset="1"
         id="stop4169" />
    </linearGradient>
    <linearGradient
       inkscape:collect="always"
       xlink:href="#linearGradient4540"
       id="linearGradient4435"
       gradientUnits="userSpaceOnUse"
       gradientTransform="matrix(0.65217041,0,0,0.65217328,122.34783,-158.67016)"
       x1="7"
       y1="1011.3622"
       x2="41.000019"
       y2="1045.3622" />
    <linearGradient
       inkscape:collect="always"
       xlink:href="#linearGradient4165"
       id="linearGradient4171-1-0"
       x1="7"
       y1="1011.3622"
       x2="41.000019"
       y2="1045.3622"
       gradientUnits="userSpaceOnUse"
       gradientTransform="matrix(0.95652174,0,0,0.95652174,171.04349,-479.65043)" />
    <linearGradient
       inkscape:collect="always"
       xlink:href="#linearGradient4165-3"
       id="linearGradient4449-0"
       gradientUnits="userSpaceOnUse"
       gradientTransform="matrix(10.43473,0,0,10.434772,319.56521,-10458.721)"
       x1="7"
       y1="1011.3622"
       x2="41.000019"
       y2="1045.3622" />
    <linearGradient
       inkscape:collect="always"
       id="linearGradient4165-3">
      <stop
         style="stop-color:#ffffff;stop-opacity:0.05490196"
         offset="0"
         id="stop4167-6" />
      <stop
         style="stop-color:#177ed5;stop-opacity:0;"
         offset="1"
         id="stop4169-7" />
    </linearGradient>
    <linearGradient
       inkscape:collect="always"
       xlink:href="#linearGradient4165-3"
       id="linearGradient4535"
       gradientUnits="userSpaceOnUse"
       gradientTransform="matrix(1.3043412,0,0,1.3043465,234.69565,-845.34012)"
       x1="7"
       y1="1011.3622"
       x2="41.000019"
       y2="1045.3622" />
    <filter
       inkscape:collect="always"
       style="color-interpolation-filters:sRGB"
       id="filter4557"
       x="-0.0108"
       width="1.0216"
       y="-0.0135"
       height="1.027">
      <feGaussianBlur
         inkscape:collect="always"
         stdDeviation="0.18"
         id="feGaussianBlur4559" />
    </filter>
    <filter
       inkscape:collect="always"
       style="color-interpolation-filters:sRGB"
       id="filter4565"
       x="-0.010714286"
       width="1.0214286"
       y="-0.013636364"
       height="1.0272727">
      <feGaussianBlur
         inkscape:collect="always"
         stdDeviation="0.25"
         id="feGaussianBlur4567" />
    </filter>
    <filter
       inkscape:collect="always"
       style="color-interpolation-filters:sRGB"
       id="filter4579"
       x="-0.02142857"
       width="1.0428571"
       y="-0.027272727"
       height="1.0545455">
      <feGaussianBlur
         inkscape:collect="always"
         stdDeviation="4"
         id="feGaussianBlur4581" />
    </filter>
    <linearGradient
       inkscape:collect="always"
       xlink:href="#linearGradient4534"
       id="linearGradient4589"
       gradientUnits="userSpaceOnUse"
       gradientTransform="matrix(0.47825838,0,0,0.47826068,43.52174,25.17493)"
       x1="7"
       y1="1011.3622"
       x2="41.000019"
       y2="1045.3622" />
  </defs>
  <sodipodi:namedview
     id="base"
     pagecolor="#c3c3c3"
     bordercolor="#333333"
     borderopacity="1"
     inkscape:pageopacity="0"
     inkscape:pageshadow="2"
     inkscape:zoom="22.627417"
     inkscape:cx="59.022107"
     inkscape:cy="31.350306"
     inkscape:document-units="px"
     inkscape:current-layer="layer1"
     showgrid="true"
     units="px"
     inkscape:showpageshadow="false"
     inkscape:window-width="2560"
     inkscape:window-height="1369"
     inkscape:window-x="0"
     inkscape:window-y="35"
     inkscape:window-maximized="1"
     showguides="false">
    <inkscape:grid
       type="xygrid"
       id="grid4630" />
  </sodipodi:namedview>
  <metadata
     id="metadata1084">
    <rdf:RDF>
      <cc:Work
         rdf:about="">
        <dc:format>image/svg+xml</dc:format>
        <dc:type
           rdf:resource="http://purl.org/dc/dcmitype/StillImage" />
        <dc:title></dc:title>
        <cc:license
           rdf:resource="http://creativecommons.org/licenses/by-sa/4.0/" />
        <dc:creator>
          <cc:Agent>
            <dc:title>Peter Cornelis</dc:title>
          </cc:Agent>
        </dc:creator>
      </cc:Work>
      <cc:License
         rdf:about="http://creativecommons.org/licenses/by-sa/4.0/">
        <cc:permits
           rdf:resource="http://creativecommons.org/ns#Reproduction" />
        <cc:permits
           rdf:resource="http://creativecommons.org/ns#Distribution" />
        <cc:requires
           rdf:resource="http://creativecommons.org/ns#Notice" />
        <cc:requires
           rdf:resource="http://creativecommons.org/ns#Attribution" />
        <cc:permits
           rdf:resource="http://creativecommons.org/ns#DerivativeWorks" />
        <cc:requires
           rdf:resource="http://creativecommons.org/ns#ShareAlike" />
      </cc:License>
    </rdf:RDF>
  </metadata>
  <g
     inkscape:label="Baseplate"
     inkscape:groupmode="layer"
     id="layer1"
     transform="translate(0,-153.06668)"
     style="display:none">
    <rect
       style="display:inline;overflow:visible;visibility:visible;fill:#fefefe;fill-opacity:1;fill-rule:nonzero;stroke:none;stroke-width:2;marker:none;enable-background:accumulate"
       id="rect3951"
       width="512"
       height="512"
       x="-826"
       y="169.06668"
       inkscape:label="48x48"
       transform="scale(-1,1)" />
    <text
       y="733.32251"
       xml:space="preserve"
       x="15.006836"
       style="font-style:normal;font-variant:normal;font-weight:normal;font-stretch:normal;line-height:0%;font-family:'DejaVu Sans';-inkscape-font-specification:'DejaVu Sans';display:inline;fill:#000000;fill-opacity:1;stroke:none;enable-background:new"
       inkscape:label="context"
       id="context"><tspan
         style="font-style:normal;font-variant:normal;font-weight:normal;font-stretch:normal;font-size:18px;line-height:1.25;font-family:'DejaVu Sans';-inkscape-font-specification:'DejaVu Sans'"
         y="733.32251"
         x="15.006836"
         sodipodi:role="line"
         id="tspan3933">devices</tspan></text>
    <text
       y="733.32251"
       xml:space="preserve"
       x="142.48828"
       style="font-style:normal;font-variant:normal;font-weight:bold;font-stretch:normal;line-height:0%;font-family:'DejaVu Sans';-inkscape-font-specification:'DejaVu Sans Bold';text-align:start;writing-mode:lr-tb;text-anchor:start;display:inline;fill:#000000;fill-opacity:1;stroke:none;enable-background:new"
       inkscape:label="icon-name"
       id="icon-name"><tspan
         style="font-style:normal;font-variant:normal;font-weight:bold;font-stretch:normal;font-size:18px;line-height:1.25;font-family:'DejaVu Sans';-inkscape-font-specification:'DejaVu Sans Bold'"
         y="733.32251"
         x="142.48828"
         sodipodi:role="line"
         id="tspan3937">input-tablet</tspan></text>
    <rect
       style="display:inline;overflow:visible;visibility:visible;fill:#fefefe;fill-opacity:1;fill-rule:nonzero;stroke:none;stroke-width:2;marker:none;enable-background:accumulate"
       id="rect16x16"
       width="16"
       height="16"
       x="-32"
       y="665.06665"
       inkscape:label="16x16"
       transform="scale(-1,1)" />
    <rect
       style="display:inline;overflow:visible;visibility:visible;fill:#fefefe;fill-opacity:1;fill-rule:nonzero;stroke:none;stroke-width:2;marker:none;enable-background:accumulate"
       id="rect24x24"
       width="24"
       height="24"
       x="-102"
       y="657.06665"
       inkscape:label="24x24"
       transform="scale(-1,1)" />
    <rect
       style="display:inline;overflow:visible;visibility:visible;fill:#fefefe;fill-opacity:1;fill-rule:nonzero;stroke:none;stroke-width:2;marker:none;enable-background:accumulate"
       id="rect32x32"
       width="32"
       height="32"
       x="-154"
       y="649.06665"
       inkscape:label="32x32"
       transform="scale(-1,1)" />
    <rect
       inkscape:label="48x48"
       y="633.06665"
       x="-218"
       height="48"
       width="48"
       id="rect48x48"
       style="display:inline;overflow:visible;visibility:visible;fill:#fefefe;fill-opacity:1;fill-rule:nonzero;stroke:none;stroke-width:2;marker:none;enable-background:accumulate"
       transform="scale(-1,1)" />
    <rect
       transform="scale(-1,1)"
       inkscape:label="48x48"
       y="617.06665"
       x="-298"
       height="64"
       width="64"
       id="rect4524"
       style="display:inline;overflow:visible;visibility:visible;fill:#fefefe;fill-opacity:1;fill-rule:nonzero;stroke:none;stroke-width:0.25;marker:none;enable-background:accumulate" />
    <rect
       transform="scale(-1,1)"
       inkscape:label="24x24"
       y="659.06665"
       x="-66"
       height="22"
       width="22"
       id="rect4567"
       style="display:inline;overflow:visible;visibility:visible;fill:#fefefe;fill-opacity:1;fill-rule:nonzero;stroke:none;stroke-width:1.83333325;marker:none;enable-background:accumulate" />
  </g>
  <g
     inkscape:groupmode="layer"
     id="layer2"
     inkscape:label="Bitmap"
     style="display:inline">
    <path
       inkscape:connector-curvature="0"
       id="path4553"
       d="m 177,489 c -1.662,0 -3,1.338 -3,3 V 495.91992 501 514.11133 518 c 0,1.662 1.338,3 3,3 h 1.97266 30.08593 H 211 c 1.662,0 3,-1.338 3,-3 V 514.07812 495.89258 492 c 0,-1.662 -1.338,-3 -3,-3 H 209.02734 186 178.94141 Z"
       style="display:inline;fill:#000000;fill-opacity:0.2;stroke:none;stroke-width:2;stroke-linecap:round;stroke-linejoin:round;stroke-miterlimit:4;stroke-dasharray:none;stroke-opacity:1;filter:url(#filter4557);enable-background:new" />
    <path
       sodipodi:nodetypes="sscsscsscsscs"
       inkscape:connector-curvature="0"
       id="path5069"
       d="m 169,485 c -1.66505,0 -3,1.2912 -3,3 v 17 17 c 0,1.8617 1.34224,3 3,3 h 17 17 c 1.73784,0 3,-1.2767 3,-3 v -17 -17 c 0,-1.6942 -1.29127,-3 -3,-3 h -17 z"
       style="display:inline;fill:none;fill-opacity:0.5;stroke:none;stroke-width:2;stroke-linecap:round;stroke-linejoin:round;stroke-miterlimit:4;stroke-dasharray:none;stroke-opacity:1;filter:url(#filter5087);enable-background:new" />
    <path
       style="opacity:1;fill:#d1d5db;fill-opacity:1;stroke:none"
       d="m 183,488 v 32 h 28 c 1.662,0 3,-1.338 3,-3 v -26 c 0,-1.662 -1.338,-3 -3,-3 h -25 z"
       id="rect4648"
       inkscape:connector-curvature="0" />
    <path
       style="display:inline;fill:none;fill-opacity:0.5;stroke:none;stroke-width:2;stroke-linecap:round;stroke-linejoin:round;stroke-miterlimit:4;stroke-dasharray:none;stroke-opacity:1;filter:url(#filter5087);enable-background:new"
       d="m 169,485 c -1.66505,0 -3,1.2912 -3,3 v 17 17 c 0,1.8617 1.34224,3 3,3 h 17 17 c 1.73784,0 3,-1.2767 3,-3 v -17 -17 c 0,-1.6942 -1.29127,-3 -3,-3 h -17 z"
       id="path4506"
       inkscape:connector-curvature="0"
       sodipodi:nodetypes="sscsscsscsscs" />
    <path
       inkscape:connector-curvature="0"
       id="path4543"
       d="m 82,509 c -1.108,0 -2,0.892 -2,2 V 512.46094 515 521.55469 523 c 0,1.108 0.892,2 2,2 H 82.488281 97.529297 98 c 1.108,0 2,-0.892 2,-2 V 521.53906 512.44531 511 c 0,-1.108 -0.892,-2 -2,-2 H 97.511719 86 82.470703 Z"
       style="display:inline;fill:#000000;fill-opacity:0.2;stroke:none;stroke-width:2;stroke-linecap:round;stroke-linejoin:round;stroke-miterlimit:4;stroke-dasharray:none;stroke-opacity:1;enable-background:new" />
    <path
       style="opacity:1;fill:#d1d5db;fill-opacity:1;stroke:none"
       d="m 84,508 v 16 h 14 c 1.108,0 2,-0.892 2,-2 v -12 c 0,-1.108 -0.892,-2 -2,-2 H 86 Z"
       id="rect4555"
       inkscape:connector-curvature="0" />
    <path
       style="display:inline;opacity:1;fill:#4c535c;fill-opacity:1;stroke:none;stroke-width:2;stroke-linecap:round;stroke-linejoin:round;stroke-miterlimit:4;stroke-dasharray:none;stroke-opacity:1;enable-background:new"
       d="m 18,512 c -1.108,0 -2,0.89199 -2,2 v 12 c 0,1.10801 0.892,2 2,2 h 2 v -16 z"
       id="rect4319"
       inkscape:connector-curvature="0" />
    <path
       inkscape:connector-curvature="0"
       id="path4547"
       d="m 126,502 c -1.108,0 -2,0.892 -2,2 V 507.66211 510 518.33789 522 c 0,1.108 0.892,2 2,2 h 1.84961 20.32031 H 150 c 1.108,0 2,-0.892 2,-2 V 518.33789 507.66602 504 c 0,-1.108 -0.892,-2 -2,-2 H 148.14844 132 127.83008 Z"
       style="display:inline;fill:#000000;fill-opacity:0.2;stroke:none;stroke-width:2;stroke-linecap:round;stroke-linejoin:round;stroke-miterlimit:4;stroke-dasharray:none;stroke-opacity:1;enable-background:new" />
    <path
       style="opacity:1;fill:#d1d5db;fill-opacity:1;stroke:none"
       d="m 124,521 c 0,1.108 0.892,2 2,2 h 24 c 1.108,0 2,-0.892 2,-2 v -18 c 0,-1.108 -0.892,-2 -2,-2 h -18 -6 c -1.108,0 -2,0.892 -2,2 v 6 z"
       id="rect4526"
       inkscape:connector-curvature="0" />
    <path
       style="display:inline;fill:#000000;fill-opacity:0.2;stroke:none;stroke-width:16;stroke-linecap:round;stroke-linejoin:round;stroke-miterlimit:4;stroke-dasharray:none;stroke-opacity:1;filter:url(#filter4579);enable-background:new"
       d="m 370,98 c -13.296,0 -24,10.704 -24,24 V 188.5918 359.37695 426 c 0,13.296 10.704,24 24,24 H 407.62891 732.70703 770 c 13.296,0 24,-10.704 24,-24 V 359.39648 188.6543 122 C 794,108.704 783.296,98 770,98 H 732.36719 407.28711 Z"
       id="path4573"
       inkscape:connector-curvature="0" />
    <path
       inkscape:connector-curvature="0"
       id="path4569"
       d="m 370,98 c -13.296,0 -24,10.704 -24,24 V 188.5918 359.37695 426 c 0,13.296 10.704,24 24,24 H 407.62891 732.70703 770 c 13.296,0 24,-10.704 24,-24 V 359.39648 188.6543 122 C 794,108.704 783.296,98 770,98 H 732.36719 407.28711 Z"
       style="display:inline;fill:#000000;fill-opacity:0.2;stroke:none;stroke-width:16;stroke-linecap:round;stroke-linejoin:round;stroke-miterlimit:4;stroke-dasharray:none;stroke-opacity:1;enable-background:new" />
    <path
       style="opacity:1;fill:#d1d5db;fill-opacity:1;stroke:none;stroke-width:1.00622773"
       d="m 426,96 v 352 h 344 c 13.296,0 24,-10.704 24,-24 V 120 c 0,-13.296 -10.704,-24 -24,-24 z"
       id="rect4609"
       inkscape:connector-curvature="0" />
    <path
       style="opacity:1;fill:#4c535c;fill-opacity:1;stroke:none;stroke-width:8;stroke-opacity:0.2"
       d="m 370,96 c -13.296,0 -24,10.704 -24,24 v 304 c 0,13.296 10.704,24 24,24 h 16 24 16 V 96 h -16 -24 z"
       id="path4986"
       inkscape:connector-curvature="0" />
    <circle
       style="display:inline;opacity:1;fill:#2197f3;fill-opacity:1;stroke:none;stroke-width:32;stroke-linecap:round;stroke-linejoin:round;stroke-miterlimit:4;stroke-dasharray:none;stroke-opacity:1;enable-background:new"
       id="circle4990"
       cx="386"
       cy="400"
       r="16" />
    <path
       style="opacity:1;fill:#000000;fill-opacity:0.1;stroke:none;stroke-width:8;stroke-opacity:0.2"
       d="M 426,96 V 272 H 794 V 120 c 0,-13.296 -10.704,-24 -24,-24 z"
       id="path4988"
       inkscape:connector-curvature="0" />
    <path
       id="path4616"
       d="m 346,122 v -2 c 0,-13.296 10.704,-24 24,-24 h 400 c 13.296,0 24,10.704 24,24 v 2 C 794,108.704 783.296,98 770,98 H 370 c -13.296,0 -24,10.704 -24,24 z"
       style="opacity:1;fill:#ffffff;fill-opacity:0.2;stroke:none;stroke-width:1.00622773"
       inkscape:connector-curvature="0" />
    <path
       style="opacity:1;fill:#4c535c;fill-opacity:1;stroke:none;stroke-opacity:0.2"
       d="m 177,488 c -1.662,0 -3,1.338 -3,3 v 9 17 c 0,1.662 1.338,3 3,3 h 1 1 1 2 1 v -32 h -1 -2 -1 -1 z"
       id="rect4962"
       inkscape:connector-curvature="0" />
    <path
       id="path4624"
       d="m 174,492 v -1 c 0,-1.662 1.338,-3 3,-3 h 34 c 1.662,0 3,1.338 3,3 v 1 c 0,-1.662 -1.338,-3 -3,-3 h -34 c -1.662,0 -3,1.338 -3,3 z"
       style="opacity:1;fill:#ffffff;fill-opacity:0.2;stroke:none"
       inkscape:connector-curvature="0" />
    <path
       style="opacity:1;fill:#000000;fill-opacity:0.1;stroke:none;stroke-opacity:0.2"
       d="m 183,488 v 16 h 31 v -13 c 0,-1.662 -1.338,-3 -3,-3 h -25 z"
       id="rect4969"
       inkscape:connector-curvature="0" />
    <path
       style="opacity:1;fill:#4c535c;fill-opacity:1;stroke:none;stroke-opacity:0.2"
       d="m 126,501 c -1.108,0 -2,0.892 -2,2 v 6 12 c 0,1.108 0.892,2 2,2 h 1 2 1 v -22 h -1 -2 z"
       id="rect4950"
       inkscape:connector-curvature="0" />
    <path
       style="opacity:0.93999999;fill:#000000;fill-opacity:0.1;stroke:none;stroke-opacity:0.2"
       d="m 130,501 v 11 h 22 v -9 c 0,-1.108 -0.892,-2 -2,-2 h -18 z"
       id="rect4955"
       inkscape:connector-curvature="0" />
    <path
       id="path4631"
       d="m 124,504 v -1 c 0,-1.108 0.892,-2 2,-2 h 24 c 1.108,0 2,0.892 2,2 v 1 c 0,-1.108 -0.892,-2 -2,-2 h -24 c -1.108,0 -2,0.892 -2,2 z"
       style="opacity:1;fill:#ffffff;fill-opacity:0.2;stroke:none"
       inkscape:connector-curvature="0" />
    <path
       id="path4892"
       d="m 82,508 c -1.108,0 -2,0.89199 -2,2 v 12 c 0,1.10801 0.892,2 2,2 h 2 v -16 z"
       style="display:inline;opacity:1;fill:#4c535c;fill-opacity:1;stroke:none;stroke-width:2;stroke-linecap:round;stroke-linejoin:round;stroke-miterlimit:4;stroke-dasharray:none;stroke-opacity:1;enable-background:new"
       inkscape:connector-curvature="0" />
    <path
       style="opacity:0.93999999;fill:#000000;fill-opacity:0.1;stroke:none;stroke-opacity:0.2"
       d="m 82,508 c -1.108,0 -2,0.892 -2,2 v 1.46094 2.53906 2 h 20 V 511.44531 510 c 0,-1.108 -0.892,-2 -2,-2 H 97.511719 86 82.470703 Z"
       id="rect4937"
       inkscape:connector-curvature="0" />
    <path
       id="path4638"
       d="m 80,511 v -1 c 0,-1.108 0.892,-2 2,-2 h 16 c 1.108,0 2,0.892 2,2 v 1 c 0,-1.108 -0.892,-2 -2,-2 H 82 c -1.108,0 -2,0.892 -2,2 z"
       style="opacity:1;fill:#ffffff;fill-opacity:0.2;stroke:none"
       inkscape:connector-curvature="0" />
    <path
       style="display:inline;fill:#000000;fill-opacity:0.2;stroke:none;stroke-width:2;stroke-linecap:round;stroke-linejoin:round;stroke-miterlimit:4;stroke-dasharray:none;stroke-opacity:1;filter:url(#filter4565);enable-background:new"
       d="m 241,475 c -1.662,0 -3,1.338 -3,3 v 8.32398 21.34814 V 516 c 0,1.662 1.338,3 3,3 h 4.70361 40.63477 H 291 c 1.662,0 3,-1.338 3,-3 V 507.67456 486.33179 478 c 0,-1.662 -1.338,-3 -3,-3 h -4.7041 -40.63501 z"
       id="path4561"
       inkscape:connector-curvature="0" />
    <path
       style="opacity:1;fill:#d1d5db;fill-opacity:1;stroke:none;stroke-width:0.12577847"
       d="m 248,474 v 44 h 43 c 1.662,0 3,-1.338 3,-3 v -38 c 0,-1.662 -1.338,-3 -3,-3 z"
       id="rect4527"
       inkscape:connector-curvature="0" />
    <path
       style="opacity:1;fill:#4c535c;fill-opacity:1;stroke:none;stroke-opacity:0.2"
       d="m 241,474 c -1.662,0 -3,1.338 -3,3 v 38 c 0,1.662 1.338,3 3,3 h 2 3 2 v -44 h -2 -3 z"
       id="rect4974"
       inkscape:connector-curvature="0" />
    <path
       style="opacity:1;fill:#000000;fill-opacity:0.1;stroke:none;stroke-opacity:0.2"
       d="m 248,474 v 22 h 46 v -19 c 0,-1.662 -1.338,-3 -3,-3 z"
       id="rect4979"
       inkscape:connector-curvature="0" />
    <path
       style="opacity:1;fill:#ffffff;fill-opacity:0.2;stroke:none;stroke-width:0.12577847"
       d="m 241,474 c -1.662,0 -3,1.338 -3,3 v 1 c 0,-1.662 1.338,-3 3,-3 h 50 c 1.662,0 3,1.338 3,3 v -1 c 0,-1.662 -1.338,-3 -3,-3 z"
       id="rect4537"
       inkscape:connector-curvature="0" />
    <circle
       r="1"
       cy="526"
       cx="18"
       id="circle4528"
       style="display:inline;opacity:1;fill:#2196f3;fill-opacity:1;stroke:none;stroke-width:2;stroke-linecap:round;stroke-linejoin:round;stroke-miterlimit:4;stroke-dasharray:none;stroke-opacity:1;enable-background:new" />
    <path
       style="display:inline;fill:#d1d5db;fill-opacity:1;fill-rule:evenodd;stroke:none;stroke-width:4.86648273px;stroke-linecap:butt;stroke-linejoin:miter;stroke-opacity:1;enable-background:new"
       d="m 20,512 v 16 h 10 c 1.108,0 2,-0.89199 2,-2 v -12 c 0,-1.10801 -0.892,-2 -2,-2 z"
       id="rect4885"
       inkscape:connector-curvature="0" />
    <circle
       style="display:inline;opacity:1;fill:#2196f3;fill-opacity:1;stroke:none;stroke-width:2;stroke-linecap:round;stroke-linejoin:round;stroke-miterlimit:4;stroke-dasharray:none;stroke-opacity:1;enable-background:new"
       id="circle4894"
       cx="82"
       cy="522"
       r="1" />
    <path
       style="opacity:0.93999999;fill:#000000;fill-opacity:0.1;stroke:none;stroke-opacity:0.2"
       d="m 20,512 v 8 h 12 v -6 c 0,-1.10801 -0.892,-2 -2,-2 z"
       id="rect4942"
       inkscape:connector-curvature="0" />
    <circle
       r="1"
       cy="519.99994"
       cx="127"
       id="circle4960"
       style="display:inline;opacity:1;fill:#2197f3;fill-opacity:1;stroke:none;stroke-width:2;stroke-linecap:round;stroke-linejoin:round;stroke-miterlimit:4;stroke-dasharray:none;stroke-opacity:1;enable-background:new" />
    <circle
       style="display:inline;opacity:1;fill:#2197f3;fill-opacity:1;stroke:none;stroke-width:2.99999976;stroke-linecap:round;stroke-linejoin:round;stroke-miterlimit:4;stroke-dasharray:none;stroke-opacity:1;enable-background:new"
       id="circle4967"
       cx="178.5"
       cy="515.5"
       r="1.5" />
    <circle
       r="2"
       cy="512"
       cx="243"
       id="circle4984"
       style="display:inline;opacity:1;fill:#2197f3;fill-opacity:1;stroke:none;stroke-width:4;stroke-linecap:round;stroke-linejoin:round;stroke-miterlimit:4;stroke-dasharray:none;stroke-opacity:1;enable-background:new" />
    <path
       style="opacity:0.93999999;fill:#000000;fill-opacity:0.2;stroke:none;stroke-opacity:0.2"
       d="m 126,501 c -1.108,0 -2,0.892 -2,2 v 6 3 h 6 v -11 z"
       id="path4570"
       inkscape:connector-curvature="0" />
    <path
       style="display:inline;fill:url(#linearGradient4435);fill-opacity:1;stroke:none;stroke-width:2;stroke-linecap:round;stroke-linejoin:round;stroke-miterlimit:4;stroke-dasharray:none;stroke-opacity:1;enable-background:new"
       d="m 126,501 c -1.108,0 -2,0.892 -2,2 V 506.66211 509 517.33789 521 c 0,1.108 0.892,2 2,2 h 1.84961 20.32031 H 150 c 1.108,0 2,-0.892 2,-2 V 517.33789 506.66602 503 c 0,-1.108 -0.892,-2 -2,-2 H 148.14844 132 127.83008 Z"
       id="path4433"
       inkscape:connector-curvature="0" />
    <path
       style="display:inline;opacity:1;fill:#000000;fill-opacity:0.2;stroke:none;stroke-width:2;stroke-linecap:round;stroke-linejoin:round;stroke-miterlimit:4;stroke-dasharray:none;stroke-opacity:1;enable-background:new"
       d="m 18,512 c -1.108,0 -2,0.89199 -2,2 v 6 h 4 v -8 z"
       id="path4578"
       inkscape:connector-curvature="0" />
    <path
       style="opacity:0.93999999;fill:#000000;fill-opacity:0.2;stroke:none;stroke-opacity:0.2"
       d="m 82,508 c -1.108,0 -2,0.892 -2,2 v 1.46094 2.53906 2 h 4 v -8 h -1.529297 z"
       id="path4594"
       inkscape:connector-curvature="0" />
    <path
       style="display:inline;fill:url(#linearGradient4347);fill-opacity:1;stroke:none;stroke-width:2;stroke-linecap:round;stroke-linejoin:round;stroke-miterlimit:4;stroke-dasharray:none;stroke-opacity:1;enable-background:new"
       d="m 82,508 c -1.108,0 -2,0.892 -2,2 V 511.46094 514 520.55469 522 c 0,1.108 0.892,2 2,2 H 82.488281 97.529297 98 c 1.108,0 2,-0.892 2,-2 V 520.53906 511.44531 510 c 0,-1.108 -0.892,-2 -2,-2 H 97.511719 86 82.470703 Z"
       id="path4345"
       inkscape:connector-curvature="0" />
    <path
       style="opacity:1;fill:#000000;fill-opacity:0.2;stroke:none;stroke-opacity:0.2"
       d="m 177,488 c -1.662,0 -3,1.338 -3,3 v 9 4 h 1 7 1 v -16 h -1 -4 z"
       id="path4600"
       inkscape:connector-curvature="0" />
    <path
       style="display:inline;fill:url(#linearGradient4171-1-0);fill-opacity:1;stroke:none;stroke-width:2;stroke-linecap:round;stroke-linejoin:round;stroke-miterlimit:4;stroke-dasharray:none;stroke-opacity:1;enable-background:new"
       d="m 177,488 c -1.662,0 -3,1.338 -3,3 V 494.91992 500 513.11133 517 c 0,1.662 1.338,3 3,3 h 1.97266 30.08593 H 211 c 1.662,0 3,-1.338 3,-3 V 513.07812 494.89258 491 c 0,-1.662 -1.338,-3 -3,-3 H 209.02734 186 178.94141 Z"
       id="circle4163-3-4"
       inkscape:connector-curvature="0" />
    <path
       style="opacity:1;fill:#000000;fill-opacity:0.2;stroke:none;stroke-opacity:0.2"
       d="m 241,474 c -1.662,0 -3,1.338 -3,3 v 19 h 10 v -22 z"
       id="path4622"
       inkscape:connector-curvature="0" />
    <path
       inkscape:connector-curvature="0"
       id="path4533"
       d="m 241,474 c -1.662,0 -3,1.338 -3,3 v 8.32398 21.34814 V 515 c 0,1.662 1.338,3 3,3 h 4.70361 40.63477 H 291 c 1.662,0 3,-1.338 3,-3 V 506.67456 485.33179 477 c 0,-1.662 -1.338,-3 -3,-3 h -4.7041 -40.63501 z"
       style="display:inline;fill:url(#linearGradient4535);fill-opacity:1;stroke:none;stroke-width:2;stroke-linecap:round;stroke-linejoin:round;stroke-miterlimit:4;stroke-dasharray:none;stroke-opacity:1;enable-background:new" />
    <path
       style="opacity:1;fill:#000000;fill-opacity:0.2;stroke:none;stroke-width:8;stroke-opacity:0.2"
       d="m 370,96 c -13.296,0 -24,10.704 -24,24 v 152 h 80 V 96 Z"
       id="path4574"
       inkscape:connector-curvature="0" />
    <path
       style="display:inline;fill:url(#linearGradient4449-0);fill-opacity:1;stroke:none;stroke-width:16;stroke-linecap:round;stroke-linejoin:round;stroke-miterlimit:4;stroke-dasharray:none;stroke-opacity:1;enable-background:new"
       d="m 370,96 c -13.296,0 -24,10.704 -24,24 V 186.5918 357.37695 424 c 0,13.296 10.704,24 24,24 H 407.62891 732.70703 770 c 13.296,0 24,-10.704 24,-24 V 357.39648 186.6543 120 C 794,106.704 783.296,96 770,96 H 732.36719 407.28711 Z"
       id="path4447"
       inkscape:connector-curvature="0" />
    <path
       style="display:inline;fill:#000000;fill-opacity:0.2;stroke:none;stroke-width:2;stroke-linecap:round;stroke-linejoin:round;stroke-miterlimit:4;stroke-dasharray:none;stroke-opacity:1;enable-background:new"
       d="m 47,510 c -1.108,0 -2,0.892 -2,2 V 513.46094 516 522.55469 524 c 0,1.108 0.892,2 2,2 H 47.488281 62.529297 63 c 1.108,0 2,-0.892 2,-2 V 522.53906 513.44531 512 c 0,-1.108 -0.892,-2 -2,-2 H 62.511719 51 47.470703 Z"
       id="path4571"
       inkscape:connector-curvature="0" />
    <path
       inkscape:connector-curvature="0"
       id="path4575"
       d="m 49,509 v 16 h 14 c 1.108,0 2,-0.892 2,-2 v -12 c 0,-1.108 -0.892,-2 -2,-2 H 51 Z"
       style="opacity:1;fill:#d1d5db;fill-opacity:1;stroke:none" />
    <path
       inkscape:connector-curvature="0"
       style="display:inline;opacity:1;fill:#4c535c;fill-opacity:1;stroke:none;stroke-width:2;stroke-linecap:round;stroke-linejoin:round;stroke-miterlimit:4;stroke-dasharray:none;stroke-opacity:1;enable-background:new"
       d="m 47,509 c -1.108,0 -2,0.89199 -2,2 v 12 c 0,1.10801 0.892,2 2,2 h 2 v -16 z"
       id="path4577" />
    <path
       inkscape:connector-curvature="0"
       id="path4579"
       d="m 47,509 c -1.108,0 -2,0.892 -2,2 V 512.46094 515 517 H 65 V 512.44531 511 c 0,-1.108 -0.892,-2 -2,-2 H 62.511719 51 47.470703 Z"
       style="opacity:0.93999999;fill:#000000;fill-opacity:0.1;stroke:none;stroke-opacity:0.2" />
    <path
       inkscape:connector-curvature="0"
       style="opacity:1;fill:#ffffff;fill-opacity:0.2;stroke:none"
       d="m 45,512 v -1 c 0,-1.108 0.892,-2 2,-2 h 16 c 1.108,0 2,0.892 2,2 v 1 c 0,-1.108 -0.892,-2 -2,-2 H 47 c -1.108,0 -2,0.892 -2,2 z"
       id="path4581" />
    <circle
       r="1"
       cy="523"
       cx="47"
       id="circle4583"
       style="display:inline;opacity:1;fill:#2196f3;fill-opacity:1;stroke:none;stroke-width:2;stroke-linecap:round;stroke-linejoin:round;stroke-miterlimit:4;stroke-dasharray:none;stroke-opacity:1;enable-background:new" />
    <path
       inkscape:connector-curvature="0"
       id="path4585"
       d="m 47,509 c -1.108,0 -2,0.892 -2,2 v 1.46094 2.53906 2 h 4 v -8 h -1.529297 z"
       style="opacity:0.93999999;fill:#000000;fill-opacity:0.2;stroke:none;stroke-opacity:0.2" />
    <path
       inkscape:connector-curvature="0"
       id="path4587"
       d="m 47,509 c -1.108,0 -2,0.892 -2,2 V 512.46094 515 521.55469 523 c 0,1.108 0.892,2 2,2 H 47.488281 62.529297 63 c 1.108,0 2,-0.892 2,-2 V 521.53906 512.44531 511 c 0,-1.108 -0.892,-2 -2,-2 H 62.511719 51 47.470703 Z"
       style="display:inline;fill:url(#linearGradient4589);fill-opacity:1;stroke:none;stroke-width:2;stroke-linecap:round;stroke-linejoin:round;stroke-miterlimit:4;stroke-dasharray:none;stroke-opacity:1;enable-background:new" />
  </g>
</svg>
