<?xml version="1.0" encoding="UTF-8" standalone="no"?>
<!-- Created with Inkscape (http://www.inkscape.org/) -->

<svg
   xmlns:dc="http://purl.org/dc/elements/1.1/"
   xmlns:cc="http://creativecommons.org/ns#"
   xmlns:rdf="http://www.w3.org/1999/02/22-rdf-syntax-ns#"
   xmlns:svg="http://www.w3.org/2000/svg"
   xmlns="http://www.w3.org/2000/svg"
   xmlns:xlink="http://www.w3.org/1999/xlink"
   xmlns:sodipodi="http://sodipodi.sourceforge.net/DTD/sodipodi-0.dtd"
   xmlns:inkscape="http://www.inkscape.org/namespaces/inkscape"
   width="816"
   height="544"
   viewBox="0 0 816 544"
   version="1.1"
   id="svg1087"
   inkscape:version="0.92.1 r"
   sodipodi:docname="input-mouse.svg">
  <defs
     id="defs1081">
    <linearGradient
       id="linearGradient4922"
       inkscape:collect="always">
      <stop
         id="stop4918"
         offset="0"
         style="stop-color:#ffffff;stop-opacity:0.05490196" />
      <stop
         id="stop4920"
         offset="1"
         style="stop-color:#177ed5;stop-opacity:0;" />
    </linearGradient>
    <linearGradient
       id="linearGradient4912"
       inkscape:collect="always">
      <stop
         id="stop4908"
         offset="0"
         style="stop-color:#ffffff;stop-opacity:0.055" />
      <stop
         id="stop4910"
         offset="1"
         style="stop-color:#177ed5;stop-opacity:0;" />
    </linearGradient>
    <linearGradient
       id="linearGradient4902"
       inkscape:collect="always">
      <stop
         id="stop4898"
         offset="0"
         style="stop-color:#ffffff;stop-opacity:0.05490196" />
      <stop
         id="stop4900"
         offset="1"
         style="stop-color:#177ed5;stop-opacity:0;" />
    </linearGradient>
    <linearGradient
       inkscape:collect="always"
       xlink:href="#linearGradient4165"
       id="linearGradient4550"
       gradientUnits="userSpaceOnUse"
       gradientTransform="matrix(1.2842809,0,0,1.2954569,209.84859,-839.22571)"
       x1="7"
       y1="1011.3622"
       x2="41.000019"
       y2="1045.3622" />
    <linearGradient
       inkscape:collect="always"
       id="linearGradient4165">
      <stop
         style="stop-color:#ffffff;stop-opacity:0.05490196"
         offset="0"
         id="stop4167" />
      <stop
         style="stop-color:#177ed5;stop-opacity:0;"
         offset="1"
         id="stop4169" />
    </linearGradient>
    <linearGradient
       inkscape:collect="always"
       xlink:href="#linearGradient4912"
       id="linearGradient4540"
       gradientUnits="userSpaceOnUse"
       gradientTransform="matrix(0.64214047,0,0,0.64772846,96.924292,-155.61287)"
       x1="7"
       y1="1011.3622"
       x2="41.000019"
       y2="1045.3622" />
    <linearGradient
       inkscape:collect="always"
       xlink:href="#linearGradient4902"
       id="linearGradient4472"
       gradientUnits="userSpaceOnUse"
       gradientTransform="matrix(0.46376778,0,0,0.46780389,53.61199,33.668476)"
       x1="7"
       y1="1011.3622"
       x2="41.000019"
       y2="1045.3622" />
    <linearGradient
       inkscape:collect="always"
       xlink:href="#linearGradient4922"
       id="linearGradient4171-1-6"
       x1="7"
       y1="1011.3622"
       x2="41.000019"
       y2="1045.3622"
       gradientUnits="userSpaceOnUse"
       gradientTransform="matrix(0.92753624,0,0,0.93560778,146.22398,-459.66303)" />
    <linearGradient
       inkscape:collect="always"
       xlink:href="#linearGradient4165"
       id="linearGradient4940"
       gradientUnits="userSpaceOnUse"
       gradientTransform="matrix(10.274247,0,0,10.363655,302.78872,-10409.805)"
       x1="7"
       y1="1011.3622"
       x2="41.000019"
       y2="1045.3622" />
    <filter
       inkscape:collect="always"
       style="color-interpolation-filters:sRGB"
       id="filter4948"
       x="-0.028"
       width="1.056"
       y="-0.021"
       height="1.042">
      <feGaussianBlur
         inkscape:collect="always"
         stdDeviation="3.36"
         id="feGaussianBlur4950" />
    </filter>
    <filter
       inkscape:collect="always"
       style="color-interpolation-filters:sRGB"
       id="filter4970"
       x="-0.014"
       width="1.028"
       y="-0.0105"
       height="1.021">
      <feGaussianBlur
         inkscape:collect="always"
         stdDeviation="0.21"
         id="feGaussianBlur4972" />
    </filter>
    <filter
       inkscape:collect="always"
       style="color-interpolation-filters:sRGB"
       id="filter4974"
       x="-0.014076923"
       width="1.0281538"
       y="-0.010457143"
       height="1.0209143">
      <feGaussianBlur
         inkscape:collect="always"
         stdDeviation="0.1525"
         id="feGaussianBlur4976" />
    </filter>
  </defs>
  <sodipodi:namedview
     id="base"
     pagecolor="#c3c3c3"
     bordercolor="#333333"
     borderopacity="1"
     inkscape:pageopacity="0"
     inkscape:pageshadow="2"
     inkscape:zoom="0.70000002"
     inkscape:cx="149.00831"
     inkscape:cy="362.82874"
     inkscape:document-units="px"
     inkscape:current-layer="layer1"
     showgrid="true"
     units="px"
     inkscape:showpageshadow="false"
     inkscape:window-width="1280"
     inkscape:window-height="1370"
     inkscape:window-x="1280"
     inkscape:window-y="34"
     inkscape:window-maximized="0">
    <inkscape:grid
       type="xygrid"
       id="grid4630" />
  </sodipodi:namedview>
  <metadata
     id="metadata1084">
    <rdf:RDF>
      <cc:Work
         rdf:about="">
        <dc:format>image/svg+xml</dc:format>
        <dc:type
           rdf:resource="http://purl.org/dc/dcmitype/StillImage" />
        <dc:title></dc:title>
        <cc:license
           rdf:resource="http://creativecommons.org/licenses/by-sa/4.0/" />
        <dc:creator>
          <cc:Agent>
            <dc:title>Peter Cornelis</dc:title>
          </cc:Agent>
        </dc:creator>
      </cc:Work>
      <cc:License
         rdf:about="http://creativecommons.org/licenses/by-sa/4.0/">
        <cc:permits
           rdf:resource="http://creativecommons.org/ns#Reproduction" />
        <cc:permits
           rdf:resource="http://creativecommons.org/ns#Distribution" />
        <cc:requires
           rdf:resource="http://creativecommons.org/ns#Notice" />
        <cc:requires
           rdf:resource="http://creativecommons.org/ns#Attribution" />
        <cc:permits
           rdf:resource="http://creativecommons.org/ns#DerivativeWorks" />
        <cc:requires
           rdf:resource="http://creativecommons.org/ns#ShareAlike" />
      </cc:License>
    </rdf:RDF>
  </metadata>
  <g
     inkscape:label="Baseplate"
     inkscape:groupmode="layer"
     id="layer1"
     transform="translate(0,-153.06668)"
     style="display:none">
    <rect
       style="display:inline;overflow:visible;visibility:visible;fill:#fefefe;fill-opacity:1;fill-rule:nonzero;stroke:none;stroke-width:2;marker:none;enable-background:accumulate"
       id="rect3951"
       width="512"
       height="512"
       x="-800"
       y="169.06668"
       inkscape:label="48x48"
       transform="scale(-1,1)" />
    <text
       y="733.32251"
       xml:space="preserve"
       x="15.006836"
       style="font-style:normal;font-variant:normal;font-weight:normal;font-stretch:normal;line-height:0%;font-family:'DejaVu Sans';-inkscape-font-specification:'DejaVu Sans';display:inline;fill:#000000;fill-opacity:1;stroke:none;enable-background:new"
       inkscape:label="context"
       id="context"><tspan
         style="font-style:normal;font-variant:normal;font-weight:normal;font-stretch:normal;font-size:18px;line-height:1.25;font-family:'DejaVu Sans';-inkscape-font-specification:'DejaVu Sans'"
         y="733.32251"
         x="15.006836"
         sodipodi:role="line"
         id="tspan3933">devices</tspan></text>
    <text
       y="733.32251"
       xml:space="preserve"
       x="142.48828"
       style="font-style:normal;font-variant:normal;font-weight:bold;font-stretch:normal;line-height:0%;font-family:'DejaVu Sans';-inkscape-font-specification:'DejaVu Sans Bold';text-align:start;writing-mode:lr-tb;text-anchor:start;display:inline;fill:#000000;fill-opacity:1;stroke:none;enable-background:new"
       inkscape:label="icon-name"
       id="icon-name"><tspan
         style="font-style:normal;font-variant:normal;font-weight:bold;font-stretch:normal;font-size:18px;line-height:1.25;font-family:'DejaVu Sans';-inkscape-font-specification:'DejaVu Sans Bold'"
         y="733.32251"
         x="142.48828"
         sodipodi:role="line"
         id="tspan3937">input-mouse</tspan></text>
    <rect
       style="display:inline;overflow:visible;visibility:visible;fill:#fefefe;fill-opacity:1;fill-rule:nonzero;stroke:none;stroke-width:2;marker:none;enable-background:accumulate"
       id="rect16x16"
       width="16"
       height="16"
       x="-32"
       y="665.06665"
       inkscape:label="16x16"
       transform="scale(-1,1)" />
    <rect
       style="display:inline;overflow:visible;visibility:visible;fill:#fefefe;fill-opacity:1;fill-rule:nonzero;stroke:none;stroke-width:2;marker:none;enable-background:accumulate"
       id="rect24x24"
       width="24"
       height="24"
       x="-76"
       y="657.06665"
       inkscape:label="24x24"
       transform="scale(-1,1)" />
    <rect
       style="display:inline;overflow:visible;visibility:visible;fill:#fefefe;fill-opacity:1;fill-rule:nonzero;stroke:none;stroke-width:2;marker:none;enable-background:accumulate"
       id="rect32x32"
       width="32"
       height="32"
       x="-128"
       y="649.06665"
       inkscape:label="32x32"
       transform="scale(-1,1)" />
    <rect
       inkscape:label="48x48"
       y="633.06665"
       x="-192"
       height="48"
       width="48"
       id="rect48x48"
       style="display:inline;overflow:visible;visibility:visible;fill:#fefefe;fill-opacity:1;fill-rule:nonzero;stroke:none;stroke-width:2;marker:none;enable-background:accumulate"
       transform="scale(-1,1)" />
    <rect
       transform="scale(-1,1)"
       inkscape:label="48x48"
       y="617.06665"
       x="-272"
       height="64"
       width="64"
       id="rect4493"
       style="display:inline;overflow:visible;visibility:visible;fill:#fefefe;fill-opacity:1;fill-rule:nonzero;stroke:none;stroke-width:0.25;marker:none;enable-background:accumulate" />
  </g>
  <g
     inkscape:groupmode="layer"
     id="layer2"
     inkscape:label="Bitmap"
     style="display:inline">
    <path
       inkscape:connector-curvature="0"
       id="path4924"
       d="m 164,488 c -4.986,0 -9,4.014 -9,9 v 5 7 h 0.0566 a 13,13 0 0 0 -0.0566,1 13,13 0 0 0 13,13 13,13 0 0 0 13,-13 v -8 -5 c 0,-4.986 -4.014,-9 -9,-9 z"
       style="display:inline;opacity:1;fill:#000000;fill-opacity:0.2;stroke:none;stroke-width:3;stroke-linecap:round;stroke-linejoin:round;stroke-miterlimit:4;stroke-dasharray:none;stroke-opacity:1;enable-background:new;filter:url(#filter4974)" />
    <path
       style="display:inline;opacity:1;fill:#4b525f;fill-opacity:1;stroke:none;stroke-width:3;stroke-linecap:round;stroke-linejoin:round;stroke-miterlimit:4;stroke-dasharray:none;stroke-opacity:1;enable-background:new"
       d="m 164,486.99999 c -4.986,0 -9,4.014 -9,9 v 5 7 h 0.0566 a 13,13 0 0 0 -0.0566,1 13,13 0 0 0 13,13 13,13 0 0 0 13,-13 v -8 -5 c 0,-4.986 -4.014,-9 -9,-9 z"
       id="path4442"
       inkscape:connector-curvature="0" />
    <path
       style="display:inline;opacity:1;fill:#000000;fill-opacity:0.5;stroke:none;stroke-width:3;stroke-linecap:round;stroke-linejoin:round;stroke-miterlimit:4;stroke-dasharray:none;stroke-opacity:1;enable-background:new"
       d="m 167,486.99999 v 2 11 c 0,0.554 0.446,1 1,1 0.554,0 1,-0.446 1,-1 v -11 -2 z"
       id="rect4454"
       inkscape:connector-curvature="0" />
    <path
       style="display:inline;fill:url(#linearGradient4171-1-6);fill-opacity:1;stroke:none;stroke-width:2;stroke-linecap:round;stroke-linejoin:round;stroke-miterlimit:4;stroke-dasharray:none;stroke-opacity:1;enable-background:new"
       d="m 164,486.99999 c -4.986,0 -9,4.014 -9,9 v 5 7 h 0.0566 a 13,13 0 0 0 -0.0566,1 13,13 0 0 0 13,13 13,13 0 0 0 13,-13 v -8 -5 c 0,-4.986 -4.014,-9 -9,-9 h -3 v 2 9 2 c 0,0.554 -0.446,1 -1,1 -0.554,0 -1,-0.446 -1,-1 v -2 -0.37305 -8.62695 -2 z"
       id="circle4163-3-2"
       inkscape:connector-curvature="0" />
    <rect
       style="display:inline;opacity:1;fill:#e0e0e0;fill-opacity:1;stroke:none;stroke-width:3;stroke-linecap:round;stroke-linejoin:round;stroke-miterlimit:4;stroke-dasharray:none;stroke-opacity:1;enable-background:new"
       id="rect4459"
       width="6"
       height="8"
       x="165"
       y="490"
       rx="1.5"
       ry="1.5" />
    <path
       inkscape:connector-curvature="0"
       id="path4904"
       d="m 60.999995,508 c -2.215998,0 -3.999997,1.784 -3.999997,4 v 1 6 a 6.9999949,7 0 0 0 6.999995,7 6.9999949,7 0 0 0 6.98437,-6.5332 6.9999949,7 0 0 0 0,-0.008 6.4999953,6.5 0 0 0 0.01563,-0.4588 v -4 -2 -0.5 -0.5 c 0,-2.216 -1.783999,-4 -3.999997,-4 h -0.5 H 64.999997 63.999998 62.499999 61 Z"
       style="display:inline;fill:#000000;fill-opacity:0.2;stroke:none;stroke-width:2;stroke-linecap:round;stroke-linejoin:round;stroke-miterlimit:4;stroke-dasharray:none;stroke-opacity:1;enable-background:new" />
    <path
       style="display:inline;opacity:1;fill:#4b525f;fill-opacity:1;stroke:none;stroke-width:3;stroke-linecap:round;stroke-linejoin:round;stroke-miterlimit:4;stroke-dasharray:none;stroke-opacity:1;enable-background:new"
       d="m 60.999998,506.99999 c -2.216,0 -4,1.784 -4,4 v 1 6 a 7,7 0 0 0 7,7 7,7 0 0 0 7,-7 v -6 -1 c 0,-2.216 -1.784,-4 -4,-4 z"
       id="path4396"
       inkscape:connector-curvature="0" />
    <path
       style="display:inline;fill:url(#linearGradient4472);fill-opacity:1;stroke:none;stroke-width:2;stroke-linecap:round;stroke-linejoin:round;stroke-miterlimit:4;stroke-dasharray:none;stroke-opacity:1;enable-background:new"
       d="m 60.999995,506.99999 c -2.215998,0 -3.999997,1.784 -3.999997,4 v 1 6 a 6.9999949,7 0 0 0 6.999995,7 6.9999949,7 0 0 0 6.98437,-6.5332 6.9999949,7 0 0 0 0,-0.008 6.4999953,6.5 0 0 0 0.01563,-0.4588 v -4 -2 -0.5 -0.5 c 0,-2.216 -1.783999,-4 -3.999997,-4 h -0.5 H 64.999997 63.999998 62.499999 61 Z"
       id="path4463"
       inkscape:connector-curvature="0" />
    <path
       style="display:inline;opacity:1;fill:#000000;fill-opacity:0.5;stroke:none;stroke-width:3;stroke-linecap:round;stroke-linejoin:round;stroke-miterlimit:4;stroke-dasharray:none;stroke-opacity:1;enable-background:new"
       d="m 62.999998,506.99999 v 1 1 5.05806 c 0,0.277 0.446,0.94194 1,0.94194 0.554,0 1,-0.66494 1,-0.94194 v -5.05806 -1 -1 z"
       id="path4460"
       inkscape:connector-curvature="0"
       sodipodi:nodetypes="cccssscccc" />
    <rect
       ry="1"
       rx="1"
       y="509"
       x="62"
       height="4"
       width="4"
       id="rect4465"
       style="display:inline;opacity:1;fill:#e0e0e0;fill-opacity:1;stroke:none;stroke-width:3;stroke-linecap:round;stroke-linejoin:round;stroke-miterlimit:4;stroke-dasharray:none;stroke-opacity:1;enable-background:new" />
    <path
       inkscape:connector-curvature="0"
       id="path4914"
       d="m 109,501 c -2.9085,0 -5.32126,2.04809 -5.87891,4.78711 C 103.04139,506.1784 103,506.5845 103,507 v 1 2 0.46094 4.84765 h 0.0391 A 9,9 0 0 0 103,516 a 9,9 0 0 0 9,9 9,9 0 0 0 9,-9 v -6 -2 -1 c 0,-0.4155 -0.0414,-0.8216 -0.12109,-1.21289 C 120.32126,503.04809 117.9085,501 115,501 h -2 v 11 c 0,0.554 -0.446,1 -1,1 -0.554,0 -1,-0.446 -1,-1 v -11 z"
       style="display:inline;fill:#000000;fill-opacity:0.2;stroke:none;stroke-width:2;stroke-linecap:round;stroke-linejoin:round;stroke-miterlimit:4;stroke-dasharray:none;stroke-opacity:1;enable-background:new" />
    <path
       style="display:inline;opacity:1;fill:#4b525f;fill-opacity:1;stroke:none;stroke-width:3;stroke-linecap:round;stroke-linejoin:round;stroke-miterlimit:4;stroke-dasharray:none;stroke-opacity:1;enable-background:new"
       d="m 109,499.99999 c -3.324,0 -6,2.676 -6,6 v 1 2 6 a 9,9 0 0 0 9,9 9,9 0 0 0 9,-9 v -6 -2 -1 c 0,-3.324 -2.676,-6 -6,-6 z"
       id="path4489"
       inkscape:connector-curvature="0" />
    <path
       inkscape:connector-curvature="0"
       id="path4499"
       d="m 111,499.99999 v 11 c 0,0.554 0.446,1 1,1 0.554,0 1,-0.446 1,-1 v -11 z"
       style="display:inline;opacity:1;fill:#000000;fill-opacity:0.5;stroke:none;stroke-width:3;stroke-linecap:round;stroke-linejoin:round;stroke-miterlimit:4;stroke-dasharray:none;stroke-opacity:1;enable-background:new" />
    <path
       style="display:inline;fill:url(#linearGradient4540);fill-opacity:1;stroke:none;stroke-width:2;stroke-linecap:round;stroke-linejoin:round;stroke-miterlimit:4;stroke-dasharray:none;stroke-opacity:1;enable-background:new"
       d="m 109,499.99999 c -2.9085,0 -5.32126,2.04809 -5.87891,4.78711 -0.0797,0.39129 -0.12109,0.79739 -0.12109,1.21289 v 1 2 0.46094 4.84765 h 0.0391 a 9,9 0 0 0 -0.0391,0.69141 9,9 0 0 0 9,9 9,9 0 0 0 9,-9 v -6 -2 -1 c 0,-0.4155 -0.0414,-0.8216 -0.12109,-1.21289 -0.55765,-2.73902 -2.97041,-4.78711 -5.87891,-4.78711 h -2 v 11 c 0,0.554 -0.446,1 -1,1 -0.554,0 -1,-0.446 -1,-1 v -11 z"
       id="path4538"
       inkscape:connector-curvature="0" />
    <rect
       ry="1"
       rx="1"
       y="503"
       x="110"
       height="6"
       width="4"
       id="rect4501"
       style="display:inline;opacity:1;fill:#e0e0e0;fill-opacity:1;stroke:none;stroke-width:3;stroke-linecap:round;stroke-linejoin:round;stroke-miterlimit:4;stroke-dasharray:none;stroke-opacity:1;enable-background:new" />
    <path
       style="display:inline;opacity:1;fill:#000000;fill-opacity:0.2;stroke:none;stroke-width:3;stroke-linecap:round;stroke-linejoin:round;stroke-miterlimit:4;stroke-dasharray:none;stroke-opacity:1;enable-background:new;filter:url(#filter4970)"
       d="m 233.99999,473 c -6.648,0 -12,5.352 -12,12 v 2 4 12 a 18,18 0 0 0 18,18 18,18 0 0 0 18,-18 v -12 -4 -2 c 0,-6.648 -5.352,-12 -12,-12 z"
       id="path4926"
       inkscape:connector-curvature="0" />
    <path
       inkscape:connector-curvature="0"
       id="path4522"
       d="m 233.99999,471.99999 c -6.648,0 -12,5.352 -12,12 v 2 4 12 a 18,18 0 0 0 18,18 18,18 0 0 0 18,-18 v -12 -4 -2 c 0,-6.648 -5.352,-12 -12,-12 z"
       style="display:inline;opacity:1;fill:#4b525f;fill-opacity:1;stroke:none;stroke-width:3;stroke-linecap:round;stroke-linejoin:round;stroke-miterlimit:4;stroke-dasharray:none;stroke-opacity:1;enable-background:new" />
    <path
       id="path4548"
       d="m 233.99999,471.99999 c -5.817,0 -10.64252,4.09618 -11.75781,9.57422 -0.15933,0.78258 -0.24219,1.59478 -0.24219,2.42578 v 2 4 0.92188 9.6953 h 0.0781 a 18,18 0 0 0 -0.0781,1.38282 18,18 0 0 0 18,18 18,18 0 0 0 18,-18 v -12 -4 -2 c 0,-0.831 -0.0829,-1.6432 -0.24218,-2.42578 -1.1153,-5.47804 -5.94082,-9.57422 -11.75782,-9.57422 h -4 v 22 c 0,1.108 -0.892,2 -2,2 -1.108,0 -2,-0.892 -2,-2 v -22 z"
       style="display:inline;fill:url(#linearGradient4550);fill-opacity:1;stroke:none;stroke-width:2;stroke-linecap:round;stroke-linejoin:round;stroke-miterlimit:4;stroke-dasharray:none;stroke-opacity:1;enable-background:new"
       inkscape:connector-curvature="0" />
    <path
       style="display:inline;opacity:1;fill:#000000;fill-opacity:0.5;stroke:none;stroke-width:3;stroke-linecap:round;stroke-linejoin:round;stroke-miterlimit:4;stroke-dasharray:none;stroke-opacity:1;enable-background:new"
       d="m 237.99999,471.99999 v 22 c 0,1.108 0.892,2 2,2 1.108,0 2,-0.892 2,-2 v -22 z"
       id="path4524"
       inkscape:connector-curvature="0" />
    <rect
       style="display:inline;opacity:1;fill:#e0e0e0;fill-opacity:1;stroke:none;stroke-width:3;stroke-linecap:round;stroke-linejoin:round;stroke-miterlimit:4;stroke-dasharray:none;stroke-opacity:1;enable-background:new"
       id="rect4526"
       width="8"
       height="12"
       x="236"
       y="478"
       rx="2"
       ry="2" />
    <path
       style="display:inline;opacity:1;fill:#4b525f;fill-opacity:1;stroke:none;stroke-width:3;stroke-linecap:round;stroke-linejoin:round;stroke-miterlimit:4;stroke-dasharray:none;stroke-opacity:1;enable-background:new"
       d="M 21 512 C 18.784 512 17 513.784 17 516 L 17 517 L 17 521 A 7 7 0 0 0 24 528 A 7 7 0 0 0 31 521 L 31 517 L 31 516 C 31 513.784 29.216 512 27 512 L 21 512 z "
       id="path4568" />
    <path
       sodipodi:nodetypes="cccssscccc"
       inkscape:connector-curvature="0"
       id="path4572"
       d="m 22.999998,512 v 1 1 5.05806 c 0,0.277 0.446,0.94194 1,0.94194 0.554,0 1,-0.66494 1,-0.94194 V 514 v -1 -1 z"
       style="display:inline;opacity:1;fill:#000000;fill-opacity:0.5;stroke:none;stroke-width:3;stroke-linecap:round;stroke-linejoin:round;stroke-miterlimit:4;stroke-dasharray:none;stroke-opacity:1;enable-background:new" />
    <rect
       style="display:inline;opacity:1;fill:#e0e0e0;fill-opacity:1;stroke:none;stroke-width:3;stroke-linecap:round;stroke-linejoin:round;stroke-miterlimit:4;stroke-dasharray:none;stroke-opacity:1;enable-background:new"
       id="rect4574"
       width="4"
       height="4"
       x="22"
       y="514"
       rx="1"
       ry="1" />
    <path
       style="display:inline;opacity:1;fill:#000000;fill-opacity:0.2;stroke:none;stroke-width:23.99999809;stroke-linecap:round;stroke-linejoin:round;stroke-miterlimit:4;stroke-dasharray:none;stroke-opacity:1;enable-background:new;filter:url(#filter4948)"
       d="m 495.99992,82.000207 c -53.184,0 -96,42.816003 -96,96.000003 v 16 32 96 a 144,144 0 0 0 144,144 144,144 0 0 0 144,-144 v -96 -32 -16 c 0,-53.184 -42.816,-96.000003 -96,-96.000003 z"
       id="path4942"
       inkscape:connector-curvature="0" />
    <path
       inkscape:connector-curvature="0"
       id="path4930"
       d="m 495.99992,82.000207 c -53.184,0 -96,42.816003 -96,96.000003 v 16 32 96 a 144,144 0 0 0 144,144 144,144 0 0 0 144,-144 v -96 -32 -16 c 0,-53.184 -42.816,-96.000003 -96,-96.000003 z"
       style="display:inline;opacity:1;fill:#000000;fill-opacity:0.2;stroke:none;stroke-width:23.99999809;stroke-linecap:round;stroke-linejoin:round;stroke-miterlimit:4;stroke-dasharray:none;stroke-opacity:1;enable-background:new" />
    <path
       style="display:inline;opacity:1;fill:#4b525f;fill-opacity:1;stroke:none;stroke-width:23.99999809;stroke-linecap:round;stroke-linejoin:round;stroke-miterlimit:4;stroke-dasharray:none;stroke-opacity:1;enable-background:new"
       d="m 495.99992,80.000127 c -53.184,0 -96,42.816003 -96,96.000003 v 16 32 96 a 144,144 0 0 0 144,144 144,144 0 0 0 144,-144 v -96 -32 -16 c 0,-53.184 -42.816,-96.000003 -96,-96.000003 z"
       id="path4932"
       inkscape:connector-curvature="0" />
    <path
       inkscape:connector-curvature="0"
       style="display:inline;fill:url(#linearGradient4940);fill-opacity:1;stroke:none;stroke-width:16;stroke-linecap:round;stroke-linejoin:round;stroke-miterlimit:4;stroke-dasharray:none;stroke-opacity:1;enable-background:new"
       d="m 495.99992,80.000127 c -46.536,0 -85.14016,32.769443 -94.06248,76.593763 -1.27464,6.26064 -1.93752,12.75824 -1.93752,19.40624 v 16 32 7.37504 77.5624 h 0.6248 a 144,144 0 0 0 -0.6248,11.06256 144,144 0 0 0 144,144 144,144 0 0 0 144,-144 v -96 -32 -16 c 0,-6.648 -0.6632,-13.1456 -1.93744,-19.40624 -8.9224,-43.82432 -47.52656,-76.593763 -94.06256,-76.593763 h -32 V 256.00013 c 0,8.864 -7.136,16 -16,16 -8.864,0 -16,-7.136 -16,-16 V 80.000127 Z"
       id="path4934" />
    <path
       inkscape:connector-curvature="0"
       id="path4936"
       d="M 527.99992,80.000127 V 256.00013 c 0,8.864 7.136,16 16,16 8.864,0 16,-7.136 16,-16 V 80.000127 Z"
       style="display:inline;opacity:1;fill:#000000;fill-opacity:0.5;stroke:none;stroke-width:23.99999809;stroke-linecap:round;stroke-linejoin:round;stroke-miterlimit:4;stroke-dasharray:none;stroke-opacity:1;enable-background:new" />
    <rect
       ry="16"
       rx="16"
       y="128.00021"
       x="512"
       height="96"
       width="64"
       id="rect4938"
       style="display:inline;opacity:1;fill:#e0e0e0;fill-opacity:1;stroke:none;stroke-width:23.99999809;stroke-linecap:round;stroke-linejoin:round;stroke-miterlimit:4;stroke-dasharray:none;stroke-opacity:1;enable-background:new" />
    <path
       style="display:inline;fill:#ffffff;fill-opacity:0.2;stroke:none;stroke-width:16;stroke-linecap:round;stroke-linejoin:round;stroke-miterlimit:4;stroke-dasharray:none;stroke-opacity:1;enable-background:new"
       d="M 496 80 C 449.464 80 410.85982 112.76943 401.9375 156.59375 C 400.66286 162.85439 400 169.352 400 176 L 400 178 C 400 171.352 400.66286 164.85439 401.9375 158.59375 C 410.85982 114.76943 449.464 82 496 82 L 528 82 L 528 80 L 496 80 z M 560 80 L 560 82 L 592 82 C 638.536 82 677.1401 114.76943 686.0625 158.59375 C 687.33674 164.85439 688 171.352 688 178 L 688 176 C 688 169.352 687.33674 162.85439 686.0625 156.59375 C 677.1401 112.76943 638.536 80 592 80 L 560 80 z M 528 256 L 528 258 C 528 266.864 535.136 274 544 274 C 552.864 274 560 266.864 560 258 L 560 256 C 560 264.864 552.864 272 544 272 C 535.136 272 528 264.864 528 256 z M 400.51172 310.9375 A 144 144 0 0 0 400 320 A 144 144 0 0 0 400.05273 321.06055 A 144 144 0 0 1 400.625 310.9375 L 400.51172 310.9375 z "
       id="path4952" />
    <path
       style="display:inline;fill:#ffffff;fill-opacity:0.2;stroke:none;stroke-width:2;stroke-linecap:round;stroke-linejoin:round;stroke-miterlimit:4;stroke-dasharray:none;stroke-opacity:1;enable-background:new"
       d="M 234 472 C 228.183 472 223.35748 476.09618 222.24219 481.57422 C 222.08286 482.3568 222 483.169 222 484 L 222 485 C 222 484.169 222.08286 483.3568 222.24219 482.57422 C 223.35748 477.09618 228.183 473 234 473 L 238 473 L 238 472 L 234 472 z M 242 472 L 242 473 L 246 473 C 251.817 473 256.64251 477.09618 257.75781 482.57422 C 257.91709 483.3568 258 484.169 258 485 L 258 484 C 258 483.169 257.91709 482.3568 257.75781 481.57422 C 256.64251 476.09618 251.817 472 246 472 L 242 472 z M 238 494 L 238 495 C 238 496.108 238.892 497 240 497 C 241.108 497 242 496.108 242 495 L 242 494 C 242 495.108 241.108 496 240 496 C 238.892 496 238 495.108 238 494 z M 222.02148 501.61719 A 18 18 0 0 0 222 502 A 18 18 0 0 0 222.02734 502.53125 A 18 18 0 0 1 222.07812 501.61719 L 222.02148 501.61719 z "
       id="path4961" />
    <path
       style="display:inline;fill:#ffffff;fill-opacity:0.2;stroke:none;stroke-width:2;stroke-linecap:round;stroke-linejoin:round;stroke-miterlimit:4;stroke-dasharray:none;stroke-opacity:1;enable-background:new"
       d="M 164 487 C 159.014 487 155 491.014 155 496 L 155 497 C 155 492.014 159.014 488 164 488 L 167 488 L 167 487 L 164 487 z M 169 487 L 169 488 L 172 488 C 176.986 488 181 492.014 181 497 L 181 496 C 181 491.014 176.986 487 172 487 L 169 487 z M 167 500 L 167 501 C 167 501.554 167.446 502 168 502 C 168.554 502 169 501.554 169 501 L 169 500 C 169 500.554 168.554 501 168 501 C 167.446 501 167 500.554 167 500 z M 155 509 A 13 13 0 0 0 155.02734 509.5332 A 13 13 0 0 1 155.05664 509 L 155 509 z "
       id="path4978" />
  </g>
</svg>
