<?xml version="1.0" encoding="UTF-8" standalone="no"?>
<!-- Created with Inkscape (http://www.inkscape.org/) -->

<svg
   xmlns:dc="http://purl.org/dc/elements/1.1/"
   xmlns:cc="http://creativecommons.org/ns#"
   xmlns:rdf="http://www.w3.org/1999/02/22-rdf-syntax-ns#"
   xmlns:svg="http://www.w3.org/2000/svg"
   xmlns="http://www.w3.org/2000/svg"
   xmlns:sodipodi="http://sodipodi.sourceforge.net/DTD/sodipodi-0.dtd"
   xmlns:inkscape="http://www.inkscape.org/namespaces/inkscape"
   width="816"
   height="544"
   viewBox="0 0 816 544"
   version="1.1"
   id="svg1087"
   inkscape:version="0.92.1 r"
   sodipodi:docname="media-optical.svg">
  <defs
     id="defs1081">
    <clipPath
       clipPathUnits="userSpaceOnUse"
       id="clipPath4926">
      <path
         style="opacity:0.5;fill:#eaeaea;fill-opacity:1;stroke:none;stroke-width:2;stroke-miterlimit:4;stroke-dasharray:none;stroke-opacity:1"
         d="m 291.24998,184.0876 c -32.83305,0 -59.26543,26.43238 -59.26543,59.26543 0,32.83305 26.43238,59.26543 59.26543,59.26543 32.83305,0 59.26543,-26.43238 59.26543,-59.26543 0,-32.83305 -26.43238,-59.26543 -59.26543,-59.26543 z m 0,46.56569 a 12.699735,12.699735 0 0 1 12.69974,12.69974 12.699735,12.699735 0 0 1 -12.69974,12.69973 12.699735,12.699735 0 0 1 -12.69973,-12.69973 12.699735,12.699735 0 0 1 12.69973,-12.69974 z"
         id="path4928"
         inkscape:connector-curvature="0" />
    </clipPath>
    <clipPath
       clipPathUnits="userSpaceOnUse"
       id="clipPath1115">
      <path
         style="opacity:0.5;fill:#eaeaea;fill-opacity:1;stroke:none;stroke-width:2;stroke-miterlimit:4;stroke-dasharray:none;stroke-opacity:1"
         d="m 291.24998,184.0876 c -32.83305,0 -59.26543,26.43238 -59.26543,59.26543 0,32.83305 26.43238,59.26543 59.26543,59.26543 32.83305,0 59.26543,-26.43238 59.26543,-59.26543 0,-32.83305 -26.43238,-59.26543 -59.26543,-59.26543 z m 0,46.56569 a 12.699735,12.699735 0 0 1 12.69974,12.69974 12.699735,12.699735 0 0 1 -12.69974,12.69973 12.699735,12.699735 0 0 1 -12.69973,-12.69973 12.699735,12.699735 0 0 1 12.69973,-12.69974 z"
         id="path1113"
         inkscape:connector-curvature="0" />
    </clipPath>
    <clipPath
       clipPathUnits="userSpaceOnUse"
       id="clipPath4428">
      <path
         style="fill:#eaeaea;fill-opacity:1;stroke:none"
         d="m 174.15457,169.84543 c -3.615,-3.615 -8.61456,-5.84605 -14.15457,-5.84606 -11.07999,0 -20.00063,8.92063 -20.00063,20.00063 1e-5,11.08 8.92064,20.00063 20.00063,20.00063 11.08001,0 20.00064,-8.92063 20.00063,-20.00063 0,-5.54 -2.23106,-10.53957 -5.84606,-14.15457 z m -11.32614,11.32614 c 1.5621,1.5621 1.5621,4.09476 0,5.65686 -1.5621,1.56209 -4.09476,1.56209 -5.65685,0 -1.5621,-1.5621 -1.5621,-4.09476 0,-5.65686 1.56209,-1.5621 4.09475,-1.5621 5.65685,0 z"
         id="path4430"
         inkscape:connector-curvature="0" />
    </clipPath>
    <clipPath
       clipPathUnits="userSpaceOnUse"
       id="clipPath1121">
      <path
         style="fill:#eaeaea;fill-opacity:1;stroke:none"
         d="m 174.15457,169.84543 c -3.615,-3.615 -8.61456,-5.84605 -14.15457,-5.84606 -11.07999,0 -20.00063,8.92063 -20.00063,20.00063 1e-5,11.08 8.92064,20.00063 20.00063,20.00063 11.08001,0 20.00064,-8.92063 20.00063,-20.00063 0,-5.54 -2.23106,-10.53957 -5.84606,-14.15457 z m -11.32614,11.32614 c 1.5621,1.5621 1.5621,4.09476 0,5.65686 -1.5621,1.56209 -4.09476,1.56209 -5.65685,0 -1.5621,-1.5621 -1.5621,-4.09476 0,-5.65686 1.56209,-1.5621 4.09475,-1.5621 5.65685,0 z"
         id="path1119"
         inkscape:connector-curvature="0" />
    </clipPath>
    <clipPath
       clipPathUnits="userSpaceOnUse"
       id="clipPath1125">
      <path
         style="fill:#eaeaea;fill-opacity:1;stroke:none"
         d="m 174.15457,169.84543 c -3.615,-3.615 -8.61456,-5.84605 -14.15457,-5.84606 -11.07999,0 -20.00063,8.92063 -20.00063,20.00063 1e-5,11.08 8.92064,20.00063 20.00063,20.00063 11.08001,0 20.00064,-8.92063 20.00063,-20.00063 0,-5.54 -2.23106,-10.53957 -5.84606,-14.15457 z m -11.32614,11.32614 c 1.5621,1.5621 1.5621,4.09476 0,5.65686 -1.5621,1.56209 -4.09476,1.56209 -5.65685,0 -1.5621,-1.5621 -1.5621,-4.09476 0,-5.65686 1.56209,-1.5621 4.09475,-1.5621 5.65685,0 z"
         id="path1123"
         inkscape:connector-curvature="0" />
    </clipPath>
    <clipPath
       clipPathUnits="userSpaceOnUse"
       id="clipPath1129">
      <path
         style="fill:#eaeaea;fill-opacity:1;stroke:none"
         d="m 174.15457,169.84543 c -3.615,-3.615 -8.61456,-5.84605 -14.15457,-5.84606 -11.07999,0 -20.00063,8.92063 -20.00063,20.00063 1e-5,11.08 8.92064,20.00063 20.00063,20.00063 11.08001,0 20.00064,-8.92063 20.00063,-20.00063 0,-5.54 -2.23106,-10.53957 -5.84606,-14.15457 z m -11.32614,11.32614 c 1.5621,1.5621 1.5621,4.09476 0,5.65686 -1.5621,1.56209 -4.09476,1.56209 -5.65685,0 -1.5621,-1.5621 -1.5621,-4.09476 0,-5.65686 1.56209,-1.5621 4.09475,-1.5621 5.65685,0 z"
         id="path1127"
         inkscape:connector-curvature="0" />
    </clipPath>
    <clipPath
       clipPathUnits="userSpaceOnUse"
       id="clipPath1137">
      <path
         style="opacity:0.5;fill:#eaeaea;fill-opacity:1;stroke:none;stroke-width:2;stroke-miterlimit:4;stroke-dasharray:none;stroke-opacity:1"
         d="m 291.24998,184.0876 c -32.83305,0 -59.26543,26.43238 -59.26543,59.26543 0,32.83305 26.43238,59.26543 59.26543,59.26543 32.83305,0 59.26543,-26.43238 59.26543,-59.26543 0,-32.83305 -26.43238,-59.26543 -59.26543,-59.26543 z m 0,46.56569 a 12.699735,12.699735 0 0 1 12.69974,12.69974 12.699735,12.699735 0 0 1 -12.69974,12.69973 12.699735,12.699735 0 0 1 -12.69973,-12.69973 12.699735,12.699735 0 0 1 12.69973,-12.69974 z"
         id="path1135"
         inkscape:connector-curvature="0" />
    </clipPath>
    <clipPath
       clipPathUnits="userSpaceOnUse"
       id="clipPath4926-3">
      <path
         style="opacity:0.5;fill:#eaeaea;fill-opacity:1;stroke:none;stroke-width:2;stroke-miterlimit:4;stroke-dasharray:none;stroke-opacity:1"
         d="m 291.24998,184.0876 c -32.83305,0 -59.26543,26.43238 -59.26543,59.26543 0,32.83305 26.43238,59.26543 59.26543,59.26543 32.83305,0 59.26543,-26.43238 59.26543,-59.26543 0,-32.83305 -26.43238,-59.26543 -59.26543,-59.26543 z m 0,46.56569 a 12.699735,12.699735 0 0 1 12.69974,12.69974 12.699735,12.699735 0 0 1 -12.69974,12.69973 12.699735,12.699735 0 0 1 -12.69973,-12.69973 12.699735,12.699735 0 0 1 12.69973,-12.69974 z"
         id="path4928-6"
         inkscape:connector-curvature="0" />
    </clipPath>
    <clipPath
       clipPathUnits="userSpaceOnUse"
       id="clipPath4428-7">
      <path
         style="fill:#eaeaea;fill-opacity:1;stroke:none"
         d="m 174.15457,169.84543 c -3.615,-3.615 -8.61456,-5.84605 -14.15457,-5.84606 -11.07999,0 -20.00063,8.92063 -20.00063,20.00063 1e-5,11.08 8.92064,20.00063 20.00063,20.00063 11.08001,0 20.00064,-8.92063 20.00063,-20.00063 0,-5.54 -2.23106,-10.53957 -5.84606,-14.15457 z m -11.32614,11.32614 c 1.5621,1.5621 1.5621,4.09476 0,5.65686 -1.5621,1.56209 -4.09476,1.56209 -5.65685,0 -1.5621,-1.5621 -1.5621,-4.09476 0,-5.65686 1.56209,-1.5621 4.09475,-1.5621 5.65685,0 z"
         id="path4430-5"
         inkscape:connector-curvature="0" />
    </clipPath>
    <clipPath
       clipPathUnits="userSpaceOnUse"
       id="clipPath5095">
      <path
         style="fill:#eaeaea;fill-opacity:1;stroke:none"
         d="m 174.15457,169.84543 c -3.615,-3.615 -8.61456,-5.84605 -14.15457,-5.84606 -11.07999,0 -20.00063,8.92063 -20.00063,20.00063 1e-5,11.08 8.92064,20.00063 20.00063,20.00063 11.08001,0 20.00064,-8.92063 20.00063,-20.00063 0,-5.54 -2.23106,-10.53957 -5.84606,-14.15457 z m -11.32614,11.32614 c 1.5621,1.5621 1.5621,4.09476 0,5.65686 -1.5621,1.56209 -4.09476,1.56209 -5.65685,0 -1.5621,-1.5621 -1.5621,-4.09476 0,-5.65686 1.56209,-1.5621 4.09475,-1.5621 5.65685,0 z"
         id="path5093"
         inkscape:connector-curvature="0" />
    </clipPath>
    <clipPath
       clipPathUnits="userSpaceOnUse"
       id="clipPath5099">
      <path
         style="opacity:0.5;fill:#eaeaea;fill-opacity:1;stroke:none;stroke-width:2;stroke-miterlimit:4;stroke-dasharray:none;stroke-opacity:1"
         d="m 291.24998,184.0876 c -32.83305,0 -59.26543,26.43238 -59.26543,59.26543 0,32.83305 26.43238,59.26543 59.26543,59.26543 32.83305,0 59.26543,-26.43238 59.26543,-59.26543 0,-32.83305 -26.43238,-59.26543 -59.26543,-59.26543 z m 0,46.56569 a 12.699735,12.699735 0 0 1 12.69974,12.69974 12.699735,12.699735 0 0 1 -12.69974,12.69973 12.699735,12.699735 0 0 1 -12.69973,-12.69973 12.699735,12.699735 0 0 1 12.69973,-12.69974 z"
         id="path5097"
         inkscape:connector-curvature="0" />
    </clipPath>
    <clipPath
       clipPathUnits="userSpaceOnUse"
       id="clipPath5103">
      <path
         style="fill:#eaeaea;fill-opacity:1;stroke:none"
         d="m 174.15457,169.84543 c -3.615,-3.615 -8.61456,-5.84605 -14.15457,-5.84606 -11.07999,0 -20.00063,8.92063 -20.00063,20.00063 1e-5,11.08 8.92064,20.00063 20.00063,20.00063 11.08001,0 20.00064,-8.92063 20.00063,-20.00063 0,-5.54 -2.23106,-10.53957 -5.84606,-14.15457 z m -11.32614,11.32614 c 1.5621,1.5621 1.5621,4.09476 0,5.65686 -1.5621,1.56209 -4.09476,1.56209 -5.65685,0 -1.5621,-1.5621 -1.5621,-4.09476 0,-5.65686 1.56209,-1.5621 4.09475,-1.5621 5.65685,0 z"
         id="path5101"
         inkscape:connector-curvature="0" />
    </clipPath>
    <clipPath
       clipPathUnits="userSpaceOnUse"
       id="clipPath5107">
      <path
         style="fill:#eaeaea;fill-opacity:1;stroke:none"
         d="m 174.15457,169.84543 c -3.615,-3.615 -8.61456,-5.84605 -14.15457,-5.84606 -11.07999,0 -20.00063,8.92063 -20.00063,20.00063 1e-5,11.08 8.92064,20.00063 20.00063,20.00063 11.08001,0 20.00064,-8.92063 20.00063,-20.00063 0,-5.54 -2.23106,-10.53957 -5.84606,-14.15457 z m -11.32614,11.32614 c 1.5621,1.5621 1.5621,4.09476 0,5.65686 -1.5621,1.56209 -4.09476,1.56209 -5.65685,0 -1.5621,-1.5621 -1.5621,-4.09476 0,-5.65686 1.56209,-1.5621 4.09475,-1.5621 5.65685,0 z"
         id="path5105"
         inkscape:connector-curvature="0" />
    </clipPath>
    <filter
       inkscape:collect="always"
       style="color-interpolation-filters:sRGB"
       id="filter4716"
       x="-0.012"
       width="1.024"
       y="-0.012"
       height="1.024">
      <feGaussianBlur
         inkscape:collect="always"
         stdDeviation="0.2"
         id="feGaussianBlur4718" />
    </filter>
    <clipPath
       clipPathUnits="userSpaceOnUse"
       id="clipPath5113">
      <path
         style="opacity:0.5;fill:#eaeaea;fill-opacity:1;stroke:none;stroke-width:2;stroke-miterlimit:4;stroke-dasharray:none;stroke-opacity:1"
         d="m 291.24998,184.0876 c -32.83305,0 -59.26543,26.43238 -59.26543,59.26543 0,32.83305 26.43238,59.26543 59.26543,59.26543 32.83305,0 59.26543,-26.43238 59.26543,-59.26543 0,-32.83305 -26.43238,-59.26543 -59.26543,-59.26543 z m 0,46.56569 a 12.699735,12.699735 0 0 1 12.69974,12.69974 12.699735,12.699735 0 0 1 -12.69974,12.69973 12.699735,12.699735 0 0 1 -12.69973,-12.69973 12.699735,12.699735 0 0 1 12.69973,-12.69974 z"
         id="path5111"
         inkscape:connector-curvature="0" />
    </clipPath>
    <filter
       inkscape:collect="always"
       style="color-interpolation-filters:sRGB"
       id="filter4704"
       x="-0.012"
       width="1.024"
       y="-0.012"
       height="1.024">
      <feGaussianBlur
         inkscape:collect="always"
         stdDeviation="0.28"
         id="feGaussianBlur4706" />
    </filter>
    <clipPath
       clipPathUnits="userSpaceOnUse"
       id="clipPath5119">
      <path
         style="opacity:0.5;fill:#eaeaea;fill-opacity:1;stroke:none;stroke-width:2;stroke-miterlimit:4;stroke-dasharray:none;stroke-opacity:1"
         d="m 291.24998,184.0876 c -32.83305,0 -59.26543,26.43238 -59.26543,59.26543 0,32.83305 26.43238,59.26543 59.26543,59.26543 32.83305,0 59.26543,-26.43238 59.26543,-59.26543 0,-32.83305 -26.43238,-59.26543 -59.26543,-59.26543 z m 0,46.56569 a 12.699735,12.699735 0 0 1 12.69974,12.69974 12.699735,12.699735 0 0 1 -12.69974,12.69973 12.699735,12.699735 0 0 1 -12.69973,-12.69973 12.699735,12.699735 0 0 1 12.69973,-12.69974 z"
         id="path5117"
         inkscape:connector-curvature="0" />
    </clipPath>
    <filter
       inkscape:collect="always"
       style="color-interpolation-filters:sRGB"
       id="filter4689"
       x="-0.024"
       width="1.048"
       y="-0.024"
       height="1.048">
      <feGaussianBlur
         inkscape:collect="always"
         stdDeviation="4.48"
         id="feGaussianBlur4691" />
    </filter>
    <filter
       inkscape:collect="always"
       style="color-interpolation-filters:sRGB"
       id="filter5303"
       x="-0.024"
       width="1.048"
       y="-0.024"
       height="1.048">
      <feGaussianBlur
         inkscape:collect="always"
         stdDeviation="4.48"
         id="feGaussianBlur5305" />
    </filter>
  </defs>
  <sodipodi:namedview
     id="base"
     pagecolor="#c3c3c3"
     bordercolor="#333333"
     borderopacity="1"
     inkscape:pageopacity="0"
     inkscape:pageshadow="2"
     inkscape:zoom="0.35000001"
     inkscape:cx="609.40467"
     inkscape:cy="790.30999"
     inkscape:document-units="px"
     inkscape:current-layer="layer2"
     showgrid="true"
     units="px"
     inkscape:showpageshadow="false"
     inkscape:window-width="1280"
     inkscape:window-height="1370"
     inkscape:window-x="1280"
     inkscape:window-y="34"
     inkscape:window-maximized="0">
    <inkscape:grid
       type="xygrid"
       id="grid4630" />
  </sodipodi:namedview>
  <metadata
     id="metadata1084">
    <rdf:RDF>
      <cc:Work
         rdf:about="">
        <dc:format>image/svg+xml</dc:format>
        <dc:type
           rdf:resource="http://purl.org/dc/dcmitype/StillImage" />
        <dc:title></dc:title>
        <cc:license
           rdf:resource="http://creativecommons.org/licenses/by-sa/4.0/" />
        <dc:creator>
          <cc:Agent>
            <dc:title>Peter Cornelis</dc:title>
          </cc:Agent>
        </dc:creator>
      </cc:Work>
      <cc:License
         rdf:about="http://creativecommons.org/licenses/by-sa/4.0/">
        <cc:permits
           rdf:resource="http://creativecommons.org/ns#Reproduction" />
        <cc:permits
           rdf:resource="http://creativecommons.org/ns#Distribution" />
        <cc:requires
           rdf:resource="http://creativecommons.org/ns#Notice" />
        <cc:requires
           rdf:resource="http://creativecommons.org/ns#Attribution" />
        <cc:permits
           rdf:resource="http://creativecommons.org/ns#DerivativeWorks" />
        <cc:requires
           rdf:resource="http://creativecommons.org/ns#ShareAlike" />
      </cc:License>
    </rdf:RDF>
  </metadata>
  <g
     inkscape:label="Baseplate"
     inkscape:groupmode="layer"
     id="layer1"
     transform="translate(0,-153.06668)"
     style="display:none">
    <rect
       style="display:inline;overflow:visible;visibility:visible;fill:#fefefe;fill-opacity:1;fill-rule:nonzero;stroke:none;stroke-width:2;marker:none;enable-background:accumulate"
       id="rect3951"
       width="512"
       height="512"
       x="-800"
       y="169.06668"
       inkscape:label="48x48"
       transform="scale(-1,1)" />
    <text
       y="733.32251"
       xml:space="preserve"
       x="15.006836"
       style="font-style:normal;font-variant:normal;font-weight:normal;font-stretch:normal;line-height:0%;font-family:'DejaVu Sans';-inkscape-font-specification:'DejaVu Sans';display:inline;fill:#000000;fill-opacity:1;stroke:none;enable-background:new"
       inkscape:label="context"
       id="context"><tspan
         style="font-style:normal;font-variant:normal;font-weight:normal;font-stretch:normal;font-size:18px;line-height:1.25;font-family:'DejaVu Sans';-inkscape-font-specification:'DejaVu Sans'"
         y="733.32251"
         x="15.006836"
         sodipodi:role="line"
         id="tspan3933">devices</tspan></text>
    <text
       y="733.32251"
       xml:space="preserve"
       x="142.48828"
       style="font-style:normal;font-variant:normal;font-weight:bold;font-stretch:normal;line-height:0%;font-family:'DejaVu Sans';-inkscape-font-specification:'DejaVu Sans Bold';text-align:start;writing-mode:lr-tb;text-anchor:start;display:inline;fill:#000000;fill-opacity:1;stroke:none;enable-background:new"
       inkscape:label="icon-name"
       id="icon-name"><tspan
         style="font-style:normal;font-variant:normal;font-weight:bold;font-stretch:normal;font-size:18px;line-height:1.25;font-family:'DejaVu Sans';-inkscape-font-specification:'DejaVu Sans Bold'"
         y="733.32251"
         x="142.48828"
         sodipodi:role="line"
         id="tspan3937">media-optical</tspan></text>
    <rect
       style="display:inline;overflow:visible;visibility:visible;fill:#fefefe;fill-opacity:1;fill-rule:nonzero;stroke:none;stroke-width:2;marker:none;enable-background:accumulate"
       id="rect16x16"
       width="16"
       height="16"
       x="-32"
       y="665.06665"
       inkscape:label="16x16"
       transform="scale(-1,1)" />
    <rect
       style="display:inline;overflow:visible;visibility:visible;fill:#fefefe;fill-opacity:1;fill-rule:nonzero;stroke:none;stroke-width:2;marker:none;enable-background:accumulate"
       id="rect24x24"
       width="24"
       height="24"
       x="-76"
       y="657.06665"
       inkscape:label="24x24"
       transform="scale(-1,1)" />
    <rect
       style="display:inline;overflow:visible;visibility:visible;fill:#fefefe;fill-opacity:1;fill-rule:nonzero;stroke:none;stroke-width:2;marker:none;enable-background:accumulate"
       id="rect32x32"
       width="32"
       height="32"
       x="-128"
       y="649.06665"
       inkscape:label="32x32"
       transform="scale(-1,1)" />
    <rect
       inkscape:label="48x48"
       y="633.06665"
       x="-192"
       height="48"
       width="48"
       id="rect48x48"
       style="display:inline;overflow:visible;visibility:visible;fill:#fefefe;fill-opacity:1;fill-rule:nonzero;stroke:none;stroke-width:2;marker:none;enable-background:accumulate"
       transform="scale(-1,1)" />
    <rect
       transform="scale(-1,1)"
       inkscape:label="48x48"
       y="617.06665"
       x="-272"
       height="64"
       width="64"
       id="rect4493"
       style="display:inline;overflow:visible;visibility:visible;fill:#fefefe;fill-opacity:1;fill-rule:nonzero;stroke:none;stroke-width:0.25;marker:none;enable-background:accumulate" />
  </g>
  <g
     inkscape:groupmode="layer"
     id="layer2"
     inkscape:label="Bitmap"
     style="display:inline">
    <path
       inkscape:connector-curvature="0"
       id="path5297"
       d="m 546,49.99999 c -124.096,0 -224,99.904 -224,224 0,124.096 99.904,224 224,224 124.096,0 224,-99.904 224,-224 0,-124.096 -99.904,-224 -224,-224 z m 0,176 a 48,48 0 0 1 48,48 48,48 0 0 1 -48,48 48,48 0 0 1 -48,-48 48,48 0 0 1 48,-48 z"
       style="display:inline;fill:#000000;fill-opacity:0.2;stroke:none;stroke-width:8;filter:url(#filter5303)" />
    <path
       inkscape:connector-curvature="0"
       id="path4683"
       d="m 546,49.99999 c -124.096,0 -224,99.904 -224,224 0,124.096 99.904,224 224,224 124.096,0 224,-99.904 224,-224 0,-124.096 -99.904,-224 -224,-224 z m 0,176 a 48,48 0 0 1 48,48 48,48 0 0 1 -48,48 48,48 0 0 1 -48,-48 48,48 0 0 1 48,-48 z"
       style="display:inline;fill:#000000;fill-opacity:0.2;stroke:none;stroke-width:8;filter:url(#filter4689)" />
    <path
       style="display:inline;opacity:1;fill:#000000;fill-opacity:0.2;stroke:none;stroke-width:4;stroke-miterlimit:4;stroke-dasharray:none;stroke-opacity:1;filter:url(#filter4704)"
       d="m 240,468.99999 c -15.512,0 -28,12.488 -28,28 0,15.512 12.488,28 28,28 15.512,0 28,-12.488 28,-28 0,-15.512 -12.488,-28 -28,-28 z m 0,22 a 6,6 0 0 1 6,6 6,6 0 0 1 -6,6 6,6 0 0 1 -6,-6 6,6 0 0 1 6,-6 z"
       id="path4699"
       inkscape:connector-curvature="0" />
    <path
       inkscape:connector-curvature="0"
       id="path4976"
       d="M 24,515.99999 A 4.0000001,4.0000001 0 0 0 20,520 a 4.0000001,4.0000001 0 0 0 4,4 4.0000001,4.0000001 0 0 0 4,-4 4.0000001,4.0000001 0 0 0 -4,-4.00001 z m 0,2.28572 A 1.7142857,1.7142857 0 0 1 25.71429,520 1.7142857,1.7142857 0 0 1 24,521.71428 1.7142857,1.7142857 0 0 1 22.28572,520 1.7142857,1.7142857 0 0 1 24,518.28571 Z"
       style="display:inline;opacity:1;fill:#b3bac3;fill-opacity:1;stroke:none;stroke-width:0.5714286;stroke-miterlimit:4;stroke-dasharray:none;stroke-opacity:1" />
    <path
       inkscape:connector-curvature="0"
       id="path4978"
       d="m 24,511.99999 c -4.432,0 -8,3.568 -8,8.00001 0,4.432 3.568,8 8,8 4.432,0 8,-3.568 8,-8 0,-4.43201 -3.568,-8.00001 -8,-8.00001 z m 0,4.57143 A 3.4285715,3.4285715 0 0 1 27.42857,520 3.4285715,3.4285715 0 0 1 24,523.42857 3.4285715,3.4285715 0 0 1 20.57143,520 3.4285715,3.4285715 0 0 1 24,516.57142 Z"
       style="display:inline;fill:#d1d5db;fill-opacity:1;stroke:none;stroke-width:0.2857143" />
    <g
       style="display:inline"
       clip-path="url(#clipPath4926-3)"
       transform="matrix(0.13498594,0,0,0.13498594,-15.31465,487.15075)"
       id="g4980">
      <path
         inkscape:connector-curvature="0"
         style="opacity:0.2;fill:#ffffff;fill-opacity:1;fill-rule:evenodd;stroke:none;stroke-width:1px;stroke-linecap:butt;stroke-linejoin:miter;stroke-opacity:1"
         d="m 152,164 8,20 8,-20 z m 8,20 -8,20 h 16 z"
         transform="matrix(2.8284271,-2.8284271,2.8284271,2.8284271,-681.72894,175.47078)"
         id="path4982"
         clip-path="none" />
      <path
         clip-path="none"
         id="path4984"
         transform="matrix(2.1491984,-3.3735658,3.3735658,2.1491984,-673.35787,387.67106)"
         d="m 152,164 8,20 8,-20 z m 8,20 -8,20 h 16 z"
         style="opacity:0.2;fill:#ffffff;fill-opacity:1;fill-rule:evenodd;stroke:none;stroke-width:1px;stroke-linecap:butt;stroke-linejoin:miter;stroke-opacity:1"
         inkscape:connector-curvature="0" />
    </g>
    <path
       style="display:inline;fill:#000000;fill-opacity:0.2;stroke:none"
       d="m 112,498.99999 c -7.756,0 -14,6.244 -14,14 0,7.756 6.244,14 14,14 7.756,0 14,-6.244 14,-14 0,-7.756 -6.244,-14 -14,-14 z m 0,11 a 3,3 0 0 1 3,3 3,3 0 0 1 -3,3 3,3 0 0 1 -3,-3 3,3 0 0 1 3,-3 z"
       id="path4720"
       inkscape:connector-curvature="0" />
    <path
       inkscape:connector-curvature="0"
       id="path4950"
       d="m 112,504.99999 a 7,7 0 0 0 -7,7 7,7 0 0 0 7,7 7,7 0 0 0 7,-7 7,7 0 0 0 -7,-7 z m 0,4 a 3,3 0 0 1 3,3 3,3 0 0 1 -3,3 3,3 0 0 1 -3,-3 3,3 0 0 1 3,-3 z"
       style="display:inline;opacity:1;fill:#b3bac3;fill-opacity:1;stroke:none;stroke-width:2;stroke-miterlimit:4;stroke-dasharray:none;stroke-opacity:1" />
    <path
       inkscape:connector-curvature="0"
       id="path4952"
       d="m 112,497.99999 c -7.756,0 -14,6.244 -14,14 0,7.756 6.244,14 14,14 7.756,0 14,-6.244 14,-14 0,-7.756 -6.244,-14 -14,-14 z m 0,8 a 6,6 0 0 1 6,6 6,6 0 0 1 -6,6 6,6 0 0 1 -6,-6 6,6 0 0 1 6,-6 z"
       style="display:inline;fill:#d1d5db;fill-opacity:1;stroke:none" />
    <g
       style="display:inline"
       clip-path="url(#clipPath4926-3)"
       transform="matrix(0.2362254,0,0,0.2362254,43.19936,454.51382)"
       id="g4954">
      <path
         inkscape:connector-curvature="0"
         style="opacity:0.2;fill:#ffffff;fill-opacity:1;fill-rule:evenodd;stroke:none;stroke-width:1px;stroke-linecap:butt;stroke-linejoin:miter;stroke-opacity:1"
         d="m 152,164 8,20 8,-20 z m 8,20 -8,20 h 16 z"
         transform="matrix(2.8284271,-2.8284271,2.8284271,2.8284271,-681.72894,175.47078)"
         id="path4956"
         clip-path="none" />
      <path
         clip-path="none"
         id="path4958"
         transform="matrix(2.1491984,-3.3735658,3.3735658,2.1491984,-673.35787,387.67106)"
         d="m 152,164 8,20 8,-20 z m 8,20 -8,20 h 16 z"
         style="opacity:0.2;fill:#ffffff;fill-opacity:1;fill-rule:evenodd;stroke:none;stroke-width:1px;stroke-linecap:butt;stroke-linejoin:miter;stroke-opacity:1"
         inkscape:connector-curvature="0" />
    </g>
    <path
       style="display:inline;opacity:1;fill:#000000;fill-opacity:0.2;stroke:none;stroke-width:2;stroke-linecap:round;stroke-linejoin:round;stroke-miterlimit:4;stroke-dasharray:none;stroke-opacity:1"
       d="m 63.99023,506.99999 c -5.54,0 -10,4.46 -10,10 0,5.54 4.46,10 10,10 5.54,0 10,-4.46 10,-10 0,-5.54 -4.46,-10 -10,-10 z m 0,8 c 1.10457,0 2,0.89543 2,2 0,1.10457 -0.89543,2 -2,2 -1.10457,0 -2,-0.89543 -2,-2 0,-1.10457 0.89543,-2 2,-2 z"
       id="path4725"
       inkscape:connector-curvature="0" />
    <path
       style="display:inline;opacity:1;fill:#b3bac3;fill-opacity:1;stroke:none;stroke-width:2;stroke-linecap:round;stroke-linejoin:round;stroke-miterlimit:4;stroke-dasharray:none;stroke-opacity:1"
       d="m 63.99086,510.99999 a 5,5 0 0 0 -5,5 5,5 0 0 0 5,5 5,5 0 0 0 5,-5 5,5 0 0 0 -5,-5 z m 0,3 c 1.10457,0 2,0.89543 2,2 0,1.10457 -0.89543,2 -2,2 -1.10457,0 -2,-0.89543 -2,-2 0,-1.10457 0.89543,-2 2,-2 z"
       id="path4413"
       inkscape:connector-curvature="0" />
    <path
       id="path4415"
       d="m 63.99086,505.99999 c -5.54,0 -10,4.46 -10,10 0,5.54 4.46,10 10,10 5.54,0 10,-4.46 10,-10 0,-5.54 -4.46,-10 -10,-10 z m 0,6 a 4,4 0 0 1 4,4 4,4 0 0 1 -4,4 4,4 0 0 1 -4,-4 4,4 0 0 1 4,-4 z"
       style="display:inline;fill:#d1d5db;fill-opacity:1;stroke:none"
       inkscape:connector-curvature="0" />
    <path
       clip-path="url(#clipPath4428-7)"
       id="path4417"
       transform="matrix(0.35355339,-0.35355339,0.35355339,0.35355339,-57.63151,507.51471)"
       d="m 152,164 8,20 8,-20 z m 8,20 -8,20 h 16 z"
       style="display:inline;opacity:0.2;fill:#ffffff;fill-opacity:1;fill-rule:evenodd;stroke:none;stroke-width:1px;stroke-linecap:butt;stroke-linejoin:miter;stroke-opacity:1"
       inkscape:connector-curvature="0" />
    <path
       inkscape:connector-curvature="0"
       style="display:inline;opacity:0.2;fill:#ffffff;fill-opacity:1;fill-rule:evenodd;stroke:none;stroke-width:1px;stroke-linecap:butt;stroke-linejoin:miter;stroke-opacity:1"
       d="m 152,164 8,20 8,-20 z m 8,20 -8,20 h 16 z"
       transform="matrix(0.26864981,-0.42169572,0.42169572,0.26864981,-56.58512,534.03975)"
       id="path4421"
       clip-path="url(#clipPath4428-7)" />
    <path
       style="display:inline;fill:#000000;fill-opacity:0.2;stroke:none;filter:url(#filter4716)"
       d="m 168,484.99999 c -11.08,0 -20,8.92 -20,20 0,11.08 8.92,20 20,20 11.08,0 20,-8.92 20,-20 0,-11.08 -8.92,-20 -20,-20 z m 0,16 c 2.20914,0 4,1.79086 4,4 0,2.20914 -1.79086,4 -4,4 -2.20914,0 -4,-1.79086 -4,-4 0,-2.20914 1.79086,-4 4,-4 z"
       id="path4711"
       inkscape:connector-curvature="0" />
    <path
       inkscape:connector-curvature="0"
       id="path4416"
       d="m 168,493.99999 a 10,10 0 0 0 -10,10 10,10 0 0 0 10,10 10,10 0 0 0 10,-10 10,10 0 0 0 -10,-10 z m 0,6 c 2.20914,0 4,1.79086 4,4 0,2.20914 -1.79086,4 -4,4 -2.20914,0 -4,-1.79086 -4,-4 0,-2.20914 1.79086,-4 4,-4 z"
       style="display:inline;opacity:1;fill:#b3bac3;fill-opacity:1;stroke:none;stroke-width:2;stroke-linecap:round;stroke-linejoin:round;stroke-miterlimit:4;stroke-dasharray:none;stroke-opacity:1" />
    <path
       inkscape:connector-curvature="0"
       style="display:inline;fill:#d1d5db;fill-opacity:1;stroke:none"
       d="m 168,483.99999 c -11.08,0 -20,8.92 -20,20 0,11.08 8.92,20 20,20 11.08,0 20,-8.92 20,-20 0,-11.08 -8.92,-20 -20,-20 z m 0,12 a 8,8 0 0 1 8,8 8,8 0 0 1 -8,8 8,8 0 0 1 -8,-8 8,8 0 0 1 8,-8 z"
       id="rect4203" />
    <path
       inkscape:connector-curvature="0"
       style="display:inline;opacity:0.2;fill:#ffffff;fill-opacity:1;fill-rule:evenodd;stroke:none;stroke-width:1px;stroke-linecap:butt;stroke-linejoin:miter;stroke-opacity:1"
       d="m 152,164 8,20 8,-20 z m 8,20 -8,20 h 16 z"
       transform="rotate(-45,550.27416,334.34314)"
       id="path4382"
       clip-path="url(#clipPath4428-7)" />
    <path
       inkscape:connector-curvature="0"
       style="display:inline;opacity:1;fill:#ffffff;fill-opacity:0.2;stroke:none;stroke-width:2;stroke-linecap:round;stroke-linejoin:round;stroke-miterlimit:4;stroke-dasharray:none;stroke-opacity:1"
       d="m 168,483.99999 c -11.08,0 -20,8.92 -20,20 0,0.16787 0.008,0.33314 0.0117,0.5 0.26469,-10.84614 9.07617,-19.5 19.9883,-19.5 10.91213,0 19.72359,8.65386 19.98828,19.5 0.004,-0.16686 0.0117,-0.33213 0.0117,-0.5 0,-11.08 -8.92,-20 -20,-20 z m -3.94922,20.5 c 0.0311,0.24688 0.0842,0.4841 0.1582,0.71484 -0.0729,-0.22986 -0.12723,-0.46916 -0.1582,-0.71484 z m 7.89844,0 c -0.031,0.24568 -0.0853,0.48498 -0.1582,0.71484 0.074,-0.23074 0.12708,-0.46796 0.1582,-0.71484 z m -7.74024,0.71875 c 0.0713,0.22155 0.16058,0.43195 0.26758,0.63477 -0.10552,-0.20257 -0.19721,-0.41371 -0.26758,-0.63477 z m 7.58204,0 c -0.0704,0.22106 -0.16206,0.4322 -0.26758,0.63477 0.107,-0.20282 0.19629,-0.41322 0.26758,-0.63477 z m -7.28516,0.68945 c 0.10259,0.18733 0.21552,0.36562 0.3457,0.53321 -0.12884,-0.16793 -0.24425,-0.34565 -0.3457,-0.53321 z m 6.98828,0 c -0.10145,0.18756 -0.21686,0.36528 -0.3457,0.53321 0.13018,-0.16759 0.24311,-0.34588 0.3457,-0.53321 z m -6.57226,0.61719 c 0.12173,0.14819 0.24912,0.28872 0.39062,0.41797 -0.14039,-0.12972 -0.26998,-0.26934 -0.39062,-0.41797 z m 6.15624,0 c -0.12064,0.14863 -0.25023,0.28825 -0.39062,0.41797 0.1415,-0.12925 0.26889,-0.26978 0.39062,-0.41797 z m -5.58984,0.5625 c 0.12294,0.10014 0.24447,0.19997 0.37891,0.28516 -0.13345,-0.0855 -0.25698,-0.18477 -0.37891,-0.28516 z m 5.02344,0 c -0.12193,0.10039 -0.24546,0.1997 -0.37891,0.28516 0.13444,-0.0852 0.25597,-0.18502 0.37891,-0.28516 z m -4.34961,0.44531 c 0.11504,0.06 0.22638,0.12501 0.34766,0.17383 -0.12074,-0.049 -0.23323,-0.11356 -0.34766,-0.17383 z m 3.67578,0 c -0.11443,0.0603 -0.22692,0.12478 -0.34766,0.17383 0.12128,-0.0488 0.23262,-0.11381 0.34766,-0.17383 z m -2.89844,0.30664 c 0.0964,0.0266 0.18799,0.0626 0.28711,0.082 -0.099,-0.0196 -0.19099,-0.0553 -0.28711,-0.082 z m 2.1211,0 c -0.0961,0.0268 -0.18815,0.0625 -0.28711,0.082 0.0991,-0.0194 0.19076,-0.0554 0.28711,-0.082 z"
       id="path4432" />
    <path
       clip-path="url(#clipPath4428-7)"
       id="path4440"
       transform="rotate(-57.5,455.64148,336.70896)"
       d="m 152,164 8,20 8,-20 z m 8,20 -8,20 h 16 z"
       style="display:inline;opacity:0.2;fill:#ffffff;fill-opacity:1;fill-rule:evenodd;stroke:none;stroke-width:1px;stroke-linecap:butt;stroke-linejoin:miter;stroke-opacity:1"
       inkscape:connector-curvature="0" />
    <path
       style="display:inline;fill:#000000;fill-opacity:0.2;stroke:none;stroke-width:8"
       d="m 546,49.99999 c -124.096,0 -224,99.904 -224,224 0,124.096 99.904,224 224,224 124.096,0 224,-99.904 224,-224 0,-124.096 -99.904,-224 -224,-224 z m 0,176 a 48,48 0 0 1 48,48 48,48 0 0 1 -48,48 48,48 0 0 1 -48,-48 48,48 0 0 1 48,-48 z"
       id="path4678"
       inkscape:connector-curvature="0" />
    <path
       style="display:inline;opacity:1;fill:#b3bac3;fill-opacity:1;stroke:none;stroke-width:16;stroke-miterlimit:4;stroke-dasharray:none;stroke-opacity:1"
       d="m 546,160.00001 a 112,112 0 0 0 -112,112 112,112 0 0 0 112,112 112,112 0 0 0 112,-112 112,112 0 0 0 -112,-112 z m 0,64 a 48,48 0 0 1 48,48 48,48 0 0 1 -48,48 48,48 0 0 1 -48,-48 48,48 0 0 1 48,-48 z"
       id="path4830"
       inkscape:connector-curvature="0" />
    <path
       style="display:inline;fill:#d1d5db;fill-opacity:1;stroke:none;stroke-width:8"
       d="m 546,48.00001 c -124.096,0 -224,99.904 -224,224 0,124.096 99.904,224 224,224 124.096,0 224,-99.904 224,-224 0,-124.096 -99.904,-224 -224,-224 z m 0,128 a 96,96 0 0 1 96,96 96,96 0 0 1 -96,96 96,96 0 0 1 -96,-96 96,96 0 0 1 96,-96 z"
       id="rect4229"
       inkscape:connector-curvature="0" />
    <g
       style="display:inline"
       id="g4917"
       transform="matrix(3.7796063,0,0,3.7796063,-554.81027,-647.77863)"
       clip-path="url(#clipPath4926-3)">
      <path
         clip-path="none"
         id="path4375-8"
         transform="matrix(2.8284271,-2.8284271,2.8284271,2.8284271,-681.72894,175.47078)"
         d="m 152,164 8,20 8,-20 z m 8,20 -8,20 h 16 z"
         style="opacity:0.2;fill:#ffffff;fill-opacity:1;fill-rule:evenodd;stroke:none;stroke-width:1px;stroke-linecap:butt;stroke-linejoin:miter;stroke-opacity:1"
         inkscape:connector-curvature="0" />
      <path
         transform="matrix(2.1491984,-3.3735658,3.3735658,2.1491984,-673.35787,387.67106)"
         inkscape:connector-curvature="0"
         style="opacity:0.2;fill:#ffffff;fill-opacity:1;fill-rule:evenodd;stroke:none;stroke-width:1px;stroke-linecap:butt;stroke-linejoin:miter;stroke-opacity:1"
         d="m 152,164 8,20 8,-20 z m 8,20 -8,20 h 16 z"
         id="path4379-6"
         clip-path="none" />
    </g>
    <path
       inkscape:connector-curvature="0"
       style="display:inline;opacity:1;fill:#ffffff;fill-opacity:0.2;stroke:none;stroke-width:8"
       d="m 546,47.99999 c -124.096,0 -224,99.904 -224,224 0,0.23298 0.0112,0.46332 0.0156,0.69531 C 322.71464,149.20599 422.34026,49.99999 546,49.99999 c 123.66627,0 223.29577,99.21644 223.98438,222.71484 0.005,-0.23848 0.0156,-0.47532 0.0156,-0.71484 0,-124.096 -99.904,-224 -224,-224 z"
       id="path5041" />
    <path
       style="display:inline;opacity:1;fill:#ffffff;fill-opacity:0.2;stroke:none"
       d="m 112,497.99999 c -7.756,0 -14,6.244 -14,14 0,0.16884 0.0195,0.33264 0.0254,0.5 0.26374,-7.52057 6.38745,-13.5 13.97461,-13.5 7.58716,0 13.71087,5.97943 13.97461,13.5 0.006,-0.16736 0.0254,-0.33116 0.0254,-0.5 0,-7.756 -6.244,-14 -14,-14 z"
       id="path5046"
       inkscape:connector-curvature="0"
       sodipodi:nodetypes="sscscss" />
    <path
       style="display:inline;opacity:1;fill:#ffffff;fill-opacity:0.2;stroke:none"
       d="m 63.99023,505.99999 c -5.54,0 -10,4.46 -10,10 0,0.16883 0.0172,0.33327 0.0254,0.5 0.26052,-5.3043 4.60345,-9.5 9.97461,-9.5 5.37116,0 9.71408,4.19572 9.97461,9.5 0.008,-0.16675 0.0254,-0.33115 0.0254,-0.5 0,-5.54 -4.46,-10 -10,-10 z"
       id="path5051"
       inkscape:connector-curvature="0"
       sodipodi:nodetypes="sscscss" />
    <path
       style="display:inline;opacity:1;fill:#b3bac3;fill-opacity:1;stroke:none;stroke-width:4;stroke-miterlimit:4;stroke-dasharray:none;stroke-opacity:1"
       d="m 240,482.00002 a 14,14 0 0 0 -14,14 14,14 0 0 0 14,14 14,14 0 0 0 14,-14 14,14 0 0 0 -14,-14 z m 0,8 a 6,6 0 0 1 6,6 6,6 0 0 1 -6,6 6,6 0 0 1 -6,-6 6,6 0 0 1 6,-6 z"
       id="path4649"
       inkscape:connector-curvature="0" />
    <path
       style="display:inline;fill:#d1d5db;fill-opacity:1;stroke:none;stroke-width:2"
       d="m 240,468.00002 c -15.512,0 -28,12.488 -28,28 0,15.512 12.488,28 28,28 15.512,0 28,-12.488 28,-28 0,-15.512 -12.488,-28 -28,-28 z m 0,16 a 12,12 0 0 1 12,12 12,12 0 0 1 -12,12 12,12 0 0 1 -12,-12 12,12 0 0 1 12,-12 z"
       id="path4651"
       inkscape:connector-curvature="0" />
    <g
       style="display:inline"
       id="g4657"
       transform="matrix(0.4724508,0,0,0.4724508,102.39872,381.02768)"
       clip-path="url(#clipPath4926-3)">
      <path
         clip-path="none"
         id="path4653"
         transform="matrix(2.8284271,-2.8284271,2.8284271,2.8284271,-681.72894,175.47078)"
         d="m 152,164 8,20 8,-20 z m 8,20 -8,20 h 16 z"
         style="opacity:0.2;fill:#ffffff;fill-opacity:1;fill-rule:evenodd;stroke:none;stroke-width:1px;stroke-linecap:butt;stroke-linejoin:miter;stroke-opacity:1"
         inkscape:connector-curvature="0" />
      <path
         inkscape:connector-curvature="0"
         style="opacity:0.2;fill:#ffffff;fill-opacity:1;fill-rule:evenodd;stroke:none;stroke-width:1px;stroke-linecap:butt;stroke-linejoin:miter;stroke-opacity:1"
         d="m 152,164 8,20 8,-20 z m 8,20 -8,20 h 16 z"
         transform="matrix(2.1491984,-3.3735658,3.3735658,2.1491984,-673.35787,387.67106)"
         id="path4655"
         clip-path="none" />
    </g>
    <path
       inkscape:connector-curvature="0"
       style="display:inline;opacity:1;fill:#ffffff;fill-opacity:0.2;stroke:none;stroke-width:2"
       d="m 240,467.99999 c -15.512,0 -28,12.488 -28,28 0,0.11345 0.0113,0.22411 0.0176,0.33594 0.35152,-15.20176 12.69313,-27.33594 27.9824,-27.33594 15.28927,0 27.63088,12.13418 27.98242,27.33594 0.006,-0.11183 0.0176,-0.22249 0.0176,-0.33594 0,-15.512 -12.488,-28 -28,-28 z"
       id="path4659" />
  </g>
</svg>
