<?xml version="1.0" encoding="UTF-8" standalone="no"?>
<!-- Created with Inkscape (http://www.inkscape.org/) -->

<svg
   xmlns:dc="http://purl.org/dc/elements/1.1/"
   xmlns:cc="http://creativecommons.org/ns#"
   xmlns:rdf="http://www.w3.org/1999/02/22-rdf-syntax-ns#"
   xmlns:svg="http://www.w3.org/2000/svg"
   xmlns="http://www.w3.org/2000/svg"
   xmlns:xlink="http://www.w3.org/1999/xlink"
   xmlns:sodipodi="http://sodipodi.sourceforge.net/DTD/sodipodi-0.dtd"
   xmlns:inkscape="http://www.inkscape.org/namespaces/inkscape"
   width="816"
   height="544"
   viewBox="0 0 816 544"
   version="1.1"
   id="svg1087"
   inkscape:version="0.92.1 r"
   sodipodi:docname="folder-google-drive.svg">
  <defs
     id="defs1081">
    <linearGradient
       id="linearGradient4540"
       inkscape:collect="always">
      <stop
         id="stop4536"
         offset="0"
         style="stop-color:#ffffff;stop-opacity:0.05490196" />
      <stop
         id="stop4538"
         offset="1"
         style="stop-color:#177ed5;stop-opacity:0;" />
    </linearGradient>
    <linearGradient
       id="linearGradient4534"
       inkscape:collect="always">
      <stop
         id="stop4530"
         offset="0"
         style="stop-color:#ffffff;stop-opacity:0.05490196" />
      <stop
         id="stop4532"
         offset="1"
         style="stop-color:#177ed5;stop-opacity:0;" />
    </linearGradient>
    <filter
       inkscape:collect="always"
       style="color-interpolation-filters:sRGB"
       id="filter5087"
       x="-0.048"
       width="1.096"
       y="-0.048"
       height="1.096">
      <feGaussianBlur
         inkscape:collect="always"
         stdDeviation="0.8"
         id="feGaussianBlur5089" />
    </filter>
    <linearGradient
       inkscape:collect="always"
       xlink:href="#linearGradient4534"
       id="linearGradient4347"
       gradientUnits="userSpaceOnUse"
       gradientTransform="matrix(0.47825838,0,0,0.47826068,52.5218,24.1749)"
       x1="7"
       y1="1011.3622"
       x2="41.000019"
       y2="1045.3622" />
    <linearGradient
       inkscape:collect="always"
       id="linearGradient4165">
      <stop
         style="stop-color:#ffffff;stop-opacity:0.05490196"
         offset="0"
         id="stop4167" />
      <stop
         style="stop-color:#177ed5;stop-opacity:0;"
         offset="1"
         id="stop4169" />
    </linearGradient>
    <linearGradient
       inkscape:collect="always"
       xlink:href="#linearGradient4540"
       id="linearGradient4435"
       gradientUnits="userSpaceOnUse"
       gradientTransform="matrix(0.65217041,0,0,0.65217328,96.3479,-158.67021)"
       x1="7"
       y1="1011.3622"
       x2="41.000019"
       y2="1045.3622" />
    <linearGradient
       inkscape:collect="always"
       xlink:href="#linearGradient4165"
       id="linearGradient4171-1-0"
       x1="7"
       y1="1011.3622"
       x2="41.000019"
       y2="1045.3622"
       gradientUnits="userSpaceOnUse"
       gradientTransform="matrix(0.95652174,0,0,0.95652174,145.04353,-479.6505)" />
    <linearGradient
       inkscape:collect="always"
       xlink:href="#linearGradient4165-3"
       id="linearGradient4449-0"
       gradientUnits="userSpaceOnUse"
       gradientTransform="matrix(10.43473,0,0,10.434772,293.56525,-10458.721)"
       x1="7"
       y1="1011.3622"
       x2="41.000019"
       y2="1045.3622" />
    <linearGradient
       inkscape:collect="always"
       id="linearGradient4165-3">
      <stop
         style="stop-color:#ffffff;stop-opacity:0.05490196"
         offset="0"
         id="stop4167-6" />
      <stop
         style="stop-color:#177ed5;stop-opacity:0;"
         offset="1"
         id="stop4169-7" />
    </linearGradient>
    <linearGradient
       inkscape:collect="always"
       xlink:href="#linearGradient4165-3"
       id="linearGradient4535"
       gradientUnits="userSpaceOnUse"
       gradientTransform="matrix(1.3043412,0,0,1.3043465,208.69566,-845.3401)"
       x1="7"
       y1="1011.3622"
       x2="41.000019"
       y2="1045.3622" />
    <filter
       inkscape:collect="always"
       style="color-interpolation-filters:sRGB"
       id="filter4553"
       x="-0.012"
       width="1.024"
       y="-0.012"
       height="1.024">
      <feGaussianBlur
         inkscape:collect="always"
         stdDeviation="0.2"
         id="feGaussianBlur4555" />
    </filter>
    <filter
       inkscape:collect="always"
       style="color-interpolation-filters:sRGB"
       id="filter4559"
       x="-0.012"
       width="1.024"
       y="-0.012"
       height="1.024">
      <feGaussianBlur
         inkscape:collect="always"
         stdDeviation="0.28"
         id="feGaussianBlur4561" />
    </filter>
    <filter
       inkscape:collect="always"
       style="color-interpolation-filters:sRGB"
       id="filter4573"
       x="-0.024"
       width="1.048"
       y="-0.024"
       height="1.048">
      <feGaussianBlur
         inkscape:collect="always"
         stdDeviation="4.48"
         id="feGaussianBlur4575" />
    </filter>
    <filter
       inkscape:collect="always"
       style="color-interpolation-filters:sRGB"
       id="filter5090"
       x="-0.02233887"
       width="1.0446777"
       y="-0.025928021"
       height="1.051856">
      <feGaussianBlur
         inkscape:collect="always"
         stdDeviation="1.1914064"
         id="feGaussianBlur5092" />
    </filter>
  </defs>
  <sodipodi:namedview
     id="base"
     pagecolor="#c3c3c3"
     bordercolor="#333333"
     borderopacity="1"
     inkscape:pageopacity="0"
     inkscape:pageshadow="2"
     inkscape:zoom="2"
     inkscape:cx="237.48654"
     inkscape:cy="22.445655"
     inkscape:document-units="px"
     inkscape:current-layer="layer1"
     showgrid="true"
     units="px"
     inkscape:showpageshadow="false"
     inkscape:window-width="1280"
     inkscape:window-height="1370"
     inkscape:window-x="232"
     inkscape:window-y="34"
     inkscape:window-maximized="0">
    <inkscape:grid
       type="xygrid"
       id="grid4630" />
  </sodipodi:namedview>
  <metadata
     id="metadata1084">
    <rdf:RDF>
      <cc:Work
         rdf:about="">
        <dc:format>image/svg+xml</dc:format>
        <dc:type
           rdf:resource="http://purl.org/dc/dcmitype/StillImage" />
        <dc:title></dc:title>
        <cc:license
           rdf:resource="http://creativecommons.org/licenses/by-sa/4.0/" />
        <dc:creator>
          <cc:Agent>
            <dc:title>Peter Cornelis</dc:title>
          </cc:Agent>
        </dc:creator>
      </cc:Work>
      <cc:License
         rdf:about="http://creativecommons.org/licenses/by-sa/4.0/">
        <cc:permits
           rdf:resource="http://creativecommons.org/ns#Reproduction" />
        <cc:permits
           rdf:resource="http://creativecommons.org/ns#Distribution" />
        <cc:requires
           rdf:resource="http://creativecommons.org/ns#Notice" />
        <cc:requires
           rdf:resource="http://creativecommons.org/ns#Attribution" />
        <cc:permits
           rdf:resource="http://creativecommons.org/ns#DerivativeWorks" />
        <cc:requires
           rdf:resource="http://creativecommons.org/ns#ShareAlike" />
      </cc:License>
    </rdf:RDF>
  </metadata>
  <g
     inkscape:label="Baseplate"
     inkscape:groupmode="layer"
     id="layer1"
     transform="translate(0,-153.06668)"
     style="display:none">
    <rect
       style="display:inline;overflow:visible;visibility:visible;fill:#fefefe;fill-opacity:1;fill-rule:nonzero;stroke:none;stroke-width:2;marker:none;enable-background:accumulate"
       id="rect3951"
       width="512"
       height="512"
       x="-800"
       y="169.06668"
       inkscape:label="48x48"
       transform="scale(-1,1)" />
    <text
       y="733.32251"
       xml:space="preserve"
       x="15.006836"
       style="font-style:normal;font-variant:normal;font-weight:normal;font-stretch:normal;line-height:0%;font-family:'DejaVu Sans';-inkscape-font-specification:'DejaVu Sans';display:inline;fill:#000000;fill-opacity:1;stroke:none;enable-background:new"
       inkscape:label="context"
       id="context"><tspan
         style="font-style:normal;font-variant:normal;font-weight:normal;font-stretch:normal;font-size:18px;line-height:1.25;font-family:'DejaVu Sans';-inkscape-font-specification:'DejaVu Sans'"
         y="733.32251"
         x="15.006836"
         sodipodi:role="line"
         id="tspan3933">places</tspan></text>
    <text
       y="733.32251"
       xml:space="preserve"
       x="142.48828"
       style="font-style:normal;font-variant:normal;font-weight:bold;font-stretch:normal;line-height:0%;font-family:'DejaVu Sans';-inkscape-font-specification:'DejaVu Sans Bold';text-align:start;writing-mode:lr-tb;text-anchor:start;display:inline;fill:#000000;fill-opacity:1;stroke:none;enable-background:new"
       inkscape:label="icon-name"
       id="icon-name"><tspan
         style="font-style:normal;font-variant:normal;font-weight:bold;font-stretch:normal;font-size:18px;line-height:1.25;font-family:'DejaVu Sans';-inkscape-font-specification:'DejaVu Sans Bold'"
         y="733.32251"
         x="142.48828"
         sodipodi:role="line"
         id="tspan3937">folder-google-drive</tspan></text>
    <rect
       style="display:inline;overflow:visible;visibility:visible;fill:#fefefe;fill-opacity:1;fill-rule:nonzero;stroke:none;stroke-width:2;marker:none;enable-background:accumulate"
       id="rect16x16"
       width="16"
       height="16"
       x="-32"
       y="665.06665"
       inkscape:label="16x16"
       transform="scale(-1,1)" />
    <rect
       style="display:inline;overflow:visible;visibility:visible;fill:#fefefe;fill-opacity:1;fill-rule:nonzero;stroke:none;stroke-width:2;marker:none;enable-background:accumulate"
       id="rect24x24"
       width="24"
       height="24"
       x="-76"
       y="657.06665"
       inkscape:label="24x24"
       transform="scale(-1,1)" />
    <rect
       style="display:inline;overflow:visible;visibility:visible;fill:#fefefe;fill-opacity:1;fill-rule:nonzero;stroke:none;stroke-width:2;marker:none;enable-background:accumulate"
       id="rect32x32"
       width="32"
       height="32"
       x="-128"
       y="649.06665"
       inkscape:label="32x32"
       transform="scale(-1,1)" />
    <rect
       inkscape:label="48x48"
       y="633.06665"
       x="-192"
       height="48"
       width="48"
       id="rect48x48"
       style="display:inline;overflow:visible;visibility:visible;fill:#fefefe;fill-opacity:1;fill-rule:nonzero;stroke:none;stroke-width:2;marker:none;enable-background:accumulate"
       transform="scale(-1,1)" />
    <rect
       transform="scale(-1,1)"
       inkscape:label="48x48"
       y="617.06665"
       x="-272"
       height="64"
       width="64"
       id="rect4524"
       style="display:inline;overflow:visible;visibility:visible;fill:#fefefe;fill-opacity:1;fill-rule:nonzero;stroke:none;stroke-width:0.25;marker:none;enable-background:accumulate" />
  </g>
  <g
     inkscape:groupmode="layer"
     id="layer2"
     inkscape:label="Bitmap"
     style="display:inline">
    <path
       inkscape:connector-curvature="0"
       id="path4551"
       d="m 151,485 c -1.662,0 -3,1.338 -3,3 v 7.91992 18.19141 V 522 c 0,1.662 1.338,3 3,3 h 7.91992 18.17969 H 185 c 1.662,0 3,-1.338 3,-3 V 514.07812 495.89258 488 c 0,-1.662 -1.338,-3 -3,-3 h -7.91992 -18.17969 z"
       style="display:inline;fill:#000000;fill-opacity:0.2;stroke:none;stroke-width:2;stroke-linecap:round;stroke-linejoin:round;stroke-miterlimit:4;stroke-dasharray:none;stroke-opacity:1;filter:url(#filter4553);enable-background:new" />
    <path
       sodipodi:nodetypes="sscsscsscsscs"
       inkscape:connector-curvature="0"
       id="path5069"
       d="m 143,485 c -1.66505,0 -3,1.2912 -3,3 v 17 17 c 0,1.8617 1.34224,3 3,3 h 17 17 c 1.73784,0 3,-1.2767 3,-3 v -17 -17 c 0,-1.6942 -1.29127,-3 -3,-3 h -17 z"
       style="display:inline;fill:none;fill-opacity:0.5;stroke:none;stroke-width:2;stroke-linecap:round;stroke-linejoin:round;stroke-miterlimit:4;stroke-dasharray:none;stroke-opacity:1;filter:url(#filter5087);enable-background:new" />
    <path
       style="display:inline;fill:none;fill-opacity:0.5;stroke:none;stroke-width:2;stroke-linecap:round;stroke-linejoin:round;stroke-miterlimit:4;stroke-dasharray:none;stroke-opacity:1;filter:url(#filter5087);enable-background:new"
       d="m 143,485 c -1.66505,0 -3,1.2912 -3,3 v 17 17 c 0,1.8617 1.34224,3 3,3 h 17 17 c 1.73784,0 3,-1.2767 3,-3 v -17 -17 c 0,-1.6942 -1.29127,-3 -3,-3 h -17 z"
       id="path4506"
       inkscape:connector-curvature="0"
       sodipodi:nodetypes="sscsscsscsscs" />
    <path
       inkscape:connector-curvature="0"
       id="path4543"
       d="m 56,507 c -1.108,0 -2,0.892 -2,2 v 3.46094 9.09375 V 525 c 0,1.108 0.892,2 2,2 H 59.460938 68.550781 72 c 1.108,0 2,-0.892 2,-2 V 521.53906 512.44531 509 c 0,-1.108 -0.892,-2 -2,-2 h -3.460938 -9.089843 z"
       style="display:inline;fill:#000000;fill-opacity:0.2;stroke:none;stroke-width:2;stroke-linecap:round;stroke-linejoin:round;stroke-miterlimit:4;stroke-dasharray:none;stroke-opacity:1;enable-background:new" />
    <path
       style="display:inline;fill:#333a42;fill-opacity:1;stroke:none;enable-background:new"
       d="m 56,506 c -1.108,0 -2,0.892 -2,2 v 2 c 0,-1.108 0.892,-2 2,-2 h 2 4 l 4,4 h 4 2 c 1.108,0 2,0.892 2,2 v -6 c 0,-1.108 -0.892,-2 -2,-2 z"
       id="rect4243"
       inkscape:connector-curvature="0" />
    <rect
       transform="matrix(0,-1,-1,0,0,0)"
       style="display:inline;fill:#333a42;fill-opacity:1;stroke:none;enable-background:new"
       id="rect4203"
       width="40"
       height="40"
       x="-524"
       y="-188"
       rx="3"
       ry="3" />
    <path
       inkscape:connector-curvature="0"
       id="path4547"
       d="m 101,499 c -1.662,0 -3,1.338 -3,3 v 5.66211 10.67578 V 524 c 0,1.662 1.338,3 3,3 h 5.6875 10.64844 H 123 c 1.662,0 3,-1.338 3,-3 V 518.33789 507.66602 502 c 0,-1.662 -1.338,-3 -3,-3 h -5.6875 -10.64844 z"
       style="display:inline;fill:#000000;fill-opacity:0.2;stroke:none;stroke-width:2;stroke-linecap:round;stroke-linejoin:round;stroke-miterlimit:4;stroke-dasharray:none;stroke-opacity:1;enable-background:new" />
    <path
       style="display:inline;fill:#333a42;fill-opacity:1;stroke:none;enable-background:new"
       d="m 101,498 c -1.662,0 -3,1.338 -3,3 v 2 c 0,-1.662 1.338,-3 3,-3 h 4 2 3 l 4,4 h 9 c 1.662,0 3,1.338 3,3 v -6 c 0,-1.662 -1.338,-3 -3,-3 z"
       id="rect4255"
       inkscape:connector-curvature="0" />
    <path
       style="display:inline;fill:#333a42;fill-opacity:1;stroke:none;enable-background:new"
       d="m 18,512 c -1.108,0 -2,0.892 -2,2 v 1 c 0,-1.108 0.892,-2 2,-2 h 1 4 l 2,2 h 5 c 1.108,0 2,0.892 2,2 v -3 c 0,-1.108 -0.892,-2 -2,-2 z"
       id="rect4265"
       inkscape:connector-curvature="0" />
    <path
       style="display:inline;fill:#000000;fill-opacity:0.2;stroke:none;stroke-width:16;stroke-linecap:round;stroke-linejoin:round;stroke-miterlimit:4;stroke-dasharray:none;stroke-opacity:1;filter:url(#filter4573);enable-background:new"
       d="m 356,50 c -19.944,0 -36,16.056 -36,36 V 188.5918 359.37695 462 c 0,19.944 16.056,36 36,36 H 458.98242 629.36523 732 c 19.944,0 36,-16.056 36,-36 V 359.39648 188.6543 86 C 768,66.056 751.944,50 732,50 H 629.00586 458.625 Z"
       id="path4567"
       inkscape:connector-curvature="0" />
    <path
       inkscape:connector-curvature="0"
       id="path4563"
       d="m 356,50 c -19.944,0 -36,16.056 -36,36 V 188.5918 359.37695 462 c 0,19.944 16.056,36 36,36 H 458.98242 629.36523 732 c 19.944,0 36,-16.056 36,-36 V 359.39648 188.6543 86 C 768,66.056 751.944,50 732,50 H 629.00586 458.625 Z"
       style="display:inline;fill:#000000;fill-opacity:0.2;stroke:none;stroke-width:16;stroke-linecap:round;stroke-linejoin:round;stroke-miterlimit:4;stroke-dasharray:none;stroke-opacity:1;enable-background:new" />
    <path
       style="display:inline;fill:#333a42;fill-opacity:1;stroke:none;enable-background:new"
       d="m 356,48 c -19.944,0 -36,16.056 -36,36 v 32 c 0,-19.944 16.056,-36 36,-36 H 368 391.59375 432 h 32 48 l 64,64 h 140 4 12 c 19.944,0 36,16.056 36,36 V 84 C 768,64.056 751.944,48 732,48 Z"
       id="rect4229"
       inkscape:connector-curvature="0" />
    <path
       id="path4507"
       d="m 320,86 v -2 c 0,-19.944 16.056,-36 36,-36 h 376 c 19.944,0 36,16.056 36,36 v 2 C 768,66.056 751.944,50 732,50 H 356 c -19.944,0 -36,16.056 -36,36 z"
       style="display:inline;fill:#ffffff;fill-opacity:0.2;stroke:none;enable-background:new"
       inkscape:connector-curvature="0" />
    <path
       id="path4514"
       d="m 148,488 v -1 c 0,-1.662 1.338,-3 3,-3 h 34 c 1.662,0 3,1.338 3,3 v 1 c 0,-1.662 -1.338,-3 -3,-3 h -34 c -1.662,0 -3,1.338 -3,3 z"
       style="display:inline;fill:#ffffff;fill-opacity:0.2;stroke:none;enable-background:new"
       inkscape:connector-curvature="0" />
    <path
       id="path4521"
       d="m 98,502 v -1 c 0,-1.662 1.338,-3 3,-3 h 22 c 1.662,0 3,1.338 3,3 v 1 c 0,-1.662 -1.338,-3 -3,-3 h -22 c -1.662,0 -3,1.338 -3,3 z"
       style="display:inline;fill:#fafafa;fill-opacity:0.2;stroke:none;enable-background:new"
       inkscape:connector-curvature="0" />
    <path
       id="path4528"
       d="m 54,509 v -1 c 0,-1.108 0.892,-2 2,-2 h 16 c 1.108,0 2,0.892 2,2 v 1 c 0,-1.108 -0.892,-2 -2,-2 H 56 c -1.108,0 -2,0.892 -2,2 z"
       style="display:inline;fill:#ffffff;fill-opacity:0.2;stroke:none;enable-background:new"
       inkscape:connector-curvature="0" />
    <path
       style="display:inline;fill:#000000;fill-opacity:0.2;stroke:none;stroke-width:2;stroke-linecap:round;stroke-linejoin:round;stroke-miterlimit:4;stroke-dasharray:none;stroke-opacity:1;filter:url(#filter4559);enable-background:new"
       d="m 216.5,469 c -2.493,0 -4.5,2.007 -4.5,4.5 V 486.32398 507.67212 520.5 c 0,2.493 2.007,4.5 4.5,4.5 H 229.3728 250.67065 263.5 c 2.493,0 4.5,-2.007 4.5,-4.5 V 507.67456 486.33179 473.5 c 0,-2.493 -2.007,-4.5 -4.5,-4.5 h -12.87427 -21.29761 z"
       id="path4557"
       inkscape:connector-curvature="0" />
    <path
       style="display:inline;fill:#333a42;fill-opacity:1;stroke:none;stroke-width:0.125;enable-background:new"
       d="m 216.5,468 c -2.493,0 -4.5,2.007 -4.5,4.5 v 4 c 0,-2.493 2.007,-4.5 4.5,-4.5 h 1.5 2.94922 5.05078 4 6 l 8,8 h 17.5 0.5 1.5 c 2.493,0 4.5,2.007 4.5,4.5 v -12 c 0,-2.493 -2.007,-4.5 -4.5,-4.5 z"
       id="rect4526"
       inkscape:connector-curvature="0" />
    <path
       style="display:inline;fill:#ffffff;fill-opacity:0.2;stroke:none;stroke-width:0.125;enable-background:new"
       d="m 216.5,468 c -2.493,0 -4.5,2.007 -4.5,4.5 v 1 c 0,-2.493 2.007,-4.5 4.5,-4.5 h 47 c 2.493,0 4.5,2.007 4.5,4.5 v -1 c 0,-2.493 -2.007,-4.5 -4.5,-4.5 z"
       id="rect4537"
       inkscape:connector-curvature="0" />
    <path
       style="opacity:1;fill:#e8ebed;fill-opacity:1;stroke:none;stroke-opacity:0.2"
       d="m 112,502 2,2 h 9 c 1.662,0 3,1.338 3,3 v -2 c 0,-1.662 -1.338,-3 -3,-3 z"
       id="rect4565"
       inkscape:connector-curvature="0" />
    <path
       style="display:inline;fill:#1685a6;fill-opacity:1;stroke:none;enable-background:new"
       d="m 101,500 c -1.662,0 -3,1.338 -3,3 v 1 2 1 7 4 4 1 c 0,1.662 1.338,3 3,3 h 22 c 1.662,0 3,-1.338 3,-3 v -1 -4 -1 -4 -1 -2.60938 V 507 c 0,-1.662 -1.338,-3 -3,-3 h -9 l -4,-4 h -3 -2 z"
       id="rect4546"
       inkscape:connector-curvature="0" />
    <path
       style="display:inline;fill:#ffffff;fill-opacity:0.2;stroke:none;enable-background:new"
       d="m 101,500 c -1.662,0 -3,1.338 -3,3 v 1 c 0,-1.662 1.338,-3 3,-3 h 4 2 3 l 4,4 h 9 c 1.662,0 3,1.338 3,3 v -1 c 0,-1.662 -1.338,-3 -3,-3 h -9 l -4,-4 h -3 -2 z"
       id="path4594"
       inkscape:connector-curvature="0" />
    <path
       style="display:inline;fill:#e8ebed;fill-opacity:1;stroke:none;stroke-width:0.125;enable-background:new"
       d="m 240,476 4,4 h 17.5 0.5 1.5 c 2.493,0 4.5,2.007 4.5,4.5 v -4 c 0,-2.493 -2.007,-4.5 -4.5,-4.5 z"
       id="rect4963"
       inkscape:connector-curvature="0" />
    <path
       style="display:inline;fill:#1685a6;fill-opacity:1;stroke:none;stroke-width:2;enable-background:new"
       d="m 216.5,472 c -2.493,0 -4.5,2.007 -4.5,4.5 v 1.5 1.24414 0.75586 4 2 14 8 8 0.5 1.5 1.5 c 0,2.493 2.007,4.5 4.5,4.5 h 1.5 0.5 43 0.5 1.5 c 2.493,0 4.5,-2.007 4.5,-4.5 v -1.5 -1.5 -0.5 -8 -2 -8 -2 -5.21875 V 487.5 486 484.5 c 0,-2.493 -2.007,-4.5 -4.5,-4.5 H 262 261.5 244 l -8,-8 h -6 -4 -5.05078 H 218 Z"
       id="path4946"
       inkscape:connector-curvature="0" />
    <path
       style="display:inline;fill:#ffffff;fill-opacity:0.2;stroke:none;stroke-width:2;enable-background:new"
       d="m 216.5,472 c -2.493,0 -4.5,2.007 -4.5,4.5 v 1 c 0,-2.493 2.007,-4.5 4.5,-4.5 h 1.5 2.94922 5.05078 4 6 l 8,8 h 17.5 0.5 1.5 c 2.493,0 4.5,2.007 4.5,4.5 v -1 c 0,-2.493 -2.007,-4.5 -4.5,-4.5 H 262 261.5 244 l -8,-8 h -6 -4 -5.05078 H 218 Z"
       id="path4968"
       inkscape:connector-curvature="0" />
    <path
       style="opacity:1;fill:#e8ebed;fill-opacity:1;stroke:none;stroke-opacity:0.2"
       d="m 168,490 3,3 h 9 5 c 1.49041,0 2.71116,1.07927 2.94922,2.5 0.0274,-0.16357 0.0508,-0.32841 0.0508,-0.5 v -2 c 0,-1.662 -1.338,-3 -3,-3 z"
       id="rect5004"
       inkscape:connector-curvature="0" />
    <path
       style="display:inline;fill:#1685a6;fill-opacity:1;stroke:none;stroke-width:1.42857146;enable-background:new"
       d="m 151,487 c -1.662,0 -3,1.338 -3,3 v 4 1.42773 1.42969 10 5.71485 5.71289 1.42968 V 521 c 0,1.662 1.338,3 3,3 h 5 24 3.71484 H 185 c 1.662,0 3,-1.338 3,-3 V 519.71484 518.28516 517 512.57227 511.14258 505.42773 504 500.27148 496.85742 496 c 0,-1.662 -1.338,-3 -3,-3 h -5 -9 l -6,-6 h -9 z"
       id="path4985"
       inkscape:connector-curvature="0" />
    <path
       style="display:inline;fill:#ffffff;fill-opacity:0.2;stroke:none;stroke-width:1.42857146;enable-background:new"
       d="m 151,487 c -1.662,0 -3,1.338 -3,3 v 1 c 0,-1.662 1.338,-3 3,-3 h 5 9 l 6,6 h 9 5 c 1.662,0 3,1.338 3,3 V 496.85742 496 c 0,-1.662 -1.338,-3 -3,-3 h -5 -9 l -6,-6 h -9 z"
       id="path5011"
       inkscape:connector-curvature="0" />
    <path
       style="opacity:1;fill:#e8ebed;fill-opacity:1;stroke:none;stroke-opacity:0.2"
       d="m 64,510 2,2 h 4 2 c 1.108,0 2,0.892 2,2 v -2 c 0,-1.108 -0.892,-2 -2,-2 h -2 z"
       id="path5034"
       inkscape:connector-curvature="0" />
    <path
       style="opacity:1;fill:#1685a6;fill-opacity:1;stroke:none;stroke-opacity:0.2"
       d="m 56,508 c -1.108,0 -2,0.892 -2,2 v 3 8 3 c 0,1.108 0.892,2 2,2 h 2 13 1 c 1.108,0 2,-0.892 2,-2 v -3 -4 -2 -1 c 0,-1.108 -0.892,-2 -2,-2 h -2 -4 l -4,-4 h -4 z"
       id="rect5020"
       inkscape:connector-curvature="0" />
    <path
       style="opacity:1;fill:#ffffff;fill-opacity:0.2;stroke:none;stroke-opacity:0.2"
       d="m 56,508 c -1.108,0 -2,0.892 -2,2 v 1 c 0,-1.108 0.892,-2 2,-2 h 2 4 l 4,4 h 4 2 c 1.108,0 2,0.892 2,2 v -1 c 0,-1.108 -0.892,-2 -2,-2 h -2 -4 l -4,-4 h -4 z"
       id="path5062"
       inkscape:connector-curvature="0" />
    <rect
       style="opacity:1;fill:#e8ebed;fill-opacity:1;stroke:none;stroke-opacity:0.2"
       id="rect5067"
       width="10"
       height="5"
       x="22"
       y="514"
       rx="2"
       ry="2" />
    <path
       style="opacity:1;fill:#1685a6;fill-opacity:1;stroke:none;stroke-opacity:0.2"
       d="m 18,513 c -1.108,0 -2,0.892 -2,2 v 2 1 1 7 c 0,1.108 0.892,2 2,2 h 12 c 1.108,0 2,-0.892 2,-2 v -7 -1 -1 c 0,-1.108 -0.892,-2 -2,-2 h -5 l -2,-2 h -4 z"
       id="rect5069"
       inkscape:connector-curvature="0" />
    <path
       id="path5087"
       d="m 544,112 32,32 h 140 4 12 c 19.944,0 36,16.056 36,36 v -32 c 0,-19.944 -16.056,-36 -36,-36 z"
       style="display:inline;fill:#e8ebed;fill-opacity:1;stroke:none;stroke-width:1;enable-background:new"
       inkscape:connector-curvature="0" />
    <path
       id="path5089"
       d="m 356,80 c -19.944,0 -36,16.056 -36,36 v 12 9.95312 6.04688 32 16 112 64 64 4 12 12 c 0,19.944 16.056,36 36,36 h 12 4 344 4 12 c 19.944,0 36,-16.056 36,-36 V 448 436 432 368 352 288 272 230.25 204 192 180 c 0,-19.944 -16.056,-36 -36,-36 H 720 716 576 L 512,80 H 464 432 391.59376 368 Z"
       style="display:inline;fill:#1685a6;fill-opacity:1;stroke:none;stroke-width:16;enable-background:new"
       inkscape:connector-curvature="0" />
    <path
       style="display:inline;fill:#ffffff;fill-opacity:0.2;stroke:none;stroke-width:16;enable-background:new"
       d="m 356,80 c -19.944,0 -36,16.056 -36,36 v 2 c 0,-19.944 16.056,-36 36,-36 H 368 391.59375 432 h 32 48 l 64,64 h 140 4 12 c 19.944,0 36,16.056 36,36 v -2 c 0,-19.944 -16.056,-36 -36,-36 H 720 716 576 L 512,80 H 464 432 391.59375 368 Z"
       id="path5094"
       inkscape:connector-curvature="0" />
    <path
       style="opacity:1;fill:#f5f5f5;stroke-width:0.4478384;fill-opacity:1"
       d="M 22.962891 518.10742 L 24.226562 520.29492 L 25.488281 522.48242 L 26.744141 522.48242 L 28 522.48242 L 27.720703 522.00195 C 27.56731 521.73786 27.002069 520.76094 26.464844 519.83203 L 25.488281 518.14453 L 24.224609 518.125 L 22.962891 518.10742 z M 22.488281 518.52344 C 22.437644 518.57866 20 522.40939 20 522.43359 C 20 522.44985 20.253662 522.96242 20.564453 523.57422 C 20.875245 524.18601 21.155027 524.65965 21.185547 524.62695 C 21.216064 524.59439 21.771949 523.66008 22.421875 522.55078 L 23.605469 520.53516 L 23.054688 519.52148 C 22.75181 518.96383 22.496981 518.51444 22.488281 518.52344 z M 22.841797 523.14648 L 22.314453 523.91797 C 22.02511 524.34261 21.748679 524.7609 21.699219 524.8457 L 21.609375 525 L 24.160156 525 L 26.712891 525 L 27.320312 524.10352 C 27.653868 523.61072 27.925781 523.19473 27.925781 523.17773 C 27.925781 523.16073 26.781301 523.14648 25.382812 523.14648 L 22.841797 523.14648 z "
       id="path4563-3" />
    <path
       inkscape:connector-curvature="0"
       style="opacity:1;fill:#000000;fill-opacity:0.2;stroke-width:0.4478384"
       d="m 62.962891,517.10742 1.263671,2.1875 1.261719,2.1875 H 66.744141 68 l -0.279297,-0.48047 c -0.153393,-0.26409 -0.718634,-1.24101 -1.255859,-2.16992 l -0.976563,-1.6875 -1.263672,-0.0195 z m -0.47461,0.41602 C 62.437644,517.57866 60,521.40939 60,521.43359 c 0,0.0163 0.253662,0.52883 0.564453,1.14063 0.310792,0.61179 0.590574,1.08543 0.621094,1.05273 0.03052,-0.0326 0.586402,-0.96687 1.236328,-2.07617 l 1.183594,-2.01562 -0.550781,-1.01368 c -0.302878,-0.55765 -0.557707,-1.00704 -0.566407,-0.99804 z m 0.353516,4.62304 -0.527344,0.77149 c -0.289343,0.42464 -0.565774,0.84293 -0.615234,0.92773 L 61.609375,524 h 2.550781 2.552735 l 0.607421,-0.89648 c 0.333556,-0.4928 0.605469,-0.90879 0.605469,-0.92579 0,-0.017 -1.14448,-0.0312 -2.542969,-0.0312 z"
       id="path4600" />
    <path
       id="path4598"
       d="m 62.962891,516.10742 1.263671,2.1875 1.261719,2.1875 H 66.744141 68 l -0.279297,-0.48047 c -0.153393,-0.26409 -0.718634,-1.24101 -1.255859,-2.16992 l -0.976563,-1.6875 -1.263672,-0.0195 z m -0.47461,0.41602 C 62.437644,516.57866 60,520.40939 60,520.43359 c 0,0.0163 0.253662,0.52883 0.564453,1.14063 0.310792,0.61179 0.590574,1.08543 0.621094,1.05273 0.03052,-0.0326 0.586402,-0.96687 1.236328,-2.07617 l 1.183594,-2.01562 -0.550781,-1.01368 c -0.302878,-0.55765 -0.557707,-1.00704 -0.566407,-0.99804 z m 0.353516,4.62304 -0.527344,0.77149 c -0.289343,0.42464 -0.565774,0.84293 -0.615234,0.92773 L 61.609375,523 h 2.550781 2.552735 l 0.607421,-0.89648 c 0.333556,-0.4928 0.605469,-0.90879 0.605469,-0.92579 0,-0.017 -1.14448,-0.0312 -2.542969,-0.0312 z"
       style="opacity:1;fill:#f5f5f5;fill-opacity:1;stroke-width:0.4478384"
       inkscape:connector-curvature="0" />
    <path
       style="display:inline;fill:url(#linearGradient4347);fill-opacity:1;stroke:none;stroke-width:2;stroke-linecap:round;stroke-linejoin:round;stroke-miterlimit:4;stroke-dasharray:none;stroke-opacity:1;enable-background:new"
       d="m 56,506 c -1.108,0 -2,0.892 -2,2 v 3.46094 9.09375 V 524 c 0,1.108 0.892,2 2,2 H 59.460938 68.550781 72 c 1.108,0 2,-0.892 2,-2 V 520.53906 511.44531 508 c 0,-1.108 -0.892,-2 -2,-2 h -3.460938 -9.089843 z"
       id="path4345"
       inkscape:connector-curvature="0" />
    <path
       id="path4602"
       d="m 110.96289,513.10742 1.26367,2.1875 1.26172,2.1875 H 114.74414 116 l -0.2793,-0.48047 c -0.15339,-0.26409 -0.71863,-1.24101 -1.25586,-2.16992 l -0.97656,-1.6875 -1.26367,-0.0195 z m -0.47461,0.41602 c -0.0506,0.0552 -2.48828,3.88595 -2.48828,3.91015 0,0.0163 0.25366,0.52883 0.56445,1.14063 0.3108,0.61179 0.59058,1.08543 0.6211,1.05273 0.0305,-0.0326 0.5864,-0.96687 1.23633,-2.07617 l 1.18359,-2.01562 -0.55078,-1.01368 c -0.30288,-0.55765 -0.55771,-1.00704 -0.56641,-0.99804 z m 0.35352,4.62304 -0.52735,0.77149 c -0.28934,0.42464 -0.56577,0.84293 -0.61523,0.92773 L 109.60938,520 h 2.55078 2.55273 l 0.60742,-0.89648 c 0.33356,-0.4928 0.60547,-0.90879 0.60547,-0.92579 0,-0.017 -1.14448,-0.0312 -2.54297,-0.0312 z"
       style="opacity:1;fill:#000000;fill-opacity:0.2;stroke-width:0.4478384"
       inkscape:connector-curvature="0" />
    <path
       inkscape:connector-curvature="0"
       style="opacity:1;fill:#f5f5f5;fill-opacity:1;stroke-width:0.4478384"
       d="m 110.96289,512.10742 1.26367,2.1875 1.26172,2.1875 H 114.74414 116 l -0.2793,-0.48047 c -0.15339,-0.26409 -0.71863,-1.24101 -1.25586,-2.16992 l -0.97656,-1.6875 -1.26367,-0.0195 z m -0.47461,0.41602 c -0.0506,0.0552 -2.48828,3.88595 -2.48828,3.91015 0,0.0163 0.25366,0.52883 0.56445,1.14063 0.3108,0.61179 0.59058,1.08543 0.6211,1.05273 0.0305,-0.0326 0.5864,-0.96687 1.23633,-2.07617 l 1.18359,-2.01562 -0.55078,-1.01368 c -0.30288,-0.55765 -0.55771,-1.00704 -0.56641,-0.99804 z m 0.35352,4.62304 -0.52735,0.77149 c -0.28934,0.42464 -0.56577,0.84293 -0.61523,0.92773 L 109.60938,519 h 2.55078 2.55273 l 0.60742,-0.89648 c 0.33356,-0.4928 0.60547,-0.90879 0.60547,-0.92579 0,-0.017 -1.14448,-0.0312 -2.54297,-0.0312 z"
       id="path4604" />
    <path
       style="display:inline;fill:url(#linearGradient4435);fill-opacity:1;stroke:none;stroke-width:2;stroke-linecap:round;stroke-linejoin:round;stroke-miterlimit:4;stroke-dasharray:none;stroke-opacity:1;enable-background:new"
       d="m 101,498 c -1.662,0 -3,1.338 -3,3 v 5.66211 10.67578 V 523 c 0,1.662 1.338,3 3,3 h 5.6875 10.64844 H 123 c 1.662,0 3,-1.338 3,-3 V 517.33789 506.66602 501 c 0,-1.662 -1.338,-3 -3,-3 h -5.6875 -10.64844 z"
       id="path4433"
       inkscape:connector-curvature="0" />
    <g
       transform="matrix(0.78371718,0,0,0.78371718,149.06593,-300.55971)"
       id="g4624"
       style="display:inline;fill:#000000;fill-opacity:0.2;enable-background:new">
      <path
         inkscape:connector-curvature="0"
         id="path4618"
         d="m 16.489303,1038.7232 c -0.693981,-1.3661 -1.261785,-2.5136 -1.261785,-2.5499 0,-0.054 5.441083,-8.6041 5.554152,-8.7274 0.01935,-0.021 0.588526,0.9803 1.264835,2.2255 l 1.229653,2.2639 -2.638637,4.5037 c -1.451251,2.477 -2.694391,4.5631 -2.762536,4.6358 -0.06815,0.073 -0.6917,-0.9855 -1.385682,-2.3516 z"
         style="opacity:0.95;fill:#000000;fill-opacity:0.2" />
      <path
         inkscape:connector-curvature="0"
         id="path4620"
         d="m 24.663206,1031.4002 -2.821226,-4.8838 2.820719,0.04 2.82072,0.04 2.181081,3.7713 c 1.199595,2.0742 2.461324,4.2538 2.803842,4.8435 l 0.622763,1.0722 H 30.28777 27.484433 l -2.821227,-4.8837 z"
         style="opacity:0.95;fill:#000000;fill-opacity:0.2" />
      <path
         inkscape:connector-curvature="0"
         id="path4622"
         d="m 19.020723,1041.5598 c 0.110433,-0.1893 0.729402,-1.1199 1.375489,-2.0681 l 1.174703,-1.7238 h 5.677733 c 3.122752,0 5.677731,0.029 5.677731,0.067 0,0.038 -0.609389,0.9701 -1.354199,2.0705 l -1.354198,2.0007 h -5.699023 -5.699022 l 0.200786,-0.3441 z"
         style="opacity:0.95;fill:#000000;fill-opacity:0.2" />
    </g>
    <path
       style="opacity:1;fill:#f5f5f5;fill-opacity:1;stroke-width:0.78371716"
       d="M 166.18359 502.93945 L 168.39453 506.76562 L 170.60547 510.59375 L 172.80273 510.59375 L 175 510.59375 L 174.51172 509.75391 C 174.24328 509.29175 173.25459 507.58261 172.31445 505.95703 L 170.60547 503.00195 L 168.39453 502.9707 L 166.18359 502.93945 z M 165.35352 503.66797 C 165.26491 503.76461 161 510.46551 161 510.50781 C 161 510.53626 161.4444 511.43522 161.98828 512.50586 C 162.53217 513.57649 163.02082 514.40486 163.07422 514.34766 C 163.12763 514.29068 164.10286 512.65611 165.24023 510.71484 L 167.30859 507.18555 L 166.34375 505.41211 C 165.81372 504.43622 165.36872 503.65157 165.35352 503.66797 z M 165.9707 511.75586 L 165.05078 513.10742 C 164.54443 513.85054 164.05916 514.58016 163.97266 514.72852 L 163.97266 514.73047 L 163.81641 515 L 168.28125 515 L 172.74805 515 L 173.81055 513.43164 C 174.39427 512.56924 174.87109 511.83839 174.87109 511.80859 C 174.87109 511.77879 172.86924 511.75586 170.42188 511.75586 L 165.9707 511.75586 z "
       id="path4571" />
    <path
       style="opacity:1;fill:#fcfeff;fill-opacity:1;stroke-width:0.78371716"
       d="M 166.18359 502.93945 L 166.76562 503.94727 L 168.39453 503.9707 L 170.60547 504.00195 L 172.31445 506.95703 C 173.21503 508.51421 174.10602 510.05277 174.41992 510.59375 L 175 510.59375 L 174.51172 509.75391 C 174.24328 509.29175 173.25459 507.58261 172.31445 505.95703 L 170.60547 503.00195 L 168.39453 502.9707 L 166.18359 502.93945 z M 165.35352 503.66797 C 165.26491 503.76461 161 510.46551 161 510.50781 C 161 510.51583 161.21646 510.93973 161.2793 511.07031 C 161.75802 510.28363 165.27058 504.75842 165.35352 504.66797 C 165.36872 504.65157 165.81372 505.43622 166.34375 506.41211 L 167.02734 507.66602 L 167.30859 507.18555 L 166.34375 505.41211 C 165.81372 504.43622 165.36872 503.65157 165.35352 503.66797 z M 165.9707 511.75586 L 165.05078 513.10742 C 164.54443 513.85054 164.05916 514.58016 163.97266 514.72852 L 163.97266 514.73047 L 163.81641 515 L 164.45703 515 C 164.66001 514.69379 164.77196 514.51661 165.05078 514.10742 L 165.9707 512.75586 L 170.42188 512.75586 C 172.51255 512.75586 173.75243 512.77733 174.22266 512.80078 C 174.49455 512.38866 174.87109 511.82681 174.87109 511.80859 C 174.87109 511.77879 172.86924 511.75586 170.42188 511.75586 L 165.9707 511.75586 z "
       id="path4626" />
    <path
       style="display:inline;fill:url(#linearGradient4171-1-0);fill-opacity:1;stroke:none;stroke-width:2;stroke-linecap:round;stroke-linejoin:round;stroke-miterlimit:4;stroke-dasharray:none;stroke-opacity:1;enable-background:new"
       d="m 151,484 c -1.662,0 -3,1.338 -3,3 v 7.91992 18.19141 V 521 c 0,1.662 1.338,3 3,3 h 7.91992 18.17969 H 185 c 1.662,0 3,-1.338 3,-3 V 513.07812 494.89258 487 c 0,-1.662 -1.338,-3 -3,-3 h -7.91992 -18.17969 z"
       id="circle4163-3-4"
       inkscape:connector-curvature="0" />
    <path
       id="path5073"
       d="m 236.92383,496.21484 2.52734,4.375 2.52735,4.375 H 244.48828 247 l -0.55859,-0.96093 c -0.30679,-0.52818 -1.43532,-2.48007 -2.50977,-4.33789 l -1.95508,-3.37891 -2.52539,-0.0352 z m -0.94922,0.83399 c -0.10127,0.11043 -4.97461,7.768 -4.97461,7.8164 0,0.0325 0.50927,1.05963 1.13086,2.28321 0.62158,1.22359 1.17923,2.17282 1.24023,2.10742 0.061,-0.0651 1.17476,-1.93375 2.47461,-4.15234 l 2.36328,-4.03321 -1.10156,-2.02929 c -0.60575,-1.11529 -1.11551,-2.01099 -1.13281,-1.99219 z m 0.70703,9.24414 -1.05273,1.54492 c -0.57868,0.84928 -1.13157,1.68201 -1.23047,1.85156 v 0.002 L 234.2168,510 h 5.10547 5.10351 l 1.21289,-1.79102 c 0.66711,-0.9856 1.21289,-1.82146 1.21289,-1.85546 0,-0.034 -2.287,-0.0605 -5.08398,-0.0605 z"
       style="opacity:1;fill:#000000;fill-opacity:0.2;stroke-width:0.89567679"
       inkscape:connector-curvature="0" />
    <path
       style="opacity:1;fill:#f5f5f5;fill-opacity:1;stroke-width:0.89567679"
       d="M 236.92383 495.21484 L 239.45117 499.58984 L 241.97852 503.96484 L 244.48828 503.96484 L 247 503.96484 L 246.44141 503.00391 C 246.13462 502.47573 245.00609 500.52384 243.93164 498.66602 L 241.97656 495.28711 L 239.45117 495.25195 L 236.92383 495.21484 z M 235.97461 496.04883 C 235.87334 496.15926 231 503.81683 231 503.86523 C 231 503.89775 231.50927 504.92486 232.13086 506.14844 C 232.75244 507.37203 233.31009 508.32126 233.37109 508.25586 C 233.43212 508.19075 234.54585 506.32211 235.8457 504.10352 L 238.20898 500.07031 L 237.10742 498.04102 C 236.50167 496.92573 235.99191 496.03003 235.97461 496.04883 z M 236.68164 505.29297 L 235.62891 506.83789 C 235.05023 507.68717 234.49734 508.5199 234.39844 508.68945 L 234.39844 508.69141 L 234.2168 509 L 239.32227 509 L 244.42578 509 L 245.63867 507.20898 C 246.30578 506.22338 246.85156 505.38752 246.85156 505.35352 C 246.85156 505.31952 244.56456 505.29297 241.76758 505.29297 L 236.68164 505.29297 z "
       id="path1202" />
    <path
       style="opacity:1;fill:#ffffff;fill-opacity:1;stroke-width:0.89567679"
       d="M 236.92383 495.21484 L 237.50586 496.22266 L 239.45117 496.25195 L 241.97656 496.28711 L 243.93164 499.66602 C 244.99633 501.50695 246.09924 503.41594 246.41797 503.96484 L 247 503.96484 L 246.44141 503.00391 C 246.13462 502.47573 245.00609 500.52384 243.93164 498.66602 L 241.97656 495.28711 L 239.45117 495.25195 L 236.92383 495.21484 z M 235.97461 496.04883 C 235.87334 496.15926 231 503.81683 231 503.86523 C 231 503.87325 231.22336 504.31082 231.2793 504.42773 C 231.76616 503.62215 235.87901 497.15307 235.97461 497.04883 C 235.99191 497.03003 236.50167 497.92573 237.10742 499.04102 L 237.92773 500.55078 L 238.20898 500.07031 L 237.10742 498.04102 C 236.50167 496.92573 235.99191 496.03003 235.97461 496.04883 z M 236.68164 505.29297 L 235.62891 506.83789 C 235.05023 507.68717 234.49734 508.5199 234.39844 508.68945 L 234.39844 508.69141 L 234.2168 509 L 234.85742 509 C 235.09443 508.63988 235.26582 508.37076 235.62891 507.83789 L 236.68164 506.29297 L 241.76758 506.29297 C 243.96235 506.29297 245.50085 506.31248 246.20898 506.33594 C 246.45207 505.96503 246.85156 505.37152 246.85156 505.35352 C 246.85156 505.31952 244.56456 505.29297 241.76758 505.29297 L 236.68164 505.29297 z "
       id="path5075" />
    <path
       inkscape:connector-curvature="0"
       id="path4533"
       d="m 216.5,468 c -2.493,0 -4.5,2.007 -4.5,4.5 V 485.32398 506.67212 519.5 c 0,2.493 2.007,4.5 4.5,4.5 H 229.3728 250.67065 263.5 c 2.493,0 4.5,-2.007 4.5,-4.5 V 506.67456 485.33179 472.5 c 0,-2.493 -2.007,-4.5 -4.5,-4.5 h -12.87427 -21.29761 z"
       style="display:inline;fill:url(#linearGradient4535);fill-opacity:1;stroke:none;stroke-width:2;stroke-linecap:round;stroke-linejoin:round;stroke-miterlimit:4;stroke-dasharray:none;stroke-opacity:1;enable-background:new" />
    <path
       inkscape:connector-curvature="0"
       style="opacity:1;fill:#000000;fill-opacity:0.2;stroke-width:7.16541433"
       d="m 527.39064,265.71872 20.21872,35 20.2188,35 H 587.90624 608 l -4.46872,-7.68744 c -2.45432,-4.22544 -11.48256,-19.84056 -20.07816,-34.70312 l -15.64064,-27.03128 -20.20312,-0.2816 z m -7.59376,6.67192 C 518.98672,273.27408 480,334.53464 480,334.92184 c 0,0.26 4.07416,8.47704 9.04688,18.26568 4.97264,9.78872 9.43384,17.38256 9.92184,16.85936 0.488,-0.5208 9.39808,-15.47 19.79688,-33.21872 l 18.90624,-32.26568 -8.81248,-16.23432 c -4.846,-8.92232 -8.92408,-16.08792 -9.06248,-15.93752 z m 5.65624,73.95312 -8.42184,12.35936 c -4.62944,6.79424 -9.05256,13.45608 -9.84376,14.81248 v 0.016 L 505.7344,376 h 40.84376 40.82808 l 9.70312,-14.32816 c 5.33688,-7.8848 9.70312,-14.57168 9.70312,-14.84368 0,-0.272 -18.296,-0.484 -40.67184,-0.484 z"
       id="path5082" />
    <path
       id="path5084"
       d="m 527.39064,265.71872 20.21872,35 20.2188,35 H 587.90624 608 l -4.46872,-7.68744 c -2.45432,-4.22544 -11.48256,-19.84056 -20.07816,-34.70312 l -15.64064,-27.03128 -20.20312,-0.2816 z m -7.59376,6.67192 C 518.98672,273.27408 480,334.53464 480,334.92184 c 0,0.26 4.07416,8.47704 9.04688,18.26568 4.97264,9.78872 9.43384,17.38256 9.92184,16.85936 0.488,-0.5208 9.39808,-15.47 19.79688,-33.21872 l 18.90624,-32.26568 -8.81248,-16.23432 c -4.846,-8.92232 -8.92408,-16.08792 -9.06248,-15.93752 z m 5.65624,73.95312 -8.42184,12.35936 c -4.62944,6.79424 -9.05256,13.45608 -9.84376,14.81248 v 0.016 L 505.7344,376 h 40.84376 40.82808 l 9.70312,-14.32816 c 5.33688,-7.8848 9.70312,-14.57168 9.70312,-14.84368 0,-0.272 -18.296,-0.484 -40.67184,-0.484 z"
       style="opacity:1;fill:#000000;fill-opacity:0.2;stroke-width:7.16541433;filter:url(#filter5090)"
       inkscape:connector-curvature="0" />
    <path
       id="path5080"
       d="m 527.39064,263.71872 20.21872,35 20.2188,35 H 587.90624 608 l -4.46872,-7.68744 c -2.45432,-4.22544 -11.48256,-19.84056 -20.07816,-34.70312 l -15.64064,-27.03128 -20.20312,-0.2816 z m -7.59376,6.67192 C 518.98672,271.27408 480,332.53464 480,332.92184 c 0,0.26 4.07416,8.47704 9.04688,18.26568 4.97264,9.78872 9.43384,17.38256 9.92184,16.85936 0.488,-0.5208 9.39808,-15.47 19.79688,-33.21872 l 18.90624,-32.26568 -8.81248,-16.23432 c -4.846,-8.92232 -8.92408,-16.08792 -9.06248,-15.93752 z m 5.65624,73.95312 -8.42184,12.35936 c -4.62944,6.79424 -9.05256,13.45608 -9.84376,14.81248 v 0.016 L 505.7344,374 h 40.84376 40.82808 l 9.70312,-14.32816 c 5.33688,-7.8848 9.70312,-14.57168 9.70312,-14.84368 0,-0.272 -18.296,-0.484 -40.67184,-0.484 z"
       style="opacity:1;fill:#f5f5f5;fill-opacity:1;stroke-width:7.16541433"
       inkscape:connector-curvature="0" />
    <path
       style="opacity:1;fill:#ffffff;fill-opacity:1;stroke-width:7.16541433"
       d="M 527.39062 263.71875 L 528.55664 265.73633 L 547.60938 266.01562 L 567.8125 266.29688 L 583.45312 293.32812 C 592.04873 308.19069 601.07693 323.80581 603.53125 328.03125 L 606.83789 333.71875 L 608 333.71875 L 603.53125 326.03125 C 601.07693 321.80581 592.04873 306.19069 583.45312 291.32812 L 567.8125 264.29688 L 547.60938 264.01562 L 527.39062 263.71875 z M 519.79688 270.39062 C 518.98672 271.27407 480 332.53467 480 332.92188 C 480 332.96889 480.26987 333.54059 480.51758 334.07031 C 483.29721 329.35905 519.01795 273.24001 519.79688 272.39062 C 519.93527 272.24022 524.01337 279.4058 528.85938 288.32812 L 537.10742 303.52344 L 537.67188 302.5625 L 528.85938 286.32812 C 524.01337 277.4058 519.93527 270.24022 519.79688 270.39062 z M 525.45312 344.34375 L 517.03125 356.70312 C 512.40181 363.49737 507.9787 370.15922 507.1875 371.51562 L 507.1875 371.53125 L 505.73438 374 L 506.91211 374 L 507.1875 373.53125 L 507.1875 373.51562 C 507.9787 372.15922 512.40181 365.49737 517.03125 358.70312 L 525.45312 346.34375 L 566.14062 346.34375 C 585.37041 346.34375 601.50558 346.50012 605.68555 346.7168 C 606.35144 345.66443 606.8125 344.90793 606.8125 344.82812 C 606.8125 344.55613 588.51646 344.34375 566.14062 344.34375 L 525.45312 344.34375 z "
       id="path5095" />
    <path
       style="display:inline;fill:url(#linearGradient4449-0);fill-opacity:1;stroke:none;stroke-width:16;stroke-linecap:round;stroke-linejoin:round;stroke-miterlimit:4;stroke-dasharray:none;stroke-opacity:1;enable-background:new"
       d="m 356,48 c -19.944,0 -36,16.056 -36,36 V 186.5918 357.37695 460 c 0,19.944 16.056,36 36,36 H 458.98242 629.36523 732 c 19.944,0 36,-16.056 36,-36 V 357.39648 186.6543 84 C 768,64.056 751.944,48 732,48 H 629.00586 458.625 Z"
       id="path4447"
       inkscape:connector-curvature="0" />
  </g>
</svg>
