<?xml version="1.0" encoding="UTF-8" standalone="no"?>
<!-- Created with Inkscape (http://www.inkscape.org/) -->

<svg
   xmlns:dc="http://purl.org/dc/elements/1.1/"
   xmlns:cc="http://creativecommons.org/ns#"
   xmlns:rdf="http://www.w3.org/1999/02/22-rdf-syntax-ns#"
   xmlns:svg="http://www.w3.org/2000/svg"
   xmlns="http://www.w3.org/2000/svg"
   xmlns:xlink="http://www.w3.org/1999/xlink"
   xmlns:sodipodi="http://sodipodi.sourceforge.net/DTD/sodipodi-0.dtd"
   xmlns:inkscape="http://www.inkscape.org/namespaces/inkscape"
   width="816"
   height="544"
   viewBox="0 0 816 544"
   version="1.1"
   id="svg1087"
   inkscape:version="0.92.1 r"
   sodipodi:docname="folder-download.svg">
  <defs
     id="defs1081">
    <linearGradient
       id="linearGradient4540"
       inkscape:collect="always">
      <stop
         id="stop4536"
         offset="0"
         style="stop-color:#ffffff;stop-opacity:0.05490196" />
      <stop
         id="stop4538"
         offset="1"
         style="stop-color:#177ed5;stop-opacity:0;" />
    </linearGradient>
    <filter
       inkscape:collect="always"
       style="color-interpolation-filters:sRGB"
       id="filter5087"
       x="-0.048"
       width="1.096"
       y="-0.048"
       height="1.096">
      <feGaussianBlur
         inkscape:collect="always"
         stdDeviation="0.8"
         id="feGaussianBlur5089" />
    </filter>
    <linearGradient
       inkscape:collect="always"
       id="linearGradient4165">
      <stop
         style="stop-color:#ffffff;stop-opacity:0.05490196"
         offset="0"
         id="stop4167" />
      <stop
         style="stop-color:#177ed5;stop-opacity:0;"
         offset="1"
         id="stop4169" />
    </linearGradient>
    <linearGradient
       inkscape:collect="always"
       xlink:href="#linearGradient4540"
       id="linearGradient4435"
       gradientUnits="userSpaceOnUse"
       gradientTransform="matrix(0.65217041,0,0,0.65217328,96.3479,-158.67021)"
       x1="7"
       y1="1011.3622"
       x2="41.000019"
       y2="1045.3622" />
    <linearGradient
       inkscape:collect="always"
       xlink:href="#linearGradient4165"
       id="linearGradient4171-1-0"
       x1="7"
       y1="1011.3622"
       x2="41.000019"
       y2="1045.3622"
       gradientUnits="userSpaceOnUse"
       gradientTransform="matrix(0.95652174,0,0,0.95652174,145.04353,-479.65048)" />
    <linearGradient
       inkscape:collect="always"
       xlink:href="#linearGradient4165-3"
       id="linearGradient4449-0"
       gradientUnits="userSpaceOnUse"
       gradientTransform="matrix(10.43473,0,0,10.434772,293.56525,-10458.721)"
       x1="7"
       y1="1011.3622"
       x2="41.000019"
       y2="1045.3622" />
    <linearGradient
       inkscape:collect="always"
       id="linearGradient4165-3">
      <stop
         style="stop-color:#ffffff;stop-opacity:0.05490196"
         offset="0"
         id="stop4167-6" />
      <stop
         style="stop-color:#177ed5;stop-opacity:0;"
         offset="1"
         id="stop4169-7" />
    </linearGradient>
    <linearGradient
       inkscape:collect="always"
       xlink:href="#linearGradient4165-3"
       id="linearGradient4535"
       gradientUnits="userSpaceOnUse"
       gradientTransform="matrix(1.3043412,0,0,1.3043465,208.69566,-845.34012)"
       x1="7"
       y1="1011.3622"
       x2="41.000019"
       y2="1045.3622" />
    <filter
       inkscape:collect="always"
       style="color-interpolation-filters:sRGB"
       id="filter4553"
       x="-0.012"
       width="1.024"
       y="-0.012"
       height="1.024">
      <feGaussianBlur
         inkscape:collect="always"
         stdDeviation="0.2"
         id="feGaussianBlur4555" />
    </filter>
    <filter
       inkscape:collect="always"
       style="color-interpolation-filters:sRGB"
       id="filter4650"
       x="-0.012"
       width="1.024"
       y="-0.012"
       height="1.024">
      <feGaussianBlur
         inkscape:collect="always"
         stdDeviation="0.28"
         id="feGaussianBlur4652" />
    </filter>
    <filter
       inkscape:collect="always"
       style="color-interpolation-filters:sRGB"
       id="filter4683"
       x="-0.024"
       width="1.048"
       y="-0.024"
       height="1.048">
      <feGaussianBlur
         inkscape:collect="always"
         stdDeviation="4.48"
         id="feGaussianBlur4685" />
    </filter>
    <filter
       inkscape:collect="always"
       style="color-interpolation-filters:sRGB"
       id="filter5403"
       x="-0.028000001"
       width="1.056"
       y="-0.021"
       height="1.0420001">
      <feGaussianBlur
         inkscape:collect="always"
         stdDeviation="1.12"
         id="feGaussianBlur5405" />
    </filter>
    <filter
       inkscape:collect="always"
       style="color-interpolation-filters:sRGB"
       id="filter5385"
       x="-0.014"
       width="1.028"
       y="-0.0105"
       height="1.021">
      <feGaussianBlur
         inkscape:collect="always"
         stdDeviation="0.07"
         id="feGaussianBlur5387" />
    </filter>
    <filter
       inkscape:collect="always"
       style="color-interpolation-filters:sRGB"
       id="filter5368"
       x="-0.0138"
       width="1.0276"
       y="-0.010615385"
       height="1.0212308">
      <feGaussianBlur
         inkscape:collect="always"
         stdDeviation="0.0575"
         id="feGaussianBlur5370" />
    </filter>
    <linearGradient
       inkscape:collect="always"
       xlink:href="#linearGradient4540"
       id="linearGradient4347"
       gradientUnits="userSpaceOnUse"
       gradientTransform="matrix(0.47825838,0,0,0.47826068,52.5218,24.1749)"
       x1="7"
       y1="1011.3622"
       x2="41.000019"
       y2="1045.3622" />
  </defs>
  <sodipodi:namedview
     id="base"
     pagecolor="#c3c3c3"
     bordercolor="#333333"
     borderopacity="1"
     inkscape:pageopacity="0"
     inkscape:pageshadow="2"
     inkscape:zoom="11.313708"
     inkscape:cx="226.3548"
     inkscape:cy="-4.6670335"
     inkscape:document-units="px"
     inkscape:current-layer="layer1"
     showgrid="true"
     units="px"
     inkscape:showpageshadow="false"
     inkscape:window-width="1280"
     inkscape:window-height="1369"
     inkscape:window-x="0"
     inkscape:window-y="35"
     inkscape:window-maximized="0">
    <inkscape:grid
       type="xygrid"
       id="grid4630" />
  </sodipodi:namedview>
  <metadata
     id="metadata1084">
    <rdf:RDF>
      <cc:Work
         rdf:about="">
        <dc:format>image/svg+xml</dc:format>
        <dc:type
           rdf:resource="http://purl.org/dc/dcmitype/StillImage" />
        <dc:title />
        <cc:license
           rdf:resource="http://creativecommons.org/licenses/by-sa/4.0/" />
        <dc:creator>
          <cc:Agent>
            <dc:title>Peter Cornelis</dc:title>
          </cc:Agent>
        </dc:creator>
      </cc:Work>
      <cc:License
         rdf:about="http://creativecommons.org/licenses/by-sa/4.0/">
        <cc:permits
           rdf:resource="http://creativecommons.org/ns#Reproduction" />
        <cc:permits
           rdf:resource="http://creativecommons.org/ns#Distribution" />
        <cc:requires
           rdf:resource="http://creativecommons.org/ns#Notice" />
        <cc:requires
           rdf:resource="http://creativecommons.org/ns#Attribution" />
        <cc:permits
           rdf:resource="http://creativecommons.org/ns#DerivativeWorks" />
        <cc:requires
           rdf:resource="http://creativecommons.org/ns#ShareAlike" />
      </cc:License>
    </rdf:RDF>
  </metadata>
  <g
     inkscape:label="Baseplate"
     inkscape:groupmode="layer"
     id="layer1"
     transform="translate(0,-153.06668)"
     style="display:none">
    <rect
       style="display:inline;overflow:visible;visibility:visible;fill:#fefefe;fill-opacity:1;fill-rule:nonzero;stroke:none;stroke-width:2;marker:none;enable-background:accumulate"
       id="rect3951"
       width="512"
       height="512"
       x="-800"
       y="169.06668"
       inkscape:label="48x48"
       transform="scale(-1,1)" />
    <text
       y="733.32251"
       xml:space="preserve"
       x="15.006836"
       style="font-style:normal;font-variant:normal;font-weight:normal;font-stretch:normal;line-height:0%;font-family:'DejaVu Sans';-inkscape-font-specification:'DejaVu Sans';display:inline;fill:#000000;fill-opacity:1;stroke:none;enable-background:new"
       inkscape:label="context"
       id="context"><tspan
         style="font-style:normal;font-variant:normal;font-weight:normal;font-stretch:normal;font-size:18px;line-height:1.25;font-family:'DejaVu Sans';-inkscape-font-specification:'DejaVu Sans'"
         y="733.32251"
         x="15.006836"
         sodipodi:role="line"
         id="tspan3933">places</tspan></text>
    <text
       y="733.32251"
       xml:space="preserve"
       x="142.48828"
       style="font-style:normal;font-variant:normal;font-weight:bold;font-stretch:normal;line-height:0%;font-family:'DejaVu Sans';-inkscape-font-specification:'DejaVu Sans Bold';text-align:start;writing-mode:lr-tb;text-anchor:start;display:inline;fill:#000000;fill-opacity:1;stroke:none;enable-background:new"
       inkscape:label="icon-name"
       id="icon-name"><tspan
         style="font-style:normal;font-variant:normal;font-weight:bold;font-stretch:normal;font-size:18px;line-height:1.25;font-family:'DejaVu Sans';-inkscape-font-specification:'DejaVu Sans Bold'"
         y="733.32251"
         x="142.48828"
         sodipodi:role="line"
         id="tspan3937">folder-download</tspan></text>
    <rect
       style="display:inline;overflow:visible;visibility:visible;fill:#fefefe;fill-opacity:1;fill-rule:nonzero;stroke:none;stroke-width:2;marker:none;enable-background:accumulate"
       id="rect16x16"
       width="16"
       height="16"
       x="-32"
       y="665.06665"
       inkscape:label="16x16"
       transform="scale(-1,1)" />
    <rect
       style="display:inline;overflow:visible;visibility:visible;fill:#fefefe;fill-opacity:1;fill-rule:nonzero;stroke:none;stroke-width:2;marker:none;enable-background:accumulate"
       id="rect24x24"
       width="24"
       height="24"
       x="-76"
       y="657.06665"
       inkscape:label="24x24"
       transform="scale(-1,1)" />
    <rect
       style="display:inline;overflow:visible;visibility:visible;fill:#fefefe;fill-opacity:1;fill-rule:nonzero;stroke:none;stroke-width:2;marker:none;enable-background:accumulate"
       id="rect32x32"
       width="32"
       height="32"
       x="-128"
       y="649.06665"
       inkscape:label="32x32"
       transform="scale(-1,1)" />
    <rect
       inkscape:label="48x48"
       y="633.06665"
       x="-192"
       height="48"
       width="48"
       id="rect48x48"
       style="display:inline;overflow:visible;visibility:visible;fill:#fefefe;fill-opacity:1;fill-rule:nonzero;stroke:none;stroke-width:2;marker:none;enable-background:accumulate"
       transform="scale(-1,1)" />
    <rect
       transform="scale(-1,1)"
       inkscape:label="48x48"
       y="617.06665"
       x="-272"
       height="64"
       width="64"
       id="rect4524"
       style="display:inline;overflow:visible;visibility:visible;fill:#fefefe;fill-opacity:1;fill-rule:nonzero;stroke:none;stroke-width:0.25;marker:none;enable-background:accumulate" />
  </g>
  <g
     inkscape:groupmode="layer"
     id="layer2"
     inkscape:label="Bitmap"
     style="display:inline">
    <path
       style="display:inline;fill:#000000;fill-opacity:0.2;stroke:none;stroke-width:2;stroke-linecap:round;stroke-linejoin:round;stroke-miterlimit:4;stroke-dasharray:none;stroke-opacity:1;filter:url(#filter4553);enable-background:new"
       d="M 148,499.09961 V 514.11133 522 c 0,1.662 1.338,3 3,3 h 7.91992 18.17969 H 185 c 1.662,0 3,-1.338 3,-3 v -7.92188 -14.97851 z"
       id="path4551"
       inkscape:connector-curvature="0" />
    <path
       sodipodi:nodetypes="sscsscsscsscs"
       inkscape:connector-curvature="0"
       id="path5069"
       d="m 143,485 c -1.66505,0 -3,1.2912 -3,3 v 17 17 c 0,1.8617 1.34224,3 3,3 h 17 17 c 1.73784,0 3,-1.2767 3,-3 v -17 -17 c 0,-1.6942 -1.29127,-3 -3,-3 h -17 z"
       style="display:inline;fill:none;fill-opacity:0.5;stroke:none;stroke-width:2;stroke-linecap:round;stroke-linejoin:round;stroke-miterlimit:4;stroke-dasharray:none;stroke-opacity:1;filter:url(#filter5087);enable-background:new" />
    <path
       style="display:inline;fill:none;fill-opacity:0.5;stroke:none;stroke-width:2;stroke-linecap:round;stroke-linejoin:round;stroke-miterlimit:4;stroke-dasharray:none;stroke-opacity:1;filter:url(#filter5087);enable-background:new"
       d="m 143,485 c -1.66505,0 -3,1.2912 -3,3 v 17 17 c 0,1.8617 1.34224,3 3,3 h 17 17 c 1.73784,0 3,-1.2767 3,-3 v -17 -17 c 0,-1.6942 -1.29127,-3 -3,-3 h -17 z"
       id="path4506"
       inkscape:connector-curvature="0"
       sodipodi:nodetypes="sscsscsscsscs" />
    <path
       style="display:inline;fill:#000000;fill-opacity:0.2;stroke:none;stroke-width:2;stroke-linecap:round;stroke-linejoin:round;stroke-miterlimit:4;stroke-dasharray:none;stroke-opacity:1;enable-background:new"
       d="m 101,500 c -1.662,0 -3,1.338 -3,3 v 4.66211 10.67578 V 524 c 0,1.662 1.338,3 3,3 h 5.6875 10.64844 H 123 c 1.662,0 3,-1.338 3,-3 V 518.33789 507.66602 507 c 0,-1.662 -1.338,-3 -3,-3 h -9 l -4,-4 h -3 -2 z"
       id="path4547"
       inkscape:connector-curvature="0" />
    <path
       style="display:inline;fill:#000000;fill-opacity:0.2;stroke:none;stroke-width:16;stroke-linecap:round;stroke-linejoin:round;stroke-miterlimit:4;stroke-dasharray:none;stroke-opacity:1;filter:url(#filter4683);enable-background:new"
       d="m 356,50 c -7.479,0 -14.41047,2.258734 -20.1543,6.132812 -0.9573,0.64568 -1.88317,1.335862 -2.77148,2.06836 -1.77662,1.464996 -3.40805,3.096426 -4.87305,4.873047 -3.1e-4,3.8e-4 3.2e-4,0.0016 0,0.002 C 323.07427,69.294175 320,77.275054 320,86 v 12 9.95312 6.04688 4 12 9.95312 V 146 162 178 188.5918 194 274 306 338 359.37695 370 v 32 4 12 12 4 4 12 12 c 0,7.479 2.25873,14.41047 6.13281,20.1543 3.1e-4,4.5e-4 -3e-4,0.002 0,0.002 2.25973,3.35002 5.06878,6.29684 8.30078,8.71094 0.92355,0.68983 1.88152,1.3355 2.8711,1.93554 C 342.74734,496.10297 349.14425,498 356,498 H 458.98242 716 732 c 6.85575,0 13.25266,-1.89703 18.69531,-5.19727 0.98958,-0.60004 1.94755,-1.24571 2.8711,-1.93554 3.6942,-2.75933 6.83615,-6.21358 9.23632,-10.17188 C 766.10297,475.25266 768,468.85575 768,462 V 450 359.39648 354 322 290 274 258 242 232.25 206 200.25 194 188.6543 182 174 162 150 c 0,-19.944 -16.056,-36 -36,-36 H 720 716 576 L 512,50 h -48 -5.375 z"
       id="path4567"
       inkscape:connector-curvature="0" />
    <path
       style="display:inline;fill:#000000;fill-opacity:0.2;stroke:none;stroke-width:16;stroke-linecap:round;stroke-linejoin:round;stroke-miterlimit:4;stroke-dasharray:none;stroke-opacity:1;enable-background:new"
       d="m 356,50 c -7.479,0 -14.41047,2.258734 -20.1543,6.132812 -0.9573,0.64568 -1.88317,1.335862 -2.77148,2.06836 -1.77662,1.464996 -3.40805,3.096426 -4.87305,4.873047 -3.1e-4,3.8e-4 3.2e-4,0.0016 0,0.002 C 323.07427,69.294175 320,77.275054 320,86 v 12 9.95312 6.04688 4 12 9.95312 V 146 162 178 188.5918 194 274 306 338 359.37695 370 v 32 4 12 12 4 4 12 12 c 0,7.479 2.25873,14.41047 6.13281,20.1543 3.1e-4,4.5e-4 -3e-4,0.002 0,0.002 2.25973,3.35002 5.06878,6.29684 8.30078,8.71094 0.92355,0.68983 1.88152,1.3355 2.8711,1.93554 C 342.74734,496.10297 349.14425,498 356,498 H 458.98242 716 732 c 6.85575,0 13.25266,-1.89703 18.69531,-5.19727 0.98958,-0.60004 1.94755,-1.24571 2.8711,-1.93554 3.6942,-2.75933 6.83615,-6.21358 9.23632,-10.17188 C 766.10297,475.25266 768,468.85575 768,462 V 450 359.39648 354 322 290 274 258 242 232.25 206 200.25 194 188.6543 182 174 162 150 c 0,-19.944 -16.056,-36 -36,-36 H 720 716 576 L 512,50 h -48 -5.375 z"
       id="path4563"
       inkscape:connector-curvature="0" />
    <path
       id="path4507"
       d="m 320,86 v -2 c 0,-19.944 16.056,-36 36,-36 h 376 c 19.944,0 36,16.056 36,36 v 2 C 768,66.056 751.944,50 732,50 H 356 c -19.944,0 -36,16.056 -36,36 z"
       style="display:inline;fill:#ffffff;fill-opacity:0.2;stroke:none;enable-background:new"
       inkscape:connector-curvature="0" />
    <path
       style="opacity:1;fill:#e8ebed;fill-opacity:1;stroke:none;stroke-opacity:0.2"
       d="m 112,502 2,2 h 9 c 1.662,0 3,1.338 3,3 v -2 c 0,-1.662 -1.338,-3 -3,-3 z"
       id="rect4565"
       inkscape:connector-curvature="0" />
    <path
       style="display:inline;fill:#404752;fill-opacity:1;stroke:none;enable-background:new"
       d="m 101,498 c -1.662,0 -3,1.338 -3,3 v 1 1 1 1 1 1 5 2 2 2 2 1 1 1 c 0,1.662 1.338,3 3,3 h 22 c 1.662,0 3,-1.338 3,-3 v -1 -1 -3 -1 -2 -2 -1 -1 -1 -0.60938 -2 V 507 505 c 0,-1.662 -1.338,-3 -3,-3 h -9 l -4,-4 h -3 -2 z"
       id="rect4546"
       inkscape:connector-curvature="0" />
    <path
       style="display:inline;fill:#ffffff;fill-opacity:0.2;stroke:none;enable-background:new"
       d="m 101,498 c -1.662,0 -3,1.338 -3,3 v 1 c 0,-1.662 1.338,-3 3,-3 h 4 2 3 l 4,4 h 9 c 1.662,0 3,1.338 3,3 v -1 c 0,-1.662 -1.338,-3 -3,-3 h -9 l -4,-4 h -3 -2 z"
       id="path4594"
       inkscape:connector-curvature="0" />
    <path
       style="display:inline;fill:#e8ebed;fill-opacity:1;stroke:none;stroke-width:0.125;enable-background:new"
       d="m 240,476 4,4 h 17.5 0.5 1.5 c 2.493,0 4.5,2.007 4.5,4.5 v -4 c 0,-2.493 -2.007,-4.5 -4.5,-4.5 z"
       id="rect4963"
       inkscape:connector-curvature="0" />
    <path
       id="path4648"
       d="m 216.5,469 c -2.493,0 -4.5,2.007 -4.5,4.5 v 1.5 1.24414 0.75586 0.5 1.5 1.24414 0.75586 2 2 2 10 4 4 4 4 0.5 1.5 1.5 0.5 0.5 1.5 1.5 c 0,2.493 2.007,4.5 4.5,4.5 h 1.5 0.5 43 0.5 1.5 c 2.493,0 4.5,-2.007 4.5,-4.5 v -1.5 -1.5 -0.5 -0.5 -7.5 -2 -4 -4 -2 -2 -2 -1.21875 V 488.5 487.78125 487 v -1.5 -1 -1.5 -1.5 c 0,-2.493 -2.007,-4.5 -4.5,-4.5 H 262 261.5 244 l -8,-8 h -6 -4 -5.05078 H 218 Z"
       style="display:inline;fill:#000000;fill-opacity:0.2;stroke:none;stroke-width:2;filter:url(#filter4650);enable-background:new"
       inkscape:connector-curvature="0" />
    <path
       style="display:inline;fill:#404752;fill-opacity:1;stroke:none;stroke-width:2;enable-background:new"
       d="m 216.5,468 c -2.493,0 -4.5,2.007 -4.5,4.5 v 1.5 1.24414 0.75586 0.5 1.5 1.24414 0.75586 2 2 2 10 4 4 4 4 0.5 1.5 1.5 0.5 0.5 1.5 1.5 c 0,2.493 2.007,4.5 4.5,4.5 h 1.5 0.5 43 0.5 1.5 c 2.493,0 4.5,-2.007 4.5,-4.5 v -1.5 -1.5 -0.5 -0.5 -7.5 -2 -4 -4 -2 -2 -2 -1.21875 V 487.5 486.78125 486 v -1.5 -1 -1.5 -1.5 c 0,-2.493 -2.007,-4.5 -4.5,-4.5 H 262 261.5 244 l -8,-8 h -6 -4 -5.05078 H 218 Z"
       id="path4946"
       inkscape:connector-curvature="0" />
    <path
       style="display:inline;fill:#ffffff;fill-opacity:0.2;stroke:none;stroke-width:2;enable-background:new"
       d="m 216.5,468 c -2.493,0 -4.5,2.007 -4.5,4.5 v 1 c 0,-2.493 2.007,-4.5 4.5,-4.5 h 1.5 2.94922 5.05078 4 6 l 8,8 h 17.5 0.5 1.5 c 2.493,0 4.5,2.007 4.5,4.5 v -1 c 0,-2.493 -2.007,-4.5 -4.5,-4.5 H 262 261.5 244 l -8,-8 h -6 -4 -5.05078 H 218 Z"
       id="path4968"
       inkscape:connector-curvature="0" />
    <path
       style="display:inline;fill:#404752;fill-opacity:1;stroke:none;stroke-width:1.42857146;enable-background:new"
       d="m 151,484 c -1.662,0 -3,1.338 -3,3 v 3 1 1.42773 1.42969 0.14258 1.42773 1.42969 7 3 2.71485 3 2.71289 1.42968 V 518 518.28516 519.71484 521 c 0,1.662 1.338,3 3,3 h 5 24 3.71484 H 185 c 1.662,0 3,-1.338 3,-3 V 519.71484 518.28516 518 v -1 -3 -1.42773 -1.42969 -3 -2.71485 V 504 502.42773 501 v -0.72852 -3 -0.41406 V 496 493.85742 493 c 0,-1.662 -1.338,-3 -3,-3 h -5 -9 l -6,-6 h -9 z"
       id="path4985"
       inkscape:connector-curvature="0" />
    <path
       style="display:inline;fill:#ffffff;fill-opacity:0.2;stroke:none;stroke-width:1.42857146;enable-background:new"
       d="m 151,484 c -1.662,0 -3,1.338 -3,3 v 1 c 0,-1.662 1.338,-3 3,-3 h 5 9 l 6,6 h 9 5 c 1.662,0 3,1.338 3,3 V 493.85742 493 c 0,-1.662 -1.338,-3 -3,-3 h -5 -9 l -6,-6 h -9 z"
       id="path5011"
       inkscape:connector-curvature="0" />
    <path
       style="opacity:1;fill:#404752;fill-opacity:1;stroke:none;stroke-opacity:0.2"
       d="m 18,512 c -1.108,0 -2,0.892 -2,2 v 1 1 1 1 1 6 1 c 0,1.108 0.892,2 2,2 h 12 c 1.108,0 2,-0.892 2,-2 v -1 -6 -1 -1 -1 c 0,-1.108 -0.892,-2 -2,-2 h -5 l -2,-2 h -4 z"
       id="rect5069"
       inkscape:connector-curvature="0" />
    <rect
       style="opacity:1;fill:#e8ebed;fill-opacity:1;stroke:none;stroke-opacity:0.2"
       id="rect5067"
       width="10"
       height="5"
       x="18"
       y="515"
       rx="0"
       ry="0" />
    <path
       id="path5087"
       d="m 544,112 32,32 h 140 4 12 c 19.944,0 36,16.056 36,36 v -32 c 0,-19.944 -16.056,-36 -36,-36 z"
       style="display:inline;fill:#e8ebed;fill-opacity:1;stroke:none;stroke-width:1;enable-background:new"
       inkscape:connector-curvature="0" />
    <rect
       style="opacity:1;fill:#f5f5f5;fill-opacity:1;stroke:none;stroke-opacity:1"
       id="rect4575"
       width="30"
       height="7"
       x="153"
       y="493"
       rx="1"
       ry="1" />
    <path
       style="opacity:1;fill:#1685a6;fill-opacity:1;stroke:none;stroke-opacity:1"
       d="m 171,490 -6,6 h -14 c -1.662,0 -3,1.338 -3,3 v 22 c 0,1.662 1.338,3 3,3 h 22 6 6 c 1.662,0 3,-1.338 3,-3 v -28 c 0,-1.662 -1.338,-3 -3,-3 h -12 z"
       id="rect4563"
       inkscape:connector-curvature="0" />
    <path
       inkscape:connector-curvature="0"
       id="path4570"
       d="m 185,490 c 1.662,0 3,1.338 3,3 v 1 c 0,-1.662 -1.338,-3 -3,-3 h -5 -9 l -6,6 h -9 -5 c -1.662,0 -3,1.338 -3,3 V 499.85742 499 c 0,-1.662 1.338,-3 3,-3 h 5 9 l 6,-6 h 9 z"
       style="display:inline;fill:#ffffff;fill-opacity:0.2;stroke:none;stroke-width:1.42857146;enable-background:new" />
    <path
       style="display:inline;fill:url(#linearGradient4171-1-0);fill-opacity:1;stroke:none;stroke-width:2;stroke-linecap:round;stroke-linejoin:round;stroke-miterlimit:4;stroke-dasharray:none;stroke-opacity:1;enable-background:new"
       d="m 151,484 c -1.662,0 -3,1.338 -3,3 v 3 1 1.42773 1.42969 0.14258 0.91992 0.50781 1.42969 7 3 2.71485 3 0.53906 2.17383 1.42968 V 518 518.28516 519.71484 521 c 0,1.662 1.338,3 3,3 h 5 2.91992 H 180 h 5 c 1.662,0 3,-1.338 3,-3 V 519.71484 518.28516 518 v -1 -3 -0.92188 -0.50585 -1.42969 -3 -2.71485 V 504 502.42773 501 v -0.72852 -3 -0.41406 V 496 494.89258 493.85742 493 c 0,-1.662 -1.338,-3 -3,-3 h -5 -9 l -6,-6 H 158.90039 156 Z"
       id="circle4163-3-4"
       inkscape:connector-curvature="0" />
    <rect
       style="opacity:1;fill:#f5f5f5;fill-opacity:1;stroke:none;stroke-opacity:1"
       id="rect4603"
       width="13"
       height="6"
       x="101"
       y="504"
       rx="1"
       ry="1" />
    <path
       style="fill:#1685a6;fill-opacity:1;stroke:none;stroke-width:1px;stroke-linecap:butt;stroke-linejoin:miter;stroke-opacity:1"
       d="m 114,502 -4,4 h -9 c -1.662,0 -3,1.338 -3,3 v 14 c 0,1.662 1.338,3 3,3 h 16 6 c 1.662,0 3,-1.338 3,-3 v -18 c 0,-1.662 -1.338,-3 -3,-3 h -6 z"
       id="path4588"
       inkscape:connector-curvature="0" />
    <path
       inkscape:connector-curvature="0"
       id="path4601"
       d="m 123,502 c 1.662,0 3,1.338 3,3 v 1 c 0,-1.662 -1.338,-3 -3,-3 h -4 -2 -3 l -4,4 h -9 c -1.662,0 -3,1.338 -3,3 v -1 c 0,-1.662 1.338,-3 3,-3 h 9 l 4,-4 h 3 2 z"
       style="display:inline;fill:#ffffff;fill-opacity:0.2;stroke:none;enable-background:new" />
    <path
       style="display:inline;fill:url(#linearGradient4435);fill-opacity:1;stroke:none;stroke-width:2;stroke-linecap:round;stroke-linejoin:round;stroke-miterlimit:4;stroke-dasharray:none;stroke-opacity:1;enable-background:new"
       d="m 101,498 c -1.662,0 -3,1.338 -3,3 v 1 1 1 1 1 0.66211 0.33789 5 2 2 1.33789 0.66211 2 1 1 1 c 0,1.662 1.338,3 3,3 h 22 c 1.662,0 3,-1.338 3,-3 v -1 -1 -3 -1 -2 -2 -1 -1 -1 -0.60938 -2 V 507 506.66602 505 c 0,-1.662 -1.338,-3 -3,-3 h -9 l -4,-4 H 107 106.66406 105 Z"
       id="path4433"
       inkscape:connector-curvature="0" />
    <path
       style="opacity:1;fill:#1685a6;fill-opacity:1;stroke:none;stroke-opacity:0.2"
       d="m 25,514 -2,2 h -5 c -1.108,0 -2,0.892 -2,2 v 1 1 1 4 1 c 0,1.108 0.892,2 2,2 h 12 c 1.108,0 2,-0.892 2,-2 v -5 -2 -1 -1 -1 c 0,-0.1385 -0.01446,-0.27387 -0.04102,-0.4043 C 31.773102,514.6827 30.9695,514 30,514 h -1 z"
       id="path4611"
       inkscape:connector-curvature="0" />
    <rect
       ry="1"
       rx="1"
       y="480"
       x="218"
       height="7"
       width="30"
       id="rect4654"
       style="opacity:1;fill:#f5f5f5;fill-opacity:1;stroke:none;stroke-opacity:1" />
    <path
       style="display:inline;fill:#1685a6;fill-opacity:1;stroke:none;stroke-width:2;enable-background:new"
       d="m 244,476 -8,8 h -17.5 -0.5 -1.5 c -2.493,0 -4.5,2.007 -4.5,4.5 v 1.5 1.5 1 1.5 0.78125 0.71875 0.5 2.78125 1.21875 2 2 2 2 2 2 0.5 1.5 1.5 0.5 0.5 1.5 1.5 c 0,2.493 2.007,4.5 4.5,4.5 h 1.5 0.5 43 0.5 1.5 c 2.493,0 4.5,-2.007 4.5,-4.5 v -3.5 -0.5 -3.5 -4 -2 -4 -4 -2 -2 -2 -1.21875 V 488 487.5 487.24414 486.78125 486 484.5 484 483.5 483.24414 482 480.5 c 0,-2.493 -2.007,-4.5 -4.5,-4.5 H 262 261.5 250 Z"
       id="path4641"
       inkscape:connector-curvature="0" />
    <path
       inkscape:connector-curvature="0"
       id="path4646"
       d="m 263.5,476 c 2.493,0 4.5,2.007 4.5,4.5 v 1 c 0,-2.493 -2.007,-4.5 -4.5,-4.5 H 262 259.05078 254 h -4 -6 l -8,8 h -17.5 -0.5 -1.5 c -2.493,0 -4.5,2.007 -4.5,4.5 v -1 c 0,-2.493 2.007,-4.5 4.5,-4.5 h 1.5 0.5 17.5 l 8,-8 h 6 4 5.05078 H 262 Z"
       style="display:inline;fill:#ffffff;fill-opacity:0.2;stroke:none;stroke-width:2;enable-background:new" />
    <path
       style="display:inline;fill:url(#linearGradient4535);fill-opacity:1;stroke:none;stroke-width:2;stroke-linecap:round;stroke-linejoin:round;stroke-miterlimit:4;stroke-dasharray:none;stroke-opacity:1;enable-background:new"
       d="m 216.5,468 c -2.493,0 -4.5,2.007 -4.5,4.5 v 1.5 1.24414 0.75586 0.5 1.5 1.24414 0.75586 2 2 1.32422 0.67578 10 4 4 2.67188 1.32812 4 0.5 1.5 1.5 0.5 0.5 1.5 1.5 c 0,2.493 2.007,4.5 4.5,4.5 h 1.5 11.37305 32.12695 2 c 2.493,0 4.5,-2.007 4.5,-4.5 V 518 516.5 516 515.5 508 506.67383 506 v -4 -4 -2 -2 -2 -1.21875 V 487.5 486.78125 486 485.33203 484.5 v -1 -1.5 -1.5 c 0,-2.493 -2.007,-4.5 -4.5,-4.5 H 262 261.5 244 l -8,-8 H 230 229.32812 218 Z"
       id="path4533"
       inkscape:connector-curvature="0" />
    <path
       id="path4661"
       d="m 356,48.000207 c -19.944,0 -36,16.056 -36,36 v 12 9.953123 6.04688 4 12 9.95312 6.04688 16 16 16 80 32 32 32 32 4 12 12 4 4 12 12 c 0,19.944 16.056,36 36,36 h 12 4 344 4 12 c 19.944,0 36,-16.056 36,-36 v -12 -12 -4 -4 -60 -16 -32 -32 -16 -16 -16 -9.75 -26.25 -5.75 -6.25 -12 -8 -12 -12 c 0,-19.944 -16.056,-36 -36,-36 H 720 716 576 L 512,48.000207 H 464 432 391.59376 368 Z"
       style="display:inline;fill:#404752;fill-opacity:1;stroke:none;stroke-width:16;enable-background:new"
       inkscape:connector-curvature="0" />
    <rect
       style="opacity:1;fill:#f5f5f5;fill-opacity:1;stroke:none;stroke-width:8;stroke-opacity:1"
       id="rect4663"
       width="240"
       height="56"
       x="368"
       y="144.00021"
       rx="8"
       ry="8" />
    <path
       style="display:inline;fill:#ffffff;fill-opacity:0.2;stroke:none;stroke-width:16;enable-background:new"
       d="m 356,48 c -19.944,0 -36,16.056 -36,36 v 2 c 0,-19.944 16.056,-36 36,-36 H 368 391.59375 432 h 32 48 l 64,64 h 140 4 12 c 19.944,0 36,16.056 36,36 v -2 c 0,-19.944 -16.056,-36 -36,-36 H 720 716 576 L 512,48 H 464 432 391.59375 368 Z"
       id="path5094"
       inkscape:connector-curvature="0" />
    <path
       id="path4665"
       d="m 576,112.00021 -64,64 h -140 -4 -12 c -19.944,0 -36,16.056 -36,36 v 12 12 8 12 6.25 5.75 4 22.25 9.75 16 16 16 16 16 16 4 12 12 4 4 12 12 c 0,19.944 16.056,36 36,36 h 12 4 344 4 12 c 19.944,0 36,-16.056 36,-36 v -28 -4 -28 -32 -16 -32 -32 -16 -16 -16 -9.75 -22.25 -4 -2.04688 -3.70312 -6.25 -12 -4 -4 -2.04688 -9.95312 -12 c 0,-19.944 -16.056,-36 -36,-36 h -12 -4 -92 z"
       style="display:inline;fill:#1685a6;fill-opacity:1;stroke:none;stroke-width:16;enable-background:new"
       inkscape:connector-curvature="0" />
    <path
       inkscape:connector-curvature="0"
       id="path4667"
       d="m 732,112 c 19.944,0 36,16.056 36,36 v 2 c 0,-19.944 -16.056,-36 -36,-36 H 720 696.40625 656 624 576 l -64,64 h -140 -4 -12 c -19.944,0 -36,16.056 -36,36 v -2 c 0,-19.944 16.056,-36 36,-36 h 12 4 140 l 64,-64 h 48 32 40.40625 H 720 Z"
       style="display:inline;fill:#ffffff;fill-opacity:0.2;stroke:none;stroke-width:16;enable-background:new" />
    <path
       style="display:inline;fill:url(#linearGradient4449-0);fill-opacity:1;stroke:none;stroke-width:16;stroke-linecap:round;stroke-linejoin:round;stroke-miterlimit:4;stroke-dasharray:none;stroke-opacity:1;enable-background:new"
       d="m 356,48 c -7.479,0 -14.41047,2.258734 -20.1543,6.132812 -0.9573,0.64568 -1.88317,1.335862 -2.77148,2.06836 -1.33247,1.098747 -2.58362,2.290981 -3.74414,3.568359 -0.38684,0.425793 -0.76266,0.860532 -1.12891,1.304688 C 323.07312,67.292557 320,75.273967 320,84 v 12 9.95312 6.04688 4 12 9.95312 V 144 160 176 186.5918 192 272 304 336 357.37695 368 v 32 4 12 12 4 4 12 12 c 0,6.85575 1.89703,13.25266 5.19727,18.69531 0.30002,0.49479 0.6127,0.98033 0.93554,1.45899 2.26004,3.35113 5.06792,6.29815 8.30078,8.71289 0.92355,0.68983 1.88152,1.3355 2.8711,1.93554 C 342.74734,494.10297 349.14425,496 356,496 H 368 458.98242 716 732 c 6.85575,0 13.25266,-1.89703 18.69531,-5.19727 0.98958,-0.60004 1.94755,-1.24571 2.8711,-1.93554 3.6942,-2.75933 6.83615,-6.21358 9.23632,-10.17188 C 766.10297,473.25266 768,466.85575 768,460 V 448 436 432 428 368 357.39648 352 320 288 272 256 240 230.25 204 198.25 192 186.6543 180 172 160 148 c 0,-19.944 -16.056,-36 -36,-36 H 720 716 576 L 512,48 H 464 458.625 368 Z"
       id="path4447"
       inkscape:connector-curvature="0" />
    <path
       style="display:inline;fill:#f5f5f5;fill-opacity:1;stroke:none;enable-background:new"
       sodipodi:nodetypes="ccccccccccccc"
       id="path4461"
       d="m 25,518 v 3 h 1.25 L 24,524.5 21.75,521 H 23 v -3 z m -4,7 h 6 v 1 h -6 z"
       inkscape:connector-curvature="0" />
    <path
       style="display:inline;fill:#000000;fill-opacity:0.2;stroke:none;stroke-width:2;stroke-linecap:round;stroke-linejoin:round;stroke-miterlimit:4;stroke-dasharray:none;stroke-opacity:1;enable-background:new"
       d="M 54,518 V 521.55469 525 c 0,1.108 0.892,2 2,2 H 59.460938 68.550781 72 c 1.108,0 2,-0.892 2,-2 V 521.53906 518 Z"
       id="path4543"
       inkscape:connector-curvature="0" />
    <path
       inkscape:connector-curvature="0"
       style="display:inline;opacity:1;fill:#404752;fill-opacity:1;stroke:none;stroke-opacity:0.2"
       d="m 56,506 c -1.108,0 -2,0.892 -2,2 v 2 1 2 6 2 1 2 c 0,1.108 0.892,2 2,2 h 2 13 1 c 1.108,0 2,-0.892 2,-2 v -2 -1 -4 -1 -1 -1 -1 -1 -1 c 0,-1.108 -0.892,-2 -2,-2 h -7 l -3,-3 h -4 z"
       id="rect5020" />
    <path
       inkscape:connector-curvature="0"
       style="display:inline;opacity:1;fill:#ffffff;fill-opacity:0.2;stroke:none;stroke-opacity:0.2"
       d="m 56,506 c -1.108,0 -2,0.892 -2,2 v 1 c 0,-1.108 0.892,-2 2,-2 h 2 4 l 3,3 h 7 c 1.108,0 2,0.892 2,2 v -1 c 0,-1.108 -0.892,-2 -2,-2 h -7 l -3,-3 h -4 z"
       id="path4575-3" />
    <rect
       ry="1"
       rx="1"
       y="511"
       x="56"
       height="6"
       width="13"
       id="rect4595"
       style="display:inline;opacity:1;fill:#f5f5f5;fill-opacity:1;stroke:none;stroke-opacity:1" />
    <path
       inkscape:connector-curvature="0"
       style="display:inline;opacity:1;fill:#1685a6;fill-opacity:1;stroke:none;stroke-opacity:0.2"
       d="m 65,509 -3,3 h -6 c -1.108,0 -2,0.892 -2,2 v 1 1 1 1 1 1 1 1 2 c 0,1.108 0.892,2 2,2 h 2 13 1 c 1.108,0 2,-0.892 2,-2 v -2 -5 -1 -1 -1 -1 -1 -1 c 0,-1.108 -0.892,-2 -2,-2 h -5 -1 z"
       id="path4580" />
    <path
       inkscape:connector-curvature="0"
       style="display:inline;opacity:1;fill:#ffffff;fill-opacity:0.2;stroke:none;stroke-opacity:0.2"
       d="m 65,509 -3,3 h -6 c -1.108,0 -2,0.892 -2,2 v 1 c 0,-1.108 0.892,-2 2,-2 h 6 l 3,-3 h 1 1 5 c 1.108,0 2,0.892 2,2 v -1 c 0,-1.108 -0.892,-2 -2,-2 h -5 -1 z"
       id="path4590-6" />
    <path
       style="display:inline;fill:url(#linearGradient4347);fill-opacity:1;stroke:none;stroke-width:2;stroke-linecap:round;stroke-linejoin:round;stroke-miterlimit:4;stroke-dasharray:none;stroke-opacity:1;enable-background:new"
       d="m 56,506 c -1.108,0 -2,0.892 -2,2 v 2 1 0.46094 1.53906 6 1.55469 0.44531 1 2 c 0,1.108 0.892,2 2,2 H 58 59.460938 71 72 c 1.108,0 2,-0.892 2,-2 v -2 -1 -0.46094 V 517 v -2 -1 -1 -1 c 0,-1.108 -0.892,-2 -2,-2 h -2 -4 l -4,-4 H 59.449219 58 Z"
       id="path4345"
       inkscape:connector-curvature="0" />
    <path
       style="display:inline;fill:#000000;fill-opacity:0.2;stroke:none;enable-background:new"
       sodipodi:nodetypes="ccccccccccccc"
       id="path5343"
       d="m 65,516 v 3 h 1.25 L 64,522.5 61.75,519 H 63 v -3 z m -4,7 h 6 v 1 h -6 z"
       inkscape:connector-curvature="0" />
    <path
       inkscape:connector-curvature="0"
       d="m 65,515 v 3 h 1.25 L 64,521.5 61.75,518 H 63 v -3 z m -4,7 h 6 v 1 h -6 z"
       id="path5341"
       sodipodi:nodetypes="ccccccccccccc"
       style="display:inline;fill:#f5f5f5;fill-opacity:1;stroke:none;enable-background:new" />
    <path
       inkscape:connector-curvature="0"
       d="m 113,512 v 3 h 1.25 L 112,518.5 109.75,515 H 111 v -3 z m -4,7 h 6 v 1 h -6 z"
       id="path5353"
       sodipodi:nodetypes="ccccccccccccc"
       style="display:inline;fill:#000000;fill-opacity:0.2;stroke:none;enable-background:new" />
    <path
       style="display:inline;fill:#f5f5f5;fill-opacity:1;stroke:none;enable-background:new"
       sodipodi:nodetypes="ccccccccccccc"
       id="path4468"
       d="m 113,511 v 3 h 1.25 L 112,517.5 109.75,514 H 111 v -3 z m -4,7 h 6 v 1 h -6 z"
       inkscape:connector-curvature="0" />
    <path
       inkscape:connector-curvature="0"
       id="path5361"
       d="m 166,503 v 5 h -2 l 4,5 4,-5 h -2 v -5 z m -3,11 v 2 h 10 v -2 z"
       style="display:inline;fill:#000000;fill-opacity:0.2;fill-rule:evenodd;stroke:none;stroke-width:1px;stroke-linecap:butt;stroke-linejoin:miter;stroke-opacity:1;filter:url(#filter5368);enable-background:new" />
    <path
       style="display:inline;fill:#f5f5f5;fill-opacity:1;fill-rule:evenodd;stroke:none;stroke-width:1px;stroke-linecap:butt;stroke-linejoin:miter;stroke-opacity:1;enable-background:new"
       d="m 166,502 v 5 h -2 l 4,5 4,-5 h -2 v -5 z m -3,11 v 2 h 10 v -2 z"
       id="path4565"
       inkscape:connector-curvature="0" />
    <path
       inkscape:connector-curvature="0"
       style="display:inline;fill:#ffffff;fill-opacity:1;fill-rule:evenodd;stroke:none;stroke-width:1px;stroke-linecap:butt;stroke-linejoin:miter;stroke-opacity:1;enable-background:new"
       d="m 166,502 v 1 h 4 v -1 z m -2,5 0.80078,1 H 166 v -1 z m 6,0 v 1 h 1.19922 L 172,507 Z m -7,6 v 1 h 10 v -1 h -5 z"
       id="path5363" />
    <path
       inkscape:connector-curvature="0"
       d="m 241,495 v 6 h 2.5 l -4.5,7 -4.5,-7 h 2.5 v -6 z m -8,14 h 12 v 2 h -12 z"
       id="path5383"
       sodipodi:nodetypes="ccccccccccccc"
       style="display:inline;fill:#000000;fill-opacity:0.2;stroke:none;filter:url(#filter5385);enable-background:new" />
    <path
       style="display:inline;fill:#f5f5f5;fill-opacity:1;stroke:none;enable-background:new"
       sodipodi:nodetypes="ccccccccccccc"
       id="path4508"
       d="m 241,494 v 6 h 2.5 l -4.5,7 -4.5,-7 h 2.5 v -6 z m -8,14 h 12 v 2 h -12 z"
       inkscape:connector-curvature="0" />
    <path
       inkscape:connector-curvature="0"
       style="display:inline;fill:#ffffff;fill-opacity:1;stroke:none;enable-background:new"
       d="m 237,494 v 1 h 4 v -1 z m -2.5,6 0.64258,1 H 237 v -1 z m 6.5,0 v 1 h 1.85742 L 243.5,500 Z m -8,8 v 1 h 12 v -1 h -6 z"
       id="path5378" />
    <path
       inkscape:connector-curvature="0"
       d="m 560,256 v 48 h 20 l -36,56 -36,-56 h 20 v -48 z m -64,112 h 96 v 16 h -96 z"
       id="path5395"
       sodipodi:nodetypes="ccccccccccccc"
       style="display:inline;fill:#000000;fill-opacity:0.2;stroke:none;stroke-width:8;enable-background:new" />
    <path
       style="display:inline;fill:#000000;fill-opacity:0.2;stroke:none;stroke-width:8;filter:url(#filter5403);enable-background:new"
       sodipodi:nodetypes="ccccccccccccc"
       id="path5397"
       d="m 560,256 v 48 h 20 l -36,56 -36,-56 h 20 v -48 z m -64,112 h 96 v 16 h -96 z"
       inkscape:connector-curvature="0" />
    <path
       style="display:inline;fill:#f5f5f5;fill-opacity:1;stroke:none;stroke-width:8;enable-background:new"
       sodipodi:nodetypes="ccccccccccccc"
       id="path4508-6"
       d="m 560,254 v 48 h 20 l -36,56 -36,-56 h 20 v -48 z m -64,112 h 96 v 16 h -96 z"
       inkscape:connector-curvature="0" />
    <path
       inkscape:connector-curvature="0"
       style="display:inline;fill:#ffffff;fill-opacity:1;stroke:none;stroke-width:8;enable-background:new"
       d="m 528,254 v 2 h 32 v -2 z m -20,48 1.28516,2 H 528 v -2 z m 52,0 v 2 h 18.71484 L 580,302 Z m -64,64 v 2 h 96 v -2 z"
       id="path5407" />
  </g>
</svg>
