<?xml version="1.0" encoding="UTF-8" standalone="no"?>
<!-- Created with Inkscape (http://www.inkscape.org/) -->

<svg
   xmlns:dc="http://purl.org/dc/elements/1.1/"
   xmlns:cc="http://creativecommons.org/ns#"
   xmlns:rdf="http://www.w3.org/1999/02/22-rdf-syntax-ns#"
   xmlns:svg="http://www.w3.org/2000/svg"
   xmlns="http://www.w3.org/2000/svg"
   xmlns:xlink="http://www.w3.org/1999/xlink"
   xmlns:sodipodi="http://sodipodi.sourceforge.net/DTD/sodipodi-0.dtd"
   xmlns:inkscape="http://www.inkscape.org/namespaces/inkscape"
   width="816"
   height="544"
   viewBox="0 0 816 544"
   version="1.1"
   id="svg1087"
   inkscape:version="0.92.1 r"
   sodipodi:docname="folder-cloud.svg">
  <defs
     id="defs1081">
    <linearGradient
       id="linearGradient4540"
       inkscape:collect="always">
      <stop
         id="stop4536"
         offset="0"
         style="stop-color:#ffffff;stop-opacity:0.05490196" />
      <stop
         id="stop4538"
         offset="1"
         style="stop-color:#177ed5;stop-opacity:0;" />
    </linearGradient>
    <linearGradient
       id="linearGradient4534"
       inkscape:collect="always">
      <stop
         id="stop4530"
         offset="0"
         style="stop-color:#ffffff;stop-opacity:0.05490196" />
      <stop
         id="stop4532"
         offset="1"
         style="stop-color:#177ed5;stop-opacity:0;" />
    </linearGradient>
    <filter
       inkscape:collect="always"
       style="color-interpolation-filters:sRGB"
       id="filter5087"
       x="-0.048"
       width="1.096"
       y="-0.048"
       height="1.096">
      <feGaussianBlur
         inkscape:collect="always"
         stdDeviation="0.8"
         id="feGaussianBlur5089" />
    </filter>
    <linearGradient
       inkscape:collect="always"
       xlink:href="#linearGradient4534"
       id="linearGradient4347"
       gradientUnits="userSpaceOnUse"
       gradientTransform="matrix(0.47825838,0,0,0.47826068,52.5218,24.1749)"
       x1="7"
       y1="1011.3622"
       x2="41.000019"
       y2="1045.3622" />
    <linearGradient
       inkscape:collect="always"
       id="linearGradient4165">
      <stop
         style="stop-color:#ffffff;stop-opacity:0.05490196"
         offset="0"
         id="stop4167" />
      <stop
         style="stop-color:#177ed5;stop-opacity:0;"
         offset="1"
         id="stop4169" />
    </linearGradient>
    <linearGradient
       inkscape:collect="always"
       xlink:href="#linearGradient4540"
       id="linearGradient4435"
       gradientUnits="userSpaceOnUse"
       gradientTransform="matrix(0.65217041,0,0,0.65217328,96.3479,-158.67021)"
       x1="7"
       y1="1011.3622"
       x2="41.000019"
       y2="1045.3622" />
    <linearGradient
       inkscape:collect="always"
       xlink:href="#linearGradient4165"
       id="linearGradient4171-1-0"
       x1="7"
       y1="1011.3622"
       x2="41.000019"
       y2="1045.3622"
       gradientUnits="userSpaceOnUse"
       gradientTransform="matrix(0.95652174,0,0,0.95652174,145.04353,-479.6505)" />
    <linearGradient
       inkscape:collect="always"
       xlink:href="#linearGradient4165-3"
       id="linearGradient4449-0"
       gradientUnits="userSpaceOnUse"
       gradientTransform="matrix(10.43473,0,0,10.434772,293.56525,-10458.721)"
       x1="7"
       y1="1011.3622"
       x2="41.000019"
       y2="1045.3622" />
    <linearGradient
       inkscape:collect="always"
       id="linearGradient4165-3">
      <stop
         style="stop-color:#ffffff;stop-opacity:0.05490196"
         offset="0"
         id="stop4167-6" />
      <stop
         style="stop-color:#177ed5;stop-opacity:0;"
         offset="1"
         id="stop4169-7" />
    </linearGradient>
    <linearGradient
       inkscape:collect="always"
       xlink:href="#linearGradient4165-3"
       id="linearGradient4535"
       gradientUnits="userSpaceOnUse"
       gradientTransform="matrix(1.3043412,0,0,1.3043465,208.69566,-845.3401)"
       x1="7"
       y1="1011.3622"
       x2="41.000019"
       y2="1045.3622" />
    <filter
       inkscape:collect="always"
       style="color-interpolation-filters:sRGB"
       id="filter4553"
       x="-0.012"
       width="1.024"
       y="-0.012"
       height="1.024">
      <feGaussianBlur
         inkscape:collect="always"
         stdDeviation="0.2"
         id="feGaussianBlur4555" />
    </filter>
    <filter
       inkscape:collect="always"
       style="color-interpolation-filters:sRGB"
       id="filter4559"
       x="-0.012"
       width="1.024"
       y="-0.012"
       height="1.024">
      <feGaussianBlur
         inkscape:collect="always"
         stdDeviation="0.28"
         id="feGaussianBlur4561" />
    </filter>
    <filter
       inkscape:collect="always"
       style="color-interpolation-filters:sRGB"
       id="filter4573"
       x="-0.024"
       width="1.048"
       y="-0.024"
       height="1.048">
      <feGaussianBlur
         inkscape:collect="always"
         stdDeviation="4.48"
         id="feGaussianBlur4575" />
    </filter>
    <filter
       inkscape:collect="always"
       style="color-interpolation-filters:sRGB"
       id="filter4976"
       x="-0.010090909"
       width="1.0201818"
       y="-0.014800001"
       height="1.0296">
      <feGaussianBlur
         inkscape:collect="always"
         stdDeviation="0.067272725"
         id="feGaussianBlur4978" />
    </filter>
    <filter
       inkscape:collect="always"
       style="color-interpolation-filters:sRGB"
       id="filter4998"
       x="-0.020181817"
       width="1.0403636"
       y="-0.029600001"
       height="1.0592">
      <feGaussianBlur
         inkscape:collect="always"
         stdDeviation="1.0763636"
         id="feGaussianBlur5000" />
    </filter>
  </defs>
  <sodipodi:namedview
     id="base"
     pagecolor="#c3c3c3"
     bordercolor="#333333"
     borderopacity="1"
     inkscape:pageopacity="0"
     inkscape:pageshadow="2"
     inkscape:zoom="0.5"
     inkscape:cx="284.14851"
     inkscape:cy="-545.53958"
     inkscape:document-units="px"
     inkscape:current-layer="layer1"
     showgrid="true"
     units="px"
     inkscape:showpageshadow="false"
     inkscape:window-width="1280"
     inkscape:window-height="1370"
     inkscape:window-x="0"
     inkscape:window-y="34"
     inkscape:window-maximized="0">
    <inkscape:grid
       type="xygrid"
       id="grid4630" />
  </sodipodi:namedview>
  <metadata
     id="metadata1084">
    <rdf:RDF>
      <cc:Work
         rdf:about="">
        <dc:format>image/svg+xml</dc:format>
        <dc:type
           rdf:resource="http://purl.org/dc/dcmitype/StillImage" />
        <dc:title></dc:title>
        <cc:license
           rdf:resource="http://creativecommons.org/licenses/by-sa/4.0/" />
        <dc:creator>
          <cc:Agent>
            <dc:title>Peter Cornelis</dc:title>
          </cc:Agent>
        </dc:creator>
      </cc:Work>
      <cc:License
         rdf:about="http://creativecommons.org/licenses/by-sa/4.0/">
        <cc:permits
           rdf:resource="http://creativecommons.org/ns#Reproduction" />
        <cc:permits
           rdf:resource="http://creativecommons.org/ns#Distribution" />
        <cc:requires
           rdf:resource="http://creativecommons.org/ns#Notice" />
        <cc:requires
           rdf:resource="http://creativecommons.org/ns#Attribution" />
        <cc:permits
           rdf:resource="http://creativecommons.org/ns#DerivativeWorks" />
        <cc:requires
           rdf:resource="http://creativecommons.org/ns#ShareAlike" />
      </cc:License>
    </rdf:RDF>
  </metadata>
  <g
     inkscape:label="Baseplate"
     inkscape:groupmode="layer"
     id="layer1"
     transform="translate(0,-153.06668)"
     style="display:none">
    <rect
       style="display:inline;overflow:visible;visibility:visible;fill:#fefefe;fill-opacity:1;fill-rule:nonzero;stroke:none;stroke-width:2;marker:none;enable-background:accumulate"
       id="rect3951"
       width="512"
       height="512"
       x="-800"
       y="169.06668"
       inkscape:label="48x48"
       transform="scale(-1,1)" />
    <text
       y="733.32251"
       xml:space="preserve"
       x="15.006836"
       style="font-style:normal;font-variant:normal;font-weight:normal;font-stretch:normal;line-height:0%;font-family:'DejaVu Sans';-inkscape-font-specification:'DejaVu Sans';display:inline;fill:#000000;fill-opacity:1;stroke:none;enable-background:new"
       inkscape:label="context"
       id="context"><tspan
         style="font-style:normal;font-variant:normal;font-weight:normal;font-stretch:normal;font-size:18px;line-height:1.25;font-family:'DejaVu Sans';-inkscape-font-specification:'DejaVu Sans'"
         y="733.32251"
         x="15.006836"
         sodipodi:role="line"
         id="tspan3933">places</tspan></text>
    <text
       y="733.32251"
       xml:space="preserve"
       x="142.48828"
       style="font-style:normal;font-variant:normal;font-weight:bold;font-stretch:normal;line-height:0%;font-family:'DejaVu Sans';-inkscape-font-specification:'DejaVu Sans Bold';text-align:start;writing-mode:lr-tb;text-anchor:start;display:inline;fill:#000000;fill-opacity:1;stroke:none;enable-background:new"
       inkscape:label="icon-name"
       id="icon-name"><tspan
         style="font-style:normal;font-variant:normal;font-weight:bold;font-stretch:normal;font-size:18px;line-height:1.25;font-family:'DejaVu Sans';-inkscape-font-specification:'DejaVu Sans Bold'"
         y="733.32251"
         x="142.48828"
         sodipodi:role="line"
         id="tspan3937">folder-cloud</tspan></text>
    <rect
       style="display:inline;overflow:visible;visibility:visible;fill:#fefefe;fill-opacity:1;fill-rule:nonzero;stroke:none;stroke-width:2;marker:none;enable-background:accumulate"
       id="rect16x16"
       width="16"
       height="16"
       x="-32"
       y="665.06665"
       inkscape:label="16x16"
       transform="scale(-1,1)" />
    <rect
       style="display:inline;overflow:visible;visibility:visible;fill:#fefefe;fill-opacity:1;fill-rule:nonzero;stroke:none;stroke-width:2;marker:none;enable-background:accumulate"
       id="rect24x24"
       width="24"
       height="24"
       x="-76"
       y="657.06665"
       inkscape:label="24x24"
       transform="scale(-1,1)" />
    <rect
       style="display:inline;overflow:visible;visibility:visible;fill:#fefefe;fill-opacity:1;fill-rule:nonzero;stroke:none;stroke-width:2;marker:none;enable-background:accumulate"
       id="rect32x32"
       width="32"
       height="32"
       x="-128"
       y="649.06665"
       inkscape:label="32x32"
       transform="scale(-1,1)" />
    <rect
       inkscape:label="48x48"
       y="633.06665"
       x="-192"
       height="48"
       width="48"
       id="rect48x48"
       style="display:inline;overflow:visible;visibility:visible;fill:#fefefe;fill-opacity:1;fill-rule:nonzero;stroke:none;stroke-width:2;marker:none;enable-background:accumulate"
       transform="scale(-1,1)" />
    <rect
       transform="scale(-1,1)"
       inkscape:label="48x48"
       y="617.06665"
       x="-272"
       height="64"
       width="64"
       id="rect4524"
       style="display:inline;overflow:visible;visibility:visible;fill:#fefefe;fill-opacity:1;fill-rule:nonzero;stroke:none;stroke-width:0.25;marker:none;enable-background:accumulate" />
  </g>
  <g
     inkscape:groupmode="layer"
     id="layer2"
     inkscape:label="Bitmap"
     style="display:inline">
    <path
       inkscape:connector-curvature="0"
       id="path4551"
       d="m 151,485 c -1.662,0 -3,1.338 -3,3 v 7.91992 18.19141 V 522 c 0,1.662 1.338,3 3,3 h 7.91992 18.17969 H 185 c 1.662,0 3,-1.338 3,-3 V 514.07812 495.89258 488 c 0,-1.662 -1.338,-3 -3,-3 h -7.91992 -18.17969 z"
       style="display:inline;fill:#000000;fill-opacity:0.2;stroke:none;stroke-width:2;stroke-linecap:round;stroke-linejoin:round;stroke-miterlimit:4;stroke-dasharray:none;stroke-opacity:1;filter:url(#filter4553);enable-background:new" />
    <path
       sodipodi:nodetypes="sscsscsscsscs"
       inkscape:connector-curvature="0"
       id="path5069"
       d="m 143,485 c -1.66505,0 -3,1.2912 -3,3 v 17 17 c 0,1.8617 1.34224,3 3,3 h 17 17 c 1.73784,0 3,-1.2767 3,-3 v -17 -17 c 0,-1.6942 -1.29127,-3 -3,-3 h -17 z"
       style="display:inline;fill:none;fill-opacity:0.5;stroke:none;stroke-width:2;stroke-linecap:round;stroke-linejoin:round;stroke-miterlimit:4;stroke-dasharray:none;stroke-opacity:1;filter:url(#filter5087);enable-background:new" />
    <path
       style="display:inline;fill:none;fill-opacity:0.5;stroke:none;stroke-width:2;stroke-linecap:round;stroke-linejoin:round;stroke-miterlimit:4;stroke-dasharray:none;stroke-opacity:1;filter:url(#filter5087);enable-background:new"
       d="m 143,485 c -1.66505,0 -3,1.2912 -3,3 v 17 17 c 0,1.8617 1.34224,3 3,3 h 17 17 c 1.73784,0 3,-1.2767 3,-3 v -17 -17 c 0,-1.6942 -1.29127,-3 -3,-3 h -17 z"
       id="path4506"
       inkscape:connector-curvature="0"
       sodipodi:nodetypes="sscsscsscsscs" />
    <path
       inkscape:connector-curvature="0"
       id="path4543"
       d="m 56,507 c -1.108,0 -2,0.892 -2,2 v 3.46094 9.09375 V 525 c 0,1.108 0.892,2 2,2 H 59.460938 68.550781 72 c 1.108,0 2,-0.892 2,-2 V 521.53906 512.44531 509 c 0,-1.108 -0.892,-2 -2,-2 h -3.460938 -9.089843 z"
       style="display:inline;fill:#000000;fill-opacity:0.2;stroke:none;stroke-width:2;stroke-linecap:round;stroke-linejoin:round;stroke-miterlimit:4;stroke-dasharray:none;stroke-opacity:1;enable-background:new" />
    <path
       style="display:inline;fill:#333a42;fill-opacity:1;stroke:none;enable-background:new"
       d="m 56,506 c -1.108,0 -2,0.892 -2,2 v 2 c 0,-1.108 0.892,-2 2,-2 h 2 4 l 4,4 h 4 2 c 1.108,0 2,0.892 2,2 v -6 c 0,-1.108 -0.892,-2 -2,-2 z"
       id="rect4243"
       inkscape:connector-curvature="0" />
    <rect
       transform="matrix(0,-1,-1,0,0,0)"
       style="display:inline;fill:#333a42;fill-opacity:1;stroke:none;enable-background:new"
       id="rect4203"
       width="40"
       height="40"
       x="-524"
       y="-188"
       rx="3"
       ry="3" />
    <path
       inkscape:connector-curvature="0"
       id="path4547"
       d="m 101,499 c -1.662,0 -3,1.338 -3,3 v 5.66211 10.67578 V 524 c 0,1.662 1.338,3 3,3 h 5.6875 10.64844 H 123 c 1.662,0 3,-1.338 3,-3 V 518.33789 507.66602 502 c 0,-1.662 -1.338,-3 -3,-3 h -5.6875 -10.64844 z"
       style="display:inline;fill:#000000;fill-opacity:0.2;stroke:none;stroke-width:2;stroke-linecap:round;stroke-linejoin:round;stroke-miterlimit:4;stroke-dasharray:none;stroke-opacity:1;enable-background:new" />
    <path
       style="display:inline;fill:#333a42;fill-opacity:1;stroke:none;enable-background:new"
       d="m 101,498 c -1.662,0 -3,1.338 -3,3 v 2 c 0,-1.662 1.338,-3 3,-3 h 4 2 3 l 4,4 h 9 c 1.662,0 3,1.338 3,3 v -6 c 0,-1.662 -1.338,-3 -3,-3 z"
       id="rect4255"
       inkscape:connector-curvature="0" />
    <path
       style="display:inline;fill:#333a42;fill-opacity:1;stroke:none;enable-background:new"
       d="m 18,512 c -1.108,0 -2,0.892 -2,2 v 1 c 0,-1.108 0.892,-2 2,-2 h 1 4 l 2,2 h 5 c 1.108,0 2,0.892 2,2 v -3 c 0,-1.108 -0.892,-2 -2,-2 z"
       id="rect4265"
       inkscape:connector-curvature="0" />
    <path
       style="display:inline;fill:#000000;fill-opacity:0.2;stroke:none;stroke-width:16;stroke-linecap:round;stroke-linejoin:round;stroke-miterlimit:4;stroke-dasharray:none;stroke-opacity:1;filter:url(#filter4573);enable-background:new"
       d="m 356,50 c -19.944,0 -36,16.056 -36,36 V 188.5918 359.37695 462 c 0,19.944 16.056,36 36,36 H 458.98242 629.36523 732 c 19.944,0 36,-16.056 36,-36 V 359.39648 188.6543 86 C 768,66.056 751.944,50 732,50 H 629.00586 458.625 Z"
       id="path4567"
       inkscape:connector-curvature="0" />
    <path
       inkscape:connector-curvature="0"
       id="path4563"
       d="m 356,50 c -19.944,0 -36,16.056 -36,36 V 188.5918 359.37695 462 c 0,19.944 16.056,36 36,36 H 458.98242 629.36523 732 c 19.944,0 36,-16.056 36,-36 V 359.39648 188.6543 86 C 768,66.056 751.944,50 732,50 H 629.00586 458.625 Z"
       style="display:inline;fill:#000000;fill-opacity:0.2;stroke:none;stroke-width:16;stroke-linecap:round;stroke-linejoin:round;stroke-miterlimit:4;stroke-dasharray:none;stroke-opacity:1;enable-background:new" />
    <path
       style="display:inline;fill:#333a42;fill-opacity:1;stroke:none;enable-background:new"
       d="m 356,48 c -19.944,0 -36,16.056 -36,36 v 32 c 0,-19.944 16.056,-36 36,-36 H 368 391.59375 432 h 32 48 l 64,64 h 140 4 12 c 19.944,0 36,16.056 36,36 V 84 C 768,64.056 751.944,48 732,48 Z"
       id="rect4229"
       inkscape:connector-curvature="0" />
    <path
       id="path4507"
       d="m 320,86 v -2 c 0,-19.944 16.056,-36 36,-36 h 376 c 19.944,0 36,16.056 36,36 v 2 C 768,66.056 751.944,50 732,50 H 356 c -19.944,0 -36,16.056 -36,36 z"
       style="display:inline;fill:#ffffff;fill-opacity:0.2;stroke:none;enable-background:new"
       inkscape:connector-curvature="0" />
    <path
       id="path4514"
       d="m 148,488 v -1 c 0,-1.662 1.338,-3 3,-3 h 34 c 1.662,0 3,1.338 3,3 v 1 c 0,-1.662 -1.338,-3 -3,-3 h -34 c -1.662,0 -3,1.338 -3,3 z"
       style="display:inline;fill:#ffffff;fill-opacity:0.2;stroke:none;enable-background:new"
       inkscape:connector-curvature="0" />
    <path
       id="path4521"
       d="m 98,502 v -1 c 0,-1.662 1.338,-3 3,-3 h 22 c 1.662,0 3,1.338 3,3 v 1 c 0,-1.662 -1.338,-3 -3,-3 h -22 c -1.662,0 -3,1.338 -3,3 z"
       style="display:inline;fill:#fafafa;fill-opacity:0.2;stroke:none;enable-background:new"
       inkscape:connector-curvature="0" />
    <path
       id="path4528"
       d="m 54,509 v -1 c 0,-1.108 0.892,-2 2,-2 h 16 c 1.108,0 2,0.892 2,2 v 1 c 0,-1.108 -0.892,-2 -2,-2 H 56 c -1.108,0 -2,0.892 -2,2 z"
       style="display:inline;fill:#ffffff;fill-opacity:0.2;stroke:none;enable-background:new"
       inkscape:connector-curvature="0" />
    <path
       style="display:inline;fill:#000000;fill-opacity:0.2;stroke:none;stroke-width:2;stroke-linecap:round;stroke-linejoin:round;stroke-miterlimit:4;stroke-dasharray:none;stroke-opacity:1;filter:url(#filter4559);enable-background:new"
       d="m 216.5,469 c -2.493,0 -4.5,2.007 -4.5,4.5 V 486.32398 507.67212 520.5 c 0,2.493 2.007,4.5 4.5,4.5 H 229.3728 250.67065 263.5 c 2.493,0 4.5,-2.007 4.5,-4.5 V 507.67456 486.33179 473.5 c 0,-2.493 -2.007,-4.5 -4.5,-4.5 h -12.87427 -21.29761 z"
       id="path4557"
       inkscape:connector-curvature="0" />
    <path
       style="display:inline;fill:#333a42;fill-opacity:1;stroke:none;stroke-width:0.125;enable-background:new"
       d="m 216.5,468 c -2.493,0 -4.5,2.007 -4.5,4.5 v 4 c 0,-2.493 2.007,-4.5 4.5,-4.5 h 1.5 2.94922 5.05078 4 6 l 8,8 h 17.5 0.5 1.5 c 2.493,0 4.5,2.007 4.5,4.5 v -12 c 0,-2.493 -2.007,-4.5 -4.5,-4.5 z"
       id="rect4526"
       inkscape:connector-curvature="0" />
    <path
       style="display:inline;fill:#ffffff;fill-opacity:0.2;stroke:none;stroke-width:0.125;enable-background:new"
       d="m 216.5,468 c -2.493,0 -4.5,2.007 -4.5,4.5 v 1 c 0,-2.493 2.007,-4.5 4.5,-4.5 h 47 c 2.493,0 4.5,2.007 4.5,4.5 v -1 c 0,-2.493 -2.007,-4.5 -4.5,-4.5 z"
       id="rect4537"
       inkscape:connector-curvature="0" />
    <path
       style="opacity:1;fill:#e8ebed;fill-opacity:1;stroke:none;stroke-opacity:0.2"
       d="m 112,502 2,2 h 9 c 1.662,0 3,1.338 3,3 v -2 c 0,-1.662 -1.338,-3 -3,-3 z"
       id="rect4565"
       inkscape:connector-curvature="0" />
    <path
       style="display:inline;fill:#1685a6;fill-opacity:1;stroke:none;enable-background:new"
       d="m 101,500 c -1.662,0 -3,1.338 -3,3 v 1 2 1 7 4 4 1 c 0,1.662 1.338,3 3,3 h 22 c 1.662,0 3,-1.338 3,-3 v -1 -4 -1 -4 -1 -2.60938 V 507 c 0,-1.662 -1.338,-3 -3,-3 h -9 l -4,-4 h -3 -2 z"
       id="rect4546"
       inkscape:connector-curvature="0" />
    <path
       style="display:inline;fill:#ffffff;fill-opacity:0.2;stroke:none;enable-background:new"
       d="m 101,500 c -1.662,0 -3,1.338 -3,3 v 1 c 0,-1.662 1.338,-3 3,-3 h 4 2 3 l 4,4 h 9 c 1.662,0 3,1.338 3,3 v -1 c 0,-1.662 -1.338,-3 -3,-3 h -9 l -4,-4 h -3 -2 z"
       id="path4594"
       inkscape:connector-curvature="0" />
    <path
       style="display:inline;fill:#e8ebed;fill-opacity:1;stroke:none;stroke-width:0.125;enable-background:new"
       d="m 240,476 4,4 h 17.5 0.5 1.5 c 2.493,0 4.5,2.007 4.5,4.5 v -4 c 0,-2.493 -2.007,-4.5 -4.5,-4.5 z"
       id="rect4963"
       inkscape:connector-curvature="0" />
    <path
       style="display:inline;fill:#1685a6;fill-opacity:1;stroke:none;stroke-width:2;enable-background:new"
       d="m 216.5,472 c -2.493,0 -4.5,2.007 -4.5,4.5 v 1.5 1.24414 0.75586 4 2 14 8 8 0.5 1.5 1.5 c 0,2.493 2.007,4.5 4.5,4.5 h 1.5 0.5 43 0.5 1.5 c 2.493,0 4.5,-2.007 4.5,-4.5 v -1.5 -1.5 -0.5 -8 -2 -8 -2 -5.21875 V 487.5 486 484.5 c 0,-2.493 -2.007,-4.5 -4.5,-4.5 H 262 261.5 244 l -8,-8 h -6 -4 -5.05078 H 218 Z"
       id="path4946"
       inkscape:connector-curvature="0" />
    <path
       style="display:inline;fill:#ffffff;fill-opacity:0.2;stroke:none;stroke-width:2;enable-background:new"
       d="m 216.5,472 c -2.493,0 -4.5,2.007 -4.5,4.5 v 1 c 0,-2.493 2.007,-4.5 4.5,-4.5 h 1.5 2.94922 5.05078 4 6 l 8,8 h 17.5 0.5 1.5 c 2.493,0 4.5,2.007 4.5,4.5 v -1 c 0,-2.493 -2.007,-4.5 -4.5,-4.5 H 262 261.5 244 l -8,-8 h -6 -4 -5.05078 H 218 Z"
       id="path4968"
       inkscape:connector-curvature="0" />
    <path
       style="opacity:1;fill:#e8ebed;fill-opacity:1;stroke:none;stroke-opacity:0.2"
       d="m 168,490 3,3 h 9 5 c 1.49041,0 2.71116,1.07927 2.94922,2.5 0.0274,-0.16357 0.0508,-0.32841 0.0508,-0.5 v -2 c 0,-1.662 -1.338,-3 -3,-3 z"
       id="rect5004"
       inkscape:connector-curvature="0" />
    <path
       style="display:inline;fill:#1685a6;fill-opacity:1;stroke:none;stroke-width:1.42857146;enable-background:new"
       d="m 151,487 c -1.662,0 -3,1.338 -3,3 v 4 1.42773 1.42969 10 5.71485 5.71289 1.42968 V 521 c 0,1.662 1.338,3 3,3 h 5 24 3.71484 H 185 c 1.662,0 3,-1.338 3,-3 V 519.71484 518.28516 517 512.57227 511.14258 505.42773 504 500.27148 496.85742 496 c 0,-1.662 -1.338,-3 -3,-3 h -5 -9 l -6,-6 h -9 z"
       id="path4985"
       inkscape:connector-curvature="0" />
    <path
       style="display:inline;fill:#ffffff;fill-opacity:0.2;stroke:none;stroke-width:1.42857146;enable-background:new"
       d="m 151,487 c -1.662,0 -3,1.338 -3,3 v 1 c 0,-1.662 1.338,-3 3,-3 h 5 9 l 6,6 h 9 5 c 1.662,0 3,1.338 3,3 V 496.85742 496 c 0,-1.662 -1.338,-3 -3,-3 h -5 -9 l -6,-6 h -9 z"
       id="path5011"
       inkscape:connector-curvature="0" />
    <path
       style="opacity:1;fill:#e8ebed;fill-opacity:1;stroke:none;stroke-opacity:0.2"
       d="m 64,510 2,2 h 4 2 c 1.108,0 2,0.892 2,2 v -2 c 0,-1.108 -0.892,-2 -2,-2 h -2 z"
       id="path5034"
       inkscape:connector-curvature="0" />
    <path
       style="opacity:1;fill:#1685a6;fill-opacity:1;stroke:none;stroke-opacity:0.2"
       d="m 56,508 c -1.108,0 -2,0.892 -2,2 v 3 8 3 c 0,1.108 0.892,2 2,2 h 2 13 1 c 1.108,0 2,-0.892 2,-2 v -3 -4 -2 -1 c 0,-1.108 -0.892,-2 -2,-2 h -2 -4 l -4,-4 h -4 z"
       id="rect5020"
       inkscape:connector-curvature="0" />
    <path
       style="opacity:1;fill:#ffffff;fill-opacity:0.2;stroke:none;stroke-opacity:0.2"
       d="m 56,508 c -1.108,0 -2,0.892 -2,2 v 1 c 0,-1.108 0.892,-2 2,-2 h 2 4 l 4,4 h 4 2 c 1.108,0 2,0.892 2,2 v -1 c 0,-1.108 -0.892,-2 -2,-2 h -2 -4 l -4,-4 h -4 z"
       id="path5062"
       inkscape:connector-curvature="0" />
    <rect
       style="opacity:1;fill:#e8ebed;fill-opacity:1;stroke:none;stroke-opacity:0.2"
       id="rect5067"
       width="10"
       height="5"
       x="22"
       y="514"
       rx="2"
       ry="2" />
    <path
       style="opacity:1;fill:#1685a6;fill-opacity:1;stroke:none;stroke-opacity:0.2"
       d="m 18,513 c -1.108,0 -2,0.892 -2,2 v 2 1 1 7 c 0,1.108 0.892,2 2,2 h 12 c 1.108,0 2,-0.892 2,-2 v -7 -1 -1 c 0,-1.108 -0.892,-2 -2,-2 h -5 l -2,-2 h -4 z"
       id="rect5069"
       inkscape:connector-curvature="0" />
    <path
       id="path5087"
       d="m 544,112 32,32 h 140 4 12 c 19.944,0 36,16.056 36,36 v -32 c 0,-19.944 -16.056,-36 -36,-36 z"
       style="display:inline;fill:#e8ebed;fill-opacity:1;stroke:none;stroke-width:1;enable-background:new"
       inkscape:connector-curvature="0" />
    <path
       id="path5089"
       d="m 356,80 c -19.944,0 -36,16.056 -36,36 v 12 9.95312 6.04688 32 16 112 64 64 4 12 12 c 0,19.944 16.056,36 36,36 h 12 4 344 4 12 c 19.944,0 36,-16.056 36,-36 V 448 436 432 368 352 288 272 230.25 204 192 180 c 0,-19.944 -16.056,-36 -36,-36 H 720 716 576 L 512,80 H 464 432 391.59376 368 Z"
       style="display:inline;fill:#1685a6;fill-opacity:1;stroke:none;stroke-width:16;enable-background:new"
       inkscape:connector-curvature="0" />
    <path
       style="display:inline;fill:#ffffff;fill-opacity:0.2;stroke:none;stroke-width:16;enable-background:new"
       d="m 356,80 c -19.944,0 -36,16.056 -36,36 v 2 c 0,-19.944 16.056,-36 36,-36 H 368 391.59375 432 h 32 48 l 64,64 h 140 4 12 c 19.944,0 36,16.056 36,36 v -2 c 0,-19.944 -16.056,-36 -36,-36 H 720 716 576 L 512,80 H 464 432 391.59375 368 Z"
       id="path5094"
       inkscape:connector-curvature="0" />
    <path
       style="display:inline;fill:url(#linearGradient4449-0);fill-opacity:1;stroke:none;stroke-width:16;stroke-linecap:round;stroke-linejoin:round;stroke-miterlimit:4;stroke-dasharray:none;stroke-opacity:1;enable-background:new"
       d="m 356,48 c -19.944,0 -36,16.056 -36,36 V 186.5918 357.37695 460 c 0,19.944 16.056,36 36,36 H 458.98242 629.36523 732 c 19.944,0 36,-16.056 36,-36 V 357.39648 186.6543 84 C 768,64.056 751.944,48 732,48 H 629.00586 458.625 Z"
       id="path4447"
       inkscape:connector-curvature="0" />
    <path
       inkscape:connector-curvature="0"
       id="path4575"
       d="m 24,518.54546 c -0.96333,0 -1.79818,0.55892 -2.21652,1.37541 C 20.78182,520.03167 20,520.89943 20,521.95454 20,523.08463 20.895,524 22,524 h 4.33333 c 0.92,0 1.66667,-0.76363 1.66667,-1.70454 0,-0.90004 -0.68503,-1.62969 -1.54837,-1.69275 -0.22666,-1.17274 -1.2383,-2.05725 -2.45163,-2.05725 z"
       style="display:inline;fill:#f5f5f5;fill-opacity:1;stroke:none;stroke-width:2;stroke-linecap:round;stroke-linejoin:round;stroke-miterlimit:4;stroke-dasharray:none;stroke-opacity:1;enable-background:new" />
    <path
       inkscape:connector-curvature="0"
       id="path4590"
       d="m 64,517.54546 c -0.96333,0 -1.79818,0.55892 -2.21652,1.37541 C 60.78182,519.03167 60,519.89943 60,520.95454 60,522.08463 60.895,523 62,523 h 4.33333 c 0.92,0 1.66667,-0.76363 1.66667,-1.70454 0,-0.90004 -0.68503,-1.62969 -1.54837,-1.69275 -0.22666,-1.17274 -1.2383,-2.05725 -2.45163,-2.05725 z"
       style="display:inline;fill:#000000;fill-opacity:0.2;stroke:none;stroke-width:2;stroke-linecap:round;stroke-linejoin:round;stroke-miterlimit:4;stroke-dasharray:none;stroke-opacity:1;enable-background:new" />
    <path
       style="display:inline;fill:#f5f5f5;fill-opacity:1;stroke:none;stroke-width:2;stroke-linecap:round;stroke-linejoin:round;stroke-miterlimit:4;stroke-dasharray:none;stroke-opacity:1;enable-background:new"
       d="m 64,516.54546 c -0.96333,0 -1.79818,0.55892 -2.21652,1.37541 C 60.78182,518.03167 60,518.89943 60,519.95454 60,521.08463 60.895,522 62,522 h 4.33333 c 0.92,0 1.66667,-0.76363 1.66667,-1.70454 0,-0.90004 -0.68503,-1.62969 -1.54837,-1.69275 -0.22666,-1.17274 -1.2383,-2.05725 -2.45163,-2.05725 z"
       id="path4588"
       inkscape:connector-curvature="0" />
    <path
       style="display:inline;fill:url(#linearGradient4347);fill-opacity:1;stroke:none;stroke-width:2;stroke-linecap:round;stroke-linejoin:round;stroke-miterlimit:4;stroke-dasharray:none;stroke-opacity:1;enable-background:new"
       d="m 56,506 c -1.108,0 -2,0.892 -2,2 v 3.46094 9.09375 V 524 c 0,1.108 0.892,2 2,2 H 59.460938 68.550781 72 c 1.108,0 2,-0.892 2,-2 V 520.53906 511.44531 508 c 0,-1.108 -0.892,-2 -2,-2 h -3.460938 -9.089843 z"
       id="path4345"
       inkscape:connector-curvature="0" />
    <path
       style="display:inline;fill:#000000;fill-opacity:0.2;stroke:none;stroke-width:2;stroke-linecap:round;stroke-linejoin:round;stroke-miterlimit:4;stroke-dasharray:none;stroke-opacity:1;enable-background:new"
       d="m 112,513.54546 c -0.96333,0 -1.79818,0.55892 -2.21652,1.37541 -1.00166,0.1108 -1.78348,0.97856 -1.78348,2.03367 0,1.13009 0.895,2.04546 2,2.04546 h 4.33333 c 0.92,0 1.66667,-0.76363 1.66667,-1.70454 0,-0.90004 -0.68503,-1.62969 -1.54837,-1.69275 -0.22666,-1.17274 -1.2383,-2.05725 -2.45163,-2.05725 z"
       id="path4943"
       inkscape:connector-curvature="0" />
    <path
       inkscape:connector-curvature="0"
       id="path4941"
       d="m 112,512.54546 c -0.96333,0 -1.79818,0.55892 -2.21652,1.37541 -1.00166,0.1108 -1.78348,0.97856 -1.78348,2.03367 0,1.13009 0.895,2.04546 2,2.04546 h 4.33333 c 0.92,0 1.66667,-0.76363 1.66667,-1.70454 0,-0.90004 -0.68503,-1.62969 -1.54837,-1.69275 -0.22666,-1.17274 -1.2383,-2.05725 -2.45163,-2.05725 z"
       style="display:inline;fill:#f5f5f5;fill-opacity:1;stroke:none;stroke-width:2;stroke-linecap:round;stroke-linejoin:round;stroke-miterlimit:4;stroke-dasharray:none;stroke-opacity:1;enable-background:new" />
    <path
       style="display:inline;fill:url(#linearGradient4435);fill-opacity:1;stroke:none;stroke-width:2;stroke-linecap:round;stroke-linejoin:round;stroke-miterlimit:4;stroke-dasharray:none;stroke-opacity:1;enable-background:new"
       d="m 101,498 c -1.662,0 -3,1.338 -3,3 v 5.66211 10.67578 V 523 c 0,1.662 1.338,3 3,3 h 5.6875 10.64844 H 123 c 1.662,0 3,-1.338 3,-3 V 517.33789 506.66602 501 c 0,-1.662 -1.338,-3 -3,-3 h -5.6875 -10.64844 z"
       id="path4433"
       inkscape:connector-curvature="0" />
    <path
       inkscape:connector-curvature="0"
       id="path4951"
       d="m 168,504.45455 c -1.68583,0 -3.14682,0.97812 -3.87891,2.40698 -1.75291,0.1939 -3.12109,1.71248 -3.12109,3.55892 0,1.97766 1.56625,3.57955 3.5,3.57955 h 7.58333 c 1.61,0 2.91667,-1.33636 2.91667,-2.98295 0,-1.57507 -1.1988,-2.85196 -2.70964,-2.96231 -0.39666,-2.0523 -2.16703,-3.60019 -4.29036,-3.60019 z"
       style="display:inline;fill:#000000;fill-opacity:0.2;stroke:none;stroke-width:2;stroke-linecap:round;stroke-linejoin:round;stroke-miterlimit:4;stroke-dasharray:none;stroke-opacity:1;enable-background:new" />
    <path
       style="display:inline;fill:#f5f5f5;fill-opacity:1;stroke:none;stroke-width:2;stroke-linecap:round;stroke-linejoin:round;stroke-miterlimit:4;stroke-dasharray:none;stroke-opacity:1;enable-background:new"
       d="m 168,503.45455 c -1.68583,0 -3.14682,0.97812 -3.87891,2.40698 -1.75291,0.1939 -3.12109,1.71248 -3.12109,3.55892 0,1.97766 1.56625,3.57955 3.5,3.57955 h 7.58333 c 1.61,0 2.91667,-1.33636 2.91667,-2.98295 0,-1.57507 -1.1988,-2.85196 -2.70964,-2.96231 -0.39666,-2.0523 -2.16703,-3.60019 -4.29036,-3.60019 z"
       id="circle4163-3"
       inkscape:connector-curvature="0" />
    <path
       style="display:inline;fill:#ffffff;fill-opacity:1;stroke:none;stroke-width:2;stroke-linecap:round;stroke-linejoin:round;stroke-miterlimit:4;stroke-dasharray:none;stroke-opacity:1;enable-background:new"
       d="M 168 503.45508 C 166.31417 503.45508 164.85318 504.43247 164.12109 505.86133 C 162.36818 506.05523 161 507.57348 161 509.41992 C 161 509.58693 161.02526 509.74729 161.04688 509.9082 C 161.27393 508.30148 162.53457 507.03682 164.12109 506.86133 C 164.85318 505.43247 166.31417 504.45508 168 504.45508 C 170.12333 504.45508 171.89436 506.00239 172.29102 508.05469 C 173.63539 508.15288 174.72569 509.17609 174.95117 510.50977 C 174.97761 510.34843 175 510.18655 175 510.01758 C 175 508.44251 173.80186 507.16504 172.29102 507.05469 C 171.89436 505.00239 170.12333 503.45508 168 503.45508 z "
       id="path4953" />
    <path
       style="display:inline;fill:url(#linearGradient4171-1-0);fill-opacity:1;stroke:none;stroke-width:2;stroke-linecap:round;stroke-linejoin:round;stroke-miterlimit:4;stroke-dasharray:none;stroke-opacity:1;enable-background:new"
       d="m 151,484 c -1.662,0 -3,1.338 -3,3 v 7.91992 18.19141 V 521 c 0,1.662 1.338,3 3,3 h 7.91992 18.17969 H 185 c 1.662,0 3,-1.338 3,-3 V 513.07812 494.89258 487 c 0,-1.662 -1.338,-3 -3,-3 h -7.91992 -18.17969 z"
       id="circle4163-3-4"
       inkscape:connector-curvature="0" />
    <path
       style="display:inline;fill:#000000;fill-opacity:0.2;stroke:none;stroke-width:2;stroke-linecap:round;stroke-linejoin:round;stroke-miterlimit:4;stroke-dasharray:none;stroke-opacity:1;enable-background:new;filter:url(#filter4976)"
       d="m 239,498.09091 c -1.92666,0 -3.59637,1.11786 -4.43304,2.75084 -2.00333,0.2216 -3.56696,1.95712 -3.56696,4.06734 0,2.26018 1.79,4.09091 4,4.09091 h 8.66666 c 1.84,0 3.33334,-1.52727 3.33334,-3.40909 0,-1.80008 -1.37006,-3.25938 -3.09673,-3.38549 -0.45333,-2.34549 -2.47661,-4.11451 -4.90327,-4.11451 z"
       id="path4964"
       inkscape:connector-curvature="0" />
    <path
       inkscape:connector-curvature="0"
       id="path4509"
       d="m 239,497.09091 c -1.92666,0 -3.59637,1.11786 -4.43304,2.75084 -2.00333,0.2216 -3.56696,1.95712 -3.56696,4.06734 0,2.26018 1.79,4.09091 4,4.09091 h 8.66666 c 1.84,0 3.33334,-1.52727 3.33334,-3.40909 0,-1.80008 -1.37006,-3.25938 -3.09673,-3.38549 -0.45333,-2.34549 -2.47661,-4.11451 -4.90327,-4.11451 z"
       style="display:inline;fill:#f5f5f5;fill-opacity:1;stroke:none;stroke-width:2;stroke-linecap:round;stroke-linejoin:round;stroke-miterlimit:4;stroke-dasharray:none;stroke-opacity:1;enable-background:new" />
    <path
       style="display:inline;fill:#ffffff;fill-opacity:1;stroke:none;stroke-width:2;stroke-linecap:round;stroke-linejoin:round;stroke-miterlimit:4;stroke-dasharray:none;stroke-opacity:1;enable-background:new"
       d="M 239 497.0918 C 237.07334 497.0918 235.40308 498.20882 234.56641 499.8418 C 232.56308 500.0634 231 501.79798 231 503.9082 C 231 504.07182 231.02863 504.22814 231.04688 504.38672 C 231.28141 502.52019 232.73233 501.04468 234.56641 500.8418 C 235.40308 499.20882 237.07334 498.0918 239 498.0918 C 241.42666 498.0918 243.44901 499.85959 243.90234 502.20508 C 245.46121 502.31893 246.71939 503.5232 246.95117 505.08008 C 246.97404 504.91898 247 504.75934 247 504.5918 C 247 502.79172 245.62901 501.33119 243.90234 501.20508 C 243.44901 498.85959 241.42666 497.0918 239 497.0918 z "
       id="path4966" />
    <path
       inkscape:connector-curvature="0"
       id="path4533"
       d="m 216.5,468 c -2.493,0 -4.5,2.007 -4.5,4.5 V 485.32398 506.67212 519.5 c 0,2.493 2.007,4.5 4.5,4.5 H 229.3728 250.67065 263.5 c 2.493,0 4.5,-2.007 4.5,-4.5 V 506.67456 485.33179 472.5 c 0,-2.493 -2.007,-4.5 -4.5,-4.5 h -12.87427 -21.29761 z"
       style="display:inline;fill:url(#linearGradient4535);fill-opacity:1;stroke:none;stroke-width:2;stroke-linecap:round;stroke-linejoin:round;stroke-miterlimit:4;stroke-dasharray:none;stroke-opacity:1;enable-background:new" />
    <path
       inkscape:connector-curvature="0"
       id="path4982"
       d="m 544,276.72728 c -15.41328,0 -28.77096,8.94288 -35.46432,22.00672 C 492.50904,300.5068 480,314.39096 480,331.27272 480,349.35416 494.32,364 512,364 h 69.33328 C 596.05328,364 608,351.78184 608,336.72728 608,322.32664 597.03952,310.65224 583.22616,309.64336 579.59952,290.87944 563.41328,276.72728 544,276.72728 Z"
       style="display:inline;fill:#000000;fill-opacity:0.2;stroke:none;stroke-width:16;stroke-linecap:round;stroke-linejoin:round;stroke-miterlimit:4;stroke-dasharray:none;stroke-opacity:1;enable-background:new" />
    <path
       style="display:inline;fill:#000000;fill-opacity:0.2;stroke:none;stroke-width:16;stroke-linecap:round;stroke-linejoin:round;stroke-miterlimit:4;stroke-dasharray:none;stroke-opacity:1;enable-background:new;filter:url(#filter4998)"
       d="m 544,276.72728 c -15.41328,0 -28.77096,8.94288 -35.46432,22.00672 C 492.50904,300.5068 480,314.39096 480,331.27272 480,349.35416 494.32,364 512,364 h 69.33328 C 596.05328,364 608,351.78184 608,336.72728 608,322.32664 597.03952,310.65224 583.22616,309.64336 579.59952,290.87944 563.41328,276.72728 544,276.72728 Z"
       id="path4984"
       inkscape:connector-curvature="0" />
    <path
       style="display:inline;fill:#f5f5f5;fill-opacity:1;stroke:none;stroke-width:16;stroke-linecap:round;stroke-linejoin:round;stroke-miterlimit:4;stroke-dasharray:none;stroke-opacity:1;enable-background:new"
       d="m 544,274.72728 c -15.41328,0 -28.77096,8.94288 -35.46432,22.00672 C 492.50904,298.5068 480,312.39096 480,329.27272 480,347.35416 494.32,362 512,362 h 69.33328 C 596.05328,362 608,349.78184 608,334.72728 608,320.32664 597.03952,308.65224 583.22616,307.64336 579.59952,288.87944 563.41328,274.72728 544,274.72728 Z"
       id="path4980"
       inkscape:connector-curvature="0" />
    <path
       style="display:inline;fill:#ffffff;fill-opacity:1;stroke:none;stroke-width:16;stroke-linecap:round;stroke-linejoin:round;stroke-miterlimit:4;stroke-dasharray:none;stroke-opacity:1;enable-background:new"
       d="M 544 274.72656 C 528.58672 274.72656 515.22852 283.67053 508.53516 296.73438 C 492.50852 298.50717 480 312.39168 480 329.27344 C 480 329.60381 480.01394 329.9298 480.02344 330.25781 C 480.51408 313.83847 492.83163 300.47143 508.53516 298.73438 C 515.22852 285.67053 528.58672 276.72656 544 276.72656 C 563.41328 276.72656 579.59992 290.87866 583.22656 309.64258 C 596.70691 310.62714 607.46543 321.77072 607.97656 335.69141 C 607.98749 335.37089 608 335.04979 608 334.72656 C 608 320.32592 597.03992 308.65146 583.22656 307.64258 C 579.59992 288.87866 563.41328 274.72656 544 274.72656 z "
       id="path5002" />
  </g>
</svg>
