<?xml version="1.0" encoding="UTF-8" standalone="no"?>
<!-- Created with Inkscape (http://www.inkscape.org/) -->

<svg
   xmlns:dc="http://purl.org/dc/elements/1.1/"
   xmlns:cc="http://creativecommons.org/ns#"
   xmlns:rdf="http://www.w3.org/1999/02/22-rdf-syntax-ns#"
   xmlns:svg="http://www.w3.org/2000/svg"
   xmlns="http://www.w3.org/2000/svg"
   xmlns:xlink="http://www.w3.org/1999/xlink"
   xmlns:sodipodi="http://sodipodi.sourceforge.net/DTD/sodipodi-0.dtd"
   xmlns:inkscape="http://www.inkscape.org/namespaces/inkscape"
   width="48"
   height="48"
   viewBox="0 0 48 48"
   id="svg2"
   version="1.1"
   inkscape:version="0.91 r13725"
   sodipodi:docname="input-headset.svg"
   inkscape:export-filename="/home/peter/Documenten/shades2.png"
   inkscape:export-xdpi="360"
   inkscape:export-ydpi="360">
  <defs
     id="defs4">
    <filter
       style="color-interpolation-filters:sRGB"
       inkscape:label="Drop Shadow"
       id="filter4630">
      <feFlood
         flood-opacity="1"
         flood-color="rgb(0,0,0)"
         result="flood"
         id="feFlood4632" />
      <feComposite
         in="flood"
         in2="SourceGraphic"
         operator="in"
         result="composite1"
         id="feComposite4634" />
      <feGaussianBlur
         in="composite1"
         stdDeviation="0.5"
         result="blur"
         id="feGaussianBlur4636" />
      <feOffset
         dx="0"
         dy="0.5"
         result="offset"
         id="feOffset4638" />
      <feComposite
         in="SourceGraphic"
         in2="offset"
         operator="over"
         result="composite2"
         id="feComposite4640" />
    </filter>
    <linearGradient
       inkscape:collect="always"
       id="linearGradient4165">
      <stop
         style="stop-color:#ffffff;stop-opacity:0.15000001"
         offset="0"
         id="stop4167" />
      <stop
         style="stop-color:#177ed5;stop-opacity:0;"
         offset="1"
         id="stop4169" />
    </linearGradient>
    <linearGradient
       inkscape:collect="always"
       xlink:href="#linearGradient4165"
       id="linearGradient4171-1"
       x1="7"
       y1="1011.3622"
       x2="41.000019"
       y2="1045.3622"
       gradientUnits="userSpaceOnUse"
       gradientTransform="matrix(0.95651664,0,0,0.9565206,1.168486,44.71285)" />
  </defs>
  <sodipodi:namedview
     id="base"
     pagecolor="#565656"
     bordercolor="#666666"
     borderopacity="1.0"
     inkscape:pageopacity="0"
     inkscape:pageshadow="2"
     inkscape:zoom="11.313709"
     inkscape:cx="8.0912878"
     inkscape:cy="23.642131"
     inkscape:document-units="px"
     inkscape:current-layer="layer1"
     showgrid="true"
     units="px"
     inkscape:window-width="1920"
     inkscape:window-height="1011"
     inkscape:window-x="0"
     inkscape:window-y="0"
     inkscape:window-maximized="1"
     inkscape:showpageshadow="false"
     showguides="false">
    <inkscape:grid
       type="xygrid"
       id="grid4140" />
  </sodipodi:namedview>
  <metadata
     id="metadata7">
    <rdf:RDF>
      <cc:Work
         rdf:about="">
        <dc:format>image/svg+xml</dc:format>
        <dc:type
           rdf:resource="http://purl.org/dc/dcmitype/StillImage" />
        <dc:title></dc:title>
      </cc:Work>
    </rdf:RDF>
  </metadata>
  <g
     inkscape:label="Laag 1"
     inkscape:groupmode="layer"
     id="layer1"
     transform="translate(0,-1004.3622)">
    <path
       id="path4256"
       d="m 24,1007.3622 a 18,18 0 0 0 -18,18 l 3,0 a 15,15 0 0 1 15,-15 15,15 0 0 1 15,15 l 3,0 a 18,18 0 0 0 -18,-18 z"
       style="opacity:1;fill:#0097a7;fill-opacity:1;stroke:none;stroke-width:1.66600001;stroke-linecap:round;stroke-linejoin:round;stroke-miterlimit:4;stroke-dasharray:none;stroke-opacity:1"
       inkscape:connector-curvature="0" />
    <path
       style="opacity:1;fill:#212121;fill-opacity:1;stroke:none;stroke-width:1.66600001;stroke-linecap:round;stroke-linejoin:round;stroke-miterlimit:4;stroke-dasharray:none;stroke-opacity:1"
       d="m 24,1006.3622 a 20,20 0 0 0 -20,20 l 2,0 a 18,18 0 0 1 18,-18 18,18 0 0 1 18,18 l 2,0 a 20,20 0 0 0 -20,-20 z"
       id="path4150"
       inkscape:connector-curvature="0" />
    <path
       style="opacity:1;fill:#0097a7;fill-opacity:1;stroke:none;stroke-width:1.66600001;stroke-linecap:round;stroke-linejoin:round;stroke-miterlimit:4;stroke-dasharray:none;stroke-opacity:1"
       d="M 24 4 A 18 18 0 0 0 6 22 L 9 22 A 15 15 0 0 1 24 7 A 15 15 0 0 1 39 22 L 42 22 A 18 18 0 0 0 24 4 z "
       transform="translate(0,1004.3622)"
       id="path4157" />
    <rect
       style="opacity:1;fill:#212121;fill-opacity:1;stroke:none;stroke-width:1.66600001;stroke-linecap:round;stroke-linejoin:round;stroke-miterlimit:4;stroke-dasharray:none;stroke-opacity:1"
       id="rect4168"
       width="2"
       height="11"
       x="4"
       y="1025.3622"
       rx="1"
       ry="1" />
    <rect
       ry="1"
       rx="1"
       y="1025.3622"
       x="42"
       height="11"
       width="2"
       id="rect4170"
       style="opacity:1;fill:#212121;fill-opacity:1;stroke:none;stroke-width:1.66600001;stroke-linecap:round;stroke-linejoin:round;stroke-miterlimit:4;stroke-dasharray:none;stroke-opacity:1" />
    <rect
       ry="1.00002"
       rx="1"
       y="1031.3622"
       x="32"
       height="15"
       width="6"
       id="rect4194"
       style="opacity:1;fill:#212121;fill-opacity:1;stroke:none;stroke-width:1.66600001;stroke-linecap:round;stroke-linejoin:round;stroke-miterlimit:4;stroke-dasharray:none;stroke-opacity:1" />
    <path
       style="opacity:1;fill:#0097a7;fill-opacity:1;stroke:none;stroke-width:1.66600001;stroke-linecap:round;stroke-linejoin:round;stroke-miterlimit:4;stroke-dasharray:none;stroke-opacity:1"
       d="M 36 26 C 35.446 26 35 26.44599 35 27 L 35 42 C 35 42.55401 35.446 43 36 43 L 37 43 L 39 43 L 40 43 C 41.108 43 42 39.209 42 34.5 C 42 29.791 41.108 26 40 26 L 39 26 L 37 26 L 36 26 z "
       transform="translate(0,1004.3622)"
       id="rect4172" />
    <rect
       ry="1"
       rx="1"
       y="1029.3622"
       x="4"
       height="11"
       width="2"
       id="rect4176"
       style="opacity:1;fill:#212121;fill-opacity:1;stroke:none;stroke-width:1.66600001;stroke-linecap:round;stroke-linejoin:round;stroke-miterlimit:4;stroke-dasharray:none;stroke-opacity:1" />
    <rect
       style="opacity:1;fill:#212121;fill-opacity:1;stroke:none;stroke-width:1.66600001;stroke-linecap:round;stroke-linejoin:round;stroke-miterlimit:4;stroke-dasharray:none;stroke-opacity:1"
       id="rect4178"
       width="2"
       height="11"
       x="42"
       y="1029.3622"
       rx="1"
       ry="1" />
    <rect
       style="opacity:1;fill:#212121;fill-opacity:1;stroke:none;stroke-width:1.66600001;stroke-linecap:round;stroke-linejoin:round;stroke-miterlimit:4;stroke-dasharray:none;stroke-opacity:1"
       id="rect4192"
       width="6"
       height="15"
       x="10"
       y="1031.3622"
       rx="1"
       ry="1.00002" />
    <path
       id="path4184"
       d="m 12,1030.3622 c 0.554,0 1,0.446 1,1 l 0,15 c 0,0.554 -0.446,1 -1,1 l -1,0 -2,0 -1,0 c -1.108,0 -2,-3.791 -2,-8.5 0,-4.709 0.892,-8.5 2,-8.5 l 1,0 2,0 1,0 z"
       style="opacity:1;fill:#0097a7;fill-opacity:1;stroke:none;stroke-width:1.66600001;stroke-linecap:round;stroke-linejoin:round;stroke-miterlimit:4;stroke-dasharray:none;stroke-opacity:1"
       inkscape:connector-curvature="0" />
    <path
       style="fill:url(#linearGradient4171-1);fill-opacity:1;stroke:none;stroke-width:2;stroke-linecap:round;stroke-linejoin:round;stroke-miterlimit:4;stroke-dasharray:none;stroke-opacity:1"
       d="m 24,1006.3622 a 20,20 0 0 0 -15.974609,8 20,20 0 0 0 -4.013672,11.6641 20,20 0 0 0 -0.01172,0.3359 l 0,9 0,3 0,1 c 0,0.1156 0.02869,0.2231 0.06445,0.3262 0.01527,0.041 0.0303,0.081 0.05078,0.1191 0.02157,0.043 0.05281,0.078 0.08008,0.1172 0.07318,0.098 0.158784,0.1875 0.261719,0.2559 0.15839,0.1052 0.337769,0.1816 0.542969,0.1816 0.554,0 1,-0.446 1,-1 l 0,-0.5 0,-8.5 0,-4 2.999999,0 a 15,15 0 0 1 6.025392,-12 15,15 0 0 1 0.0039,0 15,15 0 0 1 1.210936,-0.8164 15,15 0 0 1 0.107422,-0.062 15,15 0 0 1 1.175782,-0.6328 15,15 0 0 1 0.238282,-0.1074 15,15 0 0 1 1.125,-0.4668 15,15 0 0 1 0.322265,-0.1074 15,15 0 0 1 1.080078,-0.3242 15,15 0 0 1 0.451172,-0.1016 15,15 0 0 1 0.978516,-0.1934 15,15 0 0 1 0.59375,-0.072 15,15 0 0 1 0.921875,-0.086 15,15 0 0 1 0.765625,-0.027 15,15 0 0 1 8.958984,2.9902 15,15 0 0 1 0.01172,0.01 15,15 0 0 1 6.029297,12 l 3,0 0,9 0,3.5 0,0.5 c 0,0.554 0.446,1 1,1 0.2052,0 0.38458,-0.076 0.542969,-0.1816 0.102936,-0.068 0.188535,-0.1578 0.261719,-0.2559 0.02727,-0.039 0.05851,-0.074 0.08008,-0.1172 0.02048,-0.038 0.03551,-0.078 0.05078,-0.1191 0.03576,-0.1031 0.06445,-0.2106 0.06445,-0.3262 l 0,-1 0,-8 0,-4 a 20,20 0 0 0 -4.03125,-12 20,20 0 0 0 -1.257812,-1.5137 20,20 0 0 0 -0.04883,-0.053 20,20 0 0 0 -1.34375,-1.3223 20,20 0 0 0 -0.126953,-0.1093 20,20 0 0 0 -1.412109,-1.1348 20,20 0 0 0 -0.171875,-0.1231 20,20 0 0 0 -1.451172,-0.9472 20,20 0 0 0 -0.296875,-0.1699 20,20 0 0 0 -1.421875,-0.7364 20,20 0 0 0 -0.421875,-0.1875 20,20 0 0 0 -1.388672,-0.5508 20,20 0 0 0 -0.539062,-0.1796 20,20 0 0 0 -1.300782,-0.3711 20,20 0 0 0 -0.728515,-0.1621 20,20 0 0 0 -1.183594,-0.211 20,20 0 0 0 -0.849609,-0.1035 20,20 0 0 0 -1.25586,-0.098 20,20 0 0 0 -0.76952,-0.03 z m 18,32.5 c 0,-4.709 -0.892,-8.5 -2,-8.5 l -1,0 -2,0 -1,0 c -0.554,0 -1,0.446 -1,1 l -2,0 c -0.554,0 -1,0.446 -1,1 l 0,10 0,3 c 0,0.554 0.446,1 1,1 l 2,0 c 0,0.554 0.446,1 1,1 l 1,0 2,0 1,0 c 0.06267,0 0.124384,-0.015 0.185547,-0.039 0.01958,-0.01 0.03919,-0.019 0.05859,-0.029 0.03274,-0.017 0.06544,-0.039 0.09766,-0.062 0.09124,-0.067 0.181168,-0.154 0.267578,-0.2714 9.95e-4,0 0.0029,0 0.0039,0 0.0035,0 0.0063,-0.013 0.0098,-0.018 0.07209,-0.1005 0.140856,-0.228 0.208984,-0.3614 0.068,-0.1321 0.131702,-0.2886 0.195313,-0.4511 0.03824,-0.099 0.07875,-0.1841 0.115234,-0.293 10e-4,0 0.0029,-0.01 0.0039,-0.01 0.08139,-0.244 0.158717,-0.5145 0.230469,-0.8066 0.05144,-0.2094 0.09662,-0.4421 0.142578,-0.6738 0.02498,-0.1251 0.05096,-0.2478 0.07422,-0.3789 0.04502,-0.2556 0.08682,-0.522 0.125,-0.7989 0.01553,-0.112 0.02864,-0.2284 0.04297,-0.3437 0.03775,-0.3049 0.07446,-0.614 0.103515,-0.9395 5.7e-5,-6e-4 -5.6e-5,0 0,0 0.08386,-0.94 0.134766,-1.9497 0.134766,-3.0176 z m -36,0 c 0,1.0679 0.05091,2.0776 0.134766,3.0176 5.9e-5,6e-4 -6e-5,0 0,0 0.02906,0.3255 0.06576,0.6346 0.103515,0.9395 0.01433,0.1153 0.02744,0.2317 0.04297,0.3437 0.03818,0.2769 0.07998,0.5433 0.125,0.7989 0.02326,0.1311 0.04924,0.2538 0.07422,0.3789 0.04596,0.2317 0.09114,0.4644 0.142578,0.6738 0.07282,0.2965 0.151633,0.5695 0.234375,0.8164 0.03649,0.1089 0.077,0.1945 0.115235,0.293 0.06361,0.1625 0.127307,0.319 0.195312,0.4511 0.06813,0.1334 0.136894,0.2609 0.208984,0.3614 0.0047,0.01 0.0089,0.015 0.01367,0.022 0.08641,0.1174 0.176341,0.2047 0.267579,0.2714 0.03222,0.024 0.06492,0.046 0.09766,0.062 0.0194,0.01 0.03901,0.022 0.05859,0.029 0.06116,0.024 0.122879,0.039 0.185546,0.039 l 1,0 2,0 1,0 c 0.554,0 1,-0.446 1,-1 l 2,0 c 0.554,0 1,-0.446 1,-1 l 0,-3 0,-10 c 0,-0.554 -0.446,-1 -1,-1 l -2,0 c 0,-0.554 -0.446,-1 -1,-1 l -1,0 -2,0 -1,0 c -1.108,0 -2,3.791 -2,8.5 z"
       id="circle4163-3"
       inkscape:connector-curvature="0" />
    <path
       style="opacity:1;fill:#ffffff;fill-opacity:0.2;stroke:none;stroke-width:1.66600001;stroke-linecap:round;stroke-linejoin:round;stroke-miterlimit:4;stroke-dasharray:none;stroke-opacity:1"
       d="M 24 2 A 20 20 0 0 0 4 22 L 4.0351562 22 A 20 20 0 0 1 24 3 A 20 20 0 0 1 43.949219 22 L 44 22 A 20 20 0 0 0 24 2 z "
       transform="translate(0,1004.3622)"
       id="path4240" />
    <path
       style="opacity:1;fill:#ffffff;fill-opacity:0.2;stroke:none;stroke-width:1.66600001;stroke-linecap:round;stroke-linejoin:round;stroke-miterlimit:4;stroke-dasharray:none;stroke-opacity:1"
       d="M 8 26 C 6.892 26 6 29.791 6 34.5 C 6 34.671429 6.009387 34.831143 6.0117188 35 C 6.073437 30.530504 6.9323363 27 8 27 L 9 27 L 11 27 L 12 27 C 12.554 27 13 27.446 13 28 L 13 27 C 13 26.446 12.554 26 12 26 L 11 26 L 9 26 L 8 26 z "
       transform="translate(0,1004.3622)"
       id="path4245" />
    <path
       id="path4250"
       d="m 8,1047.3622 c -1.108,0 -2,-3.791 -2,-8.5 0,-0.1714 0.00939,-0.3311 0.011719,-0.5 0.061718,4.4695 0.9206175,8 1.9882812,8 l 1,0 1.9999998,0 1,0 c 0.554,0 1,-0.446 1,-1 l 0,1 c 0,0.554 -0.446,1 -1,1 l -1,0 -1.9999998,0 -1,0 z"
       style="opacity:1;fill:#000000;fill-opacity:0.2;stroke:none;stroke-width:1.66600001;stroke-linecap:round;stroke-linejoin:round;stroke-miterlimit:4;stroke-dasharray:none;stroke-opacity:1"
       inkscape:connector-curvature="0" />
    <path
       id="path4252"
       d="m 40.000001,1030.3622 c 1.108,0 2,3.791 2,8.5 0,0.1714 -0.0094,0.3311 -0.01172,0.5 -0.06172,-4.4695 -0.920618,-8 -1.988281,-8 l -1,0 -2,0 -1,0 c -0.554,0 -1,0.446 -1,1 l 0,-1 c 0,-0.554 0.446,-1 1,-1 l 1,0 2,0 1,0 z"
       style="opacity:1;fill:#ffffff;fill-opacity:0.2;stroke:none;stroke-width:1.66600001;stroke-linecap:round;stroke-linejoin:round;stroke-miterlimit:4;stroke-dasharray:none;stroke-opacity:1"
       inkscape:connector-curvature="0" />
    <path
       inkscape:connector-curvature="0"
       style="opacity:1;fill:#000000;fill-opacity:0.2;stroke:none;stroke-width:1.66600001;stroke-linecap:round;stroke-linejoin:round;stroke-miterlimit:4;stroke-dasharray:none;stroke-opacity:1"
       d="m 40.000001,1047.3622 c 1.108,0 2,-3.791 2,-8.5 0,-0.1714 -0.0094,-0.3311 -0.01172,-0.5 -0.06172,4.4695 -0.920618,8 -1.988281,8 l -1,0 -2,0 -1,0 c -0.554,0 -1,-0.446 -1,-1 l 0,1 c 0,0.554 0.446,1 1,1 l 1,0 2,0 1,0 z"
       id="path4254" />
  </g>
</svg>
