<?xml version="1.0" encoding="UTF-8" standalone="no"?>
<svg
   xmlns:dc="http://purl.org/dc/elements/1.1/"
   xmlns:cc="http://creativecommons.org/ns#"
   xmlns:rdf="http://www.w3.org/1999/02/22-rdf-syntax-ns#"
   xmlns:svg="http://www.w3.org/2000/svg"
   xmlns="http://www.w3.org/2000/svg"
   xmlns:xlink="http://www.w3.org/1999/xlink"
   xmlns:sodipodi="http://sodipodi.sourceforge.net/DTD/sodipodi-0.dtd"
   xmlns:inkscape="http://www.inkscape.org/namespaces/inkscape"
   width="48"
   height="48"
   viewBox="0 0 48 48"
   id="svg2"
   version="1.1"
   inkscape:version="0.91 r13725"
   sodipodi:docname="preferences-system.svg">
  <metadata
     id="metadata12">
    <rdf:RDF>
      <cc:Work
         rdf:about="">
        <dc:format>image/svg+xml</dc:format>
        <dc:type
           rdf:resource="http://purl.org/dc/dcmitype/StillImage" />
        <dc:title></dc:title>
      </cc:Work>
    </rdf:RDF>
  </metadata>
  <defs
     id="defs10">
    <linearGradient
       inkscape:collect="always"
       xlink:href="#linearGradient4165"
       id="linearGradient4171-1"
       x1="7"
       y1="1011.3622"
       x2="41.000019"
       y2="1045.3622"
       gradientUnits="userSpaceOnUse"
       gradientTransform="matrix(0.95651421,0,0,0.95652174,2.0287338,-960.03014)" />
    <linearGradient
       inkscape:collect="always"
       id="linearGradient4165">
      <stop
         style="stop-color:#ffffff;stop-opacity:0.15000001"
         offset="0"
         id="stop4167" />
      <stop
         style="stop-color:#177ed5;stop-opacity:0;"
         offset="1"
         id="stop4169" />
    </linearGradient>
    <linearGradient
       inkscape:collect="always"
       xlink:href="#linearGradient4165"
       id="linearGradient4171-1-9"
       x1="7"
       y1="1011.3622"
       x2="41.000019"
       y2="1045.3622"
       gradientUnits="userSpaceOnUse"
       gradientTransform="matrix(0.65217379,0,0,0.65216874,8.3478267,-646.6654)" />
  </defs>
  <sodipodi:namedview
     pagecolor="#6d6d6d"
     bordercolor="#666666"
     borderopacity="1"
     objecttolerance="10"
     gridtolerance="10"
     guidetolerance="10"
     inkscape:pageopacity="0"
     inkscape:pageshadow="2"
     inkscape:window-width="1920"
     inkscape:window-height="1003"
     id="namedview8"
     showgrid="true"
     inkscape:zoom="55.625733"
     inkscape:cx="20.538356"
     inkscape:cy="46.94949"
     inkscape:window-x="0"
     inkscape:window-y="0"
     inkscape:window-maximized="1"
     inkscape:current-layer="svg2">
    <inkscape:grid
       type="xygrid"
       id="grid4145" />
  </sodipodi:namedview>
  <ellipse
     style="fill:#455a64;fill-opacity:1;stroke:none;stroke-width:2;stroke-linecap:round;stroke-linejoin:round;stroke-miterlimit:4;stroke-dasharray:none;stroke-opacity:1"
     id="path4136"
     cx="24.00005"
     cy="24.000069"
     rx="9.9999447"
     ry="9.9999208" />
  <path
     style="fill:#ffffff;fill-opacity:0.2;stroke:none;stroke-width:2;stroke-linecap:round;stroke-linejoin:round;stroke-miterlimit:4;stroke-dasharray:none;stroke-opacity:1"
     d="m 23.999942,14.00015 a 9.9999446,9.999921 0 0 0 -9.999944,9.999924 9.9999446,9.999921 0 0 0 0.0045,0.1332 9.9999446,9.999921 0 0 1 9.995494,-9.905826 9.9999446,9.999921 0 0 1 9.995506,9.866726 9.9999446,9.999921 0 0 0 0.0044,-0.0941 9.9999446,9.999921 0 0 0 -9.999946,-9.999926 z"
     id="circle4149"
     inkscape:connector-curvature="0" />
  <path
     inkscape:connector-curvature="0"
     id="path4155"
     d="m 23.999942,34 a 9.9999446,9.999921 0 0 1 -9.999944,-9.999926 9.9999446,9.999921 0 0 1 0.0045,-0.1332 9.9999446,9.999921 0 0 0 9.995504,9.905876 9.9999446,9.999921 0 0 0 9.995506,-9.866776 9.9999446,9.999921 0 0 1 0.0044,0.0941 A 9.9999446,9.999921 0 0 1 23.999912,34 Z"
     style="fill:#000000;fill-opacity:0.2;stroke:none;stroke-width:2;stroke-linecap:round;stroke-linejoin:round;stroke-miterlimit:4;stroke-dasharray:none;stroke-opacity:1" />
  <path
     style="fill:url(#linearGradient4171-1-9);fill-opacity:1;stroke:none;stroke-width:2;stroke-linecap:round;stroke-linejoin:round;stroke-miterlimit:4;stroke-dasharray:none;stroke-opacity:1"
     d="m 23.999998,9.000374 a 14.99984,14.999876 0 0 0 -1.289064,0.0645 14.999839,14.999876 0 0 0 -0.706946,0.08534 14.99984,14.999876 0 0 0 -0.779552,0.11842 14.999839,14.999876 0 0 0 -0.696754,0.15668 14.99984,14.999876 0 0 0 -0.751528,0.1911 14.999839,14.999876 0 0 0 -0.692937,0.230548 14.99984,14.999876 0 0 0 -0.726052,0.264972 14.999839,14.999876 0 0 0 -0.664911,0.298048 14.99984,14.999876 0 0 0 -0.687839,0.332472 14.999839,14.999876 0 0 0 -0.640711,0.366822 14.99984,14.999876 0 0 0 -0.6509,0.398698 14.999839,14.999876 0 0 0 -0.597402,0.427946 14.99984,14.999876 0 0 0 -0.608865,0.463656 14.999839,14.999876 0 0 0 -0.537533,0.471298 14.99984,14.999876 0 0 0 -0.577022,0.537294 14.999839,14.999876 0 0 0 -4.3919834,10.591944 14.999839,14.999876 0 0 0 4.2251184,10.434672 l 0.02164,0 A 14.99984,14.999876 0 0 0 23.999996,39 a 14.99984,14.999876 0 0 0 1.273775,-0.0645 14.999839,14.999876 0 0 0 0.737518,-0.08918 14.99984,14.999876 0 0 0 0.764266,-0.11588 14.999839,14.999876 0 0 0 0.696756,-0.1566 14.99984,14.999876 0 0 0 0.751528,-0.1911 14.999839,14.999876 0 0 0 0.692936,-0.230548 14.99984,14.999876 0 0 0 0.726051,-0.26505 14.999839,14.999876 0 0 0 0.664912,-0.297972 14.99984,14.999876 0 0 0 0.68784,-0.332472 14.999839,14.999876 0 0 0 0.64071,-0.366898 14.99984,14.999876 0 0 0 0.6509,-0.398622 14.999839,14.999876 0 0 0 0.597402,-0.428022 14.99984,14.999876 0 0 0 0.608866,-0.463646 14.999839,14.999876 0 0 0 0.537532,-0.471222 14.99984,14.999876 0 0 0 0.577021,-0.537596 14.999839,14.999876 0 0 0 4.391984,-10.590806 14.999839,14.999876 0 0 0 -4.226392,-10.434748 l -0.02036,0 A 14.99984,14.999876 0 0 0 24.000004,9 Z"
     id="circle4163-3-7"
     inkscape:connector-curvature="0" />
  <path
     style="fill:#78909c;fill-opacity:1"
     d="M 19.472526,2 C 18.907227,2 18.443805,2.406824 18.353357,2.923828 L 17.57599,8.271484 a 17.000472,17 0 0 0 -4.246211,2.511718 L 8.0522884,8.710938 C 7.5435189,8.523906 6.955994,8.710594 6.6733439,9.183594 L 2.151734,16.80664 c -0.28265,0.473 -0.158132,1.067206 0.2714919,1.408204 l 4.7364595,3.615234 A 17.000472,17 0 0 0 6.9995248,24 17.000472,17 0 0 0 7.1557792,26.171874 l -4.7325533,3.613282 c -0.4296275,0.33 -0.5541447,0.924204 -0.2714919,1.408202 l 4.5216099,7.623048 c 0.2826497,0.473 0.870175,0.670658 1.3789445,0.472656 L 13.323919,37.21875 a 17.000472,17 0 0 0 4.252071,2.507812 l 0.777367,5.34961 C 18.443805,45.593172 18.907227,46 19.472526,46 l 9.045175,0 c 0.565296,0 1.028723,-0.406828 1.119171,-0.923828 l 0.777364,-5.34375 a 17.000472,17 0 0 0 4.252073,-2.513672 l 5.269677,2.070312 c 0.508772,0.18698 1.096294,3.44e-4 1.378944,-0.472656 l 4.523563,-7.623048 c 0.28265,-0.473 0.1581,-1.067202 -0.271492,-1.408202 L 40.838354,26.177734 A 17.000472,17 0 0 0 41.000468,24 a 17.000472,17 0 0 0 -0.1582,-2.181642 l 4.734507,-3.603514 c 0.429628,-0.329998 0.554142,-0.924204 0.271492,-1.408204 L 41.32665,9.183594 C 41.044,8.710594 40.456476,8.512938 39.947704,8.710938 L 34.676073,10.78125 A 17.000472,17 0 0 0 30.424002,8.273438 L 29.646638,2.923828 C 29.544892,2.406824 29.082999,2 28.517701,2 l -9.045175,0 z m 4.527472,14 a 8.000222,8 0 0 1 8.00022,8 8.000222,8 0 0 1 -8.00022,8 8.000222,8 0 0 1 -8.000224,-8 8.000222,8 0 0 1 0.03906,-0.798828 A 8.000222,8 0 0 1 23.999998,16 Z"
     id="path6"
     inkscape:connector-curvature="0" />
  <path
     style="fill:#ffffff;fill-opacity:0.2"
     d="m 19.472652,2 c -0.565299,0 -1.028691,0.406824 -1.119139,0.923828 l -0.777344,5.347656 a 17.000472,17 0 0 0 -4.246093,2.511718 L 8.0527332,8.710938 C 7.5439639,8.523898 6.9564774,8.710594 6.6738273,9.183594 L 2.1523438,16.80664 c -0.151,0.25269 -0.179132,0.537948 -0.113282,0.802734 0.024638,-0.1034 0.055626,-0.20625 0.113282,-0.302734 L 6.6738273,9.683594 c 0.2826501,-0.473 0.8701366,-0.659688 1.3789059,-0.472656 l 5.2773428,2.072264 A 17.000472,17 0 0 1 17.576169,8.771484 L 18.353513,3.423828 C 18.443961,2.906824 18.907353,2.5 19.472652,2.5 l 9.044921,0 c 0.565298,0 1.027159,0.406824 1.128905,0.923828 l 0.777344,5.34961 a 17.000472,17 0 0 1 4.251953,2.507812 l 5.271483,-2.070312 c 0.508772,-0.198 1.096256,-3.44e-4 1.378906,0.472656 l 4.521483,7.623046 c 0.05784,0.09902 0.08866,0.203542 0.11328,0.308594 0.06534,-0.263976 0.03744,-0.550522 -0.11328,-0.808594 L 41.326164,9.183594 C 41.043514,8.710594 40.45603,8.512938 39.947258,8.710938 L 34.675775,10.78125 A 17.000472,17 0 0 0 30.423822,8.273438 L 29.646478,2.923828 C 29.544732,2.406824 29.082871,2 28.517573,2 l -9.044921,0 z m 21.425778,20.27539 -0.05664,0.04296 a 17.000472,17 0 0 1 0.1504,2.033204 A 17.000472,17 0 0 0 40.999992,24 17.000472,17 0 0 0 40.89843,22.27539 Z M 7.1191396,22.298828 A 17.000472,17 0 0 0 6.999999,24 17.000472,17 0 0 0 7.007819,24.1504 17.000472,17 0 0 1 7.160163,22.330088 L 7.119147,22.298828 Z M 31.990228,24.20703 A 8.000222,8 0 0 1 23.999996,32 8.000222,8 0 0 1 16.009763,24.292968 8.000222,8 0 0 0 15.999997,24.5 a 8.000222,8 0 0 0 7.999999,8 8.000222,8 0 0 0 7.999998,-8 8.000222,8 0 0 0 -0.0098,-0.29297 z m 8.88867,2.001954 a 17.000472,17 0 0 1 -0.04102,0.46875 l 4.728513,3.607422 c 0.200094,0.15882 0.32735,0.374612 0.384766,0.605468 0.09614,-0.403476 -0.0428,-0.834024 -0.384766,-1.105468 l -4.687499,-3.576172 z m -33.7792896,0.0058 -4.6757803,3.570312 c -0.3417209,0.262478 -0.4804529,0.69124 -0.3847655,1.09961 0.057202,-0.2311 0.1842179,-0.445568 0.3847655,-0.59961 L 7.156249,26.671874 a 17.000472,17 0 0 1 -0.05664,-0.45703 z"
     id="path4192"
     inkscape:connector-curvature="0" />
  <path
     id="path4197"
     d="m 19.473044,46 c -0.565299,0 -1.028691,-0.406826 -1.119139,-0.923828 L 17.57656,39.728516 a 17.000472,17 0 0 1 -4.246093,-2.51172 l -5.2773428,2.072266 c -0.5087695,0.18704 -1.096256,3.44e-4 -1.3789061,-0.472656 L 2.1527348,31.193358 c -0.151,-0.25269 -0.179132,-0.537946 -0.113282,-0.802734 0.024638,0.1034 0.055626,0.206252 0.113282,0.302734 l 4.5214833,7.623048 c 0.2826501,0.473 0.8701366,0.659688 1.3789061,0.472656 l 5.2773428,-2.072266 a 17.000472,17 0 0 0 4.246093,2.51172 l 0.777345,5.347656 C 18.444345,45.093174 18.907745,45.5 19.473044,45.5 l 9.044921,0 c 0.565298,0 1.027159,-0.406826 1.128905,-0.923828 l 0.777344,-5.34961 a 17.000472,17 0 0 0 4.251951,-2.507812 l 5.271485,2.070312 c 0.50877,0.198 1.096256,3.44e-4 1.378906,-0.472656 l 4.521483,-7.623048 c 0.05784,-0.09902 0.08868,-0.20354 0.11328,-0.308592 0.06534,0.263976 0.03744,0.550522 -0.11328,0.808592 l -4.521483,7.623048 c -0.28265,0.473 -0.870136,0.670656 -1.378906,0.472656 L 34.676165,37.21875 a 17.000472,17 0 0 1 -4.251951,2.507812 l -0.777344,5.34961 C 29.545124,45.593174 29.083263,46 28.517965,46 l -9.044921,0 z M 40.898822,25.724608 40.842182,25.68164 A 17.000472,17 0 0 0 40.992572,23.648438 17.000472,17 0 0 1 41.000384,24 17.000472,17 0 0 1 40.898822,25.724608 Z M 7.1195306,25.701172 A 17.000472,17 0 0 1 7.00039,24 a 17.000472,17 0 0 1 0.0078,-0.1504 17.000472,17 0 0 0 0.152344,1.820314 l -0.041016,0.03126 z M 31.99062,23.792968 A 8.000222,8 0 0 0 24.000388,16 8.000222,8 0 0 0 16.010154,23.70703 8.000222,8 0 0 1 16.000388,23.5 a 8.000222,8 0 0 1 8,-8 8.000222,8 0 0 1 7.999998,8 8.000222,8 0 0 1 -0.0098,0.292968 z m 8.88867,-2.001952 a 17.000472,17 0 0 0 -0.04102,-0.46875 l 4.728513,-3.607422 c 0.200094,-0.15882 0.32735,-0.374612 0.384766,-0.60547 0.09614,0.403476 -0.0428,0.834026 -0.384766,1.10547 l -4.687499,3.576172 z M 7.0999994,21.785156 2.4242189,18.214844 C 2.082498,17.952364 1.943766,17.523606 2.0394534,17.115234 c 0.057202,0.231098 0.1842179,0.445566 0.3847655,0.59961 l 4.7324211,3.61328 a 17.000472,17 0 0 0 -0.056641,0.457032 z"
     style="fill:#000000;fill-opacity:0.2"
     inkscape:connector-curvature="0" />
  <path
     style="fill:url(#linearGradient4171-1);fill-opacity:1;stroke:none;stroke-width:2;stroke-linecap:round;stroke-linejoin:round;stroke-miterlimit:4;stroke-dasharray:none;stroke-opacity:1"
     d="m 19.472652,2 c -0.565299,0 -1.028691,0.406824 -1.119139,0.923828 l -0.777344,5.347656 a 17.000472,17 0 0 0 -4.246093,2.511718 L 8.0527332,8.710938 C 7.5439639,8.523898 6.9564774,8.710594 6.6738273,9.183594 L 2.1523438,16.80664 c -0.28265,0.473 -0.15814,1.067206 0.2714843,1.408204 l 4.7363271,3.615234 A 17.000472,17 0 0 0 6.999999,24 a 17.000472,17 0 0 0 0.15625,2.171874 l -4.7324209,3.613282 c -0.4296275,0.33 -0.5541371,0.924204 -0.2714843,1.408202 l 4.5214835,7.623048 c 0.2826497,0.473 0.8701366,0.670658 1.3789059,0.472656 L 13.324217,37.21875 a 17.000472,17 0 0 0 4.251952,2.507812 l 0.777344,5.34961 C 18.443961,45.593172 18.907353,46 19.472652,46 l 9.044921,0 c 0.565298,0 1.028693,-0.406828 1.119141,-0.923828 l 0.777342,-5.34375 a 17.000472,17 0 0 0 4.251953,-2.513672 l 5.269531,2.070312 c 0.508772,0.18698 1.096256,3.44e-4 1.378906,-0.472656 l 4.523437,-7.623048 c 0.28265,-0.473 0.15812,-1.067202 -0.271486,-1.408202 L 40.837884,26.177734 A 17.000472,17 0 0 0 40.999992,24 a 17.000472,17 0 0 0 -0.1582,-2.181642 l 4.734373,-3.603514 c 0.429628,-0.329998 0.554134,-0.924204 0.271484,-1.408204 L 41.326164,9.183594 C 41.043514,8.710594 40.45603,8.512938 39.947258,8.710938 L 34.675775,10.78125 A 17.000472,17 0 0 0 30.423822,8.273438 L 29.646478,2.923828 C 29.544732,2.406824 29.082871,2 28.517573,2 l -9.044921,0 z m 4.527344,14 a 8.000222,8 0 0 1 7.999998,8 8.000222,8 0 0 1 -7.999998,8 8.000222,8 0 0 1 -7.999999,-8 8.000222,8 0 0 1 0.03906,-0.798828 A 8.000222,8 0 0 1 23.999996,16 Z"
     id="circle4163-3"
     inkscape:connector-curvature="0" />
</svg>
