<?xml version="1.0" encoding="UTF-8" standalone="no"?>
<!-- Created with Inkscape (http://www.inkscape.org/) -->

<svg
   xmlns:dc="http://purl.org/dc/elements/1.1/"
   xmlns:cc="http://creativecommons.org/ns#"
   xmlns:rdf="http://www.w3.org/1999/02/22-rdf-syntax-ns#"
   xmlns:svg="http://www.w3.org/2000/svg"
   xmlns="http://www.w3.org/2000/svg"
   xmlns:xlink="http://www.w3.org/1999/xlink"
   xmlns:sodipodi="http://sodipodi.sourceforge.net/DTD/sodipodi-0.dtd"
   xmlns:inkscape="http://www.inkscape.org/namespaces/inkscape"
   width="48"
   height="48"
   viewBox="0 0 48 48.000001"
   id="svg2"
   version="1.1"
   inkscape:version="0.91 r13725"
   sodipodi:docname="preferences-desktop-locale.svg"
   inkscape:export-filename="/home/poltertec/Downloads/testikel2.png"
   inkscape:export-xdpi="360"
   inkscape:export-ydpi="360">
  <defs
     id="defs4">
    <filter
       style="color-interpolation-filters:sRGB"
       inkscape:label="Drop Shadow"
       id="filter4630">
      <feFlood
         flood-opacity="1"
         flood-color="rgb(0,0,0)"
         result="flood"
         id="feFlood4632" />
      <feComposite
         in="flood"
         in2="SourceGraphic"
         operator="in"
         result="composite1"
         id="feComposite4634" />
      <feGaussianBlur
         in="composite1"
         stdDeviation="0.5"
         result="blur"
         id="feGaussianBlur4636" />
      <feOffset
         dx="0"
         dy="0.5"
         result="offset"
         id="feOffset4638" />
      <feComposite
         in="SourceGraphic"
         in2="offset"
         operator="over"
         result="composite2"
         id="feComposite4640" />
    </filter>
    <linearGradient
       inkscape:collect="always"
       id="linearGradient4165">
      <stop
         style="stop-color:#ffffff;stop-opacity:0.15000001"
         offset="0"
         id="stop4167" />
      <stop
         style="stop-color:#177ed5;stop-opacity:0;"
         offset="1"
         id="stop4169" />
    </linearGradient>
    <linearGradient
       inkscape:collect="always"
       xlink:href="#linearGradient4165"
       id="linearGradient4171-1"
       x1="7"
       y1="1011.3622"
       x2="41.000019"
       y2="1045.3622"
       gradientUnits="userSpaceOnUse"
       gradientTransform="matrix(0.95652174,0,0,0.95652174,1.04348,44.711663)" />
  </defs>
  <sodipodi:namedview
     id="base"
     pagecolor="#000000"
     bordercolor="#666666"
     borderopacity="1.0"
     inkscape:pageopacity="0"
     inkscape:pageshadow="2"
     inkscape:zoom="8.0000004"
     inkscape:cx="-6.6789211"
     inkscape:cy="22.423219"
     inkscape:document-units="px"
     inkscape:current-layer="layer1"
     showgrid="true"
     units="px"
     inkscape:window-width="960"
     inkscape:window-height="688"
     inkscape:window-x="292"
     inkscape:window-y="314"
     inkscape:window-maximized="0"
     inkscape:showpageshadow="false">
    <inkscape:grid
       type="xygrid"
       id="grid4140" />
  </sodipodi:namedview>
  <metadata
     id="metadata7">
    <rdf:RDF>
      <cc:Work
         rdf:about="">
        <dc:format>image/svg+xml</dc:format>
        <dc:type
           rdf:resource="http://purl.org/dc/dcmitype/StillImage" />
        <dc:title />
      </cc:Work>
    </rdf:RDF>
  </metadata>
  <g
     inkscape:label="Laag 1"
     inkscape:groupmode="layer"
     id="layer1"
     transform="translate(0,-1004.3622)">
    <circle
       style="fill:#dedede;fill-opacity:1;stroke:none;stroke-width:2;stroke-linecap:round;stroke-linejoin:round;stroke-miterlimit:4;stroke-dasharray:none;stroke-opacity:1"
       id="path4136"
       cx="24.000235"
       cy="1028.3622"
       r="22" />
    <path
       style="fill:url(#linearGradient4171-1);fill-opacity:1;stroke:none;stroke-width:2;stroke-linecap:round;stroke-linejoin:round;stroke-miterlimit:4;stroke-dasharray:none;stroke-opacity:1"
       d="m 24.000001,1006.3624 a 21.99977,21.999992 0 0 0 -1.890625,0.095 21.999769,21.999992 0 0 0 -1.036855,0.1252 21.99977,21.999992 0 0 0 -1.143342,0.1737 21.999769,21.999992 0 0 0 -1.021909,0.2298 21.99977,21.999992 0 0 0 -1.102241,0.2803 21.999769,21.999992 0 0 0 -1.016305,0.3381 21.99977,21.999992 0 0 0 -1.064878,0.3886 21.999769,21.999992 0 0 0 -0.975204,0.4372 21.99977,21.999992 0 0 0 -1.008831,0.4876 21.999769,21.999992 0 0 0 -0.939708,0.538 21.99977,21.999992 0 0 0 -0.954653,0.5848 21.999769,21.999992 0 0 0 -0.87619,0.6277 21.99977,21.999992 0 0 0 -0.893003,0.68 21.999769,21.999992 0 0 0 -0.788383,0.6912 21.99977,21.999992 0 0 0 -0.846298,0.7881 A 21.999769,21.999992 0 0 0 2,1028.3622 a 21.999769,21.999992 0 0 0 6.196841,15.3043 l 0.03176,0 a 21.99977,21.999992 0 0 0 15.771401,6.6957 21.99977,21.999992 0 0 0 1.868207,-0.094 21.999769,21.999992 0 0 0 1.081691,-0.1308 21.99977,21.999992 0 0 0 1.120924,-0.17 21.999769,21.999992 0 0 0 1.021909,-0.2297 21.99977,21.999992 0 0 0 1.102241,-0.2803 21.999769,21.999992 0 0 0 1.016305,-0.3381 21.99977,21.999992 0 0 0 1.064878,-0.3887 21.999769,21.999992 0 0 0 0.975204,-0.4371 21.99977,21.999992 0 0 0 1.008831,-0.4876 21.999769,21.999992 0 0 0 0.939708,-0.5381 21.99977,21.999992 0 0 0 0.954653,-0.5847 21.999769,21.999992 0 0 0 0.87619,-0.6277 21.99977,21.999992 0 0 0 0.893003,-0.68 21.999769,21.999992 0 0 0 0.788382,-0.6912 21.99977,21.999992 0 0 0 0.846298,-0.7885 21.999769,21.999992 0 0 0 6.441576,-15.5333 21.999769,21.999992 0 0 0 -6.198709,-15.3044 l -0.02989,0 A 21.99977,21.999992 0 0 0 24,1006.3624 Z"
       id="circle4163-3"
       inkscape:connector-curvature="0" />
    <path
       style="fill:#ffffff;fill-opacity:0.2;stroke:none;stroke-width:2;stroke-linecap:round;stroke-linejoin:round;stroke-miterlimit:4;stroke-dasharray:none;stroke-opacity:1"
       d="m 24,1006.3622 a 22,22 0 0 0 -22,22 22,22 0 0 0 0.021484,0.5859 A 22,22 0 0 1 24,1007.3622 22,22 0 0 1 45.978516,1028.7763 22,22 0 0 0 46,1028.3622 a 22,22 0 0 0 -22,-22 z"
       id="circle4150"
       inkscape:connector-curvature="0" />
    <path
       id="path4155"
       d="m 24,1050.3622 a 22,22 0 0 1 -22,-22 22,22 0 0 1 0.021484,-0.5859 A 22,22 0 0 0 24,1049.3622 a 22,22 0 0 0 21.978516,-21.414 22,22 0 0 1 0.02148,0.414 22,22 0 0 1 -22,22 z"
       style="fill:#000000;fill-opacity:0.2;stroke:none;stroke-width:2;stroke-linecap:round;stroke-linejoin:round;stroke-miterlimit:4;stroke-dasharray:none;stroke-opacity:1"
       inkscape:connector-curvature="0" />
    <path
       inkscape:connector-curvature="0"
       d="m 24.985,1014.3622 c -8.28,0 -14.985,6.72 -14.985,15 0,8.28 6.705,15 14.985,15 8.295,0 15.015,-6.72 15.015,-15 0,-8.28 -6.72,-15 -15.015,-15 z m 10.395,9 -4.425,0 c -0.48,-1.875 -1.17,-3.675 -2.07,-5.34 2.76,0.945 5.055,2.865 6.495,5.34 z m -10.38,-5.94 c 1.245,1.8 2.22,3.795 2.865,5.94 l -5.73,0 c 0.645,-2.145 1.62,-4.14 2.865,-5.94 z m -11.61,14.94 c -0.24,-0.96 -0.39,-1.965 -0.39,-3 0,-1.035 0.15,-2.04 0.39,-3 l 5.07,0 c -0.12,0.99 -0.21,1.98 -0.21,3 0,1.02 0.09,2.01 0.21,3 l -5.07,0 z m 1.23,3 4.425,0 c 0.48,1.875 1.17,3.675 2.07,5.34 -2.76,-0.945 -5.055,-2.85 -6.495,-5.34 z m 4.425,-12 -4.425,0 c 1.44,-2.49 3.735,-4.395 6.495,-5.34 -0.9,1.665 -1.59,3.465 -2.07,5.34 z m 5.955,17.94 c -1.245,-1.8 -2.22,-3.795 -2.865,-5.94 l 5.73,0 c -0.645,2.145 -1.62,4.14 -2.865,5.94 z m 3.51,-8.94 -7.02,0 c -0.135,-0.99 -0.24,-1.98 -0.24,-3 0,-1.02 0.105,-2.025 0.24,-3 l 7.02,0 c 0.135,0.975 0.24,1.98 0.24,3 0,1.02 -0.105,2.01 -0.24,3 z m 0.375,8.34 c 0.9,-1.665 1.59,-3.465 2.07,-5.34 l 4.425,0 c -1.44,2.475 -3.735,4.395 -6.495,5.34 z m 2.655,-8.34 c 0.12,-0.99 0.21,-1.98 0.21,-3 0,-1.02 -0.09,-2.01 -0.21,-3 l 5.07,0 c 0.24,0.96 0.39,1.965 0.39,3 0,1.035 -0.15,2.04 -0.39,3 l -5.07,0 z"
       id="path4-2"
       style="fill:#000000;fill-opacity:0.2" />
    <path
       style="fill:#1976d2;fill-opacity:1"
       id="path4156"
       d="m 23.985,1013.3622 c -8.28,0 -14.985,6.72 -14.985,15 0,8.28 6.705,15 14.985,15 8.295,0 15.015,-6.72 15.015,-15 0,-8.28 -6.72,-15 -15.015,-15 z m 10.395,9 -4.425,0 c -0.48,-1.875 -1.17,-3.675 -2.07,-5.34 2.76,0.945 5.055,2.865 6.495,5.34 z m -10.38,-5.94 c 1.245,1.8 2.22,3.795 2.865,5.94 l -5.73,0 c 0.645,-2.145 1.62,-4.14 2.865,-5.94 z m -11.61,14.94 c -0.24,-0.96 -0.39,-1.965 -0.39,-3 0,-1.035 0.15,-2.04 0.39,-3 l 5.07,0 c -0.12,0.99 -0.21,1.98 -0.21,3 0,1.02 0.09,2.01 0.21,3 l -5.07,0 z m 1.23,3 4.425,0 c 0.48,1.875 1.17,3.675 2.07,5.34 -2.76,-0.945 -5.055,-2.85 -6.495,-5.34 z m 4.425,-12 -4.425,0 c 1.44,-2.49 3.735,-4.395 6.495,-5.34 -0.9,1.665 -1.59,3.465 -2.07,5.34 z m 5.955,17.94 c -1.245,-1.8 -2.22,-3.795 -2.865,-5.94 l 5.73,0 c -0.645,2.145 -1.62,4.14 -2.865,5.94 z m 3.51,-8.94 -7.02,0 c -0.135,-0.99 -0.24,-1.98 -0.24,-3 0,-1.02 0.105,-2.025 0.24,-3 l 7.02,0 c 0.135,0.975 0.24,1.98 0.24,3 0,1.02 -0.105,2.01 -0.24,3 z m 0.375,8.34 c 0.9,-1.665 1.59,-3.465 2.07,-5.34 l 4.425,0 c -1.44,2.475 -3.735,4.395 -6.495,5.34 z m 2.655,-8.34 c 0.12,-0.99 0.21,-1.98 0.21,-3 0,-1.02 -0.09,-2.01 -0.21,-3 l 5.07,0 c 0.24,0.96 0.39,1.965 0.39,3 0,1.035 -0.15,2.04 -0.39,3 l -5.07,0 z"
       inkscape:connector-curvature="0" />
  </g>
</svg>
