<?xml version="1.0" encoding="UTF-8" standalone="no"?>
<!-- Created with Inkscape (http://www.inkscape.org/) -->

<svg
   xmlns:dc="http://purl.org/dc/elements/1.1/"
   xmlns:cc="http://creativecommons.org/ns#"
   xmlns:rdf="http://www.w3.org/1999/02/22-rdf-syntax-ns#"
   xmlns:svg="http://www.w3.org/2000/svg"
   xmlns="http://www.w3.org/2000/svg"
   xmlns:xlink="http://www.w3.org/1999/xlink"
   xmlns:sodipodi="http://sodipodi.sourceforge.net/DTD/sodipodi-0.dtd"
   xmlns:inkscape="http://www.inkscape.org/namespaces/inkscape"
   width="48"
   height="48"
   viewBox="0 0 48 48"
   id="svg2"
   version="1.1"
   inkscape:version="0.91 r13725"
   sodipodi:docname="redhat-programming.svg"
   inkscape:export-filename="/home/poltertec/Downloads/testikel2.png"
   inkscape:export-xdpi="360"
   inkscape:export-ydpi="360">
  <defs
     id="defs4">
    <filter
       style="color-interpolation-filters:sRGB"
       inkscape:label="Drop Shadow"
       id="filter4630">
      <feFlood
         flood-opacity="1"
         flood-color="rgb(0,0,0)"
         result="flood"
         id="feFlood4632" />
      <feComposite
         in="flood"
         in2="SourceGraphic"
         operator="in"
         result="composite1"
         id="feComposite4634" />
      <feGaussianBlur
         in="composite1"
         stdDeviation="0.5"
         result="blur"
         id="feGaussianBlur4636" />
      <feOffset
         dx="0"
         dy="0.5"
         result="offset"
         id="feOffset4638" />
      <feComposite
         in="SourceGraphic"
         in2="offset"
         operator="over"
         result="composite2"
         id="feComposite4640" />
    </filter>
    <linearGradient
       inkscape:collect="always"
       id="linearGradient4165">
      <stop
         style="stop-color:#ffffff;stop-opacity:0.15000001"
         offset="0"
         id="stop4167" />
      <stop
         style="stop-color:#177ed5;stop-opacity:0;"
         offset="1"
         id="stop4169" />
    </linearGradient>
    <linearGradient
       y2="258.86539"
       x2="187.94679"
       y1="123.8594"
       x1="187.94679"
       gradientUnits="userSpaceOnUse"
       id="XMLID_2_"
       gradientTransform="matrix(0.22888795,0,0,0.2288814,-19.019719,984.84395)">
      <stop
         id="stop2308"
         style="stop-color: rgb(191, 0, 0);"
         offset="0" />
      <stop
         id="stop2310"
         style="stop-color: rgb(143, 0, 0);"
         offset="1" />
    </linearGradient>
    <linearGradient
       id="linearGradient4151"
       gradientUnits="userSpaceOnUse"
       x1="187.94679"
       y1="123.8594"
       x2="187.94679"
       y2="258.86539">
      <stop
         offset="0"
         style="stop-color: rgb(191, 0, 0);"
         id="stop4153" />
      <stop
         offset="1"
         style="stop-color: rgb(143, 0, 0);"
         id="stop4155" />
    </linearGradient>
    <linearGradient
       inkscape:collect="always"
       xlink:href="#linearGradient4165"
       id="linearGradient4171-1-5"
       x1="7"
       y1="1011.3622"
       x2="41.000019"
       y2="1045.3622"
       gradientUnits="userSpaceOnUse"
       gradientTransform="matrix(0.95652174,0,0,0.95652174,1.04348,44.71168)" />
  </defs>
  <sodipodi:namedview
     id="base"
     pagecolor="#565656"
     bordercolor="#666666"
     borderopacity="1.0"
     inkscape:pageopacity="0"
     inkscape:pageshadow="2"
     inkscape:zoom="5.6568545"
     inkscape:cx="-26.456616"
     inkscape:cy="8.8061375"
     inkscape:document-units="px"
     inkscape:current-layer="layer1"
     showgrid="true"
     units="px"
     inkscape:window-width="1920"
     inkscape:window-height="1003"
     inkscape:window-x="0"
     inkscape:window-y="0"
     inkscape:window-maximized="1"
     inkscape:showpageshadow="false"
     showguides="false">
    <inkscape:grid
       type="xygrid"
       id="grid4140" />
  </sodipodi:namedview>
  <metadata
     id="metadata7">
    <rdf:RDF>
      <cc:Work
         rdf:about="">
        <dc:format>image/svg+xml</dc:format>
        <dc:type
           rdf:resource="http://purl.org/dc/dcmitype/StillImage" />
        <dc:title />
      </cc:Work>
    </rdf:RDF>
  </metadata>
  <g
     inkscape:label="Laag 1"
     inkscape:groupmode="layer"
     id="layer1"
     transform="translate(0,-1004.3622)">
    <circle
       style="fill:#0288d1;fill-opacity:1;stroke:none;stroke-width:2;stroke-linecap:round;stroke-linejoin:round;stroke-miterlimit:4;stroke-dasharray:none;stroke-opacity:1"
       id="path4136"
       cx="24.000237"
       cy="1028.3622"
       r="22" />
    <path
       style="fill:url(#linearGradient4171-1-5);fill-opacity:1;stroke:none;stroke-width:2;stroke-linecap:round;stroke-linejoin:round;stroke-miterlimit:4;stroke-dasharray:none;stroke-opacity:1"
       d="m 24.000001,1006.3624 a 21.99977,21.999992 0 0 0 -1.890625,0.095 21.999769,21.999992 0 0 0 -1.036855,0.1252 21.99977,21.999992 0 0 0 -1.143342,0.1737 21.999769,21.999992 0 0 0 -1.021909,0.2298 21.99977,21.999992 0 0 0 -1.102241,0.2803 21.999769,21.999992 0 0 0 -1.016305,0.3381 21.99977,21.999992 0 0 0 -1.064878,0.3886 21.999769,21.999992 0 0 0 -0.975205,0.4372 21.99977,21.999992 0 0 0 -1.00883,0.4876 21.999769,21.999992 0 0 0 -0.939708,0.538 21.99977,21.999992 0 0 0 -0.954653,0.5848 21.999769,21.999992 0 0 0 -0.87619,0.6277 21.99977,21.999992 0 0 0 -0.893003,0.68 21.999769,21.999992 0 0 0 -0.7883829,0.6912 21.99977,21.999992 0 0 0 -0.8462981,0.7881 A 21.999769,21.999992 0 0 0 2,1028.3622 a 21.999769,21.999992 0 0 0 6.196841,15.3043 l 0.03176,0 a 21.99977,21.999992 0 0 0 15.771401,6.6957 21.99977,21.999992 0 0 0 1.868207,-0.094 21.999769,21.999992 0 0 0 1.081691,-0.1308 21.99977,21.999992 0 0 0 1.120924,-0.17 21.999769,21.999992 0 0 0 1.021909,-0.2297 21.99977,21.999992 0 0 0 1.102241,-0.2803 21.999769,21.999992 0 0 0 1.016305,-0.3381 21.99977,21.999992 0 0 0 1.064878,-0.3887 21.999769,21.999992 0 0 0 0.975204,-0.4371 21.99977,21.999992 0 0 0 1.008831,-0.4876 21.999769,21.999992 0 0 0 0.939708,-0.5381 21.99977,21.999992 0 0 0 0.954653,-0.5847 21.999769,21.999992 0 0 0 0.87619,-0.6277 21.99977,21.999992 0 0 0 0.893003,-0.68 21.999769,21.999992 0 0 0 0.788382,-0.6912 21.99977,21.999992 0 0 0 0.846298,-0.7885 21.999769,21.999992 0 0 0 6.441577,-15.5333 21.999769,21.999992 0 0 0 -6.198709,-15.3044 l -0.02989,0 a 21.99977,21.999992 0 0 0 -15.771403,-6.6956 z"
       id="circle4163-3-4"
       inkscape:connector-curvature="0" />
    <path
       inkscape:connector-curvature="0"
       style="fill:#ffffff;fill-opacity:0.2;stroke:none;stroke-width:2;stroke-linecap:round;stroke-linejoin:round;stroke-miterlimit:4;stroke-dasharray:none;stroke-opacity:1"
       d="m 24,1006.3622 a 22,22 0 0 0 -22,22 22,22 0 0 0 0.02148,0.586 22,22 0 0 1 21.9785191,-21.586 22,22 0 0 1 21.978517,21.4141 22,22 0 0 0 0.02148,-0.4141 22,22 0 0 0 -22.000001,-22 z"
       id="circle4149" />
    <path
       id="path4154"
       d="m 24,1050.3622 a 22,22 0 0 1 -22,-22 22,22 0 0 1 0.02148,-0.5859 22,22 0 0 0 21.9785191,21.5859 22,22 0 0 0 21.978517,-21.4141 22,22 0 0 1 0.02148,0.4141 22,22 0 0 1 -22.000001,22 z"
       style="fill:#000000;fill-opacity:0.2;stroke:none;stroke-width:2;stroke-linecap:round;stroke-linejoin:round;stroke-miterlimit:4;stroke-dasharray:none;stroke-opacity:1"
       inkscape:connector-curvature="0" />
    <path
       d="m 25.509985,1027.0449 c 0.028,-0.224 0.04901,-0.4515 0.04901,-0.6825 0,-0.231 -0.021,-0.4585 -0.04901,-0.6825 l 1.4805,-1.1585 c 0.133,-0.105 0.1715,-0.294 0.084,-0.448 l -1.4,-2.4255 c -0.0875,-0.1505 -0.2695,-0.2135 -0.427,-0.1505 l -1.743,0.7035 c -0.3605,-0.2765 -0.756,-0.511 -1.182999,-0.6895 l -0.2625,-1.855 c -0.0315,-0.1645 -0.175001,-0.294 -0.35,-0.294 l -2.8,0 c -0.175,0 -0.3185,0.1295 -0.3465,0.294 l -0.2625,1.855 c -0.427,0.1785 -0.8225,0.4095 -1.183,0.6895 l -1.743,-0.7035 c -0.1575,-0.06 -0.3395,0 -0.427,0.1505 l -1.4,2.4255 c -0.0875,0.1505 -0.049,0.3395 0.084,0.448 l 1.477,1.1585 c -0.028,0.224 -0.049,0.4515 -0.049,0.6825 0,0.231 0.021,0.4585 0.049,0.6825 l -1.477001,1.1585 c -0.132999,0.105 -0.171499,0.294 -0.084,0.448 l 1.4,2.4255 c 0.0875,0.1505 0.269501,0.2135 0.427,0.1505 l 1.743001,-0.7035 c 0.360499,0.2765 0.755999,0.511 1.182999,0.6895 l 0.2625,1.855 c 0.028,0.1645 0.1715,0.294 0.3465,0.294 l 2.800001,0 c 0.174999,0 0.318499,-0.1295 0.346499,-0.294 l 0.2625,-1.855 c 0.427001,-0.1785 0.8225,-0.4095 1.183,-0.6895 l 1.743,0.7035 c 0.157501,0.059 0.3395,0 0.427,-0.1505 l 1.400001,-2.4255 c 0.0875,-0.1505 0.04899,-0.3395 -0.084,-0.448 l -1.477,-1.1585 z m -5.200999,1.7675 c -1.3545,0 -2.45,-1.0955 -2.45,-2.45 0,-1.3545 1.0955,-2.45 2.45,-2.45 1.3545,0 2.449999,1.0955 2.449999,2.45 0,1.3545 -1.095499,2.45 -2.449999,2.45 z"
       id="path6"
       inkscape:connector-curvature="0"
       style="fill:#000000;fill-opacity:0.2" />
    <path
       style="fill:#000000;fill-opacity:0.2"
       inkscape:connector-curvature="0"
       id="path4162"
       d="m 29.504992,1036.2037 c 0.014,-0.112 0.0245,-0.2258 0.0245,-0.3413 0,-0.1155 -0.0105,-0.2292 -0.0245,-0.3412 l 0.74025,-0.5793 c 0.0665,-0.053 0.08575,-0.147 0.042,-0.224 l -0.7,-1.2127 c -0.04375,-0.075 -0.13475,-0.1068 -0.2135,-0.075 l -0.8715,0.3518 c -0.18025,-0.1383 -0.378,-0.2555 -0.591499,-0.3448 l -0.13125,-0.9275 c -0.01575,-0.082 -0.0875,-0.147 -0.175,-0.147 l -1.4,0 c -0.0875,0 -0.15925,0.065 -0.17325,0.147 l -0.13125,0.9275 c -0.2135,0.089 -0.41125,0.2048 -0.5915,0.3448 l -0.8715,-0.3518 c -0.07875,-0.03 -0.16975,0 -0.2135,0.075 l -0.7,1.2127 c -0.04375,0.075 -0.0245,0.1698 0.042,0.224 l 0.7385,0.5793 c -0.014,0.112 -0.0245,0.2257 -0.0245,0.3412 0,0.1155 0.0105,0.2293 0.0245,0.3413 l -0.738501,0.5792 c -0.0665,0.053 -0.08575,0.147 -0.042,0.224 l 0.7,1.2128 c 0.04375,0.075 0.134751,0.1067 0.2135,0.075 l 0.871501,-0.3517 c 0.180249,0.1382 0.377999,0.2555 0.591499,0.3447 l 0.13125,0.9275 c 0.014,0.082 0.08575,0.147 0.17325,0.147 l 1.400001,0 c 0.0875,0 0.159249,-0.065 0.173249,-0.147 l 0.13125,-0.9275 c 0.213501,-0.089 0.41125,-0.2047 0.5915,-0.3447 l 0.8715,0.3517 c 0.07875,0.03 0.16975,0 0.2135,-0.075 l 0.700001,-1.2128 c 0.04375,-0.075 0.02449,-0.1697 -0.042,-0.224 l -0.7385,-0.5792 z m -2.600499,0.8837 c -0.67725,0 -1.225,-0.5477 -1.225,-1.225 0,-0.6772 0.54775,-1.225 1.225,-1.225 0.67725,0 1.224999,0.5477 1.224999,1.225 0,0.6772 -0.547749,1.225 -1.224999,1.225 z" />
    <path
       d="m 35.504992,1028.2037 c 0.014,-0.112 0.0245,-0.2258 0.0245,-0.3413 0,-0.1155 -0.0105,-0.2292 -0.0245,-0.3412 l 0.74025,-0.5793 c 0.0665,-0.053 0.08575,-0.147 0.042,-0.224 l -0.7,-1.2127 c -0.04375,-0.075 -0.13475,-0.1068 -0.2135,-0.075 l -0.8715,0.3518 c -0.18025,-0.1383 -0.378,-0.2555 -0.591499,-0.3448 l -0.13125,-0.9275 c -0.01575,-0.082 -0.0875,-0.147 -0.175,-0.147 l -1.4,0 c -0.0875,0 -0.15925,0.065 -0.17325,0.147 l -0.13125,0.9275 c -0.2135,0.089 -0.41125,0.2048 -0.5915,0.3448 l -0.8715,-0.3518 c -0.07875,-0.03 -0.16975,0 -0.2135,0.075 l -0.7,1.2127 c -0.04375,0.075 -0.0245,0.1698 0.042,0.224 l 0.7385,0.5793 c -0.014,0.112 -0.0245,0.2257 -0.0245,0.3412 0,0.1155 0.0105,0.2293 0.0245,0.3413 l -0.738501,0.5792 c -0.0665,0.053 -0.08575,0.147 -0.042,0.224 l 0.7,1.2128 c 0.04375,0.075 0.134751,0.1067 0.2135,0.075 l 0.871501,-0.3517 c 0.180249,0.1382 0.377999,0.2555 0.591499,0.3447 l 0.13125,0.9275 c 0.014,0.082 0.08575,0.147 0.17325,0.147 l 1.400001,0 c 0.0875,0 0.159249,-0.065 0.173249,-0.147 l 0.13125,-0.9275 c 0.213501,-0.089 0.41125,-0.2047 0.5915,-0.3447 l 0.8715,0.3517 c 0.07875,0.03 0.16975,0 0.2135,-0.075 l 0.700001,-1.2128 c 0.04375,-0.075 0.02449,-0.1697 -0.042,-0.224 l -0.7385,-0.5792 z m -2.600499,0.8837 c -0.67725,0 -1.225,-0.5477 -1.225,-1.225 0,-0.6772 0.54775,-1.225 1.225,-1.225 0.67725,0 1.224999,0.5477 1.224999,1.225 0,0.6772 -0.547749,1.225 -1.224999,1.225 z"
       id="path4164"
       inkscape:connector-curvature="0"
       style="fill:#000000;fill-opacity:0.2" />
    <path
       style="fill:#f7fafd;fill-opacity:1"
       inkscape:connector-curvature="0"
       id="path4166"
       d="m 24.509985,1026.0449 c 0.028,-0.224 0.04901,-0.4515 0.04901,-0.6825 0,-0.231 -0.021,-0.4585 -0.04901,-0.6825 l 1.4805,-1.1585 c 0.133,-0.105 0.1715,-0.294 0.084,-0.448 l -1.4,-2.4255 c -0.0875,-0.1505 -0.2695,-0.2135 -0.427,-0.1505 l -1.743,0.7035 c -0.3605,-0.2765 -0.756,-0.511 -1.182999,-0.6895 l -0.2625,-1.855 c -0.0315,-0.1645 -0.175001,-0.294 -0.35,-0.294 l -2.8,0 c -0.175,0 -0.3185,0.1295 -0.3465,0.294 l -0.2625,1.855 c -0.427,0.1785 -0.8225,0.4095 -1.183,0.6895 l -1.743,-0.7035 c -0.1575,-0.06 -0.3395,0 -0.427,0.1505 l -1.4,2.4255 c -0.0875,0.1505 -0.049,0.3395 0.084,0.448 l 1.477,1.1585 c -0.028,0.224 -0.049,0.4515 -0.049,0.6825 0,0.231 0.021,0.4585 0.049,0.6825 l -1.477001,1.1585 c -0.132999,0.105 -0.171499,0.294 -0.084,0.448 l 1.4,2.4255 c 0.0875,0.1505 0.269501,0.2135 0.427,0.1505 l 1.743001,-0.7035 c 0.360499,0.2765 0.755999,0.511 1.182999,0.6895 l 0.2625,1.855 c 0.028,0.1645 0.1715,0.294 0.3465,0.294 l 2.800001,0 c 0.174999,0 0.318499,-0.1295 0.346499,-0.294 l 0.2625,-1.855 c 0.427001,-0.1785 0.8225,-0.4095 1.183,-0.6895 l 1.743,0.7035 c 0.157501,0.059 0.3395,0 0.427,-0.1505 l 1.400001,-2.4255 c 0.0875,-0.1505 0.04899,-0.3395 -0.084,-0.448 l -1.477,-1.1585 z m -5.200999,1.7675 c -1.3545,0 -2.45,-1.0955 -2.45,-2.45 0,-1.3545 1.0955,-2.45 2.45,-2.45 1.3545,0 2.449999,1.0955 2.449999,2.45 0,1.3545 -1.095499,2.45 -2.449999,2.45 z" />
    <path
       d="m 28.504992,1035.2037 c 0.014,-0.112 0.0245,-0.2258 0.0245,-0.3413 0,-0.1155 -0.0105,-0.2292 -0.0245,-0.3412 l 0.74025,-0.5793 c 0.0665,-0.053 0.08575,-0.147 0.042,-0.224 l -0.7,-1.2127 c -0.04375,-0.075 -0.13475,-0.1068 -0.2135,-0.075 l -0.8715,0.3518 c -0.18025,-0.1383 -0.378,-0.2555 -0.591499,-0.3448 l -0.13125,-0.9275 c -0.01575,-0.082 -0.0875,-0.147 -0.175,-0.147 l -1.4,0 c -0.0875,0 -0.15925,0.065 -0.17325,0.147 l -0.13125,0.9275 c -0.2135,0.089 -0.41125,0.2048 -0.5915,0.3448 l -0.8715,-0.3518 c -0.07875,-0.03 -0.16975,0 -0.2135,0.075 l -0.7,1.2127 c -0.04375,0.075 -0.0245,0.1698 0.042,0.224 l 0.7385,0.5793 c -0.014,0.112 -0.0245,0.2257 -0.0245,0.3412 0,0.1155 0.0105,0.2293 0.0245,0.3413 l -0.738501,0.5792 c -0.0665,0.053 -0.08575,0.147 -0.042,0.224 l 0.7,1.2128 c 0.04375,0.075 0.134751,0.1067 0.2135,0.075 l 0.871501,-0.3517 c 0.180249,0.1382 0.377999,0.2555 0.591499,0.3447 l 0.13125,0.9275 c 0.014,0.082 0.08575,0.147 0.17325,0.147 l 1.400001,0 c 0.0875,0 0.159249,-0.065 0.173249,-0.147 l 0.13125,-0.9275 c 0.213501,-0.089 0.41125,-0.2047 0.5915,-0.3447 l 0.8715,0.3517 c 0.07875,0.03 0.16975,0 0.2135,-0.075 l 0.700001,-1.2128 c 0.04375,-0.075 0.02449,-0.1697 -0.042,-0.224 l -0.7385,-0.5792 z m -2.600499,0.8837 c -0.67725,0 -1.225,-0.5477 -1.225,-1.225 0,-0.6772 0.54775,-1.225 1.225,-1.225 0.67725,0 1.224999,0.5477 1.224999,1.225 0,0.6772 -0.547749,1.225 -1.224999,1.225 z"
       id="path4168"
       inkscape:connector-curvature="0"
       style="fill:#f7fafd;fill-opacity:1" />
    <path
       style="fill:#f7fafd;fill-opacity:1"
       inkscape:connector-curvature="0"
       id="path4170"
       d="m 34.504992,1027.2037 c 0.014,-0.112 0.0245,-0.2258 0.0245,-0.3413 0,-0.1155 -0.0105,-0.2292 -0.0245,-0.3412 l 0.74025,-0.5793 c 0.0665,-0.053 0.08575,-0.147 0.042,-0.224 l -0.7,-1.2127 c -0.04375,-0.075 -0.13475,-0.1068 -0.2135,-0.075 l -0.8715,0.3518 c -0.18025,-0.1383 -0.378,-0.2555 -0.591499,-0.3448 l -0.13125,-0.9275 c -0.01575,-0.082 -0.0875,-0.147 -0.175,-0.147 l -1.4,0 c -0.0875,0 -0.15925,0.065 -0.17325,0.147 l -0.13125,0.9275 c -0.2135,0.089 -0.41125,0.2048 -0.5915,0.3448 l -0.8715,-0.3518 c -0.07875,-0.03 -0.16975,0 -0.2135,0.075 l -0.7,1.2127 c -0.04375,0.075 -0.0245,0.1698 0.042,0.224 l 0.7385,0.5793 c -0.014,0.112 -0.0245,0.2257 -0.0245,0.3412 0,0.1155 0.0105,0.2293 0.0245,0.3413 l -0.738501,0.5792 c -0.0665,0.053 -0.08575,0.147 -0.042,0.224 l 0.7,1.2128 c 0.04375,0.075 0.134751,0.1067 0.2135,0.075 l 0.871501,-0.3517 c 0.180249,0.1382 0.377999,0.2555 0.591499,0.3447 l 0.13125,0.9275 c 0.014,0.082 0.08575,0.147 0.17325,0.147 l 1.400001,0 c 0.0875,0 0.159249,-0.065 0.173249,-0.147 l 0.13125,-0.9275 c 0.213501,-0.089 0.41125,-0.2047 0.5915,-0.3447 l 0.8715,0.3517 c 0.07875,0.03 0.16975,0 0.2135,-0.075 l 0.700001,-1.2128 c 0.04375,-0.075 0.02449,-0.1697 -0.042,-0.224 l -0.7385,-0.5792 z m -2.600499,0.8837 c -0.67725,0 -1.225,-0.5477 -1.225,-1.225 0,-0.6772 0.54775,-1.225 1.225,-1.225 0.67725,0 1.224999,0.5477 1.224999,1.225 0,0.6772 -0.547749,1.225 -1.224999,1.225 z" />
  </g>
</svg>
