<?xml version="1.0" encoding="UTF-8" standalone="no"?>
<svg
   xmlns:dc="http://purl.org/dc/elements/1.1/"
   xmlns:cc="http://creativecommons.org/ns#"
   xmlns:rdf="http://www.w3.org/1999/02/22-rdf-syntax-ns#"
   xmlns:svg="http://www.w3.org/2000/svg"
   xmlns="http://www.w3.org/2000/svg"
   xmlns:sodipodi="http://sodipodi.sourceforge.net/DTD/sodipodi-0.dtd"
   xmlns:inkscape="http://www.inkscape.org/namespaces/inkscape"
   width="16"
   height="16"
   viewBox="0 0 16 16"
   id="svg2"
   version="1.1"
   inkscape:version="0.91 r13725"
   sodipodi:docname="input keyboard-symbolic.svg">
  <metadata
     id="metadata10">
    <rdf:RDF>
      <cc:Work
         rdf:about="">
        <dc:format>image/svg+xml</dc:format>
        <dc:type
           rdf:resource="http://purl.org/dc/dcmitype/StillImage" />
        <dc:title></dc:title>
      </cc:Work>
    </rdf:RDF>
  </metadata>
  <defs
     id="defs8" />
  <sodipodi:namedview
     pagecolor="#ffffff"
     bordercolor="#666666"
     borderopacity="1"
     objecttolerance="10"
     gridtolerance="10"
     guidetolerance="10"
     inkscape:pageopacity="0"
     inkscape:pageshadow="2"
     inkscape:window-width="1920"
     inkscape:window-height="1011"
     id="namedview6"
     showgrid="true"
     inkscape:zoom="13.906433"
     inkscape:cx="-0.33871641"
     inkscape:cy="0.20405865"
     inkscape:window-x="0"
     inkscape:window-y="0"
     inkscape:window-maximized="1"
     inkscape:current-layer="svg2">
    <inkscape:grid
       type="xygrid"
       id="grid4134" />
  </sodipodi:namedview>
  <path
     style="opacity:1;fill:#bebebe;fill-opacity:1;stroke:none;stroke-width:1.66600001;stroke-linecap:round;stroke-linejoin:round;stroke-miterlimit:4;stroke-dasharray:none;stroke-opacity:1"
     d="M 1 3 C 0.446 3 0 3.446 0 4 L 0 13 C 0 13.554 0.446 14 1 14 L 15 14 C 15.554 14 16 13.554 16 13 L 16 4 C 16 3.446 15.554 3 15 3 L 1 3 z M 1 5 L 3 5 L 3 7 L 1 7 L 1 5 z M 4 5 L 6 5 L 6 7 L 4 7 L 4 5 z M 7 5 L 9 5 L 9 7 L 7 7 L 7 5 z M 10 5 L 12 5 L 12 7 L 10 7 L 10 5 z M 13 5 L 15 5 L 15 7 L 13 7 L 13 5 z M 1 8 L 3 8 L 3 10 L 1 10 L 1 8 z M 4 8 L 6 8 L 6 10 L 4 10 L 4 8 z M 7 8 L 9 8 L 9 10 L 7 10 L 7 8 z M 10 8 L 12 8 L 12 10 L 10 10 L 10 8 z M 13 8 L 15 8 L 15 10 L 13 10 L 13 8 z M 5 11 L 11 11 L 11 12.720703 L 5 12.720703 L 5 11 z "
     id="rect4142" />
</svg>
