<?xml version="1.0" encoding="UTF-8" standalone="no"?>
<svg
   xmlns:dc="http://purl.org/dc/elements/1.1/"
   xmlns:cc="http://creativecommons.org/ns#"
   xmlns:rdf="http://www.w3.org/1999/02/22-rdf-syntax-ns#"
   xmlns:svg="http://www.w3.org/2000/svg"
   xmlns="http://www.w3.org/2000/svg"
   xmlns:sodipodi="http://sodipodi.sourceforge.net/DTD/sodipodi-0.dtd"
   xmlns:inkscape="http://www.inkscape.org/namespaces/inkscape"
   width="16"
   height="16"
   viewBox="0 0 16 16"
   id="svg2"
   version="1.1"
   inkscape:version="0.91 r13725"
   sodipodi:docname="printer-symbolic.svg">
  <metadata
     id="metadata10">
    <rdf:RDF>
      <cc:Work
         rdf:about="">
        <dc:format>image/svg+xml</dc:format>
        <dc:type
           rdf:resource="http://purl.org/dc/dcmitype/StillImage" />
        <dc:title></dc:title>
      </cc:Work>
    </rdf:RDF>
  </metadata>
  <defs
     id="defs8" />
  <sodipodi:namedview
     pagecolor="#ffffff"
     bordercolor="#666666"
     borderopacity="1"
     objecttolerance="10"
     gridtolerance="10"
     guidetolerance="10"
     inkscape:pageopacity="0"
     inkscape:pageshadow="2"
     inkscape:window-width="959"
     inkscape:window-height="1011"
     id="namedview6"
     showgrid="true"
     inkscape:zoom="27.812866"
     inkscape:cx="8.6713484"
     inkscape:cy="1.2645903"
     inkscape:window-x="960"
     inkscape:window-y="0"
     inkscape:window-maximized="0"
     inkscape:current-layer="svg2">
    <inkscape:grid
       type="xygrid"
       id="grid4133" />
  </sodipodi:namedview>
  <path
     d="M 4 1 L 4 4 L 12 4 L 12 1 L 4 1 z M 3.0996094 4.9003906 C 1.9411094 4.9003906 1 5.8415 1 7 L 1 11 L 4 11 L 4 14 L 12 14 L 12 11 L 15 11 L 15 7 C 15 5.8415 14.058891 4.9003906 12.900391 4.9003906 L 3.0996094 4.9003906 z M 12.900391 6.3007812 C 13.288891 6.3007812 13.599609 6.6115 13.599609 7 C 13.599609 7.3885 13.288891 7.6992186 12.900391 7.6992188 C 12.511891 7.6992188 12.199219 7.3885 12.199219 7 C 12.199219 6.6115 12.511891 6.3007814 12.900391 6.3007812 z M 5 9 L 11 9 L 11 13 L 5 13 L 5 9 z "
     id="path4"
     style="fill:#bebebe;fill-opacity:1" />
</svg>
