<?xml version="1.0" encoding="UTF-8" standalone="no"?>
<svg
   xmlns:dc="http://purl.org/dc/elements/1.1/"
   xmlns:cc="http://creativecommons.org/ns#"
   xmlns:rdf="http://www.w3.org/1999/02/22-rdf-syntax-ns#"
   xmlns:svg="http://www.w3.org/2000/svg"
   xmlns="http://www.w3.org/2000/svg"
   xmlns:sodipodi="http://sodipodi.sourceforge.net/DTD/sodipodi-0.dtd"
   xmlns:inkscape="http://www.inkscape.org/namespaces/inkscape"
   width="16"
   height="16"
   viewBox="0 0 16 16"
   id="svg2"
   version="1.1"
   inkscape:version="0.91 r13725"
   sodipodi:docname="edit-copy.svg">
  <metadata
     id="metadata12">
    <rdf:RDF>
      <cc:Work
         rdf:about="">
        <dc:format>image/svg+xml</dc:format>
        <dc:type
           rdf:resource="http://purl.org/dc/dcmitype/StillImage" />
        <dc:title />
      </cc:Work>
    </rdf:RDF>
  </metadata>
  <defs
     id="defs10" />
  <sodipodi:namedview
     pagecolor="#ffffff"
     bordercolor="#666666"
     borderopacity="1"
     objecttolerance="10"
     gridtolerance="10"
     guidetolerance="10"
     inkscape:pageopacity="0"
     inkscape:pageshadow="2"
     inkscape:window-width="959"
     inkscape:window-height="1008"
     id="namedview8"
     showgrid="true"
     inkscape:zoom="16"
     inkscape:cx="7.955088"
     inkscape:cy="-5.6455551"
     inkscape:window-x="960"
     inkscape:window-y="0"
     inkscape:window-maximized="0"
     inkscape:current-layer="svg2">
    <inkscape:grid
       type="xygrid"
       id="grid3333" />
  </sodipodi:namedview>
  <path
     style="opacity:1;fill:#000000;fill-opacity:0.54901961;stroke:none;stroke-width:2;stroke-linecap:round;stroke-linejoin:round;stroke-miterlimit:4;stroke-dasharray:none;stroke-opacity:0.55"
     d="M 6.1523438 4 C 5.5142521 4 5 4.4918055 5 5.1035156 L 5 13.896484 C 5 14.508195 5.514252 15 6.1523438 15 L 12.847656 15 C 13.485748 15 14 14.508195 14 13.896484 L 14 5.1035156 C 14 4.4918055 13.485748 4 12.847656 4 L 6.1523438 4 z M 7 6 L 12 6 L 12 7 L 7 7 L 7 6 z M 7 9 L 12 9 L 12 10 L 7 10 L 7 9 z M 7 12 L 12 12 L 12 13 L 7 13 L 7 12 z "
     id="rect4137" />
  <path
     style="opacity:1;fill:#000000;fill-opacity:0.54901961;stroke:none;stroke-width:2;stroke-linecap:round;stroke-linejoin:round;stroke-miterlimit:4;stroke-dasharray:none;stroke-opacity:0.55"
     d="M 3.1523438 1 C 2.5142521 1 2 1.4918055 2 2.1035156 L 2 10.896484 C 2 11.508195 2.514252 12 3.1523438 12 L 4 12 L 4 9 L 4 7 L 4 5 L 4 4.1035156 L 4 3 L 5.1523438 3 L 9 3 L 11 3 L 11 2.1035156 C 11 1.4918055 10.485748 1 9.8476562 1 L 3.1523438 1 z "
     id="path4145" />
</svg>
