<?xml version="1.0" encoding="UTF-8" standalone="no"?>
<!-- Created with Inkscape (http://www.inkscape.org/) -->

<svg
   xmlns:dc="http://purl.org/dc/elements/1.1/"
   xmlns:cc="http://creativecommons.org/ns#"
   xmlns:rdf="http://www.w3.org/1999/02/22-rdf-syntax-ns#"
   xmlns:svg="http://www.w3.org/2000/svg"
   xmlns="http://www.w3.org/2000/svg"
   xmlns:sodipodi="http://sodipodi.sourceforge.net/DTD/sodipodi-0.dtd"
   xmlns:inkscape="http://www.inkscape.org/namespaces/inkscape"
   width="16"
   height="16"
   viewBox="0 0 16 16"
   id="svg3338"
   version="1.1"
   inkscape:version="0.91 r13725"
   sodipodi:docname="edit-clear.svg">
  <defs
     id="defs3340" />
  <sodipodi:namedview
     id="base"
     pagecolor="#ffffff"
     bordercolor="#666666"
     borderopacity="1.0"
     inkscape:pageopacity="0.0"
     inkscape:pageshadow="2"
     inkscape:zoom="63.356768"
     inkscape:cx="10.762856"
     inkscape:cy="8.7008121"
     inkscape:document-units="px"
     inkscape:current-layer="layer1"
     showgrid="true"
     units="px"
     inkscape:window-width="1920"
     inkscape:window-height="1008"
     inkscape:window-x="0"
     inkscape:window-y="0"
     inkscape:window-maximized="1">
    <inkscape:grid
       type="xygrid"
       id="grid3361" />
  </sodipodi:namedview>
  <metadata
     id="metadata3343">
    <rdf:RDF>
      <cc:Work
         rdf:about="">
        <dc:format>image/svg+xml</dc:format>
        <dc:type
           rdf:resource="http://purl.org/dc/dcmitype/StillImage" />
        <dc:title></dc:title>
      </cc:Work>
    </rdf:RDF>
  </metadata>
  <g
     inkscape:label="Laag 1"
     inkscape:groupmode="layer"
     id="layer1"
     transform="translate(0,-1036.3622)">
    <path
       style="opacity:1;fill:#000000;fill-opacity:0.55000001;stroke:none;stroke-width:2;stroke-linecap:round;stroke-linejoin:round;stroke-miterlimit:4;stroke-dasharray:none;stroke-opacity:0.55"
       d="M 6 3 L 1 8 L 6 13 L 7 13 L 8 13 L 13 13 C 14.108 13 15 12.108 15 11 L 15 5 C 15 3.892 14.108 3 13 3 L 8 3 L 7 3 L 6 3 z M 7.4921875 4.6601562 C 7.7043446 4.6601562 7.9155593 4.7417312 8.078125 4.9042969 L 10 6.8261719 L 11.921875 4.9042969 C 12.247006 4.5791654 12.770572 4.5791654 13.095703 4.9042969 C 13.420835 5.2294283 13.420835 5.7529936 13.095703 6.078125 L 11.173828 8 L 13.095703 9.921875 C 13.420835 10.247006 13.420835 10.770572 13.095703 11.095703 C 12.770572 11.420835 12.247006 11.420835 11.921875 11.095703 L 10 9.1738281 L 8.078125 11.095703 C 7.7529936 11.420835 7.2294283 11.420835 6.9042969 11.095703 C 6.5791654 10.770572 6.5791654 10.247006 6.9042969 9.921875 L 8.8261719 8 L 6.9042969 6.078125 C 6.5791654 5.7529936 6.5791654 5.2294283 6.9042969 4.9042969 C 7.0668626 4.7417312 7.2800304 4.6601563 7.4921875 4.6601562 z "
       transform="translate(0,1036.3622)"
       id="rect4137" />
  </g>
</svg>
