<?xml version="1.0" encoding="UTF-8" standalone="no"?>
<svg
   xmlns:dc="http://purl.org/dc/elements/1.1/"
   xmlns:cc="http://creativecommons.org/ns#"
   xmlns:rdf="http://www.w3.org/1999/02/22-rdf-syntax-ns#"
   xmlns:svg="http://www.w3.org/2000/svg"
   xmlns="http://www.w3.org/2000/svg"
   xmlns:sodipodi="http://sodipodi.sourceforge.net/DTD/sodipodi-0.dtd"
   xmlns:inkscape="http://www.inkscape.org/namespaces/inkscape"
   enable-background="new"
   viewBox="0 0 16 16"
   id="svg2"
   version="1.1"
   inkscape:version="0.91 r13725"
   sodipodi:docname="dialog-cancel.svg">
  <metadata
     id="metadata14">
    <rdf:RDF>
      <cc:Work
         rdf:about="">
        <dc:format>image/svg+xml</dc:format>
        <dc:type
           rdf:resource="http://purl.org/dc/dcmitype/StillImage" />
        <dc:title></dc:title>
      </cc:Work>
    </rdf:RDF>
  </metadata>
  <sodipodi:namedview
     pagecolor="#ffffff"
     bordercolor="#666666"
     borderopacity="1"
     objecttolerance="10"
     gridtolerance="10"
     guidetolerance="10"
     inkscape:pageopacity="0"
     inkscape:pageshadow="2"
     inkscape:window-width="713"
     inkscape:window-height="480"
     id="namedview12"
     showgrid="false"
     inkscape:zoom="14.75"
     inkscape:cx="-0.74576271"
     inkscape:cy="8"
     inkscape:window-x="179"
     inkscape:window-y="492"
     inkscape:window-maximized="0"
     inkscape:current-layer="svg2" />
  <defs
     id="defs4">
    <filter
       color-interpolation-filters="sRGB"
       id="filter6">
      <feBlend
         in2="BackgroundImage"
         mode="darken"
         id="feBlend8" />
    </filter>
  </defs>
  <path
     inkscape:connector-curvature="0"
     style="color:#000000;opacity:0.5;fill:#000000"
     d="m 4,2.5899996 c -0.469,0.469 -0.938,0.938 -1.406,1.406 C 3.56,5.0189996 5.573,6.996 6.563,7.996 c -0.99,1 -3,2.977 -3.969,4 0.469,0.469 0.938,0.938 1.406,1.406 1.023,-0.966 3,-2.979 4,-3.969 1,0.99 2.977,3 4,3.969 0.469,-0.469 0.938,-0.938 1.406,-1.406 -0.966,-1.023 -2.979,-3 -3.969,-4 0.99,-1 3,-2.9770004 3.969,-4.0000004 -0.469,-0.469 -0.938,-0.938 -1.406,-1.406 -1.023,0.966 -3,2.979 -4,3.9690004 C 7,5.5689996 5.023,3.5589996 4,2.5899996"
     id="path10" />
</svg>
