<?xml version="1.0" encoding="UTF-8" standalone="no"?>
<!-- Created with Inkscape (http://www.inkscape.org/) -->

<svg
   xmlns:dc="http://purl.org/dc/elements/1.1/"
   xmlns:cc="http://creativecommons.org/ns#"
   xmlns:rdf="http://www.w3.org/1999/02/22-rdf-syntax-ns#"
   xmlns:svg="http://www.w3.org/2000/svg"
   xmlns="http://www.w3.org/2000/svg"
   xmlns:xlink="http://www.w3.org/1999/xlink"
   xmlns:sodipodi="http://sodipodi.sourceforge.net/DTD/sodipodi-0.dtd"
   xmlns:inkscape="http://www.inkscape.org/namespaces/inkscape"
   width="48"
   height="48"
   viewBox="0 0 48 48"
   id="svg4162"
   version="1.1"
   inkscape:version="0.91 r13725"
   sodipodi:docname="user-desktop.svg">
  <defs
     id="defs4164">
    <linearGradient
       inkscape:collect="always"
       id="linearGradient4160">
      <stop
         style="stop-color:#365994;stop-opacity:1"
         offset="0"
         id="stop4162" />
      <stop
         style="stop-color:#856c86;stop-opacity:1"
         offset="1"
         id="stop4164" />
    </linearGradient>
    <linearGradient
       gradientUnits="userSpaceOnUse"
       y2="1016.3622"
       x2="46"
       y1="1016.3622"
       x1="44"
       id="linearGradient4214"
       xlink:href="#linearGradient4200"
       gradientTransform="matrix(0.99941701,0,0,1,0.01400187,1.000097)" />
    <linearGradient
       id="linearGradient4200">
      <stop
         style="stop-color:#000000;stop-opacity:0.40000001"
         offset="0"
         id="stop4202" />
      <stop
         style="stop-color:#000000;stop-opacity:0;"
         offset="1"
         id="stop4204" />
    </linearGradient>
    <linearGradient
       gradientTransform="matrix(0.99940951,0,0,1,0.00118187,1004.3622)"
       gradientUnits="userSpaceOnUse"
       y2="38"
       x2="34"
       y1="7"
       x1="3"
       id="linearGradient4211"
       xlink:href="#linearGradient4165" />
    <linearGradient
       id="linearGradient4165">
      <stop
         id="stop4167"
         offset="0"
         style="stop-color:#ffffff;stop-opacity:0.25" />
      <stop
         id="stop4169"
         offset="1"
         style="stop-color:#177ed5;stop-opacity:0;" />
    </linearGradient>
    <linearGradient
       inkscape:collect="always"
       xlink:href="#linearGradient4160"
       id="linearGradient4166"
       x1="5"
       y1="1008.3622"
       x2="46"
       y2="1050.3622"
       gradientUnits="userSpaceOnUse"
       gradientTransform="matrix(0.90909091,0,0,0.90909055,-45.818182,93.48785)" />
    <linearGradient
       inkscape:collect="always"
       xlink:href="#linearGradient4165"
       id="linearGradient4171-1"
       x1="7"
       y1="1011.3622"
       x2="41.000019"
       y2="1045.3622"
       gradientUnits="userSpaceOnUse"
       gradientTransform="matrix(0.86956058,0,0,0.86956384,3.1304418,134.13588)" />
  </defs>
  <sodipodi:namedview
     id="base"
     pagecolor="#ffffff"
     bordercolor="#666666"
     borderopacity="1.0"
     inkscape:pageopacity="0.0"
     inkscape:pageshadow="2"
     inkscape:zoom="22.627416"
     inkscape:cx="19.806183"
     inkscape:cy="9.2322462"
     inkscape:document-units="px"
     inkscape:current-layer="layer1"
     showgrid="true"
     units="px"
     inkscape:window-width="1639"
     inkscape:window-height="1002"
     inkscape:window-x="0"
     inkscape:window-y="0"
     inkscape:window-maximized="0">
    <inkscape:grid
       type="xygrid"
       id="grid4151" />
  </sodipodi:namedview>
  <metadata
     id="metadata4167">
    <rdf:RDF>
      <cc:Work
         rdf:about="">
        <dc:format>image/svg+xml</dc:format>
        <dc:type
           rdf:resource="http://purl.org/dc/dcmitype/StillImage" />
        <dc:title />
      </cc:Work>
    </rdf:RDF>
  </metadata>
  <g
     inkscape:label="Laag 1"
     inkscape:groupmode="layer"
     id="layer1"
     transform="translate(0,-1004.3622)">
    <rect
       style="opacity:1;fill:url(#linearGradient4166);fill-opacity:1;stroke:none;stroke-width:0;stroke-linecap:butt;stroke-linejoin:miter;stroke-miterlimit:0;stroke-dasharray:none;stroke-opacity:1"
       id="rect4153"
       width="40"
       height="39.999985"
       x="-44"
       y="1008.3622"
       rx="3.6363637"
       ry="3.6363623"
       transform="scale(-1,1)" />
    <path
       style="opacity:1;fill:#31363d;fill-opacity:0.7;stroke:none;stroke-width:0;stroke-linecap:butt;stroke-linejoin:miter;stroke-miterlimit:0;stroke-dasharray:none;stroke-opacity:1"
       d="M 4 40 L 4 40.363281 L 4 40.558594 L 4.0195312 40.558594 C 4.1224563 42.479667 5.6891391 44 7.6367188 44 L 40.363281 44 C 42.310861 44 43.877544 42.479667 43.980469 40.558594 L 44 40.558594 L 44 40.363281 L 44 40 L 4 40 z "
       transform="translate(0,1004.3622)"
       id="rect4155" />
    <path
       style="fill:url(#linearGradient4171-1);fill-opacity:1;stroke:none;stroke-width:2;stroke-linecap:round;stroke-linejoin:round;stroke-miterlimit:4;stroke-dasharray:none;stroke-opacity:1"
       d="M 7.6363636,1008.3622 C 5.6218182,1008.3622 4,1009.984 4,1011.9986 l 0,16.3636 0,16.3636 c 0,2.0146 1.6218182,3.6364 3.6363636,3.6364 l 16.3636364,0 16.363636,0 c 2.014546,0 3.636364,-1.6218 3.636364,-3.6364 l 0,-16.3636 0,-16.3636 c 0,-2.0146 -1.621818,-3.6364 -3.636364,-3.6364 l -16.363636,0 -16.3636364,0 z"
       id="circle4163-3"
       inkscape:connector-curvature="0" />
    <path
       style="opacity:1;fill:#ffffff;fill-opacity:0.2;stroke:none;stroke-width:0;stroke-linecap:butt;stroke-linejoin:miter;stroke-miterlimit:0;stroke-dasharray:none;stroke-opacity:1"
       d="M 7.6367188 4 C 5.6221732 4 4 5.622174 4 7.6367188 L 4 8.6367188 C 4 6.622174 5.6221732 5 7.6367188 5 L 40.363281 5 C 42.377827 5 44 6.622174 44 8.6367188 L 44 7.6367188 C 44 5.622174 42.377827 4 40.363281 4 L 7.6367188 4 z "
       transform="translate(0,1004.3622)"
       id="rect4156" />
    <path
       id="path4166"
       d="M 7.6367188,1048.3622 C 5.6221732,1048.3622 4,1046.74 4,1044.7255 l 0,-1 c 0,2.0145 1.6221732,3.6367 3.6367188,3.6367 l 32.7265622,0 C 42.377827,1047.3622 44,1045.74 44,1043.7255 l 0,1 c 0,2.0145 -1.622173,3.6367 -3.636719,3.6367 l -32.7265622,0 z"
       style="opacity:1;fill:#000000;fill-opacity:0.2;stroke:none;stroke-width:0;stroke-linecap:butt;stroke-linejoin:miter;stroke-miterlimit:0;stroke-dasharray:none;stroke-opacity:1"
       inkscape:connector-curvature="0" />
  </g>
</svg>
