<?xml version="1.0" encoding="UTF-8" standalone="no"?>
<!-- Created with Inkscape (http://www.inkscape.org/) -->

<svg
   xmlns:dc="http://purl.org/dc/elements/1.1/"
   xmlns:cc="http://creativecommons.org/ns#"
   xmlns:rdf="http://www.w3.org/1999/02/22-rdf-syntax-ns#"
   xmlns:svg="http://www.w3.org/2000/svg"
   xmlns="http://www.w3.org/2000/svg"
   xmlns:xlink="http://www.w3.org/1999/xlink"
   xmlns:sodipodi="http://sodipodi.sourceforge.net/DTD/sodipodi-0.dtd"
   xmlns:inkscape="http://www.inkscape.org/namespaces/inkscape"
   width="48"
   height="48"
   viewBox="0 0 48 48"
   id="svg4162"
   version="1.1"
   inkscape:version="0.91 r13725"
   sodipodi:docname="user-desktop.svg">
  <defs
     id="defs4164">
    <linearGradient
       inkscape:collect="always"
       id="linearGradient4160">
      <stop
         style="stop-color:#365994;stop-opacity:1"
         offset="0"
         id="stop4162" />
      <stop
         style="stop-color:#856c86;stop-opacity:1"
         offset="1"
         id="stop4164" />
    </linearGradient>
    <linearGradient
       gradientUnits="userSpaceOnUse"
       y2="1016.3622"
       x2="46"
       y1="1016.3622"
       x1="44"
       id="linearGradient4214"
       xlink:href="#linearGradient4200"
       gradientTransform="matrix(0.99941701,0,0,1,0.01400187,1.000097)" />
    <linearGradient
       id="linearGradient4200">
      <stop
         style="stop-color:#000000;stop-opacity:0.40000001"
         offset="0"
         id="stop4202" />
      <stop
         style="stop-color:#000000;stop-opacity:0;"
         offset="1"
         id="stop4204" />
    </linearGradient>
    <linearGradient
       gradientTransform="matrix(0.99940951,0,0,1,0.00118187,1004.3622)"
       gradientUnits="userSpaceOnUse"
       y2="38"
       x2="34"
       y1="7"
       x1="3"
       id="linearGradient4211"
       xlink:href="#linearGradient4165" />
    <linearGradient
       id="linearGradient4165">
      <stop
         id="stop4167"
         offset="0"
         style="stop-color:#ffffff;stop-opacity:0.25" />
      <stop
         id="stop4169"
         offset="1"
         style="stop-color:#177ed5;stop-opacity:0;" />
    </linearGradient>
    <linearGradient
       inkscape:collect="always"
       xlink:href="#linearGradient4160"
       id="linearGradient4166"
       x1="5"
       y1="1008.3622"
       x2="46"
       y2="1050.3622"
       gradientUnits="userSpaceOnUse"
       gradientTransform="translate(-48,0)" />
    <linearGradient
       inkscape:collect="always"
       xlink:href="#linearGradient4165"
       id="linearGradient4171-1"
       x1="7"
       y1="1011.3622"
       x2="41.000019"
       y2="1045.3622"
       gradientUnits="userSpaceOnUse"
       gradientTransform="matrix(0.95651664,0,0,0.9565206,1.043486,44.71285)" />
  </defs>
  <sodipodi:namedview
     id="base"
     pagecolor="#ffffff"
     bordercolor="#666666"
     borderopacity="1.0"
     inkscape:pageopacity="0.0"
     inkscape:pageshadow="2"
     inkscape:zoom="11.313708"
     inkscape:cx="36.710683"
     inkscape:cy="25.901677"
     inkscape:document-units="px"
     inkscape:current-layer="layer1"
     showgrid="true"
     units="px"
     inkscape:window-width="1639"
     inkscape:window-height="1004"
     inkscape:window-x="0"
     inkscape:window-y="0"
     inkscape:window-maximized="0">
    <inkscape:grid
       type="xygrid"
       id="grid4151" />
  </sodipodi:namedview>
  <metadata
     id="metadata4167">
    <rdf:RDF>
      <cc:Work
         rdf:about="">
        <dc:format>image/svg+xml</dc:format>
        <dc:type
           rdf:resource="http://purl.org/dc/dcmitype/StillImage" />
        <dc:title />
      </cc:Work>
    </rdf:RDF>
  </metadata>
  <g
     inkscape:label="Laag 1"
     inkscape:groupmode="layer"
     id="layer1"
     transform="translate(0,-1004.3622)">
    <rect
       style="opacity:1;fill:url(#linearGradient4166);fill-opacity:1;stroke:none;stroke-width:0;stroke-linecap:butt;stroke-linejoin:miter;stroke-miterlimit:0;stroke-dasharray:none;stroke-opacity:1"
       id="rect4153"
       width="44"
       height="44"
       x="-46"
       y="1006.3622"
       rx="4"
       ry="4"
       transform="scale(-1,1)" />
    <path
       style="opacity:1;fill:#31363d;fill-opacity:0.69999999;stroke:none;stroke-width:0;stroke-linecap:butt;stroke-linejoin:miter;stroke-miterlimit:0;stroke-dasharray:none;stroke-opacity:1"
       d="M 2 42 C 2 44.216 3.784 46 6 46 L 42 46 C 44.216 46 46 44.216 46 42 L 2 42 z "
       transform="translate(0,1004.3622)"
       id="rect4155" />
    <path
       style="opacity:1;fill:#ffffff;fill-opacity:0.2;stroke:none;stroke-width:0;stroke-linecap:butt;stroke-linejoin:miter;stroke-miterlimit:0;stroke-dasharray:none;stroke-opacity:1"
       d="M 6 2 C 3.784 2 2 3.784 2 6 L 2 6.5 C 2 4.284 3.784 2.5 6 2.5 L 42 2.5 C 44.216 2.5 46 4.284 46 6.5 L 46 6 C 46 3.784 44.216 2 42 2 L 6 2 z "
       transform="translate(0,1004.3622)"
       id="rect4148" />
    <path
       id="path4157"
       d="m 6,1050.3622 c -2.216,0 -4,-1.784 -4,-4 l 0,-0.5 c 0,2.216 1.784,4 4,4 l 36,0 c 2.216,0 4,-1.784 4,-4 l 0,0.5 c 0,2.216 -1.784,4 -4,4 l -36,0 z"
       style="opacity:1;fill:#000000;fill-opacity:0.2;stroke:none;stroke-width:0;stroke-linecap:butt;stroke-linejoin:miter;stroke-miterlimit:0;stroke-dasharray:none;stroke-opacity:1"
       inkscape:connector-curvature="0" />
    <path
       style="fill:url(#linearGradient4171-1);fill-opacity:1;stroke:none;stroke-width:2;stroke-linecap:round;stroke-linejoin:round;stroke-miterlimit:4;stroke-dasharray:none;stroke-opacity:1"
       d="m 6,1006.3622 c -2.216,0 -4,1.784 -4,4 l 0,18 0,18 c 0,2.216 1.784,4 4,4 l 18,0 18,0 c 2.216,0 4,-1.784 4,-4 l 0,-18 0,-18 c 0,-2.216 -1.784,-4 -4,-4 l -18,0 -18,0 z"
       id="circle4163-3"
       inkscape:connector-curvature="0" />
  </g>
</svg>
