<?xml version="1.0" encoding="UTF-8" standalone="no"?>
<!-- Created with Inkscape (http://www.inkscape.org/) -->

<svg
   xmlns:dc="http://purl.org/dc/elements/1.1/"
   xmlns:cc="http://creativecommons.org/ns#"
   xmlns:rdf="http://www.w3.org/1999/02/22-rdf-syntax-ns#"
   xmlns:svg="http://www.w3.org/2000/svg"
   xmlns="http://www.w3.org/2000/svg"
   xmlns:xlink="http://www.w3.org/1999/xlink"
   xmlns:sodipodi="http://sodipodi.sourceforge.net/DTD/sodipodi-0.dtd"
   xmlns:inkscape="http://www.inkscape.org/namespaces/inkscape"
   width="48"
   height="48"
   viewBox="0 0 48 48"
   id="svg4162"
   version="1.1"
   inkscape:version="0.91 r13725"
   sodipodi:docname="user-trash-full.svg"
   inkscape:export-filename="/home/peter/Documenten/shades1.png"
   inkscape:export-xdpi="360"
   inkscape:export-ydpi="360">
  <defs
     id="defs4164">
    <linearGradient
       gradientUnits="userSpaceOnUse"
       y2="1016.3622"
       x2="46"
       y1="1016.3622"
       x1="44"
       id="linearGradient4214"
       xlink:href="#linearGradient4200"
       gradientTransform="matrix(0.99941701,0,0,1,0.01400187,1.000097)" />
    <linearGradient
       id="linearGradient4200">
      <stop
         style="stop-color:#000000;stop-opacity:0.40000001"
         offset="0"
         id="stop4202" />
      <stop
         style="stop-color:#000000;stop-opacity:0;"
         offset="1"
         id="stop4204" />
    </linearGradient>
    <linearGradient
       gradientTransform="matrix(0.99940951,0,0,1,0.00118187,1004.3622)"
       gradientUnits="userSpaceOnUse"
       y2="38"
       x2="34"
       y1="7"
       x1="3"
       id="linearGradient4211"
       xlink:href="#linearGradient4165" />
    <linearGradient
       id="linearGradient4165">
      <stop
         id="stop4167"
         offset="0"
         style="stop-color:#ffffff;stop-opacity:0.25" />
      <stop
         id="stop4169"
         offset="1"
         style="stop-color:#177ed5;stop-opacity:0;" />
    </linearGradient>
    <linearGradient
       inkscape:collect="always"
       xlink:href="#linearGradient4165"
       id="linearGradient4202"
       x1="55"
       y1="1002.3622"
       x2="95"
       y2="1042.3622"
       gradientUnits="userSpaceOnUse"
       gradientTransform="translate(-51,-998.36194)" />
  </defs>
  <sodipodi:namedview
     id="base"
     pagecolor="#ffffff"
     bordercolor="#666666"
     borderopacity="1.0"
     inkscape:pageopacity="0.0"
     inkscape:pageshadow="2"
     inkscape:zoom="15.999999"
     inkscape:cx="10.822587"
     inkscape:cy="42.81212"
     inkscape:document-units="px"
     inkscape:current-layer="layer1"
     showgrid="true"
     units="px"
     inkscape:window-width="1301"
     inkscape:window-height="1008"
     inkscape:window-x="56"
     inkscape:window-y="0"
     inkscape:window-maximized="0">
    <inkscape:grid
       type="xygrid"
       id="grid4151" />
  </sodipodi:namedview>
  <metadata
     id="metadata4167">
    <rdf:RDF>
      <cc:Work
         rdf:about="">
        <dc:format>image/svg+xml</dc:format>
        <dc:type
           rdf:resource="http://purl.org/dc/dcmitype/StillImage" />
        <dc:title />
      </cc:Work>
    </rdf:RDF>
  </metadata>
  <g
     inkscape:label="Laag 1"
     inkscape:groupmode="layer"
     id="layer1"
     transform="translate(0,-1004.3622)">
    <rect
       style="opacity:1;fill:#00838f;fill-opacity:1;stroke:none;stroke-width:2;stroke-linecap:round;stroke-linejoin:round;stroke-miterlimit:4;stroke-dasharray:none;stroke-opacity:0.55"
       id="rect4169"
       width="10"
       height="10"
       x="727.81891"
       y="693.87738"
       rx="3"
       ry="3.0000174"
       transform="matrix(0.70710678,0.70710678,-0.70710678,0.70710678,0,0)" />
    <path
       id="path4180"
       d="m 23.999497,1006.5302 c -0.766833,0 -1.53343,0.2952 -2.121019,0.8828 l -2.828025,2.8281 c -0.715913,0.7159 -0.990302,1.6972 -0.833954,2.6211 0.100301,-0.5927 0.374691,-1.1618 0.833954,-1.6211 l 2.828025,-2.8281 c 1.175178,-1.1752 3.066868,-1.1752 4.242039,0 l 2.828025,2.8281 c 0.459255,0.4593 0.733654,1.0284 0.833954,1.6211 0.156361,-0.9239 -0.118039,-1.9052 -0.833954,-2.6211 l -2.828025,-2.8281 c -0.587586,-0.5876 -1.354187,-0.8828 -2.12102,-0.8828 z"
       style="opacity:1;fill:#ffffff;fill-opacity:0.2;stroke:none;stroke-width:2;stroke-linecap:round;stroke-linejoin:round;stroke-miterlimit:4;stroke-dasharray:none;stroke-opacity:0.55"
       inkscape:connector-curvature="0" />
    <rect
       transform="matrix(0.70710678,0.70710678,-0.70710678,0.70710678,0,0)"
       ry="3.0000174"
       rx="3"
       y="698.82697"
       x="724.28339"
       height="10"
       width="10"
       id="rect4171"
       style="opacity:1;fill:#795548;fill-opacity:1;stroke:none;stroke-width:2;stroke-linecap:round;stroke-linejoin:round;stroke-miterlimit:4;stroke-dasharray:none;stroke-opacity:0.55" />
    <path
       inkscape:connector-curvature="0"
       style="opacity:1;fill:#ffffff;fill-opacity:0.2;stroke:none;stroke-width:2;stroke-linecap:round;stroke-linejoin:round;stroke-miterlimit:4;stroke-dasharray:none;stroke-opacity:0.55"
       d="m 17.999497,1007.5301 c -0.766833,0 -1.53343,0.2952 -2.121019,0.8828 l -2.828025,2.8281 c -0.715913,0.7159 -0.990302,1.6972 -0.833954,2.6211 0.100301,-0.5927 0.374691,-1.1618 0.833954,-1.6211 l 2.828025,-2.8281 c 1.175178,-1.1752 3.066868,-1.1752 4.242039,0 l 2.828025,2.8281 c 0.459255,0.4593 0.733654,1.0284 0.833954,1.6211 0.156361,-0.9239 -0.118039,-1.9052 -0.833954,-2.6211 l -2.828025,-2.8281 c -0.587586,-0.5876 -1.354187,-0.8828 -2.12102,-0.8828 z"
       id="path4182" />
    <rect
       style="opacity:1;fill:#424242;fill-opacity:1;stroke:none;stroke-width:2;stroke-linecap:round;stroke-linejoin:round;stroke-miterlimit:4;stroke-dasharray:none;stroke-opacity:0.55"
       id="rect4173"
       width="10"
       height="10"
       x="732.76849"
       y="690.34186"
       rx="3"
       ry="3.0000174"
       transform="matrix(0.70710678,0.70710678,-0.70710678,0.70710678,0,0)" />
    <path
       inkscape:connector-curvature="0"
       style="opacity:1;fill:#ffffff;fill-opacity:0.2;stroke:none;stroke-width:2;stroke-linecap:round;stroke-linejoin:round;stroke-miterlimit:4;stroke-dasharray:none;stroke-opacity:0.55"
       d="m 30,1007.5302 c -0.76686,0 -1.533485,0.2952 -2.121094,0.8828 l -2.828125,2.8281 c -0.715938,0.7159 -0.990337,1.6972 -0.833984,2.6211 0.100305,-0.5927 0.374705,-1.1618 0.833984,-1.6211 l 2.828125,-2.8281 c 1.175219,-1.1752 3.066976,-1.1752 4.242188,0 l 2.828125,2.8281 c 0.459271,0.4593 0.73368,1.0284 0.833984,1.6211 0.156366,-0.9239 -0.118044,-1.9052 -0.833984,-2.6211 l -2.828125,-2.8281 C 31.533488,1007.8254 30.76686,1007.5302 30,1007.5302 Z"
       id="rect4175" />
    <path
       style="fill:#009688;fill-opacity:1;stroke:none"
       d="m 4,6 4,37 c 0.184686,1.708346 1.252614,3 3.015625,3 L 37,46 c 1.758969,0 3,-1.2293 3,-3 L 44,6 Z"
       transform="translate(0,1004.3622)"
       id="rect3338-0"
       inkscape:connector-curvature="0"
       sodipodi:nodetypes="csssscc" />
    <path
       style="fill:#000000;fill-opacity:0.2;stroke:none"
       d="M 8 42 L 8 43 C 8 44.7183 9.252614 46 11.015625 46 L 37 46 C 38.758969 46 40 44.7707 40 43 L 40 42 C 40 43.7707 38.758969 45 37 45 L 11.015625 45 C 9.252614 45 8 43.7183 8 42 z "
       transform="translate(0,1004.3622)"
       id="path4201" />
    <g
       id="g3"
       transform="matrix(0.03820111,0,0,0.03820111,12.5,1019.4253)"
       style="fill:#000000;fill-opacity:0.2">
      <g
         id="g5"
         style="fill:#000000;fill-opacity:0.2">
        <g
           id="g7"
           style="fill:#000000;fill-opacity:0.2">
          <g
             id="g9"
             style="fill:#000000;fill-opacity:0.2">
            <path
               d="m 99.777,446.086 c -6.699,12.031 -12.031,30.133 -12.031,41.539 0,2.648 0,6.016 0.656,10.688 L 4.676,354.32 C 1.996,349.648 0,342.945 0,336.906 0,330.859 1.996,323.508 4.676,318.828 L 44.871,248.5 0,223.07 146.016,220.367 217,348.281 171.473,322.164 99.777,446.086 Z M 164.09,40.227 c 12.715,-22.125 33.496,-34.18 58.926,-34.18 27.48,0 48.918,12.742 64.312,38.828 L 310.105,83.047 231.054,219.711 103.14,145.359 164.09,40.227 Z m 9.351,521.718 c -38.172,0 -69.645,-31.477 -69.645,-69.648 0,-10.719 4.703,-28.82 11.402,-40.195 l 21.41,-38.172 158.758,0 0,148.016 -121.925,0 z M 300.727,36.18 C 290.691,18.789 277.293,6.703 261.215,0 l 164.746,0 c 14.738,0 26.113,6.047 32.84,17.445 l 40.852,69.648 44.191,-26.141 -71.016,127.281 -145.305,-2.047 44.871,-25.43 L 300.727,36.18 Z M 554.59,415.273 c 20.07,0 36.832,-5.359 50.887,-16.055 l -83.07,144.648 c -6.699,11.375 -18.73,18.078 -32.789,18.078 l -78.395,0 0,51.57 -75.004,-125.234 75.004,-125.266 0,52.258 143.367,0 z m 64.258,-120.562 c 6.043,10.719 9.406,22.094 9.406,34.156 0,24.117 -15.422,49.57 -36.832,61.602 -10.062,5.391 -24.145,8.75 -38.172,8.75 l -44.242,0 -79,-136.664 127.918,-73.008 60.922,105.164 z"
               id="path11"
               inkscape:connector-curvature="0"
               style="fill:#000000;fill-opacity:0.2" />
          </g>
        </g>
      </g>
    </g>
    <g
       transform="matrix(0.03820111,0,0,0.03820111,12,1018.9233)"
       id="g4218"
       style="fill:#f5f5f5;fill-opacity:1">
      <g
         id="g4220"
         style="fill:#f5f5f5;fill-opacity:1">
        <g
           id="g4222"
           style="fill:#f5f5f5;fill-opacity:1">
          <g
             id="g4224"
             style="fill:#f5f5f5;fill-opacity:1">
            <path
               inkscape:connector-curvature="0"
               id="path4226"
               d="m 99.777,446.086 c -6.699,12.031 -12.031,30.133 -12.031,41.539 0,2.648 0,6.016 0.656,10.688 L 4.676,354.32 C 1.996,349.648 0,342.945 0,336.906 0,330.859 1.996,323.508 4.676,318.828 L 44.871,248.5 0,223.07 146.016,220.367 217,348.281 171.473,322.164 99.777,446.086 Z M 164.09,40.227 c 12.715,-22.125 33.496,-34.18 58.926,-34.18 27.48,0 48.918,12.742 64.312,38.828 L 310.105,83.047 231.054,219.711 103.14,145.359 164.09,40.227 Z m 9.351,521.718 c -38.172,0 -69.645,-31.477 -69.645,-69.648 0,-10.719 4.703,-28.82 11.402,-40.195 l 21.41,-38.172 158.758,0 0,148.016 -121.925,0 z M 300.727,36.18 C 290.691,18.789 277.293,6.703 261.215,0 l 164.746,0 c 14.738,0 26.113,6.047 32.84,17.445 l 40.852,69.648 44.191,-26.141 -71.016,127.281 -145.305,-2.047 44.871,-25.43 L 300.727,36.18 Z M 554.59,415.273 c 20.07,0 36.832,-5.359 50.887,-16.055 l -83.07,144.648 c -6.699,11.375 -18.73,18.078 -32.789,18.078 l -78.395,0 0,51.57 -75.004,-125.234 75.004,-125.266 0,52.258 143.367,0 z m 64.258,-120.562 c 6.043,10.719 9.406,22.094 9.406,34.156 0,24.117 -15.422,49.57 -36.832,61.602 -10.062,5.391 -24.145,8.75 -38.172,8.75 l -44.242,0 -79,-136.664 127.918,-73.008 60.922,105.164 z"
               style="fill:#f5f5f5;fill-opacity:1" />
          </g>
        </g>
      </g>
    </g>
    <path
       style="fill:#ffffff;fill-opacity:0.2;stroke:none"
       d="M 4 6 L 4.1074219 7 L 43.892578 7 L 44 6 L 4 6 z "
       transform="translate(0,1004.3622)"
       id="path4164" />
    <path
       style="opacity:1;fill:url(#linearGradient4202);fill-opacity:1;stroke:none;stroke-width:0;stroke-linecap:butt;stroke-linejoin:miter;stroke-miterlimit:0;stroke-dasharray:none;stroke-opacity:1"
       d="M 24 2.1679688 C 23.23314 2.1679688 22.466515 2.4631813 21.878906 3.0507812 L 20.5 4.4296875 L 20.121094 4.0507812 C 18.945882 2.8755698 17.054125 2.875563 15.878906 4.0507812 L 13.931641 5.9980469 L 4 5.9980469 L 8 42.998047 C 8.020975 43.192047 8.0561244 43.378547 8.0996094 43.560547 C 8.1208414 43.646547 8.1478421 43.727747 8.1738281 43.810547 C 8.2004701 43.897547 8.2278006 43.983406 8.2597656 44.066406 C 8.2931506 44.152406 8.3299226 44.236459 8.3691406 44.318359 C 8.4021576 44.387359 8.4395096 44.453431 8.4765625 44.519531 C 8.5253495 44.607531 8.5749655 44.694191 8.6308594 44.775391 C 8.6574174 44.814391 8.6886899 44.847366 8.7167969 44.884766 C 8.8286204 45.029966 8.9506809 45.164856 9.0859375 45.285156 C 9.1536805 45.346156 9.2193587 45.409391 9.2929688 45.462891 C 9.3431548 45.498891 9.3960669 45.5305 9.4492188 45.5625 C 9.5390037 45.6185 9.6310708 45.670797 9.7285156 45.716797 C 9.7308856 45.716797 9.7339481 45.717597 9.7363281 45.716797 C 9.8015001 45.746797 9.8690909 45.774781 9.9375 45.800781 C 10.039195 45.838781 10.14506 45.869484 10.253906 45.896484 C 10.317466 45.912484 10.379376 45.931359 10.445312 45.943359 C 10.627012 45.975359 10.815794 46 11.015625 46 L 37 46 C 37.197542 46 37.386859 45.975313 37.570312 45.945312 C 37.637673 45.933313 37.702454 45.918344 37.767578 45.902344 C 37.769578 45.901844 37.771338 45.902344 37.773438 45.902344 C 37.886009 45.876344 37.995642 45.845594 38.101562 45.808594 L 38.103516 45.808594 C 38.173686 45.783594 38.241594 45.755562 38.308594 45.726562 L 38.310547 45.726562 C 38.395277 45.689562 38.475208 45.645563 38.554688 45.601562 C 38.635508 45.555562 38.717988 45.512584 38.792969 45.458984 C 38.817029 45.441984 38.837878 45.422297 38.861328 45.404297 C 38.865428 45.404297 38.869027 45.394531 38.873047 45.394531 C 39.086117 45.231231 39.276898 45.041666 39.433594 44.822266 C 39.519184 44.702466 39.595091 44.574153 39.662109 44.439453 L 39.664062 44.439453 C 39.667363 44.429453 39.670628 44.425922 39.673828 44.419922 C 39.736138 44.291622 39.791497 44.157978 39.835938 44.017578 C 39.836937 44.017578 39.838844 44.007812 39.839844 44.007812 C 39.843044 43.997813 39.844556 43.986562 39.847656 43.976562 C 39.889546 43.838763 39.925376 43.697581 39.951172 43.550781 C 39.978782 43.375381 39.9997 43.196412 40 43.007812 L 40 42.998047 L 40.005859 42.941406 L 44 5.9980469 L 34.068359 5.9980469 L 32.121094 4.0507812 C 30.945882 2.8755812 29.054125 2.8755812 27.878906 4.0507812 L 27.5 4.4296875 L 26.121094 3.0507812 C 25.533488 2.4631812 24.76686 2.1679688 24 2.1679688 z "
       transform="translate(0,1004.3622)"
       id="rect4153-9" />
  </g>
</svg>
